<svg xmlns="http://www.w3.org/2000/svg" xmlns:xlink="http://www.w3.org/1999/xlink" width="1080" zoomAndPan="magnify" viewBox="0 0 810 809.999993" height="1080" preserveAspectRatio="xMidYMid meet" version="1.0"><path fill="#5046e4" d="M 4.21875 405 C 4.21875 411.558594 4.378906 418.113281 4.703125 424.664062 C 5.023438 431.214844 5.503906 437.757812 6.148438 444.285156 C 6.792969 450.8125 7.59375 457.320312 8.558594 463.808594 C 9.519531 470.292969 10.640625 476.753906 11.917969 483.1875 C 13.199219 489.621094 14.636719 496.019531 16.230469 502.382812 C 17.824219 508.746094 19.574219 515.0625 21.476562 521.339844 C 23.378906 527.617188 25.4375 533.84375 27.648438 540.019531 C 29.855469 546.195312 32.214844 552.3125 34.726562 558.371094 C 37.238281 564.433594 39.894531 570.425781 42.699219 576.355469 C 45.503906 582.285156 48.449219 588.140625 51.542969 593.925781 C 54.632812 599.710938 57.867188 605.417969 61.238281 611.042969 C 64.609375 616.667969 68.117188 622.207031 71.761719 627.660156 C 75.40625 633.117188 79.183594 638.476562 83.089844 643.746094 C 86.996094 649.011719 91.03125 654.183594 95.191406 659.253906 C 99.351562 664.324219 103.636719 669.289062 108.039062 674.148438 C 112.445312 679.007812 116.96875 683.757812 121.605469 688.394531 C 126.242188 693.03125 130.992188 697.554688 135.851562 701.960938 C 140.710938 706.363281 145.675781 710.648438 150.746094 714.808594 C 155.816406 718.96875 160.988281 723.003906 166.253906 726.910156 C 171.523438 730.816406 176.882812 734.59375 182.339844 738.238281 C 187.792969 741.882812 193.332031 745.390625 198.957031 748.761719 C 204.582031 752.132812 210.289062 755.367188 216.074219 758.457031 C 221.859375 761.550781 227.714844 764.496094 233.644531 767.300781 C 239.574219 770.105469 245.566406 772.761719 251.628906 775.273438 C 257.6875 777.785156 263.804688 780.144531 269.980469 782.351562 C 276.15625 784.5625 282.382812 786.621094 288.660156 788.523438 C 294.9375 790.425781 301.253906 792.175781 307.617188 793.769531 C 313.980469 795.363281 320.378906 796.800781 326.8125 798.082031 C 333.246094 799.359375 339.707031 800.480469 346.191406 801.441406 C 352.679688 802.40625 359.1875 803.207031 365.714844 803.851562 C 372.242188 804.496094 378.785156 804.976562 385.335938 805.296875 C 391.886719 805.621094 398.441406 805.78125 405 805.78125 C 411.558594 805.78125 418.113281 805.621094 424.664062 805.296875 C 431.214844 804.976562 437.757812 804.496094 444.285156 803.851562 C 450.8125 803.207031 457.320312 802.40625 463.808594 801.441406 C 470.292969 800.480469 476.753906 799.359375 483.1875 798.082031 C 489.621094 796.800781 496.019531 795.363281 502.382812 793.769531 C 508.746094 792.175781 515.0625 790.425781 521.339844 788.523438 C 527.617188 786.621094 533.84375 784.5625 540.019531 782.351562 C 546.195312 780.144531 552.3125 777.785156 558.371094 775.273438 C 564.433594 772.761719 570.425781 770.105469 576.355469 767.300781 C 582.285156 764.496094 588.140625 761.550781 593.925781 758.457031 C 599.710938 755.367188 605.417969 752.132812 611.042969 748.761719 C 616.667969 745.390625 622.207031 741.882812 627.664062 738.238281 C 633.117188 734.59375 638.476562 730.816406 643.746094 726.910156 C 649.011719 723.003906 654.183594 718.96875 659.253906 714.808594 C 664.324219 710.648438 669.289062 706.363281 674.148438 701.960938 C 679.007812 697.554688 683.757812 693.03125 688.394531 688.394531 C 693.03125 683.757812 697.554688 679.007812 701.960938 674.148438 C 706.363281 669.289062 710.648438 664.324219 714.808594 659.253906 C 718.96875 654.183594 723.003906 649.011719 726.910156 643.746094 C 730.816406 638.476562 734.59375 633.117188 738.238281 627.660156 C 741.882812 622.207031 745.390625 616.667969 748.761719 611.042969 C 752.132812 605.417969 755.367188 599.710938 758.457031 593.925781 C 761.550781 588.140625 764.496094 582.285156 767.300781 576.355469 C 770.105469 570.425781 772.761719 564.433594 775.273438 558.371094 C 777.785156 552.3125 780.144531 546.195312 782.351562 540.019531 C 784.5625 533.84375 786.621094 527.617188 788.523438 521.339844 C 790.425781 515.0625 792.175781 508.746094 793.769531 502.382812 C 795.363281 496.019531 796.800781 489.621094 798.082031 483.1875 C 799.359375 476.753906 800.480469 470.292969 801.445312 463.808594 C 802.40625 457.320312 803.207031 450.8125 803.851562 444.285156 C 804.496094 437.757812 804.976562 431.214844 805.296875 424.664062 C 805.621094 418.113281 805.78125 411.558594 805.78125 405 C 805.78125 398.441406 805.621094 391.886719 805.296875 385.335938 C 804.976562 378.785156 804.496094 372.242188 803.851562 365.714844 C 803.207031 359.1875 802.40625 352.679688 801.445312 346.191406 C 800.480469 339.703125 799.359375 333.246094 798.082031 326.8125 C 796.800781 320.378906 795.363281 313.980469 793.769531 307.617188 C 792.175781 301.253906 790.425781 294.9375 788.523438 288.660156 C 786.621094 282.382812 784.5625 276.15625 782.351562 269.980469 C 780.144531 263.804688 777.785156 257.6875 775.273438 251.628906 C 772.761719 245.566406 770.105469 239.574219 767.300781 233.644531 C 764.496094 227.714844 761.550781 221.859375 758.457031 216.074219 C 755.367188 210.289062 752.132812 204.582031 748.761719 198.957031 C 745.390625 193.332031 741.882812 187.792969 738.238281 182.335938 C 734.59375 176.882812 730.816406 171.523438 726.910156 166.253906 C 723.003906 160.988281 718.96875 155.816406 714.808594 150.746094 C 710.648438 145.675781 706.363281 140.710938 701.960938 135.851562 C 697.554688 130.992188 693.03125 126.242188 688.394531 121.605469 C 683.757812 116.96875 679.007812 112.445312 674.148438 108.039062 C 669.289062 103.636719 664.324219 99.351562 659.253906 95.191406 C 654.183594 91.03125 649.011719 86.996094 643.746094 83.089844 C 638.476562 79.183594 633.117188 75.40625 627.664062 71.761719 C 622.207031 68.117188 616.667969 64.609375 611.042969 61.238281 C 605.417969 57.867188 599.710938 54.632812 593.925781 51.542969 C 588.140625 48.449219 582.285156 45.503906 576.355469 42.699219 C 570.425781 39.894531 564.433594 37.238281 558.371094 34.726562 C 552.3125 32.214844 546.195312 29.855469 540.019531 27.648438 C 533.84375 25.4375 527.617188 23.378906 521.339844 21.476562 C 515.0625 19.574219 508.746094 17.824219 502.382812 16.230469 C 496.019531 14.636719 489.621094 13.199219 483.1875 11.917969 C 476.753906 10.640625 470.292969 9.519531 463.808594 8.554688 C 457.320312 7.59375 450.8125 6.792969 444.285156 6.148438 C 437.757812 5.503906 431.214844 5.023438 424.664062 4.703125 C 418.113281 4.378906 411.558594 4.21875 405 4.21875 C 398.441406 4.21875 391.886719 4.378906 385.335938 4.703125 C 378.785156 5.023438 372.242188 5.503906 365.714844 6.148438 C 359.1875 6.792969 352.679688 7.59375 346.191406 8.554688 C 339.707031 9.519531 333.246094 10.640625 326.8125 11.917969 C 320.378906 13.199219 313.980469 14.636719 307.617188 16.230469 C 301.253906 17.824219 294.9375 19.574219 288.660156 21.476562 C 282.382812 23.378906 276.15625 25.4375 269.980469 27.648438 C 263.804688 29.855469 257.6875 32.214844 251.628906 34.726562 C 245.566406 37.238281 239.574219 39.894531 233.644531 42.699219 C 227.714844 45.503906 221.859375 48.449219 216.074219 51.542969 C 210.289062 54.632812 204.582031 57.867188 198.957031 61.238281 C 193.332031 64.609375 187.792969 68.117188 182.339844 71.761719 C 176.882812 75.40625 171.523438 79.183594 166.253906 83.089844 C 160.988281 86.996094 155.816406 91.03125 150.746094 95.191406 C 145.675781 99.351562 140.710938 103.636719 135.851562 108.039062 C 130.992188 112.445312 126.242188 116.96875 121.605469 121.605469 C 116.96875 126.242188 112.445312 130.992188 108.039062 135.851562 C 103.636719 140.710938 99.351562 145.675781 95.191406 150.746094 C 91.03125 155.816406 86.996094 160.988281 83.089844 166.253906 C 79.183594 171.523438 75.40625 176.882812 71.761719 182.335938 C 68.117188 187.792969 64.609375 193.332031 61.238281 198.957031 C 57.867188 204.582031 54.632812 210.289062 51.542969 216.074219 C 48.449219 221.859375 45.503906 227.714844 42.699219 233.644531 C 39.894531 239.574219 37.238281 245.566406 34.726562 251.628906 C 32.214844 257.6875 29.855469 263.804688 27.648438 269.980469 C 25.4375 276.15625 23.378906 282.382812 21.476562 288.660156 C 19.574219 294.9375 17.824219 301.253906 16.230469 307.617188 C 14.636719 313.980469 13.199219 320.378906 11.917969 326.8125 C 10.640625 333.246094 9.519531 339.703125 8.558594 346.191406 C 7.59375 352.679688 6.792969 359.1875 6.148438 365.714844 C 5.503906 372.242188 5.023438 378.785156 4.703125 385.335938 C 4.378906 391.886719 4.21875 398.441406 4.21875 405 Z M 4.21875 405 " fill-opacity="1" fill-rule="nonzero"/><path fill="#f4f6f8" d="M 293.625 422.71875 L 402.46875 291.9375 C 402.46875 291.9375 403.3125 291.09375 403.3125 291.09375 C 452.25 242.15625 517.21875 210.9375 586.40625 205.03125 C 591.46875 204.1875 596.53125 206.71875 599.90625 210.09375 C 603.28125 213.46875 604.96875 218.53125 604.96875 223.59375 C 598.21875 292.78125 567.84375 357.75 518.90625 406.6875 C 518.90625 406.6875 518.0625 407.53125 518.0625 407.53125 L 387.28125 516.375 C 383.90625 518.90625 380.53125 520.59375 376.3125 520.59375 C 372.09375 520.59375 367.875 518.90625 364.5 515.53125 L 341.71875 492.75 L 339.1875 495.28125 C 335.8125 498.65625 331.59375 500.34375 327.375 500.34375 C 323.15625 500.34375 318.9375 498.65625 315.5625 495.28125 C 308.8125 488.53125 308.8125 478.40625 315.5625 471.65625 L 318.09375 469.125 L 295.3125 446.34375 C 288.5625 439.59375 287.71875 429.46875 293.625 422.71875 Z M 293.625 422.71875 " fill-opacity="1" fill-rule="nonzero"/><path fill="#ffffff" d="M 319.78125 536.625 L 301.21875 555.1875 " fill-opacity="1" fill-rule="nonzero"/><path fill="#f4f6f8" d="M 301.21875 571.21875 C 305.4375 571.21875 309.65625 569.53125 313.03125 566.15625 L 331.59375 548.4375 C 338.34375 541.6875 338.34375 531.5625 331.59375 524.8125 C 324.84375 518.0625 314.71875 518.0625 307.96875 524.8125 L 289.40625 543.375 C 282.65625 550.125 282.65625 560.25 289.40625 567 C 292.78125 569.53125 297 571.21875 301.21875 571.21875 Z M 301.21875 571.21875 " fill-opacity="1" fill-rule="nonzero"/><path fill="#ffffff" d="M 273.375 489.375 L 254.8125 507.9375 " fill-opacity="1" fill-rule="nonzero"/><path fill="#f4f6f8" d="M 254.8125 524.8125 C 259.03125 524.8125 263.25 523.125 266.625 519.75 L 285.1875 501.1875 C 291.9375 494.4375 291.9375 484.3125 285.1875 477.5625 C 278.4375 470.8125 268.3125 470.8125 261.5625 477.5625 L 243 496.125 C 236.25 502.875 236.25 513 243 519.75 C 246.375 523.125 250.59375 524.8125 254.8125 524.8125 Z M 254.8125 524.8125 " fill-opacity="1" fill-rule="nonzero"/><path fill="#f4f6f8" d="M 514.6875 453.09375 C 529.03125 498.65625 515.53125 550.96875 475.875 599.0625 C 472.5 603.28125 468.28125 604.96875 463.21875 604.96875 C 463.21875 604.96875 462.375 604.96875 462.375 604.96875 C 457.3125 604.96875 452.25 601.59375 449.71875 597.375 L 412.59375 538.3125 Z M 208.40625 336.65625 C 231.1875 308.8125 264.09375 291.09375 299.53125 287.71875 C 318.9375 286.03125 338.34375 288.5625 356.90625 294.46875 L 270.84375 397.40625 L 212.625 361.125 C 208.40625 358.59375 205.875 354.375 205.03125 349.3125 C 204.1875 345.09375 205.875 340.03125 208.40625 336.65625 Z M 208.40625 336.65625 " fill-opacity="1" fill-rule="nonzero"/></svg>