<svg xmlns="http://www.w3.org/2000/svg" xmlns:xlink="http://www.w3.org/1999/xlink" viewBox="0 0 1600 1200" id="Productionoftechnologicalinnovation"><defs><linearGradient id="a" x1="895.11" x2="907.37" y1="401.16" y2="386.58" gradientUnits="userSpaceOnUse"><stop offset="0" stop-color="#453eaf" class="stopColor423eaf svgShape"></stop><stop offset=".49" stop-color="#312b8e" class="stopColor302b8e svgShape"></stop><stop offset="1" stop-color="#6f196f" class="stopColor1f196f svgShape"></stop></linearGradient><linearGradient id="j" x1="890.32" x2="903.49" y1="396.95" y2="383.68" xlink:href="#a"></linearGradient><linearGradient id="b" x1="755.06" x2="796.31" y1="305.83" y2="315.54" gradientTransform="matrix(-1 0 0 1 1668.04 0)" gradientUnits="userSpaceOnUse"><stop offset="0" stop-color="#6f196f" class="stopColor1f196f svgShape"></stop><stop offset=".36" stop-color="#312b8d" class="stopColor312b8d svgShape"></stop><stop offset="1" stop-color="#5a52cc" class="stopColor5652cc svgShape"></stop></linearGradient><linearGradient id="k" x1="855.78" x2="868.03" y1="423.87" y2="409.29" xlink:href="#a"></linearGradient><linearGradient id="l" x1="850.99" x2="864.15" y1="419.66" y2="406.39" xlink:href="#a"></linearGradient><linearGradient id="m" x1="775.68" x2="835.33" y1="323.9" y2="337.94" xlink:href="#b"></linearGradient><linearGradient id="n" x1="879.34" x2="947.46" y1="207.27" y2="207.27" gradientTransform="rotate(2.99 910.31 575.341)" gradientUnits="userSpaceOnUse"><stop offset="0" stop-color="#857dfb" class="stopColor807dfb svgShape"></stop><stop offset="1" stop-color="#6f67e9" class="stopColor6b67e9 svgShape"></stop></linearGradient><linearGradient id="o" x1="860.12" x2="794.17" y1="229.53" y2="229.53" gradientTransform="matrix(-1 -.1 -.1 1 1723.1 73.18)" gradientUnits="userSpaceOnUse"><stop offset="0" stop-color="#6f67e9" class="stopColor6b67e9 svgShape"></stop><stop offset="1" stop-color="#453eaf" class="stopColor423eaf svgShape"></stop></linearGradient><linearGradient id="c" x1="361.96" x2="692.99" y1="973.82" y2="973.82" gradientUnits="userSpaceOnUse"><stop offset="0" stop-color="#c4d4e4" class="stopColorc4c9e4 svgShape"></stop><stop offset=".19" stop-color="#d7e2ed" class="stopColord7daed svgShape"></stop><stop offset=".48" stop-color="#edf2f7" class="stopColoredeef7 svgShape"></stop><stop offset=".75" stop-color="#fafbfd" class="stopColorfafbfd svgShape"></stop><stop offset="1" stop-color="#ffffff" class="stopColorffffff svgShape"></stop></linearGradient><linearGradient id="p" x1="849.52" x2="1232.57" y1="694.03" y2="694.03" xlink:href="#c"></linearGradient><linearGradient id="q" x1="1058.43" x2="1441.49" y1="573.41" y2="573.41" xlink:href="#c"></linearGradient><linearGradient id="r" x1="640.61" x2="1023.66" y1="814.65" y2="814.65" xlink:href="#c"></linearGradient><linearGradient id="d" x1="934.97" x2="1146.12" y1="290.57" y2="641.97" gradientUnits="userSpaceOnUse"><stop offset=".51" stop-color="#eff1f3" class="stopColorefeff3 svgShape"></stop><stop offset=".66" stop-color="#bbd0e6" class="stopColorbbc0e6 svgShape"></stop></linearGradient><linearGradient id="e" x1="833.43" x2="1019.25" y1="372.11" y2="693.96" gradientUnits="userSpaceOnUse"><stop offset=".51" stop-color="#857dfb" class="stopColor807dfb svgShape"></stop><stop offset=".66" stop-color="#342e94" class="stopColor362e94 svgShape"></stop></linearGradient><linearGradient id="s" x1="726.06" x2="937.21" y1="411.18" y2="762.59" xlink:href="#d"></linearGradient><linearGradient id="t" x1="624.52" x2="810.34" y1="492.72" y2="814.58" xlink:href="#e"></linearGradient><linearGradient id="u" x1="517.15" x2="728.3" y1="531.8" y2="883.21" xlink:href="#d"></linearGradient><linearGradient id="v" x1="476.22" x2="541.53" y1="837.74" y2="724.61" gradientUnits="userSpaceOnUse"><stop offset=".01" stop-color="#3e9eff" class="stopColorffd03e svgShape"></stop><stop offset="1" stop-color="#e100b8" class="stopColore19100 svgShape"></stop></linearGradient><linearGradient id="w" x1="342.93" x2="447.61" y1="808.83" y2="990.14" gradientUnits="userSpaceOnUse"><stop offset=".01" stop-color="#f6f8fb" class="stopColorf6f6fb svgShape"></stop><stop offset="1" stop-color="#f1f3f6" class="stopColorf1f1f6 svgShape"></stop></linearGradient><linearGradient id="x" x1="428.99" x2="536.13" y1="907.06" y2="721.49" gradientUnits="userSpaceOnUse"><stop offset=".01" stop-color="#ffffff" class="stopColorffffff svgShape"></stop><stop offset=".62" stop-color="#3e9eff" class="stopColorffd03e svgShape"></stop><stop offset="1" stop-color="#e100b8" class="stopColore19100 svgShape"></stop></linearGradient><linearGradient id="y" x1="1003.07" x2="1097.08" y1="385.44" y2="385.44" xlink:href="#c"></linearGradient><linearGradient id="z" x1="970.2" x2="1035.75" y1="378.97" y2="378.97" gradientUnits="userSpaceOnUse"><stop offset="0" stop-color="#cee3f8" class="stopColorced3f8 svgShape"></stop><stop offset=".02" stop-color="#cde2f7" class="stopColorcdd2f7 svgShape"></stop><stop offset=".63" stop-color="#b4cbe2" class="stopColorb4bbe2 svgShape"></stop><stop offset="1" stop-color="#abc2da" class="stopColorabb2da svgShape"></stop></linearGradient><linearGradient id="B" x1="945.9" x2="1060.06" y1="337.28" y2="337.28" gradientUnits="userSpaceOnUse"><stop offset="0" stop-color="#dae7f5" class="stopColordae0f5 svgShape"></stop><stop offset="1" stop-color="#abc2da" class="stopColorabb2da svgShape"></stop></linearGradient><linearGradient id="C" x1="897.8" x2="963.14" y1="208.08" y2="208.08" gradientTransform="rotate(-8.1 923.618 511.97)" gradientUnits="userSpaceOnUse"><stop offset="0" stop-color="#857dfb" class="stopColor807dfb svgShape"></stop><stop offset="1" stop-color="#5a52cc" class="stopColor5652cc svgShape"></stop></linearGradient><linearGradient id="D" x1="85.76" x2="149.53" y1="630.19" y2="630.19" gradientTransform="translate(475.17)" gradientUnits="userSpaceOnUse"><stop offset=".43" stop-color="#d1e2f3" class="stopColord1d7f3 svgShape"></stop><stop offset=".49" stop-color="#d7e6f5" class="stopColord7dcf5 svgShape"></stop><stop offset=".81" stop-color="#f4f8fc" class="stopColorf4f6fc svgShape"></stop><stop offset="1" stop-color="#ffffff" class="stopColorffffff svgShape"></stop></linearGradient><linearGradient id="E" x1="73.82" x2="128.93" y1="634.43" y2="634.43" gradientTransform="translate(475.17)" gradientUnits="userSpaceOnUse"><stop offset="0" stop-color="#cee3f8" class="stopColorced3f8 svgShape"></stop><stop offset=".42" stop-color="#c4d9ef" class="stopColorc4c9ef svgShape"></stop><stop offset="1" stop-color="#bbd0e6" class="stopColorbbc0e6 svgShape"></stop></linearGradient><linearGradient id="F" x1="77.75" x2="124.63" y1="615.42" y2="615.42" gradientTransform="translate(475.17)" gradientUnits="userSpaceOnUse"><stop offset="0" stop-color="#6f67e9" class="stopColor6b67e9 svgShape"></stop><stop offset=".38" stop-color="#5046e4" class="stopColor5d59d6 svgShape"></stop><stop offset="1" stop-color="#453eaf" class="stopColor423eaf svgShape"></stop></linearGradient><linearGradient id="G" x1="588.37" x2="588.37" y1="635.21" y2="603.11" gradientUnits="userSpaceOnUse"><stop offset=".01" stop-color="#eff1f3" class="stopColorefeff3 svgShape"></stop><stop offset=".5" stop-color="#dee8f3" class="stopColordee1f3 svgShape"></stop><stop offset="1" stop-color="#d1e2f3" class="stopColord1d7f3 svgShape"></stop></linearGradient><linearGradient id="I" x1="300.99" x2="393.92" y1="909.91" y2="909.91" gradientUnits="userSpaceOnUse"><stop offset="0" stop-color="#5c55c6" class="stopColor5555c6 svgShape"></stop><stop offset="1" stop-color="#37318f" class="stopColor34318f svgShape"></stop></linearGradient><linearGradient id="J" x1="298.2" x2="396.77" y1="910.03" y2="910.03" gradientUnits="userSpaceOnUse"><stop offset="0" stop-color="#5c55c6" class="stopColor5555c6 svgShape"></stop><stop offset=".03" stop-color="#867ff4" class="stopColor7f7ff4 svgShape"></stop><stop offset="1" stop-color="#4841aa" class="stopColor4141aa svgShape"></stop></linearGradient><linearGradient id="L" x1="345.4" x2="382.67" y1="807.4" y2="871.96" gradientUnits="userSpaceOnUse"><stop offset=".01" stop-color="#ffffff" class="stopColorffffff svgShape"></stop><stop offset="1" stop-color="#f1f3f6" class="stopColorf1f1f6 svgShape"></stop></linearGradient><linearGradient id="M" x1="297.83" x2="397.08" y1="878.4" y2="878.4" gradientUnits="userSpaceOnUse"><stop offset="0" stop-color="#ffffff" class="stopColorffffff svgShape"></stop><stop offset=".32" stop-color="#ecf2f9" class="stopColoreceff9 svgShape"></stop><stop offset=".66" stop-color="#e0eaf5" class="stopColore0e4f5 svgShape"></stop><stop offset="1" stop-color="#dce8f4" class="stopColordce1f4 svgShape"></stop></linearGradient><linearGradient id="N" x1="279.68" x2="429.78" y1="835.17" y2="835.17" gradientUnits="userSpaceOnUse"><stop offset="0" stop-color="#f6f8fb" class="stopColorf6f6fb svgShape"></stop><stop offset="1" stop-color="#ffffff" class="stopColorffffff svgShape"></stop></linearGradient><linearGradient id="O" x1="366.07" x2="333.99" y1="860.93" y2="805.38" gradientUnits="userSpaceOnUse"><stop offset="0"></stop><stop offset=".06" stop-color="#1b001b" class="stopColor1b1200 svgShape"></stop><stop offset=".2" stop-color="#4f004f" class="stopColor4f3300 svgShape"></stop><stop offset=".33" stop-color="#7c007c" class="stopColor7c5000 svgShape"></stop><stop offset=".47" stop-color="#a00083" class="stopColora06700 svgShape"></stop><stop offset=".6" stop-color="#bd009b" class="stopColorbd7a00 svgShape"></stop><stop offset=".73" stop-color="#d100ab" class="stopColord18700 svgShape"></stop><stop offset=".87" stop-color="#dd00b5" class="stopColordd8e00 svgShape"></stop><stop offset="1" stop-color="#e100b8" class="stopColore19100 svgShape"></stop></linearGradient><linearGradient id="P" x1="779.9" x2="964.01" y1="985.22" y2="985.22" gradientUnits="userSpaceOnUse"><stop offset="0" stop-color="#c4d6e8" class="stopColorc4cae8 svgShape"></stop><stop offset="1" stop-color="#ffffff" class="stopColorffffff svgShape"></stop></linearGradient><linearGradient id="Q" x1="679.61" x2="936.39" y1="988.58" y2="988.58" gradientUnits="userSpaceOnUse"><stop offset=".31" stop-color="#cee3f8" class="stopColorced3f8 svgShape"></stop><stop offset=".47" stop-color="#bbd0e6" class="stopColorbbc0e6 svgShape"></stop></linearGradient><linearGradient id="R" x1="750.49" x2="936.39" y1="954.46" y2="954.46" gradientUnits="userSpaceOnUse"><stop offset="0" stop-color="#d1e0f0" class="stopColord1d6f0 svgShape"></stop><stop offset=".73" stop-color="#f2f6fb" class="stopColorf2f3fb svgShape"></stop><stop offset="1" stop-color="#ffffff" class="stopColorffffff svgShape"></stop></linearGradient><linearGradient id="S" x1="748.88" x2="883.98" y1="724.32" y2="885.33" gradientUnits="userSpaceOnUse"><stop offset=".76" stop-color="#cee3f8" class="stopColorced3f8 svgShape"></stop><stop offset=".84" stop-color="#bbd0e6" class="stopColorbbc0e6 svgShape"></stop></linearGradient><linearGradient id="T" x1="699.16" x2="958.76" y1="792.41" y2="792.41" gradientUnits="userSpaceOnUse"><stop offset="0" stop-color="#37318c" class="stopColor34318c svgShape"></stop><stop offset=".13" stop-color="#332d86" class="stopColor302d86 svgShape"></stop><stop offset=".65" stop-color="#722172" class="stopColor232172 svgShape"></stop><stop offset="1" stop-color="#6b1c6b" class="stopColor1e1c6b svgShape"></stop></linearGradient><linearGradient id="U" x1="807.48" x2="869.83" y1="787.69" y2="811.87" gradientUnits="userSpaceOnUse"><stop offset="0" stop-color="#3f0d3f" class="stopColor0f0d3f svgShape"></stop><stop offset=".15" stop-color="#3c113c" class="stopColor15113c svgShape"></stop><stop offset=".36" stop-color="#341a34" class="stopColor261a34 svgShape"></stop><stop offset=".6" stop-color="#422642" class="stopColor422b26 svgShape"></stop><stop offset=".86" stop-color="#691369" class="stopColor694113 svgShape"></stop><stop offset="1" stop-color="#82076c" class="stopColor825007 svgShape"></stop></linearGradient><linearGradient id="V" x1="809.96" x2="872.3" y1="781.49" y2="805.67" gradientUnits="userSpaceOnUse"><stop offset="0" stop-color="#3e9eff" class="stopColorffd03e svgShape"></stop><stop offset=".25" stop-color="#f024cb" class="stopColorf0b324 svgShape"></stop><stop offset=".52" stop-color="#e510be" class="stopColore59d10 svgShape"></stop><stop offset=".77" stop-color="#de04b6" class="stopColorde9004 svgShape"></stop><stop offset="1" stop-color="#dc00b4" class="stopColordc8b00 svgShape"></stop></linearGradient><linearGradient id="f" x1="913.89" x2="1011.62" y1="1044.79" y2="1044.79" gradientUnits="userSpaceOnUse"><stop offset="0" stop-color="#c4d4e4" class="stopColorc4c9e4 svgShape"></stop><stop offset=".09" stop-color="#cedbe8" class="stopColorced2e8 svgShape"></stop><stop offset=".41" stop-color="#e9eff5" class="stopColore9ebf5 svgShape"></stop><stop offset=".69" stop-color="#f9fafc" class="stopColorf9fafc svgShape"></stop><stop offset=".9" stop-color="#ffffff" class="stopColorffffff svgShape"></stop></linearGradient><linearGradient id="W" x1="957.96" x2="1055.69" y1="1018.85" y2="1018.85" xlink:href="#f"></linearGradient><linearGradient id="g" x1="932.75" x2="968.77" y1="1015.41" y2="1015.41" gradientUnits="userSpaceOnUse"><stop offset="0" stop-color="#7069df" class="stopColor696adf svgShape"></stop><stop offset=".28" stop-color="#5e57c4" class="stopColor5857c4 svgShape"></stop><stop offset=".76" stop-color="#423c9b" class="stopColor3e3c9b svgShape"></stop><stop offset="1" stop-color="#37318c" class="stopColor34318c svgShape"></stop></linearGradient><linearGradient id="X" x1="888.2" x2="924.23" y1="1041.34" y2="1041.34" xlink:href="#g"></linearGradient><linearGradient id="Y" x1="903.85" x2="965.78" y1="955.26" y2="955.26" gradientUnits="userSpaceOnUse"><stop offset="0" stop-color="#5b54c4" class="stopColor5455c4 svgShape"></stop><stop offset=".01" stop-color="#5b54c3" class="stopColor5454c3 svgShape"></stop><stop offset=".46" stop-color="#3c3694" class="stopColor373694 svgShape"></stop><stop offset=".8" stop-color="#282376" class="stopColor252376 svgShape"></stop><stop offset="1" stop-color="#6b1c6b" class="stopColor1e1c6b svgShape"></stop></linearGradient><linearGradient id="Z" x1="901.46" x2="966.15" y1="844.12" y2="844.12" gradientUnits="userSpaceOnUse"><stop offset="0" stop-color="#fc06cf" class="stopColorfcba06 svgShape"></stop><stop offset=".32" stop-color="#f003c5" class="stopColorf0a703 svgShape"></stop><stop offset=".7" stop-color="#e501bc" class="stopColore59701 svgShape"></stop><stop offset="1" stop-color="#e100b8" class="stopColore19100 svgShape"></stop></linearGradient><linearGradient id="aa" x1="863.8" x2="921.17" y1="833.03" y2="833.03" gradientUnits="userSpaceOnUse"><stop offset="0" stop-color="#3e9eff" class="stopColorffd03e svgShape"></stop><stop offset=".33" stop-color="#2f96fe" class="stopColorfeca2f svgShape"></stop><stop offset=".95" stop-color="#fc09d0" class="stopColorfcbb09 svgShape"></stop><stop offset="1" stop-color="#fc06cf" class="stopColorfcba06 svgShape"></stop></linearGradient><linearGradient id="ab" x1="520.89" x2="596.92" y1="1069.97" y2="1069.97" xlink:href="#c"></linearGradient><linearGradient id="ac" x1="638.05" x2="714.08" y1="319.19" y2="319.19" xlink:href="#c"></linearGradient><linearGradient id="ad" x1="302.69" x2="492.03" y1="497.85" y2="497.85" xlink:href="#c"></linearGradient><linearGradient id="ae" x1="1132.74" x2="1224.58" y1="968.69" y2="968.69" xlink:href="#c"></linearGradient><linearGradient id="af" x1="265.93" x2="339.45" y1="444.8" y2="444.8" gradientUnits="userSpaceOnUse"><stop offset="0" stop-color="#dae7f5" class="stopColordae0f5 svgShape"></stop><stop offset="1" stop-color="#ffffff" class="stopColorffffff svgShape"></stop></linearGradient><linearGradient id="ag" x1="394.44" x2="470.47" y1="514.89" y2="514.89" xlink:href="#c"></linearGradient><linearGradient id="h" x1="2459.44" x2="2536.89" y1="1037.32" y2="1037.32" gradientTransform="matrix(-1 0 0 1 2725.05 0)" gradientUnits="userSpaceOnUse"><stop offset=".01" stop-color="#ffffff" class="stopColorffffff svgShape"></stop><stop offset=".25" stop-color="#fafbfd" class="stopColorfafbfd svgShape"></stop><stop offset=".53" stop-color="#ecf2f8" class="stopColoreceef8 svgShape"></stop><stop offset=".83" stop-color="#d4e1ef" class="stopColord4d8ef svgShape"></stop><stop offset="1" stop-color="#c4d6e9" class="stopColorc4cae9 svgShape"></stop></linearGradient><linearGradient id="ah" x1="2455" x2="2538.28" y1="1060.73" y2="1060.73" gradientTransform="matrix(-1 0 0 1 2767.04 0)" xlink:href="#h"></linearGradient><linearGradient id="i" x1="531.16" x2="563.95" y1="1034.37" y2="1034.37" gradientTransform="matrix(-1 0 0 1 742.77 0)" gradientUnits="userSpaceOnUse"><stop offset="0" stop-color="#6f196f" class="stopColor20196f svgShape"></stop><stop offset=".11" stop-color="#241e77" class="stopColor241e77 svgShape"></stop><stop offset=".7" stop-color="#3c35a0" class="stopColor3a35a0 svgShape"></stop><stop offset="1" stop-color="#453eaf" class="stopColor423eaf svgShape"></stop></linearGradient><linearGradient id="ai" x1="1478.22" x2="1521.45" y1="969.09" y2="969.09" gradientTransform="translate(-1297.09)" gradientUnits="userSpaceOnUse"><stop offset="0" stop-color="#6f196f" class="stopColor20196f svgShape"></stop><stop offset=".61" stop-color="#2e2889" class="stopColor2f2889 svgShape"></stop><stop offset="1" stop-color="#342e94" class="stopColor362e94 svgShape"></stop></linearGradient><linearGradient id="aj" x1="490.9" x2="523.73" y1="1057.68" y2="1057.68" xlink:href="#i"></linearGradient><linearGradient id="ak" x1="508.27" x2="554.62" y1="981.4" y2="981.4" gradientTransform="matrix(-1 0 0 1 742.77 0)" gradientUnits="userSpaceOnUse"><stop offset="0" stop-color="#453eaf" class="stopColor423eaf svgShape"></stop><stop offset=".25" stop-color="#3f38a4" class="stopColor3c38a4 svgShape"></stop><stop offset=".7" stop-color="#2d2787" class="stopColor2d2787 svgShape"></stop><stop offset="1" stop-color="#6f196f" class="stopColor20196f svgShape"></stop></linearGradient><linearGradient id="al" x1="495.97" x2="566.96" y1="684.19" y2="684.19" gradientTransform="matrix(-.96 -.28 -.28 .96 915.06 384.87)" gradientUnits="userSpaceOnUse"><stop offset="0" stop-color="#5a52cc" class="stopColor5652cc svgShape"></stop><stop offset=".37" stop-color="#7169e5" class="stopColor6c69e5 svgShape"></stop><stop offset=".73" stop-color="#8078f5" class="stopColor7b78f5 svgShape"></stop><stop offset="1" stop-color="#857dfb" class="stopColor807dfb svgShape"></stop></linearGradient><linearGradient id="am" x1="1290.82" x2="1380.39" y1="704.56" y2="626.99" gradientTransform="matrix(.87 .5 -1 .58 780.06 -405.88)" xlink:href="#c"></linearGradient><linearGradient id="an" x1="1185.36" x2="1238.22" y1="561.31" y2="652.87" gradientUnits="userSpaceOnUse"><stop offset=".86" stop-color="#e100b8" class="stopColore19100 svgShape"></stop><stop offset=".96" stop-color="#c900a4" class="stopColorc97700 svgShape"></stop></linearGradient><radialGradient id="A" cx="1001.86" cy="332.48" r="78.35" gradientUnits="userSpaceOnUse"><stop offset="0" stop-color="#fc06cf" class="stopColorfcba06 svgShape"></stop><stop offset=".13" stop-color="#eb16c4" class="stopColorebaf16 svgShape"></stop><stop offset=".39" stop-color="#be3ea7" class="stopColorbe913e svgShape"></stop><stop offset=".75" stop-color="#a50b89" class="stopColor76617f svgShape"></stop><stop offset="1" stop-color="#453eaf" class="stopColor423eaf svgShape"></stop></radialGradient><radialGradient id="H" cx="576.44" cy="609.01" r="36.45" gradientUnits="userSpaceOnUse"><stop offset="0" stop-color="#fd09d1" class="stopColorfd9009 svgShape"></stop><stop offset=".36" stop-color="#96057c" class="stopColor965505 svgShape"></stop><stop offset=".67" stop-color="#450245" class="stopColor452702 svgShape"></stop><stop offset=".89" stop-color="#130113" class="stopColor130b01 svgShape"></stop><stop offset="1"></stop></radialGradient><radialGradient id="K" cx="307" cy="775" r="156.32" gradientUnits="userSpaceOnUse"><stop offset="0" stop-color="#3e9eff" class="stopColorffd03e svgShape"></stop><stop offset=".26" stop-color="#3a9bfd" class="stopColorfdcc3a svgShape"></stop><stop offset=".51" stop-color="#2f93f8" class="stopColorf8c12f svgShape"></stop><stop offset=".75" stop-color="#ef1cc9" class="stopColorefae1c svgShape"></stop><stop offset=".99" stop-color="#e202b9" class="stopColore29302 svgShape"></stop><stop offset="1" stop-color="#e100b8" class="stopColore19100 svgShape"></stop></radialGradient></defs><g style="isolation:isolate" fill="#010001" class="color000000 svgShape"><g fill="#010001" class="color000000 svgShape"><g data-name="Speech bubble" fill="#010001" class="color000000 svgShape"><path fill="url(#a)" d="M889.71,382.05c-4.55.75-5.87,8.09-3.59,12.7,1.41,1.58,5,3.06,5,3.06s14.39,5.91,17.62,6.16,10.43-1,11-6.47c-.55-3.38-3.39-4.31-6.87-6.38-4.54-2.69-8.43-6.6-12.09-8.39C897.77,381.25,889.71,382.05,889.71,382.05Z"></path><path fill="#f4f6f8" d="M908.62,402.49c-3.32-.26-18.13-6.32-18.13-6.32a19.32,19.32,0,0,1-5-3,11.89,11.89,0,0,0,.61,1.61c1.41,1.58,5,3.06,5,3.06s14.39,5.91,17.62,6.16,10.43-1,11-6.47c0-.12-.06-.22-.08-.34C918.12,401.72,911.67,402.75,908.62,402.49Z" class="color121047 svgShape"></path><path fill="#ffffff" d="M899.51,377.18c-2.21.36-9.72,3.62-9.72,3.62a4.3,4.3,0,0,1-.37,2.13l-.17.31c-1.36,1.32-2.8,3.66,1.37,5,8.1,2.54,15-2.89,11.82-4.72C900.3,382.27,899.79,378.9,899.51,377.18Z" class="colorffffff svgShape"></path><path fill="url(#j)" d="M903.81,384.59c-.6-.8-2-2.94-4.48-1.17s-3.16,4.05-2.86,5.9,5.63.48,5.83.2S903.81,384.59,903.81,384.59Z"></path><path fill="url(#b)" d="M903,241.29c.36,30.61,3.77,53.28,2.27,80.44-1.53,27.73-1.79,41.25-2.06,62.09-4,4.95-14.15,3.71-16.29-.12-2.64-18.92-8-37.36-5.61-59.32-6-29.84-20.72-62.89-18.15-84.24C869.17,242.05,897,239.38,903,241.29Z"></path><path fill="url(#k)" d="M850.38,404.76c-4.56.75-5.87,8.09-3.59,12.7,1.41,1.58,5,3.06,5,3.06s14.38,5.91,17.62,6.16,10.42-.95,11-6.47c-.56-3.38-3.39-4.31-6.88-6.38-4.53-2.69-8.42-6.6-12.08-8.39C858.43,404,850.38,404.76,850.38,404.76Z"></path><path fill="#f4f6f8" d="M869.29,425.2c-3.33-.26-18.14-6.33-18.14-6.33a19,19,0,0,1-5-3,10.07,10.07,0,0,0,.61,1.61c1.41,1.58,5,3.06,5,3.06s14.38,5.91,17.62,6.16,10.42-.95,11-6.47c0-.12-.06-.22-.09-.34C878.79,424.43,872.33,425.46,869.29,425.2Z" class="color121047 svgShape"></path><path fill="#ffffff" d="M860.18,399.89c-2.22.36-9.72,3.62-9.72,3.62a4.48,4.48,0,0,1-.37,2.14,2.91,2.91,0,0,0-.17.3c-1.37,1.32-2.81,3.66,1.37,5,8.09,2.54,15-2.89,11.81-4.72C861,405,860.46,401.61,860.18,399.89Z" class="colorffffff svgShape"></path><path fill="url(#l)" d="M864.48,407.3c-.6-.8-2-2.94-4.48-1.18s-3.17,4.06-2.87,5.91,5.63.48,5.84.2S864.48,407.3,864.48,407.3Z"></path><path fill="url(#m)" d="M884.51,258.62c.36,30.61-7.76,58.82-12,83.21-4.79,27.35-8.35,43.85-8.61,64.7-4,5-14.16,3.71-16.3-.12-2.64-18.92-2.74-49,1-61.93-3.26-34.05-6.42-65.66-3.86-87C850.7,259.38,878.48,256.71,884.51,258.62Z"></path><path fill="url(#n)" d="M903.56,167.43c15.67,12,19.56,41.88,25.69,55.61,6.61,3.75,29.78,12.79,35.8,16-2,2.48-6.18,7-9,9-6.9-2.06-34.13-10.39-37.35-12.58-6.16-4.21-16.25-25.54-18.49-41.49S903.56,167.43,903.56,167.43Z"></path><path fill="url(#o)" d="M858.54,173.71c5.9-6.05,19.71-14,28.22-13.74,14.48.37,24.69,13.37,26.64,23.58,1.84,9.61-11,72-9.13,85-2.18,6.54-12.25,10.62-19.63,11.18-20.81,1.59-43.77.55-44.1-12.46C839.94,242.91,850.21,180.54,858.54,173.71Z"></path><path fill="#a9d2fc" d="M886.84,140.72c-.07-4.71,15.09,6.36,13.84,12.45-1,5-2.92,9.21,1.83,12.84,1.61,1.56,6.62,11.88-2.57,11.08C886.8,176,883.65,172,875,162.93,880.94,160.29,887.05,156,886.84,140.72Z" class="colorfcd1a9 svgShape"></path><path fill="#a9d2fc" d="M883.32,137.59l7.45-8.56,28.46,2.82L917.53,149c-.93,9.46-8.06,16.49-15.91,15.72-7.63-.76-14.09-7.77-13.57-16.87l-3.33-1.54Z" class="colorfcd1a9 svgShape"></path><path fill="#9dc7f2" d="M900.5,169.22c-6.8-.68-14.14-12.43-12.45-21.39a16.51,16.51,0,0,0,13,16.8,13.47,13.47,0,0,0,1.47,1.38,3.7,3.7,0,0,1,.43.52C902.8,167.92,901.74,169.34,900.5,169.22Z" class="colorf2c39d svgShape"></path><path fill="#6f196f" d="M918.33,124c2.65-.2,3.1-2.34-7.09-7-5.83-3.61-14.43-5.39-20.4-2.47-8.08,4-11.07,10.67-10.56,19.51s5.26,17.66,5.26,17.66c.76.94,1.28-3.06.89-6.1a5.85,5.85,0,0,1-.75-2.64c-1.14-9,4.14-7.19,4.81-6.37,1.6.85-2.35,7.85,2.61,7.6,2.4-.12,2.73-6.75,2.95-9.08.34.12.67.22,1,.39,3.81,2.64,17.38,5.63,10.23.11,5.31.52,12.29,3.69,15.07.56C925.69,132.37,921.47,127.54,918.33,124Z" class="color20196f svgShape"></path><polygon fill="#6f67e9" points="901.02 491.68 895.29 487.3 899.29 452.68 905.02 457.06 901.02 491.68" class="color6b67e9 svgShape"></polygon><polygon fill="#6f67e9" points="905.91 449.38 900.18 445 902.85 421.94 908.57 426.32 905.91 449.38" class="color6b67e9 svgShape"></polygon><polygon fill="#857dfb" points="847.93 481.52 842.2 477.14 900.18 445 905.91 449.38 847.93 481.52" class="color807dfb svgShape"></polygon><polygon fill="#6f67e9" points="909.46 418.64 903.73 414.26 906.4 391.2 912.13 395.58 909.46 418.64" class="color6b67e9 svgShape"></polygon><polygon fill="#857dfb" points="851.48 450.78 845.75 446.4 903.73 414.26 909.46 418.64 851.48 450.78" class="color807dfb svgShape"></polygon><polygon fill="#6f67e9" points="913.01 387.91 907.28 383.53 909.95 360.47 915.68 364.85 913.01 387.91" class="color6b67e9 svgShape"></polygon><polygon fill="#857dfb" points="855.04 420.05 849.31 415.67 907.28 383.53 913.01 387.91 855.04 420.05" class="color807dfb svgShape"></polygon><polygon fill="#6f67e9" points="916.57 357.17 910.84 352.79 913.5 329.73 919.23 334.11 916.57 357.17" class="color6b67e9 svgShape"></polygon><polygon fill="#857dfb" points="858.59 389.31 852.86 384.93 910.84 352.79 916.57 357.17 858.59 389.31" class="color807dfb svgShape"></polygon><polygon fill="#6f67e9" points="920.12 326.44 914.39 322.06 917.05 299 922.78 303.38 920.12 326.44" class="color6b67e9 svgShape"></polygon><polygon fill="#857dfb" points="862.14 358.57 856.41 354.19 914.39 322.06 920.12 326.44 862.14 358.57" class="color807dfb svgShape"></polygon><polygon fill="#6f67e9" points="923.67 295.7 917.94 291.32 920.61 268.26 926.34 272.64 923.67 295.7" class="color6b67e9 svgShape"></polygon><polygon fill="#857dfb" points="929.34 246.62 923.62 242.24 931 238.14 936.73 242.52 929.34 246.62" class="color807dfb svgShape"></polygon><polygon fill="#6f67e9" points="927.22 264.96 921.49 260.58 923.62 242.24 929.34 246.62 927.22 264.96" class="color6b67e9 svgShape"></polygon><polygon fill="#857dfb" points="865.69 327.84 859.96 323.46 917.94 291.32 923.67 295.7 865.69 327.84" class="color807dfb svgShape"></polygon><polygon fill="#857dfb" points="869.24 297.1 863.52 292.72 921.49 260.58 927.22 264.96 869.24 297.1" class="color807dfb svgShape"></polygon><polygon fill="#857dfb" points="863.96 282.86 858.24 278.48 865.64 274.37 871.37 278.75 863.96 282.86" class="color807dfb svgShape"></polygon><polygon fill="#6f67e9" points="835.64 527.92 829.91 523.54 858.24 278.48 863.96 282.86 835.64 527.92" class="color6b67e9 svgShape"></polygon><path fill="#403a91" d="M929.34,246.62l7.39-4.1L908.41,487.58l-7.39,4.1,4-34.62-58,32.13-4,34.63-7.4,4.1L864,282.86l7.41-4.11-2.13,18.35,58-32.14ZM905.91,449.38l2.66-23.06-58,32.14-2.67,23.06,58-32.14Zm14.21-122.94,2.66-23.06-58,32.13-2.66,23.06,58-32.13Zm-10.66,92.2,2.67-23.06-58,32.14-2.67,23.06,58-32.14ZM913,387.91l2.67-23.06L857.7,397,855,420.05l58-32.14Zm3.56-30.74,2.66-23.06-58,32.14-2.66,23.06,58-32.14Zm7.1-61.47,2.67-23.06-58,32.14-2.67,23.06,58-32.14Z" class="color3d3a91 svgShape"></path><path d="M608,892.79v21.05L377.93,1046.69l-7.19-4.15-8.78,5.08,9.55,5.51h0c1.5,1.06,5.13,1.73,10.48,1.73,10.07,0,22.32-2.36,27.33-5.26L626.28,924.37Z" style="mix-blend-mode:multiply" fill="url(#c)"></path><polygon points="961.96 576.03 849.52 640.95 849.52 681.5 849.52 812.03 1094.42 812.03 1232.57 732.27 961.96 576.03" style="mix-blend-mode:multiply" fill="url(#p)"></polygon><polygon points="1170.87 455.41 1058.43 520.33 1058.43 560.89 1058.43 691.42 1303.33 691.42 1441.49 611.65 1170.87 455.41" style="mix-blend-mode:multiply" fill="url(#q)"></polygon><polygon points="753.05 696.64 640.61 761.56 640.61 802.12 640.61 932.65 885.51 932.65 1023.66 852.89 753.05 696.64" style="mix-blend-mode:multiply" fill="url(#r)"></polygon><path fill="url(#d)" d="M1171.44,404.19,973,289.6a31.08,31.08,0,0,0-33.7,1.53h0L806,368.07a30.91,30.91,0,0,1,28.79,1.29L1033.28,484a50.26,50.26,0,0,1,25.15,43.55V691.42l138.15-79.77V447.75A50.3,50.3,0,0,0,1171.44,404.19Z"></path><path fill="#cee3f8" d="M787.82,396.48v138.7l270.61,156.24V527.51A50.26,50.26,0,0,0,1033.28,484L834.79,369.36A31.31,31.31,0,0,0,787.82,396.48Z" class="colorced3f8 svgShape"></path><polygon points="1035.71 512.01 1058.43 543.2 1058.43 691.42 1041.05 681.38 1035.71 512.01" style="mix-blend-mode:multiply" fill="#dae7f5" class="colordae0f5 svgShape"></polygon><path fill="#cee3f8" d="M736.45,434.71V586.2L971.17,721.72V571.18a36,36,0,0,0-18-31.19L753.63,424.79A11.45,11.45,0,0,0,736.45,434.71Z" class="colorced3f8 svgShape"></path><path fill="url(#e)" d="M1023,499.64,823.51,384.44a11.34,11.34,0,0,0-11.67.15l-69.56,40.15a11.31,11.31,0,0,1,11.35.05L953.16,540a36,36,0,0,1,18,31.19V721.72l69.88-40.34V530.84A36,36,0,0,0,1023,499.64Z"></path><path fill="url(#s)" d="M962.53,524.81,764,410.21a31.1,31.1,0,0,0-33.7,1.54h0L597.08,488.68a31,31,0,0,1,28.8,1.29l198.49,114.6a50.31,50.31,0,0,1,25.15,43.56V812l138.15-79.76V568.37A50.29,50.29,0,0,0,962.53,524.81Z"></path><path fill="#cee3f8" d="M578.91,517.1V655.79L849.52,812V648.13a50.31,50.31,0,0,0-25.15-43.56L625.88,490A31.32,31.32,0,0,0,578.91,517.1Z" class="colorced3f8 svgShape"></path><polygon points="826.79 632.62 849.52 663.82 849.52 812.03 832.13 801.99 826.79 632.62" style="mix-blend-mode:multiply" fill="#dae7f5" class="colordae0f5 svgShape"></polygon><path fill="#cee3f8" d="M527.54,555.32v151.5L762.26,842.34V691.79a36,36,0,0,0-18-31.19L544.72,545.4A11.45,11.45,0,0,0,527.54,555.32Z" class="colorced3f8 svgShape"></path><path fill="url(#t)" d="M814.12,620.26,614.59,505.06a11.35,11.35,0,0,0-11.66.14l-69.57,40.15a11.35,11.35,0,0,1,11.36,0L744.25,660.6a36,36,0,0,1,18,31.19V842.34L832.13,802V651.45A36,36,0,0,0,814.12,620.26Z"></path><path fill="url(#u)" d="M753.61,645.43,555.12,530.83a31.06,31.06,0,0,0-33.69,1.53h0L388.17,609.3a30.93,30.93,0,0,1,28.8,1.29l198.49,114.6a50.29,50.29,0,0,1,25.15,43.55V932.65l138.15-79.77V689A50.28,50.28,0,0,0,753.61,645.43Z"></path><path fill="#cee3f8" d="M370,637.71v138.7L640.61,932.65V768.74a50.29,50.29,0,0,0-25.15-43.55L417,610.59A31.32,31.32,0,0,0,370,637.71Z" class="colorced3f8 svgShape"></path><path fill="url(#v)" d="M589.8,752.48,421,655c-10.07-5.81-18.23-1.1-18.23,10.52v129.8L608,913.84V784.05C608,772.43,599.88,758.28,589.8,752.48Z"></path><path fill="#f4f6f8" d="M608,784.05c0-11.62-8.15-25.77-18.23-31.57l-74.63-43.09L167.63,910c-5,2.9-9.12,10-9.12,15.78,0,3.3,1.32,5.48,3.38,6.23l203.93,117.74,7.08-21.23L608,892.79Z" class="colorf6f6fb svgShape"></path><path fill="#bbd0e6" d="M372.9,1028.56c-5,2.89-9.12,10-9.12,15.77s4.09,8.17,9.12,5.27L608,913.84V892.79Z" class="colorbbc0e6 svgShape"></path><path fill="#a3b9d0" d="M368.06 1041.87a10.69 10.69 0 014.84-8.38c2.66-1.53 4.83-.29 4.83 2.8a10.69 10.69 0 01-4.83 8.36C370.23 1046.2 368.06 1045 368.06 1041.87zM391 1028.61a10.69 10.69 0 014.83-8.37c2.67-1.54 4.83-.29 4.83 2.79a10.66 10.66 0 01-4.83 8.37C393.18 1032.94 391 1031.7 391 1028.61zM415.13 1014.69a10.68 10.68 0 014.83-8.37c2.67-1.54 4.84-.29 4.84 2.79a10.67 10.67 0 01-4.84 8.37C417.3 1019 415.13 1017.77 415.13 1014.69zM439.24 1000.77a10.66 10.66 0 014.84-8.37c2.66-1.54 4.83-.29 4.83 2.79a10.7 10.7 0 01-4.83 8.37C441.4 1005.1 439.24 1003.85 439.24 1000.77zM463.35 986.85a10.69 10.69 0 014.84-8.37c2.66-1.54 4.83-.29 4.83 2.79a10.69 10.69 0 01-4.83 8.37C465.52 991.18 463.35 989.93 463.35 986.85zM487.46 972.93a10.67 10.67 0 014.84-8.37c2.67-1.54 4.83-.3 4.83 2.78a10.7 10.7 0 01-4.83 8.38C489.63 977.25 487.46 976 487.46 972.93zM511.58 959a10.66 10.66 0 014.83-8.37c2.67-1.54 4.84-.3 4.83 2.79a10.68 10.68 0 01-4.83 8.37C513.74 963.34 511.58 962.09 511.58 959zM535.69 945.09a10.66 10.66 0 014.84-8.37c2.66-1.54 4.83-.3 4.83 2.79a10.69 10.69 0 01-4.83 8.36C537.85 949.42 535.69 948.17 535.69 945.09zM559.8 931.17a10.65 10.65 0 014.84-8.37c2.67-1.55 4.83-.3 4.83 2.78a10.7 10.7 0 01-4.83 8.38C562 935.5 559.8 934.25 559.8 931.17zM583.91 917.25a10.71 10.71 0 014.84-8.38c2.67-1.54 4.83-.29 4.83 2.79a10.68 10.68 0 01-4.83 8.37C586.08 921.57 583.91 920.33 583.91 917.25z" class="colora3a9d0 svgShape"></path><path d="M160,919.15,365.3,1037.66a22.18,22.18,0,0,1,3.2-5.22L163.23,913.93A22.31,22.31,0,0,0,160,919.15ZM442.25,751.49,608,847.2v-6.31L447.72,748.33ZM270.91,850.41,476.18,968.93l5.47-3.17L276.38,847.25Zm57.11-33L533.29,936l5.47-3.16L333.49,814.28Zm57.12-33L590.4,903l5.47-3.15L390.6,781.31ZM213.8,883.38l205.26,118.51,5.47-3.15L219.26,880.23Z" style="mix-blend-mode:multiply" fill="url(#w)"></path><polygon fill="#6f196f" points="742.2 724.84 745.53 722.92 745.53 698.66 742.2 700.59 742.2 724.84" class="color1f196f svgShape"></polygon><polygon fill="#6f196f" points="732.78 730.28 736.12 728.35 736.12 704.1 732.78 706.02 732.78 730.28" class="color1f196f svgShape"></polygon><polygon fill="#6f196f" points="723.36 735.72 726.7 733.79 726.7 709.54 723.36 711.46 723.36 735.72" class="color1f196f svgShape"></polygon><polygon fill="#6f196f" points="713.94 741.16 717.28 739.23 717.28 714.98 713.94 716.9 713.94 741.16" class="color1f196f svgShape"></polygon><polygon fill="#6f196f" points="704.52 746.6 707.86 744.66 707.86 720.41 704.52 722.34 704.52 746.6" class="color1f196f svgShape"></polygon><path d="M506.16,951.62,608,892.79V784.05c0-11.62-8.15-25.77-18.23-31.57l-74.63-43.09L300.89,833.1Z" style="mix-blend-mode:multiply" fill="url(#x)"></path><rect width="94.01" height="40.64" x="1003.07" y="365.12" style="mix-blend-mode:multiply" fill="url(#y)"></rect><path fill="url(#z)" d="M979.87,400.2c-6.45-3.73-9.69-8.63-9.67-13.52l0-34.49c0,4.89,3.21,9.78,9.67,13.51,12.84,7.42,33.58,7.42,46.33,0,6.34-3.69,9.51-8.5,9.52-13.33l0,34.49c0,4.83-3.18,9.64-9.52,13.33s-14.75,5.56-23.13,5.56S986.29,403.9,979.87,400.2Z"></path><path fill="#f4f6f8" d="M979.73 338.87c6.42-3.71 14.84-5.56 23.25-5.56s16.82 1.85 23.24 5.56 9.63 8.56 9.63 13.42-3.21 9.71-9.63 13.41-14.83 5.56-23.24 5.56-16.83-1.85-23.24-5.56-9.63-8.56-9.63-13.41S973.32 342.57 979.73 338.87zM959.76 265.19c11.94-6.89 27.58-10.34 43.22-10.34s31.28 3.45 43.21 10.34 17.9 15.92 17.9 24.95-6 18.06-17.9 24.95-27.57 10.33-43.21 10.33S971.7 322 959.76 315.09s-17.9-15.92-17.9-24.95S947.83 272.08 959.76 265.19z" class="colorf6f6fb svgShape"></path><path fill="url(#A)" d="M963.32,267.24c10.95-6.32,25.31-9.48,39.66-9.48s28.7,3.16,39.65,9.48,16.43,14.61,16.43,22.9-5.48,16.57-16.43,22.89-25.3,9.49-39.65,9.49-28.71-3.17-39.66-9.49-16.42-14.61-16.42-22.89S952.37,273.57,963.32,267.24Z"></path><path fill="url(#B)" d="M1046.19,315.09c-11.93,6.89-27.57,10.33-43.21,10.33S971.7,322,959.76,315.09c-6.28-3.63-10.89-7.85-13.86-12.34h0l25.31,54.75s.48.89.75,1.36a21.09,21.09,0,0,0,7.91,7.38c6.42,3.71,14.81,5.56,23.2,5.56s16.76-1.85,23.13-5.56a20.1,20.1,0,0,0,8.14-8c.14-.28.41-.78.41-.78l25.31-54.75h0C1057.08,307.24,1052.47,311.46,1046.19,315.09Z"></path><polygon fill="#e100b8" points="964.35 291.05 997.34 272 997.34 233.9 964.35 252.95 964.35 291.05" class="colore19100 svgShape"></polygon><polygon fill="#fc06cf" points="964.35 291.05 931.36 272 931.36 233.9 964.35 252.95 964.35 291.05" class="colorfcba06 svgShape"></polygon><polygon fill="#3e9eff" points="964.35 252.95 931.36 233.9 964.35 214.86 997.34 233.9 964.35 252.95" class="colorffd03e svgShape"></polygon><path fill="#342e94" d="M928.52,244.2c.81.62,5,8.9-1.2,12.33C923.74,255.2,921.51,246.52,928.52,244.2Z" class="color362e94 svgShape"></path><path fill="#a9d2fc" d="M924.44,244.64l4.37,1c2.43.39,8.21-1.52,11.1-5.25s4.4,2.75.77,5.11-3.47,4,2.92,4.33a15.74,15.74,0,0,1,7.38,2.3c2.52,1.95,5.64,6.59,2.39,9.46-2.64,2.31-11.71-.45-14.43-1.18-7.53-2-6.27-3.61-10.53-5s-5.14-1.21-5.14-1.21Z" class="colorfcd1a9 svgShape"></path><path fill="url(#C)" d="M864.66,172.35c-4.62.29-11.07,5.2-8.63,19,2.3,13,14.63,36.35,18.9,42.52,9.92,14.35,29.54,19.07,52.39,22.63-3.22-2.86-2.25-10.21,1.2-12.33-15.75-4.65-30.93-12.32-36.54-16.66-2.68-5.66-11.55-31.89-13.92-40.68S871.73,171.92,864.66,172.35Z"></path><path d="M616.56,618.9c-5.76-3.32-13.41-4.85-20.93-4.63H575.16v1.93a31.58,31.58,0,0,0-6.23,2.7c-10.72,6.24-10.66,16.33.13,22.57a31,31,0,0,0,6.1,2.64v2H598c6.8-.11,13.54-1.66,18.71-4.66C627.41,635.23,627.36,625.14,616.56,618.9Z" style="mix-blend-mode:multiply" fill="url(#D)"></path><path fill="url(#E)" d="M557.12,641.49c-5.43-3.14-8.14-7.25-8.13-11.36l0-7.44c0,4.11,2.7,8.23,8.13,11.37,10.79,6.23,28.23,6.23,39,0,5.32-3.1,8-7.15,8-11.21l0,7.44c0,4.05-2.68,8.1-8,11.2C585.35,647.72,567.91,647.72,557.12,641.49Z"></path><path fill="#ffffff" d="M557.14,634.06c-10.79-6.24-10.85-16.34-.13-22.57s28.17-6.23,39,0,10.85,16.33.13,22.57S567.93,640.29,557.14,634.06Z" class="colorffffff svgShape"></path><path d="M593.24,635.48a30.26,30.26,0,0,0,2.85-1.42c10.72-6.24,10.67-16.34-.13-22.57a32.42,32.42,0,0,0-7.68-3.11h-13.1V610a26.4,26.4,0,0,0-5.3,2.29c-9.12,5.31-9.06,13.9.11,19.2a26.67,26.67,0,0,0,5.19,2.25v1.72Z" style="mix-blend-mode:multiply" fill="#eff1f3" class="colorefeff3 svgShape"></path><path fill="url(#F)" d="M559.83,631.5c-4.62-2.67-6.92-6.17-6.91-9.67l0-26.46c0,3.5,2.29,7,6.91,9.67,9.18,5.3,24,5.3,33.14,0,4.52-2.64,6.79-6.08,6.8-9.53l0,26.46c0,3.45-2.27,6.9-6.8,9.53C583.85,636.8,569,636.8,559.83,631.5Z"></path><path d="M561.31,605.73c-.48-.24-1-.43-1.46-.69a16.6,16.6,0,0,1-4.7-3.91v26.49a16.72,16.72,0,0,0,4.68,3.88c.46.26,1,.46,1.48.7Z" style="mix-blend-mode:screen" fill="#342e94" class="color362e94 svgShape"></path><path d="M581,635.21a31.25,31.25,0,0,0,12-3.71,19.24,19.24,0,0,0,2.76-2V603.11A18.94,18.94,0,0,1,593,605a31,31,0,0,1-12,3.71Z" style="mix-blend-mode:multiply" fill="url(#G)"></path><path fill="#a9d4ff" d="M593,605c-9.12,5.3-24,5.3-33.14,0-4.33-2.5-6.6-5.74-6.86-9-.3,3.69,2,7.45,6.86,10.27,9.18,5.3,24,5.3,33.14,0,4.81-2.8,7-6.52,6.75-10.19C599.49,599.36,597.25,602.56,593,605Z" class="colora9a9ff svgShape"></path><path fill="#857dfb" d="M559.85,605c-9.18-5.3-9.23-13.89-.11-19.19s24-5.3,33.14,0,9.22,13.89.11,19.19S569,610.34,559.85,605Z" class="color807dfb svgShape"></path><path d="M540,609a36.45,36.45,0,1,1,36.45,36.45A36.44,36.44,0,0,1,540,609Z" style="mix-blend-mode:screen" fill="url(#H)"></path><path fill="#4841aa" d="M306.23,925.87c11.26,11.26,35.52,21.29,41.22,22.71,5.71-1.42,30-11.45,41.23-22.71A736.29,736.29,0,0,0,306.23,925.87Z" class="color4141aa svgShape"></path><path fill="url(#I)" d="M301,879.52v34c0,6.87,4.54,13.73,13.61,19,18.15,10.48,47.57,10.47,65.71,0,9.07-5.24,13.61-12.1,13.61-19v-34Z"></path><path fill="url(#J)" d="M396.71,896.81a2.91,2.91,0,0,0-1.47-2.33,18.48,18.48,0,0,0,1.53-7.32,3,3,0,0,0-2.77-2.69c-1.39,0,0,2.69,0,2.69h-.64c0,6.7-4.64,13.08-13.08,18-18.07,10.43-47.49,10.43-65.57,0-8.43-4.87-13.07-11.24-13.07-18h-.71s1.38-2.69,0-2.69a2.91,2.91,0,0,0-2.71,2.69,18.51,18.51,0,0,0,1.53,7.29,2.9,2.9,0,0,0-1.53,2.36,18.5,18.5,0,0,0,1.53,7.28,2.91,2.91,0,0,0-1.53,2.36c0,8,5.26,15.4,14.79,20.9,19,11,50,11,69,0,9.53-5.5,14.78-12.93,14.78-20.9a3.13,3.13,0,0,0-1.53-2.33A17.38,17.38,0,0,0,396.71,896.81Zm-16.44,27.58c-18.07,10.43-47.49,10.43-65.57,0-7.91-4.57-12.49-10.47-13-16.72a33.5,33.5,0,0,0,11.31,10c19,11,50,11,69,0a33.6,33.6,0,0,0,11.31-10C392.77,913.92,388.19,919.82,380.27,924.39Zm0-9.64c-18.07,10.43-47.49,10.43-65.57,0-7.91-4.58-12.49-10.47-13-16.72a33.5,33.5,0,0,0,11.31,10c19,11,50,11,69,0a33.7,33.7,0,0,0,11.31-10C392.77,904.28,388.19,910.17,380.27,914.75Z"></path><path fill="url(#K)" d="M429.78,798.64a82.33,82.33,0,1,0-139.76,59c6.26,6.27,7.81,17.62,7.81,20.81,0,7.33,4.84,14.66,14.53,20.26,19.38,11.19,50.81,11.19,70.19,0,9.69-5.6,14.53-12.93,14.53-20.26,0-3.19,1.55-14.54,7.86-20.84A82.11,82.11,0,0,0,429.78,798.64Z"></path><path d="M290,857.59a22.67,22.67,0,0,1,4.28,6.32l6.95,4a26.85,26.85,0,0,1,3.61-4.24L285,852.24C286.61,854.09,288.27,855.88,290,857.59ZM390.6,781.31l-5.46,3.15L429,809.79q.4-3,.6-6ZM328,817.43l74.55,43.05a19.76,19.76,0,0,1,2.37-2.92c.43-.43.84-.87,1.27-1.3l-72.72-42Z" style="mix-blend-mode:multiply" fill="url(#L)"></path><path d="M312.36,858.14c19.38-11.19,50.8-11.19,70.19,0s19.38,29.33,0,40.52-50.81,11.19-70.19,0S293,869.33,312.36,858.14Z" style="mix-blend-mode:multiply" fill="url(#M)"></path><path fill="#ffffff" d="M281.75,804.44a5.81,5.81,0,0,1-5.8-5.81,71.59,71.59,0,0,1,71.51-71.5,5.81,5.81,0,0,1,0,11.61,60,60,0,0,0-59.91,59.89A5.8,5.8,0,0,1,281.75,804.44Z" class="colorffffff svgShape"></path><path d="M397.08,878.4c0-3.19,1.55-14.54,7.86-20.84a82.33,82.33,0,0,0,16.87-94.27L279.68,845.35A82.9,82.9,0,0,0,290,857.59c6.26,6.27,7.81,17.62,7.81,20.81,0,7.33,4.84,14.66,14.53,20.26,19.38,11.19,50.81,11.19,70.19,0C392.24,893.06,397.08,885.73,397.08,878.4Z" style="mix-blend-mode:multiply" fill="url(#N)"></path><path d="M365.85,788.87a3.18,3.18,0,0,0-3.31,0c-2.27,1.31-4,5.6-5.05,11.05-.73-2.19-1.7-3.83-2.94-4.55a3.2,3.2,0,0,0-3.31,0c-2.27,1.32-4,5.6-5.05,11.05-.74-2.18-1.7-3.83-2.94-4.54a3.18,3.18,0,0,0-3.31,0c-2.27,1.31-4,5.6-5.05,11-.74-2.18-1.7-3.83-2.95-4.55a3.2,3.2,0,0,0-3.31,0c-4.27,2.47-6.5,15.42-6.5,26.94,0,11.72,2.79,15.19,5.49,18.54,2.86,3.54,5.81,7.2,5.81,22.85a1.71,1.71,0,1,0,3.42,0c0-16.86-3.49-21.18-6.56-25-2.55-3.15-4.74-5.87-4.74-16.39,0-13,2.76-22.68,4.76-23.94,1.1.74,3.12,6.51,3.12,17.41a1.71,1.71,0,0,0,3.42,0c0-13,2.76-22.68,4.76-23.94,1.1.74,3.12,6.51,3.12,17.42a1.72,1.72,0,0,0,3.43,0c0-13.06,2.75-22.68,4.75-23.94,1.11.74,3.13,6.5,3.13,17.41a1.71,1.71,0,1,0,3.42,0c0-13.05,2.76-22.68,4.76-23.93,1.1.73,3.12,6.5,3.12,17.4s-2.44,16.74-5,23c-2.95,7.12-6.28,15.19-6.28,31.46a1.71,1.71,0,0,0,3.42,0c0-15.59,3.06-23,6-30.16,2.72-6.57,5.28-12.77,5.28-24.29C370.76,800.8,369.47,791,365.85,788.87Z" style="mix-blend-mode:screen" fill="url(#O)"></path><path fill="#3e9eff" d="M346.44 703.15a2.9 2.9 0 01-2.9-2.9v-42a2.9 2.9 0 015.8 0v42A2.9 2.9 0 01346.44 703.15zM299.31 715.18a2.91 2.91 0 01-2.55-1.51l-14.09-25.82a2.9 2.9 0 115.09-2.78l14.1 25.82a2.9 2.9 0 01-1.16 3.93A2.8 2.8 0 01299.31 715.18zM264.66 746.88a2.89 2.89 0 01-1.71-.56l-13.71-10.05a2.9 2.9 0 013.43-4.68l13.71 10a2.9 2.9 0 01-1.72 5.24z" class="colorffd03e svgShape"></path><path d="M957.67,942.64l-24.53-14.16a9.05,9.05,0,0,1,3.24,6.72h0v16.42h0c0,3.18-2.15,6.36-6.33,8.77l-134.93,77.9A31.35,31.35,0,0,1,779.9,1042H808v0a31.13,31.13,0,0,0,14.74-3.65l134.93-77.9C966.13,955.51,966.13,947.52,957.67,942.64Z" style="mix-blend-mode:multiply" fill="url(#P)"></path><path fill="url(#Q)" d="M930.05,944l-134.93,77.89c-8.45,4.89-22.29,4.89-30.75,0L686,976.58c-4.19-2.42-6.3-5.6-6.33-8.8h0v16.43h0c0,3.19,2.13,6.38,6.33,8.81l78.42,45.27c8.46,4.89,22.3,4.89,30.75,0l134.93-77.9c4.18-2.41,6.29-5.59,6.33-8.77h0V935.2h0C936.33,938.37,934.23,941.55,930.05,944Z"></path><path fill="#ffffff" d="M930.05,926.2c8.45,4.88,8.45,12.87,0,17.76l-134.93,77.89c-8.45,4.89-22.29,4.89-30.75,0L686,976.58c-8.46-4.88-8.46-12.87,0-17.76l134.93-77.9c8.45-4.88,22.29-4.88,30.75,0Z" class="colorffffff svgShape"></path><path d="M930.05,926.2l-28.58-16.5H876.61l14.23,8.22-140.35,81.3h83.84L930.05,944C938.5,939.07,938.5,931.08,930.05,926.2Z" style="mix-blend-mode:multiply" fill="url(#R)"></path><polygon fill="#bbcee2" points="736.25 864.43 750.49 872.65 750.49 999.22 736.25 991 736.25 864.43" class="colorbbbfe2 svgShape"></polygon><polygon fill="#9693ca" points="750.49 842.62 890.84 761.33 890.84 917.92 750.49 999.22 750.49 842.62" class="color939cca svgShape"></polygon><path fill="#f4f6f8" d="M873.92,678.64a12.34,12.34,0,0,0-15.61-3.2L694.46,770a9.23,9.23,0,0,0-2.84,13.85l91.72,122.47a12.34,12.34,0,0,0,15.61,3.2L962.8,815a9.26,9.26,0,0,0,2.84-13.86Z" class="colorf6f6fb svgShape"></path><path fill="url(#S)" d="M799,909.56a12.34,12.34,0,0,1-15.61-3.2L691.62,783.89a9.21,9.21,0,0,1,.28-11.76l-11.61,13.72h0a9.19,9.19,0,0,0-.44,11.93l91.72,122.47a12.33,12.33,0,0,0,15.61,3.2L951,828.86a10,10,0,0,0,3-2.68h0l11-13A10.34,10.34,0,0,1,962.8,815Z"></path><path fill="url(#T)" d="M792.11,903.5l-93-124.11L865,681.33,958.76,806.5Z"></path><path d="M817.11,778.65c-8.89,5.09-10.07,17.29-2.63,27.22s20.68,13.85,29.56,8.76,10.06-17.27,2.62-27.21-20.67-13.86-29.55-8.77Z" style="mix-blend-mode:screen" fill="url(#U)"></path><path d="M819.58,772.45c-8.89,5.09-10.06,17.28-2.63,27.21s20.68,13.86,29.57,8.77,10.06-17.28,2.62-27.21-20.68-13.86-29.56-8.77Z" style="mix-blend-mode:screen" fill="url(#V)"></path><polygon fill="#ffffff" points="823.83 783.85 835.8 799.84 840.66 785.63 823.83 783.85 823.83 783.85" class="colorffffff svgShape"></polygon><polygon points="872.58 708.71 726.43 793.78 715.8 779.59 861.95 694.52 872.58 708.71" style="mix-blend-mode:screen" fill="#3f0d3f" class="color0f0d3f svgShape"></polygon><polygon points="809.91 820.91 765.93 846.51 732.53 801.92 776.52 776.32 809.91 820.91" style="mix-blend-mode:screen" fill="#3f0d3f" class="color0f0d3f svgShape"></polygon><polygon points="940.47 797.55 896.48 823.15 833.66 739.27 877.65 713.67 940.47 797.55" style="mix-blend-mode:screen" fill="#3f0d3f" class="color0f0d3f svgShape"></polygon><polygon points="821.55 836.45 777.56 862.05 771.55 854.02 815.53 828.42 821.55 836.45" style="mix-blend-mode:screen" fill="#3f0d3f" class="color0f0d3f svgShape"></polygon><polygon points="831.04 849.13 787.06 874.73 781.04 866.7 825.03 841.1 831.04 849.13" style="mix-blend-mode:screen" fill="#3f0d3f" class="color0f0d3f svgShape"></polygon><polygon points="886.67 833.43 795.76 886.35 789.74 878.32 880.66 825.4 886.67 833.43" style="mix-blend-mode:screen" fill="#3f0d3f" class="color0f0d3f svgShape"></polygon><rect width="97.73" height="17.96" x="913.89" y="1035.81" style="mix-blend-mode:multiply" fill="url(#f)"></rect><rect width="97.73" height="17.96" x="957.96" y="1009.87" style="mix-blend-mode:multiply" fill="url(#W)"></rect><path fill="url(#g)" d="M968.77,1022.3c0-14.11-8.94-14.52-8.94-14.52s-4.85,0-12.71-3.26-18.7-2-12.59,9.3a3.19,3.19,0,0,0,.21.41,5.52,5.52,0,0,0,2,1.74l19.54,11.46C959.24,1029.14,968.7,1025.21,968.77,1022.3Z"></path><path fill="#6b1c6b" d="M968.72,1021c-.17,2.9-9.5,6.75-12.46,5.06l-19.54-11.46a17.87,17.87,0,0,1-2.75-2c.18.39.34.76.56,1.19a3.19,3.19,0,0,0,.21.41,5.52,5.52,0,0,0,2,1.74l19.54,11.46c2.79,1.6,11.27-1.75,12.39-4.57a3.37,3.37,0,0,0,.08-.57A8.67,8.67,0,0,0,968.72,1021Z" class="color1e1c6b svgShape"></path><path fill="#ffffff" d="M965.13,1005.93c-2.3,0-10.4,2.06-10.4,2.06a4.58,4.58,0,0,1-.73,2.1,2.88,2.88,0,0,0-.22.27c-1.6,1.11-3.23,2.87.57,5.25a5.25,5.25,0,0,0,6.83-.48,6.12,6.12,0,0,1,2.2-2.5,5.37,5.37,0,0,1,2.11-.89,1.8,1.8,0,0,1,0-.2S966.1,1005.93,965.13,1005.93Z" class="colorffffff svgShape"></path><path fill="#6b1c6b" d="M965.28,868l-39.75.71c3.29,26.56,9.9,50.68,14.33,76.4,4.73,25,10.08,42.56,14.75,63.37,1.7,3.87,9.52,2.41,11.1-1.32,1.24-19.16,2.66-42.5-3-64.6C963.64,918.68,965.84,892,965.28,868Z" class="color1e1c6b svgShape"></path><path fill="url(#X)" d="M924.23,1048.23c0-14.11-8.94-14.52-8.94-14.52s-4.85,0-12.72-3.26-18.7-2-12.58,9.29a2.74,2.74,0,0,0,.21.42,5.44,5.44,0,0,0,2,1.74l19.54,11.46C914.7,1055.07,924.16,1051.13,924.23,1048.23Z"></path><path fill="#6b1c6b" d="M924.18,1047c-.17,2.9-9.51,6.76-12.46,5.07l-19.54-11.46a18.36,18.36,0,0,1-2.76-2c.19.39.34.76.57,1.18a2.74,2.74,0,0,0,.21.42,5.44,5.44,0,0,0,2,1.74l19.54,11.46c2.79,1.59,11.27-1.75,12.39-4.57a3.51,3.51,0,0,0,.08-.57A10.58,10.58,0,0,0,924.18,1047Z" class="color1e1c6b svgShape"></path><path fill="#ffffff" d="M920.59,1031.85c-2.3,0-10.41,2.06-10.41,2.06a4.52,4.52,0,0,1-.72,2.11c-.08.08-.15.18-.23.27-1.59,1.11-3.22,2.87.57,5.25a5.27,5.27,0,0,0,6.83-.48,6.31,6.31,0,0,1,2.21-2.51,5.71,5.71,0,0,1,2.11-.89,1.83,1.83,0,0,1,0-.19S921.56,1031.85,920.59,1031.85Z" class="colorffffff svgShape"></path><path fill="url(#Y)" d="M937.24,931.1c2.42-11.41,30.28-12.83,28.45-57.72-8.74-1.29-52.84,19.39-61.58,18.1-1.09,26.74,1.5,51.62,1.66,77.72.59,25.43,3,43.63,4.2,64.92,1.06,4.1,9,3.93,11.18.52,4.34-18.7,9.56-41.5,7.57-64.23C931.32,957.81,934.41,944.47,937.24,931.1Z"></path><path fill="#c900a4" d="M945.53,786.21c31.11,20.78,34.82,62.06,18,88.26C963.53,874.47,967.15,816.42,945.53,786.21Z" class="colorc97700 svgShape"></path><path fill="url(#Z)" d="M947,898.83c-18.94,10.62-38.75,10.64-45.5-2.42,2.52-24.32,4.89-44.12,0-67.43,1.45-12.87,2.46-14.81.81-22.32.58-2.52,8.32-7.89,14-13,6.1-5.57,10.21-10.86,13.35-11.5,25.89-5.29,38.47,40.85,36.31,90C963.91,885.24,956.28,893.6,947,898.83Z"></path><path fill="#a9d2fc" d="M944 785.06c-5.62-4.06-4.78-6.72-3.94-12.24a27.48 27.48 0 001.69-9.53c0-12.31-7.83-22.94-17.44-22.28-19.34 1.33-15.9 11.51-15.9 23.82 0 11.39 5.17 19.23 13.81 20.56 0 1.87-.49 2.94-2.85 5.3 6.32 3.78 15.54 2 19.19.35C942.4 789.29 946.59 787.78 944 785.06zM873.44 814.57l0 .11c0-4.86-1-7.68-2.88-8.51-.4-1.16-.83-2.37-1.24-3.53-2.42-6.77-10-12.58-11.62-11-1 1 2.89 4 4.93 7.18a11.63 11.63 0 011.69 5.08s-9.07.85-9.07 8.39c0 6.13 3.3 3.71 3.3 2.5 2.35 6.21 5.13 2.54 6.2 7.6l9.82-4.34S874.14 816.67 873.44 814.57z" class="colorfcd1a9 svgShape"></path><path fill="#5a52cc" d="M932.77,737.9c-2.49-1.28-4.73-.62-6.13-1.51-3.3-2-6.43-3.31-8.18-2.35a18.63,18.63,0,0,0-2.46,2c-1.72,1.72-5.25-1.94-6.09,2.5a16.19,16.19,0,0,0-.3,3.46c-8.26,1.06-4.19,8.58,2.44,23.08,0-2.36,5-7.79,5,2.66,0,1.12-.84,1.34-.1,2.83s5.49,5.24,8.62,8.37c4.37,4.37,6.94.45,14.16,1.24a11.5,11.5,0,0,1,1.91-6.59c.69-1.22,4.66-5.12,4.66-11.91C940.7,762.33,950.67,747.12,932.77,737.9Z" class="color5652cc svgShape"></path><path fill="url(#aa)" d="M902.28,806.66c-2.44,9.64-4.46,25-5.23,33.83-7.92-8.24-15.2-11.84-22.06-22.79l-11.19,4.67c2.1,7.65,22.86,39.13,37.66,41.44,14.46-5.42,17.2-32,19.34-43.37C923.94,803.77,905.86,797.05,902.28,806.66Z"></path><polygon points="567.4 1052.93 520.89 1052.93 550.41 1069.97 520.89 1087.01 567.4 1087.01 596.92 1069.97 567.4 1052.93" style="mix-blend-mode:multiply" fill="url(#ab)"></polygon><polygon fill="#bbd0e6" points="520.89 1087.01 550.41 1069.97 550.41 1035.88 520.89 1052.93 520.89 1087.01" class="colorbbc0e6 svgShape"></polygon><polygon fill="#cee3f8" points="520.89 1087.01 491.37 1069.97 491.37 1035.88 520.89 1052.93 520.89 1087.01" class="colorced3f8 svgShape"></polygon><polygon fill="#f1f3f6" points="520.89 1052.93 491.37 1035.88 520.89 1018.85 550.41 1035.88 520.89 1052.93" class="colorf1f1f6 svgShape"></polygon><polygon points="684.56 302.14 638.05 302.14 667.57 319.19 638.05 336.23 684.56 336.23 714.08 319.19 684.56 302.14" style="mix-blend-mode:multiply" fill="url(#ac)"></polygon><polygon fill="#bbd0e6" points="638.05 336.23 667.57 319.19 667.57 285.1 638.05 302.14 638.05 336.23" class="colorbbc0e6 svgShape"></polygon><polygon fill="#cee3f8" points="638.05 336.23 608.53 319.19 608.53 285.1 638.05 302.14 638.05 336.23" class="colorced3f8 svgShape"></polygon><polygon fill="#f1f3f6" points="638.05 302.14 608.53 285.1 638.05 268.06 667.57 285.1 638.05 302.14" class="colorf1f1f6 svgShape"></polygon><polygon points="418.52 455.4 302.69 455.4 376.21 497.86 302.69 540.3 418.52 540.3 492.04 497.86 418.52 455.4" style="mix-blend-mode:multiply" fill="url(#ad)"></polygon><polygon fill="#bbd0e6" points="302.69 540.3 376.21 497.86 376.21 412.96 302.69 455.4 302.69 540.3" class="colorbbc0e6 svgShape"></polygon><polygon fill="#cee3f8" points="302.69 540.3 229.17 497.86 229.17 412.96 302.69 455.4 302.69 540.3" class="colorced3f8 svgShape"></polygon><polygon fill="#f1f3f6" points="302.69 455.4 229.17 412.96 302.69 370.53 376.21 412.96 302.69 455.4" class="colorf1f1f6 svgShape"></polygon><polygon points="1188.92 948.1 1132.74 948.1 1168.4 968.7 1132.74 989.28 1188.92 989.28 1224.59 968.7 1188.92 948.1" style="mix-blend-mode:multiply" fill="url(#ae)"></polygon><polygon fill="#bbd0e6" points="1132.74 989.28 1168.4 968.7 1168.4 927.52 1132.74 948.1 1132.74 989.28" class="colorbbc0e6 svgShape"></polygon><polygon fill="#cee3f8" points="1132.74 989.28 1097.08 968.7 1097.08 927.52 1132.74 948.1 1132.74 989.28" class="colorced3f8 svgShape"></polygon><polygon fill="#f1f3f6" points="1132.74 948.1 1097.08 927.52 1132.74 906.94 1168.4 927.52 1132.74 948.1" class="colorf1f1f6 svgShape"></polygon><polygon fill="#bbd0e6" points="265.93 476.63 302.69 455.41 302.69 412.96 265.93 434.18 265.93 476.63" class="colorbbc0e6 svgShape"></polygon><polygon fill="#cee3f8" points="339.45 476.63 302.69 455.41 302.69 412.96 339.45 434.18 339.45 476.63" class="colorced3f8 svgShape"></polygon><polygon fill="#f1f3f6" points="302.69 497.85 265.93 476.63 302.69 455.41 339.45 476.63 302.69 497.85" class="colorf1f1f6 svgShape"></polygon><polygon points="265.93 476.63 339.45 476.63 302.69 412.96 302.69 455.41 265.93 476.63" style="mix-blend-mode:multiply" fill="url(#af)"></polygon><polygon points="440.95 497.84 394.44 497.84 423.96 514.89 394.44 531.93 440.95 531.93 470.47 514.89 440.95 497.84" style="mix-blend-mode:multiply" fill="url(#ag)"></polygon><polygon fill="#bbd0e6" points="394.44 531.93 423.96 514.89 423.96 480.8 394.44 497.84 394.44 531.93" class="colorbbc0e6 svgShape"></polygon><polygon fill="#cee3f8" points="394.44 531.93 364.92 514.89 364.92 480.8 394.44 497.84 394.44 531.93" class="colorced3f8 svgShape"></polygon><polygon fill="#ffffff" points="394.44 497.84 364.92 480.8 394.44 463.77 423.96 480.8 394.44 497.84" class="colorffffff svgShape"></polygon><rect width="77.45" height="16.22" x="188.15" y="1029.21" style="mix-blend-mode:multiply" fill="url(#h)"></rect><rect width="83.28" height="16.22" x="228.76" y="1052.62" style="mix-blend-mode:multiply" fill="url(#ah)"></rect><path fill="#a9d2fc" d="M266.8,843.88c-1.39-1.42-6-1.31-10.07.46.28-1.18.6-3,0-3.17-.89-.27-4.19,4.72-5,7.27h0a12.86,12.86,0,0,1-2.72,4l3.25,7.6s5.64-2.52,7.3-5.17,5.75-3.71,8.36-3.84C269.48,851,268.34,845.45,266.8,843.88Z" class="colorfcd1a9 svgShape"></path><path fill="#453eaf" d="M253.55,859.6s2.67-5.1-4.76-7.45c-16.23,6.92-32.88,3.33-45.1-11.83-5.06-6.49-12.63-2.3-7.36,7.44C205.13,864,227.45,875.65,253.55,859.6Z" class="color423eaf svgShape"></path><path fill="url(#i)" d="M178.82,1040.43c0-12.74,8.07-13.1,8.07-13.1s4.49.45,11.69-2.25c9.07-3.41,16.68-2.49,11.16,7.7a2.72,2.72,0,0,1-.2.37,4.85,4.85,0,0,1-1.78,1.57l-17.65,10.35C187.42,1046.61,178.88,1043.05,178.82,1040.43Z"></path><path fill="#471147" d="M178.87,1039.29c.15,2.61,8.57,6.1,11.24,4.58l17.65-10.35a16.21,16.21,0,0,0,2.49-1.81c-.17.35-.31.68-.51,1.07a2.72,2.72,0,0,1-.2.37,4.85,4.85,0,0,1-1.78,1.57l-17.65,10.35c-2.51,1.44-10.17-1.59-11.18-4.13a2.67,2.67,0,0,1-.07-.52A7.11,7.11,0,0,1,178.87,1039.29Z" class="color131147 svgShape"></path><path fill="#a9d2fc" d="M182.1,1025.65a35.65,35.65,0,0,1,5.52.94c1.73-.45,7.46-.66,11.21-1.76,1.11-.33,2.16-1,3.34-.13,1.48,1.81-2.37,6.26-10.32,9.69a4.76,4.76,0,0,1-6.18-.43,5.63,5.63,0,0,0-2-2.26,5.57,5.57,0,0,0-1.91-.81.52.52,0,0,0,0-.17S181.23,1025.65,182.1,1025.65Z" class="colorfcd1a9 svgShape"></path><path fill="url(#ai)" d="M186.09,941.9c-3.54-10.86-2.84-21.08-.21-33.69,8,.14,30.46,3.09,38.48,1.81-4.91,26-16.15,36.73-20.14,60-4.29,22.57-9.37,39.14-13.59,57.93-1.54,3.5-9,1.92-9-.18-1.11-17.3-.37-37.36,4.76-57.32C186,961.38,187.52,950.89,186.09,941.9Z"></path><path fill="url(#aj)" d="M219,1063.84c0-12.74,8.07-13.1,8.07-13.1s4.73.2,11.94-2.5c9.07-3.41,16.43-2.24,10.91,7.94a3.37,3.37,0,0,1-.19.38,5,5,0,0,1-1.79,1.57l-17.65,10.35C227.64,1070,219.1,1066.46,219,1063.84Z"></path><path fill="#471147" d="M219.08,1062.7c.16,2.61,8.58,6.1,11.25,4.58L248,1056.93a16.92,16.92,0,0,0,2.49-1.81c-.17.35-.31.69-.51,1.06a3.37,3.37,0,0,1-.19.38,5,5,0,0,1-1.79,1.57l-17.65,10.35c-2.51,1.44-10.17-1.59-11.18-4.13a2.75,2.75,0,0,1-.08-.52A10.63,10.63,0,0,1,219.08,1062.7Z" class="color131147 svgShape"></path><path fill="#a9d2fc" d="M222.32,1049.06a35.65,35.65,0,0,1,5.52.94c1.73-.45,7.46-.66,11.21-1.76,1.11-.33,2.16-1,3.34-.14,1.48,1.82-2.38,6.27-10.32,9.7a4.75,4.75,0,0,1-6.17-.43,5.82,5.82,0,0,0-2-2.26,5.12,5.12,0,0,0-1.91-.81,1.59,1.59,0,0,0,0-.17S221.46,1049.06,222.32,1049.06Z" class="colorfcd1a9 svgShape"></path><path fill="url(#ak)" d="M207.29,958.08c-6.8-27.3-15.25-22-19.14-48.5,7.89,1.23,34.75,13,42.64,11.81,4.63,29.38,3.67,47.53,3.52,71.09-.53,23-2,38.69-3.12,57.9-.95,3.71-9.36,3.42-9.36,1.19-3.93-16.88-7.06-37.47-5.26-58C214.22,982.2,209.84,970.15,207.29,958.08Z"></path><path fill="url(#al)" d="M190.88,948c12.86,7.86,43.61,13.45,46.26,3.21,1.35-7.6-6.71-53-6.19-68.26.11-3.33,5.29-3.89,5.8-7.3,1.12-7.45-1.47-27.79-2.7-30-2.59-4.79-9.14-7.68-14.56-8.17-7.42-.68-17.8-1.34-23.9,3.69-6.57,13.52-7.51,33-16.75,88.67C180.1,935.51,183.15,943.25,190.88,948Z"></path><path fill="#a9d2fc" d="M202.43 837.45c4.81-4 4.2-8.5 3.11-13.43a24.64 24.64 0 01-2.1-8.49c-.75-11.08 5.67-21.13 14.36-21.12 17.51 0 15 9.41 15.77 20.5.69 10.26-3.5 17.64-11.2 19.35a5.35 5.35 0 003 4.55c-5.47 3.79-15.56 3.94-19.35 2.82S200.22 840.07 202.43 837.45zM280.64 878.83c1.54 0 2.37-3.74 4.85-4.24s7.72-1.72 7.72-.18c0 1.29-4.53 1.41-3.87 2 1.92 1.77 6-.44 6.93-2.15s2.37-2 2.35-.29-.42 9.17-6.29 11.3A36.74 36.74 0 01279.42 887z" class="colorfcd1a9 svgShape"></path><path fill="#857dfb" d="M282.66,887.38s4-5-2.55-9.24c-11.71-.27-24.69-1.88-28.9-6-4.86-4.81-11.36-16.78-17.57-27.19-5.87-7.63-14.86,1.31-9.28,11.62,4.61,8.5,11.28,17.88,19.11,24.92C248.79,886.21,267.86,890.73,282.66,887.38Z" class="color807dfb svgShape"></path><path fill="#6f196f" d="M235.14,807.68c-.72-6.41-7.31-16.6-18.66-14.6-9.74,1.72-12,7.77-14.07,16.71-5.15,22.05-15.8,29.21-31.51,46.09-24.52,26.32,21.88,54.17,39.35,29.55,5.79-8.17-8.71-22.29,14.23-44.27l0,0C231.77,833.3,236.76,822,235.14,807.68Z" class="color20196f svgShape"></path><polygon points="1340.43 678.95 1184.96 680.26 1303.27 613.73 1340.43 612.42 1340.43 678.95" style="mix-blend-mode:multiply" fill="url(#am)"></polygon><polygon fill="#e100b8" points="1212.28 546.61 1208.59 550.39 1211.56 526.52 1215.25 522.74 1212.28 546.61" class="colore19100 svgShape"></polygon><path fill="#fc06cf" d="M1239.8,531.15c5.31-3,13.08-.5,17.26,5.53l43.83,63.16c4.18,6,3.26,13.4-2.05,16.38l-105,59c-5.31,3-13.07.49-17.26-5.54l-43.83-63.16a13.56,13.56,0,0,1-2.52-9.42,9.13,9.13,0,0,1,4.57-7l77.52-43.55,3-23.86,11.08,16Zm29.22,52.3-2.89-4.17-94.86,53.28,2.9,4.16L1269,583.45Zm-8.14-11.73-2.89-4.17-94.86,53.28L1166,625l94.85-53.28ZM1169.37,601l2.9,4.18,66.1-37.12-2.9-4.18L1169.37,601Zm51.72,33.75c1.31-.73,1.52-2.52.49-4a3.37,3.37,0,0,0-4.2-1.34c-1.3.73-1.53,2.51-.5,4a3.38,3.38,0,0,0,4.21,1.35Zm12.69-7.12c1.3-.73,1.52-2.52.49-4a3.36,3.36,0,0,0-4.2-1.35c-1.3.73-1.53,2.52-.51,4a3.4,3.4,0,0,0,4.22,1.36Zm12.68-7.12c1.3-.73,1.52-2.53.5-4a3.38,3.38,0,0,0-4.21-1.34c-1.29.72-1.52,2.51-.5,4a3.41,3.41,0,0,0,4.21,1.36Z" class="colorfcba06 svgShape"></path><path fill="url(#an)" d="M1298.84,616.22l-105,59c-5.31,3-13.07.49-17.26-5.54l-43.83-63.16a13.56,13.56,0,0,1-2.52-9.42,9.48,9.48,0,0,1,2.55-5.41l-3.69,3.78a9.48,9.48,0,0,0-2.55,5.41,13.56,13.56,0,0,0,2.52,9.42l43.83,63.16c4.19,6,11.94,8.52,17.25,5.54l105-59a8.91,8.91,0,0,0,2-1.54l3.69-3.79A8.83,8.83,0,0,1,1298.84,616.22Z"></path><path fill="#5c55c4" d="M1242.75 615.18a3.38 3.38 0 014.21 1.34c1 1.48.8 3.28-.5 4a3.41 3.41 0 01-4.21-1.36C1241.23 617.69 1241.46 615.9 1242.75 615.18zM1230.07 622.3a3.36 3.36 0 014.2 1.35c1 1.48.81 3.27-.49 4a3.4 3.4 0 01-4.22-1.36C1228.54 624.82 1228.77 623 1230.07 622.3zM1217.38 629.43a3.37 3.37 0 014.2 1.34c1 1.48.82 3.27-.49 4a3.38 3.38 0 01-4.21-1.35C1215.85 631.94 1216.08 630.16 1217.38 629.43z" class="color5655c4 svgShape"></path><polygon fill="#5c55c4" points="1257.99 567.55 1260.88 571.72 1166.03 625 1163.13 620.83 1257.99 567.55" class="color5655c4 svgShape"></polygon><polygon fill="#5c55c4" points="1266.13 579.28 1269.02 583.45 1174.17 636.73 1171.27 632.56 1266.13 579.28" class="color5655c4 svgShape"></polygon><polygon fill="#5c55c4" points="1235.47 563.9 1238.37 568.08 1172.27 605.2 1169.37 601.02 1235.47 563.9" class="color5655c4 svgShape"></polygon></g></g></g></svg>