<svg xmlns="http://www.w3.org/2000/svg" xmlns:xlink="http://www.w3.org/1999/xlink" viewBox="0 0 1600 1200" id="Startupprojectlaunch"><defs><linearGradient id="a" x1="554.22" x2="698.43" y1="413.4" y2="413.4" gradientTransform="translate(42.41)" gradientUnits="userSpaceOnUse"><stop offset="0" stop-color="#c2d2e3" class="stopColorc2c7e3 svgShape"></stop><stop offset=".25" stop-color="#dde6ef" class="stopColordde0ef svgShape"></stop><stop offset=".54" stop-color="#f6f8fb" class="stopColorf6f7fb svgShape"></stop><stop offset=".72" stop-color="#ffffff" class="stopColorffffff svgShape"></stop></linearGradient><linearGradient id="n" x1="433.23" x2="571.25" y1="451.24" y2="451.24" gradientTransform="translate(97.64)" xlink:href="#a"></linearGradient><linearGradient id="o" x1="312.23" x2="439.26" y1="489.08" y2="489.08" gradientTransform="translate(152.86)" xlink:href="#a"></linearGradient><linearGradient id="p" x1="549.6" x2="1201.53" y1="645.53" y2="645.53" gradientUnits="userSpaceOnUse"><stop offset=".51" stop-color="#c6d8ea" class="stopColorc6ccea svgShape"></stop><stop offset=".63" stop-color="#cddded" class="stopColorcdd2ed svgShape"></stop><stop offset=".81" stop-color="#e1eaf4" class="stopColore1e4f4 svgShape"></stop><stop offset="1" stop-color="#ffffff" class="stopColorffffff svgShape"></stop></linearGradient><linearGradient id="q" x1="629.71" x2="925.44" y1="578.59" y2="1090.81" gradientTransform="rotate(120 847.697 791.438)" gradientUnits="userSpaceOnUse"><stop offset=".01" stop-color="#bc31a3" class="stopColorbc3153 svgShape"></stop><stop offset="1" stop-color="#ff5ae1" class="stopColorff5a72 svgShape"></stop></linearGradient><linearGradient id="b" x1="733.82" x2="931.15" y1="545.18" y2="545.18" gradientUnits="userSpaceOnUse"><stop offset="0" stop-color="#c2d4e6" class="stopColorc2c8e6 svgShape"></stop><stop offset=".28" stop-color="#d7e3ef" class="stopColord7dbef svgShape"></stop><stop offset=".74" stop-color="#f4f7fb" class="stopColorf4f5fb svgShape"></stop><stop offset="1" stop-color="#ffffff" class="stopColorffffff svgShape"></stop></linearGradient><linearGradient id="r" x1="754.3" x2="931.15" y1="685.15" y2="685.15" xlink:href="#b"></linearGradient><linearGradient id="c" x1="936.94" x2="1166.74" y1="683.46" y2="683.46" gradientUnits="userSpaceOnUse"><stop offset="0" stop-color="#c2d4e6" class="stopColorc2c8e6 svgShape"></stop><stop offset=".24" stop-color="#d7e3ef" class="stopColord7dbef svgShape"></stop><stop offset=".62" stop-color="#f4f7fb" class="stopColorf4f5fb svgShape"></stop><stop offset=".84" stop-color="#ffffff" class="stopColorffffff svgShape"></stop></linearGradient><linearGradient id="s" x1="956.31" x2="1166.74" y1="546.88" y2="546.88" xlink:href="#c"></linearGradient><linearGradient id="t" x1="970.3" x2="970.3" y1="557.82" y2="321.88" gradientUnits="userSpaceOnUse"><stop offset=".25" stop-color="#bc31a3" class="stopColorbc3153 svgShape"></stop><stop offset=".71" stop-color="#e44ac8" class="stopColore44a66 svgShape"></stop><stop offset="1" stop-color="#ff5ae1" class="stopColorff5a72 svgShape"></stop></linearGradient><linearGradient id="u" x1="1358.71" x2="1358.71" y1="557.82" y2="321.88" gradientTransform="matrix(-1 0 0 1 2079.01 0)" gradientUnits="userSpaceOnUse"><stop offset=".25" stop-color="#bc31a3" class="stopColorbc3153 svgShape"></stop><stop offset=".45" stop-color="#d23eb7" class="stopColord23e5d svgShape"></stop><stop offset=".81" stop-color="#f352d6" class="stopColorf3526c svgShape"></stop><stop offset="1" stop-color="#ff5ae1" class="stopColorff5a72 svgShape"></stop></linearGradient><linearGradient id="v" x1="770.46" x2="920.15" y1="559.02" y2="559.02" gradientUnits="userSpaceOnUse"><stop offset="0" stop-color="#ff5ae1" class="stopColorff5a72 svgShape"></stop><stop offset=".4" stop-color="#e74bcb" class="stopColore74b67 svgShape"></stop><stop offset="1" stop-color="#bc31a3" class="stopColorbc3153 svgShape"></stop></linearGradient><linearGradient id="w" x1="777.05" x2="920.15" y1="557.6" y2="557.6" gradientUnits="userSpaceOnUse"><stop offset="0" stop-color="#c2d6eb" class="stopColorc2c9eb svgShape"></stop><stop offset=".24" stop-color="#cadcee" class="stopColorcad0ee svgShape"></stop><stop offset=".61" stop-color="#e1ebf5" class="stopColore1e4f5 svgShape"></stop><stop offset="1" stop-color="#ffffff" class="stopColorffffff svgShape"></stop></linearGradient><linearGradient id="x" x1="710.3" x2="980.3" y1="328.51" y2="328.51" gradientUnits="userSpaceOnUse"><stop offset="0" stop-color="#f0f2f5" class="stopColorf0f0f5 svgShape"></stop><stop offset=".28" stop-color="#e5ebf2" class="stopColore5e6f2 svgShape"></stop><stop offset=".78" stop-color="#c8daec" class="stopColorc8ccec svgShape"></stop><stop offset="1" stop-color="#b9d0e8" class="stopColorb9bfe8 svgShape"></stop></linearGradient><linearGradient id="y" x1="781.78" x2="908.82" y1="149.09" y2="149.09" gradientUnits="userSpaceOnUse"><stop offset="0" stop-color="#ff5ae1" class="stopColorff5a72 svgShape"></stop><stop offset=".29" stop-color="#ef50d2" class="stopColoref506b svgShape"></stop><stop offset=".87" stop-color="#c737ad" class="stopColorc73758 svgShape"></stop><stop offset="1" stop-color="#bc31a3" class="stopColorbc3153 svgShape"></stop></linearGradient><linearGradient id="z" x1="752.95" x2="832.41" y1="453.25" y2="571.64" gradientUnits="userSpaceOnUse"><stop offset="0" stop-color="#d1e2f3" class="stopColord1d7f3 svgShape"></stop><stop offset=".1" stop-color="#d7e6f5" class="stopColord7dcf5 svgShape"></stop><stop offset=".67" stop-color="#f4f8fc" class="stopColorf4f6fc svgShape"></stop><stop offset="1" stop-color="#ffffff" class="stopColorffffff svgShape"></stop></linearGradient><linearGradient id="d" x1="956.8" x2="956.8" y1="672.37" y2="439.11" gradientUnits="userSpaceOnUse"><stop offset="0" stop-color="#bc31a3" class="stopColorbc3153 svgShape"></stop><stop offset="1" stop-color="#ff5ae1" class="stopColorff5a72 svgShape"></stop></linearGradient><linearGradient id="A" x1="926.41" x2="966.33" y1="464.69" y2="552.88" gradientUnits="userSpaceOnUse"><stop offset="0" stop-color="#dae7f5" class="stopColordae0f5 svgShape"></stop><stop offset=".51" stop-color="#eaf1f8" class="stopColoreaedf8 svgShape"></stop><stop offset="1" stop-color="#f5f7fa" class="stopColorf5f5fa svgShape"></stop></linearGradient><linearGradient id="B" x1="967.49" x2="967.68" y1="470.91" y2="470.91" gradientUnits="userSpaceOnUse"><stop offset="0" stop-color="#b9d0e8" class="stopColorb9bfe8 svgShape"></stop><stop offset=".22" stop-color="#c8daec" class="stopColorc8ccec svgShape"></stop><stop offset=".72" stop-color="#e5ebf2" class="stopColore5e6f2 svgShape"></stop><stop offset="1" stop-color="#f0f2f5" class="stopColorf0f0f5 svgShape"></stop></linearGradient><linearGradient id="C" x1="733.8" x2="733.8" y1="672.37" y2="439.11" xlink:href="#d"></linearGradient><linearGradient id="D" x1="776.79" x2="776.79" y1="397.97" y2="277.33" gradientTransform="rotate(88.2 776.767 337.608)" gradientUnits="userSpaceOnUse"><stop offset="0" stop-color="#d1e2f3" class="stopColord1d7f3 svgShape"></stop><stop offset="1" stop-color="#ffffff" class="stopColorffffff svgShape"></stop></linearGradient><linearGradient id="E" x1="771.72" x2="799.72" y1="394.26" y2="279.85" gradientUnits="userSpaceOnUse"><stop offset="0" stop-color="#a3b9d0" class="stopColora3a9d0 svgShape"></stop><stop offset=".67" stop-color="#bbd0e6" class="stopColorbbc0e6 svgShape"></stop><stop offset="1" stop-color="#f6f8fb" class="stopColorf6f6fb svgShape"></stop></linearGradient><linearGradient id="F" x1="741.84" x2="759.72" y1="372.05" y2="283.66" gradientUnits="userSpaceOnUse"><stop offset="0" stop-color="#cee3f8" class="stopColorced3f8 svgShape"></stop><stop offset=".34" stop-color="#c3d8ee" class="stopColorc3c8ee svgShape"></stop><stop offset=".94" stop-color="#a6bcd3" class="stopColora6acd3 svgShape"></stop><stop offset="1" stop-color="#a3b9d0" class="stopColora3a9d0 svgShape"></stop></linearGradient><linearGradient id="G" x1="744.5" x2="762.28" y1="371.99" y2="284.07" gradientUnits="userSpaceOnUse"><stop offset="0" stop-color="#ffffff" class="stopColorffffff svgShape"></stop><stop offset="1" stop-color="#cfe2f5" class="stopColorcfd6f5 svgShape"></stop></linearGradient><linearGradient id="H" x1="745.82" x2="802.73" y1="366.98" y2="315.43" gradientUnits="userSpaceOnUse"><stop offset="0" stop-color="#5a52cc" class="stopColor5652cc svgShape"></stop><stop offset="1" stop-color="#857dfb" class="stopColor807dfb svgShape"></stop></linearGradient><linearGradient id="I" x1="1071.57" x2="1206.72" y1="761.88" y2="761.88" gradientUnits="userSpaceOnUse"><stop offset=".45" stop-color="#c2d3e5" class="stopColorc2c9e5 svgShape"></stop><stop offset="1" stop-color="#ffffff" class="stopColorffffff svgShape"></stop></linearGradient><linearGradient id="e" x1="1035.95" x2="1168.97" y1="726.5" y2="726.5" gradientUnits="userSpaceOnUse"><stop offset="0" stop-color="#fc06cf" class="stopColorfcba06 svgShape"></stop><stop offset="1" stop-color="#dc00b4" class="stopColordc8b00 svgShape"></stop></linearGradient><linearGradient id="J" x1="1154.71" x2="1020.6" y1="802.54" y2="715.94" gradientUnits="userSpaceOnUse"><stop offset="0" stop-color="#dc00b4" class="stopColordc8b00 svgShape"></stop><stop offset="1" stop-color="#fc06cf" class="stopColorfcba06 svgShape"></stop></linearGradient><linearGradient id="K" x1="1076.79" x2="1113.65" y1="755.36" y2="755.36" xlink:href="#e"></linearGradient><linearGradient id="L" x1="1245.52" x2="1402.48" y1="844.78" y2="844.78" gradientUnits="userSpaceOnUse"><stop offset=".45" stop-color="#c4d4e4" class="stopColorc4c9e4 svgShape"></stop><stop offset="1" stop-color="#ffffff" class="stopColorffffff svgShape"></stop></linearGradient><linearGradient id="M" x1="1209.56" x2="1363.3" y1="857.06" y2="857.06" xlink:href="#e"></linearGradient><linearGradient id="f" x1="1224" x2="1348.86" y1="806.96" y2="806.96" gradientUnits="userSpaceOnUse"><stop offset="0" stop-color="#fc06cf" class="stopColorfcba06 svgShape"></stop><stop offset="1" stop-color="#e100b8" class="stopColore19100 svgShape"></stop></linearGradient><linearGradient id="N" x1="1262.71" x2="1296.45" y1="839.52" y2="839.52" xlink:href="#f"></linearGradient><linearGradient id="O" x1="1092.51" x2="1145.94" y1="943.48" y2="943.48" gradientUnits="userSpaceOnUse"><stop offset=".43" stop-color="#c2d3e5" class="stopColorc2c9e5 svgShape"></stop><stop offset=".59" stop-color="#d7e2ee" class="stopColord7dcee svgShape"></stop><stop offset=".85" stop-color="#f4f6f8" class="stopColorf4f5fa svgShape"></stop><stop offset="1" stop-color="#ffffff" class="stopColorffffff svgShape"></stop></linearGradient><linearGradient id="P" x1="1081.36" x2="1129.77" y1="942.8" y2="942.8" gradientUnits="userSpaceOnUse"><stop offset="0" stop-color="#fc06cf" class="stopColorfcba06 svgShape"></stop><stop offset=".21" stop-color="#f304c8" class="stopColorf3ad04 svgShape"></stop><stop offset=".7" stop-color="#e201b9" class="stopColore29401 svgShape"></stop><stop offset="1" stop-color="#dc00b4" class="stopColordc8b00 svgShape"></stop></linearGradient><linearGradient id="g" x1="761.8" x2="907.79" y1="935.68" y2="935.68" gradientUnits="userSpaceOnUse"><stop offset="0" stop-color="#c6d6e7" class="stopColorc6cbe7 svgShape"></stop><stop offset=".26" stop-color="#cfddeb" class="stopColorcfd3eb svgShape"></stop><stop offset=".68" stop-color="#e8eef5" class="stopColore8eaf5 svgShape"></stop><stop offset="1" stop-color="#ffffff" class="stopColorffffff svgShape"></stop></linearGradient><linearGradient id="Q" x1="623.88" x2="769.86" y1="935.68" y2="935.68" xlink:href="#g"></linearGradient><linearGradient id="R" x1="622.36" x2="883.31" y1="959.14" y2="959.14" gradientUnits="userSpaceOnUse"><stop offset="0" stop-color="#867ff4" class="stopColor7f7ff4 svgShape"></stop><stop offset=".11" stop-color="#7b74e6" class="stopColor7574e6 svgShape"></stop><stop offset=".51" stop-color="#5650b7" class="stopColor5250b7 svgShape"></stop><stop offset=".82" stop-color="#3f399a" class="stopColor3c399a svgShape"></stop><stop offset="1" stop-color="#37318f" class="stopColor34318f svgShape"></stop></linearGradient><linearGradient id="h" x1="911.62" x2="936.75" y1="1041.79" y2="998.27" gradientUnits="userSpaceOnUse"><stop offset="0" stop-color="#4841aa" class="stopColor4141aa svgShape"></stop><stop offset=".21" stop-color="#5049b3" class="stopColor4949b3 svgShape"></stop><stop offset=".56" stop-color="#655ecc" class="stopColor5e5ecc svgShape"></stop><stop offset="1" stop-color="#867ff4" class="stopColor7f7ff4 svgShape"></stop></linearGradient><linearGradient id="S" x1="861.9" x2="887.03" y1="1013.06" y2="969.53" xlink:href="#g"></linearGradient><linearGradient id="T" x1="975.07" x2="1016.67" y1="1074.46" y2="1050.44" xlink:href="#h"></linearGradient><linearGradient id="U" x1="1074.28" x2="1458.73" y1="483.28" y2="483.28" gradientUnits="userSpaceOnUse"><stop offset=".01" stop-color="#c2d6ea" class="stopColorc2caea svgShape"></stop><stop offset=".58" stop-color="#e3ecf6" class="stopColore3e7f6 svgShape"></stop><stop offset="1" stop-color="#ffffff" class="stopColorffffff svgShape"></stop></linearGradient><linearGradient id="V" x1="324.04" x2="506.26" y1="528.38" y2="212.77" gradientTransform="matrix(-1 0 0 1 1625.48 0)" gradientUnits="userSpaceOnUse"><stop offset=".38" stop-color="#342e94" class="stopColor362e94 svgShape"></stop><stop offset=".47" stop-color="#867eff" class="stopColor817eff svgShape"></stop></linearGradient><linearGradient id="i" x1="395.55" x2="510.11" y1="310.69" y2="310.69" gradientTransform="matrix(-1 0 0 1 1625.48 0)" gradientUnits="userSpaceOnUse"><stop offset=".01" stop-color="#c2d6ea" class="stopColorc2caea svgShape"></stop><stop offset=".07" stop-color="#c8daec" class="stopColorc8cfec svgShape"></stop><stop offset=".45" stop-color="#e6eef6" class="stopColore6e9f6 svgShape"></stop><stop offset=".77" stop-color="#f8fafd" class="stopColorf8f9fd svgShape"></stop><stop offset="1" stop-color="#ffffff" class="stopColorffffff svgShape"></stop></linearGradient><linearGradient id="W" x1="490.29" x2="534.36" y1="274.57" y2="274.57" xlink:href="#i"></linearGradient><linearGradient id="j" x1="545.11" x2="560.63" y1="374.62" y2="347.72" gradientTransform="matrix(-1 0 0 1 1625.48 0)" gradientUnits="userSpaceOnUse"><stop offset=".3" stop-color="#bbd0e6" class="stopColorbbc0e6 svgShape"></stop><stop offset=".93" stop-color="#f5f7fa" class="stopColorf5f5fa svgShape"></stop></linearGradient><linearGradient id="X" x1="402.7" x2="418.23" y1="455.41" y2="428.51" xlink:href="#j"></linearGradient><linearGradient id="k" x1="1353.18" x2="1445.47" y1="750.79" y2="750.79" gradientTransform="translate(-864.92)" gradientUnits="userSpaceOnUse"><stop offset="0" stop-color="#c2d6eb" class="stopColorc2c9eb svgShape"></stop><stop offset=".11" stop-color="#cedeef" class="stopColorced3ef svgShape"></stop><stop offset=".42" stop-color="#e9f0f8" class="stopColore9ebf8 svgShape"></stop><stop offset=".69" stop-color="#f9fbfd" class="stopColorf9fafd svgShape"></stop><stop offset=".9" stop-color="#ffffff" class="stopColorffffff svgShape"></stop></linearGradient><linearGradient id="Y" x1="1344.14" x2="1436.43" y1="734.07" y2="734.07" xlink:href="#k"></linearGradient><linearGradient id="Z" x1="559.93" x2="667.5" y1="661.53" y2="661.53" gradientUnits="userSpaceOnUse"><stop offset="0" stop-color="#d1e2f3" class="stopColord1d7f3 svgShape"></stop><stop offset=".21" stop-color="#dbe8f6" class="stopColordbe0f6 svgShape"></stop><stop offset="1" stop-color="#ffffff" class="stopColorffffff svgShape"></stop></linearGradient><linearGradient id="aa" x1="571.03" x2="571.03" y1="729.39" y2="647.15" gradientUnits="userSpaceOnUse"><stop offset="0" stop-color="#ffffff" class="stopColorffffff svgShape"></stop><stop offset=".79" stop-color="#dbe8f6" class="stopColordbe0f6 svgShape"></stop><stop offset="1" stop-color="#d1e2f3" class="stopColord1d7f3 svgShape"></stop></linearGradient><linearGradient id="ab" x1="446.66" x2="487.1" y1="730.46" y2="730.46" gradientUnits="userSpaceOnUse"><stop offset="0" stop-color="#5a52cc" class="stopColor5652cc svgShape"></stop><stop offset=".63" stop-color="#322c8e" class="stopColor322c8e svgShape"></stop><stop offset="1" stop-color="#6f196f" class="stopColor20196f svgShape"></stop></linearGradient><linearGradient id="ac" x1="501.91" x2="488.22" y1="753.5" y2="743.01" gradientUnits="userSpaceOnUse"><stop offset="0" stop-color="#6f196f" class="stopColor20196f svgShape"></stop><stop offset=".37" stop-color="#322c8e" class="stopColor322c8e svgShape"></stop><stop offset="1" stop-color="#5a52cc" class="stopColor5652cc svgShape"></stop></linearGradient><linearGradient id="ad" x1="582.47" x2="480.62" y1="621.76" y2="725.14" gradientUnits="userSpaceOnUse"><stop offset="0" stop-color="#6f196f" class="stopColor20196f svgShape"></stop><stop offset="1" stop-color="#453eaf" class="stopColor423eaf svgShape"></stop></linearGradient><linearGradient id="ae" x1="-399.06" x2="-304.62" y1="661.95" y2="661.95" gradientTransform="translate(910.33)" gradientUnits="userSpaceOnUse"><stop offset=".56" stop-color="#a3b6ca" class="stopColora3a9ca svgShape"></stop><stop offset=".61" stop-color="#ccdff2" class="stopColorccd0f2 svgShape"></stop></linearGradient><linearGradient id="af" x1="1129.42" x2="1198.39" y1="648.99" y2="648.99" gradientTransform="matrix(-1 0 0 1 1695.88 0)" gradientUnits="userSpaceOnUse"><stop offset=".17" stop-color="#453ead" class="stopColor423ead svgShape"></stop><stop offset=".2" stop-color="#5a52c9" class="stopColor5652c9 svgShape"></stop><stop offset=".23" stop-color="#6f67e7" class="stopColor6b67e7 svgShape"></stop></linearGradient><linearGradient id="ag" x1="-764.46" x2="-714.71" y1="600.1" y2="600.1" gradientTransform="translate(1336.06)" gradientUnits="userSpaceOnUse"><stop offset="0" stop-color="#fc06cf" class="stopColorfcba06 svgShape"></stop><stop offset=".44" stop-color="#f204c7" class="stopColorf2ab04 svgShape"></stop><stop offset="1" stop-color="#e100b8" class="stopColore19100 svgShape"></stop></linearGradient><linearGradient id="ah" x1="2138.08" x2="2182.26" y1="546.98" y2="546.98" gradientTransform="matrix(-1 0 0 1 2759.43 0)" gradientUnits="userSpaceOnUse"><stop offset="0" stop-color="#6f196f" class="stopColor20196f svgShape"></stop><stop offset=".2" stop-color="#27217c" class="stopColor27217c svgShape"></stop><stop offset=".57" stop-color="#3d369e" class="stopColor3b369e svgShape"></stop><stop offset="1" stop-color="#5a52cc" class="stopColor5652cc svgShape"></stop></linearGradient><linearGradient id="l" x1="1251.41" x2="1346.3" y1="662.77" y2="662.77" gradientUnits="userSpaceOnUse"><stop offset="0" stop-color="#c2d6eb" class="stopColorc2c9eb svgShape"></stop><stop offset=".21" stop-color="#d2e1f0" class="stopColord2d7f0 svgShape"></stop><stop offset=".72" stop-color="#f3f7fb" class="stopColorf3f4fb svgShape"></stop><stop offset="1" stop-color="#ffffff" class="stopColorffffff svgShape"></stop></linearGradient><linearGradient id="ai" x1="405.6" x2="500.49" y1="991.09" y2="991.09" xlink:href="#l"></linearGradient><linearGradient id="aj" x1="289.45" x2="363.75" y1="839.4" y2="839.4" gradientUnits="userSpaceOnUse"><stop offset=".43" stop-color="#c4d4e4" class="stopColorc4c9e4 svgShape"></stop><stop offset=".58" stop-color="#d7e2ed" class="stopColord7daed svgShape"></stop><stop offset=".85" stop-color="#f4f6f8" class="stopColorf4f5fa svgShape"></stop><stop offset="1" stop-color="#ffffff" class="stopColorffffff svgShape"></stop></linearGradient><linearGradient id="ak" x1="273.07" x2="347.41" y1="843.8" y2="843.8" gradientUnits="userSpaceOnUse"><stop offset="0" stop-color="#cee3f8" class="stopColorced3f8 svgShape"></stop><stop offset=".42" stop-color="#c4d9ef" class="stopColorc4c9ef svgShape"></stop><stop offset="1" stop-color="#bbd0e6" class="stopColorbbc0e6 svgShape"></stop></linearGradient><linearGradient id="al" x1="254.16" x2="547.56" y1="622.3" y2="622.3" gradientUnits="userSpaceOnUse"><stop offset=".01" stop-color="#c2d6ea" class="stopColorc2caea svgShape"></stop><stop offset="1" stop-color="#ffffff" class="stopColorffffff svgShape"></stop></linearGradient><linearGradient id="m" x1="250.64" x2="276.81" y1="562.27" y2="562.27" gradientUnits="userSpaceOnUse"><stop offset="0" stop-color="#cee3f8" class="stopColorced3f8 svgShape"></stop><stop offset="1" stop-color="#bbd0e6" class="stopColorbbc0e6 svgShape"></stop></linearGradient><linearGradient id="am" x1="309.69" x2="335.86" y1="596.56" y2="596.56" xlink:href="#m"></linearGradient><linearGradient id="an" x1="280.17" x2="306.33" y1="579.42" y2="579.42" xlink:href="#m"></linearGradient></defs><g style="isolation:isolate" fill="#010001" class="color000000 svgShape"><g fill="#010001" class="color000000 svgShape"><g fill="#010001" class="color000000 svgShape"><polygon points="704.2 392.25 596.63 392.25 633.27 413.4 596.63 434.56 704.2 434.56 740.84 413.4 704.2 392.25" style="mix-blend-mode:multiply" fill="url(#a)"></polygon><polygon points="632.25 430.09 530.86 430.09 567.5 451.24 530.86 472.39 632.25 472.39 668.88 451.24 632.25 430.09" style="mix-blend-mode:multiply" fill="url(#n)"></polygon><polygon points="555.5 467.93 465.09 467.93 501.73 489.08 465.09 510.23 555.5 510.23 592.13 489.08 555.5 467.93" style="mix-blend-mode:multiply" fill="url(#o)"></polygon><polygon fill="#f4f6f8" points="560 295.89 596.63 317.04 596.63 434.55 560 413.4 560 295.89" class="colorced2f4 svgShape"></polygon><polygon fill="#bbcee2" points="633.26 295.89 596.63 317.04 596.63 434.55 633.26 413.4 633.26 295.89" class="colorbbbfe2 svgShape"></polygon><polygon fill="#f5f7fa" points="596.63 274.74 560 295.89 596.63 317.04 633.26 295.89 596.63 274.74" class="colorf5f5fa svgShape"></polygon><polygon fill="#5a52ca" points="494.23 363.95 530.86 385.1 530.86 472.39 494.23 451.24 494.23 363.95" class="color5652ca svgShape"></polygon><polygon fill="#453ead" points="567.5 364.17 530.86 385.31 530.86 472.39 567.5 451.24 567.5 364.17" class="color423ead svgShape"></polygon><polygon fill="#6f67e7" points="530.86 343.23 494.23 364.38 530.86 385.52 567.5 364.38 530.86 343.23" class="color6b67e7 svgShape"></polygon><polygon fill="#fc06cf" points="428.46 437.72 465.09 458.87 465.09 510.23 428.46 489.08 428.46 437.72" class="colorfcba06 svgShape"></polygon><polygon fill="#e100b8" points="501.73 437.72 465.09 458.87 465.09 510.23 501.73 489.08 501.73 437.72" class="colore19100 svgShape"></polygon><polygon fill="#3e9eff" points="465.09 416.57 428.46 437.72 465.09 458.87 501.73 437.72 465.09 416.57" class="colorffd03e svgShape"></polygon><path d="M1114.93,524.79C1049.48,487,961,470.66,875.56,475.7c-85.42-5-173.91,11.31-239.36,49.09-115.48,66.67-115.46,174.79,0,241.46,65.45,37.79,153.93,54.14,239.35,49.1,85.42,5,173.9-11.31,239.35-49.1C1230.4,699.58,1230.4,591.47,1114.93,524.79Z" style="mix-blend-mode:multiply" fill="url(#p)"></path><path fill="#d1e2f3" d="M1054.42,481.5c115.47,66.68,115.47,174.78,0,241.46s-302.73,66.68-418.21,0-115.49-174.79,0-241.46S938.93,414.83,1054.42,481.5Z" class="colord1d7f3 svgShape"></path><path fill="url(#q)" d="M636.22,766.25c115.48,66.67,302.72,66.67,418.21,0,57.71-33.32,86.57-77,86.61-120.65v-.14l0-43.16c0,43.68-28.9,87.34-86.61,120.66-115.48,66.68-302.73,66.68-418.21,0-57.65-33.29-86.52-76.91-86.61-120.54v42.74h0C549.45,689,578.32,732.81,636.22,766.25ZM549.59,601.87V602s0-.11,0-.16Z"></path><path fill="#ffffff" d="M1010.14,507.06c91,52.56,91,137.78,0,190.33S771.5,750,680.48,697.4s-91-137.78,0-190.34S919.1,454.51,1010.14,507.06Z" class="colorffffff svgShape"></path><path fill="#d1e2f3" d="M968.76,531c68.17,39.36,68.16,103.18,0,142.54s-178.71,39.36-246.88,0-68.19-103.18,0-142.54S900.58,491.6,968.76,531Z" class="colord1d7f3 svgShape"></path><path fill="#ffffff" d="M924.21,556.68c43.56,25.16,43.56,66,0,91.11s-114.22,25.15-157.79,0-43.58-66,0-91.11S880.62,531.52,924.21,556.68Z" class="colorffffff svgShape"></path><path fill="#d1e2f3" d="M878.32,583.17c18.23,10.52,18.23,27.6,0,38.12s-47.8,10.53-66,0-18.23-27.59,0-38.12S860.08,572.64,878.32,583.17Z" class="colord1d7f3 svgShape"></path><g style="mix-blend-mode:multiply" fill="#010001" class="color000000 svgShape"><path fill="url(#b)" d="M931.15,533.07c-97,7-202.33,21.23-197.15,24.22H931.15Z"></path><path fill="url(#r)" d="M931.15,673.82H754.49c-4.83,2.78,85.91,15.29,176.66,22.66Z"></path><path fill="url(#c)" d="M1166.74,672.12c-5.44,1.06-14.43,1.7-28.43,1.7H936.94c4.48,2.58,120.24,13.54,229.8,21Z"></path><path fill="url(#s)" d="M1166.74,537c-103.42,7.36-206.22,17.21-210.43,19.64h201.37c3.29,0,6.29,0,9.06.1Z"></path></g><path fill="url(#t)" d="M938,336.46v87.76c9.71-5.12,18.55-5.84,18.55,17.87V557.82c5.49-3.17,32.91-103.49,43.92-174.55C1010.14,320.57,987.78,307.69,938,336.46Z"></path><path fill="url(#u)" d="M752.65,336.46v87.76c-9.71-5.12-18.56-5.84-18.56,17.87V557.82c-5.49-3.17-32.9-103.49-43.91-174.55C680.47,320.57,702.83,307.69,752.65,336.46Z"></path><path fill="url(#v)" d="M792.38,528.46C807,520,826.15,515.81,845.3,515.81s38.31,4.22,52.93,12.65S920.15,548,920.15,559s-7.31,22.12-21.92,30.56-33.77,12.65-52.93,12.65S807,598,792.38,589.58s-21.92-19.5-21.92-30.56S777.76,536.9,792.38,528.46Z"></path><path d="M898.23,528.46c-14.62-8.43-33.77-12.65-52.93-12.65S807,520,792.38,528.46a52.36,52.36,0,0,0-15.33,12.82c3.72,4.74,9.73,8,18.78,9.07,60.15,7.15,76.85,33.34,76.06,49a92.84,92.84,0,0,0,26.34-9.81c14.61-8.44,21.92-19.5,21.92-30.56S912.84,536.9,898.23,528.46Z" style="mix-blend-mode:multiply" fill="url(#w)"></path><path fill="url(#x)" d="M979.16,363.87C968.19,242.47,887.51,132,845.3,84.49c-42.21,47.54-122.88,158-133.85,279.38-5.4,59.75,9.17,114.15,24.74,157.44h0c4.26,11.86,14.34,23.17,30.29,32.37,21.76,12.57,50.28,18.85,78.8,18.85s57.05-6.28,78.81-18.85c15.94-9.2,26-20.51,30.28-32.37h0C970,478,984.56,423.62,979.16,363.87Z"></path><path fill="url(#y)" d="M845.3,84.49a632.49,632.49,0,0,0-60,80.53h0a23.26,23.26,0,0,0-3.47,12c0,9.39,6.21,18.77,18.61,25.93s28.66,10.74,44.91,10.74,32.52-3.58,44.92-10.74,18.6-16.54,18.6-25.93a23.17,23.17,0,0,0-3.47-12h0A630.81,630.81,0,0,0,845.3,84.49Z"></path><path d="M829.41,538.88c0-37-20.39-68.88-69.25-99.77-7.54,24.95-1.8,48.32,6,76.7,10.67,4.19,17.26,15.87,21.65,39.17.41,2.16,1,5.19,1.66,8.8a170.17,170.17,0,0,0,38.74,7.92C829,560.67,829.41,549.57,829.41,538.88Z" style="mix-blend-mode:multiply" fill="url(#z)"></path><path fill="#ff5ae1" d="M930.45,439.11c-12,23.12-16,50.06-13.58,79.38,9.72,6.1,19.25,15.89,19.25,39.6V673.82C941.61,677,969,608.33,980,550,989.75,498.49,978.68,469.73,930.45,439.11Z" class="colorff5a72 svgShape"></path><path fill="url(#d)" d="M946.58,462.23c12.52,12.39,31.95,30.71,28.88,68.39-3.41,41.88-22.71,114.22-36.81,141.75C947.38,662.16,970.22,602,980,550c9.72-51.49-1.35-80.25-49.58-110.87C929.87,440.23,931.61,447.43,946.58,462.23Z"></path><g style="mix-blend-mode:multiply" fill="#010001" class="color000000 svgShape"><path fill="url(#A)" d="M940.27,572.53c15.86-24.56,26.81-33,20.62-94.88-.55-5.55,2-12,5.92-7.71-8.42-10.67-20.33-20.65-36.36-30.83-12,23.12-16,50.06-13.58,79.38,9.72,6.1,19.25,15.89,19.25,39.6v12Z"></path><path fill="url(#B)" d="M967.49,470.79c.06.09.12.15.19.25h0Z"></path></g><path fill="#a50b89" d="M760.16,439.11c12,23.12,15.94,50.06,13.57,79.38-9.71,6.1-19.24,15.89-19.24,39.6V673.82C749,677,721.58,608.33,710.57,550,700.86,498.49,711.93,469.73,760.16,439.11Z" class="colorbc3153 svgShape"></path><path fill="url(#C)" d="M744,462.23c-12.52,12.39-31.95,30.71-28.89,68.39,3.41,41.88,22.72,114.22,36.82,141.75C743.23,662.16,720.38,602,710.57,550c-9.71-51.49,1.36-80.25,49.59-110.87C760.74,440.23,759,447.43,744,462.23Z"></path><ellipse cx="776.79" cy="337.65" rx="60.32" ry="48.86" transform="rotate(-88.3 775.838 337.713)" style="mix-blend-mode:multiply" fill="url(#D)"></ellipse><ellipse cx="764.35" cy="332.55" fill="#ffffff" rx="60.32" ry="48.86" transform="rotate(-88.2 764.313 332.56)" class="colorffffff svgShape"></ellipse><path fill="#857dfb" d="M798.83,350.88c8.46-23.63-.12-51-19.16-61.13a31.56,31.56,0,0,0-12.12-3.6c-14.33.4-28,10.86-34.16,28.17-8.46,23.63.12,51,19.16,61.13a31.58,31.58,0,0,0,12.12,3.61C779,378.66,792.64,368.19,798.83,350.88Z" class="color807dfb svgShape"></path><path fill="url(#E)" d="M791.06,277.33a40.81,40.81,0,0,0-17.93-4.87l-6.86-.21a40.8,40.8,0,0,1,17.93,4.86C808.86,290.23,820,325.69,809,356.3c-8.37,23.36-27.18,37.16-46.59,36.55l6.86.22c19.41.61,38.22-13.19,46.59-36.56C826.83,325.9,815.72,290.44,791.06,277.33Z"></path><path fill="url(#F)" d="M733.39,314.32c6.2-17.31,19.83-27.77,34.16-28.17-15.58-1.38-31,9.34-37.68,28.06-8.46,23.63.12,51,19.16,61.13a31.22,31.22,0,0,0,15.64,3.72,31.58,31.58,0,0,1-12.12-3.61C733.51,365.33,724.93,338,733.39,314.32Z"></path><path d="M755.77,376.93a30.65,30.65,0,0,0,5.83,1.7h0c1,.19,2,.33,3,.42.6,0,1.19-.08,1.78-.13a31.24,31.24,0,0,1-10.38-3.37c-19-10.12-27.62-37.5-19.17-61.12,5.94-16.6,18.72-26.87,32.39-28.05-.53-.08-1.07-.17-1.6-.22s-1.18.05-1.77.1c-.27,0-.54,0-.81.05-.75.08-1.5.21-2.24.34-.18,0-.36,0-.54.09-.93.18-1.85.41-2.77.68l-.28.09c-.8.25-1.59.52-2.38.82l-.94.41c-.56.24-1.12.48-1.67.75-.36.17-.71.37-1.06.56s-1,.53-1.48.82l-1.09.69c-.45.3-.91.6-1.36.92s-.72.53-1.08.81-.86.66-1.28,1-.71.6-1.05.91-.82.74-1.22,1.13-.66.66-1,1-.78.83-1.16,1.26-.62.71-.93,1.08-.73.92-1.09,1.4-.58.75-.86,1.14-.7,1-1,1.55-.52.78-.77,1.19c-.34.57-.67,1.16-1,1.75-.22.39-.45.77-.66,1.18-.34.67-.67,1.36-1,2.06-.16.35-.34.69-.49,1-.47,1.07-.91,2.17-1.31,3.29a56.23,56.23,0,0,0-3,13.55c-.14,1.52-.22,3-.24,4.55a56.64,56.64,0,0,0,.72,9.77,55.4,55.4,0,0,0,1.8,7.76,50.1,50.1,0,0,0,2.27,5.84,43.64,43.64,0,0,0,11,15.1,35.88,35.88,0,0,0,6.64,4.56c.9.48,1.81.89,2.72,1.28Z" style="mix-blend-mode:multiply" fill="url(#G)"></path><path fill="url(#H)" d="M780.94,308.89c-18.22.51-35.56,13.82-43.44,35.84a70.18,70.18,0,0,0-2.83,10.49c3.82,8.73,9.92,16,17.88,20.23a31.58,31.58,0,0,0,12.12,3.61c14.34-.4,28-10.87,34.16-28.18a56.45,56.45,0,0,0,.79-35.42c-1.07-.69-2.13-1.39-3.26-2A40.19,40.19,0,0,0,780.94,308.89Z"></path><path d="M1186.76,725.55c-14.12-10.7-32.9-15.62-51.35-14.9H1106.5v6.21a68.55,68.55,0,0,0-15.3,8.69c-26.3,20.06-26.15,52.56.31,72.61a68.94,68.94,0,0,0,15,8.51v6.5h34.68c16.67-.37,33.21-5.33,45.9-15C1213.38,778.11,1213.25,745.61,1186.76,725.55Z" style="mix-blend-mode:multiply" fill="url(#I)"></path><path fill="url(#e)" d="M1151.6,703.56A85,85,0,0,0,1119,683.25c-20.1-7-42-6.53-58.15,2.83a39.92,39.92,0,0,0-17.35,19.24L1036,723.7a40,40,0,0,1,17.34-19.23c10.49-6.09,23.45-8.41,36.75-7.36,19.42,1.53,39.58,10.22,54,24.83,16.35,16.61,21.08,36.68,14.51,52.58l7.6-18.39C1172.68,740.23,1167.94,720.16,1151.6,703.56Z"></path><path fill="#3e9eff" d="M1149.57,708.45c24.23,24.62,23,56.83-2.83,71.82s-66.47,7.14-90.69-17.47-23-56.84,2.81-71.82S1125.34,683.83,1149.57,708.45Z" class="colorffd03e svgShape"></path><path fill="url(#J)" d="M1180.29,762l-7.59,18.39c-3.9,9.44-11,17.69-21.39,23.71-31.78,18.46-81.77,8.84-111.63-21.5-20.14-20.46-26-45.12-17.91-64.67h0q3.81-9.2,7.6-18.39c-8.07,19.55-2.23,44.21,17.92,64.68,29.85,30.33,79.84,40,111.61,21.48C1169.25,779.65,1176.4,771.4,1180.29,762Z"></path><path fill="#50a7ff" d="M1162.38,697.28c29.86,30.34,28.32,69.91-3.48,88.38s-81.76,8.85-111.61-21.48-28.3-69.92,3.47-88.38S1132.51,666.93,1162.38,697.28ZM1058.07,757.9c24.23,24.62,64.91,32.44,90.69,17.46s27.06-47.19,2.84-71.8-64.93-32.46-90.71-17.48-27.05,47.2-2.82,71.82Z" class="colorffe950 svgShape"></path><path fill="#fc06cf" d="M1067.68 746.23l3.51-2.05c-3.1-4.9-3.79-10.17-2.12-14.61l-2 4.8h0A15.57 15.57 0 001067.68 746.23zM1098.51 738.13a10.45 10.45 0 013.31 7.4c3.06-3.19 2.68-8.27-1.29-12.3-4.3-4.36-6.56-9.48-6.35-14.43a13.85 13.85 0 011.18-5.11h0l-1.92 4.66h0a13.67 13.67 0 00-1.29 5.35C1092 728.64 1094.21 733.77 1098.51 738.13z" class="colorfcba06 svgShape"></path><path fill="#dc00b4" d="M1083.16 729.88a7.35 7.35 0 00-3.86 6.35 8.52 8.52 0 011.84-1.46zM1138 717.55a19.51 19.51 0 011.5 2.85l2.89-1.68 2-4.89z" class="colordc8b00 svgShape"></path><polygon fill="#fc06cf" points="1126.01 731.85 1123.99 736.75 1131.61 744.49 1133.64 739.6 1126.01 731.85" class="colorfcba06 svgShape"></polygon><path fill="#dc00b4" d="M1133.64,739.6l-2,4.89a14.6,14.6,0,0,0,6.23-6.8h0v0l0-.09,2-4.84A14.62,14.62,0,0,1,1133.64,739.6Z" class="colordc8b00 svgShape"></path><path fill="#50a7ff" d="M1144.38,713.83l-6.41,3.72c5.18,8.18,3.67,17.39-4.33,22.05l-7.63-7.75c4.94-2.87,5.18-9,.54-13.74s-12.43-6.22-17.36-3.36a7.36,7.36,0,0,0-3.87,6.19,10.34,10.34,0,0,0,3.32,7.57c8.85,9,8.38,20.74-1,26.21-8,4.66-20,3.27-28.8-2.79l-5.92,3.44-7.62-7.75,5.91-3.44c-5.18-8.18-3.67-17.39,4.35-22l7.62,7.75c-5,2.87-5.19,9-.54,13.76S1095,749.85,1100,747s5.18-9,.54-13.74c-4.3-4.36-6.56-9.48-6.35-14.43a14,14,0,0,1,7.39-11.79c8-4.65,19.94-3.26,28.78,2.8l6.41-3.73Z" class="colorffe950 svgShape"></path><polygon fill="#fc06cf" points="1065.28 747.62 1063.25 752.52 1070.88 760.27 1072.9 755.37 1065.28 747.62" class="colorfcba06 svgShape"></polygon><polygon fill="#dc00b4" points="1072.9 755.37 1070.88 760.27 1076.79 756.83 1078.82 751.93 1072.9 755.37" class="colordc8b00 svgShape"></polygon><path fill="url(#K)" d="M1112.67,750h0v0a13,13,0,0,1-1.19,1.52,15.47,15.47,0,0,1-3.85,3.15c-8,4.66-20,3.27-28.8-2.79l-2,4.9c8.84,6,20.79,7.44,28.8,2.79a14.7,14.7,0,0,0,6-6.32v0l2.08-5A13.23,13.23,0,0,1,1112.67,750Z"></path><path fill="#dc00b4" d="M1127.88,730.38c3-3.18,2.63-8.26-1.33-12.27-4.64-4.73-12.43-6.22-17.36-3.36a7.36,7.36,0,0,0-3.87,6.19v.16a8.6,8.6,0,0,1,1.84-1.45c4.94-2.86,12.72-1.37,17.37,3.36a10.56,10.56,0,0,1,3.31,7.11Z" class="colordc8b00 svgShape"></path><path d="M1379.31,812.62c-16.4-9.48-38.21-13.85-59.64-13.21h-33.58v5.51a88.29,88.29,0,0,0-17.78,7.7c-30.53,17.75-30.36,46.54.38,64.29a89.87,89.87,0,0,0,17.4,7.54v5.75h40.28c19.37-.33,38.57-4.72,53.3-13.28C1410.22,859.16,1410.07,830.37,1379.31,812.62Z" style="mix-blend-mode:multiply" fill="url(#L)"></path><path fill="#50a7ff" d="M1209.56,823.91c0-11.35,7.5-22.71,22.51-31.38s34.69-13,54.36-13,39.34,4.34,54.35,13,22.52,20,22.52,31.38-7.5,22.72-22.52,31.38-34.67,13-54.34,13-39.35-4.33-54.36-13S1209.56,835.27,1209.56,823.91Z" class="colorffe950 svgShape"></path><path fill="url(#M)" d="M1340.78,855.29c-15,8.67-34.67,13-54.34,13s-39.35-4.33-54.36-13-22.52-20-22.52-31.38v21.91c0,11.36,7.51,22.71,22.52,31.38s34.69,13,54.36,13,39.34-4.33,54.34-13,22.53-20,22.52-31.38V823.91C1363.31,835.27,1355.8,846.63,1340.78,855.29Z"></path><path fill="#3e9eff" d="M1242.29,849.4c12.19,7,28.17,10.56,44.15,10.56s32-3.53,44.13-10.56c11.25-6.49,17.3-14.85,18.16-23.35-.86-8.5-6.91-16.85-18.16-23.35-12.19-7-28.17-10.56-44.14-10.56s-32,3.52-44.14,10.56C1231,809.2,1225,817.55,1224.12,826,1225,834.55,1231,842.9,1242.29,849.4Z" class="colorffd03e svgShape"></path><path fill="url(#f)" d="M1242.29,802.7c12.19-7,28.16-10.56,44.14-10.56s32,3.52,44.14,10.56c11.25,6.5,17.3,14.85,18.16,23.35a19.06,19.06,0,0,0,.13-2.14c0-9.22-6.09-18.45-18.29-25.48s-28.17-10.56-44.14-10.56-32,3.52-44.14,10.56S1224,814.69,1224,823.91c0,.72,0,1.42.12,2.13C1225,817.55,1231,809.2,1242.29,802.7Z"></path><polygon fill="#e100b8" points="1317.19 814.74 1323.09 811.33 1323.09 807.07 1317.19 810.47 1317.19 814.74" class="colore19100 svgShape"></polygon><path fill="#50a7ff" d="M1290,821.88c-2.2-1.27-3.42-3-3.42-4.76s1.22-3.48,3.42-4.75c4.55-2.63,11.94-2.63,16.49,0s4.54,6.9,0,9.52l7.48,4.32c7.38-4.26,8.46-10.79,3.27-15.73l5.9-3.4-7.48-4.33-5.9,3.42c-8.55-3-19.86-2.37-27.24,1.89-4.21,2.42-6.51,5.64-6.51,9.07s2.3,6.66,6.51,9.08c4.54,2.63,4.55,6.9,0,9.52s-12,2.62-16.49,0-4.55-6.89,0-9.52l-7.48-4.32c-7.38,4.26-8.45,10.79-3.28,15.73l-5.44,3.14,7.48,4.33,5.45-3.15c8.55,3,19.86,2.38,27.24-1.88C1298.62,835,1298.62,826.9,1290,821.88Z" class="colorffe950 svgShape"></path><polygon fill="#fc06cf" points="1249.78 845.03 1257.26 849.35 1257.26 845.08 1249.78 840.75 1249.78 845.03" class="colorfcba06 svgShape"></polygon><polygon fill="#e100b8" points="1257.26 849.35 1262.71 846.2 1262.71 841.93 1257.26 845.08 1257.26 849.35" class="colore19100 svgShape"></polygon><polygon fill="#fc06cf" points="1306.44 826.15 1313.92 830.48 1313.92 826.2 1306.44 821.88 1306.44 826.15" class="colorfcba06 svgShape"></polygon><path fill="#e100b8" d="M1266,830.48V826.2c-3.22,1.87-4.15,4.55-2.8,6.9A7.29,7.29,0,0,1,1266,830.48Z" class="colore19100 svgShape"></path><path fill="#fc06cf" d="M1252 830.74v4.82h0a8.24 8.24 0 00.93 3.37l2.26-1.31a9.21 9.21 0 01-3.2-6.85zM1282.47 830.47a7.39 7.39 0 012.8 2.63c1.35-2.35.43-5-2.8-6.9-4.21-2.42-6.51-5.65-6.51-9.08v4.28C1276 824.82 1278.26 828.05 1282.47 830.47z" class="colorfcba06 svgShape"></path><path fill="#fb05ce" d="M1296.45,830.94v-.09h0Z" class="colorfbba05 svgShape"></path><path fill="#e100b8" d="M1320.39,817.12c0,3.29-2.13,6.58-6.47,9.08v4.28c4.45-2.58,6.59-6,6.47-9.34v-4Z" class="colore19100 svgShape"></path><path fill="url(#N)" d="M1290,840.05c-7.38,4.26-18.69,4.87-27.24,1.88v4.27c8.55,3,19.86,2.38,27.24-1.89,4.3-2.48,6.45-5.74,6.5-9h0V831C1296.44,834.26,1294.28,837.55,1290,840.05Z"></path><path fill="#e100b8" d="M1306.44,812.36c-4.55-2.62-11.94-2.62-16.49,0-2.2,1.27-3.42,3-3.42,4.75a4.29,4.29,0,0,0,.61,2.14,7.47,7.47,0,0,1,2.81-2.62c4.55-2.63,11.94-2.63,16.49,0a7.62,7.62,0,0,1,2.8,2.63C1310.59,816.91,1309.67,814.23,1306.44,812.36Z" class="colore19100 svgShape"></path><path d="M1138.79,933.56c-5-2.92-11.78-4.26-18.38-4.07H1105v1.7a27.54,27.54,0,0,0-5.47,2.37c-9.42,5.48-9.36,14.35.11,19.82a28.18,28.18,0,0,0,5.36,2.33v1.77h17.46a34.65,34.65,0,0,0,16.44-4.09C1148.32,947.91,1148.27,939,1138.79,933.56Z" style="mix-blend-mode:multiply" fill="url(#O)"></path><path fill="url(#P)" d="M1088.5,953.37c-4.77-2.75-7.15-6.37-7.14-10l0-15.27c0,3.61,2.37,7.23,7.14,10,9.48,5.47,24.8,5.47,34.22,0,4.68-2.72,7-6.27,7-9.84l0,15.27c0,3.57-2.35,7.12-7,9.84C1113.3,958.85,1098,958.85,1088.5,953.37Z"></path><path fill="#3e9eff" d="M1088.52,938.1c-9.47-5.47-9.53-14.35-.11-19.82s24.74-5.47,34.22,0,9.52,14.35.11,19.82S1098,943.57,1088.52,938.1Z" class="colorffd03e svgShape"></path><polygon fill="#ff5ae1" points="687.68 922.6 670.23 912.52 703.84 893.12 721.29 903.2 687.68 922.6" class="colorff5a72 svgShape"></polygon><polygon fill="#6f67e9" points="709.75 935.34 692.29 925.26 736.61 899.67 754.07 909.75 709.75 935.34" class="color6b67e9 svgShape"></polygon><polygon fill="#fc06cf" points="731.81 948.08 714.35 938 752.87 915.76 770.32 925.84 731.81 948.08" class="colorfcba06 svgShape"></polygon><polygon fill="#6f67e9" points="753.87 960.81 736.41 950.74 798.28 915.02 815.74 925.09 753.87 960.81" class="color6b67e9 svgShape"></polygon><polygon fill="#ff5ae1" points="775.93 973.55 758.48 963.47 792.09 944.07 809.54 954.14 775.93 973.55" class="colorff5a72 svgShape"></polygon><path d="M869.75,882.66c-29.46-17-69.56-24.12-107.94-21.36,27.68,2,54.47,9.09,75.72,21.36,50.71,29.28,50.71,76.76,0,106-21.25,12.27-48,19.38-75.73,21.36,38.38,2.76,78.48-4.35,108-21.36C920.46,959.42,920.47,911.94,869.75,882.66Z" style="mix-blend-mode:multiply" fill="url(#g)"></path><path d="M694.15,882.66c21.25-12.27,48-19.38,75.71-21.36-38.37-2.76-78.47,4.35-107.94,21.36-50.72,29.28-50.72,76.76,0,106,29.47,17,69.56,24.12,107.94,21.36-27.68-2-54.46-9.09-75.71-21.36C643.43,959.42,643.43,911.94,694.15,882.66Z" style="mix-blend-mode:multiply" fill="url(#Q)"></path><path fill="#9c9ba5" d="M845.12,882.8c-51-29.43-133.61-29.43-184.57,0s-51,77.13,0,106.56,133.6,29.42,184.56,0S896.09,912.22,845.12,882.8Zm-15.23,97.77c-42.56,24.56-111.56,24.56-154.11,0s-42.56-64.41,0-89,111.55-24.57,154.11,0S872.44,956,829.89,980.57Z" class="colora59ba5 svgShape"></path><path fill="#37318f" d="M675.78,861.61c42.55-24.57,111.55-24.57,154.11,0,27.94,16.13,37.53,38.83,28.79,59.48-4.57-10.81-14.17-21.06-28.79-29.5-42.56-24.57-111.56-24.57-154.11,0-14.62,8.44-24.22,18.69-28.8,29.5C638.24,900.44,647.85,877.74,675.78,861.61Z" class="color34318f svgShape"></path><path d="M830.12,871c-42.55-24.56-111.54-24.56-154.09,0s-42.55,64.41,0,89,111.54,24.57,154.09,0S872.67,895.52,830.12,871Z" style="mix-blend-mode:screen" fill="#6d686c" class="color686a6d svgShape"></path><path d="M687 875.35c9.27-5.9 24.68-6.57 34.43-1.49s10.13 14 .86 19.88-24.69 6.57-34.43 1.49S677.71 881.25 687 875.35zM733.7 864.54a15.8 15.8 0 0114.26-.62c4 2.1 4.19 5.79.36 8.23a15.8 15.8 0 01-14.26.62C730 870.66 729.87 867 733.7 864.54z" style="mix-blend-mode:screen" fill="#9c9ba5" class="colora59ba5 svgShape"></path><path fill="#f7f9fc" d="M830.12,875.41c-42.55-24.57-111.54-24.57-154.09,0-20.3,11.72-30.88,26.9-31.82,42.25-1-16.83,9.56-33.85,31.82-46.71,42.55-24.56,111.54-24.56,154.09,0,22.26,12.86,32.85,29.88,31.82,46.71C861,902.31,850.41,887.13,830.12,875.41Z" class="colorf7f7fc svgShape"></path><path fill="#d0e3f6" d="M845.12,852.82c-51-29.43-133.61-29.43-184.57,0s-51,77.13,0,106.56,133.6,29.43,184.56,0S896.09,882.25,845.12,852.82Zm-15.23,97.77c-42.56,24.57-111.56,24.57-154.11,0s-42.56-64.41,0-89,111.55-24.57,154.11,0S872.44,926,829.89,950.59Z" class="colord0d4f6 svgShape"></path><path fill="url(#R)" d="M660.55,959.38c51,29.43,133.6,29.43,184.56,0,25.16-14.52,37.88-33.5,38.2-52.53v28.49h0c.34,19.52-12.38,39.11-38.19,54-51,29.42-133.59,29.42-184.56,0-25.81-14.91-38.52-34.5-38.19-54h0V907C622.74,926,635.46,944.89,660.55,959.38Z"></path><path fill="#f7f9fc" d="M845.11,963.39q4.83-2.79,9-5.78l22,12.68-19,11-22-12.68C838.57,967,841.91,965.24,845.11,963.39Z" class="colorf7f7fc svgShape"></path><polygon fill="#d0e3f6" points="857.07 1003.23 835.12 990.56 835.12 968.59 857.07 981.27 857.07 1003.23" class="colord0d4f6 svgShape"></polygon><path fill="url(#h)" d="M848.81,997c0-11.33,8-25.12,17.77-30.79,5.11-2.94,9.69-3.09,12.93-1h0l126.54,73-24.19,43.92-126.53-73.05h0C851.35,1007.68,848.81,1003.43,848.81,997Z"></path><path d="M865.13,1014.78h0l6.18,3.57c-2.68-2.05-4.32-5.76-4.32-10.88,0-11.33,8-25.11,17.77-30.78,5.1-3,9.7-3.1,12.94-1l-8.38-4.84h0c-3.25-2.1-7.84-2-12.94,1-9.82,5.67-17.77,19.45-17.77,30.79C858.6,1009.06,861.14,1013.31,865.13,1014.78Z" style="mix-blend-mode:multiply" fill="url(#S)"></path><path fill="url(#T)" d="M978.93,1080.51a25.09,25.09,0,1,0,26.23-42.7c-3.17-1.56-7.39-1.21-12,1.48-9.82,5.67-17.77,19.45-17.77,30.79,0,4.93,1.5,8.58,4,10.67Z"></path><path d="M981.86,1082.2h0Z" fill="#010001" class="color000000 svgShape"></path><polygon points="1458.73 411.53 1074.28 411.53 1252.82 555.03 1458.73 555.03 1458.73 411.53" style="mix-blend-mode:multiply" fill="url(#U)"></polygon><path fill="url(#V)" d="M1096.29,232.53l192.63,111.22c7.55,4.36,13.72,15.05,13.72,23.76V521.17c0,4.54-1.68,7.67-4.35,9l-41.13,23.74c2.3-1.5,3.73-4.48,3.73-8.65V391.62c0-8.71-6.18-19.41-13.72-23.76L1054.54,256.64c-3.28-1.89-6.3-2.29-8.67-1.41l39.81-23C1088.21,230.14,1092,230.07,1096.29,232.53Z"></path><path fill="#453eaf" d="M1040.82,418.23c0,8.71,6.17,19.4,13.72,23.76L1247.17,553.2c7.55,4.36,13.72.79,13.72-7.92V391.62c0-8.71-6.18-19.41-13.72-23.76L1054.54,256.64c-7.55-4.36-13.72-.79-13.72,7.92Z" class="color423eaf svgShape"></path><path fill="#5a52cc" d="M1040.82,264.56c0-8.71,6.17-12.28,13.72-7.92l192.63,111.22c7.54,4.35,13.72,15.05,13.72,23.76v89.49c-18.26-10.55-202.56-116.74-220.07-127.06Z" class="color5652cc svgShape"></path><path d="M1126.46,282.41h12.38a32.13,32.13,0,0,1,3.71,5.72c2.5,4.55,5.08,9.27,15.65,15.37s24.32,10.82,37.61,15.38l2,.69h10.45v6.9l21.66,12.5h-22.41l-21.66-12.5,3-1.73c-4.12-1.53-8.65-3.09-13.49-4.75-13.42-4.6-28.63-9.81-40.19-16.49s-14.42-11.89-16.94-16.49a35.87,35.87,0,0,0-2.85-4.6Z" style="mix-blend-mode:multiply" fill="url(#i)"></path><polygon points="1103.07 264.87 1125.48 264.87 1113.53 271.77 1135.19 284.27 1112.78 284.27 1091.12 271.77 1103.07 264.87" style="mix-blend-mode:multiply" fill="url(#W)"></polygon><polygon fill="#cee3f8" points="1135.19 271.34 1113.53 258.83 1113.53 271.77 1135.19 284.27 1135.19 271.34" class="colorced3f8 svgShape"></polygon><polygon fill="#f5f7fa" points="1135.19 271.34 1147.14 264.44 1125.48 251.93 1113.53 258.83 1135.19 271.34" class="colorf5f5fa svgShape"></polygon><polygon fill="#bbd0e6" points="1135.19 284.27 1147.14 277.37 1147.14 264.44 1135.19 271.34 1135.19 284.27" class="colorbbc0e6 svgShape"></polygon><path fill="#312a97" d="M1145.74,269.33c2.57.65,5.19,1.14,8,1.64,8,1.46,17,3.11,28.57,9.78s20.59,15.46,28.56,23.21c6.71,6.51,12.49,12.14,18.81,15.79v6.9l-9,5.19v-6.9c-6.31-3.65-12.1-9.28-18.81-15.79-8-7.75-17-16.53-28.56-23.21s-20.6-8.32-28.57-9.78c-2.77-.5-5.39-1-8-1.64Z" class="color362a97 svgShape"></path><path fill="#721272" d="M1136.74,274.52c2.57.65,5.19,1.14,8,1.64,8,1.46,17,3.11,28.57,9.78s20.59,15.46,28.56,23.21c6.71,6.51,12.5,12.14,18.81,15.79v6.9c-7.31-4.22-13.83-10.56-20.74-17.28-7.9-7.68-16.06-15.61-26.63-21.72s-18.74-7.59-26.63-9c-3.35-.61-6.61-1.21-9.91-2.14Z" class="color1d1272 svgShape"></path><polygon fill="#cee3f8" points="1229.93 326.04 1208.27 313.53 1208.27 326.47 1229.93 338.97 1229.93 326.04" class="colorced3f8 svgShape"></polygon><polygon fill="#f5f7fa" points="1229.93 326.04 1241.88 319.13 1220.22 306.63 1208.27 313.53 1229.93 326.04" class="colorf5f5fa svgShape"></polygon><polygon fill="#bbd0e6" points="1229.93 338.97 1241.88 332.07 1241.88 319.13 1229.93 326.04 1229.93 338.97" class="colorbbc0e6 svgShape"></polygon><path fill="#cee3f8" d="M1066.88,393.33a17.09,17.09,0,0,1-7.73-13.39v-9.55l15.46,8.93v9.55C1074.61,393.8,1071.15,395.8,1066.88,393.33Z" class="colorced3f8 svgShape"></path><polygon fill="#f5f7fa" points="1059.14 370.39 1062.87 368.24 1078.33 377.17 1074.61 379.32 1059.14 370.39" class="colorf5f5fa svgShape"></polygon><path fill="#bbd0e6" d="M1074.61,388.87v-9.55l3.72-2.15v9.55c0,2.48-.88,4.22-2.3,5h0l-3.65,2.11C1073.76,393,1074.61,391.31,1074.61,388.87Z" class="colorbbc0e6 svgShape"></path><path fill="#cee3f8" d="M1066.88,350.24a17.08,17.08,0,0,1,7.73,13.39v14.31L1059.15,369V354.7C1059.15,349.77,1062.61,347.77,1066.88,350.24Z" class="colorced3f8 svgShape"></path><path fill="url(#j)" d="M1066.88,350.24c-2-1.13-3.73-1.32-5.09-.73l3-1.72c1.42-1.05,3.5-1,5.82.3a17.08,17.08,0,0,1,7.73,13.39v14.31l-3.72,2.15V363.63A17.08,17.08,0,0,0,1066.88,350.24Z"></path><path d="M1072.24,364a11.86,11.86,0,0,0-5.36-9.29c-3-1.71-5.36-.32-5.36,3.1a11.84,11.84,0,0,0,5.36,9.28C1069.84,368.77,1072.24,367.39,1072.24,364Z" style="mix-blend-mode:multiply" fill="#d8e6f5" class="colord8e0f5 svgShape"></path><path fill="#cee3f8" d="M1209.29,474.12a17.12,17.12,0,0,1-7.74-13.4v-9.55l15.47,8.94v9.54C1217,474.58,1213.56,476.58,1209.29,474.12Z" class="colorced3f8 svgShape"></path><polygon fill="#f5f7fa" points="1201.55 451.18 1205.27 449.03 1220.74 457.96 1217.02 460.11 1201.55 451.18" class="colorf5f5fa svgShape"></polygon><path fill="#bbd0e6" d="M1217,469.65v-9.54l3.72-2.15v9.54c0,2.49-.88,4.23-2.3,5h0l-3.66,2.11C1216.17,473.82,1217,472.1,1217,469.65Z" class="colorbbc0e6 svgShape"></path><path fill="#cee3f8" d="M1209.28,431a17.12,17.12,0,0,1,7.74,13.4v14.31l-15.47-8.93V435.49C1201.55,430.56,1205,428.56,1209.28,431Z" class="colorced3f8 svgShape"></path><path fill="url(#X)" d="M1209.28,431c-2-1.12-3.72-1.31-5.08-.72l3-1.72c1.41-1.06,3.49-1,5.81.3a17.06,17.06,0,0,1,7.74,13.39v14.31l-3.72,2.15V444.42A17.12,17.12,0,0,0,1209.28,431Z"></path><path d="M1214.64,444.76a11.83,11.83,0,0,0-5.36-9.29c-3-1.71-5.36-.32-5.36,3.1a11.86,11.86,0,0,0,5.36,9.28C1212.25,449.56,1214.64,448.17,1214.64,444.76Z" style="mix-blend-mode:multiply" fill="#d8e6f5" class="colord8e0f5 svgShape"></path><g style="mix-blend-mode:multiply" fill="#010001" class="color000000 svgShape"><polygon fill="url(#k)" points="580.55 742.31 497.43 742.31 488.26 759.27 580.55 759.27 580.55 742.31"></polygon><polygon fill="url(#Y)" points="571.51 728.37 483.35 728.37 479.22 739.77 571.51 739.77 571.51 728.37"></polygon><path fill="url(#Z)" d="M667.5,644.51c-20.65,3-47.69-6.86-59-7.56-6.74-.42-26.94,4.49-48.56,10.2a141.17,141.17,0,0,0,27.75,39c8.19-1.17,21.6-8.68,29.38-8.17s50.44,3.6,50.44,3.6Z"></path><path fill="url(#aa)" d="M560,647.15h0l-5.55,28.92c5.79,18.49,16.89,36.54,33.3,53.32V686.14h0a64.1,64.1,0,0,1-12.21-14,133.7,133.7,0,0,1-15.49-25Z"></path></g><path fill="url(#ab)" d="M487.1,727.29c-4.26,4.4-1,12.67-8.62,12.49-10.54-.25-32.4-.16-31.81-5.38.5-4.42,15.66-5.53,22.91-7.42,10.12-2.65,11.62-5.84,11.62-5.84Z"></path><path fill="#a2d0ff" d="M481.2,721.14s-1.5,3.19-11.62,5.84c-1.84.48-4.21.91-6.71,1.36,0,0-1.34.24-1.3,2.39.08,4.27,18.31,5.7,22.67,3.66.66-2.15,1-5.14,2.86-7.11Z" class="colorffcea2 svgShape"></path><path fill="url(#ac)" d="M495.51,734.82c-.35,1.61-3.57,6.55-5.7,9-1.81,2.1-8.42,8.68-9.22,9.35-3,2.51-1.22,5.37,2.92,5.79s7,.51,9.2-.51c2.92-1.35,13.26-7.15,13.07-11.42-.1-2.24-.64-2.32-.89-7.46-.06-1.41,0-4.77,0-4.77Z"></path><path fill="#a2d0ff" d="M496.09,749.71c3.21-1.35,7.5-4.18,9.11-6.45-.11-.85-.23-2-.31-3.67-.06-1.41,0-4.77,0-4.77h-9.35c-.35,1.61-3.57,6.55-5.7,9-.65.75-1.91,2.08-3.3,3.5C485.64,750.15,493,751,496.09,749.71Z" class="colorffcea2 svgShape"></path><path fill="#6f196f" d="M613,633.23c2.44,4.79,10.92,22.6-1.32,32.91s-51.67,19.07-70.57,21.14c-5.86,11.52-53.8,40.53-53.8,40.53-3.54-1.43-4.69-3.29-7.36-6,4.19-5.66,45.1-49.17,50.67-52.16s54.62-34,54.62-34Z" class="color20196f svgShape"></path><path fill="url(#ad)" d="M579.84,625.35c-5.61,2.26-56.15,19.93-65.89,29.46s-19,79.55-19,79.55a8.12,8.12,0,0,0,10.08,1.48c4.77-14.41,22.65-53,21.83-68.2,16.8-1.92,65.57-20,72.46-26.54S579.84,625.35,579.84,625.35Z"></path><path fill="#f6f8fb" d="M548.38,623.42a3.5,3.5,0,0,1,3.18,0l53.49,30.88a1,1,0,0,1,0,1.84L568.6,677.19a3.52,3.52,0,0,1-3.19,0l-53.49-30.88a1,1,0,0,1,0-1.84Z" class="colorf6f6fb svgShape"></path><g style="mix-blend-mode:multiply" fill="#010001" class="color000000 svgShape"><polygon fill="#e6edf5" points="565.36 672.81 567.97 674.32 566.66 675.08 564.05 673.57 565.36 672.81" class="colore6eaf5 svgShape"></polygon><polygon fill="#e6edf5" points="560.95 670.27 563.56 671.78 562.26 672.53 559.64 671.02 560.95 670.27" class="colore6eaf5 svgShape"></polygon><polygon fill="#e6edf5" points="556.54 667.73 559.16 669.23 557.85 669.99 555.23 668.48 556.54 667.73" class="colore6eaf5 svgShape"></polygon><polygon fill="#e6edf5" points="552.14 665.18 554.75 666.69 553.45 667.45 550.83 665.94 552.14 665.18" class="colore6eaf5 svgShape"></polygon><polygon fill="#e6edf5" points="547.73 662.64 550.35 664.15 549.04 664.9 546.42 663.39 547.73 662.64" class="colore6eaf5 svgShape"></polygon><polygon fill="#e6edf5" points="543.33 660.09 545.94 661.6 544.63 662.36 542.02 660.85 543.33 660.09" class="colore6eaf5 svgShape"></polygon><polygon fill="#e6edf5" points="538.92 657.55 541.53 659.06 540.23 659.81 537.61 658.3 538.92 657.55" class="colore6eaf5 svgShape"></polygon><polygon fill="#e6edf5" points="534.51 655.01 537.13 656.52 535.82 657.27 533.21 655.76 534.51 655.01" class="colore6eaf5 svgShape"></polygon><polygon fill="#e6edf5" points="530.11 652.46 532.72 653.97 531.42 654.73 528.8 653.22 530.11 652.46" class="colore6eaf5 svgShape"></polygon><polygon fill="#e6edf5" points="525.7 649.92 528.32 651.43 527.01 652.18 524.39 650.67 525.7 649.92" class="colore6eaf5 svgShape"></polygon><polygon fill="#e6edf5" points="521.29 647.37 523.91 648.88 522.6 649.64 519.99 648.13 521.29 647.37" class="colore6eaf5 svgShape"></polygon><polygon fill="#e6edf5" points="516.89 644.83 519.51 646.34 518.2 647.1 515.58 645.58 516.89 644.83" class="colore6eaf5 svgShape"></polygon><polygon fill="#e6edf5" points="567.67 669.06 572.38 671.78 569.76 673.29 565.06 670.57 567.67 669.06" class="colore6eaf5 svgShape"></polygon><polygon fill="#e6edf5" points="570.11 665.59 576.6 669.34 573.98 670.85 567.49 667.1 570.11 665.59" class="colore6eaf5 svgShape"></polygon><polygon fill="#e6edf5" points="572.72 662.01 581.01 666.8 578.39 668.31 570.11 663.52 572.72 662.01" class="colore6eaf5 svgShape"></polygon><polygon fill="#e6edf5" points="581.63 661 586.34 663.72 582.79 665.76 578.09 663.05 581.63 661" class="colore6eaf5 svgShape"></polygon><polygon fill="#e6edf5" points="575.14 657.25 579.84 659.97 576.3 662.01 571.6 659.3 575.14 657.25" class="colore6eaf5 svgShape"></polygon><polygon fill="#e6edf5" points="568.65 653.51 573.35 656.22 569.81 658.27 565.11 655.55 568.65 653.51" class="colore6eaf5 svgShape"></polygon><polygon fill="#e6edf5" points="546.26 640.58 550.96 643.29 547.42 645.34 542.72 642.63 546.26 640.58" class="colore6eaf5 svgShape"></polygon><polygon fill="#e6edf5" points="535.26 634.23 544.48 639.55 540.94 641.6 531.72 636.27 535.26 634.23" class="colore6eaf5 svgShape"></polygon><polygon fill="#e6edf5" points="552.74 644.32 566.86 652.47 563.32 654.52 549.2 646.37 552.74 644.32" class="colore6eaf5 svgShape"></polygon><polygon fill="#e6edf5" points="562.03 665.81 565.88 668.03 563.27 669.54 559.42 667.32 562.03 665.81" class="colore6eaf5 svgShape"></polygon><polygon fill="#e6edf5" points="564.47 662.34 568.32 664.56 565.7 666.07 561.85 663.85 564.47 662.34" class="colore6eaf5 svgShape"></polygon><polygon fill="#e6edf5" points="566.96 658.83 570.81 661.05 568.2 662.56 564.35 660.34 566.96 658.83" class="colore6eaf5 svgShape"></polygon><polygon fill="#e6edf5" points="561.32 655.57 565.17 657.79 562.56 659.3 558.71 657.08 561.32 655.57" class="colore6eaf5 svgShape"></polygon><polygon fill="#e6edf5" points="555.68 652.32 559.53 654.54 556.92 656.05 553.07 653.83 555.68 652.32" class="colore6eaf5 svgShape"></polygon><polygon fill="#e6edf5" points="550.05 649.06 553.89 651.28 551.28 652.79 547.43 650.57 550.05 649.06" class="colore6eaf5 svgShape"></polygon><polygon fill="#e6edf5" points="544.41 645.8 548.26 648.03 545.64 649.54 541.79 647.32 544.41 645.8" class="colore6eaf5 svgShape"></polygon><polygon fill="#e6edf5" points="538.77 642.55 542.62 644.77 540 646.28 536.15 644.06 538.77 642.55" class="colore6eaf5 svgShape"></polygon><polygon fill="#e6edf5" points="529.8 637.37 536.98 641.52 534.36 643.03 527.19 638.88 529.8 637.37" class="colore6eaf5 svgShape"></polygon><polygon fill="#e6edf5" points="558.83 659.08 562.68 661.3 560.06 662.81 556.21 660.59 558.83 659.08" class="colore6eaf5 svgShape"></polygon><polygon fill="#e6edf5" points="553.19 655.82 557.04 658.05 554.42 659.56 550.57 657.33 553.19 655.82" class="colore6eaf5 svgShape"></polygon><polygon fill="#e6edf5" points="547.55 652.57 551.4 654.79 548.78 656.3 544.93 654.08 547.55 652.57" class="colore6eaf5 svgShape"></polygon><polygon fill="#e6edf5" points="541.91 649.31 545.76 651.53 543.14 653.04 539.3 650.82 541.91 649.31" class="colore6eaf5 svgShape"></polygon><polygon fill="#e6edf5" points="536.27 646.06 540.12 648.28 537.51 649.79 533.66 647.57 536.27 646.06" class="colore6eaf5 svgShape"></polygon><polygon fill="#e6edf5" points="525.52 639.85 534.48 645.02 531.87 646.53 522.9 641.36 525.52 639.85" class="colore6eaf5 svgShape"></polygon><polygon fill="#e6edf5" points="556.4 662.55 560.24 664.77 557.63 666.28 553.78 664.06 556.4 662.55" class="colore6eaf5 svgShape"></polygon><polygon fill="#e6edf5" points="550.76 659.3 554.61 661.52 551.99 663.03 548.14 660.81 550.76 659.3" class="colore6eaf5 svgShape"></polygon><polygon fill="#e6edf5" points="545.12 656.04 548.97 658.26 546.35 659.77 542.5 657.55 545.12 656.04" class="colore6eaf5 svgShape"></polygon><polygon fill="#e6edf5" points="539.48 652.78 543.33 655.01 540.71 656.52 536.86 654.29 539.48 652.78" class="colore6eaf5 svgShape"></polygon><polygon fill="#e6edf5" points="533.84 649.53 537.69 651.75 535.07 653.26 531.22 651.04 533.84 649.53" class="colore6eaf5 svgShape"></polygon><polygon fill="#e6edf5" points="528.2 646.27 532.05 648.5 529.43 650.01 525.59 647.78 528.2 646.27" class="colore6eaf5 svgShape"></polygon><polygon fill="#e6edf5" points="521.29 642.29 526.41 645.24 523.79 646.75 518.68 643.8 521.29 642.29" class="colore6eaf5 svgShape"></polygon></g><polygon fill="#453ead" points="518.8 648.81 561.07 673.22 559.8 673.95 517.53 649.55 518.8 648.81" class="color423ead svgShape"></polygon><polygon points="552.74 641.17 574.31 653.62 587.72 645.88 566.15 633.43 552.74 641.17" style="mix-blend-mode:multiply" fill="#e6edf5" class="colore6eaf5 svgShape"></polygon><path fill="url(#ae)" d="M605.05,656.14,568.6,677.19a3.64,3.64,0,0,1-2.59.25s-.52-.2-.6-.25l-53.49-30.88-.17-.11h0l0,0-.09-.07,0,0-.09-.1v0h0l-.08-.13a.76.76,0,0,1-.11-.38h0v.77h0a1.09,1.09,0,0,0,.65.93L565.41,678a6.55,6.55,0,0,0,3.64.39c.55-.11,1-.25,1.6-.37l34.4-19.87a1.08,1.08,0,0,0,.66-.93v-2A1.11,1.11,0,0,1,605.05,656.14Z"></path><path fill="#6f196f" d="M579.18,521.51c-7.12,10.3-8.37,33.25-1.95,48.21,4.76,0,12.34-6.55,19.43-4.27C598.29,566,587.89,521.51,579.18,521.51Z" class="color20196f svgShape"></path><path fill="#a7d0fa" d="M549.25,626.65c-3.67,2-11.54,3.15-13.84,5.17s-2.8,8-1.08,9.86,3.69,1.83,2.71,0-.73-5.38,2-5.67c5.29-.55-1.38,5.3,1.11,5.35,2.33,0,3.33-2.94,6.15-5.1s4.81-2.83,7.46-5.16C556.11,629,549.25,626.65,549.25,626.65Z" class="colorfacfa7 svgShape"></path><path fill="#a2d0ff" d="M548.26,627.12c4.48-3,18.29-16.25,20.77-20.65,2.31-4.07,6.07-26.83,6.36-29.75s2.12-15.2,14.1-14.6c1.12,8-9,46-12.91,50.92-4.77,6-18.75,15.17-22.82,18.06C549.21,629.25,548.26,627.12,548.26,627.12Z" class="colorffcea2 svgShape"></path><path fill="#342e92" d="M498.77,622.07l51.58,29.68a5.56,5.56,0,0,1,2,2l13.3,22.56a.47.47,0,0,1-.64.65l-53.82-31a2.85,2.85,0,0,1-1-1l-12.44-21.11C496.8,622.29,497.46,621.32,498.77,622.07Z" class="color362e92 svgShape"></path><path fill="url(#af)" d="M565.67,676.32l-13.3-22.56a5.56,5.56,0,0,0-2-2l-51.58-29.68c-.59-.34-1-.31-1.27-.05h0a8.34,8.34,0,0,1,.73-.74h0c.25-.24.69-.25,1.26.08L551.06,651a5.56,5.56,0,0,1,2,2l13.3,22.57a.45.45,0,0,1,0,.52h0l-.05.05c-.18.17-.59.6-.67.68A.46.46,0,0,0,565.67,676.32Z"></path><path fill="url(#ag)" d="M613.12,631.1c-2-17.75,6.06-39.27,7.6-50.36,1-7,1.67-15.2-4.67-17.17-6.55-2-9.2-3-14.88-2.85-13.67.34-20.08,3.15-22.87,12.57-2.62,8.86-4.48,11.56-6.63,20.25-1,3.9,8.89,15.9,7.65,32.71C575.43,641.73,618,644,613.12,631.1Z"></path><path fill="#a2d0ff" d="M606,544.07c-.24-4.2-14.63,4.17-14.32,9.72.27,4.51.85,9.06-.84,9.64-2,1.42-5.3,10.88-1.79,14.39,12.22-5,16.1-10.07,27-14.25C611.6,562.66,606.81,557.7,606,544.07Z" class="colorffcea2 svgShape"></path><path fill="#a7d0fa" d="M574.23,643.35c-5.48,3.83-7,1.46-9.91,2.78a42.37,42.37,0,0,0-6.73,4c-1,.69,2.41.56,3.87,0-3.33,2.78-3.62,6.43-3,8.07.72,1.87,5.44,3.65,6.53,2.6,4.54-4.39,3.75-6.12,10-7.74,2.23-.59,5.41-3.86,5.41-3.86Z" class="colorfacfa7 svgShape"></path><path fill="#a2d0ff" d="M574.23 643.35c8.51-5 24.37-23.44 25.6-30.23s8.66-48.42 18.23-47.66-2 40.21-8.56 54.7c-3.2 7.09-19.55 23.6-29.13 29.09C576.66 649.25 574.23 643.35 574.23 643.35zM609.5 538.25l-4.33-10.84-22.09-3.47a9.21 9.21 0 00-3.82-.87c-3.36 6.86-1.55 20.87-1.55 20.87 0 9.12 6.15 16.52 13.73 16.52 7.35 0 13.3-7 13.66-15.72l1.91 0z" class="colorffcea2 svgShape"></path><path fill="#96c8fb" d="M602.74,553.23c-2.36,4.19-6.25,7-10.72,7.21a4.47,4.47,0,0,1-.73,2.73,10.39,10.39,0,0,0,2.21-.2C598.08,561.84,601.39,558.06,602.74,553.23Z" class="colorfbc096 svgShape"></path><path fill="url(#ah)" d="M592.57,515.48c21.17,0,25.16,26,28.78,48.4-3.24,7.1-11.12,12.29-20.75,14.57-11.49,1.15,3.87-38.16-12.16-48.43-4.46-2.86-12.71-1.66-11.06-5.28C581,516.88,585.4,515.48,592.57,515.48Z"></path><polygon points="1346.29 674.6 1346.29 674.6 1320.35 659.62 1337.01 640.74 1337 640.74 1337.01 640.74 1313.66 640.74 1305.47 650.02 1304.31 650.36 1278.36 635.38 1284.1 656.3 1251.41 665.92 1287.65 669.24 1287.85 669.98 1270.04 690.16 1293.39 690.16 1310.05 671.29 1346.3 674.6 1346.29 674.6" style="mix-blend-mode:multiply" fill="url(#l)"></polygon><polygon fill="#fc06cf" points="1255.02 620.98 1255.02 635.38 1260.75 656.31 1260.75 641.91 1255.02 620.98" class="colorfcba06 svgShape"></polygon><polygon fill="#e100b8" points="1313.66 626.34 1313.66 640.75 1297 659.62 1297 645.22 1313.66 626.34" class="colore19100 svgShape"></polygon><polygon fill="#fc06cf" points="1286.7 656.89 1286.7 671.29 1322.95 674.6 1322.95 660.2 1286.7 656.89" class="colorfcba06 svgShape"></polygon><polygon fill="#e100b8" points="1228.06 651.52 1228.06 665.92 1264.3 669.24 1264.3 654.84 1228.06 651.52" class="colore19100 svgShape"></polygon><polygon fill="#e100b8" points="1286.7 656.89 1286.7 671.29 1270.04 690.16 1270.04 675.77 1286.7 656.89" class="colore19100 svgShape"></polygon><polygon fill="#fc06cf" points="1270.04 675.77 1270.04 690.16 1264.3 669.24 1264.3 654.84 1270.04 675.77" class="colorfcba06 svgShape"></polygon><polygon fill="#3e9eff" points="1313.66 626.34 1297 645.22 1322.95 660.2 1286.7 656.89 1270.04 675.77 1264.3 654.84 1228.06 651.52 1260.75 641.91 1255.02 620.98 1280.96 635.96 1313.66 626.34" class="colorffd03e svgShape"></polygon><polygon points="500.48 1002.92 500.49 1002.92 474.54 987.94 491.2 969.06 491.19 969.07 491.2 969.06 467.85 969.06 459.66 978.34 458.5 978.68 432.55 963.7 438.29 984.63 405.6 994.25 441.84 997.56 442.04 998.3 424.23 1018.49 447.58 1018.49 464.24 999.61 500.49 1002.93 500.48 1002.92" style="mix-blend-mode:multiply" fill="url(#ai)"></polygon><polygon fill="#fc06cf" points="409.2 949.3 409.2 963.7 414.94 984.63 414.94 970.23 409.2 949.3" class="colorfcba06 svgShape"></polygon><polygon fill="#e100b8" points="467.85 954.67 467.85 969.07 451.19 987.95 451.19 973.55 467.85 954.67" class="colore19100 svgShape"></polygon><polygon fill="#fc06cf" points="440.89 985.21 440.89 999.61 477.14 1002.93 477.14 988.53 440.89 985.21" class="colorfcba06 svgShape"></polygon><polygon fill="#e100b8" points="382.25 979.85 382.25 994.25 418.49 997.56 418.49 983.17 382.25 979.85" class="colore19100 svgShape"></polygon><polygon fill="#e100b8" points="440.89 985.21 440.89 999.61 424.23 1018.49 424.23 1004.09 440.89 985.21" class="colore19100 svgShape"></polygon><polygon fill="#fc06cf" points="424.23 1004.09 424.23 1018.49 418.49 997.56 418.49 983.17 424.23 1004.09" class="colorfcba06 svgShape"></polygon><polygon fill="#3e9eff" points="467.85 954.67 451.19 973.55 477.14 988.53 440.89 985.21 424.23 1004.09 418.49 983.17 382.25 979.85 414.94 970.23 409.2 949.3 435.15 964.28 467.85 954.67" class="colorffd03e svgShape"></polygon><path d="M352.78,824.18c-7.76-4.49-18.09-6.56-28.23-6.25h-15.9v2.6a42.3,42.3,0,0,0-8.41,3.65c-14.46,8.4-14.38,22,.17,30.44a42.5,42.5,0,0,0,8.24,3.56v2.73h19.07c9.17-.16,18.26-2.24,25.24-6.29C367.42,846.21,367.34,832.58,352.78,824.18Z" style="mix-blend-mode:multiply" fill="url(#aj)"></path><path fill="url(#ak)" d="M284,854.63c-7.33-4.23-11-9.78-11-15.33l0-12.63c0,5.54,3.64,11.09,11,15.32,14.57,8.41,38.09,8.41,52.55,0,7.19-4.18,10.78-9.64,10.8-15.12l0,12.64c0,5.47-3.62,10.93-10.8,15.11C322.12,863,298.59,863,284,854.63Z"></path><path fill="#f6f8fb" d="M284.06,842c-14.55-8.4-14.63-22-.17-30.43s38-8.41,52.55,0,14.63,22,.17,30.44S298.63,850.4,284.06,842Z" class="colorf6f6fb svgShape"></path><polygon fill="#bbd0e6" points="329.31 825.05 301.82 826.44 302.68 820.26 295.08 820.26 293.01 831.53 329.31 829.43 329.31 825.05" class="colorbbc0e6 svgShape"></polygon><path fill="#ff5ae1" d="M409.17,402.69l-.24,0a1,1,0,0,1-.73-1.21c.68-2.78,1.37-5.63,2.07-8.51,9.49-39.12,20.24-83.45,37.07-86,6.69-1,13.43,4.45,20.64,16.65,8.42,14.24,15.62,20.72,22.06,19.88,14.59-2,25.21-41.05,38.67-90.53q1.83-6.73,3.74-13.72c9-32.85,20.81-51.85,32.38-52.13h.27c8.29,0,15.77,9.47,21.65,27.42a1,1,0,0,1-.64,1.26,1,1,0,0,1-1.26-.64c-5.58-17-12.41-26-19.75-26h-.22c-10.47.26-21.87,19.19-30.5,50.66q-1.92,7-3.74,13.72c-14.18,52.15-24.43,89.83-40.33,92-7.3,1-15.18-5.83-24.05-20.84-6.66-11.26-12.91-16.54-18.63-15.69-15.49,2.31-26.54,47.85-35.41,84.45-.7,2.88-1.39,5.73-2.08,8.51A1,1,0,0,1,409.17,402.69Z" class="colorff5a72 svgShape"></path><ellipse cx="409.17" cy="401.69" fill="#ff5ae1" rx="7.94" ry="4.58" transform="matrix(.5 -.87 .87 .5 -143.28 555.19)" class="colorff5a72 svgShape"></ellipse><ellipse cx="476.38" cy="337.22" fill="#ff5ae1" rx="7.94" ry="4.58" transform="rotate(-60 476.383 337.22)" class="colorff5a72 svgShape"></ellipse><path fill="#ff5ae1" d="M580.19 217.14a12.4 12.4 0 015.61-9.72c3.1-1.79 5.61-.34 5.61 3.24a12.4 12.4 0 01-5.61 9.72C582.7 222.17 580.19 220.72 580.19 217.14zM523.35 259.09a12.4 12.4 0 015.61-9.72c3.1-1.79 5.62-.34 5.62 3.24a12.41 12.41 0 01-5.62 9.72C525.86 264.12 523.35 262.67 523.35 259.09z" class="colorff5a72 svgShape"></path><polygon points="377.24 525.98 254.16 555.11 424.48 653.45 424.48 653.45 424.48 653.45 424.5 653.45 424.5 653.45 424.48 653.45 311.59 718.62 340.06 718.62 452.95 653.45 452.95 653.45 547.56 624.32 377.24 525.98" style="mix-blend-mode:multiply" fill="url(#al)"></polygon><polygon fill="#b9d0e7" points="424.48 653.45 424.48 637.01 474.94 582.39 474.93 598.82 424.48 653.45" class="colorb9c0e7 svgShape"></polygon><polygon fill="#f0f2f5" points="311.59 702.19 141.27 603.85 254.16 538.68 424.48 637.01 311.59 702.19" class="colorf0f0f5 svgShape"></polygon><polygon fill="#b9d0e7" points="311.59 718.62 311.59 702.19 424.48 637.01 424.48 653.45 311.59 718.62" class="colorb9c0e7 svgShape"></polygon><polygon fill="#cce2f9" points="141.27 620.29 141.27 603.85 311.59 702.19 311.59 718.62 141.27 620.29" class="colorccd3f9 svgShape"></polygon><polygon fill="#cee3f8" points="188.41 615.9 164.58 602.14 164.58 605.23 188.41 618.99 188.41 615.9" class="colorced3f8 svgShape"></polygon><polygon fill="#bbd0e6" points="202.46 607.78 188.41 615.9 188.41 618.99 202.46 610.88 202.46 607.78" class="colorbbc0e6 svgShape"></polygon><polygon fill="#dde8f4" points="202.46 607.78 178.63 594.03 164.58 602.14 188.41 615.9 202.46 607.78" class="colordde4f4 svgShape"></polygon><polygon fill="#cee3f8" points="218.17 633.08 194.35 619.33 194.35 622.42 218.17 636.18 218.17 633.08" class="colorced3f8 svgShape"></polygon><polygon fill="#bbd0e6" points="232.22 624.97 218.17 633.08 218.17 636.18 232.22 628.07 232.22 624.97" class="colorbbc0e6 svgShape"></polygon><polygon fill="#dde8f4" points="232.22 624.97 208.4 611.22 194.35 619.33 218.17 633.08 232.22 624.97" class="colordde4f4 svgShape"></polygon><polygon fill="#cee3f8" points="247.94 650.27 224.11 636.51 224.11 639.61 247.94 653.36 247.94 650.27" class="colorced3f8 svgShape"></polygon><polygon fill="#bbd0e6" points="261.99 642.16 247.94 650.27 247.94 653.36 261.99 645.25 261.99 642.16" class="colorbbc0e6 svgShape"></polygon><polygon fill="#dde8f4" points="261.99 642.16 238.16 628.4 224.11 636.51 247.94 650.27 261.99 642.16" class="colordde4f4 svgShape"></polygon><polygon fill="#cee3f8" points="208.4 604.35 184.57 590.6 184.57 593.69 208.4 607.45 208.4 604.35" class="colorced3f8 svgShape"></polygon><polygon fill="#bbd0e6" points="222.45 596.24 208.4 604.35 208.4 607.45 222.45 599.34 222.45 596.24" class="colorbbc0e6 svgShape"></polygon><polygon fill="#dde8f4" points="222.45 596.24 198.62 582.49 184.57 590.6 208.4 604.35 222.45 596.24" class="colordde4f4 svgShape"></polygon><polygon fill="#cee3f8" points="238.16 621.54 214.34 607.79 214.34 610.88 238.16 624.63 238.16 621.54" class="colorced3f8 svgShape"></polygon><polygon fill="#bbd0e6" points="252.22 613.43 238.16 621.54 238.16 624.63 252.22 616.52 252.22 613.43" class="colorbbc0e6 svgShape"></polygon><polygon fill="#dde8f4" points="252.22 613.43 228.39 599.67 214.34 607.79 238.16 621.54 252.22 613.43" class="colordde4f4 svgShape"></polygon><polygon fill="#cee3f8" points="267.93 638.73 244.11 624.97 244.11 628.07 267.93 641.82 267.93 638.73" class="colorced3f8 svgShape"></polygon><polygon fill="#bbd0e6" points="281.98 630.62 267.93 638.73 267.93 641.82 281.98 633.71 281.98 630.62" class="colorbbc0e6 svgShape"></polygon><polygon fill="#dde8f4" points="281.98 630.62 258.16 616.86 244.11 624.97 267.93 638.73 281.98 630.62" class="colordde4f4 svgShape"></polygon><polygon fill="#cee3f8" points="228.39 592.81 204.56 579.06 204.56 582.15 228.39 595.91 228.39 592.81" class="colorced3f8 svgShape"></polygon><polygon fill="#bbd0e6" points="242.44 584.7 228.39 592.81 228.39 595.91 242.44 587.79 242.44 584.7" class="colorbbc0e6 svgShape"></polygon><polygon fill="#dde8f4" points="242.44 584.7 218.61 570.94 204.56 579.06 228.39 592.81 242.44 584.7" class="colordde4f4 svgShape"></polygon><polygon fill="#cee3f8" points="258.16 610 234.33 596.24 234.33 599.34 258.16 613.09 258.16 610" class="colorced3f8 svgShape"></polygon><polygon fill="#bbd0e6" points="272.21 601.89 258.16 610 258.16 613.09 272.21 604.98 272.21 601.89" class="colorbbc0e6 svgShape"></polygon><polygon fill="#dde8f4" points="272.21 601.89 248.38 588.13 234.33 596.24 258.16 610 272.21 601.89" class="colordde4f4 svgShape"></polygon><polygon fill="#cee3f8" points="287.93 627.19 264.1 613.43 264.1 616.52 287.93 630.28 287.93 627.19" class="colorced3f8 svgShape"></polygon><polygon fill="#bbd0e6" points="301.98 619.07 287.93 627.19 287.93 630.28 301.98 622.17 301.98 619.07" class="colorbbc0e6 svgShape"></polygon><polygon fill="#dde8f4" points="301.98 619.07 278.15 605.32 264.1 613.43 287.93 627.19 301.98 619.07" class="colordde4f4 svgShape"></polygon><polygon fill="#cee3f8" points="317.69 644.37 293.87 630.62 293.87 633.71 317.69 647.47 317.69 644.37" class="colorced3f8 svgShape"></polygon><polygon fill="#bbd0e6" points="331.74 636.26 317.69 644.37 317.69 647.47 331.74 639.35 331.74 636.26" class="colorbbc0e6 svgShape"></polygon><polygon fill="#dde8f4" points="331.74 636.26 307.92 622.5 293.87 630.62 317.69 644.37 331.74 636.26" class="colordde4f4 svgShape"></polygon><polygon fill="#cee3f8" points="337.69 632.83 313.86 619.07 313.86 622.17 337.69 635.92 337.69 632.83" class="colorced3f8 svgShape"></polygon><polygon fill="#bbd0e6" points="351.74 624.72 337.69 632.83 337.69 635.92 351.74 627.81 351.74 624.72" class="colorbbc0e6 svgShape"></polygon><polygon fill="#dde8f4" points="351.74 624.72 327.91 610.96 313.86 619.07 337.69 632.83 351.74 624.72" class="colordde4f4 svgShape"></polygon><polygon fill="#cee3f8" points="357.67 621.29 333.85 607.53 333.85 610.63 357.67 624.38 357.67 621.29" class="colorced3f8 svgShape"></polygon><polygon fill="#bbd0e6" points="371.72 613.18 357.67 621.29 357.67 624.38 371.72 616.27 371.72 613.18" class="colorbbc0e6 svgShape"></polygon><polygon fill="#dde8f4" points="371.72 613.18 347.89 599.42 333.85 607.53 357.67 621.29 371.72 613.18" class="colordde4f4 svgShape"></polygon><polygon fill="#cee3f8" points="387.44 638.48 363.62 624.72 363.62 627.81 387.44 641.57 387.44 638.48" class="colorced3f8 svgShape"></polygon><polygon fill="#bbd0e6" points="401.49 630.36 387.44 638.48 387.44 641.57 401.49 633.46 401.49 630.36" class="colorbbc0e6 svgShape"></polygon><polygon fill="#dde8f4" points="401.49 630.36 377.67 616.61 363.62 624.72 387.44 638.48 401.49 630.36" class="colordde4f4 svgShape"></polygon><polygon fill="#cee3f8" points="367.45 650.02 343.62 636.26 343.62 639.36 367.45 653.11 367.45 650.02" class="colorced3f8 svgShape"></polygon><polygon fill="#bbd0e6" points="381.5 641.9 367.45 650.02 367.45 653.11 381.5 645 381.5 641.9" class="colorbbc0e6 svgShape"></polygon><polygon fill="#dde8f4" points="381.5 641.9 357.67 628.15 343.62 636.26 367.45 650.02 381.5 641.9" class="colordde4f4 svgShape"></polygon><polygon fill="#cee3f8" points="347.46 661.56 323.63 647.8 323.63 650.9 347.46 664.65 347.46 661.56" class="colorced3f8 svgShape"></polygon><polygon fill="#bbd0e6" points="361.51 653.45 347.46 661.56 347.46 664.65 361.51 656.54 361.51 653.45" class="colorbbc0e6 svgShape"></polygon><polygon fill="#dde8f4" points="361.51 653.45 337.68 639.69 323.63 647.8 347.46 661.56 361.51 653.45" class="colordde4f4 svgShape"></polygon><polygon fill="#cee3f8" points="327.47 673.1 303.64 659.35 303.64 662.44 327.47 676.2 327.47 673.1" class="colorced3f8 svgShape"></polygon><polygon fill="#bbd0e6" points="341.52 664.99 327.47 673.1 327.47 676.2 341.52 668.08 341.52 664.99" class="colorbbc0e6 svgShape"></polygon><polygon fill="#dde8f4" points="341.52 664.99 317.69 651.23 303.64 659.35 327.47 673.1 341.52 664.99" class="colordde4f4 svgShape"></polygon><polygon fill="#cee3f8" points="307.48 684.64 283.65 670.89 283.65 673.98 307.48 687.74 307.48 684.64" class="colorced3f8 svgShape"></polygon><polygon fill="#bbd0e6" points="321.53 676.53 307.48 684.64 307.48 687.74 321.53 679.63 321.53 676.53" class="colorbbc0e6 svgShape"></polygon><polygon fill="#dde8f4" points="321.53 676.53 297.7 662.77 283.65 670.89 307.48 684.64 321.53 676.53" class="colordde4f4 svgShape"></polygon><polygon fill="#cee3f8" points="248.38 581.27 224.56 567.51 224.56 570.61 248.38 584.36 248.38 581.27" class="colorced3f8 svgShape"></polygon><polygon fill="#bbd0e6" points="262.43 573.16 248.38 581.27 248.38 584.36 262.43 576.25 262.43 573.16" class="colorbbc0e6 svgShape"></polygon><polygon fill="#dde8f4" points="262.43 573.16 238.6 559.4 224.56 567.51 248.38 581.27 262.43 573.16" class="colordde4f4 svgShape"></polygon><polygon fill="#cee3f8" points="277.71 667.46 253.88 653.7 253.88 656.79 277.71 670.55 277.71 667.46" class="colorced3f8 svgShape"></polygon><polygon fill="#bbd0e6" points="311.75 647.8 277.71 667.46 277.71 670.55 311.75 650.9 311.75 647.8" class="colorbbc0e6 svgShape"></polygon><polygon fill="#dde8f4" points="311.75 647.8 287.92 634.05 253.88 653.7 277.71 667.46 311.75 647.8" class="colordde4f4 svgShape"></polygon><polygon fill="#cee3f8" points="278.15 598.46 254.32 584.7 254.32 587.79 278.15 601.55 278.15 598.46" class="colorced3f8 svgShape"></polygon><polygon fill="#bbd0e6" points="292.2 590.35 278.15 598.46 278.15 601.55 292.2 593.44 292.2 590.35" class="colorbbc0e6 svgShape"></polygon><polygon fill="#dde8f4" points="292.2 590.35 268.37 576.59 254.32 584.7 278.15 598.46 292.2 590.35" class="colordde4f4 svgShape"></polygon><polygon fill="#cee3f8" points="307.92 615.64 284.09 601.89 284.09 604.98 307.92 618.74 307.92 615.64" class="colorced3f8 svgShape"></polygon><polygon fill="#bbd0e6" points="321.97 607.53 307.92 615.64 307.92 618.74 321.97 610.63 321.97 607.53" class="colorbbc0e6 svgShape"></polygon><polygon fill="#dde8f4" points="321.97 607.53 298.14 593.78 284.09 601.89 307.92 615.64 321.97 607.53" class="colordde4f4 svgShape"></polygon><polygon fill="#b9d0e7" points="307.76 675.84 298.9 670.72 297.42 671.58 306.27 676.69 307.76 675.84" class="colorb9c0e7 svgShape"></polygon><polygon fill="#b9d0e7" points="287.99 652.88 284.31 650.75 287.99 648.62 286.5 647.76 282.82 649.89 279.13 647.76 277.64 648.62 281.33 650.75 277.65 652.88 279.13 653.74 282.82 651.61 286.5 653.74 287.99 652.88" class="colorb9c0e7 svgShape"></polygon><polygon fill="#b9d0e7" points="328.84 662.77 328.84 661.56 323.63 661.56 323.63 658.55 321.53 658.55 321.53 661.56 316.32 661.56 316.32 662.77 321.53 662.77 321.53 665.78 323.63 665.78 323.63 662.77 328.84 662.77" class="colorb9c0e7 svgShape"></polygon><path fill="#b9d0e7" d="M338.89 647.64l-1.49.86 8.86 5.11 1.48-.86zm5.89 1.71a2.1 2.1 0 001.92 0c.54-.31.54-.81 0-1.11a2.1 2.1 0 00-1.92 0A.59.59 0 00344.78 649.35zm-4.42 2.55a2.1 2.1 0 00-1.92 0 .59.59 0 000 1.11 2.1 2.1 0 001.92 0A.59.59 0 00340.36 651.9zM314 631.49l-2-1.18 2-1.18-1.49-.86-2 1.18-2-1.18-1.48.86 2 1.18L307 631.49l1.49.85 2-1.17 2 1.17zm-1.17 4l-1.49.85 5.57 3.22 1.48-.86zm6.22-4l-13.19 3.11.8 1.12 13.18-3.11zM373.36 640.53l-7.58-4.38a1.68 1.68 0 00-1.14-.13l-10 2.37a1.67 1.67 0 011.09.1c.29.15.42.38.33.61l1.33-3.06-2-.3L354 638.8c-.1.22 0 .45.33.61a1.71 1.71 0 001.08.1l10-2.36a1.68 1.68 0 01-1.14-.14l7.59 4.38zM339 619.78l-13.18 3.11.79 1.12 13.18-3.11zm-4.71-.42a1.3 1.3 0 000-2.47 4.7 4.7 0 00-4.29 0 1.3 1.3 0 000 2.47A4.77 4.77 0 00334.28 619.36zm-2.8-.86c-.37-.21-.37-.55 0-.76a1.46 1.46 0 011.32 0 .4.4 0 010 .76A1.46 1.46 0 01331.48 618.5zm4.12 5.93a4.77 4.77 0 00-4.29 0 1.31 1.31 0 000 2.48 4.77 4.77 0 004.29 0A1.31 1.31 0 00335.6 624.43zm-2.8 1.62c-.37-.21-.37-.55 0-.76a1.44 1.44 0 011.31 0 .4.4 0 010 .76A1.44 1.44 0 01332.8 626.05z" class="colorb9c0e7 svgShape"></path><path fill="#dde8f4" d="M252.34,552.6c3.55-2.05,11.53-.77,17.82,2.86s8.51,8.24,4.95,10.29-11.53.77-17.82-2.86S248.79,554.65,252.34,552.6Z" class="colordde4f4 svgShape"></path><path fill="url(#m)" d="M276.81,563.16a3,3,0,0,1-1.7,2.59c-3.55,2-11.53.77-17.82-2.86-4.39-2.54-6.79-5.55-6.63-7.83h0v2.77h0c-.15,2.29,2.25,5.29,6.63,7.82,6.29,3.63,14.27,4.91,17.82,2.86a3,3,0,0,0,1.7-2.57h0v-2.77Z"></path><path fill="#dde8f4" d="M311.38,586.9c3.56-2.06,11.54-.78,17.83,2.86s8.51,8.24,5,10.29-11.53.77-17.82-2.86S307.83,589,311.38,586.9Z" class="colordde4f4 svgShape"></path><path fill="url(#am)" d="M335.85,597.46a3,3,0,0,1-1.69,2.59c-3.55,2.05-11.53.77-17.82-2.86-4.4-2.54-6.79-5.55-6.63-7.83h0v2.77h0c-.14,2.28,2.25,5.29,6.64,7.82,6.29,3.63,14.27,4.91,17.82,2.86a3,3,0,0,0,1.69-2.58h0v-2.77Z"></path><path fill="#dde8f4" d="M281.86,569.75c3.55-2,11.54-.77,17.83,2.86s8.5,8.24,4.95,10.29-11.54.77-17.83-2.86S278.31,571.8,281.86,569.75Z" class="colordde4f4 svgShape"></path><path fill="url(#an)" d="M306.33,580.31a3,3,0,0,1-1.69,2.59c-3.56,2.05-11.54.77-17.83-2.86-4.39-2.54-6.79-5.55-6.63-7.83h0V575h0c-.15,2.29,2.25,5.29,6.63,7.82,6.29,3.63,14.27,4.91,17.83,2.86a3,3,0,0,0,1.69-2.57h0v-2.77Z"></path><path fill="#dde8f4" d="M270.91,536.45l24.68-26.71L446.74,597l-24.68,26.7L270.91,536.45Zm31.18-33.75,3.15-3.41,48.64,28.08-3.15,3.41L302.09,502.7Zm172.85,79.69L304.62,484.05l-50.46,54.63L424.48,637l50.46-54.62Z" class="colordde4f4 svgShape"></path><polygon fill="#a9c2db" points="445.71 598.12 446.74 597 295.58 509.74 270.91 536.45 272.63 537.44 296.28 511.84 445.71 598.12" class="colora9b2db svgShape"></polygon><polygon fill="#453eaf" points="445.71 598.12 296.28 511.84 272.63 537.44 422.06 623.72 445.71 598.12" class="color423eaf svgShape"></polygon><polygon fill="#5046e4" points="457.39 585.37 449.94 581.07 442.63 588.98 441.37 588.25 448.68 580.34 440.65 575.7 433.34 583.61 432.08 582.88 439.38 574.98 431.36 570.34 424.05 578.25 422.79 577.52 430.09 569.61 422.64 565.31 415.34 573.22 450.08 593.28 457.39 585.37 457.39 585.37" class="color5751d0 svgShape"></polygon><path fill="#867eff" d="M431.36,570.34l-1.27-.73-7.3,7.91,1.26.73,7.31-7.91Zm9.29,5.36-1.27-.72-7.3,7.9,1.26.73,7.31-7.91Zm9.29,5.37-1.27-.73-7.3,7.91,1.26.73,7.31-7.91Z" class="color817eff svgShape"></path><polygon fill="#b9d0e7" points="353.88 527.37 305.24 499.29 302.09 502.7 350.73 530.78 353.88 527.37 353.88 527.37" class="colorb9c0e7 svgShape"></polygon><g style="mix-blend-mode:screen" fill="#010001" class="color000000 svgShape"><path fill="#dc00b4" d="M404.74 608.82a1 1 0 01-.68-.26 1 1 0 01-.06-1.42l8.59-9.29a1 1 0 01.64-.32l17-1.62L421 590.56a1 1 0 01-.36-1.36 1 1 0 011.36-.37l12 6.91a1 1 0 01-.4 1.86l-19.74 1.89-8.33 9A1 1 0 01404.74 608.82zM397.25 604.59a1 1 0 01-.5-.14l-12-6.91a1 1 0 01-.37-1.36 1 1 0 011.37-.37l11.27 6.51 7.19-7.79-10.88-6.28a1 1 0 01-.23-1.54l8.16-8.83a1 1 0 011.23-.19l12 6.9a1 1 0 01.23 1.55l-8.13 8.79a.27.27 0 01-.07.08L398 604.26A1 1 0 01397.25 604.59zm-1.79-17.44L405.64 593l6.77-7.33-10.18-5.88zM379.75 597.26a1 1 0 01-.67-.27 1 1 0 01-.06-1.41L380.5 594a1 1 0 011.47 1.36l-1.48 1.61A1 1 0 01379.75 597.26zM377.8 593.44a1 1 0 01-.5-.13l-12-6.91a1 1 0 01-.49-.71 1 1 0 01.25-.83l8.59-9.29a1 1 0 011.23-.19l11.27 6.5 6.77-7.32-10.88-6.29a1 1 0 011-1.73l12 6.91a1 1 0 01.48.72 1 1 0 01-.25.82l-8.16 8.84a1 1 0 01-1.23.19l-11.27-6.51-7.2 7.78 10.88 6.29a1 1 0 01.37 1.36A1 1 0 01377.8 593.44zM358.35 582.3a1 1 0 01-.68-.27 1 1 0 01-.05-1.41l15.89-17.21-2.8-1.61a1 1 0 01-.36-1.37 1 1 0 011.36-.36l3.89 2.24a1 1 0 01.23 1.54L359.09 582A1 1 0 01358.35 582.3z" class="colordc8b00 svgShape"></path></g></g></g></g></svg>