<svg xmlns="http://www.w3.org/2000/svg" enable-background="new 0 0 330.16 293.71" viewBox="0 0 330.16 293.71" id="Healthapps"><g fill="#010001" class="color000000 svgShape"><g fill="#010001" class="color000000 svgShape"><g fill="#010001" class="color000000 svgShape"><g fill="#010001" class="color000000 svgShape"><g fill="#010001" class="color000000 svgShape"><path fill="#f4f6f8" d="M272.683,212.418l-0.075,30.18c0,0.848-0.301,1.432-0.772,1.715l-3.873,2.253
						c0.471-0.283,0.772-0.886,0.772-1.715l0.094-30.18c0-1.715-1.187-3.787-2.675-4.634l-26.262-15.166
						c-0.735-0.432-1.413-0.471-1.903-0.188l3.873-2.253c0.49-0.282,1.149-0.226,1.903,0.189l26.262,15.165
						C271.515,208.65,272.701,210.723,272.683,212.418z" class="colorf7d7e1 svgShape"></path></g></g></g><g fill="#010001" class="color000000 svgShape"><path fill="#b3cae2" d="M266.158,210.039c1.48,0.854,2.666,2.924,2.661,4.624l-0.085,30.186
				c-0.005,1.686-1.199,2.381-2.679,1.527l-26.269-15.167c-1.479-0.854-2.666-2.924-2.661-4.61l0.086-30.186
				c0.005-1.7,1.199-2.394,2.679-1.54L266.158,210.039z" class="colore2b3c7 svgShape"></path></g><g fill="#010001" class="color000000 svgShape"><g fill="#010001" class="color000000 svgShape"><path fill="#5046e4" d="M253,210.548c5.774,3.334,9.354,9.036,13.743,18.182c-4.426,4.064-8.025,4.966-13.799,1.632
					c-5.774-3.333-9.354-9.04-13.743-18.193C243.627,208.113,247.226,207.215,253,210.548z" class="color4a5f93 svgShape"></path></g><g fill="#010001" class="color000000 svgShape"><path fill="#ffffff" d="M252.994,212.712c5.774,3.333,9.356,8.317,13.749,16.023c-4.422,2.617-8.019,2.796-13.793-0.538
					c-5.774-3.334-9.356-8.317-13.749-16.023C243.623,209.557,247.22,209.378,252.994,212.712z" class="colorffffff svgShape"></path></g><g fill="#010001" class="color000000 svgShape"><path fill="#b7dbff" d="M252.994,212.712c3.713,2.144,6.728,7.366,6.716,11.632c-0.012,4.281-3.047,5.997-6.76,3.853
					c-3.726-2.151-6.728-7.352-6.716-11.633C246.246,212.298,249.268,210.561,252.994,212.712z" class="colorb7ceff svgShape"></path></g><g fill="#010001" class="color000000 svgShape"><path fill="#5046e4" d="M252.994,214.854c2.687,1.551,4.861,5.317,4.853,8.405c-0.009,3.103-2.197,4.35-4.884,2.799
					c-2.687-1.551-4.874-5.325-4.866-8.428C248.106,214.542,250.307,213.302,252.994,214.854z" class="color4a5f93 svgShape"></path></g><g fill="#010001" class="color000000 svgShape"><g fill="#010001" class="color000000 svgShape"><path fill="#ffffff" d="M253.506,216.982c0.286,0.165,0.532,0.575,0.531,0.904c-0.001,0.343-0.248,0.47-0.534,0.305
						s-0.531-0.576-0.531-0.919C252.973,216.943,253.22,216.817,253.506,216.982z" class="colorffffff svgShape"></path></g><g fill="#010001" class="color000000 svgShape"><path fill="#ffffff" d="M255.335,218.501c0.506,0.292,0.92,1.01,0.919,1.592c-0.002,0.582-0.418,0.804-0.925,0.512
						c-0.493-0.285-0.907-0.987-0.906-1.569C254.425,218.454,254.842,218.217,255.335,218.501z" class="colorffffff svgShape"></path></g></g></g></g><g fill="#010001" class="color000000 svgShape"><g fill="#010001" class="color000000 svgShape"><g fill="#010001" class="color000000 svgShape"><g fill="#010001" class="color000000 svgShape"><g fill="#010001" class="color000000 svgShape"><path fill="#f4f6f8" d="M119.717,100.682l-0.073,21.564c-0.009,1.011-0.364,1.73-0.947,2.067l-2.339,1.355
							c0.583-0.337,0.938-1.057,0.947-2.067l0.073-21.564c0-2.058-1.439-4.544-3.224-5.573L67.456,69.5
							c-0.901-0.519-1.712-0.564-2.304-0.228l2.339-1.356c0.592-0.337,1.402-0.291,2.304,0.228l46.698,26.964
							C118.278,96.137,119.717,98.633,119.717,100.682z" class="coloreaeffa svgShape"></path></g><g fill="#010001" class="color000000 svgShape"><path fill="#d0d6dd" d="M114.152,96.46c1.785,1.031,3.228,3.523,3.222,5.574l-0.071,21.565
							c-0.006,2.045-1.458,2.872-3.243,1.842L67.361,98.478c-1.779-1.027-3.222-3.526-3.216-5.571l0.072-21.564
							c0.006-2.051,1.458-2.872,3.237-1.845L114.152,96.46z" class="colord0d5dd svgShape"></path></g></g></g><g fill="#010001" class="color000000 svgShape"><g fill="#010001" class="color000000 svgShape"><path fill="#ffffff" d="M86.543,95.044c-0.009,6.056-4.298,8.496-9.571,5.446c-5.273-3.041-9.534-10.418-9.516-16.473
						c0.018-6.056,4.298-8.496,9.571-5.455C82.309,81.602,86.562,88.979,86.543,95.044z" class="colorffffff svgShape"></path></g><g fill="#010001" class="color000000 svgShape"><path fill="#83baf2" d="M77.021,82.061c1.651,0.953,2.985,2.995,2.978,5.353l0,0.047l0.122,0.104
						c0.447,0.446,0.625,1.271,0.397,1.835c-0.185,0.479-0.596,0.617-0.987,0.391c-0.056-0.032-0.112-0.072-0.167-0.12
						c-0.222,0.273-0.485,0.463-0.788,0.556c-0.111,0.037-0.158,0.183-0.094,0.361c0.208,0.542,0.597,1.041,1.033,1.292l0.343,0.198
						c0.541,0.312,1.052,0.788,1.481,1.364c0.58,0.77,0.956,1.69,1.111,2.555l0.459,2.574l-11.855-6.845l0.472-2.036
						c0.165-0.681,0.545-1.164,1.128-1.263c0.431-0.079,0.943,0.036,1.484,0.348l0.343,0.198c0.43,0.248,0.826,0.203,1.037-0.097
						c0.064-0.103,0.018-0.304-0.092-0.468c-0.302-0.442-0.562-0.934-0.782-1.462c-0.055-0.016-0.111-0.04-0.167-0.073
						c-0.392-0.226-0.8-0.837-0.982-1.527c-0.225-0.825-0.043-1.443,0.406-1.372l0.122,0.037l0-0.047
						C74.029,81.605,75.37,81.107,77.021,82.061z" class="colorf283b5 svgShape"></path></g><g fill="#010001" class="color000000 svgShape"><polygon fill="#ffffff" points="114.087 103.461 114.08 105.792 90.027 91.905 90.033 89.573" class="colorffffff svgShape"></polygon></g><g fill="#010001" class="color000000 svgShape"><polygon fill="#ffffff" points="114.069 109.76 114.062 112.092 90.009 98.205 90.016 95.873" class="colorffffff svgShape"></polygon></g><g fill="#010001" class="color000000 svgShape"><polygon fill="#ffffff" points="104.83 110.737 104.823 113.069 89.991 104.505 89.998 102.174" class="colorffffff svgShape"></polygon></g></g></g><g fill="#010001" class="color000000 svgShape"><g fill="#010001" class="color000000 svgShape"><g fill="#010001" class="color000000 svgShape"><g fill="#010001" class="color000000 svgShape"><g fill="#010001" class="color000000 svgShape"><path fill="#b7dbff" d="M109.571,167.135l-0.073,16.198c-0.009,1.011-0.364,1.73-0.947,2.067l-2.339,1.355
								c0.583-0.337,0.938-1.056,0.947-2.067l0.073-16.197c0-2.058-1.439-4.544-3.224-5.573L57.31,135.953
								c-0.901-0.519-1.712-0.564-2.304-0.228l2.339-1.355c0.592-0.337,1.403-0.291,2.304,0.228l46.698,26.964
								C108.132,162.591,109.571,165.086,109.571,167.135z" class="colorb7ceff svgShape"></path></g><g fill="#010001" class="color000000 svgShape"><path fill="#8982ed" d="M104.007,162.913c1.785,1.031,3.228,3.523,3.222,5.574l-0.072,16.198
								c-0.006,2.045-1.458,2.872-3.243,1.842l-46.699-26.962c-1.779-1.027-3.222-3.526-3.216-5.571l0.072-16.198
								c0.006-2.051,1.458-2.872,3.237-1.845L104.007,162.913z" class="color8294ed svgShape"></path></g></g></g><g fill="#010001" class="color000000 svgShape"><polygon fill="#ffffff" points="103.923 170.848 103.916 173.179 79.863 159.292 79.87 156.96" class="colorffffff svgShape"></polygon></g><g fill="#010001" class="color000000 svgShape"><polygon fill="#ffffff" points="94.684 171.824 94.677 174.156 79.845 165.592 79.852 163.261" class="colorffffff svgShape"></polygon></g></g><path fill="#ffffff" d="M65.489,144.532c3.868,2.233,6.995,7.646,6.983,12.094c-0.013,4.445-3.16,6.238-7.028,4.005
				c-3.871-2.235-6.995-7.65-6.983-12.094C58.473,144.088,61.617,142.297,65.489,144.532z" class="colorffffff svgShape"></path><polygon fill="#e576d1" points="69.552 153.836 69.544 156.647 66.416 154.835 66.401 158.622 63.901 157.172 63.916 153.393 60.78 151.588 60.787 148.777 63.923 150.582 63.931 146.839 66.43 148.282 66.423 152.032" class="colore576ad svgShape"></polygon></g><g fill="#010001" class="color000000 svgShape"><g fill="#010001" class="color000000 svgShape"><g fill="#010001" class="color000000 svgShape"><g fill="#010001" class="color000000 svgShape"><g fill="#010001" class="color000000 svgShape"><g fill="#010001" class="color000000 svgShape"><path fill="#bcc4cc" d="M203.255,111.093c3.55,2.05,6.413,7.009,6.402,11.072l-0.278,107.964
									c-0.012,4.08-2.893,5.722-6.444,3.672l-55.279-31.916c-3.551-2.05-6.414-7.009-6.402-11.088l0.278-107.964
									c0.012-4.063,2.893-5.706,6.444-3.656L203.255,111.093z" class="colorbcc2cc svgShape"></path></g><g fill="#010001" class="color000000 svgShape"><path fill="#f4f6f8" d="M208.221,108.209l-55.295-31.92c-1.786-1.017-3.391-1.13-4.567-0.451l-4.961,2.885
									c1.176-0.679,2.781-0.588,4.566,0.451l55.295,31.92c1.814,1.052,3.438,2.862,4.599,4.922l4.961-2.885
									C211.659,111.071,210.035,109.261,208.221,108.209z" class="coloreaeffa svgShape"></path><path fill="#d9e0e8" d="M207.859,116.016c1.11,1.969,1.798,4.166,1.798,6.155l-0.271,107.968
									c-0.023,2.011-0.723,3.435-1.876,4.114l4.961-2.885c1.153-0.678,1.854-2.102,1.876-4.114l0.271-107.967
									c0-1.989-0.688-4.187-1.798-6.156L207.859,116.016z" class="colord9dfe8 svgShape"></path><g fill="#010001" class="color000000 svgShape"><g fill="#010001" class="color000000 svgShape"><g fill="#010001" class="color000000 svgShape"><path fill="#a5aeb7" d="M212.5,140.668c0.65-0.375,1.179-0.074,1.181,0.673l0.017,7.864
												c0.002,0.747-0.524,1.65-1.174,2.026c-0.65,0.375-1.179,0.081-1.181-0.666l-0.017-7.864
												C211.324,141.954,211.85,141.044,212.5,140.668z" class="colora5acb7 svgShape"></path></g></g><g fill="#010001" class="color000000 svgShape"><g fill="#010001" class="color000000 svgShape"><path fill="#f4f6f8" d="M211.223 136.76c-.202-.121-.333-.383-.333-.756l-.02-7.871c0-.746.524-1.643 1.169-2.026.333-.191.635-.201.847-.08l.423.252c-.212-.131-.514-.111-.837.08-.655.373-1.179 1.28-1.179 2.026l.02 7.871c0 .373.131.624.343.746L211.223 136.76zM213.339 140.587c-.212-.121-.514-.111-.837.081-.655.372-1.179 1.29-1.179 2.035l.02 7.861c0 .372.131.624.343.745l-.433-.242c-.202-.121-.333-.383-.333-.756l-.02-7.861c0-.746.524-1.652 1.169-2.035.333-.182.625-.202.847-.081L213.339 140.587z" class="coloreaeffa svgShape"></path></g><g fill="#010001" class="color000000 svgShape"><path fill="#a5aeb7" d="M212.47,126.358c0.65-0.375,1.179-0.081,1.181,0.666l0.017,7.872
												c0.002,0.747-0.524,1.65-1.174,2.026c-0.65,0.375-1.179,0.081-1.181-0.666l-0.017-7.872
												C211.294,127.636,211.82,126.733,212.47,126.358z" class="colora5acb7 svgShape"></path></g></g></g></g></g><g fill="#010001" class="color000000 svgShape"><g fill="#010001" class="color000000 svgShape"><path fill="#312d74" d="M175.339,205.044c1.862,1.075,3.372,3.691,3.366,5.831c-0.006,2.139-1.526,3.006-3.388,1.931
									c-1.876-1.083-3.372-3.692-3.366-5.831C171.957,204.835,173.463,203.961,175.339,205.044z" class="color2d3a74 svgShape"></path></g><g fill="#010001" class="color000000 svgShape"><path fill="#443f8c" d="M203.257,112.938c2.656,1.533,4.799,5.263,4.791,8.298L207.77,229.2
									c-0.009,3.051-2.166,4.298-4.822,2.764l-55.294-31.924c-2.641-1.525-4.799-5.263-4.791-8.314l0.278-107.964
									c0.009-3.035,2.181-4.273,4.822-2.748L203.257,112.938z M205.167,219.175l0.247-97.183l-59.638-34.432l-0.247,97.183
									L205.167,219.175 M175.317,212.806c1.862,1.075,3.382,0.208,3.388-1.931c0.006-2.14-1.504-4.756-3.366-5.831
									c-1.876-1.083-3.382-0.209-3.388,1.931C171.945,209.114,173.441,211.723,175.317,212.806 M168.608,96.322
									c-0.318-0.183-0.578-0.035-0.579,0.33c-0.001,0.365,0.258,0.814,0.576,0.997l13.986,8.075
									c0.332,0.192,0.593,0.043,0.594-0.322c0.001-0.364-0.258-0.813-0.59-1.005L168.608,96.322" class="color3f528c svgShape"></path></g><g fill="#010001" class="color000000 svgShape"><polygon fill="#ffffff" points="205.414 121.992 205.167 219.175 145.529 184.743 145.776 87.559" class="colorffffff svgShape"></polygon></g><g fill="#010001" class="color000000 svgShape"><path fill="#312d74" d="M182.593,104.397c0.332,0.192,0.591,0.64,0.59,1.005c-0.001,0.365-0.262,0.514-0.594,0.322
									l-13.986-8.075c-0.318-0.183-0.576-0.632-0.575-0.997c0.001-0.364,0.262-0.513,0.579-0.33L182.593,104.397z" class="color2d3a74 svgShape"></path></g></g></g><g fill="#010001" class="color000000 svgShape"><g fill="#010001" class="color000000 svgShape"><path fill="#93c8fd" d="M158.471,139.382c0.512,0.296,0.923,1.012,0.921,1.601l-0.03,10.451
								c-0.002,0.584-0.415,0.824-0.928,0.529l-9.095-5.251c-0.512-0.296-0.923-1.012-0.922-1.596l0.03-10.451
								c0.002-0.589,0.415-0.829,0.927-0.533L158.471,139.382z" class="colorfd93bf svgShape"></path></g><g fill="#010001" class="color000000 svgShape"><path fill="#8982ed" d="M172.753,147.629c0.512,0.296,0.923,1.012,0.921,1.601l-0.03,10.451
								c-0.002,0.584-0.415,0.824-0.927,0.529l-9.095-5.251c-0.512-0.296-0.923-1.012-0.922-1.596l0.03-10.451
								c0.002-0.589,0.415-0.829,0.927-0.533L172.753,147.629z" class="color8294ed svgShape"></path></g><g fill="#010001" class="color000000 svgShape"><path fill="#7873bc" d="M187.034,155.876c0.512,0.296,0.923,1.012,0.921,1.601l-0.03,10.451
								c-0.002,0.584-0.415,0.824-0.927,0.529l-9.095-5.251c-0.512-0.296-0.923-1.012-0.921-1.596l0.03-10.451
								c0.002-0.589,0.415-0.829,0.927-0.533L187.034,155.876z" class="color73bc9c svgShape"></path></g><g fill="#010001" class="color000000 svgShape"><path fill="#9fb8d1" d="M201.315,164.123c0.512,0.296,0.923,1.012,0.921,1.601l-0.03,10.451
								c-0.002,0.584-0.415,0.824-0.927,0.529l-9.095-5.251c-0.512-0.296-0.923-1.012-0.921-1.596l0.03-10.451
								c0.002-0.589,0.415-0.829,0.927-0.533L201.315,164.123z" class="colord19f9f svgShape"></path></g><g fill="#010001" class="color000000 svgShape"><path fill="#5046e4" d="M158.471,156.656c0.512,0.296,0.923,1.012,0.921,1.601l-0.03,10.451
								c-0.002,0.584-0.415,0.824-0.928,0.529l-9.095-5.251c-0.512-0.296-0.923-1.012-0.922-1.596l0.03-10.451
								c0.002-0.589,0.415-0.829,0.927-0.533L158.471,156.656z" class="color4a5f93 svgShape"></path></g><g fill="#010001" class="color000000 svgShape"><path fill="#9fb8d1" d="M172.753,164.902c0.512,0.296,0.923,1.012,0.921,1.601l-0.03,10.451
								c-0.002,0.584-0.415,0.824-0.927,0.529l-9.095-5.251c-0.512-0.296-0.923-1.012-0.922-1.596l0.03-10.451
								c0.002-0.589,0.415-0.829,0.927-0.533L172.753,164.902z" class="colord19f9f svgShape"></path></g><g fill="#010001" class="color000000 svgShape"><path fill="#93c8fd" d="M187.034,173.149c0.512,0.296,0.923,1.012,0.921,1.601l-0.03,10.451
								c-0.002,0.584-0.415,0.824-0.927,0.529l-9.095-5.251c-0.512-0.296-0.923-1.012-0.921-1.596l0.03-10.451
								c0.002-0.589,0.415-0.829,0.927-0.533L187.034,173.149z" class="colorfd93bf svgShape"></path></g><g fill="#010001" class="color000000 svgShape"><path fill="#5046e4" d="M201.315,181.396c0.512,0.296,0.923,1.012,0.921,1.601l-0.03,10.451
								c-0.002,0.584-0.415,0.824-0.927,0.529l-9.095-5.251c-0.512-0.296-0.923-1.012-0.921-1.596l0.03-10.451
								c0.002-0.589,0.415-0.829,0.927-0.533L201.315,181.396z" class="color4a5f93 svgShape"></path></g><g fill="#010001" class="color000000 svgShape"><path fill="#8982ed" d="M158.471,173.929c0.512,0.296,0.923,1.012,0.921,1.601l-0.03,10.451
								c-0.002,0.584-0.415,0.824-0.928,0.529l-9.095-5.251c-0.512-0.296-0.923-1.012-0.922-1.596l0.03-10.451
								c0.002-0.589,0.415-0.829,0.927-0.533L158.471,173.929z" class="color8294ed svgShape"></path></g><g fill="#010001" class="color000000 svgShape"><path fill="#5046e4" d="M172.753,182.176c0.512,0.296,0.923,1.012,0.921,1.601l-0.03,10.451
								c-0.002,0.584-0.415,0.824-0.927,0.529l-9.095-5.251c-0.512-0.296-0.923-1.012-0.922-1.596l0.03-10.451
								c0.002-0.589,0.415-0.829,0.927-0.533L172.753,182.176z" class="color4a5f93 svgShape"></path></g><g fill="#010001" class="color000000 svgShape"><path fill="#8982ed" d="M187.034,190.423c0.512,0.296,0.923,1.012,0.921,1.601l-0.03,10.451
								c-0.002,0.584-0.415,0.824-0.927,0.529l-9.095-5.251c-0.512-0.296-0.923-1.012-0.921-1.596l0.03-10.451
								c0.002-0.589,0.415-0.829,0.927-0.533L187.034,190.423z" class="color8294ed svgShape"></path></g><g fill="#010001" class="color000000 svgShape"><path fill="#7873bc" d="M201.315,198.67c0.512,0.296,0.923,1.012,0.921,1.601l-0.03,10.451
								c-0.002,0.584-0.415,0.824-0.927,0.528l-9.095-5.251c-0.512-0.296-0.923-1.012-0.921-1.596l0.03-10.451
								c0.002-0.589,0.415-0.829,0.927-0.533L201.315,198.67z" class="color73bc9c svgShape"></path></g></g><g fill="#010001" class="color000000 svgShape"><g fill="#010001" class="color000000 svgShape"><path fill="#f4f6f8" d="M186.729,117.002c1.273,0.735,2.294,2.515,2.29,3.978l-0.074,25.97
								c-0.004,1.45-1.032,2.048-2.305,1.314l-22.6-13.048c-1.273-0.735-2.294-2.516-2.29-3.966l0.074-25.97
								c0.004-1.462,1.032-2.06,2.305-1.325L186.729,117.002z" class="colorf7d7e1 svgShape"></path></g><g fill="#010001" class="color000000 svgShape"><path fill="#e576d1" d="M179.226,119.925c2.838,1.638,5.136,5.619,5.127,8.883c-0.022,7.83-9.076,7.896-9.552,7.9
								c-0.475-0.553-9.496-11.054-9.474-18.885c0.009-3.264,2.314-4.587,5.16-2.944c1.841,1.063,3.458,3.112,4.361,5.317
								C175.753,119.036,177.376,118.857,179.226,119.925z" class="colore576ad svgShape"></path><path fill="#ffffff" d="M174.141,121.078c0.123,0.069,0.204,0.182,0.238,0.3l2.347,8.178l0.739-2.31
								c0.026-0.083,0.1-0.112,0.19-0.073c0.109,0.061,0.183,0.151,0.223,0.253l0.925,2.285l5.792,3.344
								c0.127,0.074,0.229,0.25,0.229,0.393c0,0.146-0.103,0.205-0.23,0.131l-5.92-3.418c-0.079-0.046-0.153-0.134-0.195-0.237
								l-0.727-1.799l-0.779,2.443c-0.031,0.089-0.114,0.117-0.21,0.064c-0.106-0.061-0.188-0.173-0.223-0.295l-2.288-7.968
								l-1.271,7.632c-0.02,0.106-0.103,0.15-0.205,0.1c-0.116-0.064-0.204-0.183-0.238-0.303l-1.604-5.789l-0.727,1.126
								c-0.04,0.062-0.117,0.07-0.202,0.021l-4.922-2.842c-0.128-0.074-0.229-0.25-0.229-0.396c0-0.143,0.103-0.202,0.23-0.128
								l4.786,2.763l0.898-1.396c0.04-0.063,0.113-0.072,0.2-0.022c0.106,0.068,0.183,0.178,0.216,0.292l1.486,5.362l1.268-7.611
								C173.957,121.073,174.039,121.032,174.141,121.078z" class="colorffffff svgShape"></path></g></g></g><g fill="#010001" class="color000000 svgShape"><g fill="#010001" class="color000000 svgShape"><path fill="#93c8fd" d="M158.857,87.736c-0.01,4.269-1.523,7.274-3.958,8.687l-4.875,2.837
							c2.435-1.412,3.948-4.418,3.958-8.697c0.02-8.606-6.032-19.077-13.516-23.395c-3.767-2.184-7.184-2.384-9.649-0.952
							l4.885-2.836c2.465-1.433,5.871-1.223,9.649,0.952C152.835,68.649,158.887,79.12,158.857,87.736z" class="colorfd93bf svgShape"></path></g><ellipse cx="140.425" cy="82.74" fill="#e576d1" rx="11.068" ry="19.108" transform="rotate(-30.163 140.416 82.731)" class="colore576ad svgShape"></ellipse><polygon fill="#ffffff" points="148.252 84.713 148.239 89.729 142.654 86.495 142.628 93.255 138.166 90.668 138.192 83.921 132.594 80.699 132.607 75.683 138.205 78.904 138.218 72.224 142.681 74.798 142.667 81.492" class="colorffffff svgShape"></polygon></g></g><g fill="#010001" class="color000000 svgShape"><g fill="#010001" class="color000000 svgShape"><g fill="#010001" class="color000000 svgShape"><g fill="#010001" class="color000000 svgShape"><path fill="#93c8fd" d="M129.825,146.246l-0.073,16.198c-0.009,1.011-0.364,1.73-0.947,2.067l-2.339,1.355
								c0.583-0.337,0.938-1.057,0.947-2.067l0.073-16.197c0-2.058-1.439-4.544-3.224-5.573l-46.698-26.965
								c-0.902-0.519-1.712-0.564-2.304-0.228l2.339-1.355c0.592-0.337,1.402-0.291,2.304,0.228l46.698,26.964
								C128.386,141.701,129.825,144.197,129.825,146.246z" class="colorfd93bf svgShape"></path></g><g fill="#010001" class="color000000 svgShape"><path fill="#e576d1" d="M124.261,142.024c1.785,1.031,3.228,3.523,3.222,5.574l-0.071,16.198
								c-0.006,2.045-1.458,2.872-3.243,1.842l-46.699-26.962c-1.779-1.027-3.222-3.526-3.216-5.571l0.071-16.198
								c0.006-2.051,1.458-2.872,3.237-1.845L124.261,142.024z" class="colore576ad svgShape"></path></g></g></g><g fill="#010001" class="color000000 svgShape"><polygon fill="#ffffff" points="124.177 149.958 124.171 152.29 100.118 138.403 100.124 136.071" class="colorffffff svgShape"></polygon></g><g fill="#010001" class="color000000 svgShape"><polygon fill="#ffffff" points="114.938 150.934 114.932 153.266 100.1 144.703 100.106 142.371" class="colorffffff svgShape"></polygon></g><g fill="#010001" class="color000000 svgShape"><g fill="#010001" class="color000000 svgShape"><path fill="#ffffff" d="M90.154,126.979c2.218,1.28,4.014,4.392,4.007,6.943c-0.017,6.12-7.094,6.172-7.466,6.174
							c-0.371-0.432-7.422-8.64-7.405-14.76c0.007-2.551,1.809-3.585,4.033-2.301c1.439,0.831,2.703,2.432,3.408,4.156
							C87.44,126.284,88.709,126.145,90.154,126.979z" class="colorffffff svgShape"></path><path fill="#443f8c" d="M86.161,128.089c0.099,0.056,0.165,0.147,0.192,0.243l1.899,6.616l0.598-1.869
							c0.021-0.067,0.081-0.091,0.154-0.059c0.088,0.049,0.148,0.122,0.181,0.205l0.748,1.849l4.686,2.705
							c0.103,0.06,0.186,0.202,0.185,0.318c0,0.118-0.083,0.166-0.186,0.106l-4.789-2.765c-0.064-0.037-0.124-0.108-0.158-0.191
							l-0.588-1.456l-0.63,1.977c-0.025,0.072-0.092,0.095-0.17,0.052c-0.086-0.049-0.152-0.14-0.181-0.239l-1.851-6.446
							l-1.028,6.175c-0.016,0.085-0.083,0.121-0.166,0.081c-0.094-0.052-0.165-0.148-0.192-0.246l-1.298-4.684l-0.588,0.911
							c-0.032,0.05-0.094,0.056-0.163,0.017l-3.982-2.299c-0.103-0.06-0.186-0.202-0.185-0.321c0-0.116,0.083-0.163,0.186-0.104
							l3.872,2.236l0.727-1.13c0.033-0.051,0.092-0.058,0.162-0.018c0.086,0.055,0.148,0.144,0.175,0.236l1.202,4.338l1.026-6.158
							C86.012,128.085,86.078,128.053,86.161,128.089z" class="color3f528c svgShape"></path></g></g></g><g fill="#010001" class="color000000 svgShape"><g fill="#010001" class="color000000 svgShape"><g fill="#010001" class="color000000 svgShape"><path fill="#93c8fd" d="M260.645,143.419l-0.075,30.18c0,0.848-0.301,1.432-0.772,1.715l-3.873,2.253
							c0.471-0.283,0.773-0.886,0.773-1.715l0.094-30.18c0-1.715-1.187-3.787-2.675-4.634l-26.262-15.166
							c-0.735-0.432-1.413-0.471-1.903-0.188l3.873-2.253c0.49-0.282,1.149-0.226,1.903,0.189l26.262,15.165
							C259.477,139.651,260.664,141.723,260.645,143.419z" class="colorfd93bf svgShape"></path></g></g></g><g fill="#010001" class="color000000 svgShape"><path fill="#a50b89" d="M254.121,141.04c1.479,0.854,2.666,2.924,2.661,4.624l-0.086,30.186
					c-0.005,1.686-1.199,2.381-2.679,1.527l-26.269-15.167c-1.479-0.854-2.666-2.924-2.662-4.61l0.086-30.186
					c0.005-1.7,1.199-2.394,2.679-1.54L254.121,141.04z" class="colord363a1 svgShape"></path></g><path fill="#ffffff" d="M239.463,140.752c0.259,0.146,0.43,0.384,0.501,0.633l4.95,17.249l1.558-4.872
				c0.054-0.175,0.21-0.237,0.401-0.153c0.23,0.128,0.387,0.319,0.472,0.534l1.95,4.82l4.157,2.4
				c0.269,0.155,0.483,0.527,0.483,0.829c-0.001,0.309-0.217,0.432-0.486,0.277l-4.426-2.555c-0.167-0.097-0.322-0.282-0.412-0.499
				l-1.534-3.796l-1.643,5.154c-0.066,0.189-0.24,0.246-0.443,0.136c-0.224-0.129-0.396-0.364-0.471-0.623l-4.826-16.806
				l-2.68,16.098c-0.043,0.223-0.217,0.316-0.432,0.212c-0.245-0.135-0.43-0.386-0.501-0.64l-3.384-12.21l-1.533,2.375
				c-0.084,0.13-0.246,0.147-0.425,0.044l-2.322-1.341c-0.269-0.155-0.483-0.527-0.483-0.836c0.001-0.302,0.217-0.425,0.486-0.27
				l2.035,1.175l1.894-2.945c0.085-0.133,0.239-0.152,0.422-0.046c0.224,0.144,0.385,0.375,0.456,0.615l3.135,11.31l2.674-16.053
				C239.074,140.741,239.248,140.656,239.463,140.752z" class="colorffffff svgShape"></path><g fill="#010001" class="color000000 svgShape"><g fill="#010001" class="color000000 svgShape"><path fill="#83baf2" d="M199.945,80.298l-12.267,6.011c-1.554,0.778-3.435,0.123-4.212-1.431l-6.011-12.267
						c-0.757-1.554-0.123-3.435,1.431-4.212l12.267-6.011c1.554-0.757,3.435-0.123,4.212,1.431l6.011,12.267
						C202.153,77.641,201.499,79.522,199.945,80.298z" class="colorf283b5 svgShape"></path></g><g fill="#010001" class="color000000 svgShape"><path fill="#b5cee7" d="M212.391,84.823l-11.454,5.624c-1.456,0.715-3.223,0.112-3.939-1.344l-5.624-11.455
						c-0.715-1.457-0.112-3.223,1.345-3.939l11.454-5.624c1.456-0.715,3.223-0.112,3.939,1.345l5.624,11.455
						C214.45,82.341,213.847,84.108,212.391,84.823z M193.83,75.973c-0.208,0.102-0.294,0.355-0.192,0.563l5.624,11.455
						c0.102,0.208,0.354,0.294,0.563,0.192l11.454-5.624c0.208-0.102,0.294-0.355,0.192-0.563l-5.624-11.455
						c-0.102-0.208-0.354-0.294-0.563-0.192L193.83,75.973z" class="colore7b8b5 svgShape"></path></g><g fill="#010001" class="color000000 svgShape"><path fill="#938cf7" d="M277.018,188.745l-5.367,4.688c-0.682,0.596-1.723,0.526-2.319-0.157l-4.688-5.367
						c-0.596-0.682-0.526-1.723,0.157-2.319l5.367-4.688c0.682-0.596,1.723-0.526,2.319,0.157l4.688,5.367
						C277.771,187.108,277.701,188.148,277.018,188.745z M265.728,186.651c-0.097,0.085-0.107,0.234-0.022,0.331l4.688,5.367
						c0.085,0.097,0.234,0.107,0.331,0.022l5.367-4.688c0.098-0.085,0.108-0.234,0.022-0.331l-4.688-5.367
						c-0.085-0.097-0.234-0.108-0.331-0.022L265.728,186.651z" class="color8ca8f7 svgShape"></path></g><path fill="#9fb8d1" d="M64.473,190.457c0.974,4.394-2.854,8.222-7.248,7.248c-2.214-0.491-4.001-2.278-4.492-4.492
					c-0.974-4.394,2.854-8.222,7.248-7.248C62.195,186.456,63.982,188.243,64.473,190.457z" class="colord19f9f svgShape"></path><path fill="#938cf7" d="M90.505 40.25c.974 4.394-2.854 8.222-7.248 7.248-2.214-.491-4.001-2.278-4.492-4.492-.974-4.394 2.854-8.222 7.248-7.248C88.227 36.249 90.014 38.036 90.505 40.25zM203.351 253.588c.404 2.635-1.834 4.873-4.469 4.469-1.642-.251-2.984-1.594-3.236-3.236-.404-2.635 1.834-4.873 4.469-4.469C201.758 250.604 203.1 251.946 203.351 253.588z" class="color8ca8f7 svgShape"></path><path fill="#ffffff" d="M172.04,237.967c0.404,2.635-1.834,4.873-4.469,4.469c-1.642-0.251-2.984-1.594-3.236-3.236
					c-0.404-2.635,1.834-4.873,4.469-4.469C170.446,234.982,171.789,236.325,172.04,237.967z" class="colorffffff svgShape"></path><path fill="#83baf2" d="M118.029 64.473c.389 2.538-1.766 4.693-4.305 4.305-1.582-.242-2.875-1.535-3.117-3.117-.389-2.538 1.766-4.694 4.305-4.305C116.493 61.598 117.786 62.891 118.029 64.473zM68.92 178.64c.425 2.24-1.503 4.168-3.743 3.743-1.244-.236-2.262-1.254-2.498-2.498-.425-2.24 1.503-4.168 3.743-3.743C67.667 176.377 68.685 177.395 68.92 178.64z" class="colorf283b5 svgShape"></path></g></g></g><g fill="#010001" class="color000000 svgShape"><path fill="#8cadcf" d="M123.192,213.504l-6.965-3.895c-0.886-0.495-1.203-1.619-0.708-2.505l3.895-6.966
			c0.495-0.886,1.619-1.203,2.505-0.708l6.965,3.895c0.886,0.495,1.204,1.619,0.708,2.505l-3.895,6.966
			C125.201,213.681,124.077,213.999,123.192,213.504z M121.148,200.807c-0.127-0.071-0.287-0.025-0.358,0.101l-3.895,6.966
			c-0.071,0.127-0.025,0.287,0.101,0.358l6.965,3.895c0.127,0.071,0.287,0.025,0.358-0.101l3.895-6.966
			c0.071-0.126,0.025-0.287-0.101-0.358L121.148,200.807z" class="color8ccfb1 svgShape"></path></g></g></svg>