<svg xmlns="http://www.w3.org/2000/svg" enable-background="new 0 0 316.84 293.71" viewBox="0 0 316.84 293.71" id="Onlinemedicalconsultant"><g fill="#010001" class="color000000 svgShape"><g fill="#010001" class="color000000 svgShape"><g fill="#010001" class="color000000 svgShape"><g fill="#010001" class="color000000 svgShape"><g fill="#010001" class="color000000 svgShape"><g fill="#010001" class="color000000 svgShape"><path fill="#5046e4" d="M206.961,100.312l-0.265,95.705c0,2.182-0.766,3.715-2.004,4.451l-4.357,2.523
							c1.268-0.737,2.034-2.27,2.034-4.45l0.236-95.737c0.029-4.362-3.065-9.697-6.868-11.908l-42.798-24.7
							c-1.916-1.12-3.655-1.209-4.893-0.472l4.327-2.522c1.268-0.737,3.007-0.619,4.922,0.471l42.769,24.701
							C203.895,90.585,206.961,95.919,206.961,100.312z" class="color4a5f93 svgShape"></path></g><g fill="#010001" class="color000000 svgShape"><path fill="#f4f6f8" d="M195.723,90.895c3.82,2.206,6.896,7.555,6.884,11.923l-0.238,95.715
							c-0.012,4.368-3.109,6.176-6.929,3.97l-42.775-24.696c-3.82-2.206-6.896-7.577-6.884-11.945l0.238-95.715
							c0.012-4.368,3.109-6.154,6.929-3.948L195.723,90.895z" class="color2d3a74 svgShape"></path></g><g fill="#010001" class="color000000 svgShape"><g fill="#010001" class="color000000 svgShape"><path fill="#5046e4" d="M176.886,182.266c1.385,0.8,2.467,2.673,2.462,4.264c-0.004,1.592-1.093,2.212-2.478,1.412
								l-7.71-4.452c-1.379-0.796-2.461-2.669-2.456-4.261c0.004-1.591,1.093-2.212,2.472-1.416L176.886,182.266z" class="color4a5f93 svgShape"></path></g><g fill="#010001" class="color000000 svgShape"><path fill="#5046e4" d="M180.147,85.889c0.335,0.193,0.599,0.658,0.598,1.043s-0.267,0.536-0.602,0.343l-13.672-7.894
								c-0.335-0.193-0.599-0.652-0.598-1.036c0.001-0.385,0.268-0.543,0.602-0.35L180.147,85.889z" class="color4a5f93 svgShape"></path></g><g fill="#010001" class="color000000 svgShape"><path fill="#5046e4" d="M163.198,76.103c0.335,0.193,0.605,0.661,0.604,1.046s-0.273,0.533-0.608,0.34
								c-0.329-0.19-0.599-0.652-0.598-1.036C162.597,76.068,162.869,75.913,163.198,76.103z" class="color4a5f93 svgShape"></path></g><g fill="#010001" class="color000000 svgShape"><path fill="#5046e4" d="M160.826,74.734c0.329,0.19,0.599,0.658,0.598,1.043c-0.001,0.385-0.273,0.533-0.602,0.343
								c-0.335-0.193-0.605-0.655-0.604-1.039S160.491,74.54,160.826,74.734z" class="color4a5f93 svgShape"></path></g></g></g></g><g fill="#010001" class="color000000 svgShape"><polygon fill="#b7dbff" points="149.471 163.364 198.879 134.349 198.688 191.782" class="colorb7ceff svgShape"></polygon><polygon fill="#8982ed" points="149.696 72.828 149.46 163.376 198.879 134.349 198.949 101.243" class="color8294ed svgShape"></polygon></g><g fill="#010001" class="color000000 svgShape"><g fill="#010001" class="color000000 svgShape"><g fill="#010001" class="color000000 svgShape"><g fill="#010001" class="color000000 svgShape"><g fill="#010001" class="color000000 svgShape"><g fill="#010001" class="color000000 svgShape"><path fill="#b5cee7" d="M154.158,120.761c0.932,0.192,1.711,0.185,2.34-0.356c-0.501-0.26-0.945-0.6-1.206-0.784
										c-0.146-0.164-0.256-0.333-0.266-0.555c0.034-0.19,0.227-0.331,0.401-0.21c0.37,0.167,0.857,0.539,1.246,0.444
										c0.388-0.097,1.025,0.103,1.461,0.41c0.29,0.141,0.629,0.164,0.93,0.007c0.293-0.151,0.629-0.323,0.988-0.504l0.446,2.108
										c-0.233,0.043-0.414,0.082-0.514,0.115c-0.417,0.136-0.783,0.34-1.14,0.582c-1.043,0.864-2.122,0.507-2.122,0.507
										C155.265,122.303,153.413,120.577,154.158,120.761z" class="colore7b8b5 svgShape"></path></g></g></g></g><path fill="#f4f6f8" d="M159.259,119.618c2.092-1.074,5.891-2.942,7.205-3.032c2.601-0.174,1.803-5.202,1.75-5.452
						c-0.064-0.2-0.109-0.423-0.136-0.662c-0.411-3.575,2.014-8.974,6.691-5.034l0.291,0.09c0.064,1.319,0.037,3.554-0.077,5.284
						c-0.421,2.216-1.144,3.908-2.242,6.778c-0.772,2.018-2.734,3.27-4.947,3.21c-3.28-0.089-7.149,0.425-7.807,0.637
						c-0.11,0.036-0.21,0.088-0.314,0.133C159.108,121.067,158.908,120.439,159.259,119.618z" class="coloreaeffa svgShape"></path></g><g fill="#010001" class="color000000 svgShape"><g fill="#010001" class="color000000 svgShape"><g fill="#010001" class="color000000 svgShape"><g fill="#010001" class="color000000 svgShape"><path fill="#632363" d="M181.728 168.46c-.282-.516-4.663-.719-4.663-.719s-.984 1.651-1.887 2.276c-.903.625-3.614 2.791-2.157 3.494 1.458.703 4.176.897 5.197-.663.999-1.527 1.853-1.7 2.43-1.682.046.001.09-.005.129-.021.234-.094 1.097-.46 1.286-.856.026-.055.03-.119.016-.187C182.017 169.799 181.967 168.897 181.728 168.46zM172.477 167.38c.242-.095 1.137-.467 1.356-.867.03-.054.038-.12.029-.189-.04-.306.058-1.672-.151-2.114-.247-.521-4.727-.269-4.727-.269s-1.108 1.67-2.062 2.303c-.954.633-3.833 2.833-2.416 3.542 1.417.71 4.14.903 5.278-.675 1.115-1.545 1.982-1.728 2.562-1.711C172.393 167.402 172.437 167.396 172.477 167.38z" class="color233163 svgShape"></path></g><path fill="#f4f6f8" d="M177.293,132.318c0,0-8.563,0.471-8.599,0.791c-0.123,1.102,0.013,1.696-0.007,2.22
								c-0.05,1.277-0.32,4.999-0.561,8.189c-0.245,3.245-0.17,6.504,0.253,9.73c0.527,4.017,1.1,9.406,0.562,10.56
								c0,0,1.198,2.068,4.277,1c0.227-0.074,0.378-0.225,0.454-0.432C174.094,162.947,178.779,137.799,177.293,132.318z" class="color2d3a74 svgShape"></path><path fill="#443f8c" d="M174.84,148.071c-0.227-3.603-0.28-8.435-1.387-11.919c-0.247-0.78-0.437-1.387-0.491-1.59
								c0.495,0.1,0.993,0.21,1.475,0.254c3.716,0.344,8.372-0.81,9.631-1.347c1.001,10.881-1.922,33.46-2.265,34.835
								c-0.064,0.199-0.206,0.343-0.428,0.414c-3.007,1.016-4.31-0.977-4.31-0.977c0.775-1.812-1.823-14.558-1.959-16.046
								C175.048,151.125,174.942,149.683,174.84,148.071z" class="color3f528c svgShape"></path><g fill="#010001" class="color000000 svgShape"><g fill="#010001" class="color000000 svgShape"><g fill="#010001" class="color000000 svgShape"><g fill="#010001" class="color000000 svgShape"><g fill="#010001" class="color000000 svgShape"><g fill="#010001" class="color000000 svgShape"><path fill="#9fb8d1" d="M178.525,102.885l0.03,1.299c0,0,0.396,4.824-3.516,4.463c0,0-1.917-2.356-1.562-4.852
														C173.832,101.298,178.525,102.885,178.525,102.885z" class="colord19f9f svgShape"></path><path fill="#7873bc" d="M178.555,104.184c-0.92,2.155-2.159,2.929-2.765,3.19
														c-0.209,0.09-0.458,0.094-0.667-0.019c-1.916-1.036-1.646-3.561-1.646-3.561c-1.988,1.598-3.08,9.972-3.143,10.225
														c-0.063,0.253,0.554,22.898,0.554,22.898c3.895,2.383,6.634,1.481,6.634,1.481s1.363-27.119,1.888-28.887
														C179.935,107.743,178.555,104.184,178.555,104.184z" class="color73bc9c svgShape"></path><g fill="#010001" class="color000000 svgShape"><path fill="#ffffff" d="M178.555 104.184c0 0 .124 3.046-3.182 8.102-3.02 4.618.444 28.36.444 28.36s5.288 2.323 8.753-1.084c1.368-1.893-2.109-20.038-2.027-22.707.124-4.034 5.825-5.601 3.322-8.507C185.094 107.45 179.884 105.275 178.555 104.184zM173.882 104.021c0 0-5.336-1.405-5.349 5.006-.013 6.021-.184 21.572-1.068 26.695-.124.72.076 1.485.619 2.018.573.563 3.631 1.805 4.884 1.879 0 0 .176-16.864-.697-21.648-.662-3.628-.005-8.891.868-11.882C173.417 105.136 173.595 104.387 173.882 104.021z" class="colorffffff svgShape"></path></g><g fill="#010001" class="color000000 svgShape"><path fill="#443f8c" d="M178.809,110.479c0.119,0.181,0.188,0.385,0.181,0.586
															c-0.019,0.552-0.462,0.99-1.015,0.971c-0.553-0.019-0.989-0.488-0.97-1.04c0.018-0.528,0.486-0.965,1.039-0.945
															c0.151,0.005,0.301,0.035,0.424,0.116c2.648-3.103,0.178-5.856,0.082-5.986l0.337-0.289
															C178.911,103.916,181.719,107.084,178.809,110.479z" class="color3f528c svgShape"></path><path fill="#ffffff" d="M178.021,110.583c-0.252-0.009-0.463,0.187-0.472,0.44
															c-0.009,0.252,0.188,0.463,0.44,0.472c0.252,0.009,0.463-0.189,0.472-0.44
															C178.469,110.803,178.272,110.591,178.021,110.583z" class="colorffffff svgShape"></path></g><path fill="#443f8c" d="M174.43,110.175l-0.371,1.863l0.102,0c0.077,0,0.144,0.053,0.143,0.122
														c-0.001,0.077-0.07,0.131-0.147,0.131l-0.63,0.003c-0.077,0-0.144-0.053-0.143-0.13
														c0.001-0.069,0.07-0.123,0.147-0.124l0.145-0.001l0.389-1.917c0.13-0.646-0.063-1.307-0.531-1.812
														c-0.46-0.498-1.144-0.786-1.876-0.783c-0.723,0.004-1.417,0.299-1.902,0.801c-0.476,0.51-0.692,1.172-0.583,1.818
														l0.317,1.914l0.153-0.001c0.077,0,0.135,0.053,0.134,0.123c-0.001,0.077-0.062,0.131-0.138,0.131l-0.63,0.003
														c-0.085,0-0.144-0.053-0.142-0.13c0.001-0.069,0.061-0.123,0.147-0.124l0.102-0.001l-0.318-1.86
														c-0.124-0.746,0.127-1.508,0.673-2.087c0.485-0.51,1.154-0.829,1.87-0.909c-0.263-0.545,1.257-4.262,4.015-3.981
														l0.333,0.197c-3.364,0.004-4.045,3.467-3.872,3.774c0.782,0.027,1.508,0.354,2.01,0.898
														C174.362,108.668,174.579,109.428,174.43,110.175z" class="color3f528c svgShape"></path><path fill="#b5cee7" d="M172.723,98.251c0,0-0.902,8.821,3.69,7.259c2.902-0.987,3.396-2.365,3.944-3.788
														c0.183-0.474,0.244-0.667,0.377-1.572C180.734,100.15,175.296,92.432,172.723,98.251z" class="colore7b8b5 svgShape"></path></g><path fill="#f4f6f8" d="M171.717,94.804c0.848-0.912,2.593,0.33,6.427,0.059c4.134-0.29,3.111,6.783,1.53,8.365
													c0.05-0.165,0.469-1.56,0.586-2.607c0.037-0.384-0.314-0.678-0.66-0.574c-0.423,0.144-0.804,0.597-0.901,1.681
													l-0.556,0.006c0,0,1.867-4.797-4.85-3.516c-0.064,0.005-0.393,0.09-0.457,0.083c-0.176,0.673-0.181,1.997-0.181,1.997
													c-0.409-0.721-0.403-1.577-0.362-2.324C171.511,97.243,170.89,95.695,171.717,94.804z" class="color2d3a74 svgShape"></path></g></g></g></g></g></g></g></g><g fill="#010001" class="color000000 svgShape"><path fill="#b5cee7" d="M176.21,125.944c-0.044,0.013-0.617,0.311-0.952,0.251c-0.335-0.06-0.726-0.678-2.596-0.44
						c-1.274,0.147-1.972,0.308-2.287,0.396c-0.115,0.032-0.142,0.176-0.053,0.261c0.068,0.065,0.161,0.137,0.284,0.199
						c0.318,0.197,0.872,0.341,1.711,0.051c0.105-0.036,0.227,0.016,0.262,0.124c0.068,0.21-0.005,0.572-0.999,0.906
						c-1.502,0.533-2.018,1.222-2.044,1.259c0,0,0.008,0.106,0.146,0.195c0.16,0.091,0.518,0.134,1.242-0.179
						c-0.047,0.034-1.269,0.722-0.869,0.941c0.078,0.056,0.204,0.078,0.439,0.078c0,0,0.131-0.019,0.531-0.306
						c-0.215,0.172-0.531,0.474-0.372,0.566c0.081,0.035,0.206,0.057,0.45-0.004c0.876-0.16,1.195-0.314,1.29-0.382
						c-0.107,0.17-0.375,0.587-0.176,0.706c0.081,0.035,0.23,0.041,0.494-0.018c0.933-0.241,2.673-1.104,3.289-2.36
						c0.172-0.351,0.479-0.613,0.863-0.708l0.316-0.078L176.21,125.944z" class="colore7b8b5 svgShape"></path><path fill="#f4f6f8" d="M187.016,110.584c0,0-0.307-3.552-3.553-2.685c-2.521,0.674-1.849,8.424-1.423,11.85
						c0.123,0.996-0.355,1.926-1.218,2.392l-5.134,3.682c0,0,0.738,0.384,1.34,2.087l8.22-3.737
						c0.683-0.361,1.146-1.023,1.235-1.799C186.831,119.3,187.214,112.063,187.016,110.584z" class="coloreaeffa svgShape"></path></g></g></g><g fill="#010001" class="color000000 svgShape"><g fill="#010001" class="color000000 svgShape"><path fill="#6560ad" d="M104.7,163.827l-8.813,1.156c-3.271-1.849-6.273-3.811-6.658-5.273
					c-0.577-2.041-1.347-3.386-1.809-4.888c-1.27-2.655-2.81-6.312-3.118-7.66c-0.924-4.08,0.5-7.427,2.81-9.045
					c2.348-1.616,6.735,0.693,7.659,4.811c0.346,1.501,1.231,5.773,1.462,9.122c-0.115,0.271-0.308,0.462-0.5,0.693
					c-0.231,1.462-0.27,4.117,2.194,5.696c2.424,1.539,4.811,3.155,6.697,5.311C104.661,163.79,104.7,163.79,104.7,163.827z" class="color60ad88 svgShape"></path><path fill="#443f8c" d="M117.402 226.223c-1.513-.544-4.84-1.753-8.438-.002-6.977 3.4-7.904 2.735-7.904 2.735s-2.338 9.913 3.154 7.73c4.152-1.649 9.993-5.663 13.429-7.901C118.624 228.145 118.504 226.619 117.402 226.223zM107.11 219.14c-1.513-.544-4.84-1.753-8.438-.002-6.977 3.4-7.904 2.735-7.904 2.735s-2.339 9.913 3.154 7.73c4.152-1.649 9.993-5.663 13.429-7.901C108.332 221.063 108.212 219.537 107.11 219.14z" class="color3f528c svgShape"></path><g fill="#010001" class="color000000 svgShape"><path fill="#e576d1" d="M101.475,175.582c-4.36-1.494-8.214-3.627-8.214-3.627s-1.198,0.863-1.828,1.891
						c-1.526,2.488-3.488,6.309-0.155,20.335c2.695,11.341-1.588,15.889-0.51,27.694c0,0,5.175,3.024,8.104-2.541
						c0,0-0.305-11.052,0.489-14.203c0.175-0.695,1.082-8.979,2.147-12.613C103.978,192.369,99.245,181.165,101.475,175.582z" class="colore576ad svgShape"></path><path fill="#83baf2" d="M113.128,174.759c-1.765,3.277-6.998,2.415-11.653,0.823
						c-4.916,5.739,0.031,16.932,0.033,16.936c0,0,0,0,0-0.002c0.503,2.473,0.788,4.854,0.946,9.281
						c0.139,3.905,0.073,6.429-0.205,10.326c-0.545,7.632-1.189,16.832-1.189,16.832c6.729,2.58,9.085-1.791,9.085-1.791
						l0.268-11.95c0.102-5.548,0.221-9.853,1.659-15.212C117.832,178.534,113.128,174.759,113.128,174.759z" class="colorf283b5 svgShape"></path></g><polygon fill="#b3cae2" points="99.94 136.633 99.396 138.867 92.404 139.679 91.256 136.785 92.529 132.463 99.635 132.808" class="colore2b3c7 svgShape"></polygon><path fill="#8cadcf" d="M106.357,138.917c-3.054-0.634-6.417-2.284-6.417-2.284s-4.259,2.551-8.684,0.152
					c0,0-6.478,0.099-5.795,5.38c0.684,5.29,0.908,5.749,4.663,13.632c4.332,9.093,0.212,16.978,0.151,20.015
					c0,0,14.719,8.069,24.679,2.809c0,0-1.347-4.059-2.239-7.719c-0.674-2.742-1.936-8.137-1.615-10.866
					C111.634,155.496,109.412,139.551,106.357,138.917z" class="color8ccfb1 svgShape"></path></g><g fill="#010001" class="color000000 svgShape"><g fill="#010001" class="color000000 svgShape"><path fill="#b3cae2" d="M99.974,119.982c0,0-8.258,3.021-8.264,3.178c-0.006,0.157-2.228,12.461,4.016,12.752
						c2.251,0.105,6.362,1.383,6.935-0.524c1.016-3.383-0.24-13.619-0.598-15.146C101.504,117.855,99.974,119.982,99.974,119.982z" class="colore2b3c7 svgShape"></path></g><path fill="#f4f6f8" d="M104.794,119.827c-0.034,0.079-0.066,0.196-0.139,0.277c-0.452,0.911-0.097,1.046-1.076,1.485
					c-1.918,0.873-1.785,1.907-1.042,4.951c0.098,0.38-0.872,0.971-0.998,0.786c-0.68-1.158-1.303-2.705-2.982-1.689
					c-1.569,0.932-0.915,2.323-0.122,3.437c1.421,2.042-1.896,4.841-3.079,6.486c-0.978,0.439-2.005,0.688-3.043,0.744
					c-0.538,0.029-1.211,0.299-1.622-0.067c-0.266-0.237-0.281-0.911-0.496-1.323c-2.117-3.508-4.384-6.931-4.846-11.185
					c-0.476-4.521,1.526-7.405,5.908-8.337c3.581-0.771,7.155-0.965,10.801-0.545C106.248,115.354,106.8,116.288,104.794,119.827z" class="color2d3a74 svgShape"></path></g><g fill="#010001" class="color000000 svgShape"><g fill="#010001" class="color000000 svgShape"><g fill="#010001" class="color000000 svgShape"><g fill="#010001" class="color000000 svgShape"><g fill="#010001" class="color000000 svgShape"><polygon fill="#a5aeb7" points="104.133 132.759 103.593 132.852 97.362 128.248 97.902 128.154" class="colora5acb7 svgShape"></polygon></g><g fill="#010001" class="color000000 svgShape"><polygon fill="#bcc4cc" points="97.902 128.154 97.362 128.248 98.374 124.181 98.914 124.088" class="colorbcc2cc svgShape"></polygon></g><g fill="#010001" class="color000000 svgShape"><polygon fill="#ffffff" points="98.914 124.088 105.145 128.692 104.133 132.759 97.902 128.154" class="colorffffff svgShape"></polygon></g></g></g><path fill="#d7e7f7" d="M108.288,131.218c0,0-1.636-1.188-1.901-2.261c-0.27-1.075-1.695-3.633-6.171-3.706
						c0,0-0.318,0.413,0.421,0.785c0.743,0.372,2.459,1.021,2.636,2.995c0.177,1.975-0.261,3.236-0.96,2.875l-1.379-1.019
						l0.208,0.549c0,0,1.527,3.761,5.134,2.256c0,0,0.723,0.312,1.26,0.346c0.538,0.036,0.476-0.183,0.752,0.422
						C108.29,134.462,109.301,133.404,108.288,131.218z" class="colorf7d7e1 svgShape"></path></g><path fill="#8cadcf" d="M125.214,141.045c-1.465-1.322-3.057-2.497-4.842-3.34l-12.239-6.851
					c-1.164,1.338-1.22,3.26-0.806,3.549l10.751,7.258c0,0-4.743-0.454-7.203-1.722c-2.46-1.276-4.934-1.115-4.934-1.115
					l2.823,10.659c3.116,3.074,4.085-0.305,12.242-1.485C125.959,147.286,130.339,145.67,125.214,141.045z" class="color8ccfb1 svgShape"></path></g></g><g fill="#010001" class="color000000 svgShape"><polygon fill="#b7dbff" points="77.143 108.146 79.464 117.673 77.316 118.915 74.996 109.398" class="colorb7ceff svgShape"></polygon><path fill="#b7dbff" d="M80.716,90.364l-0.051,17.324c0,0.682-0.234,1.16-0.631,1.394l-2.148,1.242
				c0.387-0.224,0.631-0.702,0.631-1.385l0.051-17.323c0-1.374-0.967-3.043-2.158-3.735L48.135,71.556
				c-0.59-0.346-1.14-0.377-1.537-0.143l2.158-1.252c0.387-0.234,0.936-0.204,1.537,0.142l28.265,16.326
				C79.759,87.321,80.726,88.991,80.716,90.364z" class="colorb7ceff svgShape"></path><g fill="#010001" class="color000000 svgShape"><g fill="#010001" class="color000000 svgShape"><g fill="#010001" class="color000000 svgShape"><path fill="#8982ed" d="M76.408,87.879c1.196,0.69,2.161,2.362,2.157,3.736l-0.049,17.324
							c-0.004,1.381-0.975,1.927-2.171,1.237l-1.352-0.78l2.323,9.524l-12.201-15.227l-17.039-9.837
							c-1.189-0.687-2.161-2.354-2.157-3.736l0.049-17.324c0.004-1.374,0.982-1.924,2.171-1.237L76.408,87.879z" class="color8294ed svgShape"></path></g></g></g><g fill="#010001" class="color000000 svgShape"><g fill="#010001" class="color000000 svgShape"><path fill="#ffffff" d="M52.79,82.158c1.625,0.938,2.94,3.208,2.934,5.075c-0.005,1.867-1.329,2.621-2.953,1.683
						c-1.625-0.938-2.933-3.212-2.928-5.079C49.849,81.971,51.166,81.22,52.79,82.158z" class="colorffffff svgShape"></path></g><g fill="#010001" class="color000000 svgShape"><path fill="#ffffff" d="M62.252,87.621c1.625,0.938,2.94,3.208,2.934,5.075c-0.005,1.867-1.329,2.621-2.953,1.683
						c-1.625-0.938-2.94-3.215-2.934-5.082C59.304,87.43,60.627,86.683,62.252,87.621z" class="colorffffff svgShape"></path></g><g fill="#010001" class="color000000 svgShape"><path fill="#ffffff" d="M71.714,93.084c1.625,0.938,2.933,3.204,2.928,5.071c-0.005,1.867-1.322,2.625-2.947,1.687
						c-1.625-0.938-2.939-3.216-2.934-5.082C68.766,92.892,70.089,92.146,71.714,93.084z" class="colorffffff svgShape"></path></g></g></g><g fill="#010001" class="color000000 svgShape"><g fill="#010001" class="color000000 svgShape"><g fill="#010001" class="color000000 svgShape"><g fill="#010001" class="color000000 svgShape"><path fill="#8cadcf" d="M262.328,85.565l-0.054,22.834c-0.013,0.899-0.322,1.529-0.832,1.824l-2.844,1.65
							c0.51-0.295,0.832-0.926,0.832-1.825l0.067-22.832c0-1.811-1.274-4.025-2.857-4.923l-37.255-21.518
							c-0.791-0.457-1.516-0.497-2.026-0.202l2.831-1.65c0.523-0.295,1.234-0.255,2.039,0.201l37.255,21.518
							C261.054,81.554,262.342,83.754,262.328,85.565z" class="color8ccfb1 svgShape"></path></g><g fill="#010001" class="color000000 svgShape"><path fill="#5853a0" d="M256.646,82.286c1.576,0.91,2.857,3.118,2.851,4.929l-0.065,22.834
							c-0.005,1.82-1.294,2.535-2.87,1.625l-22.458-12.966l-20.233,6.124l7.214-13.641l-1.782-1.029
							c-1.576-0.91-2.848-3.103-2.843-4.924l0.065-22.834c0.005-1.811,1.286-2.541,2.862-1.631L256.646,82.286z" class="color53a07a svgShape"></path></g></g></g><g fill="#010001" class="color000000 svgShape"><g fill="#010001" class="color000000 svgShape"><path fill="#ffffff" d="M225.52,75.218c2.141,1.236,3.875,4.228,3.868,6.689c-0.007,2.46-1.751,3.455-3.893,2.218
						c-2.141-1.236-3.866-4.233-3.859-6.694C221.643,74.97,223.379,73.981,225.52,75.218z" class="colorffffff svgShape"></path></g><g fill="#010001" class="color000000 svgShape"><path fill="#ffffff" d="M237.992,82.418c2.141,1.236,3.874,4.228,3.867,6.689c-0.007,2.461-1.751,3.455-3.893,2.218
						c-2.141-1.236-3.874-4.238-3.867-6.699C234.106,82.166,235.85,81.182,237.992,82.418z" class="colorffffff svgShape"></path></g><g fill="#010001" class="color000000 svgShape"><path fill="#ffffff" d="M250.463,89.618c2.141,1.236,3.866,4.223,3.859,6.684c-0.007,2.461-1.743,3.46-3.884,2.223
						s-3.874-4.238-3.867-6.699C246.577,89.366,248.321,88.382,250.463,89.618z" class="colorffffff svgShape"></path></g></g></g><g fill="#010001" class="color000000 svgShape"><g fill="#010001" class="color000000 svgShape"><g fill="#010001" class="color000000 svgShape"><path fill="#93c8fd" d="M134.642,86.668c-0.013,5.49-1.959,9.356-5.09,11.174l-4.536,2.642
						c3.132-1.817,5.078-5.683,5.091-11.186c0.026-11.07-7.758-24.537-17.385-30.091c-4.846-2.81-9.24-3.067-12.41-1.225
						l4.549-2.642c3.17-1.843,7.552-1.572,12.41,1.224C126.897,62.118,134.681,75.586,134.642,86.668z" class="colorfd93bf svgShape"></path></g><g fill="#010001" class="color000000 svgShape"><path fill="#a50b89" d="M112.725,59.201c9.627,5.558,17.41,19.029,17.378,30.101
						c-0.031,11.062-7.865,15.526-17.492,9.968c-9.635-5.563-17.41-19.039-17.378-30.101
						C95.264,58.097,103.09,53.638,112.725,59.201z" class="colord363a1 svgShape"></path></g></g><g fill="#010001" class="color000000 svgShape"><g fill="#010001" class="color000000 svgShape"><g fill="#010001" class="color000000 svgShape"><g fill="#010001" class="color000000 svgShape"><g fill="#010001" class="color000000 svgShape"><path fill="#ffffff" d="M118.433,71.338c3.674,2.121,6.634,7.263,6.622,11.471
									c-0.025,8.662-11.807,11.107-12.427,11.127c-0.619-0.736-12.372-16.769-12.347-25.431c0.012-4.208,3.004-5.913,6.678-3.792
									c2.445,1.412,4.576,4.166,5.727,7.109C113.849,70.215,115.988,69.926,118.433,71.338z" class="colorffffff svgShape"></path></g></g></g></g><polygon fill="#e576d1" points="117.77 82.679 117.762 85.948 114.122 83.84 114.105 88.246 111.197 86.559 111.214 82.162 107.566 80.063 107.575 76.794 111.223 78.893 111.231 74.539 114.139 76.217 114.131 80.579" class="colore576ad svgShape"></polygon></g></g><g fill="#010001" class="color000000 svgShape"><g fill="#010001" class="color000000 svgShape"><g fill="#010001" class="color000000 svgShape"><path fill="#a5bcd3" d="M142.396 229.286l.001.527c0-.174-.117-.347-.348-.475-.444-.262-1.171-.261-1.621.004-.218.129-.327.297-.327.464l-.001-.521c0-.174.109-.341.333-.47.443-.258 1.17-.26 1.621-.004C142.28 228.945 142.396 229.112 142.396 229.286zM147.609 228.554l-.001-.527c0-.167.109-.335.333-.464.443-.265 1.17-.26 1.62-.004.225.134.341.301.342.475l.001.521c0-.167-.117-.341-.342-.469-.451-.262-1.177-.261-1.627.004C147.718 228.213 147.609 228.386 147.609 228.554zM142.194 225.447l.005-.527c0-.167.108-.335.327-.464.449-.265 1.17-.267 1.62-.004.232.128.341.302.342.469l.001.527c0-.174-.117-.341-.342-.475-.451-.256-1.171-.254-1.62.004C142.309 225.106 142.194 225.28 142.194 225.447zM138.44 226.073l-.001-.521c-.001-.174.115-.341.34-.47.443-.258 1.17-.266 1.62-.004.225.128.335.302.335.469l.001.527c0-.174-.11-.341-.336-.475-.457-.256-1.177-.255-1.627.004C138.555 225.739 138.44 225.906 138.44 226.073zM137.391 228.256l-.001-.527c.006-.167.115-.335.34-.464.443-.265 1.163-.266 1.62-.004.225.128.335.295.335.469l.001.527c0-.174-.116-.347-.342-.475-.451-.256-1.171-.254-1.62.004C137.506 227.915 137.39 228.082 137.391 228.256zM139.49 223.891l-.001-.527c0-.167.108-.335.333-.464.443-.265 1.17-.26 1.62-.004.225.135.342.301.342.475l.001.521c0-.167-.117-.341-.342-.469-.451-.263-1.177-.261-1.627.004C139.598 223.55 139.49 223.724 139.49 223.891zM143.105 227.156c-.451-.256-1.177-.254-1.621.004-.225.129-.334.296-.34.47l.005-.527c0-.167.108-.335.333-.47.443-.258 1.17-.26 1.62-.004.225.134.342.302.342.475l-.005.521C143.44 227.457 143.33 227.284 143.105 227.156zM146.15 228.66l.001.521c-.001-.167-.117-.341-.342-.469-.451-.262-1.177-.261-1.62-.003-.225.136-.334.303-.333.47l-.001-.521c0-.174.109-.341.333-.47.443-.258 1.17-.26 1.627-.004C146.04 228.313 146.15 228.486 146.15 228.66zM144.905 226.997l-.001-.521c0-.167.108-.341.333-.471.443-.258 1.17-.26 1.62-.004.225.134.342.308.342.481l.001.521c0-.174-.117-.34-.348-.475-.444-.256-1.171-.261-1.62.004C145.014 226.663 144.905 226.83 144.905 226.997zM167.695 207.411l-.001-.521c-.001-.174.115-.341.333-.47.443-.258 1.176-.26 1.627-.004.225.128.335.301.336.475l.001.521c0-.167-.11-.341-.335-.469-.457-.263-1.184-.261-1.627-.003C167.804 207.07 167.695 207.244 167.695 207.411zM175.203 206.165l.005-.527c0-.167.109-.341.333-.47.443-.258 1.17-.26 1.621-.004.225.128.335.302.335.475l.001.521c0-.167-.11-.34-.335-.468-.457-.263-1.177-.261-1.62.004C175.318 205.825 175.203 205.992 175.203 206.165zM178.818 209.424c-.451-.256-1.177-.261-1.62.004-.225.129-.334.297-.333.464l-.001-.521c0-.167.115-.341.333-.47.45-.258 1.17-.26 1.621.003.232.128.342.301.342.468l.001.527C179.16 209.725 179.044 209.558 178.818 209.424zM174.16 208.342l-.001-.527c0-.167.109-.335.333-.464.449-.265 1.17-.26 1.62-.004.225.128.342.302.342.469l-.005.514c0-.167-.117-.334-.335-.462-.451-.257-1.177-.255-1.627.004C174.269 208 174.16 208.174 174.16 208.342zM178.109 211.554l.001.521c0-.167-.11-.34-.336-.469-.457-.262-1.184-.261-1.627-.002-.225.135-.334.303-.333.47l-.001-.521c0-.174.115-.341.333-.47.443-.258 1.176-.26 1.627-.004C177.999 211.207 178.109 211.38 178.109 211.554z" class="colord3a5bb svgShape"></path><path fill="#a5bcd3" d="M183.864 208.705l.001.527c-.003 1.486-.977 2.967-2.916 4.103l-29.978 17.513c-3.917 2.292-10.296 2.307-14.25.033-1.99-1.14-2.99-2.643-2.987-4.147l-.001-.521c.003 1.498.997 3.007 2.987 4.147 3.954 2.274 10.333 2.253 14.25-.033l29.978-17.513C182.894 211.678 183.861 210.19 183.864 208.705zM170.4 208.968l.005-.521c0-.174.108-.341.333-.47.443-.258 1.17-.266 1.62-.004.225.128.341.302.342.469l-.005.527c0-.174-.11-.347-.335-.475-.451-.256-1.177-.254-1.621.004C170.515 208.633 170.399 208.8 170.4 208.968zM171.456 206.785l-.001-.521c0-.167.109-.341.333-.47.443-.258 1.163-.26 1.62-.004.225.134.335.302.335.475l.001.521c0-.167-.11-.341-.342-.469-.451-.263-1.171-.261-1.62.004C171.564 206.451 171.455 206.618 171.456 206.785zM175.405 209.998l.001.527c-.001-.174-.117-.347-.342-.475-.451-.256-1.177-.255-1.62.004-.225.129-.334.296-.333.47l-.001-.527c0-.167.109-.341.333-.47.443-.258 1.176-.26 1.62-.004C175.295 209.657 175.405 209.831 175.405 209.998zM177.914 207.716l-.001-.521c0-.174.109-.341.333-.47.443-.258 1.17-.26 1.62-.004.225.128.342.301.342.475l.001.521c0-.174-.117-.34-.342-.475-.451-.256-1.177-.255-1.62.004C178.023 207.374 177.914 207.548 177.914 207.716z" class="colord3a5bb svgShape"></path></g><g fill="#010001" class="color000000 svgShape"><path fill="#c3d8ed" d="M180.881,204.559c3.955,2.271,3.98,5.967,0.066,8.253l-29.978,17.514
						c-3.914,2.287-10.294,2.304-14.249,0.033c-3.955-2.271-3.98-5.967-0.065-8.254l29.978-17.514
						C170.546,202.305,176.926,202.288,180.881,204.559z M144.195,229.131c0.448,0.257,1.177,0.256,1.625-0.006
						c0.444-0.259,0.441-0.681-0.007-0.939c-0.452-0.26-1.181-0.258-1.625,0.002C143.739,228.449,143.743,228.872,144.195,229.131
						 M179.867,206.719c-0.448-0.257-1.177-0.255-1.621,0.004c-0.448,0.262-0.445,0.684,0.003,0.941
						c0.452,0.26,1.181,0.258,1.629-0.004C180.322,207.4,180.319,206.979,179.867,206.719 M176.156,212.025
						c0.448,0.257,1.176,0.256,1.625-0.006c0.444-0.259,0.441-0.681-0.008-0.939c-0.452-0.26-1.181-0.258-1.624,0.001
						C175.701,211.344,175.704,211.766,176.156,212.025 M169.654,206.418c-0.452-0.26-1.181-0.258-1.625,0.001
						c-0.448,0.262-0.445,0.684,0.008,0.943c0.448,0.257,1.176,0.256,1.625-0.006C170.106,207.097,170.102,206.675,169.654,206.418
						 M173.447,210.469c0.452,0.26,1.18,0.258,1.629-0.004c0.444-0.259,0.44-0.681-0.012-0.941c-0.448-0.257-1.176-0.256-1.62,0.004
						C172.996,209.79,172.999,210.212,173.447,210.469 M177.162,205.165c-0.452-0.26-1.177-0.256-1.621,0.004
						c-0.448,0.262-0.449,0.681,0.003,0.941c0.448,0.257,1.177,0.256,1.625-0.006C177.613,205.845,177.61,205.423,177.162,205.165
						 M141.482,226.634c-0.448,0.262-0.445,0.684,0.003,0.941c0.452,0.26,1.177,0.256,1.625-0.006
						c0.444-0.259,0.445-0.679-0.007-0.939C142.655,226.373,141.926,226.375,141.482,226.634 M138.777,225.081
						c-0.448,0.262-0.449,0.681,0.003,0.941c0.448,0.257,1.177,0.256,1.625-0.006c0.444-0.259,0.441-0.681-0.007-0.939
						C139.946,224.817,139.221,224.822,138.777,225.081 M147.951,228.504c0.448,0.257,1.177,0.256,1.621-0.004
						c0.448-0.262,0.441-0.681-0.008-0.939c-0.452-0.26-1.177-0.26-1.624,0.001C147.495,227.822,147.498,228.244,147.951,228.504
						 M139.82,222.9c-0.444,0.259-0.441,0.681,0.011,0.941c0.448,0.257,1.177,0.256,1.621-0.004c0.448-0.262,0.44-0.681-0.008-0.939
						C140.992,222.639,140.268,222.638,139.82,222.9 M146.866,226.947c0.448-0.262,0.441-0.681-0.012-0.941
						c-0.448-0.257-1.173-0.258-1.62,0.004c-0.444,0.259-0.441,0.681,0.007,0.939C145.694,227.208,146.422,227.206,146.866,226.947
						 M178.827,209.841c0.448-0.262,0.441-0.681-0.007-0.939c-0.452-0.26-1.177-0.26-1.625,0.002
						c-0.444,0.259-0.441,0.681,0.012,0.941C177.655,210.102,178.384,210.1,178.827,209.841 M140.439,229.754
						c0.452,0.26,1.176,0.26,1.624-0.001c0.448-0.262,0.441-0.681-0.011-0.941c-0.448-0.257-1.173-0.258-1.621,0.004
						C139.983,229.077,139.991,229.496,140.439,229.754 M170.742,208.916c0.448,0.257,1.176,0.256,1.625-0.006
						c0.444-0.259,0.441-0.681-0.008-0.939c-0.452-0.26-1.176-0.256-1.62,0.004C170.29,208.237,170.29,208.656,170.742,208.916
						 M144.157,225.391c0.448-0.262,0.441-0.681-0.008-0.939c-0.452-0.26-1.172-0.258-1.62,0.004
						c-0.444,0.259-0.445,0.679,0.007,0.939C142.984,225.652,143.713,225.65,144.157,225.391 M137.734,228.2
						c0.448,0.257,1.173,0.258,1.62-0.004c0.448-0.262,0.441-0.681-0.007-0.939c-0.452-0.26-1.173-0.258-1.621,0.004
						C137.278,227.523,137.282,227.941,137.734,228.2 M176.118,208.285c0.448-0.262,0.445-0.679-0.007-0.939
						c-0.448-0.257-1.172-0.258-1.621,0.004c-0.444,0.259-0.44,0.681,0.008,0.939C174.95,208.548,175.674,208.544,176.118,208.285
						 M173.406,205.793c-0.452-0.26-1.173-0.258-1.621,0.004c-0.444,0.259-0.445,0.679,0.008,0.939
						c0.448,0.257,1.176,0.256,1.62-0.004C173.861,206.47,173.854,206.05,173.406,205.793" class="coloredc3d2 svgShape"></path></g></g><g fill="#010001" class="color000000 svgShape"><g fill="#010001" class="color000000 svgShape"><g fill="#010001" class="color000000 svgShape"><path fill="#a5bcd3" d="M176.196 229.548l-.001.527c0-.174.117-.347.348-.475.444-.262 1.171-.261 1.62.004.218.129.327.297.327.464l.001-.521c.001-.174-.109-.341-.333-.47-.443-.258-1.17-.26-1.62-.004C176.313 229.207 176.196 229.374 176.196 229.548zM170.983 228.816l.001-.527c0-.167-.109-.335-.333-.464-.443-.265-1.17-.26-1.62-.004-.225.135-.342.302-.342.475l-.001.521c0-.167.117-.341.342-.469.451-.262 1.177-.261 1.627.004C170.874 228.475 170.983 228.648 170.983 228.816zM176.398 225.709l-.005-.527c0-.167-.109-.335-.327-.464-.45-.265-1.17-.266-1.62-.004-.232.128-.342.301-.342.469l-.001.527c0-.174.117-.341.342-.475.451-.256 1.171-.255 1.62.004C176.283 225.368 176.398 225.542 176.398 225.709zM180.152 226.335l.001-.521c0-.174-.115-.341-.34-.47-.443-.258-1.17-.266-1.62-.004-.225.128-.335.302-.335.469l-.001.527c0-.174.11-.341.335-.475.457-.256 1.177-.254 1.627.004C180.037 226.001 180.152 226.168 180.152 226.335zM181.201 228.518l.001-.527c-.006-.167-.115-.335-.34-.464-.443-.265-1.163-.267-1.62-.004-.225.128-.335.295-.335.469l-.001.528c0-.174.117-.347.342-.475.451-.256 1.171-.254 1.62.004C181.086 228.177 181.202 228.344 181.201 228.518zM179.102 224.153l.001-.527c0-.167-.108-.335-.333-.464-.443-.265-1.17-.26-1.621-.004-.225.134-.341.301-.342.475l-.001.521c0-.167.117-.341.342-.469.451-.263 1.177-.261 1.627.004C178.994 223.812 179.103 223.986 179.102 224.153zM175.487 227.418c.451-.256 1.177-.255 1.62.004.225.129.334.297.34.47l-.005-.527c0-.167-.109-.335-.333-.47-.443-.258-1.17-.26-1.62-.004-.225.135-.341.302-.342.475l.005.521C175.152 227.719 175.262 227.546 175.487 227.418zM172.442 228.922l-.001.521c0-.167.117-.341.342-.469.451-.262 1.177-.261 1.62-.003.225.135.334.303.333.47l.001-.521c0-.174-.109-.341-.333-.47-.443-.258-1.17-.26-1.627-.004C172.552 228.575 172.443 228.748 172.442 228.922zM173.687 227.259l.001-.521c0-.167-.109-.341-.333-.47-.443-.258-1.17-.26-1.62-.004-.225.134-.341.308-.342.481l-.001.521c0-.174.117-.34.348-.475.444-.256 1.171-.261 1.62.004C173.579 226.924 173.687 227.092 173.687 227.259zM150.897 207.673l.001-.521c0-.174-.115-.341-.333-.47-.443-.258-1.176-.26-1.627-.004-.225.128-.335.302-.335.475l-.001.521c0-.167.11-.341.335-.469.457-.263 1.184-.261 1.627-.003C150.788 207.332 150.897 207.506 150.897 207.673zM143.389 206.428l-.005-.527c0-.167-.108-.341-.333-.47-.443-.258-1.17-.26-1.62-.004-.225.128-.335.302-.336.475l-.001.521c0-.167.11-.34.335-.468.457-.263 1.178-.261 1.62.004C143.274 206.087 143.389 206.254 143.389 206.428zM139.774 209.686c.451-.256 1.177-.261 1.62.004.225.129.334.296.333.464l.001-.521c0-.167-.115-.341-.333-.47-.449-.258-1.17-.26-1.62.003-.232.128-.342.301-.342.468l-.001.527C139.432 209.987 139.549 209.82 139.774 209.686zM144.432 208.604l.001-.527c0-.167-.108-.335-.333-.464-.45-.265-1.17-.26-1.62-.004-.225.128-.342.302-.342.469l.005.514c0-.167.117-.334.335-.462.451-.256 1.177-.255 1.627.004C144.324 208.262 144.432 208.436 144.432 208.604zM140.483 211.816l-.001.521c0-.167.11-.34.335-.469.457-.262 1.184-.261 1.627-.002.225.135.334.303.333.47l.001-.521c0-.174-.115-.341-.333-.47-.443-.258-1.176-.26-1.627-.004C140.593 211.469 140.483 211.642 140.483 211.816z" class="colord3a5bb svgShape"></path><path fill="#a5bcd3" d="M134.728 208.967l-.001.527c.003 1.485.977 2.967 2.916 4.103l29.978 17.513c3.917 2.292 10.296 2.306 14.25.033 1.99-1.14 2.99-2.643 2.987-4.147l.001-.521c-.004 1.498-.997 3.007-2.987 4.147-3.953 2.273-10.332 2.253-14.25-.033l-29.978-17.513C135.698 211.94 134.731 210.452 134.728 208.967zM148.192 209.23l-.005-.521c0-.174-.109-.341-.333-.47-.443-.258-1.17-.266-1.62-.004-.225.128-.341.302-.342.469l.005.527c.001-.174.11-.347.336-.475.451-.256 1.177-.254 1.62.004C148.077 208.895 148.193 209.062 148.192 209.23zM147.136 207.047l.001-.521c0-.167-.108-.341-.333-.47-.443-.258-1.163-.26-1.62-.004-.225.134-.335.302-.336.475l-.001.521c0-.167.11-.341.342-.469.451-.263 1.171-.261 1.62.004C147.028 206.712 147.137 206.88 147.136 207.047zM143.187 210.26l-.001.527c0-.174.117-.347.342-.475.451-.256 1.177-.254 1.62.004.225.129.334.297.333.47l.001-.527c0-.167-.109-.341-.333-.47-.443-.258-1.176-.26-1.62-.004C143.297 209.919 143.188 210.092 143.187 210.26zM140.678 207.978l.001-.521c0-.174-.109-.341-.333-.47-.443-.258-1.17-.26-1.62-.004-.225.128-.341.301-.342.475l-.001.521c0-.174.117-.34.342-.475.451-.256 1.177-.255 1.62.004C140.57 207.636 140.679 207.81 140.678 207.978z" class="colord3a5bb svgShape"></path></g><g fill="#010001" class="color000000 svgShape"><path fill="#d7e7f7" d="M151.96,204.854l29.978,17.514c3.914,2.287,3.889,5.982-0.066,8.253
							c-3.955,2.271-10.335,2.254-14.249-0.033l-29.978-17.514c-3.914-2.287-3.889-5.982,0.066-8.254
							C141.666,202.55,148.046,202.567,151.96,204.854z M174.397,229.393c0.452-0.26,0.456-0.682,0.008-0.943
							c-0.444-0.259-1.173-0.261-1.625-0.002c-0.448,0.257-0.451,0.679-0.007,0.939C173.221,229.649,173.949,229.65,174.397,229.393
							 M138.725,206.981c-0.452,0.26-0.455,0.682-0.011,0.941c0.448,0.262,1.176,0.264,1.629,0.004
							c0.448-0.257,0.451-0.679,0.003-0.941C139.902,206.725,139.173,206.723,138.725,206.981 M142.436,212.287
							c0.452-0.26,0.456-0.682,0.007-0.943c-0.444-0.259-1.172-0.261-1.624-0.001c-0.448,0.257-0.452,0.679-0.008,0.939
							C141.259,212.543,141.988,212.544,142.436,212.287 M148.938,206.68c-0.448,0.257-0.452,0.679-0.008,0.939
							c0.448,0.262,1.176,0.264,1.625,0.006c0.452-0.26,0.456-0.682,0.007-0.943C150.119,206.422,149.39,206.42,148.938,206.68
							 M145.145,210.731c0.448-0.257,0.452-0.679,0.003-0.941c-0.444-0.259-1.172-0.261-1.62-0.004
							c-0.452,0.26-0.456,0.682-0.012,0.941C143.964,210.989,144.693,210.991,145.145,210.731 M141.43,205.427
							c-0.448,0.257-0.451,0.679-0.007,0.939c0.448,0.262,1.176,0.264,1.625,0.006c0.452-0.26,0.451-0.679,0.003-0.941
							C142.607,205.172,141.883,205.168,141.43,205.427 M177.11,226.896c-0.444-0.259-1.173-0.261-1.621-0.004
							c-0.452,0.26-0.451,0.679-0.007,0.939c0.448,0.262,1.172,0.266,1.625,0.006C177.555,227.58,177.558,227.158,177.11,226.896
							 M179.815,225.343c-0.444-0.259-1.168-0.264-1.621-0.004c-0.448,0.257-0.451,0.679-0.007,0.939
							c0.448,0.262,1.176,0.263,1.625,0.006C180.264,226.024,180.263,225.605,179.815,225.343 M170.642,228.766
							c0.452-0.26,0.455-0.682,0.012-0.941c-0.448-0.262-1.172-0.261-1.625-0.001c-0.448,0.257-0.455,0.677-0.007,0.939
							C169.465,229.021,170.193,229.023,170.642,228.766 M178.772,223.162c-0.448-0.262-1.172-0.261-1.625-0.001
							c-0.448,0.257-0.456,0.677-0.008,0.939c0.444,0.259,1.173,0.261,1.621,0.004C179.213,223.843,179.216,223.421,178.772,223.162
							 M171.726,227.208c0.444,0.259,1.172,0.261,1.625,0.001c0.448-0.257,0.451-0.679,0.007-0.939
							c-0.448-0.262-1.172-0.261-1.62-0.004C171.285,226.527,171.278,226.947,171.726,227.208 M139.765,210.103
							c0.444,0.259,1.172,0.261,1.62,0.004c0.452-0.26,0.456-0.681,0.012-0.941c-0.448-0.262-1.173-0.261-1.625-0.001
							C139.324,209.421,139.316,209.841,139.765,210.103 M178.153,230.016c0.448-0.257,0.456-0.677,0.008-0.939
							c-0.448-0.262-1.173-0.261-1.62-0.004c-0.452,0.26-0.46,0.679-0.012,0.941C176.977,230.276,177.701,230.275,178.153,230.016
							 M147.85,209.178c0.452-0.26,0.452-0.679,0.003-0.941c-0.444-0.259-1.168-0.263-1.62-0.004
							c-0.448,0.257-0.452,0.679-0.008,0.939C146.674,209.434,147.402,209.435,147.85,209.178 M174.435,225.653
							c0.444,0.259,1.172,0.261,1.62,0.004c0.452-0.26,0.452-0.679,0.008-0.939c-0.448-0.262-1.168-0.263-1.621-0.004
							C173.995,224.971,173.987,225.391,174.435,225.653 M180.858,228.462c0.452-0.26,0.456-0.677,0.008-0.939
							c-0.448-0.262-1.168-0.264-1.621-0.004c-0.448,0.257-0.456,0.677-0.007,0.939C179.686,228.72,180.41,228.719,180.858,228.462
							 M142.474,208.547c0.444,0.259,1.168,0.263,1.62,0.004c0.448-0.257,0.451-0.679,0.007-0.939
							c-0.448-0.262-1.173-0.261-1.62-0.004C142.029,207.868,142.026,208.285,142.474,208.547 M145.186,206.055
							c-0.448,0.257-0.456,0.677-0.007,0.939c0.444,0.259,1.172,0.261,1.62,0.004c0.452-0.26,0.452-0.679,0.008-0.939
							C146.359,205.797,145.638,205.795,145.186,206.055" class="colorf7d7e1 svgShape"></path></g></g><g fill="#010001" class="color000000 svgShape"><g fill="#010001" class="color000000 svgShape"><g fill="#010001" class="color000000 svgShape"><polygon fill="#c494bb" points="147.774 215.896 147.774 216.813 159.767 223.82 159.767 222.903" class="colorc49494 svgShape"></polygon></g><g fill="#010001" class="color000000 svgShape"><polygon fill="#c494bb" points="159.767 222.903 159.767 223.82 170.397 217.715 170.397 216.799" class="colorc49494 svgShape"></polygon></g><g fill="#010001" class="color000000 svgShape"><polygon fill="#b5cee7" points="147.774 215.896 159.767 222.903 170.397 216.799 158.404 209.792" class="colore7b8b5 svgShape"></polygon></g></g></g></g></g><g fill="#010001" class="color000000 svgShape"><g fill="#010001" class="color000000 svgShape"><g fill="#010001" class="color000000 svgShape"><g fill="#010001" class="color000000 svgShape"><g fill="#010001" class="color000000 svgShape"><path fill="#f4f6f8" d="M268.054,185.903l0.051-0.05l-35.933-20.729c-0.819-0.41-1.536-0.462-2.048-0.155
								l-9.572,5.529c0.512-0.255,1.228-0.255,2.047,0.205l35.881,20.729c0.717,0.417,1.351,1.112,1.853,1.894l9.591-5.538
								C269.422,186.995,268.779,186.301,268.054,185.903z" class="coloreaeffa svgShape"></path><path fill="#d9e0e8" d="M261.246,221.118c0,0.872-0.307,1.537-0.819,1.792l9.572-5.526
								c0.512-0.307,0.87-0.975,0.87-1.844l0.051-24.723c0-1-0.396-2.089-0.994-3.029l-9.591,5.538
								c0.609,0.95,1.014,2.039,1.014,3.019L261.246,221.118z" class="colord9dfe8 svgShape"></path></g><g fill="#010001" class="color000000 svgShape"><path fill="#bcc4cc" d="M258.491,191.449c1.577,0.91,2.848,3.112,2.843,4.917l-0.07,24.745
								c-0.005,1.804-1.285,2.534-2.861,1.623l-35.905-20.729c-1.577-0.91-2.848-3.112-2.843-4.917l0.07-24.745
								c0.005-1.804,1.285-2.534,2.861-1.623L258.491,191.449z" class="colorbcc2cc svgShape"></path></g></g></g><g fill="#010001" class="color000000 svgShape"><g fill="#010001" class="color000000 svgShape"><g fill="#010001" class="color000000 svgShape"><g fill="#010001" class="color000000 svgShape"><g fill="#010001" class="color000000 svgShape"><path fill="#632363" d="M240.65,169.235c-0.148,0.086-0.242,0.273-0.242,0.53l-0.016,5.443l-1.738,1.007
										l0.016-5.443c0.008-0.265,0.093-0.444,0.249-0.53L240.65,169.235z" class="color233163 svgShape"></path></g><g fill="#010001" class="color000000 svgShape"><path fill="#5046e4" d="M252.916,176.986l-0.016,5.443l-1.73,1.007l0.016-5.443c0-1.575-1.107-3.501-2.48-4.297
										l-9.194-5.302c-0.694-0.406-1.318-0.437-1.77-0.179l1.73-1c0.452-0.265,1.084-0.226,1.778,0.172l9.186,5.302
										C251.808,173.485,252.924,175.411,252.916,176.986z" class="color4a5f93 svgShape"></path></g><g fill="#010001" class="color000000 svgShape"><path fill="#f4f6f8" d="M248.704,173.697c1.374,0.793,2.486,2.719,2.481,4.298l-0.015,5.441l-1.658-0.957
										l0.015-5.441c0.001-0.526-0.371-1.171-0.829-1.435l-9.19-5.306c-0.458-0.264-0.833-0.051-0.834,0.475l-0.015,5.441
										L237,175.255l0.015-5.441c0.005-1.579,1.123-2.217,2.498-1.423L248.704,173.697z" class="color2d3a74 svgShape"></path></g></g></g></g></g></g><g fill="#010001" class="color000000 svgShape"><g fill="#010001" class="color000000 svgShape"><path fill="#ffffff" d="M240.01,187.986c4.027,2.325,7.282,7.959,7.269,12.59c-0.013,4.627-3.29,6.494-7.316,4.169
						c-4.03-2.327-7.282-7.963-7.269-12.59C232.706,187.525,235.98,185.66,240.01,187.986z" class="colorffffff svgShape"></path><polygon fill="#a50b89" points="244.297 197.453 244.29 200.216 241.214 198.435 241.199 202.158 238.741 200.733 238.756 197.016 235.672 195.242 235.679 192.479 238.763 194.253 238.77 190.573 241.228 191.991 241.221 195.678" class="colord363a1 svgShape"></polygon></g></g></g></g><g fill="#010001" class="color000000 svgShape"><g fill="#010001" class="color000000 svgShape"><path fill="#83baf2" d="M74.857,147.393c0.429,2.266-1.52,4.215-3.785,3.785c-1.258-0.238-2.288-1.268-2.526-2.527
				c-0.429-2.266,1.52-4.215,3.785-3.785C73.589,145.105,74.618,146.134,74.857,147.393z" class="colorf283b5 svgShape"></path><path fill="#c3d8ed" d="M72.668,133.836c0.409,2.673-1.86,4.943-4.533,4.533c-1.666-0.255-3.027-1.617-3.283-3.282
				c-0.409-2.673,1.86-4.943,4.533-4.533C71.052,130.809,72.413,132.17,72.668,133.836z" class="coloredc3d2 svgShape"></path><path fill="#abc4dd" d="M99.327,98.171c0.521,3.399-2.365,6.285-5.764,5.764c-2.118-0.324-3.849-2.056-4.174-4.174
				c-0.521-3.399,2.365-6.285,5.764-5.764C97.272,94.321,99.003,96.052,99.327,98.171z" class="colorddacab svgShape"></path><path fill="#83baf2" d="M204.005,71.591c0.424,2.771-1.928,5.124-4.699,4.699c-1.727-0.265-3.138-1.676-3.403-3.403
				c-0.424-2.771,1.928-5.124,4.699-4.699C202.329,68.452,203.741,69.864,204.005,71.591z" class="colorf283b5 svgShape"></path><g fill="#010001" class="color000000 svgShape"><path fill="#938cf7" d="M140.983,48.79l8.858,4.34c1.122,0.562,2.48,0.089,3.041-1.033l4.34-8.858
					c0.546-1.122,0.089-2.48-1.033-3.041l-8.858-4.34c-1.122-0.546-2.48-0.089-3.041,1.033l-4.34,8.858
					C139.388,46.87,139.861,48.229,140.983,48.79z" class="color8ca8f7 svgShape"></path></g><g fill="#010001" class="color000000 svgShape"><path fill="#83baf2" d="M134.284,48.403l3.286-6.693c0.418-0.851,1.451-1.204,2.302-0.786l6.693,3.286
					c0.851,0.418,1.204,1.45,0.786,2.302l-3.286,6.693c-0.418,0.851-1.45,1.204-2.301,0.786l-6.693-3.286
					C134.219,50.286,133.866,49.254,134.284,48.403z M139.222,42.247c-0.122-0.06-0.269-0.009-0.329,0.112l-3.286,6.693
					c-0.06,0.122-0.01,0.269,0.112,0.329l6.693,3.286c0.122,0.06,0.269,0.009,0.329-0.112l3.286-6.694
					c0.06-0.122,0.009-0.269-0.112-0.329L139.222,42.247z" class="colorf283b5 svgShape"></path></g><path fill="#938cf7" d="M264.066,141.746c0.391,2.552-1.776,4.719-4.328,4.328c-1.591-0.244-2.89-1.544-3.134-3.134
				c-0.391-2.552,1.776-4.719,4.328-4.328C262.523,138.855,263.823,140.155,264.066,141.746z" class="color8ca8f7 svgShape"></path><path fill="#7873bc" d="M123.606,249.699c0.936,4.94-3.314,9.191-8.254,8.254c-2.76-0.523-4.986-2.749-5.509-5.509
				c-0.936-4.94,3.314-9.191,8.254-8.254C120.857,244.713,123.083,246.939,123.606,249.699z" class="color73bc9c svgShape"></path></g><path fill="#83baf2" d="M243.226,246.786c-1.877,1.947-5.057,1.52-6.354-0.853c-0.808-1.479-0.552-3.387,0.618-4.601
			c1.877-1.947,5.058-1.52,6.354,0.853C244.651,243.665,244.395,245.573,243.226,246.786z" class="colorf283b5 svgShape"></path><path fill="#c3d8ed" d="M231.121,217.886c-1.876,1.947-5.057,1.52-6.354-0.853c-0.808-1.479-0.552-3.387,0.618-4.601
			c1.877-1.947,5.058-1.52,6.354,0.853C232.546,214.764,232.29,216.673,231.121,217.886z" class="coloredc3d2 svgShape"></path></g></g></svg>