<svg xmlns="http://www.w3.org/2000/svg" enable-background="new 0 0 256 256" viewBox="0 0 256 256" id="Businessmantakingloanfrombankforthehome"><g fill="#010001" class="color000000 svgShape"><g fill="#010001" class="color000000 svgShape"><g fill="#010001" class="color000000 svgShape"><g fill="#010001" class="color000000 svgShape"><g fill="#010001" class="color000000 svgShape"><g fill="#010001" class="color000000 svgShape"><g fill="#010001" class="color000000 svgShape"><g fill="#010001" class="color000000 svgShape"><g fill="#010001" class="color000000 svgShape"><polygon fill="#f4f6f8" points="227.284 132.438 227.264 136.794 152.341 180.334 152.361 175.978" class="colorc5d4dd svgShape"></polygon></g><g fill="#010001" class="color000000 svgShape"><polygon fill="#cfdbe8" points="152.361 175.978 152.341 180.334 72.282 134.111 72.302 129.755" class="colorcfdee8 svgShape"></polygon></g><g fill="#010001" class="color000000 svgShape"><polygon fill="#f4f6f8" points="227.284 132.438 152.361 175.978 72.302 129.755 147.224 83.533" class="colore7f1f7 svgShape"></polygon></g></g></g><g fill="#010001" class="color000000 svgShape"><g fill="#010001" class="color000000 svgShape"><g fill="#010001" class="color000000 svgShape"><polygon fill="#f4f6f8" points="221.185 124.554 221.165 128.91 152.34 168.907 152.36 164.551" class="colorc5d4dd svgShape"></polygon></g><g fill="#010001" class="color000000 svgShape"><polygon fill="#cfdbe8" points="152.36 164.551 152.34 168.907 80.713 127.554 80.733 123.198" class="colorcfdee8 svgShape"></polygon></g><g fill="#010001" class="color000000 svgShape"><polygon fill="#f4f6f8" points="221.185 124.554 152.36 164.551 80.733 123.198 149.558 83.201" class="colore7f1f7 svgShape"></polygon></g></g></g><g fill="#010001" class="color000000 svgShape"><g fill="#010001" class="color000000 svgShape"><g fill="#010001" class="color000000 svgShape"><polygon fill="#f4f6f8" points="215.076 116.655 215.056 121.011 152.311 157.475 152.331 153.119" class="colorc5d4dd svgShape"></polygon></g><g fill="#010001" class="color000000 svgShape"><polygon fill="#cfdbe8" points="152.331 153.119 152.311 157.475 89.155 121.011 89.174 116.656" class="colorcfdee8 svgShape"></polygon></g><g fill="#010001" class="color000000 svgShape"><polygon fill="#1d13ab" points="126.568 138.245 126.548 142.628 107.539 131.621 107.559 127.238" class="color1352ab svgShape"></polygon></g><g fill="#010001" class="color000000 svgShape"><polygon fill="#f4f6f8" points="215.075 116.561 152.329 153.025 89.173 116.562 151.919 80.098" class="colore7f1f7 svgShape"></polygon></g></g></g><g fill="#010001" class="color000000 svgShape"><g fill="#010001" class="color000000 svgShape"><g fill="#010001" class="color000000 svgShape"><polygon fill="#f4f6f8" points="203.175 64.228 203.155 109.788 151.963 139.538 151.983 93.977" class="colorc5d4dd svgShape"></polygon></g><g fill="#010001" class="color000000 svgShape"><polygon fill="#cfdbe8" points="152.331 93.977 152.311 139.538 105.245 112.364 105.265 66.804" class="colorcfdee8 svgShape"></polygon></g><g fill="#010001" class="color000000 svgShape"><polygon fill="#dde2e7" points="203.523 64.228 152.331 93.977 105.265 66.804 156.457 37.054" class="colordde4e7 svgShape"></polygon></g></g></g><g fill="#010001" class="color000000 svgShape"><g fill="#010001" class="color000000 svgShape"><g fill="#010001" class="color000000 svgShape"><g fill="#010001" class="color000000 svgShape"><g fill="#010001" class="color000000 svgShape"><polygon fill="#f4f6f8" points="208.478 115.51 208.472 117.45 202.992 120.635 202.997 118.695" class="colorc5d4dd svgShape"></polygon></g><g fill="#010001" class="color000000 svgShape"><polygon fill="#cfdbe8" points="202.997 118.695 202.992 120.635 197.468 117.446 197.473 115.505" class="colorcfdee8 svgShape"></polygon></g><g fill="#010001" class="color000000 svgShape"><polygon fill="#ffffff" points="208.478 115.51 202.997 118.695 197.473 115.505 202.954 112.32" class="colorffffff svgShape"></polygon></g></g></g><g fill="#010001" class="color000000 svgShape"><g fill="#010001" class="color000000 svgShape"><g fill="#010001" class="color000000 svgShape"><polygon fill="#5e4c5b" points="206.022 63.387 205.884 115.44 202.91 117.169 203.048 65.115" class="color4c4c5e svgShape"></polygon></g><g fill="#010001" class="color000000 svgShape"><polygon fill="#736170" points="203.048 65.115 202.91 117.169 199.924 115.445 200.061 63.391" class="color616173 svgShape"></polygon></g><g fill="#010001" class="color000000 svgShape"><polygon fill="#ffffff" points="206.022 63.387 203.048 65.115 200.061 63.391 203.036 61.663" class="colorffffff svgShape"></polygon></g></g></g></g><g fill="#010001" class="color000000 svgShape"><g fill="#010001" class="color000000 svgShape"><g fill="#010001" class="color000000 svgShape"><g fill="#010001" class="color000000 svgShape"><polygon fill="#f4f6f8" points="195.808 122.901 195.802 124.841 190.322 128.026 190.327 126.086" class="colorc5d4dd svgShape"></polygon></g><g fill="#010001" class="color000000 svgShape"><polygon fill="#cfdbe8" points="190.327 126.086 190.322 128.026 184.797 124.837 184.803 122.897" class="colorcfdee8 svgShape"></polygon></g><g fill="#010001" class="color000000 svgShape"><polygon fill="#ffffff" points="195.808 122.901 190.327 126.086 184.803 122.897 190.283 119.712" class="colorffffff svgShape"></polygon></g></g></g><g fill="#010001" class="color000000 svgShape"><g fill="#010001" class="color000000 svgShape"><g fill="#010001" class="color000000 svgShape"><polygon fill="#5e4c5b" points="193.351 70.778 193.214 122.832 190.24 124.56 190.377 72.507" class="color4c4c5e svgShape"></polygon></g><g fill="#010001" class="color000000 svgShape"><polygon fill="#736170" points="190.377 72.507 190.24 124.56 187.253 122.836 187.391 70.783" class="color616173 svgShape"></polygon></g><g fill="#010001" class="color000000 svgShape"><polygon fill="#ffffff" points="193.351 70.778 190.377 72.507 187.391 70.783 190.365 69.054" class="colorffffff svgShape"></polygon></g></g></g></g><g fill="#010001" class="color000000 svgShape"><g fill="#010001" class="color000000 svgShape"><g fill="#010001" class="color000000 svgShape"><g fill="#010001" class="color000000 svgShape"><polygon fill="#f4f6f8" points="183.137 130.292 183.132 132.233 177.651 135.418 177.657 133.477" class="colorc5d4dd svgShape"></polygon></g><g fill="#010001" class="color000000 svgShape"><polygon fill="#cfdbe8" points="177.657 133.477 177.651 135.418 172.127 132.228 172.132 130.288" class="colorcfdee8 svgShape"></polygon></g><g fill="#010001" class="color000000 svgShape"><polygon fill="#ffffff" points="183.137 130.292 177.657 133.477 172.132 130.288 177.613 127.103" class="colorffffff svgShape"></polygon></g></g></g><g fill="#010001" class="color000000 svgShape"><g fill="#010001" class="color000000 svgShape"><g fill="#010001" class="color000000 svgShape"><polygon fill="#5e4c5b" points="180.681 78.17 180.544 130.223 177.569 131.951 177.707 79.898" class="color4c4c5e svgShape"></polygon></g><g fill="#010001" class="color000000 svgShape"><polygon fill="#736170" points="177.707 79.898 177.569 131.951 174.583 130.227 174.72 78.174" class="color616173 svgShape"></polygon></g><g fill="#010001" class="color000000 svgShape"><polygon fill="#ffffff" points="180.681 78.17 177.707 79.898 174.72 78.174 177.695 76.445" class="colorffffff svgShape"></polygon></g></g></g></g><g fill="#010001" class="color000000 svgShape"><g fill="#010001" class="color000000 svgShape"><g fill="#010001" class="color000000 svgShape"><g fill="#010001" class="color000000 svgShape"><polygon fill="#f4f6f8" points="170.467 137.684 170.461 139.624 164.981 142.809 164.986 140.869" class="colorc5d4dd svgShape"></polygon></g><g fill="#010001" class="color000000 svgShape"><polygon fill="#cfdbe8" points="164.986 140.869 164.981 142.809 159.457 139.62 159.462 137.679" class="colorcfdee8 svgShape"></polygon></g><g fill="#010001" class="color000000 svgShape"><polygon fill="#ffffff" points="170.467 137.684 164.986 140.869 159.462 137.679 164.942 134.494" class="colorffffff svgShape"></polygon></g></g></g><g fill="#010001" class="color000000 svgShape"><g fill="#010001" class="color000000 svgShape"><g fill="#010001" class="color000000 svgShape"><polygon fill="#5e4c5b" points="168.011 85.561 167.873 137.614 164.899 139.343 165.036 87.289" class="color4c4c5e svgShape"></polygon></g><g fill="#010001" class="color000000 svgShape"><polygon fill="#736170" points="165.036 87.289 164.899 139.343 161.913 137.619 162.05 85.565" class="color616173 svgShape"></polygon></g><g fill="#010001" class="color000000 svgShape"><polygon fill="#ffffff" points="168.011 85.561 165.036 87.289 162.05 85.565 165.024 83.837" class="colorffffff svgShape"></polygon></g></g></g></g><g fill="#010001" class="color000000 svgShape"><g fill="#010001" class="color000000 svgShape"><g fill="#010001" class="color000000 svgShape"><g fill="#010001" class="color000000 svgShape"><polygon fill="#f4f6f8" points="157.796 145.075 157.791 147.015 152.31 150.2 152.316 148.26" class="colorc5d4dd svgShape"></polygon></g><g fill="#010001" class="color000000 svgShape"><polygon fill="#cfdbe8" points="152.316 148.26 152.31 150.2 146.786 147.011 146.792 145.071" class="colorcfdee8 svgShape"></polygon></g><g fill="#010001" class="color000000 svgShape"><polygon fill="#ffffff" points="157.796 145.075 152.316 148.26 146.792 145.071 152.272 141.886" class="colorffffff svgShape"></polygon></g></g></g><g fill="#010001" class="color000000 svgShape"><g fill="#010001" class="color000000 svgShape"><g fill="#010001" class="color000000 svgShape"><polygon fill="#5e4c5b" points="155.34 92.952 155.203 145.005 152.228 146.734 152.366 94.681" class="color4c4c5e svgShape"></polygon></g><g fill="#010001" class="color000000 svgShape"><polygon fill="#736170" points="152.366 94.681 152.228 146.734 149.242 145.01 149.38 92.957" class="color616173 svgShape"></polygon></g><g fill="#010001" class="color000000 svgShape"><polygon fill="#ffffff" points="155.34 92.952 152.366 94.681 149.38 92.957 152.354 91.228" class="colorffffff svgShape"></polygon></g></g></g></g><g fill="#010001" class="color000000 svgShape"><g fill="#010001" class="color000000 svgShape"><g fill="#010001" class="color000000 svgShape"><g fill="#010001" class="color000000 svgShape"><polygon fill="#cfdbe8" points="94.745 114.165 94.751 116.105 100.231 119.29 100.226 117.349" class="colorcfdee8 svgShape"></polygon></g><g fill="#010001" class="color000000 svgShape"><polygon fill="#f4f6f8" points="100.226 117.349 100.231 119.29 105.755 116.1 105.75 114.16" class="colorc5d4dd svgShape"></polygon></g><g fill="#010001" class="color000000 svgShape"><polygon fill="#ffffff" points="94.745 114.165 100.226 117.349 105.75 114.16 100.269 110.975" class="colorffffff svgShape"></polygon></g></g></g><g fill="#010001" class="color000000 svgShape"><g fill="#010001" class="color000000 svgShape"><g fill="#010001" class="color000000 svgShape"><polygon fill="#736170" points="97.201 62.042 97.339 114.095 100.313 115.823 100.176 63.77" class="color616173 svgShape"></polygon></g><g fill="#010001" class="color000000 svgShape"><polygon fill="#5e4c5b" points="100.176 63.77 100.313 115.823 103.299 114.099 103.162 62.046" class="color4c4c5e svgShape"></polygon></g><g fill="#010001" class="color000000 svgShape"><polygon fill="#ffffff" points="97.201 62.042 100.176 63.77 103.162 62.046 100.188 60.317" class="colorffffff svgShape"></polygon></g></g></g></g><g fill="#010001" class="color000000 svgShape"><g fill="#010001" class="color000000 svgShape"><g fill="#010001" class="color000000 svgShape"><g fill="#010001" class="color000000 svgShape"><polygon fill="#cfdbe8" points="136.267 138.78 136.272 140.72 141.753 143.905 141.747 141.965" class="colorcfdee8 svgShape"></polygon></g><g fill="#010001" class="color000000 svgShape"><polygon fill="#f4f6f8" points="141.747 141.965 141.753 143.905 147.277 140.716 147.271 138.776" class="colorc5d4dd svgShape"></polygon></g><g fill="#010001" class="color000000 svgShape"><polygon fill="#ffffff" points="136.267 138.78 141.747 141.965 147.271 138.776 141.791 135.591" class="colorffffff svgShape"></polygon></g></g></g><g fill="#010001" class="color000000 svgShape"><g fill="#010001" class="color000000 svgShape"><g fill="#010001" class="color000000 svgShape"><polygon fill="#736170" points="138.723 86.657 138.86 138.71 141.834 140.439 141.697 88.386" class="color616173 svgShape"></polygon></g><g fill="#010001" class="color000000 svgShape"><polygon fill="#5e4c5b" points="141.697 88.386 141.834 140.439 144.821 138.715 144.683 86.661" class="color4c4c5e svgShape"></polygon></g><g fill="#010001" class="color000000 svgShape"><polygon fill="#ffffff" points="138.723 86.657 141.697 88.386 144.683 86.661 141.709 84.933" class="colorffffff svgShape"></polygon></g></g></g></g><g fill="#010001" class="color000000 svgShape"><g fill="#010001" class="color000000 svgShape"><g fill="#010001" class="color000000 svgShape"><g fill="#010001" class="color000000 svgShape"><polygon fill="#cfdbe8" points="103.7 119.222 103.706 121.162 109.186 124.347 109.181 122.407" class="colorcfdee8 svgShape"></polygon></g><g fill="#010001" class="color000000 svgShape"><polygon fill="#f4f6f8" points="109.181 122.407 109.186 124.347 114.71 121.157 114.705 119.217" class="colorc5d4dd svgShape"></polygon></g><g fill="#010001" class="color000000 svgShape"><polygon fill="#ffffff" points="103.7 119.222 109.181 122.407 114.705 119.217 109.224 116.032" class="colorffffff svgShape"></polygon></g></g></g><g fill="#010001" class="color000000 svgShape"><g fill="#010001" class="color000000 svgShape"><g fill="#010001" class="color000000 svgShape"><polygon fill="#736170" points="106.156 67.099 106.294 119.152 109.268 120.881 109.131 68.827" class="color616173 svgShape"></polygon></g><g fill="#010001" class="color000000 svgShape"><polygon fill="#5e4c5b" points="109.131 68.827 109.268 120.881 112.254 119.156 112.117 67.103" class="color4c4c5e svgShape"></polygon></g><g fill="#010001" class="color000000 svgShape"><polygon fill="#ffffff" points="106.156 67.099 109.131 68.827 112.117 67.103 109.143 65.375" class="colorffffff svgShape"></polygon></g></g></g></g></g><g fill="#010001" class="color000000 svgShape"><g fill="#010001" class="color000000 svgShape"><g fill="#010001" class="color000000 svgShape"><polygon fill="#e229c0" points="153.246 94.226 211.423 60.417 211.401 68.171 153.224 101.98" class="colore22951 svgShape"></polygon></g><g fill="#010001" class="color000000 svgShape"><polygon fill="#87868f" points="92.849 59.356 151.027 25.547 211.423 60.417 153.246 94.226" class="color868c8f svgShape"></polygon></g><g fill="#010001" class="color000000 svgShape"><polygon fill="#ea3dcb" points="153.246 94.226 153.224 101.98 92.828 67.11 92.849 59.356" class="colorea3d5b svgShape"></polygon></g></g><g fill="#010001" class="color000000 svgShape"><g fill="#010001" class="color000000 svgShape"><polygon fill="#ff6ce4" points="92.849 59.356 151.027 25.547 181.306 16.774 123.129 50.583" class="colorff6c85 svgShape"></polygon></g><g fill="#010001" class="color000000 svgShape"><polygon fill="#fd54de" points="123.129 50.583 181.306 16.774 211.423 60.417 153.246 94.226" class="colorfd546b svgShape"></polygon></g><g fill="#010001" class="color000000 svgShape"><polygon fill="#ea3dcb" points="123.129 50.583 153.246 94.226 92.849 59.356" class="colorea3d5b svgShape"></polygon><g fill="#010001" class="color000000 svgShape"><polygon fill="#e229c0" points="140.365 81.198 105.078 60.86 122.754 55.727 121.792 54.316 100.972 60.347 142.514 84.342" class="colore22951 svgShape"></polygon><polygon fill="#a50b89" points="140.365 81.198 122.754 55.727 105.078 60.86" class="colord12451 svgShape"></polygon></g></g></g></g><polygon fill="#4c4c4c" points="121.409 91.893 121.313 119.49 138.251 129.275 138.347 101.676" class="color4c4c4c svgShape"></polygon><g fill="#010001" class="color000000 svgShape"><polygon fill="#f4f6f8" points="121.313 119.49 121.409 91.893 119.356 90.706 119.228 120.485 121.313 119.49" class="colorc5d4dd svgShape"></polygon><polygon fill="#f4f6f8" points="121.313 119.49 119.228 120.485 119.228 120.485 138.251 131.456 138.251 129.275" class="colore7f1f7 svgShape"></polygon></g></g><g fill="#010001" class="color000000 svgShape"><path fill="#f4f6f8" d="M122.21654,59.90085c2.19351,1.26643,3.967,4.3383,3.95985,6.85887
							c-0.00714,2.52042-1.79223,3.53775-3.98574,2.27132s-3.967-4.3383-3.95986-6.85872
							C118.23794,59.65175,120.02302,58.63443,122.21654,59.90085z" class="colore7f1f7 svgShape"></path></g></g><g fill="#010001" class="color000000 svgShape"><polygon fill="#5046e4" points="138.251 131.456 126.568 138.245 107.559 127.27 119.242 120.449" class="color3765c7 svgShape"></polygon></g><g fill="#010001" class="color000000 svgShape"><polygon fill="#5046e4" points="126.544 142.626 120.484 146.148 101.475 135.173 107.535 131.619" class="color3765c7 svgShape"></polygon></g><g fill="#010001" class="color000000 svgShape"><polygon fill="#5046e4" points="120.466 150.487 114.406 154.066 95.397 143.091 101.457 139.538" class="color3765c7 svgShape"></polygon></g><g fill="#010001" class="color000000 svgShape"><polygon fill="#5046e4" points="114.387 158.406 91.456 171.951 72.447 160.976 95.378 147.457" class="color3765c7 svgShape"></polygon></g><g fill="#010001" class="color000000 svgShape"><polygon fill="#1d13ab" points="120.484 146.148 120.464 150.504 101.455 139.555 101.475 135.171" class="color1352ab svgShape"></polygon></g><g fill="#010001" class="color000000 svgShape"><polygon fill="#1d13ab" points="114.404 154.065 114.384 158.422 95.375 147.472 95.395 143.089" class="color1352ab svgShape"></polygon></g></g><g fill="#010001" class="color000000 svgShape"><g fill="#010001" class="color000000 svgShape"><g fill="#010001" class="color000000 svgShape"><polygon fill="#7caddf" points="175.103 192.082 175.112 195.296 188.721 203.204 188.712 199.991" class="color7cdf82 svgShape"></polygon><polygon fill="#7b75d1" points="188.712 199.991 188.721 203.204 215.968 187.479 215.959 184.265" class="color75d178 svgShape"></polygon><polygon fill="#e1e5ea" points="199.629 193.686 199.638 196.899 205.754 193.375 205.745 190.161" class="colore1e4ea svgShape"></polygon><polygon fill="#94c0ed" points="175.104 192.084 188.711 199.991 215.961 184.261 202.35 176.35" class="color94ed96 svgShape"></polygon><polygon fill="#acd2f9" points="215.026 184.26 202.349 176.891 176.039 192.086 188.712 199.45" class="coloracf9ac svgShape"></polygon><polygon fill="#7b75d1" points="192.027 195.261 192.597 195.592 195.092 194.152 194.523 193.821" class="color75d178 svgShape"></polygon><polygon fill="#7b75d1" points="188.859 195.814 189.428 196.145 193.99 193.511 193.42 193.18" class="color75d178 svgShape"></polygon><path fill="#7b75d1" d="M202.35696,181.69246c-1.14249,0.65962-1.15263,1.72891-0.01758,2.38853
							s2.98523,0.65964,4.1277,0.00002c1.14249-0.65961,1.14438-1.7289,0.00932-2.38852S203.49944,181.03285,202.35696,181.69246z" class="color75d178 svgShape"></path><polygon fill="#7b75d1" points="204.181 186.967 204.751 187.298 209.317 184.662 208.747 184.331" class="color75d178 svgShape"></polygon><path fill="#7b75d1" d="M200.87021,185.08594c2.93394,1.70503,2.91841,4.46739-0.03072,6.17006
							c-2.94899,1.70261-7.71796,1.70259-10.65192-0.00244c-2.92995-1.7027-2.9144-4.46506,0.03461-6.16766
							C193.17131,183.38321,197.94026,183.38324,200.87021,185.08594z M196.20924,190.72491
							c0.69907-0.02383,1.37424-0.20477,2.01752-0.54294l0.64749,0.37628l0.58159-0.33578l-0.65561-0.381
							c0.74704-0.52635,1.16161-1.14545,1.24779-1.85507l-1.4426-0.07384c-0.06876,0.54773-0.3345,1.00017-0.78462,1.35973
							l-1.74567-1.01447c0.51666-0.4881,0.80684-0.9025,0.858-1.23595c0.05531-0.33572-0.17719-0.65724-0.69765-0.95969
							c-0.51633-0.30006-1.12804-0.44051-1.81891-0.42151c-0.69891,0.0191-1.35362,0.1881-1.96803,0.5096l-0.45074-0.26195
							l-0.58159,0.33578l0.45898,0.26672c-0.61067,0.40962-1.01639,0.90489-1.20464,1.47885l1.41756,0.14044
							c0.11328-0.39288,0.3741-0.74294,0.76651-1.05011l1.69229,0.98346l-0.02473,0.01428
							c-0.52896,0.49533-0.82318,0.91684-0.87042,1.26697c-0.05138,0.3476,0.18533,0.67621,0.70988,0.98105
							C194.88611,190.61057,195.50195,190.74875,196.20924,190.72491" class="color75d178 svgShape"></path><path fill="#7b75d1" d="M195.02356,186.63853c-0.20076-0.11667-0.44714-0.16911-0.73494-0.15956
							c-0.29202,0.01189-0.58018,0.08812-0.87709,0.23094l1.55724,0.90497c0.22752-0.25961,0.34785-0.45723,0.34863-0.59535
							C195.32228,186.88382,195.22432,186.7552,195.02356,186.63853z" class="color75d178 svgShape"></path><polygon fill="#7b75d1" points="205.284 187.608 205.853 187.939 208.353 186.496 207.783 186.165" class="color75d178 svgShape"></polygon><path fill="#7b75d1" d="M195.25105,189.31273c-0.00906,0.14766,0.08888,0.28107,0.30197,0.40489
							c0.20898,0.12144,0.46767,0.17146,0.77623,0.15479c0.30835-0.01666,0.61717-0.10005,0.93452-0.25006l-1.61861-0.94063
							C195.39696,188.95317,195.2643,189.1628,195.25105,189.31273z" class="color75d178 svgShape"></path><path fill="#acd2f9" d="M194.52219,188.05777l0.02473-0.01428l-1.69229-0.98346
							c-0.39241,0.30717-0.65323,0.65723-0.76651,1.05011l-1.41756-0.14044c0.18825-0.57396,0.59396-1.06923,1.20464-1.47885
							l-0.45898-0.26672l0.58159-0.33578l0.45074,0.26195c0.61441-0.3215,1.26912-0.49049,1.96803-0.5096
							c0.69087-0.019,1.30258,0.12144,1.81891,0.42151c0.52046,0.30244,0.75296,0.62396,0.69765,0.95969
							c-0.05116,0.33345-0.34134,0.74785-0.858,1.23595l1.74567,1.01447c0.45012-0.35956,0.71587-0.812,0.78462-1.35973
							l1.4426,0.07384c-0.08618,0.70963-0.50075,1.32872-1.24779,1.85507l0.65561,0.381l-0.58159,0.33578l-0.64749-0.37628
							c-0.64328,0.33817-1.31845,0.5191-2.01752,0.54294c-0.70729,0.02383-1.32314-0.11435-1.8476-0.41913
							c-0.52455-0.30484-0.76126-0.63345-0.70988-0.98105C193.69901,188.97461,193.99323,188.5531,194.52219,188.05777z
							 M196.32925,189.87241c0.30835-0.01666,0.61717-0.10005,0.93452-0.25006l-1.61861-0.94063
							c-0.24821,0.27145-0.38087,0.48108-0.39412,0.63101c-0.00906,0.14766,0.08888,0.28107,0.30197,0.40489
							C195.76201,189.83907,196.02069,189.88908,196.32925,189.87241 M194.96877,187.61488
							c0.22752-0.25961,0.34785-0.45723,0.34863-0.59535c0.00488-0.13571-0.09308-0.26433-0.29384-0.381
							s-0.44714-0.16911-0.73494-0.15956c-0.29202,0.01189-0.58018,0.08812-0.87709,0.23094L194.96877,187.61488" class="coloracf9ac svgShape"></path><path fill="#7b75d1" d="M184.32425,192.10365c-1.14259,0.65968-1.14848,1.72652-0.01343,2.38614
							s2.98097,0.66208,4.12357,0.00241c1.14247-0.65961,1.14839-1.73123,0.01334-2.39085
							C187.31268,191.44173,185.46674,191.44405,184.32425,192.10365z" class="color75d178 svgShape"></path><path fill="#94c0ed" d="M200.70853,178.74199c0.89328,0.51912,2.35278,0.51672,3.25203-0.00246l7.87601,4.57704
							c-0.89925,0.51917-0.90813,1.36458-0.01074,1.88608l-21.47668,12.39958c-0.8974-0.52151-2.35278-0.52151-3.25201-0.00235
							l-7.87601-4.57703c0.89923-0.51917,0.90399-1.36218,0.01071-1.8813L200.70853,178.74199z M200.83949,191.256
							c2.94913-1.70267,2.96466-4.46503,0.03072-6.17006c-2.92995-1.7027-7.6989-1.70273-10.64803-0.00005
							c-2.94901,1.70261-2.96455,4.46497-0.03461,6.16766C193.12154,192.95859,197.8905,192.9586,200.83949,191.256
							 M206.47641,181.69247c-1.13506-0.65961-2.97697-0.65962-4.11945-0.00002s-1.15263,1.72891-0.01758,2.38853
							s2.98523,0.65962,4.1277,0.00002C207.60957,183.4214,207.61147,182.35211,206.47641,181.69247 M188.43439,194.4922
							c1.14247-0.65962,1.14841-1.73125,0.01335-2.39087c-1.13506-0.65961-2.981-0.65729-4.12349,0.00232
							c-1.14259,0.65967-1.14848,1.72652-0.01343,2.38614S187.29179,195.15187,188.43439,194.4922 M204.75104,187.2982
							l4.56599-2.63618l-0.56958-0.33101l-4.56599,2.63618L204.75104,187.2982 M189.42813,196.1449l4.56186-2.63379l-0.5696-0.33101
							l-4.56186,2.63379L189.42813,196.1449 M205.85329,187.93877l2.49956-1.44313l-0.56956-0.33099l-2.49956,1.44312
							L205.85329,187.93877 M192.59682,195.59239l2.49542-1.44073l-0.56958-0.33099l-2.49542,1.44072L192.59682,195.59239" class="color94ed96 svgShape"></path></g><polygon fill="#f4f6f8" points="186.023 185.779 199.629 193.686 205.745 190.161 192.134 182.25" class="colore7f1f7 svgShape"></polygon></g><g fill="#010001" class="color000000 svgShape"><g fill="#010001" class="color000000 svgShape"><polygon fill="#7caddf" points="174.818 184.324 174.827 187.537 188.436 195.446 188.427 192.232" class="color7cdf82 svgShape"></polygon><polygon fill="#7b75d1" points="188.427 192.232 188.436 195.446 215.683 179.721 215.674 176.507" class="color75d178 svgShape"></polygon><polygon fill="#e1e5ea" points="199.344 185.927 199.353 189.141 205.469 185.617 205.46 182.403" class="colore1e4ea svgShape"></polygon><polygon fill="#94c0ed" points="174.819 184.326 188.426 192.233 215.676 176.503 202.065 168.591" class="color94ed96 svgShape"></polygon><polygon fill="#acd2f9" points="214.741 176.502 202.064 169.133 175.754 184.327 188.427 191.692" class="coloracf9ac svgShape"></polygon><polygon fill="#7b75d1" points="191.742 187.503 192.312 187.834 194.807 186.393 194.238 186.062" class="color75d178 svgShape"></polygon><polygon fill="#7b75d1" points="188.574 188.055 189.143 188.386 193.705 185.753 193.135 185.422" class="color75d178 svgShape"></polygon><path fill="#7b75d1" d="M202.07199,173.93407c-1.14249,0.65961-1.15262,1.7289-0.01758,2.38852
							c1.13506,0.65962,2.98523,0.65964,4.1277,0.00002c1.14249-0.65961,1.14438-1.7289,0.00932-2.38852
							S203.21446,173.27444,202.07199,173.93407z" class="color75d178 svgShape"></path><polygon fill="#7b75d1" points="203.896 179.209 204.466 179.54 209.032 176.904 208.462 176.573" class="color75d178 svgShape"></polygon><path fill="#7b75d1" d="M200.58524,177.32753c2.93394,1.70503,2.91841,4.46739-0.03072,6.17006
							c-2.94899,1.70261-7.71796,1.70259-10.65192-0.00244c-2.92995-1.7027-2.9144-4.46506,0.03461-6.16766
							C192.88634,175.6248,197.65529,175.62483,200.58524,177.32753z M195.92427,182.96651
							c0.69907-0.02383,1.37424-0.20477,2.01752-0.54294l0.64749,0.37628l0.58159-0.33578l-0.65561-0.381
							c0.74704-0.52635,1.16161-1.14545,1.24779-1.85507l-1.4426-0.07384c-0.06876,0.54773-0.33449,1.00017-0.78462,1.35973
							l-1.74565-1.01447c0.51665-0.4881,0.80682-0.9025,0.85799-1.23595c0.05531-0.33572-0.17719-0.65724-0.69765-0.95969
							c-0.51633-0.30006-1.12804-0.44051-1.81891-0.42151c-0.69891,0.0191-1.35362,0.1881-1.96803,0.5096l-0.45074-0.26193
							l-0.58157,0.33577l0.45897,0.26672c-0.61067,0.40962-1.01639,0.90489-1.20464,1.47885l1.41756,0.14044
							c0.11328-0.39288,0.3741-0.74294,0.76651-1.05011l1.69229,0.98346l-0.02473,0.01428
							c-0.52896,0.49533-0.82318,0.91684-0.87042,1.26697c-0.05136,0.3476,0.18533,0.67621,0.7099,0.98106
							C194.60114,182.85217,195.21698,182.99034,195.92427,182.96651" class="color75d178 svgShape"></path><path fill="#7b75d1" d="M194.7386,178.88013c-0.20076-0.11667-0.44716-0.16911-0.73495-0.15956
							c-0.29202,0.01189-0.58017,0.08812-0.87709,0.23094l1.55725,0.90497c0.22751-0.25961,0.34784-0.45723,0.34862-0.59535
							C195.03732,179.12541,194.93935,178.9968,194.7386,178.88013z" class="color75d178 svgShape"></path><polygon fill="#7b75d1" points="204.999 179.849 205.568 180.18 208.068 178.737 207.498 178.406" class="color75d178 svgShape"></polygon><path fill="#7b75d1" d="M194.96609,181.55432c-0.00908,0.14766,0.08887,0.28107,0.30196,0.40489
							c0.20898,0.12144,0.46767,0.17146,0.77623,0.15479c0.30835-0.01666,0.61717-0.10005,0.93452-0.25006l-1.61861-0.94063
							C195.11198,181.19476,194.97932,181.40439,194.96609,181.55432z" class="color75d178 svgShape"></path><path fill="#acd2f9" d="M194.23721,180.29936l0.02473-0.01428l-1.69229-0.98346
							c-0.39241,0.30717-0.65323,0.65723-0.76651,1.05011l-1.41756-0.14044c0.18825-0.57396,0.59396-1.06923,1.20464-1.47885
							l-0.45897-0.26672l0.58157-0.33577l0.45074,0.26193c0.61441-0.3215,1.26912-0.49049,1.96803-0.5096
							c0.69087-0.019,1.30258,0.12144,1.81891,0.42151c0.52046,0.30244,0.75296,0.62396,0.69765,0.95969
							c-0.05116,0.33345-0.34134,0.74785-0.85799,1.23595l1.74565,1.01447c0.45013-0.35956,0.71587-0.812,0.78462-1.35973
							l1.4426,0.07384c-0.08618,0.70963-0.50075,1.32872-1.24779,1.85507l0.65561,0.381l-0.58159,0.33578l-0.64749-0.37628
							c-0.64328,0.33817-1.31845,0.5191-2.01752,0.54294c-0.70729,0.02383-1.32314-0.11433-1.84758-0.41911
							c-0.52457-0.30486-0.76126-0.63347-0.7099-0.98106C193.41403,181.2162,193.70825,180.79469,194.23721,180.29936z
							 M196.04428,182.114c0.30835-0.01666,0.61717-0.10005,0.93452-0.25006l-1.61861-0.94063
							c-0.24821,0.27145-0.38087,0.48108-0.3941,0.63101c-0.00908,0.14766,0.08887,0.28107,0.30196,0.40489
							C195.47704,182.08066,195.73572,182.13068,196.04428,182.114 M194.68381,179.85648
							c0.22751-0.25961,0.34784-0.45723,0.34862-0.59535c0.0049-0.13571-0.09308-0.26433-0.29382-0.381
							c-0.20076-0.11667-0.44716-0.16911-0.73495-0.15956c-0.29202,0.01189-0.58017,0.08812-0.87709,0.23094L194.68381,179.85648" class="coloracf9ac svgShape"></path><path fill="#7b75d1" d="M184.03928,184.34525c-1.14259,0.65968-1.14848,1.72652-0.01343,2.38614
							s2.98097,0.66209,4.12357,0.00241c1.14247-0.65961,1.14839-1.73123,0.01334-2.39085
							C187.02771,183.68332,185.18176,183.68564,184.03928,184.34525z" class="color75d178 svgShape"></path><path fill="#94c0ed" d="M200.42355,170.98358c0.89328,0.51912,2.35278,0.51672,3.25203-0.00246l7.87601,4.57704
							c-0.89925,0.51918-0.90813,1.36458-0.01073,1.88608l-21.4767,12.39958c-0.8974-0.52151-2.35278-0.52151-3.25201-0.00235
							l-7.87601-4.57703c0.89923-0.51917,0.90399-1.36218,0.01071-1.8813L200.42355,170.98358z M200.55452,183.49759
							c2.94913-1.70267,2.96466-4.46503,0.03072-6.17006c-2.92995-1.7027-7.6989-1.70273-10.64803-0.00005
							c-2.94901,1.70261-2.96455,4.46497-0.03461,6.16766C192.83656,185.20018,197.60553,185.2002,200.55452,183.49759
							 M206.19144,173.93407c-1.13506-0.65961-2.97697-0.65962-4.11945-0.00002s-1.15262,1.72891-0.01758,2.38853
							c1.13506,0.65962,2.98523,0.65962,4.12772,0.00002C207.3246,175.66299,207.32649,174.5937,206.19144,173.93407
							 M188.14941,186.7338c1.14249-0.65962,1.14841-1.73123,0.01335-2.39087c-1.13506-0.65961-2.981-0.65729-4.12349,0.00232
							c-1.14259,0.65968-1.14848,1.72652-0.01343,2.38614S187.00682,187.39346,188.14941,186.7338 M204.46608,179.53979
							l4.56598-2.63618l-0.56958-0.33101l-4.56599,2.63618L204.46608,179.53979 M189.14316,188.38649l4.56186-2.63379
							l-0.5696-0.33101l-4.56186,2.63379L189.14316,188.38649 M205.56833,180.18036l2.49956-1.44313l-0.56958-0.33099
							l-2.49956,1.44312L205.56833,180.18036 M192.31184,187.83398l2.49542-1.44073l-0.56958-0.33099l-2.49542,1.44072
							L192.31184,187.83398" class="color94ed96 svgShape"></path></g><polygon fill="#f4f6f8" points="185.738 178.02 199.344 185.927 205.46 182.403 191.849 174.491" class="colore7f1f7 svgShape"></polygon></g><g fill="#010001" class="color000000 svgShape"><g fill="#010001" class="color000000 svgShape"><polygon fill="#7caddf" points="179.575 176.122 179.584 179.335 193.193 187.244 193.184 184.03" class="color7cdf82 svgShape"></polygon><polygon fill="#7b75d1" points="193.184 184.03 193.193 187.244 220.44 171.519 220.431 168.305" class="color75d178 svgShape"></polygon><polygon fill="#e1e5ea" points="204.101 177.726 204.11 180.939 210.226 177.415 210.217 174.201" class="colore1e4ea svgShape"></polygon><polygon fill="#94c0ed" points="179.576 176.124 193.182 184.031 220.433 168.301 206.822 160.389" class="color94ed96 svgShape"></polygon><polygon fill="#acd2f9" points="219.498 168.3 206.821 160.931 180.511 176.125 193.184 183.49" class="coloracf9ac svgShape"></polygon><polygon fill="#7b75d1" points="196.499 179.301 197.069 179.632 199.564 178.191 198.994 177.86" class="color75d178 svgShape"></polygon><polygon fill="#7b75d1" points="193.33 179.854 193.9 180.185 198.462 177.551 197.892 177.22" class="color75d178 svgShape"></polygon><path fill="#7b75d1" d="M206.8288,165.73212c-1.14249,0.65961-1.15262,1.7289-0.01758,2.38852
							c1.13506,0.65962,2.98523,0.65964,4.1277,0.00003c1.14249-0.65962,1.14438-1.72891,0.00932-2.38853
							S207.97127,165.07251,206.8288,165.73212z" class="color75d178 svgShape"></path><polygon fill="#7b75d1" points="208.653 171.007 209.223 171.338 213.789 168.702 213.219 168.371" class="color75d178 svgShape"></polygon><path fill="#7b75d1" d="M205.34204,169.1256c2.93394,1.70502,2.91841,4.46738-0.03072,6.17006
							c-2.94899,1.70259-7.71796,1.70258-10.65192-0.00246c-2.92995-1.7027-2.9144-4.46506,0.03461-6.16766
							C197.64314,167.42287,202.41209,167.42288,205.34204,169.1256z M200.68108,174.76456
							c0.69907-0.02383,1.37424-0.20476,2.01752-0.54294l0.64749,0.37628l0.58159-0.33577l-0.65561-0.38101
							c0.74704-0.52634,1.16161-1.14545,1.24779-1.85507l-1.4426-0.07384c-0.06876,0.54773-0.33449,1.00018-0.78462,1.35973
							l-1.74565-1.01447c0.51665-0.4881,0.80682-0.9025,0.85799-1.23595c0.05531-0.33572-0.17719-0.65723-0.69765-0.95969
							c-0.51633-0.30005-1.12804-0.44049-1.81891-0.42151c-0.69891,0.01912-1.35362,0.18811-1.96803,0.5096l-0.45074-0.26193
							l-0.58157,0.33577l0.45897,0.26674c-0.61067,0.40961-1.01639,0.90488-1.20464,1.47885l1.41756,0.14043
							c0.11328-0.39288,0.3741-0.74294,0.76651-1.05009l1.69229,0.98344l-0.02473,0.01428
							c-0.52896,0.49533-0.82318,0.91684-0.87042,1.26697c-0.05136,0.3476,0.18533,0.67622,0.7099,0.98106
							C199.35794,174.65022,199.97379,174.78839,200.68108,174.76456" class="color75d178 svgShape"></path><path fill="#7b75d1" d="M199.49541,170.67818c-0.20076-0.11667-0.44716-0.16911-0.73495-0.15956
							c-0.29202,0.01189-0.58017,0.08812-0.87709,0.23094l1.55725,0.90497c0.22751-0.25961,0.34784-0.45723,0.34862-0.59534
							C199.79413,170.92346,199.69615,170.79485,199.49541,170.67818z" class="color75d178 svgShape"></path><polygon fill="#7b75d1" points="209.756 171.647 210.325 171.978 212.825 170.535 212.255 170.204" class="color75d178 svgShape"></polygon><path fill="#7b75d1" d="M199.7229,173.35237c-0.00908,0.14766,0.08887,0.28107,0.30196,0.40491
							c0.20898,0.12144,0.46767,0.17145,0.77623,0.15477c0.30835-0.01666,0.61717-0.10005,0.93452-0.25005l-1.61861-0.94063
							C199.86879,172.99281,199.73613,173.20244,199.7229,173.35237z" class="color75d178 svgShape"></path><path fill="#acd2f9" d="M198.99402,172.09741l0.02473-0.01428l-1.69229-0.98344
							c-0.39241,0.30716-0.65323,0.65721-0.76651,1.05009l-1.41756-0.14043c0.18825-0.57397,0.59396-1.06924,1.20464-1.47885
							l-0.45897-0.26674l0.58157-0.33577l0.45074,0.26193c0.61441-0.32149,1.26912-0.49048,1.96803-0.5096
							c0.69087-0.01898,1.30258,0.12146,1.81891,0.42151c0.52046,0.30246,0.75296,0.62396,0.69765,0.95969
							c-0.05116,0.33345-0.34134,0.74785-0.85799,1.23595l1.74565,1.01447c0.45013-0.35954,0.71587-0.812,0.78462-1.35973
							l1.4426,0.07384c-0.08618,0.70963-0.50075,1.32874-1.24779,1.85507l0.65561,0.38101l-0.58159,0.33577l-0.64749-0.37628
							c-0.64328,0.33818-1.31845,0.5191-2.01752,0.54294c-0.70729,0.02383-1.32314-0.11433-1.84758-0.41911
							c-0.52457-0.30484-0.76126-0.63347-0.7099-0.98106C198.17084,173.01425,198.46506,172.59274,198.99402,172.09741z
							 M200.80109,173.91205c0.30835-0.01666,0.61717-0.10005,0.93452-0.25005l-1.61861-0.94063
							c-0.24821,0.27144-0.38087,0.48106-0.3941,0.631c-0.00908,0.14766,0.08887,0.28107,0.30196,0.40491
							C200.23384,173.87872,200.49252,173.92873,200.80109,173.91205 M199.44061,171.65453
							c0.22751-0.25961,0.34784-0.45723,0.34862-0.59534c0.0049-0.13573-0.09308-0.26434-0.29382-0.38101
							c-0.20076-0.11667-0.44716-0.16911-0.73495-0.15956c-0.29202,0.01189-0.58017,0.08812-0.87709,0.23094L199.44061,171.65453" class="coloracf9ac svgShape"></path><path fill="#7b75d1" d="M188.79608,176.1433c-1.14259,0.65968-1.14848,1.72653-0.01343,2.38614
							c1.13506,0.65962,2.98097,0.66209,4.12357,0.00241c1.14247-0.65961,1.14839-1.73123,0.01334-2.39085
							C191.78452,175.48137,189.93857,175.48369,188.79608,176.1433z" class="color75d178 svgShape"></path><path fill="#94c0ed" d="M205.18036,162.78163c0.89328,0.51912,2.35278,0.51672,3.25203-0.00246l7.87601,4.57704
							c-0.89925,0.51918-0.90813,1.36458-0.01073,1.88608l-21.4767,12.39958c-0.8974-0.5215-2.35278-0.52151-3.25201-0.00233
							l-7.87601-4.57704c0.89923-0.51917,0.90399-1.36217,0.01071-1.88129L205.18036,162.78163z M205.31133,175.29565
							c2.94913-1.70268,2.96466-4.46504,0.03072-6.17006c-2.92995-1.70271-7.6989-1.70273-10.64803-0.00006
							c-2.94901,1.70261-2.96455,4.46497-0.03461,6.16766C197.59337,176.99823,202.36234,176.99825,205.31133,175.29565
							 M210.94824,165.73213c-1.13506-0.65962-2.97697-0.65964-4.11945-0.00003s-1.15262,1.72891-0.01758,2.38853
							c1.13506,0.65962,2.98523,0.65962,4.12772,0.00002C212.08141,167.46104,212.0833,166.39175,210.94824,165.73213
							 M192.90622,178.53185c1.14249-0.65961,1.14841-1.73123,0.01335-2.39085s-2.981-0.6573-4.12349,0.0023
							c-1.14259,0.65968-1.14848,1.72652-0.01343,2.38614S191.76363,179.19153,192.90622,178.53185 M209.22289,171.33784
							l4.56598-2.63617l-0.56958-0.33101l-4.56599,2.63617L209.22289,171.33784 M193.89996,180.18454l4.56186-2.63379
							l-0.5696-0.33101l-4.56186,2.63379L193.89996,180.18454 M210.32513,171.97841l2.49956-1.44313l-0.56958-0.33099
							l-2.49956,1.44312L210.32513,171.97841 M197.06865,179.63203l2.49542-1.44073l-0.56958-0.33099l-2.49542,1.44073
							L197.06865,179.63203" class="color94ed96 svgShape"></path></g><polygon fill="#f4f6f8" points="190.494 169.819 204.101 177.726 210.217 174.201 196.605 166.289" class="colore7f1f7 svgShape"></polygon></g></g><g fill="#010001" class="color000000 svgShape"><path fill="#2e262e" d="M54.05937 151.93964c0 0 2.36908 3.19141 2.70193 4.09204.33284.90065.54822 1.56633-.0979 1.95792s-2.85856.21538-3.32846-.43074-1.41962-2.79181-1.92868-2.75264c-.50906.03915-1.45852-1.10446-1.45852-1.90721 0-.80273-.19579-1.58591.07832-2.03622C50.30016 150.41246 53.94189 151.25436 54.05937 151.93964zM55.82274 148.96225c-.05417.57053.97849 1.1265 1.58868 1.1265.61023 0 1.56708.96051 3.228 2.3073 1.66454 1.34679 3.65766.94235 4.11984.64624.45856-.29601-.07579-1.29257-.44411-1.95697-.36828-.66432-3.41572-2.80553-3.41572-2.80553-.18415-.70047-4.17039-1.53094-4.5423-1.12651C55.98882 147.55763 55.88049 148.39174 55.82274 148.96225z" class="color26262e svgShape"></path><g fill="#010001" class="color000000 svgShape"><path fill="#b5d9fe" d="M37.86299 97.7442l1.59639-1.54644-1.79801-1.7172c0 0-.03564-1.87595-.19184-2.12055-.1562-.24461-.22242-1.33619-.22773-1.58326-.00531-.24708.09609-.59959-.10968-.59399-.20576.00559-.5961.3313-.59564.699.00047.36769.15518 1.07723.15737 1.16383.00219.08661-.08263.39658-.17621.36012s-.60932-.24961-.75496-.3676c-.14565-.11799-2.12174-2.94585-2.19452-2.97421-.07278-.02836-.39714-.11796-.42169.19099-.02455.30895 1.40219 2.64105 1.40219 2.64105l-.15158.11245-2.00658-2.28847c0 0-.24345-.20509-.45718.06691-.21374.272 2.00502 2.69212 2.00502 2.69212l-.11.12865c0 0-1.93544-1.91775-2.07475-1.95976-.13931-.04202-.48189.25329-.18841.57587.29348.32258 2.1455 2.02408 2.1455 2.02408l-.05793.21019c0 0-1.85587-1.07682-1.98016-1.12664-.24812-.09946-.42948.2462-.21984.37988.09274.05914 3.5846 2.63369 3.84047 2.80687s.834.41064.834.41064L37.86299 97.7442zM76.05258 85.70469l-2.13239-.62681.79336-2.35632c0 0-.84072-1.67739-.81617-1.96658.02455-.28918-.42438-1.28638-.53456-1.50758-.11018-.22121-.36387-.48615-.1791-.57687.18478-.09072.68179.01613.85235.34188.17056.32574.36351 1.02586.40184 1.10355s.25755.31267.32346.23689c.0659-.07578.42337-.50431.49745-.67648.07408-.17218.50867-3.59459.55992-3.65353s.29675-.28909.46214-.02699c.16539.26211-.01336 2.99017-.01336 2.99017l.18649.02908.71238-2.95905c0 0 .12016-.29477.43587-.15334.3157.14143-.52331 3.31569-.52331 3.31569l.1572.06276c0 0 .82178-2.59776.92558-2.69975.1038-.10197.5444.00018.43457.42223-.10983.42205-.95831 2.78957-.95831 2.78957l.14902.15915c0 0 1.14234-1.81628 1.22922-1.91817.17342-.20342.49471.01826.37126.23409-.05461.09548-1.94892 3.99843-2.09492 4.27072s-.54742.75134-.54742.75134L76.05258 85.70469z" class="colorfed0b5 svgShape"></path><path fill="#665463" d="M64.5621,105.20705c0,0,8.31502-8.88672,8.62683-10.60169
						c0.27679-1.52233,2.7925-8.35175,3.35419-9.86684c0.06837-0.18445,0.02895-0.39391-0.10098-0.54162
						c-0.99767-1.13413-1.32951-1.30207-2.47125-0.84184c-0.12629,0.0509-0.23004,0.14985-0.28672,0.27366
						c-0.59071,1.29035-4.02038,8.7287-5.01654,9.67742c-1.09135,1.03938-7.0158,6.80792-7.0158,6.80792L64.5621,105.20705z" class="color545466 svgShape"></path><path fill="#736170" d="M49.97781,108.93348c-0.20697-0.1278-7.44983-3.51726-8.0952-4.72874
						c-0.6522-1.21678-5.44205-7.31672-5.44205-7.31672c-0.31412-0.31494,1.571-2.55087,2.2228-1.99807
						c0.13126,0.11124,4.71032,5.46976,5.46014,5.94766c0.74298,0.4726,6.15673,2.34452,6.52139,1.91673
						C50.64489,102.75434,53.05965,110.81631,49.97781,108.93348z" class="color616173 svgShape"></path><path fill="#564753" d="M56.9156,136.48007c0.79989-1.51401,0.31426-4.02785,0.31426-4.77061
						c0,0-1.2061-8.97178,0.23255-14.02775c0.78658-2.76419,2.96068-2.9345,4.77071-2.52221v3.1242h2.56002
						c-0.24224,2.46764-0.66801,6.41572-1.00053,7.41351c-0.4933,1.47981-0.94543,10.11185-1.93194,12.90697
						c-0.9866,2.79523-0.92172,9.79063-0.92172,9.79063s-4.93177,0.45001-4.87455-0.97832
						C56.12152,145.98817,56.1158,137.99419,56.9156,136.48007z" class="color474756 svgShape"></path><path fill="#5e4c5b" d="M54.8394,153.20357c0,0-5.02769-0.45706-4.97056-1.88539
						c0.05713-1.42831,0.3428-9.02699,1.14266-10.54102s0.31423-4.02788,0.31423-4.7706c0,0-1.20612-8.97185,0.23256-14.02777
						c1.43868-5.05593,7.52224-1.43868,7.52224-1.43868s-0.69879,7.97439-1.19205,9.45417
						c-0.49326,1.4798-0.94542,10.11186-1.93194,12.90701S54.8394,153.20357,54.8394,153.20357z" class="color4c4c5e svgShape"></path><g fill="#010001" class="color000000 svgShape"><path fill="#f4f6f8" d="M63.60419,119.08674c0,0-5.57993,2.15501-8.0428,1.07751
							c-2.46286-1.07751-2.84769-19.20265-2.84769-19.20265s5.52864-2.42041,6.95248-1.24213
							c1.42385,1.17828,3.32228,4.85339,3.47621,6.74205C63.29633,108.35019,64.10445,118.27861,63.60419,119.08674z" class="colore7f1f7 svgShape"></path><path fill="#ea3dcb" d="M60.2929,103.80933l-1.23792-0.97836l-0.47919,1.43758l0.69883,0.63892
							c0,0,1.09815,1.79697,1.01829,11.64042l0.85855,1.15805l0.71879-1.39765c0,0-0.41775-8.64472-1.74551-11.55982
							L60.2929,103.80933z" class="colorea3d5b svgShape"></path><path fill="#736170" d="M59.53808,99.75464c1.81981,1.01463,2.95354,7.6078,3.61433,13.61599
							c0.00362,0.00361,0,0.00361,0,0.00361c0.57052,5.19579,0.08027,9.71066,0.08027,10.05367
							c0,0.74383,0.51997,1.939,0.96774,1.86309c0.06715-0.01083,0.15867-0.05061,0.26572-0.11042
							c1.02476-0.57253,1.53468-1.76705,1.30216-2.91765c-0.68746-3.40186-1.84921-11.16607-1.23296-12.83878
							c0.78349-2.12315-0.37192-7.71976-1.23131-9.13874c-0.54161-0.89184-1.89915-0.87015-2.82713-0.73299
							C59.93529,99.63545,59.53808,99.75464,59.53808,99.75464z" class="color616173 svgShape"></path><path fill="#665463" d="M59.53808,99.75464c1.81981,1.01463,2.95354,7.6078,3.61433,13.61599
							c1.02547-1.80174,0.45496-9.17118,0.45496-9.17118H62.34l0.62103-1.11935c-0.42243-1.18794-1.58868-2.59247-2.48413-3.52768
							C59.93529,99.63545,59.53808,99.75464,59.53808,99.75464z" class="color545466 svgShape"></path><g fill="#010001" class="color000000 svgShape"><path fill="#a7ccf2" d="M55.44723,100.24887c1.71609,2.43669,3.68417,2.66529,3.68417,2.66529
								c0.41157-0.34869-0.04663-4.32162,0.01416-5.44234c0.05983-1.10342-3.95361-2.04977-3.90484-1.41589
								C55.28944,96.68648,55.44723,100.24887,55.44723,100.24887z" class="colorf2c0a7 svgShape"></path><g fill="#010001" class="color000000 svgShape"><g fill="#010001" class="color000000 svgShape"><path fill="#cfdbe8" d="M54.35109 100.32359c.46153.83862 2.75203 4.41348 4.10419 4.29976l.65985-1.71895c0 0-2.27813-.61092-3.73755-2.9219C55.12404 100.15479 54.58185 100.13837 54.35109 100.32359zM59.11513 102.9044l1.42936 1.11639c0 0 .36485-2.69286-.63625-4.63975l-.50704-.56231c-.1528.00968-.3023.0227-.45185.04222C59.18337 99.93034 59.52142 101.89033 59.11513 102.9044z" class="colorcfdee8 svgShape"></path></g><path fill="#b5d9fe" d="M60.27608,98.29651c0.03824,0.55743,0.00364,1.20316-0.43719,1.54646
									c-0.39009,0.30379-0.9421,0.24531-1.42927,0.16087c-0.87927-0.15239-1.75234-0.34057-2.61632-0.5639
									c-0.67022-0.17325-1.35394-0.37716-1.89619-0.80749c-0.6358-0.50456-1.00913-1.26671-1.29291-2.02716
									c-0.28714-0.76945-0.50631-1.58959-0.41186-2.40542c0.1621-1.40025,1.32434-2.60977,2.70754-2.88127
									c1.1532-0.22636,2.38647,0.18958,3.22316,1.00111c0.17611,0.17082,0.36777,0.33414,0.53816,0.50949
									c0.21135,0.21751,0.32343,0.53304,0.44563,0.8051c0.31106,0.69251,0.56417,1.41101,0.75639,2.14543
									C60.07878,96.60335,60.2178,97.44711,60.27608,98.29651z" class="colorfed0b5 svgShape"></path><path fill="#7f4174" d="M59.01439,91.96182c-0.02095,0.83137-0.88944,1.86341-1.70971,1.97103
									c-0.2971,0.04156-0.60096,0.00574-0.899,0.03687c-0.29288,0.03069-0.60945,0.14635-0.76337,0.40344
									c-0.14496,0.24086-0.25916,0.59523-0.08965,0.81667c0.37463,0.48957,0.68451,1.00985,0.19777,1.85477
									c-0.09797,0.17014,0.03583,0.41153-0.09707,0.55273c-0.15213,0.15844-0.42463,0.1252-0.61507,0.02253
									c-0.19601-0.10738-0.35065-0.27544-0.55091-0.37206c-0.19556-0.10223-0.47568-0.10379-0.60545,0.07347
									c-0.07851,0.11051-0.07627,0.25552-0.1011,0.38731s-0.0899,0.27746-0.22236,0.30457
									c-0.14743,0.03359-0.27837-0.10033-0.36718-0.22729c-0.60377-0.86002-1.00727-1.86192-1.17028-2.90033
									c-0.08487-0.55783-0.09946-1.14243,0.11393-1.66926c0.17473-0.43511,0.5011-0.79545,0.86936-1.09196
									c0.69759-0.56367,1.57016-0.90408,2.46651-0.97174c0.89632-0.06765,1.80698,0.14866,2.58255,0.59966
									C58.34872,91.92867,59.01439,91.96182,59.01439,91.96182z" class="color7f5341 svgShape"></path></g></g><path fill="#736170" d="M50.6828,125.87889c0.06867,0.98943,7.34784,1.65012,7.8533,1.41185
							c0.50917-0.23837,0.33947-4.33286,0.40444-5.48466c0.06497-1.14827-0.23466-5.61829-0.03253-6.83514
							c0.0759-0.44411,0.01085-1.30703-0.12632-2.30721c-0.24559-1.744-0.71492-3.90682-1.058-5.00449
							c-0.50908-1.62482-3.57819-6.50651-3.92842-7.0661c-0.0253-0.03614-0.03614-0.05421-0.03614-0.05421
							c-2.46606,0.68609-3.07317,1.29783-3.89333,2.37524c-0.81483,1.07039,0.74926,7.40237,1.25758,9.00931
							c0.50422,1.59396,0.7113,1.35406,0.98211,2.87778S50.61783,124.88595,50.6828,125.87889z" class="color616173 svgShape"></path></g><path fill="#665463" d="M55.40564,106.72051c0.15162,0.35384,1.96782,3.2135,3.37605,5.94322
						c-0.24559-1.744-0.71492-3.90682-1.058-5.00449c-0.50908-1.62482-3.57819-6.50651-3.92842-7.0661l-0.11918,0.08304
						c0,0,1.53094,5.23192,1.72955,5.14888c0.19499-0.08665,1.02186,0,1.02186,0S55.16737,106.17168,55.40564,106.72051z" class="color545466 svgShape"></path></g></g><g fill="#010001" class="color000000 svgShape"><g fill="#010001" class="color000000 svgShape"><polygon fill="#7caddf" points="28.716 81.749 28.728 85.838 46.043 95.9 46.031 91.812" class="color7cdf82 svgShape"></polygon><polygon fill="#7b75d1" points="46.031 91.812 46.043 95.9 80.709 75.893 80.698 71.804" class="color75d178 svgShape"></polygon><polygon fill="#e1e5ea" points="59.921 83.79 59.933 87.879 67.714 83.394 67.702 79.306" class="colore1e4ea svgShape"></polygon><polygon fill="#94c0ed" points="28.718 81.752 46.03 91.812 80.701 71.799 63.383 61.733" class="color94ed96 svgShape"></polygon><polygon fill="#acd2f9" points="79.511 71.797 63.382 62.422 29.908 81.754 46.031 91.124" class="coloracf9ac svgShape"></polygon><polygon fill="#7b75d1" points="50.249 85.794 50.974 86.216 54.149 84.383 53.424 83.961" class="color75d178 svgShape"></polygon><polygon fill="#7b75d1" points="46.218 86.497 46.943 86.919 52.747 83.568 52.022 83.146" class="color75d178 svgShape"></polygon><path fill="#7b75d1" d="M63.39203,68.53056c-1.45359,0.83923-1.4665,2.19971-0.02235,3.03896
						c1.44414,0.83924,3.79814,0.83926,5.25172,0.00002c1.45359-0.83923,1.456-2.19971,0.01186-3.03896
						C67.18912,67.69135,64.84562,67.69134,63.39203,68.53056z" class="color75d178 svgShape"></path><polygon fill="#7b75d1" points="65.713 75.242 66.438 75.663 72.247 72.309 71.523 71.888" class="color75d178 svgShape"></polygon><path fill="#7b75d1" d="M61.50042,72.84812c3.7329,2.16933,3.71313,5.68391-0.03908,7.85024
						c-3.75204,2.16624-9.81966,2.16622-13.55256-0.00311c-3.72781-2.16637-3.70802-5.68095,0.04402-7.8472
						C51.70501,70.68172,57.77261,70.68176,61.50042,72.84812z M55.57022,80.02266c0.88942-0.03033,1.74844-0.26053,2.56689-0.6908
						l0.82383,0.47876l0.73996-0.42722l-0.83414-0.48476c0.95046-0.66968,1.47792-1.45737,1.58758-2.36023l-1.83543-0.09395
						c-0.08749,0.69688-0.42559,1.27253-0.9983,1.73l-2.22102-1.29071c0.65734-0.62102,1.02654-1.14827,1.09164-1.57252
						c0.07037-0.42714-0.22544-0.8362-0.88762-1.22102c-0.65693-0.38177-1.43521-0.56046-2.31422-0.53629
						c-0.88923,0.02431-1.72224,0.23933-2.50395,0.64838l-0.57349-0.33327L49.472,74.29625l0.58396,0.33936
						c-0.77696,0.52116-1.29316,1.15131-1.53267,1.88156l1.80357,0.17868c0.14413-0.49987,0.47597-0.94525,0.97524-1.33606
						l2.15312,1.25126l-0.03146,0.01817c-0.673,0.63023-1.04735,1.16651-1.10746,1.61198
						c-0.06535,0.44225,0.23581,0.86036,0.90321,1.24821C53.88678,79.87718,54.67032,80.05298,55.57022,80.02266" class="color75d178 svgShape"></path><path fill="#7b75d1" d="M54.06166,74.82351c-0.25543-0.14844-0.56892-0.21516-0.93508-0.20301
						c-0.37155,0.01512-0.73817,0.11211-1.11594,0.29382l1.9813,1.15141c0.28947-0.33031,0.44258-0.58173,0.44357-0.75745
						C54.44173,75.13559,54.31708,74.97195,54.06166,74.82351z" class="color75d178 svgShape"></path><polygon fill="#7b75d1" points="67.116 76.057 67.84 76.478 71.021 74.642 70.296 74.221" class="color75d178 svgShape"></polygon><path fill="#7b75d1" d="M54.35111,78.22591c-0.01155,0.18788,0.11308,0.35761,0.3842,0.51517
						c0.26588,0.15452,0.59501,0.21814,0.9876,0.19693c0.39231-0.0212,0.78524-0.1273,1.189-0.31815l-2.05936-1.19678
						C54.53674,77.76844,54.36795,78.03515,54.35111,78.22591z" class="color75d178 svgShape"></path><path fill="#acd2f9" d="M53.42376,76.62921l0.03146-0.01817l-2.15312-1.25126
						c-0.49927,0.39081-0.83111,0.83619-0.97524,1.33606l-1.80357-0.17868c0.2395-0.73026,0.7557-1.3604,1.53267-1.88156
						L49.472,74.29625l0.73996-0.42722l0.57349,0.33327c0.78171-0.40905,1.61472-0.62406,2.50395-0.64838
						c0.87901-0.02416,1.65729,0.15452,2.31422,0.53629c0.66217,0.38481,0.95799,0.79388,0.88762,1.22102
						c-0.0651,0.42425-0.43429,0.9515-1.09164,1.57252l2.22102,1.29071c0.57271-0.45747,0.91081-1.03312,0.9983-1.73
						l1.83543,0.09395c-0.10966,0.90286-0.63712,1.69055-1.58758,2.36023l0.83414,0.48476l-0.73996,0.42722l-0.82383-0.47876
						c-0.81845,0.43027-1.67748,0.66047-2.56689,0.6908c-0.89991,0.03032-1.68345-0.14548-2.35072-0.53326
						c-0.6674-0.38785-0.96856-0.80595-0.90321-1.24821C52.3764,77.79572,52.75076,77.25944,53.42376,76.62921z M55.72291,78.938
						c0.39231-0.0212,0.78524-0.1273,1.189-0.31815l-2.05936-1.19678c-0.31581,0.34536-0.4846,0.61207-0.50144,0.80283
						c-0.01155,0.18788,0.11308,0.35761,0.3842,0.51517C55.00119,78.89559,55.33031,78.95921,55.72291,78.938 M53.99195,76.06572
						c0.28947-0.33031,0.44258-0.58173,0.44357-0.75745c0.00621-0.17268-0.11843-0.33632-0.37385-0.48476
						c-0.25543-0.14844-0.56892-0.21516-0.93508-0.20301c-0.37155,0.01512-0.73817,0.11211-1.11594,0.29382L53.99195,76.06572" class="coloracf9ac svgShape"></path><path fill="#7b75d1" d="M40.4488,81.77685c-1.45373,0.83931-1.46123,2.19667-0.01709,3.03591s3.79273,0.84238,5.24646,0.00307
						c1.45359-0.83923,1.46112-2.20267,0.01698-3.04192C44.25101,80.93467,41.90239,80.93762,40.4488,81.77685z" class="color75d178 svgShape"></path><path fill="#94c0ed" d="M61.2947,64.77663c1.13653,0.66048,2.99348,0.65745,4.1376-0.00311l10.02074,5.82342
						c-1.14412,0.66055-1.15542,1.73617-0.01366,2.39969L48.11432,88.77275c-1.14176-0.66352-2.99347-0.66353-4.13757-0.00298
						l-10.02073-5.82342c1.1441-0.66055,1.15015-1.73312,0.01362-2.39359L61.2947,64.77663z M61.46134,80.69836
						c3.75221-2.16634,3.77198-5.68092,0.03908-7.85024c-3.72781-2.16636-9.79541-2.1664-13.54762-0.00006
						c-3.75204,2.16624-3.77183,5.68083-0.04402,7.8472C51.64168,82.86459,57.70929,82.86461,61.46134,80.69836 M68.63325,68.53059
						c-1.44413-0.83924-3.78763-0.83926-5.24121-0.00003c-1.45358,0.83923-1.4665,2.19971-0.02236,3.03896
						c1.44415,0.83925,3.79815,0.83925,5.25174,0.00002C70.07498,70.73031,70.0774,69.36983,68.63325,68.53059 M45.67817,84.81582
						c1.4536-0.83923,1.46114-2.20267,0.01699-3.04192c-1.44413-0.83924-3.79276-0.8363-5.24636,0.00294
						c-1.45373,0.83931-1.46122,2.19666-0.01709,3.0359C41.87586,85.652,44.22443,85.65514,45.67817,84.81582 M66.43805,75.66281
						l5.80937-3.35404l-0.72469-0.42114l-5.80937,3.35403L66.43805,75.66281 M46.94252,86.91856l5.80411-3.35101l-0.7247-0.42114
						l-5.8041,3.351L46.94252,86.91856 M67.84045,76.4778l3.18022-1.8361l-0.72469-0.42114l-3.18021,1.83611L67.84045,76.4778
						 M50.97408,86.21561l3.17496-1.83306l-0.72468-0.42113l-3.17495,1.83306L50.97408,86.21561" class="color94ed96 svgShape"></path></g><polygon fill="#f4f6f8" points="42.61 73.73 59.921 83.79 67.702 79.306 50.385 69.24" class="colore7f1f7 svgShape"></polygon></g></g></g></g></svg>