<svg xmlns="http://www.w3.org/2000/svg" enable-background="new 0 0 363.84 293" viewBox="0 0 363.84 293" id="Dataanalysis"><g fill="#010001" class="color000000 svgShape"><g fill="#010001" class="color000000 svgShape"><g fill="#010001" class="color000000 svgShape"><g fill="#010001" class="color000000 svgShape"><g fill="#010001" class="color000000 svgShape"><g fill="#010001" class="color000000 svgShape"><g fill="#010001" class="color000000 svgShape"><g fill="#010001" class="color000000 svgShape"><g fill="#010001" class="color000000 svgShape"><path fill="#f4f6f8" d="M303.924,121.325l-0.08,0.209l-4.118,10.636c-1.311,3.384-5.387,6.768-11.929,9.344
										c-13.178,5.197-31.365,5.197-40.615,0c-4.658-2.612-6.169-6.047-4.841-9.475l3.179-8.164
										c1.3-3.384,5.376-6.768,11.922-9.353l3.023-7.843c13.174-5.188,31.354-5.197,40.615,0l-2.001,5.18l0.014-0.009
										c4.674,2.623,6.172,6.079,4.809,9.523C303.909,121.357,303.918,121.341,303.924,121.325z" class="colore8effc svgShape"></path></g></g></g></g></g></g><g fill="#010001" class="color000000 svgShape"><g fill="#010001" class="color000000 svgShape"><g fill="#010001" class="color000000 svgShape"><g fill="#010001" class="color000000 svgShape"><polygon fill="#f4f6f8" points="286.201 97.001 286.162 117.02 276.817 122.451 276.856 102.432" class="color1e3063 svgShape"></polygon></g></g><g fill="#010001" class="color000000 svgShape"><g fill="#010001" class="color000000 svgShape"><path fill="#2e2972" d="M276.856,102.432l-0.039,20.019c-6.056-3.496-15.843-3.496-21.859,0l0.038-20.019
								C261.013,98.935,270.799,98.935,276.856,102.432z" class="color293a72 svgShape"></path></g></g><g fill="#010001" class="color000000 svgShape"><g fill="#010001" class="color000000 svgShape"><polygon fill="#332e84" points="254.996 102.432 254.958 122.451 245.552 117.021 245.59 97.001" class="color2e4384 svgShape"></polygon></g></g><g fill="#010001" class="color000000 svgShape"><g fill="#010001" class="color000000 svgShape"><path fill="#3d3889" d="M286.201,97.001l-9.345,5.431c-6.056-3.497-15.843-3.496-21.859,0l-9.406-5.431
								C256.767,90.506,274.948,90.505,286.201,97.001z" class="color385089 svgShape"></path></g></g></g><g fill="#010001" class="color000000 svgShape"><g fill="#010001" class="color000000 svgShape"><path fill="#ee42cf" d="M281.419,115.265l-0.038,13.561c0.007-2.306-1.516-4.616-4.563-6.375l0.039-13.561
							C279.903,110.65,281.425,112.959,281.419,115.265z" class="coloree428c svgShape"></path></g></g><g fill="#010001" class="color000000 svgShape"><g fill="#010001" class="color000000 svgShape"><polygon fill="#ee42cf" points="286.333 126.983 286.294 140.543 276.888 135.113 276.927 121.552" class="coloree428c svgShape"></polygon></g></g><g fill="#010001" class="color000000 svgShape"><g fill="#010001" class="color000000 svgShape"><path fill="#a50b89" d="M294.677,115.303l-0.038,13.561c-0.012,4.23-2.791,8.453-8.344,11.679l0.039-13.561
							C291.885,123.756,294.665,119.533,294.677,115.303z" class="colorce296e svgShape"></path></g></g><g fill="#010001" class="color000000 svgShape"><g fill="#010001" class="color000000 svgShape"><path fill="#ff65e3" d="M286.201,103.46c11.25,6.495,11.309,17.028,0.133,23.523l-9.406-5.431
							c6.017-3.497,5.985-9.165-0.071-12.662L286.201,103.46z" class="colorff65a7 svgShape"></path></g></g><g fill="#010001" class="color000000 svgShape"><g fill="#010001" class="color000000 svgShape"><g fill="#010001" class="color000000 svgShape"><g fill="#010001" class="color000000 svgShape"><path fill="#fd3dda" d="M250.466,128.738l0.038-10.234c0.007-2.277,1.503-4.55,4.492-6.287l-0.038,10.234
									C251.969,124.188,250.472,126.461,250.466,128.738z" class="colorfd9c3d svgShape"></path></g></g><g fill="#010001" class="color000000 svgShape"><g fill="#010001" class="color000000 svgShape"><path fill="#57aafe" d="M237.206,128.7l0.038-10.234c-0.012,4.284,2.816,8.575,8.478,11.844l-0.038,10.233
									C240.022,137.275,237.194,132.984,237.206,128.7z" class="colorfebd57 svgShape"></path></g></g><g fill="#010001" class="color000000 svgShape"><g fill="#010001" class="color000000 svgShape"><path fill="#58abff" d="M254.996,112.218c-6.017,3.497-5.985,9.165,0.071,12.662l-9.345,5.431
									c-11.252-6.496-11.311-17.027-0.132-23.523L254.996,112.218z" class="colorffda58 svgShape"></path></g></g></g><g fill="#010001" class="color000000 svgShape"><g fill="#010001" class="color000000 svgShape"><polygon fill="#ef2ecc" points="255.067 124.879 255.029 135.113 245.684 140.544 245.722 130.31" class="coloref852e svgShape"></polygon></g><g fill="#010001" class="color000000 svgShape"><g fill="#010001" class="color000000 svgShape"><g fill="#010001" class="color000000 svgShape"><path fill="#0a009b" d="M286.333,130.31l-0.038,10.233c-11.179,6.497-29.361,6.495-40.61,0l0.038-10.233
										C256.972,136.805,275.154,136.806,286.333,130.31z" class="color009b85 svgShape"></path></g></g><g fill="#010001" class="color000000 svgShape"><g fill="#010001" class="color000000 svgShape"><path fill="#0e00dd" d="M276.927,124.879l9.406,5.431c-11.179,6.496-29.361,6.495-40.61,0l9.345-5.431
										C261.124,128.376,270.91,128.376,276.927,124.879z" class="color00ddc4 svgShape"></path></g></g></g></g></g></g><g fill="#010001" class="color000000 svgShape"><path fill="#f4f6f8" d="M224.598,123.129c2.463,1.422,2.476,3.722,0.029,5.144l-86.632,50.345
					c-2.435,1.415-6.417,1.422-8.88,0l-13.592-7.847c-2.463-1.422-2.476-3.736-0.042-5.151l86.631-50.345
					c2.447-1.422,6.43-1.415,8.893,0.007L224.598,123.129z" class="colore8effc svgShape"></path></g><g fill="#010001" class="color000000 svgShape"><g fill="#010001" class="color000000 svgShape"><g fill="#010001" class="color000000 svgShape"><g fill="#010001" class="color000000 svgShape"><path fill="#f4f6f8" d="M143.23,212.027l0.036,0.119l-39.33,22.942l-16.955-4.678
								c-1.363-0.379-2.661-1.296-2.89-2.048l-0.769-2.596c-0.083-0.272-0.311-0.56-0.644-0.832l-3.651,1.222
								c-0.306,0.492-1.32,0.616-2.636,0.249c-1.787-0.492-3.476-1.691-3.763-2.67l-8.054-26.52
								c-0.248-0.814-1.659-1.816-3.151-2.229c-0.769-0.209-1.375-0.243-1.79-0.107l-0.179-0.124l35.666-11.908
								c0.443-0.147,1.104-0.113,1.862,0.096c1.681,0.464,3.201,1.539,3.47,2.421l8.056,26.525c0.137,0.486,0.66,1.029,1.367,1.499
								l4.794-1.601c0.374-0.125,0.954-0.107,1.642,0.085c0.331,0.091,0.649,0.209,0.953,0.351l-0.081-0.266l3.455-1.154
								l0.013,0.005l4.156,1.148l2.338,7.677L143.23,212.027z" class="colore8effc svgShape"></path></g></g></g><g fill="#010001" class="color000000 svgShape"><g fill="#010001" class="color000000 svgShape"><g fill="#010001" class="color000000 svgShape"><g fill="#010001" class="color000000 svgShape"><path fill="#dcedff" d="M118.323,195.377c-1.522-0.879-2.757-3.017-2.752-4.766l0.021-50.852
									c0.005-1.689-1.193-3.756-2.733-4.645c-0.693-0.4-1.345-0.466-1.836-0.186l-39.289,22.831
									c0.491-0.28,1.143-0.215,1.836,0.186c1.54,0.889,2.738,2.956,2.733,4.645l-0.021,50.853
									c-0.005,1.749,1.229,3.887,2.752,4.766c0.766,0.442,1.461,0.482,1.963,0.191l39.289-22.832
									C119.784,195.859,119.089,195.819,118.323,195.377z" class="colordce7ff svgShape"></path></g><g fill="#010001" class="color000000 svgShape"><g fill="#010001" class="color000000 svgShape"><polygon fill="#aed1f4" points="103.942 234.859 143.23 212.027 143.23 212.257 103.941 235.089" class="coloraec7f4 svgShape"></polygon></g></g><g fill="#010001" class="color000000 svgShape"><g fill="#010001" class="color000000 svgShape"><path fill="#d0e7ff" d="M115.572,190.612c-0.004,1.749,1.23,3.886,2.752,4.764c0.766,0.442,1.461,0.483,1.963,0.19
										l-39.289,22.832c-0.502,0.292-1.197,0.252-1.963-0.191c-1.522-0.879-2.757-3.017-2.752-4.766l0,0L115.572,190.612z" class="colord0ddff svgShape"></path></g></g><g fill="#010001" class="color000000 svgShape"><g fill="#010001" class="color000000 svgShape"><path fill="#dcedff" d="M143.233,212.027l-39.288,22.83l-15.532-8.966c-1.145-0.661-2.073-2.263-2.067-3.577
										l0.013-4.977c0-1.445-1.014-3.204-2.269-3.93c-0.628-0.36-1.203-0.393-1.615-0.157l39.288-22.83
										c0.412-0.242,0.988-0.21,1.615,0.157c1.256,0.726,2.269,2.485,2.269,3.924l-0.013,4.977
										c-0.007,1.315,0.922,2.924,2.067,3.584L143.233,212.027z" class="colordce7ff svgShape"></path></g></g><g fill="#010001" class="color000000 svgShape"><path fill="#c2ddf9" d="M73.572,157.945c1.54,0.889,2.738,2.956,2.733,4.645l-0.021,50.853
									c-0.005,1.749,1.229,3.887,2.751,4.766c1.522,0.879,2.765,0.171,2.769-1.578l0.005-1.921c0.004-1.441,1.027-2.024,2.281-1.3
									c1.254,0.724,2.27,2.485,2.266,3.925l-0.014,4.978c-0.004,1.314,0.923,2.92,2.067,3.58l15.532,8.967l-0.001,0.23
									l-15.532-8.968c-1.254-0.724-2.27-2.484-2.266-3.925l0.014-4.978c0.004-1.313-0.924-2.92-2.067-3.58
									c-1.143-0.66-2.077-0.128-2.08,1.186l-0.006,1.922c-0.005,1.876-1.337,2.635-2.97,1.692
									c-1.633-0.943-2.956-3.235-2.951-5.111l0.021-50.853c0.004-1.562-1.104-3.475-2.47-4.263
									c-0.703-0.406-1.305-0.467-1.757-0.208l-0.142-0.245C72.227,157.479,72.879,157.544,73.572,157.945z" class="colorc2d3f9 svgShape"></path></g></g></g><g fill="#010001" class="color000000 svgShape"><g fill="#010001" class="color000000 svgShape"><polygon fill="#3d3889" points="130.285 206.276 136.718 209.99 101.742 230.314 95.309 226.6" class="color385089 svgShape"></polygon></g><g fill="#010001" class="color000000 svgShape"><g fill="#010001" class="color000000 svgShape"><g fill="#010001" class="color000000 svgShape"><g fill="#010001" class="color000000 svgShape"><g fill="#010001" class="color000000 svgShape"><g fill="#010001" class="color000000 svgShape"><g fill="#010001" class="color000000 svgShape"><polygon fill="#a50b89" points="131.854 190.737 131.854 211.351 128.04 213.553 124.226 211.351 124.226 190.737 128.04 188.535" class="colorce296e svgShape"></polygon></g><g fill="#010001" class="color000000 svgShape"><g fill="#010001" class="color000000 svgShape"><polygon fill="#ff65e3" points="131.855 190.738 128.04 192.94 124.225 190.738 128.04 188.535" class="colorff65a7 svgShape"></polygon></g></g></g></g></g><g fill="#010001" class="color000000 svgShape"><g fill="#010001" class="color000000 svgShape"><g fill="#010001" class="color000000 svgShape"><g fill="#010001" class="color000000 svgShape"><polygon fill="#a50b89" points="128.04 192.94 124.225 190.738 124.225 211.35 128.04 213.553" class="colorce296e svgShape"></polygon></g></g><g fill="#010001" class="color000000 svgShape"><g fill="#010001" class="color000000 svgShape"><polygon fill="#ee42cf" points="128.04 192.94 131.855 190.738 131.855 211.35 128.04 213.553" class="coloree428c svgShape"></polygon></g></g></g></g></g></g><g fill="#010001" class="color000000 svgShape"><g fill="#010001" class="color000000 svgShape"><g fill="#010001" class="color000000 svgShape"><g fill="#010001" class="color000000 svgShape"><g fill="#010001" class="color000000 svgShape"><g fill="#010001" class="color000000 svgShape"><polygon fill="#fd3dda" points="123.641 198.711 123.641 216.093 119.827 218.295 116.013 216.093 116.013 198.711 119.827 196.509" class="colorfd9c3d svgShape"></polygon></g><g fill="#010001" class="color000000 svgShape"><g fill="#010001" class="color000000 svgShape"><polygon fill="#58abff" points="123.643 198.712 119.828 200.914 116.013 198.712 119.828 196.509" class="colorffda58 svgShape"></polygon></g></g></g></g></g><g fill="#010001" class="color000000 svgShape"><g fill="#010001" class="color000000 svgShape"><g fill="#010001" class="color000000 svgShape"><g fill="#010001" class="color000000 svgShape"><polygon fill="#fd3dda" points="119.828 200.914 116.013 198.712 116.013 216.092 119.828 218.294" class="colorfd9c3d svgShape"></polygon></g></g><g fill="#010001" class="color000000 svgShape"><g fill="#010001" class="color000000 svgShape"><polygon fill="#57aafe" points="119.828 200.914 123.643 198.712 123.643 216.092 119.828 218.294" class="colorfebd57 svgShape"></polygon></g></g></g></g></g></g><g fill="#010001" class="color000000 svgShape"><g fill="#010001" class="color000000 svgShape"><g fill="#010001" class="color000000 svgShape"><g fill="#010001" class="color000000 svgShape"><g fill="#010001" class="color000000 svgShape"><g fill="#010001" class="color000000 svgShape"><polygon fill="#0a009b" points="115.429 206.684 115.429 220.835 111.615 223.037 107.801 220.835 107.801 206.684 111.615 204.482" class="color009b85 svgShape"></polygon></g><g fill="#010001" class="color000000 svgShape"><g fill="#010001" class="color000000 svgShape"><polygon fill="#0e00dd" points="115.43 206.685 111.615 208.888 107.8 206.685 111.615 204.483" class="color00ddc4 svgShape"></polygon></g></g></g></g></g><g fill="#010001" class="color000000 svgShape"><g fill="#010001" class="color000000 svgShape"><g fill="#010001" class="color000000 svgShape"><g fill="#010001" class="color000000 svgShape"><polygon fill="#0a009b" points="111.615 208.888 107.8 206.685 107.8 220.834 111.615 223.036" class="color009b85 svgShape"></polygon></g></g><g fill="#010001" class="color000000 svgShape"><g fill="#010001" class="color000000 svgShape"><polygon fill="#0b00af" points="111.615 208.888 115.43 206.685 115.43 220.834 111.615 223.036" class="color00af9a svgShape"></polygon></g></g></g></g></g></g><g fill="#010001" class="color000000 svgShape"><g fill="#010001" class="color000000 svgShape"><g fill="#010001" class="color000000 svgShape"><g fill="#010001" class="color000000 svgShape"><g fill="#010001" class="color000000 svgShape"><g fill="#010001" class="color000000 svgShape"><polygon fill="#635be0" points="107.216 214.658 107.216 225.577 103.402 227.779 99.588 225.577 99.588 214.658 103.402 212.456" class="color5b93e0 svgShape"></polygon></g><g fill="#010001" class="color000000 svgShape"><g fill="#010001" class="color000000 svgShape"><polygon fill="#8ec6fe" points="107.218 214.659 103.403 216.862 99.588 214.659 103.403 212.457" class="color8ec2fe svgShape"></polygon></g></g></g></g></g><g fill="#010001" class="color000000 svgShape"><g fill="#010001" class="color000000 svgShape"><g fill="#010001" class="color000000 svgShape"><g fill="#010001" class="color000000 svgShape"><polygon fill="#4f46ce" points="103.403 216.862 99.588 214.659 99.588 225.575 103.403 227.778" class="color4684ce svgShape"></polygon></g></g><g fill="#010001" class="color000000 svgShape"><g fill="#010001" class="color000000 svgShape"><polygon fill="#6b62f0" points="103.403 216.862 107.218 214.659 107.218 225.575 103.403 227.778" class="color62a1f0 svgShape"></polygon></g></g></g></g></g></g></g></g><g fill="#010001" class="color000000 svgShape"><path fill="#ee42cf" d="M105.997,178.239c-0.138-0.394-1.546,0.062-1.69,0.547l-0.627,6.716
							c-0.135,0.454-1.42,0.908-1.667,0.589l-1.672-2.155c-0.248-0.32-1.537,0.137-1.668,0.591l-0.988,3.442
							c-0.135,0.469-1.485,0.928-1.681,0.571l-2.653-4.603c-0.195-0.355-1.538,0.099-1.68,0.568l-1.402,9.198
							c-0.14,0.463-1.457,0.916-1.675,0.577l-1.587-2.475c-0.22-0.344-1.557,0.123-1.677,0.586l-3.633,11.763l28.627-16.98
							L105.997,178.239z" class="coloree428c svgShape"></path></g><g fill="#010001" class="color000000 svgShape"><g fill="#010001" class="color000000 svgShape"><g fill="#010001" class="color000000 svgShape"><g fill="#010001" class="color000000 svgShape"><polygon fill="#ee42cf" points="83.6 160.712 86.383 159.106 86.383 172.935 83.6 174.542" class="coloree428c svgShape"></polygon></g></g><g fill="#010001" class="color000000 svgShape"><g fill="#010001" class="color000000 svgShape"><polygon fill="#57aafe" points="92.368 158.007 95.151 156.4 95.151 167.873 92.368 169.479" class="colorfebd57 svgShape"></polygon></g></g><g fill="#010001" class="color000000 svgShape"><g fill="#010001" class="color000000 svgShape"><polygon fill="#0b00af" points="87.984 162.895 90.767 161.289 90.767 170.404 87.984 172.01" class="color00af9a svgShape"></polygon></g></g><g fill="#010001" class="color000000 svgShape"><g fill="#010001" class="color000000 svgShape"><polygon fill="#6b62f0" points="79.216 170.315 81.998 168.709 81.998 175.466 79.216 177.073" class="color62a1f0 svgShape"></polygon></g></g></g><g fill="#010001" class="color000000 svgShape"><g fill="#010001" class="color000000 svgShape"><polygon fill="#3d3889" points="78.226 177.363 96.718 166.687 96.718 167.678 78.226 178.354" class="color385089 svgShape"></polygon></g></g></g><g fill="#010001" class="color000000 svgShape"><g fill="#010001" class="color000000 svgShape"><polygon fill="#aed1f4" points="98.285 155.314 112.779 146.946 112.779 147.899 98.285 156.267" class="coloraec7f4 svgShape"></polygon></g><g fill="#010001" class="color000000 svgShape"><polygon fill="#aed1f4" points="106.845 153.268 112.779 149.842 112.779 150.796 106.845 154.222" class="coloraec7f4 svgShape"></polygon></g><g fill="#010001" class="color000000 svgShape"><polygon fill="#aed1f4" points="98.285 161.106 112.779 152.739 112.779 153.692 98.285 162.06" class="coloraec7f4 svgShape"></polygon></g><g fill="#010001" class="color000000 svgShape"><polygon fill="#aed1f4" points="104.19 160.593 112.779 155.635 112.779 156.588 104.19 161.547" class="coloraec7f4 svgShape"></polygon></g><g fill="#010001" class="color000000 svgShape"><polygon fill="#aed1f4" points="98.285 166.899 112.779 158.531 112.779 159.484 98.285 167.852" class="coloraec7f4 svgShape"></polygon></g><g fill="#010001" class="color000000 svgShape"><polygon fill="#aed1f4" points="100.261 168.654 112.779 161.427 112.779 162.381 100.261 169.608" class="coloraec7f4 svgShape"></polygon></g><g fill="#010001" class="color000000 svgShape"><polygon fill="#aed1f4" points="104.19 169.282 112.779 164.324 112.779 165.277 104.19 170.236" class="coloraec7f4 svgShape"></polygon></g></g></g><g fill="#010001" class="color000000 svgShape"><g fill="#010001" class="color000000 svgShape"><g fill="#010001" class="color000000 svgShape"><g fill="#010001" class="color000000 svgShape"><g fill="#010001" class="color000000 svgShape"><g fill="#010001" class="color000000 svgShape"><path fill="#2e2972" d="M136.156,150.178v2.972c0.012,0.574,0.387,1.137,1.136,1.581l12.594,7.318
											c1.523,0.879,3.994,0.879,5.517,0l39.214-22.633c0.773-0.446,1.16-1.031,1.16-1.617l-0.012-2.972
											c0,0.586-0.387,1.171-1.16,1.616l-39.214,22.633c-1.523,0.879-3.994,0.879-5.517,0l-12.594-7.318
											C136.531,151.314,136.156,150.751,136.156,150.178z" class="color293a72 svgShape"></path></g></g><g fill="#010001" class="color000000 svgShape"><g fill="#010001" class="color000000 svgShape"><path fill="#3d3889" d="M137.304,148.564c-1.526,0.881-1.541,2.31-0.026,3.191l12.601,7.323
											c1.516,0.881,3.991,0.881,5.516,0l39.212-22.639c1.533-0.885,1.534-2.314,0.018-3.195l-12.601-7.323
											c-1.516-0.881-3.975-0.881-5.509,0.004L137.304,148.564z" class="color385089 svgShape"></path></g></g></g></g><g fill="#010001" class="color000000 svgShape"><g fill="#010001" class="color000000 svgShape"><g fill="#010001" class="color000000 svgShape"><g fill="#010001" class="color000000 svgShape"><g fill="#010001" class="color000000 svgShape"><path fill="#3d3889" d="M120.25,107.671l0.153,56.327c0,0.942,0.331,1.605,0.879,1.923l3.324,1.934
												c-0.548-0.318-0.879-0.981-0.879-1.936l-0.153-56.327c-0.013-1.899,1.338-4.23,2.994-5.185l79.665-45.992
												c0.828-0.484,1.58-0.523,2.128-0.216l-3.324-1.921c-0.548-0.319-1.299-0.281-2.128,0.203l-79.665,45.992
												C121.588,103.429,120.237,105.76,120.25,107.671z" class="color385089 svgShape"></path></g><g fill="#010001" class="color000000 svgShape"><path fill="#f4f6f8" d="M126.572,104.402c-1.659,0.958-3.005,3.289-3,5.196l0.154,56.328
												c0.005,1.907,1.36,2.679,3.019,1.721l79.658-45.991c1.659-0.958,2.997-3.285,2.992-5.191l-0.154-56.328
												c-0.005-1.907-1.352-2.684-3.011-1.726L126.572,104.402z" class="color1e3063 svgShape"></path></g><g fill="#010001" class="color000000 svgShape"><polygon fill="#ffffff" points="126.577 107.856 126.731 164.193 206.389 118.202 206.236 61.866" class="colorffffff svgShape"></polygon></g></g></g></g></g></g><g fill="#010001" class="color000000 svgShape"><g fill="#010001" class="color000000 svgShape"><g fill="#010001" class="color000000 svgShape"><g fill="#010001" class="color000000 svgShape"><g fill="#010001" class="color000000 svgShape"><g fill="#010001" class="color000000 svgShape"><g fill="#010001" class="color000000 svgShape"><g fill="#010001" class="color000000 svgShape"><g fill="#010001" class="color000000 svgShape"><g fill="#010001" class="color000000 svgShape"><path fill="#2e2972" d="M143.63,186.422v1.915c0.012,0.575,0.387,1.139,1.138,1.585l19.822,11.518
																c1.526,0.88,4.003,0.88,5.528,0l73.384-42.361c0.775-0.446,1.162-1.033,1.162-1.62l-0.012-1.915
																c0,0.587-0.387,1.174-1.162,1.62l-73.384,42.361c-1.526,0.88-4.003,0.88-5.528,0l-19.822-11.518
																C144.006,187.56,143.63,186.997,143.63,186.422z" class="color293a72 svgShape"></path></g></g><g fill="#010001" class="color000000 svgShape"><g fill="#010001" class="color000000 svgShape"><path fill="#3d3889" d="M144.781,184.805c-1.529,0.883-1.544,2.315-0.026,3.197l19.829,11.523
																c1.519,0.883,3.999,0.883,5.528,0l73.382-42.367c1.536-0.887,1.537-2.319,0.018-3.202l-19.829-11.524
																c-1.519-0.883-3.984-0.883-5.52,0.004L144.781,184.805z" class="color385089 svgShape"></path></g></g></g></g><g fill="#010001" class="color000000 svgShape"><g fill="#010001" class="color000000 svgShape"><g fill="#010001" class="color000000 svgShape"><polygon fill="#f4f6f8" points="195.763 161.474 191.861 163.742 190.03 162.685 193.932 160.417" class="color1e3063 svgShape"></polygon></g></g><g fill="#010001" class="color000000 svgShape"><g fill="#010001" class="color000000 svgShape"><g fill="#010001" class="color000000 svgShape"><polygon fill="#f4f6f8" points="190.525 164.527 186.623 166.794 184.785 165.733 188.687 163.465" class="color1e3063 svgShape"></polygon></g></g><g fill="#010001" class="color000000 svgShape"><g fill="#010001" class="color000000 svgShape"><polygon fill="#f4f6f8" points="185.288 167.57 181.386 169.838 179.547 168.777 183.449 166.509" class="color1e3063 svgShape"></polygon></g></g></g><g fill="#010001" class="color000000 svgShape"><g fill="#010001" class="color000000 svgShape"><polygon fill="#f4f6f8" points="177.426 187.311 173.524 189.578 170.06 187.578 173.962 185.311" class="color1e3063 svgShape"></polygon></g></g><g fill="#010001" class="color000000 svgShape"><g fill="#010001" class="color000000 svgShape"><g fill="#010001" class="color000000 svgShape"><polygon fill="#f4f6f8" points="165.4 184.179 161.498 186.447 158.034 184.447 161.936 182.179" class="color1e3063 svgShape"></polygon></g></g><g fill="#010001" class="color000000 svgShape"><g fill="#010001" class="color000000 svgShape"><polygon fill="#f4f6f8" points="160.162 187.223 154.313 190.631 150.842 188.626 156.698 185.223" class="color1e3063 svgShape"></polygon></g></g><g fill="#010001" class="color000000 svgShape"><g fill="#010001" class="color000000 svgShape"><polygon fill="#f4f6f8" points="172.181 190.359 168.286 192.622 164.823 190.622 168.717 188.359" class="color1e3063 svgShape"></polygon></g></g><g fill="#010001" class="color000000 svgShape"><g fill="#010001" class="color000000 svgShape"><polygon fill="#f4f6f8" points="167.813 187.837 158.674 193.148 155.21 191.148 164.349 185.837" class="color1e3063 svgShape"></polygon></g></g><g fill="#010001" class="color000000 svgShape"><g fill="#010001" class="color000000 svgShape"><polygon fill="#f4f6f8" points="166.943 193.402 163.041 195.67 159.577 193.67 163.479 191.403" class="color1e3063 svgShape"></polygon></g></g></g><g fill="#010001" class="color000000 svgShape"><g fill="#010001" class="color000000 svgShape"><polygon fill="#f4f6f8" points="201 158.43 197.098 160.698 195.268 159.641 199.17 157.373" class="color1e3063 svgShape"></polygon></g></g><g fill="#010001" class="color000000 svgShape"><g fill="#010001" class="color000000 svgShape"><polygon fill="#f4f6f8" points="207.989 174.609 204.087 176.877 200.616 174.872 204.517 172.605" class="color1e3063 svgShape"></polygon></g></g><g fill="#010001" class="color000000 svgShape"><g fill="#010001" class="color000000 svgShape"><polygon fill="#f4f6f8" points="218.472 168.517 214.57 170.785 211.098 168.781 215 166.513" class="color1e3063 svgShape"></polygon></g></g><g fill="#010001" class="color000000 svgShape"><g fill="#010001" class="color000000 svgShape"><polygon fill="#f4f6f8" points="213.234 171.561 209.332 173.829 205.861 171.824 209.763 169.557" class="color1e3063 svgShape"></polygon></g></g><g fill="#010001" class="color000000 svgShape"><g fill="#010001" class="color000000 svgShape"><polygon fill="#f4f6f8" points="209.736 163.474 200.596 168.785 197.133 166.785 206.272 161.474" class="color1e3063 svgShape"></polygon></g></g><g fill="#010001" class="color000000 svgShape"><g fill="#010001" class="color000000 svgShape"><polygon fill="#f4f6f8" points="208.866 169.039 204.964 171.307 201.5 169.307 205.402 167.039" class="color1e3063 svgShape"></polygon></g></g><g fill="#010001" class="color000000 svgShape"><g fill="#010001" class="color000000 svgShape"><polygon fill="#f4f6f8" points="187.901 181.223 184.007 183.486 180.543 181.486 184.437 179.223" class="color1e3063 svgShape"></polygon></g></g><g fill="#010001" class="color000000 svgShape"><g fill="#010001" class="color000000 svgShape"><polygon fill="#f4f6f8" points="176.549 192.88 167.409 198.192 163.945 196.192 173.085 190.881" class="color1e3063 svgShape"></polygon></g></g><g fill="#010001" class="color000000 svgShape"><g fill="#010001" class="color000000 svgShape"><g fill="#010001" class="color000000 svgShape"><polygon fill="#f4f6f8" points="205.368 160.952 192.938 168.176 189.474 166.176 201.904 158.952" class="color1e3063 svgShape"></polygon></g></g><g fill="#010001" class="color000000 svgShape"><g fill="#010001" class="color000000 svgShape"><polygon fill="#f4f6f8" points="191.595 168.956 187.701 171.219 184.237 169.219 188.131 166.956" class="color1e3063 svgShape"></polygon></g></g><g fill="#010001" class="color000000 svgShape"><g fill="#010001" class="color000000 svgShape"><polygon fill="#f4f6f8" points="199.253 169.566 195.351 171.833 191.888 169.833 195.789 167.566" class="color1e3063 svgShape"></polygon></g></g><g fill="#010001" class="color000000 svgShape"><g fill="#010001" class="color000000 svgShape"><polygon fill="#f4f6f8" points="180.05 170.614 176.148 172.881 174.31 171.82 178.212 169.553" class="color1e3063 svgShape"></polygon></g></g><g fill="#010001" class="color000000 svgShape"><g fill="#010001" class="color000000 svgShape"><polygon fill="#f4f6f8" points="186.357 172 182.456 174.267 178.992 172.268 182.893 170" class="color1e3063 svgShape"></polygon></g></g><g fill="#010001" class="color000000 svgShape"><g fill="#010001" class="color000000 svgShape"><polygon fill="#f4f6f8" points="194.016 172.609 190.114 174.877 186.65 172.877 190.552 170.609" class="color1e3063 svgShape"></polygon></g></g><g fill="#010001" class="color000000 svgShape"><g fill="#010001" class="color000000 svgShape"><polygon fill="#f4f6f8" points="174.805 173.662 170.911 175.925 169.072 174.864 172.967 172.601" class="color1e3063 svgShape"></polygon></g></g><g fill="#010001" class="color000000 svgShape"><g fill="#010001" class="color000000 svgShape"><polygon fill="#f4f6f8" points="181.12 175.044 177.218 177.311 173.754 175.311 177.656 173.044" class="color1e3063 svgShape"></polygon></g></g><g fill="#010001" class="color000000 svgShape"><g fill="#010001" class="color000000 svgShape"><polygon fill="#f4f6f8" points="198.384 175.131 194.482 177.399 191.018 175.399 194.92 173.131" class="color1e3063 svgShape"></polygon></g></g><g fill="#010001" class="color000000 svgShape"><g fill="#010001" class="color000000 svgShape"><polygon fill="#f4f6f8" points="188.778 175.653 184.877 177.921 181.413 175.921 185.314 173.653" class="color1e3063 svgShape"></polygon></g></g><g fill="#010001" class="color000000 svgShape"><g fill="#010001" class="color000000 svgShape"><polygon fill="#f4f6f8" points="169.567 176.706 165.665 178.973 163.827 177.912 167.729 175.645" class="color1e3063 svgShape"></polygon></g></g><g fill="#010001" class="color000000 svgShape"><g fill="#010001" class="color000000 svgShape"><polygon fill="#f4f6f8" points="202.752 177.653 198.85 179.921 195.386 177.921 199.28 175.649" class="color1e3063 svgShape"></polygon></g></g><g fill="#010001" class="color000000 svgShape"><g fill="#010001" class="color000000 svgShape"><polygon fill="#f4f6f8" points="175.882 178.087 171.98 180.355 168.516 178.355 172.418 176.087" class="color1e3063 svgShape"></polygon></g></g><g fill="#010001" class="color000000 svgShape"><g fill="#010001" class="color000000 svgShape"><polygon fill="#f4f6f8" points="183.533 178.701 179.639 180.964 176.175 178.964 180.069 176.701" class="color1e3063 svgShape"></polygon></g></g><g fill="#010001" class="color000000 svgShape"><g fill="#010001" class="color000000 svgShape"><polygon fill="#f4f6f8" points="164.33 179.75 160.428 182.017 158.597 180.96 162.491 178.688" class="color1e3063 svgShape"></polygon></g></g><g fill="#010001" class="color000000 svgShape"><g fill="#010001" class="color000000 svgShape"><polygon fill="#f4f6f8" points="170.637 181.136 166.735 183.403 163.271 181.403 167.173 179.136" class="color1e3063 svgShape"></polygon></g></g><g fill="#010001" class="color000000 svgShape"><g fill="#010001" class="color000000 svgShape"><polygon fill="#f4f6f8" points="178.295 181.745 174.393 184.013 170.93 182.013 174.832 179.745" class="color1e3063 svgShape"></polygon></g></g><g fill="#010001" class="color000000 svgShape"><g fill="#010001" class="color000000 svgShape"><polygon fill="#f4f6f8" points="182.663 184.267 178.761 186.535 175.297 184.535 179.199 182.267" class="color1e3063 svgShape"></polygon></g></g><g fill="#010001" class="color000000 svgShape"><g fill="#010001" class="color000000 svgShape"><polygon fill="#f4f6f8" points="173.058 184.789 169.156 187.056 165.692 185.056 169.594 182.789" class="color1e3063 svgShape"></polygon></g></g><g fill="#010001" class="color000000 svgShape"><g fill="#010001" class="color000000 svgShape"><polygon fill="#f4f6f8" points="197.733 180.57 177.892 192.1 174.428 190.1 194.269 178.57" class="color1e3063 svgShape"></polygon></g></g></g><g fill="#010001" class="color000000 svgShape"><g fill="#010001" class="color000000 svgShape"><polygon fill="#f4f6f8" points="193.146 178.175 189.244 180.442 185.78 178.443 189.682 176.175" class="color1e3063 svgShape"></polygon></g></g><g fill="#010001" class="color000000 svgShape"><g fill="#010001" class="color000000 svgShape"><polygon fill="#f4f6f8" points="153.847 185.842 149.945 188.109 148.115 187.052 152.016 184.785" class="color1e3063 svgShape"></polygon></g></g><g fill="#010001" class="color000000 svgShape"><g fill="#010001" class="color000000 svgShape"><polygon fill="#f4f6f8" points="157.261 181.736 159.085 182.798 155.19 185.061 153.36 184.004" class="color1e3063 svgShape"></polygon></g></g><g fill="#010001" class="color000000 svgShape"><g fill="#010001" class="color000000 svgShape"><polygon fill="#f4f6f8" points="213.649 151.08 209.747 153.347 207.916 152.29 211.818 150.023" class="color1e3063 svgShape"></polygon></g></g><g fill="#010001" class="color000000 svgShape"><g fill="#010001" class="color000000 svgShape"><polygon fill="#f4f6f8" points="208.411 154.123 204.509 156.391 202.679 155.334 206.581 153.066" class="color1e3063 svgShape"></polygon></g></g><g fill="#010001" class="color000000 svgShape"><g fill="#010001" class="color000000 svgShape"><polygon fill="#f4f6f8" points="221.515 161.689 217.613 163.956 214.149 161.956 218.044 159.684" class="color1e3063 svgShape"></polygon></g></g><g fill="#010001" class="color000000 svgShape"><g fill="#010001" class="color000000 svgShape"><polygon fill="#f4f6f8" points="231.121 161.167 221.981 166.478 218.509 164.474 227.649 159.163" class="color1e3063 svgShape"></polygon></g></g><g fill="#010001" class="color000000 svgShape"><g fill="#010001" class="color000000 svgShape"><g fill="#010001" class="color000000 svgShape"><polygon fill="#f4f6f8" points="241.603 155.075 237.701 157.342 229.862 152.816 233.764 150.549" class="color1e3063 svgShape"></polygon></g></g><g fill="#010001" class="color000000 svgShape"><g fill="#010001" class="color000000 svgShape"><polygon fill="#f4f6f8" points="231.99 155.601 228.088 157.869 224.617 155.865 228.518 153.597" class="color1e3063 svgShape"></polygon></g></g><g fill="#010001" class="color000000 svgShape"><g fill="#010001" class="color000000 svgShape"><polygon fill="#f4f6f8" points="236.358 158.123 232.456 160.391 228.985 158.386 232.886 156.119" class="color1e3063 svgShape"></polygon></g></g></g><g fill="#010001" class="color000000 svgShape"><g fill="#010001" class="color000000 svgShape"><polygon fill="#f4f6f8" points="227.622 153.08 223.72 155.347 220.257 153.347 224.158 151.08" class="color1e3063 svgShape"></polygon></g></g><g fill="#010001" class="color000000 svgShape"><g fill="#010001" class="color000000 svgShape"><polygon fill="#f4f6f8" points="223.254 150.558 219.353 152.825 215.889 150.825 219.79 148.558" class="color1e3063 svgShape"></polygon></g></g><g fill="#010001" class="color000000 svgShape"><g fill="#010001" class="color000000 svgShape"><polygon fill="#f4f6f8" points="218.886 148.036 214.985 150.303 213.154 149.246 217.056 146.979" class="color1e3063 svgShape"></polygon></g></g><g fill="#010001" class="color000000 svgShape"><g fill="#010001" class="color000000 svgShape"><polygon fill="#f4f6f8" points="232.867 150.031 228.965 152.299 225.502 150.299 229.404 148.031" class="color1e3063 svgShape"></polygon></g></g><g fill="#010001" class="color000000 svgShape"><g fill="#010001" class="color000000 svgShape"><polygon fill="#f4f6f8" points="228.5 147.51 224.598 149.777 221.134 147.777 225.036 145.51" class="color1e3063 svgShape"></polygon></g></g><g fill="#010001" class="color000000 svgShape"><g fill="#010001" class="color000000 svgShape"><polygon fill="#f4f6f8" points="224.132 144.988 220.23 147.255 218.399 146.198 222.301 143.931" class="color1e3063 svgShape"></polygon></g></g><g fill="#010001" class="color000000 svgShape"><g fill="#010001" class="color000000 svgShape"><polygon fill="#f4f6f8" points="217.147 159.167 213.245 161.435 209.781 159.435 213.683 157.167" class="color1e3063 svgShape"></polygon></g></g><g fill="#010001" class="color000000 svgShape"><g fill="#010001" class="color000000 svgShape"><polygon fill="#f4f6f8" points="212.779 156.645 208.877 158.913 205.413 156.913 209.315 154.645" class="color1e3063 svgShape"></polygon></g></g><g fill="#010001" class="color000000 svgShape"><g fill="#010001" class="color000000 svgShape"><polygon fill="#f4f6f8" points="226.753 158.645 222.851 160.913 219.379 158.908 223.281 156.641" class="color1e3063 svgShape"></polygon></g></g><g fill="#010001" class="color000000 svgShape"><g fill="#010001" class="color000000 svgShape"><polygon fill="#f4f6f8" points="222.385 156.123 218.483 158.391 215.019 156.391 218.921 154.123" class="color1e3063 svgShape"></polygon></g></g><g fill="#010001" class="color000000 svgShape"><g fill="#010001" class="color000000 svgShape"><polygon fill="#f4f6f8" points="218.017 153.601 214.115 155.869 210.651 153.869 214.553 151.602" class="color1e3063 svgShape"></polygon></g></g></g></g></g></g></g></g><g fill="#010001" class="color000000 svgShape"><g fill="#010001" class="color000000 svgShape"><g fill="#010001" class="color000000 svgShape"><g fill="#010001" class="color000000 svgShape"><g fill="#010001" class="color000000 svgShape"><g fill="#010001" class="color000000 svgShape"><path fill="#aed1f4" d="M147.229,112.19l0.085,21.286c0.005,0.528,0.189,0.895,0.49,1.075l0.994,0.575
													c-0.297-0.174-0.485-0.542-0.485-1.07l-0.09-21.286L147.229,112.19z" class="coloraec7f4 svgShape"></path></g></g><g fill="#010001" class="color000000 svgShape"><g fill="#010001" class="color000000 svgShape"><path fill="#dcedff" d="M148.226,112.768l0.087,21.287c0.003,1.061,0.755,1.49,1.678,0.956l34.089-19.681
													c0.924-0.533,1.671-1.827,1.667-2.888l-0.087-21.287L148.226,112.768z" class="colordce7ff svgShape"></path></g></g><g fill="#010001" class="color000000 svgShape"><g fill="#010001" class="color000000 svgShape"><g fill="#010001" class="color000000 svgShape"><path fill="#3d3889" d="M147.22,109.297l0.01,2.894l0.994,0.58l-0.005-2.894
														c-0.005-1.06,0.745-2.352,1.668-2.889l34.089-19.68c0.462-0.269,0.886-0.292,1.188-0.113l-0.994-0.58
														c-0.306-0.179-0.726-0.155-1.192,0.113l-34.089,19.685C147.964,106.945,147.22,108.236,147.22,109.297z" class="color385089 svgShape"></path></g></g><g fill="#010001" class="color000000 svgShape"><g fill="#010001" class="color000000 svgShape"><path fill="#f4f6f8" d="M149.885,106.989c-0.924,0.533-1.67,1.827-1.667,2.888l0.008,2.89l37.434-21.613
														l-0.008-2.891c-0.003-1.061-0.755-1.49-1.678-0.956L149.885,106.989z" class="color1e3063 svgShape"></path></g></g></g></g><g fill="#010001" class="color000000 svgShape"><g fill="#010001" class="color000000 svgShape"><g fill="#010001" class="color000000 svgShape"><path fill="#c2ddf9" d="M151.18,107.807c-0.406,0.234-0.733,0.801-0.732,1.267
													c0.001,0.463,0.33,0.654,0.737,0.42c0.403-0.233,0.733-0.804,0.732-1.267
													C151.916,107.76,151.584,107.574,151.18,107.807z" class="colorc2d3f9 svgShape"></path></g></g><g fill="#010001" class="color000000 svgShape"><g fill="#010001" class="color000000 svgShape"><path fill="#c2ddf9" d="M157.3,104.273c-0.406,0.235-0.733,0.801-0.732,1.268c0.001,0.463,0.33,0.654,0.737,0.42
													c0.403-0.233,0.733-0.804,0.732-1.267C158.036,104.227,157.704,104.041,157.3,104.273z" class="colorc2d3f9 svgShape"></path></g></g><g fill="#010001" class="color000000 svgShape"><g fill="#010001" class="color000000 svgShape"><path fill="#c2ddf9" d="M154.24,106.04c-0.406,0.235-0.733,0.801-0.732,1.267c0.001,0.463,0.33,0.654,0.737,0.42
													c0.403-0.233,0.733-0.804,0.732-1.267C154.976,105.993,154.644,105.808,154.24,106.04z" class="colorc2d3f9 svgShape"></path></g></g></g></g></g><g fill="#010001" class="color000000 svgShape"><g fill="#010001" class="color000000 svgShape"><g fill="#010001" class="color000000 svgShape"><polygon fill="#8ec6fe" points="160.54 113.363 160.569 123.743 157.124 125.732 157.095 115.352" class="color8ec2fe svgShape"></polygon></g></g><g fill="#010001" class="color000000 svgShape"><g fill="#010001" class="color000000 svgShape"><polygon fill="#0e00dd" points="177.309 105.117 177.334 114.064 173.883 116.057 173.858 107.11" class="color00ddc4 svgShape"></polygon></g></g><g fill="#010001" class="color000000 svgShape"><g fill="#010001" class="color000000 svgShape"><polygon fill="#2e2972" points="179.024 113.097 179.027 114.299 155.432 127.922 155.43 126.719" class="color293a72 svgShape"></polygon></g></g><g fill="#010001" class="color000000 svgShape"><g fill="#010001" class="color000000 svgShape"><polygon fill="#ff65e3" points="166.116 105.851 166.157 120.517 162.712 122.506 162.671 107.84" class="colorff65a7 svgShape"></polygon></g></g><g fill="#010001" class="color000000 svgShape"><g fill="#010001" class="color000000 svgShape"><polygon fill="#58abff" points="171.712 105.484 171.746 117.29 168.295 119.283 168.261 107.477" class="colorffda58 svgShape"></polygon></g></g></g></g><g fill="#010001" class="color000000 svgShape"><g fill="#010001" class="color000000 svgShape"><g fill="#010001" class="color000000 svgShape"><g fill="#010001" class="color000000 svgShape"><path fill="#928ce5" d="M227.773,66.192c-0.249-0.149-0.607-0.132-0.994,0.094l-23.897,13.798
											c-0.773,0.447-1.403,1.53-1.397,2.419l0.077,20.272c0,0.442,0.16,0.751,0.409,0.895l-0.834-0.48
											c-0.254-0.149-0.409-0.458-0.409-0.9l-0.083-20.272c0-0.889,0.624-1.971,1.397-2.419L225.939,65.8
											c0.392-0.226,0.746-0.243,1-0.094L227.773,66.192z" class="color8c8ce5 svgShape"></path></g></g><g fill="#010001" class="color000000 svgShape"><g fill="#010001" class="color000000 svgShape"><path fill="#5046e4" d="M228.264,87.359c0,0.889-0.624,1.972-1.397,2.419l-23.897,13.798
											c-0.773,0.447-1.403,0.088-1.408-0.801l-0.077-20.272c-0.006-0.889,0.624-1.971,1.397-2.419l23.897-13.798
											c0.773-0.447,1.403-0.088,1.408,0.801L228.264,87.359z" class="color4c4dc3 svgShape"></path></g></g><g fill="#010001" class="color000000 svgShape"><g fill="#010001" class="color000000 svgShape"><g fill="#010001" class="color000000 svgShape"><path fill="#ff65e3" d="M208.644,82.952l2.668,1.52c-0.564,1.134-0.9,2.356-0.897,3.474
												c0.002,0.794,0.176,1.443,0.48,1.924l-3.111,4.216c-0.705-0.945-1.113-2.289-1.118-3.975
												C206.658,87.803,207.408,85.263,208.644,82.952z" class="colorff65a7 svgShape"></path></g></g><g fill="#010001" class="color000000 svgShape"><g fill="#010001" class="color000000 svgShape"><path fill="#c2ddf9" d="M214.485,76.566c1.166-0.673,2.272-1.017,3.268-1.067l-1.744,4.835
												c-0.469,0.057-0.978,0.232-1.512,0.541c-0.973,0.562-1.865,1.467-2.566,2.524l-2.668-1.521
												C210.647,79.651,212.476,77.725,214.485,76.566z" class="colorc2d3f9 svgShape"></path></g></g><g fill="#010001" class="color000000 svgShape"><g fill="#010001" class="color000000 svgShape"><path fill="#58abff" d="M218.788,75.719c2.282,0.262,3.815,2.252,3.824,5.531c0.007,2.308-0.743,4.849-1.98,7.161
												l-2.668-1.521c0.564-1.134,0.901-2.357,0.898-3.475c-0.005-1.626-0.726-2.644-1.818-2.861L218.788,75.719z" class="colorffda58 svgShape"></path></g></g><g fill="#010001" class="color000000 svgShape"><g fill="#010001" class="color000000 svgShape"><path fill="#0e00dd" d="M211.644,90.622c0.754,0.589,1.879,0.591,3.135-0.134
												c0.973-0.562,1.865-1.468,2.565-2.525l2.668,1.52c-1.384,2.228-3.213,4.154-5.221,5.314
												c-2.55,1.472-4.819,1.38-6.258,0.041L211.644,90.622z" class="color00ddc4 svgShape"></path></g></g></g></g></g><g opacity=".2" fill="#010001" class="color000000 svgShape"><g fill="#010001" class="color000000 svgShape"><g fill="#010001" class="color000000 svgShape"><path fill="#d0e7ff" d="M219.793,149.716c-1.631,0.555-2.719,0.918-3.864,1.247
										c-1.55,0.628-3.805,1.384-4.952,1.757c-0.131,0.044-0.273,0.088-0.4,0.123c-3.41,3.077-4.858,5.443-4.762,6.601
										c0,0,0.098,0.314,0.347,0.609c0.596,0.717,1.801,1.742-2.39,5.767c-3.382,3.254-1.39,4.647-3.82,8.034
										c0,0,0.019,2.842-3.14,2.218c-1.259-0.25-2.715-0.687-4.078-1.134c-0.212,0.579-0.348,0.947-0.348,0.947
										s0.009,2.842-3.149,2.214c-2.381-0.471-5.495-1.624-7.335-2.262c-0.533-0.187-0.231-0.623,0.532-0.736
										c0.917-0.138,2.823-0.427,4.648-0.138l1.451-3.107c0.758-1.595,1.353-2.832,1.202-4.368
										c-0.466-4.834,3.063-7.239,3.063-7.239s0.74-1.433,1.437-2.91c-0.134,0.049-0.268,0.098-0.404,0.152
										c-1.461,0.54-3.328,0.712-4.727,0.417c-2.09-0.427-6.314-0.962-6.868-0.815c-2.688,0.712-4.212-0.77-4.24-0.8
										c-0.694-0.589,0.408-0.643,0.408-0.643c0.035-0.005,0.803-0.064,1.972,0.172c0.751,0.162,1.055,0.079,1.169,0.005
										c0.075-0.039,0.043-0.084-0.033-0.103c-0.637-0.132-0.817-0.309-0.83-0.452c-0.021-0.044-0.006-0.093,0.012-0.127
										c0.014-0.049,0.127-0.079,0.215-0.059c0.23,0.059,0.704,0.191,1.446,0.476c1.132,0.412,0.833,0.697,0.994,0.785
										c0.423,0.231,5.907-0.098,6.875,0.044c1.592,0.236,3.517-1.266,3.948-1.62c-0.025-0.015-0.041-0.025-0.056-0.039
										c0.385-0.535,1.614-1.678,2.573-2.547c0.514-0.471,1.56-0.795,2.552-0.868c0.891-0.339,2.176-0.476,3.052-0.849
										c0.152-0.064,0.318-0.132,0.505-0.201c0.539-0.309,0.872-0.555,0.523-0.761c-0.343-0.196-0.703-0.024-1.128-0.211
										c-1.469-0.643-0.062-2.297,0.802-3.151c-0.186-0.187-0.413-0.398-0.57-0.535c-0.394-0.329,0.288-0.81,1.213-0.859
										c0.79-0.039,1.274-0.01,3.085,0.054c3.874,0.142,7.39,0.727,5.13,2.69c-0.581,0.496-1.348,1.413-2.154,1.988
										c0.4,0.024,0.911,0.083,1.364,0.216c1.346-0.402,3.211-0.653,4.368-0.751c0.008,0.005,0.003,0.015,0.012,0.02
										c1.342-0.226,3.098-0.623,3.056-1.173c-0.036-0.476,2.097-2.866,1.738-3.117c-0.136-0.093-0.712-0.049-1.229-0.54h-0.011
										c-0.096-0.044-0.152-0.083-0.263-0.142c-0.161-0.088-0.265-0.201-0.288-0.324c-0.077-0.334-0.015-0.496,0.407-0.746
										c0.219-0.088,0.313,0.044,0.32,0.157c0.022,0.294,0.249,0.358,0.481,0.476c0.754-0.432,1.065-0.972,1.187-1.291
										c0.055-0.128,0.404-0.216,0.626-0.162c2.219,0.555,1.124,1.836,0.589,2.263c-0.313,0.25-0.465,2.268-0.142,3.323
										C222.142,148.4,221.295,149.201,219.793,149.716z" class="colord0ddff svgShape"></path></g></g></g><g fill="#010001" class="color000000 svgShape"><g fill="#010001" class="color000000 svgShape"><g fill="#010001" class="color000000 svgShape"><path fill="#83c1ff" d="M206.175,110.792c-0.873-2.336-1.762-6.792-1.568-7.339
										c0.314-0.947,0.746-3.776-1.761-5.004c-0.253-0.124-0.553,0.074-0.538,0.355c0.038,0.705,0.002,1.902-0.529,2.854
										c-0.295-0.257-0.551-0.399-0.724-1.049c-0.068-0.257-0.226-0.547-0.403-0.348c-0.294,0.549-0.265,0.914-0.019,1.65
										c0.091,0.271,0.251,0.518,0.457,0.715c0.137,0.132,0.214,0.214,0.335,0.307c0,0,0.005,0,0.005,0.006
										c0.773,1.088,1.331,0.989,1.508,1.187c0.497,0.558-0.403,5.843-0.121,6.892c0.514,1.922-3.628,2.988-3.844,3.037
										c0,0-0.596,4.324,1.822,4.716c1.48-0.95,2.479-1.844,4.307-3.501C206.335,114.133,206.771,112.366,206.175,110.792z" class="colorffaa83 svgShape"></path></g><g fill="#010001" class="color000000 svgShape"><path fill="#57aafe" d="M196.21,115.348c1.125-0.958,2.971-1.554,4.133-1.776c0.836,1.642,1.377,2.882,1.536,4.455
										c-1.224,1.39-3.09,3.059-4.049,3.88c-0.759,0.65-1.466,1.133-2.128,1.49L196.21,115.348z" class="colorfebd57 svgShape"></path></g></g><g fill="#010001" class="color000000 svgShape"><g fill="#010001" class="color000000 svgShape"><g fill="#010001" class="color000000 svgShape"><g fill="#010001" class="color000000 svgShape"><g fill="#010001" class="color000000 svgShape"><g fill="#010001" class="color000000 svgShape"><g fill="#010001" class="color000000 svgShape"><g fill="#010001" class="color000000 svgShape"><g fill="#010001" class="color000000 svgShape"><path fill="#83c1ff" d="M186.772,106.191c0,0,7.194,2.133,7.218,2.543c-0.006,0.147,0.286,7.576,0.154,9.261
																	c-0.194,2.746-7.417,1.394-6.382-0.452c0.669-1.213,1.425-2.064,0.754-2.735c-0.439-0.439-0.716-0.061-1.239-0.47
																	C184.812,112.373,186.772,106.191,186.772,106.191z" class="colorffaa83 svgShape"></path></g></g><g fill="#010001" class="color000000 svgShape"><path fill="#57aafe" d="M194.159,114.71c0,0-2.553,1.059-4.149,0.915c-0.754-0.068-1.535,0.717-2.02,1.3
																c-0.691,0.829-1.907,1.136-2.633,1.887c-1.14,1.179-2.26,6.573-2.26,6.573c0.459,2.085,0.448,13.159,0.448,13.159
																c4.908,8.905,12.593-1.777,12.593-1.777c-0.713-2.644-0.451-8.148,1.55-15.277
																C199.69,114.36,194.159,114.71,194.159,114.71z" class="colorfebd57 svgShape"></path></g><g fill="#010001" class="color000000 svgShape"><path fill="#2e2972" d="M186.384,104.297c0.768-0.087,1.272-0.022,3.113,0.122
																c3.945,0.308,7.762,1.6,6.51,5.94c-0.34,1.18-0.652,3.423-1.246,4.661c-0.108,0.226-0.318,0.382-0.564,0.43
																c-0.8,0.154-2.854,0.549-4.264,0.806c-0.553,0.101-1.019-0.377-0.939-0.933c0.082-0.572,0.016-1.133-0.03-1.41
																c-0.019-0.115-0.07-0.217-0.13-0.317c-0.433-0.71-0.255-1.001,0.029-1.79c0.322-0.895,0.6-1.931,0.173-1.96
																c-0.831-0.057-1.025,1.53-1.025,1.53l-0.537-0.211c0.001-0.711,0.012-0.725,0.03-1.132
																c0.025-0.557-0.057-1.457-0.469-1.822c0,0-0.937-1.387-1.427-2.019C185.049,105.471,185.479,104.399,186.384,104.297
																z" class="color293a72 svgShape"></path></g><g fill="#010001" class="color000000 svgShape"><path fill="#57aafe" d="M180.836,171.36c0.959-0.345,3.068-1.111,5.348-0.001
																c4.423,2.155,5.01,1.734,5.01,1.734s1.482,6.284-1.999,4.9c-2.632-1.046-6.334-3.59-8.512-5.008
																C180.061,172.579,180.137,171.612,180.836,171.36z" class="colorfebd57 svgShape"></path></g><g fill="#010001" class="color000000 svgShape"><path fill="#57aafe" d="M187.36,166.871c0.959-0.345,3.068-1.111,5.348-0.001
																c4.423,2.155,5.01,1.734,5.01,1.734s1.482,6.284-1.999,4.9c-2.632-1.046-6.334-3.59-8.512-5.008
																C186.585,168.09,186.661,167.122,187.36,166.871z" class="colorfebd57 svgShape"></path></g><g fill="#010001" class="color000000 svgShape"><path fill="#756edb" d="M191.508,138.865c2.519-0.925,4.63-2.099,4.63-2.099s0.265,0.694,0.665,1.346
																c0.967,1.578,2.705,3.852,0.593,12.743c-1.708,7.19,1.006,10.267,0.323,17.749c0,0-3.28,1.917-5.137-1.609
																c0,0-0.287-6.656-0.79-8.654c-0.111-0.44-0.206-6.236-0.881-8.54C190.593,151.363,188.428,139.996,191.508,138.865z" class="color6e6fdb svgShape"></path></g></g></g></g></g></g></g></g><g fill="#010001" class="color000000 svgShape"><path fill="#928ce5" d="M183.545,138.544c1.542,1.66,5.273,1.365,8.438,0.141c3.021,4.827-1.072,11.115-1.072,11.115
									c-0.319,1.567-0.5,3.077-0.6,5.883c-0.088,2.475-0.046,4.075,0.13,6.545c0.345,4.838,0.753,10.865,0.753,10.865
									c-4.266,1.635-5.759-1.135-5.759-1.135l-0.17-7.77c-0.065-3.517-0.112-6.253-1.051-9.643
									C181.253,143.857,183.545,138.544,183.545,138.544z" class="color8c8ce5 svgShape"></path></g><g fill="#010001" class="color000000 svgShape"><g fill="#010001" class="color000000 svgShape"><path fill="#83c1ff" d="M171.352,131.566c0.48-0.326,4.979,0.857,7.285,1.806c1.552,0.646,3.334,0.266,4.51-0.928
										c1.715-1.773,2.639-2.744,3.64-4.193c-0.317-2.429-4.659-1.971-4.659-1.971c-0.056,0.211-1.252,4.316-3.159,3.742
										c-1.039-0.316-6.349,0.415-6.893-0.099c-0.205-0.198-0.056-0.824-1.395-1.733c-0.895-0.629-1.438-0.922-1.693-1.051
										c-0.095-0.046-0.194,0.022-0.19,0.128c0.004,0.072,0.013,0.18,0.06,0.28c0.088,0.308,0.354,0.701,1.06,0.999
										c0.084,0.036,0.137,0.134,0.092,0.229c-0.083,0.159-0.344,0.347-1.178-0.016c-1.285-0.521-2.031-0.391-2.061-0.379
										c0,0-1.07,0.114-0.071,1.424C166.737,129.872,169.034,133.141,171.352,131.566z" class="colorffaa83 svgShape"></path></g><g fill="#010001" class="color000000 svgShape"><path fill="#57aafe" d="M187.17,119.224c-0.013-0.009-0.026-0.018-0.039-0.027
										c-1.431-0.986-3.417-0.152-3.863,1.527c-0.51,1.919-1.145,4.449-1.262,5.634c0.903,1.163,3.59,2.408,4.828,2.104
										c0.768-1.483,2.628-5.141,2.827-5.895C190.27,120.27,188.465,120.14,187.17,119.224z" class="colorfebd57 svgShape"></path></g></g></g></g></g></g><g fill="#010001" class="color000000 svgShape"><g fill="#010001" class="color000000 svgShape"><g fill="#010001" class="color000000 svgShape"><g fill="#010001" class="color000000 svgShape"><path fill="#c494bb" d="M287.571,192.527l-0.012,2.031c0,0.573-0.374,1.146-1.134,1.582l-54.004,31.377
								c-1.508,0.885-3.999,0.897-5.532,0l-36.781-21.231c-0.773-0.448-1.159-1.034-1.159-1.619l0.013-2.006
								c0,0.573,0.386,1.158,1.146,1.595l36.793,21.231c1.533,0.897,4.012,0.885,5.532,0l53.991-31.378
								C287.184,193.674,287.558,193.101,287.571,192.527z" class="colorc49494 svgShape"></path></g><g fill="#010001" class="color000000 svgShape"><path fill="#b5cee7" d="M286.409,190.908c1.535,0.886,1.543,2.319,0.018,3.206l-53.994,31.378
								c-1.518,0.882-3.999,0.887-5.535,0l-36.784-21.237c-1.535-0.886-1.543-2.329-0.026-3.21l53.995-31.378
								c1.525-0.886,4.007-0.882,5.543,0.005L286.409,190.908z" class="colore7b8b5 svgShape"></path></g><g fill="#010001" class="color000000 svgShape"><g fill="#010001" class="color000000 svgShape"><polygon fill="#ffffff" points="285.125 192.141 231.501 223.303 193.874 201.579 247.497 170.416" class="colorffffff svgShape"></polygon></g></g><g fill="#010001" class="color000000 svgShape"><g fill="#010001" class="color000000 svgShape"><g fill="#010001" class="color000000 svgShape"><g fill="#010001" class="color000000 svgShape"><polygon fill="#632363" points="275.934 180.324 275.211 182.642 275.211 181.632 275.934 179.302" class="color233163 svgShape"></polygon></g><g fill="#010001" class="color000000 svgShape"><path fill="#632363" d="M280.045,185.333v1.021c0,0.548-0.361,1.109-1.096,1.52l-2.479,1.445l-24.633-14.216
											v-1.022l24.633,14.229l2.492-1.445C279.684,186.441,280.045,185.893,280.045,185.333z" class="color233163 svgShape"></path></g></g><g fill="#010001" class="color000000 svgShape"><g fill="#010001" class="color000000 svgShape"><path fill="#443f8c" d="M275.931,179.305l-0.716,2.324l3.715,2.145c1.48,0.854,1.487,2.242,0.025,3.091
											l-2.482,1.442l-24.637-14.224l2.482-1.442c1.462-0.849,3.865-0.845,5.336,0.005l3.723,2.15l4.01-0.423L275.931,179.305z" class="color3f528c svgShape"></path></g></g></g></g></g><g fill="#010001" class="color000000 svgShape"><g fill="#010001" class="color000000 svgShape"><g fill="#010001" class="color000000 svgShape"><g fill="#010001" class="color000000 svgShape"><path fill="#94c9ff" d="M257.149,183.833v10.795c-0.004,0.517-0.342,1.031-1.014,1.423
										c-1.36,0.784-3.567,0.788-4.931,0c-0.688-0.4-1.03-0.917-1.03-1.439l0.004-10.795c0-0.513,0.338-1.03,1.014-1.423
										c1.356-0.788,3.562-0.788,4.931,0C256.811,182.79,257.153,183.312,257.149,183.833z" class="colorffdd94 svgShape"></path></g></g></g><g fill="#010001" class="color000000 svgShape"><g fill="#010001" class="color000000 svgShape"><g fill="#010001" class="color000000 svgShape"><path fill="#9e99ef" d="M265.404,182.261l-0.004,17.136c0,0.513-0.338,1.026-1.014,1.418
										c-1.356,0.788-3.562,0.788-4.926,0c-0.688-0.396-1.03-0.917-1.03-1.439l0.004-17.132c0-0.517,0.338-1.03,1.014-1.423
										c1.356-0.788,3.562-0.788,4.926,0C265.062,181.218,265.408,181.739,265.404,182.261z" class="color9999ef svgShape"></path></g></g></g><g fill="#010001" class="color000000 svgShape"><g fill="#010001" class="color000000 svgShape"><g fill="#010001" class="color000000 svgShape"><path fill="#0e00dd" d="M248.894,170.535v19.33c-0.004,0.513-0.342,1.026-1.014,1.419
										c-1.356,0.788-3.562,0.788-4.931,0c-0.688-0.396-1.03-0.918-1.03-1.439l0.004-19.326c0-0.513,0.338-1.026,1.014-1.418
										c1.356-0.793,3.562-0.793,4.931,0C248.556,169.496,248.898,170.014,248.894,170.535z" class="color00ddc4 svgShape"></path></g></g></g><g fill="#010001" class="color000000 svgShape"><g fill="#010001" class="color000000 svgShape"><g fill="#010001" class="color000000 svgShape"><path fill="#a50b89" d="M240.638,175.712v9.385c-0.004,0.517-0.342,1.026-1.014,1.418
										c-1.356,0.788-3.562,0.792-4.931,0c-0.688-0.396-1.03-0.914-1.03-1.435l0.004-9.385c0-0.513,0.338-1.026,1.014-1.418
										c1.356-0.788,3.562-0.788,4.931,0C240.3,174.673,240.642,175.19,240.638,175.712z" class="colorce296e svgShape"></path></g></g></g><g fill="#010001" class="color000000 svgShape"><g fill="#010001" class="color000000 svgShape"><g fill="#010001" class="color000000 svgShape"><g fill="#010001" class="color000000 svgShape"><path fill="#0b00af" d="M248.895,170.533l-0.003,19.331c-0.001,0.514-0.339,1.027-1.014,1.419
											c-1.356,0.788-3.563,0.789-4.929,0c-0.687-0.397-1.03-0.918-1.029-1.437l0.003-19.331
											c-0.001,0.52,0.342,1.041,1.029,1.437c1.366,0.789,3.573,0.788,4.929,0C248.556,171.56,248.893,171.047,248.895,170.533z" class="color00af9a svgShape"></path></g></g><g fill="#010001" class="color000000 svgShape"><g fill="#010001" class="color000000 svgShape"><path fill="#0e00dd" d="M247.881,171.952c-1.355,0.789-3.562,0.789-4.929,0c-1.367-0.789-1.373-2.068-0.015-2.854
											c1.355-0.789,3.562-0.789,4.928,0C249.233,169.884,249.239,171.163,247.881,171.952z" class="color00ddc4 svgShape"></path></g></g></g><g fill="#010001" class="color000000 svgShape"><g fill="#010001" class="color000000 svgShape"><g fill="#010001" class="color000000 svgShape"><path fill="#756edb" d="M265.405,182.259l-0.003,17.137c-0.001,0.514-0.339,1.027-1.014,1.419
											c-1.356,0.788-3.563,0.789-4.929,0c-0.687-0.397-1.03-0.918-1.029-1.437l0.003-17.137
											c-0.001,0.52,0.341,1.041,1.029,1.437c1.366,0.789,3.573,0.788,4.929,0C265.065,183.286,265.403,182.773,265.405,182.259z
											" class="color6e6fdb svgShape"></path></g></g><g fill="#010001" class="color000000 svgShape"><g fill="#010001" class="color000000 svgShape"><path fill="#9e99ef" d="M264.391,183.677c-1.355,0.789-3.562,0.789-4.928,0c-1.367-0.789-1.373-2.068-0.015-2.854
											c1.355-0.789,3.562-0.789,4.928,0C265.742,181.609,265.748,182.889,264.391,183.677z" class="color9999ef svgShape"></path></g></g></g><g fill="#010001" class="color000000 svgShape"><g fill="#010001" class="color000000 svgShape"><g fill="#010001" class="color000000 svgShape"><path fill="#ef43d0" d="M257.15,183.832l-0.003,10.799c-0.002,0.514-0.339,1.027-1.014,1.419
											c-1.356,0.788-3.563,0.789-4.929,0c-0.687-0.397-1.03-0.918-1.029-1.437l0.003-10.799
											c-0.001,0.52,0.342,1.041,1.029,1.437c1.366,0.789,3.573,0.788,4.929,0C256.81,184.858,257.148,184.345,257.15,183.832z" class="colorefa143 svgShape"></path></g></g><g fill="#010001" class="color000000 svgShape"><g fill="#010001" class="color000000 svgShape"><path fill="#94c9ff" d="M256.136,185.25c-1.355,0.789-3.562,0.789-4.929,0c-1.367-0.789-1.373-2.068-0.015-2.854
											c1.355-0.789,3.562-0.789,4.929,0C257.488,183.182,257.494,184.461,256.136,185.25z" class="colorffdd94 svgShape"></path></g></g></g><g fill="#010001" class="color000000 svgShape"><g fill="#010001" class="color000000 svgShape"><g fill="#010001" class="color000000 svgShape"><path fill="#a50b89" d="M240.64,175.712l-0.003,9.387c-0.001,0.514-0.339,1.027-1.014,1.419
											c-1.356,0.788-3.563,0.789-4.929,0c-0.687-0.397-1.03-0.918-1.029-1.437l0.003-9.387c-0.001,0.52,0.342,1.041,1.029,1.437
											c1.366,0.789,3.573,0.788,4.929,0C240.301,176.738,240.639,176.225,240.64,175.712z" class="colorce296e svgShape"></path></g></g><g fill="#010001" class="color000000 svgShape"><g fill="#010001" class="color000000 svgShape"><path fill="#ff65e3" d="M239.626,177.13c-1.355,0.789-3.562,0.789-4.929,0c-1.367-0.789-1.373-2.068-0.015-2.854
											c1.355-0.789,3.562-0.789,4.928,0C240.978,175.062,240.984,176.342,239.626,177.13z" class="colorff65a7 svgShape"></path></g></g></g></g></g></g><g fill="#010001" class="color000000 svgShape"><g fill="#010001" class="color000000 svgShape"><g fill="#010001" class="color000000 svgShape"><g fill="#010001" class="color000000 svgShape"><polygon fill="#aed1f4" points="253.328 206.731 251.676 207.691 221.519 190.28 223.171 189.32" class="coloraec7f4 svgShape"></polygon></g></g><g fill="#010001" class="color000000 svgShape"><g fill="#010001" class="color000000 svgShape"><polygon fill="#aed1f4" points="241.135 214.027 239.484 214.987 228.052 208.386 229.703 207.427" class="coloraec7f4 svgShape"></polygon></g></g><g fill="#010001" class="color000000 svgShape"><g fill="#010001" class="color000000 svgShape"><polygon fill="#aed1f4" points="249.203 209.128 247.552 210.088 217.395 192.677 219.046 191.717" class="coloraec7f4 svgShape"></polygon></g></g><g fill="#010001" class="color000000 svgShape"><g fill="#010001" class="color000000 svgShape"><polygon fill="#aed1f4" points="245.079 211.525 243.426 212.485 213.269 195.074 214.922 194.114" class="coloraec7f4 svgShape"></polygon></g></g></g></g><g opacity=".3" fill="#010001" class="color000000 svgShape"><g fill="#010001" class="color000000 svgShape"><g fill="#010001" class="color000000 svgShape"><g fill="#010001" class="color000000 svgShape"><path fill="#d0e7ff" d="M237.398,217.905c0,0,0,0-0.002,0.005c-0.015,0.058-0.062,0.116-0.152,0.174l-1.653,1.864
									c-0.035,0.031-0.084,0.068-0.141,0.1l-1.12,0.921c-0.033,0.026-0.083,0.042-0.138,0.042
									c-0.067,0.005-0.104-0.01-0.125-0.037l-0.536-0.879c-0.011,0-0.008-0.005-0.008-0.005c-0.043-0.026-0.072-0.058-0.069-0.089
									l-0.459-1.795c-0.053-0.053-0.071-0.111-0.045-0.169l1.865-5.78c-0.447,0.079-0.915,0.084-1.401,0.005
									c-1.928-0.326-3.49-0.574-4.822-0.974c-0.82-0.332-2.078-0.8-2.96-1.163c-0.703,0.884-1.255,2.069-1.354,2.764
									c-0.133,0.921-0.075,1.974-0.075,1.974c-1.573,3.806-3.014,5.68-3.941,6.58c-1.009,0.99-1.945,1.985-2.705,3.001
									l-4.737,6.343c0.122-0.005,0.254-0.011,0.397-0.016c1.183-0.052,0.865,0.253,0.297,0.558
									c-0.026,0.011-0.044,0.027-0.07,0.037c0.071,0.01,0.156,0.016,0.251,0.021c1.438,0.084,1.942,0.121,3.68,0.042
									c1.173-0.053,0.852,0.258,0.295,0.563c-1.109,0.6-2.557,0.858-3.695,0.684c-0.784-0.116-1.487-0.268-2.727,0.184
									c-1.266,0.463-2.184,0.479-2.735,0.4c-0.408-0.058-0.61-0.29-0.471-0.558l0.218-0.447c-0.027-0.111,0.013-0.226,0.109-0.348
									c-0.359,0.026-0.775,0.111-1.266,0.289c-1.277,0.464-2.184,0.479-2.746,0.4c-0.411-0.053-0.602-0.284-0.471-0.558
									l0.218-0.447c-0.107-0.448,0.948-1.048,1.203-1.185c0,0,0,0,0.002-0.005c0.37-0.769,1.197-2.627,1.213-3.975
									c0.017-1.421,1.382-3.074,1.877-3.632c0.112-0.132,0.161-0.268,0.13-0.395c-0.995-4.28,0.306-6.354,1.431-7.312
									c-0.019-0.005-0.03-0.005-0.03-0.005c1.245-1.106,2.024-1.521,2.462-1.779c0.545-0.326,0.973-0.684,1.193-1.037l0.038-0.063
									c0.236-0.39,0.426-0.774,0.571-1.153c-0.331-0.184-0.515-0.358-0.483-0.505c0.111-0.5,0.133-0.895,0.17-1.253h-0.033
									c-0.154-0.663-0.235-1.59-0.128-1.932c0.312-1.032,0.775-2.258,2.324-2.674c0.258-0.068,0.543-0.1,0.846-0.1
									c0.011,0,0.011,0,0.011,0c0.115-0.016,0.229-0.026,0.328-0.032c0.271-0.147,0.509-0.295,0.739-0.448
									c0.725-0.489,0.626-0.932,0.499-1.458c-0.06-0.284,0-0.569,0.068-0.847c0.117-0.463,0.705-0.816,1.214-1.258
									c0.519-0.442,1.418-0.858,2.701-1.09c1.014-0.184,2.396-0.442,3.555-0.463c1.538-0.021,3.082,0.242,3.998,0.627
									c0.275,0.116,0.453,0.253,0.632,0.389c0.571,0.453,1.116,0.99,0.309,1.421c-0.115,0.063-0.259,0.121-0.41,0.168
									c-0.384,0.479-1.559,1.674-5.082,2.906c-0.326,0.174-0.69,0.337-1.063,0.495c0.699,0.284,1.79,0.616,3.253,0.842
									c0.458,0.069,0.774,0.189,0.969,0.337c0.011,0,0.011,0,0.011,0c0.023,0.021,0.055,0.047,0.076,0.074
									c0.034,0.021,0.055,0.047,0.076,0.074c0.828,0.806,2.455,2.759,2.455,2.759c-0.001,0.026-0.001,0.053-0.004,0.084
									c0.447,0.242,2.681,1.353,3.487,0.506c0.145-0.158,0.601-0.405,1.166-0.679l3.226-9.992
									c0.059-0.158,0.326-0.321,0.806-0.453c0.951-0.263,2.355-0.3,3.152-0.09c0.407,0.111,0.565,0.269,0.494,0.432l-0.002,0.005
									l-2.051,6.328c0.143-0.079,0.268-0.116,0.313-0.021c0.036,0.042,0.03,0.105,0.011,0.221c0,0-0.028,0.063-0.251,0.226
									c0.135-0.084,0.372-0.205,0.42-0.116c0.014,0.042,0.016,0.111-0.054,0.221c-0.193,0.416-0.329,0.553-0.381,0.595
									c0.127-0.042,0.424-0.126,0.482-0.01c0.027,0.037,0.014,0.116-0.061,0.237c-0.187,0.327-0.675,0.821-1.278,1.132
									L237.398,217.905z" class="colord0ddff svgShape"></path></g></g></g></g><g fill="#010001" class="color000000 svgShape"><g fill="#010001" class="color000000 svgShape"><g fill="#010001" class="color000000 svgShape"><g fill="#010001" class="color000000 svgShape"><g fill="#010001" class="color000000 svgShape"><g fill="#010001" class="color000000 svgShape"><path fill="#332e84" d="M229.682,205.847l-0.766,2.052c-0.019,0.052-0.068,0.087-0.124,0.091
											c-0.056,0.003-0.108-0.026-0.133-0.076l-0.987-1.949L229.682,205.847z" class="color2e4384 svgShape"></path></g><g fill="#010001" class="color000000 svgShape"><path fill="#98c2ed" d="M230.646,201.602l-0.918,4.196c-0.027,0.128-0.121,0.253-0.284,0.36
											c-0.402,0.261-1.08,0.301-1.508,0.089c-0.18-0.092-0.289-0.214-0.323-0.344l-1.369-4.041L230.646,201.602z" class="coloreda198 svgShape"></path></g><g fill="#010001" class="color000000 svgShape"><g fill="#010001" class="color000000 svgShape"><g fill="#010001" class="color000000 svgShape"><path fill="#7c326f" d="M226.244,201.861c0.019,0.319,0.249,0.626,0.689,0.844
													c0.883,0.441,2.277,0.358,3.112-0.183c0.42-0.273,0.619-0.61,0.601-0.934l-2.194-39.217
													c0.019,0.323-0.18,0.66-0.6,0.933c-0.835,0.541-2.229,0.624-3.113,0.184c-0.439-0.219-0.67-0.525-0.689-0.845
													L226.244,201.861z" class="color7c4732 svgShape"></path></g><g fill="#010001" class="color000000 svgShape"><path fill="#98c2ed" d="M224.651,161.711c0.835-0.542,2.229-0.624,3.113-0.184
													c0.884,0.44,0.924,1.236,0.088,1.778c-0.835,0.542-2.229,0.624-3.113,0.184
													C223.855,163.048,223.816,162.252,224.651,161.711z" class="coloreda198 svgShape"></path></g><g fill="#010001" class="color000000 svgShape"><path fill="#443f8c" d="M225.741,162.253c0.267-0.173,0.711-0.199,0.993-0.059
													c0.282,0.14,0.295,0.395,0.028,0.567c-0.267,0.173-0.711,0.199-0.994,0.059
													C225.487,162.68,225.474,162.426,225.741,162.253z" class="color3f528c svgShape"></path></g></g></g></g></g></g></g><g fill="#010001" class="color000000 svgShape"><g fill="#010001" class="color000000 svgShape"><g fill="#010001" class="color000000 svgShape"><g fill="#010001" class="color000000 svgShape"><g fill="#010001" class="color000000 svgShape"><path fill="#0b00af" d="M208.731,193.906l-5.844,0.357c0,0-3.73,2.53,0.856,16.585
											c0.087,0.265,0.105,0.547,0.045,0.816c-0.253,1.142-0.894,4.553-0.281,7.481c0.748,3.579,0.507,8.93,0.507,8.93h3.066
											l1.772-13.639c0,0,0.96-7.397,2.392-12.341C212.096,199.155,211.092,195.948,208.731,193.906z" class="color00af9a svgShape"></path></g><g fill="#010001" class="color000000 svgShape"><path fill="#f4f6f8" d="M212.111,228.088c-1.697,0.16-2.222,0.083-3.695-0.085c-1.2-0.137-1.223-0.699-1.223-0.699
											s-2.152,1.524-3.123-0.015c0,0-1.059,1.451-0.711,2.5l-0.023,0.918c-0.014,0.558,0.28,1.036,0.715,1.154
											c0.591,0.159,1.498,0.129,2.568-0.827c1.041-0.93,1.81-0.622,2.643-0.378c1.217,0.357,2.548-0.172,3.392-1.408
											C213.082,228.618,213.263,227.98,212.111,228.088z" class="color1e3063 svgShape"></path></g><g fill="#010001" class="color000000 svgShape"><path fill="#0c00bf" d="M213.172,195.27l-5.844,0.357c0,0-3.73,2.53,0.856,16.585
											c0.086,0.265,0.105,0.547,0.045,0.816c-0.253,1.143-0.894,4.553-0.281,7.481c0.748,3.579,0.507,8.93,0.507,8.93h3.066
											l2.149-14.387c0.313-2.092,0.813-4.144,1.391-6.173c0.529-1.855,1.145-5.716,1.05-13.564L213.172,195.27z" class="color00bfad svgShape"></path></g><g fill="#010001" class="color000000 svgShape"><g fill="#010001" class="color000000 svgShape"><g fill="#010001" class="color000000 svgShape"><path fill="#83c1ff" d="M211.535,188.462c-0.01-0.014-0.02-0.029-0.03-0.042
													c-0.826-1.107-1.944-1.927-3.082-2.725c-1.573-1.1-0.548-3.277-0.466-3.48c0,0-1.126-0.465-1.01-0.687l-3.613,2.216
													c0.121,0.772,0.281,1.609,0.394,2.68c0.079,0.749,1.49,1.765,3.057,2.697L211.535,188.462z" class="colorffaa83 svgShape"></path></g><g fill="#010001" class="color000000 svgShape"><path fill="#9e99ef" d="M203.487,174.352c-1.364,0.858-1.298,3.383-1.151,5.516
													c0.047,0.699,0.531,2.606,0.973,3.981c0.915-0.062,4.14-0.32,4.88-1.517c0.17-1.743,0.071-3.96,0.017-4.753
													C208.06,175.444,204.849,173.492,203.487,174.352z" class="color9999ef svgShape"></path></g></g><g fill="#010001" class="color000000 svgShape"><path fill="#9e99ef" d="M215.589,176.728c-3.468-1.027-5.3-3.129-4.723-2.888c0,0-2.746,1.344-4.936,0.247
												c0,0-3.08-0.626-3.011,2.133c0.041,1.656-0.109,2.585,0.277,3.814c0.966,3.083,1.442,6.375,1.166,9.802l-0.01,0.131
												c-0.059,0.734-0.332,1.465-0.74,2.141c-0.318,0.528-0.916,1.391-1.677,3.662c0,0,8.664,2.692,14.176-0.455
												c0,0-0.527-2.17-0.796-4.064c-0.246-1.739-0.151-4.936,0.366-6.75l0.009-1.121c0.009-1.115,0.351-1.328,1.029-2.337
												C217.525,179.846,217.711,177.357,215.589,176.728z" class="color9999ef svgShape"></path></g><g fill="#010001" class="color000000 svgShape"><path fill="#83c1ff" d="M211.9,174.702c-1.746,1.292-4.113-0.036-4.602-2.698c-0.15-0.814-0.11-1.6,0.082-2.326
												c0.764-2.898,3.94-4.869,7.107-4.078c0,0,2.631-0.83,2.171,2.158C216.527,168.602,215.969,171.691,211.9,174.702z" class="colorffaa83 svgShape"></path></g></g></g><g fill="#010001" class="color000000 svgShape"><path fill="#ee42cf" d="M216.018,164.717c-0.234-0.281-0.473-0.565-0.801-0.805
										c-1.085-0.795-2.74-1.339-4.272-1.287c-1.145,0.039-2.412,0.567-3.355,0.949c-1.18,0.477-1.898,1.334-2.214,2.242
										c-0.316,0.909-0.757,1.636-0.668,2.592c0.054,0.582,0.123,1.167,0.311,1.745c0.355,1.093,0.645,2.001,0.137,3.013
										c-0.364,0.725-0.834,1.452-1.505,2.06c-1.113,1.009-0.91,2.559-0.972,3.83c-0.055,1.136-0.154,2.527,1.279,3.435
										c0.8,0.507,1.864,0.796,2.921,0.913c0.943,0.104,1.954,0.07,2.68-0.282c1.041-0.505,1.21-1.507,1.024-2.401
										c-0.186-0.894-0.648-1.79-0.573-2.674c0.156-1.832,2.524-3.117,3.26-4.85c0.436-1.029-0.03-2.124-0.526-3.221
										c-0.234-0.516,0.374-0.964,0.889-0.654c0.24,0.145,0.459,0.611,0.566,0.953c0.061-0.012,0.121-0.023,0.182-0.032
										c0.001,0,0.002,0,0.002,0c-0.004-0.852,0.548-1.203,1.015-1.48c0.577-0.343,1.238-0.653,1.563-1.124
										C217.576,166.748,216.792,165.645,216.018,164.717z" class="coloree428c svgShape"></path></g></g><g fill="#010001" class="color000000 svgShape"><path fill="#2e2972" d="M216.552,229.452c-1.697,0.16-2.222,0.083-3.695-0.085c-1.2-0.137-1.223-0.699-1.223-0.699
									s-2.152,1.524-3.123-0.015c0,0-1.059,1.45-0.711,2.5l-0.023,0.918c-0.014,0.558,0.28,1.036,0.715,1.154
									c0.591,0.159,1.498,0.129,2.568-0.827c1.041-0.93,1.81-0.622,2.643-0.378c1.217,0.357,2.549-0.172,3.392-1.408
									C217.523,229.982,217.703,229.343,216.552,229.452z" class="color293a72 svgShape"></path></g></g><g fill="#010001" class="color000000 svgShape"><g fill="#010001" class="color000000 svgShape"><path fill="#83c1ff" d="M220.534,183.498c0.179,0.181,3.344,3.014,3.801,1.129c0.247-1.03,3.212-3.869,3.088-4.768
									c-0.05-0.344-0.574-0.891-0.622-2.738c-0.047-1.256-0.012-1.927,0.011-2.234c0.01-0.111,0.105-0.109,0.18,0.005
									c0.05,0.077,0.126,0.195,0.177,0.33c0.184,0.378,0.348,0.965,0.241,1.752c-0.012,0.094,0.034,0.231,0.125,0.299
									c0.154,0.109,0.41,0.126,0.529-0.813c0.21-1.41,0.646-1.78,0.669-1.787c0,0,0.078,0.026,0.16,0.191
									c0.084,0.183,0.153,0.547,0.013,1.218c0.022-0.04,0.368-1.131,0.575-0.672c0.052,0.095,0.079,0.221,0.112,0.462
									c0,0-0.004,0.128-0.16,0.467c0.097-0.178,0.28-0.427,0.368-0.242c0.031,0.093,0.065,0.225,0.044,0.454
									c-0.008,0.855-0.089,1.141-0.121,1.225c0.109-0.079,0.378-0.255,0.486-0.022c0.037,0.082,0.063,0.244,0.043,0.495
									c-0.06,0.892-0.515,2.392-1.303,2.819c-0.379,0.196-1.659,4.256-2.025,6.8c-0.242,1.718-1.335,2.531-2.743,2.092
									c-2.077-0.674-3.741-1.185-5.255-2.007C217.304,185.226,220.534,183.498,220.534,183.498z" class="colorffaa83 svgShape"></path></g><g fill="#010001" class="color000000 svgShape"><path fill="#9e99ef" d="M220.594,183.41c0,0-2.812-4.579-3.883-5.984c0,0-3.753,0.272-3.677,2.098
									c0.073,1.824-0.66,3.181,1.291,5.146c0.64,0.645,3.169,2.271,4.601,3.285C219.715,187.43,221.027,185.224,220.594,183.41z" class="color9999ef svgShape"></path></g></g></g></g></g></g></g><g fill="#010001" class="color000000 svgShape"><path fill="#8ec6fe" d="M287.435,171.307c0,1.276-1.035,2.311-2.311,2.311c-1.276,0-2.311-1.035-2.311-2.311
			c0-1.276,1.035-2.311,2.311-2.311C286.401,168.996,287.435,170.031,287.435,171.307z" class="color8ec2fe svgShape"></path></g><g fill="#010001" class="color000000 svgShape"><path fill="#ff65e3" d="M183.431,58.001c0,1.276-1.035,2.311-2.311,2.311c-1.276,0-2.311-1.035-2.311-2.311
			c0-1.276,1.035-2.311,2.311-2.311C182.396,55.69,183.431,56.724,183.431,58.001z" class="colorff65a7 svgShape"></path></g><g fill="#010001" class="color000000 svgShape"><g fill="#010001" class="color000000 svgShape"><path fill="#8ec6fe" d="M175.499,223.349c-1.032-0.751-2.477-0.524-3.228,0.507c-0.751,1.032-0.524,2.477,0.507,3.228
				c1.032,0.751,2.477,0.524,3.228-0.507C176.758,225.546,176.531,224.101,175.499,223.349z" class="color8ec2fe svgShape"></path></g><g fill="#010001" class="color000000 svgShape"><path fill="#57aafe" d="M168.951,230.193c-1.774-1.292-4.259-0.902-5.551,0.872c-1.292,1.774-0.902,4.259,0.872,5.552
				c1.774,1.292,4.259,0.902,5.552-0.872C171.116,233.97,170.725,231.485,168.951,230.193z" class="colorfebd57 svgShape"></path></g></g><g fill="#010001" class="color000000 svgShape"><circle cx="93.372" cy="101.771" r="5.657" fill="#0e00dd" class="color00ddc4 svgShape"></circle></g><g fill="#010001" class="color000000 svgShape"><g fill="#010001" class="color000000 svgShape"><path fill="#dcedff" d="M260.801,60.514l-8.253-4.614c-1.049-0.589-2.381-0.212-2.968,0.837l-4.615,8.255
				c-0.587,1.049-0.21,2.381,0.839,2.968l8.253,4.614c1.049,0.587,2.381,0.212,2.968-0.839l4.615-8.252
				C262.227,62.433,261.85,61.101,260.801,60.514z M255.393,70.822c-0.084,0.15-0.274,0.203-0.424,0.12l-8.253-4.614
				c-0.15-0.084-0.204-0.274-0.12-0.424l4.615-8.255c0.084-0.15,0.274-0.203,0.424-0.12l8.253,4.617
				c0.15,0.083,0.204,0.274,0.12,0.424L255.393,70.822z" class="colordce7ff svgShape"></path></g></g></g></svg>