<svg xmlns="http://www.w3.org/2000/svg" enable-background="new 0 0 336.64 293.71" viewBox="0 0 336.64 293.71" id="Mortgage"><g fill="#010001" class="color000000 svgShape"><path fill="#f4f6f8" d="M248.624,136.526l-0.029,5.273c0,0.795-0.53,1.59-1.59,2.209l-91.943,53.423
		c-2.12,1.237-5.596,1.237-7.716,0l-51.634-29.813c-1.09-0.618-1.62-1.414-1.62-2.238l0.03-5.273c0,0.826,0.53,1.649,1.59,2.268
		l51.634,29.813c2.15,1.237,5.625,1.237,7.745,0l91.943-53.423C248.094,138.147,248.624,137.321,248.624,136.526z" class="colord9dfe8 svgShape"></path><path fill="#bcc4cc" d="M246.999,134.278c2.144,1.238,2.155,3.235,0.025,4.473l-91.945,53.433
		c-2.111,1.227-5.578,1.238-7.722,0L95.72,162.371c-2.125-1.227-2.136-3.246-0.025-4.473l91.945-53.433
		c2.129-1.237,5.597-1.227,7.722,0L246.999,134.278z" class="colorbcc2cc svgShape"></path><path fill="#ffffff" d="M244.951,137.554l-91.946,53.41c-0.966,0.58-2.576,0.58-3.574,0l-51.639-29.811
		c-0.998-0.547-0.966-1.481,0-2.061l91.946-53.409c0.966-0.58,2.544-0.58,3.542,0l51.607,29.811
		C245.885,136.074,245.917,136.974,244.951,137.554z" class="colorffffff svgShape"></path><g fill="#010001" class="color000000 svgShape"><g fill="#010001" class="color000000 svgShape"><polygon fill="#5046e4" points="239.783 138.566 158.41 185.854 106.623 155.955 187.995 108.666" class="color3f528c svgShape"></polygon></g><g fill="#010001" class="color000000 svgShape"><path fill="#f4f6f8" d="M135.314,175.051c1.241,0.717,1.228,1.879,0.014,2.584c-1.232,0.716-3.219,0.716-4.46,0
				l-9.965-5.754c-1.241-0.717-1.247-1.867-0.015-2.583c1.214-0.706,3.22-0.717,4.461,0L135.314,175.051z" class="colord9dfe8 svgShape"></path></g></g><g fill="#010001" class="color000000 svgShape"><g fill="#010001" class="color000000 svgShape"><path fill="#f4f6f8" d="M225.242,126.058c0.376,0.217,0.36,0.575-0.014,0.793c-0.373,0.217-0.992,0.228-1.368,0.011
				l-15.606-9.01c-0.376-0.217-0.378-0.587-0.005-0.803c0.374-0.217,1.011-0.217,1.387,0L225.242,126.058z" class="colord9dfe8 svgShape"></path></g></g><g fill="#010001" class="color000000 svgShape"><polygon fill="#8cadcf" points="232.745 191.269 189.204 216.572 167.959 204.306 211.491 179.008" class="color8ccfb1 svgShape"></polygon></g><g fill="#010001" class="color000000 svgShape"><polygon fill="#6560ad" points="232.745 191.269 232.74 192.974 189.199 218.277 189.204 216.572" class="color60ad88 svgShape"></polygon></g><g fill="#010001" class="color000000 svgShape"><polygon fill="#7873bc" points="189.204 216.572 189.199 218.277 167.954 206.011 167.959 204.306" class="color73bc9c svgShape"></polygon></g><g fill="#010001" class="color000000 svgShape"><polygon fill="#8cadcf" points="232.745 187.439 189.204 212.742 167.959 200.476 211.491 175.178" class="color8ccfb1 svgShape"></polygon></g><g fill="#010001" class="color000000 svgShape"><polygon fill="#6560ad" points="232.745 187.439 232.74 189.144 189.199 214.447 189.204 212.742" class="color60ad88 svgShape"></polygon></g><g fill="#010001" class="color000000 svgShape"><polygon fill="#7873bc" points="189.204 212.742 189.199 214.447 167.954 202.181 167.959 200.476" class="color73bc9c svgShape"></polygon></g><g fill="#010001" class="color000000 svgShape"><polygon fill="#8cadcf" points="232.745 183.609 189.204 208.912 167.959 196.646 211.491 171.348" class="color8ccfb1 svgShape"></polygon></g><g fill="#010001" class="color000000 svgShape"><polygon fill="#6560ad" points="232.745 183.609 232.74 185.313 189.199 210.616 189.204 208.912" class="color60ad88 svgShape"></polygon></g><g fill="#010001" class="color000000 svgShape"><polygon fill="#7873bc" points="189.204 208.912 189.199 210.616 167.954 198.35 167.959 196.646" class="color73bc9c svgShape"></polygon></g><g fill="#010001" class="color000000 svgShape"><polygon fill="#8cadcf" points="232.745 179.779 189.204 205.082 167.959 192.816 211.491 167.518" class="color8ccfb1 svgShape"></polygon></g><g fill="#010001" class="color000000 svgShape"><g fill="#010001" class="color000000 svgShape"><path fill="#6560ad" d="M225.829,178.068c-1.627,0.945-1.61,2.482,0.028,3.427l-16.854,9.794
				c4.023-2.338,3.415-6.49-1.347-9.239c-4.762-2.749-11.923-3.083-15.946-0.745l16.854-9.794c1.638,0.946,4.282,0.945,5.908,0
				L225.829,178.068z M215.473,180.632l0.752-0.437l-0.596-0.344c0.529-0.462,0.517-1.033-0.07-1.372
				c-0.694-0.401-1.936-0.329-2.785,0.165c-0.407,0.236-1.001,0.314-1.268,0.159c-0.267-0.154-0.136-0.499,0.271-0.735
				c0.415-0.241,1.01-0.319,1.277-0.165l0.752-0.437c-0.587-0.339-1.572-0.344-2.369-0.036l-0.596-0.344l-0.752,0.437l0.596,0.344
				c-0.53,0.463-0.518,1.033,0.07,1.372c0.694,0.401,1.936,0.329,2.776-0.159c0.415-0.241,1.009-0.319,1.277-0.164
				c0.267,0.154,0.136,0.498-0.28,0.74c-0.407,0.236-1.001,0.314-1.268,0.16l-0.751,0.436c0.588,0.339,1.572,0.344,2.369,0.036
				L215.473,180.632" class="color60ad88 svgShape"></path></g><g fill="#010001" class="color000000 svgShape"><path fill="#6560ad" d="M193.039,190.544c4.762,2.749,11.932,3.088,15.964,0.745l-16.863,9.799
				c-1.638-0.946-4.29-0.951-5.917-0.005l-11.357-6.557c1.627-0.946,1.618-2.477-0.019-3.422l16.863-9.8
				C187.678,183.648,188.278,187.795,193.039,190.544z M189.865,195.513l0.752-0.437l-0.596-0.344
				c0.53-0.462,0.526-1.038-0.061-1.377c-0.694-0.401-1.945-0.324-2.785,0.165c-0.415,0.241-1.01,0.319-1.277,0.164
				c-0.267-0.154-0.136-0.499,0.28-0.74c0.407-0.236,1.001-0.314,1.268-0.16l0.76-0.442c-0.587-0.339-1.581-0.339-2.377-0.031
				l-0.596-0.344l-0.752,0.437l0.596,0.344c-0.53,0.463-0.518,1.033,0.07,1.372c0.694,0.401,1.936,0.329,2.784-0.164
				c0.407-0.236,1.001-0.314,1.268-0.159c0.267,0.154,0.136,0.498-0.271,0.735c-0.415,0.241-1.009,0.319-1.276,0.164l-0.751,0.437
				c0.587,0.339,1.572,0.344,2.369,0.036L189.865,195.513" class="color60ad88 svgShape"></path></g><g fill="#010001" class="color000000 svgShape"><path fill="#6560ad" d="M205.147,185.539c1.166,0.673,1.163,1.809,0.122,2.734l1.184,0.683l-1.494,0.868l-1.184-0.683
				c-1.593,0.606-3.545,0.606-4.711-0.067l1.494-0.868c0.525,0.303,1.713,0.149,2.535-0.329c0.822-0.478,1.076-1.161,0.551-1.464
				c-0.534-0.308-1.713-0.159-2.535,0.318c-1.68,0.976-4.163,1.12-5.543,0.324c-1.175-0.678-1.172-1.804-0.131-2.729l-1.193-0.689
				l1.494-0.868l1.193,0.689c1.594-0.607,3.536-0.612,4.711,0.067l-1.494,0.868c-0.534-0.308-1.713-0.159-2.535,0.319
				c-0.822,0.478-1.085,1.167-0.551,1.475c0.525,0.303,1.713,0.149,2.536-0.329C201.267,184.886,203.768,184.742,205.147,185.539z" class="color60ad88 svgShape"></path></g></g><g fill="#010001" class="color000000 svgShape"><polygon fill="#6560ad" points="232.745 179.779 232.74 181.483 189.199 206.786 189.204 205.082" class="color60ad88 svgShape"></polygon></g><g fill="#010001" class="color000000 svgShape"><polygon fill="#7873bc" points="189.204 205.082 189.199 206.786 167.954 194.52 167.959 192.816" class="color73bc9c svgShape"></polygon></g><polygon fill="#f4f6f8" points="182.138 115.437 127.381 147.257 168.195 170.821 222.952 139.001" class="coloreaeffa svgShape"></polygon><g fill="#010001" class="color000000 svgShape"><polygon fill="#d0d6dd" points="168.195 170.82 127.388 147.26 127.375 147.26 127.375 149.193 168.193 172.757 222.951 140.949 222.951 139.001" class="colord0d5dd svgShape"></polygon></g><polygon fill="#f4f6f8" points="180.79 115.712 130.527 144.922 168.195 166.67 218.458 137.46" class="coloreaeffa svgShape"></polygon><g fill="#010001" class="color000000 svgShape"><polygon fill="#d0d6dd" points="168.195 166.67 130.533 144.925 130.52 144.925 130.52 146.859 168.193 168.606 218.457 139.408 218.457 137.461" class="colord0d5dd svgShape"></polygon></g><g fill="#010001" class="color000000 svgShape"><g fill="#010001" class="color000000 svgShape"><g fill="#010001" class="color000000 svgShape"><polygon fill="#d0d6dd" points="213.754 109.804 213.636 137.065 178.427 157.526 178.544 123.289" class="colord0d5dd svgShape"></polygon></g><g fill="#010001" class="color000000 svgShape"><polygon fill="#f4f6f8" points="178.544 123.289 178.427 157.526 146.773 139.251 146.89 110.912" class="colord9dfe8 svgShape"></polygon></g><g fill="#010001" class="color000000 svgShape"><polygon fill="#8982ed" points="149.17 114.028 149.17 140.634 173.922 154.926 174.014 128.083" class="color8294ed svgShape"></polygon></g></g></g><polygon fill="#f4f6f8" points="150.007 141.118 137.015 148.668 160.931 162.476 173.922 154.926" class="colord9dfe8 svgShape"></polygon><g fill="#010001" class="color000000 svgShape"><g fill="#010001" class="color000000 svgShape"><g fill="#010001" class="color000000 svgShape"><path fill="#f4f6f8" d="M137.884,143.311l2.106-1.224c0.085-0.049,0.202-0.042,0.329,0.032l-2.106,1.224
					C138.085,143.269,137.968,143.262,137.884,143.311z" class="coloreaeffa svgShape"></path></g><g fill="#010001" class="color000000 svgShape"><polygon fill="#f4f6f8" points="138.213 143.343 140.319 142.119 140.563 142.26 138.457 143.484" class="coloreaeffa svgShape"></polygon></g><g fill="#010001" class="color000000 svgShape"><polygon fill="#f4f6f8" points="139.124 143.869 141.231 142.645 141.707 142.921 139.601 144.145" class="coloreaeffa svgShape"></polygon></g><g fill="#010001" class="color000000 svgShape"><polygon fill="#f4f6f8" points="140.269 144.53 142.375 143.306 142.848 143.579 140.741 144.803" class="coloreaeffa svgShape"></polygon></g><g fill="#010001" class="color000000 svgShape"><polygon fill="#f4f6f8" points="141.409 145.188 143.515 143.964 143.759 144.105 141.652 145.329" class="coloreaeffa svgShape"></polygon></g><g fill="#010001" class="color000000 svgShape"><polygon fill="#f4f6f8" points="142.118 146.13 144.225 144.906 144.221 146.036 142.115 147.26" class="coloreaeffa svgShape"></polygon></g><g fill="#010001" class="color000000 svgShape"><path fill="#f4f6f8" d="M141.652,145.329l2.106-1.224c0.258,0.149,0.467,0.505,0.466,0.802l-2.106,1.224
					C142.119,145.834,141.91,145.477,141.652,145.329z" class="coloreaeffa svgShape"></path></g><g fill="#010001" class="color000000 svgShape"><polygon fill="#f4f6f8" points="139.178 124.828 141.284 123.604 141.231 142.645 139.124 143.869" class="coloreaeffa svgShape"></polygon></g><g fill="#010001" class="color000000 svgShape"><polygon fill="#f4f6f8" points="140.323 125.489 142.429 124.265 142.375 143.306 140.269 144.53" class="coloreaeffa svgShape"></polygon></g><g fill="#010001" class="color000000 svgShape"><polygon fill="#f4f6f8" points="141.463 126.147 143.569 124.923 143.515 143.964 141.409 145.188" class="coloreaeffa svgShape"></polygon></g><g fill="#010001" class="color000000 svgShape"><path fill="#f4f6f8" d="M144.145,125.096l-2.106,1.224c0.084-0.049,0.136-0.152,0.137-0.299l2.106-1.224
					C144.281,124.944,144.229,125.047,144.145,125.096z" class="coloreaeffa svgShape"></path></g><g fill="#010001" class="color000000 svgShape"><polygon fill="#f4f6f8" points="142.179 124.892 144.285 123.668 144.282 124.797 142.175 126.021" class="coloreaeffa svgShape"></polygon></g><g fill="#010001" class="color000000 svgShape"><path fill="#d0d6dd" d="M141.706,126.288l-0.243-0.14l-0.054,19.041l0.243,0.14c0.258,0.149,0.467,0.505,0.466,0.802
					l-0.003,1.129l-4.369-2.523l0.003-1.129c0.001-0.296,0.211-0.411,0.464-0.265l0.243,0.141l0.054-19.041l-0.243-0.14
					c-0.253-0.146-0.462-0.508-0.461-0.804l0.003-1.129l4.369,2.523l-0.003,1.129C142.175,126.316,141.964,126.436,141.706,126.288z
					 M139.601,144.145l0.054-19.041l-0.477-0.275l-0.054,19.041L139.601,144.145 M140.741,144.803l0.054-19.041l-0.472-0.273
					l-0.054,19.041L140.741,144.803" class="colord0d5dd svgShape"></path></g></g><g fill="#010001" class="color000000 svgShape"><g fill="#010001" class="color000000 svgShape"><path fill="#f4f6f8" d="M144.351,147.047l2.106-1.224c0.085-0.049,0.204-0.042,0.335,0.034l-2.106,1.224
					C144.555,147.005,144.437,146.997,144.351,147.047z" class="coloreaeffa svgShape"></path></g><g fill="#010001" class="color000000 svgShape"><polygon fill="#f4f6f8" points="144.686 147.08 146.792 145.856 147.031 145.994 144.925 147.218" class="coloreaeffa svgShape"></polygon></g><g fill="#010001" class="color000000 svgShape"><polygon fill="#f4f6f8" points="145.592 147.604 147.699 146.38 148.176 146.655 146.069 147.879" class="coloreaeffa svgShape"></polygon></g><g fill="#010001" class="color000000 svgShape"><polygon fill="#f4f6f8" points="146.737 148.264 148.843 147.04 149.316 147.313 147.209 148.537" class="coloreaeffa svgShape"></polygon></g><g fill="#010001" class="color000000 svgShape"><polygon fill="#f4f6f8" points="147.882 148.925 149.988 147.701 150.227 147.839 148.12 149.063" class="coloreaeffa svgShape"></polygon></g><g fill="#010001" class="color000000 svgShape"><polygon fill="#f4f6f8" points="148.586 149.865 150.693 148.641 150.689 149.77 148.583 150.994" class="coloreaeffa svgShape"></polygon></g><g fill="#010001" class="color000000 svgShape"><path fill="#f4f6f8" d="M148.12,149.063l2.106-1.224c0.258,0.149,0.467,0.505,0.466,0.802l-2.106,1.224
					C148.587,149.568,148.378,149.212,148.12,149.063z" class="coloreaeffa svgShape"></path></g><g fill="#010001" class="color000000 svgShape"><polygon fill="#f4f6f8" points="145.646 128.563 147.753 127.339 147.699 146.38 145.592 147.604" class="coloreaeffa svgShape"></polygon></g><g fill="#010001" class="color000000 svgShape"><polygon fill="#f4f6f8" points="146.791 129.223 148.897 127.999 148.843 147.04 146.737 148.264" class="coloreaeffa svgShape"></polygon></g><g fill="#010001" class="color000000 svgShape"><polygon fill="#f4f6f8" points="147.936 129.884 150.042 128.66 149.988 147.701 147.882 148.925" class="coloreaeffa svgShape"></polygon></g><g fill="#010001" class="color000000 svgShape"><path fill="#f4f6f8" d="M150.613,128.83l-2.106,1.224c0.084-0.049,0.136-0.152,0.137-0.299l2.106-1.224
					C150.749,128.678,150.697,128.781,150.613,128.83z" class="coloreaeffa svgShape"></path></g><g fill="#010001" class="color000000 svgShape"><polygon fill="#f4f6f8" points="148.647 128.626 150.753 127.402 150.75 128.531 148.643 129.755" class="coloreaeffa svgShape"></polygon></g><g fill="#010001" class="color000000 svgShape"><path fill="#d0d6dd" d="M148.174,130.022l-0.238-0.138l-0.054,19.041l0.238,0.138c0.258,0.149,0.467,0.505,0.466,0.802
					l-0.003,1.129l-4.369-2.523l0.003-1.129c0.001-0.296,0.211-0.411,0.469-0.262l0.238,0.138l0.054-19.041l-0.238-0.138
					c-0.258-0.149-0.467-0.511-0.466-0.807l0.003-1.129l4.369,2.523l-0.003,1.129C148.642,130.051,148.432,130.171,148.174,130.022z
					 M146.069,147.879l0.054-19.041l-0.477-0.275l-0.054,19.041L146.069,147.879 M147.209,148.537l0.054-19.041l-0.472-0.273
					l-0.054,19.041L147.209,148.537" class="colord0d5dd svgShape"></path></g></g><g fill="#010001" class="color000000 svgShape"><g fill="#010001" class="color000000 svgShape"><path fill="#f4f6f8" d="M158.326,155.112l2.106-1.224c0.084-0.049,0.2-0.041,0.33,0.034l-2.106,1.224
					C158.526,155.071,158.41,155.063,158.326,155.112z" class="coloreaeffa svgShape"></path></g><g fill="#010001" class="color000000 svgShape"><polygon fill="#f4f6f8" points="158.656 155.146 160.762 153.922 161.005 154.062 158.899 155.286" class="coloreaeffa svgShape"></polygon></g><g fill="#010001" class="color000000 svgShape"><polygon fill="#f4f6f8" points="159.567 155.672 161.673 154.448 162.145 154.72 160.039 155.944" class="coloreaeffa svgShape"></polygon></g><g fill="#010001" class="color000000 svgShape"><polygon fill="#f4f6f8" points="160.712 156.333 162.818 155.109 163.29 155.381 161.184 156.605" class="coloreaeffa svgShape"></polygon></g><g fill="#010001" class="color000000 svgShape"><polygon fill="#f4f6f8" points="162.556 157.93 164.662 156.706 164.659 157.835 162.553 159.059" class="coloreaeffa svgShape"></polygon></g><g fill="#010001" class="color000000 svgShape"><polygon fill="#f4f6f8" points="161.852 156.991 163.958 155.767 164.201 155.907 162.095 157.131" class="coloreaeffa svgShape"></polygon></g><g fill="#010001" class="color000000 svgShape"><path fill="#f4f6f8" d="M162.095,157.131l2.106-1.224c0.258,0.149,0.462,0.503,0.461,0.799l-2.106,1.224
					C162.557,157.634,162.352,157.28,162.095,157.131z" class="coloreaeffa svgShape"></path></g><g fill="#010001" class="color000000 svgShape"><polygon fill="#f4f6f8" points="159.621 136.631 161.727 135.407 161.673 154.448 159.567 155.672" class="coloreaeffa svgShape"></polygon></g><g fill="#010001" class="color000000 svgShape"><polygon fill="#f4f6f8" points="160.766 137.292 162.872 136.068 162.818 155.109 160.712 156.333" class="coloreaeffa svgShape"></polygon></g><g fill="#010001" class="color000000 svgShape"><polygon fill="#f4f6f8" points="161.906 137.95 164.012 136.726 163.958 155.767 161.852 156.991" class="coloreaeffa svgShape"></polygon></g><g fill="#010001" class="color000000 svgShape"><path fill="#f4f6f8" d="M164.583,136.898l-2.106,1.224c0.084-0.049,0.136-0.154,0.137-0.302l2.106-1.224
					C164.719,136.745,164.667,136.849,164.583,136.898z" class="coloreaeffa svgShape"></path></g><g fill="#010001" class="color000000 svgShape"><polygon fill="#f4f6f8" points="162.616 136.691 164.722 135.467 164.719 136.596 162.613 137.82" class="coloreaeffa svgShape"></polygon></g><g fill="#010001" class="color000000 svgShape"><path fill="#d0d6dd" d="M162.149,138.09l-0.243-0.14l-0.054,19.041l0.243,0.14c0.258,0.149,0.462,0.503,0.461,0.799
					l-0.003,1.129l-4.365-2.52l0.003-1.129c0.001-0.296,0.207-0.413,0.464-0.264l0.243,0.14l0.054-19.041l-0.243-0.14
					c-0.258-0.149-0.462-0.508-0.461-0.804l0.003-1.129l4.365,2.52l-0.003,1.129C162.612,138.116,162.406,138.239,162.149,138.09z
					 M161.184,156.605l0.054-19.041l-0.472-0.273l-0.054,19.041L161.184,156.605 M160.039,155.944l0.054-19.041l-0.472-0.273
					l-0.054,19.041L160.039,155.944" class="colord0d5dd svgShape"></path></g></g><g fill="#010001" class="color000000 svgShape"><g fill="#010001" class="color000000 svgShape"><path fill="#f4f6f8" d="M164.794,158.849l2.106-1.224c0.085-0.05,0.204-0.042,0.335,0.034l-2.106,1.224
					C164.998,158.807,164.879,158.799,164.794,158.849z" class="coloreaeffa svgShape"></path></g><g fill="#010001" class="color000000 svgShape"><polygon fill="#f4f6f8" points="165.128 158.883 167.235 157.659 167.473 157.796 165.367 159.02" class="coloreaeffa svgShape"></polygon></g><g fill="#010001" class="color000000 svgShape"><polygon fill="#f4f6f8" points="166.035 159.406 168.141 158.182 168.618 158.457 166.512 159.681" class="coloreaeffa svgShape"></polygon></g><g fill="#010001" class="color000000 svgShape"><polygon fill="#f4f6f8" points="167.18 160.067 169.286 158.843 169.758 159.116 167.652 160.339" class="coloreaeffa svgShape"></polygon></g><g fill="#010001" class="color000000 svgShape"><polygon fill="#f4f6f8" points="168.324 160.728 170.43 159.504 170.669 159.641 168.563 160.865" class="coloreaeffa svgShape"></polygon></g><g fill="#010001" class="color000000 svgShape"><polygon fill="#f4f6f8" points="169.029 161.667 171.135 160.443 171.132 161.572 169.026 162.796" class="coloreaeffa svgShape"></polygon></g><g fill="#010001" class="color000000 svgShape"><path fill="#f4f6f8" d="M168.563,160.865l2.106-1.224c0.258,0.149,0.467,0.505,0.466,0.802l-2.106,1.224
					C169.03,161.371,168.82,161.014,168.563,160.865z" class="coloreaeffa svgShape"></path></g><g fill="#010001" class="color000000 svgShape"><polygon fill="#f4f6f8" points="166.089 140.365 168.195 139.141 168.141 158.182 166.035 159.406" class="coloreaeffa svgShape"></polygon></g><g fill="#010001" class="color000000 svgShape"><polygon fill="#f4f6f8" points="167.233 141.026 169.34 139.802 169.286 158.843 167.18 160.067" class="coloreaeffa svgShape"></polygon></g><g fill="#010001" class="color000000 svgShape"><polygon fill="#f4f6f8" points="168.378 141.687 170.484 140.463 170.43 159.504 168.324 160.728" class="coloreaeffa svgShape"></polygon></g><g fill="#010001" class="color000000 svgShape"><path fill="#f4f6f8" d="M171.055,140.633l-2.106,1.224c0.084-0.049,0.136-0.152,0.136-0.299l2.106-1.224
					C171.192,140.48,171.139,140.584,171.055,140.633z" class="coloreaeffa svgShape"></path></g><g fill="#010001" class="color000000 svgShape"><polygon fill="#f4f6f8" points="169.089 140.428 171.195 139.204 171.192 140.333 169.086 141.557" class="coloreaeffa svgShape"></polygon></g><g fill="#010001" class="color000000 svgShape"><path fill="#d0d6dd" d="M168.617,141.824l-0.238-0.138l-0.054,19.041l0.238,0.138c0.258,0.149,0.467,0.505,0.466,0.802
					l-0.003,1.129l-4.369-2.523l0.003-1.129c0.001-0.296,0.211-0.411,0.469-0.262l0.239,0.138l0.054-19.041l-0.239-0.138
					c-0.258-0.149-0.467-0.511-0.466-0.807l0.003-1.129l4.369,2.523l-0.003,1.129C169.085,141.853,168.874,141.973,168.617,141.824z
					 M166.512,159.681l0.054-19.041l-0.477-0.275l-0.054,19.041L166.512,159.681 M167.652,160.339l0.054-19.041l-0.472-0.273
					l-0.054,19.041L167.652,160.339" class="colord0d5dd svgShape"></path></g></g></g><g fill="#010001" class="color000000 svgShape"><g fill="#010001" class="color000000 svgShape"><g fill="#010001" class="color000000 svgShape"><polygon fill="#83baf2" points="135.479 119.499 183.596 91.537 183.587 94.93 135.47 122.893" class="colorf283b5 svgShape"></polygon></g><g fill="#010001" class="color000000 svgShape"><polygon fill="#f4f6f8" points="135.479 119.508 183.596 91.545 199.44 87.192 151.323 115.155" class="coloreaeffa svgShape"></polygon></g><g fill="#010001" class="color000000 svgShape"><polygon fill="#a50b89" points="133.175 116.829 181.292 88.866 199.45 83.887 151.332 111.849" class="colore576ad svgShape"></polygon></g><g fill="#010001" class="color000000 svgShape"><polygon fill="#f4f6f8" points="151.323 115.155 199.44 87.192 215.208 109.796 167.09 137.758" class="coloreaeffa svgShape"></polygon></g><g fill="#010001" class="color000000 svgShape"><polygon fill="#f4f6f8" points="151.323 115.155 167.09 137.758 167.086 139.272 135.475 121.021 135.479 119.508" class="coloreaeffa svgShape"></polygon></g><g fill="#010001" class="color000000 svgShape"><polygon fill="#f4f6f8" points="167.09 137.758 215.208 109.796 215.203 111.309 167.086 139.272" class="coloreaeffa svgShape"></polygon></g><g fill="#010001" class="color000000 svgShape"><polygon fill="#83baf2" points="151.332 111.849 199.45 83.887 217.527 109.786 169.41 137.749" class="colorf283b5 svgShape"></polygon></g><g fill="#010001" class="color000000 svgShape"><polygon fill="#a50b89" points="169.41 137.749 217.527 109.786 217.513 114.518 169.396 142.48" class="colore576ad svgShape"></polygon></g></g></g><g fill="#010001" class="color000000 svgShape"><polygon fill="#93c8fd" points="151.332 111.849 169.41 137.749 169.396 142.48 167.081 141.144 167.086 139.272 167.09 137.758 151.323 115.155 135.479 119.499 135.47 122.893 133.161 121.56 133.175 116.829" class="colorfd93bf svgShape"></polygon></g><polygon fill="#d0d6dd" points="128.685 129.637 128.67 132.135 85.767 157.067 85.783 154.569" class="colord0d5dd svgShape"></polygon><polygon fill="#f4f6f8" points="85.783 154.569 85.767 157.067 55.82 139.777 55.836 137.279" class="colord9dfe8 svgShape"></polygon><polygon fill="#f4f6f8" points="128.685 129.637 85.783 154.569 55.836 137.279 98.738 112.347" class="coloreaeffa svgShape"></polygon><polygon fill="#5046e4" points="98.571 117.038 96.881 118.021 95.179 117.038 96.87 116.056" class="color3f528c svgShape"></polygon><polygon fill="#5046e4" points="120.174 129.511 118.484 130.493 100.421 120.064 102.111 119.082" class="color3f528c svgShape"></polygon><polygon fill="#5046e4" points="94.489 119.411 92.784 120.402 91.082 119.419 92.787 118.428" class="color3f528c svgShape"></polygon><polygon fill="#5046e4" points="98.321 135.829 96.631 136.811 84.076 129.563 85.766 128.58" class="color3f528c svgShape"></polygon><path fill="#5046e4" d="M94.687,145.434l0.072,0.058l-0.071,0.075c-0.646,0.125-1.35,0.167-2.011,0.2
		c-3.391,0.167-6.897,0.333-10.346,0.25c-0.747-0.017-1.524-0.05-2.201-0.224l-0.043-0.009l-0.029-0.083l0.158-0.025
		c0.662,0.167,1.395,0.191,2.113,0.208c3.45,0.083,6.956-0.083,10.318-0.25c0.56-0.025,1.135-0.058,1.68-0.141
		c-0.979-0.216-2.056-0.308-3.077-0.4c-0.561-0.041-1.165-0.091-1.74-0.158c-0.558-0.071-1.206-0.179-1.653-0.437
		c-0.026-0.015-0.05-0.03-0.075-0.046c-0.158-0.108-0.246-0.225-0.275-0.341l0.085-0.266c0.128-0.208,0.343-0.4,0.586-0.575
		c-1.809,0.4-3.401,0.891-4.936,1.365l-0.144-0.016l-0.015-0.075l0.2-0.2l-0.359,0.041l-0.101-0.041l0.043-0.075
		c0.186-0.091,0.472-0.375,0.543-0.533l-0.358,0.141c-0.473,0.208-1.033,0.433-1.405,0.566l-0.13-0.008l-0.043-0.075l0.07-0.241
		l0.028-0.1l-0.129,0.058c-0.531,0.242-1.133,0.525-1.794,0.625c-0.377,0.059-0.811,0.045-1.037-0.085
		c-0.057-0.033-0.102-0.074-0.128-0.123c-0.131-0.258,0.299-0.475,0.457-0.55c0.444-0.208,0.931-0.457,1.535-0.574
		c0.243-0.041,0.488-0.067,0.718-0.083c0.272-0.025,0.531-0.042,0.761-0.091c0.517-0.117,0.947-0.35,1.333-0.574
		c0.717-0.416,1.418-0.874,1.875-1.424c0.114-0.15,0.257-0.35,0.198-0.549c-0.024-0.088-0.102-0.18-0.217-0.247
		c-0.093-0.054-0.211-0.09-0.345-0.094c-0.33-0.025-0.602,0.166-0.831,0.333c-1.145,0.832-2.42,1.606-3.795,2.322
		c-0.401,0.217-0.817,0.408-1.319,0.5c-1.163,0.225-2.358-0.183-3.381-0.574l-0.015-0.091l0.144-0.017
		c0.979,0.383,2.102,0.766,3.179,0.558c0.459-0.083,0.847-0.275,1.248-0.475c1.361-0.708,2.636-1.482,3.767-2.306
		c0.257-0.2,0.573-0.399,1.018-0.391c0.195,0.007,0.36,0.059,0.488,0.133c0.156,0.09,0.258,0.214,0.291,0.333
		c0.059,0.233-0.084,0.45-0.227,0.616c-0.442,0.574-1.187,1.041-1.918,1.465c-0.415,0.241-0.845,0.491-1.404,0.599
		c-0.273,0.059-0.546,0.084-0.804,0.1c-0.229,0.033-0.46,0.05-0.69,0.083c-0.56,0.108-1.032,0.349-1.463,0.549
		c-0.33,0.158-0.444,0.291-0.385,0.408c0.016,0.031,0.043,0.055,0.078,0.076c0.186,0.107,0.596,0.083,0.813,0.041
		c0.603-0.083,1.177-0.35,1.707-0.591l0.373-0.167l0.129-0.008l0.044,0.075l-0.071,0.258l-0.028,0.116
		c0.344-0.133,0.803-0.316,1.176-0.483c0.187-0.075,0.372-0.15,0.516-0.216l0.101-0.008l0.072,0.042
		c0.13,0.158-0.141,0.45-0.37,0.633l0.287-0.1l0.158-0.008l0.015,0.091l-0.2,0.2c1.55-0.467,3.156-0.949,4.994-1.332l0.144,0.017
		l-0.014,0.075c-0.329,0.224-0.644,0.458-0.829,0.732l-0.071,0.208l0.232,0.266c0.013,0.008,0.027,0.016,0.04,0.024
		c0.417,0.241,1.014,0.344,1.572,0.409c0.561,0.075,1.15,0.117,1.711,0.175C92.415,145.067,93.608,145.159,94.687,145.434z" class="color3f528c svgShape"></path><polygon fill="#5046e4" points="107.912 136.637 106.221 137.619 88.159 127.19 89.849 126.208" class="color3f528c svgShape"></polygon><polygon fill="#5046e4" points="105.43 130.457 103.725 131.448 92.241 124.818 93.946 123.827" class="color3f528c svgShape"></polygon><polygon fill="#5046e4" points="116.091 131.883 114.386 132.874 96.323 122.445 98.029 121.454" class="color3f528c svgShape"></polygon><polygon fill="#5046e4" points="90.406 121.783 88.701 122.774 87 121.792 88.705 120.801" class="color3f528c svgShape"></polygon><polygon fill="#5046e4" points="86.309 124.164 84.619 125.146 82.917 124.164 84.608 123.182" class="color3f528c svgShape"></polygon><polygon fill="#5046e4" points="82.227 126.537 80.536 127.519 78.835 126.537 80.525 125.554" class="color3f528c svgShape"></polygon><path fill="#83baf2" d="M76.921,133.696c2.869,1.657,2.899,4.362,0.034,6.027c-2.865,1.665-7.535,1.656-10.405,0
		c-2.884-1.665-2.899-4.362-0.034-6.027C69.381,132.031,74.037,132.031,76.921,133.696z M67.48,139.182
		c2.35,1.357,6.187,1.365,8.537,0c2.349-1.365,2.323-3.588-0.027-4.945c-2.365-1.365-6.188-1.365-8.537,0
		C65.103,135.602,65.116,137.816,67.48,139.182" class="colorf283b5 svgShape"></path><path fill="#83baf2" d="M74.757,134.953c1.673,0.966,1.667,2.539,0.006,3.505c-1.662,0.966-4.378,0.974-6.05,0.008
		c-1.687-0.974-1.681-2.547-0.02-3.513C70.354,133.987,73.07,133.979,74.757,134.953z M69.643,137.925
		c1.153,0.666,3.036,0.658,4.182-0.008c1.146-0.666,1.154-1.756,0.001-2.422c-1.168-0.674-3.05-0.666-4.197,0
		C68.484,136.16,68.475,137.251,69.643,137.925" class="colorf283b5 svgShape"></path><path fill="#5046e4" d="M273.839,164.589l-2.67,1.552c-0.433,0.251-1.031,0.218-1.693-0.164l2.67-1.552
		C272.807,164.807,273.406,164.84,273.839,164.589z" class="color3f528c svgShape"></path><path fill="#632363" d="M267.809,160.342l2.67-1.552c-0.427,0.248-0.695,0.775-0.697,1.528
		c-0.004,1.501,1.069,3.359,2.363,4.106l-2.67,1.552c-1.294-0.747-2.367-2.605-2.363-4.106
		C267.115,161.117,267.382,160.59,267.809,160.342z" class="color233163 svgShape"></path><path fill="#5046e4" d="M248.33,149.865l-2.67,1.552c-0.431,0.25-1.025,0.218-1.68-0.16l2.67-1.552
		C247.304,150.083,247.899,150.115,248.33,149.865z" class="color3f528c svgShape"></path><path fill="#632363" d="M242.313,145.618l2.67-1.552c-0.428,0.249-0.693,0.778-0.696,1.532
		c-0.004,1.501,1.057,3.352,2.363,4.106l-2.67,1.552c-1.306-0.754-2.367-2.605-2.363-4.106
		C241.619,146.396,241.885,145.866,242.313,145.618z" class="color233163 svgShape"></path><path fill="#938cf7" d="M280.801,171.391l-0.076,31.577c0,0.853-0.303,1.44-0.796,1.724l-2.671,1.553
		c0.493-0.284,0.796-0.871,0.796-1.723l0.076-31.577L280.801,171.391z" class="color8ca8f7 svgShape"></path><path fill="#8982ed" d="M278.129,172.95l-0.08,31.57c-0.005,1.709-1.206,2.394-2.694,1.535l-37.444-21.618
		c-1.476-0.852-2.681-2.926-2.676-4.635l0.08-31.57L278.129,172.95z" class="color8294ed svgShape"></path><path fill="#312d74" d="M275.471,161.963c1.488,0.859,2.681,2.94,2.676,4.635l-0.018,6.352l-42.814-24.719l0.018-6.352
		c0.005-1.696,1.218-2.387,2.694-1.535L275.471,161.963z M269.475,165.976c1.318,0.761,2.386,0.139,2.39-1.362
		c0.004-1.515-1.057-3.352-2.375-4.113c-1.294-0.747-2.374-0.146-2.378,1.369C267.108,163.371,268.181,165.229,269.475,165.976
		 M243.98,151.257c1.306,0.754,2.374,0.132,2.378-1.369c0.004-1.515-1.057-3.352-2.363-4.106c-1.306-0.754-2.374-0.146-2.378,1.369
		C241.613,148.651,242.674,150.502,243.98,151.257" class="color2d3a74 svgShape"></path><path fill="#5046e4" d="M280.82,165.044l-0.019,6.346l-2.671,1.553l0.019-6.346c0-1.685-1.193-3.769-2.671-4.641
		l-37.45-21.614c-0.739-0.436-1.421-0.474-1.913-0.19l2.671-1.535c0.493-0.284,1.175-0.246,1.913,0.171l37.45,21.613
		C279.627,161.275,280.82,163.358,280.82,165.044z" class="color3f528c svgShape"></path><polygon fill="#ffffff" points="275.697 174.346 275.633 203.417 237.643 181.492 237.708 152.422" class="colorffffff svgShape"></polygon><path fill="#f4f6f8" d="M265.817 177.179c.344.199.63.694.629 1.103l-.009 3.086c-.001.396-.289.56-.633.361l-3.34-1.929c-.356-.205-.63-.694-.629-1.09l.009-3.086c.001-.409.278-.579.633-.374L265.817 177.179zM265.835 170.914c.344.199.63.694.629 1.103l-.009 3.073c-.001.409-.289.574-.634.375l-3.34-1.929c-.356-.205-.63-.694-.629-1.104l.009-3.073c.001-.409.277-.579.633-.374L265.835 170.914z" class="colord9dfe8 svgShape"></path><path fill="#a50b89" d="M273.273,175.208c0.356,0.205,0.642,0.7,0.641,1.11l-0.009,3.073
		c-0.001,0.409-0.289,0.574-0.645,0.368l-3.329-1.922c-0.356-0.206-0.642-0.701-0.641-1.11l0.009-3.073
		c0.001-0.409,0.289-0.573,0.645-0.367L273.273,175.208z" class="colore576ad svgShape"></path><g fill="#010001" class="color000000 svgShape"><path fill="#f4f6f8" d="M243.45,170.554c0.356,0.205,0.642,0.701,0.641,1.097l-0.009,3.086
			c-0.001,0.409-0.289,0.574-0.645,0.368l-3.329-1.922c-0.356-0.206-0.642-0.701-0.641-1.11l0.009-3.086
			c0.001-0.396,0.289-0.56,0.645-0.355L243.45,170.554z" class="colord9dfe8 svgShape"></path></g><g fill="#010001" class="color000000 svgShape"><path fill="#f4f6f8" d="M243.468,164.276c0.356,0.206,0.642,0.701,0.641,1.11l-0.009,3.086
			c-0.001,0.396-0.289,0.56-0.645,0.355l-3.329-1.922c-0.356-0.205-0.642-0.701-0.641-1.097l0.009-3.086
			c0.001-0.409,0.289-0.573,0.645-0.367L243.468,164.276z" class="colord9dfe8 svgShape"></path></g><path fill="#938cf7" d="M250.918,168.577c0.356,0.205,0.642,0.701,0.641,1.11l-0.009,3.086
		c-0.001,0.396-0.289,0.56-0.645,0.354l-3.329-1.922c-0.356-0.205-0.642-0.701-0.641-1.097l0.009-3.086
		c0.001-0.409,0.289-0.573,0.645-0.367L250.918,168.577z" class="color8ca8f7 svgShape"></path><path fill="#f4f6f8" d="M258.332 185.421c.356.205.63.694.629 1.103l-.009 3.073c-.001.409-.277.58-.633.374l-3.34-1.928c-.344-.199-.63-.694-.629-1.103l.009-3.073c.001-.409.289-.573.633-.374L258.332 185.421zM258.349 179.156c.356.205.63.694.629 1.09l-.009 3.086c-.001.409-.278.58-.633.375l-3.34-1.928c-.344-.199-.63-.694-.629-1.104l.009-3.086c.001-.396.289-.56.633-.361L258.349 179.156zM258.367 172.878c.356.205.63.694.629 1.103l-.009 3.086c-.001.396-.278.567-.633.361l-3.34-1.929c-.344-.199-.63-.694-.629-1.09l.009-3.086c.001-.409.289-.573.633-.374L258.367 172.878z" class="colord9dfe8 svgShape"></path><path fill="#a50b89" d="M273.255,181.473c0.356,0.205,0.642,0.701,0.641,1.11l-0.009,3.086
		c-0.001,0.396-0.289,0.56-0.645,0.354l-3.329-1.922c-0.356-0.206-0.642-0.701-0.641-1.097l0.009-3.086
		c0.001-0.409,0.289-0.573,0.645-0.367L273.255,181.473z" class="colore576ad svgShape"></path><path fill="#938cf7" d="M250.9,174.855c0.356,0.206,0.642,0.701,0.641,1.097l-0.009,3.086
		c-0.001,0.409-0.289,0.574-0.645,0.368l-3.329-1.922c-0.356-0.205-0.642-0.701-0.641-1.11l0.009-3.086
		c0.001-0.396,0.289-0.56,0.645-0.355L250.9,174.855z" class="color8ca8f7 svgShape"></path><path fill="#f4f6f8" d="M265.799,183.457c0.344,0.199,0.63,0.694,0.629,1.09l-0.009,3.086
		c-0.001,0.409-0.289,0.574-0.633,0.375l-3.34-1.929c-0.356-0.205-0.63-0.694-0.629-1.104l0.009-3.086
		c0.001-0.396,0.278-0.567,0.633-0.361L265.799,183.457z" class="colord9dfe8 svgShape"></path><path fill="#a50b89" d="M273.237,187.751c0.356,0.205,0.642,0.701,0.641,1.097l-0.009,3.086
		c-0.001,0.409-0.289,0.574-0.645,0.368l-3.329-1.922c-0.356-0.206-0.642-0.701-0.641-1.11l0.009-3.086
		c0.001-0.396,0.289-0.56,0.645-0.355L273.237,187.751z" class="colore576ad svgShape"></path><path fill="#f4f6f8" d="M243.432,176.819c0.356,0.205,0.642,0.7,0.641,1.11l-0.009,3.074
		c-0.001,0.409-0.289,0.573-0.645,0.367l-3.329-1.922c-0.356-0.206-0.642-0.701-0.641-1.11l0.009-3.074
		c0.001-0.409,0.289-0.573,0.645-0.367L243.432,176.819z" class="colord9dfe8 svgShape"></path><path fill="#938cf7" d="M250.882,181.12c0.356,0.206,0.642,0.7,0.641,1.11l-0.009,3.073
		c-0.001,0.409-0.289,0.573-0.645,0.367l-3.329-1.922c-0.356-0.205-0.642-0.701-0.641-1.11l0.009-3.074
		c0.001-0.409,0.289-0.573,0.645-0.367L250.882,181.12z" class="color8ca8f7 svgShape"></path><path fill="#5046e4" d="M200.473,76.08c-0.565,1.548,0.87,2.983,2.419,2.418c0.473-0.173,0.862-0.562,1.035-1.035
		c0.565-1.548-0.87-2.983-2.419-2.419C201.035,75.218,200.646,75.607,200.473,76.08z" class="color3f528c svgShape"></path><path fill="#b5cee7" d="M237.008,94.549c-0.565,1.548,0.87,2.983,2.419,2.418c0.473-0.172,0.862-0.562,1.035-1.035
		c0.565-1.548-0.87-2.983-2.418-2.418C237.57,93.687,237.181,94.076,237.008,94.549z" class="colore7b8b5 svgShape"></path><path fill="#8cadcf" d="M264.702,139.11c-0.565,1.548,0.87,2.983,2.418,2.419c0.473-0.173,0.862-0.562,1.035-1.035
		c0.565-1.548-0.87-2.983-2.419-2.419C265.263,138.248,264.874,138.637,264.702,139.11z" class="color8ccfb1 svgShape"></path><path fill="#938cf7" d="M193.301,72.035c-0.379,2.002,1.343,3.725,3.345,3.345c1.112-0.211,2.022-1.121,2.233-2.233
		c0.38-2.002-1.343-3.725-3.345-3.345C194.422,70.013,193.512,70.923,193.301,72.035z" class="color8ca8f7 svgShape"></path><path fill="#8cadcf" d="M132.685,86.449c-0.487,3.18,2.212,5.879,5.392,5.392c1.982-0.303,3.601-1.923,3.904-3.904
		c0.487-3.18-2.212-5.879-5.392-5.392C134.608,82.848,132.988,84.467,132.685,86.449z" class="color8ccfb1 svgShape"></path><path fill="#c3d8ed" d="M104.332,101.167c-0.539,1.478,0.831,2.848,2.309,2.309c0.452-0.165,0.823-0.536,0.988-0.988
		c0.539-1.478-0.831-2.848-2.309-2.309C104.868,100.344,104.496,100.716,104.332,101.167z" class="coloredc3d2 svgShape"></path><path fill="#938cf7" d="M160.043,220.562c-0.38,2.002,1.343,3.725,3.345,3.345c1.112-0.211,2.022-1.12,2.233-2.233
		c0.379-2.002-1.343-3.725-3.345-3.345C161.164,218.54,160.254,219.45,160.043,220.562z" class="color8ca8f7 svgShape"></path><ellipse cx="241.473" cy="216.572" fill="#83baf2" rx="6.814" ry="6.884" transform="rotate(-45.001 241.471 216.576)" class="colorf283b5 svgShape"></ellipse></g></svg>