<svg xmlns="http://www.w3.org/2000/svg" xmlns:xlink="http://www.w3.org/1999/xlink" viewBox="0 0 1704.309 1202.301" id="Appointment"><defs><linearGradient id="a" x1="520.78" x2="631.083" y1="507.532" y2="507.532" gradientUnits="userSpaceOnUse"><stop offset="0" stop-color="#c4d4e4" class="stopColorc4c9e4 svgShape"></stop><stop offset=".188" stop-color="#d7e2ed" class="stopColord7daed svgShape"></stop><stop offset=".477" stop-color="#edf2f7" class="stopColoredeef7 svgShape"></stop><stop offset=".753" stop-color="#fafbfd" class="stopColorfafbfd svgShape"></stop><stop offset="1" stop-color="#ffffff" class="stopColorffffff svgShape"></stop></linearGradient><linearGradient id="k" x1="605.043" x2="775.352" y1="486.945" y2="486.945" xlink:href="#a"></linearGradient><linearGradient id="l" x1="654.172" x2="708.82" y1="567.635" y2="567.635" xlink:href="#a"></linearGradient><linearGradient id="m" x1="922.502" x2="1476.575" y1="593.041" y2="593.041" gradientUnits="userSpaceOnUse"><stop offset="0" stop-color="#c4d6e9" class="stopColorc4cae9 svgShape"></stop><stop offset=".135" stop-color="#d4e1ef" class="stopColord4d9ef svgShape"></stop><stop offset=".38" stop-color="#ecf2f8" class="stopColoreceef8 svgShape"></stop><stop offset=".609" stop-color="#fafbfd" class="stopColorfafbfd svgShape"></stop><stop offset=".803" stop-color="#ffffff" class="stopColorffffff svgShape"></stop></linearGradient><linearGradient id="n" x1="1138.657" x2="1331.038" y1="699.02" y2="699.02" gradientUnits="userSpaceOnUse"><stop offset="0" stop-color="#dae7f5" class="stopColordae0f5 svgShape"></stop><stop offset=".251" stop-color="#ecf3fa" class="stopColoreceffa svgShape"></stop><stop offset=".549" stop-color="#fafcfe" class="stopColorfafbfe svgShape"></stop><stop offset=".803" stop-color="#ffffff" class="stopColorffffff svgShape"></stop></linearGradient><linearGradient id="c" x1="815.798" x2="841.718" y1="251.467" y2="206.572" gradientUnits="userSpaceOnUse"><stop offset="0" stop-color="#cee3f8" class="stopColorced3f8 svgShape"></stop><stop offset="1" stop-color="#f6f8fb" class="stopColorf6f6fb svgShape"></stop></linearGradient><linearGradient id="b" x1="826.315" x2="826.523" y1="249.864" y2="249.504" gradientUnits="userSpaceOnUse"><stop offset="0" stop-color="#f6f8fb" class="stopColorf6f6fb svgShape"></stop><stop offset="1" stop-color="#cee3f8" class="stopColorced3f8 svgShape"></stop></linearGradient><linearGradient id="o" x1="840.558" x2="850.372" y1="236.202" y2="219.204" xlink:href="#b"></linearGradient><linearGradient id="d" x1="827.281" x2="835.221" y1="253.683" y2="242.34" gradientUnits="userSpaceOnUse"><stop offset="0" stop-color="#d1e2f3" class="stopColord1d7f3 svgShape"></stop><stop offset="1" stop-color="#ffffff" class="stopColorffffff svgShape"></stop></linearGradient><linearGradient id="p" x1="836.745" x2="862.666" y1="263.561" y2="218.666" xlink:href="#c"></linearGradient><linearGradient id="q" x1="847.262" x2="847.47" y1="261.958" y2="261.598" xlink:href="#b"></linearGradient><linearGradient id="r" x1="861.505" x2="871.319" y1="248.296" y2="231.298" xlink:href="#b"></linearGradient><linearGradient id="s" x1="848.228" x2="856.169" y1="265.777" y2="254.434" xlink:href="#d"></linearGradient><linearGradient id="t" x1="857.064" x2="882.984" y1="275.292" y2="230.397" xlink:href="#c"></linearGradient><linearGradient id="u" x1="867.581" x2="867.789" y1="273.689" y2="273.329" xlink:href="#b"></linearGradient><linearGradient id="v" x1="881.824" x2="891.638" y1="260.027" y2="243.029" xlink:href="#b"></linearGradient><linearGradient id="w" x1="868.547" x2="876.487" y1="277.508" y2="266.165" xlink:href="#d"></linearGradient><linearGradient id="x" x1="956.015" x2="981.936" y1="332.422" y2="287.527" xlink:href="#c"></linearGradient><linearGradient id="y" x1="966.532" x2="966.74" y1="330.819" y2="330.458" xlink:href="#b"></linearGradient><linearGradient id="z" x1="980.775" x2="990.589" y1="317.157" y2="300.159" xlink:href="#b"></linearGradient><linearGradient id="A" x1="967.498" x2="975.439" y1="334.638" y2="323.294" xlink:href="#d"></linearGradient><linearGradient id="B" x1="976.963" x2="1002.883" y1="344.516" y2="299.621" xlink:href="#c"></linearGradient><linearGradient id="C" x1="987.48" x2="987.688" y1="342.913" y2="342.552" xlink:href="#b"></linearGradient><linearGradient id="D" x1="1001.723" x2="1011.537" y1="329.251" y2="312.253" xlink:href="#b"></linearGradient><linearGradient id="E" x1="988.446" x2="996.386" y1="346.732" y2="335.388" xlink:href="#d"></linearGradient><linearGradient id="F" x1="997.282" x2="1023.202" y1="356.247" y2="311.351" xlink:href="#c"></linearGradient><linearGradient id="G" x1="1007.798" x2="1008.006" y1="354.644" y2="354.283" xlink:href="#b"></linearGradient><linearGradient id="H" x1="1022.041" x2="1031.855" y1="340.981" y2="323.983" xlink:href="#b"></linearGradient><linearGradient id="I" x1="1008.764" x2="1016.705" y1="358.463" y2="347.119" xlink:href="#d"></linearGradient><linearGradient id="J" x1="1095.821" x2="1121.741" y1="413.138" y2="368.243" xlink:href="#c"></linearGradient><linearGradient id="K" x1="1106.337" x2="1106.545" y1="411.535" y2="411.175" xlink:href="#b"></linearGradient><linearGradient id="L" x1="1120.58" x2="1130.394" y1="397.873" y2="380.875" xlink:href="#b"></linearGradient><linearGradient id="M" x1="1107.303" x2="1115.244" y1="415.354" y2="404.011" xlink:href="#d"></linearGradient><linearGradient id="N" x1="1116.768" x2="1142.688" y1="425.232" y2="380.337" xlink:href="#c"></linearGradient><linearGradient id="O" x1="1127.285" x2="1127.493" y1="423.629" y2="423.269" xlink:href="#b"></linearGradient><linearGradient id="P" x1="1141.528" x2="1151.341" y1="409.967" y2="392.969" xlink:href="#b"></linearGradient><linearGradient id="Q" x1="1128.251" x2="1136.191" y1="427.448" y2="416.105" xlink:href="#d"></linearGradient><linearGradient id="R" x1="1137.086" x2="1163.007" y1="436.963" y2="392.068" xlink:href="#c"></linearGradient><linearGradient id="S" x1="1147.603" x2="1147.811" y1="435.36" y2="435" xlink:href="#b"></linearGradient><linearGradient id="T" x1="1161.846" x2="1171.66" y1="421.698" y2="404.7" xlink:href="#b"></linearGradient><linearGradient id="U" x1="1148.569" x2="1156.51" y1="439.179" y2="427.835" xlink:href="#d"></linearGradient><linearGradient id="V" x1="196.918" x2="518.692" y1="625.338" y2="625.338" xlink:href="#d"></linearGradient><linearGradient id="W" x1="452.349" x2="698.495" y1="31.965" y2="458.302" gradientTransform="scale(1 -1) rotate(-60 -289.59 -79.59)" gradientUnits="userSpaceOnUse"><stop offset=".265" stop-color="#dae7f5" class="stopColordae0f5 svgShape"></stop><stop offset=".382" stop-color="#cee3f8" class="stopColorced3f8 svgShape"></stop></linearGradient><linearGradient id="X" x1="848.654" x2="1164.713" y1="1022.353" y2="1022.353" gradientUnits="userSpaceOnUse"><stop offset="0" stop-color="#c4d6e9" class="stopColorc4cae9 svgShape"></stop><stop offset=".167" stop-color="#d4e1ef" class="stopColord4d9ef svgShape"></stop><stop offset=".471" stop-color="#ecf2f8" class="stopColoreceef8 svgShape"></stop><stop offset=".754" stop-color="#fafbfd" class="stopColorfafbfd svgShape"></stop><stop offset=".995" stop-color="#ffffff" class="stopColorffffff svgShape"></stop></linearGradient><linearGradient id="Y" x1="1726.154" x2="1859.885" y1="1015.023" y2="783.394" gradientTransform="translate(-912.741)" gradientUnits="userSpaceOnUse"><stop offset="0" stop-color="#453eaf" class="stopColor423eaf svgShape"></stop><stop offset="1" stop-color="#857dfb" class="stopColor807dfb svgShape"></stop></linearGradient><linearGradient id="Z" x1="883.691" x2="1019.227" y1="936.359" y2="936.359" gradientUnits="userSpaceOnUse"><stop offset="0" stop-color="#857dfb" class="stopColor807dfb svgShape"></stop><stop offset="1" stop-color="#5a52cc" class="stopColor5652cc svgShape"></stop></linearGradient><linearGradient id="aa" x1="835.783" x2="895.553" y1="875.821" y2="875.821" gradientUnits="userSpaceOnUse"><stop offset="0" stop-color="#c4d6e9" class="stopColorc4cae9 svgShape"></stop><stop offset="1" stop-color="#ffffff" class="stopColorffffff svgShape"></stop></linearGradient><linearGradient id="ab" x1="814.973" x2="854.473" y1="896.086" y2="839.585" gradientUnits="userSpaceOnUse"><stop offset="0" stop-color="#a3b9d0" class="stopColora3a9d0 svgShape"></stop><stop offset="1" stop-color="#f6f8fb" class="stopColorf6f6fb svgShape"></stop></linearGradient><linearGradient id="ac" x1="1015.342" x2="957.842" y1="791.718" y2="762.718" gradientUnits="userSpaceOnUse"><stop offset="0" stop-color="#bbd0e6" class="stopColorbbc0e6 svgShape"></stop><stop offset="1" stop-color="#f6f8fb" class="stopColorf6f6fb svgShape"></stop></linearGradient><linearGradient id="ad" x1="927.5" x2="936.758" y1="941.099" y2="925.062" gradientUnits="userSpaceOnUse"><stop offset="0" stop-color="#342e94" class="stopColor362e94 svgShape"></stop><stop offset="1" stop-color="#5a52cc" class="stopColor5652cc svgShape"></stop></linearGradient><linearGradient id="ae" x1="1844.812" x2="1857.488" y1="943.825" y2="921.869" gradientTransform="translate(-912.741)" gradientUnits="userSpaceOnUse"><stop offset="0" stop-color="#ff5ae1" class="stopColorff5a72 svgShape"></stop><stop offset="1" stop-color="#ff6ae4" class="stopColorff826a svgShape"></stop></linearGradient><linearGradient id="af" x1="568.315" x2="670.172" y1="832.034" y2="655.611" gradientTransform="translate(-134.089 -490.381)" gradientUnits="userSpaceOnUse"><stop offset=".298" stop-color="#c62caa" class="stopColorc62c51 svgShape"></stop><stop offset=".375" stop-color="#ed4bd0" class="stopColored4b67 svgShape"></stop><stop offset=".421" stop-color="#ff5ae1" class="stopColorff5a72 svgShape"></stop></linearGradient><linearGradient id="e" x1="373.679" x2="522.854" y1="713.149" y2="454.769" gradientTransform="matrix(-1 .5773 0 1 1116.846 -565.958)" gradientUnits="userSpaceOnUse"><stop offset=".409" stop-color="#bbd0e6" class="stopColorbbc0e6 svgShape"></stop><stop offset=".565" stop-color="#c4d6e9" class="stopColorc4cae9 svgShape"></stop></linearGradient><linearGradient id="ag" x1="434.027" x2="538.605" y1="670.565" y2="489.43" xlink:href="#e"></linearGradient><linearGradient id="ah" x1="603.882" x2="620.029" y1="736.451" y2="745.081" gradientTransform="rotate(-17.536 299.927 376.146)" gradientUnits="userSpaceOnUse"><stop offset="0" stop-color="#e8eff7" class="stopColore8ecf7 svgShape"></stop><stop offset=".145" stop-color="#e4edf7" class="stopColore4e8f7 svgShape"></stop><stop offset="1" stop-color="#cee3f8" class="stopColorced3f8 svgShape"></stop></linearGradient><linearGradient id="ai" x1="545.514" x2="556.845" y1="-40.236" y2="-21.424" gradientTransform="rotate(176.939 590.414 335.181)" gradientUnits="userSpaceOnUse"><stop offset="0" stop-color="#342e93" class="stopColor362e93 svgShape"></stop><stop offset="1" stop-color="#6f67e9" class="stopColor6b67e9 svgShape"></stop></linearGradient><linearGradient id="aj" x1="318.607" x2="307.957" y1="114.012" y2="95.329" gradientTransform="rotate(176.939 590.414 335.181)" gradientUnits="userSpaceOnUse"><stop offset="0" stop-color="#f6f8fb" class="stopColorf6f6fb svgShape"></stop><stop offset="1" stop-color="#bbd0e6" class="stopColorbbc0e6 svgShape"></stop></linearGradient><linearGradient id="ak" x1="300.763" x2="296.279" y1="117.19" y2="111.398" gradientTransform="rotate(176.939 590.414 335.181)" gradientUnits="userSpaceOnUse"><stop offset="0" stop-color="#453eaf" class="stopColor423eaf svgShape"></stop><stop offset="1" stop-color="#6f196f" class="stopColor20196f svgShape"></stop></linearGradient><linearGradient id="al" x1="539.766" x2="527.332" y1="-11.817" y2="-32.724" gradientTransform="rotate(176.939 590.414 335.181)" gradientUnits="userSpaceOnUse"><stop offset=".073" stop-color="#f6f8fb" class="stopColorf6f6fb svgShape"></stop><stop offset=".207" stop-color="#cee3f8" class="stopColorced3f8 svgShape"></stop><stop offset=".535" stop-color="#cee3f8" class="stopColorced3f8 svgShape"></stop><stop offset=".691" stop-color="#a3b9d0" class="stopColora3a9d0 svgShape"></stop></linearGradient><linearGradient id="f" x1="533.086" x2="517.629" y1="-7.07" y2="-26.708" gradientTransform="rotate(176.939 590.414 335.181)" gradientUnits="userSpaceOnUse"><stop offset=".31" stop-color="#f1f3f6" class="stopColorf1f1f6 svgShape"></stop><stop offset=".441" stop-color="#d1e2f3" class="stopColord1d7f3 svgShape"></stop></linearGradient><linearGradient id="am" x1="536.108" x2="520.65" y1="-8.816" y2="-28.454" xlink:href="#f"></linearGradient><linearGradient id="an" x1="539.135" x2="523.677" y1="-10.562" y2="-30.202" xlink:href="#f"></linearGradient><linearGradient id="g" x1="983.056" x2="1069.516" y1="812.925" y2="812.925" gradientTransform="translate(-228.072)" gradientUnits="userSpaceOnUse"><stop offset="0" stop-color="#c2d4e6" class="stopColorc2c8e6 svgShape"></stop><stop offset=".111" stop-color="#cedceb" class="stopColorced3eb svgShape"></stop><stop offset=".419" stop-color="#e9eff6" class="stopColore9ebf6 svgShape"></stop><stop offset=".691" stop-color="#f9fbfd" class="stopColorf9fafd svgShape"></stop><stop offset=".899" stop-color="#ffffff" class="stopColorffffff svgShape"></stop></linearGradient><linearGradient id="ao" x1="900.591" x2="987.046" y1="789.974" y2="789.974" gradientTransform="translate(-186.014)" xlink:href="#g"></linearGradient><linearGradient id="h" x1="-1708.377" x2="-1676.506" y1="786.935" y2="786.935" gradientTransform="matrix(-1 0 0 1 -970.799 0)" gradientUnits="userSpaceOnUse"><stop offset="0" stop-color="#453ead" class="stopColor423ead svgShape"></stop><stop offset=".312" stop-color="#3c359e" class="stopColor39359e svgShape"></stop><stop offset=".915" stop-color="#751d75" class="stopColor231d75 svgShape"></stop><stop offset="1" stop-color="#6f196f" class="stopColor1f196f svgShape"></stop></linearGradient><linearGradient id="ap" x1="-1747.784" x2="-1715.915" y1="809.872" y2="809.872" xlink:href="#h"></linearGradient><linearGradient id="aq" x1="-1733.943" x2="-1679.155" y1="733.724" y2="733.724" gradientTransform="matrix(-1 0 0 1 -970.799 0)" gradientUnits="userSpaceOnUse"><stop offset="0" stop-color="#6f196f" class="stopColor1f196f svgShape"></stop><stop offset=".036" stop-color="#721b72" class="stopColor201b72 svgShape"></stop><stop offset=".674" stop-color="#3b349c" class="stopColor39349c svgShape"></stop><stop offset="1" stop-color="#453ead" class="stopColor423ead svgShape"></stop></linearGradient><linearGradient id="ar" x1="-1760.785" x2="-1695.758" y1="520.715" y2="520.715" gradientTransform="scale(-1 1) rotate(-9.038 -479.511 -5683.39)" gradientUnits="userSpaceOnUse"><stop offset="0" stop-color="#cee3f8" class="stopColorced3f8 svgShape"></stop><stop offset="1" stop-color="#ffffff" class="stopColorffffff svgShape"></stop></linearGradient><linearGradient id="as" x1="758.27" x2="821.593" y1="593.185" y2="593.185" gradientTransform="rotate(4.439 330.169 359.68)" gradientUnits="userSpaceOnUse"><stop offset="0" stop-color="#f6f8fb" class="stopColorf6f6fb svgShape"></stop><stop offset=".416" stop-color="#e4effa" class="stopColore4e6fa svgShape"></stop><stop offset="1" stop-color="#cee3f8" class="stopColorced3f8 svgShape"></stop></linearGradient><linearGradient id="i" x1="1324.35" x2="1483.919" y1="803.413" y2="803.413" gradientTransform="translate(42.41)" gradientUnits="userSpaceOnUse"><stop offset="0" stop-color="#c4d4e5" class="stopColorc4c9e5 svgShape"></stop><stop offset=".241" stop-color="#dde6f0" class="stopColordde0f0 svgShape"></stop><stop offset=".539" stop-color="#f6f8fb" class="stopColorf6f7fb svgShape"></stop><stop offset=".719" stop-color="#ffffff" class="stopColorffffff svgShape"></stop></linearGradient><linearGradient id="at" x1="1202.139" x2="1354.866" y1="850.214" y2="850.214" gradientTransform="translate(97.637)" xlink:href="#i"></linearGradient><linearGradient id="au" x1="1079.931" x2="1220.499" y1="897.018" y2="897.018" gradientTransform="translate(152.864)" xlink:href="#i"></linearGradient><linearGradient id="av" x1="266.119" x2="353.942" y1="958.626" y2="958.626" gradientUnits="userSpaceOnUse"><stop offset=".427" stop-color="#c4d4e4" class="stopColorc4c9e4 svgShape"></stop><stop offset=".577" stop-color="#d7e2ed" class="stopColord7daed svgShape"></stop><stop offset=".846" stop-color="#f4f6f8" class="stopColorf4f5fa svgShape"></stop><stop offset="1" stop-color="#ffffff" class="stopColorffffff svgShape"></stop></linearGradient><linearGradient id="aw" x1="246.76" x2="334.626" y1="963.826" y2="963.826" gradientUnits="userSpaceOnUse"><stop offset="0" stop-color="#857dfb" class="stopColor807dfb svgShape"></stop><stop offset=".213" stop-color="#7971ee" class="stopColor7471ee svgShape"></stop><stop offset=".702" stop-color="#625ad5" class="stopColor5e5ad5 svgShape"></stop><stop offset="1" stop-color="#5a52cc" class="stopColor5652cc svgShape"></stop></linearGradient><linearGradient id="ax" x1="416.714" x2="646.867" y1="818.06" y2="818.06" gradientUnits="userSpaceOnUse"><stop offset="0" stop-color="#d1e0f0" class="stopColord1d6f0 svgShape"></stop><stop offset=".29" stop-color="#d5e3f1" class="stopColord5daf1 svgShape"></stop><stop offset=".592" stop-color="#e2ebf5" class="stopColore2e5f5 svgShape"></stop><stop offset=".899" stop-color="#f6f9fc" class="stopColorf6f7fc svgShape"></stop><stop offset="1" stop-color="#ffffff" class="stopColorffffff svgShape"></stop></linearGradient><linearGradient id="j" x1="472.741" x2="554.515" y1="785.814" y2="785.814" gradientUnits="userSpaceOnUse"><stop offset="0" stop-color="#bbcee2" class="stopColorbbbfe2 svgShape"></stop><stop offset="1" stop-color="#cee1f4" class="stopColorced2f4 svgShape"></stop></linearGradient><linearGradient id="ay" x1="588.217" x2="611.105" y1="830.529" y2="830.529" gradientUnits="userSpaceOnUse"><stop offset="0" stop-color="#a5bcd4" class="stopColora5acd4 svgShape"></stop><stop offset=".635" stop-color="#bed2e7" class="stopColorbec3e7 svgShape"></stop><stop offset="1" stop-color="#cee1f4" class="stopColorced2f4 svgShape"></stop></linearGradient><linearGradient id="az" x1="416.714" x2="439.71" y1="830.557" y2="830.557" xlink:href="#j"></linearGradient><linearGradient id="aA" x1="549.99" x2="579.373" y1="851.757" y2="851.757" gradientUnits="userSpaceOnUse"><stop offset="0" stop-color="#a5bcd4" class="stopColora5acd4 svgShape"></stop><stop offset=".516" stop-color="#bcd1e6" class="stopColorbcc2e6 svgShape"></stop><stop offset="1" stop-color="#cee1f4" class="stopColorced2f4 svgShape"></stop></linearGradient><linearGradient id="aB" x1="448.729" x2="478.166" y1="851.791" y2="851.791" xlink:href="#j"></linearGradient><linearGradient id="aC" x1="498.172" x2="530.073" y1="860.367" y2="860.367" xlink:href="#j"></linearGradient><linearGradient id="aD" x1="455.679" x2="571.581" y1="774.67" y2="774.67" xlink:href="#j"></linearGradient></defs><g style="isolation:isolate" fill="#010001" class="color000000 svgShape"><g fill="#010001" class="color000000 svgShape"><g fill="#010001" class="color000000 svgShape"><path style="mix-blend-mode:multiply" fill="url(#a)" d="M588.259 482.805H520.78l42.832 24.727-42.832 24.728h67.479l42.824-24.728-42.824-24.727z"></path><path style="mix-blend-mode:multiply" fill="url(#k)" d="M725.363 458.08h-120.32l49.998 28.865-49.998 28.865h120.32l49.989-28.865-49.989-28.865z"></path><path fill="#f4f6f8" d="m605.043 515.81 49.998-28.865V365.804l-49.998 28.862V515.81z" class="colorbbc0e6 svgShape"></path><path fill="#cee3f8" d="m605.043 515.81-49.988-28.865V365.804l49.988 28.862V515.81z" class="colorced3f8 svgShape"></path><path fill="#f6f8fb" d="m605.043 394.666-49.988-28.862 49.988-28.855 49.998 28.855-49.998 28.862z" class="colorf6f6fb svgShape"></path><path fill="#453eaf" d="m520.78 532.26 42.832-24.728V458.08l-42.832 24.725v49.455z" class="color423eaf svgShape"></path><path fill="#5046e4" d="m520.78 532.26-42.823-24.728V458.08l42.823 24.725v49.455z" class="color5652cc svgShape"></path><path fill="#857dfb" d="m520.78 482.805-42.823-24.725 42.823-24.719 42.832 24.719-42.832 24.725z" class="color807dfb svgShape"></path><path style="mix-blend-mode:multiply" fill="url(#l)" d="M687.603 555.384h-33.431l21.22 12.251-21.22 12.251h33.431l21.217-12.251-21.217-12.251z"></path><path fill="#f4f6f8" d="m654.172 579.886 21.22-12.251v-24.501l-21.22 12.25v24.502z" class="colorbbc0e6 svgShape"></path><path fill="#cee3f8" d="m654.172 579.886-21.216-12.251v-24.501l21.216 12.25v24.502z" class="colorced3f8 svgShape"></path><path fill="#f6f8fb" d="m654.172 555.384-21.216-12.25 21.216-12.246 21.22 12.246-21.22 12.25z" class="colorf6f6fb svgShape"></path><path style="mix-blend-mode:multiply" fill="url(#m)" d="m1476.575 603.406-342.774-197.9L922.502 527.5l197.423 253.076 356.65-24.455V603.406z"></path><path style="mix-blend-mode:multiply" fill="url(#n)" d="m1193.97 658.69-55.313 31.935 55.313 47.201-2.641 1.525h137.068l2.641-1.525-137.068-79.136z"></path><path fill="#d1e2f3" d="M1262.504 698.258 985.095 538.096 916.56 284.067l277.41 160.163 68.534 254.028z" class="colord1d7f3 svgShape"></path><path fill="#342e94" d="m922.978 307.852 277.409 160.162-6.417-23.784-277.41-160.163 6.418 23.785z" class="color362e94 svgShape"></path><path fill="#857dfb" d="m1196.625 441.777-2.655 2.453-404.426-233.495 2.656-2.453 404.425 233.495z" class="color807dfb svgShape"></path><path fill="#453eaf" d="m1200.387 468.015 2.87-1.657-6.632-24.581-2.655 2.453 6.417 23.785z" class="color423eaf svgShape"></path><path fill="#f4f6f8" d="m1262.504 698.258 2.87-1.657-62.117-230.243-2.87 1.657 62.117 230.243zM1193.97 737.826l-2.641 1.525V473.244l2.641-1.525v266.107z" class="colorbbc0e6 svgShape"></path><path fill="#453eaf" d="m1193.97 471.719-2.641 1.525v-27.489l2.641-1.525v27.489z" class="color423eaf svgShape"></path><path fill="#dae7f5" d="m1191.329 739.351-78.208-45.153V428.091l78.208 45.153v266.107z" class="colordae0f5 svgShape"></path><path fill="#342e94" d="m1191.329 473.244-78.208-45.153v-27.49l78.208 45.154v27.489z" class="color362e94 svgShape"></path><path fill="#6f67e9" d="M1191.329 445.755 786.904 212.26l2.64-1.525L1193.97 444.23l-2.641 1.525z" class="color6b67e9 svgShape"></path><path fill="#f6f8fb" d="M1119.925 780.576 715.499 547.08l62.412-303.4 404.131 234.925-62.117 301.97Z" class="colorf6f6fb svgShape"></path><path fill="#f4f6f8" d="m1122.794 778.919-2.869 1.657 62.117-301.97 2.87-1.657-62.118 301.97z" class="colorbbc0e6 svgShape"></path><path fill="#453eaf" d="m1184.912 476.949-2.87 1.657 6.632-32.238 2.655-.613-6.417 31.194z" class="color423eaf svgShape"></path><path fill="#857dfb" d="m1191.329 445.755-2.655.613-404.426-233.495 2.656-.613 404.425 233.495z" class="color807dfb svgShape"></path><path fill="#5046e4" d="M1182.042 478.606 777.911 243.681l6.337-30.808 404.426 233.495-6.632 32.238Z" class="color5652cc svgShape"></path><path fill="#cee3f8" d="m840.564 306.494-45.663-26.635 1.667-8.102 45.668 26.61-1.672 8.127ZM893.013 337.087l-45.663-26.635 1.672-8.13 45.668 26.61-1.677 8.155ZM945.462 367.68l-45.664-26.635 1.679-8.16 45.668 26.611-1.683 8.183ZM997.91 398.272l-45.663-26.635 1.684-8.187 45.668 26.611-1.69 8.211ZM1050.358 428.865l-45.663-26.635 1.69-8.215 45.668 26.61-1.695 8.24Z" class="colorced3f8 svgShape"></path><path fill="#857dfb" d="m1102.807 459.457-45.663-26.635 1.695-8.242 45.669 26.61-1.701 8.267ZM1155.255 490.05l-45.663-26.635 1.702-8.27 45.668 26.61-1.707 8.295Z" class="color807dfb svgShape"></path><path fill="#ff6ae4" d="M800.562 519.432 748.09 488.95l10.482-50.954 52.447 30.598-10.457 50.838ZM1125.88 651.321l-52.47-30.482 10.481-50.953 52.447 30.598-10.457 50.837Z" class="colorff826a svgShape"></path><path fill="#857dfb" d="m853.033 549.914-52.471-30.482 10.457-50.838 52.447 30.599-10.433 50.72ZM957.927 611.11l-52.47-30.482 10.457-50.837 52.447 30.598-10.434 50.721ZM1010.375 641.708q-26.236-15.24-52.471-30.482l10.457-50.837 52.447 30.598-10.433 50.721ZM905.504 580.396l-52.471-30.482 10.433-50.721 52.448 30.598-10.41 50.605Z" class="color807dfb svgShape"></path><path fill="#d1e2f3" d="m915.914 529.79-52.448-30.597 10.687-51.953 52.431 30.679-10.67 51.872ZM884.714 395.174l-52.448-30.598c3.562-17.317 6.86-32.843 10.423-50.16l52.43 30.678c-3.556 17.291-6.849 32.79-10.405 50.08ZM1020.792 591.067l-52.447-30.598 10.67-51.872 52.431 30.68-10.654 51.79ZM1073.432 620.73l-52.428-30.693 10.442-50.76 52.445 30.609-10.459 50.843ZM1094.543 518.101l-52.428-30.692 10.459-50.844 52.445 30.61-10.476 50.926ZM1146.971 548.794l-52.428-30.693 10.476-50.926 52.445 30.61-10.493 51.01Z" class="colord1d7f3 svgShape"></path><path fill="#dae7f5" d="M789.807 282.25 737.238 537.8l368.91 213.344 52.21-253.807L789.807 282.25Zm263.307 155.594 51.011 29.776-10.115 49.174-50.996-29.854 10.1-49.096Zm30.23 130.797-50.998-29.841 10.303-50.084 50.995 29.855-10.3 50.07Zm-10.623 51.645-51.014-29.764 10.27-49.93 51 29.839-10.256 49.855Zm-10.345 50.292-51.038-29.651 10.006-48.64 51.014 29.761-9.982 48.53ZM811.552 469.902l51.015 29.76-10.075 48.98-51.037-29.652 10.097-49.088Zm10.702-52.022 50.998 29.84-10.32 50.166-51.013-29.764 10.335-50.242Zm10.683-51.937 50.996 29.855-10.311 50.125-50.998-29.842 10.313-50.138Zm197.977 172.018-50.998-29.841 10.305-50.097 50.995 29.855-10.302 50.083Zm-10.64 51.725-51.015-29.764 10.287-50.009 50.999 29.84-10.271 49.933ZM874.685 448.558l50.999 29.84-10.304 50.088-51.014-29.763 10.32-50.165Zm52.431 30.678 50.998 29.839-10.288 50.01-51.013-29.762Zm51.367 28.046-50.997-29.84 10.308-50.112 50.994 29.854-10.305 50.098Zm-52.43-30.68-50.998-29.84 10.31-50.125 50.996 29.855-10.308 50.11ZM864 500.5l51.015 29.76-10.053 48.867-51.037-29.652 10.075-48.975Zm52.447 30.596 51.014 29.76-10.029 48.754-51.036-29.65 10.051-48.864Zm52.448 30.596 51.014 29.76-10.006 48.643-51.037-29.652 10.029-48.75Zm31.773-154.46 51.011 29.777-10.098 49.093-50.996-29.854 10.083-49.015Zm-52.444-30.61 51.01 29.774-10.082 49.014-50.994-29.853 10.066-48.936Zm-52.445-30.613 51.012 29.776-10.066 48.933-50.995-29.854q5.024-24.428 10.05-48.855Zm-52.444-30.613 51.012 29.776-10.05 48.854-50.996-29.854 10.034-48.776Zm-52.445-30.612 51.011 29.776-10.033 48.773-50.995-29.854 10.017-48.695ZM780.51 335.25l50.995 29.855-10.314 50.138-50.998-29.841 10.317-50.152Zm-10.688 51.952 50.999 29.84-10.336 50.244-51.014-29.764Zm-10.718 52.104 51.015 29.76-10.098 49.091-51.037-29.651 10.12-49.2Zm30.962 127.245-51.062-29.533 9.626-46.792 51.038 29.647-9.602 46.678Zm52.496 30.364L791.5 567.38l9.602-46.675 51.038 29.648-9.578 46.56Zm52.496 30.363-51.062-29.534 9.578-46.557 51.038 29.647-9.554 46.444Zm52.494 30.363-51.06-29.533 9.554-46.441 51.036 29.646-9.53 46.328Zm52.497 30.363-51.062-29.534 9.53-46.324 51.037 29.647-9.505 46.211Zm52.496 30.363-51.062-29.533 9.505-46.208 51.038 29.647-9.481 46.094Zm52.495 30.363-51.06-29.533 9.48-46.09q25.519 14.822 51.037 29.646l-9.457 45.977Zm9.805-47.668-51.036-29.65 9.983-48.528 51.013 29.76-9.96 48.418Zm10.322-50.177-51.013-29.763 10.255-49.853 50.997 29.839-10.24 49.777Zm10.607-51.565-50.997-29.84 10.3-50.07 50.994 29.854-10.297 50.056Zm-40.331-81.688 10.116-49.175 51.01 29.775-10.132 49.253-50.994-29.853Z" class="colordae0f5 svgShape"></path><path fill="#c4d6e9" d="M938.744 514.17c1.235-6.002 6.136-8.6 10.944-5.788 4.809 2.811 7.704 9.966 6.47 15.964s-6.13 8.567-10.938 5.758c-4.809-2.808-7.71-9.933-6.476-15.935Z" class="colorc4cae9 svgShape"></path><path fill="#ffffff" d="M946.616 523.32a1.129 1.129 0 0 1-.453-.558l-3.237-7.975a1.01 1.01 0 0 1 .26-1.265c.352-.186.806.08 1.014.592 1.144 2.821 1.715 4.231 2.86 7.05 4.121-2.174 6.182-3.264 10.306-5.444.352-.186.805.079 1.013.592a1.011 1.011 0 0 1-.26 1.266c-4.378 2.314-6.567 3.47-10.943 5.776a.565.565 0 0 1-.56-.034Z" class="colorffffff svgShape"></path><path fill="#6f67e9" d="M811.485 381.376c-5.339 2.823-8.01 4.24-13.352 7.08-3.15-7.812-4.726-11.716-7.88-19.512a11.609 11.609 0 0 1-.694-6.566c.881-4.286 4.38-6.122 7.815-4.11a9.272 9.272 0 0 1 3.328 3.575l2.067 4.077 3.122-1.038a5.13 5.13 0 0 1 3.925.67c3.434 2.013 5.505 7.108 4.623 11.397a6.213 6.213 0 0 1-2.954 4.427Z" class="color6b67e9 svgShape"></path><path fill="#ff5ae1" d="M967.183 643.334c1.611-7.84 8.165-11.215 14.622-7.453 6.455 3.764 10.369 13.231 8.758 21.062-1.61 7.832-8.133 11.056-14.59 7.301-6.459-3.755-10.402-13.07-8.79-20.91Z" class="colorff5a72 svgShape"></path><path fill="#6db6ff" d="M980.778 650.886a2.848 2.848 0 0 0 1.896-2.14l.002.001.01-.049a93.02 93.02 0 0 0 .251-1.161 5.703 5.703 0 0 0-2.317-5.77c-1.727-1.005-3.49-.05-3.939 2.127l-.25 1.217.012.007a6.032 6.032 0 0 0 .705 3.655c-1.2-.586-5.707-1.131-5.734 4.053l6.192 3.602 6.192 3.604c1.701-4.347-1.869-8.37-3.02-9.146Z" class="colorffaf6d svgShape"></path><path fill="#342e94" d="M827.786 255.78a9.398 9.398 0 0 0-4.19-9.434c-3.024-1.75-6.05-.384-6.763 3.086a9.481 9.481 0 0 0 4.178 9.487c3.024 1.754 6.06.335 6.775-3.14Z" class="color362e94 svgShape"></path><path fill="url(#c)" d="M818.185 244.08c0-11.692 8.209-25.91 18.335-31.757 4.982-2.876 9.494-3.179 12.798-1.363l-1.977-1.141-.013.015c-3.343-2.153-8.064-1.988-13.313 1.043-10.126 5.846-18.335 20.064-18.335 31.757 0 5.875 2.074 9.99 5.42 11.894l2.41 1.39c-3.29-1.927-5.325-6.02-5.325-11.838Z"></path><path fill="#f4f6f8" d="M827.786 255.78a8.95 8.95 0 0 0-.765-5.477c-2.564-1.387-4.163-4.474-4.163-8.92 0-8.713 6.117-19.308 13.662-23.664 7.545-4.356 13.662-.825 13.662 7.888a28.079 28.079 0 0 1-4.172 13.743l3.304 1.908c3.415-5.817 5.541-12.407 5.541-18.35 0-11.692-8.21-16.432-18.335-10.585s-18.335 20.065-18.335 31.757c0 7.832 3.692 12.522 9.167 13.024a6.007 6.007 0 0 0 .434-1.324Z" class="colorbbc0e6 svgShape"></path><path fill="url(#b)" d="M826.629 249.565a7.116 7.116 0 0 1-.93-.22 6.582 6.582 0 0 0 1.304.914c-.112-.239-.244-.466-.374-.694Z"></path><path fill="url(#o)" d="m843.505 237.903 2.505 1.447a28.079 28.079 0 0 0 4.172-13.743c0-5.094-2.1-8.4-5.345-9.41 1.774 1.638 2.84 4.345 2.84 7.964a28.079 28.079 0 0 1-4.172 13.742Z"></path><path d="M831.184 241.382c0 4.441-1.596 7.525-4.153 8.915a9.011 9.011 0 0 1 .755 5.483 6.285 6.285 0 0 1-.365 1.182c5.059-.847 8.436-5.414 8.436-12.882 0-.476-.034-.962-.061-1.446l-4.674-2.698c.036.486.062.97.062 1.446Z" style="mix-blend-mode:multiply" fill="url(#d)"></path><path fill="#342e94" d="M848.734 267.873a9.398 9.398 0 0 0-4.19-9.433c-3.024-1.75-6.05-.384-6.764 3.086a9.482 9.482 0 0 0 4.178 9.487c3.024 1.754 6.06.335 6.776-3.14Z" class="color362e94 svgShape"></path><path fill="url(#p)" d="M839.132 256.175c0-11.693 8.209-25.912 18.336-31.758 4.982-2.876 9.493-3.179 12.798-1.363l-1.977-1.141-.013.015c-3.343-2.153-8.064-1.988-13.314 1.043-10.126 5.846-18.335 20.064-18.335 31.757 0 5.875 2.074 9.99 5.42 11.894l2.41 1.39c-3.29-1.927-5.325-6.02-5.325-11.837Z"></path><path fill="#f4f6f8" d="M848.734 267.873a8.949 8.949 0 0 0-.766-5.476c-2.563-1.387-4.163-4.474-4.163-8.92 0-8.713 6.117-19.308 13.663-23.664 7.545-4.356 13.662-.825 13.662 7.888a28.08 28.08 0 0 1-4.173 13.743l3.305 1.908c3.414-5.817 5.54-12.407 5.54-18.35 0-11.692-8.208-16.431-18.334-10.585-10.127 5.846-18.336 20.065-18.336 31.758 0 7.831 3.692 12.521 9.167 13.023a6.016 6.016 0 0 0 .435-1.325Z" class="colorbbc0e6 svgShape"></path><path fill="url(#q)" d="M847.576 261.66a7.12 7.12 0 0 1-.93-.22 6.576 6.576 0 0 0 1.304.913c-.112-.239-.243-.466-.374-.694Z"></path><path fill="url(#r)" d="m864.452 249.997 2.505 1.447a28.08 28.08 0 0 0 4.173-13.743c0-5.094-2.1-8.4-5.346-9.41 1.774 1.638 2.84 4.345 2.84 7.964a28.079 28.079 0 0 1-4.172 13.742Z"></path><path d="M852.132 253.476c0 4.442-1.596 7.525-4.154 8.915a9.01 9.01 0 0 1 .756 5.482 6.258 6.258 0 0 1-.366 1.182c5.06-.847 8.437-5.413 8.437-12.88 0-.477-.035-.963-.062-1.447l-4.673-2.698c.036.486.062.97.062 1.446Z" style="mix-blend-mode:multiply" fill="url(#s)"></path><path fill="#342e94" d="M869.052 279.604a9.398 9.398 0 0 0-4.189-9.433c-3.025-1.75-6.05-.384-6.764 3.086a9.481 9.481 0 0 0 4.178 9.486c3.024 1.755 6.06.335 6.775-3.139Z" class="color362e94 svgShape"></path><path fill="url(#t)" d="M859.45 267.905c0-11.692 8.21-25.91 18.336-31.757 4.982-2.877 9.494-3.179 12.798-1.363l-1.976-1.141-.014.014c-3.342-2.152-8.064-1.987-13.313 1.044-10.126 5.846-18.335 20.064-18.335 31.757 0 5.875 2.074 9.99 5.42 11.894l2.41 1.39c-3.29-1.927-5.326-6.02-5.326-11.838Z"></path><path fill="#f4f6f8" d="M869.052 279.604a8.95 8.95 0 0 0-.765-5.476c-2.564-1.387-4.163-4.474-4.163-8.92 0-8.713 6.116-19.308 13.662-23.664 7.545-4.356 13.662-.825 13.662 7.888a28.079 28.079 0 0 1-4.172 13.742l3.304 1.908c3.414-5.816 5.541-12.406 5.541-18.348 0-11.693-8.209-16.433-18.335-10.586s-18.336 20.065-18.336 31.757c0 7.832 3.693 12.522 9.168 13.023a5.998 5.998 0 0 0 .434-1.324Z" class="colorbbc0e6 svgShape"></path><path fill="url(#u)" d="M867.895 273.39a7.118 7.118 0 0 1-.93-.22 6.57 6.57 0 0 0 1.304.914c-.112-.239-.244-.466-.374-.694Z"></path><path fill="url(#v)" d="m884.77 261.728 2.506 1.446a28.079 28.079 0 0 0 4.172-13.742c0-5.094-2.1-8.4-5.345-9.41 1.774 1.637 2.84 4.345 2.84 7.964a28.078 28.078 0 0 1-4.172 13.742Z"></path><path d="M872.45 265.207c0 4.441-1.596 7.525-4.153 8.915a9.011 9.011 0 0 1 .755 5.482 6.282 6.282 0 0 1-.365 1.182c5.059-.847 8.437-5.413 8.437-12.88 0-.477-.035-.963-.062-1.447l-4.674-2.698c.036.486.062.97.062 1.446Z" style="mix-blend-mode:multiply" fill="url(#w)"></path><path fill="#342e94" d="M968.004 336.734a9.398 9.398 0 0 0-4.19-9.434c-3.024-1.75-6.05-.384-6.764 3.086a9.481 9.481 0 0 0 4.178 9.487c3.024 1.755 6.06.335 6.776-3.139Z" class="color362e94 svgShape"></path><path fill="url(#x)" d="M958.402 325.035c0-11.693 8.209-25.911 18.335-31.758 4.983-2.876 9.494-3.178 12.799-1.363l-1.977-1.14-.013.014c-3.343-2.153-8.064-1.988-13.314 1.043-10.126 5.846-18.335 20.065-18.335 31.758 0 5.874 2.074 9.99 5.42 11.894l2.41 1.39c-3.29-1.927-5.325-6.02-5.325-11.838Z"></path><path fill="#f4f6f8" d="M968.004 336.734a8.949 8.949 0 0 0-.766-5.476c-2.563-1.388-4.163-4.474-4.163-8.921 0-8.713 6.117-19.307 13.663-23.663 7.545-4.357 13.662-.825 13.662 7.887a28.08 28.08 0 0 1-4.173 13.743l3.305 1.908c3.414-5.817 5.54-12.407 5.54-18.349 0-11.693-8.208-16.432-18.334-10.586-10.127 5.847-18.336 20.065-18.336 31.758 0 7.832 3.692 12.522 9.167 13.023a6.016 6.016 0 0 0 .435-1.324Z" class="colorbbc0e6 svgShape"></path><path fill="url(#y)" d="M966.846 330.52a7.12 7.12 0 0 1-.93-.22 6.576 6.576 0 0 0 1.304.913c-.112-.238-.243-.465-.374-.693Z"></path><path fill="url(#z)" d="m983.722 318.858 2.505 1.446a28.08 28.08 0 0 0 4.173-13.743c0-5.094-2.1-8.399-5.346-9.41 1.774 1.638 2.84 4.346 2.84 7.964a28.08 28.08 0 0 1-4.172 13.743Z"></path><path d="M971.402 322.337c0 4.44-1.596 7.524-4.154 8.914a9.01 9.01 0 0 1 .756 5.483 6.263 6.263 0 0 1-.366 1.182c5.06-.847 8.437-5.413 8.437-12.88 0-.477-.035-.964-.062-1.448l-4.673-2.698c.036.487.062.97.062 1.447Z" style="mix-blend-mode:multiply" fill="url(#A)"></path><path fill="#342e94" d="M988.951 348.828a9.398 9.398 0 0 0-4.189-9.434c-3.025-1.75-6.05-.384-6.764 3.086a9.481 9.481 0 0 0 4.178 9.487c3.024 1.755 6.06.335 6.775-3.139Z" class="color362e94 svgShape"></path><path fill="url(#B)" d="M979.35 337.13c0-11.694 8.209-25.912 18.335-31.759 4.982-2.876 9.494-3.178 12.798-1.363l-1.977-1.14-.013.014c-3.343-2.153-8.064-1.988-13.313 1.043-10.126 5.846-18.335 20.065-18.335 31.758 0 5.874 2.074 9.99 5.42 11.894l2.41 1.39c-3.29-1.927-5.325-6.02-5.325-11.838Z"></path><path fill="#f4f6f8" d="M988.951 348.828a8.95 8.95 0 0 0-.765-5.476c-2.564-1.388-4.163-4.474-4.163-8.921 0-8.713 6.117-19.307 13.662-23.663s13.662-.825 13.662 7.887a28.08 28.08 0 0 1-4.172 13.743l3.304 1.908c3.415-5.816 5.541-12.407 5.541-18.349 0-11.693-8.209-16.432-18.335-10.586s-18.335 20.065-18.335 31.758c0 7.832 3.692 12.522 9.167 13.023a6 6 0 0 0 .434-1.324Z" class="colorbbc0e6 svgShape"></path><path fill="url(#C)" d="M987.794 342.614a7.118 7.118 0 0 1-.93-.22 6.575 6.575 0 0 0 1.304.913c-.112-.238-.244-.465-.374-.693Z"></path><path fill="url(#D)" d="m1004.67 330.952 2.505 1.446a28.08 28.08 0 0 0 4.172-13.743c0-5.094-2.1-8.399-5.345-9.41 1.774 1.638 2.84 4.346 2.84 7.964a28.079 28.079 0 0 1-4.172 13.743Z"></path><path d="M992.35 334.43c0 4.442-1.596 7.525-4.154 8.915a9.01 9.01 0 0 1 .755 5.483 6.273 6.273 0 0 1-.365 1.182c5.059-.847 8.436-5.413 8.436-12.88 0-.477-.034-.964-.061-1.448q-2.337-1.348-4.673-2.698c.036.487.061.97.061 1.447Z" style="mix-blend-mode:multiply" fill="url(#E)"></path><path fill="#342e94" d="M1009.27 360.56a9.397 9.397 0 0 0-4.19-9.435c-3.024-1.75-6.05-.384-6.764 3.086a9.481 9.481 0 0 0 4.178 9.487c3.024 1.755 6.06.335 6.776-3.139Z" class="color362e94 svgShape"></path><path fill="url(#F)" d="M999.668 348.86c0-11.693 8.209-25.911 18.335-31.758 4.982-2.876 9.494-3.178 12.799-1.363l-1.977-1.14-.014.014c-3.342-2.153-8.063-1.988-13.313 1.043-10.126 5.846-18.335 20.065-18.335 31.758 0 5.874 2.074 9.99 5.42 11.893l2.41 1.391c-3.29-1.927-5.325-6.02-5.325-11.838Z"></path><path fill="#f4f6f8" d="M1009.27 360.56a8.948 8.948 0 0 0-.766-5.477c-2.563-1.388-4.163-4.474-4.163-8.921 0-8.713 6.117-19.307 13.663-23.663 7.545-4.357 13.662-.825 13.662 7.887a28.08 28.08 0 0 1-4.173 13.743l3.305 1.908c3.414-5.817 5.54-12.407 5.54-18.349 0-11.693-8.208-16.432-18.334-10.586-10.127 5.847-18.336 20.065-18.336 31.758 0 7.832 3.692 12.522 9.167 13.023a6.01 6.01 0 0 0 .435-1.324Z" class="colorbbc0e6 svgShape"></path><path fill="url(#G)" d="M1008.112 354.344a7.157 7.157 0 0 1-.93-.219 6.583 6.583 0 0 0 1.304.913c-.112-.238-.243-.465-.374-.694Z"></path><path fill="url(#H)" d="m1024.988 342.683 2.505 1.446a28.08 28.08 0 0 0 4.173-13.743c0-5.094-2.1-8.399-5.346-9.41 1.774 1.638 2.84 4.346 2.84 7.964a28.08 28.08 0 0 1-4.172 13.743Z"></path><path d="M1012.668 346.162c0 4.44-1.596 7.524-4.154 8.914a9.01 9.01 0 0 1 .756 5.483 6.263 6.263 0 0 1-.366 1.182c5.059-.847 8.437-5.413 8.437-12.881 0-.476-.035-.963-.062-1.447l-4.673-2.698c.036.487.062.97.062 1.447Z" style="mix-blend-mode:multiply" fill="url(#I)"></path><path fill="#342e94" d="M1107.809 417.45a9.397 9.397 0 0 0-4.19-9.433c-3.025-1.75-6.05-.384-6.764 3.086a9.481 9.481 0 0 0 4.178 9.486c3.025 1.755 6.06.335 6.776-3.139Z" class="color362e94 svgShape"></path><path fill="url(#J)" d="M1098.207 405.751c0-11.692 8.209-25.91 18.335-31.757 4.982-2.877 9.494-3.179 12.799-1.363l-1.977-1.142-.014.015c-3.342-2.152-8.064-1.987-13.313 1.043-10.126 5.847-18.335 20.065-18.335 31.758 0 5.875 2.074 9.99 5.42 11.894l2.41 1.39c-3.29-1.927-5.325-6.02-5.325-11.838Z"></path><path fill="#f4f6f8" d="M1107.809 417.45a8.95 8.95 0 0 0-.765-5.476c-2.564-1.387-4.164-4.474-4.164-8.92 0-8.713 6.117-19.308 13.662-23.664 7.546-4.356 13.662-.825 13.662 7.888a28.08 28.08 0 0 1-4.172 13.742l3.305 1.908c3.414-5.816 5.54-12.406 5.54-18.349 0-11.692-8.209-16.432-18.335-10.585s-18.335 20.065-18.335 31.757c0 7.832 3.692 12.522 9.167 13.023a5.995 5.995 0 0 0 .435-1.324Z" class="colorbbc0e6 svgShape"></path><path fill="url(#K)" d="M1106.651 411.236a7.15 7.15 0 0 1-.93-.22 6.583 6.583 0 0 0 1.304.914c-.112-.239-.243-.466-.374-.694Z"></path><path fill="url(#L)" d="m1123.527 399.574 2.505 1.446a28.08 28.08 0 0 0 4.172-13.742c0-5.095-2.1-8.4-5.345-9.41 1.774 1.637 2.84 4.345 2.84 7.963a28.08 28.08 0 0 1-4.172 13.743Z"></path><path d="M1111.207 403.053c0 4.441-1.596 7.525-4.154 8.915a9.01 9.01 0 0 1 .756 5.482 6.285 6.285 0 0 1-.366 1.182c5.059-.847 8.437-5.413 8.437-12.88 0-.477-.035-.963-.062-1.447l-4.673-2.698c.036.486.062.97.062 1.446Z" style="mix-blend-mode:multiply" fill="url(#M)"></path><path fill="#342e94" d="M1128.756 429.544a9.398 9.398 0 0 0-4.189-9.433c-3.025-1.75-6.05-.384-6.764 3.086a9.482 9.482 0 0 0 4.178 9.486c3.024 1.755 6.06.335 6.775-3.139Z" class="color362e94 svgShape"></path><path fill="url(#N)" d="M1119.154 417.845c0-11.692 8.21-25.91 18.336-31.757 4.982-2.877 9.494-3.179 12.798-1.363l-1.976-1.141-.014.014c-3.342-2.152-8.064-1.987-13.313 1.043-10.127 5.847-18.335 20.065-18.335 31.758 0 5.875 2.074 9.99 5.42 11.894l2.409 1.39c-3.29-1.927-5.325-6.02-5.325-11.838Z"></path><path fill="#f4f6f8" d="M1128.756 429.544a8.949 8.949 0 0 0-.765-5.476c-2.564-1.387-4.163-4.474-4.163-8.92 0-8.713 6.116-19.308 13.662-23.664 7.545-4.356 13.662-.825 13.662 7.888a28.079 28.079 0 0 1-4.172 13.742l3.304 1.908c3.414-5.816 5.541-12.406 5.541-18.349 0-11.692-8.209-16.432-18.335-10.585s-18.336 20.065-18.336 31.757c0 7.832 3.693 12.522 9.168 13.023a6.01 6.01 0 0 0 .434-1.324Z" class="colorbbc0e6 svgShape"></path><path fill="url(#O)" d="M1127.599 423.33a7.153 7.153 0 0 1-.931-.22 6.584 6.584 0 0 0 1.305.914c-.113-.239-.244-.466-.374-.694Z"></path><path fill="url(#P)" d="m1144.475 411.668 2.505 1.446a28.079 28.079 0 0 0 4.172-13.742c0-5.095-2.1-8.4-5.346-9.41 1.775 1.637 2.84 4.345 2.84 7.963a28.078 28.078 0 0 1-4.171 13.743Z"></path><path d="M1132.154 415.147c0 4.441-1.596 7.525-4.153 8.915a9.01 9.01 0 0 1 .755 5.482 6.27 6.27 0 0 1-.365 1.182c5.059-.847 8.437-5.413 8.437-12.88 0-.477-.036-.963-.062-1.447l-4.674-2.698c.036.486.062.97.062 1.446Z" style="mix-blend-mode:multiply" fill="url(#Q)"></path><path fill="#342e94" d="M1149.075 441.275a9.398 9.398 0 0 0-4.19-9.433c-3.025-1.75-6.05-.384-6.764 3.086a9.482 9.482 0 0 0 4.178 9.486c3.025 1.755 6.06.335 6.776-3.139Z" class="color362e94 svgShape"></path><path fill="url(#R)" d="M1139.473 429.576c0-11.693 8.209-25.91 18.335-31.757 4.982-2.877 9.494-3.18 12.799-1.363l-1.977-1.142-.014.015c-3.342-2.152-8.064-1.987-13.313 1.043-10.126 5.847-18.335 20.065-18.335 31.758 0 5.875 2.074 9.99 5.42 11.894l2.41 1.39c-3.29-1.927-5.325-6.02-5.325-11.838Z"></path><path fill="#f4f6f8" d="M1149.075 441.275a8.951 8.951 0 0 0-.765-5.476c-2.564-1.387-4.164-4.474-4.164-8.92 0-8.713 6.117-19.308 13.662-23.664s13.662-.825 13.662 7.888a28.08 28.08 0 0 1-4.172 13.742l3.305 1.908c3.414-5.816 5.54-12.407 5.54-18.349 0-11.692-8.209-16.432-18.335-10.585s-18.335 20.064-18.335 31.757c0 7.832 3.692 12.522 9.167 13.023a6 6 0 0 0 .435-1.324Z" class="colorbbc0e6 svgShape"></path><path fill="url(#S)" d="M1147.917 435.06a7.118 7.118 0 0 1-.93-.219 6.569 6.569 0 0 0 1.304.914c-.112-.239-.243-.466-.374-.694Z"></path><path fill="url(#T)" d="m1164.793 423.4 2.505 1.445a28.08 28.08 0 0 0 4.172-13.742c0-5.095-2.1-8.4-5.345-9.41 1.774 1.637 2.84 4.345 2.84 7.963a28.079 28.079 0 0 1-4.172 13.743Z"></path><path d="M1152.473 426.878c0 4.441-1.596 7.525-4.154 8.915a9.01 9.01 0 0 1 .756 5.482 6.28 6.28 0 0 1-.366 1.182c5.059-.847 8.437-5.413 8.437-12.88 0-.477-.035-.963-.062-1.447q-2.336-1.35-4.673-2.698c.036.486.062.97.062 1.446Z" style="mix-blend-mode:multiply" fill="url(#U)"></path><path d="m511.255 614.535-134.75-77.794c-9.92-5.722-26.138-5.723-36.054.002l-136.093 78.573c-9.919 5.727-9.92 15.092-.003 20.816l132.833 76.689v5.405h21.273v-.077c6.081-.181 12.075-1.552 16.693-4.218l136.103-78.579c9.916-5.725 9.91-15.091-.002-20.817Z" style="mix-blend-mode:multiply" fill="url(#V)"></path><path fill="#f6f8fb" d="M492.318 623.926c9.916-5.725 9.91-15.091-.002-20.817l-134.75-77.794c-9.92-5.722-26.138-5.723-36.054.002L185.42 603.89c-9.919 5.727-9.92 15.092-.003 20.816L320.164 702.5c9.914 5.726 26.138 5.728 36.051.005Z" class="colorf6f6fb svgShape"></path><path fill="#5046e4" d="m492.316 603.109-134.75-77.794c-9.92-5.722-26.138-5.723-36.054.002l-16.445 9.495 170.801 98.612 16.45-9.498c9.916-5.725 9.91-15.091-.002-20.817Z" class="color5652cc svgShape"></path><path fill="#342e94" d="M348.705 548.01a8.254 8.254 0 0 0-1.007.712c-3.456-2.355-3.306-5.872.542-8.094a16.226 16.226 0 0 1 14.681 0c3.671 2.12 3.984 5.42 1.007 7.765-.186-.126-.336-.263-.542-.383a16.225 16.225 0 0 0-14.681 0Z" class="color362e94 svgShape"></path><path fill="#cee3f8" d="M348.24 549.104c-.207-.119-.357-.256-.542-.382a8.254 8.254 0 0 1 1.007-.712 16.225 16.225 0 0 1 14.681 0c.206.12.356.257.542.383a8.28 8.28 0 0 1-1.007.712 16.226 16.226 0 0 1-14.681 0Z" class="colorced3f8 svgShape"></path><path fill="#342e94" d="M451.216 607.196a8.285 8.285 0 0 0-1.006.711c-3.456-2.355-3.306-5.872.542-8.094a16.226 16.226 0 0 1 14.681 0c3.671 2.12 3.983 5.42 1.007 7.765-.186-.126-.336-.263-.542-.382a16.225 16.225 0 0 0-14.682 0Z" class="color362e94 svgShape"></path><path fill="#cee3f8" d="M450.752 608.29c-.207-.12-.357-.257-.542-.383a8.285 8.285 0 0 1 1.006-.711 16.225 16.225 0 0 1 14.682 0c.206.119.356.256.542.382a8.298 8.298 0 0 1-1.007.712 16.225 16.225 0 0 1-14.681 0Z" class="colorced3f8 svgShape"></path><path fill="#ff6ae4" d="m357.805 585.988-69.895 40.354-13.18-7.61 55.917-32.283-1.2-.693-27.36 4.498-13.778-7.955 49.527-7.84ZM412.13 617.352l-44.135 25.481 11.385 6.573-11.983 6.918-11.384-6.573-13.779 7.955-13.18-7.61 13.778-7.954-34.747-20.062 11.583-6.688 71.893-9.914Zm-78.284 5.765 20.97 12.107 32.75-18.909-1.198-.69Z" class="colorff826a svgShape"></path><path fill="#d1e2f3" d="M311.533 648.46c5.472 3.159 5.41 7.04-.062 10.199l-4.522 2.61a17.436 17.436 0 0 1-17.665.036c-5.468-3.158-5.563-6.95.063-10.199l4.521-2.61a17.651 17.651 0 0 1 17.665-.036Zm-18.337 5.083c-3.085 1.781-3.543 3.811-.306 5.68a9.547 9.547 0 0 0 9.842-.175l4.89-2.823c3.026-1.747 3.301-3.954.305-5.684a9.98 9.98 0 0 0-9.841.179ZM323.682 662.674c4.217 2.436 4.493 5.31 1.834 7.764l-4.766-1.623c1.557-1.217 1.895-2.787-.43-4.129a9.158 9.158 0 0 0-8.678.282c-2.75 1.589-2.964 3.581-.488 5.01a7.915 7.915 0 0 0 7.12.267l2.842 2.733a15.882 15.882 0 0 1-13.447-1.059c-4.401-2.54-4.584-6.456.123-9.173a16.991 16.991 0 0 1 15.89-.072ZM335.38 669.922l4.708-2.718 3.85 2.223-4.708 2.718 4.157 2.399-3.24 1.871-4.157-2.4-7.762 4.482c-.61.352-.61.705-.058 1.023l2.444 1.412-3.24 1.87-4.16-2.4c-1.707-.987-1.77-2.434-.058-3.422l8.984-5.187-3.852-2.225 3.24-1.87Z" class="colord1d7f3 svgShape"></path><path fill="#342e94" d="m475.868 633.424 16.449-9.497c4.726-2.73 7.17-6.287 7.387-9.885l-.004 10.385c.245 3.94-2.198 7.933-7.392 10.932l-16.44 9.491Z" class="color362e94 svgShape"></path><path fill="url(#W)" d="M356.216 713.931c-9.915 5.725-26.14 5.727-36.054.001l-134.743-77.797c-5.137-2.964-7.584-6.9-7.405-10.81l-.02-.003-.002-10.888c.058 3.726 2.529 7.442 7.424 10.272l134.742 77.798c9.918 5.723 26.14 5.726 36.057.001l119.653-69.081v11.426Z"></path><path d="M1164.713 967.961a904.089 904.089 0 0 0-122.04 12.64l-17.83-6.496-5.197 3-5.196 3-11.57-8.592c-50.658 9.853-72.892 35.729-98.724 50.647-28.643 16.531-31.354 21.686-40.154 28.731l-4.956 18.936-5.196 3-5.196 3 57.637-9.283c19.89 6.42 51.348 10.202 92.416 10.202 53.794 0 113.547-6.495 166.006-16.902Z" style="mix-blend-mode:multiply" fill="url(#X)"></path><path fill="#5046e4" d="m981.205 954.756-15.011-8.667 18.234 16.683 15.011 8.666 15.011 8.667-18.234-16.682-15.011-8.667z" class="color5652cc svgShape"></path><path fill="#342e94" d="m1001.412 960.423 5.197-3 18.233 16.682-5.196 3-5.196 3-18.234-16.682 5.196-3zM872.084 1035.091l-5.196 3-18.234 37.736 5.196-3 5.196-3 18.234-37.736-5.196 3z" class="color362e94 svgShape"></path><path fill="#5046e4" d="m851.877 1029.424-15.012-8.667-18.234 37.737 15.012 8.667 15.011 8.666 18.234-37.736-15.011-8.667z" class="color5652cc svgShape"></path><path fill="#342e94" d="M847.063 989.194c0-60.303 42.34-133.621 94.546-163.771 52.224-30.146 94.557-5.709 94.557 54.593 0 60.296-42.333 133.623-94.557 163.767-52.207 30.152-94.546 5.708-94.546-54.589Z" class="color362e94 svgShape"></path><path fill="url(#Y)" d="M950.773 785.682c-17.145-10.143-40.924-8.845-67.247 6.348-52.22 30.15-94.55 103.469-94.55 163.768 0 31.456 11.586 53.03 30.02 62.315l-.058.1 54.9 31.548c-16.548-10.107-26.775-30.992-26.775-60.567 0-60.303 42.34-133.621 94.546-163.771 26.093-15.055 49.7-16.492 66.81-6.65l-57.626-33.119Zm57.746 33.156c.134.07.233.166.35.238l.017-.03Zm-131.488 232.768.059-.101c-.432-.218-.889-.386-1.314-.614Z"></path><path fill="url(#Z)" d="M993.247 837.903c12.239 8.776 19.687 25.359 19.687 48.26 0 49.494-34.749 109.684-77.617 134.428-19.825 11.45-37.907 13.29-51.626 7.082 14.214 10.192 34.892 9.85 57.919-3.45 42.868-24.744 77.617-84.934 77.617-134.428 0-26.599-10.044-44.68-25.98-51.892Z"></path><path fill="#f6f8fb" d="M935.317 1020.59c42.868-24.743 77.617-84.933 77.617-134.427 0-22.901-7.448-39.484-19.687-48.26-13.72-6.21-31.805-4.369-51.637 7.079-42.854 24.749-77.608 84.932-77.608 134.432 0 22.9 7.45 39.483 19.689 48.259 13.719 6.209 31.801 4.368 51.626-7.082Z" class="colorf6f6fb svgShape"></path><path fill="#c4d6e9" d="M929.01 862.42a13.95 13.95 0 0 1 6.312-10.93c3.485-2.013 6.31-.382 6.31 3.643a13.95 13.95 0 0 1-6.31 10.932c-3.486 2.012-6.312.38-6.312-3.644ZM997.84 887.584c3.486-2.012 6.312-.38 6.312 3.644a13.95 13.95 0 0 1-6.311 10.932c-3.486 2.012-6.312.38-6.312-3.644a13.95 13.95 0 0 1 6.312-10.932ZM941.633 999.514a13.95 13.95 0 0 1-6.311 10.932c-3.486 2.012-6.312.381-6.312-3.644a13.95 13.95 0 0 1 6.312-10.932c3.485-2.012 6.31-.38 6.31 3.644ZM872.802 974.35c-3.485 2.013-6.311.382-6.311-3.643a13.95 13.95 0 0 1 6.311-10.932c3.486-2.012 6.312-.38 6.312 3.644a13.95 13.95 0 0 1-6.312 10.932Z" class="colorc4cae9 svgShape"></path><path d="M889.126 859.278c-10.77-9.34-25.247-14.89-34.58-14.89-8.333 8.124-25 44.919-16.333 62.688a139.043 139.043 0 0 0 31.693-2.187 229.11 229.11 0 0 1 25.647-39.034 56.753 56.753 0 0 0-6.427-6.577Z" style="mix-blend-mode:multiply" fill="url(#aa)"></path><path fill="url(#ab)" d="M859.093 844.388c-12.88-9.209-48.331-8.722-56.994 5.22-8.862 14.262-2.044 43.255 20.673 54.212 13.651 7.881 32.855.965 42.882-15.443s7.09-36.108-6.561-43.99Z"></path><path fill="url(#ac)" d="M998.499 752.484c-16.302-7.91-43.628 13.426-51.59 28.588l.22.113c-1.15 1.488 2.334 5.342 10.196 10.672 12.51 8.479 31.362 17.47 42.096 20.076 4.293 1.042 6.605.89 7.074-.192l.028.014c8.744-18.156 7.313-51.828-8.024-59.27Z"></path><path fill="#ff6ae4" d="M878.991 761.963a2 2 0 0 1-1.72-3.016l8.515-14.465-8.008-4.357a1.996 1.996 0 0 1-.76-2.784l8.754-14.609-7.994-4.346a1.998 1.998 0 0 1-.76-2.785l9.826-16.398a1.999 1.999 0 1 1 3.43 2.054l-8.754 14.61 7.994 4.348a1.998 1.998 0 0 1 .76 2.785l-8.754 14.61 7.994 4.347a2 2 0 0 1 .768 2.773l-9.566 16.248a1.995 1.995 0 0 1-1.725.985ZM857.167 787.74a2.001 2.001 0 0 1-1.994-1.867l-.723-10.809-10.324 7.725a1.999 1.999 0 0 1-3.194-1.492l-.605-11.077-10.277 7.692a2 2 0 1 1-2.399-3.203l13.27-9.93a2 2 0 0 1 3.195 1.492l.605 11.076 10.282-7.691a2 2 0 0 1 3.193 1.469l.969 14.482a2.001 2.001 0 0 1-1.863 2.129c-.045.002-.09.004-.135.004ZM910.44 764.281a2 2 0 0 1-.68-3.88l11.512-4.157 1.14-14.719a2 2 0 0 1 1.343-1.736l11.642-4.02 1.14-14.695a2 2 0 0 1 3.99.309l-1.243 16.003a2 2 0 0 1-1.342 1.737l-11.642 4.02-1.14 14.697a2.003 2.003 0 0 1-1.313 1.726l-12.727 4.596a1.978 1.978 0 0 1-.68.119Z" class="colorff826a svgShape"></path><path fill="#453eaf" d="m941.742 920.22-.013.023a4.463 4.463 0 0 0-.451-.215v1.644a5.034 5.034 0 0 1 3.81.51l.013-.022ZM938.68 873.126l-3.358-1.939-7.783 25.243 3.359 1.94 7.782-25.244zM959.615 942.241l1.158-7.376-3.359-1.939-1.158 7.376 3.359 1.939z" class="color423eaf svgShape"></path><path fill="#342e94" d="m936.082 891.38-3.359 4.528v26.825l3.359 1.939V891.38z" class="color362e94 svgShape"></path><path fill="url(#ad)" d="M932.723 922.733c-3.653 3.4-6.327 8.822-6.327 13.463 0 2.793.965 4.765 2.528 5.719l-.003.004.051.03.08.045 3.228 1.864.002-.004c-1.562-.954-2.527-2.926-2.527-5.719 0-4.64 2.674-10.063 6.327-13.463Z"></path><path fill="#453eaf" d="m953.807 944.544-5.808 4.69 3.359 1.939 5.808-4.69-3.359-1.939z" class="color423eaf svgShape"></path><path fill="#6f196f" d="m966.935 949.295-6.162-14.43-1.158 7.376-13.52-7.806a16.905 16.905 0 0 0 1.51-6.606c0-4.641-2.673-6.976-6.327-6.157v-33.293l5.185 1.004-7.783-16.257-7.782 25.244 5.184-6.99v33.292c-3.653 3.4-6.327 8.822-6.327 13.463 0 5.693 3.996 8 8.925 5.154a16.905 16.905 0 0 0 4.966-4.612l13.52 7.806-5.808 4.69Z" class="color20196f svgShape"></path><path fill="#a50b89" d="M935.26 941.377c0-5.717 4.014-12.666 8.962-15.524 4.95-2.858 8.963-.541 8.963 5.175 0 5.715-4.012 12.666-8.963 15.523-4.948 2.858-8.962.541-8.962-5.174Z" class="colorc62c51 svgShape"></path><path fill="url(#ae)" d="M945.09 922.086c-1.624-.962-3.878-.839-6.373.602-4.95 2.857-8.962 9.807-8.962 15.523 0 2.982 1.098 5.027 2.845 5.907l-.005.01 5.204 2.99c-1.57-.958-2.539-2.938-2.539-5.741 0-5.717 4.014-12.666 8.962-15.524 2.474-1.427 4.711-1.563 6.333-.63l-5.462-3.14Zm5.475 3.143c.012.006.022.015.033.022l.002-.003ZM938.1 947.292l.006-.01c-.041-.02-.085-.036-.125-.057Z"></path><path fill="#f6f8fb" d="M687.927 224.72c5.204-3.004 9.46-10.376 9.46-16.387V136.72c0-6.008-4.256-8.465-9.46-5.463l-153.306 88.511v93.464Z" class="colorf6f6fb svgShape"></path><path fill="#6db6ff" d="m463.698 354.179 70.923-40.948v-93.464l-70.923 40.947c-5.203 3.006-9.462 10.378-9.462 16.387v71.62c0 6.007 4.259 8.463 9.462 5.458Z" class="colorffaf6d svgShape"></path><path fill="#ff6ae4" d="M491.866 295.276c-2.63-.488-4.406-3.095-4.406-7.272-.002-6.343 4.062-13.826 9.076-16.722 5.007-2.89 9.075-.09 9.072 6.25a21.752 21.752 0 0 1-4.406 12.348c7.67-1.444 12.55 3.367 12.545 9.593-1.308.745-17.214 9.933-17.214 9.933l-17.217 9.946c-.002-6.222 4.88-16.67 12.55-24.076Z" class="colorff826a svgShape"></path><path fill="#dae7f5" d="M687.927 131.256c2.57-1.482 4.908-1.63 6.617-.679l-7.422-4.282-.007.008c-1.73-1.107-4.16-1.028-6.855.529l-153.304 88.51 7.665 4.425Z" class="colordae0f5 svgShape"></path><path fill="url(#af)" d="M454.236 348.721v-71.62c0-6.009 4.259-13.381 9.462-16.387l70.923-40.947-7.665-4.426-70.926 40.95c-5.203 3.003-9.46 10.377-9.46 16.386v71.614c0 3.147 1.174 5.305 3.029 6.227l7.191 4.154c-1.578-1.043-2.554-3.087-2.554-5.95Z"></path><path fill="url(#e)" d="m549.87 251.49 123.364-71.224v-9.89L549.87 241.6v9.89z"></path><path fill="url(#ag)" d="m549.87 277.057 81.363-46.975v-9.89l-81.363 46.975v9.89z"></path><path fill="url(#ah)" d="M714.886 594.378c-23.478 23.667-20.631 51.644 0 73.66 0 0-8.04-44.398 0-73.66Z"></path><path fill="url(#ai)" d="M650.868 709.334a9.845 9.845 0 0 0 5.014-1.55c.965-.627 4.44-2.891 6.946-4.522a9.375 9.375 0 0 1-2.026-.754c-5.045-2.569-9.375-9.221-9.678-14.87a8.523 8.523 0 0 1 .41-3.2l-7.516 4.892a11.096 11.096 0 0 0-4.705 9.627 10.983 10.983 0 0 0 11.555 10.377Z"></path><path fill="url(#aj)" d="M890.227 545.738a6.35 6.35 0 0 1-3.131-4.815c-.06-1.106.386-1.834 1.096-2.048l-19.84 3.993-3.953 6.312 4.869 10.787 8.804 4.477 14.408-18.817a1.858 1.858 0 0 1-2.253.111Z"></path><path fill="url(#ak)" d="M890.227 545.738a1.858 1.858 0 0 0 2.253-.111l.222-.285 6.672-8.72-10.977 2.216-.205.037c-.71.214-1.156.942-1.096 2.048a6.35 6.35 0 0 0 3.131 4.815Z"></path><path fill="#f4f6f8" d="M681.636 672.744a5.263 5.263 0 0 1 2.065 2.157l3.945 8.754a3.293 3.293 0 0 1-.194 2.78l-3.078 4.926a1.776 1.776 0 0 1-2.25.631l-7.185-3.647a5.235 5.235 0 0 1-2.057-2.166l-3.945-8.75a3.297 3.297 0 0 1 .19-2.787l3.073-4.923a1.775 1.775 0 0 1 2.25-.627Z" class="colorbbc0e6 svgShape"></path><path fill="#ff6ae4" d="M669.476 676.067 864.399 549.18l4.869 10.787L674.34 686.85l-4.864-10.783z" class="colorff826a svgShape"></path><path fill="#ff5ae1" d="m673.425 669.755 194.928-126.887-3.954 6.312-194.923 126.887 3.949-6.312z" class="colorff5a72 svgShape"></path><path fill="#e33cc5" d="m674.34 686.85 194.928-126.883 8.804 4.477L683.149 691.33l-8.809-4.48z" class="colore33c5c svgShape"></path><path fill="url(#al)" d="m649.35 690.18 3.941 8.747a5.252 5.252 0 0 0 2.066 2.165l7.175 3.648a1.771 1.771 0 0 0 1.698-.109c.133-.069 19.498-12.68 19.498-12.68a1.85 1.85 0 0 1-1.604.041l-7.185-3.647a5.235 5.235 0 0 1-2.057-2.166l-3.945-8.75a3.297 3.297 0 0 1 .19-2.787l3.073-4.923a1.831 1.831 0 0 1 .437-.463l-19.408 12.631a2.011 2.011 0 0 0-.611.583l-3.082 4.919a3.34 3.34 0 0 0-.186 2.792Z"></path><path d="M669.804 671.101a1.618 1.618 0 0 0-.433.464l-3.077 4.918a3.297 3.297 0 0 0-.186 2.787l3.941 8.747a5.197 5.197 0 0 0 2.061 2.165l7.18 3.643a1.721 1.721 0 0 0 1.582-.049c.032.016 1.414-.886 1.414-.886a1.835 1.835 0 0 1-1.604.034l-7.185-3.644a5.275 5.275 0 0 1-2.061-2.165l-3.941-8.75a3.316 3.316 0 0 1 .185-2.784l3.082-4.926a1.742 1.742 0 0 1 .433-.464Z" style="mix-blend-mode:multiply" fill="url(#f)"></path><path d="M666.882 673.01a1.58 1.58 0 0 0-.441.464l-3.069 4.918a3.271 3.271 0 0 0-.19 2.782l3.941 8.756a5.295 5.295 0 0 0 2.061 2.16l7.18 3.644a1.742 1.742 0 0 0 1.586-.05c.023.016 1.414-.89 1.414-.89a1.834 1.834 0 0 1-1.604.037l-7.185-3.647a5.27 5.27 0 0 1-2.065-2.16l-3.946-8.75a3.31 3.31 0 0 1 .194-2.793l3.078-4.919a1.574 1.574 0 0 1 .437-.463Z" style="mix-blend-mode:multiply" fill="url(#am)"></path><path d="M663.956 674.91a1.625 1.625 0 0 0-.437.463l-3.082 4.918a3.342 3.342 0 0 0-.19 2.792l3.946 8.75a5.325 5.325 0 0 0 2.065 2.161l7.18 3.648a1.733 1.733 0 0 0 1.582-.05c.022.012 1.418-.894 1.418-.894a1.853 1.853 0 0 1-1.613.038l-7.177-3.653a5.198 5.198 0 0 1-2.065-2.151l-3.945-8.76a3.305 3.305 0 0 1 .19-2.782l3.077-4.923a1.675 1.675 0 0 1 .438-.46Z" style="mix-blend-mode:multiply" fill="url(#an)"></path><path style="mix-blend-mode:multiply" fill="url(#g)" d="M754.984 804.977h86.46v15.895h-86.46z"></path><path style="mix-blend-mode:multiply" fill="url(#ao)" d="M714.577 782.03h86.455v15.89h-86.455z"></path><path fill="url(#h)" d="M705.708 793.034c0-12.483 7.91-12.85 7.91-12.85s4.282 0 11.247-2.886c6.864-2.852 16.545-1.749 11.134 8.225a2.448 2.448 0 0 1-.184.374 4.872 4.872 0 0 1-1.753 1.535l-17.289 10.144c-2.635 1.5-11.005-1.974-11.065-4.542Z"></path><path fill="#471047" d="M705.757 791.913c.145 2.56 8.406 5.976 11.016 4.48l17.288-10.132a16.37 16.37 0 0 0 2.435-1.778c-.156.343-.294.67-.497 1.04a2.448 2.448 0 0 1-.184.374 4.872 4.872 0 0 1-1.754 1.535l-17.288 10.144c-2.465 1.41-9.966-1.553-10.955-4.053a2.652 2.652 0 0 1-.08-.502 7.731 7.731 0 0 1 .019-1.108Z" class="color121047 svgShape"></path><path fill="#ffffff" d="M708.927 778.543c2.038 0 9.207 1.828 9.207 1.828a3.945 3.945 0 0 0 .642 1.856c.07.078.132.159.2.244 1.415.981 2.854 2.536-.502 4.643a4.664 4.664 0 0 1-6.047-.424 5.424 5.424 0 0 0-1.949-2.215 4.852 4.852 0 0 0-1.868-.788 1.426 1.426 0 0 0-.016-.172s-.522-4.972.333-4.972Z" class="colorffffff svgShape"></path><path fill="#6f196f" d="M708.798 656.48c7.815.144 27.353.497 35.166.633-2.91 23.491-8.766 44.83-12.67 67.59-4.2 22.114-8.926 37.657-13.052 56.056-1.513 3.424-8.426 2.128-9.827-1.168-1.091-16.95-2.353-37.595 2.673-57.153-.837-21.075-2.784-44.667-2.29-65.958Z" class="color1f196f svgShape"></path><path fill="url(#ap)" d="M745.116 815.966c0-12.482 7.91-12.841 7.91-12.841s4.285 0 11.244-2.887c6.864-2.854 16.546-1.75 11.138 8.225-.051.12-.118.243-.186.369a4.866 4.866 0 0 1-1.758 1.539l-17.282 10.14c-2.638 1.502-11.005-1.972-11.066-4.545Z"></path><path fill="#471047" d="M745.16 814.848c.15 2.56 8.41 5.977 11.022 4.48l17.282-10.127a17.186 17.186 0 0 0 2.439-1.784c-.162.342-.294.672-.495 1.046-.051.12-.118.243-.186.369a4.866 4.866 0 0 1-1.758 1.539l-17.282 10.14c-2.466 1.411-9.969-1.557-10.958-4.043a2.328 2.328 0 0 1-.076-.509 8.431 8.431 0 0 1 .013-1.111Z" class="color121047 svgShape"></path><path fill="#ffffff" d="M748.335 801.48c2.032 0 9.206 1.821 9.206 1.821a4.063 4.063 0 0 0 .635 1.862c.075.081.138.162.202.243 1.42.982 2.862 2.54-.5 4.65a4.668 4.668 0 0 1-6.047-.431 5.537 5.537 0 0 0-1.945-2.214 4.988 4.988 0 0 0-1.873-.788 1.05 1.05 0 0 0-.017-.167s-.517-4.977.339-4.977Z" class="colorffffff svgShape"></path><path fill="url(#aq)" d="M733.596 712.35c-2.135-10.097-26.78-11.354-25.164-51.066 7.735-1.14 46.746 17.162 54.474 16.023.968 23.65-1.315 45.667-1.46 68.744-.53 22.505-2.655 38.611-3.72 57.441-.931 3.628-7.96 3.477-9.886.456-3.845-16.543-8.456-36.714-6.693-56.825-2.302-11.14-5.045-22.948-7.55-34.773Z"></path><path fill="url(#ar)" d="M719.702 681.66c15.06 11.918 37.066 9.993 44.78-.48 0-21.6-6.768-32.198-5.546-53.23-2.938-11.076-6.678-17.022-6.214-23.81-3.288-2.228-5.637-3.334-11.245-7.11-6.062-4.066-10.356-8.163-13.186-8.31-23.344-1.244-16.499 23.734-21.444 67.011-.072 11.705 5.431 20.064 12.855 25.928Z"></path><path fill="#c7e1fc" d="M716.112 593.168c4.381-4.29 2.89-11.572 1.753-16.385a24.241 24.241 0 0 1-2.18-8.285c-.878-10.845 5.278-20.778 13.788-20.882 17.154-.215 14.847 9.013 15.728 19.86.808 10.05-3.189 17.337-10.713 19.114.133 1.658 1.546 6.525 3.91 8.284-5.035 4.13-13.34 3.779-16.747 2.824-3.624-1.039-7.488-1.805-5.54-4.53Z" class="colorfcd1c7 svgShape"></path><path fill="#6f196f" d="M735.406 541.37c-.6-1.287-3.301-1.778-11.528 2.885-.054.035-1.998 1.148-2.125 1.218-15.12 9.418-8.432 27.476-5.278 32.064a10.145 10.145 0 0 1 2.146 5.676c6.319-1.209 8.865 2.068 12.401-2.102 2.541-2.99 6.46-6.635 7.006-7.994a5.033 5.033 0 0 0 .133-3.175c-1.315-8.935 3.624-4.094 3.796-2.02 1.569-1.076.92-4.652.211-8.626 12.195-12.29 3.774-18.252-6.762-17.926Z" class="color1f196f svgShape"></path><path fill="#c7e1fc" d="M801.822 619.624c3.878-1.509 7.252-2.509 7.628-3.384.374-.875-.168-5.088-.543-6.773l-12.593 8.198Z" class="colorfcd1c7 svgShape"></path><path fill="url(#as)" d="M756.77 608.937c-3.326-4.522-5.048-8.111-13.194-3.8-5.897 3.12-8.481 21.962 24.545 45.357 6.287 4.454 31.787-21.195 34.801-30.546.023-1.663-3.289-4.444-3.289-4.444-6.372 4.148-25.146 16.757-27.223 16.596-3.371-.26-11.621-17.699-15.64-23.163Z"></path><path style="mix-blend-mode:multiply" fill="url(#i)" d="M1485.788 780.011H1366.76l40.536 23.398-40.536 23.407h119.028l40.541-23.407-40.541-23.398z"></path><path style="mix-blend-mode:multiply" fill="url(#at)" d="M1411.97 826.81h-112.194l40.533 23.407-40.533 23.4h112.194l40.533-23.4-40.533-23.407z"></path><path style="mix-blend-mode:multiply" fill="url(#au)" d="M1332.83 873.615h-100.036l40.534 23.404-40.534 23.403h100.036l40.533-23.403-40.533-23.404z"></path><path fill="#cee3f8" d="m1326.219 718.18 40.535 23.407v85.223l-40.535-23.404V718.18z" class="colorced3f8 svgShape"></path><path fill="#f4f6f8" d="m1407.29 718.18-40.536 23.407v85.223l40.536-23.404V718.18z" class="colorbbc0e6 svgShape"></path><path fill="#f1f3f6" d="m1366.754 694.782-40.535 23.398 40.535 23.407 40.536-23.407-40.536-23.398z" class="colorf1f1f6 svgShape"></path><path fill="#5046e4" d="m1259.237 788.049 40.536 23.404v62.164l-40.536-23.403v-62.165z" class="color5652cc svgShape"></path><path fill="#453eaf" d="m1340.309 788.049-40.536 23.404v62.164l40.536-23.403v-62.165z" class="color423eaf svgShape"></path><path fill="#6f67e9" d="m1299.773 764.645-40.536 23.404 40.536 23.404 40.536-23.404-40.536-23.404z" class="color6b67e9 svgShape"></path><path fill="#ff5ae1" d="m1192.256 848.262 40.538 23.404v48.756l-40.538-23.403v-48.757z" class="colorff5a72 svgShape"></path><path fill="#e33cc5" d="m1273.328 848.262-40.534 23.404v48.756l40.534-23.403v-48.757z" class="colore33c5c svgShape"></path><path fill="#ff6ae4" d="m1232.794 824.858-40.538 23.404 40.538 23.404 40.534-23.404-40.534-23.404z" class="colorff826a svgShape"></path><path d="M340.977 940.63c-9.179-5.303-21.383-7.745-33.37-7.385h-18.795v3.076a49.683 49.683 0 0 0-9.942 4.31c-17.085 9.937-16.987 26.04.211 35.978a50.03 50.03 0 0 0 9.731 4.216v3.217h22.542c10.84-.183 21.58-2.641 29.827-7.43 17.092-9.94 17.003-26.044-.204-35.981Z" style="mix-blend-mode:multiply" fill="url(#av)"></path><path fill="url(#aw)" d="M259.722 976.623c-8.655-4.999-12.989-11.56-12.962-18.113l.036-14.936c-.017 6.555 4.305 13.114 12.96 18.115 17.21 9.935 45.013 9.935 62.102.01 8.497-4.944 12.749-11.397 12.768-17.868l-.038 14.936c-.02 6.466-4.271 12.92-12.763 17.858-17.09 9.938-44.9 9.938-62.103-.002Z"></path><path fill="#f6f8fb" d="M259.756 961.69c-17.2-9.929-17.294-26.041-.204-35.97 17.092-9.936 44.907-9.936 62.107 0 17.208 9.929 17.294 26.041.2 35.979-17.09 9.925-44.893 9.925-62.103-.01Z" class="colorf6f6fb svgShape"></path><path fill="#f4f6f8" d="m313.239 941.658-32.496 1.652 1.01-7.304h-8.979l-2.44 13.316 42.905-2.48v-5.184z" class="colorbbc0e6 svgShape"></path><path d="M624.145 841.971a8.989 8.989 0 0 1 3.134-2.06h13.815l5.773-12.635-5.204-.804a14.502 14.502 0 0 1-4.866-1.612c-1.675-.968-2.914-2.366-2.89-4.281a33.106 33.106 0 0 0-.014-5.031c-.112-3.607 4.298-5.371 7.653-5.897l5.217-.808-5.915-12.627h-13.802a10.423 10.423 0 0 1-1.314-.63 8.545 8.545 0 0 1-1.856-1.43 56.178 56.178 0 0 0-4.368-4.362c-3.212-3.107-.911-5.917 1.54-7.341l3.798-2.208L608.833 771l-3.8 2.207a15.765 15.765 0 0 1-12.66.92q-3.696-1.373-7.553-2.52a12.905 12.905 0 0 1-2.474-1.07c-3.075-1.775-3.232-4.147-2.51-5.742l1.38-3.008-21.826-3.39-1.378 3.017c-.882 1.945-3.914 4.514-10.142 4.469a170.868 170.868 0 0 0-8.685-.008 14.46 14.46 0 0 1-7.415-1.654 6.743 6.743 0 0 1-2.798-2.803l-1.405-3.02-21.787 3.39 1.412 3.008c.911 1.949.51 5.047-4.906 6.812q-3.84 1.144-7.524 2.519a15.817 15.817 0 0 1-12.665-.915l-3.83-2.212-15.91 9.246 3.823 2.207c2.467 1.424 4.8 4.236 1.629 7.337a54.828 54.828 0 0 0-4.325 4.367c-3.022 3.14-8.362 3.385-11.723 2.868l-5.226-.808-5.774 12.627 5.212.808a14.506 14.506 0 0 1 4.86 1.612c1.673.966 2.912 2.363 2.895 4.28a32.197 32.197 0 0 0 .007 5.028 4.221 4.221 0 0 1-1.436 3.257h-35.585v16.083h43.876a10.4 10.4 0 0 1 1.297.624 8.564 8.564 0 0 1 1.859 1.432 55.687 55.687 0 0 0 4.381 4.362 5.583 5.583 0 0 1 1.267 1.732h-20.665v17.058h31.258v-.692l2.608-1.516a15.765 15.765 0 0 1 12.669-.915c.958.356 1.932.692 2.908 1.027v14.698h29.882v-.029l.184.029 1.38-3.016a4.778 4.778 0 0 1 .377-.66v3.676h30.067l21.787-3.381-1.413-3.017c-.815-1.737-.568-4.399 3.376-6.205h25.55l15.91-9.245-3.817-2.204c-2.473-1.428-4.806-4.239-1.635-7.341a52.866 52.866 0 0 0 4.325-4.358Zm-51.264-7.125c-16.02 9.31-42.103 9.318-58.235.004-16.133-9.314-16.21-24.426-.19-33.736 16.035-9.319 42.11-9.314 58.242 0 16.133 9.314 16.218 24.413.183 33.732Z" style="mix-blend-mode:multiply" fill="url(#ax)"></path><path fill="url(#j)" d="M542.452 774.094c-16.021-9.249-41.915-9.253-57.838 0-14.161 8.23-15.644 21.02-4.504 30.257a33.47 33.47 0 0 1 4.504-3.12c15.923-9.253 41.817-9.25 57.838 0a33.89 33.89 0 0 1 4.687 3.241c11.21-9.246 9.638-22.107-4.687-30.378Z"></path><path fill="#bbcee2" d="M549.847 737.571a3.959 3.959 0 0 0-.358 1.62l-.077 27.223a3.957 3.957 0 0 1 .358-1.619l1.379-3.008.077-27.224ZM477.203 737.572l-1.412-3.008-.077 27.224 1.412 3.008a3.97 3.97 0 0 1 .38 1.686l.077-27.224a3.966 3.966 0 0 0-.38-1.686ZM591.058 755.229c-1.587.922-3.11 2.425-3.116 4.214l-.077 27.224c.005-1.789 1.53-3.292 3.116-4.214l3.799-2.208.077-27.224Z" class="colorbbbfe2 svgShape"></path><path fill="#cee1f4" d="m436.191 755.23-3.823-2.208-.078 27.224 3.824 2.207c1.614.932 3.17 2.458 3.166 4.27l.077-27.224c.005-1.812-1.552-3.338-3.166-4.27Z" class="colorced2f4 svgShape"></path><path fill="#bbcee2" d="M611.558 782.427c-3.31.518-7.646 2.243-7.656 5.75l-.077 27.224c.01-3.508 4.346-5.232 7.655-5.75l5.217-.808.077-27.224Z" class="colorbbbfe2 svgShape"></path><path fill="#3c243c" d="m604.007 791.048-.077 27.224q-.003 1.153-.089 2.307l.077-27.224q.087-1.153.09-2.307Z" class="color242d3c svgShape"></path><path fill="#cee1f4" d="m423.726 792.822.013-4.5c.017-1.918-1.222-3.315-2.895-4.282a14.524 14.524 0 0 0-4.86-1.612l-5.212-.808-.077 27.224 5.212.808a14.503 14.503 0 0 1 4.86 1.612 5.316 5.316 0 0 1 2.81 3.445l-.01 3.18q-.004 1.344.102 2.683l.077-27.224c-.013-.175-.009-.35-.02-.526Z" class="colorced2f4 svgShape"></path><path fill="#3c243c" d="m423.748 793.487-.077 27.224c0-.047 0-.093-.002-.14l.077-27.223.002.139Z" class="color242d3c svgShape"></path><path fill="#bbcee2" d="m616.878 800.052-.077 27.224-5.773 12.635.077-27.224 5.773-12.635z" class="colorbbbfe2 svgShape"></path><path fill="#cee1f4" d="m416.792 812.688-.078 27.224-5.908-12.631.077-27.224 5.909 12.631z" class="colorced2f4 svgShape"></path><path fill="url(#ay)" d="M605.886 811.875c-3.361-.517-8.709-.275-11.73 2.872a52.833 52.833 0 0 1-4.326 4.358 4.346 4.346 0 0 0-1.536 3.067l-.077 27.223a4.345 4.345 0 0 1 1.536-3.066 52.864 52.864 0 0 0 4.326-4.358c3.021-3.147 8.369-3.39 11.73-2.872l5.219.812.077-27.224Z"></path><path fill="url(#az)" d="M438.138 819.106a55.786 55.786 0 0 1-4.381-4.362 8.56 8.56 0 0 0-1.86-1.432c-3.072-1.774-7.16-1.86-9.91-1.436l-5.195.812-.078 27.224 5.196-.812c2.75-.424 6.838-.338 9.91 1.436a8.562 8.562 0 0 1 1.86 1.432 55.646 55.646 0 0 0 4.38 4.362 4.365 4.365 0 0 1 1.573 3.12l.077-27.223a4.366 4.366 0 0 0-1.572-3.121Z"></path><path fill="#bbcee2" d="m595.283 828.65-.078 27.224-15.909 9.245.077-27.223 15.91-9.246z" class="colorbbbfe2 svgShape"></path><path fill="#cee1f4" d="m448.806 837.896-.077 27.224-16.013-9.245.077-27.224 16.013 9.245z" class="colorced2f4 svgShape"></path><path fill="url(#aA)" d="M575.542 835.684a15.81 15.81 0 0 0-12.665-.907q-3.669 1.367-7.523 2.52c-4.026 1.311-5.281 3.36-5.286 5.122l-.078 27.224c.006-1.763 1.26-3.811 5.286-5.123q3.852-1.15 7.524-2.519a15.812 15.812 0 0 1 12.665.907l3.831 2.211.077-27.223Z"></path><path fill="url(#aB)" d="M475.295 838.367a12.958 12.958 0 0 0-2.482-1.074q-3.854-1.145-7.538-2.52a15.765 15.765 0 0 0-12.67.916l-3.799 2.207-.077 27.224 3.8-2.208a15.765 15.765 0 0 1 12.668-.915c2.457.911 4.97 1.756 7.538 2.52a12.953 12.953 0 0 1 2.483 1.074c2.147 1.24 2.874 2.768 2.87 4.12l.078-27.224c.004-1.352-.723-2.88-2.87-4.12Z"></path><path fill="#bbcee2" d="m551.86 847.117-.077 27.224-21.788 3.381.078-27.224 21.787-3.381z" class="colorbbbfe2 svgShape"></path><path fill="url(#aC)" d="M528.66 847.482a6.703 6.703 0 0 0-2.796-2.811 14.448 14.448 0 0 0-7.41-1.65c-2.882.07-5.787.07-8.685-.008-6.22-.04-9.245 2.524-10.14 4.47l-1.38 3.015-.077 27.224 1.379-3.016c.896-1.946 3.92-4.51 10.141-4.47 2.898.08 5.802.079 8.685.01a14.447 14.447 0 0 1 7.41 1.649 6.704 6.704 0 0 1 2.796 2.81l1.412 3.017.078-27.224Z"></path><path fill="#f0f2f5" d="m591.466 826.447 3.817 2.203-15.91 9.246-3.83-2.212a15.81 15.81 0 0 0-12.666-.907q-3.669 1.367-7.523 2.52c-5.417 1.764-5.818 4.863-4.907 6.803l1.413 3.017-21.787 3.381-1.413-3.016a6.703 6.703 0 0 0-2.796-2.811 14.45 14.45 0 0 0-7.41-1.65c-2.882.07-5.787.07-8.685-.008-6.22-.04-9.245 2.524-10.14 4.47l-1.38 3.015-21.825-3.381 1.386-3.02c.722-1.594.556-3.957-2.515-5.73a12.958 12.958 0 0 0-2.482-1.074q-3.854-1.145-7.538-2.52a15.765 15.765 0 0 0-12.67.916l-3.799 2.207-16.013-9.245 3.8-2.208c2.45-1.424 4.75-4.235 1.545-7.337a55.786 55.786 0 0 1-4.381-4.362 8.567 8.567 0 0 0-1.86-1.432c-3.072-1.774-7.16-1.86-9.91-1.436l-5.195.812-5.91-12.63 5.204-.809c3.355-.525 7.765-2.29 7.66-5.901a32.24 32.24 0 0 1-.007-5.027c.017-1.917-1.222-3.314-2.895-4.28a14.525 14.525 0 0 0-4.86-1.613l-5.212-.808 5.774-12.627 5.226.809c3.36.517 8.7.27 11.722-2.869a54.863 54.863 0 0 1 4.326-4.366c3.17-3.102.838-5.913-1.629-7.337l-3.823-2.208 15.909-9.246 3.831 2.212a15.817 15.817 0 0 0 12.665.915q3.68-1.372 7.524-2.52c5.416-1.764 5.817-4.862 4.906-6.811l-1.412-3.008 21.786-3.39 1.406 3.02a6.74 6.74 0 0 0 2.798 2.803 14.459 14.459 0 0 0 7.415 1.654c2.883-.07 5.787-.07 8.685.008 6.228.045 9.26-2.524 10.141-4.469l1.38-3.016 21.824 3.39-1.379 3.007c-.722 1.595-.565 3.967 2.51 5.742a12.957 12.957 0 0 0 2.473 1.07q3.854 1.145 7.553 2.52a15.763 15.763 0 0 0 12.661-.92l3.8-2.207 16.013 9.245-3.8 2.208c-2.45 1.424-4.75 4.235-1.538 7.341a56.147 56.147 0 0 1 4.368 4.362 8.529 8.529 0 0 0 1.856 1.43c3.076 1.776 7.176 1.862 9.92 1.435l5.195-.805 5.916 12.627-5.216.808c-3.356.526-7.766 2.29-7.654 5.897a33.16 33.16 0 0 1 .014 5.031c-.024 1.915 1.215 3.314 2.89 4.28a14.493 14.493 0 0 0 4.865 1.613l5.205.804-5.773 12.635-5.22-.812c-3.36-.517-8.708-.275-11.73 2.872a52.865 52.865 0 0 1-4.325 4.358c-3.17 3.103-.837 5.914 1.636 7.342Zm-106.81-18.82c16.133 9.314 42.215 9.305 58.236-.005 16.035-9.319 15.95-24.418-.183-33.732-16.132-9.314-42.207-9.319-58.242 0-16.02 9.31-15.943 24.422.19 33.736" class="colorf0f0f5 svgShape"></path><path fill="#cee1f4" d="m498.249 850.498-.077 27.224-21.825-3.381.077-27.224 21.825 3.381z" class="colorced2f4 svgShape"></path><path fill="#e0e5eb" d="M554.484 769.286c-22.709-13.11-59.406-13.119-81.982 0-10.742 6.243-16.33 14.338-16.796 22.52.44 8.282 6.12 16.495 17.064 22.813 22.708 13.11 59.413 13.098 81.967-.008 10.754-6.25 16.346-14.344 16.811-22.524-.44-8.277-6.122-16.483-17.064-22.8Zm-11.851 38.336c-15.91 9.245-41.81 9.254-57.83.004-7.58-4.376-11.586-10.042-12.023-15.776.453-5.665 4.395-11.248 11.834-15.571 15.923-9.254 41.817-9.25 57.838 0 7.58 4.376 11.586 10.039 12.024 15.771-.453 5.663-4.398 11.245-11.843 15.572Z" class="colore0e0eb svgShape"></path><path fill="url(#aD)" d="M472.502 769.287c22.576-13.12 59.273-13.112 81.982 0 10.936 6.313 16.617 14.515 17.064 22.787.52-8.999-5.165-18.102-17.064-24.972-22.709-13.111-59.406-13.12-81.982 0-11.69 6.794-17.274 15.78-16.795 24.687.473-8.177 6.06-16.264 16.795-22.502Z"></path><path fill="#ff5ae1" d="m1329.24 439.557-135.266-78.095v-91.723l135.266 78.094v91.724z" class="colorff5a72 svgShape"></path><path fill="#6db6ff" d="m1329.24 347.833-135.266-78.094 6.683-3.855 135.265 78.093-6.682 3.856z" class="colorffaf6d svgShape"></path><path fill="#ff6ae4" d="M1193.974 269.739v12.757l67.634 82.757 67.632-4.662v-12.758l-135.266-78.094z" class="colorff826a svgShape"></path><path fill="#e33cc5" d="m1335.922 435.703-6.682 3.854v-78.966l6.682-3.855v78.967z" class="colore33c5c svgShape"></path><path fill="#ff5ae1" d="m1335.922 356.736-6.682 3.855v-12.758l6.682-3.856v12.759z" class="colorff5a72 svgShape"></path></g></g></g></svg>