<svg xmlns="http://www.w3.org/2000/svg" xmlns:xlink="http://www.w3.org/1999/xlink" viewBox="0 0 1251.444 1137.293" id="Businessbuildingsandskyscrapers"><defs><linearGradient id="a" x1="57.05" x2="111.109" y1="593.014" y2="686.648" gradientUnits="userSpaceOnUse"><stop offset="0" stop-color="#ffffff" class="stopColorffffff svgShape"></stop><stop offset="1" stop-color="#857dfb" class="stopColor807dfb svgShape"></stop></linearGradient><linearGradient id="b" x1="28.425" x2="136.282" y1="638.834" y2="638.834" gradientUnits="userSpaceOnUse"><stop offset="0" stop-color="#ffffff" class="stopColorffffff svgShape"></stop><stop offset="1" stop-color="#cee3f8" class="stopColorced3f8 svgShape"></stop></linearGradient><linearGradient id="l" x1="-308.204" x2="-254.144" y1="419.863" y2="513.497" gradientTransform="rotate(180 290.227 777.715)" xlink:href="#a"></linearGradient><linearGradient id="m" x1="-336.829" x2="-228.972" y1="465.683" y2="465.683" gradientTransform="rotate(180 290.227 777.715)" xlink:href="#b"></linearGradient><linearGradient id="n" x1="189.079" x2="243.138" y1="419.862" y2="513.497" gradientTransform="matrix(1 0 0 -1 314.258 1555.429)" xlink:href="#a"></linearGradient><linearGradient id="o" x1="160.454" x2="268.311" y1="465.683" y2="465.683" gradientTransform="matrix(1 0 0 -1 314.258 1555.429)" xlink:href="#b"></linearGradient><linearGradient id="p" x1="1424.877" x2="1478.937" y1="721.845" y2="815.48" gradientTransform="matrix(-1 0 0 1 2536.683 0)" xlink:href="#a"></linearGradient><linearGradient id="q" x1="1396.253" x2="1504.11" y1="767.666" y2="767.666" gradientTransform="matrix(-1 0 0 1 2536.683 0)" xlink:href="#b"></linearGradient><linearGradient id="c" x1="877.068" x2="1225.444" y1="732.401" y2="732.401" gradientUnits="userSpaceOnUse"><stop offset="0" stop-color="#cfe0f1" class="stopColorcfd5f1 svgShape"></stop><stop offset="1" stop-color="#ffffff" class="stopColorffffff svgShape"></stop></linearGradient><linearGradient id="r" x1="695.409" x2="1116.437" y1="832.852" y2="832.852" xlink:href="#c"></linearGradient><linearGradient id="s" x1="428.658" x2="726.778" y1="458.128" y2="458.128" gradientUnits="userSpaceOnUse"><stop offset="0" stop-color="#cfe0f1" class="stopColorcfd5f1 svgShape"></stop><stop offset=".251" stop-color="#dfeaf6" class="stopColordfe3f6 svgShape"></stop><stop offset=".713" stop-color="#f6f9fc" class="stopColorf6f7fc svgShape"></stop><stop offset="1" stop-color="#ffffff" class="stopColorffffff svgShape"></stop></linearGradient><linearGradient id="t" x1="175.424" x2="391.037" y1="547.212" y2="547.212" xlink:href="#c"></linearGradient><linearGradient id="u" x1="356.492" x2="685.444" y1="640.866" y2="640.866" xlink:href="#c"></linearGradient><linearGradient id="e" x1="356.491" x2="415.296" y1="346.203" y2="346.203" gradientUnits="userSpaceOnUse"><stop offset="0" stop-color="#d1e0f0" class="stopColord1d6f0 svgShape"></stop><stop offset=".98" stop-color="#ffffff" class="stopColorffffff svgShape"></stop></linearGradient><linearGradient id="v" x1="951.822" x2="1251.444" y1="426.866" y2="426.866" xlink:href="#c"></linearGradient><linearGradient id="d" x1="855.896" x2="1052.993" y1="363.547" y2="363.547" gradientUnits="userSpaceOnUse"><stop offset="0" stop-color="#cee3f8" class="stopColorced3f8 svgShape"></stop><stop offset="1" stop-color="#a3b9d0" class="stopColora3a9d0 svgShape"></stop></linearGradient><linearGradient id="w" x1="954.446" x2="1039.444" y1="232.78" y2="232.78" xlink:href="#c"></linearGradient><linearGradient id="x" x1="954.446" x2="986.694" y1="194.368" y2="194.368" xlink:href="#c"></linearGradient><linearGradient id="y" x1="650.731" x2="1030.476" y1="552.89" y2="552.89" xlink:href="#c"></linearGradient><linearGradient id="z" x1="649.346" x2="703.194" y1="67.939" y2="67.939" gradientUnits="userSpaceOnUse"><stop offset="0" stop-color="#cfe0f1" class="stopColorcfd5f1 svgShape"></stop><stop offset=".509" stop-color="#eaf1f9" class="stopColoreaecf9 svgShape"></stop><stop offset="1" stop-color="#ffffff" class="stopColorffffff svgShape"></stop></linearGradient><linearGradient id="A" x1="632.476" x2="668.983" y1="62.688" y2="62.688" gradientUnits="userSpaceOnUse"><stop offset="0" stop-color="#fc06cf" class="stopColorfcba06 svgShape"></stop><stop offset="1" stop-color="#dc00b4" class="stopColordc8b00 svgShape"></stop></linearGradient><linearGradient id="B" x1="650.732" x2="668.984" y1="45.646" y2="45.646" xlink:href="#c"></linearGradient><linearGradient id="C" x1="649.347" x2="652.117" y1="23.975" y2="23.975" xlink:href="#d"></linearGradient><linearGradient id="D" x1="480.112" x2="843.714" y1="717.578" y2="717.578" xlink:href="#c"></linearGradient><linearGradient id="E" x1="490.568" x2="549.044" y1="521.92" y2="521.92" xlink:href="#e"></linearGradient><linearGradient id="F" x1="1015.429" x2="1217.444" y1="625.345" y2="625.345" xlink:href="#c"></linearGradient><linearGradient id="G" x1="1148.673" x2="1249.626" y1="620.366" y2="620.366" gradientUnits="userSpaceOnUse"><stop offset="0" stop-color="#cfe0f1" class="stopColorcfd5f1 svgShape"></stop><stop offset=".283" stop-color="#e1ebf6" class="stopColore1e5f6 svgShape"></stop><stop offset=".719" stop-color="#f7fafd" class="stopColorf7f8fd svgShape"></stop><stop offset="1" stop-color="#ffffff" class="stopColorffffff svgShape"></stop></linearGradient><linearGradient id="H" x1="1109.468" x2="1187.875" y1="578.968" y2="578.968" gradientUnits="userSpaceOnUse"><stop offset="0" stop-color="#dae7f5" class="stopColordae0f5 svgShape"></stop><stop offset=".136" stop-color="#e1ecf7" class="stopColore1e6f7 svgShape"></stop><stop offset=".662" stop-color="#f7fafd" class="stopColorf7f8fd svgShape"></stop><stop offset="1" stop-color="#ffffff" class="stopColorffffff svgShape"></stop></linearGradient><linearGradient id="I" x1="695.998" x2="728.264" y1="328.983" y2="328.983" xlink:href="#e"></linearGradient><linearGradient id="J" x1="846.176" x2="884.349" y1="898.428" y2="898.428" gradientUnits="userSpaceOnUse"><stop offset=".365" stop-color="#e100b8" class="stopColore19100 svgShape"></stop><stop offset="1" stop-color="#dc00b4" class="stopColordc8b00 svgShape"></stop></linearGradient><linearGradient id="L" x1="869.004" x2="933.397" y1="857.917" y2="857.917" gradientUnits="userSpaceOnUse"><stop offset="0" stop-color="#5a52cc" class="stopColor5652cc svgShape"></stop><stop offset=".444" stop-color="#453eac" class="stopColor433eac svgShape"></stop><stop offset=".708" stop-color="#363096" class="stopColor373096 svgShape"></stop><stop offset="1" stop-color="#342e94" class="stopColor362e94 svgShape"></stop></linearGradient><linearGradient id="M" x1="891.939" x2="908.213" y1="862.434" y2="834.248" gradientUnits="userSpaceOnUse"><stop offset="0" stop-color="#5a52cc" class="stopColor5652cc svgShape"></stop><stop offset="1" stop-color="#342e94" class="stopColor362e94 svgShape"></stop></linearGradient><linearGradient id="N" x1="682.681" x2="828.736" y1="993.464" y2="993.464" gradientUnits="userSpaceOnUse"><stop offset="0" stop-color="#c4d6e9" class="stopColorc4cae9 svgShape"></stop><stop offset=".241" stop-color="#d5e2f0" class="stopColord5daf0 svgShape"></stop><stop offset=".726" stop-color="#f4f7fb" class="stopColorf4f5fb svgShape"></stop><stop offset="1" stop-color="#ffffff" class="stopColorffffff svgShape"></stop></linearGradient><linearGradient id="O" x1="686.992" x2="708.232" y1="902.938" y2="939.728" gradientUnits="userSpaceOnUse"><stop offset="0" stop-color="#fc06cf" class="stopColorfcba06 svgShape"></stop><stop offset=".403" stop-color="#1e8dfd" class="stopColorfdc31e svgShape"></stop><stop offset="1" stop-color="#3e9eff" class="stopColorffd03e svgShape"></stop></linearGradient><linearGradient id="P" x1="324.364" x2="390.442" y1="850.358" y2="964.809" gradientTransform="matrix(-1 0 0 1 1032 0)" gradientUnits="userSpaceOnUse"><stop offset=".337" stop-color="#3e9eff" class="stopColorffd03e svgShape"></stop><stop offset=".509" stop-color="#359aff" class="stopColorffcc35 svgShape"></stop><stop offset=".788" stop-color="#1d8dfd" class="stopColorfdc31d svgShape"></stop><stop offset="1" stop-color="#fc06cf" class="stopColorfcba06 svgShape"></stop></linearGradient><linearGradient id="R" x1="818.187" x2="814.679" y1="712.067" y2="723.732" gradientTransform="matrix(-1 0 0 1 1034.404 0)" gradientUnits="userSpaceOnUse"><stop offset=".173" stop-color="#3e9eff" class="stopColorffd03e svgShape"></stop><stop offset=".474" stop-color="#2d95fe" class="stopColorfec92d svgShape"></stop><stop offset="1" stop-color="#fc06cf" class="stopColorfcba06 svgShape"></stop></linearGradient><linearGradient id="S" x1="270.605" x2="306.895" y1="756.384" y2="756.384" gradientUnits="userSpaceOnUse"><stop offset=".137" stop-color="#e100b8" class="stopColore19100 svgShape"></stop><stop offset=".483" stop-color="#cc00a7" class="stopColorcc7c00 svgShape"></stop></linearGradient><linearGradient id="T" x1="734.494" x2="797.519" y1="727.75" y2="727.75" gradientTransform="matrix(-1 0 0 1 1034.404 0)" gradientUnits="userSpaceOnUse"><stop offset="0" stop-color="#5a52ca" class="stopColor5652ca svgShape"></stop><stop offset=".444" stop-color="#453eaa" class="stopColor433eaa svgShape"></stop><stop offset=".708" stop-color="#363094" class="stopColor373094 svgShape"></stop><stop offset="1" stop-color="#342e92" class="stopColor362e92 svgShape"></stop></linearGradient><linearGradient id="U" x1="756.942" x2="772.87" y1="732.171" y2="704.584" gradientTransform="matrix(-1 0 0 1 1034.404 0)" gradientUnits="userSpaceOnUse"><stop offset="0" stop-color="#5a52ca" class="stopColor5652ca svgShape"></stop><stop offset="1" stop-color="#342e92" class="stopColor362e92 svgShape"></stop></linearGradient><linearGradient id="V" x1="473.571" x2="376.008" y1="126.557" y2="69.888" gradientUnits="userSpaceOnUse"><stop offset="0" stop-color="#e100b8" class="stopColore19100 svgShape"></stop><stop offset=".403" stop-color="#f020ca" class="stopColorf0b120 svgShape"></stop><stop offset=".768" stop-color="#3698fb" class="stopColorfbc836 svgShape"></stop><stop offset="1" stop-color="#3e9eff" class="stopColorffd03e svgShape"></stop></linearGradient><linearGradient id="W" x1="-65.608" x2="-163.171" y1="487.606" y2="430.937" gradientTransform="matrix(-1 0 0 1 388.213 0)" gradientUnits="userSpaceOnUse"><stop offset="0" stop-color="#3e9eff" class="stopColorffd03e svgShape"></stop><stop offset=".232" stop-color="#3698fb" class="stopColorfbc836 svgShape"></stop><stop offset=".597" stop-color="#f020ca" class="stopColorf0b120 svgShape"></stop><stop offset="1" stop-color="#e100b8" class="stopColore19100 svgShape"></stop></linearGradient><linearGradient id="X" x1="919.854" x2="830.761" y1="305.454" y2="185.982" gradientUnits="userSpaceOnUse"><stop offset="0" stop-color="#5a52cc" class="stopColor5652cc svgShape"></stop><stop offset="1" stop-color="#857dfb" class="stopColor807dfb svgShape"></stop></linearGradient><linearGradient id="Y" x1="258.728" x2="169.635" y1="425.182" y2="305.71" gradientTransform="matrix(-1 0 0 1 356.699 0)" gradientUnits="userSpaceOnUse"><stop offset="0" stop-color="#857dfb" class="stopColor807dfb svgShape"></stop><stop offset="1" stop-color="#5a52cc" class="stopColor5652cc svgShape"></stop></linearGradient><linearGradient id="f" x1="306.118" x2="361.589" y1="887.502" y2="887.502" gradientUnits="userSpaceOnUse"><stop offset="0" stop-color="#c2d2e3" class="stopColorc2c7e3 svgShape"></stop><stop offset=".267" stop-color="#d7e2ed" class="stopColord7daed svgShape"></stop><stop offset=".703" stop-color="#f4f6f8" class="stopColorf4f5fa svgShape"></stop><stop offset=".953" stop-color="#ffffff" class="stopColorffffff svgShape"></stop></linearGradient><linearGradient id="g" x1="274.895" x2="326.404" y1="862.288" y2="832.549" gradientUnits="userSpaceOnUse"><stop offset="0" stop-color="#716ade" class="stopColor6b6ade svgShape"></stop><stop offset=".355" stop-color="#514bb0" class="stopColor4c4bb0 svgShape"></stop><stop offset=".787" stop-color="#2e297e" class="stopColor2b297e svgShape"></stop><stop offset="1" stop-color="#6b1c6b" class="stopColor1e1c6b svgShape"></stop></linearGradient><linearGradient id="h" x1="278.759" x2="323.9" y1="842.694" y2="816.633" gradientUnits="userSpaceOnUse"><stop offset="0" stop-color="#716ade" class="stopColor6b6ade svgShape"></stop><stop offset=".666" stop-color="#3a348e" class="stopColor36348e svgShape"></stop><stop offset="1" stop-color="#6b1c6b" class="stopColor1e1c6b svgShape"></stop></linearGradient><linearGradient id="i" x1="281.743" x2="330.493" y1="809.061" y2="809.061" gradientUnits="userSpaceOnUse"><stop offset="0" stop-color="#857eef" class="stopColor7e7eef svgShape"></stop><stop offset=".329" stop-color="#6b64cd" class="stopColor6564cd svgShape"></stop><stop offset="1" stop-color="#37318b" class="stopColor34318b svgShape"></stop></linearGradient><linearGradient id="Z" x1="353.078" x2="408.549" y1="915.051" y2="915.051" xlink:href="#f"></linearGradient><linearGradient id="aa" x1="321.855" x2="373.363" y1="889.837" y2="860.098" xlink:href="#g"></linearGradient><linearGradient id="ab" x1="325.719" x2="370.859" y1="870.244" y2="844.182" xlink:href="#h"></linearGradient><linearGradient id="ac" x1="328.703" x2="377.453" y1="836.61" y2="836.61" xlink:href="#i"></linearGradient><linearGradient id="ad" x1="400.038" x2="455.508" y1="942.6" y2="942.6" xlink:href="#f"></linearGradient><linearGradient id="ae" x1="368.815" x2="420.323" y1="917.386" y2="887.647" xlink:href="#g"></linearGradient><linearGradient id="af" x1="372.679" x2="417.819" y1="897.793" y2="871.731" xlink:href="#h"></linearGradient><linearGradient id="ag" x1="375.663" x2="424.413" y1="864.159" y2="864.159" xlink:href="#i"></linearGradient><linearGradient id="ah" x1="446.998" x2="502.468" y1="970.149" y2="970.149" xlink:href="#f"></linearGradient><linearGradient id="ai" x1="415.774" x2="467.283" y1="944.935" y2="915.196" xlink:href="#g"></linearGradient><linearGradient id="aj" x1="419.639" x2="464.779" y1="925.342" y2="899.28" xlink:href="#h"></linearGradient><linearGradient id="ak" x1="422.623" x2="471.372" y1="891.708" y2="891.708" xlink:href="#i"></linearGradient><linearGradient id="al" x1="493.958" x2="549.428" y1="997.698" y2="997.698" xlink:href="#f"></linearGradient><linearGradient id="am" x1="462.734" x2="514.243" y1="972.484" y2="942.746" xlink:href="#g"></linearGradient><linearGradient id="an" x1="466.599" x2="511.739" y1="952.891" y2="926.829" xlink:href="#h"></linearGradient><linearGradient id="ao" x1="469.583" x2="518.332" y1="919.257" y2="919.257" xlink:href="#i"></linearGradient><linearGradient id="j" x1="1071.47" x2="1138.463" y1="948.012" y2="948.012" gradientUnits="userSpaceOnUse"><stop offset="0" stop-color="#c2d2e3" class="stopColorc2c7e3 svgShape"></stop><stop offset=".101" stop-color="#c9d7e6" class="stopColorc9cee6 svgShape"></stop><stop offset=".691" stop-color="#f0f4f8" class="stopColorf0f1f8 svgShape"></stop><stop offset="1" stop-color="#ffffff" class="stopColorffffff svgShape"></stop></linearGradient><linearGradient id="ap" x1="932.536" x2="999.529" y1="997.85" y2="997.85" xlink:href="#j"></linearGradient><radialGradient id="k" cx="1054.855" cy="878.084" r="51.036" gradientUnits="userSpaceOnUse"><stop offset="0" stop-color="#857eef" class="stopColor7e7eef svgShape"></stop><stop offset="1" stop-color="#37318b" class="stopColor34318b svgShape"></stop></radialGradient><radialGradient id="aq" cx="915.921" cy="927.921" r="51.036" xlink:href="#k"></radialGradient><clipPath id="K"><path fill="none" d="M893.252 883.118c-2.917 1.683-14.438 9.746-24.06 11.922a14.172 14.172 0 0 1-10.126-1.032l-5.008-2.891s-1.752-.974-4.986-2.877c-1.705-1.005-2.5-4.65-.715-9.365-1.633 3.133-2.205 8.937-2.205 8.937-.207 3.09.923 6.775 2.944 7.952 3.243 1.887 4.962 2.825 4.962 2.825l5.008 2.892c5.467 3.157 16.226 1.625 22.965-2.265l1.774-1.025c.726-4.338 3.85-9.038 7.532-11.056a7.825 7.825 0 0 1 2.112-.81 14.189 14.189 0 0 0-.197-3.207Z"></path></clipPath><clipPath id="Q"><path fill="none" d="m288.149 751.158 15.185-8.767c3.777-2.181 3.11-6.495 2.056-8.276 1.124 1.899 2.286 6.628 1.594 11.29-.098 1.625-.977 3.612-3.65 5.156l-15.185 8.767c-3.285 1.897-10.48 3.364-13.689 1.512v-9.415c3.209 1.852 10.404 1.63 13.689-.267Z"></path></clipPath></defs><g style="isolation:isolate" fill="#010001" class="color000000 svgShape"><g fill="#010001" class="color000000 svgShape"><path fill="url(#a)" d="M108.12 688.374 0 625.951l60.039-34.663 108.12 62.422-60.039 34.664z"></path><path fill="url(#b)" d="m28.425 609.292 15.841 9.145 2.759-1.593-15.841-9.145Zm22.314 12.883 15.841 9.145 2.76-1.592-15.842-9.146Zm22.315 12.883 15.84 9.146 2.76-1.593-15.841-9.146Zm22.314 12.883 15.84 9.146 2.76-1.593-15.841-9.146Zm25.073 11.29-2.759 1.593 15.841 9.146 2.76-1.593Z"></path><path fill="url(#l)" d="m837.589 1040.206 108.12 62.423-60.04 34.664-108.119-62.423 60.039-34.664z"></path><path fill="url(#m)" d="m917.283 1119.288-15.84-9.145-2.76 1.592 15.841 9.146Zm-22.314-12.883-15.84-9.146-2.76 1.593 15.841 9.146Zm-22.314-12.883-15.841-9.146-2.76 1.593 15.842 9.146Zm-22.314-12.883-15.841-9.146-2.76 1.593 15.842 9.146Zm-25.074-11.29 2.76-1.593-15.842-9.146-2.759 1.593Z"></path><path fill="url(#n)" d="m554.407 1040.206-108.12 62.423 60.039 34.664 108.12-62.423-60.039-34.664z"></path><path fill="url(#o)" d="m477.471 1120.881 15.841-9.146-2.759-1.592-15.84 9.145Zm22.314-12.883 15.841-9.146-2.759-1.593-15.84 9.146Zm22.315-12.883 15.84-9.146-2.758-1.593-15.841 9.146Zm22.314-12.883 15.841-9.146-2.759-1.593-15.841 9.146Zm38.155-22.03-2.759-1.592-15.84 9.146 2.758 1.592Z"></path><path fill="url(#p)" d="m1060.735 817.206 108.12-62.423-60.04-34.664-108.119 62.423 60.039 34.664z"></path><path fill="url(#q)" d="m1137.67 736.53-15.84 9.146 2.759 1.593 15.84-9.146Zm-22.314 12.884-15.84 9.145 2.758 1.593 15.841-9.145Zm-22.314 12.883-15.841 9.146 2.759 1.592 15.841-9.145Zm-22.314 12.883-15.841 9.146 2.759 1.593 15.84-9.146Zm-38.156 22.029 2.76 1.593 15.84-9.146-2.759-1.593Z"></path><path fill="#f4f6f8" d="m837.589 1040.206-75.934-43.84c-3.103-1.792-3.103-4.696 0-6.488l75.933-43.84-60.04-34.664-75.933 43.84a12.418 12.418 0 0 1-11.236 0l-75.934-43.84-60.039 34.664 75.934 43.84c3.103 1.791 3.103 4.696 0 6.487l-75.933 43.84 60.04 34.664 75.932-43.84a12.42 12.42 0 0 1 11.237 0l75.934 43.84Z" class="color807dfb svgShape"></path><path fill="#cee3f8" d="m655.985 968.428 15.841 9.145-2.759 1.593-15.841-9.145 2.759-1.593zM633.671 955.545l15.841 9.145-2.759 1.593-15.841-9.146 2.759-1.592zM611.356 942.661l15.841 9.146-2.759 1.593-15.841-9.146 2.759-1.593zM589.042 929.778l15.841 9.146-2.759 1.593-15.841-9.146 2.759-1.593zM738.769 1016.223l-15.841-9.146-2.759 1.593 15.841 9.146 2.759-1.593zM761.083 1029.106l-15.841-9.146-2.759 1.593 15.841 9.146 2.759-1.593zM783.398 1041.989l-15.841-9.145-2.759 1.593 15.841 9.145 2.759-1.593zM805.712 1054.873l-15.841-9.146-2.759 1.593 15.841 9.145 2.759-1.592zM716.455 1003.34l-17.698-10.218 17.698-10.218-2.76-1.593-17.697 10.218-17.699-10.218-2.759 1.593 17.698 10.218-17.697 10.218 2.759 1.593 17.698-10.218 17.698 10.218 2.759-1.593zM738.769 970.021l-15.841 9.145-2.759-1.592 15.841-9.146 2.759 1.593zM761.083 957.138l-15.841 9.145-2.759-1.593 15.841-9.145 2.759 1.593zM783.397 944.255l-15.841 9.145-2.759-1.593 15.841-9.145 2.759 1.593zM805.711 931.372l-15.841 9.145-2.759-1.593 15.841-9.145 2.759 1.593zM655.985 1017.816l15.841-9.146-2.759-1.593-15.841 9.146 2.759 1.593zM633.671 1030.699l15.841-9.146-2.759-1.593-15.841 9.146 2.759 1.593zM611.357 1043.582l15.841-9.146-2.759-1.593-15.841 9.146 2.759 1.593zM589.043 1056.465l15.841-9.146-2.759-1.593-15.841 9.146 2.759 1.593z" class="colorced3f8 svgShape"></path><path fill="#f4f6f8" d="M554.406 946.038 331.263 817.206l60.039-34.664 223.143 128.832-60.039 34.664z" class="color807dfb svgShape"></path><path fill="#cee3f8" d="m477.47 865.362 15.841 9.146-2.759 1.593-15.841-9.146 2.759-1.593zM455.156 852.479l15.841 9.146-2.759 1.593-15.841-9.146 2.759-1.593zM432.842 839.596l15.841 9.146-2.759 1.593-15.841-9.146 2.759-1.593zM410.527 826.713l15.841 9.145-2.759 1.593-15.841-9.145 2.759-1.593zM388.213 813.83l15.841 9.145-2.759 1.593-15.841-9.146 2.759-1.592zM365.899 800.946l15.841 9.146-2.759 1.593-15.841-9.146 2.759-1.593zM515.626 887.391l-15.841-9.146-2.759 1.593 15.841 9.146 2.759-1.593zM537.94 900.274l-15.841-9.145-2.759 1.593 15.841 9.145 2.759-1.593zM560.254 913.158l-15.841-9.146-2.759 1.593 15.841 9.145 2.759-1.592zM582.569 926.041l-15.841-9.146-2.759 1.593 15.841 9.146 2.759-1.593z" class="colorced3f8 svgShape"></path><path fill="#f4f6f8" d="M331.263 817.206 108.12 688.374l60.039-34.664 223.143 128.832-60.039 34.664z" class="color807dfb svgShape"></path><path fill="#cee3f8" d="m254.327 736.53 15.841 9.146-2.759 1.593-15.841-9.146 2.759-1.593zM232.013 723.647l15.841 9.146-2.759 1.593-15.841-9.146 2.759-1.593zM209.699 710.764l15.84 9.146-2.759 1.593-15.84-9.146 2.759-1.593zM187.384 697.881l15.841 9.146-2.759 1.593-15.841-9.146 2.759-1.593zM165.07 684.998l15.841 9.146-2.759 1.592-15.841-9.145 2.759-1.593zM142.756 672.115l15.84 9.145-2.759 1.593-15.84-9.145 2.759-1.593zM292.482 758.559l-15.84-9.145-2.759 1.593 15.84 9.145 2.759-1.593zM314.797 771.443l-15.841-9.146-2.759 1.593 15.841 9.145 2.759-1.592zM337.111 784.326l-15.841-9.146-2.759 1.593 15.841 9.146 2.759-1.593zM359.425 797.209l-15.841-9.146-2.759 1.593 15.841 9.146 2.759-1.593z" class="colorced3f8 svgShape"></path><path fill="#f4f6f8" d="m837.592 946.038 223.143-128.832-60.039-34.664-223.144 128.832 60.04 34.664z" class="color807dfb svgShape"></path><path fill="#cee3f8" d="m914.527 865.362-15.84 9.146 2.759 1.593 15.84-9.146-2.759-1.593zM936.842 852.479l-15.841 9.146 2.759 1.593 15.841-9.146-2.759-1.593zM959.156 839.596l-15.841 9.146 2.759 1.593 15.841-9.146-2.759-1.593zM981.47 826.713l-15.841 9.145 2.759 1.593 15.841-9.145-2.759-1.593zM1003.785 813.83l-15.841 9.145 2.759 1.593 15.841-9.146-2.759-1.592zM1026.099 800.946l-15.841 9.146 2.759 1.593 15.841-9.146-2.759-1.593zM876.372 887.391l15.841-9.146 2.759 1.593-15.841 9.146-2.759-1.593zM854.058 900.274l15.841-9.145 2.759 1.593-15.841 9.145-2.759-1.593zM831.744 913.158l15.84-9.146 2.759 1.593-15.84 9.145-2.759-1.592zM809.429 926.041l15.841-9.146 2.759 1.593-15.841 9.146-2.759-1.593z" class="colorced3f8 svgShape"></path></g><g fill="#010001" class="color000000 svgShape"><path style="mix-blend-mode:multiply" fill="url(#c)" d="M877.068 664.991h348.377v134.82H877.068z" data-name="Shadow from 2"></path><path style="mix-blend-mode:multiply" fill="url(#r)" d="M695.409 761.693h421.028v142.319H695.409z" data-name="Shadow from 1"></path><g data-name="10" fill="#010001" class="color000000 svgShape"><path style="mix-blend-mode:multiply" fill="url(#s)" d="M726.778 458.128h-.001l-49.003-28.292-249.116-.001 49.004 28.293-49.004 28.292h249.116l49.003-28.292h.001z"></path><path fill="#bbd0e6" d="m428.658 486.42.001-230.323 49.521-28.592v230.322l-49.522 28.593z" class="colorbbc0e6 svgShape"></path><path fill="#cee3f8" d="M379.137 457.828V227.507l49.521 28.591V486.42l-49.521-28.592z" class="colorced3f8 svgShape"></path><path fill="#dae7f5" d="m428.658 256.098.001-80.916-49.522 52.325 49.521 28.591z" class="colordae0f5 svgShape"></path><path fill="#c4d6e9" d="m478.18 227.505-49.521-52.323v80.915l49.521-28.592z" class="colorc4cae9 svgShape"></path><g style="mix-blend-mode:multiply" fill="#010001" class="color000000 svgShape"><path fill="#dae7f5" d="m457.819 270.267-8.799 5.08v-9.262l8.799-5.08v9.262zM457.819 291.307l-8.799 5.08v-9.262l8.799-5.08v9.262zM457.819 312.348l-8.799 5.08v-9.263l8.799-5.079v9.262zM457.819 333.388l-8.799 5.08v-9.262l8.799-5.08v9.262zM457.819 354.429l-8.799 5.079v-9.261l8.799-5.08v9.262zM457.819 375.469l-8.799 5.08v-9.262l8.799-5.08v9.262zM457.819 398.105l-8.799 5.08v-9.262l8.799-5.08v9.262zM457.819 419.145l-8.799 5.08v-9.262l8.799-5.08v9.262zM457.819 440.186l-8.799 5.08v-9.262l8.799-5.08v9.262z" class="colordae0f5 svgShape"></path></g><g style="mix-blend-mode:multiply" fill="#010001" class="color000000 svgShape"><path fill="#dae7f5" d="m399.498 270.267 8.799 5.08v-9.262l-8.799-5.08v9.262zM399.498 291.307l8.799 5.08v-9.262l-8.799-5.08v9.262zM399.498 312.348l8.799 5.08v-9.263l-8.799-5.079v9.262zM399.498 333.388l8.799 5.08v-9.262l-8.799-5.08v9.262zM399.498 354.429l8.799 5.079v-9.261l-8.799-5.08v9.262zM399.498 375.469l8.799 5.08v-9.262l-8.799-5.08v9.262zM399.498 398.105l8.799 5.08v-9.262l-8.799-5.08v9.262zM399.498 419.145l8.799 5.08v-9.262l-8.799-5.08v9.262zM399.498 440.186l8.799 5.08v-9.262l-8.799-5.08v9.262z" class="colordae0f5 svgShape"></path></g></g><g data-name="9" fill="#010001" class="color000000 svgShape"><path style="mix-blend-mode:multiply" fill="url(#t)" d="M391.036 547.212h.001-.001l-98.006-56.583-117.606-.001 98.007 56.584-98.007 56.585 117.606-.001 98.006-56.583h.001l-.001-.001z"></path><path fill="#cee3f8" d="m175.424 603.797-98.006-56.584v-67.9l98.006 56.582v67.902z" class="colorced3f8 svgShape"></path><path fill="#bbd0e6" d="m273.431 547.213-98.007 56.584.002-67.9 98.006-56.584-.001 67.9z" class="colorbbc0e6 svgShape"></path><path fill="#f6f8fb" d="m273.431 479.313-98.007-56.584-98.005 56.584 98.007 56.584 98.005-56.584z" class="colorf6f6fb svgShape"></path><g style="mix-blend-mode:multiply" fill="#010001" class="color000000 svgShape"><path fill="#d8e5f3" d="m197.111 591.176-8.59 4.962v-48.635l8.59-4.955v48.628zM218.685 578.72l-8.589 4.962v-48.634l8.589-4.956v48.628zM240.259 566.264l-8.589 4.962v-48.634l8.589-4.956v48.628zM261.834 553.809l-8.59 4.961v-48.634l8.59-4.955v48.628zM153.74 591.176l8.589 4.962v-48.635l-8.589-4.955v48.628zM132.165 578.72l8.59 4.962v-48.634l-8.59-4.956v48.628zM110.591 566.264l8.59 4.962v-48.634l-8.59-4.956v48.628zM89.017 553.809l8.59 4.961v-48.634l-8.59-4.955v48.628z" class="colord8def3 svgShape"></path></g></g><g data-name="8" fill="#010001" class="color000000 svgShape"><path style="mix-blend-mode:multiply" fill="url(#u)" d="M685.444 573.396H356.492l116.862 67.471-116.862 67.469h328.952v-134.94z"></path><path fill="#cee3f8" d="m238.885 640.436-.001-135.802 117.607 67.902.001 135.8-117.607-67.9z" class="colorced3f8 svgShape"></path><path fill="#b1c7dd" d="M356.492 708.336v-135.8l117.608-67.9v135.8l-117.608 67.9z" class="colorb1b7dd svgShape"></path><path fill="#dcdfe2" d="m356.491 425.419-137.208 79.217 137.21 79.22 137.208-79.22Zm.001 147.117-117.608-67.9 117.607-67.9 117.609 67.9Z" class="colordce1e2 svgShape"></path><path fill="#cee3f8" d="M219.284 504.636v-135.8l137.208 79.22v135.799l-137.208-79.219z" class="colorced3f8 svgShape"></path><path fill="#bbd0e6" d="M356.492 583.855V448.056l137.211-79.22v135.8l-137.211 79.219z" class="colorbbc0e6 svgShape"></path><path fill="#f6f8fb" d="m356.491 289.619-137.208 79.217 137.21 79.22 137.208-79.22Zm.001 147.12-117.608-67.903 117.607-67.9 117.609 67.9Z" class="colorf6f6fb svgShape"></path><path fill="#bbd0e6" d="m238.886 523.425-.001-7.471 117.607 67.901.001 7.47-117.607-67.9z" class="colorbbc0e6 svgShape"></path><path fill="#f6f8fb" d="m356.491 278.304-117.607 67.899 117.608 67.902 117.608-67.9Zm0 91.665-41.162-23.766 41.162-23.766 41.164 23.766Z" class="colorf6f6fb svgShape"></path><path fill="#cee3f8" d="M238.885 368.836v-22.633l117.607 67.902v22.633l-117.607-67.902z" class="colorced3f8 svgShape"></path><path fill="#bbd0e6" d="M356.492 436.738v-22.633L474.1 346.203v22.633l-117.608 67.902z" class="colorbbc0e6 svgShape"></path><path style="mix-blend-mode:multiply" fill="url(#e)" d="M374.129 322.437h-17.638l41.167 23.764-41.167 23.768h17.638l41.167-23.768-41.167-23.764z"></path><path fill="#ffffff" d="m356.491 359.977-41.162-23.764 41.162-23.766 41.164 23.766-41.164 23.764z" class="colorffffff svgShape"></path><path fill="#f4f6f8" d="m356.491 369.969-41.162-23.766v-9.989l41.162 23.766v9.989z" class="color807dfb svgShape"></path><path fill="#5046e4" d="m397.655 346.203-41.164 23.766v-9.992l41.164-23.764v9.99z" class="color5652cc svgShape"></path><path d="M356.492 436.738h19.606l117.603-67.902L474.1 357.52v11.316l-117.608 67.902z" style="mix-blend-mode:multiply" fill="#dae7f5" class="colordae0f5 svgShape"></path><g style="mix-blend-mode:multiply" fill="#010001" class="color000000 svgShape"><path fill="#f4f6f8" d="m251.677 427.502-9.225-5.323v-10.652l9.225 5.323v10.652zM278.895 443.214l-9.228-5.324v-10.652l9.228 5.326v10.65zM306.112 458.928l-9.225-5.326V442.95l9.225 5.328v10.65zM333.324 474.642l-9.225-5.324v-10.654l9.225 5.328v10.65zM251.677 451.705l-9.225-5.329v-10.654l9.225 5.326v10.657zM278.895 467.416l-9.228-5.328V451.44l9.228 5.324v10.652zM306.112 483.128l-9.225-5.326v-10.65l9.225 5.322v10.654zM333.324 498.842l-9.225-5.328v-10.65l9.225 5.324v10.654zM251.677 475.9l-9.225-5.326v-10.652l9.225 5.326V475.9zM278.895 491.612l-9.228-5.324v-10.655l9.228 5.327v10.652zM306.112 507.325l-9.225-5.323v-10.654l9.225 5.326v10.651zM333.324 523.039l-9.225-5.328v-10.65l9.225 5.326v10.652zM251.677 500.1l-9.225-5.329v-10.65l9.225 5.324V500.1zM278.895 515.811l-9.228-5.326v-10.652l9.228 5.329v10.649zM306.112 531.525l-9.225-5.326v-10.652l9.225 5.324v10.654zM333.324 547.242l-9.225-5.329v-10.654l9.225 5.33v10.653z" class="color807dfb svgShape"></path></g><g style="mix-blend-mode:multiply" fill="#010001" class="color000000 svgShape"><path fill="#6f67e9" d="m461.308 427.502 9.224-5.323v-10.652l-9.224 5.323v10.652zM434.089 443.214l9.229-5.324v-10.652l-9.229 5.326v10.65zM406.873 458.928l9.224-5.326V442.95l-9.224 5.328v10.65zM379.661 474.642l9.224-5.324v-10.654l-9.224 5.328v10.65zM461.308 451.705l9.224-5.329v-10.654l-9.224 5.326v10.657zM434.089 467.416l9.229-5.328V451.44l-9.229 5.324v10.652zM406.873 483.128l9.224-5.326v-10.65l-9.224 5.322v10.654zM379.661 498.842l9.224-5.328v-10.65l-9.224 5.324v10.654zM461.308 475.9l9.224-5.326v-10.652l-9.224 5.326V475.9zM434.089 491.612l9.229-5.324v-10.655l-9.229 5.327v10.652zM406.873 507.325l9.224-5.323v-10.654l-9.224 5.326v10.651zM379.661 523.039l9.224-5.328v-10.65l-9.224 5.326v10.652zM461.308 500.1l9.224-5.329v-10.65l-9.224 5.324V500.1zM434.089 515.811l9.229-5.326v-10.652l-9.229 5.329v10.649zM406.873 531.525l9.224-5.326v-10.652l-9.224 5.324v10.654zM379.661 547.242l9.224-5.329v-10.654l-9.224 5.33v10.653z" class="color6b67e9 svgShape"></path></g></g><g data-name="7" fill="#010001" class="color000000 svgShape"><path style="mix-blend-mode:multiply" fill="url(#v)" d="M951.822 359.508h299.623v134.715H951.822z"></path><path fill="url(#d)" d="M855.896 232.834v204.531c.002 14.562 9.624 29.122 28.867 40.23 19.241 11.11 44.461 16.664 69.683 16.665 25.219 0 50.44-5.555 69.683-16.664 19.241-11.11 28.864-25.67 28.864-40.23V232.833Z"></path><path fill="#f6f8fb" d="M855.896 232.838c0-14.561 9.623-29.122 28.867-40.233 19.241-11.11 44.461-16.664 69.683-16.664 25.219 0 50.439 5.554 69.68 16.664 19.243 11.109 28.867 25.668 28.867 40.23.002 14.562-9.62 29.123-28.864 40.234-19.242 11.11-44.464 16.664-69.683 16.664-25.222-.001-50.442-5.555-69.683-16.664-19.243-11.11-28.865-25.67-28.867-40.23Z" class="colorf6f6fb svgShape"></path><path style="mix-blend-mode:multiply" fill="url(#w)" d="M1039.444 206.176h-84.998l46.079 26.604-46.079 26.604h84.998v-53.208z"></path><path fill="#ffffff" d="m954.446 168.377-45.978 26.545 45.978 26.546 45.977-26.546Z" class="colorffffff svgShape"></path><path fill="#cee3f8" d="m954.446 259.384-45.978-26.546V194.92l45.978 26.546v37.918z" class="colorced3f8 svgShape"></path><path fill="#bbd0e6" d="m1000.423 232.838-45.977 26.546v-37.916l45.977-26.546v37.916z" class="colorbbc0e6 svgShape"></path><path style="mix-blend-mode:multiply" fill="url(#x)" d="M954.446 192.301h32.249v4.134h-32.249z"></path><path fill="#f6f8fb" d="m954.446 155.37-2.624 1.515 2.624 1.515 2.623-1.515Z" class="colorf6f6fb svgShape"></path><path fill="#cee3f8" d="m954.446 196.435-2.624-1.515v-38.035l2.624 1.515v38.035z" class="colorced3f8 svgShape"></path><path fill="#bbd0e6" d="m957.069 194.92-2.623 1.515V158.4l2.623-1.515v38.035z" class="colorbbc0e6 svgShape"></path><g style="mix-blend-mode:multiply" fill="#010001" class="color000000 svgShape"><path fill="#d8e5f3" d="M946.111 461.466c-22.375-1.09-44.228-6.564-61.348-16.45-11.9-6.87-20.11-15.06-24.652-23.754v7.042c4.542 8.694 12.752 16.886 24.652 23.756 17.12 9.884 38.973 15.359 61.348 16.449ZM1048.78 421.26c-4.541 8.695-12.752 16.886-24.651 23.757-17.12 9.884-38.975 15.36-61.349 16.45v7.042c22.374-1.09 44.229-6.565 61.349-16.45 11.9-6.87 20.11-15.062 24.651-23.756Z" class="colord8def3 svgShape"></path><path fill="#d8e5f3" d="M946.111 445.133c-22.375-1.09-44.228-6.565-61.348-16.45-11.9-6.87-20.11-15.06-24.652-23.754v7.042c4.542 8.694 12.752 16.886 24.652 23.755 17.12 9.885 38.973 15.36 61.348 16.45ZM1048.78 404.928c-4.541 8.694-12.752 16.885-24.651 23.756-17.12 9.884-38.975 15.36-61.349 16.45v7.042c22.374-1.09 44.229-6.565 61.349-16.45 11.9-6.87 20.11-15.062 24.651-23.756Z" class="colord8def3 svgShape"></path><path fill="#d8e5f3" d="M946.111 428.8c-22.375-1.09-44.228-6.565-61.348-16.45-11.9-6.87-20.11-15.06-24.652-23.754v7.042c4.542 8.694 12.752 16.886 24.652 23.755 17.12 9.885 38.973 15.36 61.348 16.45ZM1048.78 388.595c-4.541 8.693-12.752 16.885-24.651 23.756-17.12 9.884-38.975 15.36-61.349 16.45v7.042c22.374-1.09 44.229-6.565 61.349-16.45 11.9-6.87 20.11-15.062 24.651-23.756Z" class="colord8def3 svgShape"></path><path fill="#d8e5f3" d="M946.111 412.467c-22.375-1.09-44.228-6.565-61.348-16.45-11.9-6.87-20.11-15.06-24.652-23.754v7.042c4.542 8.694 12.752 16.885 24.652 23.755 17.12 9.885 38.973 15.36 61.348 16.45ZM1048.78 372.261c-4.541 8.694-12.752 16.886-24.651 23.757-17.12 9.884-38.975 15.36-61.349 16.45v7.042c22.374-1.09 44.229-6.565 61.349-16.45 11.9-6.87 20.11-15.062 24.651-23.756Z" class="colord8def3 svgShape"></path><path fill="#d8e5f3" d="M946.111 396.134c-22.375-1.09-44.228-6.565-61.348-16.45-11.9-6.87-20.11-15.06-24.652-23.755v7.043c4.542 8.694 12.752 16.885 24.652 23.755 17.12 9.885 38.973 15.36 61.348 16.45ZM1048.78 355.928c-4.541 8.694-12.752 16.886-24.651 23.757-17.12 9.884-38.975 15.36-61.349 16.45v7.042c22.374-1.09 44.229-6.565 61.349-16.45 11.9-6.87 20.11-15.062 24.651-23.756Z" class="colord8def3 svgShape"></path><path fill="#d8e5f3" d="M946.111 379.801c-22.375-1.09-44.228-6.565-61.348-16.45-11.9-6.87-20.11-15.06-24.652-23.755v7.043c4.542 8.694 12.752 16.885 24.652 23.755 17.12 9.885 38.973 15.36 61.348 16.45ZM1048.78 339.595c-4.541 8.694-12.752 16.886-24.651 23.757-17.12 9.884-38.975 15.36-61.349 16.45v7.042c22.374-1.09 44.229-6.565 61.349-16.45 11.9-6.87 20.11-15.062 24.651-23.756Z" class="colord8def3 svgShape"></path><path fill="#d8e5f3" d="M946.111 363.468c-22.375-1.09-44.228-6.565-61.348-16.45-11.9-6.87-20.11-15.06-24.652-23.755v7.043c4.542 8.694 12.752 16.885 24.652 23.755 17.12 9.885 38.973 15.36 61.348 16.45ZM1048.78 323.262c-4.541 8.694-12.752 16.886-24.651 23.757-17.12 9.884-38.975 15.36-61.349 16.45v7.042c22.374-1.09 44.229-6.565 61.349-16.45 11.9-6.87 20.11-15.062 24.651-23.756Z" class="colord8def3 svgShape"></path><path fill="#d8e5f3" d="M946.111 347.135c-22.375-1.09-44.228-6.565-61.348-16.45-11.9-6.87-20.11-15.06-24.652-23.755v7.043c4.542 8.694 12.752 16.885 24.652 23.755 17.12 9.885 38.973 15.36 61.348 16.45ZM1048.78 306.93c-4.541 8.693-12.752 16.885-24.651 23.756-17.12 9.884-38.975 15.36-61.349 16.45v7.042c22.374-1.09 44.229-6.565 61.349-16.45 11.9-6.87 20.11-15.062 24.651-23.756Z" class="colord8def3 svgShape"></path><path fill="#d8e5f3" d="M946.111 330.802c-22.375-1.09-44.228-6.565-61.348-16.45-11.9-6.87-20.11-15.06-24.652-23.755v7.043c4.542 8.694 12.752 16.885 24.652 23.755 17.12 9.885 38.973 15.359 61.348 16.45ZM1048.78 290.596c-4.541 8.694-12.752 16.886-24.651 23.756-17.12 9.885-38.975 15.36-61.349 16.45v7.043c22.374-1.09 44.229-6.566 61.349-16.45 11.9-6.87 20.11-15.062 24.651-23.756Z" class="colord8def3 svgShape"></path><path fill="#d8e5f3" d="M946.111 314.469c-22.375-1.09-44.228-6.565-61.348-16.45-11.9-6.87-20.11-15.06-24.652-23.755v7.043c4.542 8.694 12.752 16.885 24.652 23.755 17.12 9.885 38.973 15.359 61.348 16.45ZM1048.78 274.263c-4.541 8.694-12.752 16.886-24.651 23.756-17.12 9.885-38.975 15.36-61.349 16.45v7.043c22.374-1.09 44.229-6.566 61.349-16.45 11.9-6.87 20.11-15.062 24.651-23.756Z" class="colord8def3 svgShape"></path></g></g><g data-name="6" fill="#010001" class="color000000 svgShape"><path style="mix-blend-mode:multiply" fill="url(#y)" d="M650.731 484.121h379.745v137.537H650.731z"></path><path fill="#cee3f8" d="M533.124 553.757V105.042l117.607 67.901v448.716l-117.607-67.902z" class="colorced3f8 svgShape"></path><path fill="#bbd0e6" d="M650.731 621.659V172.945l117.609-67.901v448.713l-117.609 67.902z" class="colorbbc0e6 svgShape"></path><path fill="#f6f8fb" d="m650.73 37.145-117.606 67.9 117.607 67.9 117.607-67.9Zm0 124.484-98.005-56.585 98.006-56.583 98.006 56.584Z" class="colorf6f6fb svgShape"></path><path fill="#fc06cf" d="m552.725 87.187 98.006 56.584v17.858l-98.006-56.585V87.187z" class="colorfcba06 svgShape"></path><path fill="#e100b8" d="m650.731 143.771 98.008-56.584v17.857l-98.008 56.585v-17.858z" class="colore19100 svgShape"></path><path fill="#f6f8fb" d="m650.73 30.603-98.005 56.584 98.006 56.584 98.006-56.584Zm0 101.851-78.404-45.267 78.405-45.267 78.405 45.267Z" class="colorf6f6fb svgShape"></path><path fill="#fc06cf" d="m572.326 68.487 78.405 45.267v18.7l-78.405-45.267v-18.7z" class="colorfcba06 svgShape"></path><path fill="#e100b8" d="m650.731 113.754 78.407-45.267v18.7l-78.407 45.267v-18.7z" class="colore19100 svgShape"></path><path fill="#f6f8fb" d="m650.73 23.22-78.404 45.267 78.405 45.267 78.405-45.266Z" class="colorf6f6fb svgShape"></path><path style="mix-blend-mode:multiply" fill="url(#z)" d="M649.346 56.89h53.848v22.098h-53.848z"></path><path fill="url(#A)" d="M632.476 46.35v22.137c0 2.697 1.783 5.393 5.347 7.45a28.53 28.53 0 0 0 25.814 0c3.564-2.057 5.346-4.753 5.346-7.45V46.35Z"></path><path fill="#ffffff" d="M632.476 46.352c0-2.697 1.783-5.395 5.347-7.452a28.527 28.527 0 0 1 25.814 0c3.564 2.057 5.346 4.754 5.346 7.45 0 2.698-1.782 5.395-5.346 7.453a28.528 28.528 0 0 1-25.814 0c-3.564-2.058-5.347-4.754-5.347-7.451Z" class="colorffffff svgShape"></path><path d="M650.732 47.148h18.186a6.19 6.19 0 0 0 .066-.797 6.36 6.36 0 0 0-.417-2.207h-17.835Z" style="mix-blend-mode:multiply" fill="url(#B)"></path><path fill="url(#C)" d="M652.117.8h-2.77v45.549a.685.685 0 0 0 .402.568 2.179 2.179 0 0 0 1.964 0 .692.692 0 0 0 .404-.566Z"></path><path fill="#f6f8fb" d="M651.713 1.366a2.175 2.175 0 0 1-1.964 0 .597.597 0 0 1 .002-1.131 2.166 2.166 0 0 1 1.962 0 .598.598 0 0 1 0 1.131Z" class="colorf6f6fb svgShape"></path><g style="mix-blend-mode:multiply" fill="#010001" class="color000000 svgShape"><path fill="#d8e5f3" d="m669.817 610.639-.001-428.906-6.555 3.782.002 428.908 6.554-3.784zM687.293 600.549l-.002-428.906-6.554 3.783.002 428.907 6.554-3.784zM704.768 590.46l-.001-428.906-6.555 3.782.002 428.908 6.554-3.784zM722.244 580.37l-.002-428.906-6.554 3.782.002 428.908 6.554-3.784zM739.72 570.281l-.002-428.906-6.555 3.782.002 428.908 6.555-3.784zM757.195 560.191l-.002-428.906-6.554 3.782.002 428.908 6.554-3.784zM631.644 610.639l.002-428.906 6.554 3.782-.001 428.908-6.555-3.784zM614.169 600.549l.002-428.906 6.554 3.783-.002 428.907-6.554-3.784zM596.693 590.46l.002-428.906 6.554 3.782-.002 428.908-6.554-3.784zM579.218 580.37l.001-428.906 6.555 3.782-.002 428.908-6.554-3.784zM561.742 570.281l.002-428.906 6.554 3.782-.002 428.908-6.554-3.784zM544.267 560.191l.001-428.906 6.555 3.782-.002 428.908-6.554-3.784z" class="colord8def3 svgShape"></path></g><path d="M650.731 132.454h19.601l78.405-45.267-19.599-11.316v11.316l-78.407 45.267z" style="mix-blend-mode:multiply" fill="#dae7f5" class="colordae0f5 svgShape"></path><path fill="#dae7f5" d="m650.731 161.629 19.731-.075 97.876-56.509-19.601-11.316v11.316l-98.006 56.584z" class="colordae0f5 svgShape"></path></g><g data-name="5" fill="#010001" class="color000000 svgShape"><path style="mix-blend-mode:multiply" fill="url(#D)" d="M480.112 641.379h363.602v152.399H480.112z"></path><path fill="#cee3f8" d="m401.709 534.246 78.405 45.269-.002 214.263-78.403-45.269V534.246z" class="colorced3f8 svgShape"></path><path fill="#bbd0e6" d="m636.922 703.241-156.81 90.537V579.515l156.81-90.535v214.261z" class="colorbbc0e6 svgShape"></path><path fill="#f6f8fb" d="m636.925 488.978-78.405-45.265-156.81 90.533 78.404 45.269ZM531.732 518.78l-41.162 23.766-24.829-14.335 41.163-23.767Z" class="colorf6f6fb svgShape"></path><path fill="#cee3f8" d="m491.365 709.895 9.155 5.283-.002 77.386-9.153-5.284v-77.385z" class="colorced3f8 svgShape"></path><path fill="#bbd0e6" d="m633.717 715.66-133.199 76.904v-77.386l133.199-76.902v77.384z" class="colorbbc0e6 svgShape"></path><path fill="#f6f8fb" d="m633.717 638.276-9.155-5.281-133.197 76.9 9.153 5.283Z" class="colorf6f6fb svgShape"></path><path style="mix-blend-mode:multiply" fill="url(#E)" d="M518.75 501.293h-17.31l30.291 17.489-41.163 23.765h17.309l41.167-23.765-30.294-17.489z"></path><path fill="#ffffff" d="m490.568 532.554 41.162-23.768-24.83-14.336-41.164 23.767 24.832 14.337z" class="colorffffff svgShape"></path><path fill="#bbd0e6" d="m531.73 518.781-41.162 23.766v-9.993l41.162-23.768v9.995z" class="colorbbc0e6 svgShape"></path><path fill="#cee3f8" d="m490.568 542.547-24.832-14.335v-9.995l24.832 14.337v9.993z" class="colorced3f8 svgShape"></path><path d="m491.365 709.895 9.153 5.283 133.199-76.902-9.155-5.281-133.197 76.9z" style="mix-blend-mode:multiply" fill="#dae7f5" class="colordae0f5 svgShape"></path><g style="mix-blend-mode:multiply" fill="#010001" class="color000000 svgShape"><path fill="#d8e5f3" d="m520.192 781.205-.002-63.161-6.554 3.783.002 63.162 6.554-3.784zM537.018 771.49l-.002-63.16-6.555 3.782.002 63.163 6.555-3.785zM553.843 761.776l-.002-63.161-6.554 3.783.002 63.162 6.554-3.784zM570.669 752.061l-.002-63.16-6.554 3.782.001 63.163 6.555-3.785zM587.494 742.347l-.002-63.161-6.554 3.783.002 63.162 6.554-3.784zM604.32 732.632l-.002-63.16-6.554 3.782.002 63.163 6.554-3.785zM621.145 722.918l-.001-63.161-6.555 3.783.002 63.162 6.554-3.784z" class="colord8def3 svgShape"></path></g><g style="mix-blend-mode:multiply" fill="#010001" class="color000000 svgShape"><path fill="#d8e5f3" d="m594.609 556.55 9.225-5.324v-10.652l-9.225 5.324v10.652zM567.391 572.261l9.228-5.323v-10.652l-9.228 5.326v10.649zM540.174 587.975l9.225-5.326v-10.652l-9.225 5.329v10.649zM512.962 603.689l9.225-5.323v-10.655l-9.225 5.329v10.649zM594.609 580.752l9.225-5.328v-10.655l-9.225 5.326v10.657zM567.391 596.463l9.228-5.328v-10.647l-9.228 5.324v10.651zM540.174 612.175l9.225-5.326v-10.65l-9.225 5.322v10.654zM512.962 627.889l9.225-5.328v-10.65l-9.225 5.324v10.654zM594.609 604.947l9.225-5.326v-10.652l-9.225 5.326v10.652zM567.391 620.659l9.228-5.324v-10.654l-9.228 5.326v10.652zM540.174 636.373l9.225-5.324v-10.654l-9.225 5.326v10.652zM512.962 652.087l9.225-5.329v-10.649l-9.225 5.326v10.652zM594.609 629.147l9.225-5.328v-10.65l-9.225 5.324v10.654zM567.391 644.858l9.228-5.325v-10.652l-9.228 5.328v10.649zM540.174 660.573l9.225-5.327v-10.652l-9.225 5.324v10.655zM512.962 676.289l9.225-5.328v-10.655l-9.225 5.331v10.652zM445.523 599.402l-9.224-5.324v-10.654l9.224 5.328v10.65zM445.523 623.601l-9.224-5.328v-10.65l9.224 5.324v10.654zM445.523 647.799l-9.224-5.328v-10.65l9.224 5.326v10.652zM445.523 672.001l-9.224-5.328v-10.654l9.224 5.33v10.652zM445.523 695.195l-9.224-5.328v-10.655l9.224 5.331v10.652zM445.523 718.389l-9.224-5.329v-10.654l9.224 5.33v10.653zM445.523 741.582l-9.224-5.328V725.6l9.224 5.33v10.652z" class="colord8def3 svgShape"></path></g></g><g data-name="4" fill="#010001" class="color000000 svgShape"><path style="mix-blend-mode:multiply" fill="url(#F)" d="M1015.429 580.079h202.015v90.533h-202.015z"></path><path fill="#cee3f8" d="M937.026 625.345v-135.8l78.405 45.267v135.8l-78.405-45.267z" class="colorced3f8 svgShape"></path><path fill="#bbd0e6" d="m1015.429 670.612.002-135.8 78.405-45.267-.002 135.8-78.405 45.267z" class="colorbbc0e6 svgShape"></path><path fill="#f6f8fb" d="m1093.834 489.545-78.405-45.268-78.403 45.268 78.405 45.267 78.403-45.267z" class="colorf6f6fb svgShape"></path><g style="mix-blend-mode:multiply" fill="#010001" class="color000000 svgShape"><path fill="#d8e5f3" d="m1058.943 543.889-8.621 4.971v-9.071l8.621-4.977v9.077zM1058.943 564.5l-8.621 4.973v-9.071l8.621-4.975v9.073zM1058.943 585.111l-8.621 4.973v-9.071l8.621-4.979v9.077zM1058.943 605.721l-8.621 4.976v-9.072l8.621-4.979v9.075zM1058.943 626.332l-8.621 4.979v-9.077l8.621-4.975v9.073z" class="colord8def3 svgShape"></path></g><g style="mix-blend-mode:multiply" fill="#010001" class="color000000 svgShape"><path fill="#d8e5f3" d="m971.918 543.889 8.621 4.971v-9.071l-8.621-4.977v9.077zM971.918 564.5l8.621 4.973v-9.071l-8.621-4.975v9.073zM971.918 585.111l8.621 4.973v-9.071l-8.621-4.979v9.077zM971.918 605.721l8.621 4.976v-9.072l-8.621-4.979v9.075zM971.918 626.332l8.621 4.979v-9.077l-8.621-4.975v9.073z" class="colord8def3 svgShape"></path></g></g><g data-name="3" fill="#010001" class="color000000 svgShape"><path style="mix-blend-mode:multiply" fill="url(#G)" d="M1210.43 597.733h-61.757l39.202 22.638L1148.673 643h61.757l39.196-22.629-39.196-22.638z"></path><path fill="#cee3f8" d="m1148.673 643-39.205-22.634V575.1l39.205 22.633V643z" class="colorced3f8 svgShape"></path><path fill="#bbd0e6" d="M1187.875 620.366 1148.673 643v-45.267l39.202-22.635v45.268z" class="colorbbc0e6 svgShape"></path><path fill="#f6f8fb" d="m1148.673 597.733-39.205-22.635 39.205-22.634 39.202 22.634-39.202 22.635z" class="colorf6f6fb svgShape"></path><path style="mix-blend-mode:multiply" fill="url(#H)" d="M1135.268 560.203h26.809l25.798 14.895-39.202 22.635-39.205-22.635 25.8-14.895z"></path></g><g data-name="2" fill="#010001" class="color000000 svgShape"><path fill="#bbd0e6" d="m877.068 799.811.001-316.871 117.608-67.902v316.87l-117.609 67.903z" class="colorbbc0e6 svgShape"></path><path fill="#cee3f8" d="M759.46 731.91V415.041l117.608 67.902v316.868L759.46 731.91z" class="colorced3f8 svgShape"></path><path fill="#f4f6f8" d="m877.073 482.941-117.613-67.9 117.608-67.9 117.605 67.9-117.6 67.9z" class="color807dfb svgShape"></path><path fill="#dae7f5" d="m877.068 472.568.001-155.047-99.633 97.524 99.632 57.523z" class="colordae0f5 svgShape"></path><path fill="#c4d6e9" d="m976.701 415.041-99.632-97.52v155.044l99.632-57.524z" class="colorc4cae9 svgShape"></path><g style="mix-blend-mode:multiply" fill="#010001" class="color000000 svgShape"><path fill="#6f67e9" d="M977.685 457.529 894.06 505.81v-7.739l83.625-48.281v7.739zM977.685 476.248l-83.625 48.281v-7.739l83.625-48.281v7.739zM977.685 494.967l-83.625 48.281v-7.739l83.625-48.281v7.739zM977.685 513.686l-83.625 48.281v-7.739l83.625-48.281v7.739zM977.685 532.405l-83.625 48.281v-7.739l83.625-48.28v7.738zM977.685 551.125l-83.625 48.281v-7.739l83.625-48.281v7.739zM977.685 569.844l-83.625 48.281v-7.739l83.625-48.281v7.739zM977.685 588.563l-83.625 48.281v-7.739l83.625-48.281v7.739zM977.685 607.282l-83.625 48.281v-7.739l83.625-48.281v7.739zM977.685 626.001l-83.625 48.281v-7.739l83.625-48.281v7.739zM977.685 644.72l-83.625 48.281v-7.738l83.625-48.281v7.738zM977.685 663.44l-83.625 48.281v-7.739l83.625-48.281v7.739zM977.685 682.159 894.06 730.44v-7.739l83.625-48.281v7.739zM977.685 700.878l-83.625 48.281v-7.739l83.625-48.281v7.739z" class="color6b67e9 svgShape"></path></g><g style="mix-blend-mode:multiply" fill="#010001" class="color000000 svgShape"><path fill="#f4f6f8" d="m776.451 457.529 83.625 48.281v-7.739l-83.625-48.281v7.739zM776.451 476.248l83.625 48.281v-7.739l-83.625-48.281v7.739zM776.451 494.967l83.625 48.281v-7.739l-83.625-48.281v7.739zM776.451 513.686l83.625 48.281v-7.739l-83.625-48.281v7.739zM776.451 532.405l83.625 48.281v-7.739l-83.625-48.28v7.738zM776.451 551.125l83.625 48.281v-7.739l-83.625-48.281v7.739zM776.451 569.844l83.625 48.281v-7.739l-83.625-48.281v7.739zM776.451 588.563l83.625 48.281v-7.739l-83.625-48.281v7.739zM776.451 607.282l83.625 48.281v-7.739l-83.625-48.281v7.739zM776.451 626.001l83.625 48.281v-7.739l-83.625-48.281v7.739zM776.451 644.72l83.625 48.281v-7.738l-83.625-48.281v7.738zM776.451 663.44l83.625 48.281v-7.739l-83.625-48.281v7.739zM776.451 682.159l83.625 48.281v-7.739l-83.625-48.281v7.739zM776.451 700.878l83.625 48.281v-7.739l-83.625-48.281v7.739z" class="color807dfb svgShape"></path></g><path d="m877.069 472.565 38.207-11.681 79.397-45.843-43.819-25.299 25.847 25.299-99.632 57.524z" style="mix-blend-mode:multiply" fill="#dae7f5" class="colordae0f5 svgShape"></path></g><g data-name="1" fill="#010001" class="color000000 svgShape"><path fill="#bbd0e6" d="m695.998 904.352.001-271.605 117.608-67.9V836.45l-117.609 67.902z" class="colorbbc0e6 svgShape"></path><path fill="#cee3f8" d="M578.39 836.45V564.847l117.609 67.902-.001 271.603L578.39 836.45z" class="colorced3f8 svgShape"></path><path fill="#f6f8fb" d="M695.998 496.949 578.39 564.847 696 632.749l117.607-67.899Zm-93.445 67.898 93.445-53.95 93.446 53.953L696 618.8ZM695.998 297.204l-54.89 31.692 54.89 31.69 54.89-31.69Z" class="colorf6f6fb svgShape"></path><path fill="#cee3f8" d="m602.553 564.847-.002-158.433 93.448 53.951V618.8l-93.446-53.953z" class="colorced3f8 svgShape"></path><path fill="#dae7f5" d="m602.551 406.414 38.557-32.253 54.89 31.692.001 54.512-93.448-53.951z" class="colordae0f5 svgShape"></path><path fill="#cee3f8" d="m695.998 405.853-54.892-31.692.002-45.268 54.89 31.692v45.268z" class="colorced3f8 svgShape"></path><path fill="#bbd0e6" d="M695.998 618.801V460.368l93.446-53.952V564.85l-93.446 53.951z" class="colorbbc0e6 svgShape"></path><path fill="#c4d6e9" d="M695.998 460.368v-54.515l54.891-31.692 38.555 32.255-93.446 53.952z" class="colorc4cae9 svgShape"></path><path fill="#bbd0e6" d="m750.889 374.161-54.891 31.692v-45.266l54.891-31.691v45.265z" class="colorbbc0e6 svgShape"></path><path style="mix-blend-mode:multiply" fill="url(#I)" d="M709.399 318.093h-13.401l18.864 10.889-18.864 10.892h13.401l18.865-10.892-18.865-10.889z"></path><path fill="#bbd0e6" d="m715.018 320.985-19.02 10.982v7.907l19.02-10.981Z" class="colorbbc0e6 svgShape"></path><path fill="#cee3f8" d="m676.977 328.893 19.02 10.98v-7.906l-19.02-10.982Z" class="colorced3f8 svgShape"></path><path fill="#ffffff" d="m695.998 310.003-19.02 10.982 19.02 10.981 19.02-10.98Z" class="colorffffff svgShape"></path><path d="m695.998 618.801 24.163-.001 93.446-53.95-24.163-13.962v13.962l-93.446 53.951z" style="mix-blend-mode:multiply" fill="#dae7f5" class="colordae0f5 svgShape"></path><g style="mix-blend-mode:multiply" fill="#010001" class="color000000 svgShape"><path fill="#dae7f5" d="m670.743 889.771.002-253.838 6.554 3.782-.002 253.84-6.554-3.784zM651.919 878.902l.002-253.837 6.554 3.782-.002 253.84-6.554-3.785zM633.095 868.034l.001-253.838 6.555 3.782-.002 253.84-6.554-3.784zM614.271 857.166l.001-253.838 6.555 3.782-.002 253.84-6.554-3.784zM595.446 846.298l.002-253.838 6.555 3.782-.002 253.84-6.555-3.784z" class="colordae0f5 svgShape"></path></g><g style="mix-blend-mode:multiply" fill="#010001" class="color000000 svgShape"><path fill="#dae7f5" d="m674.182 606.203.002-139.615 6.555 3.782-.002 139.617-6.555-3.784zM655.358 595.335l.002-139.616 6.555 3.782-.002 139.618-6.555-3.784zM636.534 584.467l.002-139.616 6.554 3.782-.001 139.618-6.555-3.784zM617.71 573.598l.002-139.615 6.554 3.782-.002 139.618-6.554-3.785z" class="colordae0f5 svgShape"></path></g><g style="mix-blend-mode:multiply" fill="#010001" class="color000000 svgShape"><path fill="#dae7f5" d="m717.813 606.203-.002-139.615-6.555 3.782.002 139.617 6.555-3.784zM736.637 595.335l-.002-139.616-6.555 3.782.002 139.618 6.555-3.784zM755.461 584.467l-.002-139.616-6.554 3.782.001 139.618 6.555-3.784zM774.285 573.598l-.002-139.615-6.554 3.782.002 139.618 6.554-3.785z" class="colordae0f5 svgShape"></path></g><g style="mix-blend-mode:multiply" fill="#010001" class="color000000 svgShape"><path fill="#dae7f5" d="m721.252 889.771-.002-253.838-6.554 3.782.002 253.84 6.554-3.784zM740.076 878.902l-.002-253.837-6.554 3.782.002 253.84 6.554-3.785zM758.9 868.034l-.001-253.838-6.555 3.782.002 253.84 6.554-3.784zM777.724 857.166l-.001-253.838-6.555 3.782.002 253.84 6.554-3.784zM796.549 846.298l-.002-253.838-6.555 3.782.002 253.84 6.555-3.784z" class="colordae0f5 svgShape"></path></g><path d="m663.94 359.386 9.223 5.325v10.649l-9.223-5.325v-10.649zM728.055 359.386l-9.223 5.325v10.649l9.223-5.325v-10.649z" style="mix-blend-mode:multiply" fill="#dae7f5" class="colordae0f5 svgShape"></path></g></g><g data-name="Car front" fill="#010001" class="color000000 svgShape"><path fill="#330b33" d="m897.954 895.32-10.489-6.055 1.126-7.93 12.686 7.325-3.323 6.66zM935.101 873.873l-10.489-6.055 3.328-6.658 10.484 6.053-3.323 6.66z" class="color0b0b33 svgShape"></path><path fill="#b9cee4" d="M891.717 889.77a12.13 12.13 0 0 0-5.487 9.506c0 3.5 2.457 4.918 5.487 3.168a12.124 12.124 0 0 0 5.489-9.505c0-3.5-2.456-4.919-5.489-3.169Z" class="colorb9bee4 svgShape"></path><path fill="#cee3f8" d="M891.717 900.03c-1.876 1.084-3.396.206-3.396-1.961a7.51 7.51 0 0 1 3.396-5.885c1.877-1.084 3.399-.206 3.399 1.961a7.51 7.51 0 0 1-3.399 5.886Z" class="colorced3f8 svgShape"></path><path fill="#342e92" d="M891.717 888.597a14.377 14.377 0 0 0-6.503 11.266c0 4.146 2.912 5.828 6.503 3.754a14.374 14.374 0 0 0 6.504-11.264c.001-4.149-2.912-5.83-6.504-3.756Zm0 13.312c-2.774 1.602-5.023.304-5.023-2.9a11.108 11.108 0 0 1 5.023-8.704c2.776-1.601 5.025-.303 5.025 2.901a11.103 11.103 0 0 1-5.025 8.703Z" class="color362e92 svgShape"></path><path fill="#6f196f" d="m896.128 888.042-4.974-2.872c-1.188-.79-2.883-.736-4.766.35a14.377 14.377 0 0 0-6.503 11.265c0 2.107.751 3.575 1.961 4.24l5.229 3.02c-1.15-.69-1.861-2.135-1.861-4.182a14.377 14.377 0 0 1 6.503-11.266 4.708 4.708 0 0 1 4.411-.555Z" class="color20196f svgShape"></path><path fill="#b9cee4" d="M928.865 868.323a12.129 12.129 0 0 0-5.487 9.505c0 3.5 2.457 4.918 5.487 3.168a12.125 12.125 0 0 0 5.489-9.504c0-3.501-2.456-4.92-5.489-3.17Z" class="colorb9bee4 svgShape"></path><path fill="#cee3f8" d="M928.865 878.583c-1.876 1.083-3.396.205-3.396-1.962a7.51 7.51 0 0 1 3.396-5.885c1.878-1.084 3.399-.205 3.399 1.962a7.51 7.51 0 0 1-3.399 5.885Z" class="colorced3f8 svgShape"></path><path fill="#342e92" d="M928.865 867.15a14.377 14.377 0 0 0-6.503 11.265c0 4.146 2.912 5.829 6.503 3.755a14.374 14.374 0 0 0 6.504-11.265c.001-4.149-2.912-5.83-6.504-3.756Zm0 13.311c-2.774 1.602-5.023.304-5.023-2.9a11.108 11.108 0 0 1 5.023-8.704c2.776-1.6 5.025-.303 5.025 2.901a11.103 11.103 0 0 1-5.025 8.703Z" class="color362e92 svgShape"></path><path fill="#6f196f" d="m933.277 866.594-4.975-2.872c-1.187-.79-2.883-.736-4.766.35a14.377 14.377 0 0 0-6.503 11.266c0 2.106.751 3.574 1.961 4.24l5.229 3.02c-1.15-.691-1.861-2.136-1.861-4.183a14.377 14.377 0 0 1 6.503-11.266 4.708 4.708 0 0 1 4.412-.555Z" class="color20196f svgShape"></path><path fill="url(#J)" d="m883.805 898.191-1.774 1.025c-6.739 3.89-17.498 5.421-22.965 2.264l-5.008-2.89s-1.719-.94-4.962-2.827c-1.636-.953-2.688-3.55-2.92-6.144.22 2.751 1.328 8.26 3.652 10.586l9.217 5.32c10.486 3.934 21.24-.004 22.986-1.012.434-.25 1.286-.741 2.318-1.338a6.694 6.694 0 0 1-.706-3.372 11.217 11.217 0 0 1 .162-1.612Z"></path><path fill="#e100b8" d="M893.252 883.118v3.257a3.989 3.989 0 0 1 5.232 3.34l22.468-12.97c.727-4.34 3.85-9.04 7.532-11.058 3.547-1.944 6.449-.76 7.148 2.582l4.113-2.375v-9.62Z" class="colore19100 svgShape"></path><path fill="#d100ab" d="M939.745 865.212a2.357 2.357 0 0 1-1.222 1.387c-.093.055-1.144.662-2.89 1.67a8.154 8.154 0 0 1 .164 1.861 12.854 12.854 0 0 1-.696 3.743l1.33-.767c1.624-.938 3.314-5.42 3.314-7.212v-.682ZM921.496 881.728a6.7 6.7 0 0 1-.706-3.373 11.408 11.408 0 0 1 .162-1.61l-22.468 12.972a8.157 8.157 0 0 1 .166 1.861 12.856 12.856 0 0 1-.696 3.742l23.542-13.592Z" class="colord18000 svgShape"></path><path fill="#3e9eff" d="M934.067 850.296c.608.576-61.196 13.099-61.196 13.099l-4.652-3.244-5.619 3.244c-17.709 12.121-16.877 22.873-13.528 24.845 3.234 1.903 4.986 2.877 4.986 2.877l5.008 2.891a14.172 14.172 0 0 0 10.126 1.032c9.622-2.176 21.143-10.239 24.06-11.922l46.493-26.844c0-1.33-2.27-4.07-5.678-5.978Z" class="colorffd03e svgShape"></path><path fill="url(#L)" d="M917.63 838.298c-7.347-3.545-30.393 3.374-30.436 3.4-7.971 4.925-21.202 18.76-21.202 21.697a4.05 4.05 0 0 0 2.382 3.334l18.087 10.442a12.81 12.81 0 0 0 11.548 0l35.39-20.433c1.65-.952 2.434-2.22 2.37-3.474.012-1.99-5.238-8.742-18.138-14.966Z"></path><path fill="#6f196f" d="m932.732 855.584-35.39 20.432a11.496 11.496 0 0 1-10.215 0l-19.37-11.184a2.823 2.823 0 0 1-1.627-2.08 3.406 3.406 0 0 0-.565.43c-.615.593-1.294 1.177 2.81 3.547l18.086 10.442a12.81 12.81 0 0 0 11.548 0l35.39-20.433c1.65-.952 3.346-2.454 3.261-3.364a5.857 5.857 0 0 0-1.293-1.225c.466 1.632-1.653 2.868-2.635 3.435Z" class="color20196f svgShape"></path><path fill="url(#M)" d="M887.716 841.39c9.74-5.623 23.133-7.007 29.915-3.092 6.782 3.916 4.384 11.648-5.356 17.271s-23.133 7.008-29.914 3.092c-6.782-3.915-4.384-11.647 5.355-17.27Z"></path><path fill="#ffffff" d="M862.382 899.085a1.787 1.787 0 0 1 2.292-1.323 2.1 2.1 0 0 1 1.415 2.45 1.787 1.787 0 0 1-2.292 1.324 2.1 2.1 0 0 1-1.415-2.45ZM845.814 888.093c.202-.813.689-.874 1.087-.137a4.527 4.527 0 0 1 .354 2.808c-.203.813-.69.874-1.088.137a4.527 4.527 0 0 1-.353-2.808Z" class="colorffffff svgShape"></path><path fill="#6f67e9" d="M858.947 897.306c0 .352-.26.49-.577.307l-8.59-4.958a1.257 1.257 0 0 1-.577-.975c0-.353.26-.491.578-.308l8.589 4.959a1.258 1.258 0 0 1 .577.975Z" class="color6b67e9 svgShape"></path></g><g data-name="Location mark" fill="#010001" class="color000000 svgShape"><path d="M828.736 997.849a206.037 206.037 0 0 1-35.959 3.422 115.922 115.922 0 0 1-12.073-.568 13.486 13.486 0 0 1 4.555-3.768c8.536-4.925 25.634-9.188 43.477-11.304v-22.606a451.572 451.572 0 0 0-46.94 6.447l-99.115 19.074 33.033 19.077 14.524 8.388c14.52 8.385 54.981 10.085 98.498 5.12Z" style="mix-blend-mode:multiply" fill="url(#N)"></path><path fill="url(#O)" d="M707.066 900.88a21.241 21.241 0 0 0-1.612-8.6c8.085-.89 13.79 4.944 13.79 15.635 0 14.054-9.868 31.148-22.042 38.18-9.257 5.341-17.163 3.315-20.427-4.127a21.435 21.435 0 0 0 8.256-2.905c12.171-7.027 22.035-24.124 22.035-38.183Z"></path><path fill="url(#P)" d="M651.99 894.531c18.245-31.594 47.824-48.693 66.08-38.15l12.173 7.03c-18.251-10.541-47.837 6.556-66.08 38.153-18.227 31.58-18.238 65.711-.034 76.27l-12.138-7.001c-18.253-10.534-18.244-44.693 0-76.302Z"></path><path fill="#e100b8" d="m664.163 977.863 33.042 19.07 33.038-57.223c18.25-31.606 18.25-65.77 0-76.299-18.251-10.541-47.837 6.556-66.08 38.153-18.238 31.608-18.244 65.768 0 76.299Zm11.002-44.493c0-14.065 9.864-31.16 22.037-38.189 12.174-7.024 22.043-1.331 22.043 12.734 0 14.054-9.87 31.148-22.043 38.18-12.173 7.025-22.037 1.326-22.037-12.725Z" class="colore19100 svgShape"></path></g><g data-name="Car rear" fill="#010001" class="color000000 svgShape"><path fill="#330b33" d="m257.087 755.994 10.266-5.927-1.102-7.761-12.417 7.169 3.253 6.519zM220.728 735.003l10.267-5.927-3.258-6.516-10.261 5.924 3.252 6.519z" class="color0b0b33 svgShape"></path><path fill="#cee1f4" d="M263.19 750.562a11.872 11.872 0 0 1 5.372 9.304c0 3.425-2.406 4.814-5.371 3.1a11.867 11.867 0 0 1-5.372-9.302c0-3.426 2.404-4.815 5.372-3.102Z" class="colorced2f4 svgShape"></path><path fill="#f5f7fa" d="M263.19 760.605c1.837 1.06 3.325.2 3.325-1.92a7.35 7.35 0 0 0-3.324-5.76c-1.838-1.061-3.326-.202-3.326 1.92a7.351 7.351 0 0 0 3.326 5.76Z" class="colorf5f5fa svgShape"></path><path fill="#342e8f" d="M256.825 753.09a14.068 14.068 0 0 0 6.366 11.025c3.515 2.03 6.365.384 6.365-3.675a14.071 14.071 0 0 0-6.365-11.026c-3.516-2.03-6.367-.385-6.366 3.675Zm1.448.835c0-3.136 2.201-4.407 4.918-2.84a10.872 10.872 0 0 1 4.917 8.519c0 3.136-2.202 4.407-4.917 2.839a10.868 10.868 0 0 1-4.918-8.518Z" class="color362e8f svgShape"></path><path fill="#6b1c6b" d="m258.873 748.87 4.869-2.81c1.162-.774 2.822-.721 4.664.342a14.072 14.072 0 0 1 6.366 11.026c0 2.062-.736 3.499-1.92 4.15l-5.117 2.956c1.126-.676 1.821-2.09 1.821-4.094a14.071 14.071 0 0 0-6.365-11.026 4.608 4.608 0 0 0-4.318-.544Z" class="color1e1c6b svgShape"></path><path fill="#cee1f4" d="M226.832 729.57a11.87 11.87 0 0 1 5.37 9.304c0 3.425-2.405 4.813-5.37 3.1a11.867 11.867 0 0 1-5.372-9.302c0-3.427 2.404-4.815 5.372-3.102Z" class="colorced2f4 svgShape"></path><path fill="#f5f7fa" d="M226.832 739.613c1.836 1.06 3.324.2 3.324-1.921a7.35 7.35 0 0 0-3.324-5.76c-1.838-1.06-3.326-.201-3.326 1.92a7.35 7.35 0 0 0 3.326 5.76Z" class="colorf5f5fa svgShape"></path><path fill="#342e8f" d="M220.466 732.097a14.068 14.068 0 0 0 6.366 11.026c3.515 2.03 6.365.383 6.365-3.675a14.071 14.071 0 0 0-6.365-11.027c-3.516-2.03-6.367-.384-6.366 3.676Zm1.447.836c0-3.136 2.202-4.407 4.919-2.84a10.872 10.872 0 0 1 4.917 8.519c0 3.136-2.202 4.406-4.917 2.839a10.868 10.868 0 0 1-4.919-8.518Z" class="color362e8f svgShape"></path><path fill="#6b1c6b" d="m222.514 727.878 4.869-2.81c1.162-.774 2.822-.721 4.664.342a14.072 14.072 0 0 1 6.365 11.026c0 2.062-.735 3.499-1.919 4.15l-5.117 2.956c1.126-.677 1.821-2.09 1.821-4.094a14.071 14.071 0 0 0-6.365-11.027 4.608 4.608 0 0 0-4.318-.543Z" class="color1e1c6b svgShape"></path><path fill="#e100b8" d="M234.044 742.69a6.554 6.554 0 0 0 .691-3.301 11.22 11.22 0 0 0-.158-1.575l21.99 12.696a8.003 8.003 0 0 0-.162 1.822 12.577 12.577 0 0 0 .682 3.662l-23.043-13.303Z" class="colore19100 svgShape"></path><path fill="#fc06cf" d="m230.093 725.81 31.595 18.24 12.772 7.375v9.415l-3.855-2.225a15.965 15.965 0 0 0-7.372-10.675 7.36 7.36 0 0 0-2.21-.821 3.772 3.772 0 0 0-4.329 2.89c-.046.162-.09.326-.127.5l-4.356-2.514-17.634-10.182c-.711-4.247-3.768-8.847-7.373-10.823-.125-.069-.248-.125-.372-.186v-3.032a55.976 55.976 0 0 0 3.261 2.037Z" class="colorfcba06 svgShape"></path><path fill="url(#R)" d="M218.088 711.29c-2.72 3.108 2.835 8.502 8.744 12.482v3.032c-3.3-1.62-5.963-.44-6.623 2.713a14.043 14.043 0 0 0-.162 1.822 12.568 12.568 0 0 0 .681 3.664c-.776-.45-1.238-.715-1.301-.752a34.516 34.516 0 0 1-3.829-3.37c-1.84-2.056-2.339-4.818-2.511-7.67-.227-3.734-.022-7.394 5.001-11.92Z"></path><path fill="#e100b8" d="M215.598 730.88c-1.84-2.055-2.339-4.817-2.511-7.669a40.253 40.253 0 0 1-.033-.62c.023-.006.035-.016.033-.031 1 2.339 3.803 5.19 7.122 6.957a7.949 7.949 0 0 0-.144 1.265 6.342 6.342 0 0 0-.018.546 12.567 12.567 0 0 0 .68 3.674c-.448-.26-.88-.51-1.303-.753a34.456 34.456 0 0 1-3.826-3.368Z" class="colore19100 svgShape"></path><path fill="#3e9eff" d="m218.088 711.29 12.926-7.462c4.747-2.74 25.708.783 30.752 3.695l38.751 22.374s2.304 1.765 3.915 3.023 3.672 6.716-1.098 9.47c-5 2.887-11.9 6.87-15.185 8.768-3.285 1.896-10.48 2.12-13.689.267l-44.367-25.616c-6.836-3.946-15.227-10.837-12.005-14.518Z" class="colorffd03e svgShape"></path><path fill="url(#S)" d="M270.764 760.19a11.126 11.126 0 0 0-.159-1.575l3.855 2.225c3.21 1.852 10.404.385 13.689-1.512l15.185-8.767a6.639 6.639 0 0 0 3.561-4.505c-.559 3.774-2.191 8.887-4.516 10.242-4.988 2.907-10.945 6.317-14.23 8.214-3.285 1.897-9.92 3.141-13.128 1.289l-4.388-2.533a23.733 23.733 0 0 0 .13-3.078Z"></path><path fill="#a50b89" d="M284.892 756.74a1.065 1.065 0 0 1 .796-1.032 9.977 9.977 0 0 0 2.461-.95l15.185-8.766a6.223 6.223 0 0 0 1.917-1.66.489.489 0 0 1 .864.413 5.56 5.56 0 0 1-2.781 3.47l-15.185 8.767a9.08 9.08 0 0 1-1.861.78 1.076 1.076 0 0 1-1.396-1.022Z" class="colore96675 svgShape"></path><path fill="url(#T)" d="M252.316 708.548c7.192-3.47 29.749 3.302 29.79 3.328 7.802 4.82 20.752 18.362 20.752 21.236a3.964 3.964 0 0 1-2.331 3.263l-17.703 10.22a12.538 12.538 0 0 1-11.303 0l-34.638-19.998c-1.615-.932-2.383-2.173-2.32-3.401-.011-1.947 5.127-8.556 17.753-14.648Z"></path><path fill="url(#U)" d="M281.595 711.575c-9.533-5.504-22.641-6.86-29.279-3.027-6.638 3.833-4.29 11.4 5.242 16.905 9.533 5.503 22.641 6.858 29.28 3.026 6.637-3.832 4.29-11.4-5.243-16.904Z"></path><path fill="#6f196f" d="m237.536 725.467 34.638 19.998a11.254 11.254 0 0 0 9.998 0l18.959-10.947a2.763 2.763 0 0 0 1.593-2.035 3.326 3.326 0 0 1 .552.42c.602.58 1.267 1.153-2.75 3.472l-17.702 10.22a12.538 12.538 0 0 1-11.303 0l-34.638-19.998c-1.615-.932-3.275-2.402-3.192-3.293a5.727 5.727 0 0 1 1.266-1.2c-.457 1.598 1.617 2.808 2.579 3.363Z" class="color20196f svgShape"></path></g><g data-name="Speech bubbles" fill="#010001" class="color000000 svgShape"><path fill="url(#V)" d="m463.21 43.68-69.102 39.897c-6.678 3.856-12.143 13.32-12.143 21.032v45.64c0 7.712 5.465 10.867 12.143 7.011l21.439-12.377 13.112 7.57 13.113-22.711 21.439-12.378c6.678-3.856 12.142-13.32 12.142-21.031V50.69c0-7.711-5.464-10.866-12.142-7.01Z"></path><path fill="#ffffff" d="m426.453 118.05 4.413-2.548v5.096l-4.413 2.547v-5.095zM415.463 124.395l4.413-2.548v5.096l-4.413 2.548v-5.096zM441.856 109.157l-4.413 2.548v5.095l4.413-2.547v-5.096z" class="colorffffff svgShape"></path><path d="m421.203 105.361 7.456 4.304 7.456-12.913c4.118-7.132 4.118-14.842 0-17.218-4.119-2.378-10.795 1.48-14.912 8.61-4.115 7.133-4.117 14.84 0 17.217Zm2.483-10.04a10.994 10.994 0 0 1 4.972-8.617c2.747-1.586 4.975-.3 4.975 2.873a11.002 11.002 0 0 1-4.975 8.616c-2.746 1.586-4.972.299-4.972-2.872Z" style="mix-blend-mode:multiply" fill="#a5b8cc" class="colora5abcc svgShape"></path><path d="m464.182 404.73 69.102 39.896c6.679 3.856 12.143 13.32 12.143 21.031v45.641c0 7.712-5.464 10.867-12.143 7.01l-21.439-12.377-13.112 7.57-13.113-22.71-21.438-12.378c-6.679-3.856-12.143-13.32-12.143-21.032V411.74c0-7.712 5.464-10.866 12.143-7.01Z" style="mix-blend-mode:multiply" fill="url(#W)"></path><path d="m842.518 191.292 69.103 39.896c6.678 3.856 12.142 13.32 12.142 21.032v45.64c0 7.712-5.464 10.867-12.142 7.01l-21.44-12.377-13.112 7.57-13.112-22.71-21.439-12.378c-6.678-3.856-12.142-13.32-12.142-21.032v-45.641c0-7.711 5.464-10.866 12.142-7.01Z" style="mix-blend-mode:multiply" fill="url(#X)"></path><path d="m175.306 311.02-69.102 39.896c-6.678 3.856-12.143 13.32-12.143 21.031v45.641c0 7.712 5.465 10.867 12.143 7.01l21.439-12.377 13.112 7.57 13.113-22.71 21.438-12.379c6.679-3.855 12.143-13.32 12.143-21.031V318.03c0-7.711-5.464-10.866-12.143-7.01Z" style="mix-blend-mode:multiply" fill="url(#Y)"></path><path fill="#ffffff" d="m879.276 265.661-4.413-2.548v5.095l4.413 2.548v-5.095zM890.266 272.006l-4.413-2.548v5.096l4.413 2.547v-5.095zM863.873 256.768l4.413 2.548v5.095l-4.413-2.548v-5.095z" class="colorffffff svgShape"></path><path d="M884.525 235.754c-4.116-7.13-10.793-10.988-14.911-8.609-4.118 2.376-4.118 10.085 0 17.217l7.455 12.914 7.456-4.304c4.118-2.377 4.115-10.085 0-17.218Zm-7.455 10.05a11 11 0 0 1-4.975-8.616c0-3.174 2.229-4.46 4.975-2.874a10.995 10.995 0 0 1 4.973 8.618c0 3.17-2.226 4.458-4.973 2.872Z" style="mix-blend-mode:screen" fill="#f4f6f8" class="color807dfb svgShape"></path><path d="M510.004 475.878v.473c0 6.09-3.864 7.744-9.365 5.301v5.514l-4.093-2.363v-5.46A23.6 23.6 0 0 1 486 459.865v-1.26l4.5 2.598v.998a14.917 14.917 0 0 0 6.047 12.207v-12.653c-5.729-4.882-9.23-9.423-9.23-15.514v-.315c0-5.513 3.957-7.01 9.23-4.594v-5.46l4.093 2.363v5.565c5.32 3.964 9.138 10.106 9.138 16.354v1.942l-4.5-2.598v-1.575a11.963 11.963 0 0 0-4.638-9.19v11.447c5.865 4.96 9.365 9.713 9.365 15.698Zm-13.458-19.216v-10.447c-2.773-1.076-4.683-.29-4.683 2.493 0 3.098 1.819 5.408 4.683 7.954Zm8.912 17.01c0-2.992-1.818-5.564-4.82-8.346v11.444c3.138 1.128 4.82-.262 4.82-3.097Z" style="mix-blend-mode:screen" fill="#fc06cf" class="colorfcba06 svgShape"></path><path d="M135.522 371.238c-2.318-.43-3.883-2.724-3.88-6.404-.005-5.588 3.576-12.18 7.994-14.732 4.41-2.547 7.997-.08 7.993 5.507a19.165 19.165 0 0 1-3.883 10.878c6.757-1.273 11.055 2.964 11.054 8.452-1.153.657-15.166 8.75-15.166 8.75l-15.167 8.76c-.003-5.48 4.298-14.685 11.055-21.211Z" style="mix-blend-mode:screen" fill="#f4f6f8" class="color807dfb svgShape"></path></g><g fill="#010001" class="color000000 svgShape"><path style="mix-blend-mode:multiply" fill="url(#f)" d="M306.118 885.778h55.471v3.447h-55.471z"></path><path fill="#37318b" d="m306.118 889.225-2.73-1.577v-30.764l2.73 1.573v30.768z" class="color34318b svgShape"></path><path fill="#6b1c6b" d="m306.118 889.225 2.73-1.577v-30.764l-2.73 1.573v30.768z" class="color1e1c6b svgShape"></path><path fill="url(#g)" d="m336.15 849.598-30.032-44.55s-30.494 45.205-30.694 45.532a11.948 11.948 0 0 0-1.882 6.304c0 4.813 3.184 9.621 9.545 13.291 12.718 7.348 33.342 7.348 46.063 0 6.363-3.67 9.539-8.478 9.539-13.29a12.349 12.349 0 0 0-2.539-7.287Z"></path><path fill="url(#h)" d="m332.443 831.577-26.325-39.042-26.317 39.042a10.782 10.782 0 0 0-2.227 6.38c0 4.219 2.79 8.433 8.355 11.653 11.156 6.44 29.225 6.44 40.373 0 5.572-3.22 8.365-7.434 8.365-11.654a10.873 10.873 0 0 0-2.224-6.38Z"></path><path fill="url(#i)" d="M329.087 816.706c-.145-.248-22.969-34.075-22.969-34.075s-22.824 33.827-22.974 34.075a8.994 8.994 0 0 0-1.4 4.712c0 3.603 2.374 7.204 7.134 9.952 9.523 5.494 24.957 5.494 34.475 0 4.762-2.748 7.14-6.35 7.14-9.952a8.951 8.951 0 0 0-1.406-4.712Z"></path><path style="mix-blend-mode:multiply" fill="url(#Z)" d="M353.078 913.327h55.471v3.447h-55.471z"></path><path fill="#37318b" d="m353.078 916.774-2.73-1.577v-30.764l2.73 1.574v30.767z" class="color34318b svgShape"></path><path fill="#6b1c6b" d="m353.078 916.774 2.73-1.577v-30.764l-2.73 1.574v30.767z" class="color1e1c6b svgShape"></path><path fill="url(#aa)" d="m383.11 877.147-30.032-44.549s-30.495 45.204-30.694 45.53a11.948 11.948 0 0 0-1.882 6.305c0 4.814 3.184 9.622 9.544 13.292 12.719 7.348 33.343 7.348 46.063 0 6.364-3.67 9.54-8.478 9.54-13.292a12.35 12.35 0 0 0-2.54-7.286Z"></path><path fill="url(#ab)" d="m379.403 859.126-26.325-39.042-26.317 39.042a10.783 10.783 0 0 0-2.227 6.38c0 4.219 2.79 8.433 8.355 11.653 11.156 6.44 29.225 6.44 40.373 0 5.572-3.22 8.365-7.434 8.365-11.654a10.872 10.872 0 0 0-2.224-6.38Z"></path><path fill="url(#ac)" d="M376.046 844.255c-.144-.248-22.968-34.075-22.968-34.075s-22.824 33.827-22.974 34.075a8.994 8.994 0 0 0-1.4 4.712c0 3.603 2.374 7.204 7.134 9.952 9.523 5.495 24.957 5.495 34.474 0 4.763-2.748 7.14-6.35 7.14-9.952a8.95 8.95 0 0 0-1.406-4.712Z"></path><path style="mix-blend-mode:multiply" fill="url(#ad)" d="M400.038 940.876h55.471v3.447h-55.471z"></path><path fill="#37318b" d="m400.038 944.324-2.73-1.578v-30.763l2.73 1.573v30.768z" class="color34318b svgShape"></path><path fill="#6b1c6b" d="m400.038 944.324 2.73-1.578v-30.763l-2.73 1.573v30.768z" class="color1e1c6b svgShape"></path><path fill="url(#ae)" d="m430.07 904.696-30.032-44.549s-30.495 45.204-30.694 45.531a11.948 11.948 0 0 0-1.882 6.304c0 4.814 3.184 9.622 9.544 13.292 12.719 7.347 33.343 7.347 46.063 0 6.363-3.67 9.54-8.478 9.54-13.292a12.35 12.35 0 0 0-2.54-7.286Z"></path><path fill="url(#af)" d="m426.363 886.675-26.325-39.042-26.317 39.042a10.781 10.781 0 0 0-2.227 6.38c0 4.22 2.79 8.434 8.355 11.653 11.156 6.44 29.225 6.44 40.372 0 5.573-3.22 8.366-7.434 8.366-11.653a10.872 10.872 0 0 0-2.224-6.38Z"></path><path fill="url(#ag)" d="M423.006 871.804c-.145-.248-22.968-34.075-22.968-34.075s-22.824 33.827-22.974 34.075a8.994 8.994 0 0 0-1.401 4.712c0 3.603 2.375 7.204 7.135 9.952 9.522 5.495 24.957 5.495 34.474 0 4.763-2.748 7.14-6.35 7.14-9.952a8.95 8.95 0 0 0-1.406-4.712Z"></path><path style="mix-blend-mode:multiply" fill="url(#ah)" d="M446.998 968.426h55.471v3.447h-55.471z"></path><path fill="#37318b" d="m446.998 971.873-2.73-1.577v-30.764l2.73 1.573v30.768z" class="color34318b svgShape"></path><path fill="#6b1c6b" d="m446.998 971.873 2.73-1.577v-30.764l-2.73 1.573v30.768z" class="color1e1c6b svgShape"></path><path fill="url(#ai)" d="m477.03 932.245-30.032-44.548s-30.495 45.203-30.694 45.53a11.948 11.948 0 0 0-1.882 6.305c0 4.813 3.184 9.62 9.544 13.29 12.718 7.349 33.342 7.349 46.063 0 6.363-3.67 9.54-8.477 9.54-13.29a12.35 12.35 0 0 0-2.54-7.287Z"></path><path fill="url(#aj)" d="m473.323 914.224-26.325-39.042-26.317 39.042a10.78 10.78 0 0 0-2.227 6.38c0 4.22 2.79 8.434 8.355 11.653 11.156 6.44 29.225 6.44 40.372 0 5.573-3.22 8.366-7.434 8.366-11.653a10.875 10.875 0 0 0-2.224-6.38Z"></path><path fill="url(#ak)" d="M469.966 899.353c-.145-.247-22.968-34.075-22.968-34.075s-22.824 33.828-22.974 34.075a8.994 8.994 0 0 0-1.401 4.712c0 3.603 2.375 7.205 7.135 9.952 9.522 5.495 24.957 5.495 34.474 0 4.763-2.747 7.14-6.349 7.14-9.952a8.95 8.95 0 0 0-1.406-4.712Z"></path><path style="mix-blend-mode:multiply" fill="url(#al)" d="M493.958 995.975h55.471v3.447h-55.471z"></path><path fill="#37318b" d="m493.958 999.422-2.731-1.577v-30.764l2.731 1.573v30.768z" class="color34318b svgShape"></path><path fill="#6b1c6b" d="m493.958 999.422 2.73-1.577v-30.764l-2.73 1.573v30.768z" class="color1e1c6b svgShape"></path><path fill="url(#am)" d="m523.99 959.794-30.032-44.548s-30.495 45.203-30.694 45.53a11.948 11.948 0 0 0-1.883 6.305c0 4.813 3.185 9.621 9.545 13.291 12.718 7.348 33.342 7.348 46.063 0 6.363-3.67 9.539-8.478 9.539-13.291a12.351 12.351 0 0 0-2.538-7.287Z"></path><path fill="url(#an)" d="m520.283 941.773-26.325-39.042-26.317 39.042a10.783 10.783 0 0 0-2.227 6.38c0 4.22 2.79 8.434 8.355 11.654 11.155 6.44 29.224 6.44 40.372 0 5.573-3.22 8.366-7.434 8.366-11.654a10.873 10.873 0 0 0-2.224-6.38Z"></path><path fill="url(#ao)" d="M516.926 926.903c-.145-.248-22.968-34.076-22.968-34.076s-22.824 33.828-22.975 34.075a8.994 8.994 0 0 0-1.4 4.712c0 3.603 2.374 7.205 7.134 9.953 9.523 5.494 24.958 5.494 34.475 0 4.763-2.748 7.14-6.35 7.14-9.953a8.95 8.95 0 0 0-1.406-4.712Z"></path><path style="mix-blend-mode:multiply" fill="url(#j)" d="M1071.47 945.755h66.993v4.514h-66.993z"></path><path fill="#37318b" d="m1068.185 908.601 3.285 1.897v39.771l-3.281-1.895-.004-39.773z" class="color34318b svgShape"></path><path fill="#6b1c6b" d="m1074.746 908.601-3.276 1.897v39.771l3.278-1.895-.002-39.773z" class="color1e1c6b svgShape"></path><path fill="url(#k)" d="M1040.125 890.09a31.343 31.343 0 1 1 31.345 31.342 31.346 31.346 0 0 1-31.345-31.343Z"></path><path style="mix-blend-mode:multiply" fill="url(#ap)" d="M932.536 995.593h66.993v4.514h-66.993z"></path><path fill="#37318b" d="m929.251 958.439 3.285 1.897v39.771l-3.281-1.896-.004-39.772z" class="color34318b svgShape"></path><path fill="#6b1c6b" d="m935.812 958.439-3.276 1.897v39.771l3.278-1.896-.002-39.772z" class="color1e1c6b svgShape"></path><path fill="url(#aq)" d="M901.19 939.927a31.343 31.343 0 1 1 31.346 31.343 31.346 31.346 0 0 1-31.345-31.343Z"></path></g><path fill="#e8f0f9" d="m1013.3 36.51-9.305 5.37c-5.433 3.137-12.915-13.99-18.996-10.48l-16.307 9.413c-12.158 7.017-7.77-13.419-25.956-2.919-21.368 12.34-19.62 37.106-31.778 44.126l-16.307 9.413c-6.077 3.511-7.738 18.044-13.173 21.181l-9.305 5.37c-2.022 1.17-5.893 4.403-5.895 8.637l76.458-44.142s73.69-42.549 76.459-44.144c0-4.234-3.87-2.997-5.895-1.826Z" class="colore8edf9 svgShape"></path></g></svg>