<svg xmlns="http://www.w3.org/2000/svg" xmlns:xlink="http://www.w3.org/1999/xlink" viewBox="0 0 1800 1500" id="BusinessDirection"><defs><linearGradient id="l" x1="447.46" x2="524.99" y1="511.14" y2="511.14" gradientUnits="userSpaceOnUse"><stop offset=".42" stop-color="#c4d6e9" class="stopColorc4cae9 svgShape"></stop><stop offset=".71" stop-color="#e4ecf5" class="stopColore4e6f5 svgShape"></stop><stop offset="1" stop-color="#ffffff" class="stopColorffffff svgShape"></stop></linearGradient><linearGradient id="m" x1="1477.09" x2="1505.77" y1="1617.85" y2="1667.52" gradientTransform="rotate(120 1310.07 784.383)" gradientUnits="userSpaceOnUse"><stop offset="0" stop-color="#e33cc5" class="stopColore33c5c svgShape"></stop><stop offset="1" stop-color="#ff5ae1" class="stopColorff5a72 svgShape"></stop></linearGradient><linearGradient id="n" x1="1052.38" x2="1187.46" y1="511.03" y2="511.03" gradientUnits="userSpaceOnUse"><stop offset="0" stop-color="#c4d4e4" class="stopColorc4c9e4 svgShape"></stop><stop offset=".26" stop-color="#d7e2ed" class="stopColord7daed svgShape"></stop><stop offset=".73" stop-color="#f4f6f8" class="stopColorf4f5fa svgShape"></stop><stop offset="1" stop-color="#ffffff" class="stopColorffffff svgShape"></stop></linearGradient><linearGradient id="a" x1="1032.23" x2="1123.7" y1="469.59" y2="469.59" gradientUnits="userSpaceOnUse"><stop offset="0" stop-color="#857dfb" class="stopColor807dfb svgShape"></stop><stop offset=".01" stop-color="#847cfa" class="stopColor7f7cfa svgShape"></stop><stop offset=".45" stop-color="#625ad1" class="stopColor5e5ad1 svgShape"></stop><stop offset=".79" stop-color="#4d46b8" class="stopColor4a46b8 svgShape"></stop><stop offset="1" stop-color="#453eaf" class="stopColor423eaf svgShape"></stop></linearGradient><linearGradient id="b" x1="1032.23" x2="1123.7" y1="485.14" y2="485.14" gradientUnits="userSpaceOnUse"><stop offset="0" stop-color="#cee3f8" class="stopColorced3f8 svgShape"></stop><stop offset=".42" stop-color="#c4d9ef" class="stopColorc4c9ef svgShape"></stop><stop offset="1" stop-color="#bbd0e6" class="stopColorbbc0e6 svgShape"></stop></linearGradient><linearGradient id="o" x1="1032.23" x2="1123.7" y1="500.68" y2="500.68" xlink:href="#a"></linearGradient><linearGradient id="p" x1="1032.23" x2="1123.7" y1="516.23" y2="516.23" xlink:href="#b"></linearGradient><linearGradient id="q" x1="911.01" x2="1156.72" y1="907.02" y2="481.44" gradientUnits="userSpaceOnUse"><stop offset=".25" stop-color="#ffffff" class="stopColorffffff svgShape"></stop><stop offset="1" stop-color="#d1e2f3" class="stopColord1d7f3 svgShape"></stop></linearGradient><linearGradient id="r" x1="462.3" x2="702.57" y1="1202.83" y2="786.68" gradientUnits="userSpaceOnUse"><stop offset="0" stop-color="#83c1ff" class="stopColorffa383 svgShape"></stop><stop offset=".64" stop-color="#ffffff" class="stopColorffffff svgShape"></stop></linearGradient><linearGradient id="s" x1="462.37" x2="702.77" y1="482.97" y2="899.36" gradientUnits="userSpaceOnUse"><stop offset="0" stop-color="#dae7f5" class="stopColordae0f5 svgShape"></stop><stop offset=".7" stop-color="#ffffff" class="stopColorffffff svgShape"></stop></linearGradient><linearGradient id="t" x1="911.21" x2="1156.79" y1="779.01" y2="1204.36" gradientUnits="userSpaceOnUse"><stop offset=".31" stop-color="#ffffff" class="stopColorffffff svgShape"></stop><stop offset="1" stop-color="#dae7f5" class="stopColordae0f5 svgShape"></stop></linearGradient><linearGradient id="u" x1="613.12" x2="1173.73" y1="842.92" y2="842.92" gradientUnits="userSpaceOnUse"><stop offset=".46" stop-color="#dae7f5" class="stopColordae0f5 svgShape"></stop><stop offset=".7" stop-color="#e8f0f9" class="stopColore8ecf9 svgShape"></stop><stop offset="1" stop-color="#ffffff" class="stopColorffffff svgShape"></stop></linearGradient><linearGradient id="c" x1="530.57" x2="1091.18" y1="895.65" y2="895.65" gradientUnits="userSpaceOnUse"><stop offset=".09" stop-color="#5c55c6" class="stopColor5555c6 svgShape"></stop><stop offset=".17" stop-color="#564fbd" class="stopColor4f4fbd svgShape"></stop><stop offset=".73" stop-color="#302a82" class="stopColor2c2a82 svgShape"></stop><stop offset="1" stop-color="#6b1c6b" class="stopColor1e1c6b svgShape"></stop></linearGradient><linearGradient id="v" x1="769.23" x2="879.4" y1="801.2" y2="801.2" gradientUnits="userSpaceOnUse"><stop offset=".56" stop-color="#dae7f5" class="stopColordae0f5 svgShape"></stop><stop offset=".71" stop-color="#dde9f6" class="stopColordde3f6 svgShape"></stop><stop offset=".85" stop-color="#e7f0f9" class="stopColore7ebf9 svgShape"></stop><stop offset=".97" stop-color="#f9fbfd" class="stopColorf9fafd svgShape"></stop><stop offset="1" stop-color="#ffffff" class="stopColorffffff svgShape"></stop></linearGradient><linearGradient id="w" x1="755.79" x2="865.96" y1="812.48" y2="812.48" xlink:href="#c"></linearGradient><linearGradient id="d" x1="1112.39" x2="1209.08" y1="598.88" y2="598.88" gradientTransform="translate(-218.78)" gradientUnits="userSpaceOnUse"><stop offset="0" stop-color="#c4d6e8" class="stopColorc4cae8 svgShape"></stop><stop offset=".09" stop-color="#ceddec" class="stopColorced3ec svgShape"></stop><stop offset=".41" stop-color="#e9eff6" class="stopColore9ebf6 svgShape"></stop><stop offset=".69" stop-color="#f9fbfd" class="stopColorf9fafd svgShape"></stop><stop offset=".9" stop-color="#ffffff" class="stopColorffffff svgShape"></stop></linearGradient><linearGradient id="x" x1="1005.39" x2="1102.08" y1="573.24" y2="573.24" gradientTransform="translate(-155.07)" xlink:href="#d"></linearGradient><linearGradient id="e" x1="307.34" x2="342.98" y1="569.83" y2="569.83" gradientTransform="matrix(-1 0 0 1 1182.21 0)" gradientUnits="userSpaceOnUse"><stop offset="0" stop-color="#453eaf" class="stopColor423eaf svgShape"></stop><stop offset=".3" stop-color="#3c35a0" class="stopColor3a35a0 svgShape"></stop><stop offset=".89" stop-color="#241e77" class="stopColor241e77 svgShape"></stop><stop offset="1" stop-color="#6f196f" class="stopColor1f196f svgShape"></stop></linearGradient><linearGradient id="y" x1="263.28" x2="298.91" y1="595.48" y2="595.48" xlink:href="#e"></linearGradient><linearGradient id="z" x1="278.75" x2="340.02" y1="510.32" y2="510.32" gradientTransform="matrix(-1 0 0 1 1182.21 0)" gradientUnits="userSpaceOnUse"><stop offset="0" stop-color="#453eaf" class="stopColor423eaf svgShape"></stop><stop offset=".3" stop-color="#373097" class="stopColor353097 svgShape"></stop><stop offset=".75" stop-color="#251f7a" class="stopColor251f7a svgShape"></stop><stop offset="1" stop-color="#6f196f" class="stopColor1f196f svgShape"></stop></linearGradient><linearGradient id="A" x1="2554.55" x2="2591.99" y1="371.78" y2="371.78" gradientTransform="matrix(-1 0 0 1 3483.46 0)" gradientUnits="userSpaceOnUse"><stop offset="0" stop-color="#453eaf" class="stopColor423eaf svgShape"></stop><stop offset=".98" stop-color="#837bf9" class="stopColor7e7bf9 svgShape"></stop><stop offset="1" stop-color="#857dfb" class="stopColor807dfb svgShape"></stop></linearGradient><linearGradient id="f" x1="276.38" x2="340.38" y1="400.36" y2="400.36" gradientTransform="matrix(-1 0 0 1 1182.21 0)" gradientUnits="userSpaceOnUse"><stop offset="0" stop-color="#5a52cc" class="stopColor5652cc svgShape"></stop><stop offset="1" stop-color="#857dfb" class="stopColor807dfb svgShape"></stop></linearGradient><linearGradient id="B" x1="1995.66" x2="1943.25" y1="395.97" y2="377.53" gradientTransform="translate(-1057.64)" xlink:href="#f"></linearGradient><linearGradient id="C" x1="816.79" x2="930.6" y1="779.14" y2="779.14" gradientTransform="translate(-32.45)" xlink:href="#d"></linearGradient><linearGradient id="i" x1="749.82" x2="799.42" y1="570.39" y2="577.95" gradientUnits="userSpaceOnUse"><stop offset="0" stop-color="#ff6ae4" class="stopColorff826a svgShape"></stop><stop offset="1" stop-color="#e33cc5" class="stopColore33c5c svgShape"></stop></linearGradient><linearGradient id="g" x1="1714.08" x2="1726.41" y1="786.77" y2="772.09" gradientTransform="matrix(-1 0 0 1 2510.31 0)" gradientUnits="userSpaceOnUse"><stop offset="0" stop-color="#453eaf" class="stopColor423eaf svgShape"></stop><stop offset=".49" stop-color="#312b8e" class="stopColor302b8e svgShape"></stop><stop offset="1" stop-color="#6f196f" class="stopColor1f196f svgShape"></stop></linearGradient><linearGradient id="D" x1="1709.26" x2="1722.51" y1="782.53" y2="769.18" xlink:href="#g"></linearGradient><linearGradient id="h" x1="130.51" x2="177" y1="691.29" y2="702.23" gradientTransform="translate(642.27)" gradientUnits="userSpaceOnUse"><stop offset="0" stop-color="#5a52cc" class="stopColor5652cc svgShape"></stop><stop offset=".36" stop-color="#4740ae" class="stopColor4440ae svgShape"></stop><stop offset="1" stop-color="#6f196f" class="stopColor1f196f svgShape"></stop></linearGradient><linearGradient id="E" x1="1674.49" x2="1686.83" y1="809.62" y2="794.94" xlink:href="#g"></linearGradient><linearGradient id="F" x1="1669.67" x2="1682.92" y1="805.38" y2="792.03" xlink:href="#g"></linearGradient><linearGradient id="G" x1="151.26" x2="216.28" y1="709.47" y2="724.77" xlink:href="#h"></linearGradient><linearGradient id="H" x1="203.27" x2="136.85" y1="603.21" y2="603.21" gradientTransform="translate(642.27)" gradientUnits="userSpaceOnUse"><stop offset="0" stop-color="#e33cc5" class="stopColore33c5c svgShape"></stop><stop offset="1" stop-color="#ff6ae4" class="stopColorff826a svgShape"></stop></linearGradient><linearGradient id="I" x1="822.41" x2="879.92" y1="587.77" y2="629.66" xlink:href="#i"></linearGradient><linearGradient id="J" x1="1225.56" x2="1241.51" y1="773.02" y2="773.02" gradientTransform="rotate(-120 930.456 786.887)" gradientUnits="userSpaceOnUse"><stop offset="0" stop-color="#6f196f" class="stopColor20196f svgShape"></stop><stop offset="1" stop-color="#453eaf" class="stopColor423eaf svgShape"></stop></linearGradient><linearGradient id="K" x1="1218.86" x2="1248.21" y1="731.39" y2="731.39" gradientTransform="rotate(-120 930.456 786.887)" gradientUnits="userSpaceOnUse"><stop offset="0" stop-color="#342e94" class="stopColor362e94 svgShape"></stop><stop offset="1" stop-color="#857dfb" class="stopColor807dfb svgShape"></stop></linearGradient><linearGradient id="L" x1="702.94" x2="715.44" y1="553.87" y2="575.52" gradientUnits="userSpaceOnUse"><stop offset="0" stop-color="#f6f8fb" class="stopColorf6f6fb svgShape"></stop><stop offset="1" stop-color="#a5b8cc" class="stopColora5abcc svgShape"></stop></linearGradient><linearGradient id="M" x1="697.97" x2="712.52" y1="562.56" y2="562.56" gradientUnits="userSpaceOnUse"><stop offset="0" stop-color="#a5b8cc" class="stopColora5abcc svgShape"></stop><stop offset="1"></stop></linearGradient><linearGradient id="j" x1="404.83" x2="563.68" y1="852.63" y2="852.63" gradientTransform="translate(42.41)" gradientUnits="userSpaceOnUse"><stop offset="0" stop-color="#c4d4e5" class="stopColorc4c9e5 svgShape"></stop><stop offset=".24" stop-color="#dde6f0" class="stopColordde0f0 svgShape"></stop><stop offset=".54" stop-color="#f6f8fb" class="stopColorf6f7fb svgShape"></stop><stop offset=".72" stop-color="#ffffff" class="stopColorffffff svgShape"></stop></linearGradient><linearGradient id="N" x1="282.93" x2="434.96" y1="899.22" y2="899.22" gradientTransform="translate(97.64)" xlink:href="#j"></linearGradient><linearGradient id="O" x1="161.02" x2="300.95" y1="945.81" y2="945.81" gradientTransform="translate(152.86)" xlink:href="#j"></linearGradient><linearGradient id="P" x1="601.25" x2="760.43" y1="475.55" y2="475.55" gradientTransform="translate(21.59)" gradientUnits="userSpaceOnUse"><stop offset="0" stop-color="#c4d2e1" class="stopColorc4c8e1 svgShape"></stop><stop offset=".19" stop-color="#d7e0ea" class="stopColord7d9ea svgShape"></stop><stop offset=".48" stop-color="#edf1f6" class="stopColoredeef6 svgShape"></stop><stop offset=".75" stop-color="#fafbfd" class="stopColorfafbfd svgShape"></stop><stop offset="1" stop-color="#ffffff" class="stopColorffffff svgShape"></stop></linearGradient><linearGradient id="Q" x1="1383.79" x2="1353.49" y1="711.59" y2="764.07" gradientTransform="matrix(-1 0 0 1 2762 0)" gradientUnits="userSpaceOnUse"><stop offset="0" stop-color="#e33cc5" class="stopColore33c5c svgShape"></stop><stop offset=".42" stop-color="#f261d8" class="stopColorf26163 svgShape"></stop><stop offset=".78" stop-color="#fb68e0" class="stopColorfb7968 svgShape"></stop><stop offset="1" stop-color="#ff6ae4" class="stopColorff826a svgShape"></stop></linearGradient><linearGradient id="R" x1="1123.67" x2="1187.92" y1="666.83" y2="778.11" gradientTransform="translate(264.16)" gradientUnits="userSpaceOnUse"><stop offset=".34" stop-color="#ff6ae4" class="stopColorff826a svgShape"></stop><stop offset=".48" stop-color="#fb68e0" class="stopColorfb7968 svgShape"></stop><stop offset=".72" stop-color="#f261d8" class="stopColorf26163 svgShape"></stop><stop offset="1" stop-color="#e33cc5" class="stopColore33c5c svgShape"></stop></linearGradient><linearGradient id="S" x1="1397.98" x2="1526.47" y1="807.97" y2="807.97" gradientUnits="userSpaceOnUse"><stop offset="0" stop-color="#d1e2f3" class="stopColord1d7f3 svgShape"></stop><stop offset=".65" stop-color="#f2f7fc" class="stopColorf2f4fc svgShape"></stop><stop offset="1" stop-color="#ffffff" class="stopColorffffff svgShape"></stop></linearGradient><linearGradient id="T" x1="1254.95" x2="1494.37" y1="937.84" y2="937.84" gradientUnits="userSpaceOnUse"><stop offset="0" stop-color="#dfe9f4" class="stopColordfe4f4 svgShape"></stop><stop offset=".43" stop-color="#f1f5fa" class="stopColorf1f3fa svgShape"></stop><stop offset=".88" stop-color="#ffffff" class="stopColorffffff svgShape"></stop></linearGradient><linearGradient id="U" x1="670.32" x2="830.37" y1="1167.2" y2="1167.2" gradientUnits="userSpaceOnUse"><stop offset=".45" stop-color="#c4d4e4" class="stopColorc4c9e4 svgShape"></stop><stop offset="1" stop-color="#ffffff" class="stopColorffffff svgShape"></stop></linearGradient><linearGradient id="V" x1="633.65" x2="790.41" y1="1179.72" y2="1179.72" xlink:href="#i"></linearGradient><linearGradient id="W" x1="648.38" x2="775.69" y1="1128.64" y2="1128.64" xlink:href="#i"></linearGradient><linearGradient id="X" x1="687.85" x2="722.25" y1="1161.84" y2="1161.84" xlink:href="#i"></linearGradient><linearGradient id="Y" x1="968.07" x2="1080.1" y1="818.01" y2="818.01" gradientTransform="translate(-18.69)" gradientUnits="userSpaceOnUse"><stop offset="0" stop-color="#c4d6e9" class="stopColorc4cae9 svgShape"></stop><stop offset=".09" stop-color="#cedded" class="stopColorced3ed svgShape"></stop><stop offset=".41" stop-color="#e9f0f7" class="stopColore9ebf7 svgShape"></stop><stop offset=".69" stop-color="#f9fbfd" class="stopColorf9fafd svgShape"></stop><stop offset=".9" stop-color="#ffffff" class="stopColorffffff svgShape"></stop></linearGradient><linearGradient id="k" x1="2636.83" x2="2658.3" y1="1107.15" y2="1095.65" gradientTransform="matrix(-.99 -.16 -.16 .99 3747.8 151.9)" gradientUnits="userSpaceOnUse"><stop offset="0" stop-color="#453eaf" class="stopColor423eaf svgShape"></stop><stop offset=".49" stop-color="#312b8e" class="stopColor302b8e svgShape"></stop><stop offset="1" stop-color="#6f196f" class="stopColor20196f svgShape"></stop></linearGradient><linearGradient id="Z" x1="2617.38" x2="2638.85" y1="1114.48" y2="1102.97" xlink:href="#k"></linearGradient><linearGradient id="aa" x1="-356.73" x2="-287.66" y1="657.64" y2="657.64" gradientTransform="translate(1297.98)" gradientUnits="userSpaceOnUse"><stop offset="0" stop-color="#342e94" class="stopColor362e94 svgShape"></stop><stop offset="1" stop-color="#6f67e9" class="stopColor6b67e9 svgShape"></stop></linearGradient><linearGradient id="ab" x1="972.18" x2="1034.74" y1="1083.5" y2="1083.5" gradientUnits="userSpaceOnUse"><stop offset=".43" stop-color="#c4d4e4" class="stopColorc4c9e4 svgShape"></stop><stop offset=".58" stop-color="#d7e2ed" class="stopColord7daed svgShape"></stop><stop offset=".85" stop-color="#f4f6f8" class="stopColorf4f5fa svgShape"></stop><stop offset="1" stop-color="#ffffff" class="stopColorffffff svgShape"></stop></linearGradient><linearGradient id="ac" x1="960.19" x2="1014.63" y1="1082.83" y2="1082.83" xlink:href="#a"></linearGradient></defs><g style="isolation:isolate" fill="#010001" class="color000000 svgShape"><g fill="#010001" class="color000000 svgShape"><g data-name="Accept symbol" fill="#010001" class="color000000 svgShape"><path d="M516.66 499.4c-5.67-3.3-13.16-4.91-20.62-4.86h-19.7c-7.38 0-14.77 1.6-20.42 4.86-11.23 6.49-11.29 17-.12 23.49 5.65 3.29 13.1 4.9 20.54 4.86H496c7.4 0 14.82-1.59 20.48-4.86 11.28-6.49 11.34-17.01.18-23.49Z" style="mix-blend-mode:multiply" fill="url(#l)"></path><path fill="url(#m)" d="M496.33 522.88c5.66-3.26 8.48-7.55 8.47-11.83v-14.27c0 4.27-2.81 8.55-8.46 11.82-11.23 6.48-29.38 6.48-40.54 0-5.54-3.22-8.32-7.44-8.33-11.66v14.28c0 4.22 2.79 8.44 8.34 11.66 11.19 6.48 29.29 6.48 40.52 0Z"></path><path fill="#f4f6f8" d="M496.31 508.6c11.23-6.48 11.29-17 .14-23.48s-29.32-6.49-40.55 0-11.29 17-.13 23.49 29.31 6.47 40.54-.01Z" class="colorff826a svgShape"></path><path fill="#b0d7ff" d="M477.84 495.85a2.31 2.31 0 0 1 0-4.37 8.37 8.37 0 0 1 7.55 0c2.09 1.2 2.09 3.16 0 4.37l3.43 2c3.39-2 3.88-4.95 1.5-7.21l2.71-1.57-3.43-2-2.71 1.57c-3.91-1.37-9.1-1.09-12.48.86-1.93 1.12-3 2.59-3 4.16s1.06 3 3 4.17 2.08 3.15 0 4.36a8.39 8.39 0 0 1-7.56 0c-2.08-1.21-2.08-3.16 0-4.36l-3.43-2c-3.38 1.95-3.87 4.94-1.5 7.2l-2.5 1.44 3.43 2 2.5-1.45c3.92 1.38 9.1 1.1 12.49-.86 3.97-2.28 3.97-6.02 0-8.31Z" class="colorffd0b0 svgShape"></path><path d="M1174 492.3c-9.55-5.52-22.26-8.07-34.74-7.69H1076v3.2a51.43 51.43 0 0 0-10.35 4.49c-17.79 10.34-17.69 27.11.22 37.45a52 52 0 0 0 10.13 4.39v3.35h67.11c11.29-.19 22.47-2.75 31.05-7.74 17.84-10.34 17.72-27.11-.16-37.45Z" style="mix-blend-mode:multiply" fill="url(#n)"></path><path fill="url(#a)" d="M1045.72 482.91c-9-5.2-13.52-12-13.49-18.86v-15.54c0 6.82 4.48 13.65 13.49 18.85 17.92 10.35 46.86 10.35 64.65 0 8.85-5.14 13.27-11.86 13.29-18.6v15.55c0 6.73-4.44 13.45-13.28 18.59-17.8 10.36-46.75 10.36-64.66.01Z"></path><path fill="url(#b)" d="M1045.72 498.46c-9-5.21-13.52-12-13.49-18.86v-15.55c0 6.83 4.48 13.65 13.49 18.86 17.92 10.34 46.86 10.34 64.65 0 8.85-5.15 13.27-11.86 13.29-18.6v15.55c0 6.73-4.44 13.45-13.28 18.59-17.8 10.36-46.75 10.36-64.66.01Z"></path><path fill="url(#o)" d="M1045.72 514c-9-5.2-13.52-12-13.49-18.85V479.6c0 6.82 4.48 13.65 13.49 18.86 17.92 10.34 46.86 10.34 64.65 0 8.85-5.15 13.27-11.87 13.29-18.6v15.55c0 6.73-4.44 13.45-13.28 18.59-17.8 10.35-46.75 10.35-64.66 0Z"></path><path fill="url(#p)" d="M1045.72 529.55c-9-5.2-13.52-12-13.49-18.85v-15.55c0 6.82 4.48 13.65 13.49 18.85 17.92 10.35 46.86 10.35 64.65 0 8.85-5.14 13.27-11.86 13.29-18.6v15.55c0 6.73-4.44 13.45-13.28 18.59-17.8 10.36-46.75 10.36-64.66.01Z"></path><path fill="#f6f8fb" d="M1045.76 467.36c-17.91-10.33-18-27.11-.21-37.44s46.75-10.35 64.65 0 18 27.11.21 37.45-46.73 10.34-64.65-.01Z" class="colorf6f6fb svgShape"></path><path fill="#bbd0e6" d="m1101.44 446.51-33.83 1.72 1.05-7.6h-9.35l-2.54 13.86 44.67-2.58v-5.4z" class="colorbbc0e6 svgShape"></path><path fill="url(#q)" d="m1296.85 562.35-186.36 33.13 26.4 15.24-369.54 213.36 76.17 43.97 369.54-213.35 26.39 15.24 57.4-107.59z"></path><path fill="url(#r)" d="m843.52 868.05-76.17-43.97-358.66 207.06-26.4-15.24-57.39 107.6 186.36-33.14-26.4-15.24 358.66-207.07z"></path><path fill="url(#s)" d="m484.86 610.72 26.39-15.24-186.35-33.14 57.39 107.6 26.4-15.24 358.92 207.22 76.17-43.98-358.92-207.22z"></path><path fill="url(#t)" d="m1296.85 1123.5-57.4-107.59-26.39 15.24-369.28-213.21-76.17 43.98 369.28 213.2-26.4 15.24 186.36 33.14z"></path><ellipse cx="810.87" cy="842.42" rx="360.72" ry="208.26" style="mix-blend-mode:multiply" fill="none" stroke="#e8eff7" stroke-linecap="round" stroke-linejoin="round" stroke-width="2" class="colorStrokee8ecf7 svgStroke"></ellipse><ellipse cx="810.87" cy="842.42" rx="437.64" ry="252.67" style="mix-blend-mode:multiply" fill="none" stroke="#e8eff7" stroke-linecap="round" stroke-linejoin="round" stroke-width="2" class="colorStrokee8ecf7 svgStroke"></ellipse><path d="M1091.63 728.5c-109.46-63.21-286.94-63.21-396.41 0s-109.46 165.66 0 228.86c31.32 18.08 68.21 31 107.47 38.7v8.69h93.93c70.67-.49 141.09-16.25 195-47.39 109.48-63.19 109.48-165.66.01-228.86Z" style="mix-blend-mode:multiply" fill="url(#u)"></path><path fill="#ffffff" d="M638.37 701.61c95.27-55 249.74-55 345 0s95.27 144.18 0 199.19-249.74 55-345 0-95.28-144.19 0-199.19Z" class="colorffffff svgShape"></path><path fill="#c6d6e7" d="M961.66 714.15c-83.14-48-218.43-48-301.58 0s-83.14 126.12 0 174.11 218.43 48 301.57 0 83.16-126.12.01-174.11Zm-5.87 173a233.76 233.76 0 0 1-38.67 17.17l-6.24-6.32-4.75 1.58 6.22 6.22a305.94 305.94 0 0 1-45.08 10.76l-3.21-6.92-5.3.82 3.21 6.92a356 356 0 0 1-48.35 3.64v-7.13h-5.49v7.13a356 356 0 0 1-48.35-3.64l3.22-6.88-5.3-.82-3.21 6.92a305.94 305.94 0 0 1-45.08-10.76l6.22-6.22-4.77-1.62-6.24 6.24A233.66 233.66 0 0 1 666 887.11l8.78-5.07-3.88-2.24-8.78 5.07a159.14 159.14 0 0 1-29.75-22.33l10.81-3.6-2.74-2.75-10.77 3.6a101.47 101.47 0 0 1-18.63-26l12-1.85-1.43-3.06-12 1.85a73.54 73.54 0 0 1-6.3-27.91h12.33v-3.18h-12.36a73.54 73.54 0 0 1 6.3-27.91l12 1.85 1.42-3.06-12-1.85a101.66 101.66 0 0 1 18.62-26l10.78 3.6 2.74-2.75-10.81-3.6a159.06 159.06 0 0 1 29.74-22.33l8.79 5.07 3.88-2.24-8.74-5.13a234.13 234.13 0 0 1 38.67-17.17l6.24 6.24 4.75-1.58-6.21-6.22a305.64 305.64 0 0 1 45.08-10.76l3.21 6.92 5.29-.82-3.2-6.92a355.87 355.87 0 0 1 48.35-3.64v7.13h5.49v-7.13A356.11 356.11 0 0 1 862 685l-3.21 6.92 5.3.82 3.21-6.92a305.94 305.94 0 0 1 45.08 10.76l-6.22 6.22 4.75 1.58 6.24-6.24a234.13 234.13 0 0 1 38.67 17.17l-8.82 5.05 3.88 2.24 8.79-5.07a159.47 159.47 0 0 1 29.75 22.33l-10.82 3.6 2.75 2.75 10.77-3.6a101.18 101.18 0 0 1 18.62 26l-12 1.85 1.42 3.06 12-1.85a73.54 73.54 0 0 1 6.3 27.91h-12.33v3.18h12.33a73.54 73.54 0 0 1-6.3 27.91l-12-1.85-1.42 3.06 12 1.85a101.18 101.18 0 0 1-18.62 26l-10.77-3.6-2.75 2.75 10.82 3.6a158.61 158.61 0 0 1-29.75 22.33l-8.79-5.07L947 882Z" class="colorc6cbe7 svgShape"></path><path fill="#37318f" d="m937.78 722-3.85 19.53L947 734q2.73-1.58 2.91-2.58c.15-.92-.63-1.86-2.35-2.81l.83-.48 10 5.8-.83.48a14.39 14.39 0 0 0-3.23-1.13 6 6 0 0 0-2.31.15 13.44 13.44 0 0 0-3.4 1.53l-25.3 14.61-.76-.44 4.75-26.47L908 733.79c-1.75 1-2.53 1.92-2.34 2.74a3.39 3.39 0 0 0 1.83 2.11l.71.42-.83.47-10.77-6.22.82-.48a9.38 9.38 0 0 0 4.53 1.43 9.18 9.18 0 0 0 4.42-1.41l21.44-12.39.16-.84a2.87 2.87 0 0 0-.12-1.9 4.73 4.73 0 0 0-1.7-1.47l.83-.48ZM720.55 863.51l-9.88 6-.92-.54q3.15-2.58 2.93-5.38a5.66 5.66 0 0 0-3.18-4.51 9.9 9.9 0 0 0-4.84-1.38 7.68 7.68 0 0 0-4.14.85 2.93 2.93 0 0 0-1.33 1.3 3.66 3.66 0 0 0 0 2.41 28.08 28.08 0 0 0 2.24 4.32q2.72 4.59 2.24 7t-3.49 4.13a17.91 17.91 0 0 1-9.52 2.07 21.13 21.13 0 0 1-10.29-2.78 13.22 13.22 0 0 1-2.42-1.73 15.43 15.43 0 0 1-2.11-2.49 4.24 4.24 0 0 0-1.32-1.27 4.29 4.29 0 0 0-1.68-.46 7.35 7.35 0 0 0-2.42.18l-.83-.48 11.47-6.62.83.48q-3.85 3.36-3.58 6.46a6.27 6.27 0 0 0 3.52 5 11.22 11.22 0 0 0 5.36 1.53 8.91 8.91 0 0 0 4.68-1 3.6 3.6 0 0 0 1.51-1.54 3.22 3.22 0 0 0 .18-2.11 15 15 0 0 0-1.76-3.74 19.83 19.83 0 0 1-2.49-5.45 5.23 5.23 0 0 1 .42-3.46 7 7 0 0 1 2.92-2.81 16.91 16.91 0 0 1 8.85-2 18.78 18.78 0 0 1 9.28 2.4 12.88 12.88 0 0 1 2.51 1.86 10.82 10.82 0 0 1 1.57 2.06 4.71 4.71 0 0 0 1.39 1.65 2.4 2.4 0 0 0 1.27.32 8.68 8.68 0 0 0 2.36-.63Z" class="color34318f svgShape"></path><path fill="url(#c)" d="M1009.08 901c-109.47 63.2-286.94 63.2-396.41 0-54.73-31.6-82.1-73-82.1-114.43v56.4c0 41.42 27.37 82.83 82.1 114.43 109.47 63.2 286.94 63.2 396.41 0 54.5-31.46 81.85-72.66 82.09-113.9v-56.93c.01 41.37-27.36 82.79-82.09 114.43Z"></path><path fill="#857dfb" d="M1009.08 672.1c-109.47-63.2-287-63.2-396.41 0s-109.47 165.66 0 228.9 286.94 63.2 396.41 0 109.46-165.71 0-228.9Zm-25.7 214c-95.27 55-249.74 55-345 0s-95.28-144.2 0-199.2 249.74-55 345 0 95.27 144.22 0 199.23Z" class="color807dfb svgShape"></path><path fill="#5c55c6" d="M567.25 794c2.89-33.68 26.57-66.7 71.12-92.41 95.27-55 249.74-55 345 0 42.87 24.74 66.44 56.48 71.13 92.26.11-1.31.19-2.62.2-3.07 2-37.46-21.81-75.28-71.33-103.87-95.27-55-249.74-55-345 0-49.52 28.61-73.29 66.43-71.37 103.89.1 1.2.16 1.95.25 3.2Z" class="color5555c6 svgShape"></path><path d="M785.37 778.71c21.51-12.42 56.38-12.42 77.9 0s21.51 32.56 0 45-56.39 12.42-77.9 0-21.52-32.58 0-45Z" style="mix-blend-mode:multiply" fill="url(#v)"></path><path fill="#f4f6f8" d="m851.63 771.37-14.52-2.08 70.06-23.69-55.54 25.77z" class="colorff826a svgShape"></path><path fill="#a50b89" d="m851.63 771.37 10.96 18.19 44.58-43.96-55.54 25.77z" class="colore33c5c svgShape"></path><path fill="url(#w)" d="M849.82 814.45c-21.51 12.42-56.38 12.42-77.9 0-10.75-6.21-16.13-14.35-16.13-22.48v9.23c0 8.14 5.38 16.28 16.13 22.49 21.52 12.42 56.39 12.42 77.9 0 10.76-6.21 16.18-14.35 16.18-22.49V792c0 8.1-5.42 16.24-16.18 22.45Z"></path><path fill="#857dfb" d="M771.92 769.48c21.51-12.42 56.39-12.42 77.9 0s21.52 32.55 0 45-56.38 12.42-77.9 0-21.51-32.58 0-45Z" class="color807dfb svgShape"></path><path fill="#f4f6f8" d="m771.8 814.58-12.38-2-44.85 44.22 57.23-42.22z" class="colorff826a svgShape"></path><path fill="#a50b89" d="m771.8 814.58 19.38 16.32-76.61 25.9 57.23-42.22z" class="colore33c5c svgShape"></path><path style="mix-blend-mode:multiply" fill="url(#d)" d="M893.6 590h96.69v17.77H893.6z"></path><path style="mix-blend-mode:multiply" fill="url(#x)" d="M850.33 564.36h96.68v17.77h-96.68z"></path><path fill="url(#e)" d="M839.23 576.64c0-13.95 8.85-14.36 8.85-14.36s4.78 0 12.57-3.23 18.5-2 12.45 9.2a2.58 2.58 0 0 1-.2.41 5.51 5.51 0 0 1-2 1.73l-19.3 11.34c-2.95 1.67-12.3-2.21-12.37-5.09Z"></path><path fill="#471047" d="M839.28 575.4c.17 2.86 9.4 6.68 12.32 5l19.34-11.33a18.75 18.75 0 0 0 2.72-2c-.17.37-.33.75-.56 1.16a2.58 2.58 0 0 1-.2.41 5.51 5.51 0 0 1-2 1.73l-19.3 11.36c-2.75 1.57-11.14-1.74-12.25-4.53a3.75 3.75 0 0 1-.09-.56 10.16 10.16 0 0 1 .02-1.24Z" class="color121047 svgShape"></path><path fill="#ffffff" d="M842.83 560.44c2.28 0 10.3 2 10.3 2a4.37 4.37 0 0 0 .72 2.07l.22.27c1.58 1.1 3.19 2.84-.57 5.2a5.2 5.2 0 0 1-6.75-.48 6.19 6.19 0 0 0-2.19-2.48 5.56 5.56 0 0 0-2.08-.88 1.83 1.83 0 0 0 0-.19s-.6-5.51.35-5.51Z" class="colorffffff svgShape"></path><path fill="#471147" d="m842.68 423.94 39.33.71c-3.25 26.27-9.8 50.13-14.17 75.58-4.69 24.73-10 42.11-14.6 62.69-1.69 3.83-9.41 2.38-11-1.3-1.22-19-2.63-42 3-63.92-.93-23.57-3.11-49.95-2.56-73.76Z" class="color131147 svgShape"></path><path fill="url(#y)" d="M883.3 602.3c0-14 8.85-14.37 8.85-14.37s4.78 0 12.57-3.23 18.5-2 12.45 9.2a3.29 3.29 0 0 1-.21.42 5.4 5.4 0 0 1-2 1.71l-19.32 11.34c-2.91 1.68-12.27-2.2-12.34-5.07Z"></path><path fill="#471047" d="M883.35 601c.16 2.87 9.4 6.68 12.33 5L915 594.72a18.2 18.2 0 0 0 2.73-2c-.19.38-.33.76-.56 1.17a3.29 3.29 0 0 1-.21.42 5.4 5.4 0 0 1-2 1.71l-19.32 11.34c-2.76 1.58-11.16-1.73-12.26-4.52a2.59 2.59 0 0 1-.08-.57 8.54 8.54 0 0 1 .05-1.27Z" class="color121047 svgShape"></path><path fill="#ffffff" d="M886.9 586.09c2.27 0 10.29 2 10.29 2a4.62 4.62 0 0 0 .71 2.08c.09.09.15.18.23.27 1.59 1.1 3.2 2.84-.56 5.2a5.22 5.22 0 0 1-6.76-.48 6.16 6.16 0 0 0-2.18-2.48 5.7 5.7 0 0 0-2.09-.88v-.19s-.6-5.52.36-5.52Z" class="colorffffff svgShape"></path><path fill="url(#z)" d="M870.42 486.42c-2.39-11.3-29.95-12.7-28.14-57.11 8.64-1.27 52.27 19.2 60.91 17.92 1.08 26.45-1.47 51.07-1.63 76.88-.59 25.16-3 43.17-4.16 64.23-1 4.06-8.9 3.89-11 .51-4.31-18.5-9.46-41.06-7.49-63.55-2.62-12.45-5.69-25.65-8.49-38.88Z"></path><path fill="#5046e4" d="M862.22 343.08c-30.78 20.56-34.45 61.4-17.81 87.31 0 0-3.57-57.39 17.81-87.31Z" class="color5652cc svgShape"></path><path fill="#9dc7f2" d="M900.31 341.65c-.2-2.38.7-5.9-.88-7.62a24.3 24.3 0 0 0-5.1-3.58c-1.79 1-7.51 5.23-7.51 5.23.76 2.07 2.1 6.34 5.73 9 2.06-.89 7.76-3.03 7.76-3.03Z" class="colorf2c39d svgShape"></path><path fill="url(#A)" d="M928.92 402.17c-2.95-23.25-20.49-46.15-27.8-60.79a92.07 92.07 0 0 0-9.65 3.78c2.69 9.52 22.15 56.33 22.15 56.33Z"></path><path fill="url(#f)" d="M860.81 454.49c18.73 10.52 38.34 10.53 45-2.39-2.5-24.06-4.85-43.64 0-66.71-1.42-12.73-2.43-14.64-.79-22.08-.58-2.49-8.25-7.81-13.83-12.91-6-5.49-10.1-10.73-13.21-11.37-25.62-5.23-38.06 40.41-35.92 89.08 1.94 12.94 9.53 21.21 18.75 26.38Z"></path><path fill="#a9d2fc" d="M863.78 341.94c5.55-4 5.11-12.32 4.64-17.83a27 27 0 0 1-1-9.53c.82-12.14 9.27-22.11 18.7-20.81 19 2.6 14.93 12.42 14.11 24.56-.76 11.25-6.39 18.65-15 19.37-.13 1.86.63 7.47 3 9.81-6.26 3.74-15.38 2-19 .35-3.91-1.74-8.06-3.22-5.45-5.92Z" class="colorfcd1a9 svgShape"></path><path fill="#6f196f" d="M893.67 287.84c-.45-1.53-3.35-2.52-13.23 1.29l-2.55 1c-18.28 7.92-13.86 29-11.13 34.6a11.35 11.35 0 0 1 1.44 6.63c7.18-.3 9.46 3.75 14.06-.28 3.3-2.89 8.24-6.27 9.07-7.69a5.68 5.68 0 0 0 .67-3.49c0-10.09 4.68-3.93 4.53-1.6 1.92-.93 1.79-5 1.66-9.51 15.52-11.59 7.19-19.58-4.52-20.95Z" class="color20196f svgShape"></path><path fill="url(#B)" d="M927.6 397.91c-6.55-12.88-11.21-18.22-22.81-35.16-2.7-4-11.39-2.48-15.67 3.18-5.8 7.64-3.32 18.76 0 23.28 8.41 8.7 14.38 12.28 21.8 18.32 12.14 9.91 21.79.47 16.68-9.62Z"></path><path style="mix-blend-mode:multiply" fill="url(#C)" d="M898.15 768.68H793.87l-9.53 20.92h113.81v-20.92z"></path><path fill="#342e94" d="M765 545.43c0-.94-7.21-2.07-12.47.47 2.52 2.67 4.87 2.39 6.45 2.44.88.02 6.02-1.62 6.02-2.91Z" class="color362e94 svgShape"></path><path fill="#a9d2fc" d="M765.27 541.47c-1.33 1.2-1.47 4.93-1.47 4.93-3.94 1.94-9.47.49-9.47.49.16-2-1-10.37-1-10.37l12 2.14Z" class="colorfcd1a9 svgShape"></path><path fill="url(#i)" d="M795.63 544.29c-11.2 6.14-23 25.42-30.36 34.71.12-15.68-.27-33.57-.27-33.57a15.07 15.07 0 0 1-12.47.47c-2 12.47-7.12 53.35.07 57.78S797.1 580 797.1 580Z"></path><path fill="url(#g)" d="M801.66 767.53c4.58.75 5.91 8.14 3.62 12.78-1.43 1.59-5 3.08-5 3.08s-14.48 6-17.73 6.21-10.49-1-11.08-6.52c.56-3.4 3.41-4.33 6.92-6.42 4.56-2.71 8.48-6.64 12.16-8.45 3.01-1.49 11.11-.68 11.11-.68Z"></path><path fill="#471047" d="M782.63 788.11c3.35-.27 18.25-6.37 18.25-6.37a19.46 19.46 0 0 0 5-3 12 12 0 0 1-.61 1.62c-1.43 1.59-5 3.08-5 3.08s-14.48 6-17.73 6.21-10.49-1-11.08-6.52c0-.11.06-.22.08-.34 1.53 4.53 8.02 5.57 11.09 5.32Z" class="color121047 svgShape"></path><path fill="#ffffff" d="M791.8 762.63c2.23.36 9.78 3.65 9.78 3.65a4.34 4.34 0 0 0 .37 2.14l.18.31c1.37 1.33 2.82 3.69-1.38 5-8.15 2.56-15.1-2.91-11.9-4.75 2.15-1.22 2.66-4.62 2.95-6.35Z" class="colorffffff svgShape"></path><path fill="url(#D)" d="M787.47 770.09c.6-.81 2-3 4.51-1.18s3.18 4.08 2.88 5.94-5.66.48-5.87.2-1.52-4.96-1.52-4.96Z"></path><path fill="url(#h)" d="M781.84 627.85c-.36 30.8 2.67 51.65 4.18 79 1.53 27.9 1.8 41.51 2.06 62.48 4 5 14.25 3.73 16.4-.12 2.66-19 8-37.6 5.64-59.69 6.07-30 14.4-61.32 11.82-82.81-6.06 1.9-34.03-.78-40.1 1.14Z"></path><path d="M823.93 812.45H853c8.81-6 13.12-13.48 13-20.92h-31.78Z" style="mix-blend-mode:multiply" fill="#dae7f5" class="colordae0f5 svgShape"></path><path fill="url(#E)" d="M841.24 790.39c4.59.75 5.92 8.13 3.62 12.77-1.42 1.59-5 3.09-5 3.09s-14.47 5.94-17.73 6.2-10.49-1-11.08-6.52c.56-3.4 3.42-4.33 6.92-6.41 4.57-2.71 8.48-6.65 12.16-8.45 3.01-1.49 11.11-.68 11.11-.68Z"></path><path fill="#471047" d="M822.21 811c3.36-.26 18.26-6.37 18.26-6.37a19.15 19.15 0 0 0 5-3 10.07 10.07 0 0 1-.61 1.61c-1.42 1.59-5 3.09-5 3.09s-14.47 5.94-17.73 6.2-10.49-1-11.08-6.52a3.37 3.37 0 0 0 .09-.34c1.52 4.51 8.01 5.54 11.07 5.33Z" class="color121047 svgShape"></path><path fill="#ffffff" d="M831.38 785.48c2.24.37 9.79 3.65 9.79 3.65a4.37 4.37 0 0 0 .37 2.15l.17.31c1.37 1.32 2.82 3.68-1.38 5-8.15 2.56-15.1-2.9-11.89-4.75 2.15-1.23 2.66-4.62 2.94-6.36Z" class="colorffffff svgShape"></path><path fill="url(#F)" d="M827.05 792.94c.61-.8 2-3 4.51-1.18s3.19 4.08 2.89 5.94-5.67.48-5.88.2-1.52-4.96-1.52-4.96Z"></path><path fill="url(#G)" d="M800.44 645.29c-.37 30.8 14.27 57.22 18.56 81.76 4.83 27.53 8.4 44.14 8.67 65.11 4 5 14.24 3.74 16.4-.11 2.66-19 2.76-49.26-1-62.33 3.28-34.26 0-64.11-2.58-85.59-6.02 1.92-33.98-.76-40.05 1.16Z"></path><path fill="url(#H)" d="M839.3 555.85c-5.3-6.64-18.3-15.85-26.85-16.52-14.51-1.07-26 10.91-29 20.93-2.79 9.43-1.25 80.65-4.37 93.47 1.54 6.76 14 10.42 18.68 11.45 20.48 4.49 47.61 1.62 47.61-11.46.04-25.17 1.63-90.23-6.07-97.87Z"></path><path fill="#a9d2fc" d="M837 633.78c-2 1.1.75 1.23-6.27 3.22-9 .24-19.21 3.37-17.11 8.32 1.57 3.69 11.29 6.09 18 3.52 5.24-2 6.33-2.66 7.54-5.45 4.09-3.39-2.16-9.61-2.16-9.61Z" class="colorfcd1a9 svgShape"></path><path fill="url(#I)" d="M829.39 552.58c4.9-1 10.9.15 16.13 14.37 4.51 12.29 18.83 47.09 16 51.5-7.22 11.39-10 17.29-20.86 27-6.52-3.5-8.55-10.25-6.58-14.16 5.14-6.35 4.31-10.47 7.38-18.25-2.69-7.35-18.8-35.9-19.16-43.84-.41-9.85 2.25-15.63 7.09-16.62Z"></path><path fill="#a9d2fc" d="M814.27 520.07c.53-4.7-15.71 4.87-15.06 11.08.53 5.05 2 9.49-3.1 12.65-1.76 1.41-7.79 11.22 1.48 11.33 13.25.16 16.78-3.48 26.36-11.69-5.71-3.22-11.4-8.13-9.68-23.37Z" class="colorfcd1a9 svgShape"></path><path fill="#a9d2fc" d="m818.1 517.29-6.6-9.29h-28.72v17.29c0 9.56 6.43 17.29 14.36 17.29 7.7 0 14.85-6.37 15.22-15.52l3.49-1.21Z" class="colorfcd1a9 svgShape"></path><path fill="#9dc7f2" d="M797.8 547.21c6.87 0 15.36-11 14.56-20.15a16.58 16.58 0 0 1-14.65 15.51 11.79 11.79 0 0 1-1.6 1.23 3.75 3.75 0 0 0-.48.49c0 1.39.93 2.92 2.17 2.92Z" class="colorf2c29d svgShape"></path><path fill="#6f196f" d="M784.46 500.2c-2.63-.46-2.87-2.65 7.78-6.33 6.18-3 15-4 20.63-.45 7.69 4.76 10 11.76 8.63 20.54s-7 17.14-7 17.14c-.85.86-1-3.19-.29-6.19a5.74 5.74 0 0 0 1-2.57c2-8.92-3.43-7.59-4.18-6.84-1.68.69 1.58 8.08-3.36 7.34-2.38-.35-2.06-7-2-9.36a9.57 9.57 0 0 0-1.08.28c-4.07 2.26-17.92 3.91-10.23-.9-5.36 0-12.66 2.47-15.12-.93-2.97-4.05 1.76-8.45 5.22-11.73Z" class="color1f196f svgShape"></path><path fill="url(#J)" d="M751.15 549.68 786.77 524a1.81 1.81 0 0 0 .69-1.61 5.59 5.59 0 0 0-2.52-4.37 1.78 1.78 0 0 0-1.78-.18l-40.08 18Z"></path><path fill="url(#K)" d="m701.85 552 14.86 25.31 36.07-25.25c1.22-.86 2-2.48 2-4.75a17 17 0 0 0-7.71-13.31c-2-1.13-3.76-1.3-5.11-.68Z"></path><path fill="#5046e4" d="M709.19 576.68c-5.73-3.31-10.38-11.35-10.38-18 0-3.31 1.16-5.64 3-6.72s4.47-.93 7.34.73c5.73 3.31 10.38 11.35 10.38 18 0 3.2-1.09 5.48-2.86 6.61s-4.52 1.09-7.48-.62Z" class="color5652cc svgShape"></path><path fill="url(#L)" d="M701 556.05a8.51 8.51 0 0 0-.68 3.55c0 5.63 4 12.49 8.84 15.31a8.47 8.47 0 0 0 3.4 1.17l.47.81 2.38-1.37.16-.09c1.5-1 2.43-2.9 2.43-5.63 0-5.63-4-12.49-8.84-15.31-2.44-1.41-4.65-1.54-6.25-.62l-2.38 1.37Z"></path><path fill="#cee3f8" d="M706.81 576.28c-4.88-2.82-8.81-9.68-8.81-15.28 0-2.82 1-4.8 2.59-5.73s3.81-.79 6.25.62c4.89 2.82 8.85 9.68 8.85 15.31 0 2.73-.93 4.67-2.44 5.63s-3.91.9-6.44-.55Z" class="colorced3f8 svgShape"></path><path d="M706.81 555.86c-2.44-1.41-4.65-1.54-6.25-.62S698 558.15 698 561a18.46 18.46 0 0 0 3.11 9.5l11.44-8.84a17.5 17.5 0 0 0-5.74-5.8Z" style="mix-blend-mode:screen" fill="url(#M)"></path><path fill="#a9d2fc" d="M750.63 532.52c.33 2 6.54 3.18 8.68 2.48 2.88-1 6.81-3.21 6-4.64s-2.55-6.45-5.23-5.71-10.23 3.03-9.45 7.87ZM767 540.51c1.12-1.44 1.44-6 0-5.83s-3.27 5.2-2.62 6.46c.24.47 1.62.62 2.62-.63Z" class="colorfcd1a9 svgShape"></path><path style="mix-blend-mode:multiply" fill="url(#j)" d="M565.73 829.33H447.24l40.36 23.3-40.36 23.3h118.49l40.36-23.3-40.36-23.3z"></path><path style="mix-blend-mode:multiply" fill="url(#N)" d="M492.25 875.92H380.56l40.35 23.3-40.35 23.3h111.69l40.35-23.3-40.35-23.3z"></path><path style="mix-blend-mode:multiply" fill="url(#O)" d="M413.47 922.51h-99.58l40.35 23.3-40.35 23.3h99.58l40.35-23.3-40.35-23.3z"></path><path fill="#cee3f8" d="m406.89 767.78 40.35 23.31v84.83l-40.35-23.3v-84.84z" class="colorced3f8 svgShape"></path><path fill="#bbd0e6" d="m487.59 767.78-40.35 23.31v84.83l40.35-23.3v-84.84z" class="colorbbc0e6 svgShape"></path><path fill="#f1f3f6" d="m447.24 744.49-40.35 23.29 40.35 23.31 40.35-23.31-40.35-23.29z" class="colorf1f1f6 svgShape"></path><path fill="#453eaf" d="m340.21 837.34 40.35 23.29v61.89l-40.35-23.3v-61.88z" class="color423eaf svgShape"></path><path fill="#342e94" d="m420.91 837.34-40.35 23.29v61.89l40.35-23.3v-61.88z" class="color362e94 svgShape"></path><path fill="#5046e4" d="m380.56 814.04-40.35 23.3 40.35 23.29 40.35-23.29-40.35-23.3zM273.53 897.27l40.36 23.3v48.54l-40.36-23.3v-48.54z" class="color5652cc svgShape"></path><path fill="#453eaf" d="m354.24 897.27-40.35 23.3v48.54l40.35-23.3v-48.54z" class="color423eaf svgShape"></path><path fill="#857dfb" d="m313.89 873.98-40.36 23.29 40.36 23.3 40.35-23.3-40.35-23.29z" class="color807dfb svgShape"></path><path style="mix-blend-mode:multiply" fill="url(#P)" d="M716.34 437.63h-93.5l65.67 37.93-65.67 37.92h93.5l65.68-37.92-65.68-37.93z"></path><path fill="#d3e1ef" d="m622.84 513.48-65.68-37.92v-56.88l65.68 37.91v56.89z" class="colord3d7ef svgShape"></path><path fill="#f0f2f5" d="m622.84 456.59 65.67-37.91-65.67-37.89-65.68 37.89 65.68 37.91z" class="colorf0f0f5 svgShape"></path><path fill="#eaf0f7" d="m622.84 456.59 32.84-49.93-65.68-37.9-32.84 49.92 65.68 37.91z" class="coloreaedf7 svgShape"></path><path fill="#dce6f1" d="m655.68 406.66 32.83 12.02-65.67-37.89L590 368.76l65.68 37.9z" class="colordce0f1 svgShape"></path><path fill="#bdcee0" d="m655.68 406.66 32.83 12.02v56.88l-65.67 37.92v-56.89l32.84-49.93z" class="colorbdc0e0 svgShape"></path><path fill="url(#Q)" d="M1388.39 716a20.64 20.64 0 0 1 1.57-8.36c-7.87-.87-13.41 4.81-13.41 15.21 0 13.66 9.59 30.28 21.43 37.12 9 5.19 16.69 3.22 19.86-4a20.7 20.7 0 0 1-8-2.82c-11.84-6.9-21.45-23.53-21.45-37.15Z"></path><path fill="url(#R)" d="M1441.94 709.78c-17.74-30.72-46.5-47.35-64.25-37.09l-11.84 6.83c17.75-10.25 46.52 6.38 64.25 37.1s17.74 63.89 0 74.16l11.8-6.81c17.79-10.24 17.78-43.46.04-74.19Z"></path><path fill="#ff5ae1" d="M1430.1 716.62c-17.73-30.72-46.5-47.35-64.25-37.1s-17.74 43.46 0 74.19l32.15 55.64 32.12-18.55c17.72-10.23 17.72-43.45-.02-74.18Zm-32.1 43.3c-11.84-6.84-21.43-23.46-21.43-37.12s9.59-19.22 21.43-12.39 21.43 23.46 21.43 37.14-9.62 19.2-21.43 12.37Z" class="colorff5a72 svgShape"></path><path d="M1526.47 820.41c-17.57-2-34.48-6.22-42.88-11.06-11.83-6.83-2.23-12.37 21.44-12.37a190.38 190.38 0 0 1 21.44 1.31v-12.4c-42.54-4.91-82.19-3.28-96.37 4.91l-32.1 18.55 96.37 18.55c10.65 2.05 21.47 3.68 32.12 4.91Z" style="mix-blend-mode:multiply" fill="url(#S)"></path><path style="mix-blend-mode:multiply" fill="url(#T)" d="M1494.37 891.39h-239.42l80.45 46.45-80.45 46.45h239.42v-92.9z"></path><path fill="#f6f8fb" d="m1335.4 799.61-80.45-46.45-80.44 46.45 80.44 46.45 80.45-46.45z" class="colorf6f6fb svgShape"></path><path fill="#dae7f5" d="m1319.24 801.77-64.29-37.12-64.28 37.12 64.28 37.11 64.29-37.11z" class="colordae0f5 svgShape"></path><path fill="#bbd0e6" d="m1335.4 937.84-80.45 46.45V846.06l80.45-46.45v138.23z" class="colorbbc0e6 svgShape"></path><g style="mix-blend-mode:multiply" fill="#010001" class="color000000 svgShape"><path fill="#dae7f5" d="m1299.27 844.37-8.19 4.73v-8.63l8.19-4.72v8.62zM1299.27 863.95l-8.19 4.73v-8.62l8.19-4.73v8.62zM1299.27 883.54l-8.19 4.73v-8.63l8.19-4.72v8.62zM1299.27 903.12l-8.19 4.73v-8.62l8.19-4.73v8.62zM1299.27 922.71l-8.19 4.73v-8.62l8.19-4.73v8.62zM1299.27 942.3l-8.19 4.72v-8.62l8.19-4.73v8.63z" class="colordae0f5 svgShape"></path></g><path fill="#cee3f8" d="m1174.5 937.84 80.45 46.45V846.06l-80.45-46.45v138.23z" class="colorced3f8 svgShape"></path><g style="mix-blend-mode:multiply" fill="#010001" class="color000000 svgShape"><path fill="#dae7f5" d="m1210.63 844.37 8.19 4.73v-8.63l-8.19-4.72v8.62zM1210.63 863.95l8.19 4.73v-8.62l-8.19-4.73v8.62zM1210.63 883.54l8.19 4.73v-8.63l-8.19-4.72v8.62zM1210.63 903.12l8.19 4.73v-8.62l-8.19-4.73v8.62zM1210.63 922.71l8.19 4.73v-8.62l-8.19-4.73v8.62zM1210.63 942.3l8.19 4.72v-8.62l-8.19-4.73v8.63z" class="colordae0f5 svgShape"></path></g><path fill="#bbd0e6" d="m1254.95 764.65-64.28 37.12-3.74-2.16 68.02-39.27v4.31z" class="colorbbc0e6 svgShape"></path><path fill="#cee3f8" d="m1254.95 764.65 64.29 37.12 3.73-2.16-68.02-39.27v4.31z" class="colorced3f8 svgShape"></path><path d="M806.74 1134.4c-16.73-9.66-39-14.11-60.82-13.45h-34.24v5.61a90.59 90.59 0 0 0-18.12 7.84c-31.14 18.11-31 47.46.38 65.56a91.54 91.54 0 0 0 17.74 7.69v5.87h41.07c19.75-.34 39.34-4.82 54.36-13.55 31.15-18.11 30.99-47.46-.37-65.57Z" style="mix-blend-mode:multiply" fill="url(#U)"></path><path fill="#b0d7ff" d="M633.65 1145.92c0-11.58 7.65-23.16 23-32s35.35-13.25 55.35-13.25 40.12 4.42 55.42 13.25 23 20.42 23 32-7.64 23.17-23 32-35.35 13.26-55.41 13.26-40.12-4.42-55.43-13.26-22.92-20.42-22.93-32Z" class="colorffd0b0 svgShape"></path><path fill="url(#V)" d="M767.45 1177.92c-15.3 8.84-35.35 13.26-55.41 13.26s-40.12-4.42-55.43-13.26-23-20.42-23-32v22.35c0 11.57 7.66 23.15 23 32s35.39 13.25 55.39 13.25 40.11-4.42 55.41-13.25 23-20.43 23-32v-22.34c.01 11.57-7.64 23.16-22.96 31.99Z"></path><path fill="#83c1ff" d="M667 1171.91c12.43 7.17 28.72 10.77 45 10.77s32.58-3.6 45-10.77c11.47-6.62 17.64-15.14 18.52-23.8-.88-8.67-7-17.19-18.52-23.82-12.43-7.17-28.72-10.76-45-10.76s-32.58 3.59-45 10.76c-11.46 6.63-17.63 15.14-18.52 23.81.91 8.67 7.08 17.19 18.52 23.81Z" class="colorffa383 svgShape"></path><path fill="url(#W)" d="M667 1124.29c12.43-7.17 28.72-10.76 45-10.76s32.58 3.59 45 10.76c11.47 6.63 17.64 15.15 18.52 23.82a20.1 20.1 0 0 0 .13-2.19c0-9.4-6.22-18.81-18.65-26s-28.72-10.77-45-10.77-32.58 3.59-45 10.77-18.64 16.58-18.64 26a19.91 19.91 0 0 0 .12 2.18c.91-8.67 7.08-17.18 18.52-23.81Z"></path><path fill="#a50b89" d="m743.39 1136.58 6.02-3.48v-4.35l-6.02 3.47v4.36z" class="colore33c5c svgShape"></path><path fill="#b0d7ff" d="M715.62 1143.86c-2.24-1.3-3.48-3-3.48-4.86s1.24-3.56 3.48-4.85c4.64-2.68 12.18-2.68 16.81 0s4.64 7 0 9.71l7.63 4.4c7.53-4.35 8.62-11 3.33-16l6-3.47-7.62-4.41-6 3.48c-8.72-3-20.25-2.42-27.78 1.93-4.29 2.47-6.64 5.76-6.64 9.25s2.36 6.79 6.64 9.26c4.64 2.67 4.64 7 0 9.7s-12.18 2.68-16.81 0-4.64-7 0-9.7l-7.62-4.4c-7.53 4.34-8.63 11-3.35 16l-5.55 3.21 7.63 4.4 5.56-3.21c8.72 3 20.25 2.43 27.77-1.92 8.84-5.11 8.84-13.38 0-18.52Z" class="colorffd0b0 svgShape"></path><path fill="#f4f6f8" d="m674.66 1167.45 7.63 4.41v-4.36l-7.63-4.4v4.35z" class="colorff826a svgShape"></path><path fill="#a50b89" d="m682.29 1171.86 5.56-3.21v-4.36l-5.56 3.21v4.36z" class="colore33c5c svgShape"></path><path fill="#f4f6f8" d="m732.43 1148.21 7.63 4.4v-4.35l-7.63-4.4v4.35z" class="colorff826a svgShape"></path><path fill="#a50b89" d="M691.18 1152.61v-4.35c-3.29 1.9-4.23 4.64-2.85 7a7.58 7.58 0 0 1 2.85-2.65Z" class="colore33c5c svgShape"></path><path fill="#f4f6f8" d="M676.93 1152.89v4.91a8.41 8.41 0 0 0 .94 3.44l2.31-1.34a9.37 9.37 0 0 1-3.26-7ZM708 1152.61a7.62 7.62 0 0 1 2.86 2.68c1.37-2.39.43-5.13-2.86-7-4.28-2.47-6.64-5.76-6.64-9.26v4.36c-.01 3.46 2.35 6.75 6.64 9.22Z" class="colorff826a svgShape"></path><path fill="#fb05ce" d="M722.25 1153.09v-.09.09Z" class="colorfbba05 svgShape"></path><path fill="#a50b89" d="M746.66 1139c0 3.35-2.18 6.71-6.6 9.26v4.35c4.54-2.61 6.72-6.07 6.6-9.51v-4.1Z" class="colore33c5c svgShape"></path><path fill="url(#X)" d="M715.62 1162.37c-7.52 4.35-19 5-27.77 1.92v4.36c8.72 3 20.25 2.42 27.77-1.92 4.39-2.53 6.59-5.86 6.62-9.18v-4.42c0 3.35-2.24 6.7-6.62 9.24Z"></path><path fill="#a50b89" d="M732.43 1134.15c-4.63-2.68-12.17-2.68-16.81 0-2.24 1.29-3.48 3-3.48 4.85a4.22 4.22 0 0 0 .62 2.18 7.59 7.59 0 0 1 2.86-2.67c4.64-2.68 12.18-2.68 16.81 0a7.52 7.52 0 0 1 2.86 2.67c1.38-2.39.43-5.13-2.86-7.03Z" class="colore33c5c svgShape"></path><path style="mix-blend-mode:multiply" fill="url(#Y)" d="m1061.41 802.94-100.07.05-11.96 19.72h25.24l-6.15 10.36 92.94-.05v-30.08z"></path><path fill="#a9d2fc" d="M955.44 628.82c-1 1.55-25.12-4.71-27.36-6.24-3.23-2.2-6.51-5.86-8.63-6.83a34.57 34.57 0 0 0-7.51-2.19c-1.13-.09-5.19 1.08-4.73 2.54s2.67-.46 3.31.28c-.67.23-2.4 1.73-2.22 3.17s.73 1 .73 1c-.33.72-.41 1.73.15 2-.26.62-.88 1.64.7 2s4.25.77 5.23 1.51c3.14 2.36 11 2.69 12 3.19s19.93 9.49 24 10.65c15.67 4.48 15.55-23.13 11.9-23.13-6.76.03-5.42 8.72-7.57 12.05Z" class="colorfcd1a9 svgShape"></path><path fill="url(#k)" d="M968.49 801.92c4.32.7 5.57 7.67 3.41 12-1.35 1.5-4.73 2.91-4.73 2.91s-13.65 5.6-16.72 5.84-9.89-.9-10.45-6.14c.53-3.21 3.22-4.08 6.53-6.05 4.3-2.55 8-6.26 11.46-8 2.86-1.33 10.5-.56 10.5-.56Z"></path><path fill="#a9d2fc" d="M960.19 797.48c2.11.34 8.89 2 8.89 2s2.5 7-1.45 8.26c-7.69 2.42-14.24-2.74-11.22-4.47 2.03-1.15 4.03-2.46 3.78-5.79Z" class="colorfcd1a9 svgShape"></path><path fill="#471147" d="M950.55 821.31c3.16-.26 17.2-6 17.2-6a18.38 18.38 0 0 0 4.72-2.86 11.05 11.05 0 0 1-.57 1.52c-1.35 1.5-4.73 2.91-4.73 2.91s-13.65 5.6-16.72 5.84-9.89-.9-10.45-6.14c0-.11.06-.21.08-.32 1.45 4.31 7.57 5.29 10.47 5.05Z" class="color131147 svgShape"></path><path fill="#342e94" d="M955.11 804.32c.57-.76 1.9-2.78 4.24-1.11s3 3.85 2.73 5.6-5.35.45-5.54.19-1.43-4.68-1.43-4.68Z" class="color362e94 svgShape"></path><path fill="#ffffff" d="M952.79 806.5a10.34 10.34 0 0 1 4.58 4.46 1.38 1.38 0 0 0 2.5-1.18 13 13 0 0 0-6-5.82 1.38 1.38 0 1 0-1.08 2.54ZM948.53 809.23a10.18 10.18 0 0 1 4.57 4.45 1.38 1.38 0 0 0 1.85.66 1.4 1.4 0 0 0 .66-1.85 13 13 0 0 0-6-5.81 1.39 1.39 0 0 0-1.82.73 1.41 1.41 0 0 0 .74 1.82Z" class="colorffffff svgShape"></path><path fill="#a9d2fc" d="M961.39 659.62c-2.08 25.7-5.52 50.16-5.52 70.78 0 23.59 4.09 48.45 4.34 68.22-.22 6.06 6.66 10.82 9.58 5.46.12-1.76-.7-4-.4-6.58 1.76-15.06 6.91-38.19 2.57-57.67 6-25.81 22.42-57.71 20-78-7.48-3.67-24.86-4.03-30.57-2.21ZM964.69 578.27c-6.74 3.31-9.2 8.36-9.2 18.4 4.6-2.81 9.2-18.4 9.2-18.4Z" class="colorfcd1a9 svgShape"></path><path fill="#453eaf" d="M968.29 669.41v4.32l3.74-2.16-3.74-2.16z" class="color423eaf svgShape"></path><path fill="url(#Z)" d="M986.5 812.28c4.32.7 5.57 7.67 3.41 12-1.34 1.5-4.73 2.91-4.73 2.91s-13.65 5.6-16.71 5.84-9.9-.9-10.45-6.15c.52-3.19 3.22-4.07 6.53-6 4.3-2.55 8-6.26 11.45-8 2.86-1.37 10.5-.6 10.5-.6Z"></path><path fill="#a9d2fc" d="M978.21 807.84c2.11.35 8.88 2 8.88 2s2.51 7-1.45 8.27c-7.68 2.41-14.23-2.75-11.21-4.48 2.03-1.14 4.03-2.45 3.78-5.79Z" class="colorfcd1a9 svgShape"></path><path fill="#471147" d="M968.56 831.67c3.16-.25 17.21-6 17.21-6a17.92 17.92 0 0 0 4.71-2.86 9.52 9.52 0 0 1-.57 1.52c-1.34 1.5-4.73 2.91-4.73 2.91s-13.65 5.6-16.71 5.84-9.9-.9-10.45-6.15c0-.1.06-.2.08-.31 1.45 4.31 7.57 5.29 10.46 5.05Z" class="color131147 svgShape"></path><path fill="#342e94" d="M973.12 814.68c.57-.76 1.91-2.78 4.25-1.11s3 3.85 2.72 5.6-5.34.45-5.53.19-1.44-4.68-1.44-4.68Z" class="color362e94 svgShape"></path><path fill="#ffffff" d="M970.8 816.86a10.33 10.33 0 0 1 4.59 4.47 1.38 1.38 0 0 0 2.5-1.19 13 13 0 0 0-6-5.82 1.4 1.4 0 0 0-1.82.73 1.38 1.38 0 0 0 .73 1.81ZM966.54 819.59a10.22 10.22 0 0 1 4.58 4.46 1.38 1.38 0 0 0 2.5-1.19 13 13 0 0 0-6-5.82 1.39 1.39 0 0 0-1.09 2.55Z" class="colorffffff svgShape"></path><path fill="#a9d2fc" d="M975.51 670.68c0 23.62-.25 50-.25 70.66 0 23.59 2.72 47.87 3 67.64-.22 6.07 6.66 10.82 9.57 5.46.13-1.75-.7-4-.4-6.58 1.76-15.06 6.92-38.19 2.58-57.66 6-25.82 15.18-53 9.7-79.34-7.5-3.71-18.49-2-24.2-.18Z" class="colorfcd1a9 svgShape"></path><path fill="url(#aa)" d="M993.27 640.31c-1.95-17.8 6.45-34.59 8-45.72 1-7 1.67-15.22-4.68-17.2-6.57-2-9.22-3-14.92-2.86-13.7.34-20.12 3.15-22.92 12.6-2.63 8.88-4.49 11.58-6.65 20.3-1 3.91 9.78 12.4 8.53 29.25-9.52 14.4-16.36 46.94-19.26 72.5-1.11 7.7 6.72 17.6 20.57 24.53 17.47 8.75 37.85 9.45 45.5 1.57a9.88 9.88 0 0 0 2.89-6.59c-.01-9.07-5.16-73.6-17.06-88.38Z"></path><path fill="#a9d2fc" d="M986.53 557.84c-.23-4.22-14.67 4.18-14.34 9.74.26 4.52.85 9.08-.85 9.67-2 1.42-7.82 16.45-4.3 20 12.25-5 18.64-15.64 29.54-19.82-4.46-.96-9.26-5.93-10.05-19.59Z" class="colorfcd1a9 svgShape"></path><path fill="#a9d2fc" d="m990 552-4.34-10.86h-27.51v16.56c0 9.15 6.16 16.57 13.76 16.57 7.37 0 13.34-7 13.7-15.76h1.91Z" class="colorfcd1a9 svgShape"></path><path fill="#9dc7f2" d="M983.23 567c-2.37 4.2-6.27 7-10.75 7.23a4.42 4.42 0 0 1-.7 2.73 10 10 0 0 0 2.18-.19c4.6-1.14 7.92-4.94 9.27-9.77Z" class="colorf2c39d svgShape"></path><path fill="#6f196f" d="M973.72 529.6a1.13 1.13 0 0 0-.26 0c-15 .38-16.14 11.6-15.31 13.46 4.76 1.7 7.76-1.53 10.75-1.28 1.45.12 7.31.91 9.73 4 2.61 3.34 1.78 8.68 4.23 8.55 1.07 0 1.39-3.62 3-3.72 1.33-.08 2.68 1.17 2.52 3.22-.2 2.76-2.81 4.43-2.43 5.76.65 2.2 6.14-1.74 6-9.57s-5.28-20.95-18.23-20.42Z" class="color20196f svgShape"></path><path fill="#a9d2fc" d="m1000.32 648.77 2.95 7.36c10.29-5.37 16.32-19.38 16.91-30.68.79-15.23-15-41-15.8-42.19-4-6-13.47-.67-10.34 7 .68 1.54 16.84 28.11 15.11 37.09-1.15 6.15-3.23 17.54-8.83 21.42Z" class="colorfcd1a9 svgShape"></path><path fill="#6f196f" d="M975.61 529.62c16 1.14 17.87 16.87 24.21 21.13 3.8 2.53 12.24-2.25 17.2 6.31 5.69 9.86-3.52 13.43 2.51 17.6s10.67 16.9.61 24.72-22.64 1-21.22-10.5c1-8.23-1.42-12.49-8.34-9.82-5.18 2-7.16-2.1-4.83-7.37-11.53 1.15.56-20.83-16.85-29.92.66-4.48 6.71-12.15 6.71-12.15Z" class="color20196f svgShape"></path><path fill="#a9d2fc" d="M1000.32 648.77c-1.21.78-7.82-.78-9.38-.78a32.88 32.88 0 0 0-9.47 1.17c-3.6 1.16-6.06 2.47-3.6 3-1.33.29-4.46 1.56-2 2.27.24.86 1.13 2 3.84 1.9.9.71 7.2 2 9.14 1.71 2 .61 12.76.39 14.41-2 .01-3.89-2.94-7.27-2.94-7.27Z" class="colorfcd1a9 svgShape"></path><path d="M1026.71 1072.35c-5.69-3.28-13.26-4.8-20.68-4.57h-19.78v1.9a31 31 0 0 0-6.17 2.67c-10.58 6.16-10.52 16.14.13 22.3a31.63 31.63 0 0 0 6 2.61v2h22.1c6.72-.11 13.37-1.63 18.48-4.6 10.63-6.17 10.58-16.15-.08-22.31Z" style="mix-blend-mode:multiply" fill="url(#ab)"></path><path fill="url(#ac)" d="M968.22 1094.66c-5.37-3.1-8.05-7.17-8-11.23v-17c0 4.06 2.67 8.13 8 11.23 10.66 6.16 27.89 6.16 38.48 0 5.27-3.06 7.9-7.06 7.91-11.07v17c0 4-2.65 8-7.91 11.07-10.59 6.16-27.82 6.16-38.48 0Z"></path><path fill="#e8eff7" d="M968.24 1077.7c-10.66-6.15-10.72-16.14-.13-22.29s27.83-6.16 38.49 0 10.72 16.14.12 22.29-27.82 6.16-38.48 0Z" class="colore8ecf7 svgShape"></path><path fill="#bbd0e6" d="m1001.38 1065.29-20.14 1.02.63-4.53h-5.56l-1.52 8.25 26.59-1.53v-3.21z" class="colorbbc0e6 svgShape"></path></g></g></g></svg>