<svg xmlns="http://www.w3.org/2000/svg" xmlns:xlink="http://www.w3.org/1999/xlink" viewBox="0 0 1600 1200" id="Dashboardmanagement"><defs><linearGradient id="b" x1="1801.29" x2="2490.42" y1="981.64" y2="981.64" gradientTransform="matrix(-1 0 0 1 2935.87 0)" gradientUnits="userSpaceOnUse"><stop offset="0" stop-color="#f4f6f8" class="stopColorf6f6fb svgShape"></stop><stop offset=".4" stop-color="#f0f5fa" class="stopColorf0f1fa svgShape"></stop><stop offset=".92" stop-color="#e0ecf8" class="stopColore0e5f8 svgShape"></stop><stop offset="1" stop-color="#ddeaf8" class="stopColordde2f8 svgShape"></stop></linearGradient><linearGradient id="a" x1="395.06" x2="656.45" y1="1072.99" y2="1072.99" gradientUnits="userSpaceOnUse"><stop offset="0" stop-color="#f4f6f8" class="stopColorf6f6fb svgShape"></stop><stop offset="1" stop-color="#dae7f5" class="stopColordae0f5 svgShape"></stop></linearGradient><linearGradient id="c" x1="1210.82" x2="1450.55" y1="1055.87" y2="1055.87" xlink:href="#a"></linearGradient><linearGradient id="d" x1="153.33" x2="425.08" y1="1037.3" y2="1037.3" xlink:href="#a"></linearGradient><linearGradient id="e" x1="1360.56" x2="1360.56" y1="900.4" y2="674.51" gradientUnits="userSpaceOnUse"><stop offset="0" stop-color="#6f67e9" class="stopColor6b67e9 svgShape"></stop><stop offset=".7" stop-color="#5046e4" class="stopColor5d59d6 svgShape"></stop><stop offset="1" stop-color="#5a52cc" class="stopColor5652cc svgShape"></stop></linearGradient><linearGradient id="f" x1="1382.96" x2="1307.9" y1="590.46" y2="515.4" gradientTransform="rotate(13.84 1090.444 625.73)" gradientUnits="userSpaceOnUse"><stop offset="0" stop-color="#6f196f" class="stopColor20196f svgShape"></stop><stop offset=".35" stop-color="#2a2482" class="stopColor2a2482 svgShape"></stop><stop offset="1" stop-color="#453eaf" class="stopColor423eaf svgShape"></stop></linearGradient><linearGradient id="g" x1="1090.01" x2="490.02" y1="877.36" y2="277.36" gradientUnits="userSpaceOnUse"><stop offset="0" stop-color="#342e94" class="stopColor362e94 svgShape"></stop><stop offset="1" stop-color="#5a52cc" class="stopColor5652cc svgShape"></stop></linearGradient><linearGradient id="h" x1="464.59" x2="552.14" y1="684.49" y2="684.49" gradientUnits="userSpaceOnUse"><stop offset="0" stop-color="#ff5fe2" class="stopColorff5fa8 svgShape"></stop><stop offset="1" stop-color="#e23dc4" class="stopColore23d79 svgShape"></stop></linearGradient><linearGradient id="i" x1="350.97" x2="350.97" y1="755.79" y2="553" gradientUnits="userSpaceOnUse"><stop offset="0" stop-color="#5a52cc" class="stopColor5652cc svgShape"></stop><stop offset=".11" stop-color="#574fc7" class="stopColor534fc7 svgShape"></stop><stop offset=".63" stop-color="#4942b5" class="stopColor4642b5 svgShape"></stop><stop offset="1" stop-color="#453eaf" class="stopColor423eaf svgShape"></stop></linearGradient></defs><g style="isolation:isolate" fill="#010001" class="color000000 svgShape"><g fill="#010001" class="color000000 svgShape"><g fill="#010001" class="color000000 svgShape"><ellipse cx="790.01" cy="981.64" rx="344.57" ry="23.39" style="mix-blend-mode:multiply" fill="url(#b)"></ellipse><ellipse cx="525.76" cy="1072.99" fill="url(#a)" rx="130.7" ry="12.09"></ellipse><ellipse cx="1330.68" cy="1055.87" fill="url(#c)" rx="119.87" ry="11.09"></ellipse><ellipse cx="289.2" cy="1037.3" fill="url(#d)" rx="135.88" ry="12.09"></ellipse><path fill="#f4f6f8" d="M1263.8,600.31c-5.77-5.27-33-56.78-38.66-66.73-3.16,1.62-5.94.29-7.2,2.2,2.36,8.48,25.54,70,31.31,77.07.67.81,1.81,2,3.27,3.46,4.55-5.37,10.17-11.82,12.75-14.76C1264.72,601.11,1264.22,600.69,1263.8,600.31Z" class="colorffd3c9 svgShape"></path><path fill="#f4f6f8" d="M1230.19 521.07c-2 .73-2.69 1.73-4.52 3.3-1.43 1.23-1.6 1.94-2.91 2-2.14-2.77-4.08-5.22-5-6.17-1.87-2-4.12-3.41-2.13 1.4-1.73-1.7-3.19-3.09-3.94-3.71-2.16-1.78-4.6-2.86-1.76 2-2.33-1.46-4.32-2.66-5.27-3.15-2.72-1.39-5.58-1.89-.1 3.51-2.35-.8-4.3-1.43-5.22-1.65-3.29-.78-6.53-.48 3.17 4.83 9 4.89 13.28 9.3 15.4 12.42.36.07 7.6-1.49 7.6-1.49-.51-1.62.66-6.54 4.25-9.86C1233.66 520.85 1232.12 520.38 1230.19 521.07zM1324.26 1036.38a15.39 15.39 0 01-.16-1.86c-1.91-33.83 10.58-101.14-3.86-135.42-4.55-3-18.53-1.51-18.53-1.51-7.08 38.4 8.2 102.07 10.65 137.73z" class="colorffd3c9 svgShape"></path><path fill="#342e94" d="M1318.39,1052.28c1.83-.09,4.21,1.84,4.6,4l3.34-.16a18.28,18.28,0,0,0,1-12.72c-1.3-4.43-2.4-3.31-3.51-2.09-2.56,2.29-13.36,3.51-14.38-.1-2.78.56-31.18,10.19-31.05,12.86.2,4.31,3.58,4.14,5.89,4C1311.46,1056.8,1307.77,1055.3,1318.39,1052.28Z" class="color362e94 svgShape"></path><path fill="#f4f6f8" d="M1312.36 1035.32c.74-4.15 11.17-6.43 11.9 1.06a11.07 11.07 0 00.88 4.07h0c-2.73 3.8-27 11.12-31.33 6C1296.59 1044.78 1313.09 1040.4 1312.36 1035.32zM1378.78 1036.38a14.22 14.22 0 01-.22-1.86c-3.06-33.74 7-101.55-8.42-135.14-4.65-2.83-18.57-1-18.57-1-5.78 38.61 11.77 102.4 15.42 138z" class="colorffd3c9 svgShape"></path><path fill="#342e94" d="M1372.91,1052.28c1.83-.09,4.2,1.84,4.59,4l3.34-.16a18.28,18.28,0,0,0,1-12.72c-1.3-4.43-2.4-3.31-3.51-2.09-2.55,2.29-13.35,3.51-14.37-.1-2.78.56-31.18,10.19-31.06,12.86.2,4.31,3.59,4.14,5.9,4C1366,1056.8,1362.29,1055.3,1372.91,1052.28Z" class="color362e94 svgShape"></path><path fill="#f4f6f8" d="M1366.87,1035.32c.75-4.15,11.18-6.43,11.91,1.06a11.07,11.07,0,0,0,.88,4.07h0c-2.72,3.8-27,11.12-31.32,6C1351.11,1044.78,1367.6,1040.4,1366.87,1035.32Z" class="colorffd3c9 svgShape"></path><path fill="#6f67e9" d="M1373.74,651.27c-5.35-2.55-24.24-13-24.24-13L1318,627.61c-4.16-2.6-14.57-2.22-22.72-7.11-7.56-4.53-23.17-13.47-30-19-2.58,2.94-8.2,9.39-12.75,14.76,11.16,11.06,42.08,38,43.63,42.25,1.76,4.77-3.76,30.67-3.76,30.67,1.84,6.35,6.27,11.16,6.77,14.34s.94,28.2-3.69,41.29c-10,28.24-16.32,98.78-8.27,157.45,14.16,4.45,80.1,1.17,94.47-6.54-6.59-81.25-25.62-129.79-32.35-152.92,1.57-19.43,17.15-57.44,17.15-57.44s15.19,33.1,18.44,44c3.38-.58,14.91-2.79,19.43-6.78C1397.33,699.66,1378.65,654,1373.74,651.27Z" class="color6b67e9 svgShape"></path><path fill="url(#e)" d="M1381.67,895.77c-5.75-70.81-20.93-116.77-29.2-142.72-.69-2.64-1.7-6-3.15-10.19h0c1.57-19.43,17.15-57.44,17.15-57.44-1.79-4.41-4.27-12.6-6.8-10.59s1.32,10.35-1,17.12c-1,3-7,13.65-15.64,17.24-5,13.2-3.57,24-3,34.37s22.12,108.79,24.38,156.85C1372.13,899.13,1378.32,897.57,1381.67,895.77Z"></path><path fill="#f4f6f8" d="M1404.34 722.63c-4.52 4-16 6.2-19.43 6.78a11.18 11.18 0 01.54 2.41c-11.71 9.2-29.68 33.63-42.38 44.17 0 0 2.7 5.5 5.06 6.5 0 0 49.67-34.76 58.72-47.15C1407.62 734.29 1406.41 729.4 1404.34 722.63zM1349.5 638.26c1.39 4.21-19.45.21-24.94-2.7s-10.83-8.51-7.34-8c1.94.25 5.37.91 7.25-.34 2.31-1.53 2.94-5.31 3.73-8.48-8.09-.79-9.84-5.59-6.57-16.52a6 6 0 01-3.31-2c.37-1.52 4.15-4.27 5-7.74a54.76 54.76 0 013.88-12c2.48-5.37 11.45-12.81 24.39-8.42 15.15 5.14 16.2 16.91 12.43 30.15C1359.85 616.87 1340.7 611.6 1349.5 638.26z" class="colorffd3c9 svgShape"></path><path fill="url(#f)" d="M1327.52,575.22c-3.4,5.83-1.83,16,9.22,22.11,13.25,7.35,8.28,15,3.65,19.48-7.91,7.59-10.28,25.25-2.43,34.92,10.53,13,30.23,16.75,43.19,10.7,18.51-8.64,2.29-18.06-12.25-23.08-6.59-2.27-5.52-16.05-1.43-24.38,3.52-7.17,6.42-15.79,6.53-22.78.23-14.58-7.22-25.07-19.74-28.15S1333.5,565,1327.52,575.22Z"></path><path fill="#f4f6f8" d="M1343.07,776c-1.23,1.27-5.47,1.83-7.42,1.24-2.66-.82-8.09-2.4-8.51-1-.35,1.15,8.29,3.06,6.77,5.67s-19.87,1.61-19.18,3.35,15.87,6.87,19.23,6.19c4.38-.89,9.92-5.08,15.36-10.11C1348.43,777,1343.07,776,1343.07,776Z" class="colorffd3c9 svgShape"></path><path fill="#e7f3ff" d="M1041.84,340.05H1164a0,0,0,0,1,0,0v71.89a17.16,17.16,0,0,1-17.16,17.16H1059a17.16,17.16,0,0,1-17.16-17.16V340.05A0,0,0,0,1,1041.84,340.05Z" class="colore7eeff svgShape"></path><path fill="#ff5fe2" d="M1146.22,300.59V309a11.94,11.94,0,0,1-23.87,0v-8.37h-38.84V309a11.93,11.93,0,0,1-23.86,0v-8.37h-17.81v39.46H1164V300.59Z" class="colorff5fa8 svgShape"></path><path fill="#6f67e9" d="M1072.26 356.19h17.27v47.54h-7.61V363.34h-9.66zM1129.25 356.13v7.27h-20.06v11.7a13.93 13.93 0 016.8-1.63 17.43 17.43 0 0111.49 4 13.41 13.41 0 014.83 10.88 14.66 14.66 0 01-5 11.39 17.84 17.84 0 01-12.38 4.53q-9.59 0-15.3-6.4l4.28-5.85a18.23 18.23 0 001.46 1.3 19.15 19.15 0 003.78 2 15.32 15.32 0 006.26 1.26 10.21 10.21 0 006.18-2 6.91 6.91 0 002.79-5.95 7 7 0 00-3-6.05 12.4 12.4 0 00-7.48-2.15 17.56 17.56 0 00-8.6 2.25l-3.4-3.67V356.13z" class="color6b67e9 svgShape"></path><circle cx="338.73" cy="206.27" r="38.18" fill="none" stroke="#7dbeff" stroke-linecap="round" stroke-linejoin="round" stroke-width="4" transform="rotate(-4.17 339.04 206.386)" class="colorStrokeff7db2 svgStroke"></circle><path fill="#7dbeff" d="M332.31,193.25h10.1v27.81H338V197.43h-5.65Z" class="colorff7db2 svgShape"></path><circle cx="1325.14" cy="424.89" r="32.11" fill="none" stroke="#ddeaf8" stroke-linecap="round" stroke-linejoin="round" stroke-width="4" class="colorStrokedde2f8 svgStroke"></circle><circle cx="202.64" cy="414.4" r="38.38" fill="#ddeaf8" class="colordde2f8 svgShape"></circle><path fill="#ffffff" d="M202.64,431.16a2,2,0,0,1-2-2V399.63a2,2,0,0,1,4,0v29.53A2,2,0,0,1,202.64,431.16Z" class="colorffffff svgShape"></path><path fill="#ffffff" d="M217.41,416.4H187.88a2,2,0,0,1,0-4h29.53a2,2,0,0,1,0,4Z" class="colorffffff svgShape"></path><path fill="#ddeaf8" d="M1330,424a8.57,8.57,0,0,0,3.41-6.26h0v-.11c0-.18,0-2.33,0-2.52a8.22,8.22,0,1,0-16.43,0v2.63h0a8.56,8.56,0,0,0,3.42,6.26c-3.1.22-13.93,4.22-11.49,14.31h32.51C1343.36,427.91,1333,424.17,1330,424Z" class="colordde2f8 svgShape"></path><rect width="211.92" height="137.14" x="389.08" y="223.52" fill="#e7f3ff" rx="15.11" class="colore7eeff svgShape"></rect><path fill="#ffffff" d="M427.89 282.68a3 3 0 01-2.12-.88l-11.06-11.06A3 3 0 01419 266.5l8.94 8.94 21.69-21.69a3 3 0 014.24 4.24L430 281.8A3 3 0 01427.89 282.68zM427.89 327.56a3 3 0 01-2.12-.88l-11.06-11.07a3 3 0 014.24-4.24l8.94 8.94 21.69-21.69a3 3 0 014.24 4.24L430 326.68A3 3 0 01427.89 327.56z" class="colorffffff svgShape"></path><path fill="#cee3f8" d="M552.11 273.59H468.3a3 3 0 010-6h83.81a3 3 0 010 6zM552.11 318.46H468.3a3 3 0 010-6h83.81a3 3 0 010 6z" class="colorced3f8 svgShape"></path><rect width="439.09" height="808.55" x="570.47" y="173.08" fill="url(#g)" rx="40.56"></rect><rect width="398.53" height="693.49" x="590.75" y="217.82" fill="#ffffff" class="colorffffff svgShape"></rect><path fill="#471147" d="M829.71,201.87h-79.4a3,3,0,0,1,0-6h79.4a3,3,0,0,1,0,6Z" class="color131147 svgShape"></path><path fill="none" stroke="#857dfb" stroke-linecap="round" stroke-linejoin="round" stroke-width="6" d="M767.88,945.57A22.13,22.13,0,1,1,790,967.7,22.13,22.13,0,0,1,767.88,945.57Z" class="colorStroke807dfb svgStroke"></path><path fill="#e7f3ff" d="M967 295.57H670.33a1 1 0 010-2H967a1 1 0 010 2zM967 363.07H670.33a1 1 0 010-2H967a1 1 0 010 2zM967 430.57H670.33a1 1 0 010-2H967a1 1 0 010 2zM967 498.07H670.33a1 1 0 010-2H967a1 1 0 010 2zM967 565.57H670.33a1 1 0 010-2H967a1 1 0 010 2zM967 633.07H670.33a1 1 0 010-2H967a1 1 0 010 2zM967 700.57H670.33a1 1 0 010-2H967a1 1 0 010 2zM967 768.07H670.33a1 1 0 010-2H967a1 1 0 010 2zM967 835.57H670.33a1 1 0 010-2H967a1 1 0 010 2z" class="colore7eeff svgShape"></path><rect width="45.51" height="13.1" x="613.07" y="288.02" fill="#857dfb" class="color807dfb svgShape"></rect><rect width="45.51" height="13.1" x="613.07" y="355.52" fill="#857dfb" class="color807dfb svgShape"></rect><rect width="45.51" height="13.1" x="613.07" y="423.02" fill="#857dfb" class="color807dfb svgShape"></rect><rect width="45.51" height="13.1" x="613.07" y="490.52" fill="#857dfb" class="color807dfb svgShape"></rect><rect width="45.51" height="13.1" x="613.07" y="558.02" fill="#857dfb" class="color807dfb svgShape"></rect><rect width="45.51" height="13.1" x="613.07" y="625.52" fill="#857dfb" class="color807dfb svgShape"></rect><rect width="45.51" height="13.1" x="613.07" y="693.02" fill="#857dfb" class="color807dfb svgShape"></rect><rect width="45.51" height="13.1" x="613.07" y="760.52" fill="#857dfb" class="color807dfb svgShape"></rect><rect width="45.51" height="13.1" x="613.07" y="828.02" fill="#857dfb" class="color807dfb svgShape"></rect><rect width="45.51" height="13.1" x="691.26" y="868.71" fill="#ddeaf8" transform="rotate(-45 714.013 875.256)" class="colordde2f8 svgShape"></rect><rect width="45.51" height="13.1" x="761.01" y="868.71" fill="#ddeaf8" transform="rotate(-45 783.775 875.26)" class="colordde2f8 svgShape"></rect><rect width="45.51" height="13.1" x="830.76" y="868.71" fill="#ddeaf8" transform="rotate(-45 853.524 875.259)" class="colordde2f8 svgShape"></rect><rect width="45.51" height="13.1" x="900.51" y="868.71" fill="#ddeaf8" transform="rotate(-45 923.274 875.258)" class="colordde2f8 svgShape"></rect><path fill="#ff5fe2" d="M690.77,837.57a3,3,0,0,1-2.82-4l50.07-135a3,3,0,0,1,.38-.73l49.19-67.5a2.6,2.6,0,0,1,.54-.56l82.79-66.88,34.25-134,41.29-135.14a3,3,0,0,1,5.74,1.76L911,430.45,876.48,565.31a3,3,0,0,1-1,1.6L792.2,634.16,743.5,701,693.58,835.61A3,3,0,0,1,690.77,837.57Z" class="colorff5fa8 svgShape"></path><circle cx="690.77" cy="834.57" r="9.26" fill="#ffffff" stroke="#ff5fe2" stroke-linecap="round" stroke-linejoin="round" stroke-width="6" transform="rotate(-45 690.771 834.573)" class="colorffffff svgShape colorStrokeff5fa8 svgStroke"></circle><circle cx="740.83" cy="699.57" r="9.26" fill="#ffffff" stroke="#ff5fe2" stroke-linecap="round" stroke-linejoin="round" stroke-width="6" transform="rotate(-62.8 740.763 699.562)" class="colorffffff svgShape colorStrokeff5fa8 svgStroke"></circle><circle cx="790.01" cy="632.07" r="9.26" fill="#ffffff" stroke="#ff5fe2" stroke-linecap="round" stroke-linejoin="round" stroke-width="6" transform="rotate(-76.72 789.976 632.072)" class="colorffffff svgShape colorStrokeff5fa8 svgStroke"></circle><circle cx="873.58" cy="564.57" r="9.26" fill="#ffffff" stroke="#ff5fe2" stroke-linecap="round" stroke-linejoin="round" stroke-width="6" transform="rotate(-45 873.574 564.574)" class="colorffffff svgShape colorStrokeff5fa8 svgStroke"></circle><circle cx="908.08" cy="429.57" r="9.26" fill="#ffffff" stroke="#ff5fe2" stroke-linecap="round" stroke-linejoin="round" stroke-width="6" transform="rotate(-45 908.084 429.57)" class="colorffffff svgShape colorStrokeff5fa8 svgStroke"></circle><circle cx="949.33" cy="294.57" r="9.26" fill="#ffffff" stroke="#ff5fe2" stroke-linecap="round" stroke-linejoin="round" stroke-width="6" transform="rotate(-45 949.324 294.567)" class="colorffffff svgShape colorStrokeff5fa8 svgStroke"></circle><path fill="#f4f6f8" d="M466.85,637.44c-6.18,6.95-20.15,64.18-18.25,83,1.62,15.94,23.72,60.39,23.72,60.39,2.29-3,5.34-11.91,5.34-11.91-3.05-2.19-15.33-41.47-15.33-53s17.83-40.68,17.83-40.68Z" class="colorffd3c9 svgShape"></path><path fill="#342e93" d="M487,1068.94c-1.77,0-4,2-4.26,4h-3.24a17.68,17.68,0,0,1-1.49-12.26c1.05-4.35,2.17-3.3,3.29-2.18,2.58,2.1,13.08,2.79,13.9-.74,2.71.4,30.61,8.43,30.61,11,0,4.18-3.28,4.17-5.51,4.17C493.86,1073,497.35,1071.37,487,1068.94Z" class="color362e93 svgShape"></path><path fill="#f4f6f8" d="M492.3,1053.38c-.91-4-12.41-7-11.81,0a9.56,9.56,0,0,1-.6,4.43h0c2.31,3.31,26.6,9.52,30.56,4.36C507.69,1060.69,492.3,1057.6,492.3,1053.38Z" class="colorffd3c9 svgShape"></path><path fill="#453eaf" d="M533.12,751.25c-1.94,37.29-17.15,88.77-20,136.23s-20.47,165.9-20.47,165.9c-5.27,0-12.34-.27-12.34-.27-2.86-13.15-19.21-116.06-2.83-151.95-6.32-24.7-23.26-108.79-2.1-149.91Z" class="color423eaf svgShape"></path><path fill="#f4f6f8" d="M528.75,569.87c1,7.38,6.11,29.19,1.78,37.06-3.55,6.46-10.85,7.56-22.61,3.56S495.68,585.13,494.14,579C491.7,569.2,526.76,554.34,528.75,569.87Z" class="colorffd3c9 svgShape"></path><path fill="#f4f6f8" d="M518.48,610.09c.65,3.75,2.85,11.14,2.85,11.14-1.62,2.19-12.18,5.74-23.76-.82.84-6.9.28-22.87.28-22.87Z" class="colorffd3c9 svgShape"></path><path fill="url(#h)" d="M550.85,751.25c-8.42-46.39-1.3-58.56,0-67.49,3-20.92,1-45.5-9.6-54.12-20.08-16.25-54.09-18.12-75,8.57-6.63,8.46,8.91,34.8,11,66.81,1.91,29.26.81,37.51-1.86,46.23Z"></path><path fill="#342e93" d="M541.49,1068.94c-1.77,0-4,2-4.26,4H534a17.66,17.66,0,0,1-1.5-12.26c1-4.35,2.17-3.3,3.3-2.18,2.57,2.1,13.07,2.79,13.89-.74,2.71.4,30.61,8.43,30.61,11,0,4.18-3.28,4.17-5.51,4.17C548.4,1073,551.89,1071.37,541.49,1068.94Z" class="color362e93 svgShape"></path><path fill="#f4f6f8" d="M546.84,1053.38c-.91-4-12.41-7-11.81,0a9.56,9.56,0,0,1-.6,4.43h0c2.31,3.31,26.6,9.52,30.56,4.36C562.23,1060.69,546.84,1057.6,546.84,1053.38Z" class="colorffd3c9 svgShape"></path><path fill="#5a52cc" d="M550.85,751.25c7,21.68,13.81,88.77,10.95,136.23s-14.62,165.9-14.62,165.9c-5.27,0-12.34-.27-12.34-.27C532,1040,513.49,931.51,524.33,901.16c-8.58-17.16-47.86-99.59-31.23-149.91Z" class="color5652cc svgShape"></path><path fill="#6f196f" d="M529.44,576c7.59-2.59,11.38-25.59-8.13-19.73s-38,13-32.85,26-5.63,14.86-7.37,27.81c-1.49,11.12,5.32,16.72-5.15,24.31-7.86,5.7-1.2,14.78-4.17,19.14-6.92,10.16-6.77,23.87,10.51,29.56,24.72,8.13,52.91,6.41,42.82-9.32C517,661.11,518.54,661,523.91,654s-11.93-16.36-5-23.27c3.89-3.89-5.12-15.92-3.55-23.07,1.24-5.58,9-4.12,9-13.66C524.34,582.54,521.06,578.86,529.44,576Z" class="color20196f svgShape"></path><path fill="#f4f6f8" d="M608.59,660.41l-7.46-5.83s-21.7,25-35.28,35.85c-4.3-14.19-10.39-32.66-13.91-41.74-7.91-20.37-11.36-21.63-18.46-19.21-6.83,2.33-5.26,15.88-2.62,25.31,4.68,16.78,13.8,37.56,20,50.09,5,10,13.09,16.43,20.58,8.93C581.72,703.58,608.59,660.41,608.59,660.41Z" class="colorffd3c9 svgShape"></path><path fill="#f4f6f8" d="M601.13 654.58c1.76-2.52 3.46-9.94 6-13.68 4-6 17.17-11.49 19.27-10.09 1.91 1.27-9 5.47-10 7.5 1.63 1.7 7.33 8.28 4.23 11.6s-5.24 5.65-7.83 6.41c-2.12.62-4.21 4.09-4.21 4.09zM331.85 1016.64V1012h12.6a31.54 31.54 0 001.45 8.39C342.62 1021.67 337.83 1018.42 331.85 1016.64z" class="colorffd3c9 svgShape"></path><path fill="#6f196f" d="M331.85,1016.64c6,1.78,10.77,5,14,3.77,1.74,1.26,27.3,10.46,29.9,12.24s2.28,4.65-.54,4.65c-4.12,0-38.07-1.5-38.07-1.5-.69.75-1.25,1.5-1.25,1.5h-7.76C325.87,1033.29,326.5,1021.25,331.85,1016.64Z" class="color20196f svgShape"></path><path fill="#f4f6f8" d="M207,1016.65c.81-2.42,1.44-4.62,1.44-4.62l12.88.12c-.58,3.22-.75,6.49-.27,8.27C217.75,1021.68,213,1018.43,207,1016.65Z" class="colorffd3c9 svgShape"></path><path fill="#6f196f" d="M207 1016.65c6 1.78 10.77 5 14.05 3.77 1.73 1.26 27.3 10.46 29.9 12.24s2.28 4.65-.54 4.65c-4.12 0-38.07-1.49-38.07-1.49-.69.74-1.25 1.49-1.25 1.49h-7.76C201 1033.3 201.63 1021.26 207 1016.65zM231.81 755.24c-9.16 21.38-6.31 39.69-4.88 55.26C223.79 829.13 205.65 1012 205.65 1012c4.58 0 17.71.16 17.71.16s41-113.82 46.51-132.17c5.89-19.67 28.9-97.07 27.68-128C279.7 753.69 231.81 755.24 231.81 755.24z" class="color20196f svgShape"></path><path fill="#342e94" d="M313.63,752c7.94,18.47,52.49,121.5,53.47,132.57S345,1012,345,1012H331.44c-7.33-50.39-7.07-116.56-2.44-127.94-18.24-21.5-59.31-63.55-67.27-74.19-12.48-16.67-14.4-36.16-12-53.2C262,753.69,313.63,752,313.63,752Z" class="color362e94 svgShape"></path><path fill="#f4f6f8" d="M392.44 494.21c.67-3.52-2.09-6.16-2.34-12.9-.83-1.76-4.88-5.79-3.44-6.85.54-.4 4.53 1.72 5.79 3.8s1.95 4.14 3.48 4.61c3.05.93 11.6-6.36 16.42-8.41a11.3 11.3 0 0110.26.64c0 2.29-15.47 14.34-16.94 17.59a15 15 0 00-1.31 4.73zM294.29 494.58c-.66-3.52 2.26-6.53 2.52-13.27.82-1.76 4.87-5.79 3.43-6.85-.54-.4-4.52 1.72-5.79 3.8s-1.95 4.14-3.47 4.61c-3.05.93-11.6-6.36-16.43-8.41a11.27 11.27 0 00-10.25.64c0 2.29 15.47 14.34 16.93 17.59a15 15 0 011.31 4.73z" class="colorffd3c9 svgShape"></path><path fill="#453eaf" d="M231.5,614.8c4.62-25.61,22.19-46.89,28.21-61.3,9.05-21.68,20.24-59.57,20.24-59.57l15.7.69c-1.62,16.73-5.12,54.31-10.2,69.57-3.67,11-22,43.82-22,43.82Z" class="color423eaf svgShape"></path><path fill="#5a52cc" d="M390.1,493.58s-17.23,69.16-22.41,74.16c-6.49,6.26-39.63,19-60.58,22.78h0c-6.65.8-16.76,2-20.57,2.44-3.21.36-23.15,3.13-28.29,5-4.59,1.7-16.55,4.6-26.75,16.81-3.47,34.2-3.88,130.71.31,140.44s63.85,4.16,82.47-1.64c7.29-25.83,10.92-82,12.45-118.52,0,0,57.5-42.76,61.82-48.86s18-88.21,18-88.21Z" class="color5652cc svgShape"></path><path fill="url(#i)" d="M396.66,553c-1.69,8.49-5.93,24.64-13.56,31.25S330,623.76,326.19,625.77c-6.32,3.32-14.54-6.17-18.1-.32s5.16,9.68,5.59,20.09c.26,6.1,6.36,41.7,2,64.84s-9.71,34.11-10.45,45.41a91.62,91.62,0,0,0,9-2.19c7.29-25.83,10.92-82,12.45-118.52,0,0,57.5-42.76,61.82-48.86,1.72-2.42,4.9-16.77,8.11-33.22Z"></path><path fill="#f4f6f8" d="M251.79,573.72c2.16,4.2,7.2,16.41,6.46,24.27,4.81,1.4,17.61-.21,28.29-5-3.25-3.13-7.3-6-7-10.28.43-6.68,9.21-1.27,10.17-11.73,1.14-12.19-4.9-33.2-11.91-37.09-7.84-4.36-21.66-8.12-33.27,6C235,551.43,247.4,565.19,251.79,573.72Z" class="colorffd3c9 svgShape"></path><path fill="#471147" d="M277.08,551.84c3.38-1.19.42-7-.5-10.33-.64-2.35,1.21-4.65,3.85-5.33,9.82-2.54,11.2-17,3.27-19.87s-10.85,6.2-15.91,6.35c-5.9.18-7.33-6.57-14.89-3-7,3.27-1.24,8.78-5.39,11.66s-13.52-.75-16.57,8.78c-2.26,7.07,6.64,10.09,8.21,16.45,1,4,1.6,21.51,13.35,21.56,12.06,0,18.78-12.51,14.82-23.28-1.61-4.36-1.34-8.06.91-8.59C271.58,545.44,272.25,553.54,277.08,551.84Z" class="color131147 svgShape"></path><rect width="273.87" height="147.78" x="231.5" y="325.74" fill="#e7f3ff" rx="16.28" class="colore7eeff svgShape"></rect><rect width="139.78" height="265.87" x="298.55" y="266.7" fill="#ffffff" rx="12.28" transform="rotate(-90 368.44 399.63)" class="colorffffff svgShape"></rect><path fill="#5a52cc" d="M323.58 361.11v7H309.26v6.08a12.89 12.89 0 013.68-.47 13.64 13.64 0 019 3.16 10.57 10.57 0 013.79 8.54 11.38 11.38 0 01-3.92 8.87 14 14 0 01-9.68 3.51 15.92 15.92 0 01-12.3-5.45l4.26-5.92c.31.31.73.69 1.24 1.14a16.94 16.94 0 002.86 1.79 8.63 8.63 0 004.15 1.12 5.85 5.85 0 003.68-1.25 4.34 4.34 0 001.61-3.68 4.44 4.44 0 00-1.74-3.76 7.12 7.12 0 00-4.48-1.33 13.75 13.75 0 00-6.39 2l-3.37-3.64V361.11zM346.62 367.23a6.35 6.35 0 00-5.22 2.26 11.34 11.34 0 00-2.25 6.15 13 13 0 017.16-2.18 11.65 11.65 0 018.48 3.32 11.78 11.78 0 013.4 8.85 11.39 11.39 0 01-3.66 8.85 13.2 13.2 0 01-9.21 3.32 14.3 14.3 0 01-6.67-1.48 10.71 10.71 0 01-4.38-4.13q-3.12-5.13-3.12-12.87a28.47 28.47 0 011.22-8.74 15 15 0 013.35-5.94A13.61 13.61 0 01346 360.28a15.62 15.62 0 014.85.75 16.44 16.44 0 013.55 1.53 31.54 31.54 0 012.75 2l-3.84 5.71c-.2-.21-.51-.48-.91-.83a11.22 11.22 0 00-2.36-1.35A8.05 8.05 0 00346.62 367.23zm-1.07 13.08a5.89 5.89 0 00-4 1.43 4.68 4.68 0 00-1.64 3.71 5.46 5.46 0 001.56 3.91 5.15 5.15 0 003.89 1.64 5.5 5.5 0 003.89-1.45 4.93 4.93 0 001.56-3.77 5.68 5.68 0 00-1.4-3.89A4.85 4.85 0 00345.55 380.31zM365.66 396.76a4 4 0 01-1.81-3.37 4.44 4.44 0 011.4-3.4 4.7 4.7 0 013.37-1.33A4.9 4.9 0 01372 390a4 4 0 011.43 3 8.28 8.28 0 01-1.51 4.17l-3.11 5.35h-5.14zM394.72 367.23a6.33 6.33 0 00-5.21 2.26 11.43 11.43 0 00-2.26 6.15 13 13 0 017.16-2.18 11.69 11.69 0 018.49 3.32 11.82 11.82 0 013.4 8.85 11.39 11.39 0 01-3.66 8.85 13.2 13.2 0 01-9.21 3.32 14.27 14.27 0 01-6.67-1.48 10.74 10.74 0 01-4.39-4.13q-3.11-5.13-3.11-12.87a28.47 28.47 0 011.22-8.74 14.87 14.87 0 013.35-5.94 13.59 13.59 0 0110.27-4.36A15.58 15.58 0 01399 361a16.55 16.55 0 013.56 1.53 33.14 33.14 0 012.75 2l-3.84 5.71c-.21-.21-.51-.48-.91-.83a11.8 11.8 0 00-2.36-1.35A8.1 8.1 0 00394.72 367.23zm-1.06 13.08a5.9 5.9 0 00-4.05 1.43 4.68 4.68 0 00-1.63 3.71 5.46 5.46 0 001.56 3.91 5.13 5.13 0 003.89 1.64 5.53 5.53 0 003.89-1.45 4.93 4.93 0 001.56-3.77 5.64 5.64 0 00-1.41-3.89A4.83 4.83 0 00393.66 380.31zM425.5 381.71v-6.33h7.78v6.33h4.1v7h-4.1v8.66H425.5v-8.66H410.92v-6.18l12.92-21.43h8.82l-12.3 20.6z" class="color5652cc svgShape"></path><path fill="#cee3f8" d="M352 434.47v-7.56h-7.6v-3.74H352v-7.48h3.58v7.48h7.6v3.74h-7.6v7.56zM366.23 412.63h10.1v27.81h-4.45V416.81h-5.65zM382.86 437.85a3 3 0 012.94-3 2.89 2.89 0 012.09.86 2.71 2.71 0 01.89 2 5.74 5.74 0 01-1.07 2.91l-2.39 3.94H383l1.47-4.14A2.66 2.66 0 01382.86 437.85zM406.17 423.49a5.6 5.6 0 001.19-3.3 3.73 3.73 0 00-1.27-2.85 4.57 4.57 0 00-3.22-1.17q-3.42 0-5.69 3.5l-3.78-2.19a13.75 13.75 0 014-4.13 10.47 10.47 0 015.69-1.4 9.2 9.2 0 016.1 2.21 7.46 7.46 0 012.63 6 8.09 8.09 0 01-1.12 4.1 27.27 27.27 0 01-4.09 5l-6.53 6.64h12.61v4.5h-19v-4l8.43-8.47A43.11 43.11 0 00406.17 423.49zM426.9 413.8a6.72 6.72 0 010 9 5.88 5.88 0 01-8.58 0 6.72 6.72 0 010-9 5.88 5.88 0 018.58 0zm16.19-1.17l-20.37 27.81h-5.13L438 412.63zm-18.86 7.74a3.22 3.22 0 00.64-2 3 3 0 00-.68-2 2.08 2.08 0 00-1.65-.82 2 2 0 00-1.61.82 3.12 3.12 0 00-.64 2 3.07 3.07 0 00.68 2 2.07 2.07 0 001.65.81A2 2 0 00424.23 420.37zm18.46 9.55a6.34 6.34 0 011.71 4.47 6.42 6.42 0 01-1.73 4.5 5.64 5.64 0 01-4.3 1.87 5.58 5.58 0 01-4.27-1.85 6.71 6.71 0 010-9 5.87 5.87 0 018.57 0zm-2.59 6.64a3.12 3.12 0 00.64-2 3 3 0 00-.68-2 2.07 2.07 0 00-1.65-.81 2 2 0 00-1.61.81 3.21 3.21 0 00-.63 2 3 3 0 00.67 2 2.08 2.08 0 001.65.82A2 2 0 00440.1 436.56z" class="colorced3f8 svgShape"></path><polygon fill="#a50b89" points="319.67 418.35 306.51 436.87 332.83 436.87 319.67 418.35" class="colore23d79 svgShape"></polygon><path fill="#e7f3ff" d="M1249.83,461.38H940.07a16.28,16.28,0,0,0-16.28,16.28V725.18a16.28,16.28,0,0,0,16.28,16.28h309.76a16.28,16.28,0,0,0,16.28-16.28V477.66A16.28,16.28,0,0,0,1249.83,461.38Zm12.28,263.8a12.3,12.3,0,0,1-12.28,12.28H940.07a12.3,12.3,0,0,1-12.28-12.28V477.66a12.3,12.3,0,0,1,12.28-12.28h309.76a12.3,12.3,0,0,1,12.28,12.28Z" class="colore7eeff svgShape"></path><path fill="#ffffff" d="M940.07,465.38a12.3,12.3,0,0,0-12.28,12.28V725.18a12.3,12.3,0,0,0,12.28,12.28h239.65V465.38Z" class="colorffffff svgShape"></path><path fill="#ffffff" d="M1249.83,465.38h-70.11V737.46h70.11a12.3,12.3,0,0,0,12.28-12.28V477.66A12.3,12.3,0,0,0,1249.83,465.38Z" opacity=".7" class="colorffffff svgShape"></path><path fill="#ff5fe2" d="M1095,675.2a73.48,73.48,0,0,1-46.37-16.41l-17.53,21a101.11,101.11,0,0,0,154.07-32.61l-24.59-12A73.75,73.75,0,0,1,1095,675.2Z" class="colorff5fa8 svgShape"></path><path fill="#6f196f" d="M1167.08,616.93a73.4,73.4,0,0,1-6.55,18.27l24.59,12a99.77,99.77,0,0,0,8.85-25.15Z" class="color20196f svgShape"></path><path fill="#e7f3ff" d="M1021.17,601.42A73.77,73.77,0,0,1,1095,527.65h0V500.29h0a101.13,101.13,0,0,0-63.9,179.52l17.53-21A73.62,73.62,0,0,1,1021.17,601.42Z" class="colore7eeff svgShape"></path><path fill="#857dfb" d="M1168.72 601.42a74.06 74.06 0 01-1.64 15.51l26.89 5.12a101.16 101.16 0 00-99-121.76v27.36A73.77 73.77 0 011168.72 601.42zM1152.65 719.18a2.44 2.44 0 112.44 2.43A2.44 2.44 0 011152.65 719.18zM1135.47 719.18a2.44 2.44 0 112.44 2.43A2.44 2.44 0 011135.47 719.18zM1118.29 719.18a2.44 2.44 0 112.43 2.43A2.43 2.43 0 011118.29 719.18zM1101.11 719.18a2.43 2.43 0 112.43 2.43A2.43 2.43 0 011101.11 719.18zM1083.92 719.18a2.44 2.44 0 112.44 2.43A2.44 2.44 0 011083.92 719.18zM1066.74 719.18a2.44 2.44 0 112.43 2.43A2.43 2.43 0 011066.74 719.18zM1049.56 719.18a2.44 2.44 0 112.43 2.43A2.43 2.43 0 011049.56 719.18zM1032.37 719.18a2.44 2.44 0 112.44 2.43A2.44 2.44 0 011032.37 719.18z" class="color807dfb svgShape"></path><path fill="#a0b8d0" d="M1103.17,600.5a14.68,14.68,0,0,0,5.86-10.75h0v-.19c0-.32,0-4,0-4.32a14.11,14.11,0,1,0-28.2,0v4.51h.06a14.7,14.7,0,0,0,5.86,10.75c-5.31.37-23.91,7.24-19.73,24.57h55.83C1126.16,607.27,1108.45,600.85,1103.17,600.5Z" class="colora0a9d0 svgShape"></path><rect width="158.96" height="88.53" x="1125.84" y="114.92" fill="#ddeaf8" rx="13.69" class="colordde2f8 svgShape"></rect><path fill="#e7f3ff" d="M1130.63,118.22l74.69,51.46L1280,118.22a13.6,13.6,0,0,0-8.9-3.3H1139.52A13.61,13.61,0,0,0,1130.63,118.22Z" class="colore7eeff svgShape"></path><path fill="#bbd0e6" d="M1205.32,171.68a2,2,0,0,1-1.14-.35l-54.59-37.62a2,2,0,1,1,2.27-3.29l53.46,36.83,53.45-36.83a2,2,0,1,1,2.27,3.29l-54.59,37.62A2,2,0,0,1,1205.32,171.68Z" class="colorbbc0e6 svgShape"></path><path fill="#bbd0e6" d="M1259.9 188.3a2 2 0 01-1.13-.35l-39.35-27.12a2 2 0 012.27-3.29L1261 184.65a2 2 0 01.51 2.78A2 2 0 011259.9 188.3zM1150.72 188.3a2 2 0 01-1.13-3.65L1189 157.54a2 2 0 112.26 3.29L1151.86 188A2 2 0 011150.72 188.3z" class="colorbbc0e6 svgShape"></path></g></g></g></svg>