<svg xmlns="http://www.w3.org/2000/svg" xmlns:xlink="http://www.w3.org/1999/xlink" viewBox="0 0 840.055 800" id="Datamanagementautomation"><defs><linearGradient id="x" x1="208.675" x2="208.675" y1="327.678" y2="142.521" gradientUnits="userSpaceOnUse"><stop offset=".146" stop-color="#ffffff" class="stopColorffffff svgShape"></stop><stop offset=".614" stop-color="#f0f5fa" class="stopColorf0f2fa svgShape"></stop><stop offset="1" stop-color="#e1eaf4" class="stopColore1e5f4 svgShape"></stop></linearGradient><linearGradient id="u" x1="145.834" x2="145.834" y1="327.678" y2="142.521" gradientUnits="userSpaceOnUse"><stop offset=".152" stop-color="#ffffff" class="stopColorffffff svgShape"></stop><stop offset="1" stop-color="#ebf1f7" class="stopColorebeef7 svgShape"></stop></linearGradient><linearGradient id="y" x1="759.648" x2="759.648" y1="313.03" y2="177.395" gradientUnits="userSpaceOnUse"><stop offset=".09" stop-color="#ffffff" class="stopColorffffff svgShape"></stop><stop offset=".512" stop-color="#f4f7fb" class="stopColorf4f5fb svgShape"></stop><stop offset="1" stop-color="#e1eaf4" class="stopColore1e5f4 svgShape"></stop></linearGradient><linearGradient id="z" x1="713.614" x2="713.614" y1="313.03" y2="177.395" gradientUnits="userSpaceOnUse"><stop offset=".112" stop-color="#ffffff" class="stopColorffffff svgShape"></stop><stop offset="1" stop-color="#ebf1f7" class="stopColorebeef7 svgShape"></stop></linearGradient><linearGradient id="A" x1="162" x2="236.785" y1="404.873" y2="404.873" gradientTransform="matrix(-.866 .5 0 1.1547 475.203 -297.714)" gradientUnits="userSpaceOnUse"><stop offset="0" stop-color="#78b4f1" class="stopColorf1b178 svgShape"></stop><stop offset="1" stop-color="#ed71d6" class="stopColored8771 svgShape"></stop></linearGradient><linearGradient id="B" x1="270.147" x2="329.082" y1="290.397" y2="290.397" gradientUnits="userSpaceOnUse"><stop offset="0" stop-color="#5ca9f7" class="stopColorf7d25c svgShape"></stop><stop offset="1" stop-color="#d62db7" class="stopColord6952d svgShape"></stop></linearGradient><linearGradient id="w" x1="376.94" x2="447.859" y1="245.987" y2="368.822" gradientTransform="matrix(-1 0 0 1 749.103 0)" gradientUnits="userSpaceOnUse"><stop offset=".551" stop-color="#867ff4" class="stopColor7f7ff4 svgShape"></stop><stop offset=".585" stop-color="#5b54c1" class="stopColor5454c1 svgShape"></stop><stop offset=".6" stop-color="#4841aa" class="stopColor4141aa svgShape"></stop></linearGradient><linearGradient id="c" x1="149.377" x2="199.656" y1="617.368" y2="617.368" gradientUnits="userSpaceOnUse"><stop offset=".205" stop-color="#d3e2f2" class="stopColord3d8f2 svgShape"></stop><stop offset=".612" stop-color="#d5e4f3" class="stopColord5daf3 svgShape"></stop><stop offset=".769" stop-color="#dce8f5" class="stopColordce0f5 svgShape"></stop><stop offset=".883" stop-color="#e8f0f8" class="stopColore8ebf8 svgShape"></stop><stop offset=".975" stop-color="#f9fbfd" class="stopColorf9fafd svgShape"></stop><stop offset="1" stop-color="#ffffff" class="stopColorffffff svgShape"></stop></linearGradient><linearGradient id="d" x1="100.364" x2="195.842" y1="618.115" y2="618.115" gradientUnits="userSpaceOnUse"><stop offset=".294" stop-color="#d0e3f6" class="stopColord0d4f6 svgShape"></stop><stop offset=".384" stop-color="#bdd0e4" class="stopColorbdc1e4 svgShape"></stop></linearGradient><linearGradient id="a" x1="244.041" x2="370.141" y1="510.716" y2="510.716" gradientUnits="userSpaceOnUse"><stop offset="0" stop-color="#d3e2f2" class="stopColord3d8f2 svgShape"></stop><stop offset=".311" stop-color="#e6eff8" class="stopColore6e9f8 svgShape"></stop><stop offset=".714" stop-color="#f8fafd" class="stopColorf8f9fd svgShape"></stop><stop offset="1" stop-color="#ffffff" class="stopColorffffff svgShape"></stop></linearGradient><linearGradient id="C" x1="423.7" x2="549.8" y1="476.142" y2="476.142" xlink:href="#a"></linearGradient><linearGradient id="b" x1="363.814" x2="444.021" y1="510.717" y2="510.717" gradientUnits="userSpaceOnUse"><stop offset="0" stop-color="#d3e2f2" class="stopColord3d8f2 svgShape"></stop><stop offset=".614" stop-color="#edf3fa" class="stopColoredeffa svgShape"></stop><stop offset="1" stop-color="#ffffff" class="stopColorffffff svgShape"></stop></linearGradient><linearGradient id="D" x1="603.357" x2="683.565" y1="441.568" y2="441.568" xlink:href="#b"></linearGradient><linearGradient id="E" x1="303.927" x2="521.765" y1="476.142" y2="476.142" gradientUnits="userSpaceOnUse"><stop offset="0" stop-color="#d3e2f2" class="stopColord3d8f2 svgShape"></stop><stop offset=".21" stop-color="#e6eff8" class="stopColore6e9f8 svgShape"></stop><stop offset=".483" stop-color="#f8fafd" class="stopColorf8f9fd svgShape"></stop><stop offset=".676" stop-color="#ffffff" class="stopColorffffff svgShape"></stop></linearGradient><linearGradient id="F" x1="543.474" x2="763.477" y1="406.993" y2="406.993" xlink:href="#a"></linearGradient><linearGradient id="G" x1="483.586" x2="635.413" y1="441.567" y2="441.567" gradientUnits="userSpaceOnUse"><stop offset="0" stop-color="#d3e2f2" class="stopColord3d8f2 svgShape"></stop><stop offset="1" stop-color="#ffffff" class="stopColorffffff svgShape"></stop></linearGradient><linearGradient id="H" x1="463.094" x2="635.065" y1="544.849" y2="544.849" xlink:href="#c"></linearGradient><linearGradient id="I" x1="375.011" x2="631.251" y1="546.236" y2="546.236" xlink:href="#d"></linearGradient><linearGradient id="J" x1="438.832" x2="585.97" y1="475.148" y2="475.148" gradientUnits="userSpaceOnUse"><stop offset="0" stop-color="#dce8f4" class="stopColordce1f4 svgShape"></stop><stop offset=".368" stop-color="#e5eef7" class="stopColore5e9f7 svgShape"></stop><stop offset=".97" stop-color="#fefeff" class="stopColorfefeff svgShape"></stop><stop offset="1" stop-color="#ffffff" class="stopColorffffff svgShape"></stop></linearGradient><linearGradient id="K" x1="378.953" x2="444.021" y1="522.208" y2="522.208" gradientUnits="userSpaceOnUse"><stop offset="0" stop-color="#dce8f4" class="stopColordce1f4 svgShape"></stop><stop offset=".337" stop-color="#e3ecf6" class="stopColore3e7f6 svgShape"></stop><stop offset=".827" stop-color="#f6f9fc" class="stopColorf6f8fc svgShape"></stop><stop offset="1" stop-color="#ffffff" class="stopColorffffff svgShape"></stop></linearGradient><linearGradient id="L" x1="371.993" x2="475.412" y1="428.734" y2="428.734" gradientUnits="userSpaceOnUse"><stop offset="0" stop-color="#f2f4f7" class="stopColorf2f2f7 svgShape"></stop><stop offset=".982" stop-color="#ffffff" class="stopColorffffff svgShape"></stop></linearGradient><linearGradient id="e" x1="312.106" x2="396.333" y1="486.001" y2="486.001" gradientUnits="userSpaceOnUse"><stop offset="0" stop-color="#e1eaf4" class="stopColore1e5f4 svgShape"></stop><stop offset="1" stop-color="#ffffff" class="stopColorffffff svgShape"></stop></linearGradient><linearGradient id="M" x1="551.65" x2="635.284" y1="420.57" y2="420.57" xlink:href="#e"></linearGradient><linearGradient id="i" x1="519.106" x2="541.291" y1="522.287" y2="560.713" gradientUnits="userSpaceOnUse"><stop offset="0" stop-color="#d3e2f2" class="stopColord3d8f2 svgShape"></stop><stop offset=".319" stop-color="#dde9f5" class="stopColordde1f5 svgShape"></stop><stop offset=".859" stop-color="#f8fafd" class="stopColorf8f8fd svgShape"></stop><stop offset=".989" stop-color="#ffffff" class="stopColorffffff svgShape"></stop></linearGradient><linearGradient id="f" x1="893.834" x2="907.96" y1="525.629" y2="501.163" gradientTransform="matrix(-1 0 0 1 1423.812 0)" gradientUnits="userSpaceOnUse"><stop offset="0" stop-color="#f7f9fc" class="stopColorf7f7fc svgShape"></stop><stop offset="1" stop-color="#bdd0e4" class="stopColorbdc1e4 svgShape"></stop></linearGradient><linearGradient id="g" x1="881.102" x2="899.465" y1="523.171" y2="491.365" gradientTransform="matrix(-1 0 0 1 1423.812 0)" gradientUnits="userSpaceOnUse"><stop offset="0" stop-color="#6b1c6b" class="stopColor1e1c6b svgShape"></stop><stop offset="1" stop-color="#5c55c6" class="stopColor5555c6 svgShape"></stop></linearGradient><linearGradient id="N" x1="890.699" x2="935.38" y1="517.413" y2="517.413" gradientTransform="matrix(-1 0 0 1 1423.812 0)" gradientUnits="userSpaceOnUse"><stop offset=".411" stop-color="#a5b9ce" class="stopColora5aace svgShape"></stop><stop offset=".456" stop-color="#aabed2" class="stopColoraaaed2 svgShape"></stop><stop offset=".676" stop-color="#bdd0e4" class="stopColorbdc1e4 svgShape"></stop></linearGradient><linearGradient id="j" x1="902.724" x2="924.04" y1="528.87" y2="491.949" gradientTransform="matrix(-1 0 0 1 1423.812 0)" gradientUnits="userSpaceOnUse"><stop offset="0" stop-color="#a9bed3" class="stopColora9afd3 svgShape"></stop><stop offset=".008" stop-color="#aec2d6" class="stopColoraeb4d6 svgShape"></stop><stop offset=".068" stop-color="#d1dce8" class="stopColord1d4e8 svgShape"></stop><stop offset=".124" stop-color="#eaeff4" class="stopColoreaecf4 svgShape"></stop><stop offset=".175" stop-color="#fafbfc" class="stopColorfafafc svgShape"></stop><stop offset=".217" stop-color="#ffffff" class="stopColorffffff svgShape"></stop></linearGradient><linearGradient id="O" x1="929.173" x2="943.298" y1="546.062" y2="521.596" xlink:href="#f"></linearGradient><linearGradient id="P" x1="916.44" x2="934.803" y1="543.605" y2="511.799" xlink:href="#g"></linearGradient><linearGradient id="h" x1="505.989" x2="534.681" y1="447.607" y2="447.607" gradientUnits="userSpaceOnUse"><stop offset="0" stop-color="#5c55c6" class="stopColor5555c6 svgShape"></stop><stop offset=".287" stop-color="#4e47b0" class="stopColor4847b0 svgShape"></stop><stop offset=".883" stop-color="#282377" class="stopColor252377 svgShape"></stop><stop offset="1" stop-color="#6b1c6b" class="stopColor1e1c6b svgShape"></stop></linearGradient><linearGradient id="Q" x1="886.086" x2="940.001" y1="487.257" y2="487.257" gradientTransform="matrix(-1 0 0 1 1423.812 0)" gradientUnits="userSpaceOnUse"><stop offset=".514" stop-color="#bdd0e4" class="stopColorbdc1e4 svgShape"></stop><stop offset=".682" stop-color="#d0e3f6" class="stopColord0d4f6 svgShape"></stop></linearGradient><linearGradient id="R" x1="492.832" x2="537.725" y1="464.008" y2="464.008" gradientUnits="userSpaceOnUse"><stop offset="0" stop-color="#d3e2f2" class="stopColord3d8f2 svgShape"></stop><stop offset=".296" stop-color="#dbe7f4" class="stopColordbdff4 svgShape"></stop><stop offset=".748" stop-color="#f0f5fb" class="stopColorf0f2fb svgShape"></stop><stop offset="1" stop-color="#ffffff" class="stopColorffffff svgShape"></stop></linearGradient><linearGradient id="S" x1="909.816" x2="925.04" y1="442.751" y2="469.119" gradientTransform="matrix(-1 0 0 1 1423.812 0)" gradientUnits="userSpaceOnUse"><stop offset="0" stop-color="#f7f9fc" class="stopColorf7f7fc svgShape"></stop><stop offset=".474" stop-color="#e1edf9" class="stopColore1e3f9 svgShape"></stop><stop offset=".784" stop-color="#d0e3f6" class="stopColord0d4f6 svgShape"></stop></linearGradient><linearGradient id="m" x1="518.272" x2="530.169" y1="223.093" y2="223.093" gradientTransform="scale(1 -1) rotate(-46.933 -306.96 -98.968)" gradientUnits="userSpaceOnUse"><stop offset="0" stop-color="#d3e2f2" class="stopColord3d8f2 svgShape"></stop><stop offset=".495" stop-color="#eef4fa" class="stopColoreef0fa svgShape"></stop><stop offset=".893" stop-color="#ffffff" class="stopColorffffff svgShape"></stop></linearGradient><linearGradient id="T" x1="467.275" x2="490.657" y1="461.24" y2="488.05" xlink:href="#h"></linearGradient><linearGradient id="U" x1="128.087" x2="153.55" y1="516.812" y2="472.708" xlink:href="#i"></linearGradient><linearGradient id="k" x1="973.769" x2="987.894" y1="493.013" y2="468.547" gradientTransform="translate(-878.276)" gradientUnits="userSpaceOnUse"><stop offset="0" stop-color="#f7f9fc" class="stopColorf7f7fc svgShape"></stop><stop offset="1" stop-color="#d0e3f6" class="stopColord0d4f6 svgShape"></stop></linearGradient><linearGradient id="l" x1="961.036" x2="979.399" y1="490.555" y2="458.749" gradientTransform="translate(-878.276)" gradientUnits="userSpaceOnUse"><stop offset="0" stop-color="#37318f" class="stopColor34318f svgShape"></stop><stop offset="1" stop-color="#5c55c6" class="stopColor5555c6 svgShape"></stop></linearGradient><linearGradient id="V" x1="970.633" x2="1015.315" y1="484.797" y2="484.797" gradientTransform="translate(-878.276)" gradientUnits="userSpaceOnUse"><stop offset=".411" stop-color="#bdd0e4" class="stopColorbdc1e4 svgShape"></stop><stop offset=".456" stop-color="#b8cce0" class="stopColorb8bde0 svgShape"></stop><stop offset=".676" stop-color="#a5b9ce" class="stopColora5aace svgShape"></stop></linearGradient><linearGradient id="W" x1="982.658" x2="1003.975" y1="496.254" y2="459.332" gradientTransform="translate(-878.276)" xlink:href="#j"></linearGradient><linearGradient id="X" x1="1009.107" x2="1023.232" y1="513.446" y2="488.98" xlink:href="#k"></linearGradient><linearGradient id="Y" x1="996.374" x2="1014.738" y1="510.988" y2="479.183" xlink:href="#l"></linearGradient><linearGradient id="Z" x1="-349.93" x2="-317.077" y1="439.135" y2="439.135" gradientTransform="translate(475.166)" gradientUnits="userSpaceOnUse"><stop offset="0" stop-color="#429af2" class="stopColorf2bd42 svgShape"></stop><stop offset=".112" stop-color="#3f96ee" class="stopColoreeb73f svgShape"></stop><stop offset=".664" stop-color="#dc32bd" class="stopColordc9e32 svgShape"></stop><stop offset="1" stop-color="#d62db7" class="stopColord6952d svgShape"></stop></linearGradient><linearGradient id="n" x1="966.02" x2="1019.935" y1="454.641" y2="454.641" gradientTransform="translate(-878.276)" gradientUnits="userSpaceOnUse"><stop offset=".514" stop-color="#d0e3f6" class="stopColord0d4f6 svgShape"></stop><stop offset=".682" stop-color="#bdd0e4" class="stopColorbdc1e4 svgShape"></stop></linearGradient><linearGradient id="aa" x1="192.084" x2="203.682" y1="599.374" y2="599.374" gradientTransform="rotate(38.071 378.504 438.397)" xlink:href="#m"></linearGradient><linearGradient id="o" x1="101.555" x2="141.663" y1="433.571" y2="433.571" gradientUnits="userSpaceOnUse"><stop offset="0" stop-color="#d3e2f2" class="stopColord3d8f2 svgShape"></stop><stop offset=".555" stop-color="#eef4fa" class="stopColoreef0fa svgShape"></stop><stop offset="1" stop-color="#ffffff" class="stopColorffffff svgShape"></stop></linearGradient><linearGradient id="ab" x1="989.75" x2="1004.974" y1="410.135" y2="436.503" gradientTransform="translate(-878.276)" gradientUnits="userSpaceOnUse"><stop offset="0" stop-color="#f7f9fc" class="stopColorf7f7fc svgShape"></stop><stop offset=".335" stop-color="#e1eaf3" class="stopColore1e2f3 svgShape"></stop><stop offset=".784" stop-color="#bdd0e4" class="stopColorbdc1e4 svgShape"></stop></linearGradient><linearGradient id="ac" x1="390.897" x2="406.417" y1="441.936" y2="459.73" gradientTransform="matrix(-1 0 0 1 545.536 0)" xlink:href="#h"></linearGradient><linearGradient id="ad" x1="740.31" x2="765.749" y1="463.439" y2="419.378" xlink:href="#i"></linearGradient><linearGradient id="ae" x1="707.37" x2="721.142" y1="439.65" y2="415.796" xlink:href="#k"></linearGradient><linearGradient id="af" x1="694.956" x2="712.86" y1="437.253" y2="406.243" xlink:href="#l"></linearGradient><linearGradient id="ag" x1="695.062" x2="685.59" y1="269.069" y2="265.593" gradientTransform="rotate(16.333 259.796 348.264)" gradientUnits="userSpaceOnUse"><stop offset="0" stop-color="#6b1c6b" class="stopColor1e1c6b svgShape"></stop><stop offset=".117" stop-color="#282377" class="stopColor252377 svgShape"></stop><stop offset=".713" stop-color="#4e47b0" class="stopColor4847b0 svgShape"></stop><stop offset="1" stop-color="#5c55c6" class="stopColor5555c6 svgShape"></stop></linearGradient><linearGradient id="ah" x1="704.313" x2="747.876" y1="431.64" y2="431.64" gradientUnits="userSpaceOnUse"><stop offset=".411" stop-color="#d0e3f6" class="stopColord0d4f6 svgShape"></stop><stop offset=".532" stop-color="#bcd0e4" class="stopColorbcc1e4 svgShape"></stop><stop offset=".676" stop-color="#a9bed3" class="stopColora9afd3 svgShape"></stop></linearGradient><linearGradient id="ai" x1="716.037" x2="736.82" y1="442.81" y2="406.812" xlink:href="#j"></linearGradient><linearGradient id="aj" x1="741.824" x2="755.596" y1="459.572" y2="435.718" xlink:href="#k"></linearGradient><linearGradient id="ak" x1="729.41" x2="747.313" y1="457.175" y2="426.166" xlink:href="#l"></linearGradient><linearGradient id="al" x1="699.816" x2="752.38" y1="402.238" y2="402.238" xlink:href="#n"></linearGradient><linearGradient id="q" x1="211.456" x2="244.309" y1="415.612" y2="415.612" gradientTransform="translate(475.166)" gradientUnits="userSpaceOnUse"><stop offset="0" stop-color="#d0e3f6" class="stopColord0d4f6 svgShape"></stop><stop offset=".417" stop-color="#c6d9ed" class="stopColorc6caed svgShape"></stop><stop offset="1" stop-color="#bdd0e4" class="stopColorbdc1e4 svgShape"></stop></linearGradient><linearGradient id="am" x1="639.493" x2="651.091" y1="180.33" y2="180.33" gradientTransform="rotate(38.071 378.504 438.397)" xlink:href="#m"></linearGradient><linearGradient id="an" x1="710.52" x2="752.385" y1="381.96" y2="381.96" xlink:href="#o"></linearGradient><linearGradient id="ao" x1="749.008" x2="723.854" y1="397.126" y2="425.994" xlink:href="#h"></linearGradient><linearGradient id="ap" x1="708.992" x2="723.189" y1="365.938" y2="390.528" gradientUnits="userSpaceOnUse"><stop offset=".202" stop-color="#bdd0e4" class="stopColorbdc1e4 svgShape"></stop><stop offset=".276" stop-color="#c6d7e8" class="stopColorc6c9e8 svgShape"></stop><stop offset=".395" stop-color="#dde7f1" class="stopColordddff1 svgShape"></stop><stop offset=".497" stop-color="#f7f9fc" class="stopColorf7f7fc svgShape"></stop></linearGradient><linearGradient id="aq" x1="728.134" x2="709.406" y1="387.696" y2="364.481" gradientUnits="userSpaceOnUse"><stop offset="0" stop-color="#6b1c6b" class="stopColor1e1c6b svgShape"></stop><stop offset=".26" stop-color="#2d287e" class="stopColor2a287e svgShape"></stop><stop offset=".786" stop-color="#4e47b0" class="stopColor4847b0 svgShape"></stop><stop offset="1" stop-color="#5c55c6" class="stopColor5555c6 svgShape"></stop></linearGradient><linearGradient id="ar" x1="710.126" x2="727.132" y1="371.692" y2="371.692" gradientUnits="userSpaceOnUse"><stop offset="0" stop-color="#c6d6e7" class="stopColorc6cbe7 svgShape"></stop><stop offset=".431" stop-color="#e6edf5" class="stopColore6e8f5 svgShape"></stop><stop offset=".717" stop-color="#f7f9fc" class="stopColorf7f7fc svgShape"></stop></linearGradient><linearGradient id="as" x1="719.543" x2="735.639" y1="357.65" y2="385.529" gradientUnits="userSpaceOnUse"><stop offset=".472" stop-color="#f7f9fc" class="stopColorf7f7fc svgShape"></stop><stop offset=".591" stop-color="#dde7f1" class="stopColordddff1 svgShape"></stop><stop offset=".729" stop-color="#c6d7e8" class="stopColorc6c9e8 svgShape"></stop><stop offset=".815" stop-color="#bdd0e4" class="stopColorbdc1e4 svgShape"></stop></linearGradient><linearGradient id="p" x1="-335.549" x2="-297.536" y1="605.398" y2="605.398" gradientTransform="translate(475.166)" gradientUnits="userSpaceOnUse"><stop offset=".427" stop-color="#d3e2f2" class="stopColord3d8f2 svgShape"></stop><stop offset=".468" stop-color="#d7e5f3" class="stopColord7dcf3 svgShape"></stop><stop offset=".806" stop-color="#f4f8fc" class="stopColorf4f5fc svgShape"></stop><stop offset="1" stop-color="#ffffff" class="stopColorffffff svgShape"></stop></linearGradient><linearGradient id="t" x1="-342.668" x2="-309.815" y1="604.807" y2="604.807" gradientTransform="translate(475.166)" gradientUnits="userSpaceOnUse"><stop offset="0" stop-color="#726ae2" class="stopColor6a6ae2 svgShape"></stop><stop offset=".309" stop-color="#5046e4" class="stopColor5a5acc svgShape"></stop><stop offset=".739" stop-color="#4f48b3" class="stopColor4848b3 svgShape"></stop><stop offset="1" stop-color="#4841aa" class="stopColor4141aa svgShape"></stop></linearGradient><linearGradient id="r" x1="135.62" x2="165.338" y1="591.993" y2="591.993" gradientUnits="userSpaceOnUse"><stop offset=".427" stop-color="#d3e2f2" class="stopColord3d8f2 svgShape"></stop><stop offset=".598" stop-color="#dbe7f4" class="stopColordbdff4 svgShape"></stop><stop offset=".867" stop-color="#f1f6fb" class="stopColorf1f3fb svgShape"></stop><stop offset="1" stop-color="#ffffff" class="stopColorffffff svgShape"></stop></linearGradient><linearGradient id="s" x1="-346.668" x2="-313.815" y1="588.64" y2="588.64" gradientTransform="translate(475.166)" gradientUnits="userSpaceOnUse"><stop offset="0" stop-color="#429af2" class="stopColorf2bd42 svgShape"></stop><stop offset=".2" stop-color="#e93dca" class="stopColore9b13d svgShape"></stop><stop offset=".697" stop-color="#d833ba" class="stopColord89833 svgShape"></stop><stop offset="1" stop-color="#d12fb4" class="stopColord18f2f svgShape"></stop></linearGradient><linearGradient id="at" x1="244.003" x2="282.016" y1="525.861" y2="525.861" xlink:href="#p"></linearGradient><linearGradient id="au" x1="236.884" x2="269.737" y1="525.27" y2="525.27" xlink:href="#q"></linearGradient><linearGradient id="av" x1="715.172" x2="744.89" y1="512.456" y2="512.456" xlink:href="#r"></linearGradient><linearGradient id="aw" x1="232.884" x2="265.737" y1="509.103" y2="509.103" xlink:href="#s"></linearGradient><linearGradient id="ax" x1="-233.995" x2="-195.982" y1="594.89" y2="594.89" xlink:href="#p"></linearGradient><linearGradient id="ay" x1="-241.114" x2="-208.261" y1="594.299" y2="594.299" xlink:href="#q"></linearGradient><linearGradient id="az" x1="151.766" x2="189.778" y1="554.777" y2="554.777" xlink:href="#p"></linearGradient><linearGradient id="aA" x1="144.647" x2="177.499" y1="554.186" y2="554.186" xlink:href="#q"></linearGradient><linearGradient id="aB" x1="-40.465" x2="-2.452" y1="558.314" y2="558.314" xlink:href="#p"></linearGradient><linearGradient id="aC" x1="-47.584" x2="-14.732" y1="557.723" y2="557.723" xlink:href="#q"></linearGradient><linearGradient id="aD" x1="-39.084" x2="-6.232" y1="545.473" y2="545.473" xlink:href="#t"></linearGradient><linearGradient id="aE" x1="724.055" x2="736.72" y1="363.878" y2="363.878" gradientUnits="userSpaceOnUse"><stop offset="0" stop-color="#c4d2e1" class="stopColorc4c8e1 svgShape"></stop><stop offset=".064" stop-color="#ccd8e5" class="stopColorcccfe5 svgShape"></stop><stop offset=".33" stop-color="#e8edf3" class="stopColore8e9f3 svgShape"></stop><stop offset=".563" stop-color="#f9fafc" class="stopColorf9f9fc svgShape"></stop><stop offset=".736" stop-color="#ffffff" class="stopColorffffff svgShape"></stop></linearGradient><linearGradient id="aF" x1="397.354" x2="397.354" y1="855.064" y2="639.233" gradientUnits="userSpaceOnUse"><stop offset=".247" stop-color="#ffffff" class="stopColorffffff svgShape"></stop><stop offset=".528" stop-color="#f8fafc" class="stopColorf8f9fc svgShape"></stop><stop offset=".934" stop-color="#e5edf5" class="stopColore5e8f5 svgShape"></stop><stop offset="1" stop-color="#e1eaf4" class="stopColore1e5f4 svgShape"></stop></linearGradient><linearGradient id="aG" x1="331.091" x2="331.091" y1="855.064" y2="639.233" xlink:href="#u"></linearGradient><linearGradient id="aH" x1="535.207" x2="568.497" y1="280.019" y2="280.019" gradientUnits="userSpaceOnUse"><stop offset="0" stop-color="#c6d6e7" class="stopColorc6cbe7 svgShape"></stop><stop offset=".252" stop-color="#cbdae9" class="stopColorcbcfe9 svgShape"></stop><stop offset=".533" stop-color="#d8e3ef" class="stopColord8dbef svgShape"></stop><stop offset=".826" stop-color="#eef3f8" class="stopColoreef0f8 svgShape"></stop><stop offset="1" stop-color="#ffffff" class="stopColorffffff svgShape"></stop></linearGradient><linearGradient id="v" x1="528.153" x2="560.163" y1="276.241" y2="276.241" gradientUnits="userSpaceOnUse"><stop offset="0" stop-color="#dae4ef" class="stopColordadfef svgShape"></stop><stop offset=".551" stop-color="#c8d7e6" class="stopColorc8cde6 svgShape"></stop><stop offset="1" stop-color="#bfd0e1" class="stopColorbfc4e1 svgShape"></stop></linearGradient><linearGradient id="aI" x1="528.153" x2="560.163" y1="279.597" y2="279.597" gradientUnits="userSpaceOnUse"><stop offset="0" stop-color="#867ff4" class="stopColor7f7ff4 svgShape"></stop><stop offset=".437" stop-color="#655ecc" class="stopColor5e5ecc svgShape"></stop><stop offset=".787" stop-color="#5049b3" class="stopColor4949b3 svgShape"></stop><stop offset="1" stop-color="#4841aa" class="stopColor4141aa svgShape"></stop></linearGradient><linearGradient id="aJ" x1="528.153" x2="560.163" y1="282.952" y2="282.952" xlink:href="#v"></linearGradient><linearGradient id="aK" x1="108.117" x2="179.036" y1="253.156" y2="375.991" xlink:href="#w"></linearGradient><linearGradient id="aL" x1="658.192" x2="727.493" y1="623.996" y2="623.996" gradientUnits="userSpaceOnUse"><stop offset=".331" stop-color="#c6d6e7" class="stopColorc6cbe7 svgShape"></stop><stop offset=".592" stop-color="#d9e4ef" class="stopColord9ddef svgShape"></stop><stop offset="1" stop-color="#ffffff" class="stopColorffffff svgShape"></stop></linearGradient><linearGradient id="aM" x1="673.745" x2="694.68" y1="615.99" y2="615.99" gradientUnits="userSpaceOnUse"><stop offset="0" stop-color="#bdd0e4" class="stopColorbdc1e4 svgShape"></stop><stop offset="1" stop-color="#dce8f4" class="stopColordce1f4 svgShape"></stop></linearGradient><linearGradient id="aN" x1="667.832" x2="681.188" y1="631.415" y2="631.415" gradientUnits="userSpaceOnUse"><stop offset="0" stop-color="#bdd0e4" class="stopColorbdc1e4 svgShape"></stop><stop offset="1" stop-color="#d0e3f6" class="stopColord0d4f6 svgShape"></stop></linearGradient><linearGradient id="aO" x1="223.277" x2="229.862" y1="401.676" y2="412.689" gradientTransform="rotate(120.001 395.253 654.045)" gradientUnits="userSpaceOnUse"><stop offset="0" stop-color="#d0e3f6" class="stopColord0d4f6 svgShape"></stop><stop offset="1" stop-color="#bdd0e4" class="stopColorbdc1e4 svgShape"></stop></linearGradient><linearGradient id="aP" x1="701.1" x2="710.208" y1="621.026" y2="621.026" gradientUnits="userSpaceOnUse"><stop offset=".404" stop-color="#bdd0e4" class="stopColorbdc1e4 svgShape"></stop><stop offset="1" stop-color="#d0e3f6" class="stopColord0d4f6 svgShape"></stop></linearGradient></defs><g style="isolation:isolate" fill="#010001" class="color000000 svgShape"><g fill="#010001" class="color000000 svgShape"><g fill="#010001" class="color000000 svgShape"><path fill="#f4f6f8" d="M379.49758,593.31841a17.04541,17.04541,0,0,1-8.5235-2.27641l-111.2968-64.25679,1-1.7325,111.2968,64.2569a15.08664,15.08664,0,0,0,15.0469,0l121.9209-70.3907,1,1.7325L388.021,591.042A17.045,17.045,0,0,1,379.49758,593.31841Z" class="colore1e5f4 svgShape"></path><path fill="#f4f6f8" d="M379.49758,586.43261a9.23933,9.23933,0,0,1-4.6221-1.2344l-64.001-36.95021a4.26129,4.26129,0,0,1,0-7.37979l135.2491-78.085,1,1.7324-135.2491,78.085a2.26069,2.26069,0,0,0,0,3.915l64.001,36.9502a7.25716,7.25716,0,0,0,7.2432,0l119.5127-68.999,1,1.7324-119.5127,68.999A9.23563,9.23563,0,0,1,379.49758,586.43261Z" class="colore1e5f4 svgShape"></path></g><g data-name="Back blocks" fill="#010001" class="color000000 svgShape"><polygon fill="url(#x)" points="177.254 327.678 240.096 291.397 240.096 142.521 177.254 178.802 177.254 327.678"></polygon><polygon fill="url(#u)" points="177.254 327.678 114.414 291.397 114.414 142.521 177.254 178.802 177.254 327.678"></polygon><polygon fill="#f2f5f9" points="177.254 178.802 114.414 142.521 177.252 106.24 240.096 142.521 177.254 178.802" class="colorf2f4f9 svgShape"></polygon><polygon fill="url(#y)" points="736.63 313.03 782.665 286.453 782.665 177.395 736.63 203.972 736.63 313.03"></polygon><polygon fill="url(#z)" points="736.63 313.03 690.597 286.453 690.597 177.395 736.63 203.972 736.63 313.03"></polygon><polygon fill="#f2f5f9" points="736.63 203.972 690.597 177.395 736.628 150.818 782.665 177.395 736.63 203.972" class="colorf2f4f9 svgShape"></polygon></g><g data-name="Vertical pie chart" fill="#010001" class="color000000 svgShape"><path fill="url(#A)" d="M302.52878,250.79392v10.9522c-12.6455,7.3008-22.8974,25.0576-22.8974,39.6601l-9.4844,5.47559C270.147,286.23142,284.645,261.12012,302.52878,250.79392Z"></path><path fill="#5c55c4" d="M302.52878,261.74612v-10.9522c6.4483-3.7226,12.4405-4.9804,17.4873-4.1435l-5.122,12.165C311.32568,258.22362,307.08838,259.11332,302.52878,261.74612Z" class="color5555c4 svgShape"></path><path fill="url(#B)" d="M321.3052,292.45612c-4.13872,9.2324-10.999,17.68059-18.77642,22.16988-12.6455,7.30171-22.8974,1.38281-22.8974-13.21978s10.2519-32.3593,22.8974-39.6601v-10.9522c-17.8838,10.3262-32.3818,35.4375-32.3818,56.08789,0,20.6514,14.498,29.0215,32.3818,18.6963,10.9981-6.3496,20.7002-18.2969,26.5528-31.35349Z"></path><path fill="#dae6f2" d="M325.42728,274.96582c0-9.3379-4.2032-15.1006-10.5332-16.1504l5.122-12.165c8.9522,1.4839,14.8955,9.6338,14.8955,22.8398,0,7.9512-2.165,16.5586-5.83,24.7344l-7.77638-1.7685A43.73114,43.73114,0,0,0,325.42728,274.96582Z" class="colordadff2 svgShape"></path><path fill="#726ae2" d="M295.31788 300.15822l-2.3066 1.3325-.002-10.29-2.7539 2.5727v-2.1513l4.8144-4.772.2481-.1426zM306.91848 287.90822a10.9094 10.9094 0 01-.9971 4.8364 7.19262 7.19262 0 01-2.9228 3.1626q-1.8999 1.09725-2.9063.2305-1.00785-.8664-1.0312-3.55472v-2.47118a10.81608 10.81608 0 011.0117-4.8515 7.22574 7.22574 0 012.9101-3.13732q1.8999-1.09707 2.90632-.23528 1.00482.8613 1.02928 3.54928zm-2.3067-1.3838a4.07037 4.07037 0 00-.3964-2.2007q-.394-.5346-1.2325-.0498a2.79713 2.79713 0 00-1.2031 1.4175 7.06631 7.06631 0 00-.4101 2.502V291.459a4.35443 4.35443 0 00.3867 2.21682q.38823.5742 1.2422.0805a2.7795 2.7795 0 001.22162-1.4711 7.52577 7.52577 0 00.39158-2.5679zM308.44478 281.73342a4.67915 4.67915 0 01.6963-2.4082 4.99706 4.99706 0 011.8213-1.8218 1.92455 1.92455 0 011.835-.2988q.69585.3603.6943 1.6611v.6641a4.5868 4.5868 0 01-.6933 2.4028 5.05416 5.05416 0 01-1.8203 1.8071 1.93031 1.93031 0 01-1.834.2974q-.69582-.3582-.6993-1.6499zm1.5342-.165a.82384.82384 0 00.2764.7382.67614.67614 0 00.7227-.0791 1.856 1.856 0 00.7109-.7539 2.2704 2.2704 0 00.2627-1.0717l-.001-.6871a.87977.87977 0 00-.2627-.75c-.17578-.1274-.417-.103-.7256.07518a1.8825 1.8825 0 00-.7119.75 2.25351 2.25351 0 00-.2705 1.09962zm1.45322 8.2768l-1.125-.0498 5.67768-13.7656 1.125.0498zm2.57118-3.7685a4.60623 4.60623 0 01.7022-2.4121 5.06549 5.06549 0 011.8213-1.8135 1.95619 1.95619 0 011.834-.3062q.6972.34935.6972 1.6685v.6631a4.63018 4.63018 0 01-.6855 2.39348 5.01731 5.01731 0 01-1.8291 1.81742 1.927 1.927 0 01-1.8457.2988q-.69285-.3639-.6944-1.6274zm1.5342-.1553a.79444.79444 0 00.2871.7065.64572.64572 0 00.7188-.0527 1.93618 1.93618 0 00.9736-1.8164l.001-.707a.84414.84414 0 00-.2715-.7403.66668.66668 0 00-.7197.0762 1.89711 1.89711 0 00-.7178.7539 2.22147 2.22147 0 00-.2715 1.082z" class="color6a6ae2 svgShape"></path></g><g data-name="Back window" fill="#010001" class="color000000 svgShape"><path fill="#f2f4f7" d="M311.32768,373.30811c0,1.7881,1.2656,2.5181,2.8134,1.6245l77.6094-44.8071a6.24488,6.24488,0,0,0,2.8145-4.875V260.26122c0-1.7876-1.2666-2.5185-2.8145-1.625l-77.6094,44.8081a6.24228,6.24228,0,0,0-2.8134,4.87449Z" class="colorf2f2f7 svgShape"></path><path fill="#d0e3f6" d="M312.2642,375.17821l-.00292.003-.03808-.0225Z" class="colord0d4f6 svgShape"></path><path fill="url(#w)" d="M311.79638,302.09032l77.6094-44.8076a1.981,1.981,0,0,1,1.9726-.2002l.001-.00052.0049.00342.0176.0093,2.3222,1.34128-.00088.00052a1.9822,1.9822,0,0,0-1.97272.1997l-77.6094,44.8081a6.24228,6.24228,0,0,0-2.8134,4.87449v64.9898a2.01368,2.01368,0,0,0,.7627,1.77439l-2.1739-1.25629.002-.003a1.90288,1.90288,0,0,1-.9365-1.8691v-64.9898A6.24335,6.24335,0,0,1,311.79638,302.09032Z"></path><polygon fill="#429af2" points="371.706 283.027 388.59 273.279 388.59 270.175 371.706 279.924 371.706 283.027" class="colorf2bd42 svgShape"></polygon><polygon fill="#4841aa" points="364.644 331.645 389.055 317.551 389.055 316 364.644 330.094 364.644 331.645" class="color4141aa svgShape"></polygon><polygon fill="#4841aa" points="371.619 331.618 384.154 324.381 384.154 322.83 371.619 330.066 371.619 331.618" class="color4141aa svgShape"></polygon><polygon fill="#4841aa" points="385.805 323.427 389.055 321.551 389.055 320 385.805 321.876 385.805 323.427" class="color4141aa svgShape"></polygon><path fill="#4841aa" d="M314.53268,324.84721l57.3243-33.09569v-1.5513l-57.3243,33.09569Zm61.1993-36.88429v1.5513l7.2548-4.1885v-1.5513Z" class="color4141aa svgShape"></path><polygon fill="#d0e3f6" points="348.754 333.513 343.872 326.566 348.754 313.981 358.519 308.343 363.402 315.29 358.519 327.875 348.754 333.513" class="colord0d4f6 svgShape"></polygon></g><g fill="#010001" class="color000000 svgShape"><polygon fill="#f4f6f8" points="669.389 478.667 676.085 466.219 679.411 468.137 705.134 453.284 712.328 457.438 686.601 472.291 690.957 474.803 669.389 478.667" class="colore1e5f4 svgShape"></polygon><polygon fill="#f4f6f8" points="209.827 455.064 203.133 467.512 199.804 465.592 174.082 480.444 166.889 476.293 192.614 461.441 188.261 458.928 209.827 455.064" class="colore1e5f4 svgShape"></polygon></g><g data-name="Little pedestal" fill="#010001" class="color000000 svgShape"><path d="M197.541,603.40331l-3.521-2.0332a3.44135,3.44135,0,0,1,1.8223,2.7735v2.2197a3.59776,3.59776,0,0,1-2.1152,2.9609l-39.52879,22.8223a10.32183,10.32183,0,0,1-4.8208,1.2041v.0156h3.5776v-.0019a10.46438,10.46438,0,0,0,5.05711-1.2178l39.52878-22.8223C200.36138,607.69631,200.36138,605.03121,197.541,603.40331Z" style="mix-blend-mode:multiply" fill="url(#c)"></path><path fill="#f7f9fc" d="M154.19829,629.92581a11.371,11.371,0,0,1-10.2549,0l-41.4649-23.9424c-2.8198-1.6279-2.8198-4.293,0-5.9209l39.5293-22.8223a11.37719,11.37719,0,0,1,10.2549,0l41.46439,23.9424c2.8203,1.6279,2.8203,4.293,0,5.9209Z" class="colorf7f7fc svgShape"></path><path fill="url(#d)" d="M193.72708,607.10351l-39.52879,22.8223a11.371,11.371,0,0,1-10.2549,0l-41.4649-23.9424c-1.4804-.8545-2.1757-1.9951-2.1015-3.1211h-.0132v2.3809h0a3.59724,3.59724,0,0,0,2.1147,2.9609l41.4649,23.9424a11.37719,11.37719,0,0,0,10.2549,0l39.52879-22.8223a3.59776,3.59776,0,0,0,2.1152-2.9609v-2.2197A3.59532,3.59532,0,0,1,193.72708,607.10351Z"></path></g><g data-name="Shadows from bar graphs" fill="#010001" class="color000000 svgShape"><polygon points="318.428 480.86 244.041 480.86 295.75 510.716 244.041 540.572 318.428 540.572 370.141 510.716 318.428 480.86" style="mix-blend-mode:multiply" fill="url(#a)"></polygon><polygon points="498.087 446.286 423.7 446.286 475.41 476.142 423.7 505.997 498.087 505.997 549.8 476.142 498.087 446.286" style="mix-blend-mode:multiply" fill="url(#C)"></polygon><polygon points="392.309 480.86 363.814 480.861 415.523 510.718 363.814 540.573 392.309 540.572 444.021 510.716 392.309 480.86" style="mix-blend-mode:multiply" fill="url(#b)"></polygon><polygon points="631.852 411.711 603.357 411.713 655.067 441.568 603.357 471.425 631.852 471.423 683.565 441.567 631.852 411.711" style="mix-blend-mode:multiply" fill="url(#D)"></polygon><polygon points="470.052 446.286 303.927 446.286 355.637 476.142 303.927 505.997 470.052 505.997 521.765 476.142 470.052 446.286" style="mix-blend-mode:multiply" fill="url(#E)"></polygon><polygon points="763.477 377.137 543.474 377.137 595.184 406.992 543.474 436.849 763.477 436.849 763.477 406.992 763.477 377.137" style="mix-blend-mode:multiply" fill="url(#F)"></polygon><polygon points="583.701 411.711 483.586 411.711 535.296 441.567 483.586 471.423 583.701 471.423 635.413 441.567 583.701 411.711" style="mix-blend-mode:multiply" fill="url(#G)"></polygon></g><g data-name="Big pedestal" fill="#010001" class="color000000 svgShape"><path d="M632.94967,495.749l-3.52047-2.03319a3.44247,3.44247,0,0,1,1.82227,2.7735V498.71a3.59793,3.59793,0,0,1-2.1152,2.96091l-161.22169,93.0898a10.33247,10.33247,0,0,1-4.8203,1.2051v.0156h3.5771v-.0029a10.46517,10.46517,0,0,0,5.0576-1.2178l161.22069-93.0898C635.77,500.042,635.77,497.37791,632.94967,495.749Z" style="mix-blend-mode:multiply" fill="url(#H)"></path><path fill="#f7f9fc" d="M467.91458,592.541a11.37713,11.37713,0,0,1-10.2549,0l-80.5332-46.501c-2.82028-1.62789-2.82028-4.29289,0-5.92089l161.22172-93.0908a11.37715,11.37715,0,0,1,10.25488,0l80.53319,46.501c2.8203,1.6279,2.8203,4.293,0,5.9209Z" class="colorf7f7fc svgShape"></path><path fill="url(#I)" d="M629.13627,499.45021,467.91458,592.541a11.37713,11.37713,0,0,1-10.2549,0l-80.5332-46.501c-1.4805-.85449-2.1758-1.99509-2.1016-3.12109h-.0136v2.3809h0a3.59761,3.59761,0,0,0,2.1152,2.9609l80.5332,46.5a11.371,11.371,0,0,0,10.2549,0l161.22169-93.0898a3.59793,3.59793,0,0,0,2.1152-2.96091v-2.22069A3.59793,3.59793,0,0,1,629.13627,499.45021Z"></path><path d="M585.9702,468.60451l-37.36712-21.5762a11.37715,11.37715,0,0,0-10.25488,0l-99.51572,57.461h59.2549l51.7129-29.8555-8.1738-4.71881h42.07419Z" style="mix-blend-mode:multiply" fill="url(#J)"></path><polygon points="378.953 539.065 392.309 539.064 444.021 509.208 437.34 505.351 378.953 539.065" style="mix-blend-mode:multiply" fill="url(#K)"></polygon></g><g data-name="Bar graph" fill="#010001" class="color000000 svgShape"><polygon fill="#d0e1f2" points="491.767 316.054 543.474 345.91 543.474 436.849 491.767 406.994 491.767 316.054" class="colord0d3f2 svgShape"></polygon><polygon fill="#bdcee0" points="595.186 316.054 543.474 345.91 543.474 436.849 595.186 406.994 595.186 316.054" class="colorbdc0e0 svgShape"></polygon><polygon fill="#f4f6f8" points="543.474 286.199 491.767 316.054 543.474 345.91 595.186 316.054 543.474 286.199" class="colorf6f6fa svgShape"></polygon><polygon fill="#429af2" points="431.879 372.625 483.586 402.479 483.586 471.423 431.879 441.566 431.879 372.625" class="colorf2bd42 svgShape"></polygon><polygon fill="#d62db7" points="535.298 372.625 483.586 402.479 483.586 471.423 535.298 441.566 535.298 372.625" class="colord6952d svgShape"></polygon><polygon fill="#f4f6f8" points="483.586 342.769 431.879 372.625 483.586 402.479 535.298 372.625 483.586 342.769" class="colorf6f6fa svgShape"></polygon><polygon fill="#d0e1f2" points="371.993 433.193 423.7 463.05 423.7 505.997 371.993 476.143 371.993 433.193" class="colord0d3f2 svgShape"></polygon><polygon fill="#bdcee0" points="475.412 433.193 423.7 463.05 423.7 505.997 475.412 476.143 475.412 433.193" class="colorbdc0e0 svgShape"></polygon><polygon fill="#f4f6f8" points="423.7 403.34 371.993 433.193 423.7 463.05 475.412 433.193 423.7 403.34" class="colorf6f6fa svgShape"></polygon><polygon points="423.7 505.997 408.248 454.128 371.993 433.193 371.993 476.143 423.7 505.997 423.7 505.997" style="mix-blend-mode:multiply" fill="#f2f4f7" class="colorf2f2f7 svgShape"></polygon><polygon points="408.248 454.128 439.153 454.128 475.412 433.193 423.7 403.34 371.993 433.193 408.248 454.128" style="mix-blend-mode:multiply" fill="url(#L)"></polygon><polygon fill="#429af2" points="252.221 380.23 303.927 410.085 303.927 505.997 252.221 476.143 252.221 380.23" class="colorf2bd42 svgShape"></polygon><polygon fill="#d62db7" points="355.639 380.23 303.927 410.085 303.927 505.997 355.639 476.143 355.639 380.23" class="colord6952d svgShape"></polygon><polygon fill="#5ca9f7" points="303.927 350.376 252.221 380.23 303.927 410.085 355.639 380.23 303.927 350.376" class="colorf7d25c svgShape"></polygon><polygon fill="#d0e1f2" points="312.106 494.266 363.814 524.122 363.814 540.573 312.106 510.717 312.106 494.266" class="colord0d3f2 svgShape"></polygon><polygon fill="#bdcee0" points="415.524 494.266 363.814 524.122 363.814 540.573 415.524 510.717 415.524 494.266" class="colorbdc0e0 svgShape"></polygon><polygon fill="#f4f6f8" points="363.814 464.409 312.106 494.266 363.814 524.122 415.524 494.266 363.814 464.409" class="colorf6f6fa svgShape"></polygon><polygon points="341.121 527.471 335.202 507.602 312.106 494.266 312.106 510.717 341.121 527.471 341.121 527.471" style="mix-blend-mode:multiply" fill="#f2f4f7" class="colorf2f2f7 svgShape"></polygon><polygon points="370.141 487.415 362.814 483.186 396.333 483.186 363.814 464.409 312.106 494.266 335.19 507.594 370.141 487.415" style="mix-blend-mode:multiply" fill="url(#e)"></polygon><polygon fill="#5c55c6" points="431.879 356.171 483.586 386.027 483.586 402.479 431.879 372.623 431.879 356.171" class="color5555c6 svgShape"></polygon><polygon fill="#4841aa" points="535.297 356.171 483.586 386.027 483.586 402.479 535.297 372.623 535.297 356.171" class="color4141aa svgShape"></polygon><polygon fill="#867ff4" points="483.586 326.315 431.879 356.171 483.586 386.027 535.297 356.171 483.586 326.315" class="color7f7ff4 svgShape"></polygon><polygon fill="#5c55c6" points="491.767 279.973 543.474 309.829 543.474 345.91 491.767 316.053 491.767 279.973" class="color5555c6 svgShape"></polygon><polygon fill="#4841aa" points="595.184 279.973 543.474 309.829 543.474 345.91 595.184 316.053 595.184 279.973" class="color4141aa svgShape"></polygon><polygon fill="#867ff4" points="543.474 250.117 491.767 279.973 543.474 309.829 595.184 279.973 543.474 250.117" class="color7f7ff4 svgShape"></polygon><polygon fill="#429af2" points="551.65 425.116 603.357 454.973 603.357 471.425 551.65 441.568 551.65 425.116" class="colorf2bd42 svgShape"></polygon><polygon fill="#d12fb4" points="655.067 425.116 603.357 454.973 603.357 471.425 655.067 441.568 655.067 425.116" class="colord18f2f svgShape"></polygon><polygon fill="#5ca9f7" points="603.357 395.261 551.65 425.116 603.357 454.973 655.067 425.116 603.357 395.261" class="colorf7d25c svgShape"></polygon><polygon points="593.528 465.749 587.609 445.88 551.65 425.116 551.65 441.568 593.528 465.749 593.528 465.749" style="mix-blend-mode:multiply" fill="#f2f4f7" class="colorf2f2f7 svgShape"></polygon><polygon points="603.357 395.261 551.65 425.116 587.609 445.88 635.284 418.355 626.647 413.368 634.72 413.368 603.357 395.261" style="mix-blend-mode:multiply" fill="url(#M)"></polygon><polygon fill="#5c55c6" points="192.334 467.768 244.041 497.624 244.041 540.572 192.334 510.717 192.334 467.768" class="color5555c6 svgShape"></polygon><polygon fill="#4841aa" points="295.752 467.768 244.041 497.624 244.041 540.572 295.752 510.717 295.752 467.768" class="color4141aa svgShape"></polygon><polygon fill="#867ff4" points="244.041 437.915 192.334 467.768 244.041 497.624 295.752 467.768 244.041 437.915" class="color7f7ff4 svgShape"></polygon></g><g fill="#010001" class="color000000 svgShape"><path d="M571.44778,543.30181,556.8482,534.873l11.25578-6.499c.0684-.03509.1319-.07319.1934-.11229l.0576-.0322-.0019-.001c1.9462-1.2568.4287-3.7549-4.5577-6.6338-7.1718-4.1406-18.8007-7.498-25.9736-7.498-2.4951,0-4.1191.4072-4.8789,1.11129l-.01368-.00879-11.61422,6.7051c-1.7803.8428-1.5557,2.4326.65722,4.38669l-14.544,8.39651a36.2841,36.2841,0,0,0-5.788-.5439c-2.49422,0-4.11922.4062-4.878,1.1103l-.01462-.0078-11.6133,6.7051c-2.4824,1.17379-1.0908,3.7939,4.1836,6.83879,7.1728,4.14071,18.8018,7.49811,25.9736,7.49811,2.3955,0,3.9864-.376,4.7823-1.0293l.0019.0019,10.4316-6.0224,15.3292,8.8506Z" style="mix-blend-mode:multiply" fill="url(#i)"></path><path fill="#d0e3f6" d="M512.03178,506.10451c0,7.498,5.2617,16.6133,11.7548,20.3623,6.4932,3.748,11.7559.709,11.7559-6.7871,0-7.4981-5.2627-16.6113-11.7559-20.3613C517.29348,495.56931,512.03078,498.60941,512.03178,506.10451Zm1.7666,1.02149c0-6.37009,4.4707-8.95219,9.9882-5.76659,5.51662,3.1855,9.9883,10.9287,9.9883,17.2998,0,6.3701-4.47168,8.9502-9.9883,5.7656C518.26908,521.24121,513.79838,513.49711,513.79838,507.126Z" class="colord0d4f6 svgShape"></path><path fill="url(#f)" d="M523.78658,524.42481c-5.5175-3.1836-9.9882-10.9277-9.9882-17.29881,0-6.37009,4.4707-8.95219,9.9882-5.76659.2198.1279.43662.2744.6543.416a22.41091,22.41091,0,0,0,9.2989,16.0723c.0146.2714.0351.5439.0351.8115C533.77488,525.02931,529.3032,527.60941,523.78658,524.42481Z"></path><path fill="#37318f" d="M510.79838,505.39451c0,8.2813,5.8154,18.35349,12.9882,22.4932,7.1729,4.1406,12.9874.7842,12.9874-7.4961,0-8.2832-5.8145-18.3545-12.9874-22.4951C516.61378,493.75491,510.79838,497.11131,510.79838,505.39451Zm1.2334.71c0-7.4951,5.2636-10.5352,11.7548-6.7861,6.4932,3.748,11.7559,12.8642,11.7559,20.3613,0,7.4961-5.2637,10.5351-11.7559,6.7871C517.29448,522.71781,512.03078,513.60251,512.03178,506.10451Z" class="color34318f svgShape"></path><path fill="#a50b89" d="M532.85888,528.85741h-.001l.0215-.0117Z" class="color342d6a svgShape"></path><path fill="url(#g)" d="M524.91158,491.05271c2.3721-1.5781,5.7569-1.47071,9.5147.7002,7.1738,4.1407,12.9883,14.211,12.9883,22.49509,0,4.20411-1.501,7.13681-3.916,8.46591l.0009.0009-10.44228,6.0284c2.29778-1.3789,3.71678-4.2637,3.71678-8.3516,0-8.2832-5.8145-18.3545-12.9874-22.4951-3.7587-2.1709-7.1435-2.2774-9.5156-.6992Z"></path><path fill="#c4d3e2" d="M489.95068,500.50391c-2.0381-1.1768-2.0381-3.1016,0-4.2773l17.3213-10.002a8.21466,8.21466,0,0,1,7.40822,0l16.90428,9.7598c2.0361,1.1767,2.0371,3.10059,0,4.2763l-17.32228,10.002a8.218,8.218,0,0,1-7.41012,0Z" class="colorc4c8e2 svgShape"></path><path fill="#f7f9fc" d="M489.95068,500.50391c-2.0381-1.1768-2.0381-3.1016,0-4.2773l17.3213-10.002a8.21466,8.21466,0,0,1,7.40822,0l16.90428,9.7598c2.0361,1.1767,2.0371,3.10059,0,4.2763l-17.32228,10.002a8.218,8.218,0,0,1-7.41012,0Z" class="colorf7f7fc svgShape"></path><path fill="url(#N)" d="M488.4322,498.49511a2.66371,2.66371,0,0,0,1.51848,2.0088l16.9014,9.7588.0068.0039h0a8.22216,8.22216,0,0,0,7.40332-.0039l17.32228-10.002a2.59761,2.59761,0,0,0,1.5254-2.1259l.0019.0009.001,17.375c-.001,2.4258-2.04,7.7637-5.51458,9.5957L508.44188,536.165c-.0381.02351-.0762.04591-.1142.06641l-.06548.0381-.00092-.0078c-1.32908.7002-3.129.5674-5.1133-.5771l-9.4942-5.4815c-5.4179-3.1279-5.22158-8.9687-5.22158-11.5703Z"></path><path d="M488.4322,498.49511a2.66371,2.66371,0,0,0,1.51848,2.0088l16.9014,9.7588.0068.0039h0a8.22216,8.22216,0,0,0,7.40332-.0039l17.32228-10.002a2.59761,2.59761,0,0,0,1.5254-2.1259l.0019.0009.001,17.375c-.001,2.4258-2.04,7.7637-5.51458,9.5957L508.44188,536.165c-.0381.02351-.0762.04591-.1142.06641l-.06548.0381-.00092-.0078c-1.32908.7002-3.129.5674-5.1133-.5771l-9.4942-5.4815c-5.4179-3.1279-5.22158-8.9687-5.22158-11.5703Z" style="mix-blend-mode:multiply" fill="url(#j)"></path><path fill="#d0e3f6" d="M476.69288,526.53811c0,7.498,5.2617,16.6123,11.7549,20.3613s11.7549.71,11.7549-6.7861c0-7.4981-5.2608-16.61231-11.7549-20.3604C481.95458,516.00391,476.69288,519.042,476.69288,526.53811Zm1.7676,1.0195c0-6.3691,4.47072-8.9492,9.9873-5.76561,5.5166,3.18751,9.9883,10.92971,9.9883,17.29981,0,6.3711-4.4717,8.95119-9.9883,5.7666C482.9312,541.67291,478.46048,533.92871,478.46048,527.55761Z" class="colord0d4f6 svgShape"></path><path fill="url(#O)" d="M488.44778,544.85841c-5.51658-3.1855-9.9873-10.9297-9.9873-17.3008,0-6.3691,4.47072-8.9492,9.9873-5.76561.2217.12791.4365.27541.6543.417a22.4175,22.4175,0,0,0,9.2988,16.07221c.0156.2696.0352.543.0352.8106C498.43608,545.46291,493.96438,548.043,488.44778,544.85841Z"></path><path fill="#37318f" d="M475.45948,525.82711c0,8.2823,5.8154,18.3536,12.9883,22.4952,7.1728,4.1406,12.9873.7832,12.9873-7.4981,0-8.28421-5.8145-18.3535-12.9873-22.4941C481.27488,514.18851,475.45948,517.54491,475.45948,525.82711Zm1.2334.711c0-7.49611,5.2627-10.5332,11.7549-6.7852,6.4931,3.74709,11.7549,12.8623,11.7549,20.3604,0,7.4961-5.2618,10.5332-11.7549,6.7861C481.95558,543.15141,476.69288,534.03421,476.69288,526.53811Z" class="color34318f svgShape"></path><path fill="#a50b89" d="M497.521,549.291l-.001-.00189.0206-.0098Z" class="color342d6a svgShape"></path><path fill="url(#P)" d="M489.57278,511.48731c2.372-1.5791,5.7558-1.4707,9.5156.6992,7.1729,4.1406,12.9883,14.21,12.9883,22.4942,0,4.205-1.502,7.1377-3.916,8.4668h.0009l-10.4433,6.0283c2.2978-1.3789,3.7168-4.2637,3.7168-8.3516,0-8.28421-5.8145-18.3535-12.9873-22.4941-3.7598-2.1709-7.14458-2.2783-9.51558-.6992Z"></path><path fill="#441244" d="M506.02488 428.04591a8.11466 8.11466 0 00-1.2871-.7227 1.60415 1.60415 0 10-1.2832 2.9405 10.29735 10.29735 0 013.0088 2.4492 1.604 1.604 0 102.4981-2.0127A14.77509 14.77509 0 00506.02488 428.04591zM507.38138 438.60941a8.17679 8.17679 0 001.0957-.9883 1.604 1.604 0 00-2.377-2.1543 10.27444 10.27444 0 01-3.2812 2.0693 1.6045 1.6045 0 101.11032 3.0108A14.72362 14.72362 0 00507.38138 438.60941z" class="color121244 svgShape"></path><path fill="url(#h)" d="M530.96148,463.30181c3.705-3.127,4.746-9.1534,2.6523-15.3545-2.5938-7.6797-10.2949-16.1299-24.1348-16.8145h0a3.3259,3.3259,0,0,0-.33,6.6436h0c10.5048.5205,16.2695,6.6943,18.1621,12.2988,1.3115,3.88479.6709,7.0361-.6397,8.1416h0a3.32649,3.32649,0,0,0,4.2901,5.085Z"></path><path fill="#6b1c6b" d="M500.47408,434.74711a1.60474,1.60474,0,0,0,1.7686.6884,10.30021,10.30021,0,0,1,3.8799.0381,1.60423,1.60423,0,0,0,.6972-3.1318,13.3552,13.3552,0,0,0-5.4082-.0049,1.60386,1.60386,0,0,0-.9375,2.4102Z" class="color1e1c6b svgShape"></path><path d="M483.812,468.03221l.0039-.001c0,.0206-.0039.0391-.0039.0586Z" fill="#010001" class="color000000 svgShape"></path><path fill="url(#Q)" d="M483.812,468.19821a2.62024,2.62024,0,0,0,1.5225,2.085l16.9033,9.75779a8.216,8.216,0,0,0,7.4092,0l26.5498-15.32809a2.60189,2.60189,0,0,0,1.5293-2.1377v31.0107a2.59993,2.59993,0,0,1-1.5293,2.1407l-26.5498,15.3281a8.21049,8.21049,0,0,1-7.4092,0l-16.9033-9.7588a2.52961,2.52961,0,0,1-1.5186-2.251l-.0048.001Z"></path><path fill="#ffffff" d="M485.33448,470.28321c-2.0371-1.1758-2.0371-3.1016,0-4.2773l26.5518-15.3291a8.217,8.217,0,0,1,7.4082,0l16.9023,9.7587c2.0381,1.1768,2.0381,3.1006,0,4.2774L509.647,480.041a8.216,8.216,0,0,1-7.4092,0Z" class="colorffffff svgShape"></path><path d="M536.19678,460.43551l-11.8135-6.8203c-.0703-.0009-.1416-.0039-.2119-.0039h-6.3115c-2.9902,0-6.6231.6992-8.1172,1.5625l-16.27248,9.3946c-1.49122.8623-.28222,1.5615,2.70508,1.5615l11.461,6.7129c-1.4913.8623-.2823,1.5615,2.705,1.5615h6.3135c.9346,0,1.8858-.0186,2.8467-.0518l16.6953-9.6396C538.23488,463.53611,538.23488,461.61231,536.19678,460.43551Z" style="mix-blend-mode:multiply" fill="url(#R)"></path><path fill="#bdd0e4" d="M517.189,449.78031c5.9873-3.4561,10.8418-.65531,10.8418,6.2588v3.6435a5.97661,5.97661,0,0,1-2.7061,4.6865l-16.27148,9.3946c-1.49412.86129-2.705.1631-2.705-1.5616v-3.6445C506.3482,461.64361,511.20268,453.23631,517.189,449.78031Z" class="colorbdc1e4 svgShape"></path><path fill="url(#S)" d="M503.14408,441.67191c3-1.7334,5.7168-1.8916,7.6787-.751l14.02342,8.0947c-1.96092-1.126-4.66892-.9609-7.65722.7647-5.9863,3.456-10.84078,11.8633-10.84078,18.7773v3.6445a1.91517,1.91517,0,0,0,.77148,1.7364l-13.9688-8.0674a1.86361,1.86361,0,0,1-.84768-1.7783v-3.6436C492.3032,453.53611,497.15768,445.12891,503.14408,441.67191Z"></path><polygon points="502.005 488.631 493.951 479.877 489.712 483.839 497.767 492.592 502.005 488.631" style="mix-blend-mode:multiply" fill="url(#m)"></polygon><path fill="#441244" d="M495.96238 484.35451a7.34125 7.34125 0 00-3.32218-5.7549c-1.836-1.05961-3.32232-.2012-3.32232 1.918a7.33686 7.33686 0 003.32232 5.7549C494.47508 487.332 495.96238 486.47171 495.96238 484.35451zM468.899 456.71291a8.35511 8.35511 0 00.9033 1.168 1.60432 1.60432 0 002.3281-2.208 10.29417 10.29417 0 01-1.8154-3.4288 1.60388 1.60388 0 10-3.085.87889A14.6879 14.6879 0 00468.899 456.71291z" class="color121244 svgShape"></path><path fill="url(#T)" d="M495.95558,484.46391c.001-.0371.0068-.0713.0068-.1094a7.4399,7.4399,0,0,0-2.8125-5.4111c-.039-.0049-.0752-.0147-.1152-.0186-7.48148,2.70219-14.1953-1.2236-17.8691-6.3643-2.2725-3.1806-3.9766-7.9609-1.295-10.9687,1.958-3.4785-1.667-7.5557-5.2422-3.9814-3.5761,3.5761-3.4873,11.9589,1.3164,18.68159,5.11042,7.14841,15.293,12.874,25.5782,8.54691A3.698,3.698,0,0,0,495.95558,484.46391Z"></path><path fill="#441244" d="M478.2232,461.29791a8.29469,8.29469,0,0,0,1.44718-.2891,1.60449,1.60449,0,1,0-.9394-3.0684,10.30774,10.30774,0,0,1-3.8789.10059,1.60414,1.60414,0,0,0-.586,3.15431A14.77832,14.77832,0,0,0,478.2232,461.29791Z" class="color121244 svgShape"></path><path fill="#6b1c6b" d="M472.67238,458.14841a1.60522,1.60522,0,0,0,1.3877-1.2939,10.31229,10.31229,0,0,1,1.7197-3.47851,1.60363,1.60363,0,0,0-2.51658-1.98829,13.361,13.361,0,0,0-2.35552,4.8682,1.60546,1.60546,0,0,0,1.2774,1.8759A1.63735,1.63735,0,0,0,472.67238,458.14841Z" class="color1e1c6b svgShape"></path><path fill="#5c55c6" d="M520.76808 471.62111a.62433.62433 0 01-.625-.625v-2.2676a3.58336 3.58336 0 00-1.4766-2.7588l-1.79-1.0332a.62564.62564 0 11.625-1.084l1.79 1.0332a4.78215 4.78215 0 012.1016 3.8428v2.2676A.62433.62433 0 01520.76808 471.62111zM523.9282 469.81251a.62432.62432 0 01-.625-.625v-2.2686a3.58338 3.58338 0 00-1.47652-2.7587l-1.7891-1.0323a.62564.62564 0 11.625-1.084l1.7891 1.0323a4.7818 4.7818 0 012.10152 3.8427v2.2686A.62428.62428 0 01523.9282 469.81251z" class="color5555c6 svgShape"></path><path d="M167.78909,504.13961l20.10111-11.6054-35.33061-20.3975-19.91939,11.5c-.27491-.0019-.54891-.0058-.83061-.0058-13.9995,0-31.02339,3.2763-38.0239,7.3183-6.9297,4.001-1.4317,7.25,12.2617,7.3145-.4854.9961-.05519,2.11329,1.2964,2.8935l11.0898,6.4033,9.26561,5.3487c-3.46041,3.3467,2.41219,5.8662,14.688,5.8662,14.00149,0,31.02439-3.27641,38.024-7.31841C187.40288,507.42091,181.75149,504.14841,167.78909,504.13961Z" style="mix-blend-mode:multiply" fill="url(#U)"></path><path fill="#bdd0e4" d="M101.68359,466.70311c-6.4936,3.749-11.7558,12.8633-11.7558,20.3604s5.2627,10.5351,11.7558,6.7871c6.4927-3.749,11.7549-12.8643,11.7549-20.3613C113.439,465.99321,108.17629,462.95411,101.68359,466.70311Zm0,25.1055c-5.5171,3.1855-9.9883.6055-9.9883-5.7647,0-6.372,4.4712-14.1152,9.9883-17.2998,5.51661-3.1855,9.9878-.6035,9.9878,5.7666S107.2002,488.626,101.68359,491.80861Z" class="colorbdc1e4 svgShape"></path><path fill="url(#k)" d="M101.68359,491.80861c5.51661-3.18261,9.9878-10.9277,9.9878-17.2979s-4.47119-8.9521-9.9878-5.7666c-.2207.127-.4375.2735-.6548.4151a22.41292,22.41292,0,0,1-9.2988,16.0732c-.0151.2705-.0347.544-.0347.8115C91.69529,492.41411,96.16649,494.99411,101.68359,491.80861Z"></path><path fill="#6b1c6b" d="M101.68359,465.28121c-7.1728,4.1407-12.9873,14.211-12.9873,22.4942,0,8.2812,5.8145,11.6377,12.9873,7.4961,7.1724-4.1397,12.9883-14.211,12.9878-22.4932C114.67189,464.49511,108.856,461.13871,101.68359,465.28121Zm0,28.5694c-6.4927,3.748-11.7558.709-11.7558-6.7871s5.2627-16.6123,11.7558-20.3604c6.4907-3.749,11.7549-.7099,11.7549,6.7862C113.439,480.98631,108.17529,490.10161,101.68359,493.85061Z" class="color1e1c6b svgShape"></path><path fill="#a50b89" d="M92.61089,496.24121h.0014l-.0215-.0117Z" class="color342d6a svgShape"></path><path fill="url(#l)" d="M100.55809,458.43751c-2.372-1.5781-5.7568-1.4707-9.5151.6992-7.1733,4.1406-12.98779,14.211-12.98779,22.4961,0,4.2041,1.501,7.1367,3.916,8.4649l-.001.0009L92.41309,496.127c-2.2983-1.379-3.7168-4.26369-3.7168-8.35159,0-8.2832,5.8145-18.3535,12.9873-22.4942,3.7588-2.1708,7.1431-2.2783,9.5152-.69921Z"></path><path fill="#c4d3e2" d="M135.51959,467.88771c2.03761-1.1758,2.03761-3.1006,0-4.2764l-17.3218-10.0029a8.22023,8.22023,0,0,0-7.4082,0l-16.9038,9.7598c-2.0367,1.1767-2.03759,3.1005,0,4.2773l17.3217,10.001a8.21881,8.21881,0,0,0,7.4102,0Z" class="colorc4c8e2 svgShape"></path><path fill="#f7f9fc" d="M135.51959,467.88771c2.03761-1.1758,2.03761-3.1006,0-4.2764l-17.3218-10.0029a8.22023,8.22023,0,0,0-7.4082,0l-16.9038,9.7598c-2.0367,1.1767-2.03759,3.1005,0,4.2773l17.3217,10.001a8.21881,8.21881,0,0,0,7.4102,0Z" class="colorf7f7fc svgShape"></path><path fill="url(#V)" d="M137.03759,465.87891a2.66279,2.66279,0,0,1-1.518,2.0088l-16.9019,9.7588-.0068.0039h0a8.21951,8.21951,0,0,1-7.4034-.0039l-17.3217-10.001a2.5998,2.5998,0,0,1-1.5259-2.1269l-.002.0009-.0009,17.375c.0009,2.4268,2.04,7.7647,5.5141,9.5957l19.1568,11.0586c.0385.0235.0761.0459.1147.0664l.0654.0381.0005-.0068c1.3291.7002,3.1284.5674,5.1133-.5781l9.4937-5.4815c5.4179-3.12791,5.2221-8.9678,5.2221-11.5693Z"></path><path d="M137.03759,465.87891a2.66279,2.66279,0,0,1-1.518,2.0088l-16.9019,9.7588-.0068.0039h0a8.21951,8.21951,0,0,1-7.4034-.0039l-17.3217-10.001a2.5998,2.5998,0,0,1-1.5259-2.1269l-.002.0009-.0009,17.375c.0009,2.4268,2.04,7.7647,5.5141,9.5957l19.1568,11.0586c.0385.0235.0761.0459.1147.0664l.0654.0381.0005-.0068c1.3291.7002,3.1284.5674,5.1133-.5781l9.4937-5.4815c5.4179-3.12791,5.2221-8.9678,5.2221-11.5693Z" style="mix-blend-mode:multiply" fill="url(#W)"></path><path fill="#bdd0e4" d="M137.022,487.13671c-6.4941,3.7481-11.7549,12.86329-11.7549,20.3604s5.2622,10.5351,11.7549,6.7861c6.49321-3.749,11.7549-12.8633,11.7549-20.3613C148.77739,486.42581,143.5152,483.38871,137.022,487.13671Zm0,25.1055c-5.5166,3.1855-9.98779.6045-9.98779-5.7656,0-6.3711,4.47119-14.1133,9.98779-17.2998,5.5166-3.1846,9.9878-.6045,9.9878,5.7656S142.53859,509.05761,137.022,512.24221Z" class="colorbdc1e4 svgShape"></path><path fill="url(#X)" d="M137.022,512.24221c5.5166-3.1846,9.9878-10.9297,9.9878-17.2998s-4.4712-8.9502-9.9878-5.7656c-.2217.1279-.4365.2744-.6543.4169a22.4158,22.4158,0,0,1-9.2988,16.07129c-.0152.26961-.03469.544-.03469.81161C127.0342,512.84671,131.50539,515.42771,137.022,512.24221Z"></path><path fill="#6b1c6b" d="M137.022,485.71481c-7.1729,4.1407-12.98679,14.21-12.98679,22.49319,0,8.28221,5.81389,11.63871,12.98679,7.49811,7.1728-4.1416,12.9878-14.212,12.9878-22.4952C150.00979,484.92871,144.19479,481.57231,137.022,485.71481Zm0,28.5684c-6.4927,3.748-11.7549.71-11.7549-6.7861,0-7.49711,5.2622-16.6123,11.7549-20.3604,6.4917-3.748,11.7549-.7109,11.7549,6.7852C148.77739,501.41891,143.51369,510.53611,137.022,514.28321Z" class="color1e1c6b svgShape"></path><path fill="#a50b89" d="M127.9492,516.67481l.00049-.001-.02-.0097Z" class="color342d6a svgShape"></path><path fill="url(#Y)" d="M135.897,478.87111c-2.3716-1.57811-5.7564-1.4707-9.5161.6992-7.1724,4.1416-12.9873,14.2109-12.9873,22.4942,0,4.205,1.5014,7.1376,3.9155,8.4667l-.0005.001,10.4434,6.0274c-2.2989-1.378-3.71679-4.2637-3.71679-8.35161,0-8.28319,5.81389-18.35249,12.98679-22.49319,3.7598-2.17181,7.144-2.2783,9.5156-.7002Z"></path><path fill="url(#Z)" d="M130.084,446.44c-3.2373-1.86819-4.8545-4.32029-4.8476-6.77149l.0136-10.6269c-.00579,2.4511,1.6104,4.9033,4.8467,6.77439,6.4346,3.71381,16.8301,3.71381,23.2207.00291,3.1739-1.8486,4.7637-4.2617,4.7715-6.6807l-.0146,10.625c-.0069,2.419-1.5957,4.8321-4.7705,6.6797C146.91309,450.15681,136.51659,450.15681,130.084,446.44Z"></path><path fill="#5ca9f7" d="M130.09669,435.816c-6.4326-3.71389-6.4668-9.73539-.0781-13.44929,6.39361-3.7148,16.792-3.7148,23.2227,0,6.4345,3.7139,6.4658,9.7354.0761,13.4522C146.92679,439.52981,136.53129,439.52981,130.09669,435.816Z" class="colorf7d25c svgShape"></path><path fill="#429af2" d="M137.02709,432.90131l-2.2951-1.3251,8.8589-5.1147-3.58569-1.0936,1.85039-1.0683,6.5043,1.7745.2462.1421Z" class="colorf2bd42 svgShape"></path><path d="M141.6582,435.416l-.00441-.001c0,.02051.0039.04011.00441.05961Z" fill="#010001" class="color000000 svgShape"></path><path fill="url(#n)" d="M141.6582,435.582a2.62037,2.62037,0,0,1-1.52341,2.085l-16.9028,9.75881a8.22233,8.22233,0,0,1-7.4092,0L89.273,432.09771A2.60171,2.60171,0,0,1,87.7442,429.959v31.01071a2.599,2.599,0,0,0,1.52879,2.1416l26.5498,15.3282a8.21671,8.21671,0,0,0,7.4092,0l16.9028-9.7598a2.52964,2.52964,0,0,0,1.519-2.25l.0049.001Z"></path><path fill="#ffffff" d="M140.13479,437.667c2.0371-1.17579,2.0371-3.10059,0-4.27739l-26.5508-15.3291a8.2219,8.2219,0,0,0-7.4087,0l-16.9023,9.7588c-2.0386,1.1768-2.0386,3.1006,0,4.2784l26.5498,15.3281a8.22233,8.22233,0,0,0,7.4092,0Z" class="colorffffff svgShape"></path><polygon points="139.887 459.487 130.701 452.407 134.189 447.954 143.375 455.034 139.887 459.487" style="mix-blend-mode:multiply" fill="url(#aa)"></polygon><path d="M140.13479,433.38961l-16.8467-9.7265h-3.8574c-4.4507,0-6.2612,1.04489-4.0357,2.3301l-8.852,4.7939c-4.4507,0-6.2617,1.04589-4.0357,2.3301l13.9092,8.0312c2.2256,1.2852,7.6573,2.3301,12.1079,2.3301h1.5445l10.0659-5.81151C142.17189,436.49121,142.17189,434.56641,140.13479,433.38961Z" style="mix-blend-mode:multiply" fill="url(#o)"></path><path fill="#d0e3f6" d="M108.28079,417.16411c-5.9873-3.45611-10.8418-.6553-10.8413,6.2588v3.6445a5.97638,5.97638,0,0,0,2.7051,4.6855l16.2719,9.3955c1.49371.8614,2.7051.1631,2.7051-1.5625v-3.6445C119.12159,429.02731,114.26759,420.62011,108.28079,417.16411Z" class="colord0d4f6 svgShape"></path><path fill="url(#ab)" d="M122.3252,409.05571c-2.99951-1.7325-5.71631-1.8916-7.67821-.75l-14.0234,8.0937c1.9614-1.126,4.6684-.9599,7.6572.7647,5.9868,3.456,10.8408,11.8632,10.8408,18.7773v3.6445a1.91289,1.91289,0,0,1-.7715,1.7364l13.9688-8.0674a1.863,1.863,0,0,0,.8476-1.7774V427.833C133.16649,420.91991,128.312,412.51271,122.3252,409.05571Z"></path><path fill="#441244" d="M129.50729 451.73831a7.34252 7.34252 0 013.3223-5.7549c1.836-1.0596 3.3228-.2012 3.3228 1.918a7.33836 7.33836 0 01-3.3228 5.7548C130.99469 454.71581 129.50729 453.85641 129.50729 451.73831zM158.91729 443.745a8.30336 8.30336 0 01-.9028 1.16791 1.6045 1.6045 0 01-2.3286-2.208 10.2743 10.2743 0 001.8154-3.4287 1.60364 1.60364 0 113.0845.8789A14.66994 14.66994 0 01158.91729 443.745z" class="color121244 svgShape"></path><path fill="url(#ac)" d="M129.51469,451.84771c-.00149-.0372-.0074-.0713-.0074-.1094a7.43756,7.43756,0,0,1,2.8121-5.4102c.0395-.0049.0752-.0156.1157-.0195,7.6828,7.4121,11.7729,11.3682,18.0443,10.6006,4.38181-.5364,5.9119-5.8411,3.2302-8.8499-1.9575-3.4776,1.667-7.5557,5.2422-3.9815,3.5762,3.57619,3.7757,16.9545-7.26059,18.3389-8.71941,1.0937-12.886-1.75-21.74391-10.194A3.58084,3.58084,0,0,1,129.51469,451.84771Z"></path><path fill="#441244" d="M149.59309,448.32991a8.21626,8.21626,0,0,1-1.4477-.289,1.60449,1.60449,0,1,1,.9394-3.0684,10.27153,10.27153,0,0,0,3.87941.1006,1.60417,1.60417,0,0,1,.58639,3.1543A14.783,14.783,0,0,1,149.59309,448.32991Z" class="color121244 svgShape"></path><path fill="#5c55c6" d="M104.70169 439.00591a.62507.62507 0 01-.62549-.625v-2.2686a4.78549 4.78549 0 012.102-3.8428l1.79009-1.0322a.62564.62564 0 11.625 1.084l-1.7896 1.0322a3.58518 3.58518 0 00-1.47649 2.7588v2.2686A.62509.62509 0 01104.70169 439.00591zM101.54149 437.19731a.62508.62508 0 01-.6255-.625v-2.2686a4.78507 4.78507 0 012.1016-3.84371l1.78961-1.03229a.62564.62564 0 01.625 1.084l-1.78911 1.0322a3.58352 3.58352 0 00-1.4761 2.7598v2.2686A.62508.62508 0 01101.54149 437.19731z" class="color5555c6 svgShape"></path><path d="M779.9732,450.77931l20.082-11.5947-35.2959-20.378-19.8994,11.4893c-.2754-.00291-.5488-.00591-.8301-.00591-13.9863,0-30.9932,3.27351-37.9873,7.31061-6.92283,3.9971-1.4307,7.2431,12.25,7.3076-.4844.9951-.0547,2.1113,1.2949,2.8906l11.0791,6.3975,9.2569,5.34369c-3.4571,3.34281,2.4091,5.85941,14.6738,5.85941,13.9873,0,30.9941-3.27241,37.9863-7.3105C799.5689,454.05661,793.9224,450.78711,779.9732,450.77931Z" style="mix-blend-mode:multiply" fill="url(#ad)"></path><path fill="#bdd0e4" d="M713.4058,413.998c-6.3311,3.65531-11.461,12.54111-11.461,19.85161,0,7.3096,5.1309,10.2715,11.461,6.6162,6.331-3.6543,11.4609-12.542,11.4609-19.8506C724.8677,413.30471,719.7368,410.34281,713.4058,413.998Zm0,24.47861c-5.3789,3.10539-9.7373.5888-9.7373-5.6231,0-6.2099,4.3584-13.7598,9.7373-16.8652s9.7383-.5889,9.7383,5.6211C723.1441,427.82131,718.7847,435.37111,713.4058,438.47661Z" class="colorbdc1e4 svgShape"></path><path fill="url(#ae)" d="M713.4058,438.47661c5.3789-3.1055,9.7383-10.6553,9.7383-16.8672,0-6.21-4.3594-8.7266-9.7383-5.6211-.2149.123-.4258.2666-.6377.4053a21.85182,21.85182,0,0,1-9.0664,15.6699c-.0147.2636-.0332.5302-.0332.79C703.6685,439.06541,708.0269,441.582,713.4058,438.47661Z"></path><path fill="#6b1c6b" d="M713.4058,412.61131c-6.9932,4.0371-12.6621,13.8555-12.6621,21.93169,0,8.07421,5.6689,11.34761,12.6621,7.31051,6.9932-4.0381,12.6631-13.8574,12.6621-21.9316C726.0689,411.84571,720.399,408.57321,713.4058,412.61131Zm0,27.8545c-6.3291,3.6543-11.461.6924-11.461-6.6162,0-7.30961,5.1309-16.1973,11.461-19.85161,6.3291-3.65429,11.4609-.69229,11.4609,6.61721C724.8677,427.92381,719.7359,436.81151,713.4058,440.46581Z" class="color1e1c6b svgShape"></path><path fill="#a50b89" d="M704.5611,442.79791v-.001l-.0196-.0098Z" class="color342d6a svgShape"></path><path fill="url(#af)" d="M712.3091,405.93951c-2.3125-1.5391-5.6123-1.4346-9.2773.6816-6.99323,4.0381-12.66213,13.8564-12.66213,21.9316,0,4.0996,1.4628,6.959,3.8173,8.2549v.001l10.18073,5.8769c-2.2412-1.3437-3.624-4.1572-3.624-8.14251,0-8.07619,5.6689-17.89459,12.6621-21.93169,3.665-2.1172,6.9648-2.2217,9.2773-.6816Z"></path><path fill="url(#ag)" d="M705.3794,381.53611c-3.5254-.1855-7.30963,1.7276-10.6572,5.3858-3.74813,4.0976-7.16023,10.8213-6.334,16.6093l6.19237-.8828c-.44237-3.10841,1.6025-8.0537,4.7568-11.5029,2.002-2.18751,4.13773-3.4453,5.71393-3.3623Z"></path><path fill="#c4d3e2" d="M746.395,415.15331c1.9864-1.1465,1.9864-3.0234,0-4.1699l-16.8877-9.751a8.0154,8.0154,0,0,0-7.2236,0l-16.4795,9.5147c-1.9863,1.1465-1.9873,3.0234,0,4.16989l16.8877,9.751a8.01555,8.01555,0,0,0,7.2237,0Z" class="colorc4c8e2 svgShape"></path><path fill="#f7f9fc" d="M746.395,415.15331c1.9864-1.1465,1.9864-3.0234,0-4.1699l-16.8877-9.751a8.0154,8.0154,0,0,0-7.2236,0l-16.4795,9.5147c-1.9863,1.1465-1.9873,3.0234,0,4.16989l16.8877,9.751a8.01555,8.01555,0,0,0,7.2237,0Z" class="colorf7f7fc svgShape"></path><path fill="url(#ah)" d="M747.8755,413.19531a2.601,2.601,0,0,1-1.4805,1.958L729.9156,424.668l-.0049.00291h0a8.01747,8.01747,0,0,1-7.2188-.00291l-16.8877-9.751a2.53767,2.53767,0,0,1-1.4892-2.07329h0l-.002,16.9405c.002,2.3662,1.9883,7.5703,5.377,9.3564l18.6767,10.7813c.0362.0234.0742.0449.1123.0654l.0625.0361.001-.0058c1.2959.6816,3.0498.5537,4.9854-.5645l9.2558-5.3427c5.2822-3.0508,5.0918-8.7461,5.0918-11.2813Z"></path><path d="M747.8755,413.19531a2.601,2.601,0,0,1-1.4805,1.958L729.9156,424.668l-.0049.00291h0a8.01747,8.01747,0,0,1-7.2188-.00291l-16.8877-9.751a2.53767,2.53767,0,0,1-1.4892-2.07329h0l-.002,16.9405c.002,2.3662,1.9883,7.5703,5.377,9.3564l18.6767,10.7813c.0362.0234.0742.0449.1123.0654l.0625.0361.001-.0058c1.2959.6816,3.0498.5537,4.9854-.5645l9.2558-5.3427c5.2822-3.0508,5.0918-8.7461,5.0918-11.2813Z" style="mix-blend-mode:multiply" fill="url(#ai)"></path><path fill="#bdd0e4" d="M747.8599,433.91991c-6.3311,3.6553-11.4609,12.541-11.4609,19.8516,0,7.3096,5.1308,10.27149,11.4609,6.6172,6.3301-3.6553,11.4609-12.542,11.4609-19.8516S754.19,430.26561,747.8599,433.91991Zm0,24.4785c-5.3789,3.1055-9.7383.5889-9.7383-5.623,0-6.21,4.3594-13.7598,9.7383-16.8652s9.7373-.5889,9.7373,5.622S753.2388,455.293,747.8599,458.39841Z" class="colorbdc1e4 svgShape"></path><path fill="url(#aj)" d="M747.8599,458.39841c5.3789-3.10541,9.7373-10.6552,9.7373-16.8662s-4.3584-8.7275-9.7373-5.622c-.2158.123-.4268.2666-.6377.4052a21.85689,21.85689,0,0,1-9.0664,15.67c-.0147.26359-.0342.5302-.0342.79C738.1216,458.98731,742.481,461.50391,747.8599,458.39841Z"></path><path fill="#6b1c6b" d="M747.8599,432.53321c-6.9932,4.0371-12.6621,13.8555-12.6621,21.9316,0,8.0743,5.6689,11.3477,12.6621,7.3106,6.9922-4.0381,12.6621-13.85741,12.6621-21.9317C760.522,431.76861,754.8521,428.49511,747.8599,432.53321Zm0,27.8555c-6.3291,3.65429-11.4609.6914-11.4609-6.6172,0-7.3096,5.1308-16.1973,11.4609-19.8516,6.3291-3.6543,11.4609-.6924,11.4609,6.6172C759.3208,447.84571,754.189,456.73341,747.8599,460.38871Z" class="color1e1c6b svgShape"></path><path fill="#a50b89" d="M739.0142,462.71971v-.001l-.0186-.00971Z" class="color342d6a svgShape"></path><path fill="url(#ak)" d="M746.7622,425.86131c-2.3125-1.539-5.6113-1.4336-9.2773.6826-6.9922,4.0372-12.6621,13.8555-12.6621,21.9307,0,4.1006,1.4638,6.959,3.8174,8.2549v.001l10.1806,5.8779c-2.2402-1.3447-3.623-4.1582-3.623-8.1436,0-8.0761,5.6689-17.8945,12.6621-21.9316,3.665-2.11621,6.9648-2.2217,9.2773-.6816Z"></path><path d="M752.3794,383.49511l-.0039-.001c.001.0196.0039.0381.0039.0577Z" fill="#010001" class="color000000 svgShape"></path><path fill="url(#al)" d="M752.3794,383.65721a2.55442,2.55442,0,0,1-1.4844,2.0323l-16.4804,9.5146a8.01561,8.01561,0,0,1-7.2237,0l-25.8857-14.9453a2.53307,2.53307,0,0,1-1.48933-2.084v30.2334a2.53254,2.53254,0,0,0,1.48933,2.0879l25.8857,14.9443a8.00937,8.00937,0,0,0,7.2237,0l16.4804-9.5146a2.46537,2.46537,0,0,0,1.4805-2.1944l.0049.001Z"></path><path fill="#f7f9fc" d="M750.895,385.68951c1.9864-1.14651,1.9864-3.02351,0-4.1709l-25.8857-14.9449a8.01625,8.01625,0,0,0-7.2246,0l-16.4795,9.5142c-1.98633,1.1475-1.98633,3.0234,0,4.1709l25.8857,14.9453a8.01561,8.01561,0,0,0,7.2237,0Z" class="colorf7f7fc svgShape"></path><path fill="#441244" d="M690.24457,403.45441a1.55227,1.55227,0,0,1-1.49037.2202,8.974,8.974,0,0,0-3.70683.0116,1.55307,1.55307,0,1,1-.6037-3.0469,11.79276,11.79276,0,0,1,5.4034.1268,1.55289,1.55289,0,0,1,.3975,2.6883Z" class="color121244 svgShape"></path><path fill="url(#q)" d="M691.46977,422.91721c-3.2373-1.86821-4.8545-4.3203-4.84757-6.7715l.01357-10.6269c-.0058,2.4511,1.61043,4.9033,4.8467,6.7744,6.4346,3.71379,16.83013,3.71379,23.22073.0029,3.1739-1.8486,4.7637-4.2617,4.7715-6.6807l-.0146,10.625c-.0069,2.419-1.5957,4.8321-4.7705,6.6797C708.2989,426.634,697.90237,426.634,691.46977,422.91721Z"></path><path fill="#f2f4f7" d="M691.48247,412.29321c-6.4326-3.7139-6.4668-9.7354-.0781-13.4493,6.3936-3.7148,16.792-3.7148,23.22273,0,6.4345,3.7139,6.4658,9.7354.0761,13.4522C708.3126,416.007,697.91707,416.007,691.48247,412.29321Z" class="colorf2f2f7 svgShape"></path><path fill="#d3e2f2" d="M697.90577,409.78921l-2.2951-1.3251,8.85893-5.1147-3.5857-1.0936,1.8504-1.0683,6.5043,1.7744.2462.1422Z" class="colord3d8f2 svgShape"></path><path fill="#441244" d="M716.9712,423.18551a8.056,8.056,0,0,1-1.4346-.1162,1.564,1.564,0,1,1,.5616-3.0771,10.05894,10.05894,0,0,0,3.7675-.3438,1.56373,1.56373,0,1,1,.9258,2.9873A14.35756,14.35756,0,0,1,716.9712,423.18551Z" class="color121244 svgShape"></path><polygon points="750.469 405.488 741.284 398.408 744.772 393.955 753.957 401.035 750.469 405.488" style="mix-blend-mode:multiply" fill="url(#am)"></polygon><path d="M750.895,381.51861l-16.3974-9.4664H728.396c-4.4512,0-6.2617,1.0455-4.0361,2.3296l-8.8516,4.795c-4.4511,0-6.2617,1.0449-4.0361,2.33l13.9092,8.0303c2.2256,1.2852,7.6572,2.3301,12.1074,2.3301h2.7051l10.7011-6.1777C752.8814,384.543,752.8814,382.666,750.895,381.51861Z" style="mix-blend-mode:multiply" fill="url(#an)"></path><path fill="#441244" d="M720.9849,420.77541a1.56336,1.56336,0,0,1-1.4902-1.0947,10.06125,10.06125,0,0,0-2.0606-3.1739,1.5637,1.5637,0,1,1,2.2119-2.2109,13.00562,13.00562,0,0,1,2.8321,4.4463,1.56352,1.56352,0,0,1-1.0225,1.9609A1.54526,1.54526,0,0,1,720.9849,420.77541Z" class="color121244 svgShape"></path><path fill="#6b1c6b" d="M740.5327,399.40821a7.16047,7.16047,0,0,1,3.2393-5.6113c1.79-1.0323,3.2402-.1944,3.2402,1.87009a7.159,7.159,0,0,1-3.2402,5.61131C741.9829,402.31151,740.5327,401.47361,740.5327,399.40821Z" class="color1e1c6b svgShape"></path><path fill="url(#ao)" d="M746.5474,395.73731a23.24327,23.24327,0,0,0-2.0889-2.25,3.64778,3.64778,0,0,0-.6865.3096,7.26294,7.26294,0,0,0-3.1162,4.5322,5.09969,5.09969,0,0,0,.7812,1.29c2.6143,2.9327.9532,7.5938-1.2627,10.6944-3.581,5.0117-10.1269,8.8388-17.4218,6.2051-3.71.3847-4.8223,4.0117-2.4248,5.7656,10.0273,4.2187,19.955-1.3633,24.9375-8.333C749.9488,407.39751,750.2046,399.90431,746.5474,395.73731Z"></path><path fill="#d0e3f6" d="M711.4722,381.50681a8.93406,8.93406,0,0,1-4.0361-6.9912V366.562c0-2.56979,1.8105-3.61519,4.0361-2.33009l13.9092,8.0303a8.93408,8.93408,0,0,1,4.0361,6.9907V387.207c0,2.56941-1.8105,3.61531-4.0361,2.33011Z" class="colord0d4f6 svgShape"></path><path fill="url(#ap)" d="M712.8169,379.17681a5.9714,5.9714,0,0,1-2.6904-4.6612V366.562a2.49281,2.49281,0,0,1,.2412-1.13569c-.9326-.04931-1.5859.65769-1.5859,1.9126V375.293a5.96672,5.96672,0,0,0,2.6904,4.66011l13.9092,8.0303c1.0859.6279,2.0254.415,2.4492-.417a2.49,2.49,0,0,1-1.1035-.35941Z"></path><path fill="url(#aq)" d="M728.0718,378.47661a5.9714,5.9714,0,0,0-2.6904-4.6612l-13.9092-8.0302a.7812.7812,0,1,0-1.3457.77679v7.95361a5.9714,5.9714,0,0,0,2.6904,4.6612l13.9102,8.03019a.78069.78069,0,1,0,1.3447-.77629Z"></path><path d="M711.4351,377.59571v-7.9541c0-1.2544.6543-1.9619,1.5869-1.91261a2.49419,2.49419,0,0,1,1.1035.35941l13.0068,7.5093a5.35749,5.35749,0,0,0-1.7509-1.7823l-13.9092-8.0302a.7812.7812,0,1,0-1.3457.77679v7.95361a5.88684,5.88684,0,0,0,1.3389,3.44239C711.4546,377.83691,711.4351,377.71391,711.4351,377.59571Z" style="mix-blend-mode:multiply" fill="url(#ar)"></path><polygon fill="#bdd0e4" points="708.438 364.077 708.438 364.077 708.442 364.074 708.438 364.077" class="colorbdc1e4 svgShape"></polygon><path fill="url(#as)" d="M737.23,365.42141l-13.9092-8.0308a2.71186,2.71186,0,0,0-3.0342-.1548h0l-11.4716,6.6231a2.95733,2.95733,0,0,1,2.6572.373l13.9092,8.0303a8.93408,8.93408,0,0,1,4.0361,6.9907V387.207a3.01839,3.01839,0,0,1-.9394,2.44141h0s11.6914-6.7158,11.8447-6.8379l.0049-.0029v-.001a3.01771,3.01771,0,0,0,.9384-2.4404v-7.9546A8.93318,8.93318,0,0,0,737.23,365.42141Z"></path><polygon points="716.647 374.14 714.517 372.91 714.517 371.875 716.647 373.105 716.647 374.14" style="mix-blend-mode:screen" fill="#78b5f3" class="colorf3b378 svgShape"></polygon><polygon points="725.027 378.978 722.897 377.748 722.897 376.712 725.027 377.942 725.027 378.978" style="mix-blend-mode:screen" fill="#78b5f3" class="colorf3b378 svgShape"></polygon><polygon points="721.214 380.111 717.486 377.958 717.486 376.922 721.214 379.075 721.214 380.111" style="mix-blend-mode:screen" fill="#78b5f3" class="colorf3b378 svgShape"></polygon></g><g data-name="Data pieces" fill="#010001" class="color000000 svgShape"><path d="M172.78269,598.668a24.15327,24.15327,0,0,0-12.47749-2.75979H148.10309v1.1494a18.70736,18.70736,0,0,0-3.7178,1.61039c-6.3887,3.71681-6.3516,9.73731.0771,13.45211a18.64814,18.64814,0,0,0,3.6407,1.5781v1.2022h13.6035a23.45325,23.45325,0,0,0,11.1533-2.77741C179.24859,608.40531,179.21729,602.38481,172.78269,598.668Z" style="mix-blend-mode:multiply" fill="url(#p)"></path><path fill="url(#t)" d="M137.3462,612.11231c-3.23731-1.8682-4.85451-4.32031-4.84761-6.7715l.01361-10.6269c-.00581,2.45109,1.61039,4.9033,4.84669,6.7744,6.4346,3.7138,16.8301,3.7138,23.2207.0029,3.1738-1.8486,4.7637-4.2617,4.7715-6.6807l-.0146,10.625c-.0069,2.419-1.5958,4.8321-4.7706,6.6797C154.17529,615.82911,143.77879,615.82911,137.3462,612.11231Z"></path><path fill="#867ff4" d="M137.35889,601.48831c-6.4326-3.7139-6.4668-9.7354-.0781-13.4492,6.3935-3.7149,16.792-3.7149,23.2226,0,6.4346,3.7138,6.4659,9.7353.0762,13.4521C154.189,605.20211,143.79349,605.20211,137.35889,601.48831Z" class="color7f7ff4 svgShape"></path><path d="M157.70659,598.73341a26.621,26.621,0,0,0,6.8184-.9865c1.8608-3.3033.529-7.0814-4.0216-9.7078-6.4306-3.7149-16.8291-3.7149-23.2226,0a13.44863,13.44863,0,0,0-1.6604,1.148c-.0036,2.4476,1.6097,4.8982,4.842,6.766a18.64814,18.64814,0,0,0,3.6407,1.5781v1.2022Z" style="mix-blend-mode:multiply" fill="url(#r)"></path><path fill="url(#s)" d="M133.3462,595.94531c-3.23731-1.8682-4.85451-4.32031-4.84761-6.7715l.01361-10.6269c-.00581,2.45109,1.61039,4.9033,4.84669,6.7744,6.4346,3.7139,16.8301,3.7139,23.2207.0029,3.1738-1.8486,4.7637-4.2617,4.7715-6.6806l-.0146,10.625c-.0069,2.4189-1.5958,4.832-4.7706,6.6796C150.17529,599.66211,139.77879,599.66211,133.3462,595.94531Z"></path><path fill="#5ca9f7" d="M133.35889,585.32131c-6.4326-3.7139-6.4668-9.7354-.0781-13.4492,6.3935-3.7149,16.792-3.7149,23.2226,0,6.4346,3.7138,6.4659,9.7353.0762,13.4521C150.189,589.03521,139.79349,589.03521,133.35889,585.32131Z" class="colorf7d25c svgShape"></path><path fill="#429af2" d="M148.227,581.42951a10.8821,10.8821,0,0,1-4.6617,1.5452,7.1568,7.1568,0,0,1-4.1774-.9445q-1.89015-1.09125-1.6439-2.3889.24615-1.2975,2.54921-2.6548l2.12839-1.2288a10.76752,10.76752,0,0,1,4.68161-1.5429,7.19877,7.19877,0,0,1,4.14959.9469q1.89015,1.09125,1.6479,2.3865t-2.5453,2.6525Zm.045-2.6761a4.08169,4.08169,0,0,0,1.70221-1.4367q.262-.60525-.57181-1.08671a2.785,2.785,0,0,0-1.8187-.33009,6.98775,6.98775,0,0,0-2.3613.891l-2.814,1.6247a4.32719,4.32719,0,0,0-1.7181,1.4366q-.30163.61905.548,1.1097a2.76573,2.76573,0,0,0,1.8743.3209,7.51142,7.51142,0,0,0,2.4089-.9415Z" class="colorf2bd42 svgShape"></path><path d="M752.3344,519.13091a24.15319,24.15319,0,0,0-12.4775-2.7598H727.6548v1.1494a18.7068,18.7068,0,0,0-3.7178,1.6104c-6.3887,3.7168-6.3516,9.7373.0771,13.45209a18.64756,18.64756,0,0,0,3.6407,1.57811v1.2022h13.6035a23.45337,23.45337,0,0,0,11.1533-2.7774C758.8003,528.86821,758.769,522.84771,752.3344,519.13091Z" style="mix-blend-mode:multiply" fill="url(#at)"></path><path fill="url(#au)" d="M716.8979,532.57521c-3.2373-1.86821-4.8545-4.3203-4.8476-6.7715l.0136-10.6269c-.0058,2.4511,1.6104,4.9033,4.8467,6.7744,6.4346,3.71379,16.8301,3.71379,23.2207.0029,3.1738-1.8486,4.7637-4.2617,4.7715-6.6807l-.0146,10.625c-.0069,2.419-1.5958,4.8321-4.7706,6.6797C733.727,536.292,723.3305,536.292,716.8979,532.57521Z"></path><path fill="#f2f4f7" d="M716.9106,521.95121c-6.4326-3.7139-6.4668-9.7354-.0781-13.44921,6.3935-3.71489,16.792-3.71489,23.2226,0,6.4346,3.71381,6.4659,9.73531.0762,13.45211C733.7407,525.665,723.3452,525.665,716.9106,521.95121Z" class="colorf2f2f7 svgShape"></path><path d="M737.2583,519.19631a26.6267,26.6267,0,0,0,6.8185-.9864c1.8607-3.3034.5289-7.0815-4.0217-9.70791-6.4306-3.71489-16.8291-3.71489-23.2226,0a13.44186,13.44186,0,0,0-1.6603,1.148c-.0037,2.44761,1.6096,4.89821,4.8419,6.766a18.64756,18.64756,0,0,0,3.6407,1.57811v1.2022Z" style="mix-blend-mode:multiply" fill="url(#av)"></path><path fill="url(#aw)" d="M712.8979,516.40821c-3.2373-1.86821-4.8545-4.3203-4.8476-6.7715l.0136-10.6269c-.0058,2.4511,1.6104,4.9033,4.8467,6.7744,6.4346,3.7139,16.8301,3.7139,23.2207.0029,3.1738-1.8486,4.7637-4.2617,4.7715-6.6806l-.0146,10.625c-.0069,2.4189-1.5958,4.832-4.7706,6.6796C729.727,520.125,719.3305,520.125,712.8979,516.40821Z"></path><path fill="#5ca9f7" d="M712.9106,505.78421c-6.4326-3.7139-6.4668-9.7354-.0781-13.44921,6.3935-3.71489,16.792-3.71489,23.2226,0,6.4346,3.71381,6.4659,9.73531.0762,13.45211C729.7407,509.49811,719.3452,509.49811,712.9106,505.78421Z" class="colorf7d25c svgShape"></path><path fill="#429af2" d="M719.8346,502.96121l-2.2951-1.3251,8.8589-5.1147-3.5857-1.0936,1.8504-1.0683,6.5043,1.77449.2462.14211Z" class="colorf2bd42 svgShape"></path><path d="M274.33648,588.16021a24.15379,24.15379,0,0,0-12.4776-2.7598h-12.2021v1.1494a18.7068,18.7068,0,0,0-3.7178,1.6104c-6.3887,3.71679-6.3516,9.7373.0771,13.4521a18.64875,18.64875,0,0,0,3.6407,1.5781v1.2022h13.6035a23.45325,23.45325,0,0,0,11.1533-2.7774C280.80228,597.89751,280.771,591.877,274.33648,588.16021Z" style="mix-blend-mode:multiply" fill="url(#ax)"></path><path fill="url(#ay)" d="M238.89988,601.60451c-3.2373-1.8682-4.8545-4.3203-4.8476-6.77151l.0136-10.62689c-.0058,2.4511,1.6104,4.9033,4.8467,6.7744,6.43462,3.7138,16.8301,3.7138,23.2207.0029,3.17392-1.8486,4.7637-4.2617,4.7715-6.6807l-.01458,10.625c-.00692,2.419-1.59572,4.8321-4.77052,6.6797C255.729,605.32131,245.33248,605.32131,238.89988,601.60451Z"></path><path fill="#f2f4f7" d="M238.91258,590.98051c-6.4326-3.7139-6.4668-9.7354-.0781-13.4493,6.3936-3.7148,16.792-3.7148,23.22272,0,6.43448,3.7139,6.46578,9.7354.07608,13.4522C255.74268,594.69431,245.3472,594.69431,238.91258,590.98051Z" class="colorf2f2f7 svgShape"></path><path fill="#d3e2f2" d="M246.33838,588.08821l-2.29518-1.3251,8.859-5.1147-3.58572-1.0936,1.8504-1.0683,6.50432,1.7744.24618.1422Z" class="colord3d8f2 svgShape"></path><path d="M660.0972,548.04691a24.15337,24.15337,0,0,0-12.47753-2.7598h-12.2022v1.1494a18.7068,18.7068,0,0,0-3.7178,1.6104c-6.3886,3.7168-6.35147,9.7373.0772,13.45209a18.64665,18.64665,0,0,0,3.6406,1.57811v1.2022H649.021a23.45377,23.45377,0,0,0,11.1533-2.77731C666.563,557.78421,666.53177,551.76371,660.0972,548.04691Z" style="mix-blend-mode:multiply" fill="url(#az)"></path><path fill="url(#aA)" d="M624.66067,561.49121c-3.2373-1.86821-4.85447-4.3203-4.8477-6.7715l.0137-10.6269c-.0059,2.4511,1.6103,4.9033,4.8467,6.7744,6.4345,3.7139,16.83,3.7139,23.2207.0029,3.1738-1.8486,4.7636-4.2617,4.7715-6.6806l-.0147,10.625c-.0068,2.4189-1.59567,4.832-4.7705,6.6796C641.48977,565.208,631.09327,565.208,624.66067,561.49121Z"></path><path fill="#f2f4f7" d="M624.67337,550.86721c-6.4327-3.7139-6.4668-9.7354-.07817-13.44921,6.39357-3.71489,16.792-3.71489,23.22267,0,6.4346,3.71381,6.4658,9.73531.0762,13.45211C641.50337,554.58111,631.10787,554.58111,624.67337,550.86721Z" class="colorf2f2f7 svgShape"></path><path fill="#d3e2f2" d="M639.48407,546.92581a10.88213,10.88213,0,0,1-4.6617,1.54519,7.15679,7.15679,0,0,1-4.1774-.94449q-1.89015-1.09127-1.6439-2.3889t2.5492-2.6548l2.1284-1.22881a10.76763,10.76763,0,0,1,4.6816-1.54289,7.19807,7.19807,0,0,1,4.1496.94689q1.89015,1.09126,1.6479,2.38651-.24225,1.2954-2.5453,2.65249Zm.045-2.6762a4.08055,4.08055,0,0,0,1.7022-1.43661q.26205-.60524-.5718-1.08669a2.7849,2.7849,0,0,0-1.8187-.3301,6.98775,6.98775,0,0,0-2.3613.891l-2.814,1.6247a4.32719,4.32719,0,0,0-1.7181,1.4366q-.30165.61905.548,1.1096a2.76519,2.76519,0,0,0,1.8743.321,7.5115,7.5115,0,0,0,2.4089-.9415Z" class="colord3d8f2 svgShape"></path><path d="M467.86568,551.584a24.14725,24.14725,0,0,0-12.47648-2.75979H443.18608v1.1494a18.673,18.673,0,0,0-3.7168,1.61039c-6.3887,3.71681-6.3516,9.73731.0761,13.45211a18.70708,18.70708,0,0,0,3.6407,1.5782v1.2021h13.6035a23.46149,23.46149,0,0,0,11.1543-2.7773C474.33248,561.32131,474.30128,555.30081,467.86568,551.584Z" style="mix-blend-mode:multiply" fill="url(#aB)"></path><path fill="url(#aC)" d="M432.4302,565.02831c-3.23832-1.8681-4.85552-4.32031-4.84772-6.7715l.01372-10.6269c-.00582,2.4512,1.60938,4.9033,4.84568,6.7744,6.4356,3.7139,16.8301,3.7139,23.2207.0029,3.1739-1.8486,4.7637-4.2617,4.7715-6.6806l-.0137,10.625c-.0078,2.4189-1.5957,4.832-4.7714,6.6796C449.25828,568.74511,438.86178,568.74511,432.4302,565.02831Z"></path><path fill="#ffffff" d="M432.44188,554.40431c-6.4316-3.7139-6.4668-9.7354-.0781-13.4492,6.3945-3.7149,16.793-3.7149,23.2227,0,6.4355,3.7138,6.46672,9.7353.0761,13.4521C449.272,558.11821,438.87748,558.11821,432.44188,554.40431Z" class="colorffffff svgShape"></path><path fill="url(#aD)" d="M440.9302,552.77831c-3.23832-1.8681-4.85552-4.32031-4.84772-6.7715l.01372-10.6269c-.00582,2.4512,1.60938,4.9033,4.84568,6.7744,6.4356,3.7139,16.8301,3.7139,23.2207.0029,3.1739-1.8486,4.7637-4.2617,4.7715-6.6806l-.0137,10.625c-.0078,2.4189-1.5957,4.832-4.7714,6.6796C457.75828,556.49511,447.36178,556.49511,440.9302,552.77831Z"></path><path fill="#867ff4" d="M440.94188,542.15431c-6.4316-3.7139-6.4668-9.7354-.0781-13.4492,6.3945-3.7149,16.793-3.7149,23.2227,0,6.4355,3.7138,6.46672,9.7353.0761,13.4521C457.772,545.86821,447.37748,545.86821,440.94188,542.15431Z" class="color7f7ff4 svgShape"></path><path fill="#726ae2" d="M455.41988,538.26261a10.8823,10.8823,0,0,1-4.6618,1.5451,7.15652,7.15652,0,0,1-4.1773-.9445q-1.89015-1.09125-1.644-2.3889.2463-1.2975,2.5493-2.6548l2.1284-1.2288a10.76711,10.76711,0,0,1,4.6816-1.5429,7.19827,7.19827,0,0,1,4.1495.9469q1.89015,1.09125,1.648,2.3865t-2.5453,2.6525Zm.045-2.6762a4.08039,4.08039,0,0,0,1.7021-1.4367q.2622-.60525-.57178-1.08671a2.78465,2.78465,0,0,0-1.81862-.33009,6.987,6.987,0,0,0-2.3613.891l-2.814,1.6247a4.32541,4.32541,0,0,0-1.71808,1.4366q-.30183.619.548,1.1097a2.76549,2.76549,0,0,0,1.87418.3209,7.51279,7.51279,0,0,0,2.409-.9415Z" class="color6a6ae2 svgShape"></path></g><g fill="#010001" class="color000000 svgShape"><polygon fill="#5ca9f7" points="724.055 347.694 734.366 353.647 724.055 359.599 713.747 353.647 724.055 347.694" class="colorf7d25c svgShape"></polygon><polygon fill="#429af2" points="724.055 359.599 724.055 365.127 713.747 353.647 724.055 359.599" class="colorf2bd42 svgShape"></polygon><polygon fill="#d62db7" points="724.055 365.127 734.366 353.647 724.055 359.599 724.055 365.127" class="colord6952d svgShape"></polygon><polygon points="724.055 365.127 732.395 362.63 736.72 365.127 724.055 365.127" style="mix-blend-mode:multiply" fill="url(#aE)"></polygon></g><g data-name="Front block" fill="#010001" class="color000000 svgShape"><polygon fill="url(#aF)" points="430.487 639.232 364.222 677.49 364.222 760 430.487 760 430.487 639.232"></polygon><polygon fill="#f2f5f9" points="364.222 677.49 297.96 639.232 364.222 600.978 430.487 639.232 364.222 677.49" class="colorf2f4f9 svgShape"></polygon><polygon fill="url(#aG)" points="364.222 677.49 297.96 639.232 297.96 760 364.222 760 364.222 677.49"></polygon></g><g data-name="Data pieces with &amp;quot;v&amp;quot;" fill="#010001" class="color000000 svgShape"><path d="M563.77488,273.46242a23.53786,23.53786,0,0,0-12.1582-2.6895h-8.1426v1.1216a18.148,18.148,0,0,0-3.622,1.5679c-6.2246,3.62058-6.1885,9.4873.07612,13.1064a18.254,18.254,0,0,0,3.54588,1.5386v1.1704h9.5079a22.834,22.834,0,0,0,10.8671-2.7075C570.07378,282.94972,570.04348,277.083,563.77488,273.46242Z" style="mix-blend-mode:multiply" fill="url(#aH)"></path><path fill="url(#v)" d="M532.87748,279.86132c-3.15528-1.8222-4.7295-4.2114-4.7246-6.5981l.0146-3.3579c-.0068,2.3891,1.5684,4.7768,4.72172,6.6006,6.26948,3.6162,16.39738,3.6162,22.625,0,3.09278-1.79792,4.63958-4.1504,4.64838-6.5064l-.0136,3.35548c-.0069,2.35642-1.5547,4.70752-4.6485,6.50682C549.274,283.48242,539.146,283.48242,532.87748,279.86132Z"></path><path fill="url(#aI)" d="M532.87748,283.21632c-3.15528-1.82132-4.7295-4.2114-4.7246-6.5981l.0146-3.3579c-.0068,2.3896,1.5684,4.7768,4.72172,6.601,6.26948,3.6158,16.39738,3.6158,22.625,0,3.09278-1.7978,4.63958-4.1509,4.64838-6.50632l-.0136,3.355c-.0069,2.35642-1.5547,4.70752-4.6485,6.50782C549.274,286.83792,539.146,286.83792,532.87748,283.21632Z"></path><path fill="url(#aJ)" d="M532.87748,286.57132c-3.15528-1.8208-4.7295-4.2114-4.7246-6.5982l.0146-3.3579c-.0068,2.3897,1.5684,4.7784,4.72172,6.6011,6.26948,3.61668,16.39738,3.61668,22.625,0,3.09278-1.7978,4.63958-4.1499,4.64838-6.50632l-.0136,3.35492c-.0069,2.3575-1.5547,4.7085-4.6485,6.5083C549.274,290.19382,539.146,290.19382,532.87748,286.57132Z"></path><path fill="#f7f9fc" d="M532.8892,276.50592c-6.26562-3.6187-6.30182-9.4883-.07522-13.104,6.2285-3.6192,16.3584-3.6192,22.625,0,6.2695,3.6157,6.3008,9.4853.07522,13.104C549.28658,280.12212,539.15868,280.12212,532.8892,276.50592Z" class="colorf7f7fc svgShape"></path><polygon fill="#bfcedd" points="552.549 269.583 541.019 270.169 541.376 267.577 538.191 267.577 537.327 272.301 552.549 271.422 552.549 269.583" class="colorbfc3dd svgShape"></polygon></g><g data-name="Horizontal pie chart" fill="#010001" class="color000000 svgShape"><path fill="#dce6f1" d="M407.40478,424.24411l4.127,2.38189c6.2793-3.626,16.4609-3.626,22.7402,0,6.2803,3.626,6.2803,9.50491,0,13.12991-6.2793,3.6259-16.4609,3.6259-22.7402,0l-4.127,2.3828c8.5586,4.9404,22.4346,4.9414,30.9942,0,8.5585-4.9414,8.5585-12.9532,0-17.8946C429.83938,419.30271,415.96338,419.30271,407.40478,424.24411Z" class="colordce0f1 svgShape"></path><path fill="#c6d4e3" d="M411.53178,426.626l-4.127-2.38189c-8.55858,4.9414-8.55858,12.9532,0,17.8946l4.127-2.3828C405.25048,436.13091,405.25048,430.252,411.53178,426.626Z" class="colorc6cae3 svgShape"></path><path fill="#a5b9ce" d="M416.95168,436.06541a5.94582,5.94582,0,0,1-2.7529-.7998q-1.27737-.73965-1.3819-1.5908c-.0703-.5674.2686-1.0654,1.0117-1.4951a4.74808,4.74808,0,0,1,2.5889-.5928,5.83886,5.83886,0,0,1,2.7686.7979q1.2963.7485,1.3847,1.5986.0909.8511-1.0283,1.4951A4.69727,4.69727,0,0,1,416.95168,436.06541Zm2.02052-2.0078a2.03269,2.03269,0,0,0-1.00782-.9658,4.11527,4.11527,0,0,0-1.6738-.5811,2.31146,2.31146,0,0,0-1.4219.2705q-.58.33405-.4453.8174c.08882.3203.415.6416.9824.9698a4.09136,4.09136,0,0,0,1.6807.5673,2.329,2.329,0,0,0,1.415-.25871C418.90768,434.64261,419.06588,434.37011,418.9722,434.05761Zm1.21188-5.4277,1.459-.8418,3.3017,10.1221-1.457.8437Zm8.5117,6.3232a5.889,5.889,0,0,1-2.7529-.7978q-1.2774-.7383-1.3828-1.5908-.10545-.84676,1.0117-1.4942a4.7087,4.7087,0,0,1,2.5967-.5869,5.88725,5.88725,0,0,1,2.76172.793c.85348.4912,1.31448,1.0263,1.37788,1.5947.0625.5693-.2763,1.0703-1.0215,1.501A4.6807,4.6807,0,0,1,428.69578,434.95311Zm2.0039-2.0039a1.977,1.977,0,0,0-.9902-.9678,4.152,4.152,0,0,0-1.6748-.5703,2.33105,2.33105,0,0,0-1.4229.2598q-.59175.34575-.4609.8174.1347.4731.9981.9726a4.22821,4.22821,0,0,0,1.6806.5762,2.33055,2.33055,0,0,0,1.4151-.2676C430.64308,433.541,430.79348,433.26561,430.69968,432.94921Z" class="colora5aace svgShape"></path></g><g data-name="Front window" fill="#010001" class="color000000 svgShape"><path fill="#f2f4f7" d="M580.15088,380.47751c0,1.7881,1.26559,2.5181,2.81349,1.6246l77.6094-44.8072a6.24492,6.24492,0,0,0,2.81443-4.875V267.43072c0-1.7876-1.26663-2.5186-2.81443-1.625l-77.6094,44.80809a6.242,6.242,0,0,0-2.81349,4.8745Z" class="colorf2f2f7 svgShape"></path><path fill="#d0e3f6" d="M581.08737,382.34771l-.0029.0029-.0381-.0225Z" class="colord0d4f6 svgShape"></path><path fill="url(#aK)" d="M580.61967,309.25981l77.6093-44.80769a1.98122,1.98122,0,0,1,1.9727-.20012l.001-.00048.0048.0034.0176.0093,2.3223,1.3413-.001.00048a1.9818,1.9818,0,0,0-1.9726.19972l-77.6094,44.80809a6.242,6.242,0,0,0-2.81349,4.8745V380.478a2.01361,2.01361,0,0,0,.76269,1.77441l-2.17379-1.2563.0019-.0029a1.90328,1.90328,0,0,1-.93648-1.86921V314.13431A6.243,6.243,0,0,1,580.61967,309.25981Z"></path><polygon fill="#867ff4" points="640.529 290.196 657.414 280.448 657.414 277.345 640.529 287.094 640.529 290.196" class="color7f7ff4 svgShape"></polygon><polygon fill="#4841aa" points="583.356 366.345 607.767 352.252 607.767 350.7 583.356 364.794 583.356 366.345" class="color4141aa svgShape"></polygon><polygon fill="#4841aa" points="583.356 370.312 595.891 363.075 595.891 361.523 583.356 368.76 583.356 370.312" class="color4141aa svgShape"></polygon><polygon fill="#4841aa" points="597.542 362.121 600.792 360.245 600.792 358.694 597.542 360.57 597.542 362.121" class="color4141aa svgShape"></polygon><path fill="#4841aa" d="M583.356,332.01661l57.32423-33.09569v-1.5513L583.356,330.46531Zm61.19923-36.88429v1.5513l7.25487-4.1885v-1.5513Z" class="color4141aa svgShape"></path><polygon fill="#d0e3f6" points="613.873 339.856 621.77 319.5 629.667 330.736 613.873 339.856" class="colord0d4f6 svgShape"></polygon></g><g data-name="Location mark" fill="#010001" class="color000000 svgShape"><path fill="#867ff4" d="M126.35839,360.72361c-6.4678-11.2007-16.9526-17.2608-23.4228-13.5244-6.4698,3.7324-6.4698,15.8427,0,27.0449l11.7114,20.2832,11.7114-6.7598C132.8262,384.03561,132.82329,371.92671,126.35839,360.72361Zm-11.7104,15.7842a17.27178,17.27178,0,0,1-7.813-13.5333c0-4.9853,3.4975-7.0039,7.813-4.5131a17.26986,17.26986,0,0,1,7.811,13.5351C122.459,376.97751,118.96239,378.998,114.648,376.50781Z" class="color7f7ff4 svgShape"></path></g><g fill="#010001" class="color000000 svgShape"><path d="M719.8042,620.44531a9.82588,9.82588,0,0,0-1.0088-1.418c-1.3711-1.36231,1.7891-3.6406,3.2149-4.4638.0273,0-4.1563-2.416-4.1563-2.416l-12.2978.0117a5.55105,5.55105,0,0,1-1.0342-3.2119l-5.90143-.002a4.87917,4.87917,0,0,1-2.02237,4.0518,3.32406,3.32406,0,0,1-1.19243.4091c-.835.1631-1.6582.3594-2.4541.5899a.40271.40271,0,0,1-.10447-.0176q-1.1969-.34427-2.44823-.5889c-2.63477-.3964-3.17577-3.2978-3.17-4.4599l-5.9013-.001a4.88435,4.88435,0,0,1-2.02247,4.0527,3.35971,3.35971,0,0,1-1.19243.4073c-.8349.164-1.6572.35929-2.4541.5898-2.7178.585-6.2754-1.0244-7.6933-1.8476l-4.1856,2.416c1.418.8232,4.5508,3.1015,3.1641,4.4609a9.53164,9.53164,0,0,0-1.0215,1.4209,1.66174,1.66174,0,0,1-.7109.6895c-1.628.9394-5.3418,1.1601-7.0088,1.1601l-.0108,3.417c2.0069-.001,7.0147.3213,7.6895,1.8486a9.28233,9.28233,0,0,0,1.00783,1.4209c1.37207,1.3594-1.78913,3.6377-3.21493,4.462l4.1573,2.4169c.1455-.0839.3232-.1796.51663-.2812l-.48643.2812,12.2891.0127a5.55291,5.55291,0,0,1,1.0078,3.1895l23.18953.0176,5.7793-3.211,7.5918.0069,4.1865-2.4151c-1.4209-.8242-4.5527-3.1035-3.167-4.4619a10.21246,10.21246,0,0,0,.6562-.85941l3.8907.00491,4.1836-2.416.0234-3.415C725.3404,622.38091,720.479,621.97361,719.8042,620.44531Z" style="mix-blend-mode:multiply" fill="url(#aL)"></path><path fill="#f7f9fc" d="M667.29057,608.25591c-.003-1.3262-2.3409-2.9971-3.5108-3.6768l.0283,9.9678c1.169.6787,3.5088,2.3486,3.5108,3.6758Z" class="colorf7f7fc svgShape"></path><path fill="#bdd0e4" d="M704.7466,614.54691l-.0283-9.9678c-1.1826.6816-3.5576,2.3662-3.5527,3.6953l.0273,9.9678C701.19,616.91211,703.564,615.22951,704.7466,614.54691Z" class="colorbdc1e4 svgShape"></path><path fill="url(#aM)" d="M676.856,619.708a16.27983,16.27983,0,0,1,14.78423-.001c2.02237,1.17481,3.03407,2.71191,3.04,4.253l-.02933-9.96779c-.0059-1.5391-1.0176-3.0781-3.0391-4.2529a16.288,16.288,0,0,0-14.7841,0c-2.0596,1.1894-3.0879,2.7509-3.083,4.3086l.0273,9.9677C673.76907,622.457,674.79737,620.89651,676.856,619.708Z"></path><polygon fill="#d0e3f6" points="667.832 625.876 663.674 623.46 663.704 633.427 667.862 635.844 667.832 625.876" class="colord0d4f6 svgShape"></polygon><polygon fill="#bdd0e4" points="704.641 633.427 704.614 623.46 700.426 625.876 700.456 635.844 704.641 633.427" class="colorbdc1e4 svgShape"></polygon><path fill="url(#aN)" d="M675.57467,633.99511c.795.2295,1.6133.4258,2.4483.58789,2.6006.39061,3.1611,3.22561,3.165,4.417l-.0283-9.96679c-.0049-1.1924-.5654-4.0254-3.165-4.417-.834-.1621-1.6543-.3584-2.4483-.5879-2.3447-.7978-6.2881,1.0225-7.7148,1.84769l.0302,9.96771C669.28657,635.01861,673.231,633.19631,675.57467,633.99511Z"></path><path fill="url(#aO)" d="M689.12157,634.98731a3.34177,3.34177,0,0,1,1.1865-.40331c.836-.16409,1.6485-.35839,2.4492-.58689,2.3565-.8008,6.2803,1.0215,7.69833,1.8466l-.0293-9.96771c-1.416-.82419-5.33983-2.64549-7.69633-1.84569-.80177.2275-1.6143.4238-2.4502.5859a3.37606,3.37606,0,0,0-1.1865.4043c-1.6065.9277-1.9463,3.0469-2.03807,4.0576l.02927,9.9668C687.17627,638.03521,687.5152,635.915,689.12157,634.98731Z"></path><path fill="#f2f4f7" d="M666.8892,618.99711c1.37207,1.3593-1.78913,3.6386-3.21493,4.46289l4.1573,2.416c1.4267-.82519,5.3701-2.64549,7.7148-1.84769.794.2295,1.6143.4258,2.4483.5879,2.6328.3945,3.1738,3.2979,3.164,4.4619h5.89653c.09177-1.0107.43157-3.1299,2.03807-4.0576a3.37606,3.37606,0,0,1,1.1865-.4043c.8359-.1621,1.64843-.3584,2.4502-.5859,2.3565-.7998,6.2803,1.0215,7.69633,1.84569l4.1875-2.416c-1.4199-.82329-4.5547-3.10359-3.168-4.46289a9.86149,9.86149,0,0,0,1.0254-1.42,1.63352,1.63352,0,0,1,.711-.6884c1.625-.9414,5.3398-1.1612,6.998-1.1602l.0195-3.416c-2.1543.084-7.0146-.3232-7.6894-1.85251a9.67527,9.67527,0,0,0-1.0078-1.418c-1.3711-1.36129,1.789-3.63969,3.2158-4.46289l-4.1582-2.416c-1.42683.8232-5.37213,2.6465-7.7129,1.8476q-1.1969-.34275-2.44823-.5878c-2.63477-.3975-3.17577-3.29891-3.17-4.46l-5.9013-.00291c-.001.96291-.3936,3.11421-2.02247,4.05371a3.36247,3.36247,0,0,1-1.19243.4082c-.8349.16309-1.6572.3584-2.4541.5888-2.7178.586-6.2754-1.0244-7.6933-1.8476l-4.1856,2.416c1.418.8232,4.5508,3.1025,3.1641,4.46089a9.59092,9.59092,0,0,0-1.0215,1.42191,1.66732,1.66732,0,0,1-.7109.6895c-1.628.9384-5.3418,1.1601-7.0088,1.1601l-.0108,3.417c2.0069-.001,7.0147.3213,7.6895,1.8486A9.32937,9.32937,0,0,0,666.8892,618.99711Zm9.93847-9.2578a16.288,16.288,0,0,1,14.7841,0c4.06843,2.3652,4.0508,6.1982-.0478,8.5644a16.28973,16.28973,0,0,1-14.7803-.0019C672.71237,615.93461,672.73487,612.10451,676.82767,609.73931Z" class="colorf2f2f7 svgShape"></path><path fill="#d0e3f6" d="M663.67427,623.46c1.4258-.82429,4.587-3.10359,3.21493-4.46289a9.32937,9.32937,0,0,1-1.00783-1.42c-.6748-1.5273-5.6826-1.8496-7.6895-1.8486l.02833,9.9658a25.04676,25.04676,0,0,1,5.461.5869Z" class="colord0d4f6 svgShape"></path><polygon fill="#bdd0e4" points="687.084 639.045 687.055 629.078 681.159 629.078 681.188 639.046 687.084 639.045" class="colorbdc1e4 svgShape"></polygon><path fill="url(#aP)" d="M710.2085,625.69431l-.0283-9.9658c-1.6582-.001-5.373.2188-6.998,1.1602a1.63352,1.63352,0,0,0-.711.6884,9.86149,9.86149,0,0,1-1.0254,1.42c-1.3867,1.3593,1.7481,3.6396,3.168,4.46289l.0078,2.86321A24.5966,24.5966,0,0,1,710.2085,625.69431Z"></path></g></g></g></svg>