<svg xmlns="http://www.w3.org/2000/svg" xmlns:xlink="http://www.w3.org/1999/xlink" viewBox="0 0 850 700" id="Learningforeignlanguage"><defs><linearGradient id="A" x1="112.72" x2="112.72" y1="657.69" y2="485.92" gradientUnits="userSpaceOnUse"><stop offset=".11"></stop><stop offset=".17" stop-color="#2c2c2c" class="stopColor2c2c2c svgShape"></stop><stop offset=".38" stop-color="#c2c2c2" class="stopColorc2c2c2 svgShape"></stop><stop offset=".48" stop-color="#ffffff" class="stopColorffffff svgShape"></stop></linearGradient><linearGradient id="B" x1="723.85" x2="723.85" y1="251.13" y2="42.31" gradientUnits="userSpaceOnUse"><stop offset=".11"></stop><stop offset=".14" stop-color="#130f13" class="stopColor0f1013 svgShape"></stop><stop offset=".38" stop-color="#8c8aa9" class="stopColor8a8da9 svgShape"></stop><stop offset=".48" stop-color="#bbd0e6" class="stopColorbbc0e6 svgShape"></stop></linearGradient><linearGradient id="a" x1="431.83" x2="566.47" y1="454.32" y2="454.32" gradientUnits="userSpaceOnUse"><stop offset="0" stop-color="#c6d6e7" class="stopColorc6cbe7 svgShape"></stop><stop offset=".6" stop-color="#ebf1f7" class="stopColorebedf7 svgShape"></stop><stop offset="1" stop-color="#ffffff" class="stopColorffffff svgShape"></stop></linearGradient><linearGradient id="C" x1="431.82" x2="566.47" y1="245.66" y2="245.66" xlink:href="#a"></linearGradient><linearGradient id="e" x1="348.05" x2="515.6" y1="244.61" y2="244.61" gradientUnits="userSpaceOnUse"><stop offset=".43" stop-color="#cce1f6" class="stopColorccd1f6 svgShape"></stop><stop offset=".58" stop-color="#b9cee4" class="stopColorb9bee4 svgShape"></stop></linearGradient><linearGradient id="b" x1="379.76" x2="395.18" y1="267.87" y2="241.17" gradientUnits="userSpaceOnUse"><stop offset=".01" stop-color="#6db6ff" class="stopColorffaf6d svgShape"></stop><stop offset="1" stop-color="#e539c6" class="stopColore57139 svgShape"></stop></linearGradient><linearGradient id="D" x1="-2102.89" x2="-2087.47" y1="267.87" y2="241.17" gradientTransform="matrix(-1 0 0 1 -1619 0)" xlink:href="#b"></linearGradient><linearGradient id="f" x1="313.59" x2="313.66" y1="385.46" y2="385.46" gradientUnits="userSpaceOnUse"><stop offset="0" stop-color="#cfe0f1" class="stopColorcfd5f1 svgShape"></stop><stop offset="1" stop-color="#eff1f3" class="stopColorefeff3 svgShape"></stop></linearGradient><linearGradient id="g" x1="320.52" x2="415.18" y1="313.16" y2="313.16" gradientUnits="userSpaceOnUse"><stop offset=".01" stop-color="#dae7f5" class="stopColordae0f5 svgShape"></stop><stop offset=".2" stop-color="#e0ebf6" class="stopColore0e5f6 svgShape"></stop><stop offset="1" stop-color="#f6f8fb" class="stopColorf6f6fb svgShape"></stop></linearGradient><linearGradient id="c" x1="318.64" x2="410.88" y1="309.98" y2="309.98" gradientUnits="userSpaceOnUse"><stop offset=".4" stop-color="#cee3f8" class="stopColorced3f8 svgShape"></stop><stop offset=".59" stop-color="#c7dcf2" class="stopColorc7ccf2 svgShape"></stop><stop offset=".78" stop-color="#bbd0e6" class="stopColorbbc0e6 svgShape"></stop></linearGradient><linearGradient id="E" x1="-272.36" x2="-180.12" y1="309.98" y2="309.98" gradientTransform="matrix(-1 0 0 1 272.65 0)" xlink:href="#c"></linearGradient><linearGradient id="j" x1="452.77" x2="467.35" y1="287.5" y2="287.5" gradientUnits="userSpaceOnUse"><stop offset=".01" stop-color="#dae7f5" class="stopColordae0f5 svgShape"></stop><stop offset=".55" stop-color="#e5edf5" class="stopColore5e8f5 svgShape"></stop><stop offset="1" stop-color="#f1f3f6" class="stopColorf1f1f6 svgShape"></stop></linearGradient><linearGradient id="k" x1="452.77" x2="548.73" y1="263.42" y2="263.42" gradientUnits="userSpaceOnUse"><stop offset="0" stop-color="#dfe9f4" class="stopColordfe4f4 svgShape"></stop><stop offset=".2" stop-color="#e9f0f7" class="stopColore9ecf7 svgShape"></stop><stop offset=".65" stop-color="#f9fbfd" class="stopColorf9fafd svgShape"></stop><stop offset="1" stop-color="#ffffff" class="stopColorffffff svgShape"></stop></linearGradient><linearGradient id="h" x1="326.09" x2="387.23" y1="287.97" y2="287.97" gradientUnits="userSpaceOnUse"><stop offset="0" stop-color="#c4d6e9" class="stopColorc4cae9 svgShape"></stop><stop offset=".44" stop-color="#e4ecf5" class="stopColore4e7f5 svgShape"></stop><stop offset=".85" stop-color="#ffffff" class="stopColorffffff svgShape"></stop></linearGradient><linearGradient id="d" x1="-1934.67" x2="-1928.88" y1="-729.53" y2="-729.53" gradientTransform="rotate(120 -1085.605 418.045)" gradientUnits="userSpaceOnUse"><stop offset="0" stop-color="#ffffff" class="stopColorffffff svgShape"></stop><stop offset="1" stop-color="#cee3f8" class="stopColorced3f8 svgShape"></stop></linearGradient><linearGradient id="F" x1="-1941.42" x2="-1935.63" y1="-733.43" y2="-733.43" xlink:href="#d"></linearGradient><linearGradient id="G" x1="384.45" x2="406.56" y1="273.2" y2="273.2" gradientUnits="userSpaceOnUse"><stop offset="0" stop-color="#dae7f5" class="stopColordae0f5 svgShape"></stop><stop offset=".45" stop-color="#e8f0f9" class="stopColore8ecf9 svgShape"></stop><stop offset="1" stop-color="#ffffff" class="stopColorffffff svgShape"></stop></linearGradient><linearGradient id="l" x1="488.08" x2="544.6" y1="286.53" y2="286.53" gradientUnits="userSpaceOnUse"><stop offset=".37" stop-color="#c4d6e8" class="stopColorc4cae8 svgShape"></stop><stop offset=".52" stop-color="#cddcec" class="stopColorcdd2ec svgShape"></stop><stop offset=".78" stop-color="#e5edf5" class="stopColore5e8f5 svgShape"></stop><stop offset="1" stop-color="#ffffff" class="stopColorffffff svgShape"></stop></linearGradient><linearGradient id="m" x1="483.14" x2="533.85" y1="290.68" y2="290.68" gradientUnits="userSpaceOnUse"><stop offset=".43" stop-color="#cee3f8" class="stopColorced3f8 svgShape"></stop><stop offset=".54" stop-color="#b5c9dd" class="stopColorb5badd svgShape"></stop><stop offset=".63" stop-color="#a5b8cc" class="stopColora5abcc svgShape"></stop></linearGradient><linearGradient id="H" x1="612.53" x2="747.18" y1="349.98" y2="349.98" xlink:href="#a"></linearGradient><linearGradient id="I" x1="528.75" x2="696.31" y1="348.94" y2="348.94" xlink:href="#e"></linearGradient><linearGradient id="J" x1="560.47" x2="575.89" y1="372.2" y2="345.49" xlink:href="#b"></linearGradient><linearGradient id="K" x1="494.29" x2="494.37" y1="489.78" y2="489.78" xlink:href="#f"></linearGradient><linearGradient id="L" x1="501.23" x2="595.89" y1="417.49" y2="417.49" xlink:href="#g"></linearGradient><linearGradient id="M" x1="499.35" x2="591.58" y1="414.3" y2="414.3" xlink:href="#c"></linearGradient><linearGradient id="N" x1="550.53" x2="582.18" y1="386.48" y2="386.48" xlink:href="#h"></linearGradient><linearGradient id="O" x1="515.27" x2="531.67" y1="399.46" y2="399.46" xlink:href="#h"></linearGradient><linearGradient id="P" x1="505.59" x2="513.75" y1="389.76" y2="389.76" gradientUnits="userSpaceOnUse"><stop offset="0" stop-color="#342e94" class="stopColor362e94 svgShape"></stop><stop offset=".19" stop-color="#413aa7" class="stopColor413aa7 svgShape"></stop><stop offset=".47" stop-color="#4e47bc" class="stopColor4d47bc svgShape"></stop><stop offset=".74" stop-color="#574fc8" class="stopColor544fc8 svgShape"></stop><stop offset="1" stop-color="#5a52cc" class="stopColor5652cc svgShape"></stop></linearGradient><linearGradient id="Q" x1="499.54" x2="523.98" y1="396.43" y2="396.43" gradientUnits="userSpaceOnUse"><stop offset="0" stop-color="#5a52cc" class="stopColor5652cc svgShape"></stop><stop offset=".26" stop-color="#574fc8" class="stopColor544fc8 svgShape"></stop><stop offset=".53" stop-color="#4e47bc" class="stopColor4d47bc svgShape"></stop><stop offset=".81" stop-color="#413aa7" class="stopColor413aa7 svgShape"></stop><stop offset="1" stop-color="#342e94" class="stopColor362e94 svgShape"></stop></linearGradient><linearGradient id="R" x1="248.77" x2="383.42" y1="349.88" y2="349.88" xlink:href="#a"></linearGradient><linearGradient id="S" x1="167.34" x2="334.9" y1="348.94" y2="348.94" xlink:href="#e"></linearGradient><linearGradient id="T" x1="-1922.18" x2="-1906.77" y1="372.2" y2="345.5" gradientTransform="matrix(-1 0 0 1 -1619 0)" xlink:href="#b"></linearGradient><linearGradient id="V" x1="139.53" x2="139.59" y1="596.27" y2="596.27" xlink:href="#f"></linearGradient><linearGradient id="i" x1="50.46" x2="174.99" y1="589.78" y2="589.78" gradientUnits="userSpaceOnUse"><stop offset=".42" stop-color="#e8eff7" class="stopColore8ecf7 svgShape"></stop><stop offset=".56" stop-color="#dae7f5" class="stopColordae0f5 svgShape"></stop></linearGradient><linearGradient id="X" x1="756.43" x2="756.51" y1="176.47" y2="176.47" xlink:href="#f"></linearGradient><linearGradient id="Y" x1="648.15" x2="799.54" y1="168.58" y2="168.58" xlink:href="#i"></linearGradient><linearGradient id="Z" x1="-91.65" x2=".58" y1="414.31" y2="414.31" gradientTransform="matrix(-1 0 0 1 272.65 0)" xlink:href="#c"></linearGradient><linearGradient id="aa" x1="272.07" x2="286.65" y1="391.83" y2="391.83" xlink:href="#j"></linearGradient><linearGradient id="ab" x1="272.07" x2="368.03" y1="367.75" y2="367.75" xlink:href="#k"></linearGradient><linearGradient id="ac" x1="147.22" x2="164.97" y1="386.49" y2="386.49" gradientTransform="translate(149.99)" gradientUnits="userSpaceOnUse"><stop offset="0" stop-color="#d1e2f3" class="stopColord1d7f3 svgShape"></stop><stop offset="1" stop-color="#ffffff" class="stopColorffffff svgShape"></stop></linearGradient><linearGradient id="ad" x1="-2456.58" x2="-2451.91" y1="383.52" y2="375.43" gradientTransform="matrix(-1 0 0 1 -2152.66 0)" gradientUnits="userSpaceOnUse"><stop offset="0" stop-color="#f6f8fb" class="stopColorf6f6fb svgShape"></stop><stop offset=".54" stop-color="#bbd0e6" class="stopColorbbc0e6 svgShape"></stop></linearGradient><linearGradient id="ae" x1="-2462.25" x2="-2452.66" y1="385.93" y2="369.32" gradientTransform="matrix(-1 0 0 1 -2152.66 0)" gradientUnits="userSpaceOnUse"><stop offset=".27" stop-color="#bbd0e6" class="stopColorbbc0e6 svgShape"></stop><stop offset=".45" stop-color="#c7d8ea" class="stopColorc7cbea svgShape"></stop><stop offset=".77" stop-color="#e6edf5" class="stopColore6e8f5 svgShape"></stop><stop offset=".91" stop-color="#f6f8fb" class="stopColorf6f6fb svgShape"></stop></linearGradient><linearGradient id="af" x1="322.58" x2="365.94" y1="390.8" y2="390.8" xlink:href="#l"></linearGradient><linearGradient id="ag" x1="318.79" x2="357.69" y1="393.97" y2="393.97" xlink:href="#m"></linearGradient><linearGradient id="ah" x1="348.05" x2="515.6" y1="453.27" y2="453.27" xlink:href="#e"></linearGradient><linearGradient id="ai" x1="306.87" x2="306.95" y1="606" y2="606" xlink:href="#f"></linearGradient><linearGradient id="n" x1="561.82" x2="578.81" y1="376.61" y2="347.18" gradientUnits="userSpaceOnUse"><stop offset="0" stop-color="#ffffff" class="stopColorffffff svgShape"></stop><stop offset=".18" stop-color="#ebf5ff" class="stopColorfff7eb svgShape"></stop><stop offset=".54" stop-color="#b7dbff" class="stopColorffe1b7 svgShape"></stop><stop offset="1" stop-color="#6bb5ff" class="stopColorffc16b svgShape"></stop></linearGradient><linearGradient id="aj" x1="381.11" x2="398.11" y1="272.29" y2="242.86" xlink:href="#n"></linearGradient><linearGradient id="ak" x1="-2407.64" x2="-2390.65" y1="272.23" y2="242.8" gradientTransform="matrix(-1 0 0 1 -1925 0)" xlink:href="#n"></linearGradient><linearGradient id="al" x1="-2226.83" x2="-2209.84" y1="376.62" y2="347.19" gradientTransform="matrix(-1 0 0 1 -1925 0)" xlink:href="#n"></linearGradient><linearGradient id="o" x1="-324.78" x2="-308.39" y1="1662.3" y2="1662.3" gradientTransform="matrix(1 0 0 -1 690.73 2124.18)" gradientUnits="userSpaceOnUse"><stop offset="0" stop-color="#c2d4e7" class="stopColorc2c8e7 svgShape"></stop><stop offset="1" stop-color="#ffffff" class="stopColorffffff svgShape"></stop></linearGradient><linearGradient id="am" x1="-331.41" x2="-318.14" y1="1661" y2="1661" gradientTransform="matrix(.5 .87 .87 -.5 -907.12 1567.23)" gradientUnits="userSpaceOnUse"><stop offset="0" stop-color="#6f67e9" class="stopColor6b67e9 svgShape"></stop><stop offset="1" stop-color="#453eaf" class="stopColor423eaf svgShape"></stop></linearGradient><linearGradient id="an" x1="-306.77" x2="-290.38" y1="1672.66" y2="1672.66" gradientTransform="matrix(1 0 0 -1 690.7 2144.95)" xlink:href="#o"></linearGradient><linearGradient id="p" x1="-313.4" x2="-300.14" y1="1671.35" y2="1671.35" gradientTransform="matrix(.5 .87 .87 -.5 -907.12 1567.23)" gradientUnits="userSpaceOnUse"><stop offset="0" stop-color="#6db6ff" class="stopColorffaf6d svgShape"></stop><stop offset="1" stop-color="#e539c6" class="stopColore57139 svgShape"></stop></linearGradient><linearGradient id="ao" x1="-288.76" x2="-272.38" y1="1683.01" y2="1683.01" gradientTransform="matrix(1 0 0 -1 690.66 2165.72)" xlink:href="#o"></linearGradient><linearGradient id="q" x1="-295.4" x2="-282.13" y1="1681.7" y2="1681.7" gradientTransform="matrix(.5 .87 .87 -.5 -907.12 1567.23)" gradientUnits="userSpaceOnUse"><stop offset="0" stop-color="#f6f8fb" class="stopColorf6f6fb svgShape"></stop><stop offset="1" stop-color="#c4d6e9" class="stopColorc4cae9 svgShape"></stop></linearGradient><linearGradient id="ap" x1="-343.85" x2="-327.46" y1="1673.32" y2="1673.32" gradientTransform="matrix(1 0 0 -1 709.81 2113.17)" xlink:href="#o"></linearGradient><linearGradient id="aq" x1="-350.48" x2="-337.22" y1="1672.01" y2="1672.01" xlink:href="#p"></linearGradient><linearGradient id="ar" x1="-325.84" x2="-309.46" y1="1683.67" y2="1683.67" gradientTransform="matrix(1 0 0 -1 709.77 2133.94)" xlink:href="#o"></linearGradient><linearGradient id="as" x1="-332.47" x2="-319.21" y1="1682.36" y2="1682.36" xlink:href="#q"></linearGradient><linearGradient id="at" x1="-307.84" x2="-291.45" y1="1694.02" y2="1694.02" gradientTransform="matrix(1 0 0 -1 709.74 2154.71)" xlink:href="#o"></linearGradient><linearGradient id="au" x1="-314.47" x2="-301.2" y1="1692.71" y2="1692.71" xlink:href="#p"></linearGradient><linearGradient id="r" x1="639.55" x2="639.55" y1="393.37" y2="391.29" gradientUnits="userSpaceOnUse"><stop offset=".03" stop-color="#6f196f" class="stopColor20196f svgShape"></stop><stop offset=".39" stop-color="#4039a1" class="stopColor3f39a1 svgShape"></stop><stop offset=".8" stop-color="#625ad5" class="stopColor5f5ad5 svgShape"></stop><stop offset="1" stop-color="#6f67e9" class="stopColor6b67e9 svgShape"></stop></linearGradient><linearGradient id="av" x1="633.61" x2="635.03" y1="377.94" y2="380.41" xlink:href="#r"></linearGradient><linearGradient id="s" x1="642.05" x2="634.17" y1="391.64" y2="378.27" gradientUnits="userSpaceOnUse"><stop offset=".04" stop-color="#6f196f" class="stopColor20196f svgShape"></stop><stop offset=".1" stop-color="#2d2785" class="stopColor2d2785 svgShape"></stop><stop offset=".29" stop-color="#5049bb" class="stopColor4f49bb svgShape"></stop><stop offset=".42" stop-color="#675fdc" class="stopColor635fdc svgShape"></stop><stop offset=".5" stop-color="#6f67e9" class="stopColor6b67e9 svgShape"></stop><stop offset=".59" stop-color="#625ad5" class="stopColor5f5ad5 svgShape"></stop><stop offset=".8" stop-color="#4039a1" class="stopColor3f39a1 svgShape"></stop><stop offset=".97" stop-color="#6f196f" class="stopColor20196f svgShape"></stop></linearGradient><linearGradient id="aw" x1="688.73" x2="688.73" y1="364.97" y2="362.89" xlink:href="#r"></linearGradient><linearGradient id="ax" x1="682.79" x2="684.22" y1="349.54" y2="352.02" xlink:href="#r"></linearGradient><linearGradient id="ay" x1="691.2" x2="683.32" y1="363.19" y2="349.81" xlink:href="#s"></linearGradient><linearGradient id="az" x1="-565.7" x2="-505.81" y1="1643.62" y2="1643.62" gradientTransform="matrix(.5 .87 .87 -.5 -948 1641.4)" xlink:href="#a"></linearGradient><linearGradient id="aA" x1="193.48" x2="223.42" y1="323.29" y2="375.15" gradientUnits="userSpaceOnUse"><stop offset=".62" stop-color="#ffffff" class="stopColorffffff svgShape"></stop><stop offset=".71" stop-color="#cfdeed" class="stopColorcfd2ed svgShape"></stop><stop offset=".75" stop-color="#bbd0e6" class="stopColorbbc0e6 svgShape"></stop></linearGradient><linearGradient id="aB" x1="195.93" x2="227.44" y1="416.9" y2="416.9" gradientUnits="userSpaceOnUse"><stop offset="0" stop-color="#d1e2f3" class="stopColord1d7f3 svgShape"></stop><stop offset=".64" stop-color="#edf3fa" class="stopColoredeffa svgShape"></stop><stop offset="1" stop-color="#ffffff" class="stopColorffffff svgShape"></stop></linearGradient><linearGradient id="aC" x1="217.76" x2="205.46" y1="425.72" y2="409.96" gradientUnits="userSpaceOnUse"><stop offset="0" stop-color="#fb4bdb" class="stopColorfb944b svgShape"></stop><stop offset=".53" stop-color="#ed3fcd" class="stopColored7d3f svgShape"></stop><stop offset=".94" stop-color="#e539c6" class="stopColore57139 svgShape"></stop></linearGradient><linearGradient id="aD" x1="679.35" x2="717.59" y1="445.94" y2="445.94" gradientUnits="userSpaceOnUse"><stop offset="0" stop-color="#d1e2f3" class="stopColord1d7f3 svgShape"></stop><stop offset=".49" stop-color="#e9f1f9" class="stopColore9ecf9 svgShape"></stop><stop offset="1" stop-color="#ffffff" class="stopColorffffff svgShape"></stop></linearGradient><linearGradient id="aE" x1="683.1" x2="704.14" y1="452.57" y2="440.43" gradientUnits="userSpaceOnUse"><stop offset="0" stop-color="#453eaf" class="stopColor423eaf svgShape"></stop><stop offset=".23" stop-color="#3a339c" class="stopColor38339c svgShape"></stop><stop offset=".69" stop-color="#26207b" class="stopColor27207b svgShape"></stop><stop offset=".94" stop-color="#6f196f" class="stopColor20196f svgShape"></stop></linearGradient><linearGradient id="aF" x1="652.02" x2="715.49" y1="474.01" y2="474.01" gradientTransform="translate(-27.14)" gradientUnits="userSpaceOnUse"><stop offset="0" stop-color="#d1e2f3" class="stopColord1d7f3 svgShape"></stop><stop offset=".29" stop-color="#d5e4f4" class="stopColord5dbf4 svgShape"></stop><stop offset=".6" stop-color="#e3edf8" class="stopColore3e6f8 svgShape"></stop><stop offset=".92" stop-color="#f8fafd" class="stopColorf8f9fd svgShape"></stop><stop offset="1" stop-color="#ffffff" class="stopColorffffff svgShape"></stop></linearGradient><linearGradient id="t" x1="679.63" x2="683.71" y1="422.73" y2="422.73" gradientTransform="translate(-74.97)" gradientUnits="userSpaceOnUse"><stop offset="0" stop-color="#dae7f5" class="stopColordae0f5 svgShape"></stop><stop offset=".32" stop-color="#dfeaf6" class="stopColordfe4f6 svgShape"></stop><stop offset=".68" stop-color="#ecf3fa" class="stopColoreceffa svgShape"></stop><stop offset="1" stop-color="#ffffff" class="stopColorffffff svgShape"></stop></linearGradient><linearGradient id="u" x1="-2077.23" x2="-2073.4" y1="422.27" y2="422.27" gradientTransform="matrix(-1 0 0 1 -1471.15 0)" gradientUnits="userSpaceOnUse"><stop offset="0" stop-color="#a5b8cc" class="stopColora5abcc svgShape"></stop><stop offset=".39" stop-color="#a9bdd1" class="stopColora9afd1 svgShape"></stop><stop offset=".82" stop-color="#b4c9de" class="stopColorb4bade svgShape"></stop><stop offset="1" stop-color="#bbd0e6" class="stopColorbbc0e6 svgShape"></stop></linearGradient><linearGradient id="v" x1="-2075.97" x2="-2066.31" y1="422.2" y2="417.45" gradientTransform="matrix(-1 0 0 1 -1471.15 0)" gradientUnits="userSpaceOnUse"><stop offset="0" stop-color="#453eaf" class="stopColor423eaf svgShape"></stop><stop offset=".41" stop-color="#635bd8" class="stopColor5f5bd8 svgShape"></stop><stop offset=".63" stop-color="#6f67e9" class="stopColor6b67e9 svgShape"></stop><stop offset=".97" stop-color="#6f67e9" class="stopColor6b67e9 svgShape"></stop><stop offset="1" stop-color="#6f67e9" class="stopColor6b67e9 svgShape"></stop></linearGradient><linearGradient id="aG" x1="691.53" x2="695.61" y1="427.92" y2="427.92" gradientTransform="translate(-95.85)" xlink:href="#t"></linearGradient><linearGradient id="aH" x1="-2068.25" x2="-2064.41" y1="427.46" y2="427.46" xlink:href="#u"></linearGradient><linearGradient id="aI" x1="-2066.99" x2="-2057.33" y1="427.39" y2="422.63" xlink:href="#v"></linearGradient><linearGradient id="aJ" x1="703.42" x2="707.51" y1="433.1" y2="433.1" gradientTransform="translate(-116.73)" xlink:href="#t"></linearGradient><linearGradient id="aK" x1="-2059.26" x2="-2055.43" y1="432.64" y2="432.64" xlink:href="#u"></linearGradient><linearGradient id="aL" x1="-2058" x2="-2048.35" y1="432.57" y2="427.82" xlink:href="#v"></linearGradient><linearGradient id="aM" x1="715.32" x2="719.4" y1="438.29" y2="438.29" gradientTransform="translate(-137.61)" xlink:href="#t"></linearGradient><linearGradient id="aN" x1="-2050.28" x2="-2046.45" y1="437.83" y2="437.83" xlink:href="#u"></linearGradient><linearGradient id="aO" x1="-2049.02" x2="-2039.37" y1="437.76" y2="433" xlink:href="#v"></linearGradient><linearGradient id="aP" x1="727.22" x2="731.3" y1="443.48" y2="443.48" gradientTransform="translate(-158.49)" xlink:href="#t"></linearGradient><linearGradient id="aQ" x1="-2041.3" x2="-2037.47" y1="443.01" y2="443.01" xlink:href="#u"></linearGradient><linearGradient id="aR" x1="-2040.04" x2="-2030.38" y1="442.95" y2="438.19" xlink:href="#v"></linearGradient><linearGradient id="aS" x1="427.73" x2="542.96" y1="503.38" y2="503.38" gradientUnits="userSpaceOnUse"><stop offset="0" stop-color="#dae7f5" class="stopColordae0f5 svgShape"></stop><stop offset=".33" stop-color="#deeaf6" class="stopColordee3f6 svgShape"></stop><stop offset=".66" stop-color="#eaf1f9" class="stopColoreaeef9 svgShape"></stop><stop offset="1" stop-color="#ffffff" class="stopColorffffff svgShape"></stop><stop offset="1" stop-color="#ffffff" class="stopColorffffff svgShape"></stop></linearGradient><linearGradient id="aT" x1="529.21" x2="534.01" y1="467.6" y2="475.56" gradientUnits="userSpaceOnUse"><stop offset="0" stop-color="#6f67e9" class="stopColor6b67e9 svgShape"></stop><stop offset="1" stop-color="#342e93" class="stopColor362e93 svgShape"></stop></linearGradient><linearGradient id="aU" x1="433.24" x2="428.74" y1="532.84" y2="524.93" gradientUnits="userSpaceOnUse"><stop offset="0" stop-color="#bbd0e6" class="stopColorbbc0e6 svgShape"></stop><stop offset="1" stop-color="#f6f8fb" class="stopColorf6f6fb svgShape"></stop></linearGradient><linearGradient id="aV" x1="425.7" x2="423.8" y1="534.18" y2="531.73" gradientUnits="userSpaceOnUse"><stop offset="0" stop-color="#342e93" class="stopColor362e93 svgShape"></stop><stop offset="1" stop-color="#847cfb" class="stopColor807cfb svgShape"></stop></linearGradient><linearGradient id="aW" x1="526.78" x2="521.52" y1="479.62" y2="470.78" gradientUnits="userSpaceOnUse"><stop offset=".07" stop-color="#a3b9d0" class="stopColora3a9d0 svgShape"></stop><stop offset=".14" stop-color="#cee3f8" class="stopColorced3f8 svgShape"></stop><stop offset=".56" stop-color="#cee3f8" class="stopColorced3f8 svgShape"></stop><stop offset=".69" stop-color="#f6f8fb" class="stopColorf6f6fb svgShape"></stop></linearGradient><linearGradient id="w" x1="523.96" x2="517.42" y1="481.63" y2="473.32" gradientUnits="userSpaceOnUse"><stop offset=".56" stop-color="#d1e2f3" class="stopColord1d7f3 svgShape"></stop><stop offset=".69" stop-color="#f1f3f6" class="stopColorf1f1f6 svgShape"></stop></linearGradient><linearGradient id="aX" x1="525.24" x2="518.7" y1="480.89" y2="472.58" xlink:href="#w"></linearGradient><linearGradient id="aY" x1="526.52" x2="519.98" y1="480.15" y2="471.84" xlink:href="#w"></linearGradient><linearGradient id="x" x1="542.93" x2="577.02" y1="549.9" y2="549.9" gradientUnits="userSpaceOnUse"><stop offset="0" stop-color="#cfe0f1" class="stopColorcfd5f1 svgShape"></stop><stop offset=".28" stop-color="#e1ebf6" class="stopColore1e5f6 svgShape"></stop><stop offset=".72" stop-color="#f7fafd" class="stopColorf7f8fd svgShape"></stop><stop offset="1" stop-color="#ffffff" class="stopColorffffff svgShape"></stop></linearGradient><linearGradient id="aZ" x1="295.22" x2="323.47" y1="464.12" y2="464.12" xlink:href="#x"></linearGradient><linearGradient id="ba" x1="596.51" x2="624.29" y1="208.24" y2="208.24" xlink:href="#x"></linearGradient><linearGradient id="bb" x1="247.04" x2="303.92" y1="524.73" y2="524.73" gradientUnits="userSpaceOnUse"><stop offset=".33" stop-color="#c4d4e5" class="stopColorc4c9e5 svgShape"></stop><stop offset=".58" stop-color="#d7e2ed" class="stopColord7dbed svgShape"></stop><stop offset="1" stop-color="#ffffff" class="stopColorffffff svgShape"></stop></linearGradient><linearGradient id="bc" x1="259.81" x2="276.99" y1="518.16" y2="518.16" gradientUnits="userSpaceOnUse"><stop offset="0" stop-color="#bbcee2" class="stopColorbbbfe2 svgShape"></stop><stop offset="1" stop-color="#dce9f7" class="stopColordce0f7 svgShape"></stop></linearGradient><linearGradient id="bd" x1="254.95" x2="265.92" y1="530.82" y2="530.82" gradientUnits="userSpaceOnUse"><stop offset="0" stop-color="#bbcee2" class="stopColorbbbfe2 svgShape"></stop><stop offset="1" stop-color="#cee1f4" class="stopColorced2f4 svgShape"></stop></linearGradient><linearGradient id="be" x1="-1602.16" x2="-1596.75" y1="-623.98" y2="-614.94" gradientTransform="rotate(120 -993.795 497.032)" gradientUnits="userSpaceOnUse"><stop offset="0" stop-color="#cee1f4" class="stopColorced2f4 svgShape"></stop><stop offset="1" stop-color="#bbcee2" class="stopColorbbbfe2 svgShape"></stop></linearGradient><linearGradient id="bf" x1="282.26" x2="289.74" y1="522.29" y2="522.29" gradientUnits="userSpaceOnUse"><stop offset=".4" stop-color="#bbcee2" class="stopColorbbbfe2 svgShape"></stop><stop offset="1" stop-color="#cee1f4" class="stopColorced2f4 svgShape"></stop></linearGradient><linearGradient id="y" x1="432.52" x2="493.61" y1="195.72" y2="195.72" gradientUnits="userSpaceOnUse"><stop offset="0" stop-color="#dae7f5" class="stopColordae0f5 svgShape"></stop><stop offset=".61" stop-color="#eff5fb" class="stopColoreff2fb svgShape"></stop><stop offset="1" stop-color="#ffffff" class="stopColorffffff svgShape"></stop></linearGradient><linearGradient id="z" x1="377.4" x2="486.25" y1="208.64" y2="208.64" gradientUnits="userSpaceOnUse"><stop offset=".42" stop-color="#cee3f8" class="stopColorced3f8 svgShape"></stop><stop offset=".59" stop-color="#bbd0e6" class="stopColorbbc0e6 svgShape"></stop></linearGradient><linearGradient id="bg" x1="249.47" x2="310.56" y1="302.04" y2="302.04" xlink:href="#y"></linearGradient><linearGradient id="bh" x1="194.35" x2="303.2" y1="314.95" y2="314.95" xlink:href="#z"></linearGradient><linearGradient id="bi" x1="432.52" x2="493.61" y1="404.38" y2="404.38" xlink:href="#y"></linearGradient><linearGradient id="bj" x1="377.4" x2="486.25" y1="417.29" y2="417.29" xlink:href="#z"></linearGradient><linearGradient id="bk" x1="613.23" x2="674.31" y1="300.05" y2="300.05" xlink:href="#y"></linearGradient><linearGradient id="bl" x1="558.11" x2="666.96" y1="312.96" y2="312.96" xlink:href="#z"></linearGradient><linearGradient id="bm" x1="585" x2="653.73" y1="294.9" y2="294.9" xlink:href="#a"></linearGradient><linearGradient id="bn" x1="404.29" x2="473.02" y1="190.58" y2="190.58" xlink:href="#a"></linearGradient><linearGradient id="bo" x1="221.24" x2="289.97" y1="296.89" y2="296.89" xlink:href="#a"></linearGradient><linearGradient id="bp" x1="404.29" x2="473.02" y1="399.23" y2="399.23" xlink:href="#a"></linearGradient><mask id="U" width="124.53" height="171.77" x="50.46" y="485.92" maskUnits="userSpaceOnUse"><path fill="url(#A)" d="M175 657.69V521.87c0-1.68-1.1-3.35-3.31-4.63l-50.95-29.41c-4.4-2.55-11.61-2.55-16 0l-50.98 29.41c-2.2 1.28-3.31 3-3.3 4.63v135.82Z"></path></mask><mask id="W" width="151.4" height="208.82" x="648.15" y="42.31" maskUnits="userSpaceOnUse"><path fill="url(#B)" d="M799.54 251.13V86c0-2-1.33-4.08-4-5.62l-61.96-35.75c-5.35-3.09-14.12-3.09-19.47 0l-62 35.77c-2.67 1.54-4 3.58-4 5.62v165.11Z"></path></mask></defs><g style="isolation:isolate" fill="#010001" class="color000000 svgShape"><g fill="#010001" class="color000000 svgShape"><g fill="#010001" class="color000000 svgShape"><path d="M566.47 430.24 529 408.63a22.86 22.86 0 0 0-11.16-2.63v-.12h-86v97h86v-.09A23 23 0 0 0 529 500l37.44-21.62Z" style="mix-blend-mode:multiply" fill="url(#a)"></path><path d="M566.47 221.59 529 200a22.93 22.93 0 0 0-11.18-2.66v-.12h-86v96.95h86v-.09a22.86 22.86 0 0 0 11.18-2.7l37.44-21.62Z" style="mix-blend-mode:multiply" fill="url(#C)"></path><path fill="#f4f6f8" d="M511 188.63c6.15 3.56 6.15 9.37 0 12.92l-68 39.25c-6.15 3.55-16.22 3.55-22.37 0l-68-39.25c-6.15-3.55-6.15-9.36 0-12.92l68-39.24c6.15-3.55 16.22-3.55 22.37 0Z" class="colorf4f4f8 svgShape"></path><path fill="url(#e)" d="m511 201.55-68 39.25c-6.15 3.55-16.22 3.55-22.37 0l-68-39.25c-3.07-1.77-4.61-4.11-4.61-6.46v50.68c0 2.34 1.54 4.68 4.61 6.46l68 39.24c6.15 3.56 16.22 3.56 22.37 0l68-39.24c3-1.77 4.59-4.09 4.61-6.41v-50.68c-.03 2.33-1.61 4.65-4.61 6.41Z"></path><path fill="url(#b)" d="m406.57 247.75-39.85-23c-2.37-1.37-4.3-.26-4.3 2.48v30.64l48.46 28V255.2a9.51 9.51 0 0 0-4.31-7.45Z"></path><path fill="url(#D)" d="m457.07 247.75 39.85-23c2.38-1.37 4.31-.26 4.31 2.48v30.64l-48.46 28V255.2a9.52 9.52 0 0 1 4.3-7.45Z"></path><path d="M313.6 385.44h.07Z" style="mix-blend-mode:multiply" fill="url(#f)"></path><path d="M410.88 280.87v4.97l4.3 2.48-4.3-7.45z" style="mix-blend-mode:multiply" fill="#f4f6f8" class="colorf1f1f6 svgShape"></path><path style="mix-blend-mode:multiply" fill="url(#g)" d="m324.83 340.49 17.69-10.22 72.66-41.95-4.3-2.48-72.67 41.95L320.52 338l4.31 2.49z"></path><path fill="#f4f6f8" d="m318.64 334.12 19.57-11.3 72.67-41.95V255.2a9.51 9.51 0 0 0-4.31-7.45l-17.51-10.11-118.77 68.57Z" class="colorf4f4f8 svgShape"></path><path fill="url(#c)" d="M318.64 334.12v4.97l92.24-53.25v-4.97l-92.24 53.25z"></path><path fill="#f4f6f8" d="m545 334.12-19.57-11.3-72.67-41.95V255.2a9.51 9.51 0 0 1 4.31-7.45l17.51-10.11 118.77 68.57Z" class="colorf4f4f8 svgShape"></path><path fill="url(#E)" d="M545.01 334.12v4.97l-92.24-53.25v-4.97l92.24 53.25z"></path><g style="mix-blend-mode:multiply" fill="#010001" class="color000000 svgShape"><path fill="#dfe9f4" d="M543.84 335.93a2.5 2.5 0 0 0-1.14-2c-.63-.37-1.14-.07-1.14.66a2.52 2.52 0 0 0 1.14 2c.63.41 1.14.07 1.14-.66ZM538.15 332.65a2.52 2.52 0 0 0-1.14-2c-.63-.36-1.14-.07-1.14.66a2.53 2.53 0 0 0 1.14 2c.63.36 1.14.06 1.14-.66ZM532.46 329.36a2.5 2.5 0 0 0-1.14-2c-.63-.37-1.14-.07-1.14.65a2.53 2.53 0 0 0 1.14 2c.68.37 1.14.08 1.14-.65ZM526.77 326.07a2.52 2.52 0 0 0-1.14-2c-.63-.36-1.14-.07-1.14.66a2.5 2.5 0 0 0 1.14 2c.63.37 1.14.07 1.14-.66ZM521.08 322.79a2.53 2.53 0 0 0-1.14-2c-.63-.36-1.15-.07-1.15.66a2.54 2.54 0 0 0 1.15 2c.63.36 1.14.06 1.14-.66ZM515.38 319.5a2.5 2.5 0 0 0-1.14-2c-.63-.37-1.14-.07-1.14.66a2.52 2.52 0 0 0 1.14 2c.63.36 1.14.07 1.14-.66ZM509.69 316.22a2.52 2.52 0 0 0-1.14-2c-.63-.36-1.14-.07-1.14.66a2.5 2.5 0 0 0 1.14 2c.63.36 1.14.06 1.14-.66ZM504 312.93a2.53 2.53 0 0 0-1.14-2c-.63-.36-1.14-.07-1.14.66a2.52 2.52 0 0 0 1.14 2c.63.41 1.14.07 1.14-.66ZM498.31 309.64a2.52 2.52 0 0 0-1.14-2c-.63-.36-1.14-.07-1.14.66a2.5 2.5 0 0 0 1.14 2c.63.37 1.14.07 1.14-.66ZM492.62 306.36a2.53 2.53 0 0 0-1.14-2c-.63-.36-1.14-.07-1.14.66a2.53 2.53 0 0 0 1.14 2c.63.36 1.14.07 1.14-.66ZM486.93 303.07a2.48 2.48 0 0 0-1.15-2c-.63-.37-1.14-.08-1.14.66a2.53 2.53 0 0 0 1.14 2c.64.36 1.15.07 1.15-.66ZM481.23 299.79a2.52 2.52 0 0 0-1.14-2c-.63-.36-1.14-.07-1.14.66a2.52 2.52 0 0 0 1.14 2c.63.36 1.14.06 1.14-.66ZM475.54 296.5a2.53 2.53 0 0 0-1.14-2c-.63-.36-1.14-.07-1.14.66a2.53 2.53 0 0 0 1.14 2c.6.36 1.14.07 1.14-.66ZM469.85 293.21a2.52 2.52 0 0 0-1.14-2c-.63-.37-1.14-.07-1.14.66a2.5 2.5 0 0 0 1.14 2c.63.37 1.14.07 1.14-.66ZM464.16 289.93a2.53 2.53 0 0 0-1.14-2c-.63-.36-1.14-.07-1.14.66a2.53 2.53 0 0 0 1.14 2c.63.41 1.14.07 1.14-.66ZM458.47 286.64a2.53 2.53 0 0 0-1.14-2c-.63-.36-1.14-.06-1.14.66a2.53 2.53 0 0 0 1.14 2c.67.36 1.14.07 1.14-.66Z" class="colordfe4f4 svgShape"></path></g><path d="m505.52 255.5-48.34 27.91 1.1.64 48.35-27.91Zm68.3 39.44-48.34 27.91 1.1.63 48.35-27.91Zm-22.76-13.15-48.35 27.91 1.11.64 48.34-27.91Zm-11.39-6.57-48.34 27.91 1.1.64 48.35-27.91Zm-45.53-26.29-41.37 23.88v1.28l42.47-24.52-.82-.48Zm68.3 39.43-48.34 27.92 1.1.63L563.54 289Zm-82.44 8.2 1.1.63 48.34-27.91-1.1-.63Zm3.86-53.56-.09-.05-1-.58-30 17.31v1.27Zm33 19.08L468.56 290l1.11.63L518 262.71Zm68.3 39.44-48.35 27.91 1.11.64 48.34-27.91-.17-.1Z" style="mix-blend-mode:multiply" fill="#f6f8fb" class="colorf6f6fb svgShape"></path><g style="mix-blend-mode:multiply" fill="#010001" class="color000000 svgShape"><path fill="#dfe9f4" d="M319.81 335.93a2.5 2.5 0 0 1 1.14-2c.63-.37 1.14-.07 1.14.66a2.52 2.52 0 0 1-1.14 2c-.63.41-1.14.07-1.14-.66ZM325.5 332.65a2.52 2.52 0 0 1 1.14-2c.63-.36 1.14-.07 1.14.66a2.53 2.53 0 0 1-1.14 2c-.64.36-1.14.06-1.14-.66ZM331.19 329.36a2.5 2.5 0 0 1 1.14-2c.63-.37 1.14-.07 1.14.65a2.53 2.53 0 0 1-1.14 2c-.63.37-1.14.08-1.14-.65ZM336.88 326.07a2.52 2.52 0 0 1 1.14-2c.63-.36 1.14-.07 1.14.66a2.5 2.5 0 0 1-1.14 2c-.63.37-1.14.07-1.14-.66ZM342.57 322.79a2.53 2.53 0 0 1 1.14-2c.63-.36 1.15-.07 1.15.66a2.54 2.54 0 0 1-1.15 2c-.63.36-1.14.06-1.14-.66ZM348.26 319.5a2.51 2.51 0 0 1 1.15-2c.63-.37 1.14-.07 1.14.66a2.52 2.52 0 0 1-1.14 2c-.63.36-1.14.07-1.15-.66ZM354 316.22a2.52 2.52 0 0 1 1.14-2c.63-.36 1.14-.07 1.14.66a2.5 2.5 0 0 1-1.14 2c-.67.36-1.14.06-1.14-.66ZM359.65 312.93a2.53 2.53 0 0 1 1.14-2c.63-.36 1.14-.07 1.14.66a2.52 2.52 0 0 1-1.14 2c-.63.41-1.14.07-1.14-.66ZM365.34 309.64a2.52 2.52 0 0 1 1.14-2c.63-.36 1.14-.07 1.14.66a2.5 2.5 0 0 1-1.14 2c-.63.37-1.14.07-1.14-.66ZM371 306.36a2.53 2.53 0 0 1 1.14-2c.63-.36 1.14-.07 1.14.66a2.53 2.53 0 0 1-1.14 2c-.6.36-1.14.07-1.14-.66ZM376.72 303.07a2.5 2.5 0 0 1 1.14-2c.64-.37 1.15-.08 1.15.66a2.52 2.52 0 0 1-1.15 2c-.63.36-1.14.07-1.14-.66ZM382.42 299.79a2.52 2.52 0 0 1 1.14-2c.63-.36 1.14-.07 1.14.66a2.52 2.52 0 0 1-1.14 2c-.63.36-1.14.06-1.14-.66ZM388.11 296.5a2.53 2.53 0 0 1 1.14-2c.63-.36 1.14-.07 1.14.66a2.53 2.53 0 0 1-1.14 2c-.63.36-1.14.07-1.14-.66ZM393.8 293.21a2.52 2.52 0 0 1 1.14-2c.63-.37 1.14-.07 1.14.66a2.5 2.5 0 0 1-1.14 2c-.63.37-1.14.07-1.14-.66ZM399.49 289.93a2.53 2.53 0 0 1 1.14-2c.63-.36 1.14-.07 1.14.66a2.53 2.53 0 0 1-1.14 2c-.63.41-1.14.07-1.14-.66ZM405.18 286.64a2.53 2.53 0 0 1 1.14-2c.63-.36 1.14-.06 1.14.66a2.53 2.53 0 0 1-1.14 2c-.63.36-1.14.07-1.14-.66Z" class="colordfe4f4 svgShape"></path></g><path d="m357 256.14 48.35 27.91 1.1-.64-48.32-27.91Zm-68.3 39.43 48.35 27.91 1.1-.63-48.35-27.91Zm22.77-13.14 48.34 27.91 1.11-.64-48.35-27.91Zm11.38-6.57 48.35 27.91 1.1-.64-48.3-27.91Zm46.36-26.77-.82.48 42.47 24.52v-1.28l-41.37-23.88ZM300.11 289l48.34 27.91 1.1-.63-48.34-27.92Zm35.25-20.35-1.1.63 48.34 27.91 1.1-.63Zm75.52-7.71v-1.27l-30-17.31-1 .58-.09.05Zm-65.24 1.77L394 290.62l1.11-.63-48.35-27.92Zm-68.13 39.34-.17.1 48.34 27.91 1.11-.64-48.35-27.91Z" style="mix-blend-mode:multiply" fill="#f6f8fb" class="colorf6f6fb svgShape"></path><path style="mix-blend-mode:multiply" fill="url(#j)" d="m467.35 294.14.01-4.85-14.59-8.42v4.97l14.58 8.3z"></path><path d="m546.58 279.08-71.89-41.5-17.62 10.17a9.52 9.52 0 0 0-4.3 7.45v25.67l14.55 8.4h72l8.65-5a1.4 1.4 0 0 0 .8-1.46 4.76 4.76 0 0 0-2.19-3.73Z" style="mix-blend-mode:multiply" fill="url(#k)"></path><path d="m381.45 284.35-8.37-2.06-1.62.94-26.16-4.16-5.41 3.13 7.72 1.22-9.55 5.52-12 1.22.79 6.7 25.53-2.62 2.56-1.49 28.94-2.5 3.32-1.92Z" style="mix-blend-mode:multiply" fill="url(#h)"></path><path fill="#a3b9d0" d="m339.2 271.26-6.19-3.58 6.88 14.51 6.19 3.58-6.88-14.51z" class="colora3a9d0 svgShape"></path><path fill="#f6f8fb" d="m336.72 264.86-6.19-3.58 4.92-2.84 6.2 3.57-4.93 2.85zM336.33 280.56l-6.19-3.58 5.7-3.29 6.2 3.57-5.71 3.3z" class="colorf6f6fb svgShape"></path><path fill="#bbd0e6" d="m346.08 285.77-2.08-4.46-9.55 5.52-2.12 6.91-5.41 3.12 9.84-32 4.93-2.85 9.85 20.64Zm-6.88-14.51-2.87 9.3 5.71-3.3Z" class="colorbbc0e6 svgShape"></path><path fill="#cee3f8" d="m326.88 296.86-6.2-3.58 9.85-32 6.19 3.58-9.84 32z" class="colorced3f8 svgShape"></path><path fill="url(#d)" d="m336.57 258.78-6.2-3.58a1.42 1.42 0 0 0-1.45.14 4.52 4.52 0 0 0-2 3.55 1.43 1.43 0 0 0 .59 1.33l6.2 3.57Z"></path><path fill="#bbd0e6" d="M337.17 260.1a4.53 4.53 0 0 1-2.05 3.55 1.25 1.25 0 0 1-2.05-1.18 4.53 4.53 0 0 1 2.05-3.55 1.25 1.25 0 0 1 2.05 1.18Z" class="colorbbc0e6 svgShape"></path><path fill="url(#F)" d="m343.32 254.88-6.2-3.58a1.47 1.47 0 0 0-1.45.14 4.55 4.55 0 0 0-2 3.55 1.42 1.42 0 0 0 .59 1.33l6.2 3.58Z"></path><path fill="#bbd0e6" d="M343.92 256.2a4.53 4.53 0 0 1-2.05 3.55 1.25 1.25 0 0 1-2.05-1.18 4.54 4.54 0 0 1 2.05-3.55 1.25 1.25 0 0 1 2.05 1.18Z" class="colorbbc0e6 svgShape"></path><path style="mix-blend-mode:multiply" fill="url(#G)" d="m406.56 280.15-8.47-4.89-5.56-11.79h-6.57l4.73 10.28-6.24 4.28 8.48 4.89h8.84l4.79-2.77z"></path><path fill="#5046e4" d="M381.84 273.75v-6.59l-3.35-7.29v6.6l3.35 7.28zM384.45 278.03v-6.6l8.48 4.89v6.6l-8.48-4.89z" class="color5652cc svgShape"></path><path fill="#453eaf" d="M364.03 274.82v-6.6l20.42 3.21v6.6l-20.42-3.21zM392.93 282.92v-6.6l4.79-2.76v6.59l-4.79 2.77z" class="color423eaf svgShape"></path><path fill="#857dfb" d="m397.72 273.56-4.79 2.76-8.48-4.89-20.45-3.21 5.19-3 12.62 1.94-3.35-7.29 5.19-3 5.56 11.79Z" class="color807dfb svgShape"></path><path d="m543.09 284.42-20.19-11.6c-2-1.16-11.11-1.16-13.12 0l-20.19 11.6c-2 1.16-2 3.06 0 4.23l18.9 10.86v1.61h10.75a7.5 7.5 0 0 0 3.66-.87l20.19-11.6c2.01-1.16 2.01-3.07 0-4.23Z" style="mix-blend-mode:multiply" fill="url(#l)"></path><path fill="#ffffff" d="M512.15 294a8.11 8.11 0 0 1-7.31 0l-20.19-11.6c-2-1.17-2-3.07 0-4.23l20.19-11.6a8.11 8.11 0 0 1 7.31 0l20.19 11.6c2 1.16 2 3.07 0 4.23Z" class="colorffffff svgShape"></path><path fill="url(#m)" d="M484.65 282.35 504.84 294a8.11 8.11 0 0 0 7.31 0l20.19-11.6a2.69 2.69 0 0 0 1.5-1.92v5.92a2.29 2.29 0 0 1 0 .37 2.7 2.7 0 0 1-1.5 1.91l-20.19 11.6a8.11 8.11 0 0 1-7.31 0l-20.19-11.6a2.54 2.54 0 0 1-1.51-2.15v-6.27a2.56 2.56 0 0 0 1.51 2.09Z"></path><path fill="#857dfb" d="m501 277.89 1-.34.17.25c3.45 2.33 5.78 4.45 7.07 6.42a38.68 38.68 0 0 1 4.8-.11l.29 1.17a37.54 37.54 0 0 0-4.46 0 5.58 5.58 0 0 1 .23 5 13.73 13.73 0 0 0-2.05-.16 4.91 4.91 0 0 0-.15-4.68c-1.37.11-2.75.27-4 .46l.68.68-1.84.33c-1.33-1.38-3.36-3.31-5.48-5.24l-2.11 1.22-1.34-.77 2.41-1.39c-1.24-1.11-2.47-2.16-3.57-3.09l1.95-.88c.12.1.08.22-.17.39 1 .83 2.05 1.8 3.15 2.8l3.26-1.88Zm-2.42 3c1.53 1.39 3 2.82 4.32 4.08 1.37-.23 2.88-.42 4.36-.59a22.62 22.62 0 0 0-5.61-5.26Zm19.78-7.22 1.38.79-5.1 2.95 7 4c1.63.94 1.25 1.45-2.54 3.59a14.62 14.62 0 0 0-1.94-.51l2.58-1.44c.72-.42.93-.54.48-.8l-7-4.05-5.18 3-1.38-.79 5.19-3-3.6-2.07.74-.38a10.05 10.05 0 0 0-.32-3.8l-8.14 4.7-1.33-.77 9.22-5.32.19-.21 1.82-.24c0 .1 0 .22-.13.32a12.82 12.82 0 0 1 .36 5.43l2.62 1.51Z" class="color807dfb svgShape"></path><path d="m747.18 325.91-37.45-21.62a22.93 22.93 0 0 0-11.18-2.66v-.12h-86v96.95h86v-.09a23 23 0 0 0 11.19-2.66l37.44-21.62Z" style="mix-blend-mode:multiply" fill="url(#H)"></path><path fill="#f4f6f8" d="M691.7 293c6.15 3.55 6.15 9.36 0 12.91l-68 39.25c-6.15 3.55-16.22 3.55-22.37 0l-68-39.25c-6.15-3.55-6.15-9.36 0-12.91l68-39.25c6.16-3.55 16.23-3.55 22.38 0Z" class="colorf4f4f8 svgShape"></path><path fill="url(#I)" d="m691.7 305.87-68 39.25c-6.15 3.55-16.22 3.55-22.37 0l-68-39.25c-3.08-1.77-4.62-4.11-4.62-6.46v50.68c0 2.34 1.54 4.68 4.62 6.46l68 39.25c6.15 3.55 16.22 3.55 22.37 0l68-39.25c3-1.76 4.59-4.08 4.61-6.41v-50.67c-.02 2.32-1.56 4.64-4.61 6.4Z"></path><path fill="url(#J)" d="m587.28 352.07-39.85-23c-2.38-1.37-4.3-.26-4.3 2.49v30.64l48.45 28v-30.68a9.5 9.5 0 0 0-4.3-7.45Z"></path><path d="M494.31 489.76h.08Z" style="mix-blend-mode:multiply" fill="url(#K)"></path><path d="M591.58 385.19v4.97l4.31 2.49-4.31-7.46z" style="mix-blend-mode:multiply" fill="#f4f6f8" class="colorf1f1f6 svgShape"></path><path style="mix-blend-mode:multiply" fill="url(#L)" d="m505.53 444.81 17.7-10.21 72.66-41.95-4.31-2.49-72.66 41.95-17.69 10.22 4.3 2.48z"></path><path fill="#f4f6f8" d="m499.35 438.44 19.57-11.3 72.66-41.95v-25.67a9.5 9.5 0 0 0-4.3-7.45L569.77 342 451 410.53Z" class="colorf4f4f8 svgShape"></path><path fill="url(#M)" d="M499.35 438.44v4.97l92.23-53.25v-4.97l-92.23 53.25z"></path><g style="mix-blend-mode:multiply" fill="#010001" class="color000000 svgShape"><path fill="#dfe9f4" d="M500.51 440.25a2.53 2.53 0 0 1 1.15-2c.63-.36 1.14-.07 1.14.66a2.5 2.5 0 0 1-1.14 2c-.66.37-1.15.09-1.15-.66ZM506.2 437a2.54 2.54 0 0 1 1.15-2c.63-.36 1.14-.07 1.14.66a2.53 2.53 0 0 1-1.14 2c-.63.34-1.15.04-1.15-.66ZM511.9 433.68a2.52 2.52 0 0 1 1.14-2c.63-.37 1.14-.07 1.14.66a2.52 2.52 0 0 1-1.14 2c-.63.37-1.14.07-1.14-.66ZM517.59 430.4a2.53 2.53 0 0 1 1.14-2c.63-.36 1.14-.07 1.14.66a2.53 2.53 0 0 1-1.14 2c-.63.36-1.14.07-1.14-.66ZM523.28 427.11a2.5 2.5 0 0 1 1.14-2c.63-.37 1.14-.07 1.14.65a2.52 2.52 0 0 1-1.14 2c-.63.37-1.14.08-1.14-.65ZM529 423.83a2.55 2.55 0 0 1 1.14-2c.63-.36 1.15-.07 1.15.66a2.51 2.51 0 0 1-1.15 2c-.65.36-1.14.06-1.14-.66ZM534.66 420.54a2.54 2.54 0 0 1 1.15-2c.63-.36 1.14-.07 1.14.66a2.53 2.53 0 0 1-1.14 2c-.63.36-1.15.07-1.15-.66ZM540.36 417.25a2.5 2.5 0 0 1 1.14-2c.63-.37 1.14-.07 1.14.66a2.52 2.52 0 0 1-1.14 2c-.63.37-1.14.09-1.14-.66ZM546.05 414a2.53 2.53 0 0 1 1.14-2c.63-.36 1.14-.07 1.14.66a2.5 2.5 0 0 1-1.14 2c-.63.34-1.14.03-1.14-.66ZM551.74 410.68a2.5 2.5 0 0 1 1.14-2c.63-.37 1.14-.08 1.14.65a2.52 2.52 0 0 1-1.14 2c-.63.37-1.14.08-1.14-.65ZM557.43 407.39a2.52 2.52 0 0 1 1.14-2c.63-.36 1.14-.07 1.14.66a2.5 2.5 0 0 1-1.14 2c-.63.37-1.14.07-1.14-.66ZM563.12 404.11a2.56 2.56 0 0 1 1.14-2c.63-.36 1.15-.07 1.15.66a2.54 2.54 0 0 1-1.15 2c-.62.36-1.14.07-1.14-.66ZM568.81 400.82a2.51 2.51 0 0 1 1.15-2c.63-.37 1.14-.07 1.14.65a2.52 2.52 0 0 1-1.14 2c-.63.37-1.15.08-1.15-.65ZM574.5 397.54a2.53 2.53 0 0 1 1.15-2c.63-.36 1.14-.07 1.14.66a2.5 2.5 0 0 1-1.14 2c-.65.36-1.15.06-1.15-.66ZM580.2 394.25a2.5 2.5 0 0 1 1.14-2c.63-.37 1.14-.08 1.14.65a2.53 2.53 0 0 1-1.14 2c-.63.37-1.14.1-1.14-.65ZM585.89 391a2.52 2.52 0 0 1 1.14-2c.63-.37 1.14-.07 1.14.66a2.52 2.52 0 0 1-1.14 2c-.63.34-1.14.03-1.14-.66Z" class="colordfe4f4 svgShape"></path></g><path d="m537.73 360.46 48.34 27.91 1.11-.63-48.35-27.92Zm-68.3 39.44 48.34 27.91 1.11-.64-48.35-27.91Zm22.77-13.15 48.34 27.91 1.1-.63-48.34-27.92Zm11.38-6.57 48.35 27.91 1.1-.64-48.35-27.91Zm46.36-26.77-.82.48 42.47 24.52v-1.27l-41.37-23.89Zm-69.13 39.91 48.35 27.92 1.1-.64-48.34-27.91ZM516.07 373l-1.11.64 48.35 27.91 1.1-.64Zm75.52-7.7V364l-30-17.31-1 .59-.08.05Zm-65.24 1.7 48.34 27.91 1.1-.63-48.34-27.88Zm-68.13 39.34-.17.1 48.34 27.91 1.1-.64-48.34-27.91Z" style="mix-blend-mode:multiply" fill="#f6f8fb" class="colorf6f6fb svgShape"></path><path style="mix-blend-mode:multiply" fill="url(#N)" d="m577.57 379.16-11.57-.03 5.16 2.81-20.63 11.9h10.81l20.83-12.03-4.6-2.65z"></path><path d="M522.89 395.28v.16h1.06q.12 3.75-3.58 5.88a16.55 16.55 0 0 1-5.12 1.9 18 18 0 0 0 4.21.37 17.77 17.77 0 0 0 8.61-2.27q3.7-2.13 3.58-5.88Z" style="mix-blend-mode:multiply" fill="url(#O)"></path><path fill="#857dfb" d="M516.35 392.74a3.31 3.31 0 0 0 1.84-3.72l5.78.2q.12 3.75-3.58 5.88a17.76 17.76 0 0 1-8.6 2.27 16.26 16.26 0 0 1-8.68-2.06q-3.78-2.19-3.57-5.05t3.77-4.91a16.24 16.24 0 0 1 4.33-1.66 21.84 21.84 0 0 1 5.37-.59l.74 3.18a13.41 13.41 0 0 0-3.42.28 9.94 9.94 0 0 0-2.8 1 3.31 3.31 0 0 0-1.93 2.48q-.12 1.43 2 2.64a8.3 8.3 0 0 0 4.56 1.13 8.89 8.89 0 0 0 4.19-1.07Z" class="color807dfb svgShape"></path><path fill="url(#P)" d="M510.33 386.56a9.94 9.94 0 0 0-2.8 1 3.31 3.31 0 0 0-1.93 2.48q-.12 1.43 2 2.64a8.62 8.62 0 0 0 1.19.57 12.54 12.54 0 0 1 1.56-.44 13.41 13.41 0 0 1 3.42-.28v-6.26a13.41 13.41 0 0 0-3.44.29Z"></path><path fill="url(#Q)" d="M520.39 395.1a17.76 17.76 0 0 1-8.6 2.27 16.26 16.26 0 0 1-8.68-2.06c-2.27-1.31-3.45-2.8-3.56-4.47v6.39c.17 1.61 1.35 3.06 3.56 4.33a16.26 16.26 0 0 0 8.68 2.06 17.76 17.76 0 0 0 8.6-2.27q3.71-2.13 3.58-5.88v-6.26q.12 3.79-3.58 5.89Z"></path><path fill="#bbd0e6" d="M556.43 373.44v-8.39l-3.15 13.51v8.38l3.15-13.5zM536.1 385.51v-8.38l12.93-7.46v8.38l-12.93 7.46z" class="colorbbc0e6 svgShape"></path><path fill="#ffffff" d="m566.56 370.89 4.6 2.66-20.63 11.91-4.6-2.66 3.1-13.13-12.93 7.46-4.6-2.66 20.63-11.91 4.31 2.49-3.16 13.51Z" class="colorffffff svgShape"></path><path fill="#bbd0e6" d="M550.53 393.85v-8.39l20.63-11.91v8.39l-20.63 11.91z" class="colorbbc0e6 svgShape"></path><path fill="#cee3f8" d="M545.93 391.19v-8.39l4.6 2.66v8.38l-4.6-2.65zM531.5 382.86v-8.39l4.6 2.66v8.38l-4.6-2.65z" class="colorced3f8 svgShape"></path><path d="M383.42 325.81 346 304.19a22.93 22.93 0 0 0-11.18-2.66v-.13h-86v97h86v-.09A22.86 22.86 0 0 0 346 395.6l37.42-21.6Z" style="mix-blend-mode:multiply" fill="url(#R)"></path><path fill="#f4f6f8" d="M330.28 293c6.16 3.56 6.16 9.37 0 12.92l-68 39.25c-6.15 3.55-16.22 3.55-22.38 0l-68-39.25c-6.16-3.55-6.16-9.36 0-12.92l68-39.24c6.16-3.55 16.22-3.55 22.38 0Z" class="colorf4f4f8 svgShape"></path><path fill="url(#S)" d="m330.28 305.88-68 39.25c-6.15 3.55-16.22 3.55-22.38 0l-68-39.25c-3.08-1.77-4.62-4.11-4.62-6.46v50.68c0 2.34 1.54 4.68 4.62 6.46l68 39.24c6.16 3.56 16.23 3.56 22.38 0l68-39.24c3.06-1.77 4.6-4.09 4.62-6.41v-50.68c-.02 2.33-1.56 4.65-4.62 6.41Z"></path><path fill="url(#T)" d="m276.37 352.08 39.85-23c2.38-1.37 4.3-.26 4.3 2.48v30.64l-48.45 28v-30.67a9.52 9.52 0 0 1 4.3-7.45Z"></path><g mask="url(#U)" fill="#010001" class="color000000 svgShape"><path d="M139.54 596.25h.06Z" style="mix-blend-mode:multiply" fill="url(#V)"></path><path fill="url(#i)" d="M50.46 521.87h124.53v135.82H50.46z"></path><path fill="#f6f8fb" d="M53.76 526.49c-2.2-1.27-3.3-3-3.3-4.62s1.1-3.35 3.3-4.63l50.95-29.41c4.41-2.55 11.62-2.55 16 0l51 29.41c2.21 1.28 3.31 3 3.31 4.63s-1.1 3.35-3.31 4.62l-50.95 29.42c-4.4 2.54-11.61 2.54-16 0Z" class="colorf6f6fb svgShape"></path></g><g mask="url(#W)" fill="#010001" class="color000000 svgShape"><path d="M756.45 176.44h.08Z" style="mix-blend-mode:multiply" fill="url(#X)"></path><path fill="url(#Y)" d="M648.15 86.02h151.4v165.12h-151.4z"></path><path fill="#f6f8fb" d="M652.16 91.64c-2.67-1.55-4-3.58-4-5.62s1.34-4.08 4-5.62l62-35.77c5.35-3.09 14.12-3.09 19.47 0l61.9 35.77c2.68 1.54 4 3.58 4 5.62s-1.33 4.07-4 5.62l-61.95 35.76c-5.35 3.1-14.12 3.1-19.47 0Z" class="colorf6f6fb svgShape"></path></g><path fill="#f4f6f8" d="m364.31 438.45-19.58-11.3-72.66-41.95v-25.67a9.52 9.52 0 0 1 4.3-7.45L293.88 342l118.77 68.57Z" class="colorf4f4f8 svgShape"></path><path fill="url(#Z)" d="M364.31 438.45v4.97l-92.24-53.25v-4.97l92.24 53.25z"></path><g style="mix-blend-mode:multiply" fill="#010001" class="color000000 svgShape"><path fill="#dfe9f4" d="M363.14 440.26a2.5 2.5 0 0 0-1.14-2c-.63-.37-1.14-.07-1.14.66a2.52 2.52 0 0 0 1.14 2c.63.37 1.14.08 1.14-.66ZM357.45 437a2.52 2.52 0 0 0-1.14-2c-.63-.36-1.14-.07-1.14.66a2.53 2.53 0 0 0 1.14 2c.63.34 1.14.04 1.14-.66ZM351.76 433.69a2.5 2.5 0 0 0-1.14-2c-.63-.37-1.15-.07-1.15.65a2.54 2.54 0 0 0 1.15 2c.63.37 1.14.08 1.14-.65ZM346.07 430.4a2.53 2.53 0 0 0-1.15-2c-.63-.36-1.14-.07-1.14.66a2.5 2.5 0 0 0 1.14 2c.63.37 1.15.07 1.15-.66ZM340.37 427.12a2.53 2.53 0 0 0-1.14-2c-.63-.36-1.14-.07-1.14.66a2.53 2.53 0 0 0 1.14 2c.63.36 1.14.06 1.14-.66ZM334.68 423.83a2.5 2.5 0 0 0-1.14-2c-.63-.37-1.14-.07-1.14.66a2.52 2.52 0 0 0 1.14 2c.63.36 1.14.07 1.14-.66ZM329 420.55a2.52 2.52 0 0 0-1.14-2c-.63-.36-1.14-.07-1.14.66a2.5 2.5 0 0 0 1.14 2c.62.36 1.14.06 1.14-.66ZM323.3 417.26a2.53 2.53 0 0 0-1.14-2c-.63-.36-1.14-.07-1.14.66a2.52 2.52 0 0 0 1.14 2c.63.36 1.14.08 1.14-.66ZM317.61 414a2.5 2.5 0 0 0-1.15-2c-.63-.36-1.14-.07-1.14.66a2.5 2.5 0 0 0 1.14 2c.63.34 1.15.04 1.15-.66ZM311.91 410.69a2.53 2.53 0 0 0-1.14-2c-.63-.36-1.14-.07-1.14.66a2.53 2.53 0 0 0 1.14 2c.63.36 1.14.07 1.14-.66ZM306.22 407.4a2.5 2.5 0 0 0-1.14-2c-.63-.37-1.14-.08-1.14.66a2.53 2.53 0 0 0 1.14 2c.63.36 1.14.07 1.14-.66ZM300.53 404.12a2.52 2.52 0 0 0-1.14-2c-.63-.36-1.14-.07-1.14.66a2.52 2.52 0 0 0 1.14 2c.61.36 1.14.06 1.14-.66ZM294.84 400.83a2.53 2.53 0 0 0-1.14-2c-.63-.36-1.14-.07-1.14.66a2.53 2.53 0 0 0 1.14 2c.63.36 1.14.07 1.14-.66ZM289.15 397.54a2.52 2.52 0 0 0-1.14-2c-.63-.37-1.14-.07-1.14.66a2.5 2.5 0 0 0 1.14 2c.63.37 1.14.07 1.14-.66ZM283.46 394.26a2.52 2.52 0 0 0-1.15-2c-.63-.36-1.14-.07-1.14.66a2.53 2.53 0 0 0 1.14 2c.69.36 1.15.08 1.15-.66ZM277.76 391a2.53 2.53 0 0 0-1.14-2c-.63-.36-1.14-.06-1.14.66a2.53 2.53 0 0 0 1.14 2c.63.34 1.14.04 1.14-.66Z" class="colordfe4f4 svgShape"></path></g><path d="m324.82 359.83-48.34 27.91 1.1.64 48.34-27.91Zm68.3 39.44-48.34 27.91 1.1.63 48.34-27.91Zm-22.77-13.15L322 414l1.1.64 48.35-27.91ZM359 379.55l-48.34 27.91 1.1.64 48.34-27.91Zm-45.53-26.29-41.37 23.88v1.28l42.47-24.52-.82-.48Zm68.3 39.43-48.35 27.92 1.11.63 48.34-27.91Zm-82.5 8.2 1.11.63 48.34-27.91-1.1-.63Zm3.92-53.57-.09-.05-1-.58-30 17.31v1.27Zm33 19.08-48.34 27.92 1.1.63L337.31 367Zm68.31 39.44-48.35 27.91 1.1.64 48.35-27.91-.17-.1Z" style="mix-blend-mode:multiply" fill="#f6f8fb" class="colorf6f6fb svgShape"></path><path style="mix-blend-mode:multiply" fill="url(#aa)" d="M286.65 398.47v-4.85l-14.58-8.42v4.97l14.58 8.3z"></path><path d="M365.87 383.41 294 341.91l-17.62 10.17a9.52 9.52 0 0 0-4.3 7.45v25.67l14.55 8.4h72l8.65-5a1.43 1.43 0 0 0 .8-1.46 4.74 4.74 0 0 0-2.21-3.73Z" style="mix-blend-mode:multiply" fill="url(#ab)"></path><path d="M315 382h-.9c-6.11 0-13.58 1.34-16.58 3.19-.4.24-.38.66.31 1.73a11.75 11.75 0 0 0 3.65 2.91 20.62 20.62 0 0 0 7.33 1.12H315Z" style="mix-blend-mode:multiply" fill="url(#ac)"></path><path fill="#bbd0e6" d="M299.66 372.15v4c-1.13-.65-2-.12-2 1.18v4.1a4.53 4.53 0 0 0 2 3.55c1.13.65 2 .12 2-1.19v-4.06l3.48 2v4.06c0 3.53-2.47 5-5.53 3.19a12.2 12.2 0 0 1-5.52-9.57v-4.1c.05-3.49 2.52-4.92 5.57-3.16Z" class="colorbbc0e6 svgShape"></path><path fill="url(#ad)" d="m299.66 376.17 4.28-2.47v4.12a4.07 4.07 0 0 0 .06.59l-2.31 1.34v4.06c0 1.31-.92 1.84-2 1.19a4.53 4.53 0 0 1-2-3.55v-4.1c-.07-1.3.84-1.83 1.97-1.18Z"></path><path fill="#cee3f8" d="M294.14 375.34v4.1a12.2 12.2 0 0 0 5.52 9.57c3.06 1.77 5.53.34 5.53-3.19v-4.09a12.22 12.22 0 0 0-5.53-9.58c-3.05-1.76-5.52-.33-5.52 3.19Zm3.48 2c0-1.3.91-1.83 2-1.18a4.53 4.53 0 0 1 2 3.55v4.09c0 1.31-.92 1.84-2 1.19a4.53 4.53 0 0 1-2-3.55Z" class="colorced3f8 svgShape"></path><path fill="url(#ae)" d="m303.57 389.4.13-.08a4 4 0 0 0 1.49-3.5v-4.09a12.22 12.22 0 0 0-5.53-9.58 4 4 0 0 0-3.77-.45l6.13-3.54.18-.11a4 4 0 0 1 3.78.46 12.22 12.22 0 0 1 5.53 9.57v4.1a3.89 3.89 0 0 1-1.62 3.58l-6.35 3.66Z"></path><path fill="#cee3f8" d="m295.49 368 3.11-3.25 3.06 1.77 3.07 6.82-3.35-1.94-1.72-3.54-1.6 1.63Z" class="colorced3f8 svgShape"></path><path fill="#bbd0e6" d="m304.73 373.31-3.07-6.82 6.35-3.7 3.07 6.82-6.35 3.7z" class="colorbbc0e6 svgShape"></path><path fill="#ffffff" d="m301.66 366.49-3.06-1.77 6.35-3.7 3.06 1.77-6.35 3.7z" class="colorffffff svgShape"></path><path d="m364.78 389.18-15.49-8.9c-1.54-.9-8.52-.9-10.07 0l-15.49 8.9c-1.54.89-1.54 2.34 0 3.24l14.51 8.33V402h8.24a5.8 5.8 0 0 0 2.81-.66l15.49-8.9c1.54-.91 1.54-2.37 0-3.26Z" style="mix-blend-mode:multiply" fill="url(#af)"></path><path fill="#ffffff" d="M341.05 396.48a6.25 6.25 0 0 1-5.62 0l-15.49-8.9c-1.54-.89-1.54-2.35 0-3.24l15.49-8.9a6.25 6.25 0 0 1 5.62 0l15.48 8.9c1.55.89 1.55 2.35 0 3.24Z" class="colorffffff svgShape"></path><path fill="url(#ag)" d="m319.94 387.58 15.49 8.9a6.25 6.25 0 0 0 5.62 0l15.49-8.9a2 2 0 0 0 1.14-1.46v4.53a1.41 1.41 0 0 1 0 .29 2.07 2.07 0 0 1-1.14 1.47l-15.49 8.9a6.25 6.25 0 0 1-5.62 0l-15.49-8.9a2 2 0 0 1-1.15-1.65V386a2 2 0 0 0 1.15 1.58Z"></path><path fill="#857dfb" d="m345.92 382.22-6.2 3.59a4.25 4.25 0 0 0 2.33.51 5 5 0 0 0 2.31-.63c.94-.54 1.35-1.16 1.24-1.85l2.09.05c0 1.06-.63 2-2 2.75a7.85 7.85 0 0 1-4.66 1q.24 1.59-1.83 2.79a6.55 6.55 0 0 1-3 .86 5 5 0 0 1-2.89-.6c-.81-.47-1.11-1-.9-1.55a4.06 4.06 0 0 1 1.89-1.76l2.3-1.38-.37-.21a3.29 3.29 0 0 0-3.5.1 3.33 3.33 0 0 0-1.57 1.88l-1.87-.18a4.13 4.13 0 0 1 2.23-2.68 6.55 6.55 0 0 1 3.93-.93q0-1.32 1.68-2.31a8 8 0 0 1 3.85-1 7.34 7.34 0 0 1 3.94 1Zm-7.47 4.9-.5-.29L336 388c-1 .56-1.41 1-1.31 1.27a.79.79 0 0 0 .4.39 2.21 2.21 0 0 0 1.4.27 4.25 4.25 0 0 0 1.63-.57 1.85 1.85 0 0 0 1-1.11c.08-.46-.12-.83-.67-1.13Zm2.24-5.16a4.25 4.25 0 0 0-2 .56 1.92 1.92 0 0 0-1 1.21c-.1.47.13.9.69 1.28l4.46-2.55a4.34 4.34 0 0 0-2.15-.46Z" class="color807dfb svgShape"></path><path fill="#f4f6f8" d="M511 397.29c6.15 3.55 6.15 9.36 0 12.91l-68 39.25c-6.15 3.55-16.22 3.55-22.37 0l-68-39.25c-6.15-3.55-6.15-9.36 0-12.91l68-39.25c6.15-3.55 16.22-3.55 22.37 0Z" class="colorf4f4f8 svgShape"></path><path fill="url(#ah)" d="m511 410.2-68 39.25c-6.15 3.55-16.22 3.55-22.37 0l-68-39.25c-3.07-1.77-4.61-4.11-4.61-6.46v50.68c0 2.34 1.54 4.68 4.61 6.46l68 39.25c6.15 3.55 16.22 3.55 22.37 0l68-39.25c3-1.76 4.59-4.08 4.61-6.41V403.8c-.03 2.32-1.61 4.64-4.61 6.4Z"></path><path d="M306.89 606h.08Z" style="mix-blend-mode:multiply" fill="url(#ai)"></path><path d="m584.13 389.49 7.45-4.3v-25.67a9.5 9.5 0 0 0-4.3-7.45L569.77 342l-34 19.62Z" style="mix-blend-mode:multiply" fill="url(#n)"></path><path d="m403.42 285.17 7.46-4.3V255.2a9.51 9.51 0 0 0-4.31-7.45l-17.51-10.11-34 19.62Z" style="mix-blend-mode:multiply" fill="url(#aj)"></path><path d="m460.33 285.11-7.45-4.3v-25.67a9.51 9.51 0 0 1 4.3-7.46l17.51-10.1 34 19.62Z" style="mix-blend-mode:multiply" fill="url(#ak)"></path><path d="m279.52 389.5-7.45-4.3v-25.67a9.52 9.52 0 0 1 4.3-7.45L293.88 342l34 19.62Z" style="mix-blend-mode:multiply" fill="url(#al)"></path><path transform="rotate(60 374.142 461.914)" style="mix-blend-mode:multiply" fill="url(#o)" d="M365.95 457.9h16.38v8.02h-16.38z"></path><path fill="url(#am)" d="m361 452.39 5.9-3.41a3.28 3.28 0 0 1 3.31.33 10.37 10.37 0 0 1 4.69 8.13 3.29 3.29 0 0 1-1.37 3l-5.9 3.41Z"></path><path fill="#857dfb" d="M359.61 455.43a10.37 10.37 0 0 0 4.69 8.12 2.86 2.86 0 0 0 4.69-2.71 10.37 10.37 0 0 0-4.69-8.12 2.86 2.86 0 0 0-4.69 2.71Z" class="color807dfb svgShape"></path><path transform="rotate(60 392.106 472.327)" style="mix-blend-mode:multiply" fill="url(#an)" d="M383.92 468.32h16.38v8.02h-16.38z"></path><path fill="url(#p)" d="m379 462.81 5.9-3.41a3.28 3.28 0 0 1 3.31.33 10.37 10.37 0 0 1 4.69 8.12 3.29 3.29 0 0 1-1.37 3l-5.9 3.41Z"></path><path fill="#6bb5ff" d="M377.58 465.84a10.37 10.37 0 0 0 4.69 8.13 2.86 2.86 0 0 0 4.69-2.71 10.35 10.35 0 0 0-4.69-8.12 2.86 2.86 0 0 0-4.69 2.7Z" class="colorffc16b svgShape"></path><path transform="rotate(60 410.083 482.744)" style="mix-blend-mode:multiply" fill="url(#ao)" d="M401.89 478.74h16.38v8.02h-16.38z"></path><path fill="url(#q)" d="m396.93 473.23 5.9-3.41a3.28 3.28 0 0 1 3.31.33 10.35 10.35 0 0 1 4.69 8.12 3.29 3.29 0 0 1-1.37 3l-5.9 3.4Z"></path><path fill="#f6f8fb" d="M395.55 476.26a10.35 10.35 0 0 0 4.69 8.12 2.86 2.86 0 0 0 4.69-2.7 10.39 10.39 0 0 0-4.69-8.13 2.86 2.86 0 0 0-4.69 2.71Z" class="colorf6f6fb svgShape"></path><path transform="rotate(60 374.142 439.893)" style="mix-blend-mode:multiply" fill="url(#ap)" d="M365.95 435.88h16.38v8.02h-16.38z"></path><path fill="url(#aq)" d="m361 430.37 5.9-3.41a3.28 3.28 0 0 1 3.31.33 10.37 10.37 0 0 1 4.69 8.12 3.29 3.29 0 0 1-1.37 3l-5.9 3.41Z"></path><path fill="#6bb5ff" d="M359.61 433.4a10.37 10.37 0 0 0 4.69 8.13 2.86 2.86 0 0 0 4.69-2.71 10.35 10.35 0 0 0-4.69-8.12 2.86 2.86 0 0 0-4.69 2.7Z" class="colorffc16b svgShape"></path><path transform="rotate(60 392.106 450.307)" style="mix-blend-mode:multiply" fill="url(#ar)" d="M383.92 446.3h16.38v8.02h-16.38z"></path><path fill="url(#as)" d="m379 440.79 5.9-3.41a3.28 3.28 0 0 1 3.31.33 10.35 10.35 0 0 1 4.69 8.12 3.29 3.29 0 0 1-1.37 3l-5.9 3.4Z"></path><path fill="#f6f8fb" d="M377.58 443.82a10.35 10.35 0 0 0 4.69 8.12 2.86 2.86 0 0 0 4.69-2.7 10.39 10.39 0 0 0-4.69-8.13 2.86 2.86 0 0 0-4.69 2.71Z" class="colorf6f6fb svgShape"></path><path transform="rotate(60 410.083 460.724)" style="mix-blend-mode:multiply" fill="url(#at)" d="M401.89 456.71h16.38v8.02h-16.38z"></path><path fill="url(#au)" d="m396.93 451.2 5.9-3.4a3.28 3.28 0 0 1 3.31.33 10.35 10.35 0 0 1 4.69 8.12 3.29 3.29 0 0 1-1.37 3l-5.9 3.41Z"></path><path fill="#6bb5ff" d="M395.55 454.24a10.35 10.35 0 0 0 4.69 8.12 2.86 2.86 0 0 0 4.69-2.71 10.37 10.37 0 0 0-4.69-8.12 2.86 2.86 0 0 0-4.69 2.71Z" class="colorffc16b svgShape"></path><path fill="url(#r)" d="M638.27 391.59a2.86 2.86 0 0 1 2.55 0 .78.78 0 0 1 0 1.47 2.8 2.8 0 0 1-2.55 0 .78.78 0 0 1 0-1.47Z"></path><path fill="url(#av)" d="M632.89 380a3.17 3.17 0 0 1 1.43-2.47c.79-.46 1.43-.09 1.43.82a3.14 3.14 0 0 1-1.43 2.47c-.79.46-1.43.09-1.43-.82Z"></path><path fill="url(#s)" d="M639.55 393.36a.68.68 0 0 1-.69-.68V382.5l-5.23-3a.68.68 0 0 1-.25-.93.7.7 0 0 1 .94-.26l5.57 3.22a.69.69 0 0 1 .34.6v10.57a.67.67 0 0 1-.68.66Z"></path><path fill="url(#aw)" d="M687.46 363.2a2.78 2.78 0 0 1 2.54 0c.71.4.71 1.06 0 1.47a2.84 2.84 0 0 1-2.54 0c-.71-.41-.71-1.07 0-1.47Z"></path><path fill="url(#ax)" d="M682.08 351.6a3.17 3.17 0 0 1 1.42-2.47c.79-.45 1.43-.08 1.43.83a3.16 3.16 0 0 1-1.43 2.47c-.78.45-1.42.08-1.42-.83Z"></path><path fill="url(#ay)" d="M688.73 365a.69.69 0 0 1-.69-.69v-10.2l-5.23-3a.7.7 0 0 1-.25-.94.69.69 0 0 1 .94-.25l5.57 3.22a.68.68 0 0 1 .35.59v10.57a.69.69 0 0 1-.69.7Z"></path><path d="m226 378.28-37-21.4a6.79 6.79 0 0 1-2.82-5.4V335.1c0-2.08 1.27-3 2.82-2.13L225.43 354l-.11-2.11 2.59 4.49a7.1 7.1 0 0 1 1 3.36v16.38c-.05 2.11-1.32 3.06-2.91 2.16Z" style="mix-blend-mode:multiply" fill="url(#az)"></path><path fill="#dae7f5" d="m220.86 351.51-37.08-21.41c-1.56-.9-2.82 0-2.82 2.13v16.38a6.77 6.77 0 0 0 2.82 5.4l37.08 21.4c1.56.9 2.82-.05 2.82-2.13V356.9a6.75 6.75 0 0 0-2.82-5.39Z" class="colordae0f5 svgShape"></path><path fill="#6f67e9" d="m186.18 352 32.28 18.64v-17.13l-32.28-18.64V352z" class="color6b67e9 svgShape"></path><path fill="url(#aA)" d="M222.7 375.54a2.46 2.46 0 0 0 1-2.26V356.9a6.75 6.75 0 0 0-2.82-5.39l-37.1-21.41a1.8 1.8 0 0 0-1.77-.17l2.66-1.53a1.79 1.79 0 0 1 1.75.18L223.5 350a6.77 6.77 0 0 1 2.82 5.4v16.38a2.52 2.52 0 0 1-.95 2.25l-2.67 1.54Z"></path><path fill="#5046e4" d="m191.79 348.93-3.14-1.82v3.63l3.14 1.81v-3.62zM206.5 350.07l-3.14-1.81v3.62l3.14 1.82v-3.63z" class="color5652cc svgShape"></path><path fill="#857dfb" d="m213.68 358.28-5.39-3.11v6.22l5.39 3.11v-6.22z" class="color807dfb svgShape"></path><path fill="#342e94" d="m200.22 346.45-6.51-3.76v7.52l6.51 3.76v-7.52z" class="color362e94 svgShape"></path><path fill="#a1b7ce" d="m635.6 344.56-2.56 1.47v18.78l2.56 1.47v-21.72z" class="colora1a7ce svgShape"></path><path fill="#cce1f6" d="m635.6 366.28-2.56-1.47v2.95l2.56-1.48z" class="colorccd1f6 svgShape"></path><path fill="#a1b7ce" d="m641.75 341.01-2.56 1.47v18.78l2.56 1.47v-21.72z" class="colora1a7ce svgShape"></path><path fill="#cce1f6" d="m641.75 362.73-2.56-1.47v2.95l2.56-1.48z" class="colorccd1f6 svgShape"></path><path fill="#a1b7ce" d="m647.9 337.46-2.56 1.48v18.77l2.56 1.47v-21.72z" class="colora1a7ce svgShape"></path><path fill="#cce1f6" d="m647.9 359.18-2.56-1.47v2.95l2.56-1.48z" class="colorccd1f6 svgShape"></path><path fill="#a1b7ce" d="m654.04 333.91-2.55 1.47v18.78l2.55 1.47v-21.72z" class="colora1a7ce svgShape"></path><path fill="#cce1f6" d="m654.04 355.63-2.55-1.47v2.95l2.55-1.48z" class="colorccd1f6 svgShape"></path><path fill="#a1b7ce" d="m660.19 330.36-2.56 1.48v18.77l2.56 1.47v-21.72z" class="colora1a7ce svgShape"></path><path fill="#cce1f6" d="m660.19 352.08-2.56-1.47v2.95l2.56-1.48z" class="colorccd1f6 svgShape"></path><path fill="#a1b7ce" d="m666.34 326.81-2.56 1.48v18.77l2.56 1.48v-21.73z" class="colora1a7ce svgShape"></path><path fill="#cce1f6" d="m666.34 348.54-2.56-1.48v2.95l2.56-1.47z" class="colorccd1f6 svgShape"></path><path fill="#a1b7ce" d="m672.49 323.26-2.56 1.48v18.77l2.56 1.48v-21.73z" class="colora1a7ce svgShape"></path><path fill="#cce1f6" d="m672.49 344.99-2.56-1.48v2.95l2.56-1.47z" class="colorccd1f6 svgShape"></path><path fill="#a1b7ce" d="m678.63 319.71-2.55 1.48v18.77l2.55 1.48v-21.73z" class="colora1a7ce svgShape"></path><path fill="#cce1f6" d="m678.63 341.44-2.55-1.48v2.95l2.55-1.47z" class="colorccd1f6 svgShape"></path><path fill="#a1b7ce" d="m684.78 316.16-2.55 1.48v18.77l2.55 1.48v-21.73z" class="colora1a7ce svgShape"></path><path fill="#cce1f6" d="m684.78 337.89-2.55-1.48v2.95l2.55-1.47z" class="colorccd1f6 svgShape"></path><path d="m226.49 423-12.77-16c-2.34-2.92-7.62-4.19-12.3-2.95-2.81.75-4.68 2.17-5.29 4a4.32 4.32 0 0 0 .91 4.13l9.61 12.05a.9.9 0 1 0 1.41-1.13l-9.61-12.1a2.59 2.59 0 0 1-.6-2.43c.4-1.22 1.87-2.25 4-2.83 4-1.05 8.54 0 10.42 2.33l12.77 16a2 2 0 0 1 .49 1.86c-.31.92-1.44 1.7-3.12 2.15l-.32.07c-3.2.74-7-.06-8.38-1.82l-8.56-10.73a1.11 1.11 0 0 1-.26-1.11c.18-.57 1-1.33 2.55-1.76 2.46-.65 5.45-.07 6.53 1.28l5.39 6.77a.92.92 0 0 0 1.28.14.9.9 0 0 0 .14-1.27l-5.4-6.77c-1.53-1.91-5.22-2.75-8.41-1.9-2 .53-3.36 1.6-3.8 2.94a2.9 2.9 0 0 0 .57 2.81l8.55 10.73c1.41 1.76 4.28 2.79 7.31 2.79a13.06 13.06 0 0 0 3.28-.42l.35-.11c2.11-.64 3.54-1.77 4-3.22a3.74 3.74 0 0 0-.74-3.5Z" style="mix-blend-mode:multiply" fill="url(#aB)"></path><path fill="url(#aC)" d="m212.61 425.39-8.56-10.72a1.16 1.16 0 0 1-.27-1.12c.19-.57 1-1.33 2.56-1.75 2.46-.66 5.45-.07 6.53 1.28l5.39 6.77a.92.92 0 0 0 1.28.14.9.9 0 0 0 .14-1.27l-5.4-6.77c-1.53-1.92-5.22-2.75-8.41-1.9-2 .52-3.36 1.59-3.8 2.93a2.92 2.92 0 0 0 .57 2.82l8.55 10.72c1.4 1.76 4.28 2.79 7.3 2.79a13.08 13.08 0 0 0 3.29-.42l.35-.11-1.13-1.57c-3.22.79-7-.06-8.39-1.82Z"></path><path fill="#fb4bdb" d="m225.35 422-12.76-16c-2.34-2.93-7.62-4.2-12.3-2.95-2.81.74-4.68 2.17-5.29 4a4.35 4.35 0 0 0 .9 4.13l9.61 12a.9.9 0 1 0 1.42-1.12l-9.61-12.05a2.61 2.61 0 0 1-.6-2.44c.4-1.22 1.87-2.25 4-2.82 4-1.06 8.54 0 10.42 2.33l12.77 16a2 2 0 0 1 .48 1.87c-.3.91-1.43 1.69-3.11 2.14l-.32.07 1.14 1.57c2.11-.64 3.54-1.77 4-3.22a3.73 3.73 0 0 0-.75-3.51Z" class="colorfb944b svgShape"></path><path d="M714.7 435.42a14.14 14.14 0 0 0-13.15.21L685.31 445a.9.9 0 1 0 .9 1.57l16.24-9.38a12.38 12.38 0 0 1 11.34-.2c1.28.74 2 1.65 2 2.55s-.86 2.09-2.34 2.95L691.86 455a9.72 9.72 0 0 1-9 .2l-.13-.08a2.69 2.69 0 0 1-1.54-2.1 2.78 2.78 0 0 1 1.68-2.19l14.46-8.34a7.9 7.9 0 0 1 7.06 0c.75.44 1.19 1 1.19 1.51a2 2 0 0 1-1.19 1.52l-9.13 5.26a.91.91 0 1 0 .91 1.57l9.12-5.27a3.31 3.31 0 0 0 0-6.16 9.65 9.65 0 0 0-8.87 0l-14.46 8.35a4.47 4.47 0 0 0-2.58 3.75 4.11 4.11 0 0 0 1.81 3.23 7.39 7.39 0 0 0 .77.52A10.32 10.32 0 0 0 687 458a11.62 11.62 0 0 0 5.72-1.46l21.58-12.46c2.09-1.21 3.25-2.82 3.25-4.52s-.99-3.06-2.85-4.14Z" style="mix-blend-mode:multiply" fill="url(#aD)"></path><path fill="url(#aE)" d="M680 452a2.76 2.76 0 0 1 1.67-2.18l14.46-8.35a8 8 0 0 1 7.06 0c.76.44 1.2 1 1.2 1.52s-.44 1.07-1.2 1.51l-9.12 5.27a.91.91 0 0 0 .91 1.57l9.12-5.27a3.32 3.32 0 0 0 0-6.17 9.71 9.71 0 0 0-8.87 0l-14.46 8.35a4.46 4.46 0 0 0-2.58 3.75 4.08 4.08 0 0 0 1.81 3.23l1.53-1.13A2.67 2.67 0 0 1 680 452Z"></path><path fill="#453eaf" d="M713.57 434.47a14.13 14.13 0 0 0-13.15.2l-16.24 9.38a.9.9 0 1 0 .9 1.56l16.24-9.37c3.28-1.89 8.26-2 11.34-.21 1.28.74 2 1.65 2 2.56s-.86 2.08-2.34 2.94L690.72 454a9.7 9.7 0 0 1-9 .21l-.14-.09-1.58 1.12a7.44 7.44 0 0 0 .77.53 10.28 10.28 0 0 0 5.1 1.25 11.66 11.66 0 0 0 5.73-1.46l21.58-12.46c2.09-1.21 3.25-2.81 3.25-4.51s-1-3.05-2.86-4.12Z" class="color423eaf svgShape"></path><path style="mix-blend-mode:multiply" fill="url(#aF)" d="m688.35 464.65-17.69-10.21-17.87 7.07 13.81 7.98-41.72 24.08h3.15l3.5-2.02h10.21l46.61-26.9z"></path><path fill="#dae7f5" d="m604.15 421.25-50.7 29.27 71.43 41.24 50.7-29.27-71.43-41.24z" class="colordae0f5 svgShape"></path><path fill="#eff1f3" d="M624.88 482.4v7.34l-67.08-38.73v-7.34l67.08 38.73z" class="colorefeff3 svgShape"></path><path fill="#dae7f5" d="M672.08 455.15v7.34l-47.2 27.25v-7.34l47.2-27.25z" class="colordae0f5 svgShape"></path><path fill="#ffffff" d="m605 416.42 67.08 38.73-47.2 27.25-67.08-38.73 47.2-27.25z" class="colorffffff svgShape"></path><path fill="#f4f6f8" d="m663.61 450.26 1.16.67-47.2 27.25-1.16-.67 47.2-27.25zM655.3 445.46l1.16.67-47.2 27.25-1.16-.67 47.2-27.25zM646.99 440.66l1.16.67-47.2 27.25-1.16-.67 47.2-27.25zM638.68 435.87l1.16.66-47.2 27.25-1.16-.67 47.2-27.24zM630.37 431.07l1.16.67-47.2 27.25-1.16-.67 47.2-27.25zM622.06 426.27l1.16.67-47.2 27.25-1.16-.67 47.2-27.25zM613.75 421.47l1.15.67-47.19 27.25-1.16-.67 47.2-27.25z" class="colorf1f1f6 svgShape"></path><path fill="#cee3f8" d="M624.88 491.76v1.81l-71.42-41.23h-.01v-1.82l71.43 41.24z" class="colorced3f8 svgShape"></path><path fill="#bbd0e6" d="m624.88 491.76 50.7-29.27v1.81l-50.7 29.27v-1.81z" class="colorbbc0e6 svgShape"></path><path style="mix-blend-mode:multiply" fill="url(#t)" d="M604.31 422.09h4.41v1.28h-4.41z"></path><path fill="url(#u)" d="M605.51 421.49a3 3 0 0 0-2.71 0 .83.83 0 0 0 0 1.56 3 3 0 0 0 2.71 0 .82.82 0 0 0 0-1.56Z"></path><path fill="url(#v)" d="M603.46 423.3a8.86 8.86 0 0 0-3.85-6.13 3.07 3.07 0 0 0-1.51-.48 1.43 1.43 0 0 0-.72.18 2.3 2.3 0 0 0-.85 2.08 6.87 6.87 0 0 0 .39 2.13l-1.43.83a8.57 8.57 0 0 1-.59-3 3.42 3.42 0 0 1 5.53-3.19 10.44 10.44 0 0 1 4.66 7.48 3.21 3.21 0 0 1-1.63.1Z"></path><path style="mix-blend-mode:multiply" fill="url(#aG)" d="M595.32 427.28h4.41v1.28h-4.41z"></path><path fill="url(#aH)" d="M596.53 426.67a3 3 0 0 0-2.71 0 .83.83 0 0 0 0 1.57 3 3 0 0 0 2.71 0 .83.83 0 0 0 0-1.57Z"></path><path fill="url(#aI)" d="M594.48 428.48a8.89 8.89 0 0 0-3.85-6.13 3.19 3.19 0 0 0-1.52-.47 1.36 1.36 0 0 0-.71.17 2.33 2.33 0 0 0-.85 2.09 7 7 0 0 0 .39 2.13l-1.44.83a8.79 8.79 0 0 1-.58-3 3.42 3.42 0 0 1 5.53-3.2 10.39 10.39 0 0 1 4.65 7.48 3.06 3.06 0 0 1-1.62.1Z"></path><path style="mix-blend-mode:multiply" fill="url(#aJ)" d="M586.34 432.46h4.41v1.28h-4.41z"></path><path fill="url(#aK)" d="M587.55 431.86a3 3 0 0 0-2.71 0 .82.82 0 0 0 0 1.56 3 3 0 0 0 2.71 0 .82.82 0 0 0 0-1.56Z"></path><path fill="url(#aL)" d="M585.49 433.67a8.85 8.85 0 0 0-3.84-6.13 3.11 3.11 0 0 0-1.52-.48 1.36 1.36 0 0 0-.71.18 2.31 2.31 0 0 0-.86 2.08 6.61 6.61 0 0 0 .4 2.13l-1.44.83a8.81 8.81 0 0 1-.59-3 3.8 3.8 0 0 1 1.67-3.49 3.76 3.76 0 0 1 3.86.3 10.37 10.37 0 0 1 4.66 7.48 3.2 3.2 0 0 1-1.63.1Z"></path><path style="mix-blend-mode:multiply" fill="url(#aM)" d="M577.36 437.65h4.41v1.28h-4.41z"></path><path fill="url(#aN)" d="M578.57 437.05a3 3 0 0 0-2.71 0 .82.82 0 0 0 0 1.56 3 3 0 0 0 2.71 0 .83.83 0 0 0 0-1.56Z"></path><path fill="url(#aO)" d="M576.51 438.85a8.81 8.81 0 0 0-3.84-6.12 3.11 3.11 0 0 0-1.52-.48 1.46 1.46 0 0 0-.71.17 2.31 2.31 0 0 0-.86 2.09 6.66 6.66 0 0 0 .4 2.13l-1.44.83a8.81 8.81 0 0 1-.59-3 3.42 3.42 0 0 1 5.53-3.2 10.38 10.38 0 0 1 4.66 7.49 3.1 3.1 0 0 1-1.63.09Z"></path><path style="mix-blend-mode:multiply" fill="url(#aP)" d="M568.38 442.84h4.41v1.28h-4.41z"></path><path fill="url(#aQ)" d="M569.58 442.23a3 3 0 0 0-2.7 0 .83.83 0 0 0 0 1.57 3 3 0 0 0 2.7 0 .83.83 0 0 0 0-1.57Z"></path><path fill="url(#aR)" d="M567.53 444a8.88 8.88 0 0 0-3.84-6.13 3.22 3.22 0 0 0-1.52-.48 1.43 1.43 0 0 0-.72.18 2.3 2.3 0 0 0-.85 2.08 6.87 6.87 0 0 0 .39 2.13l-1.43.83a8.52 8.52 0 0 1-.59-3 3.42 3.42 0 0 1 5.53-3.19 10.41 10.41 0 0 1 4.66 7.48 3.1 3.1 0 0 1-1.63.1Z"></path><path style="mix-blend-mode:multiply" fill="#e8eff7" d="M624.88 489.74h3.5l47.2-27.25-3.5-2.03v2.03l-47.2 27.25z" class="colore8ecf7 svgShape"></path><path d="M538.62 468.61a4.12 4.12 0 0 0-2.15.54l-2.43 1.4-.45-.26a.76.76 0 0 0-.72 0l-8.52 4.92a1.05 1.05 0 0 0-.29.23l-.4.58-88.83 54.28-5.06 7.85L443 534l84.75-48.93a.76.76 0 0 0 .72 0l8.52-4.92a1 1 0 0 0 .28-.23l.61-.87 3.17-1.84a4.64 4.64 0 0 0-2.44-8.6Z" style="mix-blend-mode:multiply" fill="url(#aS)"></path><path fill="url(#aT)" d="M531.12 467a4.17 4.17 0 0 0-2.15.54l-3 1.76a3.66 3.66 0 0 1 .83.36 8.29 8.29 0 0 1 3.76 6.5 3.6 3.6 0 0 1-.25 1.34l3.28-1.9a4.64 4.64 0 0 0-2.44-8.6Z"></path><path fill="url(#aU)" d="M426.34 530.68a2.69 2.69 0 0 1 1.21 2.11c0 .47-.2.76-.51.84l8.47-1.24 1.82-2.58-1.82-4.66-3.61-2.09-6.51 7.62a.78.78 0 0 1 .95 0Z"></path><path fill="url(#aV)" d="M426.34 530.68a.78.78 0 0 0-.95 0l-.1.12-3 3.53 4.69-.69h.02c.31-.08.51-.37.51-.84a2.69 2.69 0 0 0-1.17-2.12Z"></path><path fill="#cee3f8" d="M517.3 481.76a2.24 2.24 0 0 1-.82-1L515 477a1.36 1.36 0 0 1 .15-1.16l1.41-2a.75.75 0 0 1 1-.21l3 1.7a2.24 2.24 0 0 1 .82 1l1.47 3.79a1.38 1.38 0 0 1-.14 1.17l-1.41 2a.74.74 0 0 1-1 .21Z" class="colorced3f8 svgShape"></path><path fill="#fb4bdb" d="m522.51 480.63-85.18 49.18-1.82-4.66 85.19-49.18 1.81 4.66z" class="colorfb944b svgShape"></path><path fill="#e539c6" d="m520.7 483.21-85.19 49.18 1.82-2.58 85.18-49.18-1.81 2.58z" class="colore57139 svgShape"></path><path fill="#6db6ff" d="m520.7 475.97-85.19 49.18-3.61-2.09 85.18-49.18 3.62 2.09z" class="colorffaf6d svgShape"></path><path fill="url(#aW)" d="m531.33 475.12-1.46-3.78a2.34 2.34 0 0 0-.83-1l-2.95-1.7a.74.74 0 0 0-.72 0l-8.52 4.91a.77.77 0 0 1 .68 0l3 1.7a2.24 2.24 0 0 1 .82 1l1.47 3.79a1.38 1.38 0 0 1-.14 1.17l-1.41 2a.73.73 0 0 1-.2.19l8.49-4.9a.85.85 0 0 0 .27-.23l1.41-2a1.4 1.4 0 0 0 .09-1.15Z"></path><path d="M522.26 482.72a.72.72 0 0 0 .2-.19l1.41-2a1.43 1.43 0 0 0 .14-1.18l-1.47-3.78a2.13 2.13 0 0 0-.82-1l-3-1.7a.75.75 0 0 0-.67 0l-.62.35a.77.77 0 0 1 .68 0l3 1.7a2.27 2.27 0 0 1 .83 1l1.46 3.78a1.4 1.4 0 0 1-.14 1.18l-1.41 2a.81.81 0 0 1-.19.18Z" style="mix-blend-mode:multiply" fill="url(#w)"></path><path d="M523.54 482a.71.71 0 0 0 .2-.19l1.4-2a1.38 1.38 0 0 0 .15-1.17l-1.47-3.79a2.19 2.19 0 0 0-.82-1l-3-1.7a.75.75 0 0 0-.67 0l-.62.35a.77.77 0 0 1 .68 0l2.95 1.7a2.24 2.24 0 0 1 .82 1l1.47 3.78a1.4 1.4 0 0 1-.14 1.18l-1.41 2a.7.7 0 0 1-.2.18Z" style="mix-blend-mode:multiply" fill="url(#aX)"></path><path d="M524.82 481.24a.55.55 0 0 0 .19-.18l1.42-2a1.42 1.42 0 0 0 .14-1.17l-1.47-3.79a2.24 2.24 0 0 0-.82-1l-2.95-1.7a.75.75 0 0 0-.67 0l-.62.35a.77.77 0 0 1 .68 0l2.95 1.71a2.16 2.16 0 0 1 .82.95l1.47 3.79a1.38 1.38 0 0 1-.14 1.17l-1.41 2a.68.68 0 0 1-.2.18Z" style="mix-blend-mode:multiply" fill="url(#aY)"></path><path style="mix-blend-mode:multiply" fill="url(#x)" d="M563.78 542.26h-20.85l13.04 7.76-13.04 7.52h20.85l13.23-7.64-13.23-7.64z"></path><path fill="#b9cee4" d="m542.93 557.54 13.04-7.52v-15.29l-13.04 7.53v15.28z" class="colorb9bee4 svgShape"></path><path fill="#cce1f6" d="m542.93 557.54-13.04-7.52v-15.29l13.04 7.53v15.28z" class="colorccd1f6 svgShape"></path><path fill="#f6f8fb" d="m542.93 542.26-13.04-7.53 13.04-7.52 13.04 7.52-13.04 7.53z" class="colorf6f6fb svgShape"></path><path style="mix-blend-mode:multiply" fill="url(#aZ)" d="M312.5 457.79h-17.28l10.8 6.43-10.8 6.23h17.28l10.96-6.33-10.96-6.33z"></path><path fill="#b9cee4" d="m295.22 470.45 10.8-6.23v-12.67l-10.8 6.24v12.66z" class="colorb9bee4 svgShape"></path><path fill="#cce1f6" d="m295.22 470.45-10.8-6.23v-12.67l10.8 6.24v12.66z" class="colorccd1f6 svgShape"></path><path fill="#f6f8fb" d="m295.22 457.79-10.8-6.24 10.8-6.23 10.8 6.23-10.8 6.24z" class="colorf6f6fb svgShape"></path><path style="mix-blend-mode:multiply" fill="url(#ba)" d="M613.5 202.01h-16.99l10.62 6.32-10.62 6.14h16.99l10.79-6.23-10.79-6.23z"></path><path fill="#b9cee4" d="m596.51 214.47 10.62-6.14v-12.46l-10.62 6.14v12.46z" class="colorb9bee4 svgShape"></path><path fill="#cce1f6" d="m596.51 214.47-10.63-6.14v-12.46l10.63 6.14v12.46z" class="colorccd1f6 svgShape"></path><path fill="#f6f8fb" d="m596.51 202.01-10.63-6.14 10.63-6.13 10.62 6.13-10.62 6.14z" class="colorf6f6fb svgShape"></path><path d="M297.61 521.82a7.38 7.38 0 0 0-.83-1.17c-1.12-1.12 1.47-3 2.65-3.66l-3.42-2h-10.09a4.53 4.53 0 0 1-.85-2.63h-4.84a4 4 0 0 1-1.66 3.32 3 3 0 0 1-1 .34c-.69.13-1.36.29-2 .48h-.09c-.65-.19-1.32-.35-2-.49-2.17-.32-2.61-2.7-2.61-3.66H266a4 4 0 0 1-1.66 3.33 2.64 2.64 0 0 1-1 .33c-.69.14-1.36.3-2 .49-2.23.48-5.15-.84-6.32-1.52l-3.43 2c1.16.68 3.73 2.55 2.59 3.67a8.31 8.31 0 0 0-.84 1.16 1.28 1.28 0 0 1-.58.57c-1.33.77-4.38 1-5.75 1v2.8c1.65 0 5.76.27 6.31 1.52a7.38 7.38 0 0 0 .83 1.17c1.13 1.11-1.47 3-2.64 3.66l3.41 2 .43-.23-.4.23h10.08a4.51 4.51 0 0 1 .83 2.61h19l4.74-2.64h6.23l3.44-2c-1.17-.67-3.74-2.54-2.6-3.66a8.73 8.73 0 0 0 .54-.7h3.19l3.43-2v-2.8c-1.67.06-5.66-.27-6.22-1.52Z" style="mix-blend-mode:multiply" fill="url(#bb)"></path><path fill="#f5f7fa" d="M254.51 511.81c0-1.09-1.92-2.46-2.88-3v8.18c1 .56 2.88 1.93 2.88 3Z" class="colorf5f5fa svgShape"></path><path fill="#bbcee2" d="M285.25 517v-8.18c-1 .56-2.92 1.94-2.92 3V520c0-1.08 1.95-2.47 2.92-3Z" class="colorbbbfe2 svgShape"></path><path fill="url(#bc)" d="M262.36 521.21a13.37 13.37 0 0 1 12.13 0c1.66 1 2.5 2.23 2.5 3.49v-8.18c0-1.27-.84-2.53-2.5-3.49a13.37 13.37 0 0 0-12.13 0c-1.69 1-2.54 2.25-2.53 3.53v8.19c-.01-1.28.84-2.57 2.53-3.54Z"></path><path fill="#cee1f4" d="m254.95 526.27-3.41-1.98.02 8.18 3.42 1.98-.03-8.18z" class="colorced2f4 svgShape"></path><path fill="#bbcee2" d="m285.17 532.47-.03-8.18-3.43 1.98.02 8.18 3.44-1.98z" class="colorbbbfe2 svgShape"></path><path fill="url(#bd)" d="M261.31 532.94q1 .28 2 .48c2.13.32 2.59 2.65 2.6 3.63v-8.19c0-1-.46-3.3-2.6-3.62-.68-.13-1.35-.3-2-.48-1.92-.66-5.16.84-6.33 1.51v8.18c1.17-.67 4.4-2.17 6.33-1.51Z"></path><path fill="url(#be)" d="M272.43 533.75a2.78 2.78 0 0 1 1-.33c.69-.13 1.35-.29 2-.48 1.94-.66 5.16.84 6.32 1.51v-8.18c-1.17-.67-4.39-2.17-6.32-1.51-.66.18-1.33.35-2 .48a2.71 2.71 0 0 0-1 .33c-1.32.76-1.6 2.5-1.68 3.33v8.18c.08-.83.36-2.57 1.68-3.33Z"></path><path fill="#f4f6f8" d="M254.18 520.63c1.13 1.11-1.47 3-2.64 3.66l3.41 2c1.17-.67 4.41-2.17 6.33-1.51.66.18 1.33.35 2 .48 2.17.32 2.61 2.71 2.6 3.66h4.84c.08-.83.36-2.57 1.68-3.33a2.71 2.71 0 0 1 1-.33c.68-.13 1.35-.3 2-.48 1.93-.66 5.15.84 6.32 1.51l3.43-2c-1.16-.68-3.73-2.55-2.6-3.66a8.26 8.26 0 0 0 .85-1.17 1.26 1.26 0 0 1 .58-.56c1.33-.78 4.38-1 5.74-1v-2.8c-1.77.07-5.76-.27-6.31-1.52a7.5 7.5 0 0 0-.83-1.16c-1.12-1.12 1.47-3 2.64-3.67l-3.41-2c-1.18.67-4.41 2.17-6.34 1.51-.65-.18-1.32-.34-2-.48-2.17-.32-2.61-2.7-2.61-3.66H266a4 4 0 0 1-1.66 3.33 2.64 2.64 0 0 1-1 .33q-1 .21-2 .48c-2.23.49-5.15-.84-6.32-1.51l-3.43 2c1.16.68 3.73 2.55 2.59 3.66a9 9 0 0 0-.84 1.17 1.33 1.33 0 0 1-.58.57c-1.33.77-4.38.95-5.75.95v2.8c1.65 0 5.76.27 6.31 1.52a7.38 7.38 0 0 0 .86 1.21Zm8.16-7.6a13.37 13.37 0 0 1 12.13 0c3.34 1.94 3.33 5.08 0 7a13.37 13.37 0 0 1-12.13 0c-3.34-1.92-3.34-5.03 0-7.03Z" class="colorf1f1f6 svgShape"></path><path fill="#cee1f4" d="M251.54 524.29c1.17-.68 3.77-2.55 2.64-3.66a7.38 7.38 0 0 1-.83-1.17c-.55-1.25-4.66-1.52-6.31-1.52v8.18a20.66 20.66 0 0 1 4.49.49Z" class="colorced2f4 svgShape"></path><path fill="#bbcee2" d="m270.75 537.08-.02-8.18h-4.84l.03 8.18h4.83z" class="colorbbbfe2 svgShape"></path><path fill="url(#bf)" d="M289.74 526.12v-8.18c-1.36 0-4.41.18-5.74 1a1.26 1.26 0 0 0-.58.56 8.26 8.26 0 0 1-.85 1.17c-1.13 1.11 1.44 3 2.6 3.66v2.35a20.44 20.44 0 0 1 4.57-.56Z"></path><path d="m490.49 191.31-43.75-25.26a12.8 12.8 0 0 0-2.75-1.14l38.18 22c2.08 1.2 3.12 2.79 3.12 4.37v4.33c0 1.58-1 3.17-3.12 4.37l-42.78 24.7a15.16 15.16 0 0 1-6.83 1.78h6.72a16 16 0 0 0 8.47-1.78L490.49 200c4.16-2.36 4.16-6.29 0-8.69Z" style="mix-blend-mode:multiply" fill="url(#y)"></path><path fill="#ffffff" d="M380.52 186.4c-4.16 2.4-4.16 6.33 0 8.73l43.74 25.26a16.8 16.8 0 0 0 15.13 0l43.74-25.26c4.16-2.4 4.16-6.33 0-8.73l-43.74-25.26a16.8 16.8 0 0 0-15.13 0Z" class="colorffffff svgShape"></path><path fill="url(#z)" d="M486.25 190.76c0 1.59-1 3.17-3.12 4.37l-43.74 25.26a16.8 16.8 0 0 1-15.13 0l-43.74-25.26c-2.08-1.2-3.12-2.77-3.12-4.35v4.31c0 1.58 1 3.15 3.12 4.35l43.74 25.26a16.8 16.8 0 0 0 15.13 0l43.74-25.26c2.08-1.2 3.12-2.78 3.12-4.37v-4.33Z"></path><path d="m307.44 297.62-43.75-25.26a12.8 12.8 0 0 0-2.75-1.14l38.18 22c2.08 1.2 3.12 2.79 3.12 4.37V302c0 1.59-1 3.17-3.12 4.37L256.34 331a15.16 15.16 0 0 1-6.83 1.78h6.72a15.92 15.92 0 0 0 8.47-1.78l42.78-24.69c4.12-2.31 4.12-6.31-.04-8.69Z" style="mix-blend-mode:multiply" fill="url(#bg)"></path><path fill="#ffffff" d="M197.47 292.71c-4.16 2.4-4.16 6.33 0 8.73l43.74 25.26a16.8 16.8 0 0 0 15.13 0l43.74-25.26c4.16-2.4 4.16-6.33 0-8.73l-43.74-25.26a16.8 16.8 0 0 0-15.13 0Z" class="colorffffff svgShape"></path><path fill="url(#bh)" d="M303.2 297.08c0 1.58-1 3.16-3.12 4.36l-43.74 25.26a16.8 16.8 0 0 1-15.13 0l-43.74-25.26c-2.08-1.19-3.12-2.77-3.12-4.35v4.31c0 1.58 1 3.16 3.12 4.35L241.21 331a16.8 16.8 0 0 0 15.13 0l43.74-25.26c2.08-1.2 3.12-2.78 3.12-4.36v-4.33Z"></path><path d="m490.49 400-43.74-25.25a12.62 12.62 0 0 0-2.76-1.15l38.18 22c2.08 1.2 3.12 2.79 3.12 4.37v4.33c0 1.59-1 3.17-3.12 4.37l-42.78 24.7a15.16 15.16 0 0 1-6.83 1.78h6.72a15.83 15.83 0 0 0 8.47-1.78l42.78-24.69c4.12-2.39 4.12-6.32-.04-8.68Z" style="mix-blend-mode:multiply" fill="url(#bi)"></path><path fill="#ffffff" d="M380.52 395.05c-4.16 2.4-4.16 6.33 0 8.73L424.26 429a16.8 16.8 0 0 0 15.13 0l43.74-25.25c4.16-2.41 4.16-6.34 0-8.74l-43.74-25.26a16.8 16.8 0 0 0-15.13 0Z" class="colorffffff svgShape"></path><path fill="url(#bj)" d="M486.25 399.42c0 1.58-1 3.16-3.12 4.37L439.39 429a16.8 16.8 0 0 1-15.13 0l-43.74-25.26c-2.08-1.19-3.11-2.77-3.12-4.35v4.31c0 1.58 1 3.16 3.12 4.35l43.74 25.26a16.8 16.8 0 0 0 15.13 0l43.74-25.26c2.08-1.2 3.12-2.78 3.12-4.36v-4.33Z"></path><path d="m671.19 295.63-43.74-25.25a12.22 12.22 0 0 0-2.76-1.15l38.18 22c2.08 1.2 3.12 2.79 3.12 4.37v4.4c0 1.59-1 3.17-3.12 4.37L620.1 329a15.2 15.2 0 0 1-6.84 1.78h6.71a15.84 15.84 0 0 0 8.48-1.78l42.77-24.69c4.14-2.31 4.13-6.31-.03-8.68Z" style="mix-blend-mode:multiply" fill="url(#bk)"></path><path fill="#ffffff" d="M561.23 290.72c-4.17 2.4-4.17 6.33 0 8.73L605 324.71a16.8 16.8 0 0 0 15.13 0l43.74-25.25c4.16-2.41 4.16-6.34 0-8.74l-43.77-25.26a16.8 16.8 0 0 0-15.13 0Z" class="colorffffff svgShape"></path><path fill="url(#bl)" d="M667 295.09c0 1.58-1 3.16-3.12 4.37l-43.78 25.25a16.8 16.8 0 0 1-15.13 0l-43.74-25.26c-2.08-1.19-3.12-2.77-3.12-4.35v4.31c0 1.58 1 3.16 3.12 4.35L605 329a16.8 16.8 0 0 0 15.13 0l43.74-25.26c2.08-1.2 3.12-2.78 3.12-4.36v-4.33Z"></path><path style="mix-blend-mode:multiply" fill="url(#bm)" d="M611.69 314.74h-6.35L585 299.33l42.03-24.27 26.7 15.41-42.04 24.27z"></path><path style="mix-blend-mode:multiply" fill="url(#bn)" d="M430.98 210.42h-6.35l-20.34-15.41 42.03-24.27 26.7 15.41-42.04 24.27z"></path><path style="mix-blend-mode:multiply" fill="url(#bo)" d="M247.93 316.73h-6.35l-20.34-15.41 42.03-24.27 26.7 15.41-42.04 24.27z"></path><path style="mix-blend-mode:multiply" fill="url(#bp)" d="M430.98 419.07h-6.35l-20.34-15.41 42.04-24.27 26.69 15.41-42.04 24.27z"></path><path fill="#857dfb" d="m466 391.41.64-.37L440 375.63l-.64.37-41.4 23.9 26.7 15.41Z" class="color807dfb svgShape"></path><path fill="#ffffff" d="m446.62 391.69 10.59-6.11-7.77-4.49-10.58 6.11 5.25-9.19-4.03-2.32-8.65 15.16-8.91-5.14-7.76 4.48 8.9 5.14-25.29 4.81 4.02 2.33 14.96-2.85-9.94 5.74 7.76 4.49 9.95-5.75-4.94 8.64 4.03 2.32 8.34-14.6 8.9 5.14 7.77-4.48-8.9-5.14 26.24-5-4.02-2.32-15.92 3.03z" class="colorffffff svgShape"></path><path fill="#e33cc5" d="m450.56 381.74-18.57 10.72-10.58-6.11-5.53 3.19 10.58 6.11-17.94 10.36 5.53 3.19 17.94-10.35 10.58 6.1 5.53-3.19-10.58-6.11 18.57-10.72-5.53-3.19z" class="colore33c5c svgShape"></path><path fill="#e33cc5" d="m441.77 376.67-7.55 13.21 3.63-2.1 5.75-10.06-1.83-1.05zM463.05 388.95l-17.43 3.32-3.63 2.09 22.89-4.36-1.83-1.05zM401.89 402.18l16.47-3.14 3.63-2.1-21.93 4.18 1.83 1.06zM422.52 414.09l7.23-12.66-3.63 2.09-5.43 9.51 1.83 1.06z" class="colore33c5c svgShape"></path><path fill="#857dfb" d="m255.6 304.88-14.02 8.09-26.69-15.41 14.01-8.09 26.7 15.41z" class="color807dfb svgShape"></path><path fill="#f6f8fb" d="m269.61 296.79-14.01 8.09-26.7-15.41 14.01-8.09 26.7 15.41z" class="colorf6f6fb svgShape"></path><path fill="#e33cc5" d="m283.62 288.7-14.01 8.09-26.7-15.41 14.02-8.09 26.69 15.41z" class="colore33c5c svgShape"></path><path fill="#6f196f" d="m406.84 196.38-8.9-5.13 42.04-24.27 8.89 5.13-42.03 24.27z" class="color20196f svgShape"></path><path fill="#e33cc5" d="m415.74 201.52-8.9-5.14 42.03-24.27 8.9 5.14-42.03 24.27z" class="colore33c5c svgShape"></path><path fill="#6db6ff" d="m424.63 206.66-8.89-5.14 42.03-24.27 8.9 5.14-42.04 24.27z" class="colorffaf6d svgShape"></path><path fill="#e33cc5" d="m605.34 310.98-26.69-15.41 42.03-24.27 26.7 15.41-42.04 24.27z" class="colore33c5c svgShape"></path><path fill="#6db6ff" d="m594.63 296.72-.76 2.48-2.06-2.22-4.33.34 3.02-1.82-1.9-2.26 3.93 1.09 3.15-1.74-.6 2.49 3.85 1.19-4.3.45zM602.46 289.14l.38.77-1.13-.47-1.16.44.44-.76-1.1-.5h1.4l.48-.75.43.76 1.39.04-1.13.47zM606.62 291.84l-.15.8-.74-.68-1.36.17.89-.62-.69-.7 1.3.3.93-.59-.09.8 1.26.33-1.35.19zM606.34 295.28l-.7.7-.2-.79-1.36-.17 1.24-.36-.15-.8.98.58 1.27-.33-.65.71.94.59-1.37-.13zM596.55 289.01l.94.6-1.38-.14-.7.7-.19-.8-1.36-.17 1.24-.35-.14-.8.97.57 1.27-.32-.65.71z" class="colorffaf6d svgShape"></path><path fill="#aa2191" d="m647.38 290.47-42.04 24.27v-3.76l42.04-24.27v3.76z" class="coloraa2141 svgShape"></path><path fill="#a50b89" d="m605.34 314.74-26.69-15.41v-3.76l26.69 15.41v3.76z" class="colorce3459 svgShape"></path><path fill="#453eaf" d="m255.6 308.64-14.02 8.09v-3.76l14.02-8.09v3.76z" class="color423eaf svgShape"></path><path fill="#cee3f8" d="m269.61 300.55-14.01 8.09v-3.76l14.01-8.09v3.76z" class="colorced3f8 svgShape"></path><path fill="#aa2191" d="m283.62 292.46-14.01 8.09v-3.76l14.01-8.09v3.76z" class="coloraa2141 svgShape"></path><path fill="#5046e4" d="m241.58 316.73-26.69-15.41v-3.76l26.69 15.41v3.76z" class="color5652cc svgShape"></path><path fill="#453eaf" d="m441.45 409.36-16.82 9.71v-3.76l16.82-9.71v3.76zM466.67 394.8l-17.45 10.08v-3.76l17.45-10.08v3.76z" class="color423eaf svgShape"></path><path fill="#cee3f8" d="m442.57 408.72-1.12.64v-3.76l1.12-.65v3.77zM449.22 404.88l-1.12.65v-3.77l1.12-.64v3.76z" class="colorced3f8 svgShape"></path><path fill="#aa2191" d="m448.1 405.53-5.53 3.19v-3.77l5.53-3.19v3.77z" class="coloraa2141 svgShape"></path><path fill="#5046e4" d="m424.63 419.07-.42-.24v-3.77l.42.25v3.76zM398.37 403.91l-.43-.25v-3.76l.43.24v3.77z" class="color5652cc svgShape"></path><path fill="#cee3f8" d="m424.21 418.83-1.69-.98v-3.76l1.69.97v3.77zM400.06 404.88l-1.69-.97v-3.77l1.69.98v3.76zM415.17 413.61l-1.12-.65v-3.76l1.12.65v3.76zM408.52 409.77l-1.11-.64v-3.77l1.11.65v3.76z" class="colorced3f8 svgShape"></path><path fill="#5046e4" d="m420.18 416.5-5.01-2.89v-3.76l5.01 2.89v3.76zM407.41 409.13l-5.02-2.9v-3.76l5.02 2.89v3.77z" class="color5652cc svgShape"></path><path fill="#a50b89" d="m414.05 412.96-5.53-3.19v-3.76l5.53 3.19v3.76z" class="colorce3459 svgShape"></path><path fill="#cee3f8" d="m420.69 416.8-.51-.3v-3.76l.51.29v3.77zM402.39 406.23l-.5-.29v-3.76l.5.29v3.76z" class="colorced3f8 svgShape"></path><path fill="#a50b89" d="m422.52 417.85-1.83-1.05v-3.77l1.83 1.06v3.76zM401.89 405.94l-1.83-1.06v-3.76l1.83 1.06v3.76z" class="colorce3459 svgShape"></path><path fill="#e539c6" d="m466.67 186.15-42.04 24.27v-3.76l42.04-24.27v3.76z" class="colore57139 svgShape"></path><path fill="#fb4bdb" d="m424.63 210.42-8.89-5.14v-3.76l8.89 5.14v3.76z" class="colorfb944b svgShape"></path><path fill="#a50b89" d="m415.74 205.28-8.9-5.13v-3.77l8.9 5.14v3.76z" class="colorce3459 svgShape"></path><path fill="#6f196f" d="m406.84 200.15-8.9-5.14v-3.76l8.9 5.13v3.77z" class="color20196f svgShape"></path></g></g></g></svg>