<svg xmlns="http://www.w3.org/2000/svg" xmlns:xlink="http://www.w3.org/1999/xlink" viewBox="0 0 1046.27 800" id="Manreadingnewsondigitalplatform"><defs><linearGradient id="d" x1="227.7" x2="1005.96" y1="583.95" y2="583.95" gradientUnits="userSpaceOnUse"><stop offset="0" stop-color="#c6d4e3" class="stopColorc6cae3 svgShape"></stop><stop offset=".24" stop-color="#ccd9e6" class="stopColorcccfe6 svgShape"></stop><stop offset=".55" stop-color="#dce5ee" class="stopColordcdeee svgShape"></stop><stop offset=".9" stop-color="#f6f8fb" class="stopColorf6f7fb svgShape"></stop><stop offset="1" stop-color="#ffffff" class="stopColorffffff svgShape"></stop></linearGradient><linearGradient id="e" x1="567.98" x2="877.87" y1="52.43" y2="589.17" gradientUnits="userSpaceOnUse"><stop offset=".58" stop-color="#867ff4" class="stopColor7f7ff4 svgShape"></stop><stop offset=".61" stop-color="#6b1c6b" class="stopColor1e1c6b svgShape"></stop></linearGradient><linearGradient id="f" x1="210.85" x2="840.76" y1="651.51" y2="651.51" gradientUnits="userSpaceOnUse"><stop offset=".56" stop-color="#5c55c6" class="stopColor5555c6 svgShape"></stop><stop offset=".61" stop-color="#6b1c6b" class="stopColor1e1c6b svgShape"></stop></linearGradient><linearGradient id="a" x1="767.24" x2="851.93" y1="753.7" y2="753.7" gradientUnits="userSpaceOnUse"><stop offset=".43" stop-color="#c4d4e5" class="stopColorc4c9e5 svgShape"></stop><stop offset=".58" stop-color="#d7e2ed" class="stopColord7daed svgShape"></stop><stop offset=".85" stop-color="#f4f6f8" class="stopColorf4f5fa svgShape"></stop><stop offset="1" stop-color="#ffffff" class="stopColorffffff svgShape"></stop></linearGradient><linearGradient id="g" x1="747.33" x2="837.64" y1="761.96" y2="761.96" gradientUnits="userSpaceOnUse"><stop offset="0" stop-color="#429af2" class="stopColorf2bd42 svgShape"></stop><stop offset=".11" stop-color="#3f96ee" class="stopColoreeb73f svgShape"></stop><stop offset=".66" stop-color="#dc32bd" class="stopColordc9e32 svgShape"></stop><stop offset="1" stop-color="#d62db7" class="stopColord6952d svgShape"></stop></linearGradient><linearGradient id="h" x1="60.21" x2="144.91" y1="651.37" y2="651.37" xlink:href="#a"></linearGradient><linearGradient id="i" x1="40.31" x2="130.61" y1="659.64" y2="659.64" gradientUnits="userSpaceOnUse"><stop offset="0" stop-color="#d8e2ed" class="stopColord8dded svgShape"></stop><stop offset=".58" stop-color="#c4d4e5" class="stopColorc4c8e5 svgShape"></stop><stop offset="1" stop-color="#bbcee2" class="stopColorbbbfe2 svgShape"></stop></linearGradient><linearGradient id="j" x1="1011.83" x2="1123.16" y1="249.09" y2="441.92" gradientTransform="matrix(-1 0 0 1 1355.53 0)" gradientUnits="userSpaceOnUse"><stop offset=".55" stop-color="#867ff4" class="stopColor7f7ff4 svgShape"></stop><stop offset=".58" stop-color="#726bda" class="stopColor6b6bda svgShape"></stop><stop offset=".62" stop-color="#514bb1" class="stopColor4d4bb1 svgShape"></stop><stop offset=".66" stop-color="#3e3898" class="stopColor3b3898 svgShape"></stop><stop offset=".68" stop-color="#37318f" class="stopColor34318f svgShape"></stop></linearGradient><linearGradient id="k" x1="1041.77" x2="1146.72" y1="157.58" y2="339.35" gradientTransform="matrix(-1 0 0 1 1355.53 0)" gradientUnits="userSpaceOnUse"><stop offset=".63" stop-color="#6cb3fa" class="stopColorfae86c svgShape"></stop><stop offset=".63" stop-color="#66aef6" class="stopColorf6e066 svgShape"></stop><stop offset=".67" stop-color="#4796e5" class="stopColore5b747 svgShape"></stop><stop offset=".71" stop-color="#da34bc" class="stopColorda9e34 svgShape"></stop><stop offset=".73" stop-color="#d62db7" class="stopColord6952d svgShape"></stop></linearGradient><linearGradient id="l" x1="340.68" x2="514.57" y1="745.05" y2="745.05" gradientTransform="translate(-63.6)" gradientUnits="userSpaceOnUse"><stop offset="0" stop-color="#c6d5e4" class="stopColorc6cae4 svgShape"></stop><stop offset=".09" stop-color="#cedbe8" class="stopColorced1e8 svgShape"></stop><stop offset=".44" stop-color="#e9eef4" class="stopColore9eaf4 svgShape"></stop><stop offset=".76" stop-color="#f9fafc" class="stopColorf9fafc svgShape"></stop><stop offset="1" stop-color="#ffffff" class="stopColorffffff svgShape"></stop></linearGradient><linearGradient id="m" x1="303.17" x2="333.98" y1="708.51" y2="708.51" gradientUnits="userSpaceOnUse"><stop offset="0" stop-color="#c6d5e4" class="stopColorc6cae4 svgShape"></stop><stop offset=".39" stop-color="#e1e9f1" class="stopColore1e3f1 svgShape"></stop><stop offset=".74" stop-color="#f1f5f9" class="stopColorf1f2f9 svgShape"></stop><stop offset="1" stop-color="#f7f9fc" class="stopColorf7f7fc svgShape"></stop></linearGradient><linearGradient id="n" x1="880.18" x2="1043.91" y1="730.76" y2="730.76" gradientTransform="matrix(-1 0 0 1 1274.13 0)" gradientUnits="userSpaceOnUse"><stop offset="0" stop-color="#726ae2" class="stopColor6a6ae2 svgShape"></stop><stop offset=".24" stop-color="#7068df" class="stopColor6868df svgShape"></stop><stop offset=".41" stop-color="#6861d6" class="stopColor6161d6 svgShape"></stop><stop offset=".55" stop-color="#5046e4" class="stopColor5656c7 svgShape"></stop><stop offset=".68" stop-color="#4e47b2" class="stopColor4747b2 svgShape"></stop><stop offset=".71" stop-color="#4841aa" class="stopColor4141aa svgShape"></stop></linearGradient><linearGradient id="b" x1="960.83" x2="1044.97" y1="675.77" y2="675.77" gradientTransform="matrix(-1 0 0 1 1274.13 0)" gradientUnits="userSpaceOnUse"><stop offset="0" stop-color="#d62db7" class="stopColord6952d svgShape"></stop><stop offset=".31" stop-color="#e236c3" class="stopColore2a736 svgShape"></stop><stop offset=".7" stop-color="#3f96ee" class="stopColoreeb73f svgShape"></stop><stop offset="1" stop-color="#429af2" class="stopColorf2bd42 svgShape"></stop></linearGradient><linearGradient id="o" x1="941.07" x2="997.32" y1="673.18" y2="673.18" xlink:href="#b"></linearGradient><linearGradient id="c" x1="156.64" x2="233.44" y1="535.16" y2="535.16" gradientUnits="userSpaceOnUse"><stop offset="0" stop-color="#c4d2e1" class="stopColorc4c8e1 svgShape"></stop><stop offset=".19" stop-color="#d7e0ea" class="stopColord7d9ea svgShape"></stop><stop offset=".48" stop-color="#edf1f6" class="stopColoredeef6 svgShape"></stop><stop offset=".75" stop-color="#fafbfd" class="stopColorfafbfd svgShape"></stop><stop offset="1" stop-color="#ffffff" class="stopColorffffff svgShape"></stop></linearGradient><linearGradient id="p" x1="913.85" x2="964.73" y1="711.79" y2="711.79" xlink:href="#c"></linearGradient><linearGradient id="q" x1="814.89" x2="814.89" y1="570.56" y2="313.54" gradientUnits="userSpaceOnUse"><stop offset="0" stop-color="#e1eaf4" class="stopColore1e5f4 svgShape"></stop><stop offset=".38" stop-color="#e8eff7" class="stopColore8ebf7 svgShape"></stop><stop offset=".95" stop-color="#fdfdfe" class="stopColorfdfdfe svgShape"></stop><stop offset="1" stop-color="#ffffff" class="stopColorffffff svgShape"></stop></linearGradient></defs><g style="isolation:isolate" fill="#010001" class="color000000 svgShape"><g fill="#010001" class="color000000 svgShape"><g data-name="Shapes on the newspaper" fill="#010001" class="color000000 svgShape"><path d="m1006 414.47-19.59-11.31c-5.84-3.38-20.17-6.13-31.85-6.13H488.45c-11.68 0-256.37 153.08-256.37 153.08-5.84 3.37-5.84 8.89 0 12.26l356.75 206a21.72 21.72 0 0 0 10.69 2.53h9.27l251.15-145 10.37-6H1006Z" style="mix-blend-mode:multiply" fill="url(#d)"></path><path fill="#f4f6f8" d="M845.75 602.66c0 6.75-4.78 9.5-10.62 6.13l-356.75-206c-5.84-3.37-10.62-11.65-10.62-18.39V115.35c0-6.75 4.78-9.51 10.62-6.14l356.75 206c5.84 3.38 10.62 11.65 10.62 18.4Z" class="color4141aa svgShape"></path><path fill="url(#e)" d="m843.15 310.56-356.75-206c-3-1.71-5.64-1.84-7.57-.68l-7.63 4.43c1.89-.92 4.4-.71 7.16.88l356.75 206c5.84 3.38 10.62 11.65 10.62 18.4v269.07c0 3.35-1.18 5.71-3.08 6.83l7.63-4.43c2.13-1 3.49-3.46 3.49-7V329c0-6.79-4.77-15.07-10.62-18.44Z"></path><path fill="#dce8f4" d="M835.13 592.31 478.38 386.34V121.48l356.75 205.97v264.86z" class="colordce1f4 svgShape"></path><path fill="#f2f4f7" d="M593.22 753.12c-5.84 3.38-15.4 3.38-21.24 0l-356.75-206c-5.84-3.37-5.84-8.89 0-12.26L458.39 394.5c5.84-3.37 15.4-3.37 21.24 0l356.75 206c5.84 3.37 5.84 8.89 0 12.26Z" class="colorf2f2f7 svgShape"></path><path fill="#dce8f4" d="m480.01 423.71-17.45-10.07 8.72-5.04 17.45 10.07-8.72 5.04zM509.39 440.68l-17.45-10.08 8.72-5.04 17.45 10.08-8.72 5.04zM538.77 457.64l-17.44-10.08 8.72-5.03 17.45 10.07-8.73 5.04zM568.15 474.61l-17.44-10.08 8.73-5.03 17.44 10.07-8.73 5.04zM597.54 491.57 580.1 481.5l8.72-5.04 17.45 10.08-8.73 5.03zM626.93 508.54l-17.45-10.08 8.72-5.03 17.45 10.07-8.72 5.04zM656.31 525.5l-17.44-10.07 8.72-5.04 17.44 10.07-8.72 5.04zM685.7 542.46l-17.45-10.07 8.73-5.04 17.44 10.08-8.72 5.03zM715.08 559.43l-17.44-10.07 8.72-5.04 17.45 10.07-8.73 5.04zM744.47 576.39l-17.45-10.07 8.73-5.03 17.44 10.07-8.72 5.03zM773.85 593.36l-17.44-10.07 8.72-5.04 17.45 10.08-8.73 5.03zM803.24 610.33l-17.45-10.08 8.72-5.03 17.45 10.07-8.72 5.04zM464.54 448.71l-31.37-18.11 17.45-10.07 31.37 18.11-17.45 10.07zM448.31 471.86l-43.3-25 17.45-10.07 43.3 25-17.45 10.07zM430.87 495.72l-55.24-31.89 17.44-10.07 55.24 31.89-17.44 10.07zM371.43 502.47l-31.36-18.11 23.62-13.64 31.36 18.11-23.62 13.64zM414.74 527.47l-31.37-18.11 23.62-13.64 31.37 18.11-23.62 13.64zM458.04 552.47l-31.36-18.11 23.62-13.64 31.36 18.12-23.62 13.63zM607.35 638.68l-31.36-18.12 23.62-13.63 31.37 18.11-23.63 13.64zM680.74 681.05l-61.52-35.52 23.62-13.64 61.53 35.52-23.63 13.64zM564.12 613.72l-94.14-54.36 23.62-13.63 94.14 54.35-23.62 13.64zM502.15 470.42l-25.67-14.82 17.44-10.07 25.68 14.82-17.45 10.07zM485.92 493.58l-25.67-14.82 17.45-10.08 25.67 14.82-17.45 10.08zM469.28 516.97l-25.67-14.82 17.45-10.07 25.67 14.82-17.45 10.07zM506.89 538.68l-25.67-14.82 17.44-10.07 25.67 14.82-17.44 10.07zM544.49 560.39l-25.67-14.82 17.45-10.07 25.67 14.82-17.45 10.07zM582.1 582.11l-25.67-14.82 17.45-10.08 25.66 14.83-17.44 10.07zM619.71 603.82 594.04 589l17.45-10.07 25.66 14.82-17.44 10.07zM657.32 625.53l-25.67-14.82 17.44-10.07 25.67 14.82-17.44 10.07zM717.11 660.06l-47.86-27.64 17.45-10.07 47.85 27.63-17.44 10.08zM523.53 515.29l-25.67-14.82 17.45-10.07 25.67 14.82-17.45 10.07zM561.14 537l-25.67-14.82 17.44-10.07 25.68 14.82L561.14 537zM598.74 558.72l-25.67-14.83 17.45-10.07 25.67 14.82-17.45 10.08zM636.35 580.43l-25.67-14.82 17.45-10.08 25.67 14.82-17.45 10.08zM673.96 602.14l-25.67-14.82 17.45-10.07 25.67 14.82-17.45 10.07zM745.69 643.55l-59.79-34.52 17.45-10.07 59.79 34.52-17.45 10.07zM539.75 492.14l-25.66-14.82 17.44-10.08 25.67 14.83-17.45 10.07zM577.36 513.85l-25.67-14.82 17.45-10.07 25.67 14.81-17.45 10.08zM614.97 535.56l-25.67-14.82 17.45-10.07 25.67 14.82-17.45 10.07zM652.58 557.28l-25.67-14.83 17.44-10.07 25.67 14.82-17.44 10.08zM690.18 578.99l-25.67-14.82 17.45-10.07 25.67 14.81-17.45 10.08zM727.79 600.7l-25.67-14.82 17.45-10.07 25.67 14.82-17.45 10.07zM773.85 627.29l-34.12-19.7 17.45-10.07 34.12 19.7-17.45 10.07z" class="colordce1f4 svgShape"></path><path fill="#726ae2" d="M790.5 583.75 508.58 420.99l8.47-4.89 281.91 162.77-8.46 4.88z" class="color6a6ae2 svgShape"></path><path fill="#dce8f4" d="m564.12 634.75-143.86-83.06-89.39 51.61 143.85 83.06 89.4-51.61z" class="colordce1f4 svgShape"></path><path fill="url(#f)" d="M836.38 612.73 593.22 753.12c-4.64 2.68-11.62 3.23-17.22 1.65 0 0-3.49-1.34-4-1.65l-356.75-206a12.23 12.23 0 0 1-1.13-.73c-.1-.07-.18-.15-.27-.22s-.4-.32-.59-.49l-.27-.26c-.22-.22-.42-.44-.61-.67l-.07-.08h-.05a9 9 0 0 1-.55-.82 5.6 5.6 0 0 1-.78-2.56v5.15c0 2.24 1.39 4.49 4.34 6.19L572 758.54c8.51 4.22 20.67 3.4 24.29 2.61s6.88-1.7 10.67-2.53l229.42-132.47c3-1.71 4.41-4 4.38-6.21v-13.27c-.03 2.19-1.49 4.39-4.38 6.06Z"></path><path fill="#d0e3f6" d="m895 493.56-25.68-14.82c-1.42-.82-2.57-.16-2.57 1.48a5.68 5.68 0 0 0 2.57 4.45L895 499.49c1.42.82 2.57.16 2.57-1.48a5.68 5.68 0 0 0-2.57-4.45ZM864.13 468a1.78 1.78 0 0 0 1.87.14l17.52-11.57c1-.63.91-2.54-.12-4.26s-2.66-2.59-3.63-1.95l-17.52 11.57c-1 .63-.91 2.54.12 4.26a5.19 5.19 0 0 0 1.76 1.81Zm1.87 23.47c-1-1.75-2.59-2.75-3.63-2.24s-1.09 2.37-.12 4.12l17.52 31.8a5.14 5.14 0 0 0 1.88 2 1.83 1.83 0 0 0 1.75.22c1-.52 1.09-2.36.12-4.12ZM446.81 237.79a5.68 5.68 0 0 0-2.57-4.45l-25.68-14.82c-1.42-.82-2.57-.16-2.57 1.48a5.68 5.68 0 0 0 2.57 4.45l25.68 14.82c1.42.82 2.57.16 2.57-1.48Zm.7-11.26a5.32 5.32 0 0 0 1.88 2 1.89 1.89 0 0 0 1.75.22c1-.52 1.1-2.37.13-4.12l-17.52-31.8c-1-1.76-2.6-2.76-3.63-2.24S429 193 430 194.74Zm0 23.33L430 261.42c-1 .64-.91 2.55.13 4.27a5.25 5.25 0 0 0 1.75 1.81 1.8 1.8 0 0 0 1.88.14l17.52-11.57c1-.64.91-2.54-.13-4.26s-2.67-2.59-3.64-1.95Z" class="colord0d4f6 svgShape"></path><path d="M838.61 735.2c-9.44-5.44-22-8-34.3-7.59h-13.75v3.17a51.5 51.5 0 0 0-10.22 4.42c-17.56 10.21-17.46 26.77.21 37a51.6 51.6 0 0 0 10 4.33v3.31h17.6c11.14-.19 22.18-2.72 30.66-7.64 17.57-10.2 17.48-26.79-.2-37Z" style="mix-blend-mode:multiply" fill="url(#a)"></path><path fill="url(#g)" d="M760.66 772.18c-8.9-5.14-13.34-11.89-13.33-18.62v-9.47c0 6.74 4.42 13.48 13.31 18.62 17.7 10.2 46.27 10.2 63.83 0 8.73-5.07 13.09-11.71 13.12-18.35v9.46c0 6.65-4.39 13.28-13.11 18.36-17.56 10.21-46.14 10.21-63.82 0Z"></path><path fill="#f7f9fc" d="M760.69 762.71c-17.67-10.21-17.77-26.76-.21-37s46.15-10.21 63.83 0 17.78 26.76.21 37-46.13 10.2-63.83 0Z" class="colorf7f7fc svgShape"></path><path d="M131.58 632.88c-9.43-5.45-22-8-34.29-7.59H83.53v3.16a50.86 50.86 0 0 0-10.21 4.43c-17.56 10.21-17.46 26.76.21 37a51.8 51.8 0 0 0 10 4.34v3.3h17.61c11.13-.18 22.18-2.71 30.65-7.63 17.57-10.25 17.48-26.8-.21-37.01Z" style="mix-blend-mode:multiply" fill="url(#h)"></path><path fill="url(#i)" d="M53.64 669.85c-8.9-5.14-13.35-11.88-13.33-18.61v-9.48c0 6.74 4.43 13.48 13.32 18.63 17.69 10.2 46.26 10.2 63.83 0 8.72-5.08 13.09-11.71 13.11-18.36v9.47c0 6.65-4.38 13.28-13.11 18.36-17.56 10.21-46.14 10.21-63.82-.01Z"></path><path fill="#f7f9fc" d="M53.67 660.39c-17.67-10.21-17.77-26.77-.21-37s46.15-10.21 63.83 0 17.77 26.76.21 37-46.14 10.2-63.83 0Z" class="colorf7f7fc svgShape"></path><path fill="#d0e3f6" d="M114.43 631.24c-6.74-3.9-17.71-3.89-24.46 0l-17.75 10.25-3.12-1.8a4.22 4.22 0 0 0-3.85 0 1.17 1.17 0 0 0 0 2.22l3.12 1.8-11.88 6.86a1.17 1.17 0 0 0 0 2.22 4.22 4.22 0 0 0 3.85 0l11.88-6.85 2.78 1.58a4.28 4.28 0 0 0 3.85 0 1.17 1.17 0 0 0 0-2.22l-2.74-1.59 17.76-10.25c4.62-2.66 12.13-2.66 16.75 0a4.22 4.22 0 0 0 3.85 0 1.17 1.17 0 0 0-.04-2.22ZM779.42 759.77c-4.62-2.67-4.62-7 0-9.67l17.75-10.25 5.14 3a4.22 4.22 0 0 0 3.85 0 1.17 1.17 0 0 0 0-2.22l-5.13-3 11.87-6.85a1.18 1.18 0 0 0 0-2.23 4.28 4.28 0 0 0-3.85 0l-11.88 6.86-3.12-1.8a4.22 4.22 0 0 0-3.85 0 1.17 1.17 0 0 0 0 2.22l3.12 1.8-17.76 10.25c-6.74 3.9-6.74 10.23 0 14.12a4.24 4.24 0 0 0 3.86 0 1.17 1.17 0 0 0 0-2.23Z" class="colord0d4f6 svgShape"></path><path fill="url(#j)" d="m245.65 338.52 122.5-70.73c2.61-1.51 5-1.66 6.69-.71h.09l5.53 3.19c-1.73-1-4.09-.8-6.69.71l-122.47 70.8c-5.3 3.07-9.6 10.51-9.6 16.64v84.31c0 2.95 1 5 2.64 6.08l-5.37-3.1-.19-.11-.09-.05c-1.63-1-2.65-3.12-2.65-6.07v-84.33c-.04-6.15 4.3-13.57 9.61-16.63Z"></path><path fill="#37318f" d="m270.29 461.62-5.65-3.27v-25.57l5.65 3.27v25.57z" class="color34318f svgShape"></path><path fill="#5c55c6" d="M373.81 271.06 251.3 341.78c-5.3 3.07-9.6 10.51-9.6 16.64v84.31c0 6.13 4.3 8.61 9.6 5.55l19-11v24.31l20.57-36.18 82.95-47.89c5.3-3.06 9.6-10.51 9.6-16.64V276.6c-.01-6.12-4.31-8.6-9.61-5.54Z" class="color5555c6 svgShape"></path><ellipse cx="280.75" cy="349.53" fill="#867ff4" rx="5.9" ry="3.4" transform="rotate(-60 280.747 349.532)" class="color7f7ff4 svgShape"></ellipse><path fill="#867ff4" d="M293.59 342.12a9.22 9.22 0 0 1 4.17-7.22c2.3-1.33 4.17-.25 4.17 2.41a9.22 9.22 0 0 1-4.17 7.22c-2.3 1.33-4.17.25-4.17-2.41ZM310.6 332.3a9.19 9.19 0 0 1 4.17-7.22c2.3-1.33 4.17-.25 4.17 2.41a9.22 9.22 0 0 1-4.17 7.22c-2.31 1.29-4.17.29-4.17-2.41ZM327.61 322.48a9.19 9.19 0 0 1 4.17-7.22c2.3-1.33 4.16-.25 4.16 2.41a9.21 9.21 0 0 1-4.16 7.22c-2.31 1.33-4.17.25-4.17-2.41Z" class="color7f7ff4 svgShape"></path><ellipse cx="348.78" cy="310.25" fill="#867ff4" rx="5.9" ry="3.4" transform="rotate(-60 348.793 310.253)" class="color7f7ff4 svgShape"></ellipse><path fill="#867ff4" d="m368.08 315.7-106.63 61.56v-4.83l106.63-61.57v4.84zM368.08 326.76l-106.63 61.56v-4.84l106.63-61.56v4.84zM368.08 337.82l-106.63 61.56v-4.84l106.63-61.56v4.84zM368.08 348.88l-106.63 61.56v-4.84l106.63-61.56v4.84zM353.47 368.4l-92.02 53.12v-4.84l92.02-53.12v4.84z" class="color7f7ff4 svgShape"></path><path fill="url(#k)" d="m215.7 247 122.5-70.73c2.61-1.51 5-1.66 6.7-.71h.14l5.52 3.19c-1.73-1-4.08-.8-6.69.71l-122.5 70.72c-5.31 3.07-9.61 10.51-9.61 16.64v69.57c0 2.95 1 5 2.65 6.08l-5.38-3.1-.18-.11-.1-.05c-1.63-1-2.64-3.12-2.64-6.08v-69.49c-.01-6.12 4.29-13.57 9.59-16.64Z"></path><path fill="#429af2" d="m343.86 179.55-122.5 70.72c-5.31 3.07-9.61 10.51-9.61 16.64v13.28l-16.9 9.81 16.9 9.76v36.77c0 6.12 4.3 8.61 9.61 5.54l122.5-70.72c5.31-3.06 9.61-10.51 9.61-16.64v-69.62c0-6.09-4.3-8.61-9.61-5.54Z" class="colorf2bd42 svgShape"></path><path fill="#5ca9f7" d="m211.75 280.19-16.9 9.76-5.66-3.27 16.91-9.76 5.65 3.27z" class="colorf7d25c svgShape"></path><path fill="#a50b89" d="m334.94 229.17-103.35 59.67v-6.45l103.35-59.67v6.45zM334.94 213.81l-103.35 59.67v-6.45l103.35-59.67v6.45zM334.94 244.53 231.59 304.2v-6.45l103.35-59.67v6.45zM298.9 280.7l-67.31 38.86v-6.45l67.31-38.86v6.45z" class="colord6952d svgShape"></path><path d="M449.38 746.09c-12.68 7.31-89.81 21.19-172.29 21.19l38-44.46c82.45 0 146.96 15.95 134.29 23.27Z" style="mix-blend-mode:multiply" fill="url(#l)"></path><path d="M303.17 680.17c12.34-12.33 35.7-28.36 29.9 0s-29.9 72.5-29.9 72.5Z" style="mix-blend-mode:multiply" fill="url(#m)"></path><path fill="#f4f6f8" d="M391.71 711.52c-7.62-11.66-57.46-1.38-88.54 2.39v12.88ZM311 656.77c12.91 6.41-3.94 35.3-16.57 57.92l-51.53-21.75c21.38-22.28 61.59-39.41 68.1-36.17Z" class="color4141aa svgShape"></path><path fill="url(#n)" d="m242.9 692.94 51.55 21.75c-2 3.61-3.94 7.07-5.61 10.25 9.13-1.81 22.64-2.06 32.68-4.41 20.78-4.88 63.63-25.26 71.36-6.85 12.7 30.21-91.33 61.76-115.79 53.6s-36.77-14.6-44.56-31.24c-2.55-5.46-3.36-21.23-.47-27.78a55 55 0 0 1 10.84-15.32Z"></path><path fill="#a50b89" d="M257.72 603.52c-10.88 1.8-15.61 9.3-15.61 18.88s15.61-18.88 15.61-18.88Z" class="colord6952d svgShape"></path><path fill="url(#b)" d="M252 740.4c22.48 12.62 53.33 14 61.35-1.5-15.31-51.36-21.43-90.68-16.95-111.09-5.24-10-16.62-24.52-23.8-26-30.74-6.28-45.68 48.51-43.11 106.91 2.33 15.55 11.39 25.47 22.51 31.68Z"></path><path fill="#afd2f6" d="M255.5 605.32c6.67-4.82 5.69-8 4.69-14.53a32.47 32.47 0 0 1-2-11.32c0-14.61 9.27-26.45 20.7-26.45s20.71 11.84 20.71 26.45c0 13.53-8 24.67-18.22 26.24.46.81 1 1.63 1.53 2.47a46.24 46.24 0 0 1 5.51 7.3c-11.22 8.75-22.12-1.1-26.45-3.05-4.62-2.09-9.59-3.88-6.47-7.11Z" class="colorf6d3af svgShape"></path><path fill="#6b1c6b" d="M253.92 560.3c3-4.86 8.59-2.34 10.6-4.13l1.09-.92c2.57-2.58.78-3.54 3.16-5.93s5.63-.73 7.29-1.79c3.93-2.41 7.64-3.94 9.72-2.8a11.73 11.73 0 0 1 2.92 2.33c2.05 2 6.24-2.31 7.24 3 1 5.09-.53 7.21.78 15.42l.12.85c.64 5 .24 9.67-1.67 12.7-.55.86-1.15 1.71-1.78 2.54 0-2.79-5.94-9.25-5.94 3.17 0 1.33 1 1.59.12 3.36s-6.51 6.22-10.23 9.94c-5.19 5.19-8.24.53-16.82 1.47a13.7 13.7 0 0 0-2.26-7.83 39.07 39.07 0 0 1-3.52-14.13c-.03-6.9-3.74-12.55-.82-17.25Z" class="color1e1c6b svgShape"></path><path fill="#afd2f6" d="M329.92 711.24c2.87-.86 10.82-.61 15.72 1.86-3.27 1.83-9.9 7.14-14.79 5.43s-.93-7.29-.93-7.29Z" class="colorf6d3af svgShape"></path><path fill="url(#o)" d="M297.76 630.91c5.67 24.21 9.44 43.94 14.34 62.73 4.18 8.1 11.79 12.29 18.49 17.3 3 2.42 4.72 11.17-3.64 9.8-13.31-1.83-22.64-6.73-29.66-15.78-13.08-16.83-14.06-31.64-19.7-53.36-5.18-19.96 16.93-34.5 20.17-20.69Z"></path><path fill="#f2f4f7" d="M945.21 296.48c-2.5-1.44-4.72-1.45-6.26-.34l-29.2-35.92a8.62 8.62 0 0 0 .41-2.62 14 14 0 0 0-.41-3.09l29.2-2.19a17.47 17.47 0 0 0 6.26 6.88c4.65 2.69 8.42.51 8.42-4.86s-3.77-11.9-8.42-14.58-8.42-.51-8.42 4.86a14 14 0 0 0 .41 3.09L908 249.9a17.52 17.52 0 0 0-6.25-6.88c-4.65-2.68-8.42-.51-8.42 4.86s3.77 11.9 8.42 14.59c2.49 1.44 4.71 1.44 6.25.34l29.21 35.91a8.62 8.62 0 0 0-.41 2.62c0 5.37 3.77 11.9 8.42 14.58s8.42.51 8.42-4.86-3.78-11.9-8.43-14.58Z" class="colorf2f2f7 svgShape"></path><ellipse cx="929.41" cy="266.49" fill="none" stroke="#e1eaf4" stroke-linecap="round" stroke-linejoin="round" stroke-width="2" rx="36.2" ry="62.71" transform="rotate(-30 929.418 266.477)" class="colorStrokee1e5f4 svgStroke"></ellipse><path style="mix-blend-mode:multiply" fill="url(#c)" d="M203.62 517.94h-46.98l29.82 17.22-29.82 17.22h46.98l29.82-17.22-29.82-17.22z"></path><path fill="#bbcee2" d="m156.64 552.38 29.82-17.22v-34.43l-29.82 17.21v34.44z" class="colorbbbfe2 svgShape"></path><path fill="#cee1f4" d="m156.64 552.38-29.82-17.22v-34.43l29.82 17.21v34.44z" class="colorced2f4 svgShape"></path><path fill="#f0f2f5" d="m156.64 517.94-29.82-17.21 29.82-17.22 29.82 17.22-29.82 17.21z" class="colorf0f0f5 svgShape"></path><path style="mix-blend-mode:multiply" fill="url(#p)" d="M944.98 700.38h-31.13l19.76 11.41-19.76 11.4h31.13l19.75-11.4-19.75-11.41z"></path><path fill="#f4f6f8" d="m913.85 723.19 19.76-11.4v-22.82l-19.76 11.41v22.81z" class="color4141aa svgShape"></path><path fill="#5c55c6" d="m913.85 723.19-19.76-11.4v-22.82l19.76 11.41v22.81z" class="color5555c6 svgShape"></path><path fill="#726ae2" d="m913.85 700.38-19.76-11.41 19.76-11.4 19.76 11.4-19.76 11.41z" class="color6a6ae2 svgShape"></path><path d="M811 313.54v171.64a431.49 431.49 0 0 0 2.28 47.31l-18.54 20.86 29.65 17.12c.84.49 1.48-1 2.1-2.22 5.63-11.1 8.48-34.4 8.48-69.23V327.38Z" style="mix-blend-mode:multiply" fill="url(#q)"></path><path fill="#edeeef" d="M806.76 558.05c-1.51.87-2.88.64-3.51-.59-5.62-11.1-8.47-34.4-8.47-69.23V192.71l7.7-4.45v295.52c0 24.41 1.47 43.22 4.28 55.45 2.81-15.48 4.28-36 4.28-60.39v-165.3l7.7 4.45v156.4c0 34.84-2.85 61.42-8.47 79a8.57 8.57 0 0 1-3.51 4.66Z" class="colorededef svgShape"></path><path fill="#ffffff" d="M803.25 557.46c-5.62-11.1-8.47-34.4-8.47-69.23V192.71L503.62 24.61v295.52c0 34.83 2.85 58.13 8.47 69.23.2.38.83 1.26.83 1.26l291.16 168.1-.06-.43a2 2 0 0 1-.77-.83Z" class="colorffffff svgShape"></path><path fill="#ffffff" d="M798.87 543.85v.47h.13c0-.16-.09-.32-.13-.47Z" class="colorffffff svgShape"></path><path fill="#d3e2f2" d="m811 313.54-8.56-4.94v175.18c0 24.41 1.47 43.22 4.28 55.45 2.81-15.48 4.28-36 4.28-60.39v-165.3Z" class="colord3d8f2 svgShape"></path><path fill="#f7f9fc" d="M794.78 192.71 503.62 24.61l7.7-4.45 291.16 168.1-7.7 4.45z" class="colorf7f7fc svgShape"></path><text fill="#e1e5f4" font-family="Montserrat-Bold,Montserrat Bold" font-size="68.53" font-weight="700" transform="matrix(.87 .5 0 1 550.78 133.31)">N<tspan x="45.09" y="0" letter-spacing=".01em">E</tspan><tspan x="79.42" y="0" letter-spacing="0">WS</tspan></text><path fill="#5ca9f7" d="M765.61 270.38 532.76 135.95v-2.46l232.85 134.44v2.45z" class="colorf7d25c svgShape"></path><path fill="#f2f4f7" d="M783.12 331.93 515.25 177.28v-45.03L783.12 286.9v45.03z" class="colorf2f2f7 svgShape"></path><path fill="#e1eaf4" d="m639.46 273.23-116.42-67.21v-14.46l116.42 67.21v14.46z" class="colore1e5f4 svgShape"></path><path fill="#f2f4f7" d="M638.07 326 523 259.61v4.82l115 66.41Zm0-11.12L523 248.49v4.82l115 66.41Zm0-11.12L523 237.37v4.82l115 66.41Zm0 44.48-85.73-49.5v4.82l85.73 49.5Zm0-66.72L523 215.13V220l115 66.41Zm0 11.12L523 226.25v4.82l115 66.41Zm0 44.48L523 270.73v4.82l115 66.41Zm.27 78-115-66.41c.06 1.68.13 3.32.2 4.93l115 66.41c-.08-1.6-.14-3.23-.2-4.92Zm.54 11.43-115-66.41c.11 1.72.23 3.4.36 5l115 66.41c-.13-1.55-.24-3.27-.36-4.99Zm-.78-22.68-115-66.42c0 1.66 0 3.27.08 4.87l115 66.41c-.03-1.59-.06-3.2-.08-4.85Zm0-22.26L523 315.21V320l115 66.42Zm0-11.12L552.34 321v4.82l85.73 49.5Zm0 22.24L523 326.33v4.81l115 66.42Zm0-33.36-85.73-49.5v4.82l85.73 49.5ZM713.7 369.68l-55.84-32.23v4.81l55.84 32.24Zm59.19 23.06-115-66.41v4.81l115 66.42Zm0-11.12-115-66.41V320l115 66.42Zm-59.19 10.3-55.84-32.23v4.81l55.84 32.24Zm59.19-32.54L657.86 293v4.82l115 66.41Zm0-11.18-115-66.41v4.81l115 66.42Zm0-11.18-115-66.42v4.82l115 66.41Zm0 33.48-115-66.41v4.81l115 66.42Zm-59.19 10.3-55.84-32.23v4.81l55.84 32.24Zm.27 78-55.84-32.24c.06 1.68.13 3.32.2 4.93l55.83 32.24c-.07-1.61-.16-3.25-.16-4.93Zm.54 11.43L658.67 438c.11 1.72.23 3.4.36 5l55.84 32.23c-.13-1.61-.25-3.23-.36-5Zm-.78-22.69-55.84-32.24c0 1.66.05 3.27.08 4.87l55.84 32.23c-.03-1.6-.06-3.2-.08-4.86Zm0-22.26L657.86 393v4.82l55.84 32.28Zm0-11.12-55.84-32.24v4.82L713.7 419Zm0 22.24-55.84-32.24V409l55.84 32.24Zm0-33.36-55.87-32.24v4.82l55.84 32.24Z" class="colorf2f2f7 svgShape"></path><path fill="#e1eaf4" d="m772.87 492.65-49.41-28.53v-83.91l49.41 28.53v83.91zM544.87 321l-21.83-12.6v-24.56l21.83 12.6V321z" class="colore1e5f4 svgShape"></path></g></g></g></svg>