<svg xmlns="http://www.w3.org/2000/svg" xmlns:xlink="http://www.w3.org/1999/xlink" viewBox="0 0 929.57 800" id="Mobilenewsapp"><defs><linearGradient id="d" x1="715.77" x2="909.43" y1="303.69" y2="303.69" gradientUnits="userSpaceOnUse"><stop offset="0" stop-color="#d1e2f3" class="stopColord1d7f3 svgShape"></stop><stop offset="1" stop-color="#ffffff" class="stopColorffffff svgShape"></stop></linearGradient><linearGradient id="e" x1="639.88" x2="791.65" y1="251.96" y2="251.96" gradientUnits="userSpaceOnUse"><stop offset="0" stop-color="#dae7f5" class="stopColordae0f5 svgShape"></stop><stop offset="1" stop-color="#bbd0e6" class="stopColorbbc0e6 svgShape"></stop></linearGradient><linearGradient id="a" x1="633.94" x2="797.6" y1="155.63" y2="155.63" gradientUnits="userSpaceOnUse"><stop offset="0" stop-color="#5a52cc" class="stopColor5652cc svgShape"></stop><stop offset="1" stop-color="#453eaf" class="stopColor423eaf svgShape"></stop></linearGradient><linearGradient id="f" x1="645.76" x2="785.77" y1="143.97" y2="143.97" xlink:href="#a"></linearGradient><linearGradient id="g" x1="663.7" x2="767.83" y1="117.11" y2="117.11" gradientUnits="userSpaceOnUse"><stop offset="0" stop-color="#453eaf" class="stopColor423eaf svgShape"></stop><stop offset="1" stop-color="#5a52cc" class="stopColor5652cc svgShape"></stop></linearGradient><linearGradient id="h" x1="691.18" x2="764.19" y1="145.51" y2="145.51" gradientUnits="userSpaceOnUse"><stop offset="0" stop-color="#c4d6e8" class="stopColorc4cae8 svgShape"></stop><stop offset=".36" stop-color="#dbe5ef" class="stopColordbdeef svgShape"></stop><stop offset=".72" stop-color="#ebeff4" class="stopColorebecf4 svgShape"></stop><stop offset="1" stop-color="#f1f3f6" class="stopColorf1f1f6 svgShape"></stop></linearGradient><linearGradient id="i" x1="689.38" x2="759.43" y1="137.63" y2="137.63" xlink:href="#a"></linearGradient><linearGradient id="j" x1="785.58" x2="646.3" y1="262.23" y2="262.23" gradientUnits="userSpaceOnUse"><stop offset="0" stop-color="#cee3f8" class="stopColorced3f8 svgShape"></stop><stop offset="1" stop-color="#f1f3f6" class="stopColorf1f1f6 svgShape"></stop></linearGradient><linearGradient id="k" x1="701.07" x2="730.25" y1="262.67" y2="262.67" gradientUnits="userSpaceOnUse"><stop offset="0" stop-color="#857dfb" class="stopColor807dfb svgShape"></stop><stop offset="1" stop-color="#6f67e9" class="stopColor6b67e9 svgShape"></stop></linearGradient><linearGradient id="l" x1="759.43" x2="764.23" y1="126.14" y2="126.14" gradientUnits="userSpaceOnUse"><stop offset="0" stop-color="#dae7f5" class="stopColordae0f5 svgShape"></stop><stop offset=".02" stop-color="#dbe8f5" class="stopColordbe1f5 svgShape"></stop><stop offset=".58" stop-color="#ebf0f6" class="stopColorebedf6 svgShape"></stop><stop offset="1" stop-color="#f1f3f6" class="stopColorf1f1f6 svgShape"></stop></linearGradient><linearGradient id="m" x1="238.53" x2="680.61" y1="418.65" y2="418.65" gradientUnits="userSpaceOnUse"><stop offset="0" stop-color="#c6d6e7" class="stopColorc6cbe7 svgShape"></stop><stop offset=".25" stop-color="#cedceb" class="stopColorced3eb svgShape"></stop><stop offset=".65" stop-color="#e5ecf4" class="stopColore5e8f4 svgShape"></stop><stop offset="1" stop-color="#ffffff" class="stopColorffffff svgShape"></stop></linearGradient><linearGradient id="n" x1="18.18" x2="650.11" y1="475.45" y2="475.45" gradientUnits="userSpaceOnUse"><stop offset=".27" stop-color="#867ff4" class="stopColor7f7ff4 svgShape"></stop><stop offset=".3" stop-color="#837cf0" class="stopColor7c7cf0 svgShape"></stop><stop offset=".32" stop-color="#7972e5" class="stopColor7272e5 svgShape"></stop><stop offset=".35" stop-color="#6962d1" class="stopColor6262d1 svgShape"></stop><stop offset=".38" stop-color="#524bb6" class="stopColor4b4bb6 svgShape"></stop><stop offset=".39" stop-color="#4841aa" class="stopColor4141aa svgShape"></stop></linearGradient><linearGradient id="o" x1="480.44" x2="802.2" y1="590.83" y2="590.83" gradientUnits="userSpaceOnUse"><stop offset="0" stop-color="#e8eff7" class="stopColore8ecf7 svgShape"></stop><stop offset=".6" stop-color="#eaf1f8" class="stopColoreaeef8 svgShape"></stop><stop offset=".82" stop-color="#f1f5fa" class="stopColorf1f3fa svgShape"></stop><stop offset=".98" stop-color="#fcfdfe" class="stopColorfcfdfe svgShape"></stop><stop offset="1" stop-color="#ffffff" class="stopColorffffff svgShape"></stop></linearGradient><linearGradient id="p" x1="341" x2="544.42" y1="287.87" y2="640.21" gradientUnits="userSpaceOnUse"><stop offset=".49" stop-color="#ffffff" class="stopColorffffff svgShape"></stop><stop offset=".52" stop-color="#e8eff7" class="stopColore8ecf7 svgShape"></stop><stop offset=".56" stop-color="#e8eff7" class="stopColore8ecf7 svgShape"></stop><stop offset=".57" stop-color="#e8eff7" class="stopColore8ecf7 svgShape"></stop><stop offset=".6" stop-color="#eaf1f8" class="stopColoreaeef8 svgShape"></stop><stop offset=".61" stop-color="#f1f5fa" class="stopColorf1f3fa svgShape"></stop><stop offset=".62" stop-color="#fcfdfe" class="stopColorfcfdfe svgShape"></stop><stop offset=".62" stop-color="#ffffff" class="stopColorffffff svgShape"></stop></linearGradient><linearGradient id="b" x1="423.31" x2="522.61" y1="662.78" y2="662.78" gradientUnits="userSpaceOnUse"><stop offset="0" stop-color="#c6d6e7" class="stopColorc6cbe7 svgShape"></stop><stop offset=".26" stop-color="#cfddeb" class="stopColorcfd3eb svgShape"></stop><stop offset=".68" stop-color="#e8eef5" class="stopColore8eaf5 svgShape"></stop><stop offset="1" stop-color="#ffffff" class="stopColorffffff svgShape"></stop></linearGradient><linearGradient id="q" x1="329.5" x2="428.8" y1="662.78" y2="662.78" xlink:href="#b"></linearGradient><linearGradient id="r" x1="328.46" x2="505.97" y1="678.73" y2="678.73" gradientUnits="userSpaceOnUse"><stop offset="0" stop-color="#5a52cc" class="stopColor5652cc svgShape"></stop><stop offset=".23" stop-color="#4f48bc" class="stopColor4d48bc svgShape"></stop><stop offset=".72" stop-color="#3c359f" class="stopColor3c359f svgShape"></stop><stop offset="1" stop-color="#342e94" class="stopColor362e94 svgShape"></stop></linearGradient><linearGradient id="c" x1="525.23" x2="542.32" y1="734.96" y2="705.35" gradientUnits="userSpaceOnUse"><stop offset="0" stop-color="#4841aa" class="stopColor4141aa svgShape"></stop><stop offset=".21" stop-color="#5049b3" class="stopColor4949b3 svgShape"></stop><stop offset=".56" stop-color="#655ecc" class="stopColor5e5ecc svgShape"></stop><stop offset="1" stop-color="#867ff4" class="stopColor7f7ff4 svgShape"></stop></linearGradient><linearGradient id="s" x1="491.4" x2="508.5" y1="715.41" y2="685.8" xlink:href="#b"></linearGradient><linearGradient id="t" x1="568.38" x2="596.68" y1="757.18" y2="740.84" xlink:href="#c"></linearGradient><linearGradient id="u" x1="151.35" x2="267.08" y1="703.42" y2="703.42" gradientUnits="userSpaceOnUse"><stop offset=".43" stop-color="#c2d5e9" class="stopColorc2cae9 svgShape"></stop><stop offset=".59" stop-color="#d7e4f1" class="stopColord7dcf1 svgShape"></stop><stop offset=".85" stop-color="#f4f6f8" class="stopColorf4f6fb svgShape"></stop><stop offset="1" stop-color="#ffffff" class="stopColorffffff svgShape"></stop></linearGradient><linearGradient id="v" x1="124.16" x2="247.54" y1="714.71" y2="714.71" gradientUnits="userSpaceOnUse"><stop offset="0" stop-color="#6db6ff" class="stopColorffaf6d svgShape"></stop><stop offset=".36" stop-color="#f356d6" class="stopColorf39356 svgShape"></stop><stop offset=".76" stop-color="#e941ca" class="stopColore97a41 svgShape"></stop><stop offset="1" stop-color="#e539c6" class="stopColore57139 svgShape"></stop></linearGradient><linearGradient id="w" x1="1032.34" x2="1171.55" y1="67.37" y2="308.48" gradientTransform="matrix(-1 0 0 1 1295.37 0)" gradientUnits="userSpaceOnUse"><stop offset=".57" stop-color="#fb4bdb" class="stopColorfb944b svgShape"></stop><stop offset=".63" stop-color="#ef42d0" class="stopColoref8242 svgShape"></stop><stop offset=".7" stop-color="#e539c6" class="stopColore57139 svgShape"></stop></linearGradient><linearGradient id="x" x1="794.46" x2="911.39" y1="574.43" y2="574.43" gradientUnits="userSpaceOnUse"><stop offset=".35" stop-color="#c4d6e9" class="stopColorc4cae9 svgShape"></stop><stop offset=".43" stop-color="#cddcec" class="stopColorcdd2ec svgShape"></stop><stop offset=".8" stop-color="#f1f5fa" class="stopColorf1f3fa svgShape"></stop><stop offset="1" stop-color="#ffffff" class="stopColorffffff svgShape"></stop></linearGradient><linearGradient id="y" x1="1249.71" x2="1285.14" y1="532.5" y2="593.87" gradientTransform="rotate(120 1050.076 434.382)" gradientUnits="userSpaceOnUse"><stop offset="0" stop-color="#e539c6" class="stopColore57139 svgShape"></stop><stop offset=".26" stop-color="#ec46ce" class="stopColorec8646 svgShape"></stop><stop offset="1" stop-color="#6bb5ff" class="stopColorffc16b svgShape"></stop></linearGradient><linearGradient id="z" x1="1264.99" x2="1300.42" y1="523.68" y2="585.05" gradientTransform="rotate(120 1050.076 434.382)" gradientUnits="userSpaceOnUse"><stop offset="0" stop-color="#453eaf" class="stopColor423eaf svgShape"></stop><stop offset=".22" stop-color="#534cc0" class="stopColor504cc0 svgShape"></stop><stop offset="1" stop-color="#857dfb" class="stopColor807dfb svgShape"></stop></linearGradient></defs><g style="isolation:isolate" fill="#010001" class="color000000 svgShape"><g fill="#010001" class="color000000 svgShape"><g data-name="i symbol" fill="#010001" class="color000000 svgShape"><path style="mix-blend-mode:multiply" fill="url(#d)" d="m909.43 250.24-193.67 15.24v76.41l193.67 15.25v-106.9z"></path><path fill="url(#e)" d="m639.88 162 18.85 147c0 8.43 5.57 16.86 16.7 23.29s25.74 9.64 40.34 9.64 29.19-3.21 40.33-9.64 16.7-14.86 16.7-23.29l18.85-147Z"></path><path fill="url(#a)" d="M795.22 144.29 790.9 134l-.68 2a57.5 57.5 0 0 0-16.59-13.79c-16-9.22-36.92-13.84-57.87-13.84s-41.88 4.63-57.86 13.85A57.5 57.5 0 0 0 641.31 136l-.68-2-4.32 10.34a28.71 28.71 0 0 0-2.38 11.34c0 12.09 8 24.18 24 33.4s36.92 13.84 57.87 13.84 41.88-4.61 57.86-13.84 24-21.31 24-33.4a28.89 28.89 0 0 0-2.44-11.39Z"></path><path fill="#f4f6f8" d="M661.2 112.64c15.07-8.7 34.82-13 54.56-13s39.5 4.35 54.57 13 22.6 20.1 22.6 31.51-7.53 22.8-22.6 31.5-34.82 13-54.56 13-39.5-4.35-54.57-13-22.6-20.1-22.6-31.5 7.53-22.81 22.6-31.51Z" class="color6b67e9 svgShape"></path><path d="m770.33 112.64-1.33-.74c-12.61 1.49-53.21 72.49-53.21 72.49 6.36 0 24.46.49 42.57-3.08a83.11 83.11 0 0 0 12-5.66c15.07-8.7 22.6-20.1 22.6-31.5s-7.56-22.81-22.63-31.51Z" style="mix-blend-mode:multiply" fill="#dae7f5" class="colordae0f5 svgShape"></path><path fill="url(#f)" d="m782.93 132.55-4.81-10.74-1 2.7a52.58 52.58 0 0 0-11.85-9.12c-13.67-7.89-31.59-11.83-49.51-11.83s-35.83 3.94-49.5 11.83a52.58 52.58 0 0 0-11.85 9.12l-1-2.7-4.8 10.73a25 25 0 0 0-2.85 11.46c0 10.35 6.83 20.69 20.5 28.58s31.59 11.84 49.51 11.84 35.83-3.94 49.5-11.84 20.5-18.23 20.5-28.58a25.15 25.15 0 0 0-2.84-11.45Z"></path><path fill="#857dfb" d="M670.06 105.26c12.62-7.29 29.16-10.93 45.7-10.93s33.09 3.64 45.71 10.93 18.93 16.84 18.93 26.39-6.31 19.1-18.93 26.39S732.31 169 715.77 169s-33.09-3.65-45.71-10.93-18.93-16.84-18.93-26.39 6.31-19.13 18.93-26.42Z" class="color807dfb svgShape"></path><path fill="url(#g)" d="M679 112.36c10.16-5.87 23.49-8.8 36.82-8.8s26.65 2.93 36.81 8.8c9.74 5.62 14.8 12.91 15.21 20.27v-1c0-7.69-5.08-15.39-15.25-21.26s-23.49-8.8-36.81-8.8-26.66 2.93-36.82 8.8S663.7 124 663.7 131.65v1c.45-7.38 5.51-14.65 15.3-20.29Z"></path><path fill="#f4f6f8" d="M679 152.91c10.16 5.87 23.49 8.8 36.82 8.8s26.65-2.93 36.81-8.8c9.74-5.62 14.8-12.91 15.21-20.28-.41-7.36-5.47-14.65-15.21-20.27-10.16-5.87-23.49-8.8-36.81-8.8s-26.66 2.93-36.82 8.8c-9.74 5.62-14.8 12.91-15.21 20.27.36 7.37 5.42 14.66 15.21 20.28Z" class="color6b67e9 svgShape"></path><path fill="#f4f6f8" d="M767.79 132.63a16 16 0 0 0-.29-2.27 111.93 111.93 0 0 0-13.49-.83c-16.54 0-33.08 3.65-45.7 10.93-8.76 5.06-14.45 11.21-17.13 17.68a84 84 0 0 0 24.59 3.57c13.32 0 26.65-2.93 36.81-8.8 9.74-5.62 14.8-12.91 15.21-20.28Z" class="color6b67e9 svgShape"></path><path d="M759.44 129.68c-1.8-.09-3.61-.15-5.43-.15-16.54 0-33.08 3.65-45.7 10.93-8.76 5.06-14.45 11.21-17.13 17.68a81.51 81.51 0 0 0 18.37 3.35c2.94-5.79 8.33-11.25 16.24-15.81 10.76-6.22 24.38-9.74 38.4-10.65a28.8 28.8 0 0 0-4.75-5.35Z" style="mix-blend-mode:multiply" fill="url(#h)"></path><path fill="url(#i)" d="M759.43 117.25c-1.8-.09-3.61-.14-5.42-.14-16.54 0-33.08 3.64-45.7 10.93s-18.93 16.84-18.93 26.39a21.28 21.28 0 0 0 .24 3.18c.52.18 1 .37 1.56.53 2.68-6.47 8.37-12.62 17.13-17.68 12.62-7.28 29.16-10.93 45.7-10.93 1.81 0 3.62.06 5.42.15Z"></path><path fill="#5046e4" d="M759.43 117.25v12.42a26 26 0 0 1 6.87 9.18 18.54 18.54 0 0 0 1.49-6.22c-.3-5.37-3.09-10.7-8.36-15.38Z" class="color5652cc svgShape"></path><ellipse cx="715.77" cy="262.23" fill="url(#j)" rx="33.02" ry="30.77"></ellipse><path d="M714.89 263.34c1.72-.78 4.62-1.74 5.8-3.07 2.79-3.18 3.17-12.21 2.09-13-2.79-1.62-10.62-.51-16.93 8-7 9.46-5.13 16.52-1.79 19.83.23.23.49.47.77.71-1-2.32 1.31-6.22 2.68-8.31 1.63-2.5 4.86-3 7.38-4.16Zm11-14.38c-.38-.33-.75-.62-1.12-.9 1.59 3.41.8 10.11-2.36 13.3-1.39 1.41-5.9 3.28-7.68 4-2 .75-3.86 1.33-5.35 3.1s-4.14 7.63-2.78 8.69c3.45 2.26 8.76 3.18 17.06-5.16 9.73-9.81 7.1-18.81 2.24-22.99Z" style="mix-blend-mode:multiply" fill="url(#k)"></path><path d="M764.19 135c.52-9.23-4.76-17.78-4.76-17.78v12.42a28 28 0 0 1 4.76 5.36Z" style="mix-blend-mode:multiply" fill="url(#l)"></path><path fill="#f1f3f6" d="M725 89.28c9.86-9.71 12.64-25.21 2.48-39.71C719 37.51 731.34 20.64 737 14.9c-12.75 4.77-27.69 24-20.8 37.4 7.8 15.23 15.19 15.91 8.8 36.98Z" class="colorf1f1f6 svgShape"></path><path style="mix-blend-mode:multiply" fill="url(#m)" d="M451.29 233.7H420.6l229.32 132.4-411.39 237.51h30.69L680.61 366.1 451.29 233.7z"></path><path fill="url(#n)" d="M18.18 459.35v.26a1.13 1.13 0 0 0 0-.26ZM650.1 347.24v.13a.57.57 0 0 0 0-.13Zm-8.8 12.47-383 221.14c-11.75 6.78-31 6.78-42.73 0L27 472c-5.86-3.38-8.79-7.84-8.81-12.29v17.5c-.07 4.53 2.86 9.07 8.81 12.51l188.54 108.85c11.75 6.78 31 6.78 42.73 0l383-221.15c5.88-3.39 8.82-7.86 8.81-12.33v-17.72c.03 4.47-2.9 8.94-8.78 12.34Z"></path><path fill="#f2f4f7" d="M258.26 580.86c-11.75 6.78-31 6.77-42.72 0L27 472c-11.75-6.78-11.75-17.88 0-24.66l383-221.17c11.74-6.78 31-6.78 42.72 0L641.3 335c11.75 6.78 11.75 17.88 0 24.66Z" class="colorf2f2f7 svgShape"></path><path fill="#cee3f8" d="M251.94 572.17c-8.27 4.78-21.8 4.78-30.07 0L42 468.34c-8.27-4.78-8.27-12.59 0-17.36l374.36-216.13c8.26-4.77 21.79-4.77 30.06 0l179.85 103.84c8.27 4.78 8.27 12.59 0 17.36Z" class="colorced3f8 svgShape"></path><path fill="#f2f4f7" d="m587 316-8.68 5a13.26 13.26 0 0 1-12 0L477 269.48c-3.32-1.91-3.32-5 0-6.94l8.68-5Z" class="colorf2f2f7 svgShape"></path><path fill="#bdd0e4" d="m498.06 269.44 55.4 31.99-3.17 1.82-55.39-31.98 3.16-1.83zM562.59 308.53a9.39 9.39 0 0 1 8.51 0c2.35 1.36 2.35 3.55 0 4.91a9.42 9.42 0 0 1-8.51 0c-2.35-1.36-2.34-3.56 0-4.91Z" class="colorbdc1e4 svgShape"></path><path fill="url(#o)" d="m790.84 497.95-310.4 185.76h11.36l310.4-179.2-11.36-6.56z"></path><path d="m258.7 530.24 11.76-6.79-8.56-4.94-20.32 11.73h17.12z" style="mix-blend-mode:multiply" fill="#dae7f5" class="colordae0f5 svgShape"></path><path fill="#a5b8cc" d="m551.98 351.03-310.4 179.21v-6.56l310.4-179.21v6.56z" class="colora5abcc svgShape"></path><path fill="#c4d6e9" d="M241.58 523.68 94.6 438.82l89.95-51.93 146.98 84.86-89.95 51.93z" class="colorc4cae9 svgShape"></path><path fill="#e8eff7" d="m480.44 683.71-158-91.24a5.86 5.86 0 0 1-2-2.12l-22-38-199-114.88c-1-.57-1.81-.1-1.81 1.05a4 4 0 0 0 1.81 3.14l142.12 82v6.56l-142.1-82.03a16.6 16.6 0 0 1-7.49-13c0-4.77 3.36-6.71 7.49-4.32l200.15 115.57a5.78 5.78 0 0 1 2 2.12l22 38 156.87 90.57Z" class="colore8ecf7 svgShape"></path><path fill="#d1e2f3" d="m790.84 504.51-310.4 179.2v-6.56l310.4-179.2v6.56z" class="colord1d7f3 svgShape"></path><path fill="url(#p)" d="m634 407.38-22-38a5.8 5.8 0 0 0-2-2.12L409.86 251.68c-2.5-1.44-4.71-1.3-6.07.09L94.6 430.16a5.54 5.54 0 0 1 4.86.73l200.15 115.55a5.78 5.78 0 0 1 2 2.12l22 38 156.87 90.57L790.83 498Z"></path><text fill="#ced3f8" font-family="Montserrat-Bold,Montserrat Bold" font-size="64.75" font-weight="700" transform="matrix(.87 -.5 .87 .5 218.67 428.6)">N<tspan x="42.6" y="0" letter-spacing=".01em">E</tspan><tspan x="75.04" y="0">WS</tspan></text><path fill="#857dfb" d="M432.29 317.5 212.3 444.52l-2.01-1.16 220-127.02 2 1.16zM490.93 332.26 237.85 478.37 201 457.1l253.09-146.12 36.84 21.28z" class="color807dfb svgShape"></path><path fill="#dfe9f4" d="m374.22 426.82-103.78 59.92-11.83-6.83 103.78-59.92 11.83 6.83z" class="colordfe4f4 svgShape"></path><path d="m458.74 470.89-127.65 73.69 1.77 3 127.64-73.64Zm10.42 18.05-127.64 73.69 1.76 3L470.92 492Zm5.89 10.19-.68-1.17-127.64 73.7.67 1.17 2.18 1.25 127.64-73.69Zm19.49 11.26-127.65 73.69 3.53 2 127.64-73.7Zm-41-48.53-127.66 73.69 1.77 3.06 127.64-73.7ZM464 479.91l-127.7 73.7 1.77 3L465.71 483Zm-19.58-24.8-127.64 73.7 3.53 2 127.59-73.66ZM392.26 425l-127.64 73.72 3.53 2 127.64-73.7Zm20.85 12-127.65 73.7 3.53 2 127.64-73.6Zm-10.42-6L275 504.74l3.53 2 127.64-73.69Zm31.26 18-127.64 73.7 3.52 2L437.48 451Zm-10.42-6-127.64 73.77 3.52 2 127.65-73.7Zm60.58 61.29-127.64 73.77 3.53 2 127.64-73.7Zm104.22 60.17-127.64 73.77 3.52 2 127.65-73.7Zm-10.42-6-127.65 73.75 3.53 2 127.64-73.69Zm20.84 12-127.64 73.7 3.52 2 127.65-73.69Zm-31.26-18L439.84 626.2l3.53 2L571 554.54Zm-52.11-30.08-88.59 51.15 3.53 2 88.58-51.14Zm41.68 24.07-127.64 73.73 3.53 2 127.64-73.7Zm-31.26-18-88.59 51.14 3.53 2 88.59-51.15ZM505 516.4l-127.69 73.7 3.53 2 127.64-73.69Zm31.26 18.05-88.63 51.15 3.53 2 88.59-51.15Zm10.42 6-88.59 51.15 3.53 2 88.59-51.14ZM535.87 426.35l-65.73 37.95 1.77 3.05 65.73-38Zm10.42 18-65.72 38 1.76 3 65.73-37.94Zm5.89 10.2-.67-1.17-65.73 37.95.67 1.17 2.18 1.25 65.73-37.95Zm19.49 11.25-65.73 38 3.53 2 65.73-37.95Zm-41-48.52-65.73 37.94 1.77 3.06 65.73-37.95Zm10.42 18.05-65.73 37.94 1.77 3.06 65.73-37.95Zm37.91-58-123.22 71.2 3.53 2 123.21-71.14Zm-52.1-30.09-123.23 71.2 3.53 2 123.21-71.14Zm20.84 12-123.23 71.24 3.53 2 123.22-71.14Zm-10.42-6-123.23 71.22 3.53 2 123.21-71.13Zm31.26 18.05-123.22 71.22 3.52 2 123.22-71.1Zm-10.42-6-123.22 71.2 3.52 2 123.22-71.14Zm3.1 94.48-65.73 37.95 3.53 2 65.73-37.95Zm161.7 27L599.74 558l3.52 2 123.22-71.14Zm-10.42-6-123.23 71.16 3.53 2 123.22-71.14Zm20.84 12L610.16 564l3.52 2 123.22-71.13Zm-31.26-18.05-123.23 71.2 3.53 2 123.21-71.13Zm-109.6 3.1-65.72 38 3.52 2 65.68-37.9Zm99.18-9.12-123.23 71.2 3.53 2 123.21-71.1Zm-88.76 15.2-65.73 38 3.52 2 65.73-37.95Zm-20.85-12-65.73 37.95 3.53 2 65.73-38Zm88.75-15.14-123.21 71.11 3.52 2 123.22-71.14Zm10.42 6-123.21 71.12 3.53 2 123.21-71.14Z" style="mix-blend-mode:multiply" fill="#e8eff7" class="colore8ecf7 svgShape"></path><path fill="#e8eff7" d="M615.2 575.54a13.71 13.71 0 0 1 12.44 0c3.43 2 3.43 5.19 0 7.17a13.71 13.71 0 0 1-12.44 0c-3.43-1.98-3.43-5.19 0-7.17Z" class="colore8ecf7 svgShape"></path><path d="m664.08 455.56-56.78-32.78-22-38a6.7 6.7 0 0 0-1-1.29l-50 28.89a7.13 7.13 0 0 1 1 1.29l22 38 56.79 32.78Z" style="mix-blend-mode:multiply" fill="#6db6ff" class="colorffaf6d svgShape"></path><path fill="#6db6ff" d="m420.4 614.97-30.91-17.84 30.91-17.85 30.91 17.85-30.91 17.84z" class="colorffaf6d svgShape"></path><path d="M496.74 626.71c-20-11.57-47.31-16.4-73.42-14.53 18.83 1.35 37.05 6.19 51.5 14.53 34.5 19.92 34.5 52.21 0 72.13-14.45 8.35-32.67 13.18-51.51 14.53 26.11 1.88 53.39-3 73.43-14.53 34.5-19.92 34.5-52.21 0-72.13Z" style="mix-blend-mode:multiply" fill="url(#b)"></path><path d="M377.29 626.71c14.46-8.34 32.68-13.18 51.51-14.53-26.11-1.87-53.38 3-73.43 14.53-34.5 19.92-34.5 52.21 0 72.13 20.05 11.57 47.32 16.41 73.42 14.53-18.82-1.35-37-6.18-51.5-14.53-34.5-19.92-34.5-52.21 0-72.13Z" style="mix-blend-mode:multiply" fill="url(#q)"></path><path fill="#9c9ba5" d="M480 626.8c-34.66-20-90.88-20-125.54 0s-34.67 52.46 0 72.48 90.88 20 125.54 0 34.66-52.46 0-72.48Zm-10.35 66.51c-28.95 16.71-75.88 16.71-104.83 0s-28.95-43.81 0-60.53 75.88-16.71 104.83 0 28.92 43.82-.02 60.53Z" class="colora59ba5 svgShape"></path><path fill="#37318f" d="M364.8 612.4c28.95-16.72 75.88-16.72 104.83 0 19 11 25.53 26.42 19.58 40.46-3.11-7.35-9.64-14.32-19.58-20.07-28.95-16.71-75.88-16.71-104.83 0-9.95 5.75-16.48 12.72-19.59 20.07-5.94-14.05.59-29.5 19.59-40.46Z" class="color34318f svgShape"></path><path d="M469.78 618.75C440.84 602 393.91 602 365 618.75s-28.94 43.81 0 60.51 75.87 16.72 104.81 0 28.92-43.8-.03-60.51Z" style="mix-blend-mode:screen" fill="#a50b89" class="color686a6d svgShape"></path><path d="M372.42 621.74c6.3-4 16.79-4.47 23.42-1s6.89 9.51.58 13.52-16.79 4.47-23.42 1-6.89-9.5-.58-13.52ZM404.2 614.38a10.71 10.71 0 0 1 9.7-.41c2.74 1.42 2.85 3.93.24 5.59a10.74 10.74 0 0 1-9.7.42c-2.74-1.43-2.85-3.93-.24-5.6Z" style="mix-blend-mode:screen" fill="#9c9ba5" class="colora59ba5 svgShape"></path><path fill="#f7f9fc" d="M469.78 621.78c-28.94-16.71-75.87-16.71-104.81 0-13.81 8-21 18.3-21.65 28.74-.69-11.45 6.51-23 21.65-31.77 28.94-16.71 75.87-16.71 104.81 0 15.14 8.74 22.35 20.32 21.65 31.77-.64-10.44-7.84-20.77-21.65-28.74Z" class="colorf7f7fc svgShape"></path><path fill="#857dfb" d="M480 606.41c-34.66-20-90.88-20-125.54 0s-34.67 52.47 0 72.49 90.88 20 125.54 0 34.66-52.47 0-72.49Zm-10.35 66.51c-28.95 16.71-75.88 16.71-104.83 0s-28.95-43.81 0-60.52 75.88-16.72 104.83 0 28.92 43.81-.02 60.52Z" class="color807dfb svgShape"></path><path fill="url(#r)" d="M354.44 678.9c34.67 20 90.88 20 125.54 0 17.11-9.88 25.76-22.79 26-35.74v19.38c.23 13.29-8.42 26.61-26 36.75-34.66 20-90.87 20-125.54 0-17.56-10.14-26.2-23.46-26-36.75v-19.29c.28 12.92 8.93 25.75 26 35.65Z"></path><path fill="#f7f9fc" d="M480 681.62q3.28-1.89 6.14-3.92l14.94 8.62-12.94 7.47-14.93-8.62c2.32-1.11 4.59-2.28 6.79-3.55Z" class="colorf7f7fc svgShape"></path><path fill="#d0e3f6" d="m488.12 708.73-14.93-8.62v-14.94l14.93 8.62v14.94z" class="colord0d4f6 svgShape"></path><path fill="url(#c)" d="M482.49 704.5c0-7.71 5.42-17.08 12.09-20.94 3.48-2 6.6-2.11 8.8-.67l86.07 49.7L573 762.44l-86.07-49.69c-2.7-1-4.44-3.89-4.44-8.25Z"></path><path d="m493.6 716.58 4.2 2.43c-1.82-1.39-2.94-3.91-2.94-7.4 0-7.71 5.42-17.08 12.09-20.94 3.47-2 6.6-2.11 8.8-.67l-5.7-3.29c-2.2-1.44-5.32-1.33-8.8.67-6.67 3.86-12.09 13.23-12.09 20.94-.01 4.37 1.73 7.26 4.44 8.26Z" style="mix-blend-mode:multiply" fill="url(#s)"></path><path fill="url(#t)" d="M571 761.29a17.06 17.06 0 1 0 17.84-29c-2.16-1.06-5-.83-8.2 1-6.67 3.85-12.09 13.23-12.09 20.94 0 3.35 1 5.84 2.74 7.26Z"></path><path d="M573 762.44Z" fill="#010001" class="color000000 svgShape"></path><path d="M248.87 678.14c-12.89-7.44-30-10.87-46.86-10.36h-18.79v4.32a70.35 70.35 0 0 0-14 6c-24 14-23.86 36.57.29 50.52a70.53 70.53 0 0 0 13.67 5.93v4.51h24.05c15.22-.25 30.31-3.71 41.89-10.43 24.03-13.92 23.88-36.53-.25-50.49Z" style="mix-blend-mode:multiply" fill="url(#u)"></path><path fill="url(#v)" d="M142.37 728.66c-12.16-7-18.23-16.23-18.21-25.43l.06-12.94c0 9.21 6 18.41 18.2 25.44 24.16 13.94 63.2 13.94 87.2 0 11.93-6.93 17.89-16 17.92-25.08v12.93c0 9.09-6 18.15-17.92 25.09-24.05 13.95-63.09 13.95-87.25-.01Z"></path><path fill="#e6eef7" d="M142.42 715.73c-24.15-14-24.29-36.57-.29-50.51s63.05-14 87.21 0 24.28 36.56.28 50.51-63.04 13.94-87.2 0Z" class="colore6ecf7 svgShape"></path><path fill="#bbd0e6" d="M210.57 675.61c-13.38-7.72-35.15-7.72-48.53 0s-13.38 20.29 0 28 35.15 7.72 48.53 0c13.37-7.74 13.36-20.28 0-28ZM196.39 694l-7.65-4.42 10.56-6.09a37.21 37.21 0 0 1 8.18 6.55 44.14 44.14 0 0 0-11.09 3.96Zm12.55-2.16c2.71 3.8 3 7.32.3 9.59l-10.43-6a40.18 40.18 0 0 1 10.13-3.56Zm-22.63-3.66-7.65-4.42a21.43 21.43 0 0 0 6.74-6.43 59.59 59.59 0 0 1 11.47 4.76Zm-10.07-5.82-10.41-6c3.91-1.54 9.94-1.39 16.44.14a18.75 18.75 0 0 1-6.03 5.89Zm-2.48-9a50.61 50.61 0 0 1 10.15-1.49 10.68 10.68 0 0 1-.66 2.76 48.45 48.45 0 0 0-9.49-1.28Zm-10.35 4.43 10.4 6a38.84 38.84 0 0 1-10.19 3.49c-2.62-3.76-2.89-7.28-.21-9.5Zm-3.09 10.06c-1.56.2-3.15.32-4.77.38a12.32 12.32 0 0 1 2.58-5.86 11.65 11.65 0 0 0 2.19 5.47Zm15.92-2.65 7.65 4.42-10.58 6.11a36.63 36.63 0 0 1-8.25-6.64 43 43 0 0 0 11.18-3.9Zm10.07 5.8 7.65 4.42a22.34 22.34 0 0 0-6.85 6.42 59.7 59.7 0 0 1-11.38-4.73Zm10.07 5.82 10.43 6c-3.95 1.54-10 1.38-16.59-.17a19.8 19.8 0 0 1 6.16-5.82Zm2.47 9.06a50.66 50.66 0 0 1-10.31 1.49 9.9 9.9 0 0 1 .68-2.79 49.28 49.28 0 0 0 9.63 1.31Zm13.38-14.6a45.33 45.33 0 0 1 4.84-.4 12.21 12.21 0 0 1-2.57 6 11.77 11.77 0 0 0-2.27-5.59Zm-1.42-1.83a39.19 39.19 0 0 0-9.09-7.34l7.57-4.37c4.94 3.18 7.54 7.14 7.82 11.15a54.41 54.41 0 0 0-6.3.57Zm-3.95-13.11-7.56 4.37a63.81 63.81 0 0 0-12.88-5.29 11.88 11.88 0 0 0 .93-3.6 45 45 0 0 1 19.51 4.53Zm-51.37 13.86a55.45 55.45 0 0 0 6.24-.53 38.3 38.3 0 0 0 9.15 7.45l-7.56 4.37c-4.99-3.22-7.61-7.23-7.83-11.29Zm10.25 12.69 7.57-4.37a63.5 63.5 0 0 0 12.75 5.25 11.35 11.35 0 0 0-1 3.64 45.22 45.22 0 0 1-19.32-4.52Z" class="colorbbc0e6 svgShape"></path><path fill="#6db6ff" d="m299.53 95.55-154.22 89c-8.21 4.74-14.93 16.35-14.94 25.81v94.81c0 9.45 6.72 13.3 14.93 8.56l148.2-85.57 20.95 11.51V104.11c.01-9.45-6.71-13.3-14.92-8.56Z" class="colorffaf6d svgShape"></path><path fill="url(#w)" d="m139.1 181 154.22-89c4.31-2.49 8.21-2.59 10.94-.76l5.59 3.23c-2.69-1.43-6.33-1.17-10.33 1.14l-154.22 89c-8.21 4.74-14.93 16.35-14.94 25.81v94.81c0 4.56 1.57 7.8 4.11 9.41l-5.66-3.26c-2.87-1.49-4.67-4.86-4.67-9.74v-94.83c.02-9.45 6.74-21.06 14.96-25.81Z"></path><path fill="#ffffff" d="m206.14 191.05 88.95-51.36v-7.87l-88.95 51.36v7.87zM206.14 211.01l88.95-51.36v-7.87l-88.95 51.36v7.87zM206.14 230.97l88.95-51.36v-7.86l-88.95 51.35v7.87zM206.14 250.93l57.11-32.98v-7.86l-57.11 32.97v7.87zM174.4 200.38l-6.18 3.62v44.18l6.18-3.57Zm-3.09 56.17a12.06 12.06 0 0 0-5.46 9.46c0 3.49 2.44 4.9 5.46 3.16a12.08 12.08 0 0 0 5.47-9.47c0-3.48-2.45-4.9-5.47-3.15Z" class="colorffffff svgShape"></path><path d="M901.11 559.93c-7-4.08-16.26-6.07-25.49-6h-45.48c-9.11 0-18.25 2-25.22 6-13.88 8-13.95 21-.16 29 7 4.06 16.19 6 25.37 6h31.43c9.14 0 32.38-2 39.37-6 13.88-8 13.96-20.99.18-29Z" style="mix-blend-mode:multiply" fill="url(#x)"></path><path fill="url(#y)" d="M854.84 571.29c7-4 10.47-9.32 10.45-14.6v-17.64c0 5.28-3.47 10.57-10.45 14.6-13.88 8-36.3 8-50.08 0-6.85-4-10.28-9.19-10.3-14.41v17.64c0 5.22 3.44 10.43 10.3 14.41 13.78 8.02 36.24 8.02 50.08 0Z"></path><path fill="url(#z)" d="M854.84 588.93c7-4 10.47-9.32 10.45-14.6v-17.64c0 5.28-3.47 10.57-10.45 14.6-13.88 8-36.3 8-50.08 0-6.85-4-10.28-9.19-10.3-14.41v17.64c0 5.22 3.44 10.43 10.3 14.41 13.78 8.07 36.24 8.07 50.08 0Z"></path><path fill="#f1f3f6" d="M854.81 553.65c13.87-8 14-21 .17-29s-36.22-8-50.09 0-13.95 21-.16 29 36.2 8.02 50.08 0Z" class="colorf1f1f6 svgShape"></path><path fill="#bbd0e6" d="M847.58 528.24c2.38 1.38 2.39 3.6 0 5a9.49 9.49 0 0 1-8.59 0c-2.38-1.38-2.39-3.6 0-5a9.49 9.49 0 0 1 8.59 0ZM825.38 534.49l3.52-2.03 11.4 6.58-3.52 2.03-2.44-1.4-13.46 7.77 2.44 1.41-3.53 2.03-11.4-6.58 3.53-2.04 2.44 1.41 13.46-7.77-2.44-1.41z" class="colorbbc0e6 svgShape"></path></g></g></g></svg>