<svg xmlns="http://www.w3.org/2000/svg" xmlns:xlink="http://www.w3.org/1999/xlink" viewBox="0 0 1405.585 1095.213" id="Secureddata"><defs><linearGradient id="j" x1="253.059" x2="1252.786" y1="670.821" y2="670.821" gradientUnits="userSpaceOnUse"><stop offset="0" stop-color="#c6d4e3" class="stopColorc6cae3 svgShape"></stop><stop offset=".242" stop-color="#ccd9e6" class="stopColorcccfe6 svgShape"></stop><stop offset=".552" stop-color="#dce5ee" class="stopColordcdeee svgShape"></stop><stop offset=".9" stop-color="#f6f8fb" class="stopColorf6f7fb svgShape"></stop><stop offset="1" stop-color="#ffffff" class="stopColorffffff svgShape"></stop></linearGradient><linearGradient id="k" x1="268.2" x2="553.546" y1="423.535" y2="423.535" gradientUnits="userSpaceOnUse"><stop offset="0" stop-color="#c6d6e7" class="stopColorc6cbe7 svgShape"></stop><stop offset=".021" stop-color="#c8d8e8" class="stopColorc8cde8 svgShape"></stop><stop offset=".333" stop-color="#e6edf5" class="stopColore6e8f5 svgShape"></stop><stop offset=".6" stop-color="#f8fafc" class="stopColorf8f9fc svgShape"></stop><stop offset=".79" stop-color="#ffffff" class="stopColorffffff svgShape"></stop></linearGradient><linearGradient id="a" x1="-214.636" x2="-156.213" y1="521.579" y2="521.579" gradientTransform="translate(475.166)" gradientUnits="userSpaceOnUse"><stop offset=".427" stop-color="#d3e2f2" class="stopColord3d8f2 svgShape"></stop><stop offset=".468" stop-color="#d7e5f3" class="stopColord7dcf3 svgShape"></stop><stop offset=".806" stop-color="#f4f8fc" class="stopColorf4f5fc svgShape"></stop><stop offset="1" stop-color="#ffffff" class="stopColorffffff svgShape"></stop></linearGradient><linearGradient id="l" x1="-225.577" x2="-175.085" y1="520.67" y2="520.67" gradientTransform="translate(475.166)" gradientUnits="userSpaceOnUse"><stop offset="0" stop-color="#726ae2" class="stopColor6a6ae2 svgShape"></stop><stop offset=".309" stop-color="#5046e4" class="stopColor5a5acc svgShape"></stop><stop offset=".739" stop-color="#4f48b3" class="stopColor4848b3 svgShape"></stop><stop offset="1" stop-color="#4841aa" class="stopColor4141aa svgShape"></stop></linearGradient><linearGradient id="m" x1="254.388" x2="300.061" y1="500.975" y2="500.975" gradientUnits="userSpaceOnUse"><stop offset=".427" stop-color="#d3e2f2" class="stopColord3d8f2 svgShape"></stop><stop offset=".598" stop-color="#dbe7f4" class="stopColordbdff4 svgShape"></stop><stop offset=".867" stop-color="#f1f6fb" class="stopColorf1f3fb svgShape"></stop><stop offset="1" stop-color="#ffffff" class="stopColorffffff svgShape"></stop></linearGradient><linearGradient id="n" x1="-231.726" x2="-181.232" y1="495.821" y2="495.821" gradientTransform="translate(475.166)" gradientUnits="userSpaceOnUse"><stop offset="0" stop-color="#429af2" class="stopColorf2bd42 svgShape"></stop><stop offset=".2" stop-color="#e93dca" class="stopColore9b13d svgShape"></stop><stop offset=".697" stop-color="#d833ba" class="stopColord89833 svgShape"></stop><stop offset="1" stop-color="#a50b89" class="stopColord18f2f svgShape"></stop></linearGradient><linearGradient id="o" x1="-127.811" x2="-69.388" y1="512.3" y2="512.3" xlink:href="#a"></linearGradient><linearGradient id="b" x1="-138.753" x2="-88.261" y1="511.393" y2="511.393" gradientTransform="translate(475.166)" gradientUnits="userSpaceOnUse"><stop offset="0" stop-color="#d0e3f6" class="stopColord0d4f6 svgShape"></stop><stop offset=".417" stop-color="#c6d9ed" class="stopColorc6caed svgShape"></stop><stop offset="1" stop-color="#bdd0e4" class="stopColorbdc1e4 svgShape"></stop></linearGradient><linearGradient id="p" x1="515.057" x2="573.481" y1="817.015" y2="817.015" xlink:href="#a"></linearGradient><linearGradient id="q" x1="504.116" x2="554.608" y1="816.108" y2="816.108" xlink:href="#b"></linearGradient><linearGradient id="r" x1="-354.943" x2="-296.519" y1="867.578" y2="867.578" xlink:href="#a"></linearGradient><linearGradient id="s" x1="-365.884" x2="-315.392" y1="866.671" y2="866.671" xlink:href="#b"></linearGradient><linearGradient id="t" x1="912.769" x2="1112.581" y1="972.385" y2="972.385" gradientUnits="userSpaceOnUse"><stop offset=".453" stop-color="#c6d4e3" class="stopColorc6cae3 svgShape"></stop><stop offset="1" stop-color="#ffffff" class="stopColorffffff svgShape"></stop></linearGradient><linearGradient id="u" x1="863.556" x2="1075.996" y1="997.946" y2="997.946" gradientUnits="userSpaceOnUse"><stop offset="0" stop-color="#429af2" class="stopColorf2bd42 svgShape"></stop><stop offset="1" stop-color="#a50b89" class="stopColord18f2f svgShape"></stop></linearGradient><linearGradient id="v" x1="57.116" x2="-65.756" y1="455.186" y2="123.836" gradientTransform="matrix(-1 0 0 1 432.256 0)" gradientUnits="userSpaceOnUse"><stop offset="0" stop-color="#d0e1f2" class="stopColord0d3f2 svgShape"></stop><stop offset=".741" stop-color="#f6f8fa" class="stopColorf6f6fa svgShape"></stop></linearGradient><linearGradient id="w" x1="155.675" x2="3.597" y1="411.924" y2="243.731" gradientTransform="matrix(-1 0 0 1 432.256 0)" gradientUnits="userSpaceOnUse"><stop offset="0" stop-color="#c4d2e1" class="stopColorc4c8e1 svgShape"></stop><stop offset="1" stop-color="#d0e1f2" class="stopColord0d3f2 svgShape"></stop></linearGradient><linearGradient id="x" x1="29.761" x2="156.822" y1="362.497" y2="362.497" gradientTransform="matrix(-1 0 0 1 432.256 0)" gradientUnits="userSpaceOnUse"><stop offset="0" stop-color="#ffffff" class="stopColorffffff svgShape"></stop><stop offset="1" stop-color="#dce6f1" class="stopColordce0f1 svgShape"></stop></linearGradient><linearGradient id="c" x1="-55.115" x2="5.714" y1="81.49" y2="186.849" gradientTransform="matrix(-1 0 0 1 432.256 0)" gradientUnits="userSpaceOnUse"><stop offset=".259" stop-color="#5b54be" class="stopColor5457be svgShape"></stop><stop offset=".941" stop-color="#817ae7" class="stopColor7a7de7 svgShape"></stop><stop offset="1" stop-color="#857eeb" class="stopColor7e80eb svgShape"></stop></linearGradient><linearGradient id="y" x1="62.873" x2="120.704" y1="153.849" y2="254.014" xlink:href="#c"></linearGradient><linearGradient id="z" x1="128.729" x2="128.729" y1="449.957" y2="229.4" gradientTransform="matrix(-1 0 0 1 432.256 0)" gradientUnits="userSpaceOnUse"><stop offset="0" stop-color="#671d67" class="stopColor1d1e67 svgShape"></stop><stop offset=".703" stop-color="#3b3590" class="stopColor353790 svgShape"></stop><stop offset="1" stop-color="#4640a3" class="stopColor4043a3 svgShape"></stop></linearGradient><linearGradient id="A" x1="893.604" x2="1155.496" y1="-9.389" y2="444.221" gradientUnits="userSpaceOnUse"><stop offset=".551" stop-color="#5c55c6" class="stopColor5555c6 svgShape"></stop><stop offset=".597" stop-color="#3a3493" class="stopColor363493 svgShape"></stop><stop offset=".6" stop-color="#37318f" class="stopColor34318f svgShape"></stop></linearGradient><linearGradient id="B" x1="86.306" x2="380.592" y1="608.934" y2="608.934" gradientUnits="userSpaceOnUse"><stop offset="0" stop-color="#c6d6e7" class="stopColorc6cbe7 svgShape"></stop><stop offset=".596" stop-color="#ffffff" class="stopColorffffff svgShape"></stop></linearGradient><linearGradient id="C" x1="690.173" x2="1088.245" y1="-11.948" y2="677.534" gradientUnits="userSpaceOnUse"><stop offset=".576" stop-color="#867ff4" class="stopColor7f7ff4 svgShape"></stop><stop offset=".612" stop-color="#6b1c6b" class="stopColor1e1c6b svgShape"></stop></linearGradient><linearGradient id="D" x1="231.413" x2="1040.566" y1="757.606" y2="757.606" gradientUnits="userSpaceOnUse"><stop offset=".562" stop-color="#5c55c6" class="stopColor5555c6 svgShape"></stop><stop offset=".612" stop-color="#6b1c6b" class="stopColor1e1c6b svgShape"></stop></linearGradient><linearGradient id="E" x1="408.286" x2="623.977" y1="496.904" y2="496.904" gradientUnits="userSpaceOnUse"><stop offset="0" stop-color="#e1eaf4" class="stopColore1e5f4 svgShape"></stop><stop offset="1" stop-color="#ffffff" class="stopColorffffff svgShape"></stop></linearGradient><linearGradient id="d" x1="292.057" x2="324.971" y1="813.499" y2="813.499" gradientUnits="userSpaceOnUse"><stop offset="0" stop-color="#c6d6e7" class="stopColorc6cbe7 svgShape"></stop><stop offset=".254" stop-color="#cfddeb" class="stopColorcfd3eb svgShape"></stop><stop offset=".662" stop-color="#e6edf5" class="stopColore6e9f5 svgShape"></stop><stop offset="1" stop-color="#ffffff" class="stopColorffffff svgShape"></stop></linearGradient><linearGradient id="F" x1="290.583" x2="323.412" y1="854.295" y2="854.295" xlink:href="#d"></linearGradient><linearGradient id="e" x1="371.897" x2="407.183" y1="882.289" y2="882.289" gradientUnits="userSpaceOnUse"><stop offset="0" stop-color="#c6d6e7" class="stopColorc6cbe7 svgShape"></stop><stop offset="1" stop-color="#dce8f4" class="stopColordce1f4 svgShape"></stop></linearGradient><linearGradient id="G" x1="391.798" x2="463.628" y1="891.486" y2="891.486" xlink:href="#d"></linearGradient><linearGradient id="H" x1="259.229" x2="278.302" y1="836.194" y2="836.194" xlink:href="#d"></linearGradient><linearGradient id="I" x1="330.315" x2="369.214" y1="840.135" y2="840.135" xlink:href="#d"></linearGradient><linearGradient id="J" x1="366.62" x2="417.001" y1="870.563" y2="870.563" gradientUnits="userSpaceOnUse"><stop offset="0" stop-color="#d62db7" class="stopColord6952d svgShape"></stop><stop offset="1" stop-color="#429af2" class="stopColorf2bd42 svgShape"></stop></linearGradient><linearGradient id="K" x1="350.79" x2="432.837" y1="894.128" y2="894.128" gradientUnits="userSpaceOnUse"><stop offset="0" stop-color="#429af2" class="stopColorf2bd42 svgShape"></stop><stop offset="1" stop-color="#d62db7" class="stopColord6952d svgShape"></stop></linearGradient><linearGradient id="L" x1="177.315" x2="217.954" y1="724.458" y2="724.458" xlink:href="#e"></linearGradient><linearGradient id="M" x1="79.444" x2="203.51" y1="775.789" y2="775.789" xlink:href="#d"></linearGradient><linearGradient id="N" x1="203.743" x2="274.34" y1="724.459" y2="724.459" xlink:href="#d"></linearGradient><linearGradient id="O" x1="95.476" x2="95.482" y1="802.069" y2="802.069" gradientUnits="userSpaceOnUse"><stop offset="0" stop-color="#c6d6e7" class="stopColorc6cbe7 svgShape"></stop><stop offset="1" stop-color="#ffffff" class="stopColorffffff svgShape"></stop></linearGradient><linearGradient id="P" x1="177.327" x2="227.708" y1="703.847" y2="703.847" gradientUnits="userSpaceOnUse"><stop offset="0" stop-color="#4841aa" class="stopColor4141aa svgShape"></stop><stop offset="1" stop-color="#5c55c6" class="stopColor5555c6 svgShape"></stop></linearGradient><linearGradient id="Q" x1="179.626" x2="243.544" y1="727.41" y2="727.41" gradientUnits="userSpaceOnUse"><stop offset="0" stop-color="#5c55c6" class="stopColor5555c6 svgShape"></stop><stop offset="1" stop-color="#4841aa" class="stopColor4141aa svgShape"></stop></linearGradient><linearGradient id="R" x1="1196.767" x2="1405.585" y1="821.869" y2="821.869" gradientUnits="userSpaceOnUse"><stop offset="0" stop-color="#d3e2f2" class="stopColord3d8f2 svgShape"></stop><stop offset=".289" stop-color="#dae7f4" class="stopColordadef4 svgShape"></stop><stop offset=".711" stop-color="#eef4fa" class="stopColoreef0fa svgShape"></stop><stop offset="1" stop-color="#ffffff" class="stopColorffffff svgShape"></stop></linearGradient><linearGradient id="S" x1="-264.204" x2="-170.665" y1="681.528" y2="519.514" gradientTransform="translate(1403.629)" gradientUnits="userSpaceOnUse"><stop offset=".414" stop-color="#d0e3f6" class="stopColord0d4f6 svgShape"></stop><stop offset=".62" stop-color="#f7f9fc" class="stopColorf7f7fc svgShape"></stop></linearGradient><linearGradient id="T" x1="570.059" x2="780.241" y1="965.713" y2="965.713" gradientUnits="userSpaceOnUse"><stop offset="0" stop-color="#d3e2f2" class="stopColord3d8f2 svgShape"></stop><stop offset=".033" stop-color="#d5e4f3" class="stopColord5daf3 svgShape"></stop><stop offset=".493" stop-color="#f4f8fc" class="stopColorf4f5fc svgShape"></stop><stop offset=".753" stop-color="#ffffff" class="stopColorffffff svgShape"></stop></linearGradient><linearGradient id="U" x1="621.491" x2="651.798" y1="904.197" y2="956.689" gradientUnits="userSpaceOnUse"><stop offset=".693" stop-color="#bdd0e4" class="stopColorbdc1e4 svgShape"></stop><stop offset=".849" stop-color="#aec2d6" class="stopColoraeb3d6 svgShape"></stop><stop offset="1" stop-color="#a5b9ce" class="stopColora5aace svgShape"></stop></linearGradient><linearGradient id="f" x1="627.796" x2="658.548" y1="882.799" y2="882.799" gradientUnits="userSpaceOnUse"><stop offset="0" stop-color="#c6d6e7" class="stopColorc6cbe7 svgShape"></stop><stop offset=".221" stop-color="#d5e1ee" class="stopColord5d9ee svgShape"></stop><stop offset=".719" stop-color="#f4f6f8" class="stopColorf4f5fa svgShape"></stop><stop offset="1" stop-color="#ffffff" class="stopColorffffff svgShape"></stop></linearGradient><linearGradient id="V" x1="564.77" x2="603.138" y1="846.416" y2="846.416" xlink:href="#f"></linearGradient><linearGradient id="W" x1="583.723" x2="639.471" y1="783.895" y2="880.454" gradientUnits="userSpaceOnUse"><stop offset=".094" stop-color="#867ff4" class="stopColor7f7ff4 svgShape"></stop><stop offset=".284" stop-color="#7770e1" class="stopColor7170e1 svgShape"></stop><stop offset=".669" stop-color="#4f49af" class="stopColor4c49af svgShape"></stop><stop offset=".892" stop-color="#37318f" class="stopColor34318f svgShape"></stop></linearGradient><linearGradient id="h" x1="578.702" x2="583.733" y1="941.486" y2="941.486" gradientUnits="userSpaceOnUse"><stop offset="0" stop-color="#4841aa" class="stopColor4141aa svgShape"></stop><stop offset=".367" stop-color="#36308d" class="stopColor31308d svgShape"></stop><stop offset=".76" stop-color="#742174" class="stopColor232174 svgShape"></stop><stop offset="1" stop-color="#6b1c6b" class="stopColor1e1c6b svgShape"></stop></linearGradient><linearGradient id="g" x1="578.702" x2="583.733" y1="946.166" y2="946.166" gradientUnits="userSpaceOnUse"><stop offset="0" stop-color="#5c55c6" class="stopColor5555c6 svgShape"></stop><stop offset=".137" stop-color="#524bb6" class="stopColor4b4bb6 svgShape"></stop><stop offset=".517" stop-color="#37318d" class="stopColor33318d svgShape"></stop><stop offset=".818" stop-color="#742274" class="stopColor242274 svgShape"></stop><stop offset="1" stop-color="#6b1c6b" class="stopColor1e1c6b svgShape"></stop></linearGradient><linearGradient id="X" x1="573.448" x2="588.542" y1="907.838" y2="907.838" gradientUnits="userSpaceOnUse"><stop offset="0" stop-color="#726ae2" class="stopColor6a6ae2 svgShape"></stop><stop offset=".293" stop-color="#544db6" class="stopColor4e4db6 svgShape"></stop><stop offset=".604" stop-color="#38328d" class="stopColor34328d svgShape"></stop><stop offset=".851" stop-color="#742274" class="stopColor242274 svgShape"></stop><stop offset="1" stop-color="#6b1c6b" class="stopColor1e1c6b svgShape"></stop></linearGradient><linearGradient id="Y" x1="583.733" x2="588.563" y1="917.925" y2="917.925" xlink:href="#g"></linearGradient><linearGradient id="Z" x1="578.702" x2="588.989" y1="922.562" y2="922.562" xlink:href="#h"></linearGradient><linearGradient id="aa" x1="576.417" x2="583.733" y1="935.621" y2="935.621" xlink:href="#h"></linearGradient><linearGradient id="i" x1="707.599" x2="804.804" y1="1073.418" y2="1073.418" gradientUnits="userSpaceOnUse"><stop offset="0" stop-color="#d1e0f0" class="stopColord1d6f0 svgShape"></stop><stop offset=".26" stop-color="#e1ebf5" class="stopColore1e4f5 svgShape"></stop><stop offset=".711" stop-color="#f7f9fc" class="stopColorf7f8fc svgShape"></stop><stop offset="1" stop-color="#ffffff" class="stopColorffffff svgShape"></stop></linearGradient><linearGradient id="ab" x1="25.559" x2="92.383" y1="536.603" y2="536.603" xlink:href="#i"></linearGradient></defs><g style="isolation:isolate" fill="#010001" class="color000000 svgShape"><g fill="#010001" class="color000000 svgShape"><path d="m1252.786 453.11-25.164-14.53c-7.502-4.332-25.914-7.874-40.924-7.874H588.011c-15.006 0-329.327 196.647-329.327 196.647-7.5 4.332-7.5 11.418 0 15.754l458.268 264.578a27.999 27.999 0 0 0 13.727 3.25h11.918l322.619-186.265 13.318-7.692h174.252Z" style="mix-blend-mode:multiply" fill="url(#j)" data-name="Shadow from laptop"></path><g data-name="Paper sheet" fill="#010001" class="color000000 svgShape"><path fill="#f4f6f8" d="M344.722 1053.146 144.63 937.623l268.465-155L613.186 898.15l-268.464 154.996z" class="colorf7f7fc svgShape"></path><path fill="#e1eaf4" d="m218.874 943.486 2.543-1.469c2.559-1.476 3.969-3.441 3.969-5.527 0-2.09-1.41-4.055-3.969-5.531-5.281-3.051-13.875-3.051-19.16 0l-2.543 1.469-1.967-1.137-8.373 4.832c-6.377 3.683-6.38 9.652-.002 13.336 6.377 3.683 16.719 3.68 23.096 0l8.373-4.836Zm-15.695-9.058 2.543-1.47a13.537 13.537 0 0 1 12.232-.003c1.635.945 2.533 2.2 2.531 3.535 0 1.332-.898 2.586-2.533 3.527l-2.543 1.47Z" class="colore1e5f4 svgShape"></path><path fill="#f2f4f7" d="m429.839 845.627 126.767 73.187-3.464 2-126.768-73.187 3.465-2zM365.175 822.291l179.306 103.523-3.463 2-179.306-103.523 3.463-2zM353.052 829.291l179.306 103.523-3.465 2-179.306-103.523 3.465-2zM340.927 836.291l179.306 103.523-3.465 2-179.306-103.523 3.465-2zM328.802 843.291l179.306 103.523-3.463 2-179.306-103.523 3.463-2zM316.679 850.291l179.306 103.523-3.465 2-179.306-103.523 3.465-2zM304.554 857.291 483.86 960.814l-3.463 2-179.306-103.523 3.463-2zM292.431 864.291l179.306 103.523-3.465 2-179.306-103.523 3.465-2zM280.306 871.291l179.306 103.523-3.465 2-179.306-103.523 3.465-2zM268.181 878.291l179.306 103.523-3.463 2-179.306-103.523 3.463-2zM256.058 885.291l179.306 103.523-3.465 2-179.306-103.523 3.465-2zM243.933 892.291l135.429 78.191-3.465 2-135.429-78.191 3.465-2zM496.235 841.623l-82.273-47.5-25.547 14.75 82.271 47.5 25.549-14.75z" class="colorf2f2f7 svgShape"></path><path fill="#867ff4" d="M354.628 1032.299c-.059-.391-.652-.676-1.324-.645a10.633 10.633 0 0 1-5.692-1.598c-3.183-2.074-6.152-6.992-2.219-18.652a36.613 36.613 0 0 1 1.293-3.308 54.4 54.4 0 0 0 15.325-5.547c2.166-1.25 2.742-3.02 1.466-4.512-1.13-1.32-3.474-2.047-5.966-1.856-2.58.204-8.532 1.72-12.864 10.84-6.72 1.266-14.285 1.45-21.265-.746-2.4-.758-3.635-1.574-3.77-2.5-.36-2.441 6.864-5.738 12.668-8.386a61.41 61.41 0 0 0 8.582-4.391.503.503 0 0 0-.011-.902 1.885 1.885 0 0 0-1.532-.16c-5.648 1.808-17.398 5.578-28.828 4.48-2.906-.281-6.52-.973-7.223-2.672-.878-2.121 2.94-5.234 10.215-8.32.506-.215.647-.618.328-.93a1.773 1.773 0 0 0-1.568-.281c-10.8 2.886-25.08 2.426-30.822 1.008a1.657 1.657 0 0 0-1.61.37c-.265.36.024.774.645.926 5.18 1.282 16.156 1.856 26.336.305-4.691 2.633-6.777 5.145-5.906 7.25.56 1.356 2.613 3.102 9.203 3.738 7.98.766 15.943-.629 22.16-2.214-.492.226-.98.453-1.488.683-6.914 3.152-14.059 6.414-13.59 9.617.209 1.414 1.904 2.633 5.039 3.621 7.142 2.25 14.816 2.22 21.734 1.086-.332.797-.65 1.63-.953 2.528-3.328 9.863-2.367 16.562 2.856 19.906a14.304 14.304 0 0 0 7.671 2.027c.672-.035 1.168-.375 1.11-.765Zm3.21-34.715a4.103 4.103 0 0 1 3.444 1.082c.639.746.71 1.894-1.004 2.883a49.988 49.988 0 0 1-12.771 4.855c3.17-6.062 7.219-8.578 10.332-8.82Z" class="color7f7ff4 svgShape"></path><path fill="#bdd0e4" d="m613.186 900.627-268.464 154.996v-2.477L613.186 898.15v2.477z" class="colorbdc1e4 svgShape"></path><path fill="#d0e3f6" d="M344.722 1055.623 144.63 940.103v-2.48l200.092 115.523v2.477z" class="colord0d4f6 svgShape"></path></g><g data-name="Back block" fill="#010001" class="color000000 svgShape"><path fill="url(#k)" d="m553.546 423.545-27.012-15.598H512.44l7.046-4.068-27.013-15.597H478.38l7.046-4.069-27.013-15.597H268.2l27.013 15.597-27.013 15.598h54.027l7.046 4.068-27.012 15.597h54.026l7.046 4.069-7.034 4.062h-54.026l27.016 15.595-7.028 4.057h-54.043l27.022 15.597-27.022 15.598h148.053l27.012-15.598-7.03-4.059h37.439l.001.001v-.001h.001l27.014-15.595-7.032-4.06h32.858l27.012-15.597z"></path><path fill="#c6d6e7" d="M234.171 441.936h27.008v16.86h-27.008zM200.118 422.28h27.008v16.86h-27.008z" class="colorc6cbe7 svgShape"></path><path fill="#d0e3f6" d="m268.214 399.821-27.016-15.597V274.405l27.016 15.599v109.817z" class="colord0d4f6 svgShape"></path><path fill="#bdd0e4" d="m268.214 399.821 27.015-15.597V274.405l-27.015 15.599v109.817z" class="colorbdc1e4 svgShape"></path><path fill="#f4f6f8" d="m268.214 290.004-27.016-15.599 27.016-15.597 27.015 15.597-27.015 15.599z" class="colorf7f7fc svgShape"></path><path fill="#d0e3f6" d="m302.261 419.476-27.016-15.593V294.062l27.016 15.597v109.817z" class="colord0d4f6 svgShape"></path><path fill="#bdd0e4" d="m302.261 419.476 27.015-15.593V294.062l-27.015 15.597v109.817z" class="colorbdc1e4 svgShape"></path><path fill="#f4f6f8" d="m302.261 309.659-27.016-15.597 27.016-15.596 27.015 15.596-27.015 15.597z" class="colorf7f7fc svgShape"></path><path fill="#d0e3f6" d="m336.308 439.135-27.016-15.596V313.72l27.016 15.595v109.82z" class="colord0d4f6 svgShape"></path><path fill="#bdd0e4" d="m336.308 439.135 27.015-15.596V313.72l-27.015 15.595v109.82z" class="colorbdc1e4 svgShape"></path><path fill="#f4f6f8" d="m336.308 329.315-27.016-15.595 27.016-15.597 27.015 15.597-27.015 15.595z" class="colorf7f7fc svgShape"></path><path fill="#d0e3f6" d="m234.167 419.481-27.016-15.596V294.064l27.016 15.597v109.82z" class="colord0d4f6 svgShape"></path><path fill="#bdd0e4" d="m234.167 419.481 27.012-15.596V294.064l-27.012 15.597v109.82z" class="colorbdc1e4 svgShape"></path><path fill="#f4f6f8" d="m234.167 309.661-27.016-15.597 27.016-15.596 27.012 15.596-27.012 15.597z" class="colorf7f7fc svgShape"></path><path fill="#429af2" d="m268.214 439.14-27.016-15.601v-85.21l27.016 15.596v85.215z" class="colorf2bd42 svgShape"></path><path fill="#d62db7" d="m268.214 439.14 27.015-15.601v-85.21l-27.015 15.596v85.215z" class="colord6952d svgShape"></path><path fill="#6cb5ff" d="m268.214 353.925-27.016-15.596 27.016-15.597 27.015 15.597-27.015 15.596z" class="colorffea6c svgShape"></path><path d="M248.4 334.17h39.622l-19.808-11.438L248.4 334.17z" style="mix-blend-mode:multiply" fill="#f2f4f7" class="colorf2f2f7 svgShape"></path><path fill="#d0e3f6" d="m302.265 458.792-27.018-15.598v-98.969l27.018 15.597v98.97z" class="colord0d4f6 svgShape"></path><path fill="#bdd0e4" d="m302.265 458.792 27.011-15.598v-98.969l-27.011 15.597v98.97z" class="colorbdc1e4 svgShape"></path><path fill="#f4f6f8" d="m302.265 359.822-27.018-15.597 27.018-15.596 27.011 15.596-27.011 15.597z" class="colorf7f7fc svgShape"></path><path fill="#d0e3f6" d="m200.118 439.14-27.015-15.597v-85.477l27.015 15.597v85.477z" class="colord0d4f6 svgShape"></path><path fill="#bdd0e4" d="m200.118 439.14 27.014-15.597v-85.477l-27.014 15.597v85.477z" class="colorbdc1e4 svgShape"></path><path fill="#f4f6f8" d="m200.118 353.663-27.015-15.597 27.015-15.598 27.014 15.598-27.014 15.597z" class="colorf7f7fc svgShape"></path><path fill="#d0e3f6" d="m234.171 458.796-27.02-15.597v-60.34l27.02 15.597v60.34z" class="colord0d4f6 svgShape"></path><path fill="#bdd0e4" d="m234.171 458.796 27.012-15.597v-60.34l-27.012 15.597v60.34z" class="colorbdc1e4 svgShape"></path><path fill="#f4f6f8" d="m234.171 398.456-27.02-15.597 27.02-15.596 27.012 15.596-27.012 15.597z" class="colorf7f7fc svgShape"></path><path d="M214.357 378.7h39.622l-19.808-11.437-19.814 11.437z" style="mix-blend-mode:multiply" fill="#f2f4f7" class="colorf2f2f7 svgShape"></path><path fill="#d0e3f6" d="m268.218 478.454-27.016-15.602V377.38l27.016 15.595v85.479z" class="colord0d4f6 svgShape"></path><path fill="#bdd0e4" d="m268.218 478.454 27.015-15.602V377.38l-27.015 15.595v85.479z" class="colorbdc1e4 svgShape"></path><path fill="#f4f6f8" d="m268.218 392.975-27.016-15.595 27.016-15.597 27.015 15.597-27.015 15.595z" class="colorf7f7fc svgShape"></path></g><g data-name="Data pieces" fill="#010001" class="color000000 svgShape"><path d="M311.505 511.232c-5.278-3.043-12.29-4.446-19.178-4.24h-18.756v1.768a28.781 28.781 0 0 0-5.713 2.472c-9.818 5.715-9.761 14.969.12 20.676a28.667 28.667 0 0 0 5.593 2.43v1.847h20.908c6.229-.105 12.4-1.523 17.143-4.27 9.818-5.714 9.77-14.968-.117-20.683Z" style="mix-blend-mode:multiply" fill="url(#a)"></path><path fill="url(#l)" d="M257.04 531.896c-4.977-2.87-7.461-6.636-7.451-10.406l.021-16.333c-.01 3.767 2.475 7.536 7.448 10.411 9.89 5.711 25.869 5.711 35.689.004 4.879-2.84 7.322-6.547 7.334-10.266l-.023 16.333c-.008 3.714-2.452 7.425-7.33 10.261-9.823 5.711-25.801 5.711-35.688-.004Z"></path><path fill="#867ff4" d="M257.058 515.568c-9.885-5.707-9.938-14.962-.12-20.67 9.827-5.71 25.809-5.71 35.692 0 9.89 5.708 9.94 14.963.117 20.674-9.82 5.707-25.799 5.707-35.69-.004Z" class="color7f7ff4 svgShape"></path><path d="M288.331 511.334a40.914 40.914 0 0 0 10.48-1.516c2.862-5.077.815-10.884-6.181-14.92-9.883-5.71-25.865-5.71-35.692 0a20.498 20.498 0 0 0-2.55 1.765c-.006 3.762 2.472 7.527 7.441 10.398a28.395 28.395 0 0 0 5.596 2.425v1.848Z" style="mix-blend-mode:multiply" fill="url(#m)"></path><path fill="url(#n)" d="M250.892 507.05c-4.975-2.871-7.461-6.64-7.452-10.407l.022-16.334c-.008 3.766 2.474 7.538 7.449 10.413 9.889 5.707 25.867 5.707 35.69.003 4.878-2.84 7.32-6.548 7.333-10.267l-.023 16.33c-.01 3.717-2.453 7.426-7.332 10.268-9.822 5.704-25.8 5.704-35.687-.006Z"></path><path fill="#5ca9f7" d="M250.911 490.722c-9.887-5.71-9.94-14.963-.121-20.672 9.828-5.71 25.809-5.71 35.693 0 9.889 5.709 9.938 14.963.118 20.675-9.823 5.704-25.801 5.704-35.69-.003Z" class="colorf7d25c svgShape"></path><path fill="#429af2" d="M273.763 484.74a16.73 16.73 0 0 1-7.164 2.376 11.001 11.001 0 0 1-6.422-1.453q-2.904-1.676-2.526-3.672.378-1.995 3.918-4.08l3.27-1.889a16.548 16.548 0 0 1 7.197-2.37 11.053 11.053 0 0 1 6.379 1.456q2.903 1.676 2.531 3.666-.372 1.992-3.914 4.078Zm.07-4.112a6.279 6.279 0 0 0 2.615-2.21c.268-.618-.025-1.177-.879-1.67a4.289 4.289 0 0 0-2.795-.507 10.74 10.74 0 0 0-3.629 1.37l-4.326 2.497a6.64 6.64 0 0 0-2.638 2.207q-.466.95.84 1.707a4.272 4.272 0 0 0 2.88.493 11.529 11.529 0 0 0 3.703-1.448Z" class="colorf2bd42 svgShape"></path><path d="M398.327 501.958c-5.273-3.045-12.287-4.447-19.176-4.242h-18.754v1.767a28.7 28.7 0 0 0-5.714 2.475c-9.819 5.713-9.762 14.966.119 20.677a28.668 28.668 0 0 0 5.595 2.421v1.848h20.909c6.228-.101 12.398-1.515 17.14-4.265 9.82-5.715 9.772-14.968-.119-20.681Z" style="mix-blend-mode:multiply" fill="url(#o)"></path><path fill="url(#b)" d="M343.864 522.619c-4.976-2.871-7.46-6.64-7.451-10.406l.021-16.333c-.01 3.767 2.475 7.537 7.45 10.412 9.888 5.706 25.865 5.706 35.69.004 4.878-2.84 7.321-6.55 7.331-10.266l-.021 16.327c-.012 3.719-2.453 7.43-7.334 10.27-9.82 5.707-25.8 5.707-35.686-.008Z"></path><path fill="#f2f4f7" d="M343.884 506.292c-9.887-5.71-9.94-14.961-.12-20.67 9.827-5.71 25.81-5.71 35.692 0 9.89 5.709 9.937 14.96.117 20.674-9.824 5.702-25.8 5.702-35.69-.004Z" class="colorf2f2f7 svgShape"></path><path fill="#d3e2f2" d="m355.298 501.847-3.53-2.038 13.616-7.86-5.51-1.68 2.844-1.643 9.998 2.726.377.221Z" class="colord3d8f2 svgShape"></path><path d="M1041.196 806.674c-5.275-3.047-12.287-4.45-19.178-4.243h-18.751v1.766a28.595 28.595 0 0 0-5.715 2.477c-9.819 5.71-9.762 14.965.117 20.672a28.468 28.468 0 0 0 5.598 2.425v1.848h20.908c6.228-.102 12.4-1.516 17.14-4.27 9.82-5.71 9.772-14.964-.119-20.675Z" style="mix-blend-mode:multiply" fill="url(#p)"></path><path fill="url(#q)" d="M986.731 827.338c-4.974-2.875-7.459-6.64-7.449-10.41l.022-16.332c-.008 3.765 2.474 7.535 7.449 10.41 9.889 5.71 25.865 5.71 35.69.004 4.876-2.84 7.322-6.547 7.331-10.266l-.021 16.328c-.012 3.719-2.453 7.426-7.334 10.27-9.82 5.707-25.801 5.707-35.688-.004Z"></path><path fill="#f2f4f7" d="M986.753 811.006c-9.887-5.707-9.94-14.961-.121-20.672 9.826-5.707 25.81-5.707 35.693 0 9.89 5.71 9.938 14.965.117 20.676-9.824 5.707-25.8 5.707-35.69-.004Z" class="colorf2f2f7 svgShape"></path><path fill="#d3e2f2" d="M1009.517 804.95a16.786 16.786 0 0 1-7.165 2.376 11.005 11.005 0 0 1-6.421-1.453q-2.904-1.676-2.528-3.672.381-1.998 3.92-4.082l3.27-1.887a16.55 16.55 0 0 1 7.195-2.37 11.07 11.07 0 0 1 6.379 1.452q2.906 1.682 2.533 3.668-.372 1.992-3.912 4.078Zm.068-4.112a6.315 6.315 0 0 0 2.617-2.211q.401-.932-.879-1.668a4.28 4.28 0 0 0-2.797-.508 10.792 10.792 0 0 0-3.63 1.367l-4.323 2.5a6.616 6.616 0 0 0-2.64 2.207q-.466.95.843 1.707a4.26 4.26 0 0 0 2.88.492 11.551 11.551 0 0 0 3.702-1.449Z" class="colord3d8f2 svgShape"></path><path d="M171.196 857.236c-5.275-3.047-12.287-4.45-19.178-4.242h-18.751v1.766a28.584 28.584 0 0 0-5.715 2.476c-9.819 5.711-9.762 14.965.117 20.672a28.456 28.456 0 0 0 5.598 2.426v1.847h20.908c6.228-.101 12.4-1.515 17.14-4.27 9.82-5.71 9.772-14.964-.119-20.675Z" style="mix-blend-mode:multiply" fill="url(#r)"></path><path fill="url(#s)" d="M116.731 877.9c-4.974-2.875-7.459-6.64-7.449-10.41l.022-16.332c-.008 3.766 2.474 7.535 7.449 10.41 9.889 5.711 25.865 5.711 35.69.004 4.876-2.84 7.322-6.547 7.331-10.266l-.021 16.329c-.012 3.718-2.453 7.425-7.334 10.27-9.82 5.706-25.801 5.706-35.688-.005Z"></path><path fill="#f2f4f7" d="M116.753 861.568c-9.887-5.707-9.94-14.96-.121-20.672 9.826-5.707 25.81-5.707 35.693 0 9.89 5.711 9.938 14.965.117 20.676-9.824 5.707-25.8 5.707-35.69-.004Z" class="colorf2f2f7 svgShape"></path><path fill="#d3e2f2" d="M139.517 855.514a16.789 16.789 0 0 1-7.165 2.375 11.006 11.006 0 0 1-6.421-1.454q-2.904-1.675-2.528-3.671.381-1.999 3.92-4.083l3.27-1.886a16.553 16.553 0 0 1 7.195-2.371 11.07 11.07 0 0 1 6.379 1.453c1.937 1.12 2.781 2.34 2.533 3.668q-.372 1.992-3.912 4.078Zm.068-4.114a6.315 6.315 0 0 0 2.617-2.21q.401-.932-.879-1.669a4.28 4.28 0 0 0-2.797-.507 10.792 10.792 0 0 0-3.63 1.367l-4.323 2.5a6.613 6.613 0 0 0-2.64 2.207q-.466.949.843 1.707a4.262 4.262 0 0 0 2.88.492 11.56 11.56 0 0 0 3.702-1.45Z" class="colord3d8f2 svgShape"></path></g><g fill="#010001" class="color000000 svgShape"><path d="M1077.758 924.056c-24.654-14.233-57.426-20.789-89.613-19.83h-14.428v8.273a133.548 133.548 0 0 0-26.702 11.557c-45.887 26.686-45.621 69.928.56 96.606a134.53 134.53 0 0 0 26.142 11.33v8.644h24.491c29.103-.492 57.962-7.092 80.104-19.96 45.899-26.692 45.668-69.934-.554-96.62Z" style="mix-blend-mode:multiply" fill="url(#t)"></path><path fill="#6cb5ff" d="M1044.885 912.03c-41.482-23.95-108.737-23.95-150.219 0-20.68 11.939-31.05 27.577-31.11 43.226-.061 15.74 10.31 31.492 31.111 43.502 41.482 23.95 108.736 23.95 150.218 0 20.74-11.975 31.111-27.67 31.111-43.364 0-15.695-10.37-31.39-31.111-43.364Zm-143.15 82.647c-37.578-21.695-37.578-56.872 0-78.567 37.577-21.695 98.504-21.695 136.082 0 37.577 21.696 37.577 56.872 0 78.567-37.578 21.696-98.505 21.696-136.082 0Z" class="colorffea6c svgShape"></path><ellipse cx="969.776" cy="955.394" fill="#5ca9f7" rx="96.225" ry="55.555" class="colorf7d25c svgShape"></ellipse><path fill="#6cb5ff" d="M909.58 990.147c-15.376-8.877-24.217-20.676-24.894-33.22-.027-.532.695-.976 1.615-.992.92-.016 1.687.403 1.717.933.649 12.053 9.143 23.389 23.918 31.92 14.775 8.53 34.41 13.434 55.28 13.807.917.018 1.64.459 1.615.991-.028.532-.797.949-1.717.933-21.725-.39-42.156-5.493-57.534-14.372ZM1052.02 954.574a.852.852 0 0 1-.489-.65c-.644-12.054-9.138-23.392-23.916-31.924-14.775-8.53-34.409-13.435-55.279-13.808-.918-.017-1.642-.46-1.615-.991.028-.531.796-.948 1.716-.932 21.726.389 42.156 5.492 57.534 14.37 15.38 8.88 24.22 20.679 24.892 33.226.027.531-.695.975-1.615.99a2.426 2.426 0 0 1-1.229-.28ZM1033.098 993.313l-29.596-17.087a.718.718 0 0 1 0-1.36 2.6 2.6 0 0 1 2.356 0l29.596 17.087a.718.718 0 0 1 0 1.36 2.601 2.601 0 0 1-2.356 0ZM1009.7 971.287a.833.833 0 0 1-.488-.68c0-.531.746-.962 1.666-.962h14.973l19.213 11.093a.718.718 0 0 1 0 1.36 2.601 2.601 0 0 1-2.356 0l-18.237-10.53h-13.593a2.4 2.4 0 0 1-1.178-.281ZM1019.27 963.89a.833.833 0 0 1-.487-.68c0-.53.746-.961 1.666-.961h23.955l10.257 5.922a.718.718 0 0 1 0 1.36 2.603 2.603 0 0 1-2.357 0l-9.28-5.358h-22.575a2.4 2.4 0 0 1-1.178-.282ZM1013.674 998.861 994.46 987.77v-8.645c0-.531.746-.962 1.666-.962.92 0 1.666.43 1.666.962v7.848l18.237 10.53a.718.718 0 0 1 0 1.36 2.601 2.601 0 0 1-2.355 0ZM991.907 1004.402l-10.257-5.922v-13.83c0-.532.745-.962 1.666-.962.92 0 1.665.43 1.665.962v13.033l9.281 5.359a.718.718 0 0 1 0 1.36 2.602 2.602 0 0 1-2.355 0ZM933.694 935.922l-29.597-17.088a.718.718 0 0 1 0-1.36 2.601 2.601 0 0 1 2.356 0l29.597 17.088a.718.718 0 0 1 0 1.36 2.602 2.602 0 0 1-2.356 0ZM942.248 932.343a.833.833 0 0 1-.488-.68v-7.847l-18.238-10.53a.718.718 0 0 1 0-1.36 2.603 2.603 0 0 1 2.356 0l19.213 11.093v8.644c0 .532-.745.962-1.665.962a2.4 2.4 0 0 1-1.178-.282ZM955.058 926.818a.833.833 0 0 1-.488-.68v-13.034l-9.28-5.358a.718.718 0 0 1 0-1.36 2.602 2.602 0 0 1 2.355 0l10.257 5.921v13.83c0 .532-.746.962-1.666.962a2.399 2.399 0 0 1-1.178-.281ZM913.7 941.142l-19.213-11.093a.718.718 0 0 1 0-1.36 2.601 2.601 0 0 1 2.356 0l18.238 10.53h13.593c.92 0 1.665.43 1.665.961s-.745.962-1.665.962ZM895.148 948.538l-10.257-5.922a.718.718 0 0 1 0-1.36 2.601 2.601 0 0 1 2.356 0l9.281 5.359h22.575c.92 0 1.665.43 1.665.961 0 .532-.745.962-1.665.962ZM900.93 995.578l-.378-.218a84.419 84.419 0 0 1-8.57-5.644l2.646-1.172a81.17 81.17 0 0 0 8.28 5.456l.378.218Zm10.26 5.106 2.002-1.539a116.99 116.99 0 0 0 10.986 4.096l-1.61 1.684a121.235 121.235 0 0 1-11.377-4.241Zm-26.676-17.49a52.445 52.445 0 0 1-5.837-7.063l3.101-.707a50.485 50.485 0 0 0 5.635 6.824Zm50.344 25.02 1.183-1.798c4.065.893 8.278 1.63 12.516 2.191l-.746 1.876a155.512 155.512 0 0 1-12.953-2.269Zm-60.253-39.543a35.796 35.796 0 0 1-2.253-7.713l3.318-.189a34.528 34.528 0 0 0 2.174 7.45Zm86.582 43.028.29-1.915c4.347.22 8.748.266 13.082.138l.17 1.92c-4.488.133-9.044.085-13.542-.143Zm-89.228-58.556a33.868 33.868 0 0 1 1.465-7.772l3.277.34a32.96 32.96 0 0 0-1.415 7.51Zm116.214 57.769-.622-1.89c4.282-.47 8.54-1.117 12.659-1.922l1.067 1.822a159.52 159.52 0 0 1-13.104 1.99Zm-111.45-73.12a47.497 47.497 0 0 1 5.097-7.246l2.99.845a45.883 45.883 0 0 0-4.916 6.998Zm137.06 68.107-1.495-1.719a122.32 122.32 0 0 0 11.24-3.856l1.9 1.58c-3.7 1.48-7.618 2.823-11.644 3.995Zm-125.179-82.12a76.554 76.554 0 0 1 8.343-6.159l2.475 1.286a74.278 74.278 0 0 0-8.057 5.95ZM1036 997.022l-2.26-1.416q1.474-.783 2.904-1.607a82.795 82.795 0 0 0 6.104-3.872l2.572 1.224a86.735 86.735 0 0 1-6.323 4.01q-1.473.85-2.997 1.661Zm-133.092-80.236-2.356-1.36a102.51 102.51 0 0 1 10.206-5.135l2.01 1.533a99.407 99.407 0 0 0-9.86 4.962Zm147.455 67.199a53.19 53.19 0 0 0 6.062-6.691l3.055.77a55.519 55.519 0 0 1-6.283 6.93Zm-126.64-76.293-1.625-1.682a138.997 138.997 0 0 1 12.27-3.328l1.2 1.794a133.664 133.664 0 0 0-11.846 3.216Zm137.101 62.496a35.836 35.836 0 0 0 2.653-7.395l3.299.257a36.732 36.732 0 0 1-2.745 7.655Zm-112.756-67.943-.759-1.873a166.36 166.36 0 0 1 13.37-1.258l.308 1.916c-4.328.232-8.674.64-12.919 1.215Zm116.271 53.01a32.41 32.41 0 0 0-.931-7.539l3.299-.268a33.554 33.554 0 0 1 .964 7.801Zm-90.273-54.404.152-1.921c4.505.117 9.03.416 13.452.889l-.607 1.891a162.8 162.8 0 0 0-12.997-.86Zm86.62 39.478a42.936 42.936 0 0 0-4.463-7.103l3.045-.781a44.739 44.739 0 0 1 4.625 7.356Zm-60.965-36.735 1.054-1.826a145.51 145.51 0 0 1 12.523 2.98l-1.477 1.724a140.372 140.372 0 0 0-12.1-2.878Zm50.37 22.954a68.759 68.759 0 0 0-7.673-6.117l2.559-1.232a71.503 71.503 0 0 1 7.944 6.332Zm-26.987-16.256 1.882-1.586a109.662 109.662 0 0 1 10.62 4.851l-2.241 1.422a106.337 106.337 0 0 0-10.261-4.687Z" class="colorffea6c svgShape"></path><path fill="url(#u)" d="M1044.885 998.758c-41.482 23.95-108.736 23.95-150.218 0-20.801-12.01-31.172-27.762-31.111-43.502v23.915c-.061 15.74 10.31 31.492 31.111 43.502 41.482 23.95 108.736 23.95 150.218 0 20.74-11.974 31.111-27.67 31.111-43.364 0-.046-.006-.092-.006-.138h.006v-23.777c0 15.694-10.37 31.39-31.111 43.364Z"></path><path fill="#429af2" d="m969.776 940.331-38.386 37.225 59.77-9.816-21.384-27.409z" class="colorf2bd42 svgShape"></path><path fill="#e82ec6" d="m969.776 940.331 38.386-7.1-17.002 34.509-21.384-27.409z" class="colore8aa2e svgShape"></path><path fill="#ffffff" d="m1008.162 933.231-59.771 9.816 21.385-2.716 38.386-7.1z" class="colorffffff svgShape"></path><path fill="#6cb5ff" d="m948.391 943.047 21.385-2.716-38.386 37.225 17.001-34.509z" class="colorffea6c svgShape"></path></g><g fill="#010001" class="color000000 svgShape"><path fill="url(#v)" d="M462.415 174.276c21.467-21.127 35.637-51.832 50.334-78.129q0 56.942.006 113.885c.164 89.27-50.332 194.223-118.313 251.572 21.623-92.282 17.733-189.033 17.57-283.143 17.657 10.197 31.778 14.145 50.403-4.185Z"></path><path fill="url(#w)" d="M343.76 242.782c31.758-10.353 50.41-38.28 68.25-64.322h.003c.162 94.111 4.052 190.862-17.57 283.144h-.003c-63.685 16.524-119.006-75.129-119.006-114.557V233.16c17.668 10.194 38.596 19.312 68.327 9.622Z"></path><path d="M275.434 261.419c39.073 24.576 86.637 155.8 127.061 158.343-2.193 14.029-4.807 27.99-8.053 41.842h-.002c-63.685 16.524-119.006-75.129-119.006-114.557Z" style="mix-blend-mode:multiply" fill="url(#x)"></path><path fill="url(#c)" d="m412.013 178.46-11.657-6.729c17.657 10.197 31.78 14.145 50.403-4.184 21.468-21.128 40.781-48.863 55.482-75.162l6.508 3.762c-14.697 26.297-28.867 57.002-50.334 78.13-18.625 18.33-32.746 14.38-50.402 4.184Z"></path><path fill="url(#y)" d="M332.104 236.052c31.758-10.351 50.413-38.279 68.252-64.32l11.655 6.728c-17.84 26.042-36.493 53.969-68.25 64.322-29.73 9.69-50.659.572-68.327-9.622l-6.51-3.757c17.667 10.19 33.454 16.338 63.18 6.649Z"></path><path fill="url(#z)" d="M275.434 233.16v113.887c0 26.988 25.922 78.426 62.698 102.91-40.985-19.817-69.21-77.096-69.21-106.67V229.4l.003.001Z"></path></g><g data-name="Back window" fill="#010001" class="color000000 svgShape"><path fill="#f4f6f8" d="M1118.26 460.79c0 6.601-4.675 9.3-10.392 6L821.267 301.32c-5.717-3.3-10.393-11.4-10.393-18V43.322c0-6.6 4.676-9.3 10.393-6l286.601 165.47c5.717 3.3 10.393 11.4 10.393 18Z" class="colorf7f7fc svgShape"></path><path fill="#d0e3f6" d="m1114.802 467.692.007.012.143-.082c-.049.027-.1.047-.15.07Z" class="colord0d4f6 svgShape"></path><path fill="url(#A)" d="M1116.528 197.793 829.927 32.323c-2.832-1.636-5.407-1.794-7.285-.74h-.002l-.022.013c-.021.01-.039.022-.06.034l-8.579 4.953h.002c1.88-1.054 4.453-.896 7.286.74l286.601 165.47c5.717 3.3 10.393 11.4 10.393 18V460.79c0 3.156-1.078 5.41-2.82 6.55l8.029-4.636-.008-.012c2.117-.976 3.459-3.375 3.459-6.902V215.793c0-6.6-4.676-14.7-10.393-18Z"></path><path fill="#867ff4" d="M1107.868 202.793 821.267 37.323c-5.717-3.3-10.393-.6-10.393 6v11.5l307.387 177.47v-11.5c0-6.6-4.676-14.7-10.393-18Z" class="color7f7ff4 svgShape"></path><path fill="#ffffff" d="m821.589 44.536 8.181 4.724v9.446l-8.181-4.724v-9.446zM837.61 53.786l8.182 4.724v9.446l-8.182-4.724v-9.446zM853.632 63.036l8.181 4.724v9.446l-8.181-4.724v-9.446z" class="colorffffff svgShape"></path><path fill="#867ff4" d="m1099.534 277.853-160.826-92.852v-5.73l160.826 92.853v5.729zM1099.534 291.353 938.708 198.5v-5.73l160.826 92.854v5.729zM1099.534 304.853 938.708 212v-5.73l160.826 92.854v5.729zM1099.534 318.353 907.79 207.649v-5.73l191.744 110.705v5.729zM1099.534 331.854 907.79 221.149v-5.73l191.744 110.705v5.73zM1099.534 345.354 907.79 234.648v-5.729l191.744 110.705v5.73zM1099.534 358.854 907.79 248.148v-5.729l191.744 110.705v5.73zM1099.534 372.354 907.79 261.648v-5.729l191.744 110.705v5.73zM1099.534 385.852 907.79 275.148v-5.729l191.744 110.705v5.728zM963.136 320.602l-55.346-31.954v-5.729l55.346 31.954v5.729zM890.845 121.48l-3.096-3.573-34.418 65.503 3.094 3.574Zm-2.082 21.088 18.92 31.029-18.92 9.181 3.486 6.388 23.035-11.18-23.035-37.778Zm-63.319-16.45 23.033 37.776 3.487-2.362-18.918-31.026 18.918-9.184-3.487-6.386Z" class="color7f7ff4 svgShape"></path><path d="M1066.741 318.213 810.874 170.49v112.832c0 6.6 4.676 14.7 10.393 18l259.119 149.602v-109.08c0-8.664-6.141-19.298-13.645-23.63Z" style="mix-blend-mode:multiply" fill="#dce8f4" class="colordce1f4 svgShape"></path></g><g data-name="Warning sign" fill="#010001" class="color000000 svgShape"><path d="m379.413 610.47.031.004-13.63-8.054-.009.004a9.17 9.17 0 0 0-3.384-1.312l-135.586-31.768c-8.45-1.98-20.967-.36-27.828 3.6L88.955 636.477c-2.424 1.4-3.095 2.501-2.313 3.26l-.336.076 14.772 8.54.005-.002c1.755 1.24 8.01 1.4 17.5.173l245.632-31.77c13.134-1.699 19.102-4.323 15.198-6.285Z" style="mix-blend-mode:multiply" fill="url(#B)"></path><path fill="#5ca9f7" d="m96.981 636.053 55.028-141.816c2.85-7.351 7.207-10.808 10.568-8.963l.006-.015-11.766-6.793-.005.015c-3.36-1.847-7.717 1.614-10.568 8.963L85.217 629.26c-2.02 5.207-1.86 8.71.003 9.918l-.003.007.174.098c.067.04.126.082.198.117l11.392 6.578.003-.004c-1.863-1.207-2.021-4.714-.003-9.921Z" class="colorf7d25c svgShape"></path><path fill="#d62db7" d="M152.009 494.237c3.427-8.836 9.037-12.078 12.467-7.2l55.023 78.281c3.428 4.88.623 12.106-6.234 16.067l-110.046 63.539c-6.86 3.957-9.664-.035-6.238-8.871Z" class="colord6952d svgShape"></path><path fill="#ffffff" d="m162.258 581.783-8.034 4.637v9.273l8.034-4.637v-9.273zM163.815 521.627l-11.146 6.437 1.555 48.957 8.034-4.636 1.557-50.758z" class="colorffffff svgShape"></path></g><g fill="#010001" class="color000000 svgShape"><path fill="#4841aa" d="M1046.987 694.857c0 8.664-6.14 12.207-13.644 7.875L575.077 438.155c-7.506-4.332-13.64-14.965-13.64-23.628V68.874c0-8.663 6.134-12.207 13.64-7.875l458.266 264.578c7.504 4.332 13.644 14.966 13.644 23.63Z" class="color4141aa svgShape"></path><path fill="url(#C)" d="M1043.642 319.633 585.374 55.053c-3.803-2.193-7.244-2.36-9.725-.873v-.008l-9.802 5.683.029.006c2.43-1.179 5.656-.908 9.201 1.138l458.266 264.578c7.504 4.332 13.644 14.966 13.644 23.63v345.65c0 4.297-1.517 7.336-3.957 8.782l9.797-5.688h-.031c2.746-1.3 4.488-4.437 4.488-9.04v-345.65c0-8.664-6.14-19.295-13.642-23.628Z"></path><path fill="#f4f6f8" d="M1033.343 681.556 575.077 416.978V76.75l458.266 264.581v340.225z" class="colorf7f7fc svgShape"></path><path fill="#f2f4f7" d="M722.589 888.135c-7.5 4.332-19.78 4.332-27.283 0L237.038 623.556c-7.5-4.332-7.5-11.421 0-15.753l312.361-180.341c7.5-4.33 19.78-4.33 27.284 0l458.265 264.583c7.506 4.332 7.506 11.414 0 15.75Z" class="colorf2f2f7 svgShape"></path><path fill="#dce8f4" d="m577.163 464.986-22.41-12.942 11.205-6.468 22.41 12.937-11.205 6.473zM614.909 486.778l-22.416-12.939 11.205-6.473 22.414 12.941-11.203 6.471zM652.653 508.568l-22.41-12.938 11.205-6.473 22.414 12.945-11.209 6.466zM690.393 530.365l-22.406-12.937 11.211-6.473 22.406 12.937-11.211 6.473zM728.143 552.154l-22.41-12.937 11.207-6.469 22.412 12.941-11.209 6.465zM765.892 573.951l-22.411-12.941 11.202-6.469 22.418 12.933-11.209 6.477zM803.638 595.744l-22.407-12.941 11.203-6.473 22.407 12.941-11.203 6.473zM841.386 617.533l-22.412-12.937 11.207-6.473 22.41 12.941-11.205 6.469zM879.13 639.326l-22.408-12.937 11.205-6.473 22.412 12.941-11.209 6.469zM916.876 661.119l-22.408-12.941 11.207-6.469 22.41 12.937-11.209 6.473zM954.624 682.912l-22.408-12.941 11.205-6.469 22.412 12.941-11.209 6.469zM992.374 704.705l-22.418-12.941 11.207-6.473 22.414 12.945-11.203 6.469zM557.296 497.1l-40.291-23.261 22.41-12.941 40.291 23.265-22.41 12.937zM536.452 526.842l-55.627-32.12 22.418-12.938 55.623 32.12-22.414 12.938zM514.04 557.486l-70.961-40.969 22.412-12.934 70.955 40.966-22.406 12.937zM437.696 566.15l-40.295-23.258 30.344-17.519 40.291 23.258-30.34 17.519zM493.323 598.271l-40.295-23.265 30.342-17.52 40.293 23.266-30.34 17.519zM548.95 630.385l-40.293-23.258 30.344-17.52 40.291 23.262-30.342 17.516zM740.747 741.123l-40.287-23.266 30.338-17.515 40.299 23.261-30.35 17.52zM835.022 795.553l-79.029-45.633 30.342-17.516 79.029 45.629-30.342 17.52zM685.214 709.06 564.29 639.24l30.338-17.516 120.931 69.821-30.345 17.515zM605.606 524.994l-32.974-19.04 22.406-12.939 32.979 19.038-22.411 12.941zM584.763 554.732l-32.979-19.035 22.414-12.945 32.975 19.035-22.41 12.945zM563.382 584.783l-32.975-19.035 22.414-12.942 32.977 19.043-22.416 12.934zM611.694 612.674l-32.976-19.039 22.41-12.938 32.974 19.039-22.408 12.938zM659.997 640.564l-32.971-19.039 22.41-12.933 32.975 19.035-22.414 12.937zM708.311 668.459l-32.976-19.035 22.412-12.946 32.971 19.039-22.407 12.942zM756.62 696.349l-32.973-19.039 22.411-12.941 32.97 19.043-22.408 12.937zM804.925 724.236l-32.971-19.035 22.408-12.941 32.977 19.039-22.414 12.937zM881.733 768.584l-61.472-35.496 22.41-12.934 61.472 35.488-22.41 12.942zM633.073 582.619l-32.974-19.031 22.412-12.942 32.972 19.039-22.41 12.934zM681.382 610.517l-32.977-19.043 22.414-12.937 32.975 19.039-22.412 12.941zM729.684 638.408l-32.972-19.039 22.414-12.941 32.976 19.039-22.418 12.941zM777.999 666.299l-32.977-19.039 22.416-12.942 32.971 19.039-22.41 12.942zM826.309 694.189l-32.978-19.039 22.418-12.941 32.975 19.039-22.415 12.941zM918.444 747.389l-76.802-44.348 22.412-12.942 76.808 44.344-22.418 12.946zM653.915 552.885l-32.975-19.039 22.412-12.938 32.971 19.039-22.408 12.938zM702.226 580.771l-32.975-19.035 22.408-12.937 32.977 19.035-22.41 12.937zM750.53 608.662l-32.969-19.035 22.407-12.934 32.974 19.031-22.412 12.938zM798.841 636.556l-32.977-19.039 22.408-12.941 32.979 19.043-22.41 12.937zM847.151 664.447l-32.976-19.039 22.408-12.934 32.98 19.032-22.412 12.941zM895.458 692.338l-32.973-19.039 22.41-12.934 32.977 19.035-22.414 12.938zM954.624 726.494l-43.828-25.301 22.41-12.941 43.828 25.308-22.41 12.934z" class="colordce1f4 svgShape"></path><path fill="#726ae2" d="M976.005 670.572 613.874 461.49l10.881-6.276 362.127 209.077-10.877 6.281z" class="color6a6ae2 svgShape"></path><path fill="#dce8f4" d="M685.206 736.076 500.417 629.381l-114.828 66.297L570.38 802.369l114.826-66.293z" class="colordce1f4 svgShape"></path><path fill="url(#D)" d="m1034.948 707.795-312.36 180.34c-5.958 3.44-14.915 4.14-22.118 2.113-.053-.012-4.477-1.715-5.164-2.113L237.038 623.556a15.936 15.936 0 0 1-1.447-.949c-.026-.015-.045-.035-.07-.05-.12-.09-.225-.184-.338-.274a11.76 11.76 0 0 1-.758-.637c-.121-.105-.235-.218-.348-.328a10.272 10.272 0 0 1-.785-.86l-.094-.105a.552.552 0 0 0-.055-.07 9.889 9.889 0 0 1-.709-1.055 7.046 7.046 0 0 1-.998-3.277h-.023v6.605h.05c-.04 2.883 1.79 5.77 5.575 7.958l458.268 264.578c10.935 5.422 26.558 4.363 31.21 3.347 4.647-1.015 8.827-2.183 13.702-3.25l294.73-170.156c3.797-2.195 5.666-5.09 5.617-7.977v-17.05c-.031 2.82-1.902 5.64-5.617 7.789Z"></path><path d="M595.837 438.52c-35.374 5.71-69.221 12.445-100.2 19.98l-87.351 50.433c30.015 26.46 140.223 46.354 194.118 46.354h21.573v-100.52Z" style="mix-blend-mode:multiply" fill="url(#E)"></path></g><g data-name="Encrypted data" fill="#010001" class="color000000 svgShape"><path fill="#d0e3f6" d="m609.11 114.824-8.183-4.726v-9.45l8.183 4.727v9.449zM628.069 125.768l-8.183-4.726v-9.449l8.183 4.726v9.449zM647.028 136.712l-8.183-4.726v-9.449l8.183 4.727v9.448zM665.987 147.657l-8.183-4.726v-9.45l8.183 4.727v9.449zM684.946 158.601l-8.183-4.726v-9.448l8.183 4.725v9.449zM779.741 213.323l-8.183-4.725v-9.451l8.183 4.727v9.449zM798.7 224.267l-8.183-4.726v-9.449l8.183 4.726v9.449zM817.659 235.212l-8.183-4.727v-9.449l8.183 4.727v9.449zM836.618 246.155l-8.184-4.725v-9.45l8.184 4.727v9.448zM874.536 268.045l-8.184-4.727v-9.448l8.184 4.726v9.449zM912.454 289.933l-8.184-4.726v-9.449l8.184 4.726v9.449zM931.413 300.878l-8.184-4.727v-9.449l8.184 4.726v9.45zM950.372 311.822l-8.184-4.726v-9.45l8.184 4.727v9.449zM1007.249 344.655l-8.184-4.726v-9.45l8.184 4.727v9.449zM1026.208 355.599l-8.184-4.726v-9.449l8.184 4.726v9.449zM590.151 126.11l-8.183-4.726v-9.45l8.183 4.727v9.449zM609.11 137.054l-8.183-4.726v-9.449l8.183 4.726v9.449zM628.069 147.999l-8.183-4.727v-9.449l8.183 4.727v9.449zM665.987 169.888l-8.183-4.727v-9.449l8.183 4.726v9.45zM703.905 191.776l-8.183-4.726v-9.45l8.183 4.726v9.45zM722.864 202.721l-8.183-4.727v-9.449l8.183 4.726v9.45zM741.823 213.665l-8.183-4.726v-9.45l8.183 4.727v9.449zM817.659 257.442l-8.183-4.726v-9.45l8.183 4.727v9.449zM836.618 268.387l-8.184-4.727v-9.448l8.184 4.725v9.45zM893.495 301.22l-8.184-4.727v-9.449l8.184 4.725v9.451zM912.454 312.164l-8.184-4.727v-9.449l8.184 4.727v9.449zM931.413 323.108l-8.184-4.725v-9.451l8.184 4.727v9.449zM969.331 344.997l-8.184-4.727v-9.449l8.184 4.727v9.449zM988.29 355.941l-8.184-4.726v-9.45l8.184 4.727v9.449zM1007.249 366.886l-8.184-4.727v-9.449l8.184 4.726v9.45zM609.11 159.285l-8.183-4.727v-9.448l8.183 4.726v9.449zM628.069 170.229l-8.183-4.726v-9.449l8.183 4.726v9.449zM647.028 181.174l-8.183-4.727v-9.449l8.183 4.726v9.45zM665.987 192.118l-8.183-4.727v-9.449l8.183 4.726v9.45zM722.864 224.951l-8.183-4.727v-9.449l8.183 4.727v9.449zM760.782 246.839l-8.183-4.726v-9.449l8.183 4.726v9.449zM779.741 257.784l-8.183-4.727v-9.449l8.183 4.727v9.449zM798.7 268.728l-8.183-4.726v-9.448l8.183 4.725v9.449zM836.618 290.617l-8.184-4.727v-9.449l8.184 4.727v9.449zM855.577 301.561l-8.184-4.726v-9.449l8.184 4.725v9.45zM874.536 312.506l-8.184-4.727v-9.449l8.184 4.726v9.45zM912.454 334.394l-8.184-4.726v-9.449l8.184 4.726v9.449zM931.413 345.339l-8.184-4.727v-9.449l8.184 4.727v9.449zM1007.249 389.116l-8.184-4.726v-9.45l8.184 4.727v9.449zM1026.208 400.06l-8.184-4.726v-9.449l8.184 4.726v9.449zM590.151 170.571l-8.183-4.726v-9.45l8.183 4.727v9.449zM628.069 192.46l-8.183-4.727v-9.449l8.183 4.726v9.45zM647.028 203.404l-8.183-4.726v-9.45l8.183 4.727v9.449zM665.987 214.348l-8.183-4.725v-9.45l8.183 4.726v9.449zM703.905 236.237l-8.183-4.726v-9.45l8.183 4.727v9.449zM722.864 247.181l-8.183-4.726v-9.449l8.183 4.726v9.449zM741.823 258.126l-8.183-4.727v-9.449l8.183 4.727v9.449zM760.782 269.07l-8.183-4.726v-9.449l8.183 4.726v9.449zM836.618 312.848l-8.184-4.727v-9.449l8.184 4.726v9.45zM855.577 323.792l-8.184-4.726v-9.45l8.184 4.727v9.449zM874.536 334.736l-8.184-4.726v-9.45l8.184 4.727v9.449zM893.495 345.681l-8.184-4.727v-9.449l8.184 4.726v9.45zM912.454 356.625l-8.184-4.727v-9.449l8.184 4.727v9.449zM931.413 367.569l-8.184-4.726v-9.45l8.184 4.727v9.449zM950.372 378.514l-8.184-4.727v-9.449l8.184 4.726v9.45zM969.331 389.458l-8.184-4.727v-9.449l8.184 4.727v9.449zM988.29 400.402l-8.184-4.726v-9.45l8.184 4.727v9.449zM1007.249 411.347l-8.184-4.727v-9.449l8.184 4.726v9.45zM1026.208 422.291l-8.184-4.727v-9.449l8.184 4.727v9.449zM609.11 203.746l-8.183-4.727v-9.449l8.183 4.727v9.449zM628.069 214.69l-8.183-4.725v-9.45l8.183 4.726v9.449zM665.987 236.579l-8.183-4.727v-9.449l8.183 4.727v9.449zM684.946 247.522l-8.183-4.725v-9.449l8.183 4.726v9.448zM703.905 258.468l-8.183-4.727v-9.449l8.183 4.726v9.45zM874.536 356.967l-8.184-4.727v-9.449l8.184 4.726v9.45zM893.495 367.911l-8.184-4.727v-9.449l8.184 4.727v9.449zM912.454 378.855l-8.184-4.726v-9.449l8.184 4.726v9.449zM950.372 400.744l-8.184-4.727v-9.449l8.184 4.727v9.449zM969.331 411.688l-8.184-4.726v-9.449l8.184 4.726v9.449zM988.29 422.633l-8.184-4.727v-9.449l8.184 4.726v9.45zM1007.249 433.577l-8.184-4.727v-9.449l8.184 4.727v9.449zM1026.208 444.521l-8.184-4.726v-9.449l8.184 4.726v9.449zM590.151 215.032l-8.183-4.726v-9.45l8.183 4.727v9.449zM628.069 236.921l-8.183-4.727v-9.449l8.183 4.727v9.449zM647.028 247.864l-8.183-4.725v-9.45l8.183 4.727v9.448zM665.987 258.809l-8.183-4.726v-9.449l8.183 4.726v9.449zM703.905 280.698l-8.183-4.726v-9.45l8.183 4.727v9.449zM722.864 291.642l-8.183-4.726v-9.449l8.183 4.726v9.449zM912.454 401.086l-8.184-4.727v-9.449l8.184 4.727v9.449zM931.413 412.03l-8.184-4.726v-9.45l8.184 4.727v9.449zM950.372 422.974l-8.184-4.726v-9.449l8.184 4.726v9.449zM1026.208 466.751l-8.184-4.726v-9.449l8.184 4.727v9.448zM590.151 237.263l-8.183-4.727v-9.449l8.183 4.726v9.45zM609.11 248.206l-8.183-4.726v-9.449l8.183 4.727v9.448zM628.069 259.151l-8.183-4.726v-9.45l8.183 4.727v9.449zM647.028 270.096l-8.183-4.727v-9.448l8.183 4.725v9.45zM665.987 281.04l-8.183-4.727v-9.449l8.183 4.727v9.449zM722.864 313.873l-8.183-4.727v-9.449l8.183 4.727v9.449zM893.495 412.372l-8.184-4.727v-9.449l8.184 4.727v9.449zM912.454 423.316l-8.184-4.726v-9.45l8.184 4.727v9.449zM931.413 434.261l-8.184-4.727v-9.449l8.184 4.726v9.45zM950.372 445.205l-8.184-4.727v-9.449l8.184 4.727v9.449zM969.331 456.149l-8.184-4.726v-9.45l8.184 4.727v9.449zM1007.249 478.038l-8.184-4.725v-9.451l8.184 4.725v9.451zM1026.208 488.981l-8.184-4.724v-9.451l8.184 4.726v9.449zM628.069 281.382l-8.183-4.727v-9.449l8.183 4.726v9.45zM647.028 292.326l-8.183-4.727v-9.449l8.183 4.727v9.449zM665.987 303.27l-8.183-4.726v-9.449l8.183 4.725v9.45zM684.946 314.215l-8.183-4.727v-9.449l8.183 4.726v9.45zM703.905 325.159l-8.183-4.726v-9.45l8.183 4.727v9.449zM722.864 336.103l-8.183-4.726v-9.449l8.183 4.726v9.449zM893.495 434.602l-8.184-4.726v-9.449l8.184 4.726v9.449zM912.454 445.547l-8.184-4.727v-9.449l8.184 4.727v9.449zM969.331 478.38l-8.184-4.725v-9.451l8.184 4.725v9.451zM988.29 489.325l-8.184-4.727v-9.449l8.184 4.725v9.451zM590.151 281.723l-8.183-4.726v-9.449l8.183 4.726v9.449zM609.11 292.668l-8.183-4.727v-9.449l8.183 4.727v9.449zM628.069 303.612l-8.183-4.726v-9.45l8.183 4.726v9.45zM684.946 336.445l-8.183-4.726v-9.45l8.183 4.727v9.449zM703.905 347.39l-8.183-4.727v-9.449l8.183 4.726v9.45zM722.864 358.334l-8.183-4.727v-9.449l8.183 4.727v9.449zM893.495 456.833l-8.184-4.727v-9.449l8.184 4.727v9.449zM912.454 467.778l-8.184-4.727v-9.449l8.184 4.726v9.45zM931.413 478.722l-8.184-4.725v-9.451l8.184 4.724v9.452zM950.372 489.665l-8.184-4.725v-9.451l8.184 4.727v9.449zM1007.249 522.498l-8.184-4.723v-9.453l8.184 4.727v9.449zM1026.208 533.443l-8.184-4.726v-9.45l8.184 4.727v9.449zM590.151 303.954l-8.183-4.727v-9.449l8.183 4.726v9.45zM609.11 314.898l-8.183-4.726v-9.449l8.183 4.726v9.449zM628.069 325.843l-8.183-4.726v-9.45l8.183 4.726v9.45zM647.028 336.787l-8.183-4.727v-9.449l8.183 4.727v9.449zM665.987 347.731l-8.183-4.726v-9.449l8.183 4.726v9.449zM722.864 380.564l-8.183-4.726v-9.449l8.183 4.726v9.449zM893.495 479.063l-8.184-4.724v-9.451l8.184 4.724v9.451zM931.413 500.952l-8.184-4.725v-9.451l8.184 4.725v9.451zM950.372 511.896l-8.184-4.725v-9.451l8.184 4.726v9.45zM969.331 522.842l-8.184-4.727v-9.449l8.184 4.723v9.453zM988.29 533.787l-8.184-4.727v-9.449l8.184 4.723v9.453zM1026.208 555.674l-8.184-4.727v-9.449l8.184 4.726v9.45zM590.151 326.184l-8.183-4.725v-9.45l8.183 4.726v9.449zM647.028 359.017l-8.183-4.726v-9.449l8.183 4.726v9.449zM665.987 369.962l-8.183-4.727v-9.449l8.183 4.727v9.449zM684.946 380.906l-8.183-4.726v-9.45l8.183 4.727v9.449zM703.905 391.85l-8.183-4.726v-9.449l8.183 4.726v9.449zM722.864 402.795l-8.183-4.727v-9.449l8.183 4.727v9.449zM741.823 413.739l-8.183-4.726v-9.45l8.183 4.727v9.449zM874.536 490.348l-8.184-4.724v-9.451l8.184 4.726v9.449zM893.495 501.294l-8.184-4.725v-9.451l8.184 4.725v9.451zM912.454 512.24l-8.184-4.727v-9.45l8.184 4.725v9.452zM931.413 523.181l-8.184-4.722v-9.453l8.184 4.726v9.449zM950.372 534.127l-8.184-4.727v-9.449l8.184 4.727v9.449zM969.331 545.072l-8.184-4.726v-9.45l8.184 4.723v9.453zM988.29 556.017l-8.184-4.726v-9.449l8.184 4.722v9.453zM1007.249 566.959l-8.184-4.723v-9.453l8.184 4.727v9.449zM1026.208 577.904l-8.184-4.726v-9.45l8.184 4.727v9.449zM590.151 348.415l-8.183-4.727v-9.449l8.183 4.727v9.449zM609.11 359.359l-8.183-4.726v-9.45l8.183 4.727v9.449zM628.069 370.304l-8.183-4.727v-9.449l8.183 4.726v9.45zM647.028 381.248l-8.183-4.727v-9.449l8.183 4.727v9.449zM665.987 392.192l-8.183-4.726v-9.45l8.183 4.727v9.449zM760.782 446.914l-8.183-4.727v-9.449l8.183 4.727v9.449zM779.741 457.858l-8.183-4.726v-9.45l8.183 4.727v9.449zM836.618 490.692l-8.184-4.726v-9.45l8.184 4.725v9.451zM855.577 501.636l-8.184-4.725v-9.451l8.184 4.724v9.452zM874.536 512.58l-8.184-4.726v-9.451l8.184 4.727v9.45zM950.372 556.357l-8.184-4.726v-9.45l8.184 4.727v9.449zM969.331 567.303l-8.184-4.727v-9.449l8.184 4.722v9.454zM590.151 370.645l-8.183-4.726v-9.449l8.183 4.726v9.449zM609.11 381.59l-8.183-4.727v-9.449l8.183 4.726v9.45zM647.028 403.478l-8.183-4.726v-9.449l8.183 4.726v9.449zM665.987 414.423l-8.183-4.727v-9.449l8.183 4.726v9.45zM684.946 425.367l-8.183-4.727v-9.449l8.183 4.727v9.449zM703.905 436.311l-8.183-4.726v-9.449l8.183 4.726v9.449zM722.864 447.256l-8.183-4.727v-9.449l8.183 4.726v9.45zM741.823 458.2l-8.183-4.727v-9.449l8.183 4.727v9.449zM760.782 469.145l-8.183-4.727v-9.448l8.183 4.725v9.45zM779.741 480.089l-8.183-4.725v-9.451l8.183 4.725v9.451zM855.577 523.865l-8.184-4.723v-9.453l8.184 4.727v9.449zM874.536 534.81l-8.184-4.726v-9.449l8.184 4.726v9.449zM893.495 545.756l-8.184-4.727v-9.449l8.184 4.723v9.453zM912.454 556.701l-8.184-4.727v-9.449l8.184 4.723v9.453zM931.413 567.642l-8.184-4.722v-9.453l8.184 4.726v9.449zM950.372 578.588l-8.184-4.727v-9.449l8.184 4.727v9.449zM1007.249 611.42l-8.184-4.723v-9.453l8.184 4.727v9.449zM1026.208 622.365l-8.184-4.726v-9.45l8.184 4.727v9.449zM590.151 392.876l-8.183-4.727V378.7l8.183 4.727v9.449zM609.11 403.82l-8.183-4.726v-9.45l8.183 4.727v9.449zM628.069 414.765l-8.183-4.727v-9.449l8.183 4.726v9.45zM647.028 425.709l-8.183-4.727v-9.449l8.183 4.727v9.449zM722.864 469.485l-8.183-4.724v-9.451l8.183 4.727v9.448zM741.823 480.431l-8.183-4.725v-9.451l8.183 4.724v9.452zM760.782 491.376l-8.183-4.727V477.2l8.183 4.725v9.451zM817.659 524.209l-8.183-4.727v-9.449l8.183 4.723v9.453zM836.618 535.154l-8.184-4.726v-9.45l8.184 4.723v9.453zM855.577 546.096l-8.184-4.723v-9.453l8.184 4.726v9.45zM874.536 557.041l-8.184-4.727v-9.449l8.184 4.727v9.449zM893.495 567.986l-8.184-4.726v-9.45l8.184 4.723v9.453zM950.372 600.818l-8.184-4.726v-9.45l8.184 4.727v9.449zM969.331 611.764l-8.184-4.727v-9.449l8.184 4.722v9.454zM988.29 622.709l-8.184-4.727v-9.449l8.184 4.723v9.453zM1007.249 633.65l-8.184-4.722v-9.454l8.184 4.727v9.449zM1026.208 644.596l-8.184-4.727v-9.449l8.184 4.726v9.45zM590.151 415.106l-8.183-4.726v-9.449l8.183 4.726v9.449zM609.11 426.051l-8.183-4.727v-9.449l8.183 4.726v9.45zM647.028 447.939l-8.183-4.726v-9.449l8.183 4.726v9.449zM665.987 458.884l-8.183-4.727v-9.449l8.183 4.726v9.45zM684.946 469.829l-8.183-4.727v-9.449l8.183 4.726v9.45zM703.905 480.772l-8.183-4.724v-9.451l8.183 4.724v9.451zM741.823 502.661l-8.183-4.725v-9.451l8.183 4.725v9.451zM760.782 513.607l-8.183-4.726v-9.45l8.183 4.724v9.452zM779.741 524.549l-8.183-4.723v-9.453l8.183 4.726v9.45zM798.7 535.494l-8.183-4.727v-9.449l8.183 4.727v9.449zM817.659 546.439l-8.183-4.726v-9.449l8.183 4.722v9.453zM874.536 579.271l-8.184-4.726v-9.449l8.184 4.726v9.449zM893.495 590.217l-8.184-4.727v-9.449l8.184 4.723v9.453zM912.454 601.162l-8.184-4.727v-9.449l8.184 4.723v9.453zM931.413 612.103l-8.184-4.722v-9.453l8.184 4.726v9.449zM950.372 623.049l-8.184-4.727v-9.449l8.184 4.726v9.45zM1007.249 655.881l-8.184-4.723v-9.453l8.184 4.726v9.45zM1026.208 666.826l-8.184-4.727v-9.449l8.184 4.727v9.449z" class="colord0d4f6 svgShape"></path></g><g data-name="Key on screen" fill="#010001" class="color000000 svgShape"><path d="M715.6 327.995c0-56.508 39.67-79.414 88.608-51.158 48.94 28.254 88.61 96.968 88.611 153.474 0 56.512-39.672 79.417-88.61 51.162-48.937-28.255-88.608-96.97-88.608-153.478Z" style="mix-blend-mode:multiply" fill="#f2f4f7" class="colorf2f2f7 svgShape"></path><path fill="#ffffff" d="M724.503 333.135c0-50.83 35.683-71.435 79.705-46.02 44.023 25.417 79.707 87.227 79.709 138.057 0 50.833-35.686 71.436-79.707 46.02-44.022-25.416-79.707-87.225-79.707-138.057Z" class="colorffffff svgShape"></path><path fill="#867ff4" d="M816.907 411.429a39.41 39.41 0 0 0-9.234-11.017v-47.586l4.8 2.772v-8.001l-4.798-2.772-.002-7.667 4.8 2.772v-8l-4.8-2.771.002-5.666-6.93-4v5.666l-10.789-6.228.002 7.999 5.771 3.333v8l5.016 2.895.002 6.401-14.078-8.128v8l9.062 5.233-.002 7.932 5.016 2.895v32.93c-8.248-2.892-14.49 1.907-14.49 11.971 0 5.538 1.867 11.822 5.26 17.697 3.39 5.874 7.898 10.633 12.695 13.402 9.898 5.716 17.955 1.065 17.955-10.366 0-5.54-1.87-11.823-5.258-17.696Zm-4.9 20.834c-2.082 1.203-4.852.93-7.797-.772a24.36 24.36 0 0 1-11.026-19.099c-.001-7.021 4.946-9.877 11.026-6.367a24.382 24.382 0 0 1 11.027 19.1c-.002 3.4-1.148 5.936-3.23 7.138Z" class="color7f7ff4 svgShape"></path></g><g fill="#010001" class="color000000 svgShape"><g style="mix-blend-mode:multiply" fill="#010001" class="color000000 svgShape"><path fill="url(#d)" d="M324.409 808.441h-30.794l-1.558.9 14.266 8.237v.001l1.694.977 16.954-9.79-.562-.325z"></path><path fill="url(#F)" d="m323.412 858.152-15.397-8.889-17.432 10.065h30.791l2.038-1.176z"></path><path d="M391.798 887.943a42.91 42.91 0 0 0 6.458-.496 15.187 15.187 0 0 1 6.51-6.568 25.923 25.923 0 0 1 2.417-1.217c-9.878-4.405-24.153-4.008-33.207 1.219a20.885 20.885 0 0 0-2.079 1.382 18.833 18.833 0 0 0 2.082 1.417c4.76 2.75 11.088 4.263 17.819 4.263Z" style="mix-blend-mode:multiply" fill="url(#e)"></path><path fill="url(#G)" d="M451.609 874.416a54.158 54.158 0 0 0-19.834-6.307 14.41 14.41 0 0 1 1.062 5.283v17.778c0 6.328-4.274 12.279-12.024 16.752-7.75 4.476-18.054 6.941-29.015 6.941h29.793l.047-.026c.318.004.631.026.951.026 10.961 0 21.266-2.467 29.016-6.941 7.75-4.475 12.023-10.424 12.023-16.752-.004-6.328-4.273-12.278-12.02-16.754Z"></path><path fill="url(#H)" d="M278.302 831.161h-1.641l-17.432 10.065h19.073v-10.065z"></path><path fill="url(#I)" d="m369.214 844.53-11.105-6.411 8.851-5.111-11.197-6.465h-17.702l.362.209-8.108 4.68 38.616 22.294-7.824-4.517Zm-30.409-8.198h.006l-.003.002Z"></path></g><path fill="#d62db7" d="m330.315 831.431 8.108-4.679v17.777l-8.108 4.68v-17.778z" class="colord6952d svgShape"></path><path fill="#429af2" d="m286.409 819.01-9.744-5.627v17.777l9.744 5.627V819.01zM357.735 860.189l-49.718-28.705v17.78l49.718 28.705v-17.78z" class="colorf2bd42 svgShape"></path><path fill="#d62db7" d="m308.017 831.484-17.434 10.067v17.777l17.434-10.064v-17.78z" class="colord6952d svgShape"></path><path fill="#429af2" d="m289.499 830.152-11.197-6.465v17.78l11.197 6.464v-17.779zM259.229 823.449l-11.197-6.465v17.778l11.197 6.464v-17.777zM265.468 806.918l-7.928-4.576v17.779l7.928 4.576v-17.779z" class="colorf2bd42 svgShape"></path><path fill="#d62db7" d="m287.86 806.918 16.955-9.789v17.779l-16.955 9.789v-17.779zM327.317 820.342l8.852-5.112v17.78l-8.852 5.109v-17.777zM276.665 813.383l-17.436 10.066v17.777l17.436-10.066v-17.777z" class="colord6952d svgShape"></path><path fill="#5ca9f7" d="m368.93 853.726-38.615-22.295 8.108-4.68-11.106-6.41 8.852-5.11-11.197-6.466-16.955 9.791-20.157-11.638 16.955-9.79-11.197-6.464-16.955 9.79-7.928-4.577-11.195 6.465 7.928 4.576-17.436 10.066 11.197 6.465 17.436-10.066 9.744 5.627-8.107 4.677 10.414 6.012-9.33 5.387 11.197 6.465 17.434-10.067 49.718 28.705c-10.71 9.207-9.039 21.825 5.047 29.955 7.75 4.475 18.055 6.942 29.016 6.942s21.265-2.467 29.015-6.942 12.024-10.423 12.024-16.752c-.004-6.328-4.274-12.277-12.02-16.753-14.086-8.131-35.941-9.096-51.886-2.913ZM417 873.392c0 3.887-2.624 7.54-7.382 10.288-4.762 2.75-11.09 4.263-17.82 4.263s-13.059-1.513-17.819-4.263c-9.826-5.674-9.83-14.905-.003-20.579 9.826-5.671 25.814-5.671 35.642.002 4.758 2.75 7.383 6.403 7.383 10.29Z" class="colorf7d25c svgShape"></path><path fill="url(#J)" d="M371.874 882.28a20.946 20.946 0 0 1 2.102-1.4c9.826-5.671 25.814-5.671 35.642 0a22.465 22.465 0 0 1 2.106 1.4c3.406-2.534 5.277-5.626 5.277-8.888 0-3.886-2.625-7.539-7.383-10.289-9.828-5.673-25.816-5.673-35.642-.002-9.057 5.23-9.743 13.475-2.102 19.178Z"></path><path fill="url(#K)" d="M420.813 890.144c-7.75 4.475-18.054 6.942-29.015 6.942s-21.266-2.467-29.016-6.942c-7.758-4.478-11.726-10.314-11.951-16.193l-.041.008v17.289h.006c.031 6.04 4.02 12.076 11.986 16.674 7.75 4.476 18.055 6.941 29.016 6.941s21.265-2.465 29.015-6.941c7.75-4.473 12.024-10.424 12.024-16.752v-17.778c0 6.329-4.274 12.278-12.024 16.752Z"></path><path fill="#429af2" d="m290.583 841.551-11.197-6.465v17.779l11.197 6.463v-17.777z" class="colorf2bd42 svgShape"></path><path d="M184.684 734.74c4.76 2.748 11.086 4.262 17.817 4.262a38.212 38.212 0 0 0 15.266-2.99c-.562-.28-1.268-.682-2.287-1.27-9.826-5.672-9.826-14.904.002-20.578a26.77 26.77 0 0 1 2.472-1.194c-9.877-4.435-24.194-4.046-33.268 1.192-9.828 5.674-9.828 14.906-.002 20.578Z" style="mix-blend-mode:multiply" fill="url(#L)"></path><path d="M79.444 801.965h15.857l-7.928-4.577Zm104.021-16.007-14.644-8.456 11.105-6.41-8.106-4.68 31.69-18.296c-.337.005-.667.028-1.005.028a63.655 63.655 0 0 1-22.88-4.021l-37.689 21.76-.7.65 7.894 4.557-11.105 6.41 14.647 8.457-11.196 6.465-22.751-13.137-8.961 5.174 8.105 4.68-11.196 6.464 9.33 5.385-1.874 1.082h.007l-9.33 5.385h30.795l11.198-6.464h-.001l-9.33-5.385 5.514-3.184h29.287l.003.002 11.196-6.465h-.001l.002-.001Z" style="mix-blend-mode:multiply" fill="url(#M)"></path><path d="M262.318 707.7c-11.984-6.92-29.598-8.655-44.408-5.208a50.003 50.003 0 0 1 13.612 5.205c7.752 4.475 12.02 10.426 12.022 16.754-.002 6.328-4.272 12.277-12.022 16.752-7.441 4.295-17.242 6.714-27.71 6.904l-.069.04h30.795l.064-.037c10.47-.19 20.274-2.61 27.716-6.905 7.75-4.475 12.02-10.424 12.022-16.752-.002-6.328-4.27-12.28-12.022-16.754Z" style="mix-blend-mode:multiply" fill="url(#N)"></path><path fill="url(#O)" d="M95.476 802.07h.006l-.003-.002-.003.002z"></path><path fill="#5c55c6" d="m75.266 778.953 11.196 6.463v-17.777l-11.196-6.465v17.779z" class="color5555c6 svgShape"></path><path fill="#5c55c6" d="m68.417 786.445 11.196 6.465v-17.779l-11.196-6.463v17.777zM161.568 705.674h-.07v18.21l6.943-4.01c-4.96-4.263-7.228-9.257-6.873-14.2Z" class="color5555c6 svgShape"></path><path fill="url(#P)" d="M182.581 715.564a21.166 21.166 0 0 1 2.105-1.402c9.827-5.672 25.815-5.672 35.64 0a21.518 21.518 0 0 1 2.105 1.398c3.408-2.533 5.277-5.625 5.277-8.888 0-3.885-2.621-7.537-7.383-10.287-9.824-5.672-25.812-5.672-35.639 0-9.06 5.23-9.746 13.478-2.105 19.18Z"></path><path fill="url(#Q)" d="M231.522 723.426c-7.752 4.474-18.056 6.939-29.017 6.94a63.655 63.655 0 0 1-22.88-4.02v17.779a63.694 63.694 0 0 0 22.88 4.021c10.96-.002 21.265-2.466 29.017-6.943 7.75-4.475 12.02-10.424 12.022-16.75v-17.78c-.002 6.329-4.272 12.278-12.022 16.753Z"></path><path fill="#4841aa" d="m141.024 766.412 38.602-22.287v-17.779l-38.602 22.287v17.779z" class="color4141aa svgShape"></path><path fill="#4841aa" d="m138.025 777.502 11.105-6.41v-17.78l-11.105 6.411v17.779z" class="color4141aa svgShape"></path><path fill="#4841aa" d="m141.476 792.422 11.196-6.465V768.18l-11.196 6.464v17.778zM109.764 784.461l8.961-5.174v-17.779l-8.961 5.173v17.78z" class="color4141aa svgShape"></path><path fill="#4841aa" d="m106.673 795.603 11.196-6.464v-17.778l-11.196 6.465v17.777z" class="color4141aa svgShape"></path><path fill="#4841aa" d="m104.807 807.455 11.196-6.465v-17.779l-11.196 6.465v17.779zM79.444 801.965l7.927-4.576v-17.78l-7.927 4.578v17.778z" class="color4141aa svgShape"></path><path fill="#5c55c6" d="m87.371 797.389 17.435 10.066v-17.779l-17.435-10.067v17.78zM118.725 779.287l22.751 13.135v-17.778l-22.751-13.136v17.779zM68.247 795.5l11.197 6.465v-17.778l-11.197-6.464V795.5z" class="color5555c6 svgShape"></path><path fill="#867ff4" d="m168.441 719.875-71.155 41.082-10.823-6.248-11.197 6.465 3.065 1.77-9.914 5.724 7.758 4.478-7.928 4.577 11.197 6.464 7.927-4.578 17.435 10.067 11.197-6.465-9.33-5.385 11.196-6.465-8.105-4.68 8.96-5.173 22.752 13.136 11.196-6.464-14.647-8.457 11.105-6.41-8.106-4.68 38.602-22.287a63.655 63.655 0 0 0 22.879 4.02c10.96-.001 21.265-2.466 29.017-6.94 7.75-4.475 12.02-10.424 12.022-16.752-.002-6.328-4.27-12.28-12.022-16.754-16-9.239-42.033-9.237-58.033 0-14.083 8.13-15.758 20.748-5.048 29.955Zm51.884-23.49c4.762 2.75 7.383 6.402 7.383 10.287 0 3.888-2.621 7.54-7.383 10.289-4.758 2.748-11.09 4.263-17.824 4.263-6.73 0-13.057-1.513-17.817-4.261-9.826-5.672-9.826-14.905.002-20.578 9.827-5.672 25.815-5.672 35.64 0Z" class="color7f7ff4 svgShape"></path></g><g data-name="Front blocks" fill="#010001" class="color000000 svgShape"><path fill="url(#R)" d="M1196.767 761.221h208.818v121.297h-208.818z"></path><path fill="#f4f6f8" d="m1196.767 764.681-102.049-58.917 102.049-58.915 102.046 58.915-102.046 58.917z" class="colorf7f7fc svgShape"></path><path fill="#d0e3f6" d="m1196.767 882.517-102.049-58.918V705.764l102.049 58.917v117.836z" class="colord0d4f6 svgShape"></path><path fill="#bdd0e4" d="m1196.767 882.517 102.046-58.918V705.764l-102.046 58.917v117.836z" class="colorbdc1e4 svgShape"></path><g style="mix-blend-mode:multiply" fill="#010001" class="color000000 svgShape"><path fill="#dce8f4" d="m1196.767 666.584-8.163-4.711 8.163-4.711 8.158 4.711-8.158 4.711zM1215.772 677.556l-8.162-4.71 8.162-4.711 8.159 4.711-8.159 4.71zM1234.778 688.529l-8.162-4.711 8.162-4.711 8.158 4.711-8.158 4.711zM1253.784 699.502l-8.162-4.711 8.162-4.711 8.158 4.711-8.158 4.711zM1272.79 710.474l-8.162-4.71 8.162-4.711 8.158 4.711-8.158 4.71zM1177.761 677.556l-8.162-4.71 8.162-4.711 8.158 4.711-8.158 4.71zM1196.767 688.529l-8.163-4.711 8.163-4.711 8.158 4.711-8.158 4.711zM1215.772 699.502l-8.162-4.711 8.162-4.711 8.159 4.711-8.159 4.711zM1234.778 710.474l-8.162-4.71 8.162-4.711 8.158 4.711-8.158 4.71zM1253.784 721.451l-8.162-4.715 8.162-4.711 8.158 4.711-8.158 4.715zM1158.755 688.529l-8.162-4.711 8.162-4.711 8.158 4.711-8.158 4.711zM1177.761 699.502l-8.162-4.711 8.162-4.711 8.158 4.711-8.158 4.711zM1196.767 710.474l-8.163-4.71 8.163-4.711 8.158 4.711-8.158 4.71zM1215.772 721.447l-8.162-4.711 8.162-4.711 8.159 4.711-8.159 4.711zM1234.778 732.424l-8.162-4.711 8.162-4.715 8.158 4.715-8.158 4.711zM1139.749 699.502l-8.162-4.711 8.162-4.711 8.158 4.711-8.158 4.711zM1158.755 710.474l-8.162-4.71 8.162-4.711 8.158 4.711-8.158 4.71zM1177.761 721.447l-8.162-4.711 8.162-4.711 8.158 4.711-8.158 4.711zM1196.767 732.424l-8.163-4.711 8.163-4.715 8.158 4.715-8.158 4.711zM1215.772 743.396l-8.162-4.711 8.162-4.711 8.159 4.711-8.159 4.711zM1120.743 710.474l-8.162-4.71 8.162-4.711 8.158 4.711-8.158 4.71zM1139.749 721.447l-8.162-4.711 8.162-4.711 8.158 4.711-8.158 4.711zM1158.755 732.424l-8.162-4.715 8.162-4.711 8.158 4.711-8.158 4.715zM1177.761 743.396l-8.162-4.711 8.162-4.711 8.158 4.711-8.158 4.711zM1196.767 754.369l-8.163-4.711 8.163-4.711 8.158 4.711-8.158 4.711zM1111.809 735.369l-8.16-4.711v-9.422l8.16 4.711v9.422zM1130.817 746.342l-8.162-4.711v-9.422l8.162 4.711v9.422zM1149.821 757.314l-8.16-4.711v-9.422l8.16 4.711v9.422zM1168.829 768.287l-8.162-4.711v-9.422l8.162 4.711v9.422zM1187.835 779.264l-8.16-4.715v-9.422l8.16 4.711v9.426zM1111.809 757.314l-8.16-4.711v-9.422l8.16 4.711v9.422zM1130.817 768.287l-8.162-4.711v-9.422l8.162 4.711v9.422zM1149.821 779.264l-8.16-4.715v-9.422l8.16 4.711v9.426zM1168.829 790.236l-8.162-4.715v-9.422l8.162 4.711v9.426zM1187.835 801.209l-8.16-4.715v-9.422l8.16 4.711v9.426zM1111.809 779.264l-8.16-4.715v-9.422l8.16 4.711v9.426zM1130.817 790.236l-8.162-4.715v-9.422l8.162 4.711v9.426zM1149.821 801.209l-8.16-4.715v-9.422l8.16 4.711v9.426zM1168.829 812.181l-8.162-4.71v-9.426l8.162 4.711v9.425zM1187.835 823.154l-8.16-4.711v-9.422l8.16 4.711v9.422zM1111.809 801.209l-8.16-4.715v-9.422l8.16 4.711v9.426zM1130.817 812.181l-8.162-4.71v-9.426l8.162 4.711v9.425zM1149.821 823.154l-8.16-4.711v-9.422l8.16 4.707v9.426zM1168.829 834.127l-8.162-4.711v-9.422l8.162 4.707v9.426zM1187.835 845.099l-8.16-4.71v-9.422l8.16 4.711v9.421zM1111.809 823.154l-8.16-4.711v-9.422l8.16 4.707v9.426zM1130.817 834.127l-8.162-4.711v-9.422l8.162 4.707v9.426zM1149.821 845.099l-8.16-4.71v-9.422l8.16 4.711v9.421zM1168.829 856.072l-8.162-4.711v-9.422l8.162 4.711v9.422zM1187.835 867.045l-8.16-4.711v-9.422l8.16 4.711v9.422zM1281.722 735.369l8.16-4.711v-9.422l-8.16 4.711v9.422zM1262.716 746.342l8.16-4.711v-9.422l-8.16 4.711v9.422zM1243.71 757.314l8.158-4.711v-9.422l-8.158 4.711v9.422zM1224.704 768.287l8.158-4.711v-9.422l-8.158 4.711v9.422zM1205.698 779.264l8.158-4.715v-9.422l-8.158 4.711v9.426zM1281.722 757.314l8.16-4.711v-9.422l-8.16 4.711v9.422zM1262.716 768.287l8.16-4.711v-9.422l-8.16 4.711v9.422zM1243.71 779.264l8.158-4.715v-9.422l-8.158 4.711v9.426zM1224.704 790.236l8.158-4.715v-9.422l-8.158 4.711v9.426zM1205.698 801.209l8.158-4.715v-9.422l-8.158 4.711v9.426zM1281.722 779.264l8.16-4.715v-9.422l-8.16 4.711v9.426zM1262.716 790.236l8.16-4.715v-9.422l-8.16 4.711v9.426zM1243.71 801.209l8.158-4.715v-9.422l-8.158 4.711v9.426zM1224.704 812.181l8.158-4.71v-9.426l-8.158 4.711v9.425zM1205.698 823.154l8.158-4.711v-9.422l-8.158 4.711v9.422zM1281.722 801.209l8.16-4.715v-9.422l-8.16 4.711v9.426zM1262.716 812.181l8.16-4.71v-9.426l-8.16 4.711v9.425zM1243.71 823.154l8.158-4.711v-9.422l-8.158 4.707v9.426zM1224.704 834.127l8.158-4.711v-9.422l-8.158 4.707v9.426zM1205.698 845.099l8.158-4.71v-9.422l-8.158 4.711v9.421zM1281.722 823.154l8.16-4.711v-9.422l-8.16 4.707v9.426zM1262.716 834.127l8.16-4.711v-9.422l-8.16 4.707v9.426zM1243.71 845.099l8.158-4.71v-9.422l-8.158 4.711v9.421zM1224.704 856.072l8.158-4.711v-9.422l-8.158 4.711v9.422zM1205.698 867.045l8.158-4.711v-9.422l-8.158 4.711v9.422z" class="colordce1f4 svgShape"></path></g><path style="mix-blend-mode:multiply" fill="#d3e2f2" d="M1213.856 723.596h54.071l30.886-17.832-84.957-49.048v66.88z" class="colord3d8f2 svgShape"></path><path fill="#bdd0e4" d="m1293.888 679.47-72.996 42.145c-4.012 2.313-7.645 2.531-10.274 1.016-2.627-1.52-4.254-4.774-4.254-9.407V628.94a32.101 32.101 0 0 1 14.528-25.16l72.996-42.144c4.011-2.317 7.642-2.536 10.27-1.016 2.63 1.516 4.255 4.77 4.255 9.402v84.285a32.12 32.12 0 0 1-14.525 25.165Z" class="colorbdc1e4 svgShape"></path><path fill="url(#S)" d="M1206.364 713.224V628.94a32.101 32.101 0 0 1 14.528-25.16l72.996-42.144c4.011-2.317 7.642-2.536 10.27-1.016l-95.618-55.206c-2.629-1.516-6.262-1.297-10.272 1.016l-72.996 42.143a32.106 32.106 0 0 0-14.525 25.16v84.29c0 4.632 1.625 7.886 4.254 9.402l95.617 55.207c-2.627-1.52-4.254-4.774-4.254-9.407Z"></path><g style="mix-blend-mode:multiply" fill="#010001" class="color000000 svgShape"><path fill="#dce8f4" d="M1195.513 605.9a29.737 29.737 0 0 1 10.273-10.844l72.996-42.144c4.012-2.316 7.643-2.535 10.27-1.016l4.582 2.645c-2.627-1.516-6.258-1.297-10.27 1.02l-72.996 42.14a32.093 32.093 0 0 0-14.525 25.164v84.285c0 4.633 1.624 7.887 4.251 9.403l-4.581-2.645c-2.627-1.516-4.254-4.773-4.254-9.406v-84.285a29.711 29.711 0 0 1 4.254-14.317Z" class="colordce1f4 svgShape"></path><path fill="#dce8f4" d="M1183.241 598.814a29.666 29.666 0 0 1 10.272-10.843l72.996-42.145c4.01-2.316 7.642-2.535 10.27-1.016l4.581 2.645c-2.627-1.52-6.258-1.297-10.27 1.016l-72.995 42.144a32.117 32.117 0 0 0-14.528 25.164v84.285c0 4.63 1.627 7.887 4.256 9.403l-4.582-2.645c-2.629-1.52-4.256-4.773-4.256-9.402v-84.29a29.692 29.692 0 0 1 4.256-14.316Z" class="colordce1f4 svgShape"></path><path fill="#dce8f4" d="M1170.968 591.728a29.668 29.668 0 0 1 10.271-10.843l72.996-42.145c4.01-2.312 7.643-2.535 10.272-1.016l4.58 2.645c-2.627-1.52-6.26-1.297-10.27 1.02l-72.996 42.14a32.117 32.117 0 0 0-14.527 25.16v84.29c0 4.632 1.629 7.886 4.256 9.402l-4.582-2.645c-2.627-1.52-4.256-4.773-4.256-9.402v-84.29a29.716 29.716 0 0 1 4.256-14.316Z" class="colordce1f4 svgShape"></path><path fill="#dce8f4" d="M1158.694 584.642a29.67 29.67 0 0 1 10.272-10.843l72.996-42.141c4.01-2.316 7.64-2.54 10.271-1.02l4.582 2.645c-2.63-1.516-6.261-1.297-10.271 1.02l-72.996 42.144a32.1 32.1 0 0 0-14.528 25.156v84.29c0 4.632 1.63 7.886 4.256 9.406l-4.582-2.649c-2.63-1.515-4.256-4.77-4.256-9.402v-84.29a29.673 29.673 0 0 1 4.256-14.316Z" class="colordce1f4 svgShape"></path><path fill="#dce8f4" d="M1146.423 577.556a29.666 29.666 0 0 1 10.27-10.843l72.993-42.145c4.012-2.316 7.643-2.535 10.274-1.015l4.582 2.644c-2.631-1.516-6.262-1.297-10.274 1.02l-72.994 42.14a32.116 32.116 0 0 0-14.527 25.16v84.29c0 4.632 1.625 7.886 4.256 9.402l-4.58-2.645c-2.631-1.515-4.258-4.773-4.258-9.402v-84.29a29.664 29.664 0 0 1 4.258-14.316Z" class="colordce1f4 svgShape"></path><path fill="#dce8f4" d="M1134.145 570.47a29.705 29.705 0 0 1 10.274-10.843l72.996-42.145c4.01-2.316 7.64-2.535 10.27-1.015l4.583 2.644c-2.63-1.52-6.261-1.297-10.273 1.02l-72.994 42.14a32.092 32.092 0 0 0-14.525 25.16v84.29c0 4.632 1.625 7.886 4.251 9.402l-4.582-2.645c-2.627-1.52-4.252-4.773-4.252-9.406v-84.285a29.696 29.696 0 0 1 4.252-14.316Z" class="colordce1f4 svgShape"></path><path fill="#dce8f4" d="M1121.872 563.385a29.706 29.706 0 0 1 10.273-10.844l72.997-42.145c4.011-2.315 7.64-2.534 10.269-1.015l4.582 2.644c-2.629-1.52-6.258-1.3-10.27 1.016l-72.996 42.144a32.094 32.094 0 0 0-14.525 25.16v84.29c0 4.629 1.625 7.886 4.252 9.402l-4.582-2.645c-2.627-1.52-4.254-4.773-4.254-9.406v-84.285a29.7 29.7 0 0 1 4.254-14.316Z" class="colordce1f4 svgShape"></path></g></g><g data-name="Enter form" fill="#010001" class="color000000 svgShape"><path fill="#867ff4" d="M763.716 81.651 667.86 26.31c-4.493-2.595-8.136-9.554-8.136-15.545V7.127c0-5.991 3.643-8.745 8.136-6.15l95.855 55.34c4.493 2.595 8.136 9.555 8.136 15.546V75.5c0 5.99-3.643 8.744-8.136 6.15Z" class="color7f7ff4 svgShape"></path><path fill="#ffffff" d="M663.507 11.383c0-4.947 3.473-6.952 7.757-4.478a17.145 17.145 0 0 1 7.756 13.435c0 4.946-3.472 6.951-7.756 4.478a17.145 17.145 0 0 1-7.757-13.435Z" class="colorffffff svgShape"></path><path fill="#4841aa" d="M672.61 16.64c.758-.143 1.27-.89 1.27-2.094a6.074 6.074 0 0 0-2.616-4.822c-1.444-.834-2.615-.027-2.615 1.802a6.273 6.273 0 0 0 1.27 3.56 2.804 2.804 0 0 0-3.617 2.762 14890.521 14890.521 0 0 1 9.924 5.73c0-1.793-1.406-4.805-3.617-6.939Z" class="color4141aa svgShape"></path><path fill="#37318f" d="M687.288 24.558c0-1.004.705-1.411 1.575-.91a3.481 3.481 0 0 1 1.575 2.728c0 1.004-.705 1.411-1.575.91a3.48 3.48 0 0 1-1.575-2.728ZM696.528 29.892c0-1.004.705-1.41 1.575-.909a3.48 3.48 0 0 1 1.574 2.728c0 1.004-.705 1.41-1.574.909a3.48 3.48 0 0 1-1.575-2.728ZM705.768 35.227c0-1.004.705-1.411 1.575-.91a3.48 3.48 0 0 1 1.574 2.728c0 1.005-.705 1.412-1.574.91a3.48 3.48 0 0 1-1.575-2.728ZM715.008 40.562c0-1.005.705-1.412 1.574-.91a3.48 3.48 0 0 1 1.575 2.728c0 1.004-.705 1.411-1.575.91a3.481 3.481 0 0 1-1.574-2.728ZM724.248 45.896c0-1.004.705-1.411 1.574-.909a3.48 3.48 0 0 1 1.575 2.728c0 1.004-.705 1.41-1.575.909a3.48 3.48 0 0 1-1.574-2.728ZM733.487 51.23c0-1.003.705-1.41 1.575-.908a3.48 3.48 0 0 1 1.575 2.727c0 1.004-.705 1.411-1.575.91a3.48 3.48 0 0 1-1.575-2.728ZM742.727 56.566c0-1.005.705-1.412 1.575-.91a3.48 3.48 0 0 1 1.575 2.728c0 1.004-.705 1.411-1.575.909a3.48 3.48 0 0 1-1.575-2.727ZM751.967 61.9c0-1.004.705-1.411 1.575-.91a3.48 3.48 0 0 1 1.574 2.728c0 1.005-.705 1.412-1.574.91a3.48 3.48 0 0 1-1.575-2.728Z" class="color34318f svgShape"></path><path fill="#429af2" d="M763.716 120.318 667.86 64.976c-4.493-2.594-8.136-9.554-8.136-15.545v-3.638c0-5.99 3.643-8.744 8.136-6.15l95.855 55.341c4.493 2.595 8.136 9.554 8.136 15.545v3.638c0 5.99-3.643 8.745-8.136 6.15Z" class="colorf2bd42 svgShape"></path><path fill="#37318f" d="M687.288 63.808c0-1.004.705-1.411 1.575-.91a3.481 3.481 0 0 1 1.575 2.728c0 1.004-.705 1.411-1.575.91a3.48 3.48 0 0 1-1.575-2.728ZM696.528 69.142c0-1.004.705-1.41 1.575-.909a3.48 3.48 0 0 1 1.574 2.728c0 1.004-.705 1.41-1.574.909a3.48 3.48 0 0 1-1.575-2.728ZM705.768 74.477c0-1.004.705-1.411 1.575-.91a3.48 3.48 0 0 1 1.574 2.728c0 1.005-.705 1.412-1.574.91a3.48 3.48 0 0 1-1.575-2.728ZM715.008 79.812c0-1.005.705-1.412 1.574-.91a3.48 3.48 0 0 1 1.575 2.728c0 1.004-.705 1.411-1.575.91a3.481 3.481 0 0 1-1.574-2.728ZM724.248 85.146c0-1.004.705-1.411 1.574-.909a3.48 3.48 0 0 1 1.575 2.728c0 1.004-.705 1.41-1.575.909a3.48 3.48 0 0 1-1.574-2.728ZM733.487 90.48c0-1.003.705-1.41 1.575-.908a3.48 3.48 0 0 1 1.575 2.727c0 1.004-.705 1.411-1.575.91a3.48 3.48 0 0 1-1.575-2.728ZM742.727 95.816c0-1.005.705-1.412 1.575-.91a3.48 3.48 0 0 1 1.575 2.728c0 1.004-.705 1.411-1.575.909a3.48 3.48 0 0 1-1.575-2.727Z" class="color34318f svgShape"></path></g><g fill="#010001" class="color000000 svgShape"><path d="M740.688 930.224h-82.14c-41.854 0-63.7 7.864-57.213 18.754-31.531 3.57-41.043 13.809-20.117 25.89 21.855 12.622 69.945 23.231 115.642 26.333l83.381-48.14Z" style="mix-blend-mode:multiply" fill="url(#T)"></path><path fill="#d0e3f6" d="M534.018 845.693v47.422c0 30.102 21.133 66.703 47.2 81.754 26.068 15.05 47.2 2.852 47.2-27.25v-47.422Z" class="colord0d4f6 svgShape"></path><path fill="#f4f6f8" d="M611.987 909.685c-2.332-4.039-2.332-8.402 0-9.75 2.33-1.343 6.11.836 8.44 4.875 2.332 4.036 2.332 8.399 0 9.746-2.33 1.348-6.11-.835-8.44-4.87Z" class="colorf7f7fc svgShape"></path><path fill="#bdd0e4" d="M612.061 905.888h8.293v2.718h-8.293z" transform="rotate(-29.989 616.207 907.247)" class="colorbdc1e4 svgShape"></path><path fill="#f4f6f8" d="M550.45 864.408c-2.33-4.035-6.11-6.219-8.441-4.875-2.332 1.348-2.332 5.71 0 9.75 2.332 4.035 6.111 6.219 8.441 4.871 2.332-1.344 2.332-5.707 0-9.746Z" class="colorf7f7fc svgShape"></path><path fill="#bdd0e4" d="M542.083 865.486h8.292v2.719h-8.292z" transform="rotate(-29.988 546.23 866.845)" class="colorbdc1e4 svgShape"></path><path fill="#eaf0f7" d="m564.147 828.299 94.401 54.504-30.129 17.394-94.401-54.504 30.129-17.394z" class="coloreaedf7 svgShape"></path><path fill="url(#U)" d="M628.419 900.197v47.422c0 14.965-5.225 25.496-13.678 30.465l29.324-16.938-.025-.007c8.936-4.758 14.508-15.47 14.508-30.915v-47.421Z"></path><path style="mix-blend-mode:multiply" fill="url(#f)" d="M627.796 887.193h23.14l7.612-4.39-7.612-4.399h-23.14v8.789z"></path><path style="mix-blend-mode:multiply" fill="url(#V)" d="M564.77 850.81h38.368l-7.616-4.394-7.611-4.395H564.77v8.789z"></path><path fill="#5c55c6" d="M592.165 796.06c-19.678-11.36-35.629-2.148-35.629 20.57v29.423l8.234 4.753v-29.421c0-17.442 12.29-24.536 27.395-15.817 15.105 8.723 27.396 30.008 27.396 47.453v29.418l8.235 4.754v-29.418c0-22.722-15.953-50.351-35.631-61.715Z" class="color5555c6 svgShape"></path><path fill="#726ae2" d="M566.84 793.646h.007l.052-.035Z" class="color6a6ae2 svgShape"></path><path fill="#37318f" d="M564.77 821.385v29.425l8.235-4.757V816.63c0-6.301 1.62-11.23 4.383-14.575-7.58 1.254-12.618 8.172-12.618 19.329Z" class="color34318f svgShape"></path><path fill="url(#W)" d="M600.4 791.306c-9.803-5.66-18.68-6.21-25.124-2.53v-.005l-.052.032c-.012.007-.024.011-.034.02l-8.144 4.702c6.443-3.676 15.318-3.125 25.119 2.54 19.678 11.359 35.63 38.988 35.63 61.71v29.418l8.237-4.754v-29.418c0-22.722-15.953-50.351-35.633-61.715Z"></path><path fill="url(#h)" d="m578.702 946.166 5.031-2.906v-6.454l-5.031 2.907v6.453z"></path><path fill="url(#g)" d="m581.218 947.619 2.515 1.453v-5.812l-5.031 2.906 2.516 1.453z"></path><path fill="url(#X)" d="M581.218 900.369c-4.291-2.48-7.77-.469-7.77 4.484 0 3.938 2.2 8.543 5.254 11.516l9.84-5.68c-1.043-4.136-3.91-8.347-7.324-10.32Z"></path><path fill="url(#Y)" d="m588.563 916.486-4.83 2.79a4.044 4.044 0 0 0 4.83-2.79Z"></path><path fill="url(#Z)" d="m583.733 919.275 4.83-2.789a7.835 7.835 0 0 0 .426-2.66 12.937 12.937 0 0 0-.447-3.137l-9.84 5.68v18.066l5.031-2.906Z"></path><path fill="url(#aa)" d="M578.702 934.435c-1.262-.73-2.285-.14-2.285 1.32a5.054 5.054 0 0 0 2.285 3.958l5.031-2.907v-5.277Z"></path></g><g data-name="Little blocks" fill="#010001" class="color000000 svgShape"><path style="mix-blend-mode:multiply" fill="url(#i)" d="M767.063 1051.623h-59.464l37.173 22.125-37.173 21.465h59.464l37.741-21.789-37.741-21.801z"></path><path fill="#bbcee2" d="m707.599 1095.213 37.173-21.465v-43.586l-37.173 21.461v43.59z" class="colorbbbfe2 svgShape"></path><path fill="#cee1f4" d="m707.599 1095.213-37.178-21.465v-43.586l37.178 21.461v43.59z" class="colorced2f4 svgShape"></path><path fill="#f5f7fa" d="m707.599 1051.623-37.178-21.461 37.178-21.453 37.173 21.453-37.173 21.461z" class="colorf5f5fa svgShape"></path><path style="mix-blend-mode:multiply" fill="url(#ab)" d="M66.437 521.619H25.559l25.554 15.211-25.554 14.758h40.878l25.946-14.981-25.946-14.988z"></path><path fill="#bbcee2" d="m25.559 551.588 25.554-14.758v-29.964l-25.554 14.753v29.969z" class="colorbbbfe2 svgShape"></path><path fill="#cee1f4" d="M25.559 551.588 0 536.83v-29.964l25.559 14.753v29.969z" class="colorced2f4 svgShape"></path><path fill="#f5f7fa" d="M25.559 521.619 0 506.866l25.559-14.748 25.554 14.748-25.554 14.753z" class="colorf5f5fa svgShape"></path></g></g></g></svg>