<svg xmlns="http://www.w3.org/2000/svg" xmlns:xlink="http://www.w3.org/1999/xlink" viewBox="0 0 950 800" id="AttractCustomer"><defs><linearGradient id="a" x1="333.33" x2="333.33" y1="388.4" y2="149.92" gradientUnits="userSpaceOnUse"><stop offset=".25" stop-color="#ffffff" class="stopColorffffff svgShape"></stop><stop offset=".52" stop-color="#f8fafd" class="stopColorf8f9fd svgShape"></stop><stop offset=".9" stop-color="#e5edf6" class="stopColore5e9f6 svgShape"></stop><stop offset="1" stop-color="#dfe9f4" class="stopColordfe4f4 svgShape"></stop></linearGradient><linearGradient id="b" x1="252.39" x2="252.39" y1="388.4" y2="149.92" gradientUnits="userSpaceOnUse"><stop offset=".25" stop-color="#ffffff" class="stopColorffffff svgShape"></stop><stop offset=".64" stop-color="#f6f9fc" class="stopColorf6f7fc svgShape"></stop><stop offset="1" stop-color="#e9f0f7" class="stopColore9edf7 svgShape"></stop></linearGradient><linearGradient id="n" x1="673.89" x2="673.89" y1="258.41" y2="103.71" xlink:href="#a"></linearGradient><linearGradient id="o" x1="626.4" x2="626.4" y1="258.41" y2="103.71" xlink:href="#b"></linearGradient><linearGradient id="c" x1="1556.43" x2="1543.45" y1="346.75" y2="338.28" gradientTransform="matrix(-1 0 0 1 2315.78 0)" gradientUnits="userSpaceOnUse"><stop offset="0" stop-color="#342e94" class="stopColor362e94 svgShape"></stop><stop offset=".4" stop-color="#4a43b3" class="stopColor4943b3 svgShape"></stop><stop offset="1" stop-color="#6f67e9" class="stopColor6b67e9 svgShape"></stop></linearGradient><linearGradient id="d" x1="-537.2" x2="-519.76" y1="303.99" y2="308.1" gradientTransform="translate(1297.74)" gradientUnits="userSpaceOnUse"><stop offset="0" stop-color="#6f196f" class="stopColor20196f svgShape"></stop><stop offset=".61" stop-color="#352f95" class="stopColor342f95 svgShape"></stop><stop offset="1" stop-color="#453eaf" class="stopColor423eaf svgShape"></stop></linearGradient><linearGradient id="p" x1="1570.79" x2="1557.82" y1="338.83" y2="330.36" xlink:href="#c"></linearGradient><linearGradient id="q" x1="-548.5" x2="-534.49" y1="298.74" y2="302.04" xlink:href="#d"></linearGradient><linearGradient id="e" x1="750.45" x2="768.16" y1="218.9" y2="218.9" gradientTransform="rotate(-14 933.703 286.713)" gradientUnits="userSpaceOnUse"><stop offset="0" stop-color="#6f67e9" class="stopColor6b67e9 svgShape"></stop><stop offset=".64" stop-color="#564ec5" class="stopColor524ec5 svgShape"></stop><stop offset="1" stop-color="#453eaf" class="stopColor423eaf svgShape"></stop></linearGradient><linearGradient id="r" x1="-518.18" x2="-549.49" y1="264.97" y2="264.97" gradientTransform="translate(1297.74)" gradientUnits="userSpaceOnUse"><stop offset="0" stop-color="#453eaf" class="stopColor423eaf svgShape"></stop><stop offset=".2" stop-color="#4a43b5" class="stopColor4743b5 svgShape"></stop><stop offset=".47" stop-color="#5952c7" class="stopColor5552c7 svgShape"></stop><stop offset=".79" stop-color="#7169e3" class="stopColor6d69e3 svgShape"></stop><stop offset="1" stop-color="#857dfb" class="stopColor807dfb svgShape"></stop></linearGradient><linearGradient id="s" x1="-395.13" x2="227.8" y1="764.6" y2="764.6" gradientTransform="matrix(.87 .5 -1 .58 1268.08 133.28)" gradientUnits="userSpaceOnUse"><stop offset="0" stop-color="#ffffff" class="stopColorffffff svgShape"></stop><stop offset=".05" stop-color="#fdfdfe" class="stopColorfdfdfe svgShape"></stop><stop offset=".5" stop-color="#f1f3f6" class="stopColorf1f1f6 svgShape"></stop><stop offset="1" stop-color="#ffffff" class="stopColorffffff svgShape"></stop></linearGradient><linearGradient id="l" x1="955.23" x2="1004.62" y1="294.32" y2="208.77" gradientTransform="rotate(-120 662.893 596.172)" gradientUnits="userSpaceOnUse"><stop offset=".43" stop-color="#bbd0e6" class="stopColorbbc0e6 svgShape"></stop><stop offset=".59" stop-color="#cde2f7" class="stopColorcdd2f7 svgShape"></stop><stop offset=".59" stop-color="#cee3f8" class="stopColorced3f8 svgShape"></stop></linearGradient><linearGradient id="t" x1="1545.08" x2="1534.45" y1="534.68" y2="507.09" gradientTransform="scale(-1 1) rotate(-36 -7.332 3929.8)" gradientUnits="userSpaceOnUse"><stop offset="0" stop-color="#857dfb" class="stopColor807dfb svgShape"></stop><stop offset="1" stop-color="#6f67e9" class="stopColor6b67e9 svgShape"></stop></linearGradient><linearGradient id="u" x1="734.61" x2="749.68" y1="275.26" y2="275.26" xlink:href="#e"></linearGradient><linearGradient id="v" x1="983.56" x2="963.18" y1="529.28" y2="491.37" gradientTransform="scale(-1 1) rotate(-61.9 216.59 1644.527)" gradientUnits="userSpaceOnUse"><stop offset="0" stop-color="#3e9eff" class="stopColorffd03e svgShape"></stop><stop offset=".63" stop-color="#eb14c4" class="stopColoreba514 svgShape"></stop><stop offset="1" stop-color="#e100b8" class="stopColore19100 svgShape"></stop></linearGradient><linearGradient id="g" x1="1351.61" x2="1368.8" y1="478.53" y2="478.53" gradientTransform="matrix(-.9 .43 .43 .9 1476.89 -503.99)" gradientUnits="userSpaceOnUse"><stop offset="0" stop-color="#453eaf" class="stopColor423eaf svgShape"></stop><stop offset="1" stop-color="#453eaf" class="stopColor423eaf svgShape"></stop></linearGradient><linearGradient id="h" x1="412.63" x2="456.75" y1="490.67" y2="490.67" gradientUnits="userSpaceOnUse"><stop offset="0" stop-color="#453eaf" class="stopColor423eaf svgShape"></stop><stop offset=".56" stop-color="#2e2888" class="stopColor2d2888 svgShape"></stop><stop offset="1" stop-color="#6f196f" class="stopColor20196f svgShape"></stop></linearGradient><linearGradient id="f" x1="1436.54" x2="1466.4" y1="451.27" y2="451.27" gradientTransform="matrix(-1 0 0 1 1878.99 0)" gradientUnits="userSpaceOnUse"><stop offset="0" stop-color="#e100b8" class="stopColore19100 svgShape"></stop><stop offset=".05" stop-color="#e304ba" class="stopColore39504 svgShape"></stop><stop offset=".68" stop-color="#2e92f7" class="stopColorf7c02e svgShape"></stop><stop offset="1" stop-color="#3e9eff" class="stopColorffd03e svgShape"></stop></linearGradient><linearGradient id="w" x1="719.37" x2="761.56" y1="447.01" y2="447.01" gradientTransform="matrix(-.98 .18 .18 .98 1090.1 -127.49)" xlink:href="#f"></linearGradient><linearGradient id="x" x1="1015.49" x2="1046.56" y1="691.24" y2="691.24" gradientTransform="matrix(-.5 -.86 -.86 .5 1347.22 1036.91)" gradientUnits="userSpaceOnUse"><stop offset="0" stop-color="#e100b8" class="stopColore19100 svgShape"></stop><stop offset=".37" stop-color="#eb14c4" class="stopColoreba514 svgShape"></stop><stop offset="1" stop-color="#3e9eff" class="stopColorffd03e svgShape"></stop></linearGradient><linearGradient id="y" x1="1540.23" x2="1556.21" y1="443.92" y2="443.92" xlink:href="#g"></linearGradient><linearGradient id="z" x1="232.91" x2="272.51" y1="542.52" y2="542.52" xlink:href="#h"></linearGradient><linearGradient id="A" x1="675.56" x2="718.84" y1="511.39" y2="511.39" gradientTransform="rotate(2.11 695.817 -11506.066)" gradientUnits="userSpaceOnUse"><stop offset="0" stop-color="#3e9eff" class="stopColorffd03e svgShape"></stop><stop offset=".23" stop-color="#2d92f7" class="stopColorf7be2d svgShape"></stop><stop offset=".73" stop-color="#e70cbf" class="stopColore79d0c svgShape"></stop><stop offset="1" stop-color="#e100b8" class="stopColore19100 svgShape"></stop></linearGradient><linearGradient id="B" x1="899.23" x2="941.62" y1="452.01" y2="452.01" gradientTransform="scale(-1 1) rotate(11 114.112 -5699.591)" xlink:href="#f"></linearGradient><linearGradient id="j" x1="899.26" x2="931.33" y1="648.51" y2="648.51" gradientTransform="scale(-1 1) rotate(-61.9 216.59 1644.527)" gradientUnits="userSpaceOnUse"><stop offset="0" stop-color="#6f67e9" class="stopColor6b67e9 svgShape"></stop><stop offset=".22" stop-color="#756dee" class="stopColor706dee svgShape"></stop><stop offset="1" stop-color="#857dfb" class="stopColor807dfb svgShape"></stop></linearGradient><linearGradient id="C" x1="899.26" x2="931.33" y1="630.39" y2="630.39" gradientTransform="scale(-1 1) rotate(-61.9 216.59 1644.527)" gradientUnits="userSpaceOnUse"><stop offset="0" stop-color="#bbd0e6" class="stopColorbbc0e6 svgShape"></stop><stop offset=".66" stop-color="#e6edf5" class="stopColore6e7f5 svgShape"></stop><stop offset="1" stop-color="#f6f8fb" class="stopColorf6f6fb svgShape"></stop></linearGradient><linearGradient id="D" x1="1475.62" x2="1492.81" y1="549.01" y2="549.01" xlink:href="#g"></linearGradient><linearGradient id="i" x1="332.2" x2="364.23" y1="605.58" y2="605.58" gradientUnits="userSpaceOnUse"><stop offset="0" stop-color="#5a52cc" class="stopColor5652cc svgShape"></stop><stop offset=".51" stop-color="#453ead" class="stopColor443ead svgShape"></stop><stop offset="1" stop-color="#342e94" class="stopColor362e94 svgShape"></stop></linearGradient><linearGradient id="k" x1="1513.59" x2="1543.46" y1="568.74" y2="568.74" gradientTransform="matrix(-1 0 0 1 1878.99 0)" gradientUnits="userSpaceOnUse"><stop offset="0" stop-color="#cee3f8" class="stopColorced3f8 svgShape"></stop><stop offset=".53" stop-color="#e6f0fa" class="stopColore6e8fa svgShape"></stop><stop offset="1" stop-color="#f6f8fb" class="stopColorf6f6fb svgShape"></stop></linearGradient><linearGradient id="E" x1="346.09" x2="357.95" y1="544.74" y2="544.74" xlink:href="#i"></linearGradient><linearGradient id="F" x1="345.75" x2="365.97" y1="527.72" y2="527.72" xlink:href="#i"></linearGradient><linearGradient id="G" x1="816.33" x2="858.53" y1="554.36" y2="554.36" gradientTransform="matrix(-.98 .18 .18 .98 1090.1 -127.49)" xlink:href="#j"></linearGradient><linearGradient id="H" x1="816.33" x2="858.53" y1="544.37" y2="544.37" gradientTransform="matrix(-.98 .18 .18 .98 1090.1 -127.49)" xlink:href="#k"></linearGradient><linearGradient id="I" x1="868.1" x2="868.1" y1="877.66" y2="587.08" xlink:href="#a"></linearGradient><linearGradient id="J" x1="789.05" x2="789.05" y1="877.66" y2="587.08" xlink:href="#b"></linearGradient><linearGradient id="K" x1="134.87" x2="134.87" y1="807.32" y2="617.49" xlink:href="#a"></linearGradient><linearGradient id="L" x1="76.59" x2="76.59" y1="807.32" y2="617.49" xlink:href="#b"></linearGradient><linearGradient id="m" x1="741.47" x2="790.86" y1="567.76" y2="482.21" gradientTransform="rotate(-120 662.893 596.172)" gradientUnits="userSpaceOnUse"><stop offset=".43" stop-color="#e100b8" class="stopColore19100 svgShape"></stop><stop offset=".51" stop-color="#ed03c2" class="stopColoreda303 svgShape"></stop><stop offset=".59" stop-color="#fc06cf" class="stopColorfcba06 svgShape"></stop></linearGradient><linearGradient id="M" x1="657.16" x2="693.87" y1="544.4" y2="480.82" gradientTransform="rotate(-120 662.893 596.172)" gradientUnits="userSpaceOnUse"><stop offset=".43" stop-color="#e33cc5" class="stopColore33c5c svgShape"></stop><stop offset=".54" stop-color="#f44ed6" class="stopColorf44e69 svgShape"></stop><stop offset=".59" stop-color="#ff5ae1" class="stopColorff5a72 svgShape"></stop></linearGradient><linearGradient id="N" x1="773.69" x2="810.4" y1="441.66" y2="378.07" xlink:href="#l"></linearGradient><linearGradient id="O" x1="913.41" x2="950.12" y1="399.95" y2="336.37" xlink:href="#l"></linearGradient><linearGradient id="P" x1="718.58" x2="744.6" y1="449.99" y2="404.93" gradientTransform="rotate(-120 662.893 596.172)" gradientUnits="userSpaceOnUse"><stop offset=".43" stop-color="#453eaf" class="stopColor423eaf svgShape"></stop><stop offset=".54" stop-color="#524bc1" class="stopColor4f4bc1 svgShape"></stop><stop offset=".59" stop-color="#5a52cc" class="stopColor5652cc svgShape"></stop></linearGradient><linearGradient id="Q" x1="994.99" x2="1021.01" y1="391.32" y2="346.26" xlink:href="#m"></linearGradient><linearGradient id="R" x1="828.75" x2="854.77" y1="268.05" y2="222.99" gradientTransform="rotate(-120 662.893 596.172)" gradientUnits="userSpaceOnUse"><stop offset=".43" stop-color="#5a52cc" class="stopColor5652cc svgShape"></stop><stop offset=".5" stop-color="#6b63de" class="stopColor6663de svgShape"></stop><stop offset=".59" stop-color="#857dfb" class="stopColor807dfb svgShape"></stop></linearGradient></defs><g style="isolation:isolate" fill="#010001" class="color000000 svgShape"><polygon fill="url(#a)" points="292.86 388.4 373.8 341.67 373.8 149.92 292.86 196.65 292.86 388.4"></polygon><polygon fill="url(#b)" points="292.86 388.4 211.92 341.67 211.92 149.92 292.86 196.65 292.86 388.4"></polygon><polygon fill="#f4f6f8" points="292.86 196.65 211.92 149.92 292.86 103.19 373.8 149.92 292.86 196.65" class="colorf1f3f9 svgShape"></polygon><g style="mix-blend-mode:multiply" fill="#010001" class="color000000 svgShape"><polygon fill="url(#n)" points="650.14 258.41 697.64 230.99 697.64 103.71 650.14 131.13 650.14 258.41"></polygon><polygon fill="url(#o)" points="650.14 258.41 602.65 230.99 602.65 103.71 650.14 131.13 650.14 258.41"></polygon><polygon fill="#f4f6f8" points="650.14 131.13 602.65 103.71 650.14 76.29 697.64 103.71 650.14 131.13" class="colorf1f3f9 svgShape"></polygon></g><path fill="url(#c)" d="M769.92,338c2,.32,2.57,3.53,1.58,5.55a7.79,7.79,0,0,1-2.18,1.34s-6.3,2.58-7.71,2.7-4.56-.42-4.82-2.83c.24-1.48,1.48-1.89,3-2.79,2-1.18,3.68-2.89,5.29-3.68C766.4,337.62,769.92,338,769.92,338Z"></path><path fill="#6f196f" d="M761.65,346.91c1.46-.11,7.93-2.77,7.93-2.77a8.29,8.29,0,0,0,2.18-1.32,5.3,5.3,0,0,1-.26.7,7.79,7.79,0,0,1-2.18,1.34s-6.3,2.58-7.71,2.7-4.56-.42-4.82-2.83c0-.05,0-.1,0-.15C757.5,346.57,760.32,347,761.65,346.91Z" class="color20196f svgShape"></path><path fill="#ffffff" d="M765.64,335.84a33.88,33.88,0,0,1,4.25,1.58,1.84,1.84,0,0,0,.16.93l.08.14c.59.58,1.22,1.6-.6,2.17-3.55,1.12-6.57-1.26-5.17-2.06C765.29,338.07,765.51,336.59,765.64,335.84Z" class="colorffffff svgShape"></path><path fill="#453eaf" d="M763.76,339.08c.26-.35.87-1.29,2-.52a2.59,2.59,0,0,1,1.26,2.59c-.13.8-2.45.19-2.55.08C762.72,339.44,763.76,339.08,763.76,339.08Z" class="color423eaf svgShape"></path><path fill="url(#d)" d="M764.85,276.37c0,10.89-.11,19.38-.11,28.89,0,10.88-.83,24.36-.72,33.48,1.75,2.17,6.19,1.62,7.13-.05,1.16-8.28,3.73-20.88,3.1-29.91,2.75-11.9,5.41-25.9,4.28-35.24C775.9,274.37,767.49,275.53,764.85,276.37Z"></path><path fill="url(#p)" d="M755.56,330.05c2,.33,2.57,3.53,1.57,5.55a7.79,7.79,0,0,1-2.18,1.34s-6.29,2.59-7.71,2.7-4.56-.42-4.81-2.83c.24-1.48,1.48-1.89,3-2.79,2-1.18,3.68-2.89,5.28-3.68C752,329.7,755.56,330.05,755.56,330.05Z"></path><path fill="#6f196f" d="M747.29,339c1.45-.11,7.93-2.77,7.93-2.77a8.29,8.29,0,0,0,2.18-1.32,4.22,4.22,0,0,1-.27.7,7.79,7.79,0,0,1-2.18,1.34s-6.29,2.59-7.71,2.7-4.56-.42-4.81-2.83a.8.8,0,0,0,0-.15C743.13,338.65,746,339.1,747.29,339Z" class="color20196f svgShape"></path><path fill="#ffffff" d="M751.27,327.92a34.15,34.15,0,0,1,4.26,1.58,1.84,1.84,0,0,0,.16.93l.07.14c.6.58,1.23,1.6-.6,2.18-3.54,1.11-6.56-1.27-5.17-2.07C750.93,330.15,751.15,328.67,751.27,327.92Z" class="colorffffff svgShape"></path><path fill="#453eaf" d="M749.39,331.16c.27-.35.88-1.29,2-.51a2.56,2.56,0,0,1,1.25,2.58c-.13.8-2.44.19-2.55.09C748.18,331.58,749.39,331.16,749.39,331.16Z" class="color423eaf svgShape"></path><path fill="url(#q)" d="M754.21,270.15c-1,10.89-3.2,18.33-3.2,27.84,0,10.88-1.47,23.71-1.35,32.83,1.75,2.17,6.19,1.62,7.13-.05,1.15-8.28,4.37-20.23,3.73-29.26,2.75-11.91,6.37-20.72,7.37-31.12C765.26,271.23,756.85,269.31,754.21,270.15Z"></path><path fill="url(#e)" d="M751.63,245.85c-3.27,3.06-8.08,20.46-9.18,23s3.62,8.22,7,3.91c2.57-3.28,6.58-8,7.18-12.4C758,250.12,751.63,245.85,751.63,245.85Z"></path><path fill="url(#r)" d="M771.94,249.85c-2.3-2.88-8-6.9-11.67-7.18a11.51,11.51,0,0,0-11.95,9.1c-.79,4.2,6.09,16.34,4.73,26.3.71,3.48,4.35,5.62,9.07,7.21,8.63,2.91,17.32,3.16,17.42-2.53C779.87,263.9,775.27,253.18,771.94,249.85Z"></path><path fill="#a9d2fc" d="M761.07,234.3c.23-2-6.83,2.12-6.55,4.82.23,2.19.87,4.13-1.35,5.5-.77.61-3.38,4.88.64,4.92,5.76.07,7.3-1.51,11.46-5.08C762.79,243.06,760.32,240.93,761.07,234.3Z" class="colorfcd1a9 svgShape"></path><path fill="#a9d2fc" d="M762.73,233.09l-2.87-4H747.38v7.51c0,4.16,2.79,7.52,6.24,7.52a6.82,6.82,0,0,0,6.61-6.75l1.52-.52Z" class="colorfcd1a9 svgShape"></path><path fill="#c46cb4" d="M753.91,246.1c3,0,6.67-4.79,6.32-8.76a7.2,7.2,0,0,1-6.36,6.74,6.58,6.58,0,0,1-.7.54,2.06,2.06,0,0,0-.21.21C753,245.43,753.37,246.1,753.91,246.1Z" class="colorc4906c svgShape"></path><path fill="#fc06cf" d="M748.1,225.67c-1.14-.2-1.24-1.15,3.39-2.75,2.69-1.32,6.5-1.73,9-.2,3.34,2.07,4.35,5.11,3.75,8.93a21.45,21.45,0,0,1-3.05,7.45c-.37.37-.42-1.39-.12-2.69a2.58,2.58,0,0,0,.44-1.12c.88-3.88-1.49-3.3-1.82-3-.73.3.69,3.51-1.46,3.19-1-.15-.9-3-.89-4.07a4.64,4.64,0,0,0-.47.12c-1.77,1-7.79,1.7-4.45-.39-2.33,0-5.5,1.07-6.57-.4C744.55,229,746.58,227.09,748.1,225.67Z" class="colorfcba06 svgShape"></path><path fill="url(#s)" d="M503.63,465.47c2.73,6.24,8.24,11.81,15.93,16.25a68.09,68.09,0,0,0,12,5.38c14,4.82,30.42,6.21,46.23,3.91,11.86-1.73,22.42-5.42,30.54-10.66.67-.44.59-1.1-.15-1.5a2.87,2.87,0,0,0-2.59.08c-7.63,4.93-17.55,8.39-28.7,10a94.13,94.13,0,0,1-43.44-3.67c-13.17-4.54-22.48-11.76-26.23-20.33-4.91-11.24.85-23.32,15.05-31.54.72-.41.72-1.08,0-1.5h0a2.9,2.9,0,0,0-2.6,0C504.54,440.65,498.4,453.51,503.63,465.47ZM472.19,489a83.67,83.67,0,0,0,15.52,11.37c13.73,7.93,31,13.54,50.4,16.21,27.64,3.81,56.19,1.18,80.4-7.41a118.28,118.28,0,0,0,19.54-8.89c.72-.41.72-1.08,0-1.5h0a2.9,2.9,0,0,0-2.6,0,114,114,0,0,1-18.86,8.58c-23.37,8.3-50.94,10.84-77.62,7.16s-49.29-13.14-63.65-26.63c-25-23.5-18.91-53.51,14.86-73a.79.79,0,0,0,0-1.5h0a2.9,2.9,0,0,0-2.6,0c-16.64,9.59-27.42,22.34-30.34,35.89C454.23,463.25,459.4,477,472.19,489Zm-36.06,25.39a141.88,141.88,0,0,0,12.91,8.4c25.43,14.68,58.42,24,94.67,26.46,42.75,3,84.93-3.89,118.77-19.26,5-2.28,9.83-4.74,14.32-7.33a.79.79,0,0,0,0-1.5h0a2.88,2.88,0,0,0-2.59,0c-4.39,2.53-9.1,4.94-14,7.16-33.07,15-74.29,21.71-116.06,18.83S465,532.16,439,513.07c-49.36-36.22-44-88.05,12.4-120.54.72-.42.72-1.09,0-1.5h0a2.9,2.9,0,0,0-2.6,0C391.08,424.28,385.62,477.31,436.13,514.38Zm-38.69,27.18q4.46,2.9,9.13,5.6c82,47.33,215.15,50.16,303,5.16,3.29-1.69,6.52-3.44,9.6-5.22.72-.41.72-1.08,0-1.5h0a2.9,2.9,0,0,0-2.6,0c-3,1.75-6.2,3.47-9.44,5.13-89.67,45.94-227.34,41.2-306.93-10.58-77.45-50.38-72.53-126.55,11.18-173.39.73-.41.75-1.08.05-1.5h0a2.86,2.86,0,0,0-2.58,0c-40.94,22.91-64.72,53.68-66.94,86.65S359.38,516.8,397.44,541.56Zm-44.05,30.55q2.44,1.49,4.95,2.93c52.79,30.48,122.67,47.77,197.57,48.81,77.27,1.06,150.63-15.31,206.57-46.1,1.67-.92,3.31-1.85,4.94-2.78.72-.42.72-1.09,0-1.5h0a2.84,2.84,0,0,0-2.6,0c-1.6.92-3.23,1.84-4.88,2.74-55.23,30.4-127.66,46.57-203.94,45.52s-147.33-19.18-199.95-51.08S275.4,496.94,277.22,452.9s33.24-85,88.47-115.44c.73-.41.76-1.08.06-1.5a3,3,0,0,0-2.6,0c-55.94,30.79-87.76,72.32-89.61,116.93S300.05,539.81,353.39,572.11Zm479.15,39a2.84,2.84,0,0,0-2.6,0c-147.29,85-387,85-534.26,0s-147.29-223.41,0-308.45c.72-.42.72-1.09,0-1.5a2.84,2.84,0,0,0-2.6,0c-72,41.6-111.72,96.9-111.72,155.73S221,571,293.09,612.56s167.83,64.51,269.72,64.51,197.69-22.91,269.73-64.5C833.26,612.15,833.26,611.48,832.54,611.07Z"></path><path fill="#f4f6f8" d="M212.41,503.91a13.7,13.7,0,0,1-12.32,0l-41-23.69c-3.38-2-3.38-5.15,0-7.11l40.36-23.31a13.7,13.7,0,0,1,12.32,0l41,23.69c3.39,2,3.39,5.15,0,7.11Z" class="colorf6f6fb svgShape"></path><path fill="url(#l)" d="M156.53,482.35h0c-.06,1.34.77,2.68,2.53,3.69l41,23.69a13.64,13.64,0,0,0,12.32,0l40.36-23.31c1.78-1,2.61-2.38,2.53-3.73v-5.47a4.4,4.4,0,0,1-2.52,3.38l-40.37,23.31a13.7,13.7,0,0,1-12.32,0l-41-23.69c-1.67-1-2.51-2.24-2.53-3.51Z"></path><path fill="#f4f6f8" d="M594.27,294.24c47.23-27.27,123.81-27.27,171.05,0s47.23,71.48,0,98.75l-61.82,35.7L656.07,401.3l61.82-35.69c21-12.15,21-31.84,0-44s-55.16-12.15-76.2,0l-61.82,35.69-47.42-27.38Z" class="colorf6f6fb svgShape"></path><polygon fill="#5046e4" points="594.02 483.35 641.44 510.74 641.44 464.51 594.02 437.13 594.02 483.35" class="color5652cc svgShape"></polygon><polygon fill="#e33cc5" points="470.39 411.98 517.82 439.36 517.82 393.14 470.39 365.76 470.39 411.98" class="colore33c5c svgShape"></polygon><polygon fill="#a50b89" points="517.82 439.36 579.87 403.53 579.87 357.31 517.82 393.14 517.82 439.36" class="colorbc3153 svgShape"></polygon><polygon fill="#453eaf" points="641.44 510.74 703.5 474.91 703.5 428.69 641.44 464.51 641.44 510.74" class="color423eaf svgShape"></polygon><polygon fill="#857dfb" points="641.44 464.51 594.02 437.13 656.07 401.31 703.5 428.69 641.44 464.51" class="color807dfb svgShape"></polygon><polygon fill="#ff5ae1" points="579.87 357.31 517.82 393.14 470.39 365.76 532.45 329.93 579.87 357.31" class="colorff5a72 svgShape"></polygon><path fill="#bbd0e6" d="M703.5 428.69L765.32 393c23.27-13.43 35-31 35.39-48.6v43.86l0 0c.71 18.39-11.06 36.91-35.36 51L703.5 474.91zM579.87 357.31l61.82-35.69c21-12.15 55.16-12.15 76.2 0s21 31.84 0 44l-2 1.17c-21.15-11-53.79-10.71-74.18 1.06l-61.82 35.69z" class="colorbbc0e6 svgShape"></path><path fill="#a9d2fc" d="M762.21 292.31l.15 1.94a6.4 6.4 0 01-2.93 4.49c-1.79 1 .92 2.07 2.16.64s1.94-1.26 1.7 1.52a6.81 6.81 0 00.55 3.33c.69 1.21 2.51 2.84 3.95 1.6 1.16-1 .5-5.08.35-6.31-.41-3.37-1.18-2.92-1.53-4.85a6.22 6.22 0 01-.21-2.3zM739.52 280.37l-1.35 1.4a6.41 6.41 0 00-.57 5.33c.73 1.93-2 1-2.08-.87s-2.06-2.23-4.27-.52a6.8 6.8 0 01-3.1 1.34c-1.39.07-3.74-.58-3.48-2.46.21-1.51 3.62-2.55 4.79-2.92 2.63-.84 3.67-1 5.16-2.26s1.62-1.64 1.62-1.64z" class="colorfcd1a9 svgShape"></path><path fill="url(#t)" d="M765,249c1.89-.75,5.27-1.19,7.19,4.64,1.1,3.3,2.73,17.07,1.28,21-2.83,7.72-2.94,11.25-6.39,19.5-2,1.9-5.6.88-5.5-1.18,1.35-7.76,3.54-17.87,3.88-20.06s-2.13-14.72-2.55-16.58C762,252.46,763.1,249.76,765,249Z"></path><path fill="url(#u)" d="M742.29,269.42c.92-1.67,10.37.5,6.44,4.12-3.23,3-7.16,5.73-9.74,7.78-1.53,1.22-5.67-1-4-3C738,274.86,742.29,269.42,742.29,269.42Z"></path><path fill="#a9d2fc" d="M406.14,458.39c-.47,2.16,1,2.85.81,4.06s-1,1-1,1.56a2.49,2.49,0,0,1-1.52,2.33,3.64,3.64,0,0,1-4.77-1.31c-.58-.89-1.28-1.06-.11-4,.47-1.2,1.63-1,2.19-3.4C402.09,458,406.14,458.39,406.14,458.39Z" class="colorfcd1a9 svgShape"></path><path fill="url(#v)" d="M429.22,428.11c1.83,2.21,1.58,4,.52,5-2.27,1.59-16.73,11.48-17.75,12.1a85.19,85.19,0,0,0-5.23,13.1c-1.06,3.21-5.88,2.58-5.81-.18,0-1.22,2-12.91,3.77-16.22,2.08-5.39,13.2-14.12,17.26-15.76C425.5,423.61,427.39,425.9,429.22,428.11Z"></path><path fill="#ffffff" d="M397.91,495.91a22.81,22.81,0,0,1-2.52-.29s-.42,8.77,3.49,7.07C400.18,502.12,399.66,495.91,397.91,495.91Z" class="colorffffff svgShape"></path><path fill="#6f196f" d="M412.88,467.29l16.29.32c-1.53,14.55-2.42,20.31-5.92,32.16-2,6.82-17.59,3.05-24.43,3,1.18-1.35.55-5.61-.91-6.86,3.72.41,9.1-2.43,14.62-1.75C412.09,483,411.65,478.6,412.88,467.29Z" class="color20196f svgShape"></path><path fill="#6f67e9" d="M389.1,514c2.18-.23,4.21-1,5.15-3.67a17.35,17.35,0,0,1,3.27-5.92c.69-.79.35-3.39-.24-5.47-.28-1,.82-2.15.24-2.82s-3.27-1-4.06-1.15a30.6,30.6,0,0,1-2.09,8.29Z" class="color6b67e9 svgShape"></path><path fill="#6f196f" d="M393.46,495c2.18.7,2.53,6.37,1,9.64s-2.53,10.69-7,9.29,1.14-9.25,1.4-10.82S388.31,493.29,393.46,495Z" class="color20196f svgShape"></path><path fill="url(#g)" d="M452.27,522.94c-2.77-5.75,1-6.89,1-6.89s1.2-.65,5.61-3.31c4.06-2.46,7.86-2.91,7.59,1.47a2.16,2.16,0,0,1-.48,1.31l-7.57,7.06C457.51,523.86,452.88,524.11,452.27,522.94Z"></path><path fill="#6f196f" d="M452,522.4c.08.18.14.35.23.54.61,1.17,5.24.92,6.12-.36l7.57-7.06a2.16,2.16,0,0,0,.48-1.31L458.11,522C457.25,523.25,452.75,523.51,452,522.4Z" class="color20196f svgShape"></path><path fill="#ffffff" d="M451.79,515.34a38.12,38.12,0,0,1,4.79.36,2.1,2.1,0,0,0,.44.91l.11.11c.78.41,1.61,1.12,0,2.39a2.39,2.39,0,0,1-3.1.16,2.82,2.82,0,0,0-1.12-1,2.63,2.63,0,0,0-1-.29.45.45,0,0,0,0-.08S451.35,515.39,451.79,515.34Z" class="colorffffff svgShape"></path><path fill="url(#h)" d="M440.52,471.88c-4,.58-23.93-8.78-27.89-8.2,1.36,20.85,21.52,27,27.15,35.66s7.93,10.27,11.93,17.33c1.07,1.49,4.66,1.38,5-.5-2.23-8.92-2.48-10.18-5.53-21C449.29,488.32,445.6,481.31,440.52,471.88Z"></path><path fill="url(#f)" d="M421.12,475.21c8.58,4.81,17.55,4.82,20.61-1.1-1.14-11-1.48-18.33.72-28.89-.65-5.83-1.11-6.71-.36-10.11-.26-1.14-3.77-3.57-6.33-5.91-2.76-2.52-4.63-4.91-6.05-5.21-11.73-2.39-12.63,23.19-17.08,39.69C412.09,470.79,416.9,472.84,421.12,475.21Z"></path><path fill="#a9d2fc" d="M423.63,425.74c2.54-1.84,2.69-5.81,2.71-8.35a12.33,12.33,0,0,1-.08-4.38c.88-5.5,5.15-9.69,9.4-8.71,8.55,2,6.28,6.29,5.4,11.79-.82,5.1-3.69,8.23-7.65,8.21a5.75,5.75,0,0,0,1.37,4c-2.86,1.71-7,.9-8.69.16S422.43,427,423.63,425.74Z" class="colorfcd1a9 svgShape"></path><path fill="#6f196f" d="M439.37,401.91c-.15-.71-1.42-1.28-6.09,0l-1.2.35c-8.67,2.84-7.54,12.63-6.52,15.3a5.18,5.18,0,0,1,.37,3.08c3.29.17,4.16,2.11,6.42.46,1.63-1.17,4-2.51,4.46-3.12a2.49,2.49,0,0,0,.45-1.56c.44-4.61,2.31-1.59,2.14-.55.91-.34,1-2.2,1.15-4.26h0C448.11,407,444.65,403,439.37,401.91Z" class="color20196f svgShape"></path><path fill="#a9d2fc" d="M459.42,443.32c1.55-1.55.71-2.9,1.5-3.81s1.34-.28,1.7-.74a2.47,2.47,0,0,1,2.52-1.12,3.59,3.59,0,0,1,3.25,3.64c0,1,.49,1.57-2.05,3.39-1,.74-1.86-.08-3.64,1.64C462.59,445.78,459.42,443.32,459.42,443.32Z" class="colorfcd1a9 svgShape"></path><path fill="url(#w)" d="M437.15,434.07c2.67-1.07,4.26-.29,4.94,1,1.59,3.18,6.18,11,7.8,13.49,2-1.23,3.9-2.53,9-5.59,2.9-1.74,6.15,1.87,4.29,3.93-.81.9-14.46,12.68-17.07,10-4.48-3.63-11.42-10.8-12.2-13.7C432.55,439.08,434.48,435.13,437.15,434.07Z"></path><path fill="#a9d2fc" d="M225.08,514.48c-.37,2.11.88,2.28.74,3.44s-.9,1-.95,1.54a2.4,2.4,0,0,1-1.38,2.3,2.8,2.8,0,0,1-4.07-1c-.58-.83-1.26-1-.24-3.85.42-1.17,1.53-1,2-3.34C221.57,514,225.08,514.48,225.08,514.48Z" class="colorfcd1a9 svgShape"></path><path fill="url(#x)" d="M246.11,483.64c1.84,2.07,1.66,3.69.68,4.74-2.14,1.6-15.3,11.66-16.26,12.29-1.37,2.62-2.89,8.7-4.75,14.12-.84,2.45-5.28,2-5.31-.67,0-1.17,1.51-12.49,3.09-15.74,1.83-5.25,12.24-14,16.09-15.74C243.13,481.08,244.27,481.57,246.11,483.64Z"></path><path fill="#ffffff" d="M217.8,547.84a20.94,20.94,0,0,1-2.34-.27s-.4,8.16,3.24,6.57C219.91,553.61,219.43,547.84,217.8,547.84Z" class="colorffffff svgShape"></path><path fill="#6f196f" d="M232.94,518.32c3.84.07,10.1,3.13,13.93,3.2-1.43,13.54-2.13,19.17-6.21,29.9-1.87,4.94-15.66,2.84-22,2.8,1.1-1.26.52-5.22-.84-6.38,3.46.38,9.4-2.27,14.53-1.63C231.92,535.86,231.8,528.83,232.94,518.32Z" class="color20196f svgShape"></path><path fill="#6f67e9" d="M209.61,564.64c2-.21,3.91-1,4.78-3.42a15.86,15.86,0,0,1,3.05-5.49c.64-.74.32-3.16-.23-5.09-.25-.91.77-2,.23-2.63s-3.05-1-3.78-1.07a28.34,28.34,0,0,1-1.95,7.71Z" class="color6b67e9 svgShape"></path><path fill="#6f196f" d="M213.66,546.94c2,.66,2.35,5.93.89,9s-2.35,9.94-6.49,8.64,1.06-8.6,1.3-10.06S208.88,545.4,213.66,546.94Z" class="color20196f svgShape"></path><path fill="url(#y)" d="M268.35,573c-2.58-5.35.89-6.41.89-6.41s1.12-.6,5.22-3.08c3.78-2.28,7.32-2.7,7.06,1.37a2,2,0,0,1-.44,1.22l-7,6.57C273.22,573.83,268.91,574.06,268.35,573Z"></path><path fill="#6f196f" d="M268.13,572.47a5.44,5.44,0,0,0,.22.5c.56,1.09,4.87.86,5.69-.33l7-6.57a2,2,0,0,0,.44-1.22l-7.74,7.24C273,573.26,268.79,573.5,268.13,572.47Z" class="color20196f svgShape"></path><path fill="#ffffff" d="M267.9,565.91a34,34,0,0,1,4.45.33,1.88,1.88,0,0,0,.41.84l.11.11c.72.38,1.49,1,0,2.22a2.22,2.22,0,0,1-2.89.14,2.55,2.55,0,0,0-1-.93,2.35,2.35,0,0,0-.93-.27.31.31,0,0,0,0-.07S267.49,566,267.9,565.91Z" class="colorffffff svgShape"></path><path fill="url(#z)" d="M257.42,525.5c-3.68.53-20.7-9.08-24.38-8.54-2,20,19.46,26,24.69,34s6.38,9.62,10.09,16.19c1,1.39,4.34,1.28,4.69-.46-2.07-8.3-3.16-9.7-6-19.74C264.71,540.56,262.14,534.26,257.42,525.5Z"></path><path fill="url(#A)" d="M255.7,482.68c-3.08-2.61-4.75-4.09-6.26-4.46-12.49-3-13.25,19.48-16.85,38.23.74,4.78,2,6.24,4.22,7.69,5.51,3.21,17.73,6.86,21.24.63-2.09-5.76-3.26-8.14-1.72-14.28,1-3.81,3.79-4.91,4.87-9.27-.08-1.05-1.28-13.29-1.53-14.16C257.34,484.85,256.73,483.56,255.7,482.68Z"></path><path fill="#e100b8" d="M261.2,501.22c-.05-.68-.58-6.07-1-10h0c-.11,1.86-1.19,12.13-4.57,16.54s-3.16,16.34-1.27,19.91a6.28,6.28,0,0,0,3.72-2.87c-2.09-5.76-3.26-8.14-1.72-14.28C257.29,506.68,260.12,505.58,261.2,501.22Z" class="colore19100 svgShape"></path><path fill="#6f196f" d="M261.41,469c-.87-3.84-4.46-10.12-11.37-8.9-6.69,1.19-8.41,5.42-8.51,12.11-.06,4.26-1.85,3.74-2.74,6.68-.53,1.78.74,4.3-.75,6.8a6.7,6.7,0,0,1-3.73,3.05c-5.08,1.91-1.9,4.49,1,5.25,7.12,1.84,4.28-1.66,7.38-2.17,1.82-.3,5.07,1.55,6.8.74,3.39-1.59,2.25-3.48,3.88-5.13s3.52-1.3,5.86-3.93A6.6,6.6,0,0,0,260.6,476C259.8,473.93,262.09,472,261.41,469Z" class="color20196f svgShape"></path><path fill="#a9d2fc" d="M281.32,489.42c1.37-1.41,1.05-2.56,1.75-3.37s1.19-.27,1.51-.68.67-.81,2.18-.73a2.58,2.58,0,0,1,2.56,2.87c0,.93.45,1.39-1.81,3.05-.91.67-1.66-.05-3.23,1.5C284.18,491.58,281.32,489.42,281.32,489.42Z" class="colorfcd1a9 svgShape"></path><path fill="url(#B)" d="M255.7,489.68c.72-2.81,2.82-3.4,4-2.62a63,63,0,0,0,12.72,7.72c1.74-1.12,3.93-2.85,8.46-5.64,2.57-1.58,5.51,1.61,3.87,3.46-.72.82-9.8,10.41-14.23,9.09-5.79-2.39-8.95-3-12.18-5.93C256.14,493.66,255.06,492.16,255.7,489.68Z"></path><path fill="#7ba8d6" d="M329.08,575.87c-.47,2.16,1,2.85.81,4.06s-1,1-1,1.56a2.47,2.47,0,0,1-1.52,2.33,3.62,3.62,0,0,1-4.76-1.31c-.58-.89-1.28-1.06-.11-4,.47-1.19,1.62-1,2.19-3.39C325,575.51,329.08,575.87,329.08,575.87Z" class="colord6a47b svgShape"></path><path fill="url(#j)" d="M336,549.72c-3.72,3.15-7.27,6.87-8.36,9.68-1.76,3.31-3.74,15-3.77,16.23-.07,2.76,4.74,3.39,5.81.18a85.19,85.19,0,0,1,5.23-13.1c.29-.18,1.66-1.11,3.54-2.38A10.41,10.41,0,0,0,336,549.72Z"></path><path fill="url(#C)" d="M352.16,545.59c-1.83-2.21-3.72-4.5-7.24-1.94a41.9,41.9,0,0,0-8.89,6.07,10.41,10.41,0,0,1,2.45,10.61c4.72-3.2,12.58-8.58,14.21-9.72C353.74,549.56,354,547.8,352.16,545.59Z"></path><path fill="url(#D)" d="M371.14,640.26c-2.77-5.75,1-6.89,1-6.89s1.21-.65,5.62-3.32c4.06-2.45,7.86-2.9,7.59,1.48a2.16,2.16,0,0,1-.48,1.31l-7.57,7.06C376.38,641.18,371.74,641.43,371.14,640.26Z"></path><path fill="#6f196f" d="M370.91,639.72c.08.18.14.35.23.54.6,1.17,5.24.92,6.12-.36l7.57-7.06a2.16,2.16,0,0,0,.48-1.31L377,639.31C376.12,640.57,371.62,640.83,370.91,639.72Z" class="color20196f svgShape"></path><path fill="#ffffff" d="M370.65,632.66a38.15,38.15,0,0,1,4.8.36,2,2,0,0,0,.44.91l.11.11c.78.41,1.61,1.12,0,2.39a2.37,2.37,0,0,1-3.1.15,2.8,2.8,0,0,0-1.12-1,2.68,2.68,0,0,0-1-.29.45.45,0,0,0,0-.08S370.22,632.71,370.65,632.66Z" class="colorffffff svgShape"></path><path fill="#6f196f" d="M359.39,589.2c-4,.58-19.23-6.49-23.19-5.9-.66,23.11,16.82,24.74,22.44,33.36s7.94,10.27,11.94,17.33c1.06,1.49,4.66,1.38,5-.5-2.23-8.92-2.48-10.18-5.53-21C368.15,605.64,364.47,598.63,359.39,589.2Z" class="color20196f svgShape"></path><path fill="#ffffff" d="M332.2,617.67a21.81,21.81,0,0,1-2.51-.3s-.43,8.78,3.48,7.07C334.48,623.87,334,617.67,332.2,617.67Z" class="colorffffff svgShape"></path><path fill="url(#i)" d="M338.7,585.67c4.13.07,21.41,5.85,25.53,5.92-.55,15.54-1.61,19.56-6,29.93-2.78,6.55-18.27,3.06-25.11,3,1.19-1.36.56-5.61-.91-6.86,3.73.41,9.11-2.44,14.63-1.76.21-5-.36-9.85-2.07-13.56C342.13,596.66,338,592.51,338.7,585.67Z"></path><path fill="#6f67e9" d="M323.4,635.74c2.18-.23,4.2-1,5.14-3.68a17.21,17.21,0,0,1,3.28-5.91c.69-.8.35-3.39-.24-5.48-.28-1,.82-2.15.24-2.82s-3.28-1-4.06-1.15a30.84,30.84,0,0,1-2.1,8.29Z" class="color6b67e9 svgShape"></path><path fill="#6f196f" d="M327.76,616.7c2.18.71,2.53,6.38,1,9.65s-2.53,10.68-7,9.29,1.13-9.25,1.39-10.82S322.61,615.05,327.76,616.7Z" class="color20196f svgShape"></path><path fill="url(#k)" d="M344.07,592.69c8.57,4.81,17.55,4.82,20.61-1.1-1.15-11-1.49-18.33.72-28.89-.65-5.83-1.11-6.71-.36-10.11-.27-1.14-3.78-3.57-6.33-5.91-2.77-2.52-4.63-4.92-6-5.21-11.73-2.39-12.63,23.19-17.08,39.69C335,588.27,339.84,590.32,344.07,592.69Z"></path><path fill="#7ba8d6" d="M346.57,543.22c2.54-1.84,2.69-5.81,2.71-8.35a12.33,12.33,0,0,1-.07-4.38c.88-5.5,5.15-9.7,9.39-8.71,8.56,2,6.29,6.29,5.41,11.79-.82,5.1-3.69,8.23-7.66,8.21a5.76,5.76,0,0,0,1.38,4c-2.87,1.71-7,.9-8.69.16S345.38,544.45,346.57,543.22Z" class="colord6a47b svgShape"></path><path fill="url(#E)" d="M358,546a10.51,10.51,0,0,0-.62-1.62c-.76.17-9.12.52-10-1.84-.85.26-1.07.5-1.25,1.29C345.77,545.3,351.24,548.62,358,546Z"></path><path fill="url(#F)" d="M352.38,518.2c1.22-.63,2.31-.3,3-.74,1.61-1,3.14-1.62,4-1.15a9,9,0,0,1,1.2,1c.85.84,2.57-.95,3,1.22a8.07,8.07,0,0,1,.15,1.69c4,.52,2.05,4.2-1.2,11.29,0-1.46-2.45-3.81-2.45,1.31,0,.55.41.65.05,1.38s-2.68,2.56-4.22,4.1c-2.13,2.14-3.39.22-6.93.6a5.64,5.64,0,0,0-.93-3.22,9.42,9.42,0,0,1-2.28-5.83C348.5,530.15,343.62,522.71,352.38,518.2Z"></path><path fill="#7ba8d6" d="M382.37,560.8c1.55-1.55.7-2.9,1.5-3.81s1.33-.28,1.7-.74a2.45,2.45,0,0,1,2.51-1.12,3.6,3.6,0,0,1,3.26,3.64c0,1.05.49,1.57-2.06,3.39-1,.74-1.86-.08-3.63,1.64C385.53,563.26,382.37,560.8,382.37,560.8Z" class="colord6a47b svgShape"></path><path fill="url(#G)" d="M381.84,560.49c-5.1,3.06-7,4.36-9,5.59-.65-1-1.78-2.86-3-4.93-1.32,4.29-4.63,5.88-8,6.46a75.86,75.86,0,0,0,7.18,6.79c2.6,2.7,16.25-9.08,17.07-10C388,562.36,384.74,558.75,381.84,560.49Z"></path><path fill="url(#H)" d="M369.84,561.15c-1.82-3.09-3.85-6.65-4.8-8.56-.68-1.33-2.28-2.11-4.94-1s-4.6,5-3.25,9.15c.41,1.51,2.5,4.18,5,6.91C365.21,567,368.52,565.44,369.84,561.15Z"></path><polygon fill="url(#I)" points="833.65 638.58 833.65 723.71 902.55 723.71 902.55 598.81 833.65 638.58"></polygon><polygon fill="url(#J)" points="833.65 638.58 744.44 587.08 744.44 723.71 833.65 723.71 833.65 638.58"></polygon><polygon fill="#f4f6f8" points="833.65 535.57 744.44 587.08 833.65 638.58 902.55 598.81 902.55 575.35 833.65 535.57" class="colorf1f3f9 svgShape"></polygon><polygon fill="url(#K)" points="164.01 617.49 105.73 651.14 105.73 723.71 164.01 723.71 164.01 617.49"></polygon><polygon fill="#f4f6f8" points="105.73 651.14 47.45 617.49 105.73 583.85 164.01 617.49 105.73 651.14" class="colorf1f3f9 svgShape"></polygon><polygon fill="url(#L)" points="105.73 651.14 47.45 617.49 47.45 723.71 105.73 723.71 105.73 651.14"></polygon><path fill="#f4f6f8" d="M556.09,552.31a13.7,13.7,0,0,1-12.32,0l-41-23.69c-3.38-2-3.38-5.16,0-7.11l40.36-23.31a13.7,13.7,0,0,1,12.32,0l41,23.69c3.39,2,3.39,5.15,0,7.11Z" class="colorf6f6fb svgShape"></path><path fill="url(#m)" d="M500.21,530.75h0c-.07,1.34.77,2.68,2.53,3.69l41,23.69a13.7,13.7,0,0,0,12.32,0l40.36-23.31c1.78-1,2.61-2.39,2.53-3.73v-5.47a4.4,4.4,0,0,1-2.52,3.38l-40.37,23.31a13.7,13.7,0,0,1-12.32,0l-41-23.69c-1.67-1-2.51-2.24-2.53-3.51Z"></path><path fill="#f4f6f8" d="M590.59,633.3a13.64,13.64,0,0,1-12.32,0L550,617c-3.39-2-3.39-5.16,0-7.11l27.79-16a13.64,13.64,0,0,1,12.32,0l28.24,16.3c3.38,2,3.39,5.16,0,7.11Z" class="colorf6f6fb svgShape"></path><path fill="url(#M)" d="M547.5,619.13h0c-.06,1.34.77,2.68,2.53,3.69l28.23,16.31a13.7,13.7,0,0,0,12.32,0l27.8-16c1.77-1,2.61-2.39,2.52-3.74v-5.46a4.39,4.39,0,0,1-2.52,3.37l-27.8,16a13.64,13.64,0,0,1-12.32,0L550,617c-1.68-1-2.52-2.24-2.54-3.51Z"></path><path fill="#f4f6f8" d="M443.34,583.76a13.68,13.68,0,0,1-12.31,0l-28.24-16.31c-3.39-2-3.39-5.15,0-7.11l27.8-16.05a13.68,13.68,0,0,1,12.31,0l28.24,16.31c3.39,1.95,3.39,5.15,0,7.11Z" class="colorf6f6fb svgShape"></path><path fill="url(#N)" d="M400.25,569.58h0c-.06,1.34.77,2.68,2.53,3.7L431,589.58a13.65,13.65,0,0,0,12.31,0l27.8-16.05c1.77-1,2.61-2.39,2.52-3.73v-5.47a4.39,4.39,0,0,1-2.52,3.38l-27.8,16a13.68,13.68,0,0,1-12.31,0l-28.24-16.31c-1.67-1-2.52-2.23-2.54-3.51Z"></path><path fill="#f4f6f8" d="M337.37,483.62a13.67,13.67,0,0,1-12.32,0l-28.24-16.3c-3.38-2-3.38-5.15,0-7.11l27.8-16.05a13.7,13.7,0,0,1,12.32,0l28.23,16.31c3.39,2,3.39,5.15,0,7.1Z" class="colorf6f6fb svgShape"></path><path fill="url(#O)" d="M294.28,469.44h0c-.07,1.34.77,2.68,2.52,3.69l28.24,16.31a13.7,13.7,0,0,0,12.32,0l27.79-16.05c1.78-1,2.61-2.39,2.53-3.73v-5.47a4.39,4.39,0,0,1-2.52,3.37l-27.8,16.06a13.67,13.67,0,0,1-12.32,0l-28.24-16.3c-1.67-1-2.51-2.24-2.53-3.51Z"></path><path fill="#857dfb" d="M488.76,624.22a13.68,13.68,0,0,1-12.31,0L459,614.11c-3.39-2-3.39-5.15,0-7.11l17.14-9.9a13.7,13.7,0,0,1,12.32,0l17.5,10.11c3.39,1.95,3.39,5.15,0,7.11Z" class="color807dfb svgShape"></path><path fill="url(#P)" d="M456.41,616.24h0c-.06,1.34.77,2.68,2.53,3.7l17.5,10.1a13.64,13.64,0,0,0,12.32,0l17.14-9.9c1.77-1,2.61-2.39,2.53-3.73v-5.47a4.42,4.42,0,0,1-2.53,3.38l-17.15,9.9a13.68,13.68,0,0,1-12.31,0L459,614.11c-1.67-1-2.52-2.23-2.54-3.51Z"></path><path fill="#f4f6f8" d="M299.75,414.18a13.68,13.68,0,0,1-12.31,0l-17.5-10.11c-3.39-1.95-3.39-5.15,0-7.11l17.14-9.9a13.7,13.7,0,0,1,12.32,0l17.5,10.11c3.39,1.95,3.39,5.15,0,7.11Z" class="colorf6f6fb svgShape"></path><path fill="url(#Q)" d="M267.4,406.2h0c-.06,1.34.77,2.68,2.53,3.7l17.5,10.1a13.62,13.62,0,0,0,12.31,0l17.15-9.9c1.77-1,2.61-2.39,2.52-3.73V400.9a4.38,4.38,0,0,1-2.52,3.38l-17.15,9.9a13.68,13.68,0,0,1-12.31,0l-17.5-10.11c-1.68-1-2.52-2.23-2.54-3.51Z"></path><path fill="#f4f6f8" d="M276.12,619.78a13.64,13.64,0,0,1-12.32,0l-17.5-10.1c-3.38-2-3.39-5.16,0-7.11l17.15-9.9a13.62,13.62,0,0,1,12.31,0l17.5,10.1c3.39,2,3.39,5.16,0,7.11Z" class="colorf6f6fb svgShape"></path><path fill="url(#R)" d="M243.77,611.81h0c-.06,1.33.78,2.68,2.53,3.69l17.5,10.11a13.7,13.7,0,0,0,12.32,0l17.14-9.9c1.78-1,2.61-2.39,2.53-3.74v-5.46a4.41,4.41,0,0,1-2.52,3.37l-17.15,9.9a13.64,13.64,0,0,1-12.32,0l-17.5-10.1c-1.67-1-2.52-2.24-2.54-3.51Z"></path><path fill="#ff5ae1" d="M588.17 608.72a3.47 3.47 0 00-1.73-1.94 9.64 9.64 0 00-8.72 0 3.07 3.07 0 00-1.81 2.52v8.6H590.8a9 9 0 004.37-1c2.41-1.39 2.41-3.65 0-5a8.41 8.41 0 00-3.36-1l-3.26-.22zM440 559.33a3.45 3.45 0 00-1.72-1.94 9.63 9.63 0 00-8.73 0 3.06 3.06 0 00-1.81 2.52v8.59h14.89a8.88 8.88 0 004.37-1c2.41-1.39 2.41-3.65 0-5a8.4 8.4 0 00-3.36-1l-3.26-.22z" class="colorff5a72 svgShape"></path><path fill="#dae7f5" d="M333.92,459.12a3.42,3.42,0,0,0-1.72-1.94,9.66,9.66,0,0,0-8.73,0,3,3,0,0,0-1.8,2.52v8.6h14.89a8.74,8.74,0,0,0,4.36-1c2.41-1.39,2.41-3.64,0-5a8.4,8.4,0,0,0-3.36-1L334.3,461Z" class="colordae0f5 svgShape"></path><path fill="#cee3f8" d="M554.14 534a32.85 32.85 0 01-13-3.89c-3.43-2-5.73-4.48-6.65-7.22-.21-.63-1.26-1-2.34-.91s-1.79.72-1.58 1.35c1.07 3.19 3.75 6.1 7.75 8.41a38 38 0 0015.17 4.54c1.08.1 2.12-.32 2.3-1S555.23 534.15 554.14 534zm18-9.32c-1.79-1-4.74-1.08-8.76-.14-1 .24-1.51.91-1.1 1.5a1.36 1.36 0 00.44.38 3.14 3.14 0 002.17.26c2.85-.67 4.14-.53 4.43-.37s.51.86-.52 2.39c-.39.59.12 1.26 1.15 1.49a2.64 2.64 0 002.58-.66C574.05 527.36 573.92 525.72 572.18 524.72zm-28.62-10.58c2.66-.59 3.87-.45 4.14-.29s.52.91-.64 2.55c-.31.45-.11.94.44 1.25a2.46 2.46 0 00.66.26 2.68 2.68 0 002.61-.64c1.63-2.32 1.55-4-.25-5.06s-4.56-1.07-8.4-.22c-1 .23-1.54.9-1.14 1.49A2.61 2.61 0 00543.56 514.14zM209.22 486.89a32.59 32.59 0 01-13-3.9c-3.44-2-5.74-4.48-6.65-7.22-.21-.62-1.26-1-2.35-.91s-1.79.73-1.58 1.35c1.07 3.2 3.75 6.11 7.75 8.41a38 38 0 0015.17 4.54c1.09.11 2.12-.31 2.31-.94S210.31 487 209.22 486.89zm18.05-9.32c-1.8-1-4.74-1.09-8.76-.14-1 .23-1.52.91-1.1 1.5a1.34 1.34 0 00.43.38 3.14 3.14 0 002.17.25c2.85-.66 4.14-.53 4.43-.36s.51.85-.51 2.38c-.4.6.11 1.27 1.14 1.5a2.64 2.64 0 002.58-.66C229.13 480.2 229 478.57 227.27 477.57zM198.64 467c2.66-.59 3.87-.46 4.14-.3s.52.91-.64 2.56c-.31.44-.11.93.44 1.25a2.4 2.4 0 00.67.25 2.67 2.67 0 002.6-.63c1.63-2.32 1.55-4-.25-5.06s-4.56-1.08-8.4-.22c-1 .23-1.54.89-1.14 1.49A2.63 2.63 0 00198.64 467z" class="colorced3f8 svgShape"></path><path fill="#5046e4" d="M481,608.86c-.35-1,.18-2.05,1.55-2.84a8,8,0,0,1,7.25-.19c1.91,1.1,1.76,3-.33,4.18a8.24,8.24,0,0,1-4.92.9c1.94,2.26,1.28,4.78-.77,6l-6.56-3.79-6.56-3.79C472.75,608.12,477.13,607.74,481,608.86Z" class="color5652cc svgShape"></path><path fill="#857dfb" d="M267.84,605.2c-.34-1,.18-2.05,1.56-2.84a8,8,0,0,1,7.25-.2c1.91,1.11,1.76,3-.34,4.19a8.29,8.29,0,0,1-4.91.9c1.94,2.25,1.28,4.78-.78,6l-6.55-3.79-6.57-3.79C259.56,604.45,263.93,604.08,267.84,605.2Z" class="color807dfb svgShape"></path><path fill="#bbd0e6" d="M292,399.05c-.34-1,.18-2.05,1.56-2.84a8,8,0,0,1,7.25-.19c1.91,1.1,1.76,3-.33,4.18a8.24,8.24,0,0,1-4.92.9c1.94,2.26,1.28,4.78-.77,6l-6.56-3.79-6.56-3.79C283.74,398.31,288.12,397.93,292,399.05Z" class="colorbbc0e6 svgShape"></path></g></svg>