<svg xmlns="http://www.w3.org/2000/svg" xmlns:xlink="http://www.w3.org/1999/xlink" viewBox="0 0 800 800" id="OnlineMarketing"><defs><linearGradient id="a" x1="459.71" x2="466.26" y1="273.37" y2="265.58" gradientUnits="userSpaceOnUse"><stop offset="0" stop-color="#453eaf" class="stopColor423eaf svgShape"></stop><stop offset=".49" stop-color="#312b8e" class="stopColor302b8e svgShape"></stop><stop offset="1" stop-color="#6f196f" class="stopColor1f196f svgShape"></stop></linearGradient><linearGradient id="f" x1="457.15" x2="464.18" y1="271.12" y2="264.03" xlink:href="#a"></linearGradient><linearGradient id="b" x1="398.79" x2="420.81" y1="222.46" y2="227.65" gradientTransform="matrix(-1 0 0 1 868.04 0)" gradientUnits="userSpaceOnUse"><stop offset="0" stop-color="#6f196f" class="stopColor1f196f svgShape"></stop><stop offset=".36" stop-color="#312b8d" class="stopColor312b8d svgShape"></stop><stop offset="1" stop-color="#5a52cc" class="stopColor5652cc svgShape"></stop></linearGradient><linearGradient id="g" x1="438.71" x2="445.25" y1="285.49" y2="277.71" xlink:href="#a"></linearGradient><linearGradient id="h" x1="436.15" x2="443.18" y1="283.24" y2="276.16" xlink:href="#a"></linearGradient><linearGradient id="i" x1="409.8" x2="441.65" y1="232.11" y2="239.61" xlink:href="#b"></linearGradient><linearGradient id="j" x1="450.88" x2="487.26" y1="172.1" y2="172.1" gradientTransform="rotate(2.99 510.928 375.265)" gradientUnits="userSpaceOnUse"><stop offset="0" stop-color="#857dfb" class="stopColor807dfb svgShape"></stop><stop offset="1" stop-color="#6f67e9" class="stopColor6b67e9 svgShape"></stop></linearGradient><linearGradient id="k" x1="456.34" x2="421.12" y1="187.96" y2="187.96" gradientTransform="matrix(-1 -.1 -.1 1 905.34 32.86)" gradientUnits="userSpaceOnUse"><stop offset="0" stop-color="#6f67e9" class="stopColor6b67e9 svgShape"></stop><stop offset="1" stop-color="#453eaf" class="stopColor423eaf svgShape"></stop></linearGradient><linearGradient id="l" x1="-618.87" x2="-508.4" y1="-123.72" y2="67.61" gradientTransform="matrix(.5 .87 .87 -.5 536.36 767.17)" gradientUnits="userSpaceOnUse"><stop offset=".53" stop-color="#453eaf" class="stopColor423eaf svgShape"></stop><stop offset=".59" stop-color="#342e94" class="stopColor362e94 svgShape"></stop></linearGradient><linearGradient id="m" x1="-237.04" x2="-111.32" y1="-150.42" y2="67.34" gradientTransform="matrix(.5 .87 .87 -.5 536.36 767.17)" gradientUnits="userSpaceOnUse"><stop offset=".53" stop-color="#fc06cf" class="stopColorfcba06 svgShape"></stop><stop offset=".59" stop-color="#e100b8" class="stopColore19100 svgShape"></stop></linearGradient><linearGradient id="n" x1="517.49" x2="677.11" y1="105.98" y2="382.45" gradientUnits="userSpaceOnUse"><stop offset=".6" stop-color="#857dfb" class="stopColor807dfb svgShape"></stop><stop offset=".66" stop-color="#453eaf" class="stopColor423eaf svgShape"></stop></linearGradient><linearGradient id="o" x1="1272.17" x2="1266.1" y1="387.69" y2="372.76" gradientTransform="matrix(-1 0 0 1 1745.55 0)" gradientUnits="userSpaceOnUse"><stop offset="0" stop-color="#b9d0e8" class="stopColorb9bfe8 svgShape"></stop><stop offset=".25" stop-color="#c2d6eb" class="stopColorc2c7eb svgShape"></stop><stop offset=".65" stop-color="#dbe6f2" class="stopColordbddf2 svgShape"></stop><stop offset="1" stop-color="#f4f6f8" class="stopColorf5f5fa svgShape"></stop></linearGradient><linearGradient id="p" x1="1278.9" x2="1276.46" y1="376.67" y2="371.9" gradientTransform="matrix(-1 0 0 1 1745.55 0)" gradientUnits="userSpaceOnUse"><stop offset="0" stop-color="#741574" class="stopColor231574 svgShape"></stop><stop offset=".21" stop-color="#241e83" class="stopColor2b1e83 svgShape"></stop><stop offset=".62" stop-color="#3c35a9" class="stopColor4135a9 svgShape"></stop><stop offset="1" stop-color="#5046e4" class="stopColor584fd3 svgShape"></stop></linearGradient><linearGradient id="q" x1="459.45" x2="494.34" y1="161.56" y2="161.56" gradientTransform="rotate(-8.1 540.853 313.912)" gradientUnits="userSpaceOnUse"><stop offset="0" stop-color="#857dfb" class="stopColor807dfb svgShape"></stop><stop offset="1" stop-color="#5a52cc" class="stopColor5652cc svgShape"></stop></linearGradient><linearGradient id="r" x1="116.74" x2="231.84" y1="575.99" y2="575.99" gradientUnits="userSpaceOnUse"><stop offset="0" stop-color="#857dfb" class="stopColor807dfb svgShape"></stop><stop offset=".21" stop-color="#7971ee" class="stopColor7471ee svgShape"></stop><stop offset=".7" stop-color="#625ad5" class="stopColor5e5ad5 svgShape"></stop><stop offset="1" stop-color="#5a52cc" class="stopColor5652cc svgShape"></stop></linearGradient><linearGradient id="s" x1="-703.23" x2="-640.56" y1="343.74" y2="452.3" gradientTransform="rotate(120 -56.256 856.26)" gradientUnits="userSpaceOnUse"><stop offset=".01" stop-color="#bc31a3" class="stopColorbc3153 svgShape"></stop><stop offset="1" stop-color="#e33cc5" class="stopColore33c5c svgShape"></stop></linearGradient><linearGradient id="c" x1="-1170.11" x2="-1151.16" y1="399.61" y2="399.61" gradientTransform="translate(1851.62)" gradientUnits="userSpaceOnUse"><stop offset="0" stop-color="#6f196f" class="stopColor20196f svgShape"></stop><stop offset=".11" stop-color="#241e77" class="stopColor241e77 svgShape"></stop><stop offset=".7" stop-color="#3c35a0" class="stopColor3a35a0 svgShape"></stop><stop offset="1" stop-color="#453eaf" class="stopColor423eaf svgShape"></stop></linearGradient><linearGradient id="t" x1="2392.35" x2="2417.33" y1="361.88" y2="361.88" gradientTransform="matrix(-1 0 0 1 3091.48 0)" gradientUnits="userSpaceOnUse"><stop offset="0" stop-color="#6f196f" class="stopColor20196f svgShape"></stop><stop offset=".61" stop-color="#2e2889" class="stopColor2f2889 svgShape"></stop><stop offset="1" stop-color="#342e94" class="stopColor362e94 svgShape"></stop></linearGradient><linearGradient id="u" x1="-1193.38" x2="-1174.4" y1="413.08" y2="413.08" xlink:href="#c"></linearGradient><linearGradient id="v" x1="-1183.34" x2="-1156.55" y1="368.99" y2="368.99" gradientTransform="translate(1851.62)" gradientUnits="userSpaceOnUse"><stop offset="0" stop-color="#453eaf" class="stopColor423eaf svgShape"></stop><stop offset=".25" stop-color="#3f38a4" class="stopColor3c38a4 svgShape"></stop><stop offset=".7" stop-color="#2d2787" class="stopColor2d2787 svgShape"></stop><stop offset="1" stop-color="#6f196f" class="stopColor20196f svgShape"></stop></linearGradient><linearGradient id="w" x1="-1034.8" x2="-993.77" y1="-235.33" y2="-235.33" gradientTransform="rotate(-15.97 1811.557 -5993.423)" gradientUnits="userSpaceOnUse"><stop offset="0" stop-color="#5a52cc" class="stopColor5652cc svgShape"></stop><stop offset=".37" stop-color="#7169e5" class="stopColor6c69e5 svgShape"></stop><stop offset=".73" stop-color="#8078f5" class="stopColor7b78f5 svgShape"></stop><stop offset="1" stop-color="#857dfb" class="stopColor807dfb svgShape"></stop></linearGradient><linearGradient id="d" x1="467.62" x2="525.54" y1="515.74" y2="515.74" gradientUnits="userSpaceOnUse"><stop offset="0" stop-color="#857dfb" class="stopColor807dfb svgShape"></stop><stop offset="1" stop-color="#453eaf" class="stopColor423eaf svgShape"></stop></linearGradient><linearGradient id="x" x1="467.62" x2="525.54" y1="521.27" y2="521.27" gradientUnits="userSpaceOnUse"><stop offset="0" stop-color="#d6e3f1" class="stopColord6ddf1 svgShape"></stop><stop offset=".55" stop-color="#c4d6e9" class="stopColorc4cbe9 svgShape"></stop><stop offset="1" stop-color="#bbd0e5" class="stopColorbbc2e5 svgShape"></stop></linearGradient><linearGradient id="y" x1="467.62" x2="525.54" y1="526.8" y2="526.8" xlink:href="#d"></linearGradient><linearGradient id="z" x1="827.75" x2="852.26" y1="281.52" y2="323.96" gradientTransform="matrix(-1 0 0 1 996.56 0)" gradientUnits="userSpaceOnUse"><stop offset=".01" stop-color="#5a52cc" class="stopColor5652cc svgShape"></stop><stop offset="1" stop-color="#6f196f" class="stopColor20196f svgShape"></stop></linearGradient><linearGradient id="A" x1="841.14" x2="865.64" y1="273.79" y2="316.24" gradientTransform="matrix(-1 0 0 1 996.56 0)" gradientUnits="userSpaceOnUse"><stop offset=".01" stop-color="#ff5ae1" class="stopColorff5a72 svgShape"></stop><stop offset="1" stop-color="#bc31a3" class="stopColorbc3153 svgShape"></stop></linearGradient><linearGradient id="B" x1="772.83" x2="821.75" y1="285.04" y2="369.78" gradientTransform="matrix(-1 0 0 1 996.56 0)" gradientUnits="userSpaceOnUse"><stop offset=".42" stop-color="#857dfb" class="stopColor807dfb svgShape"></stop><stop offset=".45" stop-color="#7f77f4" class="stopColor7a77f4 svgShape"></stop><stop offset=".49" stop-color="#7068e1" class="stopColor6b68e1 svgShape"></stop><stop offset=".55" stop-color="#554ec2" class="stopColor524ec2 svgShape"></stop><stop offset=".57" stop-color="#453eaf" class="stopColor423eaf svgShape"></stop></linearGradient><linearGradient id="e" x1="788.82" x2="824.29" y1="289.58" y2="289.58" gradientTransform="matrix(-1 0 0 1 996.56 0)" gradientUnits="userSpaceOnUse"><stop offset=".01" stop-color="#6f196f" class="stopColor20196f svgShape"></stop><stop offset=".24" stop-color="#453eaf" class="stopColor423eaf svgShape"></stop></linearGradient><linearGradient id="C" x1="777.63" x2="813.1" y1="296.04" y2="296.04" xlink:href="#e"></linearGradient><linearGradient id="D" x1="766.44" x2="801.91" y1="302.5" y2="302.5" xlink:href="#e"></linearGradient><linearGradient id="E" x1="755.24" x2="790.72" y1="308.96" y2="308.96" xlink:href="#e"></linearGradient><linearGradient id="F" x1="642.37" x2="747.37" y1="295.24" y2="477.1" gradientTransform="matrix(-1 0 0 1 996.56 0)" gradientUnits="userSpaceOnUse"><stop offset="0" stop-color="#ff6ae4" class="stopColorff826a svgShape"></stop><stop offset=".76" stop-color="#e33cc5" class="stopColore33c5c svgShape"></stop></linearGradient><linearGradient id="G" x1="690.07" x2="778.99" y1="287.07" y2="441.08" gradientTransform="matrix(-1 0 0 1 996.56 0)" gradientUnits="userSpaceOnUse"><stop offset="0" stop-color="#f6f8fb" class="stopColorf6f6fb svgShape"></stop><stop offset=".19" stop-color="#e5edf5" class="stopColore5e6f5 svgShape"></stop><stop offset=".7" stop-color="#bbd0e6" class="stopColorbbc0e6 svgShape"></stop></linearGradient><linearGradient id="H" x1="527.64" x2="683.81" y1="233.62" y2="504.13" gradientTransform="matrix(-1 0 0 1 996.56 0)" gradientUnits="userSpaceOnUse"><stop offset=".7" stop-color="#e33cc5" class="stopColore33c5c svgShape"></stop><stop offset="1" stop-color="#ff5ae1" class="stopColorff5a72 svgShape"></stop></linearGradient><linearGradient id="I" x1="702.28" x2="605.97" y1="382.26" y2="437.87" gradientTransform="matrix(-1 0 0 1 996.56 0)" gradientUnits="userSpaceOnUse"><stop offset="0" stop-color="#453eaf" class="stopColor423eaf svgShape"></stop><stop offset=".43" stop-color="#625ad1" class="stopColor5e5ad1 svgShape"></stop><stop offset="1" stop-color="#857dfb" class="stopColor807dfb svgShape"></stop></linearGradient><linearGradient id="J" x1="590.06" x2="712.17" y1="273.18" y2="484.7" gradientTransform="matrix(-1 0 0 1 996.56 0)" gradientUnits="userSpaceOnUse"><stop offset=".42" stop-color="#857dfb" class="stopColor807dfb svgShape"></stop><stop offset="1" stop-color="#cee3f8" class="stopColorced3f8 svgShape"></stop></linearGradient><linearGradient id="K" x1="670.49" x2="700.22" y1="366.25" y2="417.74" gradientTransform="matrix(-1 0 0 1 996.56 0)" gradientUnits="userSpaceOnUse"><stop offset="0" stop-color="#f1f3f6" class="stopColorf1f1f6 svgShape"></stop><stop offset=".25" stop-color="#eaeff4" class="stopColoreaebf4 svgShape"></stop><stop offset=".61" stop-color="#d7e2ee" class="stopColord7daee svgShape"></stop><stop offset="1" stop-color="#bbd0e6" class="stopColorbbc0e6 svgShape"></stop></linearGradient><linearGradient id="L" x1="648.15" x2="677.91" y1="379.15" y2="430.69" gradientTransform="matrix(-1 0 0 1 996.56 0)" gradientUnits="userSpaceOnUse"><stop offset="0" stop-color="#f6f8fb" class="stopColorf6f6fb svgShape"></stop><stop offset=".31" stop-color="#eff4fa" class="stopColoreff0fa svgShape"></stop><stop offset=".74" stop-color="#dceaf9" class="stopColordce0f9 svgShape"></stop><stop offset="1" stop-color="#cee3f8" class="stopColorced3f8 svgShape"></stop></linearGradient><linearGradient id="M" x1="677.32" x2="707.04" y1="362.31" y2="413.8" gradientTransform="matrix(-1 0 0 1 996.56 0)" gradientUnits="userSpaceOnUse"><stop offset="0" stop-color="#dae7f5" class="stopColordae0f5 svgShape"></stop><stop offset="1" stop-color="#ffffff" class="stopColorffffff svgShape"></stop></linearGradient></defs><g style="isolation:isolate" fill="#010001" class="color000000 svgShape"><polygon fill="#f4f6f8" points="81.5 506.08 102.85 493.76 102.85 469.11 81.5 481.44 81.5 506.08" class="color423eaf svgShape"></polygon><polygon fill="#5a52cc" points="81.5 506.08 60.16 493.76 60.16 469.11 81.5 481.44 81.5 506.08" class="color5652cc svgShape"></polygon><polygon fill="#857dfb" points="81.5 481.44 60.16 469.11 81.5 456.79 102.85 469.11 81.5 481.44" class="color807dfb svgShape"></polygon><polygon fill="#bbd0e6" points="637.08 650.13 654.43 640.11 654.43 620.07 637.08 630.09 637.08 650.13" class="colorbbc0e6 svgShape"></polygon><polygon fill="#cee3f8" points="637.08 650.13 619.72 640.11 619.72 620.07 637.08 630.09 637.08 650.13" class="colorced3f8 svgShape"></polygon><polygon fill="#f1f3f6" points="637.08 630.09 619.72 620.07 637.08 610.06 654.43 620.07 637.08 630.09" class="colorf1f1f6 svgShape"></polygon><polygon fill="#e100b8" points="365.65 199.31 384.55 188.4 384.55 166.59 365.65 177.49 365.65 199.31" class="colore19100 svgShape"></polygon><polygon fill="#fc06cf" points="365.65 199.31 346.76 188.4 346.76 166.59 365.65 177.49 365.65 199.31" class="colorfcba06 svgShape"></polygon><polygon fill="#3e9eff" points="365.65 177.49 346.76 166.59 365.65 155.68 384.55 166.59 365.65 177.49" class="colorffd03e svgShape"></polygon><path fill="url(#a)" d="M456.83,263.16c-2.43.4-3.14,4.32-1.92,6.78a9.52,9.52,0,0,0,2.66,1.64s7.68,3.15,9.41,3.29,5.57-.51,5.88-3.46c-.3-1.8-1.81-2.3-3.67-3.4-2.42-1.44-4.5-3.53-6.45-4.49C461.13,262.73,456.83,263.16,456.83,263.16Z"></path><path fill="#471047" d="M466.93,274.08c-1.78-.14-9.69-3.38-9.69-3.38a10.18,10.18,0,0,1-2.65-1.62,5.86,5.86,0,0,0,.32.86,9.52,9.52,0,0,0,2.66,1.64s7.68,3.15,9.41,3.29,5.57-.51,5.88-3.46c0-.06,0-.12-.05-.18C472,273.66,468.55,274.21,466.93,274.08Z" class="color121047 svgShape"></path><path fill="#ffffff" d="M462.06,260.56a42.46,42.46,0,0,0-5.19,1.94,2.24,2.24,0,0,1-.2,1.13l-.09.17c-.72.7-1.49,1.95.73,2.65,4.33,1.36,8-1.54,6.31-2.52C462.48,263.28,462.21,261.48,462.06,260.56Z" class="colorffffff svgShape"></path><path fill="url(#f)" d="M464.36,264.52c-.32-.43-1.07-1.57-2.39-.63a3.16,3.16,0,0,0-1.53,3.15c.16,1,3,.26,3.11.11S464.36,264.52,464.36,264.52Z"></path><path fill="url(#b)" d="M463.92,188c.19,16.34,2,28.45,1.21,42.95-.82,14.81-1,22-1.1,33.15-2.13,2.65-7.55,2-8.7-.06-1.41-10.1-4.25-20-3-31.67-3.22-15.94-11.06-33.58-9.69-45C445.86,188.41,460.7,187,463.92,188Z"></path><path fill="url(#g)" d="M435.83,275.29c-2.44.4-3.14,4.31-1.92,6.78a9.4,9.4,0,0,0,2.66,1.63s7.68,3.16,9.41,3.29,5.56-.5,5.87-3.45c-.29-1.81-1.8-2.3-3.67-3.41-2.42-1.43-4.49-3.52-6.45-4.48C440.13,274.86,435.83,275.29,435.83,275.29Z"></path><path fill="#471047" d="M445.92,286.2c-1.77-.14-9.68-3.38-9.68-3.38a10,10,0,0,1-2.65-1.61,5.22,5.22,0,0,0,.32.86,9.4,9.4,0,0,0,2.66,1.63s7.68,3.16,9.41,3.29,5.56-.5,5.87-3.45c0-.07,0-.12,0-.18C451,285.79,447.55,286.34,445.92,286.2Z" class="color121047 svgShape"></path><path fill="#ffffff" d="M441.06,272.68a43.52,43.52,0,0,0-5.19,1.94,2.29,2.29,0,0,1-.2,1.14l-.09.16c-.73.71-1.5,2,.73,2.66,4.33,1.36,8-1.54,6.31-2.52C441.48,275.41,441.21,273.61,441.06,272.68Z" class="colorffffff svgShape"></path><path fill="url(#h)" d="M443.36,276.64c-.33-.42-1.07-1.57-2.4-.62a3.15,3.15,0,0,0-1.53,3.15c.17,1,3,.25,3.12.11S443.36,276.64,443.36,276.64Z"></path><path fill="url(#i)" d="M454.05,197.26c.19,16.34-4.14,31.4-6.42,44.42-2.56,14.61-4.46,23.42-4.6,34.55-2.14,2.65-7.56,2-8.7-.06-1.41-10.1-1.47-26.14.51-33.07-1.74-18.18-3.43-35.06-2.06-46.46C436,197.66,450.83,196.23,454.05,197.26Z"></path><path fill="url(#j)" d="M464.23,148.56c8.36,6.41,10.44,22.37,13.71,29.69,3.53,2,15.9,6.83,19.12,8.56a28.7,28.7,0,0,1-4.82,4.78c-3.69-1.1-18.23-5.55-19.95-6.72-3.29-2.24-8.68-13.63-9.87-22.15S464.23,148.56,464.23,148.56Z"></path><path fill="url(#k)" d="M440.18,151.91c3.16-3.23,10.53-7.44,15.07-7.33,7.73.19,13.19,7.14,14.23,12.59,1,5.13-5.85,38.43-4.88,45.37-1.16,3.49-6.54,5.67-10.48,6-11.11.85-23.37.3-23.55-6.65C430.25,188.86,435.74,155.56,440.18,151.91Z"></path><path fill="#a9d2fc" d="M455.3,134.3c0-2.52,8.05,3.4,7.38,6.65-.54,2.64-1.55,4.91,1,6.85.86.84,3.54,6.35-1.37,5.92-7-.61-8.7-2.72-13.34-7.56C452.14,144.75,455.41,142.45,455.3,134.3Z" class="colorfcd1a9 svgShape"></path><path fill="#a9d2fc" d="M453.42,132.63l4-4.57,15.2,1.5-.91,9.15c-.5,5-4.3,8.81-8.49,8.39a8.35,8.35,0,0,1-7.25-9l-1.78-.82Z" class="colorfcd1a9 svgShape"></path><path fill="#9dc7f2" d="M462.59,149.51c-3.63-.35-7.55-6.63-6.65-11.41a8.83,8.83,0,0,0,6.94,9,6.63,6.63,0,0,0,.78.73,1.81,1.81,0,0,1,.23.28C463.82,148.82,463.25,149.58,462.59,149.51Z" class="colorf2c39d svgShape"></path><path fill="#6f196f" d="M472.11,125.34c1.41-.1,1.65-1.24-3.79-3.75-3.11-1.93-7.7-2.88-10.89-1.32-4.32,2.12-5.91,5.7-5.64,10.42a26.25,26.25,0,0,0,2.81,9.43c.41.5.68-1.64.48-3.26a3,3,0,0,1-.4-1.41c-.61-4.83,2.21-3.84,2.56-3.4.86.45-1.25,4.19,1.4,4.06,1.28-.06,1.46-3.61,1.57-4.85.19.07.36.12.56.21,2,1.41,9.28,3,5.46.06,2.83.28,6.57,2,8,.3C476,129.84,473.79,127.26,472.11,125.34Z" class="color20196f svgShape"></path><path fill="#a9d2fc" d="M649.61,289.51c.81-.82,3.46-.76,5.83.27-.16-.68-.35-1.73,0-1.84.52-.15,2.43,2.73,2.87,4.2h0a7.4,7.4,0,0,0,1.57,2.31l-1.87,4.4s-3.26-1.46-4.22-3-3.33-2.15-4.83-2.22C648.07,293.6,648.72,290.42,649.61,289.51Z" class="colorfcd1a9 svgShape"></path><path fill="#f4f6f8" d="M657.27,298.6s-1.54-3,2.76-4.31c9.37,4,19,1.93,26.06-6.84,2.93-3.75,7.3-1.32,4.25,4.3C685.26,301.14,672.36,307.87,657.27,298.6Z" class="color423eaf svgShape"></path><path fill="#6f67e9" d="M338.81,272.48c2.54-1.48,2.54-3.88,0-5.35L222.36,199.9a10.24,10.24,0,0,0-9.26,0l-91.41,52.77c-2.55,1.47-2.55,3.88,0,5.35l116.44,67.23a10.29,10.29,0,0,0,9.27,0Z" class="color6b67e9 svgShape"></path><path fill="#cee3f8" d="M340.7,269.6h0v.08S340.7,269.63,340.7,269.6Z" class="colorced3f8 svgShape"></path><path fill="url(#l)" d="M238.13,329.71,121.69,262.48a3.27,3.27,0,0,1-1.91-2.65h0v-4.45h0a3.27,3.27,0,0,0,1.91,2.65l116.44,67.23a10.29,10.29,0,0,0,9.27,0l91.41-52.77a3.37,3.37,0,0,0,1.9-2.55v4.13h0a3.13,3.13,0,0,1-1.89,2.87L247.4,329.71A10.29,10.29,0,0,1,238.13,329.71Z"></path><ellipse cx="230.25" cy="262.57" fill="#5a52cc" rx="34.58" ry="19.96" class="color5652cc svgShape"></ellipse><polygon fill="#ffffff" points="219.58 263.93 237.35 266.68 232.59 256.42 219.58 263.93" class="colorffffff svgShape"></polygon><path fill="#3e9eff" d="M536.46,613.81c3.42-2,3.42-5.2,0-7.17l-131.29-75.8a13.75,13.75,0,0,0-12.43,0l-102.6,59.23c-3.42,2-3.42,5.21,0,7.18l131.29,75.8a13.81,13.81,0,0,0,12.43,0Z" class="colorffd03e svgShape"></path><path fill="#cee3f8" d="M539,610h0v.1A.31.31,0,0,0,539,610Z" class="colorced3f8 svgShape"></path><path fill="url(#m)" d="M421.43,679l-131.29-75.8c-1.69-1-2.54-2.26-2.56-3.55h0v-6h0c0,1.29.87,2.57,2.56,3.55l131.29,75.8a13.81,13.81,0,0,0,12.43,0l102.6-59.24A4.42,4.42,0,0,0,539,610.4v5.54h0c.13,1.39-.71,2.8-2.54,3.85L433.86,679A13.81,13.81,0,0,1,421.43,679Z"></path><ellipse cx="413.3" cy="601.94" fill="#fc06cf" rx="40.34" ry="23.29" class="colorfcba06 svgShape"></ellipse><polygon fill="#ffffff" points="400.86 603.52 421.59 606.73 416.04 594.76 400.86 603.52" class="colorffffff svgShape"></polygon><path fill="#f1f3f6" d="M676.8,234.08c3.68,2.12,5.18,7.65,3.35,12.31L614.52,413.18c-1.83,4.65-6.33,6.73-10,4.61L415.93,308.91c-3.68-2.13-5.19-7.67-3.36-12.33L478.2,129.79c1.83-4.64,6.34-6.72,10-4.6Z" class="colorf1f1f6 svgShape"></path><path fill="#ff5ae1" d="M546.15,356.2a6.55,6.55,0,0,0-.8,1.46,7.43,7.43,0,0,0-.43,1.65l-113-65.23,1.23-3.12Z" class="colorff5a72 svgShape"></path><path fill="#dae7f5" d="M609.41,392.72l-1.22,3.12L553,364a6.28,6.28,0,0,0,.79-1.45,7.1,7.1,0,0,0,.44-1.67Z" class="colordae0f5 svgShape"></path><path fill="#ff5ae1" d="M563.92,226.87c19.46,11.24,27.38,40.33,17.69,65s-33.34,35.5-52.8,24.26-27.39-40.32-17.69-65S544.45,215.63,563.92,226.87Zm-28.22,53,20.9-2.49L545,256.15l-9.34,23.74" class="colorff5a72 svgShape"></path><polygon fill="#ffffff" points="545.04 256.15 556.6 277.4 535.7 279.89 545.04 256.15" class="colorffffff svgShape"></polygon><path fill="#6f67e9" d="M551.68,354.74a6.12,6.12,0,0,1,2.55,6.12,7.1,7.1,0,0,1-.44,1.67A6.28,6.28,0,0,1,553,364a4.17,4.17,0,0,1-5.53,1.46,6.12,6.12,0,0,1-2.55-6.13,7.43,7.43,0,0,1,.43-1.65,6.55,6.55,0,0,1,.8-1.46A4.17,4.17,0,0,1,551.68,354.74Z" class="color6b67e9 svgShape"></path><path fill="url(#n)" d="M681.4,234.43,492.81,125.55a6.13,6.13,0,0,0-2.59-.82l-4.6-.35a6.12,6.12,0,0,1,2.59.81L676.8,234.08c3.68,2.12,5.18,7.65,3.35,12.31L614.52,413.18c-1.41,3.6-4.42,5.65-7.41,5.42l4.6.36c3,.23,6-1.83,7.41-5.42l65.63-166.79C686.58,242.09,685.08,236.55,681.4,234.43Z"></path><path fill="url(#o)" d="M469.83,378.32s10.67,12.53,10.67,12.53l5.92-15.26-13.72-2-.43-.07a1.89,1.89,0,0,0-.8.27,4.36,4.36,0,0,0-2,3.43A1.63,1.63,0,0,0,469.83,378.32Z"></path><path fill="url(#p)" d="M472.27,373.53a1.89,1.89,0,0,0-.8.27,4.36,4.36,0,0,0-2,3.43,1.62,1.62,0,0,0,.34,1.09s-5-5.88-5-5.88Z"></path><polygon fill="#fc06cf" points="477.54 386.64 604.97 460.21 607.93 452.58 480.5 379.01 477.54 386.64" class="colorfcba06 svgShape"></polygon><polygon fill="#dc00b4" points="480.5 390.85 607.93 464.43 604.97 460.21 477.54 386.64 480.5 390.85" class="colordc8b00 svgShape"></polygon><polygon fill="#3e9eff" points="480.5 379.01 607.93 452.58 613.85 449.17 486.42 375.59 480.5 379.01" class="colorffd03e svgShape"></polygon><polygon fill="#b9d0e8" points="613.85 461.01 616.82 453.38 613.85 449.17 607.93 452.58 604.97 460.21 607.93 464.43 613.85 461.01" class="colorb9bfe8 svgShape"></polygon><path fill="#741574" d="M612.85,455.66c0-1.25-.87-1.75-2-1.13a4.35,4.35,0,0,0-2,3.39c0,1.26.88,1.76,2,1.14A4.31,4.31,0,0,0,612.85,455.66Z" class="color231574 svgShape"></path><path fill="#342e94" d="M477.55,189.55c.43.34,2.68,4.76-.64,6.59C475,195.43,473.81,190.79,477.55,189.55Z" class="color362e94 svgShape"></path><path fill="#a9d2fc" d="M475.37,189.79l2.33.52a7.83,7.83,0,0,0,5.93-2.8c1.54-2,2.35,1.47.42,2.73s-1.86,2.13,1.55,2.31a8.47,8.47,0,0,1,3.95,1.22c1.34,1,3,3.53,1.27,5.06-1.41,1.23-6.25-.24-7.71-.63-4-1.07-3.34-1.93-5.62-2.68a7.46,7.46,0,0,0-2.74-.64Z" class="colorfcd1a9 svgShape"></path><path fill="url(#q)" d="M443.45,151.19c-2.47.15-5.91,2.77-4.61,10.16,1.23,7,7.81,19.41,10.1,22.71,5.29,7.65,15.77,10.18,28,12.08-1.72-1.53-1.2-5.45.64-6.59C469.14,187.07,461,183,458,180.66c-1.43-3-6.17-17-7.43-21.73S447.23,151,443.45,151.19Z"></path><path fill="url(#r)" d="M133.73,589c-11.34-6.55-17-15.14-17-23.72l.06-12.08c0,8.59,5.63,17.18,17,23.74,22.55,13,59,13,81.35,0,11.12-6.47,16.69-14.93,16.72-23.4l-.05,12.07c0,8.47-5.59,16.92-16.72,23.39C192.68,602,156.27,602,133.73,589Z"></path><path fill="#f1f3f6" d="M133.77,576.94c-22.53-13-22.65-34.12-.27-47.12s58.82-13,81.35,0,22.66,34.1.27,47.12S156.32,589.94,133.77,576.94Z" class="colorf1f1f6 svgShape"></path><path fill="#bbd0e6" d="M197.34,539.51c-12.48-7.2-32.78-7.2-45.26,0s-12.48,18.93,0,26.14,32.78,7.2,45.26,0h0l0,0C209.82,558.41,209.81,546.71,197.34,539.51ZM184.12,556.7,177,552.57l9.85-5.68a35,35,0,0,1,7.64,6.11A40.94,40.94,0,0,0,184.12,556.7Zm11.7-2c2.54,3.54,2.8,6.82.29,8.94L186.38,558A37.13,37.13,0,0,1,195.82,554.68Zm-21.1-3.41-7.14-4.13a20,20,0,0,0,6.28-6,56.4,56.4,0,0,1,10.71,4.44Zm-9.4-5.43-9.71-5.61c3.65-1.44,9.27-1.3,15.34.13A17.71,17.71,0,0,1,165.32,545.84ZM163,537.4a46.13,46.13,0,0,1,9.47-1.38,10.07,10.07,0,0,1-.62,2.56A46.28,46.28,0,0,0,163,537.4Zm-9.66,4.13,9.71,5.61a36.13,36.13,0,0,1-9.51,3.26C151.09,546.89,150.86,543.64,153.35,541.53Zm-2.88,9.39c-1.45.19-2.94.3-4.45.35a11.59,11.59,0,0,1,2.41-5.46A10.89,10.89,0,0,0,150.47,550.92Zm14.85-2.47,7.14,4.12-9.87,5.7a34.24,34.24,0,0,1-7.69-6.19A40.54,40.54,0,0,0,165.32,548.45Zm9.4,5.43,7.13,4.12a20.63,20.63,0,0,0-6.39,6,56.72,56.72,0,0,1-10.61-4.41Zm9.39,5.43,9.73,5.62c-3.68,1.44-9.36,1.29-15.47-.16A18.34,18.34,0,0,1,184.11,559.31Zm2.3,8.45a46.69,46.69,0,0,1-9.62,1.38,9.42,9.42,0,0,1,.64-2.6A46.37,46.37,0,0,0,186.41,567.76Zm12.48-13.62a42.16,42.16,0,0,1,4.52-.38,11.55,11.55,0,0,1-2.39,5.55A11,11,0,0,0,198.89,554.14Zm-1.32-1.71a36.07,36.07,0,0,0-8.48-6.85l7.06-4.08c4.61,3,7,6.67,7.3,10.41A51.59,51.59,0,0,0,197.57,552.43Zm-3.68-12.23-7.06,4.07a59.25,59.25,0,0,0-12-4.93,11.19,11.19,0,0,0,.87-3.36A42.06,42.06,0,0,1,193.89,540.2ZM146,553.12a52.48,52.48,0,0,0,5.82-.49,36.15,36.15,0,0,0,8.55,7l-7.06,4.07C148.61,560.65,146.18,556.91,146,553.12ZM155.53,565l7.06-4.08a59.3,59.3,0,0,0,11.89,4.9,10.64,10.64,0,0,0-.89,3.39A42,42,0,0,1,155.53,565Z" class="colorbbc0e6 svgShape"></path><path fill="#ff5ae1" d="M692.74,504c24.47,14.14,24.47,37,0,51.18s-64.15,14.13-88.63,0-24.47-37.05,0-51.18S668.26,489.89,692.74,504Z" class="colorff5a72 svgShape"></path><path fill="url(#s)" d="M604.11,564.36c24.47,14.13,64.15,14.13,88.63,0,12.23-7.06,18.34-16.31,18.35-25.57h0v-9.17c0,9.25-6.13,18.51-18.36,25.57-24.47,14.13-64.15,14.13-88.63,0-12.21-7.06-18.33-16.3-18.35-25.55v9.06h0C585.72,548,591.84,557.27,604.11,564.36Zm-18.36-34.84v0Z"></path><path fill="#ffffff" d="M683.35,509.43c19.29,11.14,19.29,29.2,0,40.34s-50.57,11.14-69.86,0-19.3-29.2,0-40.34S664.06,498.29,683.35,509.43Z" class="colorffffff svgShape"></path><path fill="#ff5ae1" d="M674.58,514.5c14.45,8.34,14.45,21.86,0,30.2s-37.87,8.35-52.32,0-14.45-21.86,0-30.2S660.13,506.15,674.58,514.5Z" class="colorff5a72 svgShape"></path><path fill="#ffffff" d="M665.14,520c9.23,5.33,9.23,14,0,19.3s-24.21,5.33-33.44,0-9.24-14,0-19.3S655.9,514.61,665.14,520Z" class="colorffffff svgShape"></path><path fill="#ff5ae1" d="M655.42,525.56c3.86,2.23,3.86,5.85,0,8.08a15.46,15.46,0,0,1-14,0c-3.86-2.23-3.86-5.85,0-8.08A15.48,15.48,0,0,1,655.42,525.56Z" class="colorff5a72 svgShape"></path><path fill="#dfe9f4" d="M633.58,312.74c1.9,1.89,7.52,3.88,9.85,3.88s7,.77,8.79.77c.5-1.29,1.83-4.65,1.83-4.65Z" style="mix-blend-mode:multiply" class="colordfe4f4 svgShape"></path><path fill="url(#c)" d="M700.47,403.11c0-7.36-4.67-7.57-4.67-7.57a16.59,16.59,0,0,1-6.76-1.3c-5.24-2-9.64-1.44-6.44,4.45,0,.07.07.14.11.22a2.94,2.94,0,0,0,1,.9l10.2,6C695.49,406.68,700.43,404.63,700.47,403.11Z"></path><path fill="#471147" d="M700.44,402.45c-.09,1.51-5,3.53-6.5,2.65l-10.2-6a9.31,9.31,0,0,1-1.44-1.05c.1.2.18.4.3.62s.07.14.11.22a2.94,2.94,0,0,0,1,.9l10.2,6c1.45.83,5.88-.91,6.46-2.39a1.1,1.1,0,0,0,.05-.29A4.85,4.85,0,0,0,700.44,402.45Z" class="color131147 svgShape"></path><path fill="#a9d2fc" d="M698.57,394.57a20.78,20.78,0,0,0-3.19.54c-1-.26-4.31-.38-6.48-1-.64-.18-1.25-.59-1.93-.07-.86,1.05,1.37,3.62,6,5.6a2.73,2.73,0,0,0,3.56-.25,3.32,3.32,0,0,1,1.15-1.3,3.07,3.07,0,0,1,1.11-.47.25.25,0,0,1,0-.1S699.07,394.57,698.57,394.57Z" class="colorfcd1a9 svgShape"></path><path fill="url(#t)" d="M696.26,346.17c2-6.28,1.65-12.19.13-19.48-4.61.08-17.61,1.79-22.25,1.05,2.84,15,9.34,21.23,11.65,34.65,2.47,13.05,5.41,22.63,7.85,33.48.89,2,5.23,1.11,5.23-.1a106.63,106.63,0,0,0-2.75-33.13C696.33,357.43,695.44,351.36,696.26,346.17Z"></path><path fill="url(#u)" d="M677.22,416.64c0-7.36-4.67-7.57-4.67-7.57a19.19,19.19,0,0,1-6.89-1.45c-5.24-2-9.5-1.29-6.31,4.6,0,.07.07.14.11.22a3,3,0,0,0,1,.9l10.2,6C672.25,420.21,677.19,418.16,677.22,416.64Z"></path><path fill="#471147" d="M677.2,416c-.09,1.51-5,3.53-6.51,2.65l-10.2-6a10.64,10.64,0,0,1-1.43-1c.09.2.17.4.29.62,0,.07.07.14.11.22a3,3,0,0,0,1,.9l10.2,6c1.45.84,5.88-.91,6.47-2.39a1.67,1.67,0,0,0,0-.29C677.22,416.41,677.2,416.2,677.2,416Z" class="color131147 svgShape"></path><path fill="#a9d2fc" d="M675.32,408.1a21,21,0,0,0-3.19.54c-1-.26-4.31-.38-6.47-1-.65-.18-1.25-.59-1.93-.07-.86,1.05,1.37,3.62,6,5.6a2.74,2.74,0,0,0,3.57-.25,3.25,3.25,0,0,1,1.15-1.3,2.81,2.81,0,0,1,1.1-.47s0-.1,0-.1S675.82,408.1,675.32,408.1Z" class="colorfcd1a9 svgShape"></path><path fill="url(#v)" d="M684,355.52c3.93-15.78,8.82-12.74,11.06-28-4.56.71-20.08,7.49-24.64,6.82-2.68,17-2.12,27.47-2,41.09.31,13.28,1.18,22.36,1.81,33.46.55,2.15,5.41,2,5.41.69,2.27-9.76,4.08-21.66,3-33.52C680,369.46,682.54,362.49,684,355.52Z"></path><path fill="url(#w)" d="M693.5,349.68c-7.44,4.54-25.21,7.77-26.74,1.86-.78-4.4,3.88-30.62,3.58-39.46-.07-1.93-3.06-2.25-3.36-4.22-.64-4.31.86-16.06,1.56-17.36,1.5-2.77,5.29-4.44,8.42-4.72,4.29-.4,10.29-.78,13.82,2.13,3.79,7.82,4.33,19.06,9.68,51.25C699.73,342.47,698,346.94,693.5,349.68Z"></path><path fill="#a9d2fc" d="M686.82 285.79c-2.78-2.31-2.43-4.91-1.8-7.76a14.3 14.3 0 001.22-4.9c.43-6.41-3.28-12.22-8.3-12.21-10.12 0-8.69 5.44-9.12 11.85-.4 5.93 2 10.19 6.48 11.18a3.11 3.11 0 01-1.76 2.63c3.16 2.19 9 2.28 11.18 1.63S688.1 287.31 686.82 285.79zM641.62 309.71c-.89 0-1.38-2.16-2.81-2.45s-4.46-1-4.46-.1c0 .74 2.62.81 2.24 1.17-1.11 1-3.48-.26-4-1.24s-1.38-1.13-1.37-.17.25 5.3 3.64 6.53a21.33 21.33 0 007.46.95z" class="colorfcd1a9 svgShape"></path><path fill="#857dfb" d="M640.45,314.65s-2.31-2.9,1.48-5.34c6.76-.15,14.26-1.09,16.7-3.49,2.81-2.78,6.56-9.71,10.15-15.72,3.4-4.41,8.59.76,5.36,6.72a55.58,55.58,0,0,1-11,14.4C660,314,649,316.59,640.45,314.65Z" class="color807dfb svgShape"></path><path fill="#6f196f" d="M667.91,268.59c.42-3.71,4.23-9.6,10.79-8.44,5.63,1,6.93,4.49,8.13,9.66,3,12.74,9.13,16.88,18.22,26.64,14.17,15.21-12.65,31.31-22.75,17.08-3.35-4.72,5-12.88-8.22-25.59v0A23.67,23.67,0,0,1,667.91,268.59Z" class="color20196f svgShape"></path><path fill="url(#d)" d="M476.16,522c-5.7-3.29-8.56-7.62-8.54-11.94l0-5.53c0,4.32,2.84,8.65,8.55,11.94,11.34,6.55,29.67,6.55,40.94,0,5.6-3.26,8.4-7.51,8.41-11.78l0,5.53c0,4.26-2.82,8.52-8.41,11.78C505.84,528.58,487.51,528.58,476.16,522Z"></path><path fill="url(#x)" d="M476.16,527.55c-5.7-3.29-8.56-7.62-8.54-11.94l0-5.53c0,4.32,2.84,8.65,8.55,11.94,11.34,6.55,29.67,6.55,40.94,0,5.6-3.26,8.4-7.52,8.41-11.78l0,5.53c0,4.26-2.82,8.52-8.41,11.78C505.84,534.11,487.51,534.11,476.16,527.55Z"></path><path fill="url(#y)" d="M476.16,533.08c-5.7-3.29-8.56-7.62-8.54-11.94l0-5.53c0,4.32,2.84,8.65,8.55,11.94,11.34,6.55,29.67,6.55,40.94,0,5.6-3.26,8.4-7.52,8.41-11.78l0,5.53c0,4.26-2.82,8.52-8.41,11.78C505.84,539.64,487.51,539.64,476.16,533.08Z"></path><path fill="#f1f3f6" d="M476.19,516.49c-11.34-6.54-11.4-17.16-.14-23.71s29.61-6.55,40.95,0,11.39,17.17.13,23.72S487.53,523,476.19,516.49Z" class="colorf1f1f6 svgShape"></path><polygon fill="#b9d0e8" points="512.79 502.47 489.61 503.65 490.32 498.44 483.92 498.44 482.18 507.94 512.79 506.17 512.79 502.47" class="colorb9bfe8 svgShape"></polygon><path fill="url(#z)" d="M140.16,293.28c3.14-5.43,7.47-10.17,12.26-12.94s9.11-3,12.25-1.21L185.2,291l-24.51,42.45-20.53-11.86c-3.13-1.81-5.07-5.69-5.07-11.21S137,298.71,140.16,293.28Z"></path><path fill="#5a52cc" d="M185.2,319.28c3.14-5.43,5.07-11.56,5.07-17.08s-1.93-9.41-5.07-11.22-7.47-1.55-12.25,1.21-9.12,7.51-12.26,12.94-5.07,11.55-5.07,17.08,1.94,9.41,5.07,11.22,7.47,1.54,12.26-1.22S182.06,324.71,185.2,319.28Z" class="color5652cc svgShape"></path><path fill="url(#A)" d="M133.92,289.67c3.14-5.43,7.47-10.17,12.26-12.93s9.11-3,12.25-1.21l6.24,3.6c-3.14-1.81-7.47-1.55-12.25,1.21s-9.12,7.51-12.26,12.94-5.07,11.55-5.07,17.08,1.94,9.4,5.07,11.21l-6.24-3.6c-3.13-1.81-5.07-5.69-5.07-11.22S130.79,295.1,133.92,289.67Z"></path><polygon fill="#5a52cc" points="193.39 432.73 208.57 441.5 198.91 359.41 167.16 341.08 193.39 432.73" class="color5652cc svgShape"></polygon><polygon fill="#342e94" points="208.57 441.5 219.62 435.12 209.96 353.04 198.91 359.41 208.57 441.5" class="color362e94 svgShape"></polygon><path fill="url(#B)" d="M153.31,300.87a14.86,14.86,0,0,1,5.12-5.41l38.68-22.33c2-1.15,3.81-1.26,5.12-.5l67.46,38.95-48.92,84.73-67.46-38.94c-1.32-.76-2.13-2.39-2.13-4.69V308A14.93,14.93,0,0,1,153.31,300.87Z"></path><path fill="#5a52cc" d="M271.82,316.26c0-2.3-.82-3.93-2.13-4.68s-3.13-.66-5.12.49L225.89,334.4A16.15,16.15,0,0,0,218.63,347v44.67c0,2.3.82,3.92,2.14,4.68s3.12.66,5.12-.5l38.68-22.33a16.06,16.06,0,0,0,7.25-12.56Z" class="color5652cc svgShape"></path><path fill="url(#e)" d="M206.82,283.16l-27.93,16.13h0a5.94,5.94,0,0,1-5.32-.23c-1.57-.9-1.74-2.28-.38-3.07h0l27.93-16.12h0a5.9,5.9,0,0,1,5.32.22c1.57.91,1.75,2.28.38,3.07Z"></path><path fill="url(#C)" d="M218,289.62l-27.93,16.13h0a5.93,5.93,0,0,1-5.32-.22c-1.57-.91-1.74-2.29-.38-3.07h0l27.93-16.13h0a5.9,5.9,0,0,1,5.32.22c1.58.91,1.75,2.28.38,3.07Z"></path><path fill="url(#D)" d="M229.21,296.08l-27.94,16.13h0A5.88,5.88,0,0,1,196,312c-1.58-.91-1.75-2.28-.39-3.07h0l27.94-16.13h0a5.9,5.9,0,0,1,5.32.22c1.57.91,1.74,2.29.38,3.07Z"></path><path fill="url(#E)" d="M240.4,302.55l-27.93,16.12h0a5.9,5.9,0,0,1-5.32-.22c-1.58-.91-1.75-2.28-.38-3.07h0l27.93-16.13h0a5.93,5.93,0,0,1,5.32.22c1.57.91,1.74,2.29.38,3.08Z"></path><polygon fill="#5a52cc" points="158.72 341.99 174.57 351.13 174.57 333.65 158.72 324.5 158.72 341.99" class="color5652cc svgShape"></polygon><path fill="url(#F)" d="M271.84,369.3c12.11-21,28.82-39.25,47.29-49.92,9.86-5.69,19.21-8.62,27.63-9.06l37.12,2.06-106.42,181-18.57-28.49c-4.25-7.69-6.64-17.68-6.64-29.7C252.25,413.9,259.73,390.27,271.84,369.3Z"></path><path fill="url(#G)" d="M214.5,396.89c-3.12-4.64-4.91-11-4.91-18.93,0-12.31,4.33-26,11.32-38.07s16.65-22.67,27.31-28.83c7.28-4.2,14.09-5.8,19.9-5.11l78.64,4.37c-8.42.44-17.77,3.37-27.63,9.06-18.47,10.67-35.18,29-47.29,49.92s-19.59,44.6-19.59,65.93c0,12,2.39,22,6.64,29.7l-44.39-68Z"></path><path fill="#a50b89" d="M396.28,441.14c13.77-23.86,22.3-50.76,22.3-75s-8.53-41.34-22.31-49.29-32.81-6.81-53.83,5.33-40.05,33-53.83,56.82-22.31,50.77-22.31,75,8.53,41.34,22.3,49.29,32.82,6.81,53.84-5.33S382.5,465,396.28,441.14Z" class="colorbc3153 svgShape"></path><path fill="url(#H)" d="M320,475.74c18.81-10.85,35.83-29.48,48.16-50.83s19.94-45.4,19.94-67.12c0-15.08-3.68-27-10-35.32a33.63,33.63,0,0,1,12.55,4.19c12.33,7.11,20,22.37,20,44.09s-7.62,45.77-20,67.11-29.35,40-48.15,50.84-35.83,11.88-48.15,4.77a33.89,33.89,0,0,1-9.9-8.77C294.75,486.07,306.94,483.28,320,475.74Z"></path><path fill="url(#I)" d="M294.29,382.25c12.32-21.34,29.35-40,48.15-50.82,13.05-7.54,25.24-10.33,35.6-9,6.37,8.29,10,20.24,10,35.32,0,21.72-7.62,45.78-19.94,67.12s-29.35,40-48.16,50.83c-13.05,7.54-25.24,10.33-35.6,9-6.37-8.29-10.05-20.24-10.05-35.32C274.34,427.66,282,403.6,294.29,382.25Z"></path><path fill="url(#J)" d="M294.29,382.25c12.32-21.34,29.35-40,48.15-50.82,13.05-7.54,25.24-10.33,35.6-9,6.37,8.29,10,20.24,10,35.32,0,21.72-7.62,45.78-19.94,67.12s-29.35,40-48.16,50.83c-13.05,7.54-25.24,10.33-35.6,9-6.37-8.29-10.05-20.24-10.05-35.32C274.34,427.66,282,403.6,294.29,382.25Z"></path><path fill="url(#K)" d="M313.24,427.5l-31.45-18.16a163.55,163.55,0,0,1,29.74-51.49L343,376Z"></path><path fill="url(#L)" d="M313.22,393.19c3.81-6.6,9.07-12.35,14.88-15.71S339.17,373.81,343,376a29.71,29.71,0,0,1-28.24,52.25,9.92,9.92,0,0,1-1.51-.71c-3.81-2.2-6.17-6.91-6.17-13.62S309.41,399.78,313.22,393.19Z"></path><path fill="url(#M)" d="M293.41,406.05c0-6.71,2.36-14.14,6.17-20.74s9.06-12.35,14.87-15.7,11.07-3.68,14.88-1.48l-17.8-10.28a163.55,163.55,0,0,0-29.74,51.49l17.23,10C295.55,417,293.41,412.42,293.41,406.05Z" style="mix-blend-mode:multiply"></path></g></svg>