<svg xmlns="http://www.w3.org/2000/svg" xmlns:xlink="http://www.w3.org/1999/xlink" viewBox="0 0 1717.236 1214.145" id="Schedulemanagement"><defs><linearGradient id="h" x1="614.704" x2="774.464" y1="458.134" y2="458.134" gradientUnits="userSpaceOnUse"><stop offset="0" stop-color="#c6d6e7" class="stopColorc6cbe7 svgShape"></stop><stop offset=".135" stop-color="#d3e0ed" class="stopColord3d7ed svgShape"></stop><stop offset=".439" stop-color="#ebf1f7" class="stopColorebedf7 svgShape"></stop><stop offset=".721" stop-color="#fafbfd" class="stopColorfafafd svgShape"></stop><stop offset=".955" stop-color="#ffffff" class="stopColorffffff svgShape"></stop></linearGradient><linearGradient id="i" x1="532.659" x2="695.095" y1="420.235" y2="420.235" gradientUnits="userSpaceOnUse"><stop offset="0" stop-color="#cee3f8" class="stopColorced3f8 svgShape"></stop><stop offset=".471" stop-color="#c3d8ed" class="stopColorc3c8ed svgShape"></stop><stop offset="1" stop-color="#bbd0e6" class="stopColorbbc0e6 svgShape"></stop></linearGradient><linearGradient id="j" x1="550.268" x2="677.489" y1="331.192" y2="331.192" gradientUnits="userSpaceOnUse"><stop offset="0" stop-color="#bbd0e6" class="stopColorbbc0e6 svgShape"></stop><stop offset="1" stop-color="#cee3f8" class="stopColorced3f8 svgShape"></stop></linearGradient><linearGradient id="k" x1="1463.896" x2="1536.664" y1="824.786" y2="824.786" gradientTransform="translate(-779.578)" gradientUnits="userSpaceOnUse"><stop offset="0" stop-color="#c4d4e5" class="stopColorc4c9e5 svgShape"></stop><stop offset=".286" stop-color="#d0ddea" class="stopColord0d4ea svgShape"></stop><stop offset=".807" stop-color="#f1f5f9" class="stopColorf1f2f9 svgShape"></stop><stop offset="1" stop-color="#ffffff" class="stopColorffffff svgShape"></stop></linearGradient><linearGradient id="l" x1="-102.916" x2="-30.148" y1="834.121" y2="834.121" gradientTransform="matrix(-1 0 0 1 639.986 0)" gradientUnits="userSpaceOnUse"><stop offset="0" stop-color="#453eaf" class="stopColor423eaf svgShape"></stop><stop offset=".128" stop-color="#4a43b6" class="stopColor4743b6 svgShape"></stop><stop offset=".318" stop-color="#5951ca" class="stopColor5551ca svgShape"></stop><stop offset=".333" stop-color="#5a52cc" class="stopColor5652cc svgShape"></stop></linearGradient><linearGradient id="a" x1="370.271" x2="738.308" y1="640.438" y2="640.438" gradientUnits="userSpaceOnUse"><stop offset="0" stop-color="#dae7f5" class="stopColordae0f5 svgShape"></stop><stop offset=".316" stop-color="#dfeaf6" class="stopColordfe4f6 svgShape"></stop><stop offset=".687" stop-color="#edf3fa" class="stopColoredf0fa svgShape"></stop><stop offset="1" stop-color="#ffffff" class="stopColorffffff svgShape"></stop></linearGradient><linearGradient id="m" x1="-449.157" x2="-427.798" y1="748.458" y2="711.464" gradientTransform="matrix(-1 0 0 1 -237.432 -66.945)" gradientUnits="userSpaceOnUse"><stop offset="0" stop-color="#6f67e9" class="stopColor6b67e9 svgShape"></stop><stop offset=".624" stop-color="#4841b1" class="stopColor4841b1 svgShape"></stop><stop offset="1" stop-color="#342e94" class="stopColor362e94 svgShape"></stop></linearGradient><linearGradient id="n" x1="307.104" x2="337.213" y1="715.239" y2="758.834" xlink:href="#a"></linearGradient><linearGradient id="o" x1="25.482" x2="140.642" y1="441.579" y2="242.117" gradientTransform="matrix(-1 0 0 1 1464.329 0)" gradientUnits="userSpaceOnUse"><stop offset="0" stop-color="#c82eac" class="stopColorc82e52 svgShape"></stop><stop offset=".032" stop-color="#c62caa" class="stopColorc62c51 svgShape"></stop><stop offset="1" stop-color="#ff6ae4" class="stopColorff826a svgShape"></stop></linearGradient><linearGradient id="p" x1="147.883" x2="99.329" y1="391.178" y2="314.929" gradientTransform="matrix(-1 0 0 1 1464.329 0)" gradientUnits="userSpaceOnUse"><stop offset=".006" stop-color="#453eaf" class="stopColor423eaf svgShape"></stop><stop offset="1" stop-color="#6f67e9" class="stopColor6b67e9 svgShape"></stop></linearGradient><linearGradient id="q" x1="780.424" x2="1571.928" y1="716.198" y2="716.198" gradientUnits="userSpaceOnUse"><stop offset="0" stop-color="#c4d6e9" class="stopColorc4cae9 svgShape"></stop><stop offset=".277" stop-color="#d0deed" class="stopColord0d4ed svgShape"></stop><stop offset=".77" stop-color="#eef3f9" class="stopColoreef0f9 svgShape"></stop><stop offset="1" stop-color="#ffffff" class="stopColorffffff svgShape"></stop></linearGradient><linearGradient id="r" x1="914.599" x2="1377.701" y1="28.838" y2="830.954" gradientUnits="userSpaceOnUse"><stop offset=".567" stop-color="#cee3f8" class="stopColorced3f8 svgShape"></stop><stop offset=".609" stop-color="#a5b8cc" class="stopColora5abcc svgShape"></stop></linearGradient><linearGradient id="s" x1="497.337" x2="783.095" y1="690.97" y2="690.97" gradientUnits="userSpaceOnUse"><stop offset="0" stop-color="#dae7f5" class="stopColordae0f5 svgShape"></stop><stop offset=".327" stop-color="#deeaf6" class="stopColordee3f6 svgShape"></stop><stop offset=".66" stop-color="#eaf1f9" class="stopColoreaeef9 svgShape"></stop><stop offset=".996" stop-color="#ffffff" class="stopColorffffff svgShape"></stop><stop offset="1" stop-color="#ffffff" class="stopColorffffff svgShape"></stop></linearGradient><linearGradient id="t" x1="749.002" x2="760.887" y1="602.241" y2="621.972" gradientUnits="userSpaceOnUse"><stop offset="0" stop-color="#6f67e9" class="stopColor6b67e9 svgShape"></stop><stop offset="1" stop-color="#342e93" class="stopColor362e93 svgShape"></stop></linearGradient><linearGradient id="u" x1="511.008" x2="499.838" y1="764.018" y2="744.421" gradientUnits="userSpaceOnUse"><stop offset="0" stop-color="#bbd0e6" class="stopColorbbc0e6 svgShape"></stop><stop offset="1" stop-color="#f6f8fb" class="stopColorf6f6fb svgShape"></stop></linearGradient><linearGradient id="v" x1="492.292" x2="487.589" y1="767.35" y2="761.274" gradientUnits="userSpaceOnUse"><stop offset="0" stop-color="#342e93" class="stopColor362e93 svgShape"></stop><stop offset="1" stop-color="#847cfb" class="stopColor807cfb svgShape"></stop></linearGradient><linearGradient id="w" x1="742.973" x2="729.932" y1="632.047" y2="610.119" gradientUnits="userSpaceOnUse"><stop offset=".074" stop-color="#a3b9d0" class="stopColora3a9d0 svgShape"></stop><stop offset=".137" stop-color="#cee3f8" class="stopColorced3f8 svgShape"></stop><stop offset=".559" stop-color="#cee3f8" class="stopColorced3f8 svgShape"></stop><stop offset=".69" stop-color="#f6f8fb" class="stopColorf6f6fb svgShape"></stop></linearGradient><linearGradient id="b" x1="735.967" x2="719.754" y1="637.027" y2="616.429" gradientUnits="userSpaceOnUse"><stop offset=".559" stop-color="#d1e2f3" class="stopColord1d7f3 svgShape"></stop><stop offset=".69" stop-color="#f1f3f6" class="stopColorf1f1f6 svgShape"></stop></linearGradient><linearGradient id="x" x1="739.136" x2="722.924" y1="635.195" y2="614.597" xlink:href="#b"></linearGradient><linearGradient id="y" x1="742.311" x2="726.098" y1="633.363" y2="612.765" xlink:href="#b"></linearGradient><linearGradient id="c" x1="868.701" x2="965.333" y1="797.601" y2="797.601" gradientTransform="translate(21.463)" gradientUnits="userSpaceOnUse"><stop offset="0" stop-color="#c6d6e7" class="stopColorc6cbe7 svgShape"></stop><stop offset=".077" stop-color="#cedcea" class="stopColorced2ea svgShape"></stop><stop offset=".398" stop-color="#e9eff6" class="stopColore9ebf6 svgShape"></stop><stop offset=".682" stop-color="#f9fbfd" class="stopColorf9fafd svgShape"></stop><stop offset=".899" stop-color="#ffffff" class="stopColorffffff svgShape"></stop></linearGradient><linearGradient id="z" x1="858.221" x2="954.856" y1="771.954" y2="771.954" gradientTransform="translate(-11.626)" xlink:href="#c"></linearGradient><linearGradient id="d" x1="-11.433" x2="24.186" y1="768.555" y2="768.555" gradientTransform="matrix(-1 0 0 1 860.089 0)" gradientUnits="userSpaceOnUse"><stop offset="0" stop-color="#726ae2" class="stopColor6a6ae2 svgShape"></stop><stop offset=".284" stop-color="#5e57c7" class="stopColor5857c7 svgShape"></stop><stop offset=".756" stop-color="#423c9e" class="stopColor3e3c9e svgShape"></stop><stop offset="1" stop-color="#37318f" class="stopColor34318f svgShape"></stop></linearGradient><linearGradient id="A" x1="-55.473" x2="-19.853" y1="794.191" y2="794.191" xlink:href="#d"></linearGradient><linearGradient id="B" x1="-40.009" x2="21.228" y1="709.082" y2="709.082" gradientTransform="matrix(-1 0 0 1 860.089 0)" gradientUnits="userSpaceOnUse"><stop offset="0" stop-color="#3a33a3" class="stopColor3366a3 svgShape"></stop><stop offset=".016" stop-color="#514abb" class="stopColor4a5abb svgShape"></stop><stop offset=".027" stop-color="#5c55c6" class="stopColor5555c6 svgShape"></stop><stop offset="1" stop-color="#6b1c6b" class="stopColor1e1c6b svgShape"></stop></linearGradient><linearGradient id="C" x1="-42.373" x2="21.591" y1="599.188" y2="599.188" gradientTransform="matrix(-1 0 0 1 860.089 0)" gradientUnits="userSpaceOnUse"><stop offset="0" stop-color="#e33cc5" class="stopColore33c5c svgShape"></stop><stop offset=".156" stop-color="#e442c7" class="stopColore4425d svgShape"></stop><stop offset=".36" stop-color="#e852cd" class="stopColore8525f svgShape"></stop><stop offset=".591" stop-color="#ef63d6" class="stopColoref6d63 svgShape"></stop><stop offset=".84" stop-color="#f869de" class="stopColorf89369 svgShape"></stop><stop offset="1" stop-color="#6db6ff" class="stopColorffaf6d svgShape"></stop></linearGradient><linearGradient id="D" x1="-24.17" x2="-117.809" y1="572.706" y2="520.737" gradientTransform="matrix(-1 0 0 1 860.089 0)" gradientUnits="userSpaceOnUse"><stop offset="0" stop-color="#ff6ae4" class="stopColorff826a svgShape"></stop><stop offset=".808" stop-color="#e94acc" class="stopColore94a5f svgShape"></stop><stop offset="1" stop-color="#e33cc5" class="stopColore33c5c svgShape"></stop></linearGradient><linearGradient id="E" x1="1197.64" x2="1341.175" y1="976.204" y2="976.204" gradientUnits="userSpaceOnUse"><stop offset=".453" stop-color="#c4d4e4" class="stopColorc4c9e4 svgShape"></stop><stop offset="1" stop-color="#ffffff" class="stopColorffffff svgShape"></stop></linearGradient><linearGradient id="e" x1="1164.758" x2="1305.344" y1="987.432" y2="987.432" gradientUnits="userSpaceOnUse"><stop offset="0" stop-color="#ff6ae4" class="stopColorff826a svgShape"></stop><stop offset="1" stop-color="#e33cc5" class="stopColore33c5c svgShape"></stop></linearGradient><linearGradient id="F" x1="1177.961" x2="1292.139" y1="941.62" y2="941.62" xlink:href="#e"></linearGradient><linearGradient id="G" x1="1213.359" x2="1244.213" y1="971.398" y2="971.398" xlink:href="#e"></linearGradient><linearGradient id="H" x1="470.224" x2="633.444" y1="942.39" y2="942.39" gradientUnits="userSpaceOnUse"><stop offset="0" stop-color="#d1e2f3" class="stopColord1d7f3 svgShape"></stop><stop offset=".616" stop-color="#f0f5fb" class="stopColorf0f2fb svgShape"></stop><stop offset="1" stop-color="#ffffff" class="stopColorffffff svgShape"></stop></linearGradient><linearGradient id="f" x1="492.295" x2="573.621" y1="-175.275" y2="-316.135" gradientTransform="rotate(-120.001 838.237 355.514)" gradientUnits="userSpaceOnUse"><stop offset=".409" stop-color="#bbd0e6" class="stopColorbbc0e6 svgShape"></stop><stop offset=".413" stop-color="#bcd1e7" class="stopColorbcc1e7 svgShape"></stop><stop offset=".565" stop-color="#cee3f8" class="stopColorced3f8 svgShape"></stop></linearGradient><linearGradient id="I" x1="475.509" x2="556.835" y1="-184.962" y2="-325.823" gradientTransform="rotate(-120.001 838.237 355.514)" gradientUnits="userSpaceOnUse"><stop offset=".425" stop-color="#453eaf" class="stopColor423eaf svgShape"></stop><stop offset=".441" stop-color="#4d46b9" class="stopColor4a46b9 svgShape"></stop><stop offset=".524" stop-color="#766ee9" class="stopColor716ee9 svgShape"></stop><stop offset=".565" stop-color="#857dfb" class="stopColor807dfb svgShape"></stop></linearGradient><linearGradient id="J" x1="458.723" x2="540.049" y1="-194.649" y2="-335.51" xlink:href="#f"></linearGradient><linearGradient id="g" x1="883.883" x2="1020.935" y1="1039.482" y2="1039.482" gradientTransform="translate(42.41)" gradientUnits="userSpaceOnUse"><stop offset="0" stop-color="#c2d2e3" class="stopColorc2c7e3 svgShape"></stop><stop offset=".253" stop-color="#dde6ef" class="stopColordde0ef svgShape"></stop><stop offset=".543" stop-color="#f6f8fb" class="stopColorf6f7fb svgShape"></stop><stop offset=".719" stop-color="#ffffff" class="stopColorffffff svgShape"></stop></linearGradient><linearGradient id="K" x1="783.556" x2="914.732" y1="1065.393" y2="1065.393" gradientTransform="translate(97.637)" xlink:href="#g"></linearGradient><linearGradient id="L" x1="683.226" x2="803.962" y1="1091.306" y2="1091.306" gradientTransform="translate(152.864)" xlink:href="#g"></linearGradient><linearGradient id="M" x1="928.983" x2="1066.036" y1="1013.567" y2="1013.567" xlink:href="#g"></linearGradient><linearGradient id="N" x1="169.256" x2="230.94" y1="984.673" y2="984.673" gradientUnits="userSpaceOnUse"><stop offset="0" stop-color="#c4d4e4" class="stopColorc4c9e4 svgShape"></stop><stop offset=".188" stop-color="#d7e2ed" class="stopColord7daed svgShape"></stop><stop offset=".477" stop-color="#edf2f7" class="stopColoredeef7 svgShape"></stop><stop offset=".753" stop-color="#fafbfd" class="stopColorfafbfd svgShape"></stop><stop offset="1" stop-color="#ffffff" class="stopColorffffff svgShape"></stop></linearGradient></defs><g style="isolation:isolate" fill="#010001" class="color000000 svgShape"><g fill="#010001" class="color000000 svgShape"><g fill="#010001" class="color000000 svgShape"><path style="mix-blend-mode:multiply" fill="url(#h)" d="m774.464 406.314-159.76 16.302v71.03l159.76 16.307V406.314z"></path><path fill="url(#i)" d="m532.66 346.804 20.761 111.96c0 8.933 5.894 17.862 17.698 24.681 23.616 13.626 61.901 13.626 85.51 0 11.802-6.819 17.704-15.748 17.704-24.685l20.762-111.956Z"></path><path fill="#f4f6f8" d="M532.66 346.804c0-12.002 7.925-24.006 23.783-33.164 31.719-18.304 83.14-18.304 114.866.008 15.848 9.15 23.786 21.154 23.786 33.156 0 11.996-7.938 24-23.786 33.153-31.726 18.312-83.147 18.312-114.866 0-15.855-9.153-23.784-21.157-23.784-33.153Z" class="colorf6f6fb svgShape"></path><path fill="url(#j)" d="M568.893 331.837c24.84-14.342 65.125-14.342 89.959.006 9.992 5.76 15.891 12.976 17.848 20.462a21.93 21.93 0 0 0 .79-5.5c0-9.404-6.212-18.804-18.638-25.974-24.834-14.337-65.118-14.337-89.959 0-12.423 7.17-18.637 16.575-18.625 25.973a21.903 21.903 0 0 0 .778 5.501c1.956-7.494 7.855-14.702 17.847-20.468Z"></path><path fill="#342e94" d="M568.893 372.768c24.84 14.345 65.125 14.345 89.959 0 9.992-5.76 15.891-12.976 17.848-20.463-1.957-7.486-7.856-14.702-17.848-20.462-24.834-14.348-65.118-14.348-89.959-.006-9.992 5.766-15.891 12.974-17.847 20.468 1.956 7.487 7.855 14.703 17.847 20.463Z" class="color362e94 svgShape"></path><path fill="#5046e4" d="M613.874 346.804C572.61 340.63 498.134 302.42 508.09 221.36c37.024 4.105 109.046 52.292 105.785 125.445Z" class="color5652cc svgShape"></path><path fill="#6f67e9" d="M613.874 346.804c-42.776-55.377-85.443-69.015-139.316-37.217 27.093 33.26 61.392 79.245 139.316 37.217Z" class="color6b67e9 svgShape"></path><path fill="#5046e4" d="M589.724 342.478c-.02 0-.041 0-.063-.002-31.638-1.95-49.048-8.774-87.195-23.724-3.75-1.47-7.7-3.019-11.882-4.648a1.02 1.02 0 0 1 .74-1.9c4.183 1.629 8.134 3.178 11.888 4.648 37.94 14.87 55.256 21.657 86.574 23.59a1.02 1.02 0 0 1-.062 2.036Z" class="color5652cc svgShape"></path><path fill="#453eaf" d="M613.874 346.804c41.714-1.188 109.827-16.839 127.292-78.011-45.651-14.638-121.772 4.998-127.292 78.011Z" class="color423eaf svgShape"></path><path fill="#6f67e9" d="M613.874 346.804c53.283-33.742 88.32-39.47 129.64-5.278-27.295 33.092-78.95 46.057-129.64 5.278Z" class="color6b67e9 svgShape"></path><path fill="#5046e4" d="M679.26 351.65c-23.757 0-44.382-2.888-52.003-4.789a1.02 1.02 0 1 1 .492-1.978c14.733 3.673 65.028 8.667 102.086-.779a1.02 1.02 0 0 1 .504 1.977c-16.303 4.154-34.457 5.568-51.08 5.568ZM613.975 346.804c-35.631-78.397 17.104-135.18 63.514-166.445 17.606 48.368 13.501 130.863-63.514 166.445Z" class="color5652cc svgShape"></path><path fill="#453eaf" d="M617.312 328.33a1.036 1.036 0 0 1-.348-.062 1.02 1.02 0 0 1-.611-1.306c1.568-4.332 3.056-10.375 4.941-18.025 6.34-25.734 16.95-68.805 48.448-113.094a1.02 1.02 0 0 1 1.664 1.181c-31.276 43.973-41.827 86.808-48.131 112.4-1.899 7.71-3.399 13.798-5.004 18.233a1.02 1.02 0 0 1-.96.673Z" class="color423eaf svgShape"></path><path fill="#857dfb" d="M613.975 346.804c30.198-43.182 18.892-111.763-14.324-159.887-29.925 54.474-48.813 130.218 14.324 159.887Z" class="color807dfb svgShape"></path><path fill="#6f67e9" d="M608.943 336.12a1.018 1.018 0 0 1-.948-.643c-8.873-22.33-18.38-56.089-13.103-119.475a1.053 1.053 0 0 1 1.1-.932 1.02 1.02 0 0 1 .931 1.102c-5.24 62.963 4.178 96.43 12.967 118.551a1.02 1.02 0 0 1-.947 1.398Z" class="color6b67e9 svgShape"></path><path d="M726.658 814.09c-.694-2.458-2.679-4.813-5.955-6.706-8.322-4.808-21.818-4.803-30.143.005-4.16 2.397-6.244 5.548-6.237 8.7l-.005 29.702 51.447-.004a30.8 30.8 0 0 0 15.078-3.596c8.324-4.808 8.324-12.6.002-17.403a28.838 28.838 0 0 0-11.612-3.443l-11.26-.754Z" style="mix-blend-mode:multiply" fill="url(#k)"></path><path fill="url(#l)" d="M736.66 831.127a30.75 30.75 0 0 1-15.086 3.6l-51.44.005v11.06h51.44a30.87 30.87 0 0 0 15.085-3.6c4.171-2.412 6.251-5.572 6.242-8.737V822.45c-.014 3.146-2.094 6.28-6.242 8.676Z"></path><path fill="#857dfb" d="M712.476 803.025c-.698-2.447-2.68-4.812-5.96-6.7-8.32-4.803-21.817-4.803-30.14 0-4.162 2.402-6.244 5.553-6.242 8.704v29.703l51.44-.005a30.75 30.75 0 0 0 15.085-3.6c8.32-4.803 8.324-12.6 0-17.403a28.87 28.87 0 0 0-11.61-3.438l-11.26-.76Z" class="color807dfb svgShape"></path><path fill="url(#a)" d="m738.308 624.039-224.07-129.38h-78.307L654.47 622.13 370.271 786.216h8.862l8.124-4.69-1.389.801h78.307l274.133-158.288z"></path><path fill="#6f67e9" d="M491.899 523.168 207.694 687.237 370.271 781.1l284.204-164.078-162.576-93.854z" class="color6b67e9 svgShape"></path><path fill="url(#m)" d="M200.152 639.425a18.73 18.73 0 0 0-1.512 7.829c0 12.467 8.785 27.676 19.58 33.912l-10.516 6.07c-10.804-6.234-19.58-21.445-19.58-33.908 0-9.376 4.97-14.566 12.028-13.903Z"></path><path fill="#f4f6f8" d="M212.406 639.307s143.262 82.705 151.698 87.577v45.211c-8.436-4.872-151.689-87.577-151.689-87.577-10.795-6.237-19.58-21.445-19.58-33.913 0-12.456 8.785-17.526 19.57-11.298Z" class="colorf6f6fb svgShape"></path><path fill="#cee3f8" d="m638.263 568.614-274.159 158.27-.001 45.211 274.165-158.277-.005-45.204z" class="colorced3f8 svgShape"></path><path fill="#857dfb" d="M491.899 472.846 207.694 636.91l162.577 93.868 284.204-164.073-162.576-93.859z" class="color807dfb svgShape"></path><path fill="#6f67e9" d="M481.388 478.914 218.21 630.844l152.061 87.785 263.173-151.924-152.056-87.791z" class="color6b67e9 svgShape"></path><path fill="#342e94" d="M654.475 566.705 370.271 730.778v5.114l284.204-164.083v-5.104zM654.475 617.022 370.271 781.1v5.116l284.205-164.082-.001-5.112z" class="color362e94 svgShape"></path><path fill="#857dfb" d="m190.269 635.514 284.2-164.07c4.42-2.783 10.585-2.558 17.425 1.395.01.007-284.2 164.071-284.2 164.071Z" class="color807dfb svgShape"></path><path fill="#5046e4" d="M183.699 650.77c-.005-15.305 10.739-21.512 23.995-13.86l162.577 93.868v5.114l-162.577-93.866c-10.794-6.23-19.57-1.163-19.57 11.302 0 12.463 8.776 27.674 19.58 33.909l162.567 93.859v5.12L207.694 692.35c-13.256-7.656-23.995-26.273-23.995-41.58Z" class="color5652cc svgShape"></path><path d="M328.347 725.955c15.191 13.686 15.121 34.226 15.121 34.226l-34.143-19.713-2.127-26.723s11.928 7.333 21.15 12.21Z" style="mix-blend-mode:multiply" fill="url(#n)"></path><path fill="#ff5ae1" d="M288.06 745.472c.339 3.757 2.05 14.1 2.85 18.478 13.35-20.676 24.057-30.06 37.437-37.995-3.528-2.037-13.483-7.786-21.15-12.21-13.347 7.685-28.174 24.318-37.437 37.995a89.771 89.771 0 0 1 18.3-6.268Z" class="colorff5a72 svgShape"></path><path d="M364.103 772.095h21.765l268.607-155.073-16.208-9.357.001 6.153-274.165 158.277z" style="mix-blend-mode:multiply" fill="#dae7f5" class="colordae0f5 svgShape"></path><path fill="#ff5ae1" d="M1425.27 410.546c0-51.952-36.475-115.116-81.452-141.091-44.992-25.97-81.462-4.918-81.462 47.033 0 51.946 36.47 115.118 81.462 141.087 44.977 25.976 81.453 4.918 81.453-47.029Z" class="colorff5a72 svgShape"></path><path fill="url(#o)" d="m1305.126 252.842-18.866 10.883c14.741-8.478 35.078-7.24 57.558 5.73 44.977 25.975 81.453 89.14 81.453 141.091 0 25.479-8.811 43.471-23.068 52.18l16.517-9.532-.05-.087c15.882-7.998 25.863-26.585 25.863-53.684 0-51.949-36.468-115.114-81.456-141.088-22.678-13.09-43.163-14.208-57.934-5.47Zm-19.268 11.12.015.025c.1-.062.186-.145.301-.205Zm114.676 199.737c-.366.196-.76.341-1.132.528l.05.088Z"></path><path fill="#ffffff" d="M1284.31 324.712c0-19.062 6.37-32.692 16.718-39.737 11.275-5.448 26.261-4.15 42.79 5.384 34.978 20.202 63.35 69.332 63.35 109.733 0 19.069-6.374 32.697-16.727 39.745-11.27 5.445-26.26 4.145-42.776-5.39-34.996-20.2-63.355-69.331-63.355-109.735Z" class="colorffffff svgShape"></path><path fill="#a50b89" d="M1301.028 284.975c-10.348 7.045-16.718 20.675-16.718 39.737 0 40.404 28.359 89.535 63.355 109.735 16.517 9.535 31.506 10.835 42.776 5.39-11.577 7.88-28.15 7.5-46.623-3.167-35.005-20.201-63.358-69.33-63.358-109.73 0-21.331 7.954-35.88 20.568-41.965Z" class="colorc62c51 svgShape"></path><path fill="url(#p)" d="m1309.892 377.813 35.55-20.534v-44.285c0-2.813 1.978-3.947 4.413-2.547a9.737 9.737 0 0 1 4.393 7.63v46.391a4.362 4.362 0 0 1-.337 1.747 2.364 2.364 0 0 1-.951 1.103l-36.843 21.276c-1.716.991-4.506-.615-6.225-3.595-1.72-2.977-1.72-6.197 0-7.186Z"></path><path d="m1373.053 422.822-101.935-58.852c13.433 38.383 40.932 75.269 72.7 93.605 16.515 9.538 31.873 12.712 44.711 10.367v-18.32c0-9.826-6.966-21.887-15.476-26.8Z" style="mix-blend-mode:multiply" fill="#dae7f5" class="colordae0f5 svgShape"></path><path d="m1571.928 566.449-.508-.294c-8.52-4.915-29.397-8.933-46.418-8.933h-725.47c-17.021 0-23.99 4.018-15.472 8.933l519.76 300.084c8.513 4.913 29.403 8.935 46.425 8.935h221.683Z" style="mix-blend-mode:multiply" fill="url(#q)"></path><path fill="url(#r)" d="M1315.501 404.914 795.738 104.83c-4.312-2.487-8.216-2.677-11.03-.99v-.01l-11.118 6.448.032.005c2.755-1.336 6.417-1.03 10.439 1.29l519.759 300.083c8.51 4.914 15.476 16.975 15.476 26.8v418.85c0 4.876-1.721 8.321-4.488 9.956v.004l11.109-6.449-.032-.003c3.113-1.474 5.089-5.034 5.089-10.251v-418.85c0-9.826-6.966-21.885-15.473-26.799Z"></path><path fill="#6f67e9" d="M1319.296 438.455c0-9.825-6.966-21.886-15.476-26.8L784.06 111.572c-8.514-4.913-15.472-.893-15.472 8.934v40.401l550.708 317.952Z" class="color6b67e9 svgShape"></path><path fill="#f4f6f8" d="M768.588 160.907v378.45c0 9.827 6.958 21.885 15.472 26.799l519.76 300.083c8.51 4.911 15.476.894 15.476-8.934V478.86Z" class="colorf6f6fb svgShape"></path><path fill="#ffffff" d="M810.997 162.393c0 5.51-2.763 6.914-7.271 4.31a15.06 15.06 0 0 1-7.733-12.972v-2.508l4.344 2.506v2.508a6.576 6.576 0 0 0 3.258 5.832c1.941 1.121 3.059.324 3.059-2.183v-18.618l4.343 2.508ZM818.898 148.337v17.4a9.09 9.09 0 0 0 4.672 7.942c2.994 1.728 4.672.683 4.672-2.547v-17.4l4.343 2.507v17.174c0 6.078-3.258 8.072-9.015 4.748a17.495 17.495 0 0 1-9.016-15.158v-17.174ZM840.617 160.876v22.037l10.662 6.156v4.559l-15.006-8.664V158.37ZM1214.345 376.114c4.475 2.584 8.326 8.15 8.326 13.623 0 5.242-2.732 6.098-7.57 4.711-3.223-.912-4.934-1.102-4.934 1.367v.457l12.371 7.143v4.558l-16.714-9.65v-4.559c0-4.826 2.994-5.453 7.238-4.332 3.29.875 5.266.76 5.266-2.355a7.576 7.576 0 0 0-3.917-6.44c-2.369-1.369-4.377-.968-4.377 2.489v.836l-4.343-2.508v-.912c0-6.23 3.982-7.125 8.654-4.428ZM1233.269 387.04a18.224 18.224 0 0 1 8.816 15.806v6.231c0 6.992-3.552 8.662-8.816 5.623a17.945 17.945 0 0 1-8.82-15.805v-6.232c0-6.762 3.554-8.664 8.82-5.623Zm-4.477 14.59c0 3.761 1.48 6.86 4.477 8.588 3.092 1.785 4.475.189 4.475-3.42v-6.686a9.823 9.823 0 0 0-4.475-8.588c-2.83-1.635-4.477-.115-4.477 3.42ZM1252.652 398.23c4.474 2.583 8.324 8.15 8.324 13.622 0 5.242-2.73 6.098-7.568 4.711-3.225-.912-4.936-1.101-4.936 1.367v.457l12.373 7.143v4.559l-16.717-9.65v-4.56c0-4.826 2.996-5.452 7.24-4.331 3.29.875 5.264.76 5.264-2.356a7.579 7.579 0 0 0-3.914-6.44c-2.371-1.366-4.377-.968-4.377 2.489v.836l-4.344-2.508v-.912c0-6.23 3.983-7.125 8.655-4.428ZM1271.574 409.155a18.221 18.221 0 0 1 8.818 15.807v6.232c0 6.99-3.553 8.66-8.818 5.621a17.94 17.94 0 0 1-8.819-15.804v-6.233c0-6.762 3.553-8.662 8.819-5.623Zm-4.475 14.59c0 3.762 1.48 6.86 4.475 8.588 3.093 1.785 4.476.19 4.476-3.42v-6.686a9.824 9.824 0 0 0-4.476-8.588c-2.83-1.632-4.475-.115-4.475 3.42Z" class="colorffffff svgShape"></path><path d="m1224.859 476.195-3.464-2-68.21-39.381-3.464-2-68.21-39.381-3.464-2-68.21-39.38-3.463-2-68.21-39.382-3.464-2-68.21-39.38-3.464-2-71.675-41.383v319.14l71.675 41.38 3.464 2 68.21 39.382 3.464 2 68.21 39.38 3.464 2 68.21 39.381 3.463 2 68.21 39.381 3.464 2 68.21 39.381 3.464 2 71.674 41.381V517.575Zm-71.674-37.381 68.21 39.38v59.028l-68.21-39.38Zm68.21 161.436-68.21-39.38v-59.028l68.21 39.38Zm0 63.028-68.21-39.38V564.87l68.21 39.38Zm0 63.027-68.21-39.38v-59.028l68.21 39.381ZM866.49 462.375l68.21 39.38v59.027l-68.21-39.38Zm0-63.029 68.21 39.381v59.028l-68.21-39.38Zm0-63.028L934.7 375.7v59.028l-68.21-39.38Zm283.231 222.552-68.21-39.381V460.46l68.21 39.38Zm0 63.027-68.21-39.38v-59.028l68.21 39.38Zm-211.557-181.17 68.21 39.38v59.029l-68.21-39.38Zm71.674 41.38 68.21 39.382v59.028l-68.21-39.381Zm68.21 35.382-68.21-39.381V419.08l68.21 39.38Zm-71.674-41.381-68.21-39.38v-59.029l68.21 39.38Zm-68.21 27.647 68.21 39.38v59.028l-68.21-39.381Zm71.674 41.38 68.21 39.382v59.027l-68.21-39.381Zm71.673 41.382 68.21 39.38v59.027l-68.21-39.38Zm0-189.084 68.21 39.38v59.029l-68.21-39.381Zm-71.673-41.38 68.21 39.38v59.028l-68.21-39.38Zm-71.674-41.382 68.21 39.381v59.028l-68.21-39.38Zm-143.35-19.735 68.212 39.382v59.028l-68.211-39.382Zm0 63.028 68.212 39.382v59.028l-68.211-39.382Zm0 63.028 68.212 39.382v59.027l-68.211-39.382Zm68.212 161.437-68.211-39.382V484.02l68.211 39.382Zm71.674 41.38-68.21-39.38v-59.028l68.21 39.38Zm71.674 41.382-68.21-39.381v-59.028l68.21 39.38Zm71.673 41.38-68.21-39.38v-59.028l68.21 39.38Zm71.674 41.381-68.21-39.38v-59.028l68.21 39.38Zm143.348 19.734-68.21-39.38v-59.028l68.21 39.381Zm0-63.027-68.21-39.38V606.25l68.21 39.381Zm0-63.028-68.21-39.38v-59.029l68.21 39.381Zm-68.21-102.409v-59.027l68.21 39.38v59.028Z" style="mix-blend-mode:multiply" fill="#e8eff7" class="colore8ecf7 svgShape"></path><path fill="#cee3f8" d="m802.029 209.991 53.782 31.051v10.41l-53.782-31.051v-10.41zM873.703 251.371l53.782 31.052v10.41l-53.782-31.051v-10.411zM945.377 292.752l53.782 31.052v10.41l-53.782-31.051v-10.411zM1017.051 334.133l53.782 31.052v10.41l-53.782-31.051v-10.411zM1088.725 375.514l53.782 31.051v10.411l-53.782-31.051v-10.411z" class="colorced3f8 svgShape"></path><path fill="#857dfb" d="m1160.399 416.895 53.782 31.051v10.411l-53.782-31.051v-10.411zM1177.029 553.5l10.26 17.773 10.262-5.925c5.668-3.272 5.668-13.883 0-23.697-5.666-9.816-14.854-15.119-20.522-11.848-5.668 3.272-5.669 13.88 0 23.697Zm5.011-8.954c0-3.35 2.35-4.707 5.25-3.033a11.604 11.604 0 0 1 5.25 9.095c0 3.346-2.35 4.704-5.25 3.03a11.604 11.604 0 0 1-5.25-9.092Z" class="color807dfb svgShape"></path><path fill="#ff5ae1" d="m845.372 416.673-16.452 9.495-16.45-28.493a19.746 19.746 0 0 1-2.828-9.506c.001-6.146 4.317-8.638 9.64-5.565a18.476 18.476 0 0 1 5.619 5.332l4.02 5.996 4.022-1.353a7.639 7.639 0 0 1 5.618 1.156c5.323 3.075 9.637 10.55 9.638 16.698 0 3.073-1.08 5.233-2.827 6.24Z" class="colorff5a72 svgShape"></path><path fill="#ff6ae4" d="M1139.151 628.85c0-2.14 1.503-3.007 3.356-1.937a7.417 7.417 0 0 1 3.356 5.812c0 2.14-1.503 3.008-3.356 1.938a7.417 7.417 0 0 1-3.356-5.812Z" class="colorff826a svgShape"></path><path fill="#e33cc5" d="M1128.632 622.777c0-2.14 1.503-3.007 3.356-1.937a7.417 7.417 0 0 1 3.356 5.812c0 2.14-1.503 3.008-3.356 1.938a7.417 7.417 0 0 1-3.356-5.813Z" class="colore33c5c svgShape"></path><path fill="#857dfb" d="M1118.113 616.704c0-2.14 1.502-3.007 3.356-1.937a7.417 7.417 0 0 1 3.355 5.812c0 2.14-1.502 3.007-3.355 1.937a7.417 7.417 0 0 1-3.356-5.812Z" class="color807dfb svgShape"></path><path fill="#e33cc5" d="M985.285 413.96c0-2.14 1.502-3.008 3.355-1.938a7.417 7.417 0 0 1 3.356 5.813c0 2.14-1.502 3.007-3.356 1.937a7.417 7.417 0 0 1-3.355-5.812Z" class="colore33c5c svgShape"></path><path fill="#857dfb" d="M974.766 407.887c0-2.14 1.502-3.008 3.355-1.938a7.417 7.417 0 0 1 3.356 5.812c0 2.14-1.503 3.008-3.356 1.938a7.417 7.417 0 0 1-3.355-5.812Z" class="color807dfb svgShape"></path><path d="M951.027 540.737c0-13.548 9.509-19.038 21.242-12.264 11.733 6.775 21.242 23.244 21.241 36.792 0 13.548-9.509 19.038-21.241 12.264-11.733-6.775-21.241-23.244-21.242-36.792Z" style="mix-blend-mode:multiply" fill="#e8eff7" class="colore8ecf7 svgShape"></path><path fill="#ffffff" d="M975.61 554.372c1.328-.372 2.23-1.654 2.363-3.64l.003.003.001-.085c.009-.143.02-1.852.02-2.002a12.79 12.79 0 0 0-5.685-10.076c-3.14-1.81-5.683-.239-5.684 3.513v2.098l.023.013a12.996 12.996 0 0 0 2.363 6.367c-2.143-1.063-9.639-2.196-7.953 6.845l11.25 6.496 11.25 6.497c1.312-7.527-5.824-14.637-7.95-16.029Z" class="colorffffff svgShape"></path><path fill="#857dfb" d="m1232.073 458.276 53.782 31.051v10.411l-53.782-31.051v-10.411z" class="color807dfb svgShape"></path><path d="M772.33 604.747a10.249 10.249 0 0 0-5.338 1.346c-.857.498-3.568 2.056-6.015 3.467l-1.12-.65a1.845 1.845 0 0 0-1.785.009c-.142.07-21.13 12.192-21.13 12.192a2.122 2.122 0 0 0-.71.581l-.996 1.42L514.948 757.73l-12.562 19.463 32.85-10.29 210.15-121.332a1.863 1.863 0 0 0 1.793-.018c.107-.051 21.136-12.198 21.136-12.198a2.22 2.22 0 0 0 .682-.567l1.517-2.162 7.874-4.545a11.66 11.66 0 0 0 5.467-9.819 11.518 11.518 0 0 0-11.524-11.515Z" style="mix-blend-mode:multiply" fill="url(#s)"></path><path fill="url(#t)" d="M753.74 600.755a10.325 10.325 0 0 0-5.339 1.341c-1.046.604-4.812 2.78-7.528 4.347a9.838 9.838 0 0 1 2.08.904c5.14 2.973 9.302 10.183 9.302 16.116a8.94 8.94 0 0 1-.609 3.328l8.146-4.702a11.638 11.638 0 0 0 5.467-9.819 11.52 11.52 0 0 0-11.52-11.515Z"></path><path fill="url(#u)" d="M493.886 758.68a6.659 6.659 0 0 1 3.01 5.218c0 1.162-.507 1.9-1.263 2.084l21.002-3.07 4.495-6.39-4.495-11.57-8.97-5.182-16.144 18.9a1.949 1.949 0 0 1 2.365.01Z"></path><path fill="url(#v)" d="M493.886 758.68a1.949 1.949 0 0 0-2.365-.01l-.249.287-7.476 8.758 11.62-1.706.217-.027c.756-.185 1.264-.922 1.264-2.084a6.659 6.659 0 0 0-3.01-5.218Z"></path><path fill="#cee3f8" d="M719.465 637.352a5.52 5.52 0 0 1-2.042-2.374l-3.641-9.39a3.454 3.454 0 0 1 .36-2.9l3.498-4.988a1.863 1.863 0 0 1 2.393-.534l7.32 4.222a5.491 5.491 0 0 1 2.033 2.383l3.642 9.386a3.459 3.459 0 0 1-.355 2.909l-3.494 4.983a1.862 1.862 0 0 1-2.393.53Z" class="colorced3f8 svgShape"></path><path fill="#ff6ae4" d="M732.387 634.554 521.13 756.523l-4.495-11.571 211.262-121.964 4.49 11.566z" class="colorff826a svgShape"></path><path fill="#e33cc5" d="M727.897 640.943 516.635 762.912l4.495-6.389 211.257-121.969-4.49 6.389z" class="colore33c5c svgShape"></path><path fill="#6db6ff" d="M727.897 622.988 516.635 744.952l-8.97-5.182 211.257-121.968 8.975 5.186z" class="colorffaf6d svgShape"></path><path fill="url(#w)" d="m754.256 620.9-3.638-9.381a5.508 5.508 0 0 0-2.042-2.384l-7.31-4.222a1.858 1.858 0 0 0-1.785.018c-.143.065-21.131 12.188-21.131 12.188a1.94 1.94 0 0 1 1.683.047l7.32 4.222a5.491 5.491 0 0 1 2.033 2.383l3.642 9.386a3.459 3.459 0 0 1-.355 2.909l-3.494 4.983a1.919 1.919 0 0 1-.485.46l21.035-12.141a2.11 2.11 0 0 0 .672-.577l3.504-4.978a3.502 3.502 0 0 0 .35-2.914Z"></path><path d="M731.764 639.735a1.697 1.697 0 0 0 .48-.46l3.499-4.98a3.458 3.458 0 0 0 .35-2.908l-3.637-9.381a5.45 5.45 0 0 0-2.037-2.383l-7.316-4.218a1.805 1.805 0 0 0-1.66-.037c-.032-.019-1.53.848-1.53.848a1.925 1.925 0 0 1 1.682.055l7.32 4.218a5.534 5.534 0 0 1 2.038 2.384l3.637 9.385a3.478 3.478 0 0 1-.35 2.904l-3.504 4.988a1.827 1.827 0 0 1-.479.46Z" style="mix-blend-mode:multiply" fill="url(#b)"></path><path d="M734.931 637.9a1.653 1.653 0 0 0 .489-.46l3.49-4.98a3.432 3.432 0 0 0 .355-2.903l-3.637-9.39a5.553 5.553 0 0 0-2.038-2.38l-7.316-4.217a1.826 1.826 0 0 0-1.664-.037c-.023-.018-1.53.853-1.53.853a1.924 1.924 0 0 1 1.682.05l7.32 4.223a5.527 5.527 0 0 1 2.043 2.379l3.642 9.385a3.473 3.473 0 0 1-.36 2.914l-3.499 4.978a1.65 1.65 0 0 1-.484.461Z" style="mix-blend-mode:multiply" fill="url(#x)"></path><path d="M738.103 636.075a1.703 1.703 0 0 0 .484-.461l3.503-4.979a3.505 3.505 0 0 0 .355-2.913l-3.642-9.386a5.586 5.586 0 0 0-2.042-2.378l-7.315-4.223a1.818 1.818 0 0 0-1.66-.037c-.023-.013-1.535.858-1.535.858a1.944 1.944 0 0 1 1.692.05l7.311 4.228a5.453 5.453 0 0 1 2.042 2.37l3.642 9.394a3.466 3.466 0 0 1-.355 2.904l-3.499 4.983a1.758 1.758 0 0 1-.484.457Z" style="mix-blend-mode:multiply" fill="url(#y)"></path><path style="mix-blend-mode:multiply" fill="url(#c)" d="M890.164 788.722h96.632v17.76h-96.632z"></path><path style="mix-blend-mode:multiply" fill="url(#z)" d="M846.595 763.074h96.635v17.759h-96.635z"></path><path fill="url(#d)" d="M835.903 775.368c0-13.952 8.843-14.354 8.843-14.354s4.788 0 12.564-3.228c7.676-3.19 18.491-1.957 12.448 9.193a2.827 2.827 0 0 1-.208.413 5.446 5.446 0 0 1-1.96 1.72l-19.32 11.333c-2.946 1.683-12.297-2.205-12.367-5.077Z"></path><path fill="#6b1c6b" d="M835.953 774.118c.17 2.866 9.394 6.677 12.318 5.01l19.319-11.332a17.707 17.707 0 0 0 2.723-1.985c-.177.385-.331.753-.555 1.168a2.827 2.827 0 0 1-.208.413 5.446 5.446 0 0 1-1.96 1.72l-19.32 11.333c-2.757 1.575-11.138-1.735-12.244-4.522a3.266 3.266 0 0 1-.088-.566 9.513 9.513 0 0 1 .015-1.239Z" class="color1e1c6b svgShape"></path><path fill="#ffffff" d="M839.497 759.178c2.276 0 10.291 2.038 10.291 2.038a4.53 4.53 0 0 0 .716 2.076c.081.088.15.18.224.271 1.583 1.1 3.189 2.84-.562 5.194a5.206 5.206 0 0 1-6.756-.48 6.148 6.148 0 0 0-2.176-2.474 5.633 5.633 0 0 0-2.092-.882 1.193 1.193 0 0 0-.019-.19s-.582-5.553.374-5.553Z" class="colorffffff svgShape"></path><path fill="#6b1c6b" d="M839.354 622.756c8.735.156 30.57.545 39.301.703-3.25 26.26-9.79 50.11-14.162 75.54-4.687 24.716-9.972 42.083-14.586 62.654-1.686 3.83-9.413 2.38-10.98-1.306-1.221-18.942-2.627-42.02 2.988-63.874-.94-23.56-3.112-49.932-2.561-73.717Z" class="color1e1c6b svgShape"></path><path fill="url(#A)" d="M879.942 801.004c0-13.952 8.843-14.355 8.843-14.355s4.788 0 12.568-3.227c7.672-3.19 18.49-1.957 12.444 9.194a2.868 2.868 0 0 1-.208.412 5.418 5.418 0 0 1-1.96 1.72l-19.32 11.333c-2.942 1.683-12.298-2.205-12.367-5.077Z"></path><path fill="#6b1c6b" d="M879.996 799.754c.165 2.866 9.394 6.677 12.313 5.01l19.32-11.332a17.941 17.941 0 0 0 2.726-1.985c-.18.385-.335.753-.558 1.169a2.868 2.868 0 0 1-.208.412 5.418 5.418 0 0 1-1.96 1.72l-19.32 11.333c-2.754 1.575-11.138-1.736-12.244-4.522a2.884 2.884 0 0 1-.085-.566 8.794 8.794 0 0 1 .016-1.239Z" class="color1e1c6b svgShape"></path><path fill="#ffffff" d="M883.54 784.814c2.272 0 10.29 2.038 10.29 2.038a4.5 4.5 0 0 0 .713 2.076c.081.088.15.179.223.271 1.584 1.1 3.193 2.84-.558 5.194a5.204 5.204 0 0 1-6.755-.48 6.19 6.19 0 0 0-2.18-2.474 5.63 5.63 0 0 0-2.088-.882 1.08 1.08 0 0 0-.023-.19s-.578-5.553.377-5.553Z" class="colorffffff svgShape"></path><path fill="url(#B)" d="M867.074 685.196c-2.392-11.29-29.934-12.691-28.128-57.076 8.643-1.271 52.246 19.176 60.885 17.905 1.082 26.437-1.475 51.037-1.637 76.84-.585 25.15-2.965 43.144-4.155 64.193-1.04 4.055-8.898 3.886-11.047.508-4.298-18.49-9.455-41.03-7.483-63.508-2.573-12.45-5.635-25.648-8.435-38.862Z"></path><path fill="#e33cc5" d="M858.878 541.93c-30.759 20.553-34.426 61.37-17.794 87.274 0 0-3.575-57.394 17.794-87.275Z" class="colore33c5c svgShape"></path><path fill="url(#C)" d="M857.472 653.282c18.722 10.507 38.311 10.53 44.99-2.388-2.5-24.05-4.838-43.62-.02-66.669-1.424-12.73-4.294-20.463-2.665-27.89-10.299-1.41-19.169-17.227-25.146-18.444-25.602-5.227-38.038 40.391-35.897 89.027 1.976 12.933 9.521 21.191 18.738 26.364Z"></path><path fill="#abd5ff" d="M860.434 540.793c5.554-4.011 4.73-6.638 3.897-12.1a27.168 27.168 0 0 1-1.671-9.428c0-12.163 7.745-22.674 17.24-22.02 19.13 1.314 15.725 11.38 15.725 23.543 0 11.27-5.11 19.023-13.657 20.33 0 1.851 3.54 5.813 5.87 8.143-9.348 7.283-18.422-.92-22.024-2.548-3.84-1.737-7.984-3.226-5.38-5.92Z" class="colorffd3ab svgShape"></path><path fill="url(#D)" d="M893.442 557.696c29.53-5.52 48.745-27.296 60.716-48.507l10.002 4.424c-6.085 27.257-27.246 64.889-65.977 71.907-19.589 0-18.049-25.336-4.741-27.824Z"></path><path fill="#abd5ff" d="m955.34 505.617-.039.11c0-4.948 1.037-7.827 2.943-8.67a531.88 531.88 0 0 1 1.263-3.594c2.465-6.902 10.192-12.82 11.832-11.177.99.992-2.938 4.029-5.01 7.314a11.687 11.687 0 0 0-1.726 5.177s9.244.862 9.244 8.546c0 6.244-3.37 3.779-3.37 2.546-2.385 6.327-5.22 2.589-6.317 7.744l-10.002-4.424s.47-1.429 1.182-3.572Z" class="colorffd3ab svgShape"></path><path fill="#6b1c6b" d="M871.491 494.166c2.47-1.27 4.692-.614 6.067-1.496 3.266-2 6.359-3.274 8.092-2.324a18.74 18.74 0 0 1 2.43 1.935c1.703 1.7 5.192-1.92 6.028 2.47a16.534 16.534 0 0 1 .289 3.415c8.169 1.05 4.148 8.49-2.419 22.82-.008-2.326-4.95-7.703-4.95 2.635 0 1.111.833 1.329.101 2.804-.732 1.468-5.427 5.177-8.524 8.273-4.321 4.322-6.86.447-14.004 1.225a11.407 11.407 0 0 0-1.88-6.517c-.685-1.21-4.606-5.057-4.61-11.77 5.546.683-4.314-14.353 13.38-23.47Z" class="color1e1c6b svgShape"></path><path d="M1319.984 946.79c-15.005-8.662-34.95-12.655-54.543-12.069h-30.709v5.034a81.446 81.446 0 0 0-16.252 7.035c-27.925 16.238-27.761 42.56.344 58.79a81.698 81.698 0 0 0 15.908 6.897v5.266h36.832c17.711-.3 35.278-4.317 48.754-12.15 27.936-16.243 27.793-42.565-.334-58.803Z" style="mix-blend-mode:multiply" fill="url(#E)"></path><path fill="#a1d0ff" d="M1164.758 957.122c-.004-10.385 6.855-20.77 20.586-28.698 13.726-7.921 31.715-11.89 49.709-11.89 17.986 0 35.972 3.969 49.695 11.89 13.729 7.928 20.596 18.313 20.596 28.698 0 10.386-6.864 20.773-20.596 28.7-13.719 7.925-31.705 11.886-49.695 11.886s-35.979-3.961-49.705-11.887c-13.727-7.926-20.59-18.313-20.59-28.7Z" class="colorffc9a1 svgShape"></path><path fill="url(#e)" d="M1284.748 985.821c-13.719 7.926-31.705 11.887-49.695 11.887s-35.979-3.961-49.705-11.887c-13.727-7.926-20.59-18.313-20.59-28.7v20.036c0 10.385 6.863 20.771 20.59 28.697 13.726 7.926 31.715 11.889 49.705 11.889s35.976-3.963 49.695-11.885c13.732-7.924 20.596-18.316 20.596-28.701v-20.035c0 10.386-6.864 20.773-20.596 28.7Z"></path><path fill="#6db6ff" d="M1194.684 980.428c11.148 6.432 25.757 9.657 40.369 9.657 14.607 0 29.217-3.225 40.363-9.657 10.287-5.935 15.818-13.582 16.604-21.35-.786-7.77-6.317-15.413-16.604-21.353-11.15-6.441-25.76-9.656-40.371-9.656-14.607 0-29.217 3.215-40.37 9.656-10.277 5.94-15.806 13.578-16.603 21.348.797 7.771 6.326 15.416 16.612 21.355Z" class="colorffaf6d svgShape"></path><path fill="url(#F)" d="M1194.676 937.725c11.152-6.441 25.762-9.656 40.369-9.656 14.611 0 29.22 3.215 40.371 9.656 10.287 5.94 15.818 13.582 16.604 21.354a18.335 18.335 0 0 0 .119-1.957c0-8.434-5.57-16.87-16.723-23.305-11.15-6.434-25.76-9.656-40.371-9.656-14.607 0-29.217 3.222-40.37 9.656-11.142 6.436-16.714 14.871-16.714 23.305a18.711 18.711 0 0 0 .111 1.95c.797-7.769 6.326-15.407 16.604-21.347Z"></path><path fill="#e33cc5" d="m1263.174 948.741 5.4-3.119v-3.905l-5.4 3.114v3.91z" class="colore33c5c svgShape"></path><path fill="#a1d0ff" d="M1238.268 955.268c-2.014-1.164-3.13-2.71-3.13-4.353s1.116-3.19 3.13-4.352a16.667 16.667 0 0 1 15.072-.002c4.16 2.399 4.16 6.309 0 8.707l6.844 3.944c6.748-3.893 7.73-9.866 2.99-14.381l5.4-3.114-6.84-3.953-5.398 3.12c-7.818-2.737-18.164-2.167-24.912 1.734-3.844 2.213-5.955 5.16-5.955 8.297 0 3.134 2.115 6.086 5.955 8.297 4.16 2.406 4.16 6.308 0 8.71a16.675 16.675 0 0 1-15.076 0c-4.16-2.402-4.16-6.304 0-8.71l-6.836-3.944c-6.756 3.897-7.739 9.865-3 14.381l-4.977 2.877 6.84 3.947 4.984-2.877c7.817 2.739 18.155 2.178 24.909-1.718 7.923-4.584 7.923-12.03 0-16.61Z" class="colorffc9a1 svgShape"></path><path fill="#ff6ae4" d="m1201.535 976.432 6.84 3.951v-3.91l-6.84-3.947v3.906z" class="colorff826a svgShape"></path><path fill="#e33cc5" d="m1208.375 980.383 4.984-2.88v-3.907l-4.984 2.877v3.91z" class="colore33c5c svgShape"></path><path fill="#ff6ae4" d="m1253.34 959.172 6.844 3.95v-3.91l-6.844-3.944v3.904z" class="colorff826a svgShape"></path><path fill="#e33cc5" d="M1216.348 963.122v-3.91c-2.95 1.71-3.801 4.168-2.559 6.308a6.741 6.741 0 0 1 2.559-2.398Z" class="colore33c5c svgShape"></path><path fill="#ff6ae4" d="m1203.57 963.374.008 4.396.012-.01a7.536 7.536 0 0 0 .851 3.088l2.07-1.199a8.392 8.392 0 0 1-2.925-6.266ZM1231.424 963.12a6.838 6.838 0 0 1 2.564 2.4c1.235-2.14.381-4.598-2.564-6.308-3.84-2.211-5.955-5.163-5.955-8.297v3.908c0 3.137 2.115 6.082 5.955 8.297Z" class="colorff826a svgShape"></path><path fill="#fb05ce" d="M1244.213 963.55v-.079h-.008c0 .026.008.051.008.078Z" class="colorfbba05 svgShape"></path><path fill="#e33cc5" d="M1266.104 950.909c.01 3.008-1.95 6.02-5.92 8.303v3.91c4.072-2.346 6.027-5.45 5.916-8.53l.013.016v-3.7Z" class="colore33c5c svgShape"></path><path fill="url(#G)" d="M1238.268 971.878c-6.754 3.896-17.092 4.457-24.909 1.718v3.907c7.817 2.74 18.155 2.173 24.909-1.725 3.933-2.268 5.904-5.25 5.937-8.229l.008.01v-3.967c-.008 2.996-1.992 6-5.945 8.286Z"></path><path fill="#e33cc5" d="M1253.34 946.561a16.667 16.667 0 0 0-15.072.002c-2.014 1.162-3.13 2.71-3.13 4.352a3.896 3.896 0 0 0 .561 1.955 6.813 6.813 0 0 1 2.569-2.399 16.655 16.655 0 0 1 15.072-.002 6.77 6.77 0 0 1 2.562 2.4c1.237-2.146.393-4.607-2.562-6.308Z" class="colore33c5c svgShape"></path><path style="mix-blend-mode:multiply" fill="url(#H)" d="m633.444 892.239-163.22 1.477v98.826l163.22-1.477v-98.826z"></path><path fill="#f1f3f6" d="M480.907 932.01c-5.577 3.22-14.702 3.217-20.28-.002l-67.552-39.003c-5.575-3.222-5.576-8.488.001-11.709l66.471-38.377c5.58-3.22 14.703-3.22 20.28 0l67.552 39.003c5.578 3.22 5.58 8.487.005 11.707Z" class="colorf1f1f6 svgShape"></path><path fill="url(#f)" d="M388.902 906.304h.011c-.1 2.2 1.276 4.414 4.166 6.081l67.552 39.004c5.576 3.22 14.701 3.219 20.279-.001l66.471-38.378c2.921-1.686 4.295-3.932 4.157-6.148V888.07c-.122 2.023-1.496 4.025-4.154 5.56l-66.477 38.38c-5.577 3.22-14.702 3.218-20.28 0l-67.552-39.004c-2.753-1.592-4.143-3.682-4.176-5.778Z"></path><path fill="url(#I)" d="m388.906 925.684.011.001c-.1 2.2 1.276 4.413 4.165 6.08l67.552 39.004c5.576 3.22 14.702 3.22 20.28 0l66.47-38.378c2.922-1.687 4.296-3.933 4.158-6.148V907.45c-.122 2.023-1.496 4.024-4.154 5.56l-66.477 38.38c-5.577 3.22-14.702 3.218-20.28-.001l-67.552-39.004c-2.753-1.592-4.143-3.682-4.176-5.778Z"></path><path fill="url(#J)" d="m388.91 945.064.011.002c-.1 2.199 1.275 4.413 4.165 6.08l67.552 39.003c5.576 3.22 14.702 3.22 20.28 0l66.47-38.377c2.922-1.687 4.296-3.933 4.158-6.149V926.83c-.122 2.023-1.496 4.024-4.154 5.56l-66.477 38.38c-5.578 3.22-14.702 3.218-20.28-.001l-67.553-39.003c-2.753-1.592-4.142-3.683-4.175-5.778Z"></path><path fill="#cee3f8" d="m434.237 898.87 5.481-22.814 14.445.565-3.11 12.691 62.7-4.959 1.211 8.088-80.727 6.429z" class="colorced3f8 svgShape"></path><path style="mix-blend-mode:multiply" fill="url(#g)" d="M1028.529 1019.38H926.293l34.816 20.1-34.816 20.103h102.236l34.817-20.103-34.817-20.1z"></path><path style="mix-blend-mode:multiply" fill="url(#K)" d="M977.555 1045.292h-96.363l34.815 20.102-34.815 20.099h96.363l34.814-20.099-34.814-20.102z"></path><path style="mix-blend-mode:multiply" fill="url(#L)" d="M922.012 1071.205H836.09l34.816 20.101-34.816 20.101h85.922l34.814-20.101-34.814-20.101z"></path><path style="mix-blend-mode:multiply" fill="url(#M)" d="M1073.63 993.466H971.393l34.817 20.099-34.817 20.104h102.237l34.816-20.104-34.816-20.099z"></path><path fill="#cee1f4" d="m936.575 916.773 34.816 20.1v96.792l-34.816-20.102v-96.79z" class="colorced2f4 svgShape"></path><path fill="#bbcee2" d="m1006.206 916.773-34.815 20.1v96.792l34.815-20.102v-96.79z" class="colorbbbfe2 svgShape"></path><path fill="#f4f6f8" d="m971.391 896.674-34.816 20.099 34.816 20.1 34.815-20.1-34.815-20.099z" class="colorf5f5fa svgShape"></path><path fill="#ff5ae1" d="m936.575 916.773 34.815 20.102v39.11l-34.815-20.101v-39.111z" class="colorff5a72 svgShape"></path><path fill="#a50b89" d="m1006.206 916.773-34.816 20.102v39.11l34.816-20.101v-39.111z" class="colorc62c51 svgShape"></path><path fill="#6db6ff" d="m971.39 896.672-34.815 20.101 34.815 20.102 34.816-20.102-34.816-20.101z" class="colorffaf6d svgShape"></path><path fill="#cee1f4" d="m891.475 960.3 34.816 20.099v79.18l-34.816-20.101V960.3z" class="colorced2f4 svgShape"></path><path fill="#bbcee2" d="m961.105 960.3-34.814 20.099v79.18l34.814-20.101V960.3z" class="colorbbbfe2 svgShape"></path><path fill="#f4f6f8" d="M926.291 940.201 891.475 960.3l34.816 20.099 34.814-20.099-34.814-20.099z" class="colorf5f5fa svgShape"></path><path fill="#ff5ae1" d="m891.477 960.298 34.814 20.101v21.775l-34.814-20.102v-21.774z" class="colorff5a72 svgShape"></path><path fill="#a50b89" d="m961.107 960.298-34.816 20.101v21.775l34.816-20.102v-21.774z" class="colorc62c51 svgShape"></path><path fill="#6db6ff" d="m926.291 940.197-34.814 20.101 34.814 20.101 34.816-20.101-34.816-20.101z" class="colorffaf6d svgShape"></path><path fill="#5a52ca" d="m846.374 939.968 34.816 20.099v125.426l-34.816-20.101V939.968z" class="color5652ca svgShape"></path><path fill="#453ead" d="m916.007 940.167-34.817 20.099v125.227l34.817-20.101V940.167z" class="color423ead svgShape"></path><path fill="#6f67e7" d="m881.19 920.265-34.816 20.102 34.816 20.099 34.817-20.099-34.817-20.102z" class="color6b67e7 svgShape"></path><path fill="#cee1f4" d="m801.276 1049.43 34.814 20.102v41.875l-34.814-20.101v-41.876z" class="colorced2f4 svgShape"></path><path fill="#bbcee2" d="m870.906 1049.43-34.816 20.102v41.875l34.816-20.101v-41.876z" class="colorbbbfe2 svgShape"></path><path fill="#f4f6f8" d="m836.09 1029.329-34.814 20.101 34.814 20.102 34.816-20.102-34.816-20.101z" class="colorf5f5fa svgShape"></path><path fill="#dae7f5" d="M1171.306 247.296c0-13.281 9.324-18.665 20.827-12.024s20.826 22.791 20.826 36.073c0 13.281-9.324 18.664-20.826 12.024-11.503-6.641-20.827-22.791-20.827-36.073Z" class="colordae0f5 svgShape"></path><path fill="#ffffff" d="M1192.132 269.117a2.003 2.003 0 0 1-1.732-1l-9.73-16.855a2 2 0 0 1 3.464-2l8.73 15.123 23.05-13.308a2 2 0 1 1 2 3.465l-24.782 14.307a2.004 2.004 0 0 1-1 .268Z" class="colorffffff svgShape"></path><ellipse cx="1427.994" cy="536.78" fill="#dae7f5" rx="17.005" ry="29.453" transform="rotate(-30 1427.994 536.78)" class="colordae0f5 svgShape"></ellipse><path fill="#ffffff" d="M1427.994 546.577a2.027 2.027 0 0 1-.518-.068 2.003 2.003 0 0 1-1.215-.932l-9.73-16.855a2 2 0 0 1 3.465-2l8.73 15.123 23.049-13.31a2 2 0 0 1 2 3.466l-24.781 14.308a2.013 2.013 0 0 1-1 .268Z" class="colorffffff svgShape"></path><path fill="#dae7f5" d="M1342.592 157.516c0-13.281 9.324-18.664 20.827-12.024 11.502 6.64 20.826 22.791 20.826 36.073s-9.324 18.664-20.826 12.024c-11.503-6.641-20.827-22.791-20.827-36.073Z" class="colordae0f5 svgShape"></path><path fill="#ffffff" d="M1363.421 179.337a2 2 0 0 1-1.734-1l-9.733-16.855a2 2 0 0 1 3.465-2l8.733 15.122 23.048-13.307a2 2 0 1 1 2 3.464l-24.78 14.308a1.989 1.989 0 0 1-.999.268Z" class="colorffffff svgShape"></path><path style="mix-blend-mode:multiply" fill="url(#N)" d="M206.992 970.845h-37.736l23.953 13.828-23.953 13.828h37.736l23.948-13.828-23.948-13.828z"></path><path fill="#bbd0e6" d="m169.256 998.501 23.953-13.828v-27.654l-23.953 13.826v27.656z" class="colorbbc0e6 svgShape"></path><path fill="#cee3f8" d="m169.256 998.501-23.948-13.828v-27.654l23.948 13.826v27.656z" class="colorced3f8 svgShape"></path><path fill="#f4f6f8" d="m169.256 970.845-23.948-13.826 23.948-13.824 23.953 13.824-23.953 13.826z" class="colorf6f6fb svgShape"></path></g></g></g></svg>