<svg xmlns="http://www.w3.org/2000/svg" xmlns:xlink="http://www.w3.org/1999/xlink" viewBox="0 0 800 700" id="Peoplerunningalongascendingarrowchartandmoney"><defs><linearGradient id="a" x1="378.07" x2="452.14" y1="298.56" y2="298.56" gradientUnits="userSpaceOnUse"><stop offset="0" stop-color="#d1e2f3" class="stopColord1d7f3 svgShape"></stop><stop offset="1" stop-color="#ffffff" class="stopColorffffff svgShape"></stop></linearGradient><linearGradient id="m" x1="252.15" x2="316.1" y1="364.85" y2="364.85" xlink:href="#a"></linearGradient><linearGradient id="n" x1="334.67" x2="418.72" y1="367.57" y2="367.57" xlink:href="#a"></linearGradient><linearGradient id="o" x1="452.36" x2="526.44" y1="300.8" y2="300.8" xlink:href="#a"></linearGradient><linearGradient id="p" x1="522.16" x2="768.25" y1="334.14" y2="334.14" gradientUnits="userSpaceOnUse"><stop offset="0" stop-color="#c4d6e9" class="stopColorc4cae9 svgShape"></stop><stop offset="1" stop-color="#ffffff" class="stopColorffffff svgShape"></stop></linearGradient><linearGradient id="q" x1="274.2" x2="391.71" y1="515.52" y2="474.13" xlink:href="#a"></linearGradient><linearGradient id="r" x1="362.47" x2="532.91" y1="421.96" y2="421.96" xlink:href="#a"></linearGradient><linearGradient id="s" x1="313.23" x2="587.94" y1="583" y2="107.17" gradientUnits="userSpaceOnUse"><stop offset="0" stop-color="#fb4bdb" class="stopColorfb944b svgShape"></stop><stop offset=".25" stop-color="#6bb5ff" class="stopColorffc16b svgShape"></stop><stop offset=".26" stop-color="#65b0fc" class="stopColorfcb765 svgShape"></stop><stop offset=".27" stop-color="#f354d6" class="stopColorf39d54 svgShape"></stop><stop offset=".28" stop-color="#e53ac6" class="stopColore5723a svgShape"></stop><stop offset=".28" stop-color="#e539c6" class="stopColore57139 svgShape"></stop><stop offset=".31" stop-color="#fb4bdb" class="stopColorfb944b svgShape"></stop><stop offset=".42" stop-color="#5dadfd" class="stopColorfdad5d svgShape"></stop><stop offset=".53" stop-color="#6bb5ff" class="stopColorffc16b svgShape"></stop><stop offset=".53" stop-color="#66b1fc" class="stopColorfcb866 svgShape"></stop><stop offset=".55" stop-color="#f457d7" class="stopColorf4a057 svgShape"></stop><stop offset=".56" stop-color="#e83ec9" class="stopColore87a3e svgShape"></stop><stop offset=".57" stop-color="#e539c6" class="stopColore57139 svgShape"></stop><stop offset=".59" stop-color="#fb4bdb" class="stopColorfb944b svgShape"></stop><stop offset=".74" stop-color="#5cacfd" class="stopColorfdad5c svgShape"></stop><stop offset=".88" stop-color="#67b3ff" class="stopColorffbc67 svgShape"></stop><stop offset="1" stop-color="#6bb5ff" class="stopColorffc16b svgShape"></stop></linearGradient><linearGradient id="t" x1="790.01" x2="673.84" y1="409.65" y2="359.34" gradientTransform="matrix(-.87 .5 1 .58 412.13 -15.82)" gradientUnits="userSpaceOnUse"><stop offset="0" stop-color="#ffffff" class="stopColorffffff svgShape"></stop><stop offset="1" stop-color="#fb4bdb" class="stopColorfb944b svgShape"></stop></linearGradient><linearGradient id="b" x1="528.51" x2="577.34" y1="622.38" y2="622.38" gradientUnits="userSpaceOnUse"><stop offset="0" stop-color="#d1e2f3" class="stopColord1d7f3 svgShape"></stop><stop offset=".08" stop-color="#d7e6f4" class="stopColord7dcf4 svgShape"></stop><stop offset=".55" stop-color="#f4f8fc" class="stopColorf4f5fc svgShape"></stop><stop offset=".82" stop-color="#ffffff" class="stopColorffffff svgShape"></stop></linearGradient><linearGradient id="c" x1="585.1" x2="655.35" y1="589.88" y2="589.88" gradientUnits="userSpaceOnUse"><stop offset="0" stop-color="#d1e2f3" class="stopColord1d7f3 svgShape"></stop><stop offset=".71" stop-color="#ffffff" class="stopColorffffff svgShape"></stop></linearGradient><linearGradient id="u" x1="30.89" x2="79.72" y1="478.76" y2="478.76" xlink:href="#b"></linearGradient><linearGradient id="v" x1="87.47" x2="157.73" y1="446.26" y2="446.26" xlink:href="#c"></linearGradient><linearGradient id="d" x1="153.49" x2="183.6" y1="484.29" y2="484.29" gradientUnits="userSpaceOnUse"><stop offset="0" stop-color="#c2d2e3" class="stopColorc2c7e3 svgShape"></stop><stop offset=".25" stop-color="#dde6ef" class="stopColordde0ef svgShape"></stop><stop offset=".54" stop-color="#f6f8fb" class="stopColorf6f7fb svgShape"></stop><stop offset=".72" stop-color="#ffffff" class="stopColorffffff svgShape"></stop></linearGradient><linearGradient id="w" x1="198.93" x2="265.26" y1="458.06" y2="458.06" xlink:href="#d"></linearGradient><linearGradient id="x" x1="176.21" x2="221.59" y1="471.17" y2="471.17" xlink:href="#d"></linearGradient><linearGradient id="y" x1="189.25" x2="207.55" y1="441.11" y2="441.11" gradientUnits="userSpaceOnUse"><stop offset="0" stop-color="#e539c6" class="stopColore57139 svgShape"></stop><stop offset="1" stop-color="#c82bab" class="stopColorc85a2b svgShape"></stop></linearGradient><linearGradient id="z" x1="166.53" x2="184.83" y1="461.57" y2="461.57" gradientUnits="userSpaceOnUse"><stop offset="0" stop-color="#cce1f6" class="stopColorccd1f6 svgShape"></stop><stop offset="1" stop-color="#a1b7ce" class="stopColora1a7ce svgShape"></stop></linearGradient><linearGradient id="A" x1="143.81" x2="162.11" y1="480.59" y2="480.59" gradientUnits="userSpaceOnUse"><stop offset="0" stop-color="#5a52cc" class="stopColor5652cc svgShape"></stop><stop offset="1" stop-color="#453eaf" class="stopColor423eaf svgShape"></stop></linearGradient><linearGradient id="e" x1="412.04" x2="447.73" y1="426.43" y2="426.43" gradientUnits="userSpaceOnUse"><stop offset="0" stop-color="#d1e2f3" class="stopColord1d7f3 svgShape"></stop><stop offset=".38" stop-color="#dfebf7" class="stopColordfe3f7 svgShape"></stop><stop offset="1" stop-color="#ffffff" class="stopColorffffff svgShape"></stop></linearGradient><linearGradient id="B" x1="897.08" x2="920.02" y1="405.08" y2="405.08" gradientTransform="matrix(-.5 -.86 -.86 .5 1191.24 947.32)" gradientUnits="userSpaceOnUse"><stop offset="0" stop-color="#cee3f8" class="stopColorced3f8 svgShape"></stop><stop offset=".88" stop-color="#bed3e8" class="stopColorbec3e8 svgShape"></stop><stop offset="1" stop-color="#bbd0e6" class="stopColorbbc0e6 svgShape"></stop></linearGradient><linearGradient id="f" x1="1230.23" x2="1242.02" y1="400.29" y2="400.29" gradientTransform="matrix(-.9 .43 .43 .9 1356.03 -476.39)" gradientUnits="userSpaceOnUse"><stop offset="0" stop-color="#453eaf" class="stopColor423eaf svgShape"></stop><stop offset="1" stop-color="#453eaf" class="stopColor423eaf svgShape"></stop></linearGradient><linearGradient id="C" x1="385.24" x2="414.47" y1="401.99" y2="401.99" gradientUnits="userSpaceOnUse"><stop offset="0" stop-color="#453eaf" class="stopColor423eaf svgShape"></stop><stop offset=".56" stop-color="#2e2888" class="stopColor2d2888 svgShape"></stop><stop offset="1" stop-color="#6f196f" class="stopColor20196f svgShape"></stop></linearGradient><linearGradient id="D" x1="824.74" x2="856.69" y1="373.04" y2="373.04" gradientTransform="rotate(2.11 620.75 -11556.017)" gradientUnits="userSpaceOnUse"><stop offset="0" stop-color="#dae7f5" class="stopColordae0f5 svgShape"></stop><stop offset=".22" stop-color="#d4e3f2" class="stopColord4daf2 svgShape"></stop><stop offset="1" stop-color="#c4d6e9" class="stopColorc4cae9 svgShape"></stop></linearGradient><linearGradient id="E" x1="599.77" x2="631.06" y1="367.55" y2="367.55" gradientTransform="matrix(-.98 .19 .19 .98 941.83 -112.23)" gradientUnits="userSpaceOnUse"><stop offset="0" stop-color="#c4d6e9" class="stopColorc4cae9 svgShape"></stop><stop offset=".61" stop-color="#e6edf5" class="stopColore6e8f5 svgShape"></stop><stop offset="1" stop-color="#f6f8fb" class="stopColorf6f6fb svgShape"></stop></linearGradient><linearGradient id="F" x1="285.83" x2="324.21" y1="498.39" y2="498.39" xlink:href="#e"></linearGradient><linearGradient id="h" x1="892.46" x2="916.13" y1="563.85" y2="563.85" gradientTransform="scale(-1 1) rotate(-61.9 216.84 1469.051)" gradientUnits="userSpaceOnUse"><stop offset="0" stop-color="#6f67e9" class="stopColor6b67e9 svgShape"></stop><stop offset=".22" stop-color="#756dee" class="stopColor706dee svgShape"></stop><stop offset="1" stop-color="#857dfb" class="stopColor807dfb svgShape"></stop></linearGradient><linearGradient id="G" x1="892.46" x2="916.13" y1="550.47" y2="550.47" gradientTransform="scale(-1 1) rotate(-61.9 216.84 1469.051)" gradientUnits="userSpaceOnUse"><stop offset="0" stop-color="#bbd0e6" class="stopColorbbc0e6 svgShape"></stop><stop offset=".12" stop-color="#bed3e8" class="stopColorbec3e8 svgShape"></stop><stop offset="1" stop-color="#cee3f8" class="stopColorced3f8 svgShape"></stop></linearGradient><linearGradient id="H" x1="1374.26" x2="1386.94" y1="410.09" y2="410.09" xlink:href="#f"></linearGradient><linearGradient id="g" x1="256.39" x2="280.03" y1="470.7" y2="470.7" gradientUnits="userSpaceOnUse"><stop offset="0" stop-color="#5a52cc" class="stopColor5652cc svgShape"></stop><stop offset=".51" stop-color="#453ead" class="stopColor443ead svgShape"></stop><stop offset="1" stop-color="#342e94" class="stopColor362e94 svgShape"></stop></linearGradient><linearGradient id="i" x1="1448.1" x2="1470.14" y1="443.51" y2="443.51" gradientTransform="matrix(-1 0 0 1 1728.99 0)" gradientUnits="userSpaceOnUse"><stop offset="0" stop-color="#bbd0e6" class="stopColorbbc0e6 svgShape"></stop><stop offset=".66" stop-color="#e6edf5" class="stopColore6e7f5 svgShape"></stop><stop offset="1" stop-color="#f6f8fb" class="stopColorf6f6fb svgShape"></stop></linearGradient><linearGradient id="I" x1="266.64" x2="275.4" y1="425.78" y2="425.78" xlink:href="#g"></linearGradient><linearGradient id="J" x1="266.4" x2="281.32" y1="413.22" y2="413.22" xlink:href="#g"></linearGradient><linearGradient id="K" x1="742.88" x2="774.03" y1="428.61" y2="428.61" gradientTransform="matrix(-.98 .18 .18 .98 950.34 -114.79)" xlink:href="#h"></linearGradient><linearGradient id="L" x1="742.88" x2="774.03" y1="421.24" y2="421.24" gradientTransform="matrix(-.98 .18 .18 .98 950.34 -114.79)" xlink:href="#i"></linearGradient><linearGradient id="M" x1="616.73" x2="739.1" y1="340.86" y2="340.86" xlink:href="#a"></linearGradient><linearGradient id="N" x1="-964.15" x2="-900.01" y1="406.37" y2="517.46" gradientTransform="matrix(-1 0 0 1 -299.39 -170.05)" gradientUnits="userSpaceOnUse"><stop offset="0" stop-color="#e33cc5" class="stopColore33c5c svgShape"></stop><stop offset=".99" stop-color="#a50b89" class="stopColorbc3153 svgShape"></stop></linearGradient><linearGradient id="O" x1="683.58" x2="755.81" y1="366.73" y2="366.73" gradientUnits="userSpaceOnUse"><stop offset=".03" stop-color="#c4d4e4" class="stopColorc4c9e4 svgShape"></stop><stop offset="1" stop-color="#ffffff" class="stopColorffffff svgShape"></stop></linearGradient><linearGradient id="j" x1="672.14" x2="721.04" y1="335.79" y2="335.79" gradientUnits="userSpaceOnUse"><stop offset="0" stop-color="#fb4bdb" class="stopColorfb944b svgShape"></stop><stop offset="1" stop-color="#c82bab" class="stopColorc85a2b svgShape"></stop></linearGradient><linearGradient id="k" x1="672.14" x2="721.04" y1="342.76" y2="342.76" gradientUnits="userSpaceOnUse"><stop offset="0" stop-color="#fb4bdb" class="stopColorfb944b svgShape"></stop><stop offset="1" stop-color="#e539c6" class="stopColore57139 svgShape"></stop></linearGradient><linearGradient id="P" x1="672.14" x2="721.04" y1="349.73" y2="349.73" xlink:href="#j"></linearGradient><linearGradient id="Q" x1="672.14" x2="721.04" y1="356.7" y2="356.7" xlink:href="#k"></linearGradient><linearGradient id="R" x1="672.14" x2="721.04" y1="363.67" y2="363.67" xlink:href="#j"></linearGradient><linearGradient id="S" x1="672.14" x2="721.04" y1="370.64" y2="370.64" xlink:href="#k"></linearGradient><linearGradient id="T" x1="676.73" x2="716.45" y1="319.85" y2="319.85" xlink:href="#k"></linearGradient><linearGradient id="U" x1="689.04" x2="699.78" y1="330.21" y2="330.21" xlink:href="#k"></linearGradient><linearGradient id="V" x1="725.89" x2="769.11" y1="378.45" y2="378.45" gradientUnits="userSpaceOnUse"><stop offset=".45" stop-color="#c2d3e5" class="stopColorc2c9e5 svgShape"></stop><stop offset="1" stop-color="#ffffff" class="stopColorffffff svgShape"></stop></linearGradient><linearGradient id="W" x1="714.5" x2="757.03" y1="367.14" y2="367.14" xlink:href="#j"></linearGradient><linearGradient id="X" x1="752.47" x2="709.59" y1="391.46" y2="363.77" gradientUnits="userSpaceOnUse"><stop offset="0" stop-color="#e539c6" class="stopColore57139 svgShape"></stop><stop offset="1" stop-color="#fb4bdb" class="stopColorfb944b svgShape"></stop></linearGradient><linearGradient id="Y" x1="727.56" x2="739.34" y1="376.37" y2="376.37" xlink:href="#j"></linearGradient><linearGradient id="Z" x1="390.9" x2="442.92" y1="574.05" y2="574.05" gradientUnits="userSpaceOnUse"><stop offset=".45" stop-color="#c4d4e4" class="stopColorc4c9e4 svgShape"></stop><stop offset="1" stop-color="#ffffff" class="stopColorffffff svgShape"></stop></linearGradient><linearGradient id="aa" x1="378.98" x2="429.93" y1="578.12" y2="578.12" xlink:href="#j"></linearGradient><linearGradient id="ab" x1="383.77" x2="425.15" y1="561.51" y2="561.51" xlink:href="#k"></linearGradient><linearGradient id="ac" x1="396.6" x2="407.78" y1="572.31" y2="572.31" xlink:href="#k"></linearGradient><linearGradient id="ad" x1="603.85" x2="709.17" y1="425.53" y2="425.53" gradientUnits="userSpaceOnUse"><stop offset="0" stop-color="#d1e2f3" class="stopColord1d7f3 svgShape"></stop><stop offset=".47" stop-color="#e4eef8" class="stopColore4e8f8 svgShape"></stop><stop offset="1" stop-color="#ffffff" class="stopColorffffff svgShape"></stop></linearGradient><linearGradient id="ae" x1="629.23" x2="643.19" y1="449.27" y2="346.17" gradientUnits="userSpaceOnUse"><stop offset="0" stop-color="#cee3f8" class="stopColorced3f8 svgShape"></stop><stop offset=".44" stop-color="#e1eefb" class="stopColore1e4fb svgShape"></stop><stop offset="1" stop-color="#ffffff" class="stopColorffffff svgShape"></stop></linearGradient><linearGradient id="af" x1="507.34" x2="617.78" y1="522.49" y2="522.49" gradientTransform="translate(32.4)" gradientUnits="userSpaceOnUse"><stop offset="0" stop-color="#d1e2f3" class="stopColord1d7f3 svgShape"></stop><stop offset=".31" stop-color="#dbe8f6" class="stopColordbdff6 svgShape"></stop><stop offset=".82" stop-color="#f4f8fc" class="stopColorf4f6fc svgShape"></stop><stop offset="1" stop-color="#ffffff" class="stopColorffffff svgShape"></stop></linearGradient><linearGradient id="l" x1="440.24" x2="504.07" y1="477.45" y2="477.45" gradientTransform="translate(42.41)" gradientUnits="userSpaceOnUse"><stop offset="0" stop-color="#c4d4e5" class="stopColorc4c9e5 svgShape"></stop><stop offset=".24" stop-color="#dde6f0" class="stopColordde0f0 svgShape"></stop><stop offset=".54" stop-color="#f6f8fb" class="stopColorf6f7fb svgShape"></stop><stop offset=".72" stop-color="#ffffff" class="stopColorffffff svgShape"></stop></linearGradient><linearGradient id="ag" x1="358.22" x2="419.31" y1="496.17" y2="496.17" gradientTransform="translate(97.64)" xlink:href="#l"></linearGradient><linearGradient id="ah" x1="276.21" x2="332.43" y1="514.89" y2="514.89" gradientTransform="translate(152.86)" xlink:href="#l"></linearGradient><linearGradient id="ai" x1="668.42" x2="721.4" y1="518.64" y2="518.64" xlink:href="#a"></linearGradient></defs><g style="isolation:isolate" fill="#010001" class="color000000 svgShape"><g fill="#010001" class="color000000 svgShape"><g data-name="Flat arrow" fill="#010001" class="color000000 svgShape"><path style="mix-blend-mode:multiply" fill="url(#a)" d="M378.07 288.82h74.07v19.47h-74.07z"></path><path fill="#f4f6f8" d="m378.07 308.29-3.05-1.76v-65.88l3.05 1.76v65.88z" class="color6b67e9 svgShape"></path><path fill="#857dfb" d="m367.61 248.45-3.05-1.76 24.52-59.59 3.05 1.76-24.52 59.59z" class="color807dfb svgShape"></path><path fill="#453eaf" d="m392.13 188.86-24.52 59.59 10.46-6.04v65.88l28.11-16.23v-65.88l10.46-6.04-24.51-31.28z" class="color423eaf svgShape"></path><path style="mix-blend-mode:multiply" fill="url(#m)" d="M252.15 356.45h63.95v16.81h-63.95z"></path><path fill="#857dfb" d="m252.15 373.26-2.63-1.52v-56.88l2.63 1.52v56.88zM243.13 321.59l-2.63-1.52 21.16-51.44 2.63 1.51-21.16 51.45z" class="color807dfb svgShape"></path><path fill="#5046e4" d="m264.29 270.14-21.16 51.45 9.02-5.21v56.88l24.28-14.02v-56.88l9.02-5.21-21.16-27.01z" class="color5652cc svgShape"></path><path style="mix-blend-mode:multiply" fill="url(#n)" d="M334.67 356.53h84.05v22.09h-84.05z"></path><path fill="#cee3f8" d="m334.67 378.62-3.46-2V275.9l3.46 2v100.72zM322.81 284.75l-3.46-2 27.82-67.61 3.45 1.99-27.81 67.62z" class="colorced3f8 svgShape"></path><path fill="#bbd0e6" d="m350.62 217.13-27.81 67.62 11.86-6.85v100.72l31.91-18.42V259.48l11.86-6.85-27.82-35.5z" class="colorbbc0e6 svgShape"></path><path style="mix-blend-mode:multiply" fill="url(#o)" d="M452.36 291.07h74.07v19.47h-74.07z"></path><path fill="#cee3f8" d="m452.36 310.54-3.04-1.76V242.9l3.04 1.76v65.88zM441.91 250.69l-3.05-1.75 24.52-59.59 3.04 1.76-24.51 59.58z" class="colorced3f8 svgShape"></path><path fill="#bbd0e6" d="m466.42 191.11-24.51 59.58 10.45-6.03v65.88l28.12-16.23v-65.88l10.46-6.04-24.52-31.28z" class="colorbbc0e6 svgShape"></path><path d="M525.09 332c-1.11.64-2.08 1.26-2.93 1.87l60.39 31.31c18.28-10.36 103.65-20.86 185.69-26.06v-35.98c-94.7 2.93-220.47 15.97-243.15 28.86Z" style="mix-blend-mode:multiply" fill="url(#p)"></path><path d="M376.22 455c-.33.2-.67.39-1 .59-23.76 12.71-73.9 25.63-135.17 41l19.21 55.26c50.14-29 131.08-45.59 158-56.12Z" style="mix-blend-mode:multiply" fill="url(#q)"></path><path d="M369.4 421.86c-12 5.61-6.23 10.49.85 15.42l-1.34-7.28 53.66 27.53a22.49 22.49 0 0 1 4.29-2.52c15.43-7.23 50.86-15.48 106-21.85v-46.8c-68.28 9.33-139.16 24.1-163.46 35.5Z" style="mix-blend-mode:multiply" fill="url(#r)"></path><path fill="url(#s)" d="m604.71 116.86-41.53 51.65L576 175.9c-1.53 55.35-26.42 141.68-50.89 156.06-31 18.22-46.66-26.61-78.08-8.11-30.2 17.79-53.38 80.77-77.61 98-20.85 14.82-35.83-17.4-58.39-3.35-22 13.73-74.18 79.88-109.25 100.13l57.46 33.18c38.25-22.09 87.22-86.41 109.25-100.13C391 437.64 406 469.86 426.86 455c24.23-17.23 47.41-80.22 77.61-98 31.42-18.5 47.11 26.34 78.08 8.12 24.47-14.39 49.36-100.71 50.89-156.06l12.81 7.39Z"></path><path fill="url(#t)" d="m120.02 632.18 139.2-80.36-57.46-33.18-139.2 80.37 57.46 33.17z"></path><path fill="url(#b)" d="M530 630.35a1.5 1.5 0 0 1-.65-2.86c9-4.24 22.79-7.49 35-10.36 3.94-.92 7.65-1.8 11.13-2.68a1.5 1.5 0 0 1 .74 2.91c-3.51.89-7.23 1.77-11.18 2.69-12 2.84-25.69 6.05-34.37 10.16a1.64 1.64 0 0 1-.67.14Z"></path><path fill="url(#c)" d="M586.6 598.94a1.5 1.5 0 0 1-.64-2.86c6.7-3.14 19-5 32-6.91 14.09-2.11 28.66-4.28 35.15-8.15a1.5 1.5 0 0 1 1.53 2.58c-7 4.17-21.86 6.39-36.24 8.53-12.21 1.83-24.84 3.71-31.15 6.67a1.41 1.41 0 0 1-.65.14Z"></path><path fill="none" stroke="#857dfb" stroke-linecap="round" stroke-linejoin="round" stroke-width="3" d="M530 628.85c14.56-10.26 22.06-31.38 33-36.32 10.48-4.71 14.53 11.35 24.21 4.47 11.26-8 13.1-31.5 26.21-38.83" class="colorStroke807dfb svgStroke"></path><path fill="none" stroke="#857dfb" stroke-linecap="round" stroke-linejoin="round" stroke-width="3" d="m600.06 557.52 13.42.65-.62 12.86" class="colorStroke807dfb svgStroke"></path><path fill="url(#u)" d="M32.39 486.73a1.5 1.5 0 0 1-.64-2.86c9-4.24 22.79-7.49 35-10.36 3.93-.92 7.65-1.8 11.13-2.68a1.5 1.5 0 0 1 .74 2.91c-3.51.89-7.24 1.76-11.18 2.69-12 2.84-25.69 6.05-34.38 10.15a1.43 1.43 0 0 1-.67.15Z"></path><path fill="url(#v)" d="M89 455.32a1.5 1.5 0 0 1-.64-2.86c6.7-3.14 19-5 32-6.92 14.09-2.1 28.65-4.27 35.14-8.14a1.5 1.5 0 1 1 1.5 2.6c-7 4.17-21.86 6.39-36.24 8.53-12.21 1.83-24.84 3.71-31.15 6.67a1.44 1.44 0 0 1-.61.12Z"></path><path fill="none" stroke="#857dfb" stroke-linecap="round" stroke-linejoin="round" stroke-width="3" d="M32.39 485.23C47 475 54.45 453.85 65.44 448.91c10.48-4.71 14.52 11.35 24.21 4.47 11.25-8 13.1-31.5 26.21-38.84" class="colorStroke807dfb svgStroke"></path><path fill="none" stroke="#857dfb" stroke-linecap="round" stroke-linejoin="round" stroke-width="3" d="m102.44 413.9 13.42.64-.62 12.87" class="colorStroke807dfb svgStroke"></path><path d="M180.91 480.56a13.19 13.19 0 0 0-6.46-1.55h-21v10.56h21a13.25 13.25 0 0 0 6.47-1.54c1.78-1 2.68-2.39 2.68-3.74s-.9-2.7-2.69-3.73Z" style="mix-blend-mode:multiply" fill="url(#d)"></path><path d="M262.58 454.32a13.19 13.19 0 0 0-6.46-1.54h-57.19v10.56h57.19a13.19 13.19 0 0 0 6.46-1.55c1.79-1 2.68-2.38 2.68-3.73s-.89-2.7-2.68-3.74Z" style="mix-blend-mode:multiply" fill="url(#w)"></path><path d="M218.91 467.44a13.19 13.19 0 0 0-6.46-1.55h-36.24v10.57h36.24a13.19 13.19 0 0 0 6.46-1.55c1.79-1 2.68-2.38 2.68-3.73s-.89-2.71-2.68-3.74Z" style="mix-blend-mode:multiply" fill="url(#x)"></path><path fill="url(#y)" d="M189.25 418.89v39.17c0 1.35.9 2.7 2.68 3.73a14.32 14.32 0 0 0 12.94 0c1.78-1 2.68-2.38 2.68-3.73v-39.17Z"></path><path fill="#6db6ff" d="M191.93 415.15a14.32 14.32 0 0 1 12.94 0c1.78 1 2.68 2.38 2.68 3.74s-.9 2.7-2.68 3.73a14.32 14.32 0 0 1-12.94 0c-1.78-1-2.68-2.38-2.68-3.73s.9-2.71 2.68-3.74Z" class="colorffaf6d svgShape"></path><path fill="url(#z)" d="M166.53 446.67v24.51c0 1.35.9 2.7 2.68 3.73a14.32 14.32 0 0 0 12.94 0c1.78-1 2.68-2.38 2.68-3.73v-24.51Z"></path><path fill="#e8eff7" d="M169.21 442.94a14.32 14.32 0 0 1 12.94 0c1.78 1 2.68 2.38 2.68 3.73s-.9 2.71-2.68 3.74a14.32 14.32 0 0 1-12.94 0c-1.78-1-2.68-2.38-2.68-3.74s.9-2.67 2.68-3.73Z" class="colore8ecf7 svgShape"></path><path fill="url(#A)" d="M143.81 471.6v12.69c0 1.35.9 2.7 2.68 3.74a14.32 14.32 0 0 0 12.94 0c1.78-1 2.68-2.39 2.68-3.74V471.6Z"></path><path fill="#857dfb" d="M146.49 467.87a14.26 14.26 0 0 1 12.94 0c1.78 1 2.68 2.38 2.68 3.73s-.9 2.7-2.68 3.74a14.32 14.32 0 0 1-12.94 0c-1.78-1-2.68-2.39-2.68-3.74s.9-2.7 2.68-3.73Z" class="color807dfb svgShape"></path><path d="m447.73 426.24-1.81-.19c-11.86-1.11-14.06-1.28-22.69-2l1.84-1c2.91-1.61 3.45-3.11-1.75-3h-.81l-.4.06-.36.08-4 1.45-4.35 1.55a1.55 1.55 0 0 0-1.31 1.65 1 1 0 0 0 .27.5 1.21 1.21 0 0 0 .37.22l.24.06a19.14 19.14 0 0 0 6.79.19h.7c8.37 1.58 10.33 2.49 20.57 4.72a38.6 38.6 0 0 1 6.74 2.24Z" style="mix-blend-mode:multiply" fill="url(#e)"></path><path fill="#a9d2fc" d="M379.46 381.3c-.28 1.56.65 1.68.55 2.54s-.67.72-.7 1.14a1.78 1.78 0 0 1-1 1.69 2.06 2.06 0 0 1-3-.71c-.43-.62-.93-.72-.18-2.84.31-.86 1.13-.72 1.48-2.47a13.82 13.82 0 0 0 2.85.65Z" class="colorfcd1a9 svgShape"></path><path fill="url(#B)" d="M395 358.54c1.36 1.52 1.23 2.72.5 3.49-1.57 1.19-11.29 8.61-12 9.08-1 1.93-2.13 6.41-3.5 10.42-.62 1.81-3.91 1.47-3.92-.49 0-.87 1.11-9.23 2.28-11.62 1.34-3.88 9-10.36 11.87-11.62 2.55-1.15 3.4-.8 4.77.74Z"></path><path fill="#ffffff" d="M374.08 405.93a14.74 14.74 0 0 1-1.73-.21s-.29 6 2.4 4.85c.89-.39.54-4.64-.67-4.64Z" class="colorffffff svgShape"></path><path fill="#6f196f" d="M385.26 384.13c2.83.05 7.45 2.32 10.28 2.37-1.05 10-1.57 14.14-4.58 22.07-1.39 3.65-11.56 2.1-16.25 2.06.81-.93.37-3.85-.63-4.7 2.56.28 6.94-1.68 10.73-1.21a124.57 124.57 0 0 1 .45-20.59Z" class="color20196f svgShape"></path><path fill="#f4f6f8" d="M368 418.33a3.77 3.77 0 0 0 3.53-2.53 11.77 11.77 0 0 1 2.25-4.06c.47-.54.24-2.32-.17-3.75-.19-.67.56-1.48.17-1.94s-2.25-.7-2.79-.79a21 21 0 0 1-1.44 5.69Z" class="color6b67e9 svgShape"></path><path fill="#6f196f" d="M371 405.26c1.5.49 1.74 4.38.66 6.62s-1.74 7.34-4.79 6.38.78-6.35 1-7.43-.37-6.7 3.13-5.57Z" class="color20196f svgShape"></path><path fill="url(#f)" d="M411.4 424.48c-1.91-4 .66-4.73.66-4.73s.82-.45 3.85-2.28c2.79-1.68 5.4-2 5.21 1a1.49 1.49 0 0 1-.33.9l-5.2 4.85c-.59.89-3.78 1.06-4.19.26Z"></path><path fill="#6f196f" d="M411.23 424.11c.06.12.1.24.17.37.41.8 3.59.63 4.19-.25l5.2-4.85a1.49 1.49 0 0 0 .33-.9l-5.71 5.34c-.6.87-3.69 1.05-4.18.29Z" class="color20196f svgShape"></path><path fill="#ffffff" d="M411.06 419.26a26.5 26.5 0 0 1 3.29.25 1.45 1.45 0 0 0 .3.62.3.3 0 0 1 .08.08c.54.28 1.11.76 0 1.64a1.62 1.62 0 0 1-2.12.1 2 2 0 0 0-.78-.69 1.74 1.74 0 0 0-.68-.19.2.2 0 0 0 0-.06s-.38-1.71-.09-1.75Z" class="colorffffff svgShape"></path><path fill="url(#C)" d="M403.33 389.43c-2.72.4-15.28-6.7-18-6.3-1.48 14.75 14.36 19.17 18.23 25.09s4.7 7.1 7.45 11.95c.73 1 3.2.95 3.46-.34-1.53-6.12-2.34-7.16-4.43-14.57a75.07 75.07 0 0 0-6.71-15.83Z"></path><path fill="url(#D)" d="M402.06 357.83c-2.27-1.93-3.5-3-4.62-3.29-9.22-2.24-9.78 14.37-12.44 28.21.54 3.53 1.44 4.61 3.12 5.68 4.07 2.37 13.08 5.06 15.68.47-1.55-4.26-2.41-6-1.27-10.54.7-2.82 2.79-3.63 3.59-6.85-.06-.77-.95-9.81-1.13-10.45-1.72-1.63-2.17-2.58-2.93-3.23Z"></path><path fill="#bbd0e6" d="M406.12 371.51c0-.5-.43-4.48-.74-7.39-.08 1.37-.88 8.95-3.38 12.2s-2.33 12.07-.93 14.71a4.65 4.65 0 0 0 2.75-2.12c-1.55-4.26-2.41-6-1.27-10.54.68-2.83 2.77-3.64 3.57-6.86Z" class="colorbbc0e6 svgShape"></path><path fill="#6f196f" d="M406.28 347.71c-.65-2.83-3.3-7.47-8.4-6.56-4.93.87-6.21 4-6.28 8.94 0 3.14-1.37 2.75-2 4.92-.4 1.32.54 3.18-.56 5a4.94 4.94 0 0 1-2.75 2.25c-3.75 1.41-1.4 3.31.77 3.87 5.25 1.36 3.16-1.22 5.45-1.6 1.34-.22 3.74 1.14 5 .55 2.51-1.18 1.66-2.57 2.87-3.79s2.6-1 4.33-2.91a4.88 4.88 0 0 0 1-5.52c-.63-1.49 1.07-2.95.57-5.15Z" class="color20196f svgShape"></path><path fill="#a9d2fc" d="M421 362.8c1-1 .78-1.88 1.29-2.49s.88-.19 1.12-.5.49-.59 1.61-.53a1.88 1.88 0 0 1 1.88 2.11c0 .69.34 1-1.33 2.25-.67.5-1.22 0-2.38 1.11a13.73 13.73 0 0 0-2.19-1.95Z" class="colorfcd1a9 svgShape"></path><path fill="url(#E)" d="M402.06 363c.53-2.07 2.08-2.51 2.93-1.93a46.33 46.33 0 0 0 9.39 5.7c1.28-.83 2.9-2.11 6.24-4.16 1.9-1.17 4.07 1.18 2.86 2.55-.53.6-7.23 7.68-10.5 6.71-4.28-1.76-6.61-2.21-9-4.38-1.59-1.56-2.39-2.66-1.92-4.49Z"></path><path d="m324.21 498.19-1.94-.2c-12.76-1.2-15.12-1.38-24.4-2.15l2-1.1c3.13-1.73 3.71-3.35-1.88-3.23-.27 0-.57 0-.87.05a3 3 0 0 0-.43.06 1.93 1.93 0 0 0-.38.09l-4.36 1.56-4.67 1.67a1.66 1.66 0 0 0-1.41 1.77 1 1 0 0 0 .29.53 1.22 1.22 0 0 0 .4.24 1 1 0 0 0 .26.06 20.43 20.43 0 0 0 7.3.21h.75c9 1.7 11.11 2.68 22.12 5.08a41.93 41.93 0 0 1 7.25 2.41Z" style="mix-blend-mode:multiply" fill="url(#F)"></path><path fill="#a9d2fc" d="M254.09 448.76c-.35 1.6.73 2.11.6 3s-.72.72-.77 1.15a1.85 1.85 0 0 1-1.12 1.73 2.7 2.7 0 0 1-3.52-1c-.42-.66-.94-.79-.08-3 .35-.88 1.2-.7 1.62-2.5a15.36 15.36 0 0 0 3.27.62Z" class="colorfcd1a9 svgShape"></path><path fill="url(#h)" d="M259.22 429.47c-2.75 2.32-5.37 5.07-6.17 7.14-1.3 2.44-2.77 11.08-2.79 12 0 2 3.51 2.5 4.29.13a64 64 0 0 1 3.86-9.67c.22-.13 1.23-.82 2.62-1.75a7.68 7.68 0 0 0-1.81-7.85Z"></path><path fill="url(#G)" d="M271.13 426.41c-1.35-1.63-2.75-3.32-5.35-1.43a30.74 30.74 0 0 0-6.56 4.49 7.68 7.68 0 0 1 1.78 7.83c3.48-2.36 9.28-6.34 10.48-7.18.81-.78 1-2.07-.35-3.71Z"></path><path fill="url(#H)" d="M285.14 496.3c-2.05-4.25.71-5.09.71-5.09s.89-.48 4.14-2.45c3-1.81 5.81-2.14 5.6 1.09a1.61 1.61 0 0 1-.35 1l-5.59 5.15c-.65 1-4.07 1.16-4.51.3Z"></path><path fill="#6f196f" d="M285 495.9c.06.13.11.26.18.4.44.86 3.86.67 4.51-.27l5.59-5.21a1.61 1.61 0 0 0 .35-1l-6.14 5.74c-.68.96-4 1.15-4.49.34Z" class="color20196f svgShape"></path><path fill="#ffffff" d="M284.78 490.69a26.2 26.2 0 0 1 3.53.26 1.6 1.6 0 0 0 .33.67l.08.08c.58.31 1.19.83 0 1.77a1.76 1.76 0 0 1-2.29.11 2.13 2.13 0 0 0-.83-.74 1.81 1.81 0 0 0-.74-.21.35.35 0 0 0 0-.06s-.4-1.85-.08-1.88Z" class="colorffffff svgShape"></path><path fill="#6f196f" d="M276.46 458.61c-2.92.42-14.19-4.79-17.11-4.36-.5 17.06 12.41 18.26 16.56 24.62s5.86 7.58 8.81 12.8c.79 1.1 3.44 1 3.72-.37-1.64-6.59-1.83-7.52-4.08-15.49-1.43-5.07-4.15-10.25-7.9-17.2Z" class="color20196f svgShape"></path><path fill="#ffffff" d="M256.39 479.62a16.31 16.31 0 0 1-1.85-.22s-.32 6.48 2.57 5.22c.96-.42.58-5-.72-5Z" class="colorffffff svgShape"></path><path fill="url(#g)" d="M261.19 456c3.05.05 15.8 4.31 18.84 4.37-.4 11.47-1.18 14.44-4.43 22.09-2.06 4.84-13.48 2.26-18.53 2.22.87-1 .4-4.14-.68-5.06 2.75.3 6.72-1.8 10.8-1.3a22.16 22.16 0 0 0-1.53-10c-1.94-4.21-5.02-7.27-4.47-12.32Z"></path><path fill="#f4f6f8" d="M249.9 493a4 4 0 0 0 3.79-2.72 12.61 12.61 0 0 1 2.42-4.36c.51-.59.26-2.51-.18-4-.2-.73.61-1.59.18-2.09s-2.42-.76-3-.84a22.54 22.54 0 0 1-1.54 6.11Z" class="color6b67e9 svgShape"></path><path fill="#6f196f" d="M253.11 478.91c1.61.51 1.87 4.7.71 7.11s-1.87 7.89-5.15 6.86.84-6.83 1-8-.36-7.2 3.44-5.97Z" class="color20196f svgShape"></path><path fill="url(#i)" d="M265.15 461.18c6.33 3.55 13 3.56 15.21-.81-.84-8.13-1.09-13.53.54-21.32-.48-4.31-.82-5-.27-7.47-.2-.84-2.79-2.64-4.67-4.36-2-1.86-3.42-3.63-4.47-3.84-8.65-1.77-9.32 17.11-12.6 29.29-.41 5.25 3.11 6.76 6.26 8.51Z"></path><path fill="#a9d2fc" d="M267 424.66c1.88-1.35 2-4.29 2-6.16a9 9 0 0 1-.05-3.23c.65-4.06 3.8-7.16 6.93-6.43 6.32 1.46 4.64 4.64 4 8.7-.6 3.76-2.72 6.08-5.65 6.06a4.23 4.23 0 0 0 1 2.94c-2.11 1.27-5.19.67-6.41.12s-2.7-1.09-1.82-2Z" class="colorfcd1a9 svgShape"></path><path fill="url(#I)" d="M275.4 426.7a7.61 7.61 0 0 0-.46-1.2c-.56.12-6.73.38-7.36-1.36-.64.19-.8.37-.93.95-.24 1.11 3.8 3.56 8.75 1.61Z"></path><path fill="url(#J)" d="M271.28 406.2c.9-.47 1.72-.23 2.22-.55 1.19-.73 2.32-1.2 2.95-.85a6.79 6.79 0 0 1 .89.71c.62.62 1.9-.7 2.2.9a6.35 6.35 0 0 1 .11 1.25c3 .38 1.51 3.1-.88 8.33 0-1.08-1.81-2.81-1.81 1 0 .4.3.48 0 1a35 35 0 0 1-3.12 3c-1.58 1.58-2.5.16-5.11.45a4.15 4.15 0 0 0-.69-2.38 7 7 0 0 1-1.68-4.3c2.06.24-1.54-5.23 4.92-8.56Z"></path><path fill="#a9d2fc" d="M293.42 437.64c1.15-1.14.52-2.14 1.11-2.81s1-.21 1.26-.54a1.79 1.79 0 0 1 1.85-.83 2.65 2.65 0 0 1 2.4 2.69c0 .77.37 1.15-1.51 2.5-.76.54-1.38-.06-2.69 1.21a14.9 14.9 0 0 0-2.42-2.22Z" class="colorfcd1a9 svgShape"></path><path fill="url(#K)" d="M293 437.41c-3.76 2.26-5.2 3.22-6.64 4.13-.48-.74-1.32-2.11-2.22-3.64-1 3.16-3.41 4.34-5.87 4.77a54.49 54.49 0 0 0 5.3 5c1.92 2 12-6.7 12.6-7.37 1.4-1.51-1-4.17-3.17-2.89Z"></path><path fill="url(#L)" d="M284.17 437.9c-1.34-2.28-2.84-4.91-3.54-6.32-.5-1-1.68-1.55-3.65-.77s-3.39 3.7-2.39 6.75c.3 1.12 1.84 3.1 3.71 5.11 2.46-.43 4.9-1.61 5.87-4.77Z"></path><path d="M739.1 315.1c-44.1 2.9-90.56 13.17-111.64 25.34-25 14.46-4.73 26.18 45.36 26.18a419.76 419.76 0 0 0 66.28-5.69Z" style="mix-blend-mode:multiply" fill="url(#M)"></path><path fill="#ff5ae1" d="M698.11 277.27c0-28.92-20.31-40.65-45.35-26.19s-45.35 49.63-45.35 78.55 20.3 40.65 45.34 26.19 45.35-49.63 45.36-78.55Z" class="colorff5a72 svgShape"></path><path fill="url(#N)" d="m612.63 354.33 8 4.64c-8.18-4.75-13.24-14.9-13.24-29.34 0-28.92 20.3-64.09 45.35-78.55 12.51-7.22 23.84-7.91 32-3.18l-8.11-4.68c-8.21-4.73-19.54-4-32 3.19-25 14.46-45.35 49.63-45.35 78.54 0 14.48 5.1 24.66 13.35 29.38Zm8.13 4.7Z"></path><path fill="#ffffff" d="M688.5 282.81c0-22.79-16-32-35.74-20.64S617 301.29 617 324.09s16 32 35.75 20.64 35.75-39.12 35.75-61.92Z" class="colorffffff svgShape"></path><path fill="#ff5ae1" d="M679.53 288c0-17.07-12-24-26.77-15.45S626 301.83 626 318.9s12 24 26.78 15.46 26.75-29.29 26.75-46.36Z" class="colorff5a72 svgShape"></path><path fill="#ffffff" d="M669.87 293.57c0-10.91-7.67-15.33-17.12-9.88s-17.1 18.73-17.11 29.64 7.67 15.33 17.12 9.88 17.11-18.73 17.11-29.64Z" class="colorffffff svgShape"></path><path fill="#ff5ae1" d="M659.92 299.32c0-4.57-3.21-6.42-7.17-4.14a15.84 15.84 0 0 0-7.15 12.4c0 4.57 3.2 6.42 7.16 4.14a15.88 15.88 0 0 0 7.16-12.4Z" class="colorff5a72 svgShape"></path><path d="M748.44 356.5c-5.22-3-12.16-4.4-19-4.2h-33v1.75a28.27 28.27 0 0 0-5.65 2.45c-9.72 5.65-9.66 14.81.12 20.45a27.57 27.57 0 0 0 5.53 2.4v1.83h35.16c6.16-.1 12.27-1.5 17-4.22 9.67-5.65 9.63-14.81-.16-20.46Z" style="mix-blend-mode:multiply" fill="url(#O)"></path><path fill="#6eb6ff" d="M672.14 325.24c0-3.61 2.38-7.22 7.16-10s11-4.14 17.29-4.14 12.52 1.38 17.29 4.14 7.16 6.37 7.16 10-2.38 7.23-7.16 10-11 4.13-17.29 4.13-12.52-1.38-17.29-4.13-7.16-6.39-7.16-10Z" class="colorffcb6e svgShape"></path><path fill="url(#j)" d="M713.88 335.23c-4.77 2.75-11 4.13-17.29 4.13s-12.52-1.38-17.29-4.13-7.16-6.38-7.16-10v7c0 3.61 2.38 7.23 7.16 10s11 4.13 17.29 4.13 12.52-1.38 17.29-4.13 7.17-6.38 7.16-10v-7c.01 3.62-2.38 7.24-7.16 10Z"></path><path fill="url(#k)" d="M713.88 342.2c-4.77 2.75-11 4.13-17.29 4.13s-12.52-1.33-17.29-4.13-7.16-6.38-7.16-10v7c0 3.61 2.38 7.23 7.16 10s11 4.13 17.29 4.13 12.52-1.38 17.29-4.13 7.17-6.38 7.16-10v-7c.01 3.62-2.38 7.24-7.16 10Z"></path><path fill="url(#P)" d="M713.88 349.17c-4.77 2.75-11 4.13-17.29 4.13s-12.52-1.38-17.29-4.13-7.16-6.38-7.16-10v7c0 3.62 2.38 7.23 7.16 10s11 4.13 17.29 4.13 12.52-1.38 17.29-4.13 7.17-6.37 7.16-10v-7c.01 3.62-2.38 7.24-7.16 10Z"></path><path fill="url(#Q)" d="M713.88 356.14c-4.77 2.75-11 4.13-17.29 4.13s-12.52-1.38-17.29-4.13-7.16-6.37-7.16-10v7c0 3.62 2.38 7.23 7.16 10s11 4.13 17.29 4.13 12.52-1.38 17.29-4.13 7.17-6.37 7.16-10v-7c.01 3.63-2.38 7.24-7.16 10Z"></path><path fill="url(#R)" d="M713.88 363.11c-4.77 2.76-11 4.13-17.29 4.13s-12.52-1.37-17.29-4.13-7.16-6.37-7.16-10v7c0 3.62 2.38 7.23 7.16 10s11 4.13 17.29 4.13 12.52-1.38 17.29-4.13 7.17-6.37 7.16-10v-7c.01 3.63-2.38 7.24-7.16 10Z"></path><path fill="url(#S)" d="M713.88 370.08c-4.77 2.76-11 4.13-17.29 4.13s-12.52-1.37-17.29-4.13-7.16-6.37-7.16-10v7c0 3.62 2.38 7.23 7.16 10s11 4.13 17.29 4.13 12.52-1.37 17.29-4.13 7.17-6.37 7.16-10v-7c.01 3.63-2.38 7.24-7.16 10Z"></path><path fill="#6db6ff" d="M682.55 333.35a31 31 0 0 0 28.08 0c3.58-2.07 5.51-4.72 5.78-7.43-.27-2.7-2.2-5.36-5.78-7.43a31.1 31.1 0 0 0-28.08 0c-3.58 2.07-5.5 4.73-5.78 7.43.28 2.71 2.23 5.36 5.78 7.43Z" class="colorffaf6d svgShape"></path><path fill="url(#T)" d="M682.55 318.49a31.1 31.1 0 0 1 28.08 0c3.58 2.07 5.51 4.73 5.78 7.43a5.07 5.07 0 0 0 0-.68c0-2.93-1.94-5.87-5.82-8.11a31 31 0 0 0-28.08 0c-3.88 2.24-5.82 5.18-5.82 8.11a5.17 5.17 0 0 0 0 .68c.36-2.7 2.31-5.36 5.86-7.43Z"></path><path fill="#e539c6" d="m706.37 322.32 1.88-1.08v-1.36l-1.88 1.09v1.35z" class="colore57139 svgShape"></path><path fill="#6eb6ff" d="M697.71 324.6a1.87 1.87 0 0 1-1.09-1.52 1.84 1.84 0 0 1 1.09-1.51 5.76 5.76 0 0 1 5.24 0c1.45.83 1.45 2.19 0 3l2.38 1.37c2.35-1.35 2.7-3.43 1-5l1.88-1.09-2.38-1.37-1.83 1.11a11.22 11.22 0 0 0-8.66.61 3 3 0 0 0 0 5.77c1.45.84 1.45 2.19 0 3a5.85 5.85 0 0 1-5.25 0c-1.44-.84-1.44-2.19 0-3l-2.38-1.37c-2.34 1.35-2.69 3.43-1 5l-1.73 1 2.38 1.38 1.73-1a11.24 11.24 0 0 0 8.67-.59c2.71-1.61 2.71-4.2-.05-5.79Z" class="colorffcb6e svgShape"></path><path fill="#fb4bdb" d="m684.93 331.96 2.38 1.37v-1.35l-2.38-1.38v1.36z" class="colorfb944b svgShape"></path><path fill="#e539c6" d="m687.31 333.33 1.73-1v-1.36l-1.73 1.01v1.35z" class="colore57139 svgShape"></path><path fill="#fb4bdb" d="m702.95 325.95 2.39 1.38v-1.36l-2.39-1.37v1.35z" class="colorfb944b svgShape"></path><path fill="#e539c6" d="M690.08 327.33V326c-1 .59-1.32 1.45-.89 2.19a2.4 2.4 0 0 1 .89-.86Z" class="colore57139 svgShape"></path><path fill="#fb4bdb" d="M685.64 327.42V329a2.49 2.49 0 0 0 .29 1.08l.72-.42a3 3 0 0 1-1-2.18ZM695.33 327.33a2.4 2.4 0 0 1 .89.83c.43-.74.14-1.6-.89-2.19a3.51 3.51 0 0 1-2.07-2.89v1.36a3.51 3.51 0 0 0 2.07 2.89Z" class="colorfb944b svgShape"></path><path fill="#fb05ce" d="M699.78 327.48Z" class="colorfbba05 svgShape"></path><path fill="#e539c6" d="M707.39 323.08a3.46 3.46 0 0 1-2.06 2.89v1.36a3.44 3.44 0 0 0 2.06-3v-1.29Z" class="colore57139 svgShape"></path><path fill="url(#U)" d="M697.71 330.38a11.24 11.24 0 0 1-8.71.62v1.36a11.24 11.24 0 0 0 8.67-.6 3.54 3.54 0 0 0 2.07-2.86v-1.38a3.55 3.55 0 0 1-2.03 2.86Z"></path><path fill="#e539c6" d="M703 321.57a5.76 5.76 0 0 0-5.24 0 1.84 1.84 0 0 0-1.09 1.51 1.37 1.37 0 0 0 .19.68 2.52 2.52 0 0 1 .9-.83 5.76 5.76 0 0 1 5.24 0 2.44 2.44 0 0 1 .9.83c.38-.76.1-1.6-.9-2.19Z" class="colore57139 svgShape"></path><path d="M762.73 366.84a25.81 25.81 0 0 0-16.43-4.77h-9.24v2a22.08 22.08 0 0 0-4.9 2.78c-8.4 6.41-8.36 16.81.11 23.22a22.37 22.37 0 0 0 4.79 2.72v2.08h11.09a25.31 25.31 0 0 0 14.68-4.8c8.41-6.42 8.37-16.82-.1-23.23Z" style="mix-blend-mode:multiply" fill="url(#V)"></path><path fill="url(#W)" d="M751.48 359.8a27.19 27.19 0 0 0-10.41-6.49c-6.43-2.23-13.44-2.09-18.6.91a12.72 12.72 0 0 0-5.54 6.15l-2.43 5.88a12.72 12.72 0 0 1 5.5-6.15 20.32 20.32 0 0 1 11.76-2.36 27.75 27.75 0 0 1 17.25 7.94c5.23 5.31 6.74 11.73 4.64 16.82l2.43-5.88c2.14-5.09.63-11.51-4.6-16.82Z"></path><path fill="#6db6ff" d="M750.83 361.37c7.75 7.87 7.34 18.17-.9 23s-21.26 2.28-29-5.59-7.34-18.18.9-23 21.25-2.29 29 5.59Z" class="colorffaf6d svgShape"></path><path fill="url(#X)" d="m760.66 378.48-2.43 5.88a15.73 15.73 0 0 1-6.84 7.58c-10.17 5.91-26.15 2.83-35.7-6.87-6.44-6.55-8.31-14.43-5.73-20.68l2.43-5.88c-2.58 6.25-.71 14.13 5.73 20.68 9.55 9.7 25.53 12.78 35.7 6.87a15.73 15.73 0 0 0 6.84-7.58Z"></path><path fill="#6eb6ff" d="M754.93 357.8c9.55 9.7 9.05 22.35-1.11 28.26s-26.15 2.83-35.7-6.87-9-22.36 1.11-28.26 26.15-2.84 35.7 6.87Zm-33.36 19.38c7.75 7.87 20.76 10.38 29 5.59s8.66-15.1.91-23-20.76-10.38-29-5.58-8.65 15.09-.9 23Z" class="colorffcb6e svgShape"></path><path fill="#fb4bdb" d="m724.64 373.45 1.13-.65a5.26 5.26 0 0 1-.68-4.68l-.64 1.54a5 5 0 0 0 .19 3.79ZM734.5 370.86a3.32 3.32 0 0 1 1.06 2.37c1-1 .86-2.65-.41-3.94a6.31 6.31 0 0 1-2-4.61 4.33 4.33 0 0 1 .38-1.64l-.62 1.49a4.31 4.31 0 0 0-.42 1.71 6.31 6.31 0 0 0 2.01 4.62Z" class="colorfb944b svgShape"></path><path fill="#e539c6" d="M729.6 368.22a2.35 2.35 0 0 0-1.24 2 2.51 2.51 0 0 1 .59-.46ZM747.12 364.28a6.12 6.12 0 0 1 .48.91l.93-.54.64-1.56Z" class="colore57139 svgShape"></path><path fill="#fb4bdb" d="m743.3 368.85-.65 1.57 2.44 2.47.65-1.56-2.44-2.48z" class="colorfb944b svgShape"></path><path fill="#e539c6" d="m745.74 371.33-.65 1.57a4.72 4.72 0 0 0 2-2.18l.63-1.54a4.64 4.64 0 0 1-1.98 2.15Z" class="colore57139 svgShape"></path><path fill="#6eb6ff" d="m749.17 363.09-2 1.19c1.66 2.62 1.17 5.56-1.38 7.05l-2.44-2.48c1.58-.91 1.65-2.89.17-4.39a4.87 4.87 0 0 0-5.55-1.07 2.32 2.32 0 0 0-1.24 2 3.36 3.36 0 0 0 1.06 2.43c2.83 2.87 2.68 6.63-.32 8.37-2.57 1.49-6.39 1-9.21-.89l-1.9 1.1-2.43-2.47 1.89-1.1c-1.66-2.62-1.18-5.57 1.39-7.06l2.44 2.48c-1.59.92-1.66 2.89-.18 4.4a4.89 4.89 0 0 0 5.56 1.07c1.57-.92 1.65-2.89.17-4.4a6.31 6.31 0 0 1-2-4.61 4.48 4.48 0 0 1 2.36-3.77c2.56-1.49 6.38-1 9.2.89l2.05-1.19Z" class="colorffcb6e svgShape"></path><path fill="#fb4bdb" d="m723.88 373.89-.65 1.57 2.44 2.48.64-1.57-2.43-2.48z" class="colorfb944b svgShape"></path><path fill="#e539c6" d="m726.31 376.37-.64 1.57 1.89-1.1.65-1.57-1.9 1.1z" class="colore57139 svgShape"></path><path fill="url(#Y)" d="M739 374.67a4.3 4.3 0 0 1-.38.49 4.89 4.89 0 0 1-1.23 1c-2.57 1.49-6.39 1-9.21-.89l-.65 1.57c2.83 1.93 6.64 2.38 9.21.89a4.73 4.73 0 0 0 1.91-2l.66-1.6a3.35 3.35 0 0 1-.31.54Z"></path><path fill="#e539c6" d="M743.9 368.38c1-1 .84-2.64-.43-3.92a4.87 4.87 0 0 0-5.55-1.07 2.32 2.32 0 0 0-1.24 2v.05a2.74 2.74 0 0 1 .59-.46 4.9 4.9 0 0 1 5.56 1.07 3.39 3.39 0 0 1 1 2.28Z" class="colore57139 svgShape"></path><path d="M435.24 563.39c-5.44-3.14-12.67-4.59-19.77-4.37h-11.13v1.82a28.94 28.94 0 0 0-5.89 2.55c-10.12 5.88-10.06 15.42.13 21.31a30.26 30.26 0 0 0 5.76 2.5v1.9h13.35c6.42-.11 12.79-1.56 17.67-4.4 10.12-5.89 10.07-15.43-.12-21.31Z" style="mix-blend-mode:multiply" fill="url(#Z)"></path><path fill="#6eb6ff" d="M379 567.13c0-3.76 2.49-7.52 7.46-10.4s11.5-4.31 18-4.31 13 1.44 18 4.31 7.46 6.64 7.46 10.4-2.48 7.53-7.46 10.4-11.49 4.31-18 4.31-13-1.43-18-4.31-7.46-6.63-7.46-10.4Z" class="colorffcf6e svgShape"></path><path fill="url(#aa)" d="M422.47 577.53c-5 2.88-11.49 4.31-18 4.31s-13-1.43-18-4.31-7.47-6.63-7.47-10.4v7.26c0 3.77 2.49 7.53 7.47 10.4s11.49 4.31 18 4.31 13-1.43 18-4.31 7.46-6.63 7.46-10.4v-7.26c0 3.77-2.48 7.53-7.46 10.4Z"></path><path fill="#6db6ff" d="M389.83 575.58a32.33 32.33 0 0 0 29.26 0c3.72-2.15 5.73-4.92 6-7.74-.29-2.82-2.3-5.58-6-7.74a32.33 32.33 0 0 0-29.26 0c-3.73 2.16-5.73 4.92-6 7.74.27 2.82 2.27 5.59 6 7.74Z" class="colorffaf6d svgShape"></path><path fill="url(#ab)" d="M389.83 560.1a32.33 32.33 0 0 1 29.26 0c3.72 2.16 5.73 4.92 6 7.74v-.71c0-3.06-2-6.11-6.06-8.44a32.33 32.33 0 0 0-29.26 0c-4 2.33-6.06 5.38-6.06 8.44a5.63 5.63 0 0 0 0 .71c.39-2.84 2.39-5.58 6.12-7.74Z"></path><path fill="#e539c6" d="m414.65 564.09 1.96-1.13v-1.41l-1.96 1.13v1.41z" class="colore57139 svgShape"></path><path fill="#6eb6ff" d="M405.62 566.46a1.66 1.66 0 0 1 0-3.15 6.06 6.06 0 0 1 5.47 0c1.5.87 1.5 2.28 0 3.15l2.47 1.43c2.45-1.41 2.81-3.58 1.09-5.21l2-1.13-2.48-1.43-2 1.13a11.69 11.69 0 0 0-9 .63 3.17 3.17 0 0 0 0 6c1.51.87 1.51 2.29 0 3.16a6 6 0 0 1-5.46 0c-1.51-.87-1.51-2.29 0-3.16l-2.48-1.43c-2.45 1.41-2.8 3.58-1.08 5.21l-1.81 1 2.48 1.44 1.81-1a11.7 11.7 0 0 0 9-.62c2.87-1.66 2.87-4.36-.01-6.02Z" class="colorffcf6e svgShape"></path><path fill="#fb4bdb" d="m392.31 574.13 2.48 1.43v-1.41l-2.48-1.43v1.41z" class="colorfb944b svgShape"></path><path fill="#e539c6" d="m394.79 575.56 1.81-1.04v-1.42l-1.81 1.05v1.41z" class="colore57139 svgShape"></path><path fill="#fb4bdb" d="m411.09 567.88 2.47 1.43v-1.42l-2.47-1.43v1.42z" class="colorfb944b svgShape"></path><path fill="#e539c6" d="M397.68 569.31v-1.42c-1.07.62-1.38 1.51-.93 2.29a2.46 2.46 0 0 1 .93-.87Z" class="colore57139 svgShape"></path><path fill="#fb4bdb" d="M393.05 569.4v1.6a2.59 2.59 0 0 0 .31 1.12l.75-.44a3 3 0 0 1-1.06-2.27ZM403.14 569.31a2.39 2.39 0 0 1 .93.87c.45-.78.14-1.67-.93-2.29a3.66 3.66 0 0 1-2.16-3v1.42a3.67 3.67 0 0 0 2.16 3Z" class="colorfb944b svgShape"></path><path fill="#fb05ce" d="M407.78 569.46Z" class="colorfbba05 svgShape"></path><path fill="#e539c6" d="M415.71 564.88a3.61 3.61 0 0 1-2.15 3v1.42a3.6 3.6 0 0 0 2.15-3.09v-1.34Z" class="colore57139 svgShape"></path><path fill="url(#ac)" d="M405.62 572.48a11.7 11.7 0 0 1-9 .62v1.42a11.66 11.66 0 0 0 9-.63 3.68 3.68 0 0 0 2.16-3v-1.43a3.66 3.66 0 0 1-2.16 3.02Z"></path><path fill="#e539c6" d="M411.09 563.31a6.06 6.06 0 0 0-5.47 0 1.91 1.91 0 0 0-1.13 1.57 1.39 1.39 0 0 0 .2.71 2.54 2.54 0 0 1 .93-.87 6.06 6.06 0 0 1 5.47 0 2.43 2.43 0 0 1 .92.87c.45-.78.15-1.66-.92-2.28Z" class="colore57139 svgShape"></path><path d="M729.15 419.37c-26-12.45-52.94-24.35-71.63-18.13-8.76 2.93-35.59 34.6-45.43 45.3-.3.33-8.72 1.36-9 1.71 13.91 3 42.73 5.06 63.91 1 21.62-4.12 44.05-7.79 62.1-8.21Z" style="mix-blend-mode:multiply" fill="url(#ad)"></path><path fill="#cee3f8" d="M661.46 419.15c-5.06 5.06-29.88 22.27-48.41 28-22.56 6.91-69.49-18.32-39.58-51.1 27.2-29.82 34.14-32 34.14-41.85 0-5.18-8.18-9.45-15.08-14.75 12.29 0 23.33-5.26 28-16.21 1.23 10.31-1.94 11.81 1.43 23.64 5.44 19.19 59.04 52.71 39.5 72.27Z" class="colorced3f8 svgShape"></path><path d="M619.77 324.74c-.15.31-.31.6-.48.9l-.16.29a25.47 25.47 0 0 1-1.43 2.22 1.33 1.33 0 0 0-.14.19c-.24.31-.48.62-.73.92l-.09.11a22.94 22.94 0 0 1-1.83 2l-.07.07c-.32.3-.65.6-1 .89a20.86 20.86 0 0 0-.27 3.38c0 11.46.86 19.74 7.45 33.86 5.21 11.16-3 28.92-12.69 45.82-7 12.22-4.29 29.7 3 32.18.6-.13 1.18-.28 1.75-.45 18.53-5.68 43.35-22.89 48.41-28 19.56-19.56-34.06-53.08-39.54-72.32-3.37-11.83-.2-13.33-1.43-23.64-.17.41-.36.82-.55 1.22Z" style="mix-blend-mode:multiply" fill="url(#ae)"></path><path fill="#a3b9d0" d="M592.53 339.4c-1-.31 1.56-4.27 11.29-5.06 18.88-1.52 3.47-3.56 8.39-6.88 2.25-1.51 8.28-6.62 8.28-4.27 0 3.61-3.87 11.6-9.61 14.2s-13.19 3.61-18.35 2.01Z" class="colora3a9d0 svgShape"></path><path fill="none" stroke="#342e94" stroke-linecap="round" stroke-linejoin="round" stroke-width="2" d="M607.57 355.4c3.58 3.58 13 2.78 16.24-4.23M621.92 346.83c0 3-5.06 10.18-14.31 7.32M611 357.18c0 4.75-3.83 16.51-16.25 27.19M611 357.18c1.78 4.4 2.66 16.73-4.84 31.31" class="colorStroke362e94 svgStroke"></path><path fill="#dfe9f4" d="M637.67 403.38a1.56 1.56 0 0 1 2.89.65 5.7 5.7 0 0 1-1.13 5c-1.11 1.2-2.41.9-2.89-.66l-1.82 2c.78 2.53 2.69 3.3 4.54 2.07l.63 2 1.83-2-.63-2a11 11 0 0 0 1.29-8.39 3 3 0 0 0-5.51-1.24c-1.11 1.2-2.4.9-2.89-.66a5.69 5.69 0 0 1 1.13-5c1.11-1.2 2.4-.91 2.89.65l1.82-2c-.79-2.53-2.7-3.31-4.55-2.07l-.58-1.87-1.82 2 .58 1.86a11 11 0 0 0-1.29 8.4c.92 2.99 3.39 3.55 5.51 1.26Z" class="colordfe4f4 svgShape"></path><path fill="#eaf1f9" d="m557.41 72.12-7.17 4.14c-4.19 2.42-10-10.78-14.64-8.08L523 75.44c-9.37 5.4-6-10.34-20-2.25-16.47 9.5-15.12 28.59-24.49 34L466 114.44c-4.69 2.71-6 13.9-10.15 16.32l-7.17 4.14c-1.56.9-4.55 3.39-4.55 6.65l58.92-34 58.91-34c.04-3.29-2.96-2.33-4.55-1.43Z" class="coloreaeef9 svgShape"></path><path style="mix-blend-mode:multiply" fill="url(#af)" d="M539.74 554.42h27.27l83.16-48.01-27.27-15.85-83.16 63.86z"></path><path fill="#f4f6f8" d="m622.9 490.56-83.16 48.01-37.99-21.93 83.16-48.01 37.99 21.93z" class="colorf6f6fb svgShape"></path><path fill="#857dfb" d="m501.75 516.64 38 21.93 83.16-48-38-21.93Zm76.08-42.58a15.65 15.65 0 0 0 14.17 0l21.48 12.4c-3.91 2.26-3.91 5.93 0 8.19l-66.65 38.48a15.68 15.68 0 0 0-14.18 0l-21.48-12.4c3.92-2.26 3.92-5.92 0-8.19Z" class="color807dfb svgShape"></path><path fill="#857dfb" d="M548 511.84c-7.88-4.55-7.88-11.94 0-16.49s20.68-4.55 28.57 0 7.89 11.94 0 16.49-20.64 4.56-28.57 0Z" class="color807dfb svgShape"></path><path fill="#f4f6f8" d="M564.54 502.44a2.31 2.31 0 0 0-1.24-2.44l-1.09-.64a8.05 8.05 0 0 0-7.31-.07c-2 1.14-1.93 3 .12 4.22l1.15.67a8.3 8.3 0 0 0 4.23.72c-1.26.83-4.25 4.58 1.24 6.52l14.23-8.22c-3.74-3.15-9.87-1.49-11.33-.76Z" class="colorf6f6fb svgShape"></path><path fill="#857dfb" d="M530.55 515.16c-3.25 1.87-3.25 4.91 0 6.78a12.94 12.94 0 0 0 11.75 0c3.25-1.87 3.25-4.91 0-6.78a12.94 12.94 0 0 0-11.75 0Zm9.2 5.31a7.33 7.33 0 0 1-6.64 0c-1.84-1.06-1.84-2.78 0-3.84a7.33 7.33 0 0 1 6.64 0c1.83 1.06 1.83 2.78 0 3.84Z" class="color807dfb svgShape"></path><path fill="#bbd0e6" d="M594.1 485.25a13 13 0 0 0-11.75 0c-3.25 1.87-3.25 4.91 0 6.79a13 13 0 0 0 11.75 0c3.25-1.88 3.25-4.92 0-6.79Z" class="colorbbc0e6 svgShape"></path><path fill="#cee3f8" d="m535.85 527.19 15.53-8.97 1.55.89-15.53 8.97-1.55-.89z" class="colorced3f8 svgShape"></path><path fill="#857dfb" d="m516.61 514.58 12.93-7.47.61.35-12.94 7.46-.6-.34zM517.86 515.3l12.94-7.47.6.35-12.93 7.47-.61-.35zM513.16 512.59l64.73-37.38 1.56.9-64.74 37.37-1.55-.89zM571.75 488.1l15.53-8.97 1.55.89-15.53 8.97-1.55-.89z" class="color807dfb svgShape"></path><path fill="#dae7f5" d="m524.67 518.55-4.91 2.84-2.84-1.64 4.92-2.84 2.83 1.64zM608.59 489.36l-2.46 1.42-2.83-1.64 2.45-1.42 2.84 1.64z" class="colordae0f5 svgShape"></path><path fill="#f4f6f8" d="m501.75 517.52 37.99 21.93v-.88l-37.99-21.93v.88z" class="color6b67e9 svgShape"></path><path fill="#5046e4" d="m539.74 539.45 83.16-48.01v-.88l-83.16 48.01v.88zM501.75 518.4l37.99 21.93v-.88l-37.99-21.93v.88z" class="color5652cc svgShape"></path><path fill="#453eaf" d="m539.74 540.33 83.16-48.01v-.88l-83.16 48.01v.88z" class="color423eaf svgShape"></path><path fill="#f4f6f8" d="m501.75 519.28 37.99 21.93v-.88l-37.99-21.93v.88z" class="color6b67e9 svgShape"></path><path fill="#5046e4" d="m539.74 541.21 83.16-48.01v-.88l-83.16 48.01v.88zM501.75 520.16l37.99 21.93v-.88l-37.99-21.93v.88z" class="color5652cc svgShape"></path><path fill="#453eaf" d="m539.74 542.09 83.16-48.01v-.88l-83.16 48.01v.88z" class="color423eaf svgShape"></path><path fill="#f4f6f8" d="m501.75 521.04 37.99 21.93v-.88l-37.99-21.93v.88z" class="color6b67e9 svgShape"></path><path fill="#5046e4" d="m539.74 542.97 83.16-48.01v-.88l-83.16 48.01v.88zM501.75 521.92l37.99 21.93v-.88l-37.99-21.93v.88z" class="color5652cc svgShape"></path><path fill="#453eaf" d="m539.74 543.85 83.16-48.01v-.88l-83.16 48.01v.88z" class="color423eaf svgShape"></path><path fill="#f4f6f8" d="m501.75 522.8 37.99 21.93v-.88l-37.99-21.93v.88z" class="color6b67e9 svgShape"></path><path fill="#5046e4" d="m539.74 544.73 83.16-48.01v-.88l-83.16 48.01v.88zM501.75 523.68l37.99 21.93v-.88l-37.99-21.93v.88z" class="color5652cc svgShape"></path><path fill="#453eaf" d="m539.74 545.61 83.16-48.01v-.88l-83.16 48.01v.88z" class="color423eaf svgShape"></path><path fill="#f4f6f8" d="m501.75 524.56 37.99 21.93v-.88l-37.99-21.93v.88z" class="color6b67e9 svgShape"></path><path fill="#5046e4" d="m539.74 546.49 83.16-48.01v-.88l-83.16 48.01v.88zM501.75 525.45l37.99 21.93v-.89l-37.99-21.93v.89z" class="color5652cc svgShape"></path><path fill="#453eaf" d="m539.74 547.38 83.16-48.02v-.88l-83.16 48.01v.89z" class="color423eaf svgShape"></path><path fill="#f4f6f8" d="m501.75 526.33 37.99 21.92v-.87l-37.99-21.93v.88z" class="color6b67e9 svgShape"></path><path fill="#5046e4" d="m539.74 548.25 83.16-48.01v-.88l-83.16 48.02v.87zM501.75 527.21l37.99 21.93v-.89l-37.99-21.92v.88z" class="color5652cc svgShape"></path><path fill="#453eaf" d="m539.74 549.14 83.16-48.02v-.88l-83.16 48.01v.89z" class="color423eaf svgShape"></path><path fill="#f4f6f8" d="m501.75 528.09 37.99 21.93v-.88l-37.99-21.93v.88z" class="color6b67e9 svgShape"></path><path fill="#5046e4" d="m539.74 550.02 83.16-48.01v-.88l-83.16 48.01v.88zM501.75 528.97l37.99 21.93v-.88l-37.99-21.93v.88z" class="color5652cc svgShape"></path><path fill="#453eaf" d="m539.74 550.9 83.16-48.01v-.88l-83.16 48.01v.88z" class="color423eaf svgShape"></path><path fill="#f4f6f8" d="m501.75 529.85 37.99 21.93v-.88l-37.99-21.93v.88z" class="color6b67e9 svgShape"></path><path fill="#5046e4" d="m539.74 551.78 83.16-48.01v-.88l-83.16 48.01v.88zM501.75 530.73l37.99 21.93v-.88l-37.99-21.93v.88z" class="color5652cc svgShape"></path><path fill="#453eaf" d="m539.74 552.66 83.16-48.01v-.88l-83.16 48.01v.88z" class="color423eaf svgShape"></path><path fill="#f4f6f8" d="m501.75 531.61 37.99 21.93v-.88l-37.99-21.93v.88z" class="color6b67e9 svgShape"></path><path fill="#5046e4" d="m539.74 553.54 83.16-48.01v-.88l-83.16 48.01v.88zM501.75 532.49l37.99 21.93v-.88l-37.99-21.93v.88z" class="color5652cc svgShape"></path><path fill="#453eaf" d="m539.74 554.42 83.16-48.01v-.88l-83.16 48.01v.88z" class="color423eaf svgShape"></path><path fill="#bbd0e6" d="m587.57 526.81-12.5 7.22v-15.86l12.5-7.22v15.86z" class="colorbbc0e6 svgShape"></path><path fill="#e8eff7" d="m549.58 489.02-12.5 7.22 37.99 21.93 12.5-7.22-37.99-21.93z" class="colore8ecf7 svgShape"></path><path style="mix-blend-mode:multiply" fill="url(#l)" d="M530.26 468.09h-47.61l16.22 9.36-16.22 9.36h47.61l16.22-9.36-16.22-9.36z"></path><path style="mix-blend-mode:multiply" fill="url(#ag)" d="M500.74 486.81h-44.88l16.21 9.36-16.21 9.36h44.88l16.21-9.36-16.21-9.36z"></path><path style="mix-blend-mode:multiply" fill="url(#ah)" d="M469.08 505.53h-40.01l16.21 9.36-16.21 9.36h40.01l16.21-9.36-16.21-9.36z"></path><path fill="#cee3f8" d="m466.44 443.36 16.21 9.36v34.09l-16.21-9.36v-34.09z" class="colorced3f8 svgShape"></path><path fill="#bbd0e6" d="m498.86 443.36-16.21 9.36v34.09l16.21-9.36v-34.09z" class="colorbbc0e6 svgShape"></path><path fill="#ffffff" d="m482.65 434-16.21 9.36 16.21 9.36 16.21-9.36-16.21-9.36z" class="colorffffff svgShape"></path><path fill="#5046e4" d="m439.65 471.31 16.21 9.36v24.86l-16.21-9.36v-24.86z" class="color5652cc svgShape"></path><path fill="#453eaf" d="m472.07 471.31-16.21 9.36v24.86l16.21-9.36v-24.86z" class="color423eaf svgShape"></path><path fill="#f4f6f8" d="m455.86 461.95-16.21 9.36 16.21 9.36 16.21-9.36-16.21-9.36z" class="color6b67e9 svgShape"></path><path fill="#fb4bdb" d="m412.86 495.39 16.21 9.36v19.5l-16.21-9.36v-19.5z" class="colorfb944b svgShape"></path><path fill="#e539c6" d="m445.28 495.39-16.21 9.36v19.5l16.21-9.36v-19.5z" class="colore57139 svgShape"></path><path fill="#6bb5ff" d="m429.07 486.03-16.21 9.36 16.21 9.36 16.21-9.36-16.21-9.36z" class="colorffc16b svgShape"></path><path style="mix-blend-mode:multiply" fill="url(#ai)" d="M668.42 511.68h52.98v13.92h-52.98z"></path><path fill="#6bb5ff" d="m668.42 525.6-2.18-1.25v-36.21l2.18 1.26v36.2zM660.95 493.72l-2.18-1.26 17.53-42.62 2.18 1.26-17.53 42.62z" class="colorffc16b svgShape"></path><path fill="#fb4bdb" d="m678.48 451.1-17.53 42.62 7.47-4.32v36.2l20.11-11.61v-36.2l7.48-4.32-17.53-22.37z" class="colorfb944b svgShape"></path></g></g></g></svg>