<svg xmlns="http://www.w3.org/2000/svg" enable-background="new 0 0 291.28 293.71" viewBox="0 0 291.28 293.71" id="Warehouse"><g fill="#010001" class="color000000 svgShape"><g fill="#010001" class="color000000 svgShape"><g fill="#010001" class="color000000 svgShape"><g fill="#010001" class="color000000 svgShape"><polygon fill="#f4f6f8" points="100.644 108.786 100.692 122.511 61.033 145.547 60.985 131.822" class="colorddacab svgShape"></polygon><polygon fill="#f4f6f8" points="60.985 131.822 61.033 145.547 49.374 138.816 49.326 125.091" class="colorddacab svgShape"></polygon><polygon fill="#b5cee7" points="100.644 108.786 60.985 131.822 49.326 125.091 88.985 102.055" class="colore7b8b5 svgShape"></polygon><g fill="#010001" class="color000000 svgShape"><g fill="#010001" class="color000000 svgShape"><g fill="#010001" class="color000000 svgShape"><g fill="#010001" class="color000000 svgShape"><polygon fill="#9fb8d1" points="100.644 108.185 100.644 108.786 99.067 109.703 99.067 109.101" class="colord19f9f svgShape"></polygon></g><g fill="#010001" class="color000000 svgShape"><polygon fill="#9fb8d1" points="99.067 109.101 99.067 109.703 87.408 102.971 87.408 102.37" class="colord19f9f svgShape"></polygon></g><g fill="#010001" class="color000000 svgShape"><polygon fill="#c1d5ea" points="100.644 108.185 99.067 109.101 87.408 102.37 88.985 101.453" class="coloreac2c1 svgShape"></polygon></g></g></g><g fill="#010001" class="color000000 svgShape"><g fill="#010001" class="color000000 svgShape"><g fill="#010001" class="color000000 svgShape"><polygon fill="#9fb8d1" points="52.48 124.489 52.48 125.091 78.974 109.703 88.985 103.286" class="colord19f9f svgShape"></polygon></g><g fill="#010001" class="color000000 svgShape"><polygon fill="#c1d5ea" points="50.903 123.573 52.48 124.489 88.985 103.286 87.408 102.37" class="coloreac2c1 svgShape"></polygon></g></g></g><g fill="#010001" class="color000000 svgShape"><g fill="#010001" class="color000000 svgShape"><g fill="#010001" class="color000000 svgShape"><polygon fill="#9fb8d1" points="62.562 130.304 62.562 130.906 99.067 109.703 99.067 109.101" class="colord19f9f svgShape"></polygon></g><g fill="#010001" class="color000000 svgShape"><polygon fill="#c1d5ea" points="60.985 129.387 62.562 130.304 99.067 109.101 97.49 108.185" class="coloreac2c1 svgShape"></polygon></g></g></g><g fill="#010001" class="color000000 svgShape"><g fill="#010001" class="color000000 svgShape"><g fill="#010001" class="color000000 svgShape"><polygon fill="#9fb8d1" points="62.562 130.304 62.562 130.906 60.985 131.822 60.985 131.22" class="colord19f9f svgShape"></polygon></g><g fill="#010001" class="color000000 svgShape"><polygon fill="#9fb8d1" points="60.985 131.22 60.985 131.822 49.326 125.091 49.326 124.489" class="colord19f9f svgShape"></polygon></g><g fill="#010001" class="color000000 svgShape"><polygon fill="#c1d5ea" points="62.562 130.304 60.985 131.22 49.326 124.489 50.903 123.573" class="coloreac2c1 svgShape"></polygon></g></g></g></g><g fill="#010001" class="color000000 svgShape"><g fill="#010001" class="color000000 svgShape"><polygon fill="#9fb8d1" points="50.403 125.8 50.923 125.497 50.971 139.824 50.451 140.127" class="colord19f9f svgShape"></polygon></g><g fill="#010001" class="color000000 svgShape"><polygon fill="#9fb8d1" points="58.926 143.124 59.446 142.821 50.97 138 50.45 138.303" class="colord19f9f svgShape"></polygon></g><g fill="#010001" class="color000000 svgShape"><g fill="#010001" class="color000000 svgShape"><g fill="#010001" class="color000000 svgShape"><polygon fill="#9fb8d1" points="60.984 131.222 60.466 131.524 48.804 124.791 49.326 124.489" class="colord19f9f svgShape"></polygon></g><g fill="#010001" class="color000000 svgShape"><polygon fill="#9fb8d1" points="60.464 131.523 60.985 131.22 61.033 145.547 60.513 145.85" class="colord19f9f svgShape"></polygon></g><g fill="#010001" class="color000000 svgShape"><polygon fill="#c1d5ea" points="59.152 131.345 60.096 132.977 50.336 139.403 49.393 137.771" class="coloreac2c1 svgShape"></polygon></g><path fill="#c1d5ea" d="M60.513,145.85l-0.049-14.326l-11.66-6.731l0.062,14.433L60.513,145.85z M50.409,127.627
								l8.476,4.821l0.035,10.673l-8.471-4.818L50.409,127.627z" class="coloreac2c1 svgShape"></path></g></g></g><g fill="#010001" class="color000000 svgShape"><g fill="#010001" class="color000000 svgShape"><polygon fill="#9fb8d1" points="99.567 109.495 99.047 109.192 98.998 123.519 99.518 123.822" class="colord19f9f svgShape"></polygon></g><g fill="#010001" class="color000000 svgShape"><polygon fill="#9fb8d1" points="62.62 143.427 62.1 143.124 99 121.695 99.52 121.998" class="colord19f9f svgShape"></polygon></g><g fill="#010001" class="color000000 svgShape"><g fill="#010001" class="color000000 svgShape"><g fill="#010001" class="color000000 svgShape"><polygon fill="#9fb8d1" points="60.562 131.524 61.08 131.827 101.166 108.487 100.644 108.185" class="colord19f9f svgShape"></polygon></g><g fill="#010001" class="color000000 svgShape"><polygon fill="#9fb8d1" points="61.082 131.826 60.562 131.523 60.513 145.85 61.033 146.152" class="colord19f9f svgShape"></polygon></g><path fill="#c1d5ea" d="M101.104,122.92l0.062-14.433l-40.084,23.339l-0.049,14.326L101.104,122.92z M99.52,121.998
								l-36.895,21.426l0.035-10.673l36.9-21.429L99.52,121.998z" class="coloreac2c1 svgShape"></path></g></g></g><g fill="#010001" class="color000000 svgShape"><g fill="#010001" class="color000000 svgShape"><path fill="#9fb8d1" d="M89.34,102.163c0.197,0.114,0.198,0.299,0.002,0.413c-0.196,0.114-0.513,0.113-0.711-0.001
							c-0.197-0.114-0.2-0.298-0.004-0.412C88.823,102.05,89.142,102.05,89.34,102.163z" class="colord19f9f svgShape"></path></g><g fill="#010001" class="color000000 svgShape"><path fill="#9fb8d1" d="M99.421,107.978c0.197,0.114,0.198,0.299,0.002,0.413c-0.196,0.114-0.514,0.113-0.711-0.001
							c-0.197-0.114-0.2-0.298-0.004-0.412C98.905,107.864,99.224,107.864,99.421,107.978z" class="colord19f9f svgShape"></path></g></g><g fill="#010001" class="color000000 svgShape"><g fill="#010001" class="color000000 svgShape"><path fill="#9fb8d1" d="M51.257,124.209c0.197,0.114,0.198,0.299,0.002,0.413c-0.196,0.114-0.514,0.113-0.711-0.001
							s-0.2-0.298-0.004-0.412C50.741,124.095,51.06,124.095,51.257,124.209z" class="colord19f9f svgShape"></path></g><g fill="#010001" class="color000000 svgShape"><path fill="#9fb8d1" d="M61.339,130.024c0.197,0.114,0.198,0.299,0.002,0.413c-0.196,0.114-0.514,0.113-0.711-0.001
							c-0.197-0.114-0.2-0.298-0.004-0.412C60.823,129.91,61.142,129.91,61.339,130.024z" class="colord19f9f svgShape"></path></g></g></g><g fill="#010001" class="color000000 svgShape"><polygon fill="#f4f6f8" points="116.585 117.853 116.634 131.578 76.974 154.614 76.926 140.889" class="colorddacab svgShape"></polygon><polygon fill="#f4f6f8" points="76.926 140.889 76.974 154.614 65.316 147.883 65.267 134.158" class="colorddacab svgShape"></polygon><polygon fill="#b5cee7" points="116.585 117.853 76.926 140.889 65.267 134.158 104.926 111.122" class="colore7b8b5 svgShape"></polygon><g fill="#010001" class="color000000 svgShape"><g fill="#010001" class="color000000 svgShape"><g fill="#010001" class="color000000 svgShape"><g fill="#010001" class="color000000 svgShape"><polygon fill="#9fb8d1" points="116.585 117.252 116.585 117.853 115.008 118.77 115.008 118.168" class="colord19f9f svgShape"></polygon></g><g fill="#010001" class="color000000 svgShape"><polygon fill="#9fb8d1" points="115.008 118.168 115.008 118.77 103.349 112.038 103.349 111.437" class="colord19f9f svgShape"></polygon></g><g fill="#010001" class="color000000 svgShape"><polygon fill="#c1d5ea" points="116.585 117.252 115.008 118.168 103.349 111.437 104.926 110.52" class="coloreac2c1 svgShape"></polygon></g></g></g><g fill="#010001" class="color000000 svgShape"><g fill="#010001" class="color000000 svgShape"><g fill="#010001" class="color000000 svgShape"><polygon fill="#9fb8d1" points="68.421 133.556 68.421 134.158 104.926 112.955 104.926 112.353" class="colord19f9f svgShape"></polygon></g><g fill="#010001" class="color000000 svgShape"><polygon fill="#c1d5ea" points="66.844 132.64 68.421 133.556 104.926 112.353 103.349 111.437" class="coloreac2c1 svgShape"></polygon></g></g></g><g fill="#010001" class="color000000 svgShape"><g fill="#010001" class="color000000 svgShape"><g fill="#010001" class="color000000 svgShape"><polygon fill="#9fb8d1" points="78.503 139.371 78.503 139.973 115.008 118.77 115.008 118.168" class="colord19f9f svgShape"></polygon></g><g fill="#010001" class="color000000 svgShape"><polygon fill="#c1d5ea" points="76.926 138.455 78.503 139.371 115.008 118.168 113.431 117.252" class="coloreac2c1 svgShape"></polygon></g></g></g><g fill="#010001" class="color000000 svgShape"><g fill="#010001" class="color000000 svgShape"><g fill="#010001" class="color000000 svgShape"><polygon fill="#9fb8d1" points="78.503 139.371 78.503 139.973 76.926 140.889 76.926 140.287" class="colord19f9f svgShape"></polygon></g><g fill="#010001" class="color000000 svgShape"><polygon fill="#9fb8d1" points="76.926 140.287 76.926 140.889 65.267 134.158 65.267 133.556" class="colord19f9f svgShape"></polygon></g><g fill="#010001" class="color000000 svgShape"><polygon fill="#c1d5ea" points="78.503 139.371 76.926 140.287 65.267 133.556 66.844 132.64" class="coloreac2c1 svgShape"></polygon></g></g></g></g><g fill="#010001" class="color000000 svgShape"><g fill="#010001" class="color000000 svgShape"><polygon fill="#9fb8d1" points="66.344 134.867 66.864 134.564 66.913 148.891 66.392 149.194" class="colord19f9f svgShape"></polygon></g><g fill="#010001" class="color000000 svgShape"><polygon fill="#9fb8d1" points="74.868 152.191 75.388 151.888 66.911 147.067 66.391 147.37" class="colord19f9f svgShape"></polygon></g><g fill="#010001" class="color000000 svgShape"><g fill="#010001" class="color000000 svgShape"><g fill="#010001" class="color000000 svgShape"><polygon fill="#9fb8d1" points="76.926 140.289 76.407 140.591 64.745 133.859 65.267 133.556" class="colord19f9f svgShape"></polygon></g><g fill="#010001" class="color000000 svgShape"><polygon fill="#9fb8d1" points="76.406 140.59 76.926 140.287 76.974 154.614 76.454 154.917" class="colord19f9f svgShape"></polygon></g><g fill="#010001" class="color000000 svgShape"><polygon fill="#c1d5ea" points="75.093 140.412 76.037 142.044 66.278 148.47 65.334 146.838" class="coloreac2c1 svgShape"></polygon></g><path fill="#c1d5ea" d="M76.454,154.917l-0.049-14.327l-11.66-6.731l0.062,14.433L76.454,154.917z M66.35,136.694
								l8.477,4.821l0.035,10.673l-8.471-4.818L66.35,136.694z" class="coloreac2c1 svgShape"></path></g></g></g><g fill="#010001" class="color000000 svgShape"><g fill="#010001" class="color000000 svgShape"><polygon fill="#9fb8d1" points="115.508 118.563 114.988 118.26 114.94 132.586 115.46 132.889" class="colord19f9f svgShape"></polygon></g><g fill="#010001" class="color000000 svgShape"><polygon fill="#9fb8d1" points="78.561 152.494 78.041 152.191 114.941 130.762 115.461 131.065" class="colord19f9f svgShape"></polygon></g><g fill="#010001" class="color000000 svgShape"><g fill="#010001" class="color000000 svgShape"><g fill="#010001" class="color000000 svgShape"><polygon fill="#9fb8d1" points="76.503 140.592 77.022 140.894 117.107 117.554 116.585 117.252" class="colord19f9f svgShape"></polygon></g><g fill="#010001" class="color000000 svgShape"><polygon fill="#9fb8d1" points="77.023 140.893 76.503 140.59 76.454 154.917 76.974 155.22" class="colord19f9f svgShape"></polygon></g><path fill="#c1d5ea" d="M117.045,131.987l0.062-14.433l-40.084,23.339l-0.049,14.326L117.045,131.987z
								 M115.461,131.065l-36.895,21.426l0.035-10.673l36.9-21.429L115.461,131.065z" class="coloreac2c1 svgShape"></path></g></g></g><g fill="#010001" class="color000000 svgShape"><g fill="#010001" class="color000000 svgShape"><path fill="#9fb8d1" d="M105.281,111.231c0.197,0.114,0.198,0.299,0.002,0.413c-0.196,0.114-0.514,0.113-0.711-0.001
							c-0.197-0.114-0.2-0.298-0.004-0.412C104.764,111.117,105.084,111.117,105.281,111.231z" class="colord19f9f svgShape"></path></g><g fill="#010001" class="color000000 svgShape"><path fill="#9fb8d1" d="M115.363,117.045c0.197,0.114,0.198,0.299,0.002,0.413c-0.196,0.114-0.514,0.113-0.711-0.001
							c-0.197-0.114-0.2-0.298-0.004-0.412C114.846,116.932,115.166,116.932,115.363,117.045z" class="colord19f9f svgShape"></path></g></g><g fill="#010001" class="color000000 svgShape"><g fill="#010001" class="color000000 svgShape"><path fill="#9fb8d1" d="M67.199,133.276c0.197,0.114,0.198,0.299,0.002,0.413c-0.196,0.114-0.514,0.113-0.711-0.001
							c-0.197-0.114-0.2-0.298-0.004-0.412C66.682,133.162,67.001,133.162,67.199,133.276z" class="colord19f9f svgShape"></path></g><g fill="#010001" class="color000000 svgShape"><path fill="#9fb8d1" d="M77.281,139.091c0.197,0.114,0.198,0.299,0.002,0.413c-0.196,0.114-0.513,0.113-0.711-0.001
							c-0.197-0.114-0.2-0.298-0.004-0.412C76.764,138.977,77.083,138.977,77.281,139.091z" class="colord19f9f svgShape"></path></g></g></g><g fill="#010001" class="color000000 svgShape"><polygon fill="#f4f6f8" points="110.741 96.834 110.79 110.559 71.131 133.595 71.082 119.87" class="colorddacab svgShape"></polygon><polygon fill="#f4f6f8" points="71.082 119.87 71.131 133.595 59.472 126.864 59.424 113.139" class="colorddacab svgShape"></polygon><polygon fill="#b5cee7" points="110.741 96.834 71.082 119.87 59.424 113.139 99.083 90.103" class="colore7b8b5 svgShape"></polygon><g fill="#010001" class="color000000 svgShape"><g fill="#010001" class="color000000 svgShape"><g fill="#010001" class="color000000 svgShape"><g fill="#010001" class="color000000 svgShape"><polygon fill="#9fb8d1" points="110.741 96.232 110.741 96.834 109.165 97.751 109.165 97.149" class="colord19f9f svgShape"></polygon></g><g fill="#010001" class="color000000 svgShape"><polygon fill="#9fb8d1" points="109.165 97.149 109.165 97.751 97.506 91.02 97.506 90.418" class="colord19f9f svgShape"></polygon></g><g fill="#010001" class="color000000 svgShape"><polygon fill="#c1d5ea" points="110.741 96.232 109.165 97.149 97.506 90.418 99.083 89.501" class="coloreac2c1 svgShape"></polygon></g></g></g><g fill="#010001" class="color000000 svgShape"><g fill="#010001" class="color000000 svgShape"><g fill="#010001" class="color000000 svgShape"><polygon fill="#9fb8d1" points="62.577 112.537 62.577 113.139 99.083 91.936 99.083 91.334" class="colord19f9f svgShape"></polygon></g><g fill="#010001" class="color000000 svgShape"><polygon fill="#c1d5ea" points="61 111.621 62.577 112.537 99.083 91.334 97.506 90.418" class="coloreac2c1 svgShape"></polygon></g></g></g><g fill="#010001" class="color000000 svgShape"><g fill="#010001" class="color000000 svgShape"><g fill="#010001" class="color000000 svgShape"><polygon fill="#9fb8d1" points="72.659 118.352 72.659 118.954 109.165 97.751 109.165 97.149" class="colord19f9f svgShape"></polygon></g><g fill="#010001" class="color000000 svgShape"><polygon fill="#c1d5ea" points="71.082 117.436 72.659 118.352 109.165 97.149 107.588 96.232" class="coloreac2c1 svgShape"></polygon></g></g></g><g fill="#010001" class="color000000 svgShape"><g fill="#010001" class="color000000 svgShape"><g fill="#010001" class="color000000 svgShape"><polygon fill="#9fb8d1" points="72.659 118.352 72.659 118.954 71.082 119.87 71.082 119.269" class="colord19f9f svgShape"></polygon></g><g fill="#010001" class="color000000 svgShape"><polygon fill="#9fb8d1" points="71.082 119.269 71.082 119.87 59.424 113.139 59.424 112.537" class="colord19f9f svgShape"></polygon></g><g fill="#010001" class="color000000 svgShape"><polygon fill="#c1d5ea" points="72.659 118.352 71.082 119.269 59.424 112.537 61 111.621" class="coloreac2c1 svgShape"></polygon></g></g></g></g><g fill="#010001" class="color000000 svgShape"><g fill="#010001" class="color000000 svgShape"><polygon fill="#9fb8d1" points="60.5 113.848 61.02 113.545 61.069 127.872 60.549 128.175" class="colord19f9f svgShape"></polygon></g><g fill="#010001" class="color000000 svgShape"><polygon fill="#9fb8d1" points="69.024 131.172 69.544 130.869 61.068 126.048 60.547 126.351" class="colord19f9f svgShape"></polygon></g><g fill="#010001" class="color000000 svgShape"><g fill="#010001" class="color000000 svgShape"><g fill="#010001" class="color000000 svgShape"><polygon fill="#9fb8d1" points="71.082 119.27 70.564 119.572 58.901 112.84 59.424 112.537" class="colord19f9f svgShape"></polygon></g><g fill="#010001" class="color000000 svgShape"><polygon fill="#9fb8d1" points="70.562 119.571 71.082 119.269 71.131 133.595 70.611 133.898" class="colord19f9f svgShape"></polygon></g><g fill="#010001" class="color000000 svgShape"><polygon fill="#c1d5ea" points="69.25 119.393 70.193 121.025 60.434 127.451 59.491 125.819" class="coloreac2c1 svgShape"></polygon></g><path fill="#c1d5ea" d="M70.611,133.898l-0.049-14.327l-11.66-6.731l0.062,14.433L70.611,133.898z M60.507,115.675
								l8.476,4.821l0.035,10.673l-8.471-4.818L60.507,115.675z" class="coloreac2c1 svgShape"></path></g></g></g><g fill="#010001" class="color000000 svgShape"><g fill="#010001" class="color000000 svgShape"><polygon fill="#9fb8d1" points="109.665 97.543 109.145 97.241 109.096 111.567 109.616 111.87" class="colord19f9f svgShape"></polygon></g><g fill="#010001" class="color000000 svgShape"><polygon fill="#9fb8d1" points="72.718 131.475 72.198 131.172 109.097 109.743 109.618 110.046" class="colord19f9f svgShape"></polygon></g><g fill="#010001" class="color000000 svgShape"><g fill="#010001" class="color000000 svgShape"><g fill="#010001" class="color000000 svgShape"><polygon fill="#9fb8d1" points="70.659 119.573 71.178 119.875 111.264 96.535 110.741 96.232" class="colord19f9f svgShape"></polygon></g><g fill="#010001" class="color000000 svgShape"><polygon fill="#9fb8d1" points="71.179 119.874 70.659 119.571 70.611 133.898 71.131 134.201" class="colord19f9f svgShape"></polygon></g><path fill="#c1d5ea" d="M111.202,110.968l0.062-14.433l-40.084,23.339l-0.049,14.327L111.202,110.968z
								 M109.618,110.046l-36.895,21.426l0.035-10.673l36.9-21.429L109.618,110.046z" class="coloreac2c1 svgShape"></path></g></g></g><g fill="#010001" class="color000000 svgShape"><g fill="#010001" class="color000000 svgShape"><path fill="#9fb8d1" d="M99.437,90.212c0.197,0.114,0.198,0.299,0.002,0.413c-0.196,0.114-0.514,0.113-0.711-0.001
							c-0.197-0.114-0.2-0.298-0.004-0.412C98.921,90.098,99.24,90.098,99.437,90.212z" class="colord19f9f svgShape"></path></g><g fill="#010001" class="color000000 svgShape"><path fill="#9fb8d1" d="M109.519,96.026c0.197,0.114,0.198,0.299,0.002,0.413c-0.196,0.114-0.513,0.113-0.711-0.001
							c-0.197-0.114-0.2-0.298-0.004-0.412C109.003,95.912,109.322,95.912,109.519,96.026z" class="colord19f9f svgShape"></path></g></g><g fill="#010001" class="color000000 svgShape"><g fill="#010001" class="color000000 svgShape"><path fill="#9fb8d1" d="M61.355,112.257c0.197,0.114,0.198,0.299,0.002,0.413c-0.196,0.114-0.514,0.113-0.711-0.001
							c-0.197-0.114-0.2-0.298-0.004-0.412C60.839,112.143,61.158,112.143,61.355,112.257z" class="colord19f9f svgShape"></path></g><g fill="#010001" class="color000000 svgShape"><path fill="#9fb8d1" d="M71.437,118.072c0.197,0.114,0.198,0.299,0.002,0.413c-0.196,0.114-0.514,0.113-0.711-0.001
							c-0.197-0.114-0.2-0.298-0.004-0.412C70.92,117.958,71.24,117.958,71.437,118.072z" class="colord19f9f svgShape"></path></g></g></g></g><g fill="#010001" class="color000000 svgShape"><g fill="#010001" class="color000000 svgShape"><g fill="#010001" class="color000000 svgShape"><polygon fill="#d9e0e8" points="71.765 165.298 71.776 167.655 142.915 208.996 142.904 206.64" class="colord9dfe8 svgShape"></polygon></g><g fill="#010001" class="color000000 svgShape"><polygon fill="#d0d6dd" points="142.904 206.64 142.915 208.996 237.043 154.651 237.031 152.295" class="colord0d5dd svgShape"></polygon></g><g fill="#010001" class="color000000 svgShape"><polygon fill="#f4f6f8" points="71.765 165.298 142.904 206.64 237.031 152.295 165.893 110.953" class="coloreaeffa svgShape"></polygon></g></g></g><g fill="#010001" class="color000000 svgShape"><g fill="#010001" class="color000000 svgShape"><g fill="#010001" class="color000000 svgShape"><g fill="#010001" class="color000000 svgShape"><polygon fill="#d0d6dd" points="167.293 143.346 228.316 107.884 228.224 150.345 167.201 185.807" class="colord0d5dd svgShape"></polygon></g><g fill="#010001" class="color000000 svgShape"><polygon fill="#f4f6f8" points="167.293 134.152 167.201 185.807 106.858 149.754 106.949 109.404 134.104 113.191" class="coloreaeffa svgShape"></polygon></g></g></g><g fill="#010001" class="color000000 svgShape"><g fill="#010001" class="color000000 svgShape"><g fill="#010001" class="color000000 svgShape"><polygon fill="#ffffff" points="106.901 114.44 107.89 113.865 112.655 116.616 111.666 117.191" class="colorffffff svgShape"></polygon></g><g fill="#010001" class="color000000 svgShape"><polygon fill="#ffffff" points="113.009 117.966 113.998 117.392 120.751 121.291 119.763 121.865" class="colorffffff svgShape"></polygon></g><g fill="#010001" class="color000000 svgShape"><polygon fill="#d0d6dd" points="113.039 112.799 114.027 112.224 113.998 117.392 113.009 117.966" class="colord0d5dd svgShape"></polygon></g><g fill="#010001" class="color000000 svgShape"><polygon fill="#ffffff" points="111.695 112.023 112.684 111.449 114.027 112.224 113.039 112.799" class="colorffffff svgShape"></polygon></g><g fill="#010001" class="color000000 svgShape"><polygon fill="#ffffff" points="121.106 122.641 122.095 122.066 128.839 125.96 127.85 126.535" class="colorffffff svgShape"></polygon></g><g fill="#010001" class="color000000 svgShape"><polygon fill="#d0d6dd" points="121.152 111.391 122.141 110.817 122.095 122.066 121.106 122.641" class="colord0d5dd svgShape"></polygon></g><g fill="#010001" class="color000000 svgShape"><polygon fill="#ffffff" points="119.809 110.616 120.798 110.041 122.141 110.817 121.152 111.391" class="colorffffff svgShape"></polygon></g><g fill="#010001" class="color000000 svgShape"><polygon fill="#ffffff" points="129.194 127.31 130.182 126.736 136.926 130.629 135.938 131.204" class="colorffffff svgShape"></polygon></g><g fill="#010001" class="color000000 svgShape"><polygon fill="#ffffff" points="137.281 131.98 138.27 131.405 145.014 135.299 144.025 135.873" class="colorffffff svgShape"></polygon></g><g fill="#010001" class="color000000 svgShape"><polygon fill="#ffffff" points="127.914 109.203 128.902 108.628 130.246 109.404 129.257 109.979" class="colorffffff svgShape"></polygon></g><g fill="#010001" class="color000000 svgShape"><polygon fill="#d0d6dd" points="129.257 109.979 130.246 109.404 130.182 126.736 129.194 127.31" class="colord0d5dd svgShape"></polygon></g><g fill="#010001" class="color000000 svgShape"><polygon fill="#ffffff" points="145.369 136.649 146.357 136.074 153.11 139.973 152.122 140.548" class="colorffffff svgShape"></polygon></g><g fill="#010001" class="color000000 svgShape"><polygon fill="#ffffff" points="153.465 141.323 154.454 140.749 161.198 144.643 160.209 145.217" class="colorffffff svgShape"></polygon></g><g fill="#010001" class="color000000 svgShape"><polygon fill="#d0d6dd" points="137.362 108.565 138.351 107.991 138.27 131.405 137.281 131.98" class="colord0d5dd svgShape"></polygon></g><g fill="#010001" class="color000000 svgShape"><polygon fill="#ffffff" points="136.018 107.79 137.007 107.215 138.351 107.991 137.362 108.565" class="colorffffff svgShape"></polygon></g><g fill="#010001" class="color000000 svgShape"><polygon fill="#ffffff" points="144.089 118.542 145.077 117.967 146.421 118.743 145.432 119.317" class="colorffffff svgShape"></polygon></g><g fill="#010001" class="color000000 svgShape"><polygon fill="#d0d6dd" points="145.432 119.317 146.421 118.743 146.357 136.074 145.369 136.649" class="colord0d5dd svgShape"></polygon></g><g fill="#010001" class="color000000 svgShape"><polygon fill="#d0d6dd" points="166.317 148.744 167.306 148.169 167.3 150.259 166.312 150.833" class="colord0d5dd svgShape"></polygon></g><g fill="#010001" class="color000000 svgShape"><polygon fill="#ffffff" points="161.553 145.993 162.541 145.418 167.306 148.169 166.317 148.744" class="colorffffff svgShape"></polygon></g><g fill="#010001" class="color000000 svgShape"><polygon fill="#d0d6dd" points="153.512 130.074 154.5 129.499 154.454 140.749 153.465 141.323" class="colord0d5dd svgShape"></polygon></g><g fill="#010001" class="color000000 svgShape"><polygon fill="#ffffff" points="152.168 129.298 153.157 128.724 154.5 129.499 153.512 130.074" class="colorffffff svgShape"></polygon></g><g fill="#010001" class="color000000 svgShape"><polygon fill="#ffffff" points="160.238 140.05 161.227 139.475 162.571 140.251 161.582 140.825" class="colorffffff svgShape"></polygon></g><g fill="#010001" class="color000000 svgShape"><polygon fill="#d9e0e8" points="137.362 108.565 137.281 131.98 144.025 135.873 144.089 118.542 145.432 119.317 145.369 136.649 152.122 140.548 152.168 129.298 153.512 130.074 153.465 141.323 160.209 145.217 160.238 140.05 161.582 140.825 161.553 145.993 166.317 148.744 166.312 150.833 106.895 116.529 106.901 114.44 111.666 117.191 111.695 112.023 113.039 112.799 113.009 117.966 119.763 121.865 119.809 110.616 121.152 111.391 121.106 122.641 127.85 126.535 127.914 109.203 129.257 109.979 129.194 127.31 135.938 131.204 136.018 107.79" class="colord9dfe8 svgShape"></polygon></g><g fill="#010001" class="color000000 svgShape"><polygon fill="#d0d6dd" points="161.582 140.825 162.571 140.251 162.541 145.418 161.553 145.993" class="colord0d5dd svgShape"></polygon></g></g></g><g fill="#010001" class="color000000 svgShape"><g fill="#010001" class="color000000 svgShape"><g fill="#010001" class="color000000 svgShape"><polygon fill="#a50b89" points="104.858 108.19 169.813 70.442 201.068 77.555 136.113 115.303" class="colore576ad svgShape"></polygon></g><g fill="#010001" class="color000000 svgShape"><polygon fill="#a50b89" points="167.306 144.245 232.261 106.497 232.224 109.455 167.27 147.203" class="colore576ad svgShape"></polygon></g><g fill="#010001" class="color000000 svgShape"><polygon fill="#93c8fd" points="136.113 115.303 201.068 77.555 232.261 106.497 167.306 144.245" class="colorfd93bf svgShape"></polygon></g><g fill="#010001" class="color000000 svgShape"><polygon fill="#8982ed" points="136.113 115.303 167.306 144.245 167.27 147.203 136.107 118.326 104.858 111.178 104.858 108.19" class="color8294ed svgShape"></polygon></g></g></g><g fill="#010001" class="color000000 svgShape"><g fill="#010001" class="color000000 svgShape"><polygon fill="#8982ed" points="167.201 187.818 228.224 152.355 228.255 137.03 167.176 174.836" class="color8294ed svgShape"></polygon></g><g fill="#010001" class="color000000 svgShape"><polygon fill="#f4f6f8" points="167.232 172.493 167.176 174.836 228.25 139.372 228.255 137.03" class="coloreaeffa svgShape"></polygon></g></g><g fill="#010001" class="color000000 svgShape"><g fill="#010001" class="color000000 svgShape"><polygon fill="#938cf7" points="167.201 187.818 106.797 152.918 106.858 137.443 167.171 172.493" class="color8ca8f7 svgShape"></polygon></g><g fill="#010001" class="color000000 svgShape"><polygon fill="#ffffff" points="167.171 172.493 167.176 174.836 106.848 139.777 106.858 137.443" class="colorffffff svgShape"></polygon></g></g><g fill="#010001" class="color000000 svgShape"><polygon fill="#312d74" points="118.294 128.971 118.35 159.606 145.706 144.06" class="color2d3a74 svgShape"></polygon><polygon fill="#5046e4" points="155.708 149.566 145.706 144.06 118.35 159.606 155.764 181.214" class="color3f528c svgShape"></polygon></g></g><g fill="#010001" class="color000000 svgShape"><g fill="#010001" class="color000000 svgShape"><polygon fill="#8982ed" points="167.381 118.368 167.294 144.252 136.107 115.308 104.861 108.196 104.948 82.313" class="color8294ed svgShape"></polygon></g><g fill="#010001" class="color000000 svgShape"><g fill="#010001" class="color000000 svgShape"><polygon fill="#b7dbff" points="168.576 117.671 168.489 146.498 167.265 147.197 167.381 118.37 104.948 82.315 106.143 81.616" class="colorb7ceff svgShape"></polygon></g></g></g><g fill="#010001" class="color000000 svgShape"><polygon fill="#f4f6f8" points="118.512 96.871 118.438 96.829 117.224 100.084 116.17 95.52 115.309 95.022 114.234 98.355 113.051 93.743 113.043 93.715 111.963 93.092 113.731 99.992 113.74 100.021 114.677 100.563 115.712 97.312 116.721 101.715 116.728 101.746 117.661 102.286 119.471 97.424" class="coloreaeffa svgShape"></polygon><path fill="#f4f6f8" d="M122.389 99.11l-.924-.534-.067-.039-2.247 4.53-.03.062.958.553.067.037.502-1.014 2.407 1.391.497 1.59 1.082.625-2.237-7.174L122.389 99.11zM122.653 102.803l-1.596-.922.804-1.616L122.653 102.803zM128.236 106.248c.273.038.49-.008.659-.139.244-.193.369-.571.371-1.124.001-.662-.166-1.249-.5-1.745-.33-.489-.886-.961-1.656-1.405l-1.961-1.132-.017 5.852v.043l.985.568.006-1.923.978.563 1.176 2.59.01.023 1.285.742L128.236 106.248zM128.044 105.084c-.097.04-.34.026-.908-.303l-1.012-.582.006-1.882.963.556c.441.253.75.498.919.728.167.233.249.522.247.883 0 .233-.038.529-.214.599L128.044 105.084z" class="coloreaeffa svgShape"></path><polygon fill="#f4f6f8" points="131.317 107.723 133.598 109.041 133.706 109.103 133.709 108.074 131.319 106.695 131.324 105.346 133.877 106.821 133.985 106.883 133.988 105.807 130.449 103.764 130.341 103.702 130.325 109.555 130.325 109.597 133.947 111.688 134.056 111.75 134.058 110.673 131.313 109.089" class="coloreaeffa svgShape"></polygon><polygon fill="#f4f6f8" points="138.32 110.794 135.986 109.447 135.993 106.964 135.008 106.397 134.993 112.25 134.993 112.292 135.978 112.859 135.985 110.516 138.317 111.862 138.31 114.207 139.295 114.776 139.311 108.923 139.311 108.881 138.327 108.312" class="coloreaeffa svgShape"></polygon><path fill="#f4f6f8" d="M142.963 110.849c-.764-.44-1.419-.519-1.939-.232-.531.287-.801.874-.802 1.742-.003.853.253 1.724.761 2.589.506.864 1.141 1.522 1.89 1.954.462.267.885.399 1.263.399.244 0 .472-.056.679-.169.53-.288.799-.874.802-1.742.003-.853-.253-1.725-.762-2.591C144.352 111.941 143.715 111.283 142.963 110.849zM144.611 114.892c-.003.547-.164.923-.482 1.117-.313.191-.712.154-1.18-.118-.482-.277-.892-.715-1.222-1.302-.333-.589-.5-1.17-.499-1.731.003-.555.16-.92.48-1.117.135-.081.28-.121.437-.121.221 0 .466.079.742.239.48.275.892.714 1.225 1.301C144.445 113.75 144.612 114.332 144.611 114.892zM149.853 118.267c-.003.507-.107.833-.316.995-.201.155-.49.128-.85-.083-.378-.216-.68-.542-.899-.964-.223-.436-.332-.899-.33-1.413l.01-3.172v-.041l-.986-.569-.008 3.34c-.003.83.197 1.597.596 2.283.401.683.919 1.212 1.543 1.574.393.226.747.34 1.061.34.194 0 .371-.045.533-.132.423-.233.631-.766.634-1.627l.008-3.257-.985-.569L149.853 118.267zM154.043 119.769c-.5-.427-.833-.753-.989-.964-.147-.204-.219-.409-.218-.627 0-.1.023-.149.046-.195.015-.024.023-.056.043-.073.027-.021.056-.044.082-.049.142-.014.332.038.558.17.239.138.486.33.733.569.242.233.438.472.586.711l.049.079.555-.582-.031-.048c-.233-.357-.51-.69-.822-.989-.315-.304-.638-.551-.961-.739-.513-.294-.955-.392-1.304-.295-.37.1-.556.438-.558 1.003-.001.542.15 1.04.451 1.475.142.219.315.433.511.636.194.197.468.447.84.764.371.319.62.572.761.771.141.195.212.399.211.604 0 .103-.025.157-.053.207-.012.018-.019.041-.034.056-.032.029-.067.055-.099.063-.146.037-.344-.022-.593-.166-.532-.306-1.052-.857-1.544-1.637l-.042-.067-.645.513.035.055c.604.972 1.309 1.696 2.098 2.151.391.225.733.339 1.023.339.119 0 .23-.018.332-.058.36-.131.544-.466.545-.997.001-.511-.132-.981-.398-1.398C154.945 120.633 154.551 120.202 154.043 119.769z" class="coloreaeffa svgShape"></path><polygon fill="#f4f6f8" points="157.49 124.203 157.495 122.835 159.776 124.152 159.884 124.214 159.886 123.189 157.497 121.809 157.502 120.46 160.054 121.936 160.163 121.997 160.165 120.921 156.626 118.877 156.518 118.815 156.503 124.67 156.503 124.71 160.127 126.804 160.236 126.866 160.238 125.789" class="coloreaeffa svgShape"></polygon></g><g fill="#010001" class="color000000 svgShape"><g fill="#010001" class="color000000 svgShape"><polygon fill="#9fb8d1" points="141.067 163.718 141.007 177.956 155.743 169.391 155.718 155.205" class="colord19f9f svgShape"></polygon></g><polygon fill="#312d74" points="147.63 159.904 151.976 157.379 151.916 171.616 147.57 174.141" class="color2d3a74 svgShape"></polygon><g fill="#010001" class="color000000 svgShape"><polygon fill="#b5cee7" points="139.988 142.776 122.448 152.969 141.067 163.718 155.718 155.205 155.712 151.853" class="colore7b8b5 svgShape"></polygon></g><polygon fill="#5046e4" points="129.56 157.079 147.104 146.884 151.464 149.401 133.92 159.596" class="color3f528c svgShape"></polygon><polygon fill="#5046e4" points="151.976 157.379 133.418 146.594 129.072 149.119 147.63 159.904" class="color3f528c svgShape"></polygon><polygon fill="#f4f6f8" points="141.067 163.718 141.007 177.956 122.388 167.206 122.448 152.968" class="colorddacab svgShape"></polygon><g fill="#010001" class="color000000 svgShape"><g fill="#010001" class="color000000 svgShape"><polygon fill="#312d74" points="133.92 159.596 133.895 165.171 133.207 163.831 132.46 164.415 131.717 162.971 130.969 163.554 130.228 162.111 129.535 162.653 129.56 157.079" class="color2d3a74 svgShape"></polygon></g></g><g fill="#010001" class="color000000 svgShape"><polygon fill="#312d74" points="129.56 167.648 129.546 171.339 133.906 173.856 133.92 170.165" class="color2d3a74 svgShape"></polygon></g></g><g fill="#010001" class="color000000 svgShape"><polygon fill="#9fb8d1" points="99.01 163.889 111.763 156.478 111.719 166.83 98.966 174.241" class="colord19f9f svgShape"></polygon><polygon fill="#312d74" points="103.782 161.116 106.942 159.28 106.897 169.632 103.738 171.468" class="color2d3a74 svgShape"></polygon><polygon fill="#b5cee7" points="85.472 156.073 98.225 148.661 111.763 156.478 99.01 163.889" class="colore7b8b5 svgShape"></polygon><polygon fill="#5046e4" points="90.643 159.062 103.396 151.65 106.566 153.48 93.813 160.892" class="color3f528c svgShape"></polygon><polygon fill="#5046e4" points="106.942 159.28 93.448 151.438 90.288 153.274 103.782 161.116" class="color3f528c svgShape"></polygon><polygon fill="#f4f6f8" points="99.01 163.889 98.966 174.241 85.428 166.425 85.472 156.073" class="colorddacab svgShape"></polygon><g fill="#010001" class="color000000 svgShape"><g fill="#010001" class="color000000 svgShape"><polygon fill="#312d74" points="93.813 160.892 93.794 164.945 93.294 163.971 92.751 164.396 92.211 163.346 91.667 163.77 91.128 162.72 90.624 163.115 90.643 159.062" class="color2d3a74 svgShape"></polygon></g></g><g fill="#010001" class="color000000 svgShape"><polygon fill="#312d74" points="90.643 166.746 90.633 169.43 93.803 171.26 93.813 168.577" class="color2d3a74 svgShape"></polygon></g></g><g fill="#010001" class="color000000 svgShape"><polygon fill="#9fb8d1" points="145.166 192.182 156.622 185.524 156.583 194.823 145.126 201.481" class="colord19f9f svgShape"></polygon><polygon fill="#312d74" points="149.453 189.691 152.291 188.041 152.251 197.34 149.413 198.99" class="color2d3a74 svgShape"></polygon><polygon fill="#b5cee7" points="133.004 185.16 144.461 178.502 156.622 185.524 145.166 192.182" class="colore7b8b5 svgShape"></polygon><polygon fill="#5046e4" points="137.65 187.845 149.106 181.187 151.954 182.831 140.497 189.489" class="color3f528c svgShape"></polygon><polygon fill="#5046e4" points="152.291 188.041 140.169 180.997 137.33 182.646 149.453 189.691" class="color3f528c svgShape"></polygon><polygon fill="#f4f6f8" points="145.166 192.182 145.126 201.481 132.964 194.46 133.004 185.16" class="colorddacab svgShape"></polygon><g fill="#010001" class="color000000 svgShape"><g fill="#010001" class="color000000 svgShape"><polygon fill="#312d74" points="140.497 189.489 140.481 193.13 140.031 192.255 139.544 192.637 139.058 191.694 138.57 192.075 138.086 191.132 137.633 191.486 137.65 187.845" class="color2d3a74 svgShape"></polygon></g></g><g fill="#010001" class="color000000 svgShape"><polygon fill="#312d74" points="137.65 194.748 137.64 197.159 140.488 198.803 140.497 196.393" class="color2d3a74 svgShape"></polygon></g></g><g fill="#010001" class="color000000 svgShape"><g fill="#010001" class="color000000 svgShape"><g fill="#010001" class="color000000 svgShape"><g fill="#010001" class="color000000 svgShape"><path fill="#632363" d="M95.491,228.899c-1.231-0.71-2.346-0.776-3.152-0.308l-4.413,2.564
							c0.806-0.468,1.922-0.403,3.152,0.308c2.445,1.412,4.424,4.839,4.416,7.649c-0.004,1.396-0.497,2.378-1.293,2.841l4.413-2.565
							c0.796-0.462,1.289-1.445,1.293-2.841C99.915,233.739,97.936,230.311,95.491,228.899z" class="color233163 svgShape"></path></g></g><g fill="#010001" class="color000000 svgShape"><g fill="#010001" class="color000000 svgShape"><g fill="#010001" class="color000000 svgShape"><g fill="#010001" class="color000000 svgShape"><path fill="#632363" d="M49.966,202.651c-1.23-0.71-2.346-0.776-3.152-0.307l-4.413,2.564
									c0.806-0.468,1.921-0.403,3.152,0.308c2.445,1.412,4.424,4.84,4.416,7.649c-0.004,1.396-0.497,2.378-1.293,2.841
									l4.413-2.564c0.796-0.462,1.289-1.445,1.293-2.841C54.39,207.491,52.411,204.063,49.966,202.651z" class="color233163 svgShape"></path></g></g><g fill="#010001" class="color000000 svgShape"><g fill="#010001" class="color000000 svgShape"><path fill="#632363" d="M49.966,202.651c-1.23-0.71-2.346-0.776-3.152-0.307l-4.413,2.564
									c0.806-0.468,1.921-0.403,3.152,0.308c2.445,1.412,4.424,4.84,4.416,7.649c-0.004,1.396-0.497,2.378-1.293,2.841
									l4.413-2.564c0.796-0.462,1.289-1.445,1.293-2.841C54.39,207.491,52.411,204.063,49.966,202.651z" class="color233163 svgShape"></path></g></g><g fill="#010001" class="color000000 svgShape"><g fill="#010001" class="color000000 svgShape"><polygon fill="#d9e0e8" points="33.157 191.139 55.433 178.194 93.677 200.273 92.623 204.966 74.923 215.252" class="colord9dfe8 svgShape"></polygon></g><g fill="#010001" class="color000000 svgShape"><polygon fill="#d0d6dd" points="77.441 197.809 77.434 228.649 69.606 224.167 69.619 219.658 33.14 198.598 33.157 191.139 74.923 215.252 74.965 196.379" class="colord0d5dd svgShape"></polygon></g><g fill="#010001" class="color000000 svgShape"><path fill="#bcc4cc" d="M35.491,204.47l0.013-4.508l5.664,3.27c-0.848,0.656-1.439,1.85-1.703,3.533L35.491,204.47z" class="colorbcc2cc svgShape"></path></g><g fill="#010001" class="color000000 svgShape"><g fill="#010001" class="color000000 svgShape"><path fill="#5046e4" d="M49.998,212.847c-0.008,2.821-2.005,3.96-4.46,2.542c-2.455-1.417-4.439-4.855-4.431-7.676
										c0.008-2.821,2.005-3.958,4.46-2.541C48.022,206.589,50.007,210.026,49.998,212.847z" class="color3f528c svgShape"></path></g><g fill="#010001" class="color000000 svgShape"><path fill="#ffffff" d="M48.601,212.039c-0.006,1.936-1.374,2.714-3.058,1.743
										c-1.684-0.972-3.044-3.327-3.038-5.263c0.005-1.933,1.374-2.713,3.058-1.741C47.246,207.751,48.607,210.106,48.601,212.039
										z" class="colorffffff svgShape"></path></g><g fill="#010001" class="color000000 svgShape"><path fill="#bcc4cc" d="M45.557,208.697c0.761,0.439,1.376,1.505,1.373,2.378c-0.003,0.875-0.621,1.228-1.382,0.788
										c-0.761-0.439-1.376-1.504-1.373-2.379C44.178,208.61,44.797,208.257,45.557,208.697z" class="colorbcc2cc svgShape"></path></g><g fill="#010001" class="color000000 svgShape"><path fill="#312d74" d="M45.572,203.471c1.797,1.038,3.31,2.741,4.392,4.84c0.842,1.632,1.424,3.503,1.677,5.484
										l-1.642-0.948c0.008-2.821-1.976-6.257-4.432-7.675c-2.455-1.417-4.452-0.279-4.46,2.541l-1.643-0.948
										c0.264-1.683,0.855-2.877,1.703-3.533C42.258,202.388,43.775,202.433,45.572,203.471z" class="color2d3a74 svgShape"></path></g><g fill="#010001" class="color000000 svgShape"><path fill="#312d74" d="M45.572,203.471c1.797,1.038,3.31,2.741,4.392,4.84c0.842,1.632,1.424,3.503,1.677,5.484
										l-1.642-0.948c0.008-2.821-1.976-6.257-4.432-7.675c-2.455-1.417-4.452-0.279-4.46,2.541l-1.643-0.948
										c0.264-1.683,0.855-2.877,1.703-3.533C42.258,202.388,43.775,202.433,45.572,203.471z" class="color2d3a74 svgShape"></path></g></g><g fill="#010001" class="color000000 svgShape"><path fill="#bcc4cc" d="M49.964,208.31l19.654,11.347l-0.013,4.509l-17.964-10.372
									C51.388,211.813,50.806,209.942,49.964,208.31z" class="colorbcc2cc svgShape"></path></g><g fill="#010001" class="color000000 svgShape"><path fill="#5046e4" d="M75.047,222.809c0.198,0.114,0.358,0.391,0.357,0.62l-0.005,1.695
									c-0.001,0.228-0.162,0.32-0.36,0.206l-3.441-1.986c-0.198-0.114-0.358-0.392-0.357-0.62l0.005-1.695
									c0.001-0.228,0.162-0.32,0.36-0.206L75.047,222.809z" class="color3f528c svgShape"></path></g></g></g></g><g fill="#010001" class="color000000 svgShape"><g fill="#010001" class="color000000 svgShape"><g fill="#010001" class="color000000 svgShape"><g fill="#010001" class="color000000 svgShape"><g fill="#010001" class="color000000 svgShape"><g fill="#010001" class="color000000 svgShape"><g fill="#010001" class="color000000 svgShape"><g fill="#010001" class="color000000 svgShape"><g fill="#010001" class="color000000 svgShape"><path fill="#6560ad" d="M116.679,222.214l-8.205-5.339l-18.922,10.998l-3.987-11.18L77.434,212v16.65
														l20.907,12.195c1.223,0.706,2.73,0.704,3.951-0.006l16.948-9.85l0.011-3.879
														C119.256,225.152,118.293,223.32,116.679,222.214z" class="color60ad88 svgShape"></path><g fill="#010001" class="color000000 svgShape"><polygon fill="#ffffff" points="107.46 233.152 107.467 235.547 112.616 232.574 112.609 230.179" class="colorffffff svgShape"></polygon></g><g fill="#010001" class="color000000 svgShape"><polygon fill="#6560ad" points="85.562 216.691 104.486 205.693 108.475 216.874 89.551 227.871" class="color60ad88 svgShape"></polygon><path fill="#5046e4" d="M107.193,216.044l-2.992-8.387c-0.112-0.312-0.479-0.447-0.766-0.28l-16.359,9.507
															c-0.221,0.128-0.319,0.396-0.233,0.636l2.992,8.387c0.112,0.312,0.479,0.447,0.766,0.28l16.359-9.507
															C107.181,216.552,107.279,216.284,107.193,216.044z" class="color3f528c svgShape"></path><g fill="#010001" class="color000000 svgShape"><path fill="#d9e0e8" d="M107.193,216.044l-2.992-8.387c-0.099-0.278-0.401-0.414-0.668-0.324l2.915,8.172
																c0.086,0.241-0.012,0.508-0.233,0.637l-16.359,9.507c-0.032,0.019-0.065,0.033-0.098,0.044l0.077,0.215
																c0.112,0.312,0.479,0.447,0.766,0.28l16.359-9.507C107.181,216.552,107.279,216.284,107.193,216.044z" class="colord9dfe8 svgShape"></path></g></g></g></g><g fill="#010001" class="color000000 svgShape"><g fill="#010001" class="color000000 svgShape"><path fill="#ffffff" d="M85.024,227.392c0.298,0.172,0.539,0.589,0.538,0.931
														c-0.001,0.343-0.243,0.481-0.541,0.309l-1.954-1.128c-0.298-0.172-0.539-0.589-0.538-0.932
														c0.001-0.343,0.243-0.48,0.541-0.308L85.024,227.392z" class="colorffffff svgShape"></path></g></g></g></g><path fill="#5046e4" d="M88.278,226.688l-3.174-8.896c-0.1-0.279-0.299-0.533-0.516-0.659l-5.481-3.165
										c-0.322-0.186-0.583-0.037-0.584,0.333l-0.02,7.052c-0.001,0.369,0.259,0.82,0.58,1.005l8.675,5.009
										C88.196,227.62,88.478,227.25,88.278,226.688z" class="color3f528c svgShape"></path><path fill="#d9e0e8" d="M79.142,220.954l0.02-6.954l-0.054-0.031c-0.322-0.186-0.583-0.037-0.584,0.333l-0.02,7.052
										c-0.001,0.369,0.259,0.82,0.58,1.005l8.675,5.009c0.37,0.213,0.627-0.019,0.578-0.435l-8.614-4.973
										C79.4,221.773,79.141,221.323,79.142,220.954z" class="colord9dfe8 svgShape"></path></g><g fill="#010001" class="color000000 svgShape"><path fill="#632363" d="M102.296,239.746c-1.221,0.71-2.728,0.712-3.951,0.006v1.242
										c1.223,0.706,2.73,0.704,3.951-0.006l17.15-9.967v-1.242L102.296,239.746z" class="color233163 svgShape"></path><path fill="#5046e4" d="M119.244,229.578l-16.51,9.597c-1.181,0.686-2.531,1.236-4.218,0.379l-0.172,0.198
										c1.223,0.706,2.73,0.704,3.951-0.005l17.15-9.967L119.244,229.578z" class="color3f528c svgShape"></path></g></g></g></g><g fill="#010001" class="color000000 svgShape"><polygon fill="#8cadcf" points="77.435 211.999 85.562 216.691 104.486 205.693 96.359 201.001" class="color8ccfb1 svgShape"></polygon></g><path fill="#8cadcf" d="M118.419,224.081c-0.431-0.732-1.019-1.373-1.74-1.867l-8.205-5.338l-18.92,10.997
						c2.242,0.899,7.118,4.782,9.445,6.692c0.783,0.643,1.88,0.736,2.763,0.24l16.246-9.132
						C118.572,225.355,118.747,224.638,118.419,224.081z" class="color8ccfb1 svgShape"></path></g><g fill="#010001" class="color000000 svgShape"><g fill="#010001" class="color000000 svgShape"><g fill="#010001" class="color000000 svgShape"><path fill="#5046e4" d="M95.524,239.094c-0.008,2.821-2.005,3.96-4.46,2.542c-2.455-1.417-4.439-4.855-4.431-7.676
								c0.008-2.821,2.005-3.958,4.46-2.541C93.548,232.837,95.533,236.274,95.524,239.094z" class="color3f528c svgShape"></path></g><g fill="#010001" class="color000000 svgShape"><path fill="#ffffff" d="M94.127,238.287c-0.006,1.936-1.374,2.714-3.058,1.743c-1.684-0.972-3.044-3.328-3.038-5.263
								c0.005-1.933,1.374-2.713,3.058-1.741C92.772,233.998,94.132,236.354,94.127,238.287z" class="colorffffff svgShape"></path></g><g fill="#010001" class="color000000 svgShape"><path fill="#bcc4cc" d="M91.083,234.944c0.761,0.439,1.376,1.505,1.373,2.378c-0.003,0.875-0.621,1.228-1.382,0.789
								c-0.76-0.439-1.376-1.505-1.373-2.379C89.703,234.858,90.322,234.505,91.083,234.944z" class="colorbcc2cc svgShape"></path></g></g><g fill="#010001" class="color000000 svgShape"><path fill="#312d74" d="M91.098,229.718c1.797,1.038,3.309,2.741,4.392,4.84c0.842,1.632,1.424,3.62,1.677,5.602
							l-1.643-0.948c0.008-2.821-1.976-6.375-4.431-7.792c-2.455-1.418-4.452-0.28-4.46,2.541l-1.643-0.949
							c0.264-1.683,0.855-2.877,1.703-3.533C87.783,228.635,89.3,228.681,91.098,229.718z" class="color2d3a74 svgShape"></path></g></g></g><g fill="#010001" class="color000000 svgShape"><g fill="#010001" class="color000000 svgShape"><polygon fill="#9fb8d1" points="54.172 190.022 67.546 182.25 67.499 193.106 54.126 200.878" class="colord19f9f svgShape"></polygon><polygon fill="#312d74" points="59.176 187.114 62.49 185.189 62.443 196.044 59.13 197.97" class="color2d3a74 svgShape"></polygon><polygon fill="#b5cee7" points="39.975 181.826 53.349 174.054 67.546 182.25 54.172 190.022" class="colore7b8b5 svgShape"></polygon><polygon fill="#5046e4" points="45.398 184.96 58.772 177.188 62.096 179.107 48.722 186.879" class="color3f528c svgShape"></polygon><polygon fill="#5046e4" points="62.49 185.189 48.339 176.965 45.025 178.891 59.176 187.114" class="color3f528c svgShape"></polygon><polygon fill="#f4f6f8" points="54.172 190.022 54.126 200.878 39.929 192.681 39.975 181.826" class="colorddacab svgShape"></polygon><g fill="#010001" class="color000000 svgShape"><g fill="#010001" class="color000000 svgShape"><polygon fill="#312d74" points="48.722 186.879 48.703 191.13 48.178 190.108 47.609 190.554 47.042 189.452 46.472 189.897 45.907 188.797 45.378 189.21 45.398 184.96" class="color2d3a74 svgShape"></polygon></g></g><g fill="#010001" class="color000000 svgShape"><polygon fill="#312d74" points="45.398 193.018 45.387 195.833 48.711 197.752 48.722 194.938" class="color2d3a74 svgShape"></polygon></g></g><g fill="#010001" class="color000000 svgShape"><polygon fill="#9fb8d1" points="70.672 199.548 84.045 191.776 83.999 202.632 70.625 210.404" class="colord19f9f svgShape"></polygon><polygon fill="#312d74" points="75.676 196.64 78.989 194.715 78.943 205.57 75.629 207.496" class="color2d3a74 svgShape"></polygon><polygon fill="#b5cee7" points="56.475 191.352 69.848 183.58 84.045 191.776 70.672 199.548" class="colore7b8b5 svgShape"></polygon><polygon fill="#5046e4" points="61.898 194.486 75.271 186.714 78.596 188.633 65.222 196.405" class="color3f528c svgShape"></polygon><polygon fill="#5046e4" points="78.989 194.715 64.839 186.491 61.525 188.417 75.676 196.64" class="color3f528c svgShape"></polygon><polygon fill="#f4f6f8" points="70.672 199.548 70.625 210.404 56.428 202.208 56.475 191.352" class="colorddacab svgShape"></polygon><g fill="#010001" class="color000000 svgShape"><g fill="#010001" class="color000000 svgShape"><polygon fill="#312d74" points="65.222 196.405 65.202 200.656 64.678 199.634 64.109 200.08 63.542 198.979 62.972 199.423 62.407 198.323 61.878 198.736 61.898 194.486" class="color2d3a74 svgShape"></polygon></g></g><g fill="#010001" class="color000000 svgShape"><polygon fill="#312d74" points="61.898 202.545 61.887 205.359 65.211 207.278 65.222 204.464" class="color2d3a74 svgShape"></polygon></g></g></g><g fill="#010001" class="color000000 svgShape"><g fill="#010001" class="color000000 svgShape"><polygon fill="#9fb8d1" points="63.852 183.464 77.226 175.692 77.179 186.547 63.806 194.319" class="colord19f9f svgShape"></polygon><polygon fill="#312d74" points="68.856 180.556 72.17 178.63 72.123 189.486 68.81 191.411" class="color2d3a74 svgShape"></polygon><polygon fill="#b5cee7" points="49.655 175.267 63.029 167.495 77.226 175.692 63.852 183.464" class="colore7b8b5 svgShape"></polygon><polygon fill="#5046e4" points="55.078 178.401 68.452 170.629 71.776 172.549 58.402 180.321" class="color3f528c svgShape"></polygon><polygon fill="#5046e4" points="72.17 178.63 58.019 170.406 54.705 172.332 68.856 180.556" class="color3f528c svgShape"></polygon><polygon fill="#f4f6f8" points="63.852 183.464 63.806 194.319 49.609 186.123 49.655 175.267" class="colorddacab svgShape"></polygon><g fill="#010001" class="color000000 svgShape"><g fill="#010001" class="color000000 svgShape"><polygon fill="#312d74" points="58.402 180.321 58.383 184.571 57.858 183.549 57.289 183.995 56.722 182.894 56.152 183.339 55.587 182.238 55.058 182.652 55.078 178.401" class="color2d3a74 svgShape"></polygon></g></g><g fill="#010001" class="color000000 svgShape"><polygon fill="#312d74" points="55.078 186.46 55.067 189.274 58.391 191.193 58.402 188.379" class="color2d3a74 svgShape"></polygon></g></g></g><g fill="#010001" class="color000000 svgShape"><g fill="#010001" class="color000000 svgShape"><g fill="#010001" class="color000000 svgShape"><path fill="#ffffff" d="M117.883,229.213c0.458-0.265,0.846-0.911,0.845-1.438c-0.002-0.553-0.392-0.749-0.85-0.485
							l-2.146,1.239c-0.458,0.265-0.824,0.898-0.822,1.45c0.002,0.527,0.369,0.737,0.827,0.472L117.883,229.213z" class="colorffffff svgShape"></path></g><path fill="#93c8fd" d="M117.354,229.518l0.529-0.305c0.458-0.264,0.847-0.911,0.845-1.438
						c-0.002-0.552-0.392-0.75-0.85-0.485l-0.529,0.305L117.354,229.518z" class="colorfd93bf svgShape"></path></g></g><g fill="#010001" class="color000000 svgShape"><g fill="#010001" class="color000000 svgShape"><path fill="#ffffff" d="M102.193,236.35c-0.458,0.264-0.847,0.911-0.845,1.438c0.002,0.553,0.392,0.749,0.85,0.485
						l2.146-1.239c0.458-0.264,0.824-0.897,0.822-1.45c-0.001-0.527-0.369-0.737-0.827-0.472L102.193,236.35z" class="colorffffff svgShape"></path></g><path fill="#93c8fd" d="M102.722,236.045l-0.529,0.305c-0.458,0.263-0.847,0.911-0.845,1.438
					c0.002,0.552,0.392,0.75,0.85,0.485l0.529-0.305L102.722,236.045z" class="colorfd93bf svgShape"></path></g><path fill="#6560ad" d="M106.425 218.067l-.919.534c5.563 3.867 5.845 9.27 5.845 9.27C112.164 221.752 106.425 218.067 106.425 218.067zM94.299 225.061l-1.115.702c0 0 4.354 5.209 11.544 5.252C104.728 231.016 97.586 229.959 94.299 225.061z" class="color60ad88 svgShape"></path><g fill="#010001" class="color000000 svgShape"><polygon fill="#d0d6dd" points="77.437 211.44 77.44 197.808 74.965 196.38 74.932 211.44" class="colord0d5dd svgShape"></polygon></g><g fill="#010001" class="color000000 svgShape"><polygon fill="#f4f6f8" points="74.965 196.379 93.886 185.383 96.362 186.813 77.441 197.809" class="coloreaeffa svgShape"></polygon></g><g fill="#010001" class="color000000 svgShape"><polygon fill="#bcc4cc" points="77.441 197.809 96.362 186.813 96.359 201.001 77.434 212" class="colorbcc2cc svgShape"></polygon></g></g><g fill="#010001" class="color000000 svgShape"><g fill="#010001" class="color000000 svgShape"><g fill="#010001" class="color000000 svgShape"><g fill="#010001" class="color000000 svgShape"><path fill="#8982ed" d="M203.777,217.68v3.202c0,2.55-1.691,5.131-5.072,7.089c-6.792,3.945-17.855,3.945-24.706,0
							c-3.44-1.987-5.131-4.598-5.131-7.208v-3.173c0,2.581,1.72,5.19,5.161,7.179c6.822,3.944,17.885,3.974,24.677,0
							C202.087,222.811,203.777,220.259,203.777,217.68z" class="color8294ed svgShape"></path></g><g fill="#010001" class="color000000 svgShape"><path fill="#b7dbff" d="M198.627,210.48c6.836,3.947,6.872,10.354,0.08,14.301c-6.792,3.947-17.852,3.947-24.688,0
							c-6.836-3.947-6.873-10.353-0.081-14.3C180.73,206.533,191.791,206.533,198.627,210.48z" class="colorb7ceff svgShape"></path></g><g fill="#010001" class="color000000 svgShape"><path fill="#5046e4" d="M193.47,213.476c3.971,2.293,3.992,6.015,0.047,8.308c-3.945,2.293-10.37,2.293-14.342,0
							c-3.971-2.293-3.992-6.014-0.047-8.307C183.074,211.184,189.499,211.184,193.47,213.476z" class="color3f528c svgShape"></path></g></g></g><g fill="#010001" class="color000000 svgShape"><g fill="#010001" class="color000000 svgShape"><path fill="#93c8fd" d="M191.647,203.245l-2.293,1.342c-0.885,0.525-2.13,0.459-3.473-0.326
						c-2.719-1.541-4.882-5.34-4.882-8.422c0-1.539,0.557-2.62,1.442-3.145l2.294-1.342c-0.885,0.523-1.409,1.605-1.409,3.145
						c-0.033,3.08,2.163,6.881,4.849,8.42C189.517,203.704,190.762,203.768,191.647,203.245z" class="colorfd93bf svgShape"></path></g><g fill="#010001" class="color000000 svgShape"><path fill="#a50b89" d="M185.827,187.04c5.603,3.235,10.115,11.05,10.097,17.458
						c-0.018,6.438-9.68,14.371-10.188,14.788c-0.503-1.002-10.064-20.032-10.046-26.47
						C175.708,186.407,180.25,183.819,185.827,187.04z M185.865,204.264c2.699,1.558,4.902,0.301,4.911-2.799
						c0.009-3.078-2.181-6.869-4.879-8.427c-2.699-1.558-4.881-0.291-4.89,2.787C180.998,198.926,183.166,202.706,185.865,204.264" class="colore576ad svgShape"></path></g><path fill="#93c8fd" d="M188.575,185.439c-2.781-1.605-5.328-1.762-7.169-0.704l-2.781,1.607
					c1.841-1.06,4.387-0.941,7.208,0.704c5.602,3.213,10.107,11.048,10.107,17.471c-0.039,6.425-9.676,14.338-10.185,14.769
					c0,0,12.697-6.819,12.927-16.375C198.837,196.489,194.177,188.653,188.575,185.439z" class="colorfd93bf svgShape"></path></g></g></g><g fill="#010001" class="color000000 svgShape"><path fill="#8cadcf" d="M238.537,192.615c4.319,0.977,8.089-2.793,7.112-7.112c-0.486-2.147-2.214-3.875-4.36-4.36
			c-4.319-0.977-8.089,2.793-7.112,7.112C234.662,190.402,236.39,192.13,238.537,192.615z" class="color8ccfb1 svgShape"></path><path fill="#b7dbff" d="M131.649,67.576c-1.104,2.16-3.878,2.686-5.69,1.152c-1.278-1.082-1.669-2.977-0.907-4.468
			c1.104-2.16,3.878-2.686,5.69-1.152C132.02,64.19,132.411,66.085,131.649,67.576z" class="colorb7ceff svgShape"></path><circle cx="49.676" cy="95.021" r="1.849" fill="#bcc4cc" transform="rotate(-56.075 49.675 95.018)" class="colorbcc2cc svgShape"></circle><path fill="#83baf2" d="M138.643,72.666c-0.663,1.643-2.776,1.986-3.926,0.637c-0.533-0.626-0.681-1.538-0.374-2.3
			c0.664-1.643,2.777-1.985,3.926-0.637C138.803,70.992,138.951,71.904,138.643,72.666z" class="colorf283b5 svgShape"></path><path fill="#b5cee7" d="M207.722,57.07c-1.176,3.096-5.141,3.739-7.237,1.174c-0.908-1.111-1.162-2.674-0.652-4.016
			c1.176-3.096,5.141-3.739,7.237-1.174C207.978,54.165,208.232,55.728,207.722,57.07z" class="colore7b8b5 svgShape"></path><path fill="#83baf2" d="M231.119,180.199c1.731,0.424,3.254-1.098,2.83-2.83c-0.197-0.803-0.855-1.461-1.658-1.658
			c-1.731-0.424-3.254,1.098-2.83,2.83C229.658,179.344,230.316,180.002,231.119,180.199z" class="colorf283b5 svgShape"></path></g><g fill="#010001" class="color000000 svgShape"><path fill="#b7dbff" d="M251.3,117.278l5.934-6.881c0.762-0.869,0.657-2.189-0.212-2.951l-6.883-5.934
			c-0.873-0.749-2.19-0.658-2.952,0.211l-5.934,6.881c-0.749,0.872-0.657,2.189,0.212,2.951l6.883,5.934
			C249.217,118.251,250.538,118.147,251.3,117.278z" class="colorb7ceff svgShape"></path></g><g fill="#010001" class="color000000 svgShape"><path fill="#c3d8ed" d="M249.355,126.25l-6.426-5.549c-0.817-0.706-0.908-1.944-0.202-2.761l5.549-6.423
			c0.706-0.817,1.944-0.907,2.762-0.202l6.425,5.549c0.817,0.706,0.908,1.944,0.202,2.761l-5.549,6.423
			C251.411,126.865,250.172,126.956,249.355,126.25z M243.997,119.037c-0.101,0.117-0.088,0.294,0.029,0.395l6.426,5.549
			c0.117,0.101,0.294,0.088,0.395-0.029l5.549-6.423c0.101-0.117,0.088-0.294-0.029-0.394l-6.426-5.549
			c-0.117-0.101-0.294-0.088-0.395,0.029L243.997,119.037z" class="coloredc3d2 svgShape"></path></g></g></svg>