<svg xmlns="http://www.w3.org/2000/svg" viewBox="0 0 1100 1100" id="Mandoingonlineshopping"><defs><linearGradient id="a" x1="415.156" x2="415.156" y1="638.241" y2="495.544" gradientUnits="userSpaceOnUse"><stop offset="0" stop-color="#3e9eff" class="stopColorffd03e svgShape"></stop><stop offset=".5" stop-color="#9dceff" class="stopColorffe79d svgShape"></stop><stop offset="1" stop-color="#ffffff" class="stopColorffffff svgShape"></stop></linearGradient><linearGradient id="b" x1="772.739" x2="772.739" y1="246.228" y2="130.359" gradientUnits="userSpaceOnUse"><stop offset="0" stop-color="#ddeaf8" class="stopColordde2f8 svgShape"></stop><stop offset=".527" stop-color="#f4f6f8" class="stopColoredf0fb svgShape"></stop><stop offset="1" stop-color="#ffffff" class="stopColorffffff svgShape"></stop></linearGradient><linearGradient id="c" x1="534.15" x2="666.975" y1="648.056" y2="493.267" gradientUnits="userSpaceOnUse"><stop offset="0" stop-color="#3e9eff" class="stopColorffd03e svgShape"></stop><stop offset=".412" stop-color="#3c9dff" class="stopColorffcf3c svgShape"></stop><stop offset=".621" stop-color="#3499fe" class="stopColorfecc34 svgShape"></stop><stop offset=".785" stop-color="#2792fe" class="stopColorfec727 svgShape"></stop><stop offset=".923" stop-color="#fd14d3" class="stopColorfdc014 svgShape"></stop><stop offset="1" stop-color="#fc06cf" class="stopColorfcba06 svgShape"></stop></linearGradient></defs><g style="isolation:isolate" fill="#010001" class="color000000 svgShape"><g data-name="Secondary shapes" fill="#010001" class="color000000 svgShape"><path fill="#f4f6f8" d="M141.09676,958.50143c0-6.15191,148.28749-11.13912,331.20977-11.13912,182.922,0,331.20976,4.98721,331.20976,11.13912,0,6.1522-148.28777,11.13942-331.20976,11.13942C289.38425,969.64085,141.09676,964.65363,141.09676,958.50143Z" class="colore9edf7 svgShape"></path><path fill="#6f67e9" d="M742.26476,915.85754c-15.91417-10.453-55.132-87.5064-24.30015-102.43974,29.22253-14.15349,38.49224,46.11722,40.232,53.94612,6.08914-29.57584,14.05965-58.2821,33.56118-53.06269s0,46.97354,0,46.97354c17.76175-22.617,62.02473-57.42533,82.17218-46.97663s-40.92371,47.92342-40.92371,47.92342c27.75164-15.74253,110.69-36.94033,27.86037,3.07419,37.922-12.2664,111.87785-18.28556,29.66837,7.30231,49.48137-4.29694,74.595,2.4402,75.46484,9.39907.86988,6.95916-13.64385,16.80541-77.58855,18.42214,31.583,5.21941,47.42513,12.60881,39.28653,15.43827Z" class="color6b67e9 svgShape"></path><path fill="#ddeaf8" d="M853.36408,883.80187a2.5675,2.5675,0,1,1,2.5675,2.56749A2.56756,2.56756,0,0,1,853.36408,883.80187Z" class="colordde2f8 svgShape"></path><circle cx="763.998" cy="893.785" r="3.954" fill="#ddeaf8" class="colordde2f8 svgShape"></circle><circle cx="811.515" cy="868.434" r="3.375" fill="#ddeaf8" class="colordde2f8 svgShape"></circle><path fill="#ddeaf8" d="M677.34365,869.44829c-13.67317-12.3128-19.05819-42.48123-8.66-57.27917,10.398-14.79794,26.58681-9.0409,29.99192-18.61883s-5.94476-29.14387,3.83547-38.96563c17.38076-17.454,40.604,15.84757,54.72731,4.30062s.00692-29.28088,11.51527-42.143,29.08359,15.73427,48.09463,6.69557,62.85839-20.86217,66.64878,5.2654c2.9958,20.651-22.52194,13.704-26.87705,21.58959-4.96764,8.994,5.68674,16.66367-1.95872,25.37673-10.80319,12.31193-29.81615,1.85865-37.01179,13.42741-7.19535,11.56891,5.88009,23.92518-10.349,31.64107-20.09234,9.55274-33.61155-22.86626-51.37317.358s18.86179,32.082,9.91888,47.96468c-9.76079,17.33625-38.98538-3.54744-42.67455,9.48776C718.15117,896.28484,698.5512,888.54744,677.34365,869.44829Z" class="colordde2f8 svgShape"></path><path fill="none" stroke="#cee3f8" stroke-linecap="round" stroke-linejoin="round" stroke-width="2" d="M673.99026,865.87508c2.74121-4.09465,4.073-17.2349,12.41933-21.203s18.32843-4.56582,26.24515-10.96261c17.66084-14.27018,14.06626-33.78555,24.33594-42.93076,7.62735-6.793,14.05937,2.125,25.80655-3.45888,11.74745-5.58408,5.28878-12.17888,19.59241-18.97953,12.67334-6.02548,15.8458,2.70026,29.26216-2.92109,20.1476-8.44212,20.91552-25.06365,27.96088-27.98033,6.17445-2.55659,9.93817,1.03474,9.93817,1.03474" class="colorStrokeced3f8 svgStroke"></path><path fill="#ddeaf8" d="M729.0448,691.64022c13.61173,2.17868,20.01632-9.14388,23.24344-16.16789C748.07384,675.1208,730.936,674.70236,729.0448,691.64022Z" class="colordde2f8 svgShape"></path><path fill="none" stroke="#ddeaf8" stroke-linecap="round" stroke-linejoin="round" stroke-width="2" d="M654.38457,787.88783c10.70138-26.63485,36.74158-66.18924,75.96269-97.29164" class="colorStrokedde2f8 svgStroke"></path><path fill="#ddeaf8" d="M656.90447 768.062c-.32959-27.83785-20.2855-32.31365-35.37281-36.3308C622.27777 740.24287 622.54622 770.10337 656.90447 768.062zM669.71057 744.65884c5.30339-21.71068-9.31966-29.17654-20.24735-35.31357C648.34405 716.111 642.58833 739.38213 669.71057 744.65884zM688.43106 722.44751c8.79941-17.0743-1.9173-26.25354-9.81441-33.58017C676.32071 694.29435 666.82968 712.582 688.43106 722.44751zM708.215 702.50485c8.20918-8.66768 3.40127-16.00153-.04332-21.74193C705.86147 683.60505 697.03009 692.87653 708.215 702.50485zM670.64262 772.78682c18.70694-15.92168 33.25485-5.24255 44.6742 2.4617C709.22223 779.68882 689.2062 796.82323 670.64262 772.78682zM685.04732 747.595c13.80253-16.07771 27.632-8.93113 38.39838-3.89883C718.84967 748.29528 704.09313 765.58528 685.04732 747.595zM706.47262 720.51047c12.10256-7.94869 19.83186-.6421 25.94767 4.6974C728.53428 727.35869 715.57866 735.92148 706.47262 720.51047zM722.19392 703.27646c6.08207-5.846 11.2897-2.48543 15.36357-.08177C735.56093 704.84191 729.05732 711.13173 722.19392 703.27646z" class="colordde2f8 svgShape"></path><path fill="#5046e4" d="M297.49676,271.06526c15.99226-55.33451-21.48629-94.06879-88.63249-103.68872C204.41233,220.19863,235.28857,280.78741,297.49676,271.06526Z" class="color5652cc svgShape"></path><path fill="#453eaf" stroke="#453ead" stroke-linecap="round" stroke-linejoin="round" stroke-width="2" d="M297.49676,271.06526c-16.76548-17.48183-51.77908-64.78556-77.18131-91.50233" class="color423eaf svgShape colorStroke423ead svgStroke"></path><path fill="#6f67e9" d="M312.93945,269.71727c39.56308-20.046,41.7005-61.489,11.86534-104.36322C292.71759,190.58094,274.80333,239.78266,312.93945,269.71727Z" class="color6b67e9 svgShape"></path><path fill="none" stroke="#5a52cc" stroke-linecap="round" stroke-linejoin="round" stroke-width="2" d="M312.93945,269.71727c1.04226-18.62178,9.30227-63.17914,11.01786-91.51473" class="colorStroke5652cc svgStroke"></path><path fill="#453eaf" d="M886.0978,436.42144c-15.9924-55.33448,21.4863-94.06879,88.63249-103.68872C979.18226,385.55466,948.306,446.14362,886.0978,436.42144Z" class="color423eaf svgShape"></path><path fill="none" stroke="#342e94" stroke-linecap="round" stroke-linejoin="round" stroke-width="2" d="M886.0978,436.42144c16.76548-17.48183,51.77909-64.78571,77.18131-91.50233" class="colorStroke362e94 svgStroke"></path><path fill="#5046e4" d="M870.65511,435.07345c-39.56308-20.04594-41.7005-61.489-11.86534-104.36322C890.877,355.93712,908.79124,405.13884,870.65511,435.07345Z" class="color5652cc svgShape"></path><path fill="none" stroke="#453eaf" stroke-linecap="round" stroke-linejoin="round" stroke-width="2" d="M870.65511,435.07345c-1.04226-18.62178-9.30227-63.17929-11.01786-91.51485" class="colorStroke423eaf svgStroke"></path><polygon fill="url(#a)" points="428.789 592.356 428.789 495.544 401.519 495.544 401.519 592.356 387.267 592.356 415.155 638.241 443.044 592.356 428.789 592.356"></polygon><polygon fill="url(#b)" points="781.254 217.573 781.254 130.359 764.223 130.359 764.223 217.573 755.323 217.573 772.739 246.228 790.155 217.573 781.254 217.573"></polygon><polyline fill="none" stroke="#fcba06" stroke-linecap="round" stroke-linejoin="round" stroke-width="2" points="494.348 858.726 507.99 872.367 521.632 858.726"></polyline><line x1="507.99" x2="507.99" y1="872.367" y2="817.525" fill="none" stroke="#fc06cf" stroke-linecap="round" stroke-linejoin="round" stroke-width="2" class="colorStrokefcba06 svgStroke"></line><line x1="507.99" x2="507.99" y1="806.968" y2="801.093" fill="none" stroke="#fc06cf" stroke-linecap="round" stroke-linejoin="round" stroke-width="2" class="colorStrokefcba06 svgStroke"></line><line x1="507.99" x2="507.99" y1="789.637" y2="783.761" fill="none" stroke="#fc06cf" stroke-linecap="round" stroke-linejoin="round" stroke-width="2" class="colorStrokefcba06 svgStroke"></line><path fill="#f4f6f8" d="M546.55966,255.03381h-247.078a13.445,13.445,0,0,0-13.40561,13.40561V431.51217a13.44576,13.44576,0,0,0,13.40634,13.40634H507.11475l41.6018,27.17275a1.43544,1.43544,0,0,0,2.09629-1.78572l-11.303-25.387h7.04978A13.44676,13.44676,0,0,0,559.967,431.51114V268.44119A13.44677,13.44677,0,0,0,546.55966,255.03381Z" class="colore9edf7 svgShape"></path><path fill="#857dfb" d="M546.55966,255.03381H299.48715a13.44449,13.44449,0,0,0-13.40562,13.40561V283.8326H559.967V268.43942A13.4461,13.4461,0,0,0,546.55966,255.03381Z" class="color807dfb svgShape"></path><path fill="#ffffff" d="M304.57734 264.04833h6.18594a2.07451 2.07451 0 012.07451 2.07451v6.18506a2.07362 2.07362 0 01-2.07362 2.07362h-6.18786a2.07259 2.07259 0 01-2.07259-2.07259v-6.187A2.07362 2.07362 0 01304.57734 264.04833zM347.23567 264.04833h6.18594a2.07451 2.07451 0 012.07451 2.07451v6.18506a2.07362 2.07362 0 01-2.07362 2.07362h-6.18785a2.0726 2.0726 0 01-2.0726-2.0726v-6.187A2.07362 2.07362 0 01347.23567 264.04833zM325.90658 264.04833h6.18771a2.07259 2.07259 0 012.07259 2.07259v6.187a2.07362 2.07362 0 01-2.07362 2.07362h-6.18594a2.07436 2.07436 0 01-2.07436-2.07436V266.122A2.07362 2.07362 0 01325.90658 264.04833z" class="colorffffff svgShape"></path><path fill="#453eaf" d="M318.72272,296.59184H424.01859a15.1377,15.1377,0,0,1,15.1377,15.1377V417.02275a15.1377,15.1377,0,0,1-15.1377,15.1377H318.72347A15.13845,15.13845,0,0,1,303.585,417.022V311.72954A15.1377,15.1377,0,0,1,318.72272,296.59184Z" class="color423eaf svgShape"></path><path fill="#ffffff" d="M383.06509,319.33537l-.00914.00795a11.7129,11.7129,0,0,1-23.36161,0l-.00928-.00795c-1.72546.83805-32.09029,16.74279-32.09029,16.74279l7.71162,16.02511c2.65162-1.32589,8.33264-4.096,8.33264,1.32571v55.305h55.47032V353.429c0-5.42168,5.68294-2.6516,8.33073-1.32571l7.71547-16.02511S384.7907,320.17342,383.06509,319.33537Z" class="colorffffff svgShape"></path><path fill="#f4f6f8" d="M383.06509,319.33537l-.00914.00795a11.7129,11.7129,0,0,1-23.36161,0l-.00928-.00795c-.2518.12126-1.11917.56887-2.39938,1.23247a14.24315,14.24315,0,0,0,28.17894,0C384.18632,319.90424,383.317,319.45663,383.06509,319.33537Z" class="colore9edf7 svgShape"></path><path fill="#bbd0e6" d="M371.37611 330.18968A11.71911 11.71911 0 00383.056 319.34332h-.55148a45.4 45.4 0 01-22.25879 0h-.55134A11.717 11.717 0 00371.37611 330.18968zM505.63079 366.0465a8.30884 8.30884 0 118.31067 8.30981A8.31 8.31 0 01505.63079 366.0465z" class="colorbbc0e6 svgShape"></path><path fill="#3e9eff" d="M480.06146,366.0465a8.30981,8.30981,0,1,1,8.31069,8.30981A8.31,8.31,0,0,1,480.06146,366.0465Z" class="colorffd03e svgShape"></path><path fill="#bbd0e6" d="M547.81969,366.0465a8.30981,8.30981,0,1,0-8.30892,8.30981A8.30841,8.30841,0,0,0,547.81969,366.0465Z" class="colorbbc0e6 svgShape"></path><path fill="#6f67e9" d="M454.49378,366.0465a8.30981,8.30981,0,1,1,8.30892,8.30981A8.30859,8.30859,0,0,1,454.49378,366.0465Z" class="color6b67e9 svgShape"></path><path fill="#cee3f8" d="M535.20132,317.05179H467.41184a12.617,12.617,0,0,0,0,25.23409h67.78948a12.617,12.617,0,1,0,0-25.23409Z" class="colorced3f8 svgShape"></path><line x1="535.201" x2="490.217" y1="329.669" y2="329.669" fill="none" stroke="#ffffff" stroke-linecap="round" stroke-linejoin="round" stroke-width="3" class="colorStrokeffffff svgStroke"></line><line x1="480.679" x2="464.297" y1="329.669" y2="329.669" fill="none" stroke="#ffffff" stroke-linecap="round" stroke-linejoin="round" stroke-width="3" class="colorStrokeffffff svgStroke"></line><path fill="#342e94" d="M630.41475,634.02747c3.42515,53.69593-27.71687,112.35744-45.92035,164.03693-2.227,51.73429-31.83985,112.61454-37.04084,133.18337H533.8598c-.07278-25.711,5.95286-144.23925,27.22994-297.2203Z" class="color362e94 svgShape"></path><path fill="#c0d8f0" d="M547.45356,936.22305v-4.97528H533.8598a33.58575,33.58575,0,0,1-1.55941,9.04561C535.83515,941.65035,541.00756,938.14506,547.45356,936.22305Z" class="colorf0ccc0 svgShape"></path><path fill="#342e94" d="M547.45356,936.22305c-6.446,1.922-11.61841,5.4273-15.15317,4.07033-1.87131,1.357-29.44133,11.27349-32.24721,13.19447-2.871,1.96562-2.45079,5.01358.5892,5.01358,4.44473,0,41.05133-1.61113,41.05133-1.61113.74346.80564,1.34563,1.61113,1.34563,1.61113h8.36491C553.8994,954.17665,553.22372,941.19788,547.45356,936.22305Z" class="color362e94 svgShape"></path><path fill="#453eaf" d="M664.88159,626.372c12.066,52.43458,4.95392,110.29781,2.70717,145.63217,24.61545,50.28361,28.43958,124.3766,34.38507,144.7427-3.668,2.15761-11.717,6.89213-11.717,6.89213-13.09811-22.12471-90.03735-131.64473-93.78737-286.0529C610.472,635.29089,664.88159,626.372,664.88159,626.372Z" class="color423eaf svgShape"></path><path fill="#c0d8f0" d="M704.49624,921.03525c-1.39027-2.36358-2.52241-4.28839-2.52241-4.28839l-11.717,6.89213a33.58955,33.58955,0,0,1,3.24188,8.58739C697.23356,931.60374,699.9148,925.96029,704.49624,921.03525Z" class="colorf0ccc0 svgShape"></path><path fill="#342e94" d="M704.49624,921.03525c-4.58144,4.925-7.26268,10.56849-10.9975,11.19113-.47148,1.08013-5.57143,7.46292-10.649,13.86868-7.93439,3.06388-16.48745,6.36718-17.98557,7.39279-2.871,1.96562-2.45081,5.01358.5892,5.01358h18.6467c10.35779-6.63826,25.90978-16.73173,25.90978-16.73173,1.04919.31751,1.97682.70633,1.97682.70633l7.21008-4.24095C719.1548,933.24227,711.992,922.398,704.49624,921.03525Z" class="color362e94 svgShape"></path><path fill="#fc06cf" d="M555.164,640.51016c21.59722,3.08567,93.5883.11227,117.75687-14.382-2.57118-14.92833-17.4836-88.46217-17.4836-118.80124s-16.96939-42.23045-26.7396-48.85106c-9.77021-1.02841-40.57941,13.22764-50.55855,36.06237C569.60641,514.06274,554.55726,564.114,555.164,640.51016Z" class="colorfcba06 svgShape"></path><path fill="#d0e4f8" d="M513.24222,645.42147c-.478-6.03255-.88522-10.36882,4.40329-11.25152,5.80716-.96933,11.07768-3.43089,14.95618-4.77342,3.87821-1.34254,14.46879,5.53029,7.30924,11.19334a23.05034,23.05034,0,0,1-18.42226,4.8316c.96975,1.94973,3.13238,7.02151-2.31218,7.469S513.61231,650.095,513.24222,645.42147Z" class="colorf8d8d0 svgShape"></path><path fill="url(#c)" d="M532.60169,629.39653c14.70291-6.884,67.6853-50.72121,74.24165-55.34936.50286-6.43907-1.34239-101.71427,30.85325-102.09468,18.12628-.21423,20.25415,22.26174,19.918,41.29606-.19272,10.90736-7.19108,68.512-23.77474,82.01043s-74.4491,43.99115-93.177,46.35223C537.25268,638.16175,532.60169,629.39653,532.60169,629.39653Z"></path><path fill="#d0e4f8" d="M628.39594,434.04518c-.64445,4.69681-.57638,18.17388.30175,24.43067-2.49071,6.73317-12.19656,11.20279-28.04855,10.92521,3.85611-3.8125,7.54395-11.63226,4.45871-17.61016s-9.15287,1.87619-13.56222-7.71324c-5.14265-11.18436-6.43406-33.11518-1.09324-39.14524,5.9779-6.74906,17.82586-14.93231,33.55306-5.39931C636.83673,407.31074,629.70636,424.49274,628.39594,434.04518Z" class="colorf8d8d0 svgShape"></path><path fill="#6f196f" d="M616.6134,423.12309c-3.59944,0-1.62761-9.412-4.24227-11.6987-3.087-2.69951-13.51626-4.38536-23.66321-3.41395s-16.28546-12.33388-9.72911-17.73333c6.5565-5.39932,12.348,2.24909,17.19438.70707,5.65642-1.79987,4.75943-8.67683,13.11093-7.84187,7.715.77131,4.10923,7.91212,9.00067,9.25584,5.04232,1.38558,12.5733-5.22015,18.64049,2.79662,4.49953,5.9452-2.44255,9.28783-1.79972,15.844.40135,4.094,10.4129,16.305-.64283,21.26529s-8.35622-6.22425-7.71339-10.85225-1.414-7.71341-3.72807-7.84187C620.72735,413.48136,621.75576,423.12309,616.6134,423.12309Z" class="color20196f svgShape"></path><rect width="71.217" height="100.867" x="255.065" y="737.007" fill="#6f67e9" transform="rotate(4.576 290.674 787.441)" class="color6b67e9 svgShape"></rect><rect width="80.072" height="73.137" x="291.513" y="684.334" fill="#fc06cf" transform="rotate(4.576 331.549 720.903)" class="colorfcba06 svgShape"></rect><rect width="71.217" height="82.793" x="315.009" y="759.247" fill="#342e94" transform="rotate(4.576 350.618 800.643)" class="color362e94 svgShape"></rect><circle cx="221.123" cy="937.93" r="19.948" fill="#342e94" transform="rotate(-45 221.123 937.93)" class="color362e94 svgShape"></circle><path fill="#bbd0e6" d="M207.77309,937.93024A13.34984,13.34984,0,1,1,221.12286,951.28,13.34981,13.34981,0,0,1,207.77309,937.93024Z" class="colorbbc0e6 svgShape"></path><rect width="254.429" height="3.526" x="191.364" y="911.96" fill="#ddeaf8" class="colordde2f8 svgShape"></rect><path fill="#ddeaf8" d="M195.343,915.4858c1.84349,2.96531,20.54379,32.91259,29.01243,27.48941,7.95046-5.09138-3.847-27.48941-3.847-27.48941Z" class="colordde2f8 svgShape"></path><path fill="#cee3f8" d="M191.36446,911.95959a3.847,3.847,0,1,1,0-7.69394h246.416V888.59c-.46072-3.92713-18.95652-28.18336-22.8362-29.87876-5.45234-.49358-81.394-6.4242-114.10264-8.97622l-1.94352-.15278a3.8495,3.8495,0,0,1-3.53374-4.13487,3.81055,3.81055,0,0,1,3.81662-3.54907l.32326.015c1.1118.08515,111.71077,8.70571,116.53976,9.189,5.56475.55369,29.43026,29.21767,29.43026,37.48769v19.52275a3.85094,3.85094,0,0,1-3.847,3.84682Z" class="colorced3f8 svgShape"></path><path fill="#342e94" d="M218.82926,937.93024a2.2936,2.2936,0,1,1,2.2936,2.29344A2.29367,2.29367,0,0,1,218.82926,937.93024Z" class="color362e94 svgShape"></path><circle cx="442.241" cy="937.93" r="19.948" fill="#342e94" transform="rotate(-84.345 442.24 937.93)" class="color362e94 svgShape"></circle><path fill="#bbd0e6" d="M428.891,937.93024A13.34992,13.34992,0,1,1,442.24093,951.28,13.34993,13.34993,0,0,1,428.891,937.93024Z" class="colorbbc0e6 svgShape"></path><path fill="#ddeaf8" d="M416.46108,915.4858c1.84348,2.96531,20.54365,32.91259,29.01228,27.48941,7.9506-5.09138-3.847-27.48941-3.847-27.48941Z" class="colordde2f8 svgShape"></path><path fill="#342e94" d="M439.94734,937.93024a2.29352,2.29352,0,1,1,2.29359,2.29344A2.29367,2.29367,0,0,1,439.94734,937.93024Z" class="color362e94 svgShape"></path><path fill="#ddeaf8" d="M418.54841,851.61757a2.96343,2.96343,0,0,1-.29792-.01252l-227.129-17.47152a3.84456,3.84456,0,0,1-3.50367-3.2283L171.53629,730.19154a3.84649,3.84649,0,0,1,3.2283-4.41068L477.457,680.27155c4.07474-11.28778,8.90857-17.22841,19.00911-23.42467a3.84618,3.84618,0,0,1,4.0223,6.55694c-8.79587,5.39725-12.36482,9.8402-15.91372,19.81064-.14275.39811-.3505.9767-.62618,1.723-.02489.08015-.05511.16044-.08752.24045-7.60626,20.70984-59.42455,157.88664-61.71609,163.95265A3.847,3.847,0,0,1,418.54841,851.61757ZM194.738,826.69507l221.22814,17.01816c6.91983-18.323,46.92463-124.25858,58.45522-155.20421L179.7462,732.81119Z" class="colordde2f8 svgShape"></path><path fill="#ddeaf8" d="M217.52164 834.87242a2.56583 2.56583 0 01-2.54966-2.31171L204.3428 725.09235a2.56459 2.56459 0 115.10419-.5058l10.62918 107.46819a2.56391 2.56391 0 01-2.29918 2.80516C217.69182 834.86727 217.60415 834.87242 217.52164 834.87242zM241.52992 836.71826a2.5633 2.5633 0 01-2.5647-2.56469V719.63234a2.56456 2.56456 0 015.12911 0V834.15357A2.56315 2.56315 0 01241.52992 836.71826zM266.9731 838.67666c-.05761 0-.11757-.00235-.17518-.00486a2.56671 2.56671 0 01-2.387-2.73251l8.25249-121.54611a2.62421 2.62421 0 012.73222-2.38686 2.56642 2.56642 0 012.38686 2.73252l-8.25234 121.54594A2.5658 2.5658 0 01266.9731 838.67666zM291.63511 840.5726a2.77868 2.77868 0 01-.35081-.02254 2.56937 2.56937 0 01-2.194-2.89032l17.6218-128.55626a2.56581 2.56581 0 015.08416.69632l-17.6218 128.55626A2.56787 2.56787 0 01291.63511 840.5726zM316.59238 842.49357a2.52 2.52 0 01-.506-.04994 2.56482 2.56482 0 01-2.011-3.0182L341.20915 703.764a2.56442 2.56442 0 115.029 1.00677L319.10432 840.43232A2.56341 2.56341 0 01316.59238 842.49357zM342.20839 844.462a2.5631 2.5631 0 01-2.49676-3.16052L373.7002 698.79a2.56471 2.56471 0 014.989 1.1921L344.70046 842.49357A2.56407 2.56407 0 01342.20839 844.462zM365.93614 846.28809a2.51829 2.51829 0 01-.72623-.10549 2.56307 2.56307 0 01-1.733-3.18557l44.18931-149.43892a2.56442 2.56442 0 014.91885 1.45258L368.39563 844.44962A2.56662 2.56662 0 01365.93614 846.28809zM391.30918 848.239a2.62811 2.62811 0 01-.81123-.13024 2.56956 2.56956 0 01-1.62307-3.24584l52.07877-156.389a2.5661 2.5661 0 014.8689 1.62277l-52.07877 156.3891A2.56654 2.56654 0 01391.30918 848.239z" class="colordde2f8 svgShape"></path><path fill="#ddeaf8" d="M181.31637 769.625a2.56455 2.56455 0 01-.33563-5.10671l281.77982-37.42242a2.56453 2.56453 0 01.676 5.08431L181.657 769.60242A2.647 2.647 0 01181.31637 769.625zM185.9046 798.33417a2.56465 2.56465 0 01-.015-5.12925l252.86522-1.57031h.015a2.56457 2.56457 0 01.015 5.1291l-252.86507 1.57046z" class="colordde2f8 svgShape"></path><path fill="#5046e4" d="M518.95755,640.17246l-19.7657,9.86318a8.74807,8.74807,0,0,0,7.81225,15.65515l19.76555-9.86318a8.748,8.748,0,0,0-7.8121-15.65515Z" class="color5652cc svgShape"></path><g style="mix-blend-mode:multiply" fill="#010001" class="color000000 svgShape"><path fill="none" stroke="#bbd0e6" stroke-linecap="round" stroke-linejoin="round" stroke-width="2" d="M265.338,536.99486c-24.914-7.49283-40.85022-39.32528-40.85022-73.53384.00221-34.20414,15.93833-66.045,40.85022-73.52971" class="colorStrokebbc0e6 svgStroke"></path><path fill="none" stroke="#bbd0e6" stroke-linecap="round" stroke-linejoin="round" stroke-width="2" d="M265.338,536.99486c24.92043-7.49062,40.8545-39.32528,40.8545-73.53384-.00193-34.20635-15.93407-66.0472-40.8545-73.52971" class="colorStrokebbc0e6 svgStroke"></path><line x1="265.338" x2="265.338" y1="389.931" y2="536.995" fill="none" stroke="#bbd0e6" stroke-linecap="round" stroke-linejoin="round" stroke-width="2" class="colorStrokebbc0e6 svgStroke"></line><line x1="191.806" x2="338.872" y1="463.461" y2="463.465" fill="none" stroke="#bbd0e6" stroke-linecap="round" stroke-linejoin="round" stroke-width="2" class="colorStrokebbc0e6 svgStroke"></line><path fill="none" stroke="#bbd0e6" stroke-linecap="round" stroke-linejoin="round" stroke-width="2" d="M313.89036 408.25826a61.10336 61.10336 0 01-97.10466-.00633M313.89655 518.67011a61.10472 61.10472 0 00-97.11085 0" class="colorStrokebbc0e6 svgStroke"></path><path fill="none" stroke="#bbd0e6" stroke-linecap="round" stroke-linejoin="round" stroke-width="2" d="M191.80618,463.461A73.53288,73.53288,0,1,1,265.338,536.99486,73.52725,73.52725,0,0,1,191.80618,463.461Z" class="colorStrokebbc0e6 svgStroke"></path></g><path fill="#fc06cf" d="M642.28908,330.19a41.63715,41.63715,0,1,1,41.6373,41.63714A41.63682,41.63682,0,0,1,642.28908,330.19Z" class="colorfcba06 svgShape"></path><g style="mix-blend-mode:screen" fill="#010001" class="color000000 svgShape"><path fill="none" stroke="#a50b89" stroke-linecap="round" stroke-linejoin="round" stroke-width="2" d="M668.54513,343.54119a3.88853,3.88853,0,0,0,0,7.77706h15.55245c3.22108,0,8.417-.63767,10.6924-2.9155l4.85991-3.56453h4.32994V322.80515h-8.21846c0-4.83516-8.321-7.48177-8.321-13.02812V300.5c-5.58156,0-9.1676,15.18423-4.63905,19.71369l-15.5523.00148a3.88806,3.88806,0,1,0,0,7.77612v-.00307l3.88851.0016" class="colorStrokedc8b00 svgStroke"></path><path fill="none" stroke="#a50b89" stroke-linecap="round" stroke-linejoin="round" stroke-width="2" d="M671.24626,335.818h-3.88852l-1.4066-.04965a3.88854,3.88854,0,0,1,0-7.77707l2.594.00077" class="colorStrokedc8b00 svgStroke"></path><path fill="none" stroke="#a50b89" stroke-linecap="round" stroke-linejoin="round" stroke-width="2" d="M667.249,335.76831a3.88734,3.88734,0,1,0,0,7.77467v-.00179h3.88851" class="colorStrokedc8b00 svgStroke"></path></g><line x1="127.653" x2="144.761" y1="633.291" y2="599.018" fill="none" stroke="#857dfb" stroke-linecap="round" stroke-linejoin="round" stroke-width="2" class="colorStroke807dfb svgStroke"></line><line x1="144.761" x2="107.634" y1="599.018" y2="598.089" fill="none" stroke="#857dfb" stroke-linecap="round" stroke-linejoin="round" stroke-width="2" class="colorStroke807dfb svgStroke"></line><path fill="#ffffff" stroke="#857dfb" stroke-linecap="round" stroke-linejoin="round" stroke-width="2" d="M137.4017 603.26424a8.49788 8.49788 0 1111.60853 3.11854A8.4918 8.4918 0 01137.4017 603.26424zM100.68178 602.10131a8.02752 8.02752 0 1110.96614 2.94A8.03267 8.03267 0 01100.68178 602.10131zM120.60955 637.35272a8.13137 8.13137 0 1111.10729 2.98078A8.12924 8.12924 0 01120.60955 637.35272z" class="colorffffff svgShape colorStroke807dfb svgStroke"></path><path fill="#f4f6f8" d="M709.056,420.95648H910.77059a12.1805,12.1805,0,0,1,12.1805,12.1805V581.30084a12.17978,12.17978,0,0,1-12.17978,12.17978H709.058A12.18259,12.18259,0,0,1,696.87538,581.298V433.13712A12.18065,12.18065,0,0,1,709.056,420.95648Z" class="colore9edf7 svgShape"></path><path fill="#857dfb" d="M910.7685,420.95648H709.05971A12.21438,12.21438,0,0,0,696.881,433.13626v13.98612H922.95109V433.13626A12.21759,12.21759,0,0,0,910.7685,420.95648Z" class="color807dfb svgShape"></path><path fill="#ffffff" d="M713.68551 429.14711h5.61988a1.88429 1.88429 0 011.88429 1.88429v5.6199a1.88427 1.88427 0 01-1.88427 1.88427h-5.6227a1.88149 1.88149 0 01-1.88149-1.88149v-5.62267A1.88429 1.88429 0 01713.68551 429.14711zM752.44309 429.14711H758.064a1.8852 1.8852 0 011.8852 1.8852v5.619a1.88427 1.88427 0 01-1.88427 1.88427h-5.62272a1.88341 1.88341 0 01-1.88341-1.88341v-5.62076A1.88429 1.88429 0 01752.44309 429.14711zM733.06636 429.14711h5.61884a1.88429 1.88429 0 011.88429 1.88429v5.6199a1.88427 1.88427 0 01-1.88427 1.88427h-5.61992a1.88427 1.88427 0 01-1.88427-1.88427v-5.61887A1.88532 1.88532 0 01733.06636 429.14711z" class="colorffffff svgShape"></path><path fill="#fc06cf" d="M775.79056,504.01582a34.12259,34.12259,0,1,1,34.12163,34.12149A34.12243,34.12243,0,0,1,775.79056,504.01582Z" class="colorfcba06 svgShape"></path><polyline fill="none" stroke="#5652cc" stroke-linecap="round" stroke-linejoin="round" stroke-width="4" points="796.988 500.756 809.912 513.684 841.306 482.291"></polyline><rect width="17.305" height="17.305" x="801.26" y="549.587" fill="#bbd0e6" class="colorbbc0e6 svgShape"></rect><rect width="17.305" height="17.305" x="829.78" y="549.587" fill="#cee3f8" class="colorced3f8 svgShape"></rect><rect width="17.305" height="17.305" x="772.739" y="549.587" fill="#cee3f8" class="colorced3f8 svgShape"></rect><path fill="#3e9eff" d="M141.08276,309.9295l-17.86393,3.626a2.50461,2.50461,0,0,0-1.87653,1.65858l-5.79346,17.285a2.50456,2.50456,0,0,0,.49823,2.45473l12.07413,13.65869a2.50452,2.50452,0,0,0,2.37466.79571l17.8637-3.62585a2.50469,2.50469,0,0,0,1.8766-1.6586l5.79371-17.28461a2.50483,2.50483,0,0,0-.49826-2.455L143.45743,310.7252A2.50451,2.50451,0,0,0,141.08276,309.9295Z" class="colorffd03e svgShape"></path><path fill="#fc06cf" d="M982.30288,729.16072l-16.78169,25.2729a2.50463,2.50463,0,0,0,1.92988,3.8852l30.27776,1.8973a2.5046,2.5046,0,0,0,2.39976-3.6139L986.6326,729.432A2.50466,2.50466,0,0,0,982.30288,729.16072Z" class="colorfcba06 svgShape"></path></g></g></svg>