<svg xmlns="http://www.w3.org/2000/svg" xmlns:xlink="http://www.w3.org/1999/xlink" viewBox="0 0 800 600" id="Customersittingonshoppingbasketandmakingorderininternetstore"><defs><linearGradient id="a" x1="720.01" x2="784.21" y1="321.41" y2="321.41" gradientTransform="translate(-148.37)" gradientUnits="userSpaceOnUse"><stop offset="0" stop-color="#c4d6e9" class="stopColorc4cae9 svgShape"></stop><stop offset=".38" stop-color="#e1eaf4" class="stopColore1e4f4 svgShape"></stop><stop offset=".76" stop-color="#f7f9fc" class="stopColorf7f8fc svgShape"></stop><stop offset="1" stop-color="#ffffff" class="stopColorffffff svgShape"></stop></linearGradient><linearGradient id="l" x1="657.9" x2="722.1" y1="298.86" y2="298.86" gradientTransform="translate(-47.21)" xlink:href="#a"></linearGradient><linearGradient id="m" x1="888.64" x2="952.84" y1="260.2" y2="260.2" gradientTransform="translate(-423.01)" xlink:href="#a"></linearGradient><linearGradient id="n" x1="826.53" x2="890.73" y1="237.66" y2="237.66" gradientTransform="translate(-321.86)" xlink:href="#a"></linearGradient><linearGradient id="c" x1="591.9" x2="622.42" y1="230.76" y2="230.76" gradientTransform="translate(-126.27)" gradientUnits="userSpaceOnUse"><stop offset="0" stop-color="#d1e2f3" class="stopColord1d7f3 svgShape"></stop><stop offset=".04" stop-color="#d4e4f4" class="stopColord4daf4 svgShape"></stop><stop offset=".39" stop-color="#ecf3fa" class="stopColoreceefa svgShape"></stop><stop offset=".72" stop-color="#fafcfe" class="stopColorfafbfe svgShape"></stop><stop offset="1" stop-color="#ffffff" class="stopColorffffff svgShape"></stop></linearGradient><linearGradient id="b" x1="786.44" x2="820.18" y1="247.18" y2="247.18" gradientTransform="translate(-256.55)" gradientUnits="userSpaceOnUse"><stop offset="0" stop-color="#c4d4e5" class="stopColorc4c9e5 svgShape"></stop><stop offset=".64" stop-color="#edf2f7" class="stopColoredeff7 svgShape"></stop><stop offset="1" stop-color="#ffffff" class="stopColorffffff svgShape"></stop></linearGradient><linearGradient id="o" x1="817.76" x2="858.43" y1="235.79" y2="235.79" gradientTransform="translate(-308.24)" xlink:href="#b"></linearGradient><linearGradient id="p" x1="730.79" x2="764.54" y1="267.38" y2="267.38" gradientTransform="translate(-165.93)" xlink:href="#b"></linearGradient><linearGradient id="q" x1="559.36" x2="589.88" y1="182.87" y2="182.87" gradientTransform="translate(-93.73)" xlink:href="#c"></linearGradient><linearGradient id="r" x1="821.27" x2="859.66" y1="188.4" y2="188.4" gradientTransform="translate(-313.28)" xlink:href="#b"></linearGradient><linearGradient id="s" x1="768.28" x2="808.55" y1="207.16" y2="207.16" gradientTransform="translate(-226.98)" xlink:href="#b"></linearGradient><linearGradient id="t" x1="702.63" x2="737.48" y1="221.55" y2="221.55" gradientTransform="translate(-134.23)" xlink:href="#b"></linearGradient><linearGradient id="u" x1="826.53" x2="835.43" y1="161.61" y2="161.61" gradientTransform="translate(-321.86)" xlink:href="#c"></linearGradient><linearGradient id="i" x1="521.93" x2="659.99" y1="270.73" y2="270.73" gradientTransform="translate(-226.98)" gradientUnits="userSpaceOnUse"><stop offset="0" stop-color="#c4d4e5" class="stopColorc4c9e5 svgShape"></stop><stop offset=".07" stop-color="#cad9e8" class="stopColorcacee8 svgShape"></stop><stop offset=".44" stop-color="#e7edf4" class="stopColore7e9f4 svgShape"></stop><stop offset=".76" stop-color="#f9fafc" class="stopColorf9f9fc svgShape"></stop><stop offset="1" stop-color="#ffffff" class="stopColorffffff svgShape"></stop></linearGradient><linearGradient id="v" x1="488.74" x2="659.9" y1="317.53" y2="317.53" gradientTransform="translate(-308.24)" xlink:href="#b"></linearGradient><linearGradient id="w" x1="347.56" x2="600.34" y1="370.62" y2="370.62" gradientTransform="translate(-33.15)" gradientUnits="userSpaceOnUse"><stop offset="0" stop-color="#c4d4e5" class="stopColorc4c9e5 svgShape"></stop><stop offset=".42" stop-color="#dae4ef" class="stopColordaddef svgShape"></stop><stop offset="1" stop-color="#ffffff" class="stopColorffffff svgShape"></stop></linearGradient><linearGradient id="x" x1="253.37" x2="433.56" y1="378.45" y2="378.45" gradientUnits="userSpaceOnUse"><stop offset="0" stop-color="#c4d4e5" class="stopColorc4c9e5 svgShape"></stop><stop offset=".52" stop-color="#eaf0f6" class="stopColoreaecf6 svgShape"></stop><stop offset=".85" stop-color="#fefeff" class="stopColorfefeff svgShape"></stop><stop offset="1" stop-color="#ffffff" class="stopColorffffff svgShape"></stop></linearGradient><linearGradient id="y" x1="842.64" x2="1059.41" y1="326.6" y2="326.6" gradientTransform="matrix(-1 0 0 1 1314.19 0)" gradientUnits="userSpaceOnUse"><stop offset=".34" stop-color="#5a52cc" class="stopColor5652cc svgShape"></stop><stop offset=".4" stop-color="#342e94" class="stopColor362e94 svgShape"></stop></linearGradient><linearGradient id="e" x1="899.43" x2="924.14" y1="314.81" y2="272.01" gradientTransform="matrix(-1 0 0 1 1314.19 0)" gradientUnits="userSpaceOnUse"><stop offset=".11" stop-color="#857dfb" class="stopColor807dfb svgShape"></stop><stop offset=".19" stop-color="#7971eb" class="stopColor7471eb svgShape"></stop><stop offset=".35" stop-color="#5750c1" class="stopColor5650c1 svgShape"></stop><stop offset=".49" stop-color="#342e94" class="stopColor362e94 svgShape"></stop></linearGradient><linearGradient id="d" x1="780.06" x2="804.86" y1="314.98" y2="272.03" gradientTransform="translate(-413.8)" gradientUnits="userSpaceOnUse"><stop offset=".11" stop-color="#857dfb" class="stopColor807dfb svgShape"></stop><stop offset=".17" stop-color="#766ee8" class="stopColor716ee8 svgShape"></stop><stop offset=".34" stop-color="#524bbf" class="stopColor4f4bbf svgShape"></stop><stop offset=".43" stop-color="#453eaf" class="stopColor423eaf svgShape"></stop></linearGradient><linearGradient id="z" x1="753.62" x2="778.41" y1="330.25" y2="287.3" xlink:href="#d"></linearGradient><linearGradient id="A" x1="727.17" x2="751.97" y1="345.51" y2="302.57" xlink:href="#d"></linearGradient><linearGradient id="B" x1="700.73" x2="725.52" y1="360.78" y2="317.84" xlink:href="#d"></linearGradient><linearGradient id="C" x1="674.28" x2="699.08" y1="376.05" y2="333.1" xlink:href="#d"></linearGradient><linearGradient id="D" x1="872.99" x2="897.69" y1="329.93" y2="287.16" xlink:href="#e"></linearGradient><linearGradient id="E" x1="846.55" x2="871.24" y1="345.06" y2="302.31" xlink:href="#e"></linearGradient><linearGradient id="F" x1="839.62" x2="1062.45" y1="376.55" y2="376.55" gradientTransform="matrix(-1 0 0 1 1314.19 0)" gradientUnits="userSpaceOnUse"><stop offset=".58" stop-color="#342e94" class="stopColor362e94 svgShape"></stop><stop offset=".68" stop-color="#5a52cc" class="stopColor5652cc svgShape"></stop></linearGradient><linearGradient id="G" x1="1039.23" x2="1065.14" y1="395.89" y2="351.03" xlink:href="#e"></linearGradient><linearGradient id="H" x1="1012.79" x2="1038.69" y1="411.16" y2="366.29" xlink:href="#e"></linearGradient><linearGradient id="I" x1="986.34" x2="1012.25" y1="426.43" y2="381.56" xlink:href="#e"></linearGradient><linearGradient id="f" x1="943.37" x2="968.22" y1="382.49" y2="425.53" gradientTransform="matrix(-1 0 0 1 1314.19 0)" gradientUnits="userSpaceOnUse"><stop offset=".49" stop-color="#453eaf" class="stopColor423eaf svgShape"></stop><stop offset=".77" stop-color="#675fd7" class="stopColor635fd7 svgShape"></stop><stop offset="1" stop-color="#857dfb" class="stopColor807dfb svgShape"></stop></linearGradient><linearGradient id="J" x1="916.93" x2="941.77" y1="367.23" y2="410.26" xlink:href="#f"></linearGradient><linearGradient id="K" x1="890.48" x2="915.33" y1="351.96" y2="394.99" xlink:href="#f"></linearGradient><linearGradient id="L" x1="864.04" x2="888.88" y1="336.69" y2="379.72" xlink:href="#f"></linearGradient><linearGradient id="M" x1="837.59" x2="862.44" y1="321.42" y2="364.46" xlink:href="#f"></linearGradient><linearGradient id="N" x1="834.64" x2="1070.55" y1="339.6" y2="339.6" gradientTransform="matrix(-1 0 0 1 1314.19 0)" gradientUnits="userSpaceOnUse"><stop offset=".58" stop-color="#342e94" class="stopColor362e94 svgShape"></stop><stop offset=".68" stop-color="#5a52cc" class="stopColor5652cc svgShape"></stop></linearGradient><linearGradient id="O" x1="839.6" x2="1065.59" y1="283.69" y2="283.69" gradientTransform="matrix(-1 0 0 1 1314.19 0)" gradientUnits="userSpaceOnUse"><stop offset=".33" stop-color="#5a52cc" class="stopColor5652cc svgShape"></stop><stop offset=".41" stop-color="#342e94" class="stopColor362e94 svgShape"></stop></linearGradient><linearGradient id="g" x1="1683.87" x2="1687.84" y1="15.21" y2="10.48" gradientTransform="scale(-1 1) rotate(28.1 76.081 -4052.3)" gradientUnits="userSpaceOnUse"><stop offset="0" stop-color="#471147" class="stopColor131147 svgShape"></stop><stop offset=".43" stop-color="#661d66" class="stopColor211d66 svgShape"></stop><stop offset="1" stop-color="#342e94" class="stopColor362e94 svgShape"></stop></linearGradient><linearGradient id="P" x1="1233.2" x2="1263.7" y1="264.44" y2="264.44" gradientTransform="matrix(-1 0 0 1 1670.63 0)" gradientUnits="userSpaceOnUse"><stop offset="0" stop-color="#471147" class="stopColor131147 svgShape"></stop><stop offset=".21" stop-color="#4c134c" class="stopColor15134c svgShape"></stop><stop offset=".45" stop-color="#5b185b" class="stopColor1c185b svgShape"></stop><stop offset=".72" stop-color="#732273" class="stopColor272273 svgShape"></stop><stop offset="1" stop-color="#342e94" class="stopColor362e94 svgShape"></stop></linearGradient><linearGradient id="Q" x1="1679.96" x2="1683.94" y1="23.51" y2="18.78" xlink:href="#g"></linearGradient><linearGradient id="R" x1="1227.2" x2="1256.36" y1="268.6" y2="268.6" gradientTransform="matrix(-1 0 0 1 1670.63 0)" gradientUnits="userSpaceOnUse"><stop offset="0" stop-color="#471147" class="stopColor131147 svgShape"></stop><stop offset=".42" stop-color="#651c65" class="stopColor211c65 svgShape"></stop><stop offset="1" stop-color="#342e94" class="stopColor362e94 svgShape"></stop></linearGradient><linearGradient id="S" x1="-1281.14" x2="-1250.9" y1="258.75" y2="258.75" gradientTransform="translate(1685.09)" gradientUnits="userSpaceOnUse"><stop offset=".56" stop-color="#a3b6ca" class="stopColora3a9ca svgShape"></stop><stop offset=".61" stop-color="#ccdff2" class="stopColorccd0f2 svgShape"></stop></linearGradient><linearGradient id="T" x1="-830.2" x2="-850.92" y1="235.35" y2="235.35" gradientTransform="translate(1275.47)" gradientUnits="userSpaceOnUse"><stop offset="0" stop-color="#e33cc5" class="stopColore33c5c svgShape"></stop><stop offset=".23" stop-color="#e851cd" class="stopColore8515f svgShape"></stop><stop offset=".69" stop-color="#f567db" class="stopColorf58767 svgShape"></stop><stop offset="1" stop-color="#6db6ff" class="stopColorffaf6d svgShape"></stop></linearGradient><linearGradient id="U" x1="442.45" x2="430.62" y1="242.28" y2="236.98" gradientUnits="userSpaceOnUse"><stop offset="0" stop-color="#ff5ae1" class="stopColorff5a72 svgShape"></stop><stop offset=".39" stop-color="#ff70e5" class="stopColorff7870 svgShape"></stop><stop offset="1" stop-color="#6db6ff" class="stopColorffaf6d svgShape"></stop></linearGradient><linearGradient id="V" x1="1249.02" x2="1271.09" y1="254.6" y2="254.6" gradientTransform="matrix(-1 0 0 1 1670.63 0)" gradientUnits="userSpaceOnUse"><stop offset=".17" stop-color="#453ead" class="stopColor423ead svgShape"></stop><stop offset=".2" stop-color="#5a52c9" class="stopColor5652c9 svgShape"></stop><stop offset=".23" stop-color="#6f67e7" class="stopColor6b67e7 svgShape"></stop></linearGradient><linearGradient id="W" x1="1233.56" x2="1249.15" y1="209.65" y2="209.65" gradientTransform="matrix(-1 0 0 1 1670.63 0)" gradientUnits="userSpaceOnUse"><stop offset="0" stop-color="#5c55c4" class="stopColor5555c4 svgShape"></stop><stop offset=".43" stop-color="#4b45ab" class="stopColor4645ab svgShape"></stop><stop offset="1" stop-color="#37318d" class="stopColor34318d svgShape"></stop></linearGradient><linearGradient id="X" x1="905.47" x2="987.95" y1="357.14" y2="214.27" gradientTransform="matrix(-1 0 0 1 1314.19 0)" gradientUnits="userSpaceOnUse"><stop offset=".2" stop-color="#e33cc5" class="stopColore33c5c svgShape"></stop><stop offset=".26" stop-color="#e852cd" class="stopColore8525f svgShape"></stop><stop offset=".39" stop-color="#f668dc" class="stopColorf68c68 svgShape"></stop><stop offset=".46" stop-color="#6db6ff" class="stopColorffaf6d svgShape"></stop><stop offset=".95" stop-color="#6db6ff" class="stopColorffaf6d svgShape"></stop><stop offset="1" stop-color="#ff6ae4" class="stopColorff826a svgShape"></stop></linearGradient><linearGradient id="Y" x1="1438.89" x2="1335.77" y1="75.47" y2="75.47" gradientTransform="rotate(120 828.801 -229.245)" gradientUnits="userSpaceOnUse"><stop offset=".34" stop-color="#e33cc5" class="stopColore33c5c svgShape"></stop><stop offset=".43" stop-color="#6db6ff" class="stopColorffaf6d svgShape"></stop></linearGradient><linearGradient id="Z" x1="185.79" x2="248.96" y1="269.52" y2="269.52" gradientUnits="userSpaceOnUse"><stop offset="0" stop-color="#d1e2f3" class="stopColord1d7f3 svgShape"></stop><stop offset="0" stop-color="#d1e2f3" class="stopColord1d7f3 svgShape"></stop><stop offset=".62" stop-color="#f2f7fc" class="stopColorf2f4fc svgShape"></stop><stop offset=".96" stop-color="#ffffff" class="stopColorffffff svgShape"></stop></linearGradient><linearGradient id="aa" x1="187.61" x2="198.9" y1="254.29" y2="234.73" gradientUnits="userSpaceOnUse"><stop offset="0" stop-color="#5a52cc" class="stopColor5652cc svgShape"></stop><stop offset=".15" stop-color="#675fda" class="stopColor625fda svgShape"></stop><stop offset=".47" stop-color="#7d75f2" class="stopColor7875f2 svgShape"></stop><stop offset=".66" stop-color="#857dfb" class="stopColor807dfb svgShape"></stop></linearGradient><linearGradient id="ab" x1="1312.11" x2="1336.06" y1="218.05" y2="259.53" gradientTransform="matrix(-1 0 0 1 1507.43 0)" gradientUnits="userSpaceOnUse"><stop offset=".34" stop-color="#857dfb" class="stopColor807dfb svgShape"></stop><stop offset=".53" stop-color="#7d75f2" class="stopColor7875f2 svgShape"></stop><stop offset=".85" stop-color="#675fda" class="stopColor625fda svgShape"></stop><stop offset="1" stop-color="#5a52cc" class="stopColor5652cc svgShape"></stop></linearGradient><linearGradient id="ac" x1="568.99" x2="672.11" y1="462.16" y2="462.16" gradientUnits="userSpaceOnUse"><stop offset="0" stop-color="#d1e0f0" class="stopColord1d6f0 svgShape"></stop><stop offset=".29" stop-color="#d5e3f1" class="stopColord5daf1 svgShape"></stop><stop offset=".59" stop-color="#e2ebf5" class="stopColore2e5f5 svgShape"></stop><stop offset=".9" stop-color="#f6f9fc" class="stopColorf6f7fc svgShape"></stop><stop offset="1" stop-color="#ffffff" class="stopColorffffff svgShape"></stop></linearGradient><linearGradient id="ad" x1="986.54" x2="1089.66" y1="472.78" y2="472.78" gradientTransform="matrix(-1 0 0 1 1655.34 0)" gradientUnits="userSpaceOnUse"><stop offset=".53" stop-color="#342e93" class="stopColor362e93 svgShape"></stop><stop offset=".64" stop-color="#5a52cc" class="stopColor5652cc svgShape"></stop></linearGradient><linearGradient id="ae" x1="138.09" x2="339.03" y1="455.41" y2="455.41" gradientUnits="userSpaceOnUse"><stop offset="0" stop-color="#c4d4e5" class="stopColorc4c9e5 svgShape"></stop><stop offset=".3" stop-color="#c7d6e6" class="stopColorc7cce6 svgShape"></stop><stop offset=".54" stop-color="#d1deeb" class="stopColord1d5eb svgShape"></stop><stop offset=".76" stop-color="#e2eaf2" class="stopColore2e4f2 svgShape"></stop><stop offset=".96" stop-color="#f9fbfd" class="stopColorf9fafd svgShape"></stop><stop offset="1" stop-color="#ffffff" class="stopColorffffff svgShape"></stop></linearGradient><linearGradient id="af" x1="465.45" x2="565.92" y1="844.98" y2="670.95" gradientTransform="rotate(-120 293.385 697.794)" gradientUnits="userSpaceOnUse"><stop offset=".32" stop-color="#453eaf" class="stopColor423eaf svgShape"></stop><stop offset=".41" stop-color="#857dfb" class="stopColor807dfb svgShape"></stop></linearGradient><linearGradient id="ag" x1="258.67" x2="325.92" y1="514.85" y2="514.85" gradientUnits="userSpaceOnUse"><stop offset=".45" stop-color="#c4d4e4" class="stopColorc4c9e4 svgShape"></stop><stop offset="1" stop-color="#ffffff" class="stopColorffffff svgShape"></stop></linearGradient><linearGradient id="h" x1="243.26" x2="309.13" y1="520.11" y2="520.11" gradientUnits="userSpaceOnUse"><stop offset="0" stop-color="#ff6ae4" class="stopColorff826a svgShape"></stop><stop offset="1" stop-color="#e33cc5" class="stopColore33c5c svgShape"></stop></linearGradient><linearGradient id="ah" x1="249.45" x2="302.94" y1="498.65" y2="498.65" xlink:href="#h"></linearGradient><linearGradient id="ai" x1="266.03" x2="280.49" y1="512.6" y2="512.6" xlink:href="#h"></linearGradient><linearGradient id="aj" x1="856.84" x2="976.37" y1="361.75" y2="361.75" xlink:href="#i"></linearGradient><linearGradient id="ak" x1="312.24" x2="375.19" y1="469.21" y2="469.21" gradientTransform="translate(-226.98)" xlink:href="#b"></linearGradient><linearGradient id="al" x1="772.72" x2="882.05" y1="464.03" y2="464.03" gradientTransform="translate(-308.24)" xlink:href="#b"></linearGradient><linearGradient id="am" x1="710.07" x2="791.9" y1="496.01" y2="496.01" gradientTransform="translate(-308.24)" xlink:href="#b"></linearGradient><linearGradient id="an" x1="767.48" x2="905.55" y1="430.37" y2="430.37" xlink:href="#i"></linearGradient><linearGradient id="ao" x1="843.17" x2="903.51" y1="368.08" y2="368.08" gradientTransform="translate(-308.24)" xlink:href="#b"></linearGradient><linearGradient id="ap" x1="625.15" x2="665.67" y1="320.37" y2="320.37" gradientUnits="userSpaceOnUse"><stop offset="0" stop-color="#c2d2e2" class="stopColorc2c7e2 svgShape"></stop><stop offset=".27" stop-color="#c6d5e4" class="stopColorc6cae4 svgShape"></stop><stop offset=".52" stop-color="#d1dde9" class="stopColord1d5e9 svgShape"></stop><stop offset=".76" stop-color="#e4ebf2" class="stopColore4e6f2 svgShape"></stop><stop offset=".99" stop-color="#fefefe" class="stopColorfefefe svgShape"></stop><stop offset="1" stop-color="#ffffff" class="stopColorffffff svgShape"></stop></linearGradient><linearGradient id="aq" x1="615.37" x2="659.77" y1="324.65" y2="324.65" gradientUnits="userSpaceOnUse"><stop offset="0" stop-color="#6db6ff" class="stopColorffaf6d svgShape"></stop><stop offset=".28" stop-color="#f567db" class="stopColorf58767 svgShape"></stop><stop offset=".59" stop-color="#eb5ed1" class="stopColoreb5e61 svgShape"></stop><stop offset=".85" stop-color="#e545c8" class="stopColore5455d svgShape"></stop><stop offset="1" stop-color="#e33cc5" class="stopColore33c5c svgShape"></stop></linearGradient><linearGradient id="ar" x1="138.06" x2="199.79" y1="371.95" y2="371.95" gradientUnits="userSpaceOnUse"><stop offset=".15" stop-color="#c4d6e9" class="stopColorc4cae9 svgShape"></stop><stop offset=".58" stop-color="#e4ecf5" class="stopColore4e6f5 svgShape"></stop><stop offset="1" stop-color="#ffffff" class="stopColorffffff svgShape"></stop></linearGradient><linearGradient id="j" x1="1144.44" x2="1160.21" y1="880.95" y2="908.26" gradientTransform="rotate(120 810.08 334.38)" gradientUnits="userSpaceOnUse"><stop offset="0" stop-color="#c62caa" class="stopColorc62c51 svgShape"></stop><stop offset=".31" stop-color="#d847be" class="stopColord84759 svgShape"></stop><stop offset="1" stop-color="#ff6ae4" class="stopColorff826a svgShape"></stop></linearGradient><linearGradient id="k" x1="1149.42" x2="1165.19" y1="878.07" y2="905.38" gradientTransform="rotate(120 810.08 334.38)" gradientUnits="userSpaceOnUse"><stop offset="0" stop-color="#abc2da" class="stopColorabb2da svgShape"></stop><stop offset="1" stop-color="#cee3f8" class="stopColorced3f8 svgShape"></stop></linearGradient><linearGradient id="as" x1="1154.39" x2="1170.16" y1="875.2" y2="902.51" xlink:href="#j"></linearGradient><linearGradient id="at" x1="1159.37" x2="1175.14" y1="872.33" y2="899.64" xlink:href="#k"></linearGradient><linearGradient id="au" x1="1164.34" x2="1180.11" y1="869.45" y2="896.76" xlink:href="#j"></linearGradient><linearGradient id="av" x1="1047.79" x2="1082.87" y1="-126.21" y2="-126.21" gradientTransform="rotate(-120 899.812 153.007)" gradientUnits="userSpaceOnUse"><stop offset="0" stop-color="#a5b8cc" class="stopColora5abcc svgShape"></stop><stop offset=".38" stop-color="#b6cade" class="stopColorb6bbde svgShape"></stop><stop offset="1" stop-color="#cee3f8" class="stopColorced3f8 svgShape"></stop></linearGradient></defs><g style="isolation:isolate" fill="#010001" class="color000000 svgShape"><g fill="#010001" class="color000000 svgShape"><g data-name="Thumbs up symbol" fill="#010001" class="color000000 svgShape"><polygon points="635.84 318.84 571.64 318.84 576.09 321.4 571.64 323.98 635.84 323.98 635.84 318.84" style="mix-blend-mode:multiply" fill="url(#a)"></polygon><polygon points="674.89 296.29 610.69 296.29 615.14 298.86 610.69 301.43 674.89 301.43 674.89 296.29" style="mix-blend-mode:multiply" fill="url(#l)"></polygon><polygon points="529.83 257.63 465.63 257.63 470.08 260.2 465.63 262.77 529.83 262.77 529.83 257.63" style="mix-blend-mode:multiply" fill="url(#m)"></polygon><polygon points="568.87 235.09 504.68 235.09 509.13 237.66 504.68 240.22 568.87 240.22 568.87 235.09" style="mix-blend-mode:multiply" fill="url(#n)"></polygon><polygon fill="#f4f6f8" points="610.69 199.58 606.24 197.01 606.24 298.86 610.69 301.43 610.69 199.58" class="colorced3f8 svgShape"></polygon><polygon fill="#bbd0e6" points="610.69 199.58 615.14 197.01 615.14 298.86 610.69 301.43 610.69 199.58" class="colorbbc0e6 svgShape"></polygon><polygon fill="#f4f6f8" points="610.69 194.44 615.14 197.01 610.69 199.58 606.24 197.01 610.69 194.44" class="colorf6f6fb svgShape"></polygon><polygon fill="#f4f6f8" points="504.68 138.37 500.23 135.8 500.23 237.65 504.68 240.23 504.68 138.37" class="colorced3f8 svgShape"></polygon><polygon fill="#bbd0e6" points="504.68 138.37 509.13 135.8 509.13 237.65 504.68 240.23 504.68 138.37" class="colorbbc0e6 svgShape"></polygon><polygon fill="#f4f6f8" points="504.68 133.23 509.13 135.8 504.68 138.37 500.23 135.8 504.68 133.23" class="colorf6f6fb svgShape"></polygon><polygon fill="#f4f6f8" points="465.63 160.91 461.18 158.34 461.18 260.2 465.63 262.77 465.63 160.91" class="colorced3f8 svgShape"></polygon><polygon fill="#bbd0e6" points="465.63 160.91 470.08 158.34 470.08 260.2 465.63 262.77 465.63 160.91" class="colorbbc0e6 svgShape"></polygon><polygon fill="#f4f6f8" points="465.63 155.77 470.08 158.34 465.63 160.91 461.18 158.34 465.63 155.77" class="colorf6f6fb svgShape"></polygon><polygon fill="#f4f6f8" points="500.23 208.22 504.68 210.79 509.13 208.22 606.24 264.29 606.24 269.43 610.69 272 576.09 291.97 571.64 289.4 567.19 291.97 465.63 233.33 470.08 230.76 470.08 225.63 500.23 208.22" class="colorf6f6fb svgShape"></polygon><polygon fill="#5046e4" points="610.69 272 576.09 291.97 576.09 295.24 610.69 275.27 610.69 272" class="color5652cc svgShape"></polygon><polygon fill="#857dfb" points="465.63 233.33 567.19 291.97 567.19 295.24 465.63 236.6 465.63 233.33" class="color807dfb svgShape"></polygon><polygon points="496.14 228.19 470.08 228.19 470.08 230.76 465.63 233.33 496.14 233.33 496.14 228.19" style="mix-blend-mode:multiply" fill="url(#c)"></polygon><polygon points="546.04 237.03 529.88 237.03 547.48 247.18 529.88 257.34 546.03 257.34 563.63 247.18 546.04 237.03" style="mix-blend-mode:multiply" fill="url(#b)"></polygon><polygon points="550.19 235.67 550.19 235.67 550.19 235.67 532.19 225.75 509.52 225.75 527.12 235.9 527.53 235.67 509.93 245.83 532.6 245.83 550.19 235.67 549.78 235.9 550.19 235.67" style="mix-blend-mode:multiply" fill="url(#o)"></polygon><polygon fill="#e33cc5" points="509.93 232.74 527.53 222.58 527.53 235.67 509.93 245.83 509.93 232.74" class="colore33c5c svgShape"></polygon><polygon fill="#ff6ae4" points="510.34 212.66 527.53 222.58 509.93 232.74 492.75 222.81 510.34 212.66" class="colorff826a svgShape"></polygon><polygon fill="#ff5ae1" points="492.75 222.81 509.93 232.74 509.93 245.83 492.75 235.9 492.75 222.81" class="colorff5a72 svgShape"></polygon><polygon fill="#5046e4" points="505 237.79 497.68 233.56 497.68 230.85 505 235.07 505 237.79" class="color5652cc svgShape"></polygon><polygon fill="#6f67e9" points="534.84 230.56 547.48 237.86 529.88 248.02 517.24 240.72 534.84 230.56" class="color6b67e9 svgShape"></polygon><polygon fill="#453eaf" points="517.24 240.72 529.88 248.02 529.88 257.34 517.24 250.04 517.24 240.72" class="color423eaf svgShape"></polygon><polygon fill="#6f196f" points="529.88 248.02 547.48 237.86 547.48 247.18 529.88 257.34 529.88 248.02" class="color20196f svgShape"></polygon><polygon fill="#5046e4" points="544.03 235.87 547.48 237.86 529.88 248.02 526.44 246.03 544.03 235.87" class="color5652cc svgShape"></polygon><polygon fill="#342e94" points="526.44 255.35 529.88 257.34 529.88 248.02 526.44 246.03 526.44 255.35" class="color362e94 svgShape"></polygon><polygon points="581.02 257.22 564.87 257.22 582.46 267.38 564.87 277.54 581.02 277.54 598.61 267.38 581.02 257.22" style="mix-blend-mode:multiply" fill="url(#p)"></polygon><polygon fill="#ff6ae4" points="557.17 243.46 582.46 258.05 564.87 268.21 539.58 253.62 557.17 243.46" class="colorff826a svgShape"></polygon><polygon fill="#ff5ae1" points="539.58 253.62 564.87 268.21 564.87 277.54 539.58 262.94 539.58 253.62" class="colorff5a72 svgShape"></polygon><polygon fill="#e33cc5" points="564.87 268.21 582.46 258.05 582.46 267.38 564.87 277.54 564.87 268.21" class="colore33c5c svgShape"></polygon><polygon fill="#f4f6f8" points="500.23 160.33 504.68 162.9 509.13 160.33 606.24 216.4 606.24 221.53 610.69 224.1 576.09 244.08 571.64 241.51 567.19 244.08 465.63 185.44 470.08 182.87 470.08 177.73 500.23 160.33" class="colorf6f6fb svgShape"></polygon><polygon fill="#5046e4" points="610.69 224.1 576.09 244.08 576.09 247.35 610.69 227.38 610.69 224.1" class="color5652cc svgShape"></polygon><polygon fill="#857dfb" points="465.63 185.44 567.19 244.08 567.19 247.35 465.63 188.71 465.63 185.44" class="color807dfb svgShape"></polygon><polygon points="496.14 180.3 470.08 180.3 470.08 182.87 465.63 185.44 496.14 185.44 496.14 180.3" style="mix-blend-mode:multiply" fill="url(#q)"></polygon><polygon points="528.61 176.22 514.67 176.22 532.43 186.47 507.99 200.58 521.92 200.58 546.37 186.47 528.61 176.22" style="mix-blend-mode:multiply" fill="url(#r)"></polygon><polygon fill="#6f67e9" points="510.26 164.39 532.43 177.19 507.98 191.31 485.81 178.51 510.26 164.39" class="color6b67e9 svgShape"></polygon><polygon fill="#453eaf" points="485.81 178.51 507.99 191.31 507.98 200.58 485.81 187.78 485.81 178.51" class="color423eaf svgShape"></polygon><polygon fill="#342e94" points="507.99 191.31 532.43 177.19 532.43 186.47 507.99 200.58 507.99 191.31" class="color362e94 svgShape"></polygon><path fill="#5046e4" d="M492.05,186.86a5,5,0,0,0-2.29-4c-1.26-.73-2.28-.14-2.29,1.32a5.06,5.06,0,0,0,2.29,4C491,188.91,492.05,188.32,492.05,186.86Z" class="color5652cc svgShape"></path><polygon fill="#6f196f" points="493.32 185.56 500.23 189.55 500.23 188.59 493.32 184.6 493.32 185.56" class="color20196f svgShape"></polygon><polygon points="563.81 194.44 549.87 194.44 567.63 204.69 541.3 219.89 555.24 219.89 581.57 204.69 563.81 194.44" style="mix-blend-mode:multiply" fill="url(#s)"></polygon><polygon fill="#ff6ae4" points="545.46 182.61 567.63 195.41 541.3 210.62 519.13 197.82 545.46 182.61" class="colorff826a svgShape"></polygon><polygon fill="#6db6ff" points="545.81 186.63 560.67 195.21 551.56 200.47 536.7 191.89 545.81 186.63" class="colorffaf6d svgShape"></polygon><polygon fill="#ff5ae1" points="519.13 197.82 541.3 210.62 541.3 219.89 519.13 207.09 519.13 197.82" class="colorff5a72 svgShape"></polygon><polygon fill="#e33cc5" points="541.3 210.62 567.63 195.41 567.63 204.69 541.3 219.89 541.3 210.62" class="colore33c5c svgShape"></polygon><polygon fill="#ffffff" points="550.59 195.79 544.32 192.17 546.34 191 552.62 194.62 550.59 195.79" class="colorffffff svgShape"></polygon><polygon points="582.31 209.46 568.4 209.46 589.34 221.55 568.4 233.64 582.31 233.64 603.25 221.55 582.31 209.46" style="mix-blend-mode:multiply" fill="url(#t)"></polygon><polygon fill="#6f67e9" points="574.29 204.84 589.34 213.52 568.4 225.6 553.36 216.92 574.29 204.84" class="color6b67e9 svgShape"></polygon><polygon fill="#453eaf" points="553.36 216.92 568.4 225.6 568.4 233.64 553.36 224.95 553.36 216.92" class="color423eaf svgShape"></polygon><polygon fill="#342e94" points="568.4 225.6 589.34 213.52 589.34 221.55 568.4 233.63 568.4 225.6" class="color362e94 svgShape"></polygon><polygon fill="#f4f6f8" points="571.64 222.12 567.19 219.55 567.19 321.4 571.64 323.98 571.64 222.12" class="colorced3f8 svgShape"></polygon><polygon fill="#bbd0e6" points="571.64 222.12 576.09 219.55 576.09 321.4 571.64 323.98 571.64 222.12" class="colorbbc0e6 svgShape"></polygon><polygon fill="#f4f6f8" points="571.64 216.98 576.09 219.55 571.64 222.12 567.19 219.55 571.64 216.98" class="colorf6f6fb svgShape"></polygon><polygon points="504.68 162.9 513.58 162.9 509.13 160.33 504.68 162.9 504.68 162.9" style="mix-blend-mode:multiply" fill="url(#u)"></polygon><polygon points="388.09 238.53 316.63 238.53 361.56 264.47 294.95 302.93 366.4 302.93 433.01 264.47 388.09 238.53" style="mix-blend-mode:multiply" fill="url(#i)"></polygon><polygon points="351.66 309.43 351.66 309.43 351.66 309.43 284.2 272.25 205.5 272.25 271.43 310.31 272.96 309.43 180.5 362.82 259.2 362.82 351.66 309.43 351.66 309.43" style="mix-blend-mode:multiply" fill="url(#v)"></polygon><polygon fill="#f1f3f6" points="300.42 175.8 361.56 211.1 294.95 249.56 233.81 214.26 300.42 175.8" class="colorf1f1f6 svgShape"></polygon><polygon fill="#f4f6f8" points="233.81 214.27 294.95 249.57 294.95 302.93 233.81 267.63 233.81 214.27" class="colorced3f8 svgShape"></polygon><polygon fill="#bbd0e6" points="294.95 249.57 361.56 211.1 361.56 264.47 294.95 302.93 294.95 249.57" class="colorbbc0e6 svgShape"></polygon><polygon fill="#ffffff" points="270.69 192.97 331.83 228.27 322.31 233.77 261.17 198.46 270.69 192.97" class="colorffffff svgShape"></polygon><polygon fill="#dfe9f4" points="331.83 228.27 331.83 235.35 322.31 240.84 322.31 233.77 331.83 228.27" class="colordfe4f4 svgShape"></polygon><polygon fill="#abc2da" points="350.82 257.44 347.83 255.71 344.83 260.89 345.64 261.35 347.25 258.55 347.25 266.54 348.4 265.89 348.4 257.9 350.01 258.83 350.82 257.44" class="colorabb2da svgShape"></polygon><polygon fill="#abc2da" points="358.79 252.83 355.8 251.1 352.81 256.28 353.62 256.75 355.23 253.95 355.23 261.94 356.37 261.28 356.37 253.29 357.99 254.23 358.79 252.83" class="colorabb2da svgShape"></polygon><polygon points="351.38 205.22 294.95 237.81 315.3 237.81 361.56 211.1 351.38 205.22" style="mix-blend-mode:multiply" fill="#e8eff7" class="colore8ecf7 svgShape"></polygon><polygon fill="#f1f3f6" points="300.42 110.68 361.56 145.98 294.95 184.44 233.81 149.14 300.42 110.68" class="colorf1f1f6 svgShape"></polygon><polygon fill="#f4f6f8" points="233.81 149.14 294.95 184.44 294.95 237.81 233.81 202.51 233.81 149.14" class="colorced3f8 svgShape"></polygon><polygon fill="#bbd0e6" points="294.95 184.44 361.56 145.98 361.56 199.35 294.95 237.81 294.95 184.44" class="colorbbc0e6 svgShape"></polygon><polygon fill="#ffffff" points="270.69 127.84 331.83 163.15 322.31 168.65 261.17 133.34 270.69 127.84" class="colorffffff svgShape"></polygon><polygon fill="#dfe9f4" points="331.83 163.15 331.83 170.22 322.31 175.72 322.31 168.65 331.83 163.15" class="colordfe4f4 svgShape"></polygon><polygon fill="#abc2da" points="350.82 192.31 347.83 190.58 344.83 195.76 345.64 196.23 347.25 193.43 347.25 201.42 348.4 200.76 348.4 192.77 350.01 193.71 350.82 192.31" class="colorabb2da svgShape"></polygon><polygon fill="#abc2da" points="358.79 187.71 355.8 185.98 352.81 191.16 353.62 191.63 355.23 188.83 355.23 196.82 356.37 196.16 356.37 188.17 357.99 189.1 358.79 187.71" class="colorabb2da svgShape"></polygon><polygon points="240.14 185.17 268.59 201.6 268.59 178.56 240.14 162.13 240.14 185.17" style="mix-blend-mode:multiply" fill="#e8eff7" class="colore8ecf7 svgShape"></polygon><polygon fill="#bbd0e6" points="180.5 313.77 272.96 260.38 272.96 309.43 180.5 362.82 180.5 313.77" class="colorbbc0e6 svgShape"></polygon><polygon fill="#f1f3f6" points="208.57 223.2 272.96 260.38 180.5 313.77 116.1 276.59 208.57 223.2" class="colorf1f1f6 svgShape"></polygon><polygon fill="#f4f6f8" points="116.1 276.59 180.5 313.77 180.5 362.82 116.1 325.63 116.1 276.59" class="colorced3f8 svgShape"></polygon><polygon fill="#6f67e9" points="237.92 300.96 265.35 285.12 265.35 274.94 237.92 290.77 237.92 300.96" class="color6b67e9 svgShape"></polygon><polygon fill="#6f67e9" points="252.21 300.41 265.35 292.82 265.35 288.98 252.21 296.56 252.21 300.41" class="color6b67e9 svgShape"></polygon><polygon fill="#ffffff" points="233.93 237.84 246.58 245.15 154.11 298.54 141.47 291.24 233.93 237.84" class="colorffffff svgShape"></polygon><polygon fill="#dfe9f4" points="141.47 291.24 154.12 298.54 154.11 312.81 141.47 305.5 141.47 291.24" class="colordfe4f4 svgShape"></polygon><path d="M563.78,374.53l-130-75.08A17.87,17.87,0,0,0,423,297.64H396.82l-82.41,95.1,21.29,51H454.25l0-.05a17.52,17.52,0,0,0,9.58-1.93l100-57.71C568.33,381.43,568.33,377.16,563.78,374.53Z" style="mix-blend-mode:multiply" fill="url(#w)"></path><path fill="#6f67e9" d="M256.67,396l72.19,41.68a17.65,17.65,0,0,0,16,0l126-72.72c4.41-2.54,4.41-6.68,0-9.22l-72.2-41.69a17.71,17.71,0,0,0-16,0L256.67,386.79C252.25,389.34,252.25,393.47,256.67,396Z" class="color6b67e9 svgShape"></path><path d="M433.56,334.26,431.45,333l-16.39,9.46H356.63c-7.69,0-11.23-1.56-7.9-3.48l5.14-3c3.33-1.92,12.27-3.48,20-3.48h56.8l-9.25-5.34h-38.3c-7.7,0-11.23-1.56-7.9-3.48l5.14-3c3.33-1.93,12.26-3.49,20-3.49H378.69L254,389.31c-1.13,1.93-.65,4.1,1.44,5.83l75,43.29c4.41,1.78,10.51,1.54,14.45-.73l3.32-1.92h-.77c-7.7,0-16.63-1.56-20-3.48l-5.14-3c-3.33-1.92.2-3.48,7.9-3.48h35.17l9.25-5.34H320.94c-7.69,0-16.63-1.56-20-3.48l-5.14-3c-3.33-1.92.21-3.48,7.9-3.48h58.43L377,419.14l2.12-1.23L335.7,392.85a7.57,7.57,0,0,0-3.47-1,7.57,7.57,0,0,0,3.47-1Zm-111.27,20,5.14-3c3.33-1.92,12.26-3.48,20-3.48h58.43l-17.2,9.93H330.19C322.49,357.77,319,356.21,322.29,354.29Zm-26.45,15.26,5.14-3c3.33-1.92,12.27-3.48,20-3.48h58.43L362.17,373H303.74C296.05,373,292.51,371.48,295.84,369.55Zm39.89,25.76,17.2,9.93H294.5c-7.7,0-16.63-1.55-20-3.48l-5.14-3c-3.33-1.93.21-3.49,7.9-3.49Zm-58.43-7c-7.69,0-11.23-1.55-7.9-3.48l5.14-3c3.33-1.93,12.26-3.49,20-3.49h58.43l-17.2,9.93Z" style="mix-blend-mode:multiply" fill="url(#x)"></path><path fill="url(#y)" d="M254.78,340.88v48.65c0-.44.47-1.24,1.81-2l127.63-73.7a14.79,14.79,0,0,1,13,0l72.51,41.87c1.33.77,1.8,1.56,1.8,2V309.06c0-.45-.47-1.23-1.8-2l-72.51-41.87a14.79,14.79,0,0,0-13,0L256.59,338.88C255.25,339.65,254.78,340.44,254.78,340.88Zm195.34-42.71,17.2,9.93v33.51c0,4.44-2.7,6.48-6,4.55l-5.14-3c-3.33-1.92-6-7.08-6-11.52ZM423.68,283l17.2,9.93v33.5c0,4.44-2.7,6.49-6,4.56l-5.14-3c-3.33-1.93-6-7.09-6-11.53Zm-26.44-15.16,17.2,9.93V311.3c0,4.44-2.71,6.48-6,4.56l-5.13-3c-3.34-1.92-6-7.08-6-11.52Zm-30.61,9.93,17.2-9.93V301.6c0,4.44-2.7,9.6-6,11.52l-5.14,3c-3.33,1.92-6-.12-6-4.56Zm-26.45,15.27,17.2-9.93v33.73c0,4.45-2.7,9.61-6,11.53l-5.13,3c-3.34,1.92-6-.12-6-4.56Zm-26.44,15.27,17.2-9.93v33.73c0,4.45-2.7,9.6-6,11.53l-5.14,3c-3.33,1.93-6-.11-6-4.56ZM287.29,323.6l17.2-9.93V347.4c0,4.44-2.69,9.6-6,11.52l-5.13,3c-3.33,1.92-6-.12-6-4.56Zm-26.44,15.26,17.2-9.93v33.74c0,4.44-2.7,9.6-6,11.52l-5.14,3c-3.33,1.92-6-.12-6-4.56Z"></path><path fill="url(#e)" d="M400.75,269.89v29.48c0,4.45,2.7,9.6,6,11.53l5.14,3a5.27,5.27,0,0,0,1.88.69c-1,2.07-3,2.71-5.4,1.34l-5.13-3c-3.34-1.93-6-7.09-6-11.53V267.86Z"></path><path fill="url(#d)" d="M380.32,269.89v29.68c0,4.44-2.7,9.6-6,11.52l-5.14,3a5.19,5.19,0,0,1-1.88.68c1,2.07,3,2.71,5.39,1.35l5.14-3c3.33-1.92,6-7.08,6-11.52V267.86Z"></path><path fill="url(#z)" d="M353.87,285.16v29.68c0,4.44-2.7,9.6-6,11.52l-5.14,3a5.12,5.12,0,0,1-1.88.68c1,2.07,3,2.71,5.4,1.35l5.13-3c3.33-1.92,6-7.08,6-11.53V283.13Z"></path><path fill="url(#A)" d="M327.43,300.43v29.68c0,4.44-2.7,9.6-6,11.52l-5.14,3a5.38,5.38,0,0,1-1.88.68c1,2.07,3,2.71,5.39,1.34l5.14-3c3.33-1.93,6-7.08,6-11.53V298.4Z"></path><path fill="url(#B)" d="M301,315.69v29.68c0,4.45-2.7,9.6-6,11.53l-5.14,3a5.27,5.27,0,0,1-1.88.69c1,2.07,3,2.71,5.4,1.34l5.13-3c3.34-1.92,6-7.08,6-11.52V313.67Z"></path><path fill="url(#C)" d="M274.54,331v29.68c0,4.44-2.7,9.6-6,11.53l-5.14,3a5.19,5.19,0,0,1-1.88.68c1,2.07,3,2.71,5.39,1.35l5.14-3c3.33-1.92,6-7.08,6-11.52V328.93Z"></path><path fill="url(#D)" d="M427.19,285V314.5c0,4.44,2.7,9.6,6,11.52l5.14,3a5.38,5.38,0,0,0,1.88.68c-1,2.07-3,2.71-5.39,1.34l-5.14-3c-3.33-1.93-6-7.09-6-11.53V283Z"></path><path fill="url(#E)" d="M453.63,300.19v29.43c0,4.44,2.7,9.6,6,11.52l5.13,3a5.17,5.17,0,0,0,1.89.68c-1,2.07-3,2.71-5.4,1.34l-5.14-3c-3.33-1.93-6-7.09-6-11.53V298.17Z"></path><path fill="#6f67e9" d="M255.06,345.52l72.52,41.86a17.73,17.73,0,0,0,16.05,0l127.64-73.69c4.43-2.56,4.43-6.71,0-9.27l-72.52-41.86c-4.43-2.56-11.61-2.56-16.05,0L255.06,336.25C250.63,338.81,250.63,343,255.06,345.52Zm-.28-4.64c0-.44.47-1.23,1.81-2l127.63-73.69a14.79,14.79,0,0,1,13,0l72.51,41.87c1.33.77,1.8,1.55,1.8,2s-.47,1.23-1.8,2L342.11,384.75a14.77,14.77,0,0,1-13,0l-72.51-41.87C255.25,342.12,254.78,341.33,254.78,340.88Z" class="color6b67e9 svgShape"></path><path fill="url(#F)" d="M251.74,340.88V389.3c0,6.1,1.89,9.91,8.13,13.44l67.71,39.1a17.79,17.79,0,0,0,16.05,0l124-71.58c4.52-2.5,7-5.16,7-11.05V309.34c-.12,1.58-1.21,3.14-3.3,4.35l-4,2.29h0L362.1,376.72l-4,2.28h0l-13.86,8-.66.38a17.73,17.73,0,0,1-16.05,0l-.66-.38v36.29c0,4.45-2.7,6.49-6,4.57l-5.14-3c-3.33-1.92-6-7.08-6-11.53V387.12h0V377.07l-9.24-5.33V408c0,4.44-2.7,6.48-6,4.56l-5.14-3c-3.33-1.92-6-7.08-6-11.52V361.8h0L274,356.47v.11h0v36.18c0,4.44-2.7,6.48-6,4.56l-5.14-3c-3.33-1.92-6-7.08-6-11.52V346.54h0l-1.77-1C252.85,344.24,251.74,342.56,251.74,340.88ZM452.15,361V327.17l17.2-9.93v33.85c0,4.44-2.7,9.6-6,11.52l-5.14,3C454.85,367.5,452.15,365.46,452.15,361Zm-26.44,15.27V342.44l17.2-9.93v33.85c0,4.44-2.7,9.6-6,11.52l-5.14,3C428.41,382.77,425.71,380.73,425.71,376.29Zm-26.45,15.27V357.71l17.2-9.94v7.49h0v26.36c0,4.44-2.7,9.6-6,11.53l-5.14,3C402,398,399.26,396,399.26,391.56Zm-26.44,15.26V373L390,363v33.85c0,4.44-2.7,9.6-6,11.53l-5.14,3C375.52,413.31,372.82,411.26,372.82,406.82Zm-26.45-18.58,17.2-9.93v33.85c0,4.44-2.7,9.6-6,11.52l-5.13,3c-3.34,1.92-6-.12-6-4.56Z"></path><g style="mix-blend-mode:multiply" fill="#010001" class="color000000 svgShape"><path fill="#d1e2f3" d="M326.92 397.47V387l.66.38a17.73 17.73 0 0016.05 0l.66-.38 13.86-8 4-2.28L467.29 316l4-2.29c2.09-1.21 3.18-2.77 3.3-4.35V319.9l-5.22 3v-5.68l-17.2 9.93v5.68l-9.24 5.33v-5.67l-17.2 9.93v5.67l-9.25 5.34v-5.68l-17.2 9.94v5.67L390 368.72V363L372.82 373v5.68L363.57 384v-5.68l-17.2 9.93v5.68L344 395.29C339.39 398 332.69 398.67 326.92 397.47zM255.06 345.52l1.77 1h0v11.74l-5.09-2.94V340.88C251.74 342.56 252.85 344.24 255.06 345.52z" class="colord1d7f3 svgShape"></path><polygon fill="#d1e2f3" points="283.28 371.85 283.28 373.55 274.03 368.21 274.03 356.58 274.03 356.58 274.03 356.47 283.28 361.81 283.28 361.81 283.28 361.92 283.28 371.85" class="colord1d7f3 svgShape"></polygon><polygon fill="#d1e2f3" points="309.72 387.12 309.72 387.12 309.72 388.82 300.48 383.48 300.48 371.85 300.48 371.74 309.72 377.07 309.72 387.12" class="colord1d7f3 svgShape"></polygon></g><path fill="url(#G)" d="M260.34,348.56V380.8c0,4.44,2.7,9.6,6,11.53l5.13,3a5.39,5.39,0,0,0,1.89.69c-1,2.06-3,2.7-5.4,1.34l-5.14-3c-3.33-1.92-6-7.08-6-11.52V346.54Z"></path><path fill="url(#H)" d="M286.79,363.83v32.24c0,4.44,2.7,9.6,6,11.52l5.14,3a5.12,5.12,0,0,0,1.88.68c-1,2.07-3,2.71-5.39,1.35l-5.14-3c-3.33-1.92-6-7.08-6-11.52V361.8Z"></path><path fill="url(#I)" d="M313.23,379.1v32.24c0,4.44,2.7,9.6,6,11.52l5.14,3a5.19,5.19,0,0,0,1.88.68c-1,2.07-3,2.71-5.39,1.35l-5.14-3c-3.33-1.92-6-7.08-6-11.53V377.07Z"></path><path fill="url(#f)" d="M360.06,380.34v29.79c0,4.44-2.7,9.6-6,11.53l-5.14,3a5.12,5.12,0,0,1-1.88.68c1,2.07,3,2.71,5.4,1.35l5.13-3c3.33-1.92,6-7.08,6-11.52V378.31Z"></path><path fill="url(#J)" d="M386.51,365.07v29.79c0,4.44-2.7,9.61-6,11.53l-5.14,3a5.19,5.19,0,0,1-1.88.68c1,2.07,3,2.71,5.39,1.34l5.14-3c3.33-1.93,6-7.09,6-11.53V363Z"></path><path fill="url(#K)" d="M413,349.8v29.8c0,4.44-2.7,9.6-6,11.52l-5.14,3a5.19,5.19,0,0,1-1.88.68c1,2.07,3,2.71,5.39,1.34l5.14-3c3.33-1.93,6-7.09,6-11.53V347.77Z"></path><path fill="url(#L)" d="M439.4,334.53v29.8c0,4.44-2.7,9.6-6,11.52l-5.14,3a5.17,5.17,0,0,1-1.89.68c1,2.07,3,2.71,5.4,1.35l5.14-3c3.33-1.92,6-7.08,6-11.52V332.51Z"></path><path fill="url(#M)" d="M465.84,319.27v29.79c0,4.44-2.7,9.6-6,11.53l-5.14,3a5.19,5.19,0,0,1-1.88.68c1,2.08,3,2.72,5.39,1.35l5.14-3c3.33-1.92,6-7.08,6-11.52V317.24Z"></path><path fill="#857dfb" d="M248.41,325.39l72.52,41.87c6.36,3.67,16.71,3.67,23.07,0l130.78-75.51c6.36-3.67,6.36-9.65,0-13.32l-72.52-41.86c-6.36-3.68-16.71-3.68-23.07,0l-130.78,75.5C242.05,315.75,242.05,321.72,248.41,325.39Zm3.52-2c-4.44-2.56-4.44-6.71,0-9.27L382.7,238.59c4.44-2.56,11.62-2.56,16.05,0l72.52,41.87c4.43,2.56,4.43,6.71,0,9.27l-130.78,75.5a17.73,17.73,0,0,1-16.05,0Z" class="color807dfb svgShape"></path><path fill="url(#N)" d="M243.64,318.72c0,2.42,1.59,4.83,4.77,6.67l72.52,41.87c6.36,3.67,16.71,3.67,23.07,0l130.78-75.51c3.13-1.8,4.71-4.16,4.76-6.53h0v23.63h0c.09,2.47-1.49,5-4.75,6.85L344,391.22c-6.36,3.67-16.71,3.67-23.07,0l-72.52-41.86c-3.19-1.85-4.78-4.27-4.76-6.7h0V318.72Z"></path><path fill="url(#O)" d="M251.93,314.1,382.7,238.59c4.44-2.56,11.62-2.56,16.05,0l72.52,41.87c4.43,2.56,4.43,6.71,0,9.27l-12.73,7.34-59.79-34.51c-4.43-2.56-11.61-2.56-16.05,0l-118,68.15-12.72-7.34C247.49,320.81,247.49,316.66,251.93,314.1Z"></path><polygon points="295.71 288.82 316.49 276.83 309.46 276.83 288.69 288.82 295.71 288.82" style="mix-blend-mode:multiply" fill="#c4d6e9" class="colorc4cae9 svgShape"></polygon><path fill="url(#g)" d="M413.36,282.86c1.42-.48,2.91,1.43,3,3.09a5.89,5.89,0,0,1-1,1.64,44.39,44.39,0,0,1-4.12,4.44c-.89.57-3.13,1.31-4.14-.18-.35-1.06.32-1.75,1-2.87.89-1.47,1.42-3.18,2.19-4.25C410.93,283.85,413.36,282.86,413.36,282.86Z"></path><path fill="#471047" d="M411,291.59a45.59,45.59,0,0,0,4.24-4.57,6.23,6.23,0,0,0,1-1.62,3.6,3.6,0,0,1,.07.55,5.89,5.89,0,0,1-1,1.64,44.39,44.39,0,0,1-4.12,4.44c-.89.57-3.13,1.31-4.14-.18l0-.11C408.2,292.81,410.21,292.13,411,291.59Z" class="color121047 svgShape"></path><path fill="#ffffff" d="M409.81,283a26.77,26.77,0,0,1,3.34-.44,1.39,1.39,0,0,0,.43.56l.09.06c.6.17,1.36.62.37,1.64-1.94,2-4.74,1.45-4.11.44C410.36,284.53,410,283.49,409.81,283Z" class="colorffffff svgShape"></path><path fill="url(#P)" d="M406.94,259.37a3.92,3.92,0,0,1,1.65-2.76c5.38-4.57,16.65-7.63,22.8-12.86,1.74,1.08,4.09,3.19,5.83,4.27,2.34,9.88-15.32,10.79-23.12,14.11,1.49,6.65.4,15.32.32,21.36a3.43,3.43,0,0,1-4.7,1.1C408.77,277.66,407.37,267.29,406.94,259.37Z"></path><path fill="url(#Q)" d="M420.7,288.37c1.42-.48,2.91,1.42,3,3.09a5.83,5.83,0,0,1-1,1.64,45.31,45.31,0,0,1-4.11,4.44c-.89.57-3.14,1.31-4.14-.18-.36-1.06.31-1.75,1-2.87.89-1.46,1.41-3.18,2.19-4.25C418.27,289.36,420.7,288.37,420.7,288.37Z"></path><path fill="#471047" d="M418.38,297.1a45.59,45.59,0,0,0,4.24-4.57,6.23,6.23,0,0,0,1-1.62,5.17,5.17,0,0,1,.07.55,5.83,5.83,0,0,1-1,1.64,45.31,45.31,0,0,1-4.11,4.44c-.89.57-3.14,1.31-4.14-.18l0-.11C415.54,298.32,417.55,297.64,418.38,297.1Z" class="color121047 svgShape"></path><path fill="#ffffff" d="M417.15,288.46a26.77,26.77,0,0,1,3.34-.44,1.39,1.39,0,0,0,.43.56l.09.06c.59.17,1.36.62.36,1.63-1.93,2-4.74,1.45-4.1.45C417.7,290,417.33,289,417.15,288.46Z" class="colorffffff svgShape"></path><path fill="url(#R)" d="M414.27,264.88a4,4,0,0,1,1.66-2.76c5.37-4.57,15.3-10.31,21.46-15.55,1.74,1.09,4.08,3.19,5.82,4.28,2.34,9.87-14,12.76-21.77,16.79,1.48,6.65.4,15.32.32,21.36a3.43,3.43,0,0,1-4.7,1.1C416.1,283.17,414.71,272.8,414.27,264.88Z"></path><path fill="#ffffff" d="M415.83,246.41a1.14,1.14,0,0,1,1,0L434,256.3a.31.31,0,0,1,0,.58l-11.67,6.74a1.14,1.14,0,0,1-1,0l-17.12-9.88c-.28-.17-.28-.43,0-.59Z" class="colorffffff svgShape"></path><g style="mix-blend-mode:multiply" fill="#010001" class="color000000 svgShape"><polygon fill="#e6edf5" points="421.26 262.22 422.1 262.7 421.68 262.94 420.85 262.46 421.26 262.22" class="colore6eaf5 svgShape"></polygon><polygon fill="#e6edf5" points="419.86 261.41 420.69 261.89 420.27 262.13 419.44 261.65 419.86 261.41" class="colore6eaf5 svgShape"></polygon><polygon fill="#e6edf5" points="418.44 260.59 419.28 261.07 418.86 261.32 418.02 260.83 418.44 260.59" class="colore6eaf5 svgShape"></polygon><polygon fill="#e6edf5" points="417.03 259.78 417.87 260.26 417.45 260.5 416.61 260.02 417.03 259.78" class="colore6eaf5 svgShape"></polygon><polygon fill="#e6edf5" points="415.62 258.96 416.46 259.45 416.04 259.69 415.2 259.2 415.62 258.96" class="colore6eaf5 svgShape"></polygon><polygon fill="#e6edf5" points="414.21 258.15 415.05 258.63 414.63 258.87 413.79 258.39 414.21 258.15" class="colore6eaf5 svgShape"></polygon><polygon fill="#e6edf5" points="412.8 257.33 413.64 257.82 413.22 258.06 412.38 257.58 412.8 257.33" class="colore6eaf5 svgShape"></polygon><polygon fill="#e6edf5" points="411.39 256.52 412.23 257 411.81 257.25 410.97 256.76 411.39 256.52" class="colore6eaf5 svgShape"></polygon><polygon fill="#e6edf5" points="409.98 255.71 410.82 256.19 410.4 256.43 409.56 255.95 409.98 255.71" class="colore6eaf5 svgShape"></polygon><polygon fill="#e6edf5" points="408.57 254.89 409.41 255.38 408.99 255.62 408.15 255.13 408.57 254.89" class="colore6eaf5 svgShape"></polygon><polygon fill="#e6edf5" points="407.16 254.08 408 254.56 407.58 254.8 406.74 254.32 407.16 254.08" class="colore6eaf5 svgShape"></polygon><polygon fill="#e6edf5" points="405.75 253.26 406.59 253.75 406.17 253.99 405.33 253.5 405.75 253.26" class="colore6eaf5 svgShape"></polygon><polygon fill="#e6edf5" points="422.01 261.02 423.51 261.89 422.68 262.37 421.17 261.5 422.01 261.02" class="colore6eaf5 svgShape"></polygon><polygon fill="#e6edf5" points="422.79 259.91 424.87 261.11 424.03 261.59 421.95 260.39 422.79 259.91" class="colore6eaf5 svgShape"></polygon><polygon fill="#e6edf5" points="423.62 258.76 426.27 260.3 425.44 260.78 422.79 259.25 423.62 258.76" class="colore6eaf5 svgShape"></polygon><polygon fill="#e6edf5" points="426.48 258.44 427.98 259.31 426.85 259.96 425.34 259.1 426.48 258.44" class="colore6eaf5 svgShape"></polygon><polygon fill="#e6edf5" points="424.4 257.24 425.9 258.11 424.77 258.76 423.26 257.89 424.4 257.24" class="colore6eaf5 svgShape"></polygon><polygon fill="#e6edf5" points="422.32 256.04 423.82 256.91 422.69 257.56 421.19 256.69 422.32 256.04" class="colore6eaf5 svgShape"></polygon><polygon fill="#e6edf5" points="415.15 251.9 416.66 252.77 415.52 253.43 414.02 252.56 415.15 251.9" class="colore6eaf5 svgShape"></polygon><polygon fill="#e6edf5" points="411.63 249.87 414.58 251.57 413.45 252.23 410.5 250.52 411.63 249.87" class="colore6eaf5 svgShape"></polygon><polygon fill="#e6edf5" points="417.23 253.1 421.75 255.71 420.61 256.36 416.09 253.75 417.23 253.1" class="colore6eaf5 svgShape"></polygon><polygon fill="#e6edf5" points="420.2 259.98 421.43 260.69 420.6 261.17 419.37 260.46 420.2 259.98" class="colore6eaf5 svgShape"></polygon><polygon fill="#e6edf5" points="420.98 258.87 422.21 259.58 421.38 260.06 420.14 259.35 420.98 258.87" class="colore6eaf5 svgShape"></polygon><polygon fill="#e6edf5" points="421.78 257.74 423.01 258.45 422.17 258.94 420.94 258.23 421.78 257.74" class="colore6eaf5 svgShape"></polygon><polygon fill="#e6edf5" points="419.97 256.7 421.21 257.41 420.37 257.9 419.14 257.19 419.97 256.7" class="colore6eaf5 svgShape"></polygon><polygon fill="#e6edf5" points="418.17 255.66 419.4 256.37 418.56 256.85 417.33 256.14 418.17 255.66" class="colore6eaf5 svgShape"></polygon><polygon fill="#e6edf5" points="416.36 254.62 417.6 255.33 416.76 255.81 415.53 255.1 416.36 254.62" class="colore6eaf5 svgShape"></polygon><polygon fill="#e6edf5" points="414.56 253.57 415.79 254.29 414.95 254.77 413.72 254.06 414.56 253.57" class="colore6eaf5 svgShape"></polygon><polygon fill="#e6edf5" points="412.75 252.53 413.99 253.24 413.15 253.73 411.92 253.02 412.75 252.53" class="colore6eaf5 svgShape"></polygon><polygon fill="#e6edf5" points="409.88 250.88 412.18 252.2 411.34 252.69 409.05 251.36 409.88 250.88" class="colore6eaf5 svgShape"></polygon><polygon fill="#e6edf5" points="419.18 257.82 420.41 258.54 419.57 259.02 418.34 258.31 419.18 257.82" class="colore6eaf5 svgShape"></polygon><polygon fill="#e6edf5" points="417.37 256.78 418.6 257.49 417.76 257.98 416.53 257.27 417.37 256.78" class="colore6eaf5 svgShape"></polygon><polygon fill="#e6edf5" points="415.57 255.74 416.8 256.45 415.96 256.94 414.73 256.22 415.57 255.74" class="colore6eaf5 svgShape"></polygon><polygon fill="#e6edf5" points="413.76 254.7 414.99 255.41 414.16 255.89 412.92 255.18 413.76 254.7" class="colore6eaf5 svgShape"></polygon><polygon fill="#e6edf5" points="411.95 253.66 413.19 254.37 412.35 254.85 411.12 254.14 411.95 253.66" class="colore6eaf5 svgShape"></polygon><polygon fill="#e6edf5" points="408.51 251.67 411.38 253.32 410.55 253.81 407.68 252.15 408.51 251.67" class="colore6eaf5 svgShape"></polygon><polygon fill="#e6edf5" points="418.4 258.94 419.63 259.65 418.79 260.13 417.56 259.42 418.4 258.94" class="colore6eaf5 svgShape"></polygon><polygon fill="#e6edf5" points="416.59 257.89 417.82 258.61 416.99 259.09 415.75 258.38 416.59 257.89" class="colore6eaf5 svgShape"></polygon><polygon fill="#e6edf5" points="414.79 256.85 416.02 257.56 415.18 258.05 413.95 257.33 414.79 256.85" class="colore6eaf5 svgShape"></polygon><polygon fill="#e6edf5" points="412.98 255.81 414.21 256.52 413.38 257 412.14 256.29 412.98 255.81" class="colore6eaf5 svgShape"></polygon><polygon fill="#e6edf5" points="411.18 254.77 412.41 255.48 411.57 255.96 410.34 255.25 411.18 254.77" class="colore6eaf5 svgShape"></polygon><polygon fill="#e6edf5" points="409.37 253.72 410.6 254.44 409.77 254.92 408.54 254.21 409.37 253.72" class="colore6eaf5 svgShape"></polygon><polygon fill="#e6edf5" points="407.16 252.45 408.8 253.39 407.96 253.88 406.32 252.93 407.16 252.45" class="colore6eaf5 svgShape"></polygon></g><polygon fill="#453ead" points="406.36 254.54 419.89 262.35 419.49 262.58 405.95 254.77 406.36 254.54" class="color423ead svgShape"></polygon><polygon points="417.23 252.09 424.13 256.08 428.42 253.6 421.52 249.61 417.23 252.09" style="mix-blend-mode:multiply" fill="#e6edf5" class="colore6eaf5 svgShape"></polygon><path fill="url(#S)" d="M434,256.88l-11.67,6.74a1.1,1.1,0,0,1-.82.08l-.2-.08-17.12-9.88-.05,0h0l0,0h0l0,0h0a.05.05,0,0,1,0,0,.19.19,0,0,1,0-.12h0v.25h0a.37.37,0,0,0,.21.3l17.12,9.88a2.16,2.16,0,0,0,1.17.13l.51-.12,11-6.36a.32.32,0,0,0,.21-.3v-.64A.35.35,0,0,1,434,256.88Z"></path><path fill="#a7d0fa" d="M414.68,248.77c-1.3.7-4.1,1.12-4.92,1.84a3.19,3.19,0,0,0-.38,3.51c.61.68,1.31.65,1,0s-.26-1.92.71-2c1.88-.19-.49,1.89.4,1.91s1.18-1,2.19-1.82,1.7-1,2.65-1.83S414.68,248.77,414.68,248.77Z" class="colorfacfa7 svgShape"></path><path fill="#ff5ae1" d="M428.33,219.76c-5.47,4.87-4.3,17.07-4.78,17.73s-6,7.32-9.29,11.19c.22.77,2,2.24,2,2.24,1.89-1,8.86-6.16,10.31-8.77S428.33,219.76,428.33,219.76Z" class="colorff5a72 svgShape"></path><path fill="url(#T)" d="M443.39,222.75c-1.71-2.13-5.91-5.12-8.66-5.32-4.68-.35-8.38,3.52-9.34,6.75-.9,3,.17,19.78-.83,23.91.49,2.18,3.73,3.36,5.25,3.69,6.6,1.45,12.71,2.94,13.91-1.1C445.84,243.55,445.85,225.22,443.39,222.75Z"></path><path fill="#a7d0fa" d="M435.32,211.22c.17-1.52-5.07,1.57-4.86,3.57.17,1.63.65,3.06-1,4.08-.57.46-2.47,3.19.48,3.65,3.45.54,6.85-2.29,8.5-3.76C436.59,217.72,434.76,216.13,435.32,211.22Z" class="colorfacfa7 svgShape"></path><path fill="#a7d0fa" d="M436.55,210.32l-2.13-3h-9.26V212c0,3.86,2.08,6.51,4.63,6.51a5.07,5.07,0,0,0,4.91-5l1.12-.38Z" class="colorfacfa7 svgShape"></path><path fill="#9bc5f0" d="M430,220c2.21,0,4.95-3.56,4.69-6.49a5.33,5.33,0,0,1-4.72,5,3.62,3.62,0,0,1-.52.4,1.2,1.2,0,0,0-.15.16C429.31,219.48,429.6,220,430,220Z" class="colorf0c09b svgShape"></path><path fill="#a7d0fa" d="M424.3,252.47c-1.95,1.36-2.49.52-3.53,1a15,15,0,0,0-2.39,1.44c-.36.25.86.2,1.37,0a2.78,2.78,0,0,0-1.06,2.87c.25.67,1.93,1.3,2.32.93,1.62-1.56,1.33-2.18,3.55-2.76a6,6,0,0,0,1.92-1.37Z" class="colorfacfa7 svgShape"></path><path fill="url(#U)" d="M441,222.06c1.77-.31,3.29.52,3.62,3.53.53,4.91-3.5,15.12-5.15,17.76s-11.85,11.36-13.08,11.9c-.5-.71-2.28-2.84-2.37-3,1.26-1.42,9.41-11,10.4-13.61C435.82,234.81,435.41,223,441,222.06Z"></path><path fill="#342e91" d="M400,246l16.51,9.5a1.74,1.74,0,0,1,.65.64l4.26,7.22a.15.15,0,0,1-.21.21l-17.23-9.91a1,1,0,0,1-.33-.33l-4-6.76C399.32,246.05,399.53,245.74,400,246Z" class="color362e91 svgShape"></path><path fill="url(#V)" d="M421.37,263.34l-4.26-7.22a1.74,1.74,0,0,0-.65-.64L400,246c-.19-.11-.33-.1-.41,0h0a3.2,3.2,0,0,1,.23-.24h0c.08-.07.22-.08.4,0l16.51,9.5a1.81,1.81,0,0,1,.65.64l4.26,7.23a.13.13,0,0,1,0,.16h0l-.21.22A.16.16,0,0,0,421.37,263.34Z"></path><path fill="url(#W)" d="M427,209.65c-3.4,1.86-8.51-.67-3.36-3.84,4.78-2.95,8.54-3.68,11.24-.42,4.09,4.91,1.19,11.08.87,10.64-1.07-1.43,0-3.55-1.79-4,.11-1-.1-3.31-.9-1.64s-1.45-.66-1.84-1.59S429.68,208.19,427,209.65Z"></path><path fill="#e33cc5" d="M303.59,240.2l2.88,1.66v36.69l-17.78,10.27v-40C288.69,239.31,295.37,235.45,303.59,240.2Z" class="colore33c5c svgShape"></path><path fill="url(#X)" d="M401.09,313.7c0-11.73-8.26-26-18.41-31.9l-79.09-45.66c-4.57-2.64-8.76-3.12-12-1.78l16.17-9.4c3.37-2.31,8.22-2.19,13.6.91l79.08,45.67c10.16,5.86,18.42,20.16,18.42,31.89V341c0,5.67-4,12.57-8.9,15.4s-8.89.54-8.89-5.13V313.7Z"></path><path fill="#ff5ae1" d="M403.63,357h0l-3.4-2-.08,0h0c-1.57-.94-2.54-2.92-2.54-5.71l3.51,2C401.09,354.07,402.06,356,403.63,357Z" class="colorff5a72 svgShape"></path><path fill="#ff5ae1" d="M303.59,236.14l79.09,45.66c10.15,5.87,18.41,20.17,18.41,31.9v37.58l-3.51-2V311.67c0-9.49-6.68-21.07-14.9-25.81L303.59,240.2c-8.22-4.75-14.9-.89-14.9,8.6v40l-3.51,2V246.77C285.18,235.05,293.44,230.28,303.59,236.14Z" class="colorff5a72 svgShape"></path><path fill="#f4f6f8" d="M429.24 197.5c-1-1.78-1-3.7 0-4.29s2.69.37 3.72 2.14 1 3.7 0 4.29S430.26 199.28 429.24 197.5zM437 193.9a.86.86 0 01-.74-.42c-3-5.12-7.8-8.09-10.59-6.48a.86.86 0 01-1.16-.31.84.84 0 01.31-1.16c3.71-2.15 9.38 1 12.92 7.1a.86.86 0 01-.31 1.16A1 1 0 01437 193.9z" class="colorced3f8 svgShape"></path><path fill="#f4f6f8" d="M440.39,191.94a.84.84,0,0,1-.73-.42,26,26,0,0,0-9-9.51c-3.24-1.87-6.24-2.19-8.45-.92a.85.85,0,0,1-.85-1.47c2.76-1.59,6.36-1.27,10.15.92a27.6,27.6,0,0,1,9.61,10.13.86.86,0,0,1-.31,1.16A.84.84,0,0,1,440.39,191.94Z" class="colorced3f8 svgShape"></path><path fill="#f4f6f8" d="M443.81,190a.82.82,0,0,1-.73-.43c-6.78-11.74-17.68-18.19-24.28-14.37a.85.85,0,0,1-.85-1.48c7.42-4.28,19.35,2.45,26.6,15a.86.86,0,0,1-.31,1.16A.85.85,0,0,1,443.81,190Z" class="colorced3f8 svgShape"></path><path fill="#f4f6f8" d="M447.23,188a.85.85,0,0,1-.73-.42c-4.24-7.34-9.86-13.28-15.83-16.73s-11.26-3.93-15.29-1.6a.86.86,0,0,1-1.16-.31.84.84,0,0,1,.31-1.16c4.58-2.65,10.62-2.08,17,1.6s12.07,9.75,16.45,17.35a.84.84,0,0,1-.31,1.16A.81.81,0,0,1,447.23,188Z" class="colorced3f8 svgShape"></path><path fill="#ff5ae1" d="M290.79,136.44l5.8,3.35,5.8-10L325,116.68a9.29,9.29,0,0,0,4.2-7.28V69.69c0-2.68-1.88-3.77-4.2-2.43l-56.84,32.82a9.26,9.26,0,0,0-4.2,7.28v39.71c0,2.68,1.89,3.77,4.21,2.43Z" class="colorff5a72 svgShape"></path><path fill="url(#Y)" d="M264,147.07V107.36a9.26,9.26,0,0,1,4.2-7.28L325,67.26a2.94,2.94,0,0,1,3-.27h0l-1.83-1h0a3,3,0,0,0-2.9.33L266.42,99.07a9.31,9.31,0,0,0-4.2,7.28v39.72a3,3,0,0,0,1.19,2.69h0l0,0h0l1.75,1A2.94,2.94,0,0,1,264,147.07Z"></path><path fill="#a50b89" d="M275.06,114.62a9.46,9.46,0,0,0-4.61,7.71c0,2.81,1.73,3.81,4,2.48a6.74,6.74,0,0,0,2.85-3.18l.21-.13v1.79a5,5,0,0,1-2.59,4.37c-1.53.88-2.29.28-2.29-1.11l-2.1,1.21c0,2.79,1.74,3.57,4.39,2a9.19,9.19,0,0,0,4.66-7.87v-5.08C279.61,114,277.67,113.07,275.06,114.62Zm0,8c-1.5.87-2.52.32-2.52-1.45a5.2,5.2,0,0,1,2.52-4.37c1.46-.84,2.5-.34,2.5,1.47A5.16,5.16,0,0,1,275,122.59Zm10.35-13.94a9.48,9.48,0,0,0-4.61,7.72c0,2.8,1.73,3.8,4,2.47a6.65,6.65,0,0,0,2.84-3.18l.22-.13v1.79a5,5,0,0,1-2.59,4.37c-1.53.88-2.29.28-2.29-1.11l-2.11,1.21c0,2.79,1.75,3.57,4.4,2A9.19,9.19,0,0,0,290,116v-5.07C290,108,288,107.1,285.39,108.65Zm0,8c-1.5.86-2.53.31-2.53-1.46a5.22,5.22,0,0,1,2.53-4.37c1.45-.84,2.5-.34,2.5,1.47A5.2,5.2,0,0,1,285.38,116.63Zm11.81-8.36v-4c.9-.21,1.46.2,1.46,1.47v.52l2.07-1.2v-.68c0-2.46-1.46-3.19-3.53-2.41V99.72l-1.89,1.09V103a8.14,8.14,0,0,0-3.6,6.1v.12c0,2.37,1.31,2.7,3.6,2v4.49c-1.33.42-2-.27-2-1.93v-.38l-2.07,1.2v.48c0,3.08,1.55,4,4.09,2.92v2.18l1.89-1.09v-2.18a8.44,8.44,0,0,0,3.67-6.45v-.21C300.86,107.89,299.51,107.57,297.19,108.27Zm-1.89.59c-.92.22-1.5.09-1.5-1a3.77,3.77,0,0,1,1.5-2.65Zm1.89,5.75v-4c1-.21,1.57,0,1.57,1A4.13,4.13,0,0,1,297.19,114.61Z" class="colorc62c51 svgShape"></path><g style="mix-blend-mode:screen" fill="#010001" class="color000000 svgShape"><polygon fill="#6db6ff" points="322.06 96.76 304.91 106.67 304.91 108.92 322.06 99.02 322.06 96.76" class="colorffaf6d svgShape"></polygon><polygon fill="#6db6ff" points="322.06 91.61 304.91 101.51 304.91 103.77 322.06 93.86 322.06 91.61" class="colorffaf6d svgShape"></polygon><polygon fill="#6db6ff" points="318.6 88.46 304.91 96.36 304.91 98.61 318.6 90.71 318.6 88.46" class="colorffaf6d svgShape"></polygon><path fill="#6db6ff" d="M308.33 110.41c0 .75.53 1.06 1.18.68a2.6 2.6 0 001.18-2c0-.75-.53-1.06-1.18-.68A2.62 2.62 0 00308.33 110.41zM312.3 108.11c0 .76.53 1.06 1.19.69a2.63 2.63 0 001.18-2c0-.76-.53-1.06-1.18-.69A2.62 2.62 0 00312.3 108.11zM316.28 105.82c0 .75.53 1.06 1.18.68a2.6 2.6 0 001.19-2c0-.75-.53-1.06-1.19-.68A2.62 2.62 0 00316.28 105.82z" class="colorffaf6d svgShape"></path></g><path d="M249,268.22c-4.77,2.38-14.87,4.24-23.27,4.24-1.37,0-2.6,0-3.71-.15a5.67,5.67,0,0,1,1.47-1.14c4.41-2.55,15.14-4.61,24-4.61.55,0,1.05,0,1.55,0v-8.5a159.62,159.62,0,0,0-27.25,2.85l-35.92,6.91,12,6.91,0,0,5.71,3.3c6.34,3.66,26.32,3.81,45.45.45Z" style="mix-blend-mode:multiply" fill="url(#Z)"></path><path fill="url(#aa)" d="M195.11,236.36a7.69,7.69,0,0,0-.58-3.12c2.93-.32,5,1.79,5,5.67,0,5.09-3.57,11.29-8,13.83-3.36,1.94-6.22,1.21-7.4-1.49a7.74,7.74,0,0,0,3-1.05C191.54,247.65,195.11,241.45,195.11,236.36Z"></path><path fill="url(#ab)" d="M175.15,234.06c6.62-11.45,17.33-17.65,23.95-13.83l4.41,2.55c-6.61-3.82-17.33,2.38-23.94,13.83s-6.61,23.81,0,27.64l-4.4-2.54C168.54,257.89,168.54,245.51,175.15,234.06Z"></path><path fill="#453eaf" d="M179.57,264.26l12,6.91,12-20.74c6.62-11.45,6.62-23.83,0-27.65s-17.33,2.38-23.94,13.83S173,260.44,179.57,264.26Zm4-16.13c0-5.09,3.58-11.29,8-13.84s8-.48,8,4.62-3.57,11.29-8,13.83S183.55,253.23,183.55,248.13Z" class="color423eaf svgShape"></path><path d="M593.34,453.16v-6.7H605l22.62-13.06a9.3,9.3,0,0,1,8.41,0l34.39,19.85c2.32,1.34,2.32,3.52,0,4.86l-56.85,32.82a9.28,9.28,0,0,1-8.4,0l-34.39-19.86c-2.32-1.34-2.32-3.52,0-4.86Z" style="mix-blend-mode:multiply" fill="url(#ac)"></path><path fill="#847cfb" d="M590,451.14v-6.7h11.61l22.61-13.05a9.3,9.3,0,0,1,8.41,0l34.39,19.85c2.32,1.34,2.32,3.51,0,4.85l-56.84,32.82a9.3,9.3,0,0,1-8.41,0l-34.39-19.85c-2.32-1.34-2.32-3.52,0-4.86Z" class="color807cfb svgShape"></path><path fill="url(#ad)" d="M567.42,469.06l34.39,19.85a9.3,9.3,0,0,0,8.41,0l56.84-32.82a2.93,2.93,0,0,0,1.74-2.45h0v2.11h0a3,3,0,0,1-1.73,2.36l-56.84,32.82a9.33,9.33,0,0,1-8.41,0l-34.39-19.86a3,3,0,0,1-1.74-2.38h0v-.05h0v-2A3,3,0,0,0,567.42,469.06Z"></path><path fill="#453eaf" d="M598.63,477.1l-.26-.14c-1.42-.82-.76-1.67.66-3.06,2-1.93,2.32-3.49-.16-4.92a9.25,9.25,0,0,0-8.76.21c-2.58,1.49-3.18,3.63-.24,5.32l.44.26,2.1-1.22-.41-.23c-1.79-1-1.46-2.21,0-3.06a4.69,4.69,0,0,1,4.67-.09c1.57.91,1.14,2-.29,3.37-1.77,1.74-2.35,3.34.06,4.73l2,1.15,9.19-5.31-1.91-1.1Zm14.87-11.55a8.39,8.39,0,0,0-7.94-.18c-1.77,1-1.6,2-1.38,2.5L604,468l-3.73-2.15,6.48-3.74L604.8,461l-8.58,5,7,4,2.81-1.62c-.22-.4-.31-1,.78-1.68a4.78,4.78,0,0,1,4.66.12c1.69,1,1.79,2.17.16,3.11a5.23,5.23,0,0,1-5.27,0l-.24-.14L604,471l.38.22a9.42,9.42,0,0,0,9.17-.21C616.39,469.36,616.33,467.18,613.5,465.55Zm11.83-1.42c1.88-1.44,2.06-3.1-.07-4.34l-.19-.1c-2.08-1.2-4.41-1-7.33.06l-3.53-2a4.28,4.28,0,0,1,3.51.31l.46.27,2.09-1.21-.6-.35a8.69,8.69,0,0,0-7.48-.19l-2-1.13-1.92,1.11,1.92,1.1c-1.85,1.36-2.08,3-.13,4.14l.11.07c2.08,1.2,4.36,1,7.24,0l3.95,2.27a5.53,5.53,0,0,1-4.77-.39l-.33-.19-2.1,1.21.42.25a9.49,9.49,0,0,0,8.78.28l1.92,1.11,1.92-1.11Zm-13.05-3.57c-.79-.45-.77-1.14,0-1.78l3.15,1.82A3.66,3.66,0,0,1,612.28,460.56Zm11,2.4-3.46-2a4,4,0,0,1,3.26.05A1.09,1.09,0,0,1,623.3,463Z" class="color423eaf svgShape"></path><g style="mix-blend-mode:screen" fill="#010001" class="color000000 svgShape"><polygon fill="#6db6ff" points="640.23 444.62 623.08 454.52 621.13 453.39 638.28 443.49 640.23 444.62" class="colorffaf6d svgShape"></polygon><polygon fill="#6db6ff" points="644.7 447.19 627.54 457.1 625.59 455.97 642.74 446.07 644.7 447.19" class="colorffaf6d svgShape"></polygon><polygon fill="#6db6ff" points="645.69 451.77 632 459.67 630.05 458.55 643.74 450.64 645.69 451.77" class="colorffaf6d svgShape"></polygon><path fill="#6db6ff" d="M621.55 449.69a.72.72 0 010-1.37 2.59 2.59 0 012.36 0 .72.72 0 010 1.37A2.59 2.59 0 01621.55 449.69zM625.52 447.39a.72.72 0 010-1.36 2.61 2.61 0 012.37 0 .72.72 0 010 1.36A2.61 2.61 0 01625.52 447.39zM629.5 445.1a.73.73 0 010-1.37 2.59 2.59 0 012.36 0 .72.72 0 010 1.37A2.65 2.65 0 01629.5 445.1z" class="colorffaf6d svgShape"></path></g><path d="M271.56,511.86a14.51,14.51,0,0,1-13.06,0l-117.73-68c-3.58-2.06-3.57-5.46,0-7.53L205.57,399a14.48,14.48,0,0,1,13.06,0l117.72,68c3.59,2.07,3.57,5.46,0,7.54Z" style="mix-blend-mode:multiply" fill="url(#ae)"></path><path fill="#f4f6f8" d="M267.31,509.07a14.45,14.45,0,0,1-13.06,0l-117.73-68c-3.58-2.07-3.57-5.47,0-7.54l64.78-37.4a14.49,14.49,0,0,1,13,0l117.73,68c3.58,2.07,3.57,5.47,0,7.54Z" class="colorf6f6fb svgShape"></path><path fill="url(#af)" d="M332.09,471.67l-64.78,37.4a14.48,14.48,0,0,1-13.06,0l-117.72-68c-1.79-1-2.68-2.4-2.68-3.76v2.39c0,1.37.88,2.74,2.68,3.78l117.72,68a14.48,14.48,0,0,0,13.06,0l64.78-37.4c1.8-1,2.7-2.42,2.7-3.79v-2.38C334.78,469.28,333.88,470.64,332.09,471.67Z"></path><path fill="#5046e4" d="M201.28,401.2a14.47,14.47,0,0,1,13.1,0c3.62,2.09,3.61,5.47,0,7.57a14.47,14.47,0,0,1-13.1,0C197.65,406.68,197.65,403.29,201.28,401.2Z" class="color5652cc svgShape"></path><polygon fill="#5046e4" points="220.87 408.74 262.12 432.56 255.6 436.32 214.35 412.5 220.87 408.74" class="color5652cc svgShape"></polygon><polygon fill="#dfe9f4" points="177.83 424.04 200.84 437.33 192.67 442.05 169.65 428.77 177.83 424.04" class="colordfe4f4 svgShape"></polygon><polygon fill="#dfe9f4" points="205.49 440.01 228.5 453.3 220.32 458.02 197.31 444.73 205.49 440.01" class="colordfe4f4 svgShape"></polygon><polygon fill="#dfe9f4" points="233.15 455.98 256.17 469.27 247.99 473.99 224.97 460.7 233.15 455.98" class="colordfe4f4 svgShape"></polygon><polygon fill="#dfe9f4" points="260.81 471.95 283.82 485.24 275.64 489.96 252.63 476.67 260.81 471.95" class="colordfe4f4 svgShape"></polygon><polygon fill="#dfe9f4" points="141.97 438.48 184.11 462.8 188.91 460.03 146.78 435.7 141.97 438.48" class="colordfe4f4 svgShape"></polygon><polygon fill="#dfe9f4" points="152.44 432.43 222.38 472.81 217.59 475.58 147.65 435.2 152.44 432.43" class="colordfe4f4 svgShape"></polygon><polygon fill="#ffffff" points="240.85 483.47 270.38 500.52 259.92 506.56 230.38 489.52 240.85 483.47" class="colorffffff svgShape"></polygon><path fill="#6db6ff" d="M215.74,426.67c1.44-.84,1.44-2.19,0-3l-14.22-8.21a5.78,5.78,0,0,0-5.22,0l-11,6.32c-1.45.84-1.45,2.19,0,3L199.55,433a5.8,5.8,0,0,0,5.23,0Z" class="colorffaf6d svgShape"></path><polygon fill="#e33cc5" points="214.57 427.34 215.49 426.81 196.06 415.59 195.14 416.12 201.09 419.55 198.98 420.76 193.04 417.33 192.13 417.86 198.07 421.29 195.43 422.81 189.48 419.38 188.57 419.91 194.51 423.35 192.46 424.53 186.51 421.1 185.59 421.63 205.03 432.85 205.94 432.32 200 428.88 202.06 427.7 208 431.13 208.92 430.6 202.97 427.17 205.62 425.64 211.56 429.08 212.47 428.55 205.62 424.59 199.09 428.36 193.37 425.06 201.99 420.08 214.57 427.34" class="colore33c5c svgShape"></polygon><path fill="#ff6ae4" d="M316,470.75l-1.89-.15c-1.31,5.24-8.51,9.17-17.16,9.89l.26,1.1C306.73,480.8,314.6,476.49,316,470.75Zm-15.15-1.21c-.43,1.75-2.85,3.06-5.74,3.3l.26,1.09c3.72-.3,6.81-2,7.37-4.24Zm6.31.5-1.89-.15c-.43,1.71-2,3.22-4.37,4.27a16.68,16.68,0,0,1-5.17,1.24l.26,1.09a19.44,19.44,0,0,0,6.05-1.45C304.88,473.82,306.7,472,307.2,470Zm4.42.35-1.89-.14c-1,4.07-6.62,7.13-13.35,7.69l.26,1.09C304.19,478.4,310.47,475,311.62,470.39Z" class="colorff826a svgShape"></path><path d="M316,501.07c-7-4.05-16.38-5.92-25.56-5.65H276.05v2.36a38.5,38.5,0,0,0-7.62,3.29c-13.08,7.61-13,19.94.16,27.55a38.61,38.61,0,0,0,7.46,3.23v2.46H293.3c8.3-.13,16.53-2,22.84-5.69C329.23,521,329.16,508.68,316,501.07Z" style="mix-blend-mode:multiply" fill="url(#ag)"></path><path fill="#6eb6ff" d="M243.26,505.91c0-4.86,3.22-9.73,9.65-13.44s14.86-5.57,23.29-5.57,16.85,1.86,23.28,5.57,9.65,8.58,9.65,13.44-3.22,9.74-9.65,13.45-14.85,5.57-23.28,5.57-16.86-1.86-23.29-5.57S243.26,510.78,243.26,505.91Z" class="colorffd56e svgShape"></path><path fill="url(#h)" d="M299.48,519.36c-6.43,3.71-14.85,5.57-23.28,5.57s-16.86-1.86-23.29-5.57-9.65-8.58-9.65-13.45v9.39c0,4.87,3.22,9.73,9.65,13.45s14.86,5.56,23.29,5.56,16.85-1.85,23.28-5.56,9.65-8.58,9.65-13.45v-9.39C309.13,510.78,305.91,515.65,299.48,519.36Z"></path><path fill="#6db6ff" d="M257.29,516.83c5.22,3,12.06,4.53,18.91,4.53s13.69-1.51,18.91-4.53c4.82-2.78,7.41-6.36,7.78-10-.37-3.64-3-7.22-7.78-10-5.23-3-12.07-4.53-18.92-4.53s-13.68,1.51-18.91,4.53c-4.82,2.78-7.4,6.36-7.78,10C249.88,510.47,252.46,514.05,257.29,516.83Z" class="colorffaf6d svgShape"></path><path fill="url(#ah)" d="M257.28,496.83c5.23-3,12.07-4.53,18.91-4.53s13.69,1.51,18.92,4.53c4.82,2.78,7.41,6.36,7.78,10,0-.3.05-.61.05-.92,0-4-2.61-7.9-7.83-10.91s-12.07-4.53-18.92-4.53S262.51,492,257.28,495s-7.83,7-7.83,10.91c0,.31,0,.62.05.92C249.88,503.19,252.46,499.61,257.28,496.83Z"></path><polygon fill="#e33cc5" points="289.37 501.99 291.9 500.53 291.9 498.7 289.37 500.16 289.37 501.99" class="colore33c5c svgShape"></polygon><path fill="#6eb6ff" d="M277.7,505.05a2.16,2.16,0,0,1,0-4.08,7.78,7.78,0,0,1,7.06,0c2,1.12,2,2.95,0,4.08l3.21,1.84c3.16-1.82,3.62-4.62,1.4-6.73l2.53-1.46-3.2-1.85-2.53,1.46a15.12,15.12,0,0,0-11.67.81c-1.8,1-2.79,2.42-2.79,3.89s1,2.85,2.79,3.88,1.95,3,0,4.08a7.8,7.8,0,0,1-7.07,0c-1.94-1.12-1.94-3,0-4.08l-3.2-1.84c-3.16,1.82-3.62,4.62-1.4,6.73l-2.34,1.35L263.7,515l2.33-1.35a15.16,15.16,0,0,0,11.67-.8C281.42,510.68,281.42,507.19,277.7,505.05Z" class="colorffd56e svgShape"></path><polygon fill="#ff6ae4" points="260.49 514.96 263.7 516.81 263.7 514.98 260.49 513.13 260.49 514.96" class="colorff826a svgShape"></polygon><polygon fill="#e33cc5" points="263.7 516.81 266.03 515.46 266.03 513.63 263.7 514.98 263.7 516.81" class="colore33c5c svgShape"></polygon><polygon fill="#ff6ae4" points="284.76 506.88 287.97 508.73 287.97 506.89 284.76 505.05 284.76 506.88" class="colorff826a svgShape"></polygon><path fill="#e33cc5" d="M267.43,508.73v-1.84c-1.38.8-1.78,2-1.2,3A3.2,3.2,0,0,1,267.43,508.73Z" class="colore33c5c svgShape"></path><path fill="#ff6ae4" d="M261.45 508.84v2.06h0a3.41 3.41 0 00.39 1.44l1-.56a3.87 3.87 0 01-1.37-2.93zM274.5 508.73a3.2 3.2 0 011.2 1.12c.58-1 .18-2.16-1.2-3-1.8-1-2.79-2.41-2.79-3.88v1.83C271.71 506.31 272.7 507.69 274.5 508.73z" class="colorff826a svgShape"></path><path fill="#fb05ce" d="M280.49,508.93v0h0Z" class="colorfbba05 svgShape"></path><path fill="#e33cc5" d="M290.75,503c0,1.41-.92,2.82-2.78,3.89v1.84c1.91-1.1,2.82-2.56,2.77-4h0V503Z" class="colore33c5c svgShape"></path><path fill="url(#ai)" d="M277.7,512.83a15.16,15.16,0,0,1-11.67.8v1.83a15.12,15.12,0,0,0,11.67-.8c1.85-1.07,2.77-2.46,2.79-3.86h0V509C280.48,510.35,279.56,511.76,277.7,512.83Z"></path><path fill="#e33cc5" d="M284.76,501a7.78,7.78,0,0,0-7.06,0,2.48,2.48,0,0,0-1.46,2,1.8,1.8,0,0,0,.26.91,3.19,3.19,0,0,1,1.2-1.12,7.78,7.78,0,0,1,7.06,0,3.16,3.16,0,0,1,1.21,1.12C286.55,502.92,286.15,501.77,284.76,501Z" class="colore33c5c svgShape"></path><polygon points="690.66 328.38 629.87 328.38 688.61 365.1 636.62 395.11 697.41 395.11 749.39 365.1 690.66 328.38" style="mix-blend-mode:multiply" fill="url(#aj)"></polygon><polygon fill="#f1f3f6" points="636.59 289.66 688.61 319.69 636.62 349.71 584.6 319.68 636.59 289.66" class="colorf1f1f6 svgShape"></polygon><polygon fill="#f4f6f8" points="584.6 319.68 636.62 349.71 636.62 395.11 584.6 365.08 584.6 319.68" class="colorced3f8 svgShape"></polygon><polygon fill="#bbd0e6" points="636.62 349.71 688.61 319.69 688.61 365.1 636.62 395.11 636.62 349.71" class="colorbbc0e6 svgShape"></polygon><polygon fill="#ffffff" points="615.98 301.56 667.99 331.6 659.89 336.27 607.88 306.24 615.98 301.56" class="colorffffff svgShape"></polygon><polygon fill="#dfe9f4" points="667.99 331.6 667.99 337.62 659.89 342.29 659.89 336.27 667.99 331.6" class="colordfe4f4 svgShape"></polygon><polygon fill="#abc2da" points="593.57 359.11 596.12 357.64 598.66 362.05 597.98 362.44 596.6 360.06 596.6 366.86 595.63 366.3 595.63 359.5 594.26 360.3 593.57 359.11" class="colorabb2da svgShape"></polygon><polygon fill="#abc2da" points="586.79 355.19 589.33 353.72 591.88 358.13 591.19 358.52 589.82 356.14 589.82 362.94 588.85 362.38 588.85 355.59 587.48 356.38 586.79 355.19" class="colorabb2da svgShape"></polygon><polygon points="120.45 449.31 98.66 449.31 126.42 465.34 85.26 489.1 107.05 489.1 148.21 465.34 120.45 449.31" style="mix-blend-mode:multiply" fill="url(#ak)"></polygon><polygon points="573.8 463.7 573.81 463.7 573.8 463.7 523.35 435.89 464.48 435.89 513.8 464.36 514.94 463.7 465.63 492.18 524.49 492.18 573.8 463.7 573.8 463.7" style="mix-blend-mode:multiply" fill="url(#al)"></polygon><polygon points="483.66 495.76 483.66 495.76 483.66 495.76 445.89 474.95 401.83 474.95 438.74 496.25 439.6 495.76 402.69 517.07 446.75 517.07 483.66 495.76 483.66 495.76" style="mix-blend-mode:multiply" fill="url(#am)"></polygon><polygon fill="#f1f3f6" points="91.76 430.83 126.42 450.84 85.26 474.6 50.61 454.6 91.76 430.83" class="colorf1f1f6 svgShape"></polygon><polygon fill="#ff5ae1" points="92 457.74 77.15 466.31 86.25 471.57 101.1 463 92 457.74" class="colorff5a72 svgShape"></polygon><polygon fill="#ffffff" points="105.88 438.98 64.73 462.75 70.61 466.14 111.76 442.38 105.88 438.98" class="colorffffff svgShape"></polygon><polygon fill="#f4f6f8" points="50.61 454.6 85.26 474.61 85.26 489.1 50.61 469.09 50.61 454.6" class="colorced3f8 svgShape"></polygon><polygon fill="#bbd0e6" points="85.26 474.6 126.42 450.84 126.42 465.34 85.26 489.1 85.26 474.6" class="colorbbc0e6 svgShape"></polygon><polygon fill="#ffffff" points="87.22 466.89 93.48 463.27 91.46 462.11 85.2 465.73 87.22 466.89" class="colorffffff svgShape"></polygon><polygon fill="#dfe9f4" points="64.73 462.75 64.73 467.12 70.61 470.51 70.61 466.14 64.73 462.75" class="colordfe4f4 svgShape"></polygon><polygon fill="#abc2da" points="119.78 463.61 117.93 462.54 116.09 465.74 116.58 466.03 117.58 464.3 117.58 469.24 118.29 468.83 118.29 463.89 119.28 464.47 119.78 463.61" class="colorabb2da svgShape"></polygon><polygon fill="#abc2da" points="124.71 460.77 122.86 459.7 121.01 462.9 121.51 463.19 122.51 461.46 122.51 466.39 123.21 465.99 123.21 461.05 124.21 461.63 124.71 460.77" class="colorabb2da svgShape"></polygon><polygon points="633.64 398.17 562.18 398.17 607.12 424.1 540.51 462.57 611.96 462.57 678.57 424.1 633.64 398.17" style="mix-blend-mode:multiply" fill="url(#an)"></polygon><polygon fill="#f1f3f6" points="545.97 335.43 607.12 370.73 540.5 409.2 479.36 373.9 545.97 335.43" class="colorf1f1f6 svgShape"></polygon><polygon fill="#f4f6f8" points="479.36 373.9 540.51 409.2 540.5 462.57 479.36 427.27 479.36 373.9" class="colorced3f8 svgShape"></polygon><polygon fill="#bbd0e6" points="540.51 409.2 607.12 370.74 607.12 424.1 540.51 462.57 540.51 409.2" class="colorbbc0e6 svgShape"></polygon><polygon fill="#ffffff" points="516.24 352.6 577.38 387.91 567.87 393.4 506.72 358.1 516.24 352.6" class="colorffffff svgShape"></polygon><polygon fill="#dfe9f4" points="577.38 387.91 577.38 394.98 567.87 400.48 567.87 393.4 577.38 387.91" class="colordfe4f4 svgShape"></polygon><polygon fill="#abc2da" points="596.37 417.07 593.38 415.34 590.39 420.52 591.2 420.99 592.81 418.19 592.81 426.18 593.95 425.52 593.95 417.53 595.57 418.46 596.37 417.07" class="colorabb2da svgShape"></polygon><polygon fill="#abc2da" points="604.35 412.46 601.36 410.74 598.37 415.92 599.17 416.38 600.79 413.58 600.79 421.57 601.93 420.92 601.93 412.93 603.54 413.86 604.35 412.46" class="colorabb2da svgShape"></polygon><polygon fill="#bbd0e6" points="465.63 455.49 514.95 427.02 514.94 463.7 465.63 492.18 465.63 455.49" class="colorbbc0e6 svgShape"></polygon><polygon fill="#f1f3f6" points="466.78 399.21 514.95 427.02 465.63 455.49 417.47 427.68 466.78 399.21" class="colorf1f1f6 svgShape"></polygon><polygon fill="#f4f6f8" points="417.47 427.68 465.63 455.49 465.63 492.18 417.47 464.36 417.47 427.68" class="colorced3f8 svgShape"></polygon><polygon fill="#e33cc5" points="450.09 470.45 429.57 458.61 429.57 450.99 450.09 462.83 450.09 470.45" class="colore33c5c svgShape"></polygon><polygon fill="#ffffff" points="485.75 410.16 495.21 415.62 445.9 444.1 436.44 438.64 485.75 410.16" class="colorffffff svgShape"></polygon><polygon fill="#dfe9f4" points="436.44 438.64 445.9 444.1 445.9 454.77 436.44 449.31 436.44 438.64" class="colordfe4f4 svgShape"></polygon><polygon fill="#bbd0e6" points="402.69 489.62 439.6 468.31 439.6 495.76 402.69 517.07 402.69 489.62" class="colorbbc0e6 svgShape"></polygon><polygon fill="#f1f3f6" points="403.55 447.49 439.6 468.31 402.69 489.62 366.64 468.8 403.55 447.49" class="colorf1f1f6 svgShape"></polygon><polygon fill="#f4f6f8" points="366.64 468.8 402.69 489.62 402.69 517.07 366.64 496.25 366.64 468.8" class="colorced3f8 svgShape"></polygon><polygon fill="#5046e4" points="414.33 497.96 429.68 489.09 429.68 486.24 414.33 495.11 414.33 497.96" class="color5652cc svgShape"></polygon><polygon fill="#5046e4" points="414.33 503.25 423.86 497.74 423.86 494.89 414.33 500.4 414.33 503.25" class="color5652cc svgShape"></polygon><polygon fill="#ffffff" points="417.75 455.69 424.83 459.78 387.92 481.09 380.85 477 417.75 455.69" class="colorffffff svgShape"></polygon><polygon fill="#dfe9f4" points="380.85 477 387.93 481.09 387.92 489.07 380.85 484.99 380.85 477" class="colordfe4f4 svgShape"></polygon><polygon fill="#5046e4" points="562.84 413.92 546.2 423.53 546.2 411.6 562.84 401.99 562.84 413.92" class="color5652cc svgShape"></polygon><polygon fill="#5046e4" points="558.08 422.99 546.2 429.85 546.2 426.82 558.08 419.96 558.08 422.99" class="color5652cc svgShape"></polygon><polygon points="595.27 367.83 595.27 367.83 595.27 367.83 557.5 347.02 534.93 347.02 571.84 368.33 572.7 367.83 535.79 389.14 558.36 389.14 595.27 367.83 595.27 367.83" style="mix-blend-mode:multiply" fill="url(#ao)"></polygon><polygon fill="#bbd0e6" points="535.79 376.73 572.7 355.42 572.7 367.83 535.79 389.14 535.79 376.73" class="colorbbc0e6 svgShape"></polygon><polygon fill="#f1f3f6" points="536.65 334.61 572.7 355.42 535.79 376.73 499.74 355.91 536.65 334.61" class="colorf1f1f6 svgShape"></polygon><polygon fill="#f4f6f8" points="499.74 355.91 535.79 376.73 535.79 389.14 499.74 368.33 499.74 355.91" class="colorced3f8 svgShape"></polygon><polygon fill="#ffffff" points="550.85 342.8 557.93 346.89 521.02 368.2 513.94 364.12 550.85 342.8" class="colorffffff svgShape"></polygon><polygon fill="#dfe9f4" points="513.94 364.12 521.02 368.2 521.02 376.19 513.94 372.1 513.94 364.12" class="colordfe4f4 svgShape"></polygon><path d="M659.12,311.28c-4.64-2.68-10.81-3.91-16.86-3.73h-5.64v1.55a25.29,25.29,0,0,0-5,2.18c-8.64,5-8.59,13.16.1,18.18a25.37,25.37,0,0,0,4.92,2.13v1.63h7.53a31.61,31.61,0,0,0,15.07-3.76C667.86,324.44,667.82,316.3,659.12,311.28Z" style="mix-blend-mode:multiply" fill="url(#ap)"></path><path fill="url(#aq)" d="M621.92,329.46c-4.38-2.52-6.56-5.84-6.55-9.15v-4.24c0,3.31,2.18,6.63,6.56,9.16,8.69,5,22.74,5,31.38,0,4.29-2.5,6.44-5.76,6.45-9l0,4.24c0,3.27-2.16,6.53-6.45,9C644.66,334.49,630.61,334.49,621.92,329.46Z"></path><path fill="#ffffff" d="M621.94,325.23c-8.7-5-8.74-13.16-.11-18.18s22.69-5,31.39,0,8.73,13.16.1,18.18S630.63,330.25,621.94,325.23Z" class="colorffffff svgShape"></path><path d="M631.22,312.18a9.61,9.61,0,0,0,4.81-.84,2.74,2.74,0,0,0,1.44-2.77l6.9,4a5.72,5.72,0,0,1,2.09,8.42c-3.14.89-10.65,1.07-14.6-1.21l-6.89-4a9.61,9.61,0,0,0,4.81-.84A2.76,2.76,0,0,0,631.22,312.18Z" style="mix-blend-mode:multiply" fill="#dae7f5" class="colordae0f5 svgShape"></path><path d="M195.21,365.49a22.77,22.77,0,0,0-11.34-2.67H153.93a22.84,22.84,0,0,0-11.22,2.67c-6.17,3.57-6.21,9.35-.07,12.91a22.61,22.61,0,0,0,11.29,2.67h29.94a22.82,22.82,0,0,0,11.27-2.67C201.31,374.84,201.35,369.06,195.21,365.49Z" style="mix-blend-mode:multiply" fill="url(#ar)"></path><path fill="url(#j)" d="M164.92,355.42c3.11-1.79,4.66-4.15,4.66-6.5l0-5.75c0,2.35-1.54,4.71-4.65,6.5-6.17,3.57-16.15,3.57-22.29,0-3-1.77-4.57-4.09-4.58-6.41l0,5.75c0,2.32,1.53,4.64,4.58,6.41C148.77,359,158.75,359,164.92,355.42Z"></path><path fill="url(#k)" d="M164.92,361.16c3.11-1.79,4.66-4.15,4.66-6.5l0-5.74c0,2.35-1.54,4.7-4.65,6.5-6.17,3.56-16.15,3.56-22.29,0-3-1.77-4.57-4.09-4.58-6.41l0,5.75c0,2.32,1.53,4.63,4.58,6.41C148.77,364.73,158.75,364.73,164.92,361.16Z"></path><path fill="url(#as)" d="M164.92,366.91c3.11-1.79,4.66-4.15,4.66-6.5l0-5.75c0,2.35-1.54,4.71-4.65,6.5-6.17,3.57-16.15,3.57-22.29,0-3-1.77-4.57-4.08-4.58-6.4l0,5.74c0,2.32,1.53,4.64,4.58,6.41C148.77,370.48,158.75,370.48,164.92,366.91Z"></path><path fill="url(#at)" d="M164.92,372.66c3.11-1.8,4.66-4.15,4.66-6.5l0-5.75c0,2.35-1.54,4.7-4.65,6.5-6.17,3.57-16.15,3.57-22.29,0-3-1.77-4.57-4.09-4.58-6.41l0,5.75c0,2.32,1.53,4.64,4.58,6.41C148.77,376.22,158.75,376.22,164.92,372.66Z"></path><path fill="url(#au)" d="M164.92,378.4c3.11-1.79,4.66-4.15,4.66-6.5l0-5.75c0,2.36-1.54,4.71-4.65,6.5-6.17,3.57-16.15,3.57-22.29,0-3-1.78-4.57-4.09-4.58-6.41l0,5.74c0,2.32,1.53,4.64,4.58,6.41C148.77,382,158.75,382,164.92,378.4Z"></path><path fill="#eff1f3" d="M164.91,349.67c6.18-3.56,6.21-9.34.08-12.91s-16.12-3.56-22.29,0-6.21,9.35-.08,12.91S158.74,353.24,164.91,349.67Z" class="colorefeff3 svgShape"></path><polygon fill="#bdcdde" points="163.68 342.41 149.28 343.14 149.73 339.9 145.75 339.9 144.66 345.8 163.68 344.7 163.68 342.41" class="colorbdc2de svgShape"></polygon><path fill="url(#av)" d="M584.72,158.11c0,4-1.41,6.79-3.67,8.1l-2.91,1.66c2.27-1.3,3.67-4.11,3.67-8.1,0-7.93-5.55-17.55-12.39-21.47-3.41-2-6.49-2.14-8.73-.85l2.91-1.66c2.24-1.29,5.32-1.11,8.72.84C579.17,140.56,584.72,150.17,584.72,158.11Z"></path><path fill="#f4f6f8" d="M581.81,159.77c0,7.93-5.55,11.18-12.39,7.25S557,153.48,557,145.55s5.55-11.18,12.4-7.25S581.81,151.84,581.81,159.77Z" class="colorf6f6fb svgShape"></path><path fill="#f4f6f8" d="M573.34,152.26c0-1.83-2.73-4.41-2.73-6.51v-3.51c-1.83-1.06-3,4-1.52,6.59l-5.1-3c-.71-.4-1.28-.08-1.28.74a2.88,2.88,0,0,0,1.06,2.06v0l-.21-.12c-.7-.4-1.27-.08-1.27.74a2.84,2.84,0,0,0,1.27,2.21l.32.19c-.65-.31-1.17,0-1.17.79a2.82,2.82,0,0,0,1.28,2.21h0l.42.24c-.79-.45-1.27-.17-1.27.74a2.54,2.54,0,0,0,1.27,2.21l5.11,3c1.05.61,2.76,1.35,3.5.92l1.6-.43,1.42.82v-8.35Z" class="colorced3f8 svgShape"></path></g></g></g></svg>