<svg xmlns="http://www.w3.org/2000/svg" xmlns:xlink="http://www.w3.org/1999/xlink" viewBox="0 0 800 600" id="Onlineshoppingsaleatstore"><defs><linearGradient id="a" x1="136.11" x2="234.59" y1="255.97" y2="255.97" gradientUnits="userSpaceOnUse"><stop offset="0" stop-color="#c6d4e3" class="stopColorc6cae3 svgShape"></stop><stop offset=".19" stop-color="#d7e1eb" class="stopColord7daeb svgShape"></stop><stop offset=".58" stop-color="#f4f6f8" class="stopColorf4f5fa svgShape"></stop><stop offset=".8" stop-color="#ffffff" class="stopColorffffff svgShape"></stop></linearGradient><linearGradient id="j" x1="230.16" x2="382.5" y1="266.87" y2="266.87" xlink:href="#a"></linearGradient><linearGradient id="k" x1="241.88" x2="266.91" y1="190.76" y2="190.76" gradientUnits="userSpaceOnUse"><stop offset="0" stop-color="#c6d4e3" class="stopColorc6cae3 svgShape"></stop><stop offset=".18" stop-color="#d7e1eb" class="stopColord7daeb svgShape"></stop><stop offset=".47" stop-color="#edf1f6" class="stopColoredeef6 svgShape"></stop><stop offset=".75" stop-color="#fafbfd" class="stopColorfafbfd svgShape"></stop><stop offset="1" stop-color="#ffffff" class="stopColorffffff svgShape"></stop></linearGradient><linearGradient id="l" x1="236.02" x2="245.53" y1="181.39" y2="197.85" gradientUnits="userSpaceOnUse"><stop offset="0" stop-color="#ffffff" class="stopColorffffff svgShape"></stop><stop offset=".31" stop-color="#eff3f8" class="stopColoreff1f8 svgShape"></stop><stop offset=".9" stop-color="#c7d6e5" class="stopColorc7cbe5 svgShape"></stop><stop offset="1" stop-color="#bfd0e1" class="stopColorbfc4e1 svgShape"></stop></linearGradient><linearGradient id="m" x1="206.74" x2="218.13" y1="169.66" y2="189.38" gradientUnits="userSpaceOnUse"><stop offset="0" stop-color="#a7b8ca" class="stopColora7acca svgShape"></stop><stop offset=".39" stop-color="#b0c0d1" class="stopColorb0b4d1 svgShape"></stop><stop offset="1" stop-color="#c6d4e3" class="stopColorc6cae3 svgShape"></stop></linearGradient><linearGradient id="n" x1="231.85" x2="239.55" y1="186.29" y2="199.61" gradientUnits="userSpaceOnUse"><stop offset="0" stop-color="#a7b8ca" class="stopColora7acca svgShape"></stop><stop offset=".56" stop-color="#b7c8da" class="stopColorb7bbda svgShape"></stop><stop offset="1" stop-color="#bdcee0" class="stopColorbdc0e0 svgShape"></stop></linearGradient><linearGradient id="o" x1="213.11" x2="226.25" y1="164.28" y2="187.03" gradientUnits="userSpaceOnUse"><stop offset=".36" stop-color="#ffffff" class="stopColorffffff svgShape"></stop><stop offset=".56" stop-color="#f9fafc" class="stopColorf9fafc svgShape"></stop><stop offset=".83" stop-color="#e8eef5" class="stopColore8ebf5 svgShape"></stop><stop offset="1" stop-color="#dae4ef" class="stopColordadfef svgShape"></stop></linearGradient><linearGradient id="p" x1="173.31" x2="187.12" y1="262.88" y2="262.88" xlink:href="#a"></linearGradient><linearGradient id="q" x1="86.36" x2="218.7" y1="318.31" y2="318.31" gradientUnits="userSpaceOnUse"><stop offset="0" stop-color="#c6d4e3" class="stopColorc6cae3 svgShape"></stop><stop offset=".47" stop-color="#dee6ef" class="stopColordee1ef svgShape"></stop><stop offset="1" stop-color="#ffffff" class="stopColorffffff svgShape"></stop></linearGradient><linearGradient id="r" x1="88.02" x2="127.17" y1="337.78" y2="337.78" gradientUnits="userSpaceOnUse"><stop offset="0" stop-color="#5b3d56" class="stopColor3d3e5b svgShape"></stop><stop offset="1" stop-color="#6c4e67" class="stopColor4f4e6c svgShape"></stop></linearGradient><linearGradient id="s" x1="191.03" x2="730.23" y1="372.91" y2="372.91" gradientUnits="userSpaceOnUse"><stop offset="0" stop-color="#c6d4e3" class="stopColorc6cae3 svgShape"></stop><stop offset=".24" stop-color="#ccd9e6" class="stopColorcccfe6 svgShape"></stop><stop offset=".55" stop-color="#dce5ee" class="stopColordcdeee svgShape"></stop><stop offset=".9" stop-color="#f6f8fb" class="stopColorf6f7fb svgShape"></stop><stop offset="1" stop-color="#ffffff" class="stopColorffffff svgShape"></stop></linearGradient><linearGradient id="t" x1="426.79" x2="641.49" y1="4.66" y2="376.53" gradientUnits="userSpaceOnUse"><stop offset=".58" stop-color="#6f6d91" class="stopColor6d6d91 svgShape"></stop><stop offset=".61" stop-color="#5b3d56" class="stopColor3d3e5b svgShape"></stop></linearGradient><linearGradient id="u" x1="179.36" x2="615.77" y1="419.72" y2="419.72" gradientUnits="userSpaceOnUse"><stop offset=".56" stop-color="#62607d" class="stopColor61607d svgShape"></stop><stop offset=".61" stop-color="#5b3d56" class="stopColor3d3e5b svgShape"></stop></linearGradient><linearGradient id="v" x1="266.45" x2="382.5" y1="265.52" y2="265.52" xlink:href="#a"></linearGradient><linearGradient id="w" x1="523.97" x2="523.97" y1="357.06" y2="170.77" gradientUnits="userSpaceOnUse"><stop offset="0" stop-color="#c6d4e3" class="stopColorc6cae3 svgShape"></stop><stop offset=".28" stop-color="#e8eef4" class="stopColore8eaf4 svgShape"></stop><stop offset=".5" stop-color="#ffffff" class="stopColorffffff svgShape"></stop></linearGradient><linearGradient id="x" x1="414.96" x2="428.09" y1="242.69" y2="219.97" gradientUnits="userSpaceOnUse"><stop offset="0" stop-color="#d3e2f2" class="stopColord3d8f2 svgShape"></stop><stop offset=".63" stop-color="#f2f6fb" class="stopColorf2f4fb svgShape"></stop><stop offset="1" stop-color="#ffffff" class="stopColorffffff svgShape"></stop></linearGradient><linearGradient id="b" x1="392.6" x2="437.33" y1="181.53" y2="181.53" gradientUnits="userSpaceOnUse"><stop offset="0" stop-color="#6c4e67" class="stopColor4f4e6c svgShape"></stop><stop offset=".05" stop-color="#664a61" class="stopColor4b4a66 svgShape"></stop><stop offset=".49" stop-color="#2f222f" class="stopColor22222f svgShape"></stop><stop offset=".82" stop-color="#0d090d" class="stopColor09090d svgShape"></stop><stop offset="1"></stop></linearGradient><linearGradient id="y" x1="407.03" x2="437.33" y1="240.45" y2="240.45" xlink:href="#b"></linearGradient><linearGradient id="z" x1="594.01" x2="594.01" y1="275.41" y2="228.22" gradientUnits="userSpaceOnUse"><stop offset="0" stop-color="#eaf1f9" class="stopColoreaeef9 svgShape"></stop><stop offset=".49" stop-color="#dbe5f0" class="stopColordbdff0 svgShape"></stop><stop offset="1" stop-color="#c6d4e3" class="stopColorc6cae3 svgShape"></stop></linearGradient><linearGradient id="c" x1="145.31" x2="187.94" y1="411.77" y2="411.77" gradientUnits="userSpaceOnUse"><stop offset=".43" stop-color="#c6d6e7" class="stopColorc6cbe7 svgShape"></stop><stop offset=".57" stop-color="#d7e2ee" class="stopColord7dbee svgShape"></stop><stop offset=".84" stop-color="#f4f6f8" class="stopColorf4f5fa svgShape"></stop><stop offset="1" stop-color="#ffffff" class="stopColorffffff svgShape"></stop></linearGradient><linearGradient id="d" x1="135.29" x2="180.75" y1="415.93" y2="415.93" gradientUnits="userSpaceOnUse"><stop offset="0" stop-color="#dae4ef" class="stopColordadfef svgShape"></stop><stop offset=".55" stop-color="#c8d7e6" class="stopColorc8cde6 svgShape"></stop><stop offset="1" stop-color="#bfd0e1" class="stopColorbfc4e1 svgShape"></stop></linearGradient><linearGradient id="e" x1="669.92" x2="696.13" y1="373.75" y2="328.36" gradientTransform="matrix(-1 0 0 1 1372.75 0)" gradientUnits="userSpaceOnUse"><stop offset="0" stop-color="#bfd0e1" class="stopColorbfc4e1 svgShape"></stop><stop offset=".84" stop-color="#dde6ee" class="stopColordde0ee svgShape"></stop><stop offset="1" stop-color="#e3eaf1" class="stopColore3e6f1 svgShape"></stop></linearGradient><linearGradient id="A" x1="229.25" x2="271.88" y1="460.23" y2="460.23" xlink:href="#c"></linearGradient><linearGradient id="B" x1="219.23" x2="264.69" y1="464.39" y2="464.39" xlink:href="#d"></linearGradient><linearGradient id="C" x1="669.92" x2="696.13" y1="273.96" y2="228.57" xlink:href="#e"></linearGradient><linearGradient id="D" x1="862.43" x2="888.64" y1="85.93" y2="40.54" xlink:href="#e"></linearGradient><linearGradient id="E" x1="738.85" x2="765.06" y1="157.28" y2="111.89" xlink:href="#e"></linearGradient><linearGradient id="F" x1="303.99" x2="303.99" y1="144.83" y2="28.55" gradientUnits="userSpaceOnUse"><stop offset="0" stop-color="#a4d1ff" class="stopColorffd8a4 svgShape"></stop><stop offset=".11" stop-color="#b4d9ff" class="stopColorffdfb4 svgShape"></stop><stop offset=".41" stop-color="#ddeeff" class="stopColorfff0dd svgShape"></stop><stop offset=".65" stop-color="#f6faff" class="stopColorfffbf6 svgShape"></stop><stop offset=".8" stop-color="#ffffff" class="stopColorffffff svgShape"></stop></linearGradient><linearGradient id="G" x1="305.11" x2="327.32" y1="159.09" y2="120.62" gradientUnits="userSpaceOnUse"><stop offset="0" stop-color="#ed5ad2" class="stopColored995a svgShape"></stop><stop offset=".5" stop-color="#dc4cc2" class="stopColordc804c svgShape"></stop><stop offset=".8" stop-color="#d647bc" class="stopColord67747 svgShape"></stop></linearGradient><linearGradient id="H" x1="286.12" x2="314.47" y1="155.22" y2="106.12" gradientUnits="userSpaceOnUse"><stop offset="0" stop-color="#d647bc" class="stopColord67747 svgShape"></stop><stop offset=".41" stop-color="#e059c7" class="stopColore08d59 svgShape"></stop><stop offset="1" stop-color="#78b5f3" class="stopColorf3b378 svgShape"></stop></linearGradient><linearGradient id="I" x1="304.23" x2="310.32" y1="137.32" y2="126.77" gradientUnits="userSpaceOnUse"><stop offset="0" stop-color="#d647bc" class="stopColord67747 svgShape"></stop><stop offset=".62" stop-color="#e755cc" class="stopColore79055 svgShape"></stop><stop offset="1" stop-color="#ed5ad2" class="stopColored995a svgShape"></stop></linearGradient><linearGradient id="J" x1="351.43" x2="443.53" y1="525.52" y2="525.52" xlink:href="#a"></linearGradient><linearGradient id="K" x1="351.43" x2="351.43" y1="463.52" y2="472.66" gradientUnits="userSpaceOnUse"><stop offset="0" stop-color="#eaf1f9" class="stopColoreaeef9 svgShape"></stop><stop offset=".46" stop-color="#f6f9fc" class="stopColorf6f8fc svgShape"></stop><stop offset="1" stop-color="#ffffff" class="stopColorffffff svgShape"></stop></linearGradient><linearGradient id="L" x1="327.63" x2="344.54" y1="474.03" y2="474.03" gradientUnits="userSpaceOnUse"><stop offset="0" stop-color="#eaf1f9" class="stopColoreaeef9 svgShape"></stop><stop offset=".14" stop-color="#bfc5cb" class="stopColorbfc2cb svgShape"></stop><stop offset=".38" stop-color="#7d7c84" class="stopColor7c7e84 svgShape"></stop><stop offset=".59" stop-color="#4b474b" class="stopColor47484b svgShape"></stop><stop offset=".77" stop-color="#222022" class="stopColor202122 svgShape"></stop><stop offset=".91" stop-color="#090909" class="stopColor090909 svgShape"></stop><stop offset="1"></stop></linearGradient><linearGradient id="M" x1="793.37" x2="810.14" y1="483.59" y2="483.59" gradientTransform="matrix(-1 0 0 1 1168.6 0)" gradientUnits="userSpaceOnUse"><stop offset="0" stop-color="#eaf1f9" class="stopColoreaeef9 svgShape"></stop><stop offset=".03" stop-color="#e0e7ef" class="stopColore0e4ef svgShape"></stop><stop offset=".23" stop-color="#a2a8ae" class="stopColora2a6ae svgShape"></stop><stop offset=".43" stop-color="#786e76" class="stopColor6e7278 svgShape"></stop><stop offset=".61" stop-color="#4d464d" class="stopColor46494d svgShape"></stop><stop offset=".77" stop-color="#2f292f" class="stopColor292c2f svgShape"></stop><stop offset=".9" stop-color="#1d171d" class="stopColor171a1d svgShape"></stop><stop offset="1" stop-color="#161116" class="stopColor111416 svgShape"></stop></linearGradient><linearGradient id="N" x1="504.53" x2="716.51" y1="498.45" y2="498.45" gradientUnits="userSpaceOnUse"><stop offset="0" stop-color="#dae4ef" class="stopColordadfef svgShape"></stop><stop offset="1" stop-color="#ffffff" class="stopColorffffff svgShape"></stop></linearGradient><linearGradient id="O" x1="499.15" x2="546.71" y1="481.31" y2="481.31" gradientUnits="userSpaceOnUse"><stop offset="0" stop-color="#dae4ef" class="stopColordadfef svgShape"></stop><stop offset=".31" stop-color="#9a99a8" class="stopColor999da8 svgShape"></stop><stop offset="1"></stop></linearGradient><linearGradient id="f" x1="216.3" x2="257.72" y1="426.94" y2="426.94" gradientUnits="userSpaceOnUse"><stop offset="0" stop-color="#c6d6e7" class="stopColorc6cbe7 svgShape"></stop><stop offset=".08" stop-color="#cedcea" class="stopColorced2ea svgShape"></stop><stop offset=".4" stop-color="#e9eff6" class="stopColore9ebf6 svgShape"></stop><stop offset=".68" stop-color="#f9fbfd" class="stopColorf9fafd svgShape"></stop><stop offset=".9" stop-color="#ffffff" class="stopColorffffff svgShape"></stop></linearGradient><linearGradient id="P" x1="227.13" x2="268.56" y1="415.53" y2="415.53" xlink:href="#f"></linearGradient><linearGradient id="g" x1="996.82" x2="1005.96" y1="470.86" y2="465.96" gradientTransform="matrix(-.83 .56 .56 .83 793.71 -538.9)" gradientUnits="userSpaceOnUse"><stop offset="0" stop-color="#5b3d56" class="stopColor3d3e5b svgShape"></stop><stop offset=".58" stop-color="#4c497a" class="stopColor494c7a svgShape"></stop><stop offset="1" stop-color="#565293" class="stopColor525793 svgShape"></stop></linearGradient><linearGradient id="Q" x1="225.76" x2="246.37" y1="372.16" y2="372.16" gradientTransform="rotate(-7.56 354.161 520.57)" gradientUnits="userSpaceOnUse"><stop offset="0" stop-color="#6c4e67" class="stopColor4f4e6c svgShape"></stop><stop offset=".31" stop-color="#5a3e55" class="stopColor3e3e5a svgShape"></stop><stop offset=".7" stop-color="#4a2e4a" class="stopColor2e2f4a svgShape"></stop><stop offset="1" stop-color="#442844" class="stopColor282a44 svgShape"></stop></linearGradient><linearGradient id="R" x1="1087.4" x2="1095.69" y1="546.44" y2="541.99" gradientTransform="matrix(-.99 -.16 -.16 .99 1383.92 65.5)" xlink:href="#g"></linearGradient><linearGradient id="S" x1="214.85" x2="229.33" y1="393.49" y2="396.9" gradientUnits="userSpaceOnUse"><stop offset="0" stop-color="#62607d" class="stopColor61607d svgShape"></stop><stop offset=".45" stop-color="#62465d" class="stopColor464662 svgShape"></stop><stop offset="1" stop-color="#442844" class="stopColor282a44 svgShape"></stop></linearGradient><linearGradient id="T" x1="209.42" x2="231.85" y1="355.96" y2="355.96" gradientUnits="userSpaceOnUse"><stop offset="0" stop-color="#78b5f3" class="stopColorf3b378 svgShape"></stop><stop offset=".41" stop-color="#ec6cd5" class="stopColorec986c svgShape"></stop><stop offset="1" stop-color="#e25dca" class="stopColore2735d svgShape"></stop></linearGradient><linearGradient id="U" x1="398.37" x2="438.07" y1="450.69" y2="450.69" xlink:href="#f"></linearGradient><linearGradient id="V" x1="380.1" x2="419.8" y1="440.16" y2="440.16" xlink:href="#f"></linearGradient><linearGradient id="h" x1="849.32" x2="863.95" y1="438.76" y2="438.76" gradientTransform="matrix(-1 0 0 1 1239.85 0)" gradientUnits="userSpaceOnUse"><stop offset="0" stop-color="#442844" class="stopColor282a44 svgShape"></stop><stop offset=".29" stop-color="#4c2f4c" class="stopColor2f314c svgShape"></stop><stop offset="1" stop-color="#5b3d56" class="stopColor3d3e5b svgShape"></stop></linearGradient><linearGradient id="W" x1="831.22" x2="845.86" y1="449.3" y2="449.3" xlink:href="#h"></linearGradient><linearGradient id="X" x1="837.58" x2="862.73" y1="414.33" y2="414.33" gradientTransform="matrix(-1 0 0 1 1239.85 0)" gradientUnits="userSpaceOnUse"><stop offset="0" stop-color="#5b3d56" class="stopColor3d3e5b svgShape"></stop><stop offset=".32" stop-color="#62445d" class="stopColor444462 svgShape"></stop><stop offset="1" stop-color="#6c4e67" class="stopColor4f4e6c svgShape"></stop></linearGradient><linearGradient id="i" x1="382.08" x2="372.11" y1="363.71" y2="360.5" gradientUnits="userSpaceOnUse"><stop offset="0" stop-color="#dae4ef" class="stopColordadfef svgShape"></stop><stop offset=".27" stop-color="#e9eff5" class="stopColore9ecf5 svgShape"></stop><stop offset=".68" stop-color="#f9fafc" class="stopColorf9fafc svgShape"></stop><stop offset="1" stop-color="#ffffff" class="stopColorffffff svgShape"></stop></linearGradient><linearGradient id="Y" x1="836.6" x2="862.88" y1="369.18" y2="369.18" gradientTransform="matrix(-1 0 0 1 1239.85 0)" xlink:href="#i"></linearGradient><linearGradient id="Z" x1="414.64" x2="391.31" y1="378.5" y2="370.29" gradientUnits="userSpaceOnUse"><stop offset="0" stop-color="#bfd0e1" class="stopColorbfc4e1 svgShape"></stop><stop offset=".38" stop-color="#c4d4e4" class="stopColorc4c9e4 svgShape"></stop><stop offset=".83" stop-color="#d3dfeb" class="stopColord3d8eb svgShape"></stop><stop offset="1" stop-color="#dae4ef" class="stopColordadfef svgShape"></stop></linearGradient></defs><g style="isolation:isolate" fill="#010001" class="color000000 svgShape"><g fill="#010001" class="color000000 svgShape"><g fill="#010001" class="color000000 svgShape"><polygon points="193.3 223.59 165.69 223.59 206.98 247.43 206.98 247.43 136.11 288.35 163.73 288.35 234.59 247.43 193.3 223.59" style="mix-blend-mode:multiply" fill="url(#a)"></polygon><polygon fill="#f4f6f8" points="136.11 272.4 94.82 248.56 165.69 207.65 206.98 231.49 136.11 272.4" class="color61607d svgShape"></polygon><polygon fill="#78b5f3" points="189.59 221.45 196.1 225.21 125.23 266.12 118.72 262.36 189.59 221.45" class="colorf3b378 svgShape"></polygon><polygon fill="#79b8f7" points="160.01 258.6 153.5 262.36 112.21 238.53 118.72 234.77 160.01 258.6" class="colorf7c479 svgShape"></polygon><polygon fill="#5b3d56" points="136.11 288.35 206.98 247.43 206.98 231.49 136.11 272.4 136.11 288.35" class="color3d3e5b svgShape"></polygon><polygon fill="#ed5ad2" points="153.5 262.36 160.01 258.6 160.01 274.55 153.5 278.31 153.5 262.36" class="colored995a svgShape"></polygon><polygon fill="#a50b89" points="136.11 288.35 94.82 264.51 94.82 248.56 136.11 272.4 136.11 288.35" class="color4f4e6c svgShape"></polygon><polygon fill="#ed5ad2" points="125.23 266.12 118.72 262.36 118.72 278.31 125.23 282.07 125.23 266.12" class="colored995a svgShape"></polygon><polygon points="325.65 234.04 230.16 234.04 287.01 266.87 230.16 299.69 325.65 299.69 382.5 266.87 325.65 234.04" style="mix-blend-mode:multiply" fill="url(#j)"></polygon><polygon fill="#78b5f3" points="230.16 220.62 170.28 186.05 230.16 151.47 290.05 186.05 230.16 220.62" class="colorf3b378 svgShape"></polygon><polygon fill="#ebf0f6" points="255.62 166.17 264.59 171.35 204.7 205.92 195.74 200.75 255.62 166.17" class="colorebeef6 svgShape"></polygon><polygon fill="#ebf0f6" points="264.59 200.75 255.62 205.92 195.74 171.35 204.7 166.17 264.59 200.75" class="colorebeef6 svgShape"></polygon><polygon fill="#d647bc" points="230.16 299.69 287.01 266.87 287.01 204.75 230.16 237.58 230.16 299.69" class="colord67747 svgShape"></polygon><polygon fill="#bfd0e1" points="254.1 223.75 263.07 218.58 263.07 280.69 254.1 285.87 254.1 223.75" class="colorbfc4e1 svgShape"></polygon><polygon points="287.01 209.1 230.16 241.92 230.16 239.33 287.01 206.51 287.01 209.1" style="mix-blend-mode:multiply" fill="#eaf1f9" class="coloreaeef9 svgShape"></polygon><polygon fill="#d647bc" points="230.16 239.33 290.05 204.75 290.05 186.05 230.16 220.62 230.16 239.33" class="colord67747 svgShape"></polygon><polygon fill="#bfd0e1" points="255.62 205.92 264.59 200.75 264.59 219.45 255.62 224.63 255.62 205.92" class="colorbfc4e1 svgShape"></polygon><polygon fill="#ed5ad2" points="230.16 299.69 173.31 266.87 173.31 204.75 230.16 237.58 230.16 299.69" class="colored995a svgShape"></polygon><polygon fill="#dae4ef" points="206.22 223.75 197.25 218.58 197.25 280.69 206.22 285.87 206.22 223.75" class="colordadfef svgShape"></polygon><polygon points="173.31 209.1 230.16 241.92 230.16 239.33 173.31 206.51 173.31 209.1" style="mix-blend-mode:multiply" fill="#eaf1f9" class="coloreaeef9 svgShape"></polygon><polygon fill="#ed5ad2" points="230.16 239.33 170.28 204.75 170.28 186.05 230.16 220.62 230.16 239.33" class="colored995a svgShape"></polygon><polygon fill="#dae4ef" points="204.7 205.92 195.74 200.75 195.74 219.45 204.7 224.63 204.7 205.92" class="colordadfef svgShape"></polygon><path d="M264.81,184.74l-.09-.11h0c-1.25-1.55-2.71-2.51-3.84-2.49-7.93.12-13.54.33-14.73.38h0l-4.24,16.89h13l0,0,2.17-1.25,3-1.72h0l5.48-3.16h0c.83-.48,1.43-1.49,1.43-3.23A9.24,9.24,0,0,0,264.81,184.74Z" style="mix-blend-mode:multiply" fill="url(#k)"></path><path fill="url(#l)" d="M253.53,184.31l-.09-.1v0h0c-1.26-1.56-2.72-2.52-3.84-2.5-7.93.12-13.54.33-14.73.38h0l-10.77,6.22c1.19,0,6.8-.25,14.73-.38,1.16,0,2.67,1,3.95,2.62a9.17,9.17,0,0,1,2.1,5.3,3.54,3.54,0,0,1-1.28,3.15l10.62-6.13h0c.83-.48,1.43-1.49,1.43-3.23A9.24,9.24,0,0,0,253.53,184.31Z"></path><path fill="#dae4ef" d="M242.75,190.53c-1.28-1.63-2.79-2.64-3.95-2.62-7.93.13-13.54.33-14.73.38-1.19-1.42-6.81-8.11-14.73-17.39a4.81,4.81,0,0,0-4-1.94c-1.31.17-2.1,1.24-2.1,2.87a11,11,0,0,0,4.73,8.48l32.11,18.53c2,1.15,4.73.74,4.73-3A9.17,9.17,0,0,0,242.75,190.53Z" class="colordadfef svgShape"></path><path fill="url(#m)" d="M208,179.1a8.62,8.62,0,0,1-3.68-6.67,1.9,1.9,0,0,1,1.6-2.13,3.52,3.52,0,0,1,2.93,1.39c6,7,10.69,12.58,13.12,15.47Z"></path><path fill="url(#n)" d="M240.12,197.64l-14-8.06c2.43-.09,7.11-.23,13.12-.32a4.38,4.38,0,0,1,2.93,2,7,7,0,0,1,1.6,4C243.81,198.44,241.41,198.38,240.12,197.64Z"></path><path fill="url(#o)" d="M205.38,169a4.81,4.81,0,0,1,4,1.94c7.92,9.28,13.54,16,14.73,17.39l9.66-5.58,1.12-.64h0c-1.19-1.42-6.81-8.12-14.73-17.39a4.78,4.78,0,0,0-4-1.94,2.25,2.25,0,0,0-1.09.44h0l-10.55,6.07A2.3,2.3,0,0,1,205.38,169Z"></path><polygon points="173.31 250.92 187.12 274.84 173.31 266.87 173.31 250.92" style="mix-blend-mode:multiply" fill="url(#p)"></polygon><path d="M213,305.35h0c-10.38,1.67-22,.15-30.13-4.56S172.1,289.39,175,283.4l-5.7-3.29L86.36,328,88,331.28s13.93-7.43,34.16,4.56c8.11,4.8,10.79,11.4,7.89,17.39l1.66,3.29h4l82.93-47.89Z" style="mix-blend-mode:multiply" fill="url(#q)"></path><path fill="#5046e4" d="M171,283.4v-2.33a10.9,10.9,0,0,0-1.06,6A11.32,11.32,0,0,1,171,283.4Z" class="color4141aa svgShape"></path><path fill="url(#r)" d="M118.15,333.51C110,328.8,98.4,327.28,88,329h0v2.33c10.37-1.67,22-.15,30.12,4.56,5.52,3.18,8.5,7.27,9,11.43C127.66,342.33,124.69,337.28,118.15,333.51Z"></path><path fill="#f4f6f8" d="M178.85,298.46c-8.16-4.71-10.79-11.4-7.9-17.39l-5.69-3.29L82.33,325.66,88,329c10.38-1.67,22-.15,30.13,4.56s10.78,11.4,7.89,17.39l5.69,3.29,82.94-47.88L209,303C198.6,304.69,187,303.17,178.85,298.46Z" class="color61607d svgShape"></path><polygon fill="#ffffff" points="147.04 292.15 148.55 291.27 145.22 289.35 143.71 290.22 147.04 292.15" class="colorffffff svgShape"></polygon><polygon fill="#ffffff" points="152.79 295.47 154.31 294.6 150.98 292.68 149.47 293.55 152.79 295.47" class="colorffffff svgShape"></polygon><polygon fill="#ffffff" points="158.56 298.8 160.07 297.92 156.74 296 155.23 296.87 158.56 298.8" class="colorffffff svgShape"></polygon><polygon fill="#ffffff" points="164.32 302.12 165.83 301.25 162.5 299.33 160.99 300.2 164.32 302.12" class="colorffffff svgShape"></polygon><polygon fill="#ffffff" points="170.08 305.45 171.59 304.57 168.26 302.65 166.75 303.53 170.08 305.45" class="colorffffff svgShape"></polygon><polygon fill="#ffffff" points="175.84 308.77 177.35 307.9 174.02 305.98 172.51 306.85 175.84 308.77" class="colorffffff svgShape"></polygon><polygon fill="#ffffff" points="181.59 312.1 183.11 311.23 179.78 309.3 178.27 310.18 181.59 312.1" class="colorffffff svgShape"></polygon><polygon fill="#ffffff" points="187.36 315.43 188.87 314.55 185.54 312.63 184.03 313.5 187.36 315.43" class="colorffffff svgShape"></polygon><polygon fill="#ffffff" points="193.12 318.75 194.63 317.88 191.3 315.95 189.79 316.83 193.12 318.75" class="colorffffff svgShape"></polygon><polygon fill="#ed5ad2" points="135.18 304.33 147.62 297.14 143.71 294.88 131.26 302.07 135.18 304.33" class="colored995a svgShape"></polygon><polygon fill="#ed5ad2" points="126.76 309.19 132.8 305.7 128.88 303.44 122.85 306.93 126.76 309.19" class="colored995a svgShape"></polygon><polygon fill="#ed5ad2" points="120.29 312.92 123.93 310.82 120.01 308.56 116.37 310.66 120.29 312.92" class="colored995a svgShape"></polygon><polygon fill="#ed5ad2" points="113.42 316.89 117.06 314.79 113.14 312.53 109.5 314.63 113.42 316.89" class="colored995a svgShape"></polygon><path fill="#ffffff" d="M135.86,315.92a11.29,11.29,0,0,0-10.25,0c-2.83,1.63-2.83,4.28,0,5.91a11.29,11.29,0,0,0,10.25,0C138.68,320.2,138.68,317.55,135.86,315.92Zm-8.33,4.81c-1.77-1-1.77-2.69,0-3.71a7.12,7.12,0,0,1,6.42,0c1.77,1,1.77,2.69,0,3.71A7.1,7.1,0,0,1,127.53,320.73Zm23.3-4.81c-2.83,1.63-2.83,4.28,0,5.91a11.32,11.32,0,0,0,10.25,0c2.82-1.63,2.82-4.28,0-5.91A11.29,11.29,0,0,0,150.83,315.92Zm8.33,4.81a7.1,7.1,0,0,1-6.41,0c-1.77-1-1.77-2.68,0-3.71a7.1,7.1,0,0,1,6.41,0C160.93,318,160.93,319.71,159.16,320.73ZM142,309.8V328h2.72V309.8Z" class="colorffffff svgShape"></path><polygon fill="#5b3d56" points="193.12 318.75 131.73 354.19 131.73 356.52 193.12 321.08 193.12 318.75" class="color3d3e5b svgShape"></polygon><polygon fill="#a50b89" points="131.73 354.19 126.04 350.9 126.04 353.23 131.73 356.52 131.73 354.19" class="color4f4e6c svgShape"></polygon><polygon fill="#a50b89" points="88.02 328.95 82.33 325.66 82.33 327.99 88.02 331.28 88.02 328.95" class="color4f4e6c svgShape"></polygon><polygon fill="#5b3d56" points="214.67 306.31 194.63 317.88 194.63 320.21 214.67 308.63 214.67 306.31" class="color3d3e5b svgShape"></polygon><path d="M730.23,255.49l-13.57-7.84c-4-2.34-14-4.25-22.07-4.25H371.69c-8.1,0-177.62,106.07-177.62,106.07-4,2.33-4,6.16,0,8.49l247.16,142.7a15,15,0,0,0,7.41,1.75h6.42L629.07,402l7.18-4.14h94Z" style="mix-blend-mode:multiply" fill="url(#s)"></path><path fill="#a50b89" d="M619.23,385.87c0,4.68-3.31,6.59-7.35,4.25L364.71,247.42a16.34,16.34,0,0,1-7.35-12.74V48.25c0-4.67,3.31-6.58,7.35-4.25L611.88,186.7a16.34,16.34,0,0,1,7.35,12.75Z" class="color4f4e6c svgShape"></path><path fill="url(#t)" d="M617.43,183.5,370.27,40.8c-2-1.19-3.91-1.28-5.25-.47h0l-5.29,3.07h0c1.31-.64,3.05-.49,5,.61L611.88,186.7a16.34,16.34,0,0,1,7.35,12.75V385.87c0,2.32-.81,4-2.13,4.74h0l5.29-3.07h0c1.48-.7,2.42-2.39,2.42-4.87V196.24A16.3,16.3,0,0,0,617.43,183.5Z"></path><polygon fill="#ffffff" points="611.88 378.7 364.71 236 364.71 52.5 611.88 195.2 611.88 378.7" class="colorffffff svgShape"></polygon><path fill="#ebf0f6" d="M444.27,490.12a16.35,16.35,0,0,1-14.71,0L182.39,347.42c-4-2.34-4-6.16,0-8.5l168.47-97.27a16.37,16.37,0,0,1,14.72,0L612.74,384.36c4,2.33,4,6.15,0,8.49Z" class="colorebeef6 svgShape"></path><polygon fill="#dae4ef" points="365.84 261.89 353.75 254.91 359.79 251.42 371.88 258.4 365.84 261.89" class="colordadfef svgShape"></polygon><polygon fill="#dae4ef" points="386.2 273.65 374.11 266.67 380.15 263.18 392.24 270.15 386.2 273.65" class="colordadfef svgShape"></polygon><polygon fill="#dae4ef" points="406.55 285.4 394.47 278.42 400.51 274.93 412.6 281.91 406.55 285.4" class="colordadfef svgShape"></polygon><polygon fill="#dae4ef" points="426.91 297.15 414.82 290.18 420.87 286.69 432.95 293.67 426.91 297.15" class="colordadfef svgShape"></polygon><polygon fill="#dae4ef" points="447.27 308.91 435.18 301.93 441.23 298.44 453.31 305.42 447.27 308.91" class="colordadfef svgShape"></polygon><polygon fill="#dae4ef" points="467.63 320.66 455.54 313.68 461.58 310.19 473.67 317.17 467.63 320.66" class="colordadfef svgShape"></polygon><polygon fill="#dae4ef" points="487.99 332.42 475.9 325.44 481.94 321.95 494.03 328.93 487.99 332.42" class="colordadfef svgShape"></polygon><polygon fill="#dae4ef" points="508.35 344.17 496.26 337.19 502.3 333.7 514.39 340.68 508.35 344.17" class="colordadfef svgShape"></polygon><polygon fill="#dae4ef" points="528.7 355.92 516.62 348.94 522.66 345.45 534.75 352.43 528.7 355.92" class="colordadfef svgShape"></polygon><polygon fill="#dae4ef" points="549.06 367.68 536.97 360.7 543.02 357.21 555.11 364.19 549.06 367.68" class="colordadfef svgShape"></polygon><polygon fill="#dae4ef" points="569.42 379.43 557.33 372.45 563.38 368.96 575.47 375.94 569.42 379.43" class="colordadfef svgShape"></polygon><polygon fill="#dae4ef" points="589.78 391.19 577.69 384.2 583.74 380.72 595.82 387.7 589.78 391.19" class="colordadfef svgShape"></polygon><polygon fill="#dae4ef" points="355.12 279.21 333.39 266.67 345.48 259.69 367.21 272.24 355.12 279.21" class="colordadfef svgShape"></polygon><polygon fill="#dae4ef" points="343.88 295.25 313.88 277.93 325.97 270.95 355.97 288.28 343.88 295.25" class="colordadfef svgShape"></polygon><polygon fill="#dae4ef" points="331.79 311.78 293.52 289.69 305.61 282.71 343.88 304.81 331.79 311.78" class="colordadfef svgShape"></polygon><polygon fill="#dae4ef" points="290.62 316.46 268.88 303.91 285.25 294.46 306.98 307.01 290.62 316.46" class="colordadfef svgShape"></polygon><polygon fill="#dae4ef" points="320.62 333.78 298.89 321.23 315.25 311.78 336.98 324.33 320.62 333.78" class="colordadfef svgShape"></polygon><polygon fill="#dae4ef" points="350.62 351.1 328.89 338.56 345.25 329.11 366.99 341.65 350.62 351.1" class="colordadfef svgShape"></polygon><polygon fill="#dae4ef" points="454.07 410.83 432.34 398.28 448.7 388.83 470.44 401.38 454.07 410.83" class="colordadfef svgShape"></polygon><polygon fill="#dae4ef" points="504.91 440.18 462.29 415.57 478.65 406.12 521.28 430.73 504.91 440.18" class="colordadfef svgShape"></polygon><polygon fill="#dae4ef" points="424.12 393.53 358.89 355.88 375.26 346.43 440.48 384.09 424.12 393.53" class="colordadfef svgShape"></polygon><polygon fill="#dae4ef" points="381.18 294.26 363.39 283.99 375.48 277.01 393.27 287.28 381.18 294.26" class="colordadfef svgShape"></polygon><polygon fill="#dae4ef" points="369.94 310.3 352.15 300.03 364.24 293.05 382.02 303.32 369.94 310.3" class="colordadfef svgShape"></polygon><polygon fill="#dae4ef" points="358.41 326.5 340.62 316.24 352.71 309.26 370.49 319.53 358.41 326.5" class="colordadfef svgShape"></polygon><polygon fill="#dae4ef" points="384.46 341.55 366.68 331.28 378.76 324.3 396.55 334.57 384.46 341.55" class="colordadfef svgShape"></polygon><polygon fill="#dae4ef" points="410.51 356.59 392.73 346.32 404.82 339.35 422.6 349.61 410.51 356.59" class="colordadfef svgShape"></polygon><polygon fill="#dae4ef" points="436.57 371.63 418.79 361.37 430.87 354.39 448.66 364.65 436.57 371.63" class="colordadfef svgShape"></polygon><polygon fill="#dae4ef" points="462.63 386.68 444.84 376.41 456.93 369.43 474.71 379.7 462.63 386.68" class="colordadfef svgShape"></polygon><polygon fill="#dae4ef" points="488.68 401.72 470.9 391.45 482.98 384.47 500.77 394.74 488.68 401.72" class="colordadfef svgShape"></polygon><polygon fill="#dae4ef" points="530.11 425.64 496.95 406.5 509.04 399.52 542.19 418.66 530.11 425.64" class="colordadfef svgShape"></polygon><polygon fill="#dae4ef" points="395.99 325.34 378.21 315.07 390.3 308.09 408.08 318.36 395.99 325.34" class="colordadfef svgShape"></polygon><polygon fill="#dae4ef" points="422.05 340.38 404.26 330.12 416.35 323.14 434.13 333.4 422.05 340.38" class="colordadfef svgShape"></polygon><polygon fill="#dae4ef" points="448.1 355.43 430.32 345.16 442.4 338.18 460.19 348.45 448.1 355.43" class="colordadfef svgShape"></polygon><polygon fill="#dae4ef" points="474.16 370.47 456.37 360.2 468.46 353.22 486.25 363.49 474.16 370.47" class="colordadfef svgShape"></polygon><polygon fill="#dae4ef" points="500.21 385.51 482.43 375.25 494.52 368.27 512.3 378.53 500.21 385.51" class="colordadfef svgShape"></polygon><polygon fill="#dae4ef" points="549.91 414.2 508.48 390.29 520.57 383.31 562 407.23 549.91 414.2" class="colordadfef svgShape"></polygon><polygon fill="#dae4ef" points="407.23 309.3 389.45 299.03 401.54 292.05 419.32 302.32 407.23 309.3" class="colordadfef svgShape"></polygon><polygon fill="#dae4ef" points="433.29 324.34 415.5 314.07 427.59 307.1 445.38 317.36 433.29 324.34" class="colordadfef svgShape"></polygon><polygon fill="#dae4ef" points="459.34 339.38 441.56 329.12 453.65 322.14 471.43 332.41 459.34 339.38" class="colordadfef svgShape"></polygon><polygon fill="#dae4ef" points="485.4 354.43 467.61 344.16 479.7 337.18 497.49 347.45 485.4 354.43" class="colordadfef svgShape"></polygon><polygon fill="#dae4ef" points="511.45 369.47 493.67 359.2 505.75 352.23 523.54 362.49 511.45 369.47" class="colordadfef svgShape"></polygon><polygon fill="#dae4ef" points="537.51 384.51 519.73 374.25 531.81 367.27 549.6 377.54 537.51 384.51" class="colordadfef svgShape"></polygon><polygon fill="#dae4ef" points="569.42 402.94 545.78 389.29 557.87 382.31 581.51 395.96 569.42 402.94" class="colordadfef svgShape"></polygon><polygon fill="#6f6d91" points="580.95 372.77 385.64 260.01 391.5 256.62 586.82 369.39 580.95 372.77" class="color6d6d91 svgShape"></polygon><polygon fill="#dae4ef" points="424.11 408.1 324.44 350.56 262.51 386.32 362.18 443.86 424.11 408.1" class="colordadfef svgShape"></polygon><path fill="url(#u)" d="M612.74,392.85,444.27,490.12c-3.21,1.85-8,2.23-11.93,1.14,0,0-2.41-.93-2.78-1.14L182.39,347.42q-.42-.26-.78-.51l0,0h0l-.18-.15-.41-.34-.18-.18a6,6,0,0,1-.43-.46l-.05-.06,0,0a5.13,5.13,0,0,1-.38-.57,3.88,3.88,0,0,1-.54-1.76h0v3.56h0c0,1.55,1,3.11,3,4.29l247.17,142.7c5.9,2.92,14.32,2.35,16.83,1.81s4.76-1.18,7.39-1.76l159-91.77c2-1.18,3.06-2.75,3-4.3v-9.2C615.76,390.17,614.75,391.69,612.74,392.85Z"></path><path d="M350.86,241.65l-84.41,48.74h59.2l56.85-32.82-29.31-16.92A12.88,12.88,0,0,0,350.86,241.65Z" style="mix-blend-mode:multiply" fill="url(#v)"></path><path fill="#442844" d="M364.71,52.5V77.08l247.17,142.7V195.2Z" class="color282a44 svgShape"></path><path fill="#ed5ad2" d="M367.5,66.4c0-5,3.51-7,7.84-4.53a17.32,17.32,0,0,1,7.85,13.59c0,5-3.51,7-7.85,4.52A17.33,17.33,0,0,1,367.5,66.4Z" class="colored995a svgShape"></path><path fill="#f4f6f8" d="M376.47,71.14a1.69,1.69,0,0,0,.78-1.66,4.64,4.64,0,0,0-1.91-3.71c-1-.61-1.9.07-1.9,1.51a5,5,0,0,0,.78,2.56c-1.35-.26-2.76.33-2.76,2.8l7.76,4.48A8.74,8.74,0,0,0,376.47,71.14Z" class="color61607d svgShape"></path><polygon fill="#565293" points="408.02 86.79 499.26 139.47 499.26 145.47 408.02 92.79 408.02 86.79" class="color525793 svgShape"></polygon><polygon fill="#565293" points="515.81 149.02 531.86 158.29 531.86 164.29 515.81 155.03 515.81 149.02" class="color525793 svgShape"></polygon><polygon fill="#565293" points="539.48 162.69 555.53 171.96 555.53 177.96 539.48 168.69 539.48 162.69" class="color525793 svgShape"></polygon><polygon fill="#565293" points="563.15 176.36 579.21 185.62 579.21 191.63 563.15 182.36 563.15 176.36" class="color525793 svgShape"></polygon><polygon fill="#565293" points="586.83 190.02 602.88 199.29 602.88 205.29 586.83 196.03 586.83 190.02" class="color525793 svgShape"></polygon><polygon fill="#e3eaf1" points="378.71 91.53 597.88 218.07 597.88 245.82 378.71 119.29 378.71 91.53" class="colore3e6f1 svgShape"></polygon><polygon points="591.79 248.28 591.79 250.19 454.22 170.77 454.22 276.52 593.73 357.06 593.73 251.31 591.79 248.28" style="mix-blend-mode:multiply" fill="url(#w)"></polygon><polygon fill="#a50b89" points="450.65 274.44 590.15 354.98 590.15 249.23 450.65 168.69 450.65 274.44" class="color4f4e6c svgShape"></polygon><polygon fill="#eaf1f9" points="585.74 251.78 455.06 176.33 455.06 271.89 585.74 347.33 585.74 251.78" class="coloreaeef9 svgShape"></polygon><polygon fill="#5b3d56" points="591.79 248.28 590.15 249.23 590.15 354.98 591.79 354.03 591.79 248.28" class="color3d3e5b svgShape"></polygon><polygon fill="#6f6d91" points="452.29 167.74 450.65 168.69 590.15 249.23 591.79 248.28 452.29 167.74" class="color6d6d91 svgShape"></polygon><polygon fill="#5b3d56" points="456.14 176.95 455.06 176.33 455.06 271.89 456.14 271.27 456.14 176.95" class="color3d3e5b svgShape"></polygon><polygon fill="#6f6d91" points="456.14 271.27 455.06 271.89 585.74 347.33 585.74 346.1 456.14 271.27" class="color6d6d91 svgShape"></polygon><path fill="#78b5f3" d="M547.78 302.57c0-5.31 3.73-7.46 8.33-4.81s8.32 9.11 8.32 14.42-3.72 7.46-8.32 4.8S547.78 307.87 547.78 302.57zM468.28 235.16c0-3.13 2.2-4.4 4.92-2.84a10.88 10.88 0 014.92 8.52c0 3.14-2.2 4.41-4.92 2.85A10.88 10.88 0 01468.28 235.16zM571.84 272.7c0-2.19 1.54-3.07 3.43-2a7.58 7.58 0 013.43 5.93c0 2.19-1.54 3.08-3.43 2A7.58 7.58 0 01571.84 272.7z" class="colorf3b378 svgShape"></path><polygon points="490.74 233.39 554.71 270.32 554.71 304.59 490.74 267.66 490.74 233.39" style="mix-blend-mode:multiply" fill="#d3e2f2" class="colord3d8f2 svgShape"></polygon><polygon fill="#5b3d56" points="552.39 271.12 551.31 271.74 551.31 306 552.39 305.38 552.39 271.12" class="color3d3e5b svgShape"></polygon><path fill="#442844" d="M541.38,267.75,519.15,233,497.06,242l-.35-.85,22.44-9.2a.45.45,0,0,1,.56.17l22.45,35.12Z" class="color282a44 svgShape"></path><polygon fill="#a50b89" points="488.42 234.19 487.34 234.81 551.31 271.74 552.39 271.12 488.42 234.19" class="color4f4e6c svgShape"></polygon><polygon fill="#6f6d91" points="487.34 234.81 551.31 271.74 551.31 306 487.34 269.07 487.34 234.81" class="color6d6d91 svgShape"></polygon><path fill="#ffffff" d="M504.64,261.06a15.42,15.42,0,0,1-2.23-2.17,2.46,2.46,0,0,1-.52-1.49c0-.52.17-.8.52-.86a2.23,2.23,0,0,1,1.34.39,8.28,8.28,0,0,1,1.65,1.29,8.11,8.11,0,0,1,1.33,1.6l1-1.05a12.73,12.73,0,0,0-1.8-2.17,11.13,11.13,0,0,0-2.11-1.62,3.64,3.64,0,0,0-2.76-.63c-.75.2-1.12.9-1.12,2.08a5.53,5.53,0,0,0,1,3.2,9.41,9.41,0,0,0,1.13,1.39c.42.43,1,1,1.85,1.69a11.8,11.8,0,0,1,1.72,1.74,2.49,2.49,0,0,1,.5,1.44c0,.5-.18.79-.53.88a2,2,0,0,1-1.44-.37,10.9,10.9,0,0,1-3.48-3.7l-1.17.95a13.51,13.51,0,0,0,4.61,4.73A3.45,3.45,0,0,0,507,269c.73-.27,1.09-1,1.09-2.08a5.47,5.47,0,0,0-.86-3A13.16,13.16,0,0,0,504.64,261.06Zm9-.12-4.87,10,2,1.15,1.11-2.26,5.54,3.2,1.11,3.54,2,1.15-4.88-15.59Zm-1,7.29,2-4.1,2,6.43Zm11.29-1.36L522,265.79v12.78l6.92,4v-2l-5-2.92Zm9,15.92v-3.42l5.3,3.07v-1.92l-5.3-3.06v-3.39l5.9,3.41v-2L531,271v12.77l8,4.6v-2Z" class="colorffffff svgShape"></path><polygon fill="#f4f6f8" points="441.74 263.25 388.19 232.33 388.19 129.34 441.74 160.26 441.74 263.25" class="color61607d svgShape"></polygon><polygon fill="#bfd0e1" points="380.38 133.84 388.19 129.34 388.19 232.33 380.38 236.84 380.38 133.84" class="colorbfc4e1 svgShape"></polygon><polygon fill="#ebf0f6" points="380.38 236.84 388.19 232.33 441.74 263.25 433.94 267.75 380.38 236.84" class="colorebeef6 svgShape"></polygon><polygon points="392.6 229.78 418.85 214.63 437.33 225.3 437.33 255.6 392.6 229.78" style="mix-blend-mode:multiply" fill="url(#x)"></polygon><polygon fill="#5b3d56" points="391.74 136.44 394.34 137.99 394.34 228.78 391.74 230.28 391.74 136.44" class="color3d3e5b svgShape"></polygon><polygon fill="#bfd0e1" points="392.6 136.99 393.47 137.49 393.47 229.28 392.6 229.78 392.6 136.99" class="colorbfc4e1 svgShape"></polygon><polygon fill="#6f6d91" points="391.74 230.28 394.34 228.78 437.33 253.6 437.33 256.61 391.74 230.28" class="color6d6d91 svgShape"></polygon><polygon fill="#bfd0e1" points="392.6 229.78 393.47 229.28 437.33 254.6 437.33 255.6 392.6 229.78" class="colorbfc4e1 svgShape"></polygon><path d="M392.6,137v92.79l44.73,25.82V162.81Z" style="mix-blend-mode:screen" fill="#a50b89" class="color4f4e6c svgShape"></path><polygon fill="#ffffff" points="433.94 164.76 441.74 160.26 441.74 263.25 433.94 267.75 433.94 164.76" class="colorffffff svgShape"></polygon><polygon fill="#ffffff" points="380.38 133.84 388.19 129.34 441.74 160.26 433.94 164.76 380.38 133.84" class="colorffffff svgShape"></polygon><polygon points="392.6 226.07 437.33 174.57 437.33 162.81 392.6 136.99 392.6 226.07" style="mix-blend-mode:screen" fill="url(#b)"></polygon><polygon points="407.03 238.11 437.33 225.3 437.33 255.6 407.03 238.11" style="mix-blend-mode:screen" fill="url(#y)"></polygon><path d="M610.37,263.13l-12.49-34.91v18.69l-7.8,4.5h0l-12.44,7.18h0v.08a10.44,10.44,0,0,0,2.3,1.85c3.36,1.94,6.08.36,6.08-3.52a13.48,13.48,0,0,0,6.09,10.55c3.36,1.94,6.09.37,6.09-3.52a13.43,13.43,0,0,0,6.09,10.55c3.36,1.94,6.08.37,6.09-3.52Z" style="mix-blend-mode:multiply" fill="url(#z)"></path><polygon fill="#bfd0e1" points="574.34 260.5 597.88 246.91 597.88 228.22 574.34 252.57 574.34 260.5" class="colorbfc4e1 svgShape"></polygon><polygon fill="#f471dc" points="367.35 133.06 355.17 126.03 378.71 101.68 390.89 108.71 367.35 133.06" class="colorf48a71 svgShape"></polygon><polygon fill="#ffffff" points="379.52 140.09 367.35 133.06 390.89 108.71 403.06 115.74 379.52 140.09" class="colorffffff svgShape"></polygon><polygon fill="#f471dc" points="391.7 147.12 379.52 140.09 403.06 115.74 415.24 122.77 391.7 147.12" class="colorf48a71 svgShape"></polygon><polygon fill="#ffffff" points="403.88 154.15 391.7 147.12 415.24 122.77 427.42 129.8 403.88 154.15" class="colorffffff svgShape"></polygon><polygon fill="#f471dc" points="416.05 161.18 403.88 154.15 427.42 129.8 439.59 136.83 416.05 161.18" class="colorf48a71 svgShape"></polygon><polygon fill="#ffffff" points="428.23 168.21 416.05 161.18 439.59 136.83 451.77 143.86 428.23 168.21" class="colorffffff svgShape"></polygon><polygon fill="#f471dc" points="440.4 175.24 428.23 168.21 451.77 143.86 463.94 150.89 440.4 175.24" class="colorf48a71 svgShape"></polygon><polygon fill="#ffffff" points="452.58 182.27 440.4 175.24 463.94 150.89 476.12 157.92 452.58 182.27" class="colorffffff svgShape"></polygon><polygon fill="#f471dc" points="464.75 189.3 452.58 182.27 476.12 157.92 488.3 164.95 464.75 189.3" class="colorf48a71 svgShape"></polygon><polygon fill="#ffffff" points="476.93 196.33 464.75 189.3 488.3 164.95 500.47 171.98 476.93 196.33" class="colorffffff svgShape"></polygon><polygon fill="#f471dc" points="489.11 203.36 476.93 196.33 500.47 171.98 512.65 179.01 489.11 203.36" class="colorf48a71 svgShape"></polygon><polygon fill="#ffffff" points="501.28 210.39 489.11 203.36 512.65 179.01 524.82 186.04 501.28 210.39" class="colorffffff svgShape"></polygon><polygon fill="#f471dc" points="513.46 217.42 501.28 210.39 524.82 186.04 537 193.07 513.46 217.42" class="colorf48a71 svgShape"></polygon><polygon fill="#ffffff" points="525.63 224.45 513.46 217.42 537 193.07 549.17 200.1 525.63 224.45" class="colorffffff svgShape"></polygon><polygon fill="#f471dc" points="537.81 231.48 525.63 224.45 549.17 200.1 561.35 207.13 537.81 231.48" class="colorf48a71 svgShape"></polygon><polygon fill="#ffffff" points="549.99 238.51 537.81 231.48 561.35 207.13 573.53 214.16 549.99 238.51" class="colorffffff svgShape"></polygon><polygon fill="#f471dc" points="562.16 245.54 549.99 238.51 573.53 214.16 585.7 221.19 562.16 245.54" class="colorf48a71 svgShape"></polygon><polygon fill="#ffffff" points="574.34 252.57 562.16 245.54 585.7 221.19 597.88 228.22 574.34 252.57" class="colorffffff svgShape"></polygon><path fill="#e25dca" d="M355.17,126V134a13.43,13.43,0,0,0,6.09,10.54c3.36,1.95,6.08.37,6.08-3.51v-7.93Z" class="colore2735d svgShape"></path><path fill="#dae4ef" d="M367.34,133.06V141a13.46,13.46,0,0,0,6.09,10.54c3.36,1.95,6.09.37,6.09-3.51v-7.93Z" class="colordadfef svgShape"></path><path fill="#e25dca" d="M379.52,140.09V148a13.43,13.43,0,0,0,6.09,10.54c3.36,1.95,6.09.37,6.09-3.51v-7.93Z" class="colore2735d svgShape"></path><path fill="#dae4ef" d="M391.7,147.12v7.93a13.45,13.45,0,0,0,6.08,10.54c3.37,1.95,6.09.37,6.09-3.51v-7.93Z" class="colordadfef svgShape"></path><path fill="#e25dca" d="M403.87,154.15v7.93A13.46,13.46,0,0,0,410,172.62c3.36,1.95,6.09.37,6.09-3.51v-7.93Z" class="colore2735d svgShape"></path><path fill="#dae4ef" d="M416.05,161.18v7.93a13.43,13.43,0,0,0,6.09,10.54c3.36,1.94,6.08.37,6.08-3.51v-7.93Z" class="colordadfef svgShape"></path><path fill="#e25dca" d="M428.22,168.21v7.93a13.46,13.46,0,0,0,6.09,10.54c3.37,1.94,6.09.37,6.09-3.51v-7.93Z" class="colore2735d svgShape"></path><path fill="#dae4ef" d="M440.4,175.24v7.93a13.46,13.46,0,0,0,6.09,10.54c3.36,1.94,6.09.37,6.09-3.51v-7.93Z" class="colordadfef svgShape"></path><path fill="#e25dca" d="M452.58,182.27v7.93a13.45,13.45,0,0,0,6.08,10.54c3.37,1.94,6.09.37,6.09-3.51V189.3Z" class="colore2735d svgShape"></path><path fill="#dae4ef" d="M464.75,189.3v7.93a13.46,13.46,0,0,0,6.09,10.54c3.36,1.94,6.09.37,6.09-3.51v-7.93Z" class="colordadfef svgShape"></path><path fill="#e25dca" d="M476.93,196.33v7.93A13.43,13.43,0,0,0,483,214.8c3.36,1.94,6.09.37,6.09-3.51v-7.93Z" class="colore2735d svgShape"></path><path fill="#dae4ef" d="M489.11,203.36v7.93a13.45,13.45,0,0,0,6.08,10.54c3.36,1.94,6.09.37,6.09-3.51v-7.93Z" class="colordadfef svgShape"></path><path fill="#e25dca" d="M501.28,210.39v7.93a13.46,13.46,0,0,0,6.09,10.54c3.36,1.94,6.09.37,6.09-3.51v-7.93Z" class="colore2735d svgShape"></path><path fill="#dae4ef" d="M513.46,217.42v7.93a13.43,13.43,0,0,0,6.09,10.54c3.36,1.94,6.08.37,6.08-3.51v-7.93Z" class="colordadfef svgShape"></path><path fill="#e25dca" d="M525.63,224.45v7.93a13.46,13.46,0,0,0,6.09,10.54c3.36,1.94,6.09.37,6.09-3.51v-7.93Z" class="colore2735d svgShape"></path><path fill="#dae4ef" d="M537.81,231.48v7.93A13.43,13.43,0,0,0,543.9,250c3.36,1.94,6.09.37,6.09-3.51v-7.93Z" class="colordadfef svgShape"></path><path fill="#e25dca" d="M550,238.51v7.93A13.45,13.45,0,0,0,556.07,257c3.37,1.94,6.09.37,6.09-3.51v-7.93Z" class="colore2735d svgShape"></path><path fill="#dae4ef" d="M562.16 245.54v7.93A13.46 13.46 0 00568.25 264c3.36 1.95 6.09.37 6.09-3.51v-7.93zM493.18 68.61a1.6 1.6 0 11.59 2.17A1.58 1.58 0 01493.18 68.61zM500.11 72.6a1.6 1.6 0 11.59 2.18A1.6 1.6 0 01500.11 72.6zM507 76.6a1.6 1.6 0 11.59 2.18A1.6 1.6 0 01507 76.6zM514 80.59a1.6 1.6 0 11.58 2.18A1.6 1.6 0 01514 80.59zM520.88 84.59a1.6 1.6 0 11.59 2.18A1.6 1.6 0 01520.88 84.59zM527.8 88.59a1.6 1.6 0 11.59 2.18A1.59 1.59 0 01527.8 88.59zM534.73 92.58a1.6 1.6 0 11.59 2.18A1.6 1.6 0 01534.73 92.58zM541.65 96.58a1.6 1.6 0 11.59 2.18A1.6 1.6 0 01541.65 96.58zM548.58 100.57a1.6 1.6 0 11.59 2.18A1.6 1.6 0 01548.58 100.57zM555.5 104.57a1.6 1.6 0 11.59 2.18A1.6 1.6 0 01555.5 104.57zM562.43 108.57a1.58 1.58 0 012.18-.58 1.6 1.6 0 11-2.18.58zM569.35 112.56a1.6 1.6 0 11.59 2.18A1.6 1.6 0 01569.35 112.56zM576.27 116.56a1.6 1.6 0 11.59 2.18A1.61 1.61 0 01576.27 116.56zM583.2 120.55a1.6 1.6 0 11.59 2.18A1.6 1.6 0 01583.2 120.55zM590.12 124.55a1.6 1.6 0 11.59 2.18A1.6 1.6 0 01590.12 124.55zM597.05 128.55a1.6 1.6 0 11.59 2.18A1.6 1.6 0 01597.05 128.55zM604 132.54a1.6 1.6 0 11.59 2.18A1.6 1.6 0 01604 132.54zM610.89 136.54a1.6 1.6 0 11.59 2.18A1.61 1.61 0 01610.89 136.54zM617.82 140.54a1.6 1.6 0 11.59 2.17A1.59 1.59 0 01617.82 140.54zM624.74 144.53a1.6 1.6 0 11.59 2.18A1.6 1.6 0 01624.74 144.53zM631.67 148.53a1.6 1.6 0 11.59 2.18A1.6 1.6 0 01631.67 148.53zM638.59 152.52a1.6 1.6 0 11.59 2.18A1.6 1.6 0 01638.59 152.52zM645.52 156.52a1.6 1.6 0 11.58 2.18A1.6 1.6 0 01645.52 156.52zM652.44 160.52a1.6 1.6 0 11.59 2.17A1.58 1.58 0 01652.44 160.52zM659.36 164.51a1.6 1.6 0 11.59 2.18A1.61 1.61 0 01659.36 164.51zM666.29 168.51a1.6 1.6 0 11.59 2.18A1.6 1.6 0 01666.29 168.51zM673.21 172.5a1.6 1.6 0 11.59 2.18A1.6 1.6 0 01673.21 172.5zM680.93 182.62a1.58 1.58 0 11-1.59 1.58A1.59 1.59 0 01680.93 182.62zM680.93 175.92a1.58 1.58 0 11-1.59 1.58A1.59 1.59 0 01680.93 175.92zM680.93 190.52a1.59 1.59 0 11-1.59 1.59A1.6 1.6 0 01680.93 190.52zM680.93 198.43a1.58 1.58 0 11-1.59 1.58A1.59 1.59 0 01680.93 198.43zM680.93 206.33a1.58 1.58 0 11-1.59 1.58A1.59 1.59 0 01680.93 206.33zM680.93 214.23a1.58 1.58 0 11-1.59 1.58A1.59 1.59 0 01680.93 214.23zM680.93 222.14a1.58 1.58 0 11-1.59 1.58A1.59 1.59 0 01680.93 222.14zM680.93 230a1.58 1.58 0 11-1.59 1.58A1.59 1.59 0 01680.93 230zM680.93 237.94a1.58 1.58 0 11-1.59 1.58A1.59 1.59 0 01680.93 237.94zM680.93 245.84a1.58 1.58 0 11-1.59 1.58A1.59 1.59 0 01680.93 245.84zM680.93 253.75a1.58 1.58 0 11-1.59 1.58A1.59 1.59 0 01680.93 253.75zM680.93 261.65a1.58 1.58 0 11-1.59 1.58A1.59 1.59 0 01680.93 261.65zM680.93 269.55a1.58 1.58 0 11-1.59 1.58A1.59 1.59 0 01680.93 269.55zM680.93 277.45a1.59 1.59 0 11-1.59 1.59A1.6 1.6 0 01680.93 277.45zM680.93 285.36a1.58 1.58 0 11-1.59 1.58A1.59 1.59 0 01680.93 285.36zM680.93 293.26a1.58 1.58 0 11-1.59 1.58A1.59 1.59 0 01680.93 293.26zM680.93 301.16a1.58 1.58 0 11-1.59 1.58A1.59 1.59 0 01680.93 301.16zM680.93 309.07a1.58 1.58 0 11-1.59 1.58A1.59 1.59 0 01680.93 309.07zM680.93 317a1.58 1.58 0 11-1.59 1.58A1.59 1.59 0 01680.93 317zM680.93 324.87a1.58 1.58 0 11-1.59 1.58A1.59 1.59 0 01680.93 324.87zM680.93 332.77a1.59 1.59 0 11-1.59 1.59A1.6 1.6 0 01680.93 332.77zM680.93 340.68a1.58 1.58 0 11-1.59 1.58A1.59 1.59 0 01680.93 340.68zM680.93 348.58a1.58 1.58 0 11-1.59 1.58A1.59 1.59 0 01680.93 348.58zM680.93 356.48a1.58 1.58 0 11-1.59 1.58A1.59 1.59 0 01680.93 356.48zM680.93 364.39a1.58 1.58 0 11-1.59 1.58A1.59 1.59 0 01680.93 364.39zM680.93 372.29a1.58 1.58 0 11-1.59 1.58A1.59 1.59 0 01680.93 372.29zM680.93 380.19a1.58 1.58 0 11-1.59 1.58A1.59 1.59 0 01680.93 380.19zM680.93 388.09a1.58 1.58 0 11-1.59 1.58A1.59 1.59 0 01680.93 388.09zM680.93 396a1.58 1.58 0 11-1.59 1.58A1.59 1.59 0 01680.93 396zM680.93 403.9a1.58 1.58 0 11-1.59 1.58A1.59 1.59 0 01680.93 403.9zM680.93 411.8a1.58 1.58 0 11-1.59 1.58A1.59 1.59 0 01680.93 411.8zM680.93 419.71a1.58 1.58 0 11-1.59 1.58A1.59 1.59 0 01680.93 419.71zM168.45 416.07a1.61 1.61 0 11.6 2.19A1.6 1.6 0 01168.45 416.07zM175.43 420.1a1.61 1.61 0 11.6 2.19A1.61 1.61 0 01175.43 420.1zM182.41 424.14a1.61 1.61 0 012.2-.57 1.59 1.59 0 11-2.2.57zM189.39 428.17a1.62 1.62 0 11.6 2.19A1.62 1.62 0 01189.39 428.17zM196.38 432.21a1.61 1.61 0 11.6 2.18A1.58 1.58 0 01196.38 432.21zM203.36 436.24a1.61 1.61 0 11.6 2.19A1.6 1.6 0 01203.36 436.24zM210.34 440.28a1.61 1.61 0 11.6 2.18A1.61 1.61 0 01210.34 440.28zM217.32 444.31a1.62 1.62 0 11.6 2.19A1.61 1.61 0 01217.32 444.31zM224.3 448.35a1.62 1.62 0 012.8 1.61 1.62 1.62 0 01-2.8-1.61zM231.29 452.38a1.61 1.61 0 11.6 2.19A1.6 1.6 0 01231.29 452.38zM238.27 456.42a1.61 1.61 0 11.6 2.18A1.6 1.6 0 01238.27 456.42zM245.25 460.45a1.6 1.6 0 012.19-.57 1.58 1.58 0 01.6 2.18 1.61 1.61 0 01-2.79-1.61zM252.23 464.49a1.62 1.62 0 11.6 2.18A1.61 1.61 0 01252.23 464.49zM259.22 468.52a1.61 1.61 0 11.6 2.19A1.6 1.6 0 01259.22 468.52zM266.2 472.55a1.61 1.61 0 11.6 2.19A1.61 1.61 0 01266.2 472.55zM273.18 476.59a1.61 1.61 0 11.6 2.19A1.6 1.6 0 01273.18 476.59zM280.16 480.62a1.62 1.62 0 11.6 2.19A1.61 1.61 0 01280.16 480.62zM287.14 484.66a1.62 1.62 0 11.6 2.18A1.61 1.61 0 01287.14 484.66zM294.13 488.69a1.61 1.61 0 11.6 2.19A1.61 1.61 0 01294.13 488.69zM301.11 492.73a1.61 1.61 0 11.6 2.18A1.6 1.6 0 01301.11 492.73zM308.09 496.76a1.61 1.61 0 11.6 2.19A1.61 1.61 0 01308.09 496.76zM315.07 500.8a1.62 1.62 0 11.6 2.18A1.6 1.6 0 01315.07 500.8zM322.06 504.83a1.61 1.61 0 11.6 2.19A1.6 1.6 0 01322.06 504.83zM329 508.87a1.61 1.61 0 11.6 2.18A1.61 1.61 0 01329 508.87zM336 512.9a1.61 1.61 0 11.6 2.19A1.6 1.6 0 01336 512.9zM343 516.94a1.62 1.62 0 11.6 2.18A1.61 1.61 0 01343 516.94zM350 521a1.61 1.61 0 11.6 2.19A1.6 1.6 0 01350 521zM357 525a1.61 1.61 0 11.6 2.18A1.6 1.6 0 01357 525zM364 529a1.61 1.61 0 11.6 2.19A1.6 1.6 0 01364 529zM370.93 533.07a1.62 1.62 0 11.6 2.19A1.61 1.61 0 01370.93 533.07zM377.91 537.11a1.62 1.62 0 11.6 2.19A1.61 1.61 0 01377.91 537.11zM384.9 541.14a1.61 1.61 0 11.6 2.19A1.61 1.61 0 01384.9 541.14zM391.88 545.18a1.61 1.61 0 11.6 2.19A1.6 1.6 0 01391.88 545.18zM398.86 549.21a1.61 1.61 0 012.79 1.62 1.61 1.61 0 01-2.79-1.62zM405.84 553.25a1.62 1.62 0 11.6 2.18A1.61 1.61 0 01405.84 553.25zM412.83 557.28a1.61 1.61 0 11.6 2.19A1.61 1.61 0 01412.83 557.28zM419.81 561.32a1.61 1.61 0 11.6 2.18A1.6 1.6 0 01419.81 561.32zM426.79 565.35a1.61 1.61 0 11.6 2.19A1.6 1.6 0 01426.79 565.35zM433.55 569a1.61 1.61 0 11.6 2.19A1.6 1.6 0 01433.55 569zM439.5 567a1.61 1.61 0 01.59-2.18 1.59 1.59 0 011.59 2.76A1.6 1.6 0 01439.5 567zM446.4 563a1.6 1.6 0 112.18.58A1.59 1.59 0 01446.4 563zM453.3 559a1.59 1.59 0 112.18.59A1.59 1.59 0 01453.3 559zM460.2 555.05a1.59 1.59 0 112.18.58A1.6 1.6 0 01460.2 555.05zM467.1 551.07a1.59 1.59 0 112.17.58A1.6 1.6 0 01467.1 551.07zM474 547.09a1.61 1.61 0 01.59-2.18 1.59 1.59 0 11-.59 2.18zM480.89 543.1a1.59 1.59 0 012.76-1.59 1.59 1.59 0 11-2.76 1.59zM487.79 539.12a1.59 1.59 0 112.18.58A1.6 1.6 0 01487.79 539.12zM494.69 535.14a1.6 1.6 0 112.17.58A1.6 1.6 0 01494.69 535.14zM501.59 531.15a1.59 1.59 0 112.17.59A1.59 1.59 0 01501.59 531.15zM508.48 527.17a1.59 1.59 0 112.18.59A1.6 1.6 0 01508.48 527.17zM515.38 523.19a1.59 1.59 0 112.18.58A1.59 1.59 0 01515.38 523.19zM522.28 519.21a1.6 1.6 0 112.18.58A1.6 1.6 0 01522.28 519.21zM529.18 515.22a1.59 1.59 0 112.17.59A1.59 1.59 0 01529.18 515.22zM536.08 511.24a1.59 1.59 0 112.17.58A1.59 1.59 0 01536.08 511.24zM543 507.26a1.6 1.6 0 01.59-2.18 1.59 1.59 0 011.59 2.76A1.6 1.6 0 01543 507.26zM549.87 503.28a1.6 1.6 0 112.18.58A1.59 1.59 0 01549.87 503.28zM556.77 499.29a1.59 1.59 0 112.18.59A1.59 1.59 0 01556.77 499.29zM563.67 495.31a1.59 1.59 0 112.17.58A1.59 1.59 0 01563.67 495.31zM570.57 491.33a1.59 1.59 0 112.17.58A1.6 1.6 0 01570.57 491.33zM577.46 487.35a1.6 1.6 0 112.18.58A1.6 1.6 0 01577.46 487.35zM584.36 483.36a1.59 1.59 0 012.76-1.59 1.59 1.59 0 11-2.76 1.59zM591.26 479.38a1.59 1.59 0 112.18.58A1.58 1.58 0 01591.26 479.38zM598.16 475.4a1.59 1.59 0 112.76-1.59 1.59 1.59 0 01-2.76 1.59zM605.06 471.42a1.6 1.6 0 112.17.58A1.6 1.6 0 01605.06 471.42zM612 467.43a1.59 1.59 0 112.18.59A1.59 1.59 0 01612 467.43zM618.85 463.45A1.59 1.59 0 11621 464 1.59 1.59 0 01618.85 463.45zM625.75 459.47a1.59 1.59 0 112.18.58A1.6 1.6 0 01625.75 459.47zM632.65 455.49a1.6 1.6 0 112.17.58A1.6 1.6 0 01632.65 455.49zM639.55 451.5a1.59 1.59 0 112.17.59A1.59 1.59 0 01639.55 451.5zM646.44 447.52a1.59 1.59 0 112.18.58A1.6 1.6 0 01646.44 447.52zM653.34 443.54a1.59 1.59 0 112.18.58A1.59 1.59 0 01653.34 443.54zM660.24 439.56a1.6 1.6 0 112.18.58A1.6 1.6 0 01660.24 439.56zM667.14 435.57a1.59 1.59 0 112.17.59A1.59 1.59 0 01667.14 435.57zM674 431.59a1.59 1.59 0 112.75-1.59 1.59 1.59 0 11-2.75 1.59z" class="colordadfef svgShape"></path><path d="M181.24,402.46c-4.75-2.74-11.07-4-17.27-3.82h-6.92v1.59a26,26,0,0,0-5.14,2.23c-8.84,5.14-8.79,13.47.1,18.61a25.39,25.39,0,0,0,5,2.18v1.67h8.86a32.44,32.44,0,0,0,15.43-3.85C190.18,415.93,190.14,407.6,181.24,402.46Z" style="mix-blend-mode:multiply" fill="url(#c)"></path><path fill="url(#d)" d="M142,421.07c-4.48-2.58-6.72-6-6.71-9.37l0-4.77c0,3.4,2.23,6.79,6.71,9.38,8.9,5.13,23.28,5.13,32.13,0,4.39-2.56,6.59-5.9,6.6-9.24l0,4.76c0,3.35-2.21,6.69-6.6,9.24C165.28,426.21,150.9,426.21,142,421.07Z"></path><path fill="#ebf0f6" d="M142,416.31c-8.9-5.14-9-13.48-.11-18.61s23.23-5.14,32.13,0,9,13.47.11,18.61S150.92,421.44,142,416.31Z" class="colorebeef6 svgShape"></path><path fill="#565293" d="M159.1,412.89a4.48,4.48,0,0,0-2.25-.52L153.38,405a5.78,5.78,0,0,0,1.22-.5,2.85,2.85,0,0,0,1.05-1l10.9,1a1.62,1.62,0,0,0,.88,1.09,4.83,4.83,0,0,0,4.41,0,1.34,1.34,0,0,0,0-2.54,4.83,4.83,0,0,0-4.41,0,2.14,2.14,0,0,0-.65.56l-10.89-1a2.22,2.22,0,0,0-1.29-1.74,6.84,6.84,0,0,0-6.23,0c-1.73,1-1.73,2.61,0,3.6a6.44,6.44,0,0,0,3.51.73l3.47,7.35a4,4,0,0,0-.66.28,1.35,1.35,0,0,0,0,2.55,4.89,4.89,0,0,0,4.41,0A1.35,1.35,0,0,0,159.1,412.89Z" class="color525793 svgShape"></path><path fill="url(#e)" d="M685.57,332.12c-5.17-3-9.85-3.25-13.23-1.29l-4.63,2.69c3.38-2,8.06-1.69,13.22,1.3,10.27,5.92,18.56,20.29,18.53,32.08,0,5.86-2.09,10-5.42,11.93l4.63-2.7c3.34-1.94,5.41-6.06,5.43-11.92C704.13,352.42,695.83,338.05,685.57,332.12Z"></path><path fill="#ffffff" d="M680.93,334.82c-10.26-5.93-18.61-1.17-18.64,10.62s8.26,26.16,18.52,32.09,18.62,1.17,18.65-10.63S691.2,340.74,680.93,334.82Z" class="colorffffff svgShape"></path><path fill="#565293" d="M687.13,351.09c-3.49-6-9.15-9.31-12.63-7.29s-3.49,8.54,0,14.58l6.31,10.94,6.32-3.64C690.61,363.66,690.61,357.13,687.13,351.09Zm-6.32,8.51a9.29,9.29,0,0,1-4.21-7.29c0-2.69,1.88-3.78,4.21-2.44a9.31,9.31,0,0,1,4.21,7.3C685,359.86,683.14,361,680.81,359.6Z" class="color525793 svgShape"></path><path d="M265.18,450.92c-4.75-2.74-11.07-4-17.27-3.82H241v1.6a25.63,25.63,0,0,0-5.14,2.22c-8.84,5.14-8.79,13.48.1,18.62a26.62,26.62,0,0,0,5,2.18v1.66h8.86a32.32,32.32,0,0,0,15.43-3.84C274.12,464.4,274.08,456.06,265.18,450.92Z" style="mix-blend-mode:multiply" fill="url(#A)"></path><path fill="url(#B)" d="M225.94,469.54c-4.48-2.59-6.72-6-6.71-9.37l0-4.77c0,3.39,2.23,6.78,6.71,9.37,8.9,5.14,23.29,5.14,32.13,0,4.39-2.55,6.59-5.89,6.6-9.24l0,4.77c0,3.34-2.21,6.68-6.6,9.24C249.23,474.68,234.84,474.68,225.94,469.54Z"></path><path fill="#ebf0f6" d="M226,464.77c-8.9-5.14-9-13.47-.11-18.61s23.23-5.14,32.13,0,8.95,13.47.11,18.61S234.86,469.91,226,464.77Z" class="colorebeef6 svgShape"></path><path fill="#f471dc" d="M245.8,451.18a3.21,3.21,0,0,0-1.61-1.82,9,9,0,0,0-8.18,0,2.87,2.87,0,0,0-1.7,2.36v8.06h14a8.43,8.43,0,0,0,4.1-1c2.26-1.3,2.26-3.42,0-4.72a7.63,7.63,0,0,0-3.16-.93l-3.05-.21Z" class="colorf48a71 svgShape"></path><path fill="url(#C)" d="M685.57,232.33c-5.17-3-9.85-3.25-13.23-1.29l-4.63,2.69c3.38-2,8.06-1.68,13.22,1.3,10.27,5.92,18.56,20.29,18.53,32.08,0,5.86-2.09,10-5.42,11.93l4.63-2.7c3.34-1.94,5.41-6.06,5.43-11.92C704.13,252.63,695.83,238.26,685.57,232.33Z"></path><path fill="#ffffff" d="M680.93,235c-10.26-5.93-18.61-1.17-18.64,10.62s8.26,26.17,18.52,32.09,18.62,1.17,18.65-10.63S691.2,241,680.93,235Z" class="colorffffff svgShape"></path><path fill="#565293" d="M680.72,254.7a6.55,6.55,0,0,1-3-5.12c0-1.89,1.33-2.65,3-1.71a6.55,6.55,0,0,1,3,5.12l2.15,1.24a11.49,11.49,0,0,0-4-8.09V244l-2.15-1.24v2.19c-2.31-.76-4,.61-4,3.44a11.28,11.28,0,0,0,5.11,8.84,6.57,6.57,0,0,1,3,5.13,1.81,1.81,0,0,1-3,1.71,6.55,6.55,0,0,1-3-5.13l-2.15-1.24a11.47,11.47,0,0,0,4,8.1v2.18l2.15,1.25V267a3,3,0,0,0,2.53-.13,3.58,3.58,0,0,0,1.5-3.31,11.34,11.34,0,0,0-5.11-8.85Z" class="color525793 svgShape"></path><path fill="url(#D)" d="M493.05,44.31c-5.16-3-9.84-3.26-13.23-1.3l-4.63,2.7c3.38-2,8.06-1.69,13.23,1.29,10.26,5.93,18.56,20.29,18.52,32.08,0,5.86-2.08,10-5.42,11.93l4.64-2.7c3.33-1.93,5.4-6.06,5.42-11.92C511.61,64.6,503.32,50.23,493.05,44.31Z"></path><path fill="#ebf0f6" d="M488.42,47c-10.27-5.92-18.62-1.17-18.65,10.62S478,83.79,488.29,89.71s18.62,1.17,18.65-10.63S498.68,52.93,488.42,47Z" class="colorebeef6 svgShape"></path><path fill="#565293" d="M492.42,62.53C489.21,57,484,54,480.77,55.81s-3.21,7.89,0,13.45c2.94,5.08,7.55,8,10.77,7.08l4.71,8.15c.45.78,1.17,1.2,1.63.94s.44-1.1,0-1.88l-4.71-8.15C495.6,73.08,495.35,67.62,492.42,62.53Zm-1.63,10.63c-2.31,1.33-6.07-.84-8.39-4.84s-2.31-8.35,0-9.69,6.08.84,8.39,4.84S493.1,71.82,490.79,73.16Z" class="color525793 svgShape"></path><path fill="url(#E)" d="M616.63,115.66c-5.16-3-9.84-3.26-13.22-1.3l-4.64,2.7c3.38-2,8.06-1.69,13.23,1.29,10.27,5.93,18.56,20.29,18.52,32.08,0,5.86-2.08,10-5.42,11.93l4.64-2.7c3.34-1.93,5.41-6.06,5.42-11.92C635.2,136,626.9,121.58,616.63,115.66Z"></path><path fill="#ebf0f6" d="M612,118.35c-10.27-5.92-18.62-1.17-18.65,10.62s8.26,26.17,18.53,32.09,18.61,1.17,18.64-10.63S622.27,124.28,612,118.35Z" class="colorebeef6 svgShape"></path><path fill="#565293" d="M619.1,142.37l-1.58,4.6-10.79-6.23-2.7-11-.17-.72-3-1.7v1.79l1.84,1.06,2.69,10.95.18.72,13,7.52.17-.51,1.76-5.12Zm-2.65,6.92c-.9-.52-1.63-.1-1.63.94a3.58,3.58,0,0,0,1.63,2.81c.9.52,1.63.1,1.63-.93A3.58,3.58,0,0,0,616.45,149.29Zm-8.5-4.91c-.9-.52-1.63-.1-1.63.94a3.58,3.58,0,0,0,1.63,2.81c.89.52,1.62.11,1.62-.93A3.61,3.61,0,0,0,608,144.38Zm7.69-4.83-1.09-1.9-2,1.14v-7.7L611,130.2v7.69l-2-3.4-1.09.63,3.83,6.65Z" class="color525793 svgShape"></path><polygon fill="url(#F)" points="324.03 120.52 283.95 144.83 283.95 52.86 324.03 28.55 324.03 120.52"></polygon><path fill="#78b5f3" d="M294,145.14c0-10,7-22.2,15.7-27.21s15.71-.94,15.71,9.07-7,22.2-15.71,27.21S294,155.16,294,145.14Z" class="colorf3b378 svgShape"></path><path fill="#79b8f7" d="M311,113.69c-11.07,6.4-20.05,21.94-20.05,34.73s9,18,20.05,11.58S331,138.05,331,125.27,322.07,107.3,311,113.69ZM311,155c-8.67,5-15.7,1-15.7-9.07s7-22.2,15.7-27.2,15.71-.95,15.71,9.07S319.67,150,311,155Z" class="colorf7c479 svgShape"></path><path fill="url(#G)" d="M321.41,117.26c2.46,1.78,3.95,5.13,3.95,9.74,0,10-7,22.2-15.71,27.21-4,2.31-7.64,2.68-10.41,1.45,2.88,2.08,7.08,2,11.75-.68,8.68-5,15.71-17.19,15.71-27.2C326.7,122.37,324.65,118.71,321.41,117.26Z"></path><path fill="url(#H)" d="M318.49,108.45c-3.65-2.3-8.79-2.09-14.49,1.2C292.93,116.05,284,131.6,284,144.38c0,6.49,2.31,11,6,13.07h0l6.39,3.66c-3.36-2.2-5.43-6.57-5.43-12.69,0-12.79,9-28.33,20.05-34.73,5.42-3.13,10.33-3.48,13.94-1.53l-6.44-3.72Z"></path><path fill="#79b8f7" d="M311,135.38a1.81,1.81,0,0,1-3-1.71,6.62,6.62,0,0,1,3-5.16c1.65-.95,3-.18,3,1.71l2.71-1.56c0-3.07-1.85-4.58-4.34-3.84v-2.46l-2.71,1.56v2.46a12.76,12.76,0,0,0-4.34,8.86c0,1.75.59,3,1.67,3.66a4,4,0,0,0,4-.41c1.65-1,3-.18,3,1.71a6.6,6.6,0,0,1-3,5.16c-1.65.95-3,.18-3-1.71l-2.71,1.56c0,3.08,1.86,4.59,4.34,3.85v2.27l2.71-1.57V147.5a12.76,12.76,0,0,0,4.34-8.86C316.69,135,314.14,133.57,311,135.38Z" class="colorf7c479 svgShape"></path><path fill="#d647bc" d="M312.33,128.11a2.76,2.76,0,0,1,.31,1.34l1.34.77C314,128.88,313.3,128.11,312.33,128.11Z" class="colord67747 svgShape"></path><path fill="#ed5ad2" d="M313.93 134.38c-1-.77-2.57-.76-4.28.23a2.61 2.61 0 01-1.32.39 1.5 1.5 0 00.55.59 2.09 2.09 0 002.11-.21 4.08 4.08 0 013.93-.45l-1-.55zM312.33 138.09a2.63 2.63 0 01.31 1.34 6.62 6.62 0 01-3 5.16 2.79 2.79 0 01-1.34.4c.49.85 1.5 1 2.68.37a6.6 6.6 0 003-5.16C314 138.86 313.31 138.09 312.33 138.09z" class="colored995a svgShape"></path><path fill="#d647bc" d="M308.3,149.24v1.31l1.34.78v-2.27A4,4,0,0,1,308.3,149.24Z" class="colord67747 svgShape"></path><path fill="#ed5ad2" d="M312.35,123.87v.95a3.42,3.42,0,0,1,2.46.08l-1-.58h0A2.86,2.86,0,0,0,312.35,123.87Z" class="colored995a svgShape"></path><polygon fill="#ed5ad2" points="311.01 121.58 308.3 123.15 309.64 123.92 312.35 122.36 311.01 121.58" class="colored995a svgShape"></polygon><path fill="url(#I)" d="M304,134.46a4,4,0,0,0,1.67,3.67l1.22.69a4,4,0,0,1-1.55-3.58,12.76,12.76,0,0,1,4.34-8.86l-1.34-.77A12.76,12.76,0,0,0,304,134.46Z"></path><polygon fill="#d647bc" points="308.3 123.15 308.3 125.61 309.64 126.38 309.64 123.92 308.3 123.15" class="colord67747 svgShape"></polygon><path fill="#d647bc" d="M305.3,145.21l-1.34-.77a4.11,4.11,0,0,0,1.42,3.48h0l0,0a3.2,3.2,0,0,0,.51.29l.8.46A4.16,4.16,0,0,1,305.3,145.21Z" class="colord67747 svgShape"></path><polygon fill="#ed5ad2" points="308.01 143.65 306.67 142.88 303.96 144.44 305.3 145.21 308.01 143.65" class="colored995a svgShape"></polygon><polygon points="408.78 505.45 351.43 505.45 386.18 525.52 351.43 545.58 408.78 545.58 443.54 525.52 408.78 505.45" style="mix-blend-mode:multiply" fill="url(#J)"></polygon><polygon fill="#bfd0e1" points="359.82 487.55 394.57 507.62 386.18 492.4 351.43 472.34 359.82 487.55" class="colorbfc4e1 svgShape"></polygon><polygon fill="#bfd0e1" points="343.04 487.55 308.29 507.62 316.68 492.4 351.43 472.34 343.04 487.55" class="colorbfc4e1 svgShape"></polygon><polygon fill="#dae4ef" points="316.68 525.52 351.43 545.58 351.43 512.47 316.68 492.4 316.68 525.52" class="colordadfef svgShape"></polygon><polygon fill="#bfd0e1" points="316.68 512.68 351.43 532.75 351.43 512.47 316.68 492.4 316.68 512.68" class="colorbfc4e1 svgShape"></polygon><polygon fill="#6f6d91" points="310.76 513.63 345.51 533.69 351.43 512.47 316.68 492.4 310.76 513.63" class="color6d6d91 svgShape"></polygon><polygon fill="#a7bace" points="386.18 525.52 351.43 545.58 351.43 512.47 386.18 492.4 386.18 525.52" class="colora7aece svgShape"></polygon><polygon fill="#6f6d91" points="392.1 513.63 357.35 533.69 351.43 512.47 386.18 492.4 392.1 513.63" class="color6d6d91 svgShape"></polygon><polygon fill="#5b3d56" points="351.43 472.34 351.43 512.47 386.18 492.4 351.43 472.34" class="color3d3e5b svgShape"></polygon><polygon fill="#442844" points="316.68 492.4 351.43 512.47 351.43 512.47 351.43 472.34 316.68 492.4" class="color282a44 svgShape"></polygon><polygon fill="#a50b89" points="351.38 505.45 345.36 508.96 351.43 512.47 357.51 508.96 351.38 505.45" class="color4f4e6c svgShape"></polygon><polygon fill="#dae4ef" points="363.33 489.54 351.43 507.36 375.23 477.64 363.33 489.54" class="colordadfef svgShape"></polygon><polygon fill="#dae4ef" points="327.63 477.64 351.43 507.36 339.53 489.54 327.63 477.64" class="colordadfef svgShape"></polygon><polygon fill="#bfd0e1" points="339.53 489.54 351.43 507.36 363.33 489.54 339.53 489.54" class="colorbfc4e1 svgShape"></polygon><polygon fill="#bdd0e4" points="339.53 489.54 327.63 477.64 339.53 465.74 363.33 465.74 375.23 477.64 363.33 489.54 339.53 489.54" class="colorbdc1e4 svgShape"></polygon><polygon fill="#ffffff" points="344.54 477.3 337.65 470.41 344.54 463.52 358.32 463.52 365.2 470.41 358.32 477.3 344.54 477.3" class="colorffffff svgShape"></polygon><polygon fill="#dae4ef" points="339.53 489.54 344.54 477.3 358.32 477.3 363.33 489.54 339.53 489.54" class="colordadfef svgShape"></polygon><polygon points="339.53 472.66 344.54 463.52 358.32 463.52 363.33 472.66 339.53 472.66" style="mix-blend-mode:multiply" fill="url(#K)"></polygon><polygon fill="#ebf0f6" points="337.65 470.41 327.63 477.64 339.53 489.54 344.54 477.3 337.65 470.41" class="colorebeef6 svgShape"></polygon><polygon fill="#ebf0f6" points="327.63 477.64 337.65 470.41 344.54 463.52 339.53 465.74 327.63 477.64" class="colorebeef6 svgShape"></polygon><polygon fill="#ebf0f6" points="365.2 470.41 375.23 477.64 363.33 489.54 358.32 477.3 365.2 470.41" class="colorebeef6 svgShape"></polygon><polygon fill="#dae4ef" points="375.23 477.64 365.2 470.41 358.32 463.52 363.33 465.74 375.23 477.64" class="colordadfef svgShape"></polygon><polygon points="327.63 477.64 344.4 477.64 344.54 477.3 337.65 470.41 327.63 477.64" style="mix-blend-mode:screen" fill="url(#L)"></polygon><polygon points="375.23 477.64 358.46 477.64 363.33 489.54 375.23 477.64" style="mix-blend-mode:screen" fill="url(#M)"></polygon><path d="M716.51,505.87V454.06H642.76l-6.46,3.73h-8.4l-70.62,40.77-9.18,5.29c-4.91,2.84-16.86,5.14-26.69,5.14l-2.91,1.68h-3.12l-10.85,6.26,44.86,25.91h43.8l49.95-7.73h5.67l18.44-10.65h0L659.59,520H692Z" style="mix-blend-mode:multiply" fill="url(#N)"></path><path fill="#5b3d56" d="M553.11,532.66c-1.45-.83-2.34-2.62-2.34-5.17,0-5.1,3.58-11.3,8-13.84,2.21-1.28,4.2-1.4,5.65-.56s2.34,2.62,2.34,5.17a17.67,17.67,0,0,1-8,13.84C556.56,533.37,554.56,533.5,553.11,532.66Z" class="color3d3e5b svgShape"></path><path fill="#ffffff" d="M554.36,525.41a9.74,9.74,0,0,1,4.4-7.62c2.43-1.4,4.4-.26,4.4,2.54a9.71,9.71,0,0,1-4.4,7.62C556.33,529.36,554.36,528.22,554.36,525.41Z" class="colorffffff svgShape"></path><path fill="#442844" d="M550.77,527.49c0-5.1,3.58-11.3,8-13.84,2.21-1.28,4.2-1.4,5.65-.56l-6.12-3.53c-1.44-.84-3.44-.72-5.65.56-4.41,2.54-8,8.74-8,13.84,0,2.54.9,4.33,2.35,5.17l6.11,3.53C551.66,531.83,550.77,530,550.77,527.49Z" class="color282a44 svgShape"></path><path fill="#5b3d56" d="M617.87,495.27c-1.45-.83-2.34-2.62-2.34-5.17a17.67,17.67,0,0,1,8-13.84c2.21-1.28,4.2-1.4,5.65-.56s2.34,2.62,2.34,5.17a17.67,17.67,0,0,1-8,13.84C621.31,496,619.32,496.11,617.87,495.27Z" class="color3d3e5b svgShape"></path><path fill="#ffffff" d="M619.12,488a9.75,9.75,0,0,1,4.4-7.63c2.43-1.4,4.4-.26,4.4,2.54a9.71,9.71,0,0,1-4.4,7.62C621.09,492,619.12,490.83,619.12,488Z" class="colorffffff svgShape"></path><path fill="#442844" d="M615.53,490.1a17.67,17.67,0,0,1,8-13.84c2.21-1.28,4.2-1.4,5.65-.56l-6.11-3.53c-1.45-.84-3.45-.72-5.66.56a17.67,17.67,0,0,0-8,13.84c0,2.55.9,4.34,2.35,5.17l6.11,3.53C616.42,494.44,615.53,492.65,615.53,490.1Z" class="color282a44 svgShape"></path><path fill="#5b3d56" d="M600.47,505.32c-1.45-.84-2.34-2.63-2.34-5.18,0-5.09,3.58-11.29,8-13.84,2.21-1.27,4.2-1.39,5.65-.56s2.34,2.63,2.34,5.18c0,5.09-3.58,11.29-8,13.84C603.91,506,601.92,506.15,600.47,505.32Z" class="color3d3e5b svgShape"></path><path fill="#ffffff" d="M601.72,498.07a9.71,9.71,0,0,1,4.4-7.62c2.43-1.4,4.4-.27,4.4,2.54a9.71,9.71,0,0,1-4.4,7.62C603.69,502,601.72,500.88,601.72,498.07Z" class="colorffffff svgShape"></path><path fill="#442844" d="M598.13,500.14c0-5.09,3.58-11.29,8-13.84,2.21-1.27,4.2-1.39,5.65-.56l-6.12-3.53c-1.44-.83-3.44-.71-5.65.56-4.41,2.55-8,8.75-8,13.84,0,2.55.9,4.34,2.35,5.18l6.11,3.53C599,504.48,598.13,502.69,598.13,500.14Z" class="color282a44 svgShape"></path><polygon fill="#6f6d91" points="639.89 460.39 569.27 501.17 527.92 477.29 598.54 436.52 639.89 460.39" class="color6d6d91 svgShape"></polygon><polygon fill="#a50b89" points="639.89 467.28 569.27 508.05 569.27 501.17 639.89 460.39 639.89 467.28" class="color4f4e6c svgShape"></polygon><polygon fill="#f4f6f8" points="569.27 508.05 527.92 484.18 527.92 477.29 569.27 501.17 569.27 508.05" class="color61607d svgShape"></polygon><polygon fill="#79b8f7" points="646.35 416.12 576.94 456.19 532.07 430.29 601.47 390.21 646.35 416.12" class="colorf7c479 svgShape"></polygon><polygon fill="#ffffff" points="627.67 405.34 558.26 445.41 550.74 441.07 620.15 401 627.67 405.34" class="colorffffff svgShape"></polygon><polygon fill="#ed5ad2" points="646.35 458.7 576.94 498.77 576.94 456.19 646.35 416.12 646.35 458.7" class="colored995a svgShape"></polygon><polygon fill="#78b5f3" points="576.94 498.77 532.07 472.87 532.07 430.29 576.94 456.19 576.94 498.77" class="colorf3b378 svgShape"></polygon><polygon fill="#5b3d56" points="642.4 453.43 640.55 456.64 640.55 449.61 639.4 450.27 639.4 457.3 637.55 456.23 636.74 457.63 639.98 459.5 643.21 453.9 642.4 453.43" class="color3d3e5b svgShape"></polygon><polygon fill="#5b3d56" points="634.18 458.18 632.33 461.39 632.33 454.36 631.18 455.02 631.18 462.05 629.33 460.98 628.52 462.38 631.76 464.25 634.99 458.65 634.18 458.18" class="color3d3e5b svgShape"></polygon><polygon fill="#dae4ef" points="595.02 452.07 580.85 460.25 580.85 458.23 595.02 450.04 595.02 452.07" class="colordadfef svgShape"></polygon><polygon fill="#dae4ef" points="589.92 459.42 580.85 464.66 580.85 462.63 589.92 457.39 589.92 459.42" class="colordadfef svgShape"></polygon><polygon fill="#dae4ef" points="558.26 445.41 558.26 454.79 550.74 450.44 550.74 441.07 558.26 445.41" class="colordadfef svgShape"></polygon><path fill="#a50b89" d="M568,507.29V469.7l-18.43,10.65v3.27l-13.4,28.84v23.48L549.88,528c0-5.68,4-12.57,8.9-15.41Z" class="color4f4e6c svgShape"></path><polygon fill="#bfd0e1" points="565.06 495.76 538.23 511.25 551.62 482.41 565.06 474.65 565.06 495.76" class="colorbfc4e1 svgShape"></polygon><polygon fill="#a50b89" points="565.06 505.8 550.54 514.18 550.54 504.14 565.06 495.76 565.06 505.8" class="color4f4e6c svgShape"></polygon><polygon fill="#a50b89" points="552.17 482.09 551.62 482.41 550.54 484.72 550.54 504.14 552.17 503.2 552.17 482.09" class="color4f4e6c svgShape"></polygon><polygon fill="#6f6d91" points="549.52 480.35 510.81 458 529.24 447.35 567.96 469.7 549.52 480.35" class="color6d6d91 svgShape"></polygon><polygon fill="#f4f6f8" points="510.81 461.27 549.52 483.62 549.52 480.35 510.81 458 510.81 461.27" class="color61607d svgShape"></polygon><path fill="#e3eaf1" d="M534.38,511.46l-35.23-20.34q6.71-14.43,13.4-28.84l35.23,20.34Q541.09,497,534.38,511.46Z" class="colore3e6f1 svgShape"></path><path fill="#6f6d91" d="M534.38 511.46l1.74 1q6.71-14.42 13.4-28.84l-1.74-1Q541.09 497 534.38 511.46zM497.41 490.11l1.74 1q6.71-14.43 13.4-28.84l-1.74-1Q504.1 475.7 497.41 490.11z" class="color6d6d91 svgShape"></path><polygon fill="#f4f6f8" points="536.12 512.46 536.12 535.94 497.41 513.59 497.41 490.11 536.12 512.46" class="color61607d svgShape"></polygon><path fill="#5b3d56" d="M525.88,513.77v7l-18.22-10.52v-7c0-1.49,1-2.1,2.34-1.35l13.53,7.81A5.18,5.18,0,0,1,525.88,513.77Z" class="color3d3e5b svgShape"></path><polygon fill="#ffffff" points="534.38 520.66 527.64 516.76 527.64 513.72 534.38 517.61 534.38 520.66" class="colorffffff svgShape"></polygon><polygon fill="#a50b89" points="534.38 524.16 531.01 522.21 531.01 520.69 534.38 522.63 534.38 524.16" class="color4f4e6c svgShape"></polygon><polygon fill="#a50b89" points="499.15 503.82 502.52 505.76 502.52 504.24 499.15 502.29 499.15 503.82" class="color4f4e6c svgShape"></polygon><polygon fill="#ffffff" points="499.15 500.32 505.9 504.21 505.9 501.16 499.15 497.27 499.15 500.32" class="colorffffff svgShape"></polygon><polygon fill="#bdd0e4" points="536.12 528.49 546.97 522.23 546.97 531.48 536.12 537.75 536.12 528.49" class="colorbdc1e4 svgShape"></polygon><polygon fill="#d0e3f6" points="494.28 504.33 536.12 528.49 536.12 537.75 494.28 513.59 494.28 504.33" class="colord0d4f6 svgShape"></polygon><polygon fill="#f7f9fc" points="497.41 502.53 494.28 504.33 536.12 528.49 546.97 522.23 545.41 521.32 536.12 526.69 497.41 504.33 497.41 502.53" class="colorf7f7fc svgShape"></polygon><path d="M542.18,479.39l-37.1,15.15,3.9,2.25,37.1-15.15Zm-29.61,19.47,2.56,1.48L545.26,488c.48-1,1-2.08,1.45-3.12Zm0-36.58q-6.7,14.42-13.4,28.84L536.25,476Z" style="mix-blend-mode:screen" fill="url(#O)"></path><polygon points="257.72 423.13 220.82 423.13 216.3 430.75 257.72 430.75 257.72 423.13" style="mix-blend-mode:multiply" fill="url(#f)"></polygon><polygon points="268.56 413.11 231.65 413.11 227.13 417.95 268.56 417.95 268.56 413.11" style="mix-blend-mode:multiply" fill="url(#P)"></polygon><polygon fill="#ed5ad2" points="218.14 391.31 203.3 399.88 202.36 376.53 217.19 367.97 218.14 391.31" class="colored995a svgShape"></polygon><polygon fill="#79b8f7" points="203.3 399.88 200.02 397.98 200.92 375.7 201.66 376.13 202.36 376.53 203.3 399.88" class="colorf7c479 svgShape"></polygon><polygon fill="#ba38a2" points="200.92 375.7 202.36 376.53 215.75 368.8 215.75 367.13 200.92 375.7" class="colorba6038 svgShape"></polygon><path fill="#442844" d="M206.46,376.1a.23.23,0,0,1-.23-.23v-4.52a8,8,0,0,1,3.62-6.26,2.35,2.35,0,0,1,3.84,2.22v4.52a.23.23,0,1,1-.46,0v-4.52a1.91,1.91,0,0,0-3.15-1.82,7.46,7.46,0,0,0-3.39,5.86v4.52A.23.23,0,0,1,206.46,376.1Z" class="color282a44 svgShape"></path><polygon fill="#d647bc" points="215.75 367.13 215.75 368.8 217.19 367.97 215.75 367.13" class="colord67747 svgShape"></polygon><path fill="#afd2f6" d="M216.39,335.77c.06-4.17-5.74-2.44-5.07,3.89.83,7.84,1.22,11.57.71,14.33-.72,2.2-2.1,5.65-3.06,9.25-.23.74-1.14,1.41-1.48,2.59a6.49,6.49,0,0,0,.15,2.73c.36,1.7,1.39.68,1.39.68a.79.79,0,0,0,1,.16,1,1,0,0,0,1.23,0c.47-.41.73.78,1.4-.35s.55-3.12-.11-5v-.13c.94-2.19,3.47-7.21,3.36-7.25C218,351.66,215.93,341.09,216.39,335.77Z" class="colorf6d3af svgShape"></path><path fill="url(#g)" d="M230.28,406c1.4-1,3.6.67,4.16,2.47a6.62,6.62,0,0,1-.55,2.07s-2.33,5.19-3.13,6.08-4,2.15-5.56.83c-1.12-1.44,1.09-2.31,1.5-3.73.52-1.86.3-3.35.81-4.75C227.94,407.86,230.28,406,230.28,406Z"></path><path fill="#442844" d="M234.31,408.15v0a6.26,6.26,0,0,1-.55,2.07s-2.33,5.2-3.12,6.08-4,2.16-5.57.83a1.58,1.58,0,0,1-.15-.24,1.35,1.35,0,0,0,.28.58c1.55,1.32,4.77.06,5.56-.83s3.13-6.08,3.13-6.08a6.62,6.62,0,0,0,.55-2.07C234.4,408.39,234.36,408.27,234.31,408.15Z" class="color282a44 svgShape"></path><path fill="#afd2f6" d="M226.45,407.22a28.33,28.33,0,0,1,3.5-1.49,1.58,1.58,0,0,0,.63.47l.13,0a1.31,1.31,0,0,1,1.17,2.06c-1.51,2.72-5,2.62-4.61,1.33C227.53,408.77,226.81,407.75,226.45,407.22Z" class="colorf6d3af svgShape"></path><path fill="#a50b89" d="M227.2,410.34c-.1-.43-.23-1.36.87-1.51s2.45.37,2.35,1C230.19,411.28,227.31,410.77,227.2,410.34Z" class="color4f4e6c svgShape"></path><path fill="url(#Q)" d="M230,405.52c-1.31-1.76-9.8-13.55-14.36-15.16,1.53-6.43,5.82-15.1,4.56-22H210.5s-5.76,20.4-2.08,25.26C211.21,397.32,222.6,406,227.2,409,229.55,409.92,230.8,406.89,230,405.52Z"></path><path fill="#ffffff" d="M227.11 412.27a3.65 3.65 0 012.22.14.48.48 0 00.4-.88 4.54 4.54 0 00-2.91-.18.48.48 0 10.29.92zM226.6 414a3.58 3.58 0 012.22.14.48.48 0 10.4-.88 4.55 4.55 0 00-2.91-.18.48.48 0 10.29.92z" class="colorffffff svgShape"></path><path fill="url(#R)" d="M223.26,422.72c1.67.27,2.15,3,1.32,4.65a6.45,6.45,0,0,1-1.83,1.12s-5.27,2.16-6.45,2.26-3.82-.35-4-2.38c.2-1.23,1.24-1.57,2.52-2.33,1.66-1,3.08-2.42,4.42-3.08C220.31,422.42,223.26,422.72,223.26,422.72Z"></path><path fill="#442844" d="M216.34,430.21c1.22-.1,6.64-2.32,6.64-2.32a6.92,6.92,0,0,0,1.82-1.11,3.77,3.77,0,0,1-.22.59,6.45,6.45,0,0,1-1.83,1.12s-5.27,2.16-6.45,2.26-3.82-.35-4-2.38a.7.7,0,0,1,0-.12C212.86,429.92,215.22,430.3,216.34,430.21Z" class="color282a44 svgShape"></path><path fill="#afd2f6" d="M219.67,420.93a30.12,30.12,0,0,1,3.56,1.33,1.65,1.65,0,0,0,.14.78l.06.12c.5.48,1,1.34-.5,1.82-3,.93-5.49-1.06-4.33-1.73C219.38,422.8,219.57,421.56,219.67,420.93Z" class="colorf6d3af svgShape"></path><path fill="#a50b89" d="M218.1,423.65c.22-.29.73-1.08,1.64-.43a2.15,2.15,0,0,1,1,2.16c-.11.67-2.06.18-2.14.07S218.1,423.65,218.1,423.65Z" class="color4f4e6c svgShape"></path><path fill="#ffffff" d="M217.2 424.49a4 4 0 011.77 1.72.54.54 0 00.71.26.55.55 0 00.26-.72 5 5 0 00-2.32-2.24.53.53 0 10-.42 1zM215.56 425.54a4 4 0 011.76 1.72.54.54 0 101-.46 5 5 0 00-2.32-2.24.53.53 0 00-.7.28A.54.54 0 00215.56 425.54z" class="colorffffff svgShape"></path><path fill="url(#S)" d="M219,368.05c0,9.12-.1,19.32-.1,27.28,0,9.11,0,18.66.1,26.3-.09,2.34,3.54,2.63,4.66.57,1-6.94,2.77-15.39,2.24-23,2.3-10,6.15-22.77,5.21-30.59C228.93,369.35,221.23,367.35,219,368.05Z"></path><path fill="url(#T)" d="M228,355.53c-.41-7.08,4.55-21.24,3.57-22-3.3-2.65-5.38-3.14-10.67-3s-7.77,1.22-8.85,4.86c-1,3.43-1.73,4.48-2.57,7.84-.37,1.51.81,6.1,1.12,10.92.38,5.83.47,11-.66,15.66.83.34,1.27.57,2.93,1.14a49.1,49.1,0,0,1,17.77,10.52c.49-3.31,1.58-8.06,1.06-12.79C231.13,363.37,228.21,359.09,228,355.53Z"></path><polygon fill="#ed5ad2" points="240.9 398.07 226.07 406.63 225.13 383.28 239.96 374.72 240.9 398.07" class="colored995a svgShape"></polygon><polygon fill="#79b8f7" points="226.07 406.63 222.79 404.74 223.68 382.45 224.43 382.88 225.13 383.28 226.07 406.63" class="colorf7c479 svgShape"></polygon><polygon fill="#ba38a2" points="223.68 382.45 225.13 383.28 238.52 375.55 238.52 373.89 223.68 382.45" class="colorba6038 svgShape"></polygon><polygon fill="#dae4ef" points="239.97 397.16 237.09 398.82 237.06 398.01 239.94 396.35 239.97 397.16" class="colordadfef svgShape"></polygon><polygon fill="#dae4ef" points="239.9 395.54 238.55 396.32 238.52 395.51 239.87 394.73 239.9 395.54" class="colordadfef svgShape"></polygon><path fill="#442844" d="M229.23,382.85a.23.23,0,0,1-.23-.23V378.1a8,8,0,0,1,3.61-6.26,2.36,2.36,0,0,1,3.84,2.22v4.53a.23.23,0,0,1-.23.23.24.24,0,0,1-.23-.23v-4.53a1.91,1.91,0,0,0-3.15-1.82,7.5,7.5,0,0,0-3.38,5.86v4.52A.23.23,0,0,1,229.23,382.85Z" class="color282a44 svgShape"></path><polygon fill="#d647bc" points="238.52 373.89 238.52 375.55 239.96 374.72 238.52 373.89" class="colord67747 svgShape"></polygon><path fill="#afd2f6" d="M237.16 355.39c-.16-2.05-2.67-17.45-4.7-21-.86-1.51-2.68-2.3-3.65-2.76-1.93.13-3.9 2.76-3.26 6.09a6.28 6.28 0 002.72 4.42c1.76 3.71 3.3 11.5 4.1 14.19.2 1.84-.52 9.8-.73 12.16-.08 1.24-2 2.87-1.4 5.68.36 1.7 1.4.69 1.4.69a.78.78 0 001 .15 1 1 0 001.22 0c.48-.41.74.79 1.41-.34s.55-3.13-.11-5.05C234.92 364.44 237.44 359 237.16 355.39zM223 323.42c-.1-1.63-5.67 1.61-5.54 3.76.1 1.75.33 3.51-.33 3.73-1.61 1.17 1.4 3.09 9.81 0C225.2 330.59 223.28 328.69 223 323.42z" class="colorf6d3af svgShape"></path><path fill="#afd2f6" d="M224.32,321.17l-1.68-4.2H212v6.4c0,3.53,2.38,6.39,5.31,6.39s5.15-2.7,5.29-6.08l.74,0Z" class="colorf6d3af svgShape"></path><path fill="#a3c7eb" d="M221.7,327a5.14,5.14,0,0,1-4.15,2.8,1.46,1.46,0,0,1-.33,1.08,4,4,0,0,0,.9-.11A5.08,5.08,0,0,0,221.7,327Z" class="colorebc5a3 svgShape"></path><path fill="#565293" d="M218,312.51h-.1c-5.8.15-6.23,4.48-5.91,5.2,1.84.66,3-.59,4.15-.5.56.05,2.82.36,3.76,1.55s.68,3.35,1.63,3.31c.41,0,.54-1.4,1.15-1.44a1,1,0,0,1,1,1.24c-.08,1.07-1.09,1.71-.94,2.23.25.84,2.37-.68,2.33-3.7S223,312.31,218,312.51Z" class="color525793 svgShape"></path><path fill="#565293" d="M219.46,312.61c6.48,1.49,5.95,6.38,8.33,8,1.43,1,4.61-.85,6.47,2.37,2.14,3.71-1.33,5.05.94,6.62s4,6.35.23,9.29-8.51.36-8-3.94c.38-3.1-.54-4.7-3.14-3.7-1.95.75-2.69-.79-1.82-2.77-4.33.43.21-7.83-6.33-11.25C216.42,315.53,219.46,312.61,219.46,312.61Z" class="color525793 svgShape"></path><rect width="39.7" height="7.3" x="398.37" y="447.04" style="mix-blend-mode:multiply" fill="url(#U)"></rect><rect width="39.7" height="7.3" x="380.1" y="436.52" style="mix-blend-mode:multiply" fill="url(#V)"></rect><path fill="url(#h)" d="M375.9,441.56c0-5.73,3.64-5.9,3.64-5.9a15.08,15.08,0,0,0,5.16-1.32c3.15-1.31,7.6-.8,5.11,3.78l-.08.17a2.32,2.32,0,0,1-.81.7L381,443.65C379.77,444.34,375.93,442.74,375.9,441.56Z"></path><path fill="#442844" d="M375.92,441.05c.07,1.18,3.86,2.74,5.06,2.06l7.94-4.66a7.12,7.12,0,0,0,1.12-.81c-.07.15-.14.31-.23.48l-.08.17a2.32,2.32,0,0,1-.81.7L381,443.65c-1.13.65-4.57-.72-5-1.86a1.11,1.11,0,0,1,0-.23A4.34,4.34,0,0,1,375.92,441.05Z" class="color282a44 svgShape"></path><path fill="#ffffff" d="M377.38,434.91a33.4,33.4,0,0,1,4.23.84,1.84,1.84,0,0,0,.29.85l.09.11c.65.45,1.31,1.17-.23,2.14a2.13,2.13,0,0,1-2.77-.2,2.58,2.58,0,0,0-.9-1,2.18,2.18,0,0,0-.86-.36.21.21,0,0,0,0-.08S377,434.91,377.38,434.91Z" class="colorffffff svgShape"></path><path fill="#5b3d56" d="M377.32,378.86l16.15.29c-1.34,10.79-4,20.59-5.82,31-1.93,10.15-4.1,17.29-6,25.74-.7,1.57-3.87,1-4.51-.54-.51-7.78-1.08-17.26,1.22-26.24C378,399.47,377.1,388.64,377.32,378.86Z" class="color3d3e5b svgShape"></path><path fill="url(#W)" d="M394,452.09c0-5.73,3.63-5.89,3.63-5.89a14.93,14.93,0,0,0,5.16-1.33c3.15-1.31,7.6-.8,5.12,3.78l-.09.17a2.14,2.14,0,0,1-.81.7l-7.93,4.66C397.87,454.87,394,453.27,394,452.09Z"></path><path fill="#442844" d="M394,451.58c.07,1.18,3.86,2.74,5.06,2.06L407,449a6.69,6.69,0,0,0,1.12-.81c-.07.16-.13.31-.22.48l-.09.17a2.14,2.14,0,0,1-.81.7l-7.93,4.66c-1.13.65-4.58-.71-5-1.86a1.11,1.11,0,0,1,0-.23A4.3,4.3,0,0,1,394,451.58Z" class="color282a44 svgShape"></path><path fill="#ffffff" d="M395.47,445.44a33,33,0,0,1,4.23.84,1.75,1.75,0,0,0,.3.85l.09.11c.65.46,1.31,1.17-.23,2.14a2.14,2.14,0,0,1-2.78-.2,2.63,2.63,0,0,0-.89-1,2.3,2.3,0,0,0-.86-.36s0-.08,0-.08S395.08,445.44,395.47,445.44Z" class="colorffffff svgShape"></path><path fill="url(#X)" d="M388.71,404.52c-1-4.64-12.3-5.22-11.56-23.45,3.55-.52,21.47,7.88,25,7.35.44,10.87-.61,21-.67,31.57-.25,10.33-1.22,17.73-1.71,26.37-.43,1.67-3.66,1.6-4.54.21-1.77-7.59-3.88-16.85-3.07-26.09C391.12,415.37,389.86,410,388.71,404.52Z"></path><path fill="url(#i)" d="M385.34,345.66c-12.63,8.44-14.14,25.21-7.31,35.85C378,381.51,376.56,357.93,385.34,345.66Z"></path><path fill="url(#Y)" d="M384.77,391.41c7.69,4.31,15.73,4.32,18.48-1-1-9.88-2-17.92,0-27.39-.58-5.23-1-6-.33-9.06-.23-1-3.38-3.21-5.67-5.3-2.48-2.26-4.15-4.41-5.43-4.67-10.51-2.15-15.62,16.59-14.74,36.57A14.55,14.55,0,0,0,384.77,391.41Z"></path><path fill="#afd2f6" d="M386,345.19c2.28-1.65,1.95-2.73,1.6-5a11.23,11.23,0,0,1-.68-3.87c0-5,3.18-9.32,7.08-9.05,7.86.54,6.46,4.68,6.46,9.67,0,4.63-2.1,7.82-5.61,8.36,0,.76.2,1.19,1.16,2.15-2.57,1.54-6.32.81-7.8.14S384.91,346.3,386,345.19Z" class="colorf6d3af svgShape"></path><path fill="#565293" d="M396.92,324.66c-.22-.61-1.44-.94-5.38.9l-1,.48c-7.26,3.74-4.87,12.25-3.6,14.47a4.68,4.68,0,0,1,.77,2.68c2.94-.32,4,1.27,5.76-.5,1.27-1.27,3.2-2.8,3.5-3.4a2.33,2.33,0,0,0,.18-1.45c-.27-4.14,1.81-1.74,1.81-.79.76-.43.59-2.09.42-3.94h0C405.39,327.94,401.76,324.9,396.92,324.66Z" class="color525793 svgShape"></path><path fill="#afd2f6" d="M402.33,394.08a2.59,2.59,0,0,1-3.8.12c-1.25-1.31-.53-2.76-1.22-3.2-1.86-1.2-2.29-2.32-2-3.45,1.49.95,3,2.47,4.32,1.54s3-2.19,3.09-3.5c1.94.44,2,4.64,1,6.32A17.45,17.45,0,0,1,402.33,394.08Z" class="colorf6d3af svgShape"></path><path fill="url(#Z)" d="M399.72,390.78c-1,2.34-.29,3.78,2.06,4.05,5.87-3,9.29-11.44,9.39-16.07.17-7.72-3.58-17.42-8.35-25-1.1-1.64-4.67-1-6.43,1.3-2.38,3.14-1.36,7.71,0,9.56,3.45,5.52,7.3,9.62,7.67,14C404.39,382.73,402.72,388.12,399.72,390.78Z"></path></g></g></g></svg>