<svg xmlns="http://www.w3.org/2000/svg" xmlns:xlink="http://www.w3.org/1999/xlink" viewBox="0 0 800 600" id="Womancustomerorbuyerwithshoppingcart,shield,book"><defs><linearGradient id="a" x1="443.46" x2="559.84" y1="458.58" y2="458.58" gradientTransform="translate(-308.24)" gradientUnits="userSpaceOnUse"><stop offset="0" stop-color="#c4d4e5" class="stopColorc4c9e5 svgShape"></stop><stop offset=".64" stop-color="#edf2f7" class="stopColoredeff7 svgShape"></stop><stop offset="1" stop-color="#ffffff" class="stopColorffffff svgShape"></stop></linearGradient><linearGradient id="j" x1="734.34" x2="850.72" y1="496.92" y2="496.92" gradientTransform="translate(-226.98)" xlink:href="#a"></linearGradient><linearGradient id="k" x1="580.29" x2="754.32" y1="245.68" y2="245.68" gradientTransform="translate(-226.98)" gradientUnits="userSpaceOnUse"><stop offset="0" stop-color="#c4d4e5" class="stopColorc4c9e5 svgShape"></stop><stop offset=".07" stop-color="#cad9e8" class="stopColorcacee8 svgShape"></stop><stop offset=".44" stop-color="#e7edf4" class="stopColore7e9f4 svgShape"></stop><stop offset=".76" stop-color="#f9fafc" class="stopColorf9f9fc svgShape"></stop><stop offset="1" stop-color="#ffffff" class="stopColorffffff svgShape"></stop></linearGradient><linearGradient id="l" x1="596.36" x2="744.03" y1="406.47" y2="406.47" gradientUnits="userSpaceOnUse"><stop offset="0" stop-color="#d1e2f3" class="stopColord1d7f3 svgShape"></stop><stop offset=".08" stop-color="#d6e5f4" class="stopColord6dbf4 svgShape"></stop><stop offset=".67" stop-color="#f4f8fc" class="stopColorf4f5fc svgShape"></stop><stop offset="1" stop-color="#ffffff" class="stopColorffffff svgShape"></stop></linearGradient><linearGradient id="b" x1="610.13" x2="634.23" y1="280.11" y2="238.37" gradientUnits="userSpaceOnUse"><stop offset="0" stop-color="#f6f8fb" class="stopColorf6f6fb svgShape"></stop><stop offset="1" stop-color="#cee3f8" class="stopColorced3f8 svgShape"></stop></linearGradient><linearGradient id="m" x1="561.93" x2="586.03" y1="307.93" y2="266.2" xlink:href="#b"></linearGradient><linearGradient id="n" x1="206.06" x2="382.22" y1="361.46" y2="361.46" gradientUnits="userSpaceOnUse"><stop offset="0" stop-color="#d1e0f0" class="stopColord1d6f0 svgShape"></stop><stop offset=".1" stop-color="#d6e4f2" class="stopColord6daf2 svgShape"></stop><stop offset=".98" stop-color="#ffffff" class="stopColorffffff svgShape"></stop></linearGradient><linearGradient id="o" x1="115.69" x2="128.62" y1="360.76" y2="338.36" gradientUnits="userSpaceOnUse"><stop offset=".64" stop-color="#342e93" class="stopColor362e93 svgShape"></stop><stop offset=".74" stop-color="#3f38a3" class="stopColor3f38a3 svgShape"></stop><stop offset="1" stop-color="#5a52cc" class="stopColor5652cc svgShape"></stop></linearGradient><linearGradient id="c" x1="481.3" x2="555.76" y1="398.8" y2="398.8" gradientUnits="userSpaceOnUse"><stop offset="0" stop-color="#c4d6e8" class="stopColorc4cae8 svgShape"></stop><stop offset=".09" stop-color="#ceddec" class="stopColorced3ec svgShape"></stop><stop offset=".41" stop-color="#e9eff6" class="stopColore9ebf6 svgShape"></stop><stop offset=".69" stop-color="#f9fbfd" class="stopColorf9fafd svgShape"></stop><stop offset=".9" stop-color="#ffffff" class="stopColorffffff svgShape"></stop></linearGradient><linearGradient id="p" x1="500.78" x2="575.24" y1="378.29" y2="378.29" xlink:href="#c"></linearGradient><linearGradient id="d" x1="742.77" x2="759.2" y1="594.71" y2="585.91" gradientTransform="matrix(-.83 .56 .56 .83 793.71 -538.9)" gradientUnits="userSpaceOnUse"><stop offset="0" stop-color="#6f196f" class="stopColor20196f svgShape"></stop><stop offset=".51" stop-color="#312b8e" class="stopColor302b8e svgShape"></stop><stop offset="1" stop-color="#453eaf" class="stopColor423eaf svgShape"></stop></linearGradient><linearGradient id="q" x1="488.91" x2="525.96" y1="349.24" y2="349.24" gradientTransform="rotate(-7.56 354.161 520.57)" gradientUnits="userSpaceOnUse"><stop offset="0" stop-color="#453eaf" class="stopColor423eaf svgShape"></stop><stop offset=".15" stop-color="#3c35a0" class="stopColor3a35a0 svgShape"></stop><stop offset=".48" stop-color="#2c2685" class="stopColor2c2685 svgShape"></stop><stop offset=".78" stop-color="#751c75" class="stopColor231c75 svgShape"></stop><stop offset="1" stop-color="#6f196f" class="stopColor20196f svgShape"></stop></linearGradient><linearGradient id="r" x1="824.91" x2="839.81" y1="477.34" y2="469.35" gradientTransform="matrix(-.99 -.16 -.16 .99 1383.92 65.5)" xlink:href="#d"></linearGradient><linearGradient id="s" x1="478.7" x2="504.72" y1="338.67" y2="344.79" gradientUnits="userSpaceOnUse"><stop offset="0" stop-color="#453eaf" class="stopColor423eaf svgShape"></stop><stop offset=".5" stop-color="#302a8d" class="stopColor302a8d svgShape"></stop><stop offset="1" stop-color="#6f196f" class="stopColor20196f svgShape"></stop></linearGradient><linearGradient id="e" x1="382.63" x2="409.32" y1="475.69" y2="475.69" gradientUnits="userSpaceOnUse"><stop offset="0" stop-color="#c4d6e8" class="stopColorc4cae8 svgShape"></stop><stop offset=".28" stop-color="#d8e4f0" class="stopColord8dcf0 svgShape"></stop><stop offset=".74" stop-color="#f4f6f8" class="stopColorf4f6fb svgShape"></stop><stop offset="1" stop-color="#ffffff" class="stopColorffffff svgShape"></stop></linearGradient><linearGradient id="t" x1="330.01" x2="356.69" y1="445.04" y2="445.04" xlink:href="#e"></linearGradient><linearGradient id="u" x1="457.74" x2="484.42" y1="431.68" y2="431.68" xlink:href="#e"></linearGradient><linearGradient id="f" x1="456.89" x2="469.44" y1="419.15" y2="419.15" gradientUnits="userSpaceOnUse"><stop offset="0" stop-color="#d8e4f0" class="stopColord8def0 svgShape"></stop><stop offset=".54" stop-color="#c7d7e8" class="stopColorc7cde8 svgShape"></stop><stop offset="1" stop-color="#bdd0e3" class="stopColorbdc3e3 svgShape"></stop></linearGradient><linearGradient id="g" x1="460.49" x2="465.85" y1="415.91" y2="415.91" gradientUnits="userSpaceOnUse"><stop offset="0" stop-color="#cee3f8" class="stopColorced3f8 svgShape"></stop><stop offset=".4" stop-color="#c5daef" class="stopColorc5caef svgShape"></stop><stop offset="1" stop-color="#bbd0e6" class="stopColorbbc0e6 svgShape"></stop></linearGradient><linearGradient id="v" x1="381.21" x2="393.77" y1="462.75" y2="462.75" xlink:href="#f"></linearGradient><linearGradient id="w" x1="384.81" x2="390.17" y1="459.52" y2="459.52" xlink:href="#g"></linearGradient><linearGradient id="x" x1="328.55" x2="341.11" y1="432.13" y2="432.13" xlink:href="#f"></linearGradient><linearGradient id="y" x1="332.15" x2="337.51" y1="428.9" y2="428.9" xlink:href="#g"></linearGradient><linearGradient id="z" x1="337.55" x2="380.01" y1="419.87" y2="460.8" gradientUnits="userSpaceOnUse"><stop offset="0" stop-color="#cee3f8" class="stopColorced3f8 svgShape"></stop><stop offset=".86" stop-color="#ecf1f6" class="stopColorecedf6 svgShape"></stop><stop offset="1" stop-color="#f1f3f6" class="stopColorf1f1f6 svgShape"></stop></linearGradient><linearGradient id="A" x1="456.29" x2="459.29" y1="308.51" y2="303.31" gradientUnits="userSpaceOnUse"><stop offset="0" stop-color="#342e94" class="stopColor362e94 svgShape"></stop><stop offset=".02" stop-color="#363096" class="stopColor373096 svgShape"></stop><stop offset=".46" stop-color="#554ec3" class="stopColor534ec3 svgShape"></stop><stop offset=".8" stop-color="#6860df" class="stopColor6560df svgShape"></stop><stop offset="1" stop-color="#6f67e9" class="stopColor6b67e9 svgShape"></stop></linearGradient><linearGradient id="B" x1="317.47" x2="485.99" y1="401.05" y2="401.05" gradientUnits="userSpaceOnUse"><stop offset="0" stop-color="#d8e4f0" class="stopColord8def0 svgShape"></stop><stop offset=".26" stop-color="#ecf1f7" class="stopColoreceef7 svgShape"></stop><stop offset=".46" stop-color="#f6f8fb" class="stopColorf6f6fb svgShape"></stop></linearGradient><linearGradient id="C" x1="451.28" x2="509.47" y1="276.57" y2="276.57" gradientUnits="userSpaceOnUse"><stop offset="0" stop-color="#fc06cf" class="stopColorfcba06 svgShape"></stop><stop offset=".9" stop-color="#e401bb" class="stopColore49501 svgShape"></stop><stop offset="1" stop-color="#e100b8" class="stopColore19100 svgShape"></stop></linearGradient><linearGradient id="D" x1="160.69" x2="334.55" y1="294.91" y2="294.91" gradientUnits="userSpaceOnUse"><stop offset="0" stop-color="#c6d6e7" class="stopColorc6cbe7 svgShape"></stop><stop offset=".06" stop-color="#c9d8e8" class="stopColorc9cee8 svgShape"></stop><stop offset=".66" stop-color="#e6ecf2" class="stopColore6e7f2 svgShape"></stop><stop offset="1" stop-color="#f1f3f6" class="stopColorf1f1f6 svgShape"></stop></linearGradient><linearGradient id="E" x1="228" x2="284.91" y1="294.56" y2="294.56" gradientUnits="userSpaceOnUse"><stop offset=".45" stop-color="#c2d3e5" class="stopColorc2c9e5 svgShape"></stop><stop offset="1" stop-color="#ffffff" class="stopColorffffff svgShape"></stop></linearGradient><linearGradient id="h" x1="213" x2="269.01" y1="279.66" y2="279.66" gradientUnits="userSpaceOnUse"><stop offset="0" stop-color="#fc06cf" class="stopColorfcba06 svgShape"></stop><stop offset="1" stop-color="#dc00b4" class="stopColordc8b00 svgShape"></stop></linearGradient><linearGradient id="F" x1="263.01" x2="206.53" y1="311.68" y2="275.22" gradientUnits="userSpaceOnUse"><stop offset="0" stop-color="#dc00b4" class="stopColordc8b00 svgShape"></stop><stop offset="1" stop-color="#fc06cf" class="stopColorfcba06 svgShape"></stop></linearGradient><linearGradient id="G" x1="230.2" x2="245.72" y1="291.82" y2="291.82" xlink:href="#h"></linearGradient><linearGradient id="i" x1="316.36" x2="392.26" y1="525.56" y2="525.56" gradientUnits="userSpaceOnUse"><stop offset=".4" stop-color="#c6d6e7" class="stopColorc6cbe7 svgShape"></stop><stop offset=".64" stop-color="#d9e4ef" class="stopColord9ddef svgShape"></stop><stop offset="1" stop-color="#ffffff" class="stopColorffffff svgShape"></stop></linearGradient><linearGradient id="H" x1="604.35" x2="563.74" y1="135.55" y2="68.61" gradientTransform="matrix(.5 .87 .87 -.5 -44.16 75.94)" gradientUnits="userSpaceOnUse"><stop offset="0" stop-color="#e100b8" class="stopColore19100 svgShape"></stop><stop offset="1" stop-color="#fc06cf" class="stopColorfcba06 svgShape"></stop></linearGradient><linearGradient id="I" x1="687.31" x2="763.21" y1="271.48" y2="271.48" xlink:href="#i"></linearGradient><linearGradient id="J" x1="569.8" x2="529.19" y1="583.86" y2="516.92" gradientTransform="matrix(.5 .87 .87 -.5 -44.16 75.94)" gradientUnits="userSpaceOnUse"><stop offset="0" stop-color="#342e94" class="stopColor362e94 svgShape"></stop><stop offset=".35" stop-color="#514ab9" class="stopColor514ab9 svgShape"></stop><stop offset="1" stop-color="#857dfb" class="stopColor807dfb svgShape"></stop></linearGradient><linearGradient id="K" x1="733.62" x2="746.41" y1="186.55" y2="164.4" gradientTransform="matrix(-1 0 0 1 1288.65 0)" gradientUnits="userSpaceOnUse"><stop offset="0" stop-color="#867ff4" class="stopColor7f7ff4 svgShape"></stop><stop offset=".28" stop-color="#8079ee" class="stopColor7979ee svgShape"></stop><stop offset=".65" stop-color="#716add" class="stopColor6a6add svgShape"></stop><stop offset="1" stop-color="#5c55c6" class="stopColor5555c6 svgShape"></stop></linearGradient><linearGradient id="L" x1="596.87" x2="604.92" y1="149.62" y2="163.08" gradientTransform="translate(-41.58)" gradientUnits="userSpaceOnUse"><stop offset="0" stop-color="#5c55c6" class="stopColor5555c6 svgShape"></stop><stop offset="1" stop-color="#867ff4" class="stopColor7f7ff4 svgShape"></stop></linearGradient><linearGradient id="M" x1="467.71" x2="490.88" y1="51.87" y2="92" gradientUnits="userSpaceOnUse"><stop offset="0" stop-color="#a50b89" class="stopColorfb944b svgShape"></stop><stop offset="0" stop-color="#fb41d9" class="stopColorfb9a41 svgShape"></stop><stop offset=".03" stop-color="#fc06cf" class="stopColorfcba06 svgShape"></stop><stop offset="1" stop-color="#dc00b4" class="stopColordc8b00 svgShape"></stop></linearGradient></defs><g style="isolation:isolate" fill="#010001" class="color000000 svgShape"><g fill="#010001" class="color000000 svgShape"><g data-name="Accept symbol" fill="#010001" class="color000000 svgShape"><polygon points="251.6 458.24 251.6 458.24 251.6 458.24 200.08 429.85 135.22 429.85 185.56 458.92 186.74 458.24 136.39 487.31 201.25 487.31 251.6 458.24 250.43 458.92 251.6 458.24" style="mix-blend-mode:multiply" fill="url(#a)"></polygon><polygon fill="#f4f6f8" points="136.39 449.86 186.74 420.79 186.74 458.24 136.39 487.31 136.39 449.86" class="colorbbc0e6 svgShape"></polygon><polygon fill="#f1f3f6" points="137.57 392.4 186.74 420.79 136.39 449.86 87.22 421.47 137.57 392.4" class="colorf1f1f6 svgShape"></polygon><polygon fill="#cee3f8" points="87.22 421.47 136.39 449.86 136.39 487.31 87.22 458.92 87.22 421.47" class="colorced3f8 svgShape"></polygon><polygon fill="#5046e4" points="120.53 465.14 99.58 453.04 99.58 445.26 120.53 457.35 120.53 465.14" class="color5652cc svgShape"></polygon><polygon fill="#ffffff" points="156.94 403.58 166.59 409.16 116.25 438.23 106.6 432.65 156.94 403.58" class="colorffffff svgShape"></polygon><polygon fill="#dfe9f4" points="106.6 432.65 116.25 438.23 116.25 449.12 106.6 443.55 106.6 432.65" class="colordfe4f4 svgShape"></polygon><polygon points="572.42 460.13 532.13 460.13 583.46 489.76 507.36 533.7 547.65 533.7 623.75 489.76 572.42 460.13" style="mix-blend-mode:multiply" fill="url(#j)"></polygon><polygon fill="#f1f3f6" points="519.38 425.95 583.46 462.95 507.36 506.89 443.27 469.9 519.38 425.95" class="colorf1f1f6 svgShape"></polygon><polygon fill="#857dfb" points="519.82 475.71 492.36 491.56 509.18 501.28 536.64 485.43 519.82 475.71" class="color807dfb svgShape"></polygon><polygon fill="#ffffff" points="545.48 441.03 469.39 484.97 480.26 491.25 556.36 447.31 545.48 441.03" class="colorffffff svgShape"></polygon><polygon fill="#cee3f8" points="443.27 469.9 507.36 506.9 507.36 533.7 443.27 496.7 443.27 469.9" class="colorced3f8 svgShape"></polygon><polygon fill="#f4f6f8" points="507.36 506.89 583.46 462.95 583.46 489.76 507.36 533.7 507.36 506.89" class="colorbbc0e6 svgShape"></polygon><polygon fill="#ffffff" points="510.98 492.63 522.56 485.94 518.82 483.79 507.24 490.47 510.98 492.63" class="colorffffff svgShape"></polygon><polygon fill="#dfe9f4" points="469.39 484.97 469.39 493.05 480.26 499.33 480.26 491.25 469.39 484.97" class="colordfe4f4 svgShape"></polygon><polygon fill="#abc2da" points="571.18 486.56 567.77 484.59 564.35 490.51 565.27 491.04 567.12 487.84 567.12 496.97 568.42 496.22 568.42 487.09 570.26 488.16 571.18 486.56" class="colorabb2da svgShape"></polygon><polygon fill="#abc2da" points="580.3 481.3 576.88 479.33 573.46 485.25 574.38 485.78 576.23 482.58 576.23 491.71 577.53 490.96 577.53 481.83 579.38 482.9 580.3 481.3" class="colorabb2da svgShape"></polygon><polygon points="470.72 205.09 380.64 205.09 437.28 237.78 353.31 286.27 443.38 286.27 527.35 237.78 470.72 205.09" style="mix-blend-mode:multiply" fill="url(#k)"></polygon><polygon fill="#f1f3f6" points="376.13 135.2 437.28 170.51 353.31 218.99 292.17 183.69 376.13 135.2" class="colorf1f1f6 svgShape"></polygon><polygon fill="#cee3f8" points="292.17 183.69 353.31 219 353.31 286.27 292.17 250.96 292.17 183.69" class="colorced3f8 svgShape"></polygon><polygon fill="#f4f6f8" points="353.31 219 437.28 170.51 437.28 237.78 353.31 286.27 353.31 219" class="colorbbc0e6 svgShape"></polygon><polygon fill="#ffffff" points="338.66 156.84 399.8 192.15 387.8 199.08 326.66 163.77 338.66 156.84" class="colorffffff svgShape"></polygon><polygon fill="#dfe9f4" points="399.8 192.15 399.8 201.07 387.8 208 387.8 199.08 399.8 192.15" class="colordfe4f4 svgShape"></polygon><polygon fill="#abc2da" points="423.74 228.91 419.97 226.74 416.2 233.27 417.21 233.85 419.25 230.32 419.25 240.4 420.68 239.57 420.68 229.5 422.72 230.67 423.74 228.91" class="colorabb2da svgShape"></polygon><polygon fill="#abc2da" points="433.79 223.11 430.02 220.94 426.25 227.46 427.26 228.05 429.3 224.52 429.3 234.59 430.74 233.76 430.74 223.69 432.77 224.87 433.79 223.11" class="colorabb2da svgShape"></polygon><polygon fill="#5046e4" points="381.46 224.95 360.49 237.06 360.49 222.01 381.46 209.91 381.46 224.95" class="color5652cc svgShape"></polygon><polygon fill="#5046e4" points="375.47 236.38 360.49 245.02 360.49 241.21 375.47 232.56 375.47 236.38" class="color5652cc svgShape"></polygon><path d="M744,372.92C687.75,377,622.71,390.8,597.14,399.57c-2.1,3.84,0,8.65,6.65,13.19-4.5,10.43,20.86,27.26,80.68,27.26H744Z" style="mix-blend-mode:multiply" fill="url(#l)"></path><path fill="#f4f6f8" d="M604,276.59c-7.17,12.43-14.12,23.14-24.1,28.9-9.38,5.42-16.41,3.37-24.1-1.07v61.34c0,35.16,30.22,49.71,48.2,46.44,18-17.49,48.2-66.93,48.19-102.09V248.77c-7.18,12.42-14.13,23.13-24.11,28.89C618.76,283.08,611.73,281,604,276.59Z" class="colorbbc0e6 svgShape"></path><path fill="#abc2da" d="M585.34,392.87a36.13,36.13,0,0,0,18.7,5.59l-2-1.15A35.33,35.33,0,0,1,585.34,392.87Z" class="colorabb2da svgShape"></path><path fill="#a3b9d0" d="M639.25,281.85v33.46c0,26.39-22.44,65.16-37.2,82h0l2,1.15h0c14.76-16.84,37.2-55.61,37.19-82V279.89C640.59,280.56,639.92,281.2,639.25,281.85Z" class="colora3a9d0 svgShape"></path><path fill="#cee3f8" d="M543.93,358.88c0,19.84,9.62,33.12,21.23,40.33h0l.19.1c.69.43,1.39.83,2.09,1.21l9.64,5.57h0c-11.61-7.21-21.24-20.49-21.24-40.33V304.42l-11.92-6.88Z" class="colorced3f8 svgShape"></path><path fill="url(#b)" d="M640.32,241.89c-7.17,12.42-14.13,23.13-24.1,28.89-9.38,5.42-16.41,3.37-24.1-1.07h0L604,276.59c7.69,4.44,14.72,6.49,24.09,1.07,10-5.76,16.93-16.47,24.11-28.89Z"></path><path fill="url(#m)" d="M568,298.61c-9.39,5.42-16.42,3.37-24.11-1.07h0l11.92,6.88c7.69,4.44,14.72,6.49,24.1,1.07,10-5.76,16.93-16.47,24.1-28.9l-11.92-6.88C585,282.14,578,292.85,568,298.61Z"></path><path fill="#5046e4" d="M579.94,318.19a33.36,33.36,0,0,1-13.1,4.61v36.61c0,16.25,8.51,27.36,18.5,33.46a35.33,35.33,0,0,0,16.71,4.44h0V296.64C596.08,305.11,589,313,579.94,318.19Z" class="color5652cc svgShape"></path><path fill="#453eaf" d="M628.13,290.37c-9.73,5.61-17.42,5.57-24.06,3.35l0,0c-.65,1-1.31,1.92-2,2.87V397.31c14.76-16.84,37.2-55.61,37.2-82V281.85A58.08,58.08,0,0,1,628.13,290.37Z" class="color423eaf svgShape"></path><path d="M382.22,337.75l-50.08-28.92-33.83,19.53,26.25,15.16L218.32,404.85l-1,.57-2.2-1.27-.41.23v2.55l-1,.56-6.53,3.77c-2.7,1.56-.51,2.83,4.9,2.83h28.07c5.41,0,12-1.27,14.7-2.83l6.53-3.77,1-.56-1.78-1.63,4.39.12,1-.57,82.4-47.57Z" style="mix-blend-mode:multiply" fill="url(#n)"></path><polygon fill="#cee3f8" points="203.3 405.98 325.41 335.48 325.41 317.77 203.3 388.27 203.3 405.98" class="colorced3f8 svgShape"></polygon><polygon fill="#5046e4" points="212.77 405.8 208.2 403.16 201.16 407.22 205.74 409.86 212.77 405.8" class="color5652cc svgShape"></polygon><path fill="#5046e4" d="M330,332.84,214.73,399.39,219.3,402l115.25-66.55Zm-4.57,2.64,4.57-2.64-4.57-2.64Z" class="color5652cc svgShape"></path><polygon fill="#5046e4" points="217.34 377.9 51.81 282.33 169.02 214.65 334.55 310.23 217.34 377.9" class="color5652cc svgShape"></polygon><polygon fill="#342e93" points="217.34 380.44 51.81 284.87 51.81 282.33 217.34 377.9 217.34 380.44" class="color362e93 svgShape"></polygon><polygon fill="#453eaf" points="214.73 381.95 49.2 286.38 51.81 284.87 217.34 380.44 214.73 381.95" class="color423eaf svgShape"></polygon><path fill="#6f196f" d="M212.77,385.34l1-.56,4.57-2.64,1-.57V379l115.25-66.54v-2.26l-116.23,67.1-1,.57v2.54L214.73,382V379.4l-1,.57-6.53,3.77a10.86,10.86,0,0,0-4.9,8.49v16.21c0,3.11,2.2,4.38,4.9,2.82l6.53-3.77,1-.56v-2.55l2.61-1.5v2.54l1-.57,116.23-67.1v-2.27L219.3,402v-2.55l-1,.57-4.57,2.64-1,.56v2.55l-5.55,3.2c-1.62.94-2.94.18-2.94-1.7V391.09a6.48,6.48,0,0,1,2.94-5.08l5.55-3.21Z" class="color1f196f svgShape"></path><polygon fill="#5046e4" points="207.22 383.74 41.68 288.17 49.2 283.83 214.73 379.4 207.22 383.74" class="color5652cc svgShape"></polygon><path fill="url(#o)" d="M202.32,408.44V392.23a10.86,10.86,0,0,1,4.9-8.49L41.68,288.17a10.84,10.84,0,0,0-4.89,8.48v16.21a3.36,3.36,0,0,0,1.54,3.22h0l165.31,95.44h0A3.5,3.5,0,0,1,202.32,408.44Z"></path><polygon fill="#5046e4" points="219.3 399.48 214.73 396.84 208.2 400.61 212.77 403.25 219.3 399.48" class="color5652cc svgShape"></polygon><polygon fill="#342e93" points="212.77 382.8 210.57 384.07 212.77 385.34 212.77 382.8" class="color362e93 svgShape"></polygon><polygon fill="#342e93" points="212.77 403.25 208.2 400.61 208.2 403.16 212.77 405.8 212.77 403.25" class="color362e93 svgShape"></polygon><polygon fill="#342e93" points="217.34 402.87 215.14 404.15 217.34 405.42 217.34 402.87" class="color362e93 svgShape"></polygon><path fill="#fc06cf" d="M253.8,390.62c-.19,2.08-1.13,7.81-1.58,10.23-7.39-11.44-13.31-16.64-20.72-21l11.71-6.76c7.38,4.26,15.59,13.46,20.72,21A49.92,49.92,0,0,0,253.8,390.62Z" class="colorfcba06 svgShape"></path><path fill="#e100b8" d="M252.55,380.45a49.4,49.4,0,0,0-9.34-7.39l-11.71,6.76a52.6,52.6,0,0,1,9.67,7.21Z" class="colore19100 svgShape"></path><polygon points="555.76 391.96 489.42 391.96 481.3 405.65 555.76 405.65 555.76 391.96" style="mix-blend-mode:multiply" fill="url(#c)"></polygon><polygon points="575.24 373.93 508.89 373.93 500.78 382.64 575.24 382.64 575.24 373.93" style="mix-blend-mode:multiply" fill="url(#p)"></polygon><path fill="url(#d)" d="M506.44,361.23c2.51-1.71,6.47,1.2,7.47,4.43a11.71,11.71,0,0,1-1,3.73s-4.2,9.34-5.62,10.93-7.22,3.87-10,1.49c-2-2.59,2-4.14,2.7-6.71.94-3.34.54-6,1.47-8.53C502.23,364.49,506.44,361.23,506.44,361.23Z"></path><path fill="#3f0d3f" d="M513.67,365v0a11.71,11.71,0,0,1-1,3.72s-4.19,9.34-5.62,10.93-7.21,3.88-10,1.5a2.41,2.41,0,0,1-.28-.43,2.5,2.5,0,0,0,.5,1c2.79,2.38,8.58.1,10-1.49s5.62-10.93,5.62-10.93a11.71,11.71,0,0,0,1-3.73C513.84,365.45,513.76,365.23,513.67,365Z" class="color0f0d3f svgShape"></path><path fill="#a9d2fc" d="M499.54,363.35a52.29,52.29,0,0,1,6.29-2.68,2.9,2.9,0,0,0,1.14.85l.23.07c1.25,0,3.51,1.19,2.11,3.71-2.71,4.88-9,4.71-8.29,2.39C501.48,366.14,500.19,364.29,499.54,363.35Z" class="colorfcd1a9 svgShape"></path><path fill="#342e94" d="M500.9,369c-.19-.78-.42-2.45,1.56-2.73s4.41.67,4.21,1.88C506.28,370.65,501.09,369.74,500.9,369Z" class="color362e94 svgShape"></path><path fill="url(#q)" d="M505.94,360.3c-2.34-3.17-17.62-24.37-25.82-27.26,2.76-11.56,10.47-27.14,8.2-39.52H470.86s-10.35,36.67-3.72,45.41c5,6.62,25.48,22.22,33.75,27.55C505.11,368.2,507.36,362.75,505.94,360.3Z"></path><path fill="#ffffff" d="M500.73 372.43a6.47 6.47 0 014 .25.86.86 0 10.7-1.58 8.14 8.14 0 00-5.23-.32.88.88 0 00-.56 1.09A.86.86 0 00500.73 372.43zM499.81 375.47a6.47 6.47 0 014 .25.86.86 0 10.7-1.58 8 8 0 00-5.22-.32.87.87 0 00-.57 1.09A.88.88 0 00499.81 375.47z" class="colorffffff svgShape"></path><path fill="url(#r)" d="M493.82,391.21c3,.49,3.86,5.33,2.36,8.36a11.67,11.67,0,0,1-3.28,2s-9.47,3.89-11.6,4.06-6.87-.63-7.25-4.27c.36-2.22,2.23-2.83,4.53-4.2,3-1.77,5.54-4.34,7.95-5.53C488.51,390.68,493.82,391.21,493.82,391.21Z"></path><path fill="#3f0d3f" d="M481.36,404.67c2.2-.17,11.95-4.17,11.95-4.17a12.64,12.64,0,0,0,3.27-2,7,7,0,0,1-.4,1.06,11.67,11.67,0,0,1-3.28,2s-9.47,3.89-11.6,4.06-6.87-.63-7.25-4.27c0-.07,0-.14.05-.22C475.11,404.16,479.36,404.84,481.36,404.67Z" class="color0f0d3f svgShape"></path><path fill="#a9d2fc" d="M487.36,388a53.08,53.08,0,0,1,6.4,2.39,2.85,2.85,0,0,0,.25,1.4l.11.21c.9.87,1.85,2.41-.9,3.27-5.34,1.67-9.88-1.9-7.78-3.1C486.85,391.36,487.18,389.14,487.36,388Z" class="colorfcd1a9 svgShape"></path><path fill="#342e94" d="M484.53,392.88c.4-.52,1.32-1.93,3-.77a3.89,3.89,0,0,1,1.89,3.88c-.2,1.22-3.71.32-3.84.14S484.53,392.88,484.53,392.88Z" class="color362e94 svgShape"></path><path fill="#ffffff" d="M482.92 394.4a7.1 7.1 0 013.18 3.09 1 1 0 101.74-.82 9.05 9.05 0 00-4.17-4 1 1 0 00-1.26.51A1 1 0 00482.92 394.4zM480 396.29a7.15 7.15 0 013.18 3.09 1 1 0 001.74-.82 9 9 0 00-4.17-4 1 1 0 00-1.26.51A1 1 0 00480 396.29z" class="colorffffff svgShape"></path><path fill="url(#s)" d="M486.18,292.93c0,16.4-.17,34.73-.17,49.05,0,16.37,0,33.54.17,47.26-.15,4.21,6.36,4.74,8.38,1,1.74-12.46,5-27.67,4-41.26,4.14-17.92,11.07-40.94,9.37-55C504,295.27,490.15,291.67,486.18,292.93Z"></path><path d="M408.57,474h0l-1.75-1h0c-.87-.66-3.09-1.08-6.37-1.08-6.08,0-13.47,1.42-16.51,3.18-2.05,1.18-1.59,2.21.8,2.76.18,1,2.64,1.64,6.78,1.64,6.09,0,13.47-1.42,16.51-3.18C409.6,475.39,409.68,474.58,408.57,474Z" style="mix-blend-mode:multiply" fill="url(#e)"></path><path d="M355.94,443.35h0l-1.75-1h0c-.88-.66-3.09-1.08-6.37-1.08-6.08,0-13.47,1.43-16.51,3.18-2.05,1.19-1.59,2.22.79,2.76.19,1,2.65,1.64,6.79,1.64,6.08,0,13.47-1.42,16.51-3.17C357,444.75,357.06,443.93,355.94,443.35Z" style="mix-blend-mode:multiply" fill="url(#t)"></path><path d="M483.67,430h0l-1.76-1h0c-.88-.66-3.1-1.08-6.38-1.08-6.08,0-13.46,1.42-16.51,3.18-2,1.18-1.58,2.21.8,2.76.18,1,2.64,1.64,6.79,1.64,6.08,0,13.47-1.42,16.5-3.18C484.7,431.38,484.79,430.57,483.67,430Z" style="mix-blend-mode:multiply" fill="url(#u)"></path><path fill="#ffffff" d="M459.88,418v8.95c0,1,.73,1.46,1.63.94a3.6,3.6,0,0,0,1.63-2.82v-8.95Z" class="colorffffff svgShape"></path><path fill="#453eaf" d="M460.79,426.42a1.59,1.59,0,0,1,.72-1.25c.4-.23.72-.05.72.41a1.56,1.56,0,0,1-.72,1.25C461.11,427.07,460.79,426.88,460.79,426.42Z" class="color423eaf svgShape"></path><path fill="#bdd0e3" d="M459.88,426.94V418l-.89-.51v8.95a1.09,1.09,0,0,0,.53,1.07l.79.46A1.17,1.17,0,0,1,459.88,426.94Z" class="colorbdc3e3 svgShape"></path><path fill="#3f0d3f" d="M459.28,431.34a12.16,12.16,0,0,1,5.5-9.53c3.05-1.76,5.5-.34,5.51,3.17a12.16,12.16,0,0,1-5.51,9.53C461.75,436.26,459.28,434.84,459.28,431.34Z" class="color0f0d3f svgShape"></path><path fill="#f6f8fb" d="M461.39,430.12a7.5,7.5,0,0,1,3.39-5.88c1.88-1.08,3.39-.2,3.39,2a7.5,7.5,0,0,1-3.39,5.88C462.91,433.15,461.39,432.28,461.39,430.12Z" class="colorf6f6fb svgShape"></path><path fill="#342e94" d="M459.28,431.34a12.16,12.16,0,0,1,5.5-9.53,3.92,3.92,0,0,1,3.77-.44s-2.93-1.7-2.93-1.7a4,4,0,0,0-3.77.44,12.14,12.14,0,0,0-5.5,9.53,3.9,3.9,0,0,0,1.57,3.54l2.94,1.69A3.89,3.89,0,0,1,459.28,431.34Z" class="color362e94 svgShape"></path><path fill="#bdd0e3" d="M464.08,420.42v8.95c0,1,.73,1.46,1.63.94a3.6,3.6,0,0,0,1.63-2.82v-8.95Z" class="colorbdc3e3 svgShape"></path><path fill="#d8e4f0" d="M464.08,429.37v-8.95l-.89-.52v9a1.12,1.12,0,0,0,.53,1.07l.79.46A1.2,1.2,0,0,1,464.08,429.37Z" class="colord8def0 svgShape"></path><path fill="#3f0d3f" d="M465,428.85a1.62,1.62,0,0,1,.72-1.26c.4-.22.72,0,.72.42a1.59,1.59,0,0,1-.72,1.25C465.31,429.49,465,429.31,465,428.85Z" class="color0f0d3f svgShape"></path><path fill="#e9eff6" d="M458.73,419.13c-2.46-1.42-2.46-3.71,0-5.13a9.87,9.87,0,0,1,8.89,0c2.45,1.42,2.45,3.71,0,5.13A9.79,9.79,0,0,1,458.73,419.13Z" class="colore9edf6 svgShape"></path><path fill="url(#f)" d="M467.61,419.13a9.79,9.79,0,0,1-8.88,0,3.11,3.11,0,0,1-1.84-2.56v1.53a3.11,3.11,0,0,0,1.84,2.56,9.79,9.79,0,0,0,8.88,0,3.1,3.1,0,0,0,1.83-2.56v-1.53A3.12,3.12,0,0,1,467.61,419.13Z"></path><path fill="#847cfb" d="M461.27,414.8a1.16,1.16,0,0,1,0-2.19,4.15,4.15,0,0,1,3.79,0,1.16,1.16,0,0,1,0,2.19A4.22,4.22,0,0,1,461.27,414.8Z" class="color807cfb svgShape"></path><path fill="url(#g)" d="M465.06,414.8a4.22,4.22,0,0,1-3.79,0,1.33,1.33,0,0,1-.78-1.09v2.86a1.33,1.33,0,0,0,.78,1.09,4.15,4.15,0,0,0,3.79,0,1.32,1.32,0,0,0,.79-1.09v-2.86A1.37,1.37,0,0,1,465.06,414.8Z"></path><path fill="#ffffff" d="M384.21,461.6v8.95c0,1,.73,1.45,1.63.94a3.63,3.63,0,0,0,1.62-2.82v-8.95Z" class="colorffffff svgShape"></path><path fill="#453eaf" d="M385.12,470a1.59,1.59,0,0,1,.72-1.25c.39-.22.72,0,.72.42a1.62,1.62,0,0,1-.72,1.25C385.44,470.67,385.12,470.48,385.12,470Z" class="color423eaf svgShape"></path><path fill="#bdd0e3" d="M384.21,470.55V461.6l-.9-.52V470a1.11,1.11,0,0,0,.54,1.08l.78.46A1.21,1.21,0,0,1,384.21,470.55Z" class="colorbdc3e3 svgShape"></path><path fill="#3f0d3f" d="M383.61,474.94a12.15,12.15,0,0,1,5.5-9.53c3-1.76,5.5-.33,5.5,3.17a12.18,12.18,0,0,1-5.5,9.54C386.07,479.87,383.61,478.45,383.61,474.94Z" class="color0f0d3f svgShape"></path><path fill="#f6f8fb" d="M385.72,473.72a7.52,7.52,0,0,1,3.39-5.88c1.87-1.08,3.39-.2,3.39,2a7.5,7.5,0,0,1-3.39,5.88C387.24,476.76,385.72,475.88,385.72,473.72Z" class="colorf6f6fb svgShape"></path><path fill="#342e94" d="M383.61,474.94a12.15,12.15,0,0,1,5.5-9.53,3.9,3.9,0,0,1,3.76-.43s-2.93-1.71-2.93-1.71a4,4,0,0,0-3.77.45,12.15,12.15,0,0,0-5.5,9.53,3.86,3.86,0,0,0,1.58,3.53l2.93,1.7A3.91,3.91,0,0,1,383.61,474.94Z" class="color362e94 svgShape"></path><path fill="#bdd0e3" d="M388.41,464v9c0,1,.73,1.46,1.63.94a3.6,3.6,0,0,0,1.63-2.82v-8.95Z" class="colorbdc3e3 svgShape"></path><path fill="#d8e4f0" d="M388.41,473v-9l-.89-.51v8.95a1.09,1.09,0,0,0,.53,1.07s.79.47.79.47A1.19,1.19,0,0,1,388.41,473Z" class="colord8def0 svgShape"></path><path fill="#3f0d3f" d="M389.32,472.45a1.59,1.59,0,0,1,.72-1.25c.4-.23.72,0,.72.42a1.59,1.59,0,0,1-.72,1.25C389.64,473.1,389.32,472.91,389.32,472.45Z" class="color0f0d3f svgShape"></path><path fill="#e9eff6" d="M383.05,462.74c-2.45-1.42-2.45-3.71,0-5.13a9.79,9.79,0,0,1,8.88,0c2.45,1.42,2.45,3.71,0,5.13A9.85,9.85,0,0,1,383.05,462.74Z" class="colore9edf6 svgShape"></path><path fill="url(#v)" d="M391.93,462.74a9.85,9.85,0,0,1-8.88,0,3.14,3.14,0,0,1-1.84-2.56v1.52a3.12,3.12,0,0,0,1.84,2.56,9.79,9.79,0,0,0,8.88,0,3.1,3.1,0,0,0,1.84-2.56v-1.52A3.12,3.12,0,0,1,391.93,462.74Z"></path><path fill="#847cfb" d="M385.59,458.4a1.16,1.16,0,0,1,0-2.19,4.24,4.24,0,0,1,3.8,0,1.16,1.16,0,0,1,0,2.19A4.17,4.17,0,0,1,385.59,458.4Z" class="color807cfb svgShape"></path><path fill="url(#w)" d="M389.39,458.4a4.17,4.17,0,0,1-3.8,0,1.32,1.32,0,0,1-.78-1.09v2.86a1.33,1.33,0,0,0,.78,1.1,4.24,4.24,0,0,0,3.8,0,1.33,1.33,0,0,0,.78-1.1v-2.86A1.32,1.32,0,0,1,389.39,458.4Z"></path><path fill="#ffffff" d="M331.54,431v8.95c0,1,.73,1.46,1.63.94a3.6,3.6,0,0,0,1.63-2.82V429.1Z" class="colorffffff svgShape"></path><path fill="#453eaf" d="M332.45,439.41a1.62,1.62,0,0,1,.72-1.26c.4-.22.72,0,.72.42a1.59,1.59,0,0,1-.72,1.25C332.77,440.05,332.45,439.86,332.45,439.41Z" class="color423eaf svgShape"></path><path fill="#bdd0e3" d="M331.54,439.93V431l-.89-.52v9a1.12,1.12,0,0,0,.53,1.07l.79.46A1.2,1.2,0,0,1,331.54,439.93Z" class="colorbdc3e3 svgShape"></path><path fill="#3f0d3f" d="M330.94,444.32a12.17,12.17,0,0,1,5.5-9.53c3.05-1.75,5.51-.33,5.51,3.18a12.16,12.16,0,0,1-5.51,9.53C333.41,449.25,330.94,447.83,330.94,444.32Z" class="color0f0d3f svgShape"></path><path fill="#f6f8fb" d="M333.06,443.1a7.46,7.46,0,0,1,3.38-5.87c1.88-1.08,3.4-.2,3.4,1.95a7.48,7.48,0,0,1-3.4,5.88C334.57,446.14,333.06,445.26,333.06,443.1Z" class="colorf6f6fb svgShape"></path><path fill="#342e94" d="M330.94,444.32a12.17,12.17,0,0,1,5.5-9.53,4,4,0,0,1,3.77-.43s-2.93-1.71-2.93-1.71a4,4,0,0,0-3.77.45,12.12,12.12,0,0,0-5.5,9.53,3.88,3.88,0,0,0,1.57,3.53l2.94,1.7A3.9,3.9,0,0,1,330.94,444.32Z" class="color362e94 svgShape"></path><path fill="#bdd0e3" d="M335.75,433.41v8.95c0,1,.72,1.46,1.62.93a3.58,3.58,0,0,0,1.63-2.81v-9Z" class="colorbdc3e3 svgShape"></path><path fill="#d8e4f0" d="M335.75,442.36v-8.95l-.9-.52v8.95a1.09,1.09,0,0,0,.53,1.07l.79.47A1.21,1.21,0,0,1,335.75,442.36Z" class="colord8def0 svgShape"></path><path fill="#3f0d3f" d="M336.65,441.83a1.59,1.59,0,0,1,.72-1.25c.4-.23.73,0,.73.42a1.6,1.6,0,0,1-.73,1.25C337,442.48,336.65,442.29,336.65,441.83Z" class="color0f0d3f svgShape"></path><path fill="#e9eff6" d="M330.39,432.12c-2.46-1.42-2.46-3.71,0-5.13a9.87,9.87,0,0,1,8.89,0c2.45,1.42,2.45,3.71,0,5.13A9.85,9.85,0,0,1,330.39,432.12Z" class="colore9edf6 svgShape"></path><path fill="url(#x)" d="M339.27,432.12a9.85,9.85,0,0,1-8.88,0,3.11,3.11,0,0,1-1.84-2.56v1.52a3.12,3.12,0,0,0,1.84,2.57,9.85,9.85,0,0,0,8.88,0,3.12,3.12,0,0,0,1.84-2.57v-1.52A3.15,3.15,0,0,1,339.27,432.12Z"></path><path fill="#847cfb" d="M332.93,427.78a1.16,1.16,0,0,1,0-2.19,4.22,4.22,0,0,1,3.79,0,1.16,1.16,0,0,1,0,2.19A4.15,4.15,0,0,1,332.93,427.78Z" class="color807cfb svgShape"></path><path fill="url(#y)" d="M336.72,427.78a4.15,4.15,0,0,1-3.79,0,1.32,1.32,0,0,1-.78-1.09v2.87a1.33,1.33,0,0,0,.78,1.09,4.22,4.22,0,0,0,3.79,0,1.32,1.32,0,0,0,.79-1.09v-2.87A1.33,1.33,0,0,1,336.72,427.78Z"></path><path fill="url(#z)" d="M336.21,428.14l14.39-8.3a2,2,0,0,0-2-3.39l-17.32,10a2,2,0,0,0,0,3.39l52.82,30.5a2,2,0,0,0,1,.27v-4.23Z"></path><path fill="#d8e4f0" d="M436.14,295.57l3-2.81L434,289.81a2,2,0,0,0-2,0l-14.55,8.4a2,2,0,0,0-1,1.7v7.95l-98,56.56a1.93,1.93,0,0,0-1,1.69v39.46a2,2,0,0,0,2.65,1.83l98.95-37.52.23-.11.15-.08.14-.11.15-.13.11-.13a1.07,1.07,0,0,0,.14-.16l.09-.16.09-.16.06-.18a1.05,1.05,0,0,0,0-.19.76.76,0,0,0,0-.16,1.64,1.64,0,0,0,0-.22V301l12.61-7.28Zm-28.83,22,9.1-5.26v10.92l-9.1,5.25ZM333.1,360.44l9.76-5.63v10.91l-9.76,5.64Zm-2.61,38.8-9.1,3.45v-6.87l9.1-5.25Zm0-11.69-9.1,5.25V381.14l9.1-5.26Zm0-14.69-9.1,5.26V367.21l9.1-5.26Zm12.37,21.69-9.76,3.7v-9.19l9.76-5.64ZM333.1,386V374.37l9.76-5.63v11.67ZM355.23,388l-9.64,5.57-.12,0V381.92l9.76-5.64Zm0-14.69-9.76,5.64V367.23l9.76-5.63Zm0-14.68-9.76,5.63V353.3l9.76-5.63Zm12.36,26.59-6.78,2.57,6.78-3.91Zm0-4.36-9.75,5.63V374.77l9.75-5.63Zm0-14.68-9.75,5.63V360.09l9.75-5.63Zm0-14.69-9.75,5.64V346.16l9.75-5.63Zm12.37,29-9.75,3.7v-1.86l9.75-5.63Zm0-6.81-9.75,5.63V367.64L380,362ZM380,359l-9.75,5.63V353l9.75-5.63Zm0-14.69-9.75,5.63V339l9.75-5.63Zm12.37,31.49-9.76,3.7v-4.31l9.76-5.63Zm0-9.26-9.76,5.63V360.49l9.76-5.63Zm0-14.68-9.76,5.62V345.81l9.76-5.63Zm0-14.69-9.76,5.63V331.88l9.76-5.63ZM404.7,371.1l-9.76,3.7V368l9.76-5.63Zm0-11.71L394.94,365V353.35l9.76-5.63Zm0-14.69-9.76,5.64V338.67L404.7,333Zm0-14.68-9.76,5.63V324.74l9.76-5.63Zm11.71,36.64-9.1,3.45V360.9l9.1-5.26Zm0-14-9.1,5.26V346.21l9.1-5.26Zm-9.1-9.43V331.53l9.1-5.26v11.67Z" class="colord8def0 svgShape"></path><polygon fill="#bdd0e3" points="319.43 405.53 372.26 436.03 471.2 398.51 418.37 368.01 319.43 405.53" class="colorbdc3e3 svgShape"></polygon><polygon fill="#6f67e9" points="391.27 389.83 366.16 375.33 391.27 360.84 416.38 375.33 391.27 389.83" class="color6b67e9 svgShape"></polygon><polygon fill="#342e94" points="391.27 415.08 416.38 400.58 416.38 375.33 391.27 389.83 391.27 415.08" class="color362e94 svgShape"></polygon><polygon fill="#453eaf" points="391.27 415.08 366.16 400.58 366.16 375.33 391.27 389.83 391.27 415.08" class="color423eaf svgShape"></polygon><path fill="#f1f3f6" d="M473,397.82a2,2,0,0,0-2.52-1.14l-10.37,3.93V391.4l11.71-6.77a1.3,1.3,0,1,0-1.3-2.26l-10.41,6V376.71L471.85,370a1.3,1.3,0,1,0-1.3-2.26l-10.41,6V362l11.71-6.76a1.31,1.31,0,0,0-1.3-2.27l-10.41,6V348.1l12-7a2,2,0,0,0-2-3.4l-98,56.56V438h.19l.13,0a1.09,1.09,0,0,0,.3-.07l.07,0,98.95-37.52A1.94,1.94,0,0,0,473,397.82Zm-87.1-6.88,9.76-5.63v10.91l-9.76,5.64Zm-2.61,38.8-9.1,3.45v-6.87l9.1-5.26Zm0-11.69-9.1,5.25V411.64l9.1-5.26Zm0-14.69-9.1,5.26V397.71l9.1-5.26Zm12.37,21.69-9.76,3.7v-9.19l9.76-5.63Zm-9.76-8.51V404.88l9.76-5.64v11.67Zm22.12,1.91L398.42,424l-.12,0V412.42l9.75-5.64Zm0-14.68-9.75,5.63V397.73l9.75-5.63Zm0-14.69-9.75,5.64V383.8l9.75-5.63Zm12.37,26.59-6.78,2.57,6.78-3.91Zm0-4.36-9.75,5.63V405.27l9.75-5.63Zm0-14.68-9.75,5.63V390.59l9.75-5.63Zm0-14.69-9.75,5.63V376.66l9.75-5.63Zm12.37,29-9.75,3.7v-1.86l9.75-5.63Zm0-6.81L423,409.8V398.13l9.75-5.63Zm0-14.68L423,395.12V383.45l9.75-5.63Zm0-14.69L423,380.43V369.52l9.75-5.63Zm12.37,31.49L435.4,410v-4.31l9.76-5.63Zm0-9.26-9.76,5.63V391l9.76-5.63Zm0-14.69L435.4,388V376.31l9.76-5.63Zm0-14.68-9.76,5.63V362.38l9.76-5.63Zm12.37,33.94-9.76,3.7v-6.76l9.76-5.63Zm0-11.71-9.76,5.63V383.85l9.76-5.63Zm0-14.69-9.76,5.63V369.17l9.76-5.63Zm0-14.68-9.76,5.63V355.24l9.76-5.63Z" class="colorf1f1f6 svgShape"></path><path fill="url(#A)" d="M438.34,291.22a1.49,1.49,0,0,0-1.5.15,4.48,4.48,0,0,0-1.5,1.58,4.38,4.38,0,0,0-.62,2.09,1.49,1.49,0,0,0,.62,1.37l43.4,25.06,3-5.2Z"></path><path fill="#6f196f" d="M478.74,321.47a1.49,1.49,0,0,1-.62-1.38,4.67,4.67,0,0,1,2.12-3.67,1.29,1.29,0,0,1,2.12,1.23,4.34,4.34,0,0,1-.62,2.08,4.43,4.43,0,0,1-1.5,1.59A1.52,1.52,0,0,1,478.74,321.47Z" class="color20196f svgShape"></path><path fill="#f1f3f6" d="M487.45,321a3.43,3.43,0,0,0-.71-.71l-5.39-3.07a1,1,0,0,0-1,.09,3,3,0,0,0-1.36,2.36,1,1,0,0,0,.4.88l2.42,1.42-11.63,6.71a2,2,0,0,0-1,1.7v77.45l-84.12,48.56v4.23a1.9,1.9,0,0,0,1-.27l86.08-49.7a1.93,1.93,0,0,0,1-1.69V331.5l13.57-7.84A2,2,0,0,0,487.45,321Z" class="colorf1f1f6 svgShape"></path><path fill="url(#B)" d="M320.41,364.38a2,2,0,1,0-2,3.39l12.88,7.44v10.91l-11.25-6.49a1.3,1.3,0,1,0-1.3,2.26l12.55,7.25v11.67l-11.25-6.5a1.3,1.3,0,1,0-1.3,2.26l12.55,7.25v6.32l-10.92-6.31a2,2,0,1,0-2,3.4l52.83,30.5.19.09.13.05a2.17,2.17,0,0,0,.42.11h.24V394.31Zm24.13,53.38-10.6-6.11v-6.32l10.6,6.12Zm0-9.33-10.6-6.12V390.65l10.6,6.11Zm0-14.68-10.6-6.12V376.72l10.6,6.11Zm13.2,31.64-10.59-6.12V413l10.59,6.12Zm0-9.34-10.59-6.11V398.27l10.59,6.12Zm0-14.68-10.59-6.11V384.34l10.59,6.12Zm12.56,31.27-9.94-5.74v-6.32l9.94,5.74Zm0-9.34-9.94-5.74V405.9l9.94,5.74Zm0-14.68-9.94-5.74V392l9.94,5.74Z"></path><path fill="#a9d2fc" d="M456.35,250.2c-1.57,8.09-3.91,13.61-6.1,19.8-4,6.94-4,17.59-6.61,22-1.39.29-4.36.75-4.8,1.19s-3.38,5.15-1.52,5.89c0,.32.14.85,1.71,1.2,0,.52.92.92,1.84.92,0,.37.12.88,1.33.85a6,6,0,0,0,2.15-.45,7.86,7.86,0,0,0-1.32-.76c-.53-.42-.51-1.48.07-2.48a5.38,5.38,0,0,1,2.85-2.19,2.44,2.44,0,0,0,.57-.24l2,1.14c1.13-1.13,0-2.22,0-3.48,3.26-5.33,4.68-12.18,8-20.05,4.31-10.16,9.1-17.21,9.1-26.25C463.13,246.86,458.79,247.1,456.35,250.2Z" class="colorfcd1a9 svgShape"></path><path fill="url(#C)" d="M509.24,297.83c-1-9.48-7.38-14-11.53-25.06-4.95-13.22-6.64-29.49-13.91-31.87s-7.31-4.77-16.83-4.77c-7.52,0-10.4,2.67-11.52,9.41-1,6.17-1.82,10-2.8,16,1.54,6,21.6,16.16,14.34,37.89,6.51,0,25.85.68,40.1,17.59C508,311.06,510.18,306.35,509.24,297.83Z"></path><path fill="#a9d2fc" d="M473 225.92c-.16-2.92-10.17 2.9-9.95 6.76.18 3.14.59 5.14-.59 6.71-2.64 2.78 4.94 6.21 17.63.06C477.8 238.46 473.51 235.4 473 225.92zM489.93 245c-1.55-2.71-5.22-3.88-7.85-4.7-2 0-5.11 3.91-4 9.89s7.7 31.27 5.45 35.79c-2 2.67-8.51 18.31-12.31 21.81l4.83 2.68c5.4-6.68 11.5-14.84 15.26-19.56C493.66 288 493.57 251.35 489.93 245z" class="colorfcd1a9 svgShape"></path><path fill="#a9d2fc" d="M475.61,217.84l-3-7.54H453.49v11.5c0,6.35,4.28,11.49,9.55,11.49,5.12,0,9.26-4.85,9.51-10.94l1.33,0Z" class="colorfcd1a9 svgShape"></path><path fill="#9dc7f2" d="M470.9,228.25a9.89,9.89,0,0,1-7.86,5c.06.78.11,1.48.14,1.93a5.17,5.17,0,0,0,1.29-.2A9.18,9.18,0,0,0,470.9,228.25Z" class="colorf2c29d svgShape"></path><path fill="#342e94" d="M464.3,202.29h-.18c-10.42.26-11.2,8.05-10.63,9.33,3.31,1.19,5.39-1.05,7.47-.88,1,.08,5.07.63,6.75,2.78,1.81,2.32,1.23,6,2.94,5.94.74,0,1-2.52,2.07-2.58a1.85,1.85,0,0,1,1.75,2.23c-.14,1.91-2,3.07-1.69,4,.45,1.52,4.26-1.21,4.19-6.65S473.29,201.92,464.3,202.29Z" class="color362e94 svgShape"></path><path fill="#342e94" d="M466.87,202.46c11.66,2.68,10.7,11.47,15,14.34,2.55,1.72,8.26-1.52,11.61,4.27,3.85,6.66-2.38,9.08,1.7,11.89s7.21,11.43.41,16.71-15.29.64-14.34-7.09c.69-5.57-.95-8.44-5.63-6.65-3.51,1.35-4.84-1.41-3.27-5-7.79.78.38-14.07-11.38-20.21C461.4,207.71,466.87,202.46,466.87,202.46Z" class="color362e94 svgShape"></path><path fill="#a9d2fc" d="M471.26 307.78c-1.48-.57-4.72.9-5.38 1.56s-3.37 4.87-1.27 5.71c0 .36.17 1 1.94 1.36 0 .59 1 1 2.08 1 0 .41.14 1 1.5 1a7 7 0 002.44-.51 9.22 9.22 0 00-1.49-.85c-.6-.48-.58-1.69.08-2.82.52-.9 1.44-1.17 2.78-1.52a3.38 3.38 0 002.15-2.25zM462.65 236.53c-1.18 2-5.58 6.06-7.2 9C456.1 241 457.27 237.67 462.65 236.53z" class="colorfcd1a9 svgShape"></path><path d="M160.69,322.15,311,323.82l23.55-13.59L258,266Z" style="mix-blend-mode:multiply" fill="url(#D)"></path><path fill="#6b1c6b" d="M201.5,137.55V108.8c0-7-2.46-12.33-6.93-14.9s-10.27-2.06-16.36,1.45c-11.91,6.87-21.59,23.65-21.59,37.4V161.5h0a1.7,1.7,0,1,0,3.39,0h0V132.75c0-12.67,8.92-28.13,19.9-34.46,5-2.89,9.6-3.4,13-1.46s5.23,6.2,5.23,12v28.75h0a1.7,1.7,0,0,0,3.39,0Z" class="color1e1c6b svgShape"></path><path fill="#e100b8" d="M272.28,257.72,160.69,322.15q-2.2-66-4.4-132L267.88,125.7Q270.09,191.72,272.28,257.72Z" class="colore19100 svgShape"></path><path fill="#dc00b4" d="M269.74,181.63,196.69,301.37l7.82-4.52L270,189.51ZM269,159.15,174.36,314.26l7.82-4.52L269.26,167Zm-.75-22.48L160.4,313.44c.08,2.63.17,5.25.26,7.88L268.51,144.55ZM272,249.07l-8.31,13.62,7.82-4.52.75-1.22C272.16,254.32,272.08,251.69,272,249.07Zm-1.5-45L219,288.47l7.82-4.51,43.91-72C270.67,209.36,270.58,206.74,270.49,204.11Zm.75,22.48-29.89,49,7.82-4.51,22.33-36.6C271.42,231.84,271.33,229.22,271.24,226.59ZM167.13,183.87,156.65,201q.14,3.94.26,7.88l18-29.57ZM189.46,171,157.4,223.52c.09,2.63.17,5.25.26,7.88l39.62-64.94Zm22.33-12.89L158.15,246c.09,2.63.18,5.25.26,7.88l61.2-100.31Zm44.66-25.79L159.65,291c.08,2.63.17,5.25.26,7.88l104.36-171Zm-22.33,12.9L158.9,268.48c.09,2.63.17,5.25.26,7.88l82.78-135.68Z" class="colordc8b00 svgShape"></path><polygon fill="#e100b8" points="129.42 174.62 125.03 301.56 151.65 294.59 151.65 177.3 129.42 174.62" class="colore19100 svgShape"></polygon><polygon fill="#fc06cf" points="160.69 322.15 156.29 190.13 151.65 177.3 151.65 177.3 151.65 294.59 151.65 294.59 160.69 322.15" class="colorfcba06 svgShape"></polygon><path fill="#3e9eff" d="M245.65,123,241,110.19,129.42,174.62l22.23,2.68,4.64,12.83L267.88,125.7Zm-91.37,52.75-18.59-2.24,103.45-59.73L243,124.54l18.59,2.24L158.15,186.51C156.85,182.89,154.28,175.78,154.28,175.78Z" class="colorffd03e svgShape"></path><polygon fill="#f400c8" points="160.69 322.15 125.03 301.56 151.65 294.59 160.69 322.15" class="colorf4ae00 svgShape"></polygon><polygon fill="#e100b8" points="239.14 113.81 239.14 139.75 158.16 186.51 154.28 175.78 135.69 173.54 239.14 113.81" class="colore19100 svgShape"></polygon><polygon fill="#fc06cf" points="243.02 124.54 243.02 137.51 239.14 139.75 239.14 113.81 243.02 124.54" class="colorfcba06 svgShape"></polygon><polygon fill="#e100b8" points="243.02 124.54 261.61 126.78 243.02 137.51 243.02 124.54" class="colore19100 svgShape"></polygon><path fill="#6b1c6b" d="M166.38 164.37a4.46 4.46 0 012-3.47c1.11-.64 2-.12 2 1.16a4.42 4.42 0 01-2 3.47C167.28 166.17 166.38 165.65 166.38 164.37zM207.87 140.42a4.44 4.44 0 012-3.47c1.11-.64 2-.12 2 1.15a4.44 4.44 0 01-2 3.48C208.77 142.22 207.87 141.7 207.87 140.42z" class="color1e1c6b svgShape"></path><path fill="#6b1c6b" d="M241.35,160.55V131.8c0-7-2.46-12.32-6.93-14.9s-10.27-2.06-16.36,1.46c-11.91,6.87-21.59,23.65-21.59,37.4v28.75h0a1.7,1.7,0,1,0,3.39,0h0V155.76c0-12.67,8.92-28.13,19.9-34.47,5-2.88,9.6-3.39,13-1.45s5.23,6.2,5.23,12v28.75h0a1.7,1.7,0,1,0,3.39,0Z" class="color1e1c6b svgShape"></path><path d="M276.51,279.26c-5.95-4.5-13.86-6.58-21.63-6.27H242.7v2.61a29.15,29.15,0,0,0-6.44,3.66c-11.07,8.45-11,22.14.14,30.58a29.43,29.43,0,0,0,6.3,3.59v2.73h14.61a33.17,33.17,0,0,0,19.33-6.32C287.72,301.4,287.66,287.71,276.51,279.26Z" style="mix-blend-mode:multiply" fill="url(#E)"></path><path fill="url(#h)" d="M261.7,270A35.83,35.83,0,0,0,248,261.45c-8.47-2.94-17.71-2.75-24.49,1.19a16.85,16.85,0,0,0-7.31,8.1L213,278.48a16.8,16.8,0,0,1,7.3-8.09,26.65,26.65,0,0,1,15.48-3.11,36.57,36.57,0,0,1,22.72,10.46c6.88,7,8.88,15.45,6.11,22.14l3.2-7.74C270.58,285.44,268.58,277,261.7,270Z"></path><path fill="#3e9eff" d="M260.85,272.06c10.2,10.37,9.66,23.93-1.2,30.25s-28,3-38.19-7.36-9.67-23.94,1.18-30.24S250.64,261.69,260.85,272.06Z" class="colorffd03e svgShape"></path><path fill="url(#F)" d="M273.78,294.6l-3.19,7.74a20.84,20.84,0,0,1-9,10c-13.39,7.77-34.44,3.72-47-9.06-8.48-8.62-10.95-19-7.54-27.23h0c1.06-2.59,2.13-5.17,3.19-7.75-3.4,8.24-.93,18.62,7.55,27.24,12.57,12.77,33.62,16.82,47,9.05A20.75,20.75,0,0,0,273.78,294.6Z"></path><path fill="#50a7ff" d="M266.24,267.36c12.57,12.77,11.92,29.44-1.46,37.22s-34.44,3.72-47-9.05-11.92-29.44,1.46-37.22S253.66,254.58,266.24,267.36Zm-43.93,25.53c10.2,10.36,27.34,13.66,38.2,7.35S271.9,280.37,261.7,270s-27.34-13.67-38.2-7.36-11.39,19.88-1.19,30.25Z" class="colorffe950 svgShape"></path><path fill="#fc06cf" d="M226.36 288l1.48-.86a6.92 6.92 0 01-.9-6.15l-.84 2h0A6.5 6.5 0 00226.36 288zM239.34 284.56a4.38 4.38 0 011.39 3.12c1.29-1.34 1.13-3.49-.54-5.18a8.32 8.32 0 01-2.67-6.08 5.69 5.69 0 01.5-2.15h0l-.8 2h0a5.86 5.86 0 00-.54 2.25A8.32 8.32 0 00239.34 284.56z" class="colorfcba06 svgShape"></path><path fill="#dc00b4" d="M232.88 281.09a3.1 3.1 0 00-1.63 2.67 3.46 3.46 0 01.78-.61zM256 275.9a7.66 7.66 0 01.63 1.2l1.22-.71.85-2.07z" class="colordc8b00 svgShape"></path><polygon fill="#fc06cf" points="250.92 281.92 250.07 283.98 253.28 287.24 254.13 285.18 250.92 281.92" class="colorfcba06 svgShape"></polygon><path fill="#dc00b4" d="M254.13,285.18l-.85,2.06a6.11,6.11,0,0,0,2.62-2.87h0s0,0,0,0l.85-2A6.19,6.19,0,0,1,254.13,285.18Z" class="colordc8b00 svgShape"></path><path fill="#50a7ff" d="M258.66,274.32,256,275.9c2.18,3.44,1.54,7.32-1.83,9.28l-3.21-3.27c2.08-1.2,2.18-3.8.23-5.78s-5.23-2.62-7.31-1.41a3.08,3.08,0,0,0-1.63,2.6,4.33,4.33,0,0,0,1.4,3.19c3.73,3.79,3.53,8.74-.43,11-3.38,2-8.41,1.38-12.13-1.17l-2.49,1.45-3.21-3.26,2.49-1.45c-2.18-3.45-1.55-7.33,1.83-9.29l3.21,3.27c-2.09,1.21-2.19,3.8-.23,5.79s5.23,2.61,7.31,1.4,2.18-3.8.23-5.78a8.32,8.32,0,0,1-2.67-6.08,5.9,5.9,0,0,1,3.11-5c3.37-1.95,8.4-1.37,12.12,1.18l2.7-1.57Z" class="colorffe950 svgShape"></path><polygon fill="#fc06cf" points="225.35 288.56 224.49 290.62 227.7 293.88 228.56 291.82 225.35 288.56" class="colorfcba06 svgShape"></polygon><polygon fill="#dc00b4" points="228.56 291.82 227.7 293.88 230.2 292.44 231.05 290.37 228.56 291.82" class="colordc8b00 svgShape"></polygon><path fill="url(#G)" d="M245.3,289.57h0a7.38,7.38,0,0,1-.5.64,6.45,6.45,0,0,1-1.62,1.32c-3.38,2-8.41,1.38-12.13-1.17l-.85,2.06c3.72,2.55,8.75,3.14,12.12,1.18a6.23,6.23,0,0,0,2.52-2.66h0l.88-2.11A5.2,5.2,0,0,1,245.3,289.57Z"></path><path fill="#dc00b4" d="M251.71,281.3c1.28-1.34,1.11-3.48-.56-5.17-2-2-5.23-2.62-7.31-1.41a3.08,3.08,0,0,0-1.63,2.6v.07a3.4,3.4,0,0,1,.78-.61c2.07-1.21,5.35-.58,7.31,1.41a4.42,4.42,0,0,1,1.39,3Z" class="colordc8b00 svgShape"></path><path d="M381.05,510c-7.93-4.58-18.48-6.69-28.84-6.38H336v2.65a43.86,43.86,0,0,0-8.59,3.73c-14.77,8.59-14.69,22.5.18,31.09a43.41,43.41,0,0,0,8.41,3.65v2.78h19.48c9.37-.16,18.65-2.29,25.78-6.43C396,532.51,395.92,518.6,381.05,510Z" style="mix-blend-mode:multiply" fill="url(#i)"></path><path fill="url(#H)" d="M310.83,541.1c-7.48-4.32-11.22-10-11.2-15.65l0-11c0,5.66,3.72,11.33,11.2,15.65,14.87,8.59,38.9,8.59,53.67,0,7.34-4.26,11-9.84,11-15.43l0,11c0,5.59-3.69,11.17-11,15.43C349.73,549.69,325.7,549.69,310.83,541.1Z"></path><path fill="#f6f8fb" d="M310.86,530.14c-14.86-8.58-14.95-22.5-.18-31.08s38.81-8.59,53.67,0,14.95,22.5.18,31.08S325.73,538.73,310.86,530.14Z" class="colorf6f6fb svgShape"></path><path fill="#cee3f8" d="M332.22,511.4c-3.18,1.84-3.18,4.82,0,6.66a12.79,12.79,0,0,0,11.53,0c3.19-1.84,3.19-4.82,0-6.66A12.73,12.73,0,0,0,332.22,511.4ZM356.77,503h-1.18c-7,0-20-.06-29,5.15s-8.95,12.72-8.91,16.76v.68c0,.47.67.84,1.47.85h1.18c7,0,20,.06,29-5.14s8.95-12.73,8.91-16.76v-.68C358.24,503.38,357.58,503,356.77,503Zm-9.52,17.09c-8,4.64-20,4.67-26.66,4.65,0-3.83,0-10.76,8.05-15.39s20-4.67,26.66-4.65C355.33,508.52,355.28,515.45,347.25,520.08Z" class="colorced3f8 svgShape"></path><path d="M752,255.93c-7.94-4.58-18.48-6.69-28.84-6.38H706.92v2.65a43.53,43.53,0,0,0-8.59,3.73c-14.76,8.59-14.68,22.5.18,31.09a43.68,43.68,0,0,0,8.41,3.65v2.77H726.4c9.37-.16,18.66-2.28,25.78-6.42C767,278.43,766.88,264.52,752,255.93Z" style="mix-blend-mode:multiply" fill="url(#I)"></path><path fill="url(#J)" d="M681.79,287c-7.49-4.32-11.22-10-11.21-15.65l0-11c0,5.66,3.72,11.33,11.21,15.65,14.87,8.59,38.9,8.59,53.67,0,7.34-4.27,11-9.85,11-15.44l0,10.95c0,5.59-3.69,11.18-11,15.44C720.69,295.6,696.66,295.61,681.79,287Z"></path><path fill="#f6f8fb" d="M681.82,276.06c-14.87-8.58-15-22.5-.18-31.09s38.81-8.58,53.67,0,15,22.51.18,31.1S696.69,284.65,681.82,276.06Z" class="colorf6f6fb svgShape"></path><path d="M699.2,250.27a9.18,9.18,0,0,0-8.28,0c-2.29,1.32-2.29,3.46,0,4.77a9.18,9.18,0,0,0,8.28,0C701.49,253.71,701.49,251.58,699.2,250.27Zm26,13.47-2.34,1.35-12.93-7.47,2.34-1.35-3.38-1.95-11,6.32,3.39,1.95,2.34-1.35,12.93,7.47-2.34,1.35,3.39,2,11-6.33Z" style="mix-blend-mode:multiply" fill="#cee3f8" class="colorced3f8 svgShape"></path><path fill="#5c55c6" d="M550.78,198.11c-1.4.81-1.74,4.31-1.74,6L559.57,198c0-1.65.34-5.15,1.74-6Z" class="color5555c6 svgShape"></path><path fill="#867ff4" d="M534.56,154.63,524,160.75c1.44.84,4.67,2.32,6.08,1.5l10.53-6.12C539.23,157,536,155.47,534.56,154.63Z" class="color7f7ff4 svgShape"></path><path fill="url(#K)" d="M557.05,181c-5-2.89-9-9.89-9-15.64,0-2.86,1-4.87,2.65-5.81l-10.53,6.11c-1.63.95-2.64,3-2.65,5.82,0,5.75,4,12.75,9,15.64,2.52,1.45,4.8,1.59,6.45.63l10.53-6.12C561.85,182.58,559.57,182.44,557.05,181Z"></path><polygon fill="#5c55c6" points="569.09 186.77 569.08 192.65 579.61 186.53 579.62 180.65 569.09 186.77" class="color5555c6 svgShape"></polygon><polygon fill="#867ff4" points="554.6 143.21 544.07 149.33 549.18 152.28 559.71 146.16 554.6 143.21" class="color7f7ff4 svgShape"></polygon><path fill="#867ff4" d="M573,173.62c-.24-1-.53-2-.87-3-1.17-3,1.48-5.32,2.74-6l-10.53,6.12c-1.26.73-3.91,3.06-2.74,6,.34,1,.64,2,.88,3,.58,3,4.92,6,6.66,7l10.53-6.12C577.88,179.65,573.54,176.59,573,173.62Z" class="color7f7ff4 svgShape"></path><path fill="url(#L)" d="M565.73,158.68a4.14,4.14,0,0,1-1.15-1c-.68-.78-1.39-1.53-2.12-2.23-2.29-2-2.75-7.27-2.75-9.28l-10.53,6.12c0,2,.46,7.27,2.75,9.27.73.71,1.44,1.46,2.12,2.24a4.14,4.14,0,0,0,1.15,1c2,1.13,4.41.2,5.54-.33l10.53-6.11C570.14,158.88,567.69,159.81,565.73,158.68Z"></path><path fill="#f1f3f6" d="M562.39,192c.6-2.28,4.94-.33,6.69.68v-5.88c-1.74-1-6.08-4.06-6.66-7-.24-1-.54-2-.88-3-1.19-3,1.55-5.38,2.79-6.08l-3.6-6.24c-1.13.53-3.58,1.46-5.54.33a4.14,4.14,0,0,1-1.15-1c-.68-.78-1.39-1.53-2.12-2.24-2.29-2-2.75-7.26-2.75-9.27l-5.11-2.95c0,2-.5,6.71-2.79,6.08a11.33,11.33,0,0,0-2.13-.22,2,2,0,0,1-1.16-.33c-2-1.15-4.49-4.94-5.5-6.7l-3.63,2.07c1.4,2.22,3.94,7.62,2.74,9.26a11.91,11.91,0,0,0-.89,1.94c-.6,2.28-4.94.33-6.68-.68l0,5.88c1.74,1,6.08,4.06,6.67,7,.24,1,.53,2,.87,3,1.19,3-1.55,5.38-2.78,6.08l3.6,6.24c1-.58,3.53-1.48,5.52-.33a4.21,4.21,0,0,1,1.17,1c.68.78,1.39,1.54,2.12,2.24,2.28,2.52,2.75,7.26,2.74,9.27l5.12,2.95c0-2,.5-6.71,2.78-6.08a11.5,11.5,0,0,0,2.13.22,2,2,0,0,1,1.16.33c2,1.15,4.5,4.94,5.51,6.71l3.62-2.08c-1.22-2.12-3.94-7.62-2.73-9.27A10.67,10.67,0,0,0,562.39,192Zm-15.87-4.86c-5-2.89-9-9.89-9-15.64s4.09-8.07,9.09-5.18,9,9.89,9,15.64S551.53,190,546.52,187.11Z" class="colorf1f1f6 svgShape"></path><path fill="#867ff4" d="M569.08,192.65c-1.75-1-6.09-3-6.69-.68a10.67,10.67,0,0,1-.88,1.93c-1.21,1.65,1.51,7.15,2.73,9.27l10.53-6.12a30.51,30.51,0,0,1-2.71-6.13Z" class="color7f7ff4 svgShape"></path><polygon fill="#5c55c6" points="571.27 158.36 560.74 164.47 564.34 170.71 574.87 164.59 571.27 158.36" class="color5555c6 svgShape"></polygon><path fill="#5c55c6" d="M543,142l-10.52,6.12c1,1.76,3.51,5.55,5.5,6.7a2,2,0,0,0,1.16.33,11.33,11.33,0,0,1,2.13.22c2.29.63,2.78-4.08,2.79-6.08l3-1.76A30.44,30.44,0,0,1,543,142Z" class="color5555c6 svgShape"></path><path fill="url(#M)" d="M476.46,54.71c-4.57-2.63-8.71-2.88-11.69-1.14L459,56.93c3-1.74,7.13-1.49,11.7,1.15,9.07,5.23,16.4,17.93,16.38,28.36,0,5.18-1.85,8.83-4.8,10.54L488,93.62c3-1.71,4.78-5.36,4.8-10.54C492.87,72.65,485.53,60,476.46,54.71Z"></path><path fill="#f6f8fb" d="M470.68,58.08c-9.08-5.25-16.46-1-16.49,9.38s7.31,23.13,16.38,28.37,16.46,1,16.49-9.39S479.75,63.31,470.68,58.08Z" class="colorf6f6fb svgShape"></path><polygon fill="#857dfb" points="467.49 86.15 461.5 73.89 464.21 72.98 467.53 79.8 477.05 72.01 479.73 76.09 467.49 86.15" class="color807dfb svgShape"></polygon></g></g></g></svg>