<svg xmlns="http://www.w3.org/2000/svg" xmlns:xlink="http://www.w3.org/1999/xlink" viewBox="0 0 800 600" id="Smartphoneandcartwithpurchasessurroundedbyonlinestorepages"><defs><linearGradient id="a" x1="300.82" x2="400.63" y1="237.37" y2="64.49" gradientUnits="userSpaceOnUse"><stop offset=".38" stop-color="#4841aa" class="stopColor4141aa svgShape"></stop><stop offset=".44" stop-color="#867ff4" class="stopColor7f7ff4 svgShape"></stop></linearGradient><linearGradient id="o" x1="95.57" x2="195.38" y1="360.53" y2="187.65" xlink:href="#a"></linearGradient><linearGradient id="b" x1="616.33" x2="616.33" y1="329.51" y2="223.58" gradientTransform="matrix(-1 0 0 1 819.85 0)" gradientUnits="userSpaceOnUse"><stop offset="0" stop-color="#dce8f4" class="stopColordce1f4 svgShape"></stop><stop offset=".74" stop-color="#ffffff" class="stopColorffffff svgShape"></stop></linearGradient><linearGradient id="p" x1="204.71" x2="304.53" y1="344.13" y2="171.25" xlink:href="#a"></linearGradient><linearGradient id="q" x1="938.08" x2="1037.89" y1="309.69" y2="136.8" gradientTransform="matrix(-1 0 0 1 1623.56 0)" xlink:href="#a"></linearGradient><linearGradient id="r" x1="583.14" x2="583.14" y1="285.14" y2="172.73" xlink:href="#b"></linearGradient><linearGradient id="s" x1="1033.09" x2="1132.9" y1="281.6" y2="108.72" gradientTransform="matrix(-1 0 0 1 1623.56 0)" xlink:href="#a"></linearGradient><linearGradient id="d" x1="523.76" x2="681.68" y1="455.81" y2="455.81" gradientUnits="userSpaceOnUse"><stop offset="0" stop-color="#c6d6e7" class="stopColorc6cbe7 svgShape"></stop><stop offset="1" stop-color="#ffffff" class="stopColorffffff svgShape"></stop></linearGradient><linearGradient id="e" x1="435.98" x2="674.9" y1="457.64" y2="457.64" gradientUnits="userSpaceOnUse"><stop offset=".27" stop-color="#867ff4" class="stopColor7f7ff4 svgShape"></stop><stop offset=".3" stop-color="#837cf0" class="stopColor7c7cf0 svgShape"></stop><stop offset=".32" stop-color="#7972e5" class="stopColor7272e5 svgShape"></stop><stop offset=".35" stop-color="#6962d1" class="stopColor6262d1 svgShape"></stop><stop offset=".38" stop-color="#524bb6" class="stopColor4b4bb6 svgShape"></stop><stop offset=".39" stop-color="#4841aa" class="stopColor4141aa svgShape"></stop></linearGradient><linearGradient id="c" x1="286.78" x2="313.68" y1="493.93" y2="493.93" gradientUnits="userSpaceOnUse"><stop offset="0" stop-color="#c6d6e7" class="stopColorc6cbe7 svgShape"></stop><stop offset=".17" stop-color="#d2dfec" class="stopColord2d6ec svgShape"></stop><stop offset=".71" stop-color="#f3f6fa" class="stopColorf3f4fa svgShape"></stop><stop offset="1" stop-color="#ffffff" class="stopColorffffff svgShape"></stop></linearGradient><linearGradient id="t" x1="258.8" x2="285.7" y1="477.77" y2="477.77" xlink:href="#c"></linearGradient><linearGradient id="u" x1="230.82" x2="257.72" y1="461.62" y2="461.62" xlink:href="#c"></linearGradient><linearGradient id="v" x1="202.84" x2="229.74" y1="445.46" y2="445.46" xlink:href="#c"></linearGradient><linearGradient id="w" x1="174.86" x2="201.75" y1="429.31" y2="429.31" xlink:href="#c"></linearGradient><linearGradient id="x" x1="335.22" x2="610.91" y1="363.73" y2="363.73" xlink:href="#d"></linearGradient><linearGradient id="y" x1="197.83" x2="591.89" y1="399.14" y2="399.14" xlink:href="#e"></linearGradient><linearGradient id="z" x1="384.17" x2="461.29" y1="541.73" y2="541.73" gradientUnits="userSpaceOnUse"><stop offset=".45" stop-color="#c6d4e3" class="stopColorc6cae3 svgShape"></stop><stop offset="1" stop-color="#ffffff" class="stopColorffffff svgShape"></stop></linearGradient><linearGradient id="f" x1="366.5" x2="442.04" y1="547.76" y2="547.76" gradientUnits="userSpaceOnUse"><stop offset="0" stop-color="#429af2" class="stopColorf2bd42 svgShape"></stop><stop offset="1" stop-color="#d62db7" class="stopColord6952d svgShape"></stop></linearGradient><linearGradient id="A" x1="392.61" x2="409.19" y1="539.15" y2="539.15" xlink:href="#f"></linearGradient><linearGradient id="B" x1="421.58" x2="442.65" y1="526.29" y2="536.49" gradientUnits="userSpaceOnUse"><stop offset="0" stop-color="#c6d4e3" class="stopColorc6cae3 svgShape"></stop><stop offset="1" stop-color="#ffffff" class="stopColorffffff svgShape"></stop></linearGradient><linearGradient id="C" x1="362.86" x2="438.39" y1="529.23" y2="529.23" xlink:href="#f"></linearGradient><linearGradient id="D" x1="388.97" x2="405.54" y1="520.61" y2="520.61" xlink:href="#f"></linearGradient><linearGradient id="E" x1="379.9" x2="455.43" y1="509.05" y2="509.05" xlink:href="#f"></linearGradient><linearGradient id="F" x1="406.01" x2="422.59" y1="500.44" y2="500.44" xlink:href="#f"></linearGradient><linearGradient id="g" x1="403.22" x2="449.38" y1="186.56" y2="186.56" gradientTransform="matrix(.87 -.5 0 1.15 98.01 312.64)" gradientUnits="userSpaceOnUse"><stop offset="0" stop-color="#5c55c6" class="stopColor5555c6 svgShape"></stop><stop offset=".1" stop-color="#5851be" class="stopColor5151be svgShape"></stop><stop offset=".26" stop-color="#4e48a7" class="stopColor4848a7 svgShape"></stop><stop offset=".46" stop-color="#3d3882" class="stopColor383882 svgShape"></stop><stop offset=".69" stop-color="#4f224f" class="stopColor22224f svgShape"></stop><stop offset=".95" stop-color="#0f060f" class="stopColor06060f svgShape"></stop><stop offset="1"></stop></linearGradient><linearGradient id="G" x1="403.22" x2="439.51" y1="166.91" y2="166.91" xlink:href="#g"></linearGradient><linearGradient id="H" x1="403.22" x2="424.75" y1="178.55" y2="178.55" xlink:href="#g"></linearGradient><linearGradient id="I" x1="359.21" x2="395.5" y1="134.92" y2="134.92" xlink:href="#g"></linearGradient><linearGradient id="J" x1="359.21" x2="380.74" y1="146.56" y2="146.56" xlink:href="#g"></linearGradient><linearGradient id="K" x1="359.21" x2="370.55" y1="141.09" y2="141.09" xlink:href="#g"></linearGradient><linearGradient id="L" x1="403.22" x2="424.75" y1="199.33" y2="199.33" xlink:href="#g"></linearGradient><linearGradient id="h" x1="901.79" x2="920.58" y1="126.03" y2="126.03" gradientTransform="matrix(-.87 .5 1 .58 1120.81 -251.14)" gradientUnits="userSpaceOnUse"><stop offset="0" stop-color="#ffffff" class="stopColorffffff svgShape"></stop><stop offset=".35" stop-color="#f7f9fc" class="stopColorf7f8fc svgShape"></stop><stop offset=".91" stop-color="#e0eaf5" class="stopColore0e5f5 svgShape"></stop><stop offset="1" stop-color="#dce8f4" class="stopColordce1f4 svgShape"></stop></linearGradient><linearGradient id="M" x1="901.11" x2="919.9" y1="103.79" y2="103.79" xlink:href="#h"></linearGradient><linearGradient id="N" x1="893.09" x2="919.93" y1="111.14" y2="111.14" xlink:href="#h"></linearGradient><linearGradient id="O" x1="887.86" x2="922.64" y1="119.65" y2="119.65" xlink:href="#h"></linearGradient><linearGradient id="i" x1="381.85" x2="401.13" y1="398.53" y2="398.53" gradientUnits="userSpaceOnUse"><stop offset="0" stop-color="#c6d6e7" class="stopColorc6cbe7 svgShape"></stop><stop offset=".26" stop-color="#d8e3ef" class="stopColord8dcef svgShape"></stop><stop offset=".73" stop-color="#f4f7fb" class="stopColorf4f5fb svgShape"></stop><stop offset="1" stop-color="#ffffff" class="stopColorffffff svgShape"></stop></linearGradient><linearGradient id="P" x1="343.84" x2="363.11" y1="376.4" y2="376.4" xlink:href="#i"></linearGradient><linearGradient id="Q" x1="436.1" x2="455.38" y1="366.74" y2="366.74" xlink:href="#i"></linearGradient><linearGradient id="j" x1="435.49" x2="444.56" y1="357.69" y2="357.69" gradientUnits="userSpaceOnUse"><stop offset="0" stop-color="#d0e3f6" class="stopColord0d4f6 svgShape"></stop><stop offset=".4" stop-color="#c7daed" class="stopColorc7cbed svgShape"></stop><stop offset="1" stop-color="#bdd0e4" class="stopColorbdc1e4 svgShape"></stop></linearGradient><linearGradient id="R" x1="438.09" x2="441.96" y1="355.35" y2="355.35" xlink:href="#j"></linearGradient><linearGradient id="S" x1="380.82" x2="389.9" y1="389.19" y2="389.19" xlink:href="#j"></linearGradient><linearGradient id="T" x1="383.42" x2="387.3" y1="386.85" y2="386.85" xlink:href="#j"></linearGradient><linearGradient id="U" x1="342.78" x2="351.85" y1="367.07" y2="367.07" xlink:href="#j"></linearGradient><linearGradient id="V" x1="345.38" x2="349.25" y1="364.73" y2="364.73" xlink:href="#j"></linearGradient><linearGradient id="W" x1="349.29" x2="379.96" y1="358.21" y2="387.78" gradientUnits="userSpaceOnUse"><stop offset="0" stop-color="#e1eaf4" class="stopColore1e5f4 svgShape"></stop><stop offset=".76" stop-color="#ffffff" class="stopColorffffff svgShape"></stop><stop offset=".76" stop-color="#ffffff" class="stopColorffffff svgShape"></stop></linearGradient><linearGradient id="X" x1="378.13" x2="445.83" y1="344.54" y2="344.54" gradientUnits="userSpaceOnUse"><stop offset="0" stop-color="#c6d6e7" class="stopColorc6cbe7 svgShape"></stop><stop offset=".25" stop-color="#cedcea" class="stopColorced2ea svgShape"></stop><stop offset=".62" stop-color="#e3ebf3" class="stopColore3e6f3 svgShape"></stop><stop offset="1" stop-color="#ffffff" class="stopColorffffff svgShape"></stop></linearGradient><linearGradient id="Y" x1="334.78" x2="374.35" y1="344.62" y2="344.62" gradientUnits="userSpaceOnUse"><stop offset="0" stop-color="#f2f4f7" class="stopColorf2f2f7 svgShape"></stop><stop offset=".09" stop-color="#f4f6f8" class="stopColorf5f5f9 svgShape"></stop><stop offset=".46" stop-color="#ffffff" class="stopColorffffff svgShape"></stop></linearGradient><linearGradient id="Z" x1="433.87" x2="437.11" y1="278.26" y2="272.65" gradientUnits="userSpaceOnUse"><stop offset="0" stop-color="#4841aa" class="stopColor4141aa svgShape"></stop><stop offset=".4" stop-color="#665fce" class="stopColor5f5fce svgShape"></stop><stop offset=".78" stop-color="#7d76ea" class="stopColor7676ea svgShape"></stop><stop offset="1" stop-color="#867ff4" class="stopColor7f7ff4 svgShape"></stop></linearGradient><linearGradient id="k" x1="378.29" x2="378.29" y1="253.13" y2="54.95" gradientUnits="userSpaceOnUse"><stop offset="0" stop-color="#5ca9f7" class="stopColorf7d25c svgShape"></stop><stop offset=".12" stop-color="#76b7f8" class="stopColorf8d976 svgShape"></stop><stop offset=".42" stop-color="#b0d5fb" class="stopColorfbe9b0 svgShape"></stop><stop offset=".68" stop-color="#dbecfd" class="stopColorfdf5db svgShape"></stop><stop offset=".88" stop-color="#f5faff" class="stopColorfffcf5 svgShape"></stop><stop offset="1" stop-color="#ffffff" class="stopColorffffff svgShape"></stop></linearGradient><linearGradient id="aa" x1="295.72" x2="154.65" y1="140.86" y2="140.86" xlink:href="#k"></linearGradient><linearGradient id="l" x1="254.84" x2="150.54" y1="55.94" y2="55.94" gradientTransform="rotate(-41.74 391.831 214.94)" gradientUnits="userSpaceOnUse"><stop offset="0" stop-color="#d0e3f6" class="stopColord0d4f6 svgShape"></stop><stop offset=".19" stop-color="#dbe9f8" class="stopColordbdef8 svgShape"></stop><stop offset=".7" stop-color="#f5f9fd" class="stopColorf5f6fd svgShape"></stop><stop offset="1" stop-color="#ffffff" class="stopColorffffff svgShape"></stop></linearGradient><linearGradient id="ab" x1="451.11" x2="368.43" y1="336.34" y2="336.34" gradientTransform="rotate(40.04 696.426 77.542)" xlink:href="#l"></linearGradient><linearGradient id="ac" x1="574.86" x2="674.89" y1="117.64" y2="223.33" xlink:href="#k"></linearGradient><linearGradient id="ad" x1="978.06" x2="1031.62" y1="-296.45" y2="-239.86" gradientTransform="rotate(-96.9 885.291 133.404)" xlink:href="#l"></linearGradient><linearGradient id="m" x1="393.4" x2="545.58" y1="216.1" y2="93.87" gradientUnits="userSpaceOnUse"><stop offset="0" stop-color="#726ae2" class="stopColor6a6ae2 svgShape"></stop><stop offset=".06" stop-color="#7d76e4" class="stopColor7676e4 svgShape"></stop><stop offset=".38" stop-color="#b0d0f0" class="stopColorb0b0f0 svgShape"></stop><stop offset=".66" stop-color="#dbe9f8" class="stopColordbdbf8 svgShape"></stop><stop offset=".87" stop-color="#f5f9fd" class="stopColorf5f5fd svgShape"></stop><stop offset="1" stop-color="#ffffff" class="stopColorffffff svgShape"></stop></linearGradient><linearGradient id="ae" x1="376.77" x2="242.75" y1="264.29" y2="164.75" xlink:href="#m"></linearGradient><linearGradient id="af" x1="143.74" x2="216.03" y1="391.86" y2="391.86" gradientUnits="userSpaceOnUse"><stop offset="0" stop-color="#c6d4e3" class="stopColorc6cae3 svgShape"></stop><stop offset=".15" stop-color="#d7e1eb" class="stopColord7daeb svgShape"></stop><stop offset=".46" stop-color="#f4f7fa" class="stopColorf4f5fa svgShape"></stop><stop offset=".64" stop-color="#ffffff" class="stopColorffffff svgShape"></stop></linearGradient><linearGradient id="ag" x1="135.59" x2="158.47" y1="393.61" y2="353.98" gradientUnits="userSpaceOnUse"><stop offset="0" stop-color="#d0e3f6" class="stopColord0d4f6 svgShape"></stop><stop offset=".63" stop-color="#ecf3fa" class="stopColorecedfa svgShape"></stop><stop offset="1" stop-color="#f7f9fc" class="stopColorf7f7fc svgShape"></stop></linearGradient><linearGradient id="ah" x1="622.94" x2="695.42" y1="354.79" y2="354.79" gradientUnits="userSpaceOnUse"><stop offset="0" stop-color="#c6d6e7" class="stopColorc6cbe7 svgShape"></stop><stop offset=".02" stop-color="#c8d8e8" class="stopColorc8cde8 svgShape"></stop><stop offset=".35" stop-color="#e6edf4" class="stopColore6e8f4 svgShape"></stop><stop offset=".62" stop-color="#f8fafc" class="stopColorf8f9fc svgShape"></stop><stop offset=".82" stop-color="#ffffff" class="stopColorffffff svgShape"></stop></linearGradient><linearGradient id="n" x1="727.13" x2="750.01" y1="350.33" y2="310.7" gradientTransform="matrix(-1 0 0 1 1372.75 0)" gradientUnits="userSpaceOnUse"><stop offset="0" stop-color="#bdd0e4" class="stopColorbdc1e4 svgShape"></stop><stop offset=".54" stop-color="#dbe5f0" class="stopColordbddf0 svgShape"></stop><stop offset="1" stop-color="#f7f9fc" class="stopColorf7f7fc svgShape"></stop></linearGradient><linearGradient id="ai" x1="862.46" x2="885.34" y1="95" y2="55.37" xlink:href="#n"></linearGradient></defs><g style="isolation:isolate" fill="#010001" class="color000000 svgShape"><g fill="#010001" class="color000000 svgShape"><g data-name="Little symbols" fill="#010001" class="color000000 svgShape"><path fill="#f4f6f8" d="M433,173.06a10.25,10.25,0,0,1-4.63,8L317.73,244.94c-2.55,1.47-4.63.27-4.63-2.67v-87.7a10.26,10.26,0,0,1,4.63-8L428.35,82.69c2.55-1.47,4.63-.27,4.63,2.67Z" class="colorf2f2f7 svgShape"></path><path fill="#d0e3f6" d="M433,85.36c0-2.94-2.08-4.14-4.63-2.67L317.73,146.56a10.26,10.26,0,0,0-4.63,8v6.1L433,91.45Z" class="colord0d4f6 svgShape"></path><polygon fill="#5ca9f7" points="321.98 147.07 317.21 149.83 317.21 155.33 321.98 152.58 321.98 147.07" class="colorf7d25c svgShape"></polygon><polygon fill="#ffffff" points="329.5 142.73 324.73 145.48 324.73 150.99 329.5 148.24 329.5 142.73" class="colorffffff svgShape"></polygon><polygon fill="#ffffff" points="337.01 138.39 332.25 141.14 332.25 146.65 337.01 143.89 337.01 138.39" class="colorffffff svgShape"></polygon><polygon fill="#d0e3f6" points="353.19 160.27 423.88 119.46 423.88 123.02 353.19 163.83 353.19 160.27" class="colord0d4f6 svgShape"></polygon><polygon fill="#d0e3f6" points="353.19 168.29 423.88 127.47 423.88 131.03 353.19 171.84 353.19 168.29" class="colord0d4f6 svgShape"></polygon><polygon fill="#d0e3f6" points="353.19 187.87 423.88 147.06 423.88 143.5 353.19 184.31 353.19 187.87" class="colord0d4f6 svgShape"></polygon><polygon fill="#d0e3f6" points="353.19 176.3 423.88 135.49 423.88 139.04 353.19 179.86 353.19 176.3" class="colord0d4f6 svgShape"></polygon><polygon fill="#d0e3f6" points="332.56 207.8 409.45 163.41 409.45 159.85 332.56 204.24 332.56 207.8" class="colord0d4f6 svgShape"></polygon><polygon fill="#d0e3f6" points="319.64 163.4 378.25 129.56 378.25 136.97 319.64 170.81 319.64 163.4" class="colord0d4f6 svgShape"></polygon><polygon fill="#d0e3f6" points="347.05 191.71 319.64 207.54 319.64 175.19 347.05 159.36 347.05 191.71" class="colord0d4f6 svgShape"></polygon><path fill="url(#a)" d="M428.47,80.57a3.14,3.14,0,0,0-3.38.23L314.46,144.67a10.29,10.29,0,0,0-4.63,8v87.69a3.14,3.14,0,0,0,1.51,3.06l3,1.73a3.3,3.3,0,0,1-1.24-2.9v-87.7a10.29,10.29,0,0,1,4.63-8L428.36,82.69a3.31,3.31,0,0,1,3.14-.38Z"></path><path fill="#f4f6f8" d="M227.73,296.22a10.25,10.25,0,0,1-4.63,8L112.48,368.1c-2.55,1.47-4.63.27-4.63-2.67v-87.7a10.25,10.25,0,0,1,4.63-8L223.1,205.85c2.55-1.47,4.63-.27,4.63,2.67Z" class="colorf2f2f7 svgShape"></path><path fill="#d0e3f6" d="M227.73,208.52c0-2.94-2.08-4.14-4.63-2.67L112.48,269.72a10.25,10.25,0,0,0-4.63,8v6.1l119.88-69.22Z" class="colord0d4f6 svgShape"></path><polygon fill="#5ca9f7" points="116.72 270.23 111.96 272.98 111.96 278.49 116.72 275.74 116.72 270.23" class="colorf7d25c svgShape"></polygon><polygon fill="#ffffff" points="124.24 265.89 119.48 268.64 119.48 274.14 124.24 271.39 124.24 265.89" class="colorffffff svgShape"></polygon><polygon fill="#ffffff" points="131.76 261.55 127 264.3 127 269.8 131.76 267.05 131.76 261.55" class="colorffffff svgShape"></polygon><path fill="#d0e3f6" d="M167.79,268.7c8.74-5.05,15.83-1,15.83,9.14s-7.09,22.37-15.83,27.41-15.83,1-15.83-9.14S159.05,273.75,167.79,268.7Z" class="colord0d4f6 svgShape"></path><polygon fill="#726ae2" points="174.41 276.97 165.24 292.85 161.03 290.42 158.85 294.19 165.24 297.89 176.59 278.23 174.41 276.97" class="color6a6ae2 svgShape"></polygon><polygon fill="#867ff4" points="166.25 257.35 169.33 255.57 169.33 259.13 166.25 260.9 166.25 257.35" class="color7f7ff4 svgShape"></polygon><polygon fill="#bdd0e4" points="142.79 323.5 192.79 294.63 192.79 298.19 142.79 327.06 142.79 323.5" class="colorbdc1e4 svgShape"></polygon><polygon fill="#bdd0e4" points="147.9 328.27 189.16 304.45 189.16 308.01 147.9 331.83 147.9 328.27" class="colorbdc1e4 svgShape"></polygon><polygon fill="#867ff4" points="173.19 253.34 176.27 251.56 176.27 255.12 173.19 256.9 173.19 253.34" class="color7f7ff4 svgShape"></polygon><polygon fill="#867ff4" points="162.39 259.57 159.31 261.35 159.31 264.91 162.39 263.13 162.39 259.57" class="color7f7ff4 svgShape"></polygon><path fill="url(#o)" d="M223.22,203.73a3.16,3.16,0,0,0-3.39.23L109.21,267.83a10.26,10.26,0,0,0-4.63,8v87.69a3.16,3.16,0,0,0,1.51,3.06l3,1.73a3.32,3.32,0,0,1-1.23-2.9v-87.7a10.25,10.25,0,0,1,4.63-8L223.1,205.85a3.32,3.32,0,0,1,3.14-.38Z"></path><path d="M183.94,248.86l43.79-25.28v72.64a10.25,10.25,0,0,1-4.63,8l-43.79,25.28V256.87A10.26,10.26,0,0,1,183.94,248.86Z" style="mix-blend-mode:multiply" fill="url(#b)"></path><path fill="#f7f9fc" d="M336.88,279.82a10.27,10.27,0,0,1-4.63,8L221.62,351.7c-2.54,1.47-4.62.27-4.62-2.67v-87.7a10.26,10.26,0,0,1,4.62-8l110.63-63.87c2.54-1.47,4.63-.27,4.63,2.67Z" class="colorf7f7fc svgShape"></path><path fill="#d0e3f6" d="M336.88,192.12c0-2.94-2.09-4.14-4.63-2.67L221.62,253.32a10.26,10.26,0,0,0-4.62,8v6.1l119.88-69.22Z" class="colord0d4f6 svgShape"></path><polygon fill="#5ca9f7" points="225.87 253.83 221.11 256.58 221.11 262.08 225.87 259.33 225.87 253.83" class="colorf7d25c svgShape"></polygon><polygon fill="#ffffff" points="233.39 249.49 228.63 252.24 228.63 257.74 233.39 254.99 233.39 249.49" class="colorffffff svgShape"></polygon><polygon fill="#ffffff" points="240.91 245.15 236.15 247.9 236.15 253.4 240.91 250.65 240.91 245.15" class="colorffffff svgShape"></polygon><polygon fill="#867ff4" points="224.17 310.37 323.14 253.23 323.14 256.79 224.17 313.93 224.17 310.37" class="color7f7ff4 svgShape"></polygon><polygon fill="#867ff4" points="224.17 318.38 323.14 261.24 323.14 264.8 224.17 321.94 224.17 318.38" class="color7f7ff4 svgShape"></polygon><polygon fill="#867ff4" points="224.17 337.97 264.21 314.85 264.21 311.29 224.17 334.41 224.17 337.97" class="color7f7ff4 svgShape"></polygon><polygon fill="#867ff4" points="224.17 326.4 304.51 280.02 304.51 283.57 224.17 329.95 224.17 326.4" class="color7f7ff4 svgShape"></polygon><polygon fill="#d0e3f6" points="224.17 269.79 282.79 235.95 282.79 243.35 224.17 277.2 224.17 269.79" class="colord0d4f6 svgShape"></polygon><polygon fill="#d0e3f6" points="244.21 293.66 224.17 305.22 224.17 281.57 244.21 270.01 244.21 293.66" class="colord0d4f6 svgShape"></polygon><polygon fill="#d0e3f6" points="270.78 278.32 250.74 289.88 250.74 266.23 270.78 254.67 270.78 278.32" class="colord0d4f6 svgShape"></polygon><polygon fill="#429af2" points="297.35 262.98 277.31 274.54 277.31 250.89 297.35 239.33 297.35 262.98" class="colorf2bd42 svgShape"></polygon><polygon fill="#d0e3f6" points="323.92 247.64 303.88 259.2 303.88 235.56 323.92 223.99 323.92 247.64" class="colord0d4f6 svgShape"></polygon><polygon fill="#d0e3f6" points="332.25 282.49 314.4 292.79 314.4 276.08 332.25 265.78 332.25 282.49" class="colord0d4f6 svgShape"></polygon><path fill="url(#p)" d="M332.36,187.33a3.14,3.14,0,0,0-3.38.23L218.35,251.43a10.28,10.28,0,0,0-4.62,8v87.69a3.16,3.16,0,0,0,1.5,3.06l3,1.73A3.32,3.32,0,0,1,217,349v-87.7a10.26,10.26,0,0,1,4.62-8l110.63-63.87a3.31,3.31,0,0,1,3.14-.38Z"></path><path fill="#f4f6f8" d="M673.2,314.58c0,2.94-2.08,4.14-4.62,2.67L558,253.39a10.28,10.28,0,0,1-4.62-8V157.68c0-2.94,2.08-4.15,4.62-2.68l110.63,63.87a10.28,10.28,0,0,1,4.62,8Z" class="colorf2f2f7 svgShape"></path><path fill="#d0e3f6" d="M673.2,226.89a10.28,10.28,0,0,0-4.62-8L558,155c-2.54-1.47-4.62-.26-4.62,2.68v6.09L673.2,233Z" class="colord0d4f6 svgShape"></path><polygon fill="#5ca9f7" points="562.2 160.42 557.44 157.67 557.44 163.18 562.2 165.93 562.2 160.42" class="colorf7d25c svgShape"></polygon><polygon fill="#ffffff" points="569.72 164.76 564.96 162.01 564.96 167.52 569.72 170.27 569.72 164.76" class="colorffffff svgShape"></polygon><polygon fill="#ffffff" points="577.24 169.11 572.47 166.35 572.47 171.86 577.24 174.61 577.24 169.11" class="colorffffff svgShape"></polygon><path fill="#d0e3f6" d="M657.49,283.77a17.12,17.12,0,0,1,7.75,13.41c0,4.94-3.47,6.94-7.75,4.47a17.11,17.11,0,0,1-7.74-13.41C649.75,283.3,653.21,281.3,657.49,283.77Z" class="colord0d4f6 svgShape"></path><polygon fill="#5046e4" points="660.99 293.84 658.26 292.27 658.26 289.12 656.72 288.23 656.72 291.38 653.99 289.8 653.99 291.58 656.72 293.16 656.72 296.31 658.26 297.2 658.26 294.05 660.99 295.63 660.99 293.84" class="color5555c6 svgShape"></polygon><polygon fill="#867ff4" points="643.53 222.36 665.24 234.88 665.24 238.44 643.53 225.91 643.53 222.36" class="color7f7ff4 svgShape"></polygon><polygon fill="#867ff4" points="637.88 227.11 665.24 242.9 665.24 246.46 637.88 230.66 637.88 227.11" class="color7f7ff4 svgShape"></polygon><polygon fill="#867ff4" points="637.88 235.12 665.24 250.91 665.24 254.47 637.88 238.68 637.88 235.12" class="color7f7ff4 svgShape"></polygon><path fill="#5046e4" d="M612.18,220c4.45,2.57,8.06.39,8.06-4.87v-2.66c0,5.27-3.61,6.34-8.06,3.77s-8.06-7.81-8.06-13.08v2.65C604.12,211,607.73,217.38,612.18,220Z" class="color5555c6 svgShape"></path><path fill="#867ff4" d="M622,243.42c-.1-4.92,3.31-15.75,3.31-15.75a38.57,38.57,0,0,1-2.91-14l-2.18-1.26v2.66c0,5.26-3.61,7.44-8.06,4.87s-8.06-8.92-8.06-14.19v-2.65l-2.18-1.25c0,4.51-1.06,8.1-2.91,10.62,0,0,3.41,14.76,3.31,19.58,0,5.58-5.54,22.4-9.22,30.05l19.06,11,19.06,11C627.56,272.22,622,249,622,243.42Z" class="color7f7ff4 svgShape"></path><polygon fill="#4841aa" points="622.27 242.48 602.09 230.83 602.09 233.01 622.27 244.66 622.27 242.48" class="color4141aa svgShape"></polygon><path fill="url(#q)" d="M554.81,154.63A3.34,3.34,0,0,1,558,155l110.63,63.87a10.28,10.28,0,0,1,4.62,8v87.69a3.31,3.31,0,0,1-1.23,2.9l3-1.73a3.13,3.13,0,0,0,1.5-3.05V225a10.26,10.26,0,0,0-4.62-8L561.22,153.12a3.16,3.16,0,0,0-3.38-.24Z"></path><path d="M608.33,204.49l-55-31.76v72.64a10.28,10.28,0,0,0,4.62,8l55,31.75V212.5A10.27,10.27,0,0,0,608.33,204.49Z" style="mix-blend-mode:multiply" fill="url(#r)"></path><path fill="#f7f9fc" d="M578.19,286.5c0,2.94-2.08,4.14-4.63,2.67L462.94,225.3a10.26,10.26,0,0,1-4.63-8V129.59c0-2.94,2.08-4.14,4.63-2.67l110.62,63.87a10.25,10.25,0,0,1,4.63,8Z" class="colorf7f7fc svgShape"></path><path fill="#d0e3f6" d="M578.19,198.8a10.25,10.25,0,0,0-4.63-8L462.94,126.92c-2.55-1.47-4.63-.27-4.63,2.67v6.09l119.88,69.21Z" class="colord0d4f6 svgShape"></path><polygon fill="#5ca9f7" points="467.19 132.34 462.42 129.59 462.42 135.09 467.19 137.84 467.19 132.34" class="colorf7d25c svgShape"></polygon><polygon fill="#ffffff" points="474.7 136.68 469.94 133.93 469.94 139.43 474.7 142.18 474.7 136.68" class="colorffffff svgShape"></polygon><polygon fill="#ffffff" points="482.22 141.02 477.46 138.27 477.46 143.77 482.22 146.52 482.22 141.02" class="colorffffff svgShape"></polygon><path fill="#d0e3f6" d="M562.48,255.68a17.14,17.14,0,0,1,7.74,13.42c0,4.93-3.47,6.94-7.74,4.47a17.13,17.13,0,0,1-7.75-13.42C554.73,255.21,558.2,253.21,562.48,255.68Z" class="colord0d4f6 svgShape"></path><polygon fill="#5046e4" points="565.98 265.76 563.25 264.18 563.25 261.03 561.71 260.14 561.71 263.29 558.98 261.71 558.98 263.49 561.71 265.07 561.71 268.22 563.25 269.11 563.25 265.96 565.98 267.54 565.98 265.76" class="color5555c6 svgShape"></polygon><polygon fill="#867ff4" points="548.52 194.27 570.22 206.8 570.22 210.35 548.52 197.83 548.52 194.27" class="color7f7ff4 svgShape"></polygon><polygon fill="#867ff4" points="542.87 199.02 570.22 214.81 570.22 218.37 542.87 202.58 542.87 199.02" class="color7f7ff4 svgShape"></polygon><polygon fill="#867ff4" points="542.87 207.03 570.22 222.83 570.22 226.38 542.87 210.59 542.87 207.03" class="color7f7ff4 svgShape"></polygon><polygon fill="#d62db7" points="489.18 183.52 504.09 192.12 504.09 181.12 489.18 172.52 489.18 183.52" class="colord6952d svgShape"></polygon><path fill="#5ca9f7" d="M482.45,168.63l6.73,3.89v2.39a16.47,16.47,0,0,0,7.46,12.91c4.11,2.37,7.45.45,7.44-4.3v-2.4l6.73,3.89c5.6,3.23,10.13,11.09,10.13,17.54v8.2l-10.1-5.84V231.7l-28.42-16.41V188.5l-10.11-5.83v-8.19C472.32,168,476.85,165.4,482.45,168.63Z" class="colorf7d25c svgShape"></path><polygon fill="#429af2" points="510.85 204.91 510.85 195.11 513.56 206.48 510.85 204.91" class="colorf2bd42 svgShape"></polygon><polygon fill="#429af2" points="482.43 188.5 482.43 178.7 479.7 186.93 482.43 188.5" class="colorf2bd42 svgShape"></polygon><polygon fill="#ffffff" points="491.97 194.76 489 193.05 489 189.62 491.97 191.34 491.97 194.76" class="colorffffff svgShape"></polygon><path fill="url(#s)" d="M459.8,126.54a3.32,3.32,0,0,1,3.14.38l110.62,63.87a10.25,10.25,0,0,1,4.63,8v87.7a3.34,3.34,0,0,1-1.23,2.9l3-1.73a3.16,3.16,0,0,0,1.51-3.06v-87.7a10.25,10.25,0,0,0-4.63-8L466.21,125a3.18,3.18,0,0,0-3.39-.24Z"></path><path d="M678.47,411.54l-5.54-3.2c3,2.47,2.57,5.9-1.23,8.1L531.52,497.37a15.93,15.93,0,0,1-7.76,1.85v4h7.37a15.6,15.6,0,0,0,7.16-1.84L678.47,420.5C682.74,418,682.74,414,678.47,411.54Z" style="mix-blend-mode:multiply" fill="url(#d)"></path><path fill="url(#e)" d="M671.7,416.44,531.52,497.37a17.18,17.18,0,0,1-15.52,0L439.18,453c-2.1-1.21-3.16-2.8-3.19-4.4h0v3.52a6.21,6.21,0,0,0,3.19,4.93L516,501.42a17.18,17.18,0,0,0,15.52,0L671.7,420.49c2.11-1.22,3.18-2.83,3.2-4.44V412h0C674.88,413.61,673.81,415.22,671.7,416.44Z"></path><path fill="#f7f9fc" d="M671.7,407.48c4.27,2.46,4.27,6.49,0,9L531.52,497.37a17.18,17.18,0,0,1-15.52,0L439.18,453c-4.26-2.46-4.26-6.49,0-9l140.18-80.93c4.27-2.46,11.26-2.46,15.52,0Z" class="colorf7f7fc svgShape"></path><path fill="#5046e4" d="M449.5,453c-4.3-2.48-4.3-6.51,0-9a17.16,17.16,0,0,1,15.57,0c4.3,2.48,4.3,6.51,0,9A17.22,17.22,0,0,1,449.5,453Z" class="color5555c6 svgShape"></path><polygon fill="#5046e4" points="465.07 439.58 514.2 411.22 521.93 415.68 472.81 444.05 465.07 439.58" class="color5555c6 svgShape"></polygon><polygon fill="#e1eaf4" points="496.47 469.08 523.88 453.25 533.58 458.85 506.17 474.68 496.47 469.08" class="colore1e5f4 svgShape"></polygon><polygon fill="#e1eaf4" points="529.41 450.06 556.82 434.24 566.51 439.83 539.11 455.66 529.41 450.06" class="colore1e5f4 svgShape"></polygon><polygon fill="#e1eaf4" points="562.34 431.04 589.75 415.22 599.45 420.82 572.04 436.64 562.34 431.04" class="colore1e5f4 svgShape"></polygon><polygon fill="#e1eaf4" points="595.28 412.03 622.68 396.2 632.38 401.81 604.98 417.63 595.28 412.03" class="colore1e5f4 svgShape"></polygon><polygon fill="#e1eaf4" points="526.09 493.64 576.26 464.67 570.57 461.39 520.4 490.35 526.09 493.64" class="colore1e5f4 svgShape"></polygon><polygon fill="#e1eaf4" points="513.67 486.47 596.95 438.39 602.64 441.67 519.36 489.76 513.67 486.47" class="colore1e5f4 svgShape"></polygon><polygon fill="#ffffff" points="618.95 425.69 654.11 405.39 666.53 412.56 631.36 432.86 618.95 425.69" class="colorffffff svgShape"></polygon><path fill="#d0e3f6" d="M502,443.06a6.86,6.86,0,0,0-6.21,0l-16.93,9.78c-1.71,1-1.71,2.59,0,3.58l13,7.5a6.86,6.86,0,0,0,6.21,0L515,454.15c1.71-1,1.71-2.6,0-3.59Z" class="colord0d4f6 svgShape"></path><polygon fill="#bdd0e4" points="503.34 443.86 502.25 443.23 479.12 456.59 480.2 457.22 487.28 453.13 489.77 454.57 482.69 458.65 483.77 459.28 490.85 455.19 493.99 457 486.91 461.09 487.99 461.72 495.07 457.63 497.51 459.04 490.43 463.12 491.52 463.75 514.66 450.39 513.57 449.76 506.49 453.85 504.06 452.44 511.13 448.36 510.05 447.73 502.97 451.82 499.84 450.01 506.92 445.92 505.83 445.3 497.66 450.01 505.41 454.48 498.6 458.41 488.37 452.5 503.34 443.86" class="colorbdc1e4 svgShape"></polygon><path fill="#867ff4" d="M592.94,374.14l-.31,1.29c10.78.89,18.85,5.82,20.32,11.75l2.25-.18C613.6,380.5,604.74,375.11,592.94,374.14Zm-2.53,10.39c3.6.3,6.3,2,6.79,3.93l2.25-.18c-.63-2.55-4.1-4.67-8.73-5Zm1.05-4.33-.31,1.3a16.85,16.85,0,0,1,8.77,3,6.58,6.58,0,0,1,2.54,3.54l2.24-.18a7.65,7.65,0,0,0-3-4.15A19.73,19.73,0,0,0,591.46,380.2Zm.74-3-.31,1.3c8.38.69,14.67,4.52,15.81,9.14l2.24-.18C608.66,382.25,601.61,377.94,592.2,377.17Z" class="color7f7ff4 svgShape"></path><polygon fill="url(#c)" points="313.68 497.15 304.53 491.87 310.4 485.21 310.4 485.21 310.4 485.21 310.4 485.21 302.17 485.21 286.79 502.64 295.02 502.64 300.89 495.99 313.68 497.15"></polygon><polygon fill="url(#t)" points="285.7 481 276.55 475.72 282.42 469.06 282.42 469.06 282.42 469.06 282.42 469.06 274.19 469.06 258.8 486.49 267.04 486.49 272.91 479.83 285.7 481"></polygon><polygon fill="url(#u)" points="257.72 464.85 248.56 459.56 254.44 452.9 254.44 452.9 254.44 452.9 254.44 452.9 246.21 452.9 230.82 470.33 239.06 470.33 244.93 463.68 257.72 464.85"></polygon><polygon fill="url(#v)" points="229.74 448.69 220.58 443.41 226.46 436.75 226.46 436.75 226.46 436.75 226.46 436.75 218.22 436.75 202.84 454.18 211.08 454.18 216.95 447.52 229.74 448.69"></polygon><polygon fill="url(#w)" points="201.75 432.54 192.6 427.25 198.48 420.59 198.48 420.59 198.48 420.59 198.48 420.59 190.24 420.59 174.86 438.02 183.1 438.02 188.97 431.37 201.75 432.54"></polygon><polygon fill="#429af2" points="169.56 413.62 169.56 418.7 171.59 426.08 171.59 421 169.56 413.62" class="colorf2bd42 svgShape"></polygon><polygon fill="#d62db7" points="190.25 415.52 190.25 420.59 184.37 427.25 184.37 422.17 190.25 415.52" class="colord6952d svgShape"></polygon><polygon fill="#429af2" points="180.74 426.29 180.74 431.37 193.52 432.54 193.52 427.46 180.74 426.29" class="colorf2bd42 svgShape"></polygon><polygon fill="#d62db7" points="160.06 424.4 160.06 429.48 172.84 430.64 172.84 425.57 160.06 424.4" class="colord6952d svgShape"></polygon><polygon fill="#d62db7" points="180.74 426.29 180.74 431.37 174.86 438.02 174.86 432.95 180.74 426.29" class="colord6952d svgShape"></polygon><polygon fill="#429af2" points="174.86 432.95 174.86 438.02 172.84 430.64 172.84 425.57 174.86 432.95" class="colorf2bd42 svgShape"></polygon><polygon fill="#5ca9f7" points="190.25 415.52 184.37 422.17 193.52 427.46 180.74 426.29 174.86 432.95 172.84 425.57 160.06 424.4 171.59 421 169.56 413.62 178.71 418.91 190.25 415.52" class="colorf7d25c svgShape"></polygon><polygon fill="#429af2" points="197.54 429.78 197.54 434.86 199.57 442.24 199.57 437.16 197.54 429.78" class="colorf2bd42 svgShape"></polygon><polygon fill="#d62db7" points="218.22 431.67 218.22 436.75 212.35 443.41 212.35 438.33 218.22 431.67" class="colord6952d svgShape"></polygon><polygon fill="#429af2" points="208.72 442.44 208.72 447.52 221.5 448.69 221.5 443.61 208.72 442.44" class="colorf2bd42 svgShape"></polygon><polygon fill="#d62db7" points="188.04 440.55 188.04 445.63 200.82 446.8 200.82 441.72 188.04 440.55" class="colord6952d svgShape"></polygon><polygon fill="#d62db7" points="208.72 442.44 208.72 447.52 202.84 454.18 202.84 449.1 208.72 442.44" class="colord6952d svgShape"></polygon><polygon fill="#429af2" points="202.84 449.1 202.84 454.18 200.82 446.8 200.82 441.72 202.84 449.1" class="colorf2bd42 svgShape"></polygon><polygon fill="#5ca9f7" points="218.22 431.67 212.35 438.33 221.5 443.61 208.72 442.44 202.84 449.1 200.82 441.72 188.04 440.55 199.57 437.16 197.54 429.78 206.69 435.06 218.22 431.67" class="colorf7d25c svgShape"></polygon><polygon fill="#429af2" points="225.52 445.93 225.52 451.01 227.55 458.39 227.55 453.31 225.52 445.93" class="colorf2bd42 svgShape"></polygon><polygon fill="#d62db7" points="246.21 447.82 246.21 452.9 240.33 459.56 240.33 454.48 246.21 447.82" class="colord6952d svgShape"></polygon><polygon fill="#429af2" points="236.7 458.6 236.7 463.68 249.48 464.85 249.48 459.77 236.7 458.6" class="colorf2bd42 svgShape"></polygon><polygon fill="#d62db7" points="216.02 456.71 216.02 461.79 228.8 462.95 228.8 457.88 216.02 456.71" class="colord6952d svgShape"></polygon><polygon fill="#d62db7" points="236.7 458.6 236.7 463.68 230.82 470.33 230.82 465.26 236.7 458.6" class="colord6952d svgShape"></polygon><polygon fill="#429af2" points="230.82 465.26 230.82 470.33 228.8 462.95 228.8 457.88 230.82 465.26" class="colorf2bd42 svgShape"></polygon><polygon fill="#5ca9f7" points="246.21 447.82 240.33 454.48 249.48 459.77 236.7 458.6 230.82 465.26 228.8 457.88 216.02 456.71 227.55 453.31 225.52 445.93 234.67 451.22 246.21 447.82" class="colorf7d25c svgShape"></polygon><polygon fill="#429af2" points="253.5 462.09 253.5 467.17 255.53 474.55 255.53 469.47 253.5 462.09" class="colorf2bd42 svgShape"></polygon><polygon fill="#d62db7" points="274.19 463.98 274.19 469.06 268.31 475.72 268.31 470.64 274.19 463.98" class="colord6952d svgShape"></polygon><polygon fill="#429af2" points="264.68 474.75 264.68 479.83 277.46 481 277.46 475.92 264.68 474.75" class="colorf2bd42 svgShape"></polygon><polygon fill="#d62db7" points="244 472.86 244 477.94 256.78 479.11 256.78 474.03 244 472.86" class="colord6952d svgShape"></polygon><polygon fill="#d62db7" points="264.68 474.75 264.68 479.83 258.8 486.49 258.8 481.41 264.68 474.75" class="colord6952d svgShape"></polygon><polygon fill="#429af2" points="258.8 481.41 258.8 486.49 256.78 479.11 256.78 474.03 258.8 481.41" class="colorf2bd42 svgShape"></polygon><polygon fill="#5ca9f7" points="274.19 463.98 268.31 470.64 277.46 475.92 264.68 474.75 258.8 481.41 256.78 474.03 244 472.86 255.53 469.47 253.5 462.09 262.65 467.37 274.19 463.98" class="colorf7d25c svgShape"></polygon><polygon fill="#429af2" points="281.48 478.24 281.48 483.32 283.51 490.7 283.51 485.62 281.48 478.24" class="colorf2bd42 svgShape"></polygon><polygon fill="#d62db7" points="302.17 480.13 302.17 485.21 296.29 491.87 296.29 486.79 302.17 480.13" class="colord6952d svgShape"></polygon><polygon fill="#429af2" points="292.66 490.91 292.66 495.99 305.44 497.15 305.44 492.08 292.66 490.91" class="colorf2bd42 svgShape"></polygon><polygon fill="#d62db7" points="271.98 489.02 271.98 494.09 284.76 495.26 284.76 490.19 271.98 489.02" class="colord6952d svgShape"></polygon><polygon fill="#d62db7" points="292.66 490.91 292.66 495.99 286.79 502.64 286.79 497.56 292.66 490.91" class="colord6952d svgShape"></polygon><polygon fill="#429af2" points="286.79 497.56 286.79 502.64 284.76 495.26 284.76 490.19 286.79 497.56" class="colorf2bd42 svgShape"></polygon><polygon fill="#5ca9f7" points="302.17 480.13 296.29 486.79 305.44 492.08 292.66 490.91 286.79 497.56 284.76 490.19 271.98 489.02 283.51 485.62 281.48 478.24 290.63 483.53 302.17 480.13" class="colorf7d25c svgShape"></polygon><polygon points="467.93 248.39 448.8 248.39 591.77 330.94 335.22 479.06 354.35 479.06 610.91 330.94 467.93 248.39" style="mix-blend-mode:multiply" fill="url(#x)"></polygon><path fill="url(#y)" d="M197.83,389.12v.16A.43.43,0,0,0,197.83,389.12Zm394.06-69.94v0ZM586.4,327,347.52,464.87c-7.32,4.23-19.31,4.23-26.64,0L203.33,397c-3.65-2.11-5.48-4.88-5.5-7.66v10.91c0,2.82,1.79,5.66,5.5,7.8l117.55,67.87c7.33,4.23,19.32,4.23,26.64,0L586.4,338c3.66-2.11,5.5-4.9,5.49-7.69v-11C591.89,322.05,590.06,324.84,586.4,327Z"></path><path fill="#f7f9fc" d="M347.52,464.87c-7.32,4.23-19.31,4.23-26.64,0L203.33,397c-7.33-4.23-7.33-11.15,0-15.38L442.21,243.7c7.32-4.23,19.31-4.23,26.63,0L586.4,311.57c7.33,4.23,7.33,11.15,0,15.38Z" class="colorf7f7fc svgShape"></path><polygon fill="#d0e3f6" points="351.39 454.95 220.52 379.39 445.31 249.6 576.19 325.16 351.39 454.95" class="colord0d4f6 svgShape"></polygon><path fill="#d0e3f6" d="M270.39,416.42a8,8,0,0,1,7.28,0l9.58,5.53c2,1.15,2,3.05,0,4.2l-9.58,5.54a8.11,8.11,0,0,1-7.28,0l-9.58-5.54c-2-1.15-2-3,0-4.2Z" class="colord0d4f6 svgShape"></path><polygon fill="#bdd0e4" points="503.8 273.01 535.65 291.39 533.6 292.57 501.75 274.19 503.8 273.01" class="colorbdc1e4 svgShape"></polygon><path d="M449.9,525.92c-8.06-4.65-18.78-6.79-29.3-6.48H404.1v2.7a43.82,43.82,0,0,0-8.73,3.78c-15,8.73-14.92,22.87.18,31.59a44,44,0,0,0,8.55,3.71V564h19.79c9.52-.16,18.95-2.31,26.19-6.52C465.09,548.79,465,534.65,449.9,525.92Z" style="mix-blend-mode:multiply" fill="url(#z)"></path><path fill="#69b4ff" d="M366.5,531.48c0-5.58,3.69-11.16,11.06-15.42s17-6.39,26.71-6.39,19.33,2.13,26.7,6.39S442,525.89,442,531.48,438.35,542.64,431,546.9s-17,6.38-26.7,6.38-19.33-2.13-26.7-6.39S366.5,537.06,366.5,531.48Z" class="colorffe669 svgShape"></path><path fill="url(#f)" d="M431,546.9c-7.37,4.25-17,6.38-26.7,6.38s-19.33-2.13-26.7-6.39-11.07-9.83-11.07-15.41v10.76c0,5.58,3.69,11.16,11.07,15.42s17,6.38,26.7,6.38,19.33-2.12,26.7-6.38S442,547.82,442,542.24V531.48C442,537.06,438.35,542.64,431,546.9Z"></path><path fill="#5ca9f7" d="M382.58,544c6,3.46,13.84,5.19,21.69,5.19S420,547.46,426,544c5.52-3.19,8.49-7.3,8.92-11.47-.43-4.18-3.4-8.28-8.92-11.48-6-3.45-13.84-5.18-21.69-5.18s-15.7,1.72-21.69,5.18c-5.52,3.19-8.49,7.3-8.92,11.47C374.09,536.7,377.06,540.81,382.58,544Z" class="colorf7d25c svgShape"></path><path fill="#d62db7" d="M382.58,521.05c6-3.46,13.84-5.18,21.69-5.18S420,517.6,426,521.05c5.52,3.2,8.49,7.3,8.92,11.48a9.24,9.24,0,0,0,.06-1c0-4.54-3-9.07-9-12.53s-13.84-5.18-21.69-5.18-15.7,1.73-21.69,5.18-9,8-9,12.53a8.94,8.94,0,0,0,.06,1C374.09,528.35,377.06,524.24,382.58,521.05Z" class="colord6952d svgShape"></path><polygon fill="#d62db7" points="419.38 526.97 422.28 525.3 422.28 523.2 419.38 524.87 419.38 526.97" class="colord6952d svgShape"></polygon><path fill="#69b4ff" d="M406,530.48a2.47,2.47,0,0,1,0-4.68,9,9,0,0,1,8.1,0c2.23,1.29,2.23,3.39,0,4.68l3.68,2.12c3.62-2.09,4.15-5.3,1.6-7.73l2.9-1.67-3.67-2.12-2.91,1.67c-4.19-1.47-9.75-1.16-13.38.93-2.06,1.19-3.2,2.78-3.2,4.46s1.14,3.27,3.2,4.46c2.24,1.29,2.24,3.39,0,4.68a9,9,0,0,1-8.1,0c-2.23-1.29-2.23-3.39,0-4.68l-3.67-2.12c-3.63,2.09-4.16,5.3-1.61,7.73l-2.68,1.54,3.68,2.12,2.67-1.54c4.21,1.47,9.76,1.17,13.39-.93C410.26,536.94,410.26,532.94,406,530.48Z" class="colorffe669 svgShape"></path><polygon fill="#429af2" points="386.26 541.85 389.94 543.97 389.94 541.87 386.26 539.75 386.26 541.85" class="colorf2bd42 svgShape"></polygon><polygon fill="#d62db7" points="389.94 543.97 392.62 542.43 392.62 540.33 389.94 541.87 389.94 543.97" class="colord6952d svgShape"></polygon><polygon fill="#429af2" points="414.1 532.58 417.77 534.7 417.77 532.6 414.1 530.48 414.1 532.58" class="colorf2bd42 svgShape"></polygon><path fill="#d62db7" d="M394.22,534.7v-2.1c-1.58.92-2,2.24-1.37,3.39A3.58,3.58,0,0,1,394.22,534.7Z" class="colord6952d svgShape"></path><path fill="#429af2" d="M387.36 534.83v2.37h0a4 4 0 00.45 1.66l1.12-.64a4.51 4.51 0 01-1.57-3.37zM402.32 534.7A3.62 3.62 0 01403.7 536c.66-1.15.21-2.47-1.38-3.39-2.06-1.19-3.2-2.77-3.2-4.46v2.1C399.12 531.92 400.26 533.51 402.32 534.7zM409.19 534.93v0h0z" class="colorf2bd42 svgShape"></path><path fill="#d62db7" d="M421,528.14c0,1.61-1,3.23-3.17,4.46v2.1c2.18-1.26,3.23-2.93,3.17-4.58h0v-2Z" class="colord6952d svgShape"></path><path fill="url(#A)" d="M406,539.4c-3.63,2.1-9.18,2.4-13.39.93v2.1c4.21,1.47,9.76,1.16,13.39-.93,2.11-1.22,3.17-2.82,3.19-4.42h0V535C409.19,536.56,408.12,538.17,406,539.4Z"></path><path fill="#d62db7" d="M414.1,525.8a9,9,0,0,0-8.1,0,2.87,2.87,0,0,0-1.68,2.34,2,2,0,0,0,.3,1.05A3.69,3.69,0,0,1,406,527.9a9,9,0,0,1,8.1,0,3.66,3.66,0,0,1,1.37,1.29C416.14,528,415.68,526.72,414.1,525.8Z" class="colord6952d svgShape"></path><path d="M444.71,507.39c-8.06-4.65-18.78-6.8-29.3-6.48h-16.5v2.7a43.82,43.82,0,0,0-8.73,3.78c-15,8.73-14.92,22.87.18,31.59a44,44,0,0,0,8.55,3.71v2.82H418.7c9.51-.16,18.95-2.32,26.19-6.53C459.9,530.26,459.82,516.12,444.71,507.39Z" style="mix-blend-mode:multiply" fill="url(#B)"></path><path fill="#69b4ff" d="M362.86,512.94c0-5.58,3.68-11.16,11.06-15.42s17-6.38,26.7-6.38,19.33,2.13,26.71,6.38,11.06,9.84,11.06,15.42-3.69,11.16-11.06,15.42-17,6.39-26.7,6.39-19.34-2.13-26.71-6.39S362.86,518.52,362.86,512.94Z" class="colorffe669 svgShape"></path><path fill="url(#C)" d="M427.33,528.36c-7.38,4.26-17,6.39-26.7,6.39s-19.34-2.13-26.71-6.39-11.06-9.84-11.06-15.42v10.77c0,5.58,3.68,11.16,11.06,15.41s17,6.39,26.71,6.39,19.32-2.13,26.7-6.38,11.06-9.84,11.06-15.42V512.94C438.39,518.52,434.7,524.1,427.33,528.36Z"></path><path fill="#5ca9f7" d="M378.94,525.46c6,3.46,13.83,5.19,21.69,5.19s15.69-1.73,21.68-5.19c5.53-3.19,8.5-7.29,8.92-11.47-.42-4.17-3.39-8.28-8.92-11.47-6-3.46-13.84-5.19-21.69-5.19s-15.7,1.73-21.69,5.19c-5.52,3.19-8.49,7.3-8.92,11.47C370.44,518.17,373.41,522.27,378.94,525.46Z" class="colorf7d25c svgShape"></path><path fill="#d62db7" d="M378.93,502.52c6-3.46,13.84-5.19,21.69-5.19s15.7,1.73,21.69,5.19c5.53,3.19,8.5,7.3,8.92,11.47a9.24,9.24,0,0,0,.06-1c0-4.53-3-9.06-9-12.52s-13.84-5.19-21.69-5.19-15.7,1.73-21.69,5.19-9,8-9,12.52a9.24,9.24,0,0,0,.06,1C370.44,509.82,373.41,505.71,378.93,502.52Z" class="colord6952d svgShape"></path><polygon fill="#d62db7" points="415.73 508.44 418.63 506.76 418.63 504.67 415.73 506.34 415.73 508.44" class="colord6952d svgShape"></polygon><path fill="#69b4ff" d="M402.35,512a2.47,2.47,0,0,1,0-4.68,9,9,0,0,1,8.1,0c2.23,1.29,2.23,3.39,0,4.68l3.68,2.12c3.62-2.1,4.15-5.3,1.6-7.73l2.9-1.67L415,502.54l-2.9,1.68c-4.2-1.47-9.76-1.17-13.38.93-2.07,1.19-3.21,2.77-3.2,4.46s1.13,3.27,3.2,4.46c2.23,1.29,2.23,3.38,0,4.67a9,9,0,0,1-8.11,0c-2.23-1.29-2.23-3.38,0-4.67L386.9,512c-3.63,2.09-4.16,5.3-1.61,7.72l-2.67,1.55,3.67,2.12,2.68-1.55c4.2,1.48,9.75,1.17,13.38-.92C406.61,518.41,406.61,514.41,402.35,512Z" class="colorffe669 svgShape"></path><polygon fill="#429af2" points="382.62 523.32 386.29 525.44 386.29 523.34 382.62 521.22 382.62 523.32" class="colorf2bd42 svgShape"></polygon><polygon fill="#d62db7" points="386.29 525.44 388.97 523.89 388.97 521.79 386.29 523.34 386.29 525.44" class="colord6952d svgShape"></polygon><polygon fill="#429af2" points="410.45 514.04 414.13 516.17 414.13 514.07 410.45 511.95 410.45 514.04" class="colorf2bd42 svgShape"></polygon><path fill="#d62db7" d="M390.57,516.17v-2.1c-1.58.91-2,2.23-1.37,3.38A3.64,3.64,0,0,1,390.57,516.17Z" class="colord6952d svgShape"></path><path fill="#429af2" d="M383.71 516.3v2.36h0a4.1 4.1 0 00.46 1.66l1.11-.65a4.5 4.5 0 01-1.57-3.36zM398.68 516.17a3.64 3.64 0 011.37 1.28c.66-1.15.21-2.47-1.37-3.38-2.07-1.19-3.21-2.78-3.2-4.46v2.1C395.47 513.39 396.61 515 398.68 516.17zM405.54 516.4v0h0z" class="colorf2bd42 svgShape"></path><path fill="#d62db7" d="M417.31,509.61c0,1.61-1.05,3.23-3.18,4.46v2.1c2.18-1.27,3.23-2.93,3.17-4.59h0v-2Z" class="colord6952d svgShape"></path><path fill="url(#D)" d="M402.35,520.87c-3.63,2.09-9.18,2.4-13.38.92v2.1c4.2,1.47,9.75,1.17,13.38-.92,2.11-1.22,3.18-2.82,3.19-4.43h0v-2.13C405.54,518,404.48,519.64,402.35,520.87Z"></path><path fill="#d62db7" d="M410.45,507.27a9,9,0,0,0-8.1,0,2.85,2.85,0,0,0-1.68,2.34,2.15,2.15,0,0,0,.3,1.05,3.69,3.69,0,0,1,1.38-1.29,9,9,0,0,1,8.1,0,3.61,3.61,0,0,1,1.38,1.29C412.49,509.51,412,508.18,410.45,507.27Z" class="colord6952d svgShape"></path><path fill="#69b4ff" d="M379.9,492.77c0-5.58,3.68-11.16,11.06-15.42s17-6.39,26.7-6.39,19.33,2.13,26.71,6.39,11.06,9.84,11.06,15.42-3.68,11.16-11.06,15.42-17,6.38-26.7,6.38-19.33-2.13-26.71-6.38S379.9,498.35,379.9,492.77Z" class="colorffe669 svgShape"></path><path fill="url(#E)" d="M444.37,508.19c-7.37,4.25-17,6.38-26.7,6.38s-19.33-2.13-26.71-6.38-11.06-9.84-11.06-15.42v10.76c0,5.58,3.69,11.16,11.06,15.42s17,6.39,26.71,6.39,19.33-2.13,26.7-6.39,11.06-9.84,11.06-15.42V492.77C455.43,498.35,451.75,503.93,444.37,508.19Z"></path><path fill="#5ca9f7" d="M396,505.29c6,3.46,13.84,5.19,21.69,5.19s15.69-1.73,21.68-5.19c5.53-3.19,8.5-7.3,8.92-11.47-.42-4.18-3.39-8.28-8.92-11.47-6-3.46-13.84-5.19-21.69-5.19S402,478.89,396,482.35c-5.52,3.19-8.49,7.29-8.92,11.47C387.48,498,390.45,502.1,396,505.29Z" class="colorf7d25c svgShape"></path><path fill="#d62db7" d="M396,482.35c6-3.46,13.85-5.19,21.69-5.19s15.7,1.73,21.69,5.19c5.53,3.19,8.5,7.29,8.92,11.47a9.26,9.26,0,0,0,.07-1.05c0-4.54-3-9.07-9-12.52s-13.84-5.19-21.69-5.19S402,476.79,396,480.25s-9,8-9,12.52c0,.35,0,.7.06,1.05C387.48,489.64,390.45,485.54,396,482.35Z" class="colord6952d svgShape"></path><polygon fill="#d62db7" points="432.77 488.26 435.68 486.59 435.68 484.49 432.77 486.17 432.77 488.26" class="colord6952d svgShape"></polygon><path fill="#69b4ff" d="M419.39,491.77a2.47,2.47,0,0,1,0-4.68,9,9,0,0,1,8.1,0c2.24,1.29,2.24,3.39,0,4.68l3.68,2.12c3.63-2.09,4.15-5.3,1.6-7.72l2.91-1.68L432,482.37,429.1,484c-4.2-1.47-9.76-1.16-13.38.93-2.07,1.19-3.2,2.78-3.2,4.46s1.13,3.27,3.2,4.46c2.23,1.29,2.23,3.39,0,4.68a9,9,0,0,1-8.1,0c-2.24-1.29-2.24-3.39,0-4.68l-3.68-2.12c-3.63,2.1-4.15,5.3-1.61,7.73L399.66,501l3.67,2.12,2.68-1.54c4.2,1.47,9.76,1.17,13.38-.93C423.65,498.23,423.65,494.23,419.39,491.77Z" class="colorffe669 svgShape"></path><polygon fill="#429af2" points="399.66 503.14 403.33 505.26 403.33 503.17 399.66 501.04 399.66 503.14" class="colorf2bd42 svgShape"></polygon><polygon fill="#d62db7" points="403.33 505.26 406.01 503.72 406.01 501.62 403.33 503.17 403.33 505.26" class="colord6952d svgShape"></polygon><polygon fill="#429af2" points="427.49 493.87 431.17 495.99 431.17 493.89 427.49 491.77 427.49 493.87" class="colorf2bd42 svgShape"></polygon><path fill="#d62db7" d="M407.62,496v-2.1c-1.59.92-2,2.24-1.38,3.39A3.69,3.69,0,0,1,407.62,496Z" class="colord6952d svgShape"></path><path fill="#429af2" d="M400.75 496.13v2.36h0a4.06 4.06 0 00.46 1.65l1.11-.64a4.51 4.51 0 01-1.57-3.37zM415.72 496a3.73 3.73 0 011.37 1.29c.67-1.15.21-2.47-1.37-3.39-2.07-1.19-3.2-2.77-3.2-4.46v2.1C412.52 493.22 413.65 494.8 415.72 496zM422.59 496.22v0h0S422.59 496.21 422.59 496.22z" class="colorf2bd42 svgShape"></path><path fill="#d62db7" d="M434.35,489.43c0,1.62-1.05,3.23-3.18,4.46V496c2.19-1.26,3.24-2.93,3.18-4.58h0v-2Z" class="colord6952d svgShape"></path><path fill="url(#F)" d="M419.39,500.69c-3.62,2.1-9.18,2.4-13.38.93v2.1c4.2,1.47,9.76,1.17,13.38-.93,2.12-1.22,3.18-2.82,3.2-4.42h0v-2.13C422.58,497.85,421.52,499.47,419.39,500.69Z"></path><path fill="#d62db7" d="M427.49,487.09a9,9,0,0,0-8.1,0,2.87,2.87,0,0,0-1.68,2.34,2.09,2.09,0,0,0,.3,1.05,3.77,3.77,0,0,1,1.38-1.29,9,9,0,0,1,8.1,0,3.69,3.69,0,0,1,1.38,1.29C429.53,489.33,429.08,488,427.49,487.09Z" class="colord6952d svgShape"></path><polygon points="487.17 305.82 447.2 328.9 447.2 324 487.17 300.92 487.17 305.82" style="mix-blend-mode:screen" fill="url(#g)"></polygon><polygon points="478.63 288.06 447.2 306.21 447.2 301.31 478.63 283.16 478.63 288.06" style="mix-blend-mode:screen" fill="url(#G)"></polygon><polygon points="465.84 308.1 447.2 318.87 447.2 315.53 465.84 304.76 465.84 308.1" style="mix-blend-mode:screen" fill="url(#H)"></polygon><polygon points="440.51 273.13 409.08 291.28 409.08 286.38 440.51 268.23 440.51 273.13" style="mix-blend-mode:screen" fill="url(#I)"></polygon><polygon points="427.73 293.18 409.08 303.94 409.08 300.6 427.73 289.83 427.73 293.18" style="mix-blend-mode:screen" fill="url(#J)"></polygon><polygon points="418.9 291.16 409.08 296.83 409.08 295.07 418.9 289.4 418.9 291.16" style="mix-blend-mode:screen" fill="url(#K)"></polygon><polygon points="465.84 332.1 447.2 342.87 447.2 339.52 465.84 328.76 465.84 332.1" style="mix-blend-mode:screen" fill="url(#L)"></polygon><polygon points="450.48 282.42 466.75 273.02 465.03 272.03 448.76 281.43 450.48 282.42" style="mix-blend-mode:multiply" fill="url(#h)"></polygon><polygon points="428.83 269.23 445.1 259.84 443.38 258.85 427.11 268.24 428.83 269.23" style="mix-blend-mode:multiply" fill="url(#M)"></polygon><polygon points="436.52 273.71 459.76 260.29 457.31 258.87 434.06 272.29 436.52 273.71" style="mix-blend-mode:multiply" fill="url(#N)"></polygon><polygon points="443.05 280.19 473.17 262.8 469.99 260.96 439.87 278.35 443.05 280.19" style="mix-blend-mode:multiply" fill="url(#O)"></polygon><path d="M400.58,397.31h0l-1.27-.74h0c-.64-.47-2.24-.77-4.61-.77-4.39,0-9.73,1-11.92,2.29-1.48.86-1.15,1.6.57,2,.14.7,1.91,1.18,4.91,1.18,4.39,0,9.73-1,11.92-2.29C401.33,398.32,401.39,397.73,400.58,397.31Z" style="mix-blend-mode:multiply" fill="url(#i)"></path><path d="M362.57,375.17h0l-1.26-.74h0c-.63-.48-2.23-.78-4.6-.78-4.39,0-9.73,1-11.93,2.29-1.48.86-1.14,1.6.58,2,.13.71,1.91,1.18,4.9,1.18,4.4,0,9.73-1,11.93-2.29C363.31,376.18,363.38,375.59,362.57,375.17Z" style="mix-blend-mode:multiply" fill="url(#P)"></path><path d="M454.84,365.52h0l-1.27-.74h0c-.63-.47-2.23-.77-4.6-.77-4.39,0-9.73,1-11.93,2.29-1.48.86-1.15,1.6.58,2,.13.7,1.9,1.18,4.9,1.18,4.39,0,9.73-1,11.92-2.29C455.58,366.53,455.64,365.94,454.84,365.52Z" style="mix-blend-mode:multiply" fill="url(#Q)"></path><path fill="#ffffff" d="M437.65,356.86v6.46c0,.75.53,1.05,1.18.68a2.59,2.59,0,0,0,1.17-2V355.5Z" class="colorffffff svgShape"></path><path fill="#4841aa" d="M438.31,362.94a1.15,1.15,0,0,1,.52-.9c.29-.16.52,0,.52.3a1.13,1.13,0,0,1-.52.9C438.54,363.41,438.31,363.28,438.31,362.94Z" class="color4141aa svgShape"></path><path fill="#bdd0e4" d="M437.65,363.32v-6.46l-.64-.38V363a.79.79,0,0,0,.38.77l.57.34A.88.88,0,0,1,437.65,363.32Z" class="colorbdc1e4 svgShape"></path><path fill="#6b1c6b" d="M437.22,366.49a8.8,8.8,0,0,1,4-6.88c2.2-1.27,4-.24,4,2.29a8.78,8.78,0,0,1-4,6.89C439,370.05,437.22,369,437.22,366.49Z" class="color1e1c6b svgShape"></path><path fill="#f7f9fc" d="M438.75,365.61a5.38,5.38,0,0,1,2.44-4.24c1.36-.78,2.45-.15,2.45,1.41a5.4,5.4,0,0,1-2.45,4.25C439.84,367.81,438.75,367.18,438.75,365.61Z" class="colorf7f7fc svgShape"></path><path fill="#37318f" d="M437.22,366.49a8.8,8.8,0,0,1,4-6.88,2.81,2.81,0,0,1,2.72-.31s-2.11-1.23-2.11-1.23a2.86,2.86,0,0,0-2.73.32,8.8,8.8,0,0,0-4,6.88,2.78,2.78,0,0,0,1.14,2.55s2.12,1.23,2.12,1.23A2.82,2.82,0,0,1,437.22,366.49Z" class="color34318f svgShape"></path><path fill="#bdd0e4" d="M440.69,358.61v6.46c0,.75.52,1.06,1.17.68a2.58,2.58,0,0,0,1.18-2v-6.47Z" class="colorbdc1e4 svgShape"></path><path fill="#d0e3f6" d="M440.69,365.07v-6.46l-.65-.37v6.46a.79.79,0,0,0,.39.78l.57.33A.85.85,0,0,1,440.69,365.07Z" class="colord0d4f6 svgShape"></path><path fill="#6b1c6b" d="M441.34,364.7a1.18,1.18,0,0,1,.52-.91c.29-.16.53,0,.53.3a1.16,1.16,0,0,1-.53.91C441.58,365.16,441.34,365,441.34,364.7Z" class="color1e1c6b svgShape"></path><path fill="#f7f9fc" d="M436.82,357.68c-1.77-1-1.77-2.68,0-3.71a7.1,7.1,0,0,1,6.41,0c1.77,1,1.77,2.69,0,3.71A7.1,7.1,0,0,1,436.82,357.68Z" class="colorf7f7fc svgShape"></path><path fill="url(#j)" d="M443.23,357.68a7.1,7.1,0,0,1-6.41,0,2.24,2.24,0,0,1-1.33-1.85v1.1a2.24,2.24,0,0,0,1.33,1.85,7,7,0,0,0,6.41,0,2.24,2.24,0,0,0,1.33-1.85v-1.1A2.24,2.24,0,0,1,443.23,357.68Z"></path><path fill="#867ff4" d="M438.65,354.55a.84.84,0,0,1,0-1.58,3,3,0,0,1,2.74,0,.83.83,0,0,1,0,1.58A3.07,3.07,0,0,1,438.65,354.55Z" class="color7f7ff4 svgShape"></path><path fill="url(#R)" d="M441.39,354.55a3.07,3.07,0,0,1-2.74,0,1,1,0,0,1-.56-.79v2.07a1,1,0,0,0,.56.79,3.07,3.07,0,0,0,2.74,0,1,1,0,0,0,.57-.79v-2.07A1,1,0,0,1,441.39,354.55Z"></path><path fill="#ffffff" d="M383,388.35v6.47c0,.75.52,1.05,1.17.68a2.62,2.62,0,0,0,1.18-2V387Z" class="colorffffff svgShape"></path><path fill="#4841aa" d="M383.64,394.44a1.16,1.16,0,0,1,.52-.9c.29-.17.53,0,.53.3a1.14,1.14,0,0,1-.53.9C383.88,394.91,383.64,394.77,383.64,394.44Z" class="color4141aa svgShape"></path><path fill="#bdd0e4" d="M383,394.82v-6.47l-.65-.37v6.47a.78.78,0,0,0,.39.77l.56.34A.9.9,0,0,1,383,394.82Z" class="colorbdc1e4 svgShape"></path><path fill="#6b1c6b" d="M382.55,398a8.77,8.77,0,0,1,4-6.88c2.2-1.27,4-.24,4,2.29a8.77,8.77,0,0,1-4,6.89C384.33,401.55,382.55,400.53,382.55,398Z" class="color1e1c6b svgShape"></path><path fill="#f7f9fc" d="M384.08,397.11a5.42,5.42,0,0,1,2.45-4.24c1.35-.78,2.45-.15,2.45,1.41a5.44,5.44,0,0,1-2.45,4.25C385.18,399.31,384.08,398.67,384.08,397.11Z" class="colorf7f7fc svgShape"></path><path fill="#37318f" d="M382.55,398a8.77,8.77,0,0,1,4-6.88,2.81,2.81,0,0,1,2.72-.31l-2.12-1.24a2.88,2.88,0,0,0-2.72.33,8.75,8.75,0,0,0-4,6.88,2.81,2.81,0,0,0,1.14,2.55s2.12,1.23,2.12,1.23A2.84,2.84,0,0,1,382.55,398Z" class="color34318f svgShape"></path><path fill="#bdd0e4" d="M386,390.11v6.46c0,.75.53,1.06,1.18.68a2.6,2.6,0,0,0,1.18-2v-6.46Z" class="colorbdc1e4 svgShape"></path><path fill="#d0e3f6" d="M386,396.57v-6.46l-.64-.37v6.46a.81.81,0,0,0,.38.78l.57.33A.88.88,0,0,1,386,396.57Z" class="colord0d4f6 svgShape"></path><path fill="#6b1c6b" d="M386.68,396.19a1.15,1.15,0,0,1,.52-.9c.29-.16.52,0,.52.3a1.15,1.15,0,0,1-.52.91C386.91,396.66,386.68,396.53,386.68,396.19Z" class="color1e1c6b svgShape"></path><path fill="#f7f9fc" d="M382.15,389.18c-1.77-1-1.77-2.68,0-3.71a7.12,7.12,0,0,1,6.42,0c1.77,1,1.77,2.68,0,3.71A7.12,7.12,0,0,1,382.15,389.18Z" class="colorf7f7fc svgShape"></path><path fill="url(#S)" d="M388.57,389.18a7.12,7.12,0,0,1-6.42,0,2.28,2.28,0,0,1-1.33-1.85v1.1a2.26,2.26,0,0,0,1.33,1.85,7.12,7.12,0,0,0,6.42,0,2.26,2.26,0,0,0,1.33-1.85v-1.1A2.28,2.28,0,0,1,388.57,389.18Z"></path><path fill="#867ff4" d="M384,386.05a.84.84,0,0,1,0-1.59,3.07,3.07,0,0,1,2.74,0,.84.84,0,0,1,0,1.59A3.07,3.07,0,0,1,384,386.05Z" class="color7f7ff4 svgShape"></path><path fill="url(#T)" d="M386.73,386.05a3.07,3.07,0,0,1-2.74,0,1,1,0,0,1-.57-.79v2.07a1,1,0,0,0,.57.79,3.07,3.07,0,0,0,2.74,0,1,1,0,0,0,.57-.79v-2.07A1,1,0,0,1,386.73,386.05Z"></path><path fill="#ffffff" d="M344.94,366.24v6.46c0,.75.53,1.06,1.18.68a2.59,2.59,0,0,0,1.17-2v-6.46Z" class="colorffffff svgShape"></path><path fill="#4841aa" d="M345.6,372.32a1.15,1.15,0,0,1,.52-.9c.29-.16.52,0,.52.3a1.13,1.13,0,0,1-.52.9C345.83,372.79,345.6,372.66,345.6,372.32Z" class="color4141aa svgShape"></path><path fill="#bdd0e4" d="M344.94,372.7v-6.46l-.64-.37v6.46a.81.81,0,0,0,.38.78l.57.33A.88.88,0,0,1,344.94,372.7Z" class="colorbdc1e4 svgShape"></path><path fill="#6b1c6b" d="M344.51,375.87a8.78,8.78,0,0,1,4-6.88c2.19-1.27,4-.24,4,2.29a8.8,8.8,0,0,1-4,6.89C346.29,379.44,344.51,378.41,344.51,375.87Z" class="color1e1c6b svgShape"></path><path fill="#f7f9fc" d="M346,375a5.37,5.37,0,0,1,2.45-4.25c1.35-.78,2.44-.15,2.44,1.41a5.4,5.4,0,0,1-2.45,4.25C347.13,377.19,346,376.56,346,375Z" class="colorf7f7fc svgShape"></path><path fill="#37318f" d="M344.51,375.87a8.78,8.78,0,0,1,4-6.88,2.79,2.79,0,0,1,2.71-.31s-2.11-1.23-2.11-1.23a2.86,2.86,0,0,0-2.73.32,8.8,8.8,0,0,0-4,6.88,2.81,2.81,0,0,0,1.14,2.56l2.12,1.22A2.82,2.82,0,0,1,344.51,375.87Z" class="color34318f svgShape"></path><path fill="#bdd0e4" d="M348,368v6.47c0,.74.53,1.05,1.17.67a2.58,2.58,0,0,0,1.18-2v-6.47Z" class="colorbdc1e4 svgShape"></path><path fill="#d0e3f6" d="M348,374.46V368l-.64-.37v6.46a.79.79,0,0,0,.38.78l.57.33A.84.84,0,0,1,348,374.46Z" class="colord0d4f6 svgShape"></path><path fill="#6b1c6b" d="M348.63,374.08a1.16,1.16,0,0,1,.53-.91c.28-.16.52,0,.52.31a1.18,1.18,0,0,1-.52.9C348.87,374.54,348.63,374.41,348.63,374.08Z" class="color1e1c6b svgShape"></path><path fill="#f7f9fc" d="M344.11,367.06c-1.77-1-1.77-2.68,0-3.7a7,7,0,0,1,6.41,0c1.78,1,1.78,2.68,0,3.7A7.1,7.1,0,0,1,344.11,367.06Z" class="colorf7f7fc svgShape"></path><path fill="url(#U)" d="M350.52,367.06a7.1,7.1,0,0,1-6.41,0,2.24,2.24,0,0,1-1.33-1.85v1.1a2.24,2.24,0,0,0,1.33,1.85,7,7,0,0,0,6.41,0,2.24,2.24,0,0,0,1.33-1.85v-1.1A2.24,2.24,0,0,1,350.52,367.06Z"></path><path fill="#867ff4" d="M346,363.93a.83.83,0,0,1,0-1.58,3,3,0,0,1,2.73,0,.83.83,0,0,1,0,1.58A3,3,0,0,1,346,363.93Z" class="color7f7ff4 svgShape"></path><path fill="url(#V)" d="M348.68,363.93a3,3,0,0,1-2.73,0,1,1,0,0,1-.57-.79v2.07a1,1,0,0,0,.57.79,3,3,0,0,0,2.73,0,1,1,0,0,0,.57-.79v-2.07A1,1,0,0,1,348.68,363.93Z"></path><path fill="url(#W)" d="M348.32,364.19l10.39-6a1.42,1.42,0,0,0-1.42-2.45L344.78,363a1.42,1.42,0,0,0,0,2.46l38.16,22a1.48,1.48,0,0,0,.71.19v-3.05Z"></path><path fill="#f4f6f8" d="M419.4,264.75a1.41,1.41,0,0,0-1.93-.52L407,270.3a1.41,1.41,0,0,0-.71,1.23v5.74l-70.76,40.85a1.42,1.42,0,0,0-.71,1.23v28.5a1.43,1.43,0,0,0,.61,1.17,1.45,1.45,0,0,0,1.31.16l71.47-27.11.17-.08a.53.53,0,0,0,.1-.06l.11-.08.11-.09.08-.09.09-.12a.41.41,0,0,0,.07-.11.67.67,0,0,0,.06-.12s0-.09.05-.13l0-.13s0-.08,0-.12,0-.11,0-.16V272.34l9.81-5.66A1.41,1.41,0,0,0,419.4,264.75Zm-81.79,65.48,6.57-3.79v8.42l-6.57,3.8Zm8.46-4.88,7.05-4.07v8.42l-7.05,4.07ZM363.94,315,371,311v8.43l-7.05,4.07Zm-1.89,9.52-7,4.06v-8.42l7.05-4.07Zm17.87-10.32-7.05,4.07v-8.43l7.05-4.07Zm1.89-9.52,7.05-4.07v8.43l-7.05,4.07ZM371,321.57V330l-7.05,4.06v-8.42Zm1.88-1.09,7.05-4.07v8.43l-7.05,4.07Zm8.94-5.16,7.05-4.07v8.43l-7.05,4.07Zm8.93-5.16,7.05-4.07v8.43l-7.05,4.07Zm8.94-5.16,6.57-3.79v8.42l-6.57,3.8Zm6.57-6-6.57,3.79V294.4l6.57-3.8Zm-8.46,4.88L390.74,308v-8.43l7.05-4.06Zm-7.05-6.54v-7.88l7.05-4.07v7.89Zm-1.88,1.09-7.05,4.07v-7.88l7.05-4.07Zm-8.94,5.16-7.05,4.07v-7.88l7.05-4.07ZM371,308.78l-7.05,4.07V305L371,300.9Zm-8.94,5.16L355,318v-7.89l7.05-4.06Zm-8.93,5.16-7.05,4.07v-7.89l7.05-4.07Zm0,12.78v8l-7.05,2.67V336Zm1.89-1.09,7-4.06v8.42l-7,4-.08,0Zm16,1.39v1l-4.9,1.85Zm1.88-1.09,7.05-4.07v2.74l-7.05,2.67Zm8.94-5.16,7.05-4.07v4.51L381.81,329Zm8.93-5.16,7.05-4.07V323l-7.05,2.68Zm8.94-5.16,6.57-3.8v8l-6.57,2.5Zm6.57-27.19-6.57,3.8v-7.89l6.57-3.79Zm-62.07,27.95v7.89l-6.57,3.79v-7.88Zm-6.57,24.47,6.57-3.8v6.27l-6.57,2.49Z" class="colorf2f2f7 svgShape"></path><polygon fill="#bdd0e4" points="336.19 347.85 374.36 369.89 445.83 342.78 407.67 320.75 336.19 347.85" class="colorbdc1e4 svgShape"></polygon><polygon points="431.78 334.67 445.83 342.78 419.54 352.75 378.13 354.4 400.64 335.92 431.78 334.67" style="mix-blend-mode:multiply" fill="url(#X)"></polygon><polygon fill="#5046e4" points="413.66 312.13 381.64 325.13 378.13 354.4 410.16 341.41 413.66 312.13" class="color5555c6 svgShape"></polygon><polygon fill="#726ae2" points="378.13 354.4 358.18 342.88 361.69 313.61 381.64 325.13 378.13 354.4" class="color6a6ae2 svgShape"></polygon><polygon fill="#867ff4" points="381.64 325.13 361.69 313.61 393.71 300.61 413.66 312.13 381.64 325.13" class="color7f7ff4 svgShape"></polygon><polygon fill="#d62db7" points="415.17 304.43 400.46 310.4 398.85 323.85 413.55 317.88 415.17 304.43" class="colord6952d svgShape"></polygon><polygon fill="#429af2" points="398.85 323.85 385.62 316.22 387.24 302.77 400.46 310.4 398.85 323.85" class="colorf2bd42 svgShape"></polygon><polygon fill="#5ca9f7" points="400.46 310.4 387.24 302.77 401.94 296.8 415.17 304.43 400.46 310.4" class="colorf7d25c svgShape"></polygon><path fill="url(#Y)" d="M374.35,339.75,336.9,318.13a1.41,1.41,0,0,0-1.93.51,1.42,1.42,0,0,0,.52,1.94l9.3,5.37v7.88l-8.13-4.69a.95.95,0,0,0-.94,1.64l9.07,5.23v8.43l-8.13-4.69a.94.94,0,0,0-.94,1.63l9.07,5.24v4.56l-7.89-4.55a1.41,1.41,0,0,0-1.41,2.45l38.16,22a.59.59,0,0,0,.14.06l.09.05a1.63,1.63,0,0,0,.3.07h.17Zm-20,16.94-7.65-4.42v-4.56l7.65,4.42Zm0-6.74-7.65-4.42V337.1l7.65,4.42Zm0-10.61-7.65-4.42V327l7.65,4.42Zm9.54,22.86-7.65-4.42v-4.56l7.65,4.42Zm0-6.74L356.22,351v-8.43l7.65,4.42Zm0-10.61-7.65-4.42v-7.88l7.65,4.42Zm9.07,22.58-7.18-4.14v-4.56l7.18,4.14Zm0-6.74-7.18-4.14v-8.43l7.18,4.14Zm0-10.6-7.18-4.15v-7.88l7.18,4.14Z"></path><path fill="#ffffff" d="M447.15,342.28a1.4,1.4,0,0,0-1.82-.82l-7.49,2.84v-6.66l8.46-4.88a.95.95,0,1,0-.94-1.64l-7.52,4.34V327l8.46-4.89a1,1,0,0,0,.35-1.29.94.94,0,0,0-1.29-.34l-7.52,4.34v-8.43l8.46-4.89a.94.94,0,1,0-.94-1.63l-7.52,4.34v-7.88l8.7-5a1.42,1.42,0,0,0-1.42-2.45l-70.77,40.86v31.54h.24l.21-.06h.06l71.47-27.1A1.42,1.42,0,0,0,447.15,342.28Zm-62.92-5,7-4.06v7.88l-7,4.07Zm-1.88,28-6.58,2.5v-5l6.58-3.79Zm0-8.44-6.58,3.79v-8.43l6.58-3.79Zm0-10.61-6.58,3.8V342.2l6.58-3.8ZM391.28,362l-7,2.68V358l7-4.07Zm-7-6.14v-8.43l7-4.07v8.43Zm16,1.38-7,4-.08,0v-8.41l7-4.07Zm0-10.61-7,4.07v-8.43l7-4.07Zm0-10.61-7,4.07v-7.88l7-4.07Zm8.94,19.21-4.9,1.86,4.9-2.83Zm0-3.15-7,4.07v-8.43l7-4.07Zm0-10.61-7,4.07v-8.43l7-4.07Zm0-10.61-7,4.07V327l7-4.07Zm8.93,21-7,2.67v-1.34l7-4.07Zm0-4.92-7,4.07v-8.43l7-4.07Zm0-10.61-7,4.07V331.9l7-4.06Zm0-10.6-7,4.06v-7.88l7-4.07ZM427,348.4l-7,2.68V348l7-4.07Zm0-6.69-7,4.07v-8.43l7-4.07Zm0-10.61-7,4.07v-8.42l7-4.07Zm0-10.6-7,4.07v-7.89l7-4.07ZM436,345l-7.05,2.67V342.8l7.05-4.07Zm0-8.47-7.05,4.07v-8.43l7.05-4.06Zm0-10.6L428.9,330v-8.42l7.05-4.07Zm0-10.61-7.05,4.07v-7.89l7.05-4.07Z" class="colorffffff svgShape"></path><path fill="url(#Z)" d="M421.76,263.78a1.62,1.62,0,0,0-1.62.16,5.1,5.1,0,0,0-2.3,4,1.61,1.61,0,0,0,.68,1.49l32.32,18.66,3.24-5.62Z"></path><path fill="#37318f" d="M450.84,288.06a1.61,1.61,0,0,1-.67-1.48,4.75,4.75,0,0,1,.67-2.26,4.69,4.69,0,0,1,1.62-1.71,1.4,1.4,0,0,1,2.3,1.32,5,5,0,0,1-2.3,4A1.62,1.62,0,0,1,450.84,288.06Z" class="color34318f svgShape"></path><path fill="#ffffff" d="M457.57,286.78a2.52,2.52,0,0,0-.52-.51l-3.89-2.22a.7.7,0,0,0-.7.07,2.18,2.18,0,0,0-1,1.7.71.71,0,0,0,.29.64l1.75,1-8.4,4.85a1.42,1.42,0,0,0-.71,1.23V349.5l-60.76,35.09v3.05a1.51,1.51,0,0,0,.71-.19l62.18-35.9a1.41,1.41,0,0,0,.71-1.23V294.38l9.81-5.66A1.42,1.42,0,0,0,457.57,286.78Z" class="colorffffff svgShape"></path><polygon points="387.73 49.71 368.85 49.71 368.85 207.43 358.25 207.43 378.29 250.88 398.33 207.43 387.73 207.43 387.73 49.71" style="mix-blend-mode:multiply" fill="url(#k)"></polygon><path d="M291.39,150.13l-17.67-23.41-3.08,6.62h0c-27.57-12.8-59.48-13.73-89.86-2.62a140.76,140.76,0,0,0-35.72,19.45l10.32,8.54a127.34,127.34,0,0,1,29.87-15.79c27.11-9.92,55.5-9.14,79.93,2.2h0l-3.07,6.61Z" style="mix-blend-mode:multiply" fill="url(#aa)"></path><path d="M185.94,194.76l-21.27-4.21,1.56,5.16h0c-21.52,6.51-39.58,21.7-50.87,42.78a104.5,104.5,0,0,0-10.14,28.32l9.9-.37a93.93,93.93,0,0,1,8.7-23.41C133.9,224.21,150,210.67,169,204.9h0l1.56,5.16Z" style="mix-blend-mode:multiply" fill="url(#l)"></path><path d="M336.69,120.38l.9-17.17L333.71,105h0C326.16,88.88,312.2,76.43,294.38,70A82.67,82.67,0,0,0,271,65.22l1.41,7.72a74.82,74.82,0,0,1,19.36,4.18c15.91,5.77,28.35,16.82,35,31.12h0L323,110.05Z" style="mix-blend-mode:multiply" fill="url(#ab)"></path><path d="M593.79,142.36c26.76,13.35,47.1,37.45,57.27,67.87a138.34,138.34,0,0,1,4.88,19.14c4.76-2.36,9.31-4.63,13.38-6.68a148.1,148.1,0,0,0-4.59-17c-11.38-34.06-34.29-61.12-64.5-76.2h0l3.61-7.25-32.56.87,18.89,26.54Z" style="mix-blend-mode:multiply" fill="url(#ac)"></path><path d="M459.26,81.27c5.37-15.08,16.88-27.44,32.39-34.8a73.15,73.15,0,0,1,9.86-3.83C500,40.26,498.45,38,497.1,36a80.12,80.12,0,0,0-8.76,3.53C471,47.73,458.05,61.65,452,78.68h0l-4.08-1.46,2.55,17.26,12.89-11.75Z" style="mix-blend-mode:multiply" fill="url(#ad)"></path><path d="M566.65,103.76A129.71,129.71,0,0,0,412,186.87l-9-3.14,4.12,42,29.24-30.37-9-3.14a113.53,113.53,0,0,1,135.8-72.62Z" style="mix-blend-mode:multiply" fill="url(#m)"></path><path d="M356.49,245.78a125.66,125.66,0,0,0-136.4-83.14c1.69,4.52,3.63,9.71,5.59,15.08a110,110,0,0,1,116,73.2l-8.75,3,28.31,29.41,4-40.63Z" style="mix-blend-mode:multiply" fill="url(#ae)"></path><path d="M212.18,391.89c9-5.17,1.77-9.38-16.06-9.4s-39.57,4.17-48.53,9.34-1.76,9.38,16.07,9.4S203.22,397.07,212.18,391.89Z" style="mix-blend-mode:multiply" fill="url(#af)"></path><path fill="url(#ag)" d="M149.83,356.79c4.51-2.61,8.6-2.85,11.55-1.13l5.71,3.31c-3-1.71-7-1.47-11.55,1.13-9,5.18-16.2,17.72-16.17,28,0,5.12,1.82,8.72,4.73,10.41l-5.71-3.32c-2.91-1.69-4.72-5.29-4.73-10.4C133.63,374.5,140.87,362,149.83,356.79Z"></path><path fill="#bdd0e4" d="M155.54,360.1c9-5.17,16.25-1,16.28,9.28s-7.21,22.84-16.17,28-16.25,1-16.28-9.28S146.58,365.28,155.54,360.1Z" class="colorbdc1e4 svgShape"></path><path fill="#a50b89" d="M153.9,375.22a3.32,3.32,0,0,0-2.44.5,9.27,9.27,0,0,0-4.19,7.26,3,3,0,0,0,1.23,2.71l7.15,4.12,7.15-12.38A8.53,8.53,0,0,0,164,373.3c0-2.67-1.88-3.75-4.19-2.42a8,8,0,0,0-2.44,2.32l-1.75,2.6Z" class="color4f4e6a svgShape"></path><path d="M691.57,354.82c-9-5.17-30.73-9.38-48.61-9.4s-25.14,4.17-16.18,9.34,30.73,9.38,48.63,9.4S700.54,360,691.57,354.82Z" style="mix-blend-mode:multiply" fill="url(#ah)"></path><path fill="url(#n)" d="M631.38,313.51c-4.51-2.61-8.6-2.85-11.55-1.13l-5.71,3.32c3-1.72,7-1.48,11.55,1.13,9,5.17,16.2,17.71,16.17,28,0,5.12-1.82,8.72-4.73,10.41l5.71-3.31c2.91-1.7,4.71-5.3,4.73-10.41C647.58,331.22,640.34,318.68,631.38,313.51Z"></path><path fill="#f7f9fc" d="M625.67,316.83c-9-5.18-16.25-1-16.28,9.27s7.21,22.84,16.17,28,16.25,1,16.28-9.28S634.63,322,625.67,316.83Z" class="colorf7f7fc svgShape"></path><path fill="#726ae2" d="M630.7,335.85c1.61.93,2.91.17,2.92-1.69a6.47,6.47,0,0,0-2.92-5.06c-1.62-.93-2.92-.17-2.93,1.69a5,5,0,0,0,.09.84l-8.54.34a5.51,5.51,0,0,0-2-2.1c-1.5-.86-2.71-.16-2.71,1.56a6,6,0,0,0,2.71,4.7,1.77,1.77,0,0,0,2.14,0l6.69,7c0,.11,0,.22,0,.34a6.06,6.06,0,0,0,2.74,4.74c1.51.87,2.74.16,2.74-1.58a6,6,0,0,0-2.74-4.74,1.76,1.76,0,0,0-2.17,0l-6.69-7c0-.11,0-.21,0-.33a3.49,3.49,0,0,0-.07-.71l8.54-.34A6.11,6.11,0,0,0,630.7,335.85Z" class="color6a6ae2 svgShape"></path><path fill="url(#ai)" d="M496.05,58.17c-4.51-2.6-8.6-2.84-11.55-1.13l-5.71,3.32c2.95-1.71,7-1.47,11.55,1.13,9,5.18,16.2,17.72,16.17,28,0,5.12-1.82,8.72-4.73,10.41l5.71-3.32c2.91-1.69,4.72-5.29,4.73-10.41C512.25,75.89,505,63.35,496.05,58.17Z"></path><path fill="#f7f9fc" d="M490.34,61.49c-9-5.17-16.25-1-16.28,9.27s7.21,22.85,16.17,28,16.25,1,16.28-9.28S499.3,66.67,490.34,61.49Z" class="colorf7f7fc svgShape"></path><path fill="#867ff4" d="M496.54,82.46l-1.38,4L485.74,81l-2.35-9.56-.16-.63-2.58-1.49v1.57l1.6.92,2.36,9.56.15.63,11.37,6.56.16-.44,1.53-4.47Zm-2.31,6c-.79-.46-1.42-.09-1.42.82a3.13,3.13,0,0,0,1.42,2.46c.78.45,1.41.09,1.41-.82A3.13,3.13,0,0,0,494.23,88.5Zm-7.43-4.29c-.78-.45-1.42-.08-1.42.83a3.14,3.14,0,0,0,1.42,2.45c.78.45,1.42.09,1.42-.82A3.17,3.17,0,0,0,486.8,84.21ZM493.52,80l-1-1.66-1.71,1V72.61l-1.36-.78v6.72l-1.71-3-1,.55,3.35,5.8Z" class="color7f7ff4 svgShape"></path></g></g></g></svg>