<svg xmlns="http://www.w3.org/2000/svg" xmlns:xlink="http://www.w3.org/1999/xlink" viewBox="0 0 800 600" id="Perfectgiftfactory"><defs><linearGradient id="p" x1="248.99" x2="501.77" y1="275.52" y2="275.52" gradientUnits="userSpaceOnUse"><stop offset="0" stop-color="#6cb5ff" class="stopColorffea6c svgShape"></stop><stop offset="1" stop-color="#429af2" class="stopColorf2bd42 svgShape"></stop></linearGradient><linearGradient id="q" x1="825.18" x2="654.8" y1="490.27" y2="319.89" gradientUnits="userSpaceOnUse"><stop offset="0" stop-color="#5c55c6" class="stopColor5555c6 svgShape"></stop><stop offset="1" stop-color="#867ff4" class="stopColor7f7ff4 svgShape"></stop></linearGradient><linearGradient id="r" x1="51.56" x2="240.71" y1="126.32" y2="180.36" gradientUnits="userSpaceOnUse"><stop offset="0" stop-color="#867ff4" class="stopColor7f7ff4 svgShape"></stop><stop offset="1" stop-color="#37318f" class="stopColor34318f svgShape"></stop></linearGradient><linearGradient id="s" x1="47.37" x2="304.46" y1="222.97" y2="222.97" gradientUnits="userSpaceOnUse"><stop offset="0" stop-color="#c6d6e7" class="stopColorc6cbe7 svgShape"></stop><stop offset=".11" stop-color="#d4e0ed" class="stopColord4d8ed svgShape"></stop><stop offset=".33" stop-color="#ecf1f7" class="stopColorecedf7 svgShape"></stop><stop offset=".53" stop-color="#fafbfd" class="stopColorfafafd svgShape"></stop><stop offset=".71" stop-color="#ffffff" class="stopColorffffff svgShape"></stop></linearGradient><linearGradient id="t" x1="380.14" x2="714.73" y1="354.52" y2="354.52" gradientUnits="userSpaceOnUse"><stop offset="0" stop-color="#d3e2f2" class="stopColord3d8f2 svgShape"></stop><stop offset="1" stop-color="#ffffff" class="stopColorffffff svgShape"></stop></linearGradient><linearGradient id="a" x1="143.19" x2="393.37" y1="502.52" y2="502.52" gradientUnits="userSpaceOnUse"><stop offset="0" stop-color="#c6d4e3" class="stopColorc6cae3 svgShape"></stop><stop offset=".17" stop-color="#d7e1eb" class="stopColord7d9eb svgShape"></stop><stop offset=".47" stop-color="#edf1f6" class="stopColoredeef6 svgShape"></stop><stop offset=".75" stop-color="#fafbfd" class="stopColorfafbfd svgShape"></stop><stop offset="1" stop-color="#ffffff" class="stopColorffffff svgShape"></stop></linearGradient><linearGradient id="u" x1="567.88" x2="610.82" y1="513.62" y2="513.62" xlink:href="#a"></linearGradient><linearGradient id="v" x1="618.61" x2="664.48" y1="374.95" y2="374.95" gradientUnits="userSpaceOnUse"><stop offset="0" stop-color="#c6d6e7" class="stopColorc6cbe7 svgShape"></stop><stop offset=".3" stop-color="#d3e0ed" class="stopColord3d7ed svgShape"></stop><stop offset=".86" stop-color="#f4f6f8" class="stopColorf6f6fb svgShape"></stop><stop offset="1" stop-color="#ffffff" class="stopColorffffff svgShape"></stop></linearGradient><linearGradient id="w" x1="561.56" x2="611.66" y1="118.36" y2="118.36" xlink:href="#a"></linearGradient><linearGradient id="x" x1="709.74" x2="737.62" y1="349.86" y2="349.86" xlink:href="#a"></linearGradient><linearGradient id="y" x1="503.19" x2="534.42" y1="175.69" y2="175.69" xlink:href="#a"></linearGradient><linearGradient id="z" x1="478.73" x2="597.51" y1="305.66" y2="305.66" gradientUnits="userSpaceOnUse"><stop offset="0" stop-color="#c6d6e7" class="stopColorc6cbe7 svgShape"></stop><stop offset="1" stop-color="#ffffff" class="stopColorffffff svgShape"></stop></linearGradient><linearGradient id="b" x1="538.05" x2="585.26" y1="216.16" y2="297.94" gradientUnits="userSpaceOnUse"><stop offset=".01" stop-color="#f7f9fc" class="stopColorf7f7fc svgShape"></stop><stop offset="1" stop-color="#f2f4f7" class="stopColorf2f2f7 svgShape"></stop></linearGradient><linearGradient id="A" x1="212.12" x2="538.64" y1="372.03" y2="372.03" gradientUnits="userSpaceOnUse"><stop offset=".43" stop-color="#d0e3f6" class="stopColord0d4f6 svgShape"></stop><stop offset=".58" stop-color="#bdd0e4" class="stopColorbdc1e4 svgShape"></stop></linearGradient><linearGradient id="B" x1="273.92" x2="303.97" y1="417.35" y2="365.31" gradientUnits="userSpaceOnUse"><stop offset=".01" stop-color="#5ca9f7" class="stopColorf7d25c svgShape"></stop><stop offset="1" stop-color="#d62db7" class="stopColord6952d svgShape"></stop></linearGradient><linearGradient id="D" x1="249" x2="501.76" y1="240.45" y2="240.45" gradientUnits="userSpaceOnUse"><stop offset=".43" stop-color="#ffffff" class="stopColorffffff svgShape"></stop><stop offset=".58" stop-color="#f7f9fc" class="stopColorf7f7fc svgShape"></stop></linearGradient><linearGradient id="E" x1="179.88" x2="228.04" y1="422.95" y2="506.36" xlink:href="#b"></linearGradient><linearGradient id="F" x1="252.2" x2="301.48" y1="449.24" y2="363.88" gradientUnits="userSpaceOnUse"><stop offset=".01"></stop><stop offset=".12" stop-color="#343434" class="stopColor343434 svgShape"></stop><stop offset=".24" stop-color="#a50b89" class="stopColor696969 svgShape"></stop><stop offset=".37" stop-color="#979797" class="stopColor979797 svgShape"></stop><stop offset=".5" stop-color="#bdbdbd" class="stopColorbdbdbd svgShape"></stop><stop offset=".63" stop-color="#dadada" class="stopColordadada svgShape"></stop><stop offset=".76" stop-color="#eeeeee" class="stopColoreeeeee svgShape"></stop><stop offset=".88" stop-color="#fbfbfb" class="stopColorfbfbfb svgShape"></stop><stop offset="1" stop-color="#ffffff" class="stopColorffffff svgShape"></stop></linearGradient><linearGradient id="G" x1="252.2" x2="301.48" y1="449.24" y2="363.88" gradientUnits="userSpaceOnUse"><stop offset=".01" stop-color="#ffffff" class="stopColorffffff svgShape"></stop><stop offset=".62" stop-color="#5ca9f7" class="stopColorf7d25c svgShape"></stop><stop offset="1" stop-color="#d62db7" class="stopColord6952d svgShape"></stop></linearGradient><linearGradient id="I" x1="462.1" x2="473.72" y1="374.67" y2="358.87" gradientUnits="userSpaceOnUse"><stop offset="0" stop-color="#6b1c6b" class="stopColor1e1c6b svgShape"></stop><stop offset=".03" stop-color="#332e78" class="stopColor2f2e78 svgShape"></stop><stop offset=".09" stop-color="#595596" class="stopColor555596 svgShape"></stop><stop offset=".16" stop-color="#7a76b0" class="stopColor7677b0 svgShape"></stop><stop offset=".23" stop-color="#9592c6" class="stopColor9294c6 svgShape"></stop><stop offset=".31" stop-color="#a9c0d8" class="stopColora9acd8 svgShape"></stop><stop offset=".41" stop-color="#bbd0e5" class="stopColorbbbee5 svgShape"></stop><stop offset=".52" stop-color="#c7dbef" class="stopColorc7cbef svgShape"></stop><stop offset=".67" stop-color="#cee1f4" class="stopColorced2f4 svgShape"></stop><stop offset="1" stop-color="#d0e3f6" class="stopColord0d4f6 svgShape"></stop></linearGradient><linearGradient id="J" x1="463.53" x2="474.86" y1="375.17" y2="359.5" gradientUnits="userSpaceOnUse"><stop offset="0" stop-color="#6b1c6b" class="stopColor1e1c6b svgShape"></stop><stop offset=".13" stop-color="#423e84" class="stopColor3f3e84 svgShape"></stop><stop offset=".34" stop-color="#706ca6" class="stopColor6c6da6 svgShape"></stop><stop offset=".53" stop-color="#928fc1" class="stopColor8f91c1 svgShape"></stop><stop offset=".71" stop-color="#a8bed4" class="stopColora8acd4 svgShape"></stop><stop offset=".87" stop-color="#b8cce0" class="stopColorb8bbe0 svgShape"></stop><stop offset="1" stop-color="#bdd0e4" class="stopColorbdc1e4 svgShape"></stop></linearGradient><linearGradient id="L" x1="57.84" x2="123.65" y1="341.12" y2="341.12" gradientUnits="userSpaceOnUse"><stop offset=".45" stop-color="#c6d4e3" class="stopColorc6cae3 svgShape"></stop><stop offset="1" stop-color="#ffffff" class="stopColorffffff svgShape"></stop></linearGradient><linearGradient id="c" x1="42.77" x2="107.22" y1="346.27" y2="346.27" gradientUnits="userSpaceOnUse"><stop offset="0" stop-color="#429af2" class="stopColorf2bd42 svgShape"></stop><stop offset="1" stop-color="#d62db7" class="stopColord6952d svgShape"></stop></linearGradient><linearGradient id="M" x1="65.05" x2="79.19" y1="338.92" y2="338.92" xlink:href="#c"></linearGradient><linearGradient id="N" x1="89.77" x2="107.74" y1="327.94" y2="336.65" gradientUnits="userSpaceOnUse"><stop offset="0" stop-color="#c6d4e3" class="stopColorc6cae3 svgShape"></stop><stop offset="1" stop-color="#ffffff" class="stopColorffffff svgShape"></stop></linearGradient><linearGradient id="O" x1="39.65" x2="104.11" y1="330.45" y2="330.45" xlink:href="#c"></linearGradient><linearGradient id="P" x1="61.94" x2="76.08" y1="323.1" y2="323.1" xlink:href="#c"></linearGradient><linearGradient id="Q" x1="54.2" x2="118.65" y1="313.24" y2="313.24" xlink:href="#c"></linearGradient><linearGradient id="R" x1="76.48" x2="90.62" y1="305.89" y2="305.89" xlink:href="#c"></linearGradient><linearGradient id="S" x1="534.91" x2="575.59" y1="236.31" y2="236.31" xlink:href="#a"></linearGradient><linearGradient id="T" x1="653.64" x2="697.4" y1="233.2" y2="233.2" xlink:href="#a"></linearGradient><linearGradient id="U" x1="581.44" x2="605.17" y1="218.47" y2="218.47" xlink:href="#a"></linearGradient><linearGradient id="V" x1="553.81" x2="577.54" y1="282.13" y2="282.13" xlink:href="#a"></linearGradient><linearGradient id="d" x1="223.89" x2="269.68" y1="450.13" y2="450.13" gradientUnits="userSpaceOnUse"><stop offset="0" stop-color="#c6d6e7" class="stopColorc6cbe7 svgShape"></stop><stop offset=".38" stop-color="#dee7f1" class="stopColordee1f1 svgShape"></stop><stop offset=".98" stop-color="#ffffff" class="stopColorffffff svgShape"></stop></linearGradient><linearGradient id="W" x1="140.03" x2="185.83" y1="498.55" y2="498.55" xlink:href="#d"></linearGradient><linearGradient id="e" x1="500.77" x2="542.1" y1="460.41" y2="460.41" gradientUnits="userSpaceOnUse"><stop offset="0" stop-color="#c6d6e7" class="stopColorc6cbe7 svgShape"></stop><stop offset=".08" stop-color="#cedcea" class="stopColorced2ea svgShape"></stop><stop offset=".4" stop-color="#e9eff6" class="stopColore9ebf6 svgShape"></stop><stop offset=".68" stop-color="#f9fbfd" class="stopColorf9fafd svgShape"></stop><stop offset=".9" stop-color="#ffffff" class="stopColorffffff svgShape"></stop></linearGradient><linearGradient id="X" x1="519.4" x2="560.73" y1="449.44" y2="449.44" xlink:href="#e"></linearGradient><linearGradient id="Y" x1="44.24" x2="50.89" y1="414.54" y2="414.44" gradientTransform="rotate(9.55 512.565 3269.316)" gradientUnits="userSpaceOnUse"><stop offset="0" stop-color="#4841aa" class="stopColor4141aa svgShape"></stop><stop offset="1" stop-color="#4841aa" class="stopColor4141aa svgShape"></stop></linearGradient><linearGradient id="f" x1="1170.26" x2="1185.49" y1="447.99" y2="447.99" gradientTransform="translate(-661.52)" gradientUnits="userSpaceOnUse"><stop offset="0" stop-color="#4841aa" class="stopColor4141aa svgShape"></stop><stop offset=".1" stop-color="#433da3" class="stopColor3d3da3 svgShape"></stop><stop offset=".69" stop-color="#2a257a" class="stopColor27257a svgShape"></stop><stop offset="1" stop-color="#6b1c6b" class="stopColor1e1c6b svgShape"></stop></linearGradient><linearGradient id="Z" x1="1151.42" x2="1166.66" y1="458.95" y2="458.95" xlink:href="#f"></linearGradient><linearGradient id="aa" x1="1158.04" x2="1184.23" y1="422.55" y2="422.55" gradientTransform="translate(-661.52)" gradientUnits="userSpaceOnUse"><stop offset="0" stop-color="#4841aa" class="stopColor4141aa svgShape"></stop><stop offset=".29" stop-color="#3a3493" class="stopColor343493 svgShape"></stop><stop offset=".74" stop-color="#272276" class="stopColor242276 svgShape"></stop><stop offset="1" stop-color="#6b1c6b" class="stopColor1e1c6b svgShape"></stop></linearGradient><linearGradient id="g" x1="1156.23" x2="1186.41" y1="378.46" y2="378.46" gradientTransform="translate(-661.52)" gradientUnits="userSpaceOnUse"><stop offset="0" stop-color="#867ff4" class="stopColor7f7ff4 svgShape"></stop><stop offset=".32" stop-color="#7d76ea" class="stopColor7676ea svgShape"></stop><stop offset=".86" stop-color="#5046e4" class="stopColor5c5cce svgShape"></stop><stop offset="1" stop-color="#5c55c6" class="stopColor5555c6 svgShape"></stop></linearGradient><linearGradient id="ab" x1="470.65" x2="499.44" y1="371.5" y2="371.5" xlink:href="#g"></linearGradient><linearGradient id="h" x1="97.63" x2="128.9" y1="547.08" y2="547.08" gradientUnits="userSpaceOnUse"><stop offset="0" stop-color="#c6d6e7" class="stopColorc6cbe7 svgShape"></stop><stop offset=".35" stop-color="#dce6ef" class="stopColordcdeef svgShape"></stop><stop offset=".72" stop-color="#ecf0f5" class="stopColorecedf5 svgShape"></stop><stop offset="1" stop-color="#f2f4f7" class="stopColorf2f2f7 svgShape"></stop></linearGradient><linearGradient id="ac" x1="79.2" x2="110.5" y1="536.45" y2="536.45" xlink:href="#h"></linearGradient><linearGradient id="i" x1="1150.13" x2="1164.89" y1="535.04" y2="535.04" gradientTransform="matrix(-1 0 0 1 1239.85 0)" gradientUnits="userSpaceOnUse"><stop offset="0" stop-color="#6b1c6b" class="stopColor1e1c6b svgShape"></stop><stop offset=".1" stop-color="#722072" class="stopColor222072 svgShape"></stop><stop offset=".69" stop-color="#3e389b" class="stopColor38389b svgShape"></stop><stop offset="1" stop-color="#4841aa" class="stopColor4141aa svgShape"></stop></linearGradient><linearGradient id="ad" x1="75.76" x2="92.69" y1="504" y2="504" gradientUnits="userSpaceOnUse"><stop offset="0" stop-color="#37318f" class="stopColor34318f svgShape"></stop><stop offset=".1" stop-color="#342e8a" class="stopColor312e8a svgShape"></stop><stop offset=".65" stop-color="#732173" class="stopColor232173 svgShape"></stop><stop offset="1" stop-color="#6b1c6b" class="stopColor1e1c6b svgShape"></stop></linearGradient><linearGradient id="ae" x1="1131.87" x2="1146.63" y1="545.67" y2="545.67" xlink:href="#i"></linearGradient><linearGradient id="af" x1="1138.28" x2="1163.65" y1="510.38" y2="510.38" gradientTransform="matrix(-1 0 0 1 1239.85 0)" gradientUnits="userSpaceOnUse"><stop offset="0" stop-color="#6b1c6b" class="stopColor1e1c6b svgShape"></stop><stop offset=".29" stop-color="#2f2982" class="stopColor2b2982 svgShape"></stop><stop offset=".74" stop-color="#413b9f" class="stopColor3b3b9f svgShape"></stop><stop offset="1" stop-color="#4841aa" class="stopColor4141aa svgShape"></stop></linearGradient><linearGradient id="k" x1="1133.5" x2="1161.73" y1="538.97" y2="538.97" gradientTransform="scale(-1 1) rotate(-16.3 248.85 4839.3)" gradientUnits="userSpaceOnUse"><stop offset="0" stop-color="#d62db7" class="stopColord6952d svgShape"></stop><stop offset=".13" stop-color="#dc36be" class="stopColordca136 svgShape"></stop><stop offset=".47" stop-color="#4b9beb" class="stopColorebbc4b svgShape"></stop><stop offset=".77" stop-color="#58a6f4" class="stopColorf4cc58 svgShape"></stop><stop offset="1" stop-color="#5ca9f7" class="stopColorf7d25c svgShape"></stop></linearGradient><linearGradient id="l" x1="211.79" x2="248.79" y1="690.67" y2="690.67" gradientTransform="rotate(61.18 361.726 480.252)" gradientUnits="userSpaceOnUse"><stop offset="0" stop-color="#5ca9f7" class="stopColorf7d25c svgShape"></stop><stop offset=".09" stop-color="#58a7f6" class="stopColorf6cf58 svgShape"></stop><stop offset=".61" stop-color="#489df3" class="stopColorf3c248 svgShape"></stop><stop offset="1" stop-color="#429af2" class="stopColorf2bd42 svgShape"></stop></linearGradient><linearGradient id="j" x1="1106.47" x2="1141.63" y1="298.81" y2="298.81" gradientTransform="matrix(-1 0 0 1 1781.81 0)" gradientUnits="userSpaceOnUse"><stop offset=".01" stop-color="#ffffff" class="stopColorffffff svgShape"></stop><stop offset=".25" stop-color="#fafbfd" class="stopColorfafafd svgShape"></stop><stop offset=".54" stop-color="#ecf1f7" class="stopColorecedf7 svgShape"></stop><stop offset=".85" stop-color="#d4e0ed" class="stopColord4d8ed svgShape"></stop><stop offset="1" stop-color="#c6d6e7" class="stopColorc6cbe7 svgShape"></stop></linearGradient><linearGradient id="ag" x1="1122.26" x2="1160.06" y1="309.44" y2="309.44" xlink:href="#j"></linearGradient><linearGradient id="ah" x1="87.58" x2="102.47" y1="297.47" y2="297.47" gradientTransform="translate(541.95)" xlink:href="#i"></linearGradient><linearGradient id="ai" x1="1138.38" x2="1155.11" y1="266.36" y2="266.36" gradientTransform="matrix(-1 0 0 1 1781.81 0)" gradientUnits="userSpaceOnUse"><stop offset="0" stop-color="#6b1c6b" class="stopColor1e1c6b svgShape"></stop><stop offset=".6" stop-color="#312b84" class="stopColor2d2b84 svgShape"></stop><stop offset="1" stop-color="#37318f" class="stopColor34318f svgShape"></stop></linearGradient><linearGradient id="aj" x1="69.31" x2="84.21" y1="308.06" y2="308.06" gradientTransform="translate(541.95)" xlink:href="#i"></linearGradient><linearGradient id="ak" x1="77.19" x2="101.23" y1="272.59" y2="272.59" gradientTransform="translate(541.95)" gradientUnits="userSpaceOnUse"><stop offset="0" stop-color="#4841aa" class="stopColor4141aa svgShape"></stop><stop offset=".26" stop-color="#413b9f" class="stopColor3b3b9f svgShape"></stop><stop offset=".71" stop-color="#2f2982" class="stopColor2b2982 svgShape"></stop><stop offset="1" stop-color="#6b1c6b" class="stopColor1e1c6b svgShape"></stop></linearGradient><linearGradient id="al" x1="174.77" x2="205.65" y1="23.29" y2="23.29" gradientTransform="rotate(-15.97 1156.718 -1425.151)" xlink:href="#k"></linearGradient><linearGradient id="am" x1="515.96" x2="551.71" y1="-355.91" y2="-355.91" gradientTransform="matrix(-.48 .88 .88 .48 1173.69 -68.18)" xlink:href="#l"></linearGradient><linearGradient id="an" x1="155.82" x2="206.25" y1="317.83" y2="317.83" gradientTransform="translate(-2.29)" xlink:href="#e"></linearGradient><linearGradient id="ao" x1="169.26" x2="216.24" y1="305.01" y2="305.01" gradientTransform="translate(-23.71)" xlink:href="#e"></linearGradient><linearGradient id="m" x1="146.32" x2="140.15" y1="308.08" y2="294.49" gradientUnits="userSpaceOnUse"><stop offset="0" stop-color="#6b1c6b" class="stopColor1e1c6b svgShape"></stop><stop offset=".52" stop-color="#342e8a" class="stopColor2f2e8a svgShape"></stop><stop offset="1" stop-color="#4841aa" class="stopColor4141aa svgShape"></stop></linearGradient><linearGradient id="ap" x1="146.97" x2="142.89" y1="307.64" y2="294.43" xlink:href="#m"></linearGradient><linearGradient id="aq" x1="728.89" x2="753.58" y1="324.6" y2="324.6" gradientTransform="matrix(-.99 -.13 -.13 .99 933.45 51.12)" gradientUnits="userSpaceOnUse"><stop offset="0" stop-color="#6b1c6b" class="stopColor1e1c6b svgShape"></stop><stop offset=".32" stop-color="#701f70" class="stopColor211f70 svgShape"></stop><stop offset=".72" stop-color="#2e2880" class="stopColor2b2880 svgShape"></stop><stop offset="1" stop-color="#37318f" class="stopColor34318f svgShape"></stop></linearGradient><linearGradient id="n" x1="152.57" x2="157.62" y1="320.95" y2="314.95" gradientUnits="userSpaceOnUse"><stop offset="0" stop-color="#4841aa" class="stopColor4141aa svgShape"></stop><stop offset=".48" stop-color="#342e8a" class="stopColor2f2e8a svgShape"></stop><stop offset="1" stop-color="#6b1c6b" class="stopColor1e1c6b svgShape"></stop></linearGradient><linearGradient id="ar" x1="150.6" x2="156.02" y1="319.21" y2="313.75" xlink:href="#n"></linearGradient><linearGradient id="as" x1="708.21" x2="725.29" y1="280.82" y2="284.84" gradientTransform="matrix(-1 0 0 1 868.04 0)" gradientUnits="userSpaceOnUse"><stop offset="0" stop-color="#6b1c6b" class="stopColor1e1c6b svgShape"></stop><stop offset=".36" stop-color="#352f89" class="stopColor302f89 svgShape"></stop><stop offset="1" stop-color="#5c55c6" class="stopColor5555c6 svgShape"></stop></linearGradient><linearGradient id="at" x1="157.92" x2="168.78" y1="225.87" y2="225.87" gradientUnits="userSpaceOnUse"><stop offset="0" stop-color="#867ff4" class="stopColor7f7ff4 svgShape"></stop><stop offset="1" stop-color="#726ae2" class="stopColor6a6ae2 svgShape"></stop></linearGradient><linearGradient id="au" x1="728.5" x2="701.42" y1="235.72" y2="235.72" gradientTransform="matrix(-1 0 0 1 868.04 0)" gradientUnits="userSpaceOnUse"><stop offset="0" stop-color="#726ae2" class="stopColor6a6ae2 svgShape"></stop><stop offset="1" stop-color="#4841aa" class="stopColor4141aa svgShape"></stop></linearGradient><linearGradient id="o" x1="686.46" x2="707.17" y1="262.86" y2="226.99" gradientTransform="matrix(-1 0 0 1 868.04 0)" gradientUnits="userSpaceOnUse"><stop offset="0" stop-color="#429af2" class="stopColorf2bd42 svgShape"></stop><stop offset=".41" stop-color="#e93bc9" class="stopColore9b03b svgShape"></stop><stop offset="1" stop-color="#d62db7" class="stopColord6952d svgShape"></stop></linearGradient><linearGradient id="av" x1="163.09" x2="201.31" y1="239.48" y2="239.48" xlink:href="#o"></linearGradient><linearGradient id="aw" x1="177.98" x2="177.98" y1="253.43" y2="233.99" gradientUnits="userSpaceOnUse"><stop offset="0" stop-color="#d62db7" class="stopColord6952d svgShape"></stop><stop offset=".17" stop-color="#e337c4" class="stopColore3a837 svgShape"></stop><stop offset=".38" stop-color="#3f96ee" class="stopColoreeb73f svgShape"></stop><stop offset=".54" stop-color="#429af2" class="stopColorf2bd42 svgShape"></stop><stop offset="1" stop-color="#d62db7" class="stopColord6952d svgShape"></stop></linearGradient><linearGradient id="ax" x1="180" x2="180" y1="240.61" y2="231.63" gradientUnits="userSpaceOnUse"><stop offset="0" stop-color="#d62db7" class="stopColord6952d svgShape"></stop><stop offset=".32" stop-color="#e337c4" class="stopColore3a837 svgShape"></stop><stop offset=".7" stop-color="#3f96ee" class="stopColoreeb73f svgShape"></stop><stop offset="1" stop-color="#429af2" class="stopColorf2bd42 svgShape"></stop></linearGradient><linearGradient id="ay" x1="175.95" x2="175.95" y1="250.45" y2="244.54" gradientUnits="userSpaceOnUse"><stop offset="0" stop-color="#429af2" class="stopColorf2bd42 svgShape"></stop><stop offset=".32" stop-color="#e538c6" class="stopColore5aa38 svgShape"></stop><stop offset=".7" stop-color="#da30bb" class="stopColorda9b30 svgShape"></stop><stop offset="1" stop-color="#d62db7" class="stopColord6952d svgShape"></stop></linearGradient><linearGradient id="az" x1="139.32" x2="161.3" y1="232.04" y2="232.04" gradientUnits="userSpaceOnUse"><stop offset="0" stop-color="#867ff4" class="stopColor7f7ff4 svgShape"></stop><stop offset="1" stop-color="#5c55c6" class="stopColor5555c6 svgShape"></stop></linearGradient><clipPath id="C"><path fill="url(#p)" d="M498.31 270.68c4.61 2.67 4.61 7 0 9.68L383.77 346.5c-4.61 2.66-12.16 2.66-16.77 0l-114.55-66.14c-4.61-2.66-4.61-7 0-9.68L367 204.55c4.61-2.66 12.15-2.66 16.77 0Z"></path></clipPath><clipPath id="H"><path fill="none" d="M501.76 275.39V37.63H249v237.58c-.15 1.86 1 3.74 3.43 5.15L367 346.5c4.61 2.66 12.16 2.66 16.77 0l114.54-66.14c2.37-1.36 3.51-3.17 3.45-4.97Z"></path></clipPath><radialGradient id="K" cx="473.72" cy="356.17" r="5.41" gradientUnits="userSpaceOnUse"><stop offset="0" stop-color="#867ff4" class="stopColor7f7ff4 svgShape"></stop><stop offset="1" stop-color="#6b1c6b" class="stopColor1e1c6b svgShape"></stop></radialGradient></defs><g style="isolation:isolate" fill="#010001" class="color000000 svgShape"><g fill="#010001" class="color000000 svgShape"><g data-name="Sprrch bubble" fill="#010001" class="color000000 svgShape"><path fill="url(#q)" d="M760.35 271.49c-47.5 26.41-85.57 48.39-132.39 78.09-72.33 45.87 71.25 67.48 63.47 128.12s68.92 77.4 68.92 77.4V271.49Z"></path><path fill="url(#r)" d="M238.6 163.47c0 5.57-3.95 12.41-8.78 15.2L76.34 267.28c-4.83 2.79-8.77.5-8.77-5.07v-115c0-5.57 3.94-12.41 8.77-15.2l153.48-88.63c4.83-2.79 8.78-.51 8.78 5.06Z"></path><path d="M296.43 173.6h-40.28c-9.66 0-21.5 2.28-26.33 5.06L76.34 267.28c-4.83 2.78-.88 5.06 8.77 5.06h199.23a80.65 80.65 0 0 0 12.09-1Z" style="mix-blend-mode:multiply" fill="url(#s)"></path><path fill="#f4f6f8" d="m80.21 244.35-1.76 1.01v-34.11l1.76-1.01v34.11z" class="colorf7d25c svgShape"></path><path fill="#429af2" d="m87.08 225.01-1.75 1.02v-28.88l1.75-1.02v28.88z" class="colorf2bd42 svgShape"></path><path fill="#f4f6f8" d="m93.08 228.81-1.76 1.01v-28.03l1.76-1.01v28.03z" class="colorf7d25c svgShape"></path><path fill="#d62db7" d="m100.83 237.34-1.76 1.01v-19.5l1.76-1.01v19.5z" class="colord6952d svgShape"></path><path fill="#f4f6f8" d="m107.7 226.28-1.75 1.01V194.7l1.75-1.01v32.59z" class="colorf7d25c svgShape"></path><path fill="#429af2" d="m114.58 212.85-1.76 1.02V180.6l1.76-1.02v33.27z" class="colorf2bd42 svgShape"></path><path fill="#f4f6f8" d="m121.45 201.79-1.75 1.01v-36.98l1.75-1.01v36.98z" class="colorf7d25c svgShape"></path><path fill="#d62db7" d="m128.33 221.46-1.76 1.02v-51.17l1.76-1.02v51.17z" class="colord6952d svgShape"></path><path fill="#429af2" d="M214.68 136.72a38.83 38.83 0 0 1-2.14 12.2l7.76-.2a54.22 54.22 0 0 0 3-17c0-19.52-13.71-27.43-30.62-17.67V124c12.15-7 22-1.32 22 12.72Z" class="colorf2bd42 svgShape"></path><path fill="#867ff4" d="M212.54 148.92c-3.55 10.59-11.11 20.86-19.87 25.92-12.15 7-22 1.33-22-12.71s9.86-31.1 22-38.12v-9.93c-16.9 9.76-30.61 33.5-30.61 53s13.71 27.43 30.61 17.67c12.18-7 22.7-21.32 27.63-36.05Z" class="color7f7ff4 svgShape"></path><path fill="#d0e3f6" d="m162.84 134.72 4.17 2.41 1-1.76-4.69-2.7-.5-.29-.51.29-11.55 6.67 1 1.76Zm3.8 56.42L162.1 199l-11.32 6.53 1 1.76 11.55-6.67.24-.14.14-.23 4.68-8.11Z" class="colord0d4f6 svgShape"></path><path fill="#ffffff" d="M151.92 98.27a2.57 2.57 0 0 1 1.16-2c.65-.37 1.17-.07 1.17.67a2.57 2.57 0 0 1-1.17 2c-.64.37-1.16.06-1.16-.67ZM159.12 94.11a2.56 2.56 0 0 1 1.16-2c.64-.37 1.16-.07 1.16.68a2.57 2.57 0 0 1-1.16 2c-.64.36-1.17.06-1.16-.68ZM147.05 101.08c0-.75-.52-1-1.17-.68a2.6 2.6 0 0 0-1.16 2c0 .74.52 1 1.16.67a2.55 2.55 0 0 0 1.17-1.99ZM191.94 80.48l-77.72 44.87v-1.52l77.72-44.87v1.52zM191.94 85.29l-77.72 44.87v-1.52l77.72-44.87v1.52zM179.51 97.28l-52.86 30.52v-1.52l52.86-30.52v1.52z" class="colorffffff svgShape"></path><path d="M709.54 240.71c-4.62 0-10.26 1.08-12.57 2.42l-99.46 57.42L570.64 285c-12-6.92-31.61-6.92-43.6 0l-132.47 76.51c-12 6.92-14.43 106.81-14.43 106.81h167.43c8.32.2 16.76-1.51 23.07-5.15l132.47-76.48c12-6.93 12-18.25 0-25.18l-97.21-56.12 107.84-62.26c2.31-1.34.43-2.42-4.2-2.42Z" style="mix-blend-mode:multiply" fill="url(#t)"></path><path d="M334.56 442.68v9.68l-184 106.25-3.31-1.91-4 2.33 4.4 2.54c.69.49 2.37.8 4.83.8 4.62 0 10.26-1.09 12.57-2.43L343 457.21Z" style="mix-blend-mode:multiply" fill="url(#a)"></path><path style="mix-blend-mode:multiply" fill="url(#u)" d="M594.15 504h-26.27l16.67 9.62-16.67 9.63h26.27l16.67-9.63-16.67-9.62z"></path><path fill="#bdd0e4" d="m567.88 523.25 16.67-9.63v-19.25L567.88 504v19.25z" class="colorbdc1e4 svgShape"></path><path fill="#d0e3f6" d="m567.88 523.25-16.67-9.63v-19.25l16.67 9.63v19.25z" class="colord0d4f6 svgShape"></path><path fill="#f2f4f7" d="m567.88 504-16.67-9.63 16.67-9.62 16.67 9.62-16.67 9.63z" class="colorf2f2f7 svgShape"></path><path style="mix-blend-mode:multiply" fill="url(#v)" d="M646.67 364.66h-28.06l17.81 10.28-17.81 10.29h28.06l17.81-10.29-17.81-10.28z"></path><path fill="#bdd0e4" d="m618.61 385.23 17.81-10.29v-20.56l-17.81 10.28v20.57z" class="colorbdc1e4 svgShape"></path><path fill="#d0e3f6" d="m618.61 385.23-17.81-10.29v-20.56l17.81 10.28v20.57z" class="colord0d4f6 svgShape"></path><path fill="#ffffff" d="m618.61 364.66-17.81-10.28 17.81-10.28 17.81 10.28-17.81 10.28z" class="colorffffff svgShape"></path><path style="mix-blend-mode:multiply" fill="url(#w)" d="M592.21 107.12h-30.65l19.45 11.24-19.45 11.23h30.65l19.45-11.23-19.45-11.24z"></path><path fill="#bdd0e4" d="m561.56 129.59 19.45-11.23V95.89l-19.45 11.23v22.47z" class="colorbdc1e4 svgShape"></path><path fill="#d0e3f6" d="m561.56 129.59-19.45-11.23V95.89l19.45 11.23v22.47z" class="colord0d4f6 svgShape"></path><path fill="#f2f4f7" d="m561.56 107.12-19.45-11.23 19.45-11.22 19.45 11.22-19.45 11.23z" class="colorf2f2f7 svgShape"></path><path style="mix-blend-mode:multiply" fill="url(#x)" d="M726.79 343.61h-17.05l10.82 6.26-10.82 6.25h17.05l10.83-6.25-10.83-6.26z"></path><path fill="#bdd0e4" d="m709.74 356.12 10.82-6.25v-12.51l-10.82 6.25v12.51z" class="colorbdc1e4 svgShape"></path><path fill="#d0e3f6" d="m709.74 356.12-10.83-6.25v-12.51l10.83 6.25v12.51z" class="colord0d4f6 svgShape"></path><path fill="#f2f4f7" d="m709.74 343.61-10.83-6.25 10.83-6.24 10.82 6.24-10.82 6.25z" class="colorf2f2f7 svgShape"></path><path style="mix-blend-mode:multiply" fill="url(#y)" d="M522.29 168.69h-19.1l12.13 7-12.13 7h19.1l12.13-7-12.13-7z"></path><path fill="#bdd0e4" d="m503.19 182.69 12.13-7v-14l-12.13 7v14z" class="colorbdc1e4 svgShape"></path><path fill="#d0e3f6" d="m503.19 182.69-12.12-7v-14l12.12 7v14z" class="colord0d4f6 svgShape"></path><path fill="#f2f4f7" d="m503.19 168.69-12.12-7 12.12-7 12.13 7-12.13 7z" class="colorf2f2f7 svgShape"></path><path fill="#f7f9fc" d="m699.9 233.14-94.42-54.52-2.94.31L416.2 286.51 510.63 341 697 233.44a3 3 0 0 1 2.9-.3Z" class="colorf7f7fc svgShape"></path><path d="m519 336.26 78.5-45.32-18.5-10.68c-12-6.92-31.6-6.92-43.59 0L478.73 313Z" style="mix-blend-mode:multiply" fill="url(#z)"></path><path fill="#bdd0e4" d="M697 233.44c2.31-1.33 4.19-.25 4.19 2.42a9.29 9.29 0 0 1-4.19 7.27L510.63 350.71V341Z" class="colorbdc1e4 svgShape"></path><path fill="#a5b9ce" d="M699.19 237c0-1.42-1-2-2.22-1.28a4.91 4.91 0 0 0-2.23 3.85c0 1.42 1 2 2.23 1.28a4.9 4.9 0 0 0 2.22-3.85ZM688.1 243.4c0-1.41-1-2-2.22-1.28a4.91 4.91 0 0 0-2.23 3.85c0 1.42 1 2 2.23 1.28a4.91 4.91 0 0 0 2.22-3.85ZM677 249.81c0-1.42-1-2-2.22-1.28a4.9 4.9 0 0 0-2.23 3.85c0 1.41 1 2 2.23 1.28a4.93 4.93 0 0 0 2.22-3.85ZM665.92 256.21c0-1.42-1-2-2.23-1.28a4.93 4.93 0 0 0-2.22 3.85c0 1.42 1 2 2.22 1.28a4.91 4.91 0 0 0 2.23-3.85ZM654.82 262.62c0-1.42-1-2-2.22-1.29a4.9 4.9 0 0 0-2.22 3.85c0 1.42 1 2 2.22 1.29a4.92 4.92 0 0 0 2.22-3.85ZM643.73 269c0-1.42-1-2-2.22-1.28a4.89 4.89 0 0 0-2.22 3.85c0 1.41 1 2 2.22 1.28a4.9 4.9 0 0 0 2.22-3.85ZM632.64 275.42c0-1.42-1-2-2.22-1.28a4.91 4.91 0 0 0-2.23 3.85c0 1.42 1 2 2.23 1.28a4.9 4.9 0 0 0 2.22-3.85ZM621.55 281.83c0-1.42-1-2-2.22-1.28a4.89 4.89 0 0 0-2.23 3.84c0 1.42 1 2 2.23 1.29a4.9 4.9 0 0 0 2.22-3.85ZM610.46 288.23c0-1.42-1-2-2.23-1.28a4.93 4.93 0 0 0-2.23 3.85c0 1.42 1 2 2.22 1.28a4.91 4.91 0 0 0 2.24-3.85ZM599.37 294.63c0-1.41-1-2-2.23-1.28a4.93 4.93 0 0 0-2.22 3.85c0 1.42 1 2 2.22 1.29a5 5 0 0 0 2.23-3.86ZM588.28 301c0-1.42-1-2-2.23-1.28a4.9 4.9 0 0 0-2.22 3.85c0 1.41 1 2 2.22 1.28a4.91 4.91 0 0 0 2.23-3.85ZM577.18 307.44c0-1.42-1-2-2.22-1.28a4.9 4.9 0 0 0-2.22 3.85c0 1.42 1 2 2.22 1.28a4.9 4.9 0 0 0 2.22-3.85ZM566.09 313.85c0-1.42-1-2-2.22-1.29a4.91 4.91 0 0 0-2.23 3.85c0 1.42 1 2 2.23 1.29a4.92 4.92 0 0 0 2.22-3.85ZM555 320.25c0-1.42-1-2-2.22-1.28a4.9 4.9 0 0 0-2.23 3.85c0 1.42 1 2 2.23 1.28a4.93 4.93 0 0 0 2.22-3.85ZM543.91 326.65c0-1.41-1-2-2.22-1.28a4.91 4.91 0 0 0-2.23 3.85c0 1.42 1 2 2.23 1.28a4.93 4.93 0 0 0 2.22-3.85ZM532.82 333.06c0-1.42-1-2-2.23-1.29a4.94 4.94 0 0 0-2.22 3.85c0 1.42 1 2 2.22 1.29a4.91 4.91 0 0 0 2.23-3.85ZM521.73 339.46c0-1.42-1-2-2.23-1.28a4.9 4.9 0 0 0-2.22 3.85c0 1.42 1 2 2.22 1.28a4.91 4.91 0 0 0 2.23-3.85Z" class="colora5aace svgShape"></path><path d="M594.52 183.56 592 185l94.43 54.52 2.51-1.45Zm-28.79 16.62 94.42 54.52 2.52-1.45-94.43-54.52Zm-26.27 15.17 94.42 54.52 2.52-1.46L542 213.9Zm-26.28 15.17L607.61 285l2.51-1.45-94.42-54.48Zm-26.27 15.17 94.43 54.51 2.51-1.45-94.42-54.51Zm-26.27 15.17 94.42 54.51 2.52-1.45-94.42-54.52ZM434.37 276l94.42 54.52 2.52-1.45-94.43-54.52Z" style="mix-blend-mode:multiply" fill="url(#b)"></path><path fill="#f7f9fc" d="M529.65 262.94c12 6.92 12 18.25 0 25.17l-132.47 76.48c-12 6.92-31.61 6.92-43.6 0l-132.47-76.48c-12-6.92-12-18.25 0-25.17l132.47-76.48c12-6.92 31.61-6.93 43.6 0Z" class="colorf7f7fc svgShape"></path><path fill="url(#A)" d="m529.65 288.11-132.47 76.48c-12 6.92-31.61 6.92-43.6 0l-132.47-76.48c-6-3.46-9-8-9-12.59v98.76c0 4.56 3 9.12 9 12.58l132.47 76.48c12 6.92 31.62 6.92 43.6 0l132.47-76.48c6-3.43 9-7.95 9-12.48v-98.76c-.06 4.53-3.05 9.05-9 12.49Z"></path><path fill="url(#B)" d="m326.17 378.13-77.65-44.83c-4.63-2.67-8.39-.51-8.39 4.84v59.7l94.43 54.52v-59.7c0-5.35-3.75-11.85-8.39-14.53Z"></path><path fill="url(#p)" d="M498.31 270.68c4.61 2.67 4.61 7 0 9.68L383.77 346.5c-4.61 2.66-12.16 2.66-16.77 0l-114.55-66.14c-4.61-2.66-4.61-7 0-9.68L367 204.55c4.61-2.66 12.15-2.66 16.77 0Z"></path><path fill="url(#D)" d="M252.45 276.33 367 210.2c4.61-2.67 12.15-2.67 16.77 0l114.54 66.13a8.2 8.2 0 0 1 2.4 2c2-2.52 1.18-5.6-2.4-7.67l-114.54-66.11c-4.62-2.66-12.16-2.66-16.77 0l-114.55 66.13c-3.58 2.07-4.36 5.15-2.4 7.67a8.2 8.2 0 0 1 2.4-2.02Z"></path><path fill="#f7f9fc" d="M334.56 392.66c0-5.35-3.75-11.85-8.39-14.53l-34.33-19.82L53.8 495.75a9.25 9.25 0 0 0-4.2 7.25c0 1.51.61 2.52 1.56 2.86L145 560l3.25-9.77 186.31-107.55Z" class="colorf7f7fc svgShape"></path><path fill="#bdd0e4" d="M148.22 550.26a9.29 9.29 0 0 0-4.19 7.26c0 2.68 1.88 3.76 4.19 2.42l186.34-107.58v-9.68Z" class="colorbdc1e4 svgShape"></path><path fill="#a5b9ce" d="M146 556.39a4.9 4.9 0 0 1 2.22-3.85c1.23-.71 2.22-.14 2.22 1.28a4.9 4.9 0 0 1-2.22 3.85c-1.22.71-2.22.14-2.22-1.28ZM157.09 550a4.9 4.9 0 0 1 2.22-3.85c1.23-.71 2.23-.13 2.23 1.29a4.91 4.91 0 0 1-2.23 3.85c-1.23.71-2.22.11-2.22-1.29ZM168.18 543.58a4.91 4.91 0 0 1 2.23-3.85c1.22-.71 2.22-.14 2.22 1.28a4.93 4.93 0 0 1-2.22 3.85c-1.23.71-2.23.14-2.23-1.28ZM179.27 537.18a4.9 4.9 0 0 1 2.23-3.85c1.22-.71 2.22-.14 2.22 1.28a4.93 4.93 0 0 1-2.22 3.85c-1.23.71-2.23.13-2.23-1.28ZM190.36 530.77a4.91 4.91 0 0 1 2.23-3.85c1.22-.71 2.22-.13 2.22 1.29a5 5 0 0 1-2.22 3.85c-1.23.7-2.23.13-2.23-1.29ZM201.46 524.37a4.9 4.9 0 0 1 2.22-3.85c1.23-.71 2.22-.14 2.22 1.28a4.9 4.9 0 0 1-2.22 3.85c-1.23.71-2.22.13-2.22-1.28ZM212.55 518a4.88 4.88 0 0 1 2.22-3.84c1.23-.71 2.23-.14 2.23 1.28a4.91 4.91 0 0 1-2.23 3.85c-1.23.71-2.22.09-2.22-1.29ZM223.64 511.56a4.93 4.93 0 0 1 2.22-3.85c1.23-.71 2.23-.13 2.23 1.29a4.91 4.91 0 0 1-2.23 3.84c-1.22.71-2.22.16-2.22-1.28ZM234.73 505.16a4.93 4.93 0 0 1 2.22-3.85c1.23-.71 2.23-.14 2.23 1.28a4.93 4.93 0 0 1-2.22 3.85c-1.23.71-2.23.14-2.23-1.28ZM245.82 498.75a4.93 4.93 0 0 1 2.23-3.85c1.22-.71 2.22-.13 2.22 1.29a4.91 4.91 0 0 1-2.22 3.84c-1.23.72-2.23.14-2.23-1.28ZM256.91 492.35a4.91 4.91 0 0 1 2.23-3.85c1.22-.71 2.22-.14 2.22 1.28a4.93 4.93 0 0 1-2.22 3.85c-1.23.71-2.23.14-2.23-1.28ZM268 486a4.94 4.94 0 0 1 2.22-3.86c1.23-.7 2.22-.13 2.22 1.29a4.9 4.9 0 0 1-2.22 3.85c-1.22.66-2.22.08-2.22-1.28ZM279.1 479.54a4.9 4.9 0 0 1 2.22-3.85c1.23-.71 2.22-.13 2.22 1.28a4.94 4.94 0 0 1-2.22 3.86c-1.23.7-2.22.17-2.22-1.29ZM290.19 473.14a4.9 4.9 0 0 1 2.22-3.85c1.23-.71 2.23-.14 2.23 1.28a4.91 4.91 0 0 1-2.23 3.85c-1.23.71-2.22.14-2.22-1.28ZM301.28 466.74a5 5 0 0 1 2.22-3.86c1.23-.7 2.23-.13 2.23 1.29a4.91 4.91 0 0 1-2.23 3.83c-1.22.73-2.22.15-2.22-1.26ZM312.37 460.33a4.91 4.91 0 0 1 2.23-3.85c1.22-.71 2.22-.14 2.22 1.28a4.93 4.93 0 0 1-2.22 3.85c-1.23.71-2.23.14-2.23-1.28ZM323.46 453.93a4.91 4.91 0 0 1 2.23-3.85c1.23-.71 2.22-.14 2.22 1.28a4.93 4.93 0 0 1-2.22 3.85c-1.23.71-2.23.14-2.23-1.28Z" class="colora5aace svgShape"></path><path d="m100.66 468.69 94.43 54.51 2.51-1.45-94.42-54.51Zm-26.27 15.16 94.43 54.52 2.51-1.45-94.42-54.52ZM50.3 499.94l94.43 54.51a10.18 10.18 0 0 1 1.47-2.4l-94.42-54.51a10.21 10.21 0 0 0-1.48 2.4Zm208-122.26 76.26 44v-2.88l-73.75-42.57ZM333.72 388l-46.63-26.93-2.52 1.45 49.91 28.81a15.66 15.66 0 0 0-.76-3.33Zm-154.24 35.18 94.43 54.52 2.51-1.45L182 421.73ZM205.75 408l94.43 54.52 2.51-1.45-94.42-54.52ZM232 392.85l94.42 54.51 2.51-1.45-94.39-54.51Zm-105.06 60.67L221.36 508l2.52-1.45-94.43-54.51Zm26.27-15.17 94.42 54.52 2.52-1.45-94.43-54.52Z" style="mix-blend-mode:multiply" fill="url(#E)"></path><path fill="#6b1c6b" d="m527.31 314.93 1.54-.89v-15.17l-1.54.89v15.17zM522.98 317.43l1.54-.89v-15.17l-1.54.89v15.17zM518.65 319.93l1.53-.89v-15.17l-1.53.89v15.17zM514.32 322.43l1.53-.89v-15.16l-1.53.88v15.17zM509.98 324.93l1.54-.89v-15.16l-1.54.88v15.17z" class="color1e1c6b svgShape"></path><path d="m287.7 469.74 46.86-27.06v-50c0-5.35-3.75-11.85-8.39-14.53l-34.33-19.82-98.57 56.91Z" style="mix-blend-mode:screen" fill="url(#F)"></path><path d="m287.7 469.74 46.86-27.06v-50c0-5.35-3.75-11.85-8.39-14.53l-34.33-19.82-98.57 56.91Z" style="mix-blend-mode:multiply" fill="url(#G)"></path><path fill="#bdd0e4" d="m516.96 429.24-46.39 26.78V398.1l46.39-26.78v57.92z" class="colorbdc1e4 svgShape"></path><path fill="#d0e3f6" d="m440.23 364.67 30.34 33.43v57.92l-30.34-17.52v-73.83z" class="colord0d4f6 svgShape"></path><path fill="#f7f9fc" d="m440.22 364.67 46.39-26.78L517 371.32q-23.19 13.4-46.39 26.78Z" class="colorf7f7fc svgShape"></path><path fill="#6b1c6b" d="m452.45 364.54 6.16-3.54 21.92 24.15-6.17 3.53Z" class="color1e1c6b svgShape"></path><path fill="url(#I)" d="m473.06 358.14 1.3 1.43-11.81 16.11-1.3-1.44 11.81-16.1z"></path><path fill="url(#J)" d="m474.02 360.04 1.81-1.05-12.69 17.32-.59-.63 11.47-15.64z"></path><path fill="url(#K)" d="M471.48 357.67a3.27 3.27 0 1 1 3.27 3.27 3.26 3.26 0 0 1-3.27-3.27Z"></path><path d="M274.19 257.5a6.31 6.31 0 1 1 6.3 6.3 6.3 6.3 0 0 1-6.3-6.3ZM422.09 288.32a8.57 8.57 0 1 1 8.57 8.56 8.57 8.57 0 0 1-8.57-8.56ZM358.87 237.41a8.57 8.57 0 1 1 8.57 8.56 8.57 8.57 0 0 1-8.57-8.56Z" style="mix-blend-mode:screen" fill="#ba38a2" class="colorba6038 svgShape"></path><path d="M404.87 199.89a5 5 0 1 1 5 5 5 5 0 0 1-5-5Z" style="mix-blend-mode:multiply" fill="#8dc6ff" class="colorffce8d svgShape"></path><path d="M454.65 264.37a5 5 0 1 1 5 5 5 5 0 0 1-5-5Z" style="mix-blend-mode:screen" fill="#ba38a2" class="colorba6038 svgShape"></path><path d="M323.87 210.76a5 5 0 1 1 5 5 5 5 0 0 1-5-5ZM340.87 181.26a8.12 8.12 0 1 1 8.12 8.12 8.11 8.11 0 0 1-8.12-8.12Z" style="mix-blend-mode:multiply" fill="#8dc6ff" class="colorffce8d svgShape"></path><path d="M323 274.46a5 5 0 1 1 5 5 5 5 0 0 1-5-5ZM364.12 314.08a5 5 0 1 1 5 5 5 5 0 0 1-5-5Z" style="mix-blend-mode:screen" fill="#ba38a2" class="colorba6038 svgShape"></path><path d="M395.68 154.68a3.38 3.38 0 1 1 3.38 3.38 3.38 3.38 0 0 1-3.38-3.38ZM479.75 214.28a2.5 2.5 0 1 1 2.5 2.5 2.5 2.5 0 0 1-2.5-2.5ZM423.14 177.22a2.5 2.5 0 1 1 2.5 2.5 2.5 2.5 0 0 1-2.5-2.5Z" style="mix-blend-mode:multiply" fill="#8dc6ff" class="colorffce8d svgShape"></path><path d="M436.73 291.79a2.5 2.5 0 1 1 2.5 2.5 2.5 2.5 0 0 1-2.5-2.5ZM409.41 240.57a2.5 2.5 0 1 1 2.5 2.5 2.49 2.49 0 0 1-2.5-2.5Z" style="mix-blend-mode:screen" fill="#ba38a2" class="colorba6038 svgShape"></path><path d="M262.35 207.83a4.25 4.25 0 1 1 4.25 4.25 4.25 4.25 0 0 1-4.25-4.25Z" style="mix-blend-mode:multiply" fill="#8dc6ff" class="colorffce8d svgShape"></path><path d="M445.06 226.72a2.5 2.5 0 1 1 2.5 2.49 2.5 2.5 0 0 1-2.5-2.49Z" style="mix-blend-mode:screen" fill="#ba38a2" class="colorba6038 svgShape"></path><path d="M302.92 143.16a2.5 2.5 0 1 1 2.5 2.49 2.49 2.49 0 0 1-2.5-2.49Z" style="mix-blend-mode:multiply" fill="#8dc6ff" class="colorffce8d svgShape"></path><circle cx="389.87" cy="268.08" r="2.5" style="mix-blend-mode:screen" fill="#ba38a2" class="colorba6038 svgShape"></circle><path d="M338.37 249.21a2.5 2.5 0 1 1 2.5 2.5 2.5 2.5 0 0 1-2.5-2.5Z" style="mix-blend-mode:screen" fill="#ba38a2" class="colorba6038 svgShape"></path><path d="M384.88 74.89a2.5 2.5 0 1 1 2.5 2.49 2.49 2.49 0 0 1-2.5-2.49ZM363.61 129.5a3.89 3.89 0 1 1 3.89 3.89 3.89 3.89 0 0 1-3.89-3.89Z" style="mix-blend-mode:multiply" fill="#8dc6ff" class="colorffce8d svgShape"></path><path d="M305.42 282.44a2.5 2.5 0 1 1 2.5 2.5 2.5 2.5 0 0 1-2.5-2.5ZM389.87 327.94a2.51 2.51 0 1 1 2.51 2.5 2.5 2.5 0 0 1-2.51-2.5Z" style="mix-blend-mode:screen" fill="#ba38a2" class="colorba6038 svgShape"></path><path d="M400 111.78a2.5 2.5 0 1 1 2.5 2.5 2.49 2.49 0 0 1-2.5-2.5ZM457.18 122.94a2.5 2.5 0 1 1 2.5 2.5 2.5 2.5 0 0 1-2.5-2.5Z" style="mix-blend-mode:multiply" fill="#8dc6ff" class="colorffce8d svgShape"></path><path d="M113.93 327.63c-6.88-4-16-5.8-25-5.53H74.85v2.31a37.64 37.64 0 0 0-7.45 3.22c-12.8 7.45-12.73 19.52.15 27a37.24 37.24 0 0 0 7.3 3.16v2.41h16.88c8.12-.14 16.17-2 22.35-5.57 12.81-7.48 12.75-19.55-.15-27Z" style="mix-blend-mode:multiply" fill="url(#L)"></path><path fill="#69b4ff" d="M42.77 332.37c0-4.76 3.14-9.52 9.43-13.16s14.55-5.45 22.79-5.45 16.5 1.82 22.79 5.45 9.44 8.4 9.44 13.16-3.15 9.53-9.44 13.16S83.24 351 75 351s-16.5-1.82-22.79-5.45-9.44-8.42-9.44-13.18Z" class="colorffe669 svgShape"></path><path fill="url(#c)" d="M97.78 345.53C91.49 349.16 83.24 351 75 351s-16.5-1.82-22.79-5.45-9.44-8.4-9.44-13.16v9.19c0 4.76 3.14 9.52 9.44 13.15s14.54 5.45 22.79 5.45 16.49-1.81 22.78-5.45 9.44-8.39 9.44-13.15v-9.19c0 4.74-3.15 9.51-9.44 13.14Z"></path><path fill="#f4f6f8" d="M56.49 343.05c5.11 3 11.81 4.43 18.51 4.43s13.39-1.47 18.5-4.42c4.71-2.73 7.25-6.23 7.61-9.79-.36-3.57-2.9-7.07-7.61-9.79-5.11-3-11.81-4.43-18.51-4.43s-13.39 1.48-18.5 4.43c-4.72 2.72-7.25 6.22-7.62 9.79.37 3.56 2.9 7.06 7.62 9.78Z" class="colorf7d25c svgShape"></path><path fill="#d62db7" d="M56.49 323.48c5.11-3 11.81-4.43 18.5-4.43s13.4 1.48 18.51 4.43c4.71 2.72 7.25 6.22 7.61 9.79v-.9c0-3.87-2.55-7.73-7.66-10.68s-11.76-4.43-18.45-4.43-13.39 1.48-18.5 4.43-7.67 6.81-7.67 10.68v.9c.41-3.57 2.94-7.07 7.66-9.79Z" class="colord6952d svgShape"></path><path fill="#d62db7" d="m87.89 328.53 2.47-1.43v-1.79l-2.47 1.43v1.79z" class="colord6952d svgShape"></path><path fill="#69b4ff" d="M76.47 331.52a2.1 2.1 0 0 1 0-4 7.65 7.65 0 0 1 6.91 0c1.91 1.1 1.91 2.89 0 4l3.14 1.81c3.09-1.78 3.54-4.52 1.37-6.59l2.47-1.43-3.13-1.81-2.48 1.43a14.77 14.77 0 0 0-11.42.79c-1.76 1-2.73 2.37-2.73 3.8s1 2.79 2.73 3.81 1.91 2.89 0 4a7.65 7.65 0 0 1-6.91 0c-1.91-1.1-1.91-2.89 0-4l-3.14-1.81c-3.09 1.79-3.54 4.52-1.37 6.59l-2.28 1.32 3.13 1.81 2.29-1.32a14.77 14.77 0 0 0 11.42-.79c3.63-2.13 3.63-5.51 0-7.61Z" class="colorffe669 svgShape"></path><path fill="#429af2" d="m59.63 341.22 3.14 1.81v-1.79l-3.14-1.81v1.79z" class="colorf2bd42 svgShape"></path><path fill="#d62db7" d="m62.77 343.03 2.28-1.31v-1.8l-2.28 1.32v1.79z" class="colord6952d svgShape"></path><path fill="#429af2" d="m83.38 333.31 3.14 1.81v-1.79l-3.14-1.81v1.79z" class="colorf2bd42 svgShape"></path><path fill="#d62db7" d="M66.42 335.12v-1.79c-1.35.78-1.74 1.91-1.17 2.89a3.13 3.13 0 0 1 1.17-1.1Z" class="colord6952d svgShape"></path><path fill="#429af2" d="M60.56 335.24v2a3.32 3.32 0 0 0 .39 1.41l.95-.55a3.81 3.81 0 0 1-1.34-2.87ZM73.33 335.12a3.13 3.13 0 0 1 1.17 1.1c.57-1 .18-2.11-1.17-2.89-1.76-1-2.73-2.37-2.73-3.81v1.8c0 1.43.97 2.78 2.73 3.8ZM79.19 335.32Z" class="colorf2bd42 svgShape"></path><path fill="#d62db7" d="M89.23 329.52c0 1.38-.9 2.76-2.71 3.81v1.79c1.86-1.07 2.76-2.5 2.71-3.91v-1.7Z" class="colord6952d svgShape"></path><path fill="url(#M)" d="M76.47 339.13a14.77 14.77 0 0 1-11.42.79v1.8a14.82 14.82 0 0 0 11.42-.8c1.8-1 2.71-2.4 2.72-3.77v-1.82c0 1.38-.91 2.76-2.72 3.8Z"></path><path fill="#d62db7" d="M83.38 327.53a7.65 7.65 0 0 0-6.91 0 2.42 2.42 0 0 0-1.44 2 1.74 1.74 0 0 0 .26.9 3.16 3.16 0 0 1 1.18-1.1 7.65 7.65 0 0 1 6.91 0 3.13 3.13 0 0 1 1.17 1.1c.57-.99.18-2.12-1.17-2.9Z" class="colord6952d svgShape"></path><path d="M109.5 311.82c-6.88-4-16-5.8-25-5.53H70.42v2.3a37.41 37.41 0 0 0-7.42 3.23c-12.81 7.45-12.73 19.51.15 27a37.21 37.21 0 0 0 7.3 3.15v2.42H87.3c8.12-.14 16.18-2 22.35-5.57 12.81-7.49 12.75-19.55-.15-27Z" style="mix-blend-mode:multiply" fill="url(#N)"></path><path fill="#69b4ff" d="M39.65 316.56c0-4.77 3.15-9.53 9.44-13.16s14.54-5.4 22.79-5.4 16.49 1.82 22.79 5.45 9.44 8.39 9.44 13.16-3.15 9.52-9.44 13.15-14.54 5.45-22.79 5.45-16.49-1.82-22.78-5.45-9.44-8.44-9.45-13.2Z" class="colorffe669 svgShape"></path><path fill="url(#O)" d="M94.67 329.71c-6.29 3.64-14.54 5.45-22.79 5.45s-16.49-1.82-22.78-5.45-9.44-8.39-9.45-13.15v9.18c0 4.76 3.15 9.52 9.45 13.16s14.54 5.45 22.78 5.45 16.5-1.82 22.79-5.45 9.44-8.4 9.44-13.16v-9.18c0 4.76-3.11 9.52-9.44 13.15Z"></path><path fill="#f4f6f8" d="M53.38 327.24c5.11 2.95 11.8 4.43 18.5 4.43s13.4-1.48 18.51-4.43c4.71-2.72 7.25-6.23 7.61-9.79-.36-3.56-2.9-7.06-7.61-9.78-5.11-3-11.81-4.43-18.51-4.43s-13.39 1.47-18.51 4.43c-4.71 2.72-7.25 6.22-7.61 9.78.36 3.55 2.9 7.07 7.62 9.79Z" class="colorf7d25c svgShape"></path><path fill="#d62db7" d="M53.37 307.67c5.12-3 11.81-4.43 18.51-4.43s13.4 1.47 18.51 4.43c4.71 2.72 7.25 6.22 7.61 9.78v-.89c0-3.87-2.55-7.74-7.66-10.69s-11.81-4.42-18.51-4.42-13.39 1.47-18.51 4.42-7.66 6.82-7.66 10.69v.89c.46-3.56 3-7.06 7.71-9.78Z" class="colord6952d svgShape"></path><path fill="#d62db7" d="m84.77 312.71 2.48-1.43v-1.78l-2.48 1.43v1.78z" class="colord6952d svgShape"></path><path fill="#69b4ff" d="M73.35 315.71a2.1 2.1 0 0 1 0-4 7.59 7.59 0 0 1 6.91 0c1.9 1.1 1.9 2.89 0 4l3.13 1.81c3.1-1.79 3.55-4.52 1.37-6.6l2.48-1.42-3.14-1.82-2.47 1.43a14.82 14.82 0 0 0-11.42.8c-1.76 1-2.73 2.36-2.73 3.8s1 2.79 2.73 3.81 1.91 2.89 0 4a7.65 7.65 0 0 1-6.91 0c-1.91-1.1-1.91-2.89 0-4l-3.14-1.81c-3.09 1.78-3.54 4.52-1.37 6.59l-2.28 1.32 3.13 1.81 2.29-1.32a14.82 14.82 0 0 0 11.42-.79c3.65-2.1 3.65-5.51 0-7.61Z" class="colorffe669 svgShape"></path><path fill="#429af2" d="m56.52 325.41 3.13 1.81v-1.79l-3.13-1.81v1.79z" class="colorf2bd42 svgShape"></path><path fill="#d62db7" d="m59.65 327.22 2.29-1.32v-1.79l-2.29 1.32v1.79z" class="colord6952d svgShape"></path><path fill="#429af2" d="m80.27 317.5 3.13 1.81v-1.79l-3.13-1.81v1.79z" class="colorf2bd42 svgShape"></path><path fill="#d62db7" d="M63.31 319.31v-1.79c-1.36.78-1.74 1.9-1.18 2.89a3.09 3.09 0 0 1 1.18-1.1Z" class="colord6952d svgShape"></path><path fill="#429af2" d="M57.45 319.42v2a3.36 3.36 0 0 0 .39 1.41l.95-.55a3.84 3.84 0 0 1-1.34-2.87ZM70.22 319.31a3.05 3.05 0 0 1 1.17 1.1c.57-1 .18-2.11-1.17-2.89-1.76-1-2.73-2.37-2.73-3.81v1.79c0 1.44.97 2.79 2.73 3.81ZM76.08 319.5Z" class="colorf2bd42 svgShape"></path><path fill="#d62db7" d="M86.12 313.71c0 1.38-.9 2.76-2.72 3.81v1.79c1.87-1.08 2.77-2.5 2.71-3.91v-1.7Z" class="colord6952d svgShape"></path><path fill="url(#P)" d="M73.36 323.32a14.82 14.82 0 0 1-11.42.79v1.79a14.77 14.77 0 0 0 11.42-.79c1.8-1 2.7-2.41 2.72-3.77v-1.82c0 1.38-.91 2.75-2.72 3.8Z"></path><path fill="#d62db7" d="M80.27 311.72a7.59 7.59 0 0 0-6.91 0 2.42 2.42 0 0 0-1.44 2 1.76 1.76 0 0 0 .26.9 3.09 3.09 0 0 1 1.18-1.1 7.65 7.65 0 0 1 6.91 0 3.05 3.05 0 0 1 1.17 1.1c.56-1 .18-2.12-1.17-2.9Z" class="colord6952d svgShape"></path><path fill="#69b4ff" d="M54.2 299.34c0-4.76 3.14-9.52 9.43-13.15s14.54-5.45 22.79-5.45 16.49 1.81 22.79 5.45 9.44 8.39 9.44 13.15-3.15 9.52-9.44 13.16-14.54 5.5-22.79 5.5-16.49-1.82-22.78-5.45-9.44-8.45-9.44-13.21Z" class="colorffe669 svgShape"></path><path fill="url(#Q)" d="M109.21 312.5c-6.29 3.63-14.54 5.45-22.79 5.45s-16.49-1.82-22.78-5.45-9.44-8.4-9.44-13.16v9.19c0 4.76 3.14 9.52 9.44 13.15s14.54 5.45 22.78 5.45 16.5-1.81 22.79-5.45 9.44-8.39 9.44-13.15v-9.19c0 4.76-3.15 9.52-9.44 13.16Z"></path><path fill="#f4f6f8" d="M67.92 310c5.11 3 11.81 4.42 18.5 4.42s13.4-1.42 18.51-4.42c4.71-2.72 7.25-6.23 7.61-9.79-.36-3.57-2.9-7.07-7.61-9.79-5.11-2.92-11.81-4.42-18.51-4.42s-13.42 1.5-18.51 4.45c-4.71 2.72-7.24 6.22-7.61 9.79.37 3.56 2.9 7.07 7.62 9.76Z" class="colorf7d25c svgShape"></path><path fill="#d62db7" d="M67.91 290.45C73 287.5 79.73 286 86.42 286s13.4 1.48 18.51 4.43c4.71 2.72 7.25 6.22 7.61 9.79v-.9c0-3.86-2.55-7.73-7.66-10.68s-11.81-4.43-18.51-4.43-13.37 1.5-18.46 4.45-7.66 6.82-7.66 10.68v.9c.42-3.57 2.95-7.07 7.66-9.79Z" class="colord6952d svgShape"></path><path fill="#d62db7" d="m99.31 295.5 2.48-1.43v-1.79l-2.48 1.43v1.79z" class="colord6952d svgShape"></path><path fill="#69b4ff" d="M87.9 298.49a2.1 2.1 0 0 1 0-4 7.65 7.65 0 0 1 6.91 0c1.9 1.1 1.9 2.89 0 4L98 300.3c3.09-1.78 3.54-4.52 1.37-6.59l2.47-1.43-3.14-1.81-2.47 1.43a14.82 14.82 0 0 0-11.42.79c-1.76 1-2.73 2.37-2.73 3.81s1 2.79 2.73 3.8 1.91 2.89 0 4a7.65 7.65 0 0 1-6.91 0c-1.91-1.1-1.91-2.89 0-4l-3.14-1.81c-3.09 1.79-3.54 4.53-1.37 6.6l-2.28 1.31 3.13 1.81 2.29-1.32a14.77 14.77 0 0 0 11.42-.79c3.58-2.1 3.58-5.51-.05-7.61Z" class="colorffe669 svgShape"></path><path fill="#429af2" d="m71.06 308.19 3.13 1.81v-1.79l-3.13-1.81v1.79z" class="colorf2bd42 svgShape"></path><path fill="#d62db7" d="m74.19 310 2.29-1.31v-1.8l-2.29 1.32V310z" class="colord6952d svgShape"></path><path fill="#429af2" d="m94.81 300.28 3.13 1.82v-1.8l-3.13-1.81v1.79z" class="colorf2bd42 svgShape"></path><path fill="#d62db7" d="M77.85 302.09v-1.79c-1.35.79-1.74 1.91-1.17 2.89a3.13 3.13 0 0 1 1.17-1.1Z" class="colord6952d svgShape"></path><path fill="#429af2" d="M72 302.21v2a3.32 3.32 0 0 0 .39 1.41l1-.54a3.84 3.84 0 0 1-1.39-2.87ZM84.76 302.09a3.21 3.21 0 0 1 1.17 1.1c.57-1 .18-2.11-1.17-2.89-1.76-1-2.73-2.37-2.73-3.8v1.79c-.03 1.44.97 2.79 2.73 3.8ZM90.62 302.29Z" class="colorf2bd42 svgShape"></path><path fill="#d62db7" d="M100.66 296.5c0 1.37-.9 2.75-2.71 3.8v1.79c1.86-1.08 2.76-2.5 2.71-3.91v-1.68Z" class="colord6952d svgShape"></path><path fill="url(#R)" d="M87.9 306.1a14.77 14.77 0 0 1-11.42.79v1.8a14.86 14.86 0 0 0 11.42-.79c1.8-1 2.71-2.41 2.72-3.78v-1.82c0 1.38-.91 2.76-2.72 3.8Z"></path><path fill="#d62db7" d="M94.81 294.5a7.65 7.65 0 0 0-6.91 0 2.42 2.42 0 0 0-1.44 2 1.7 1.7 0 0 0 .26.89 3.16 3.16 0 0 1 1.18-1.1 7.65 7.65 0 0 1 6.91 0 3.13 3.13 0 0 1 1.17 1.1c.57-.98.18-2.11-1.17-2.89Z" class="colord6952d svgShape"></path><path style="mix-blend-mode:multiply" fill="url(#S)" d="M559.8 227.19h-24.89l15.8 9.12-15.8 9.12h24.89l15.8-9.12-15.8-9.12z"></path><path fill="#4841aa" d="m534.91 245.43 15.8-9.12v-18.24l-15.8 9.12v18.24z" class="color4141aa svgShape"></path><path fill="#726ae2" d="m534.91 245.43-15.79-9.12v-18.24l15.79 9.12v18.24z" class="color6a6ae2 svgShape"></path><path fill="#f4f6f8" d="m534.91 227.19-15.79-9.12 15.79-9.12 15.8 9.12-15.8 9.12z" class="colorf7d25c svgShape"></path><path style="mix-blend-mode:multiply" fill="url(#T)" d="M680.41 223.39h-26.77l16.99 9.8-16.99 9.81h26.77l16.99-9.81-16.99-9.8z"></path><path fill="#4841aa" d="m653.64 243 16.99-9.81v-19.61l-16.99 9.81V243z" class="color4141aa svgShape"></path><path fill="#5c55c6" d="m653.64 243-16.98-9.81v-19.61l16.98 9.81V243z" class="color5555c6 svgShape"></path><path fill="#867ff4" d="m653.64 223.39-16.98-9.81 16.98-9.81 16.99 9.81-16.99 9.81z" class="color7f7ff4 svgShape"></path><path style="mix-blend-mode:multiply" fill="url(#U)" d="M595.96 213.15h-14.52l9.21 5.32-9.21 5.32h14.52l9.21-5.32-9.21-5.32z"></path><path fill="#4841aa" d="m581.44 223.79 9.21-5.32v-10.64l-9.21 5.32v10.64z" class="color4141aa svgShape"></path><path fill="#5c55c6" d="m581.44 223.79-9.21-5.32v-10.64l9.21 5.32v10.64z" class="color5555c6 svgShape"></path><path fill="#867ff4" d="m581.44 213.15-9.21-5.32 9.21-5.32 9.21 5.32-9.21 5.32z" class="color7f7ff4 svgShape"></path><path style="mix-blend-mode:multiply" fill="url(#V)" d="M568.33 276.81h-14.52l9.21 5.32-9.21 5.32h14.52l9.21-5.32-9.21-5.32z"></path><path fill="#4841aa" d="m553.81 287.45 9.21-5.32V271.5l-9.21 5.31v10.64z" class="color4141aa svgShape"></path><path fill="#5c55c6" d="m553.81 287.45-9.21-5.32V271.5l9.21 5.31v10.64z" class="color5555c6 svgShape"></path><path fill="#867ff4" d="m553.81 276.81-9.21-5.31 9.21-5.32 9.21 5.32-9.21 5.31z" class="color7f7ff4 svgShape"></path><path style="mix-blend-mode:multiply" fill="url(#d)" d="M247.87 437.54h-23.98l21.81 12.59-21.81 12.6h23.98l21.81-12.6-21.81-12.59z"></path><path fill="#5c55c6" d="m223.89 436.56-21.82-12.6 21.82-12.6 21.81 12.6-21.81 12.6z" class="color5555c6 svgShape"></path><path fill="#f4f6f8" d="m213.66 430.65-1.6-.92 21.82-12.6 1.6.92-21.82 12.6z" class="colorf7d25c svgShape"></path><path fill="#6b1c6b" d="m223.89 462.73 21.81-12.6v-26.17l-21.81 12.59v26.18z" class="color1e1c6b svgShape"></path><path fill="#37318f" d="m223.89 462.73-21.82-12.6v-26.17l21.82 12.59v26.18zM223.89 447.75l21.81-12.6v-11.19l-21.81 12.59v11.2z" class="color34318f svgShape"></path><path fill="#4841aa" d="m223.89 447.75-21.82-12.6v-11.19l21.82 12.59v11.2z" class="color4141aa svgShape"></path><path fill="#429af2" d="m213.66 456.82-1.6-.92v-26.17l1.6.92v26.17z" class="colorf2bd42 svgShape"></path><path fill="#f4f6f8" d="m234.11 430.65 1.61-.92-21.82-12.6-1.6.92 21.81 12.6z" class="colorf7d25c svgShape"></path><path fill="#d62db7" d="m234.11 456.82 1.61-.92-.01-26.17-1.6.92v26.17z" class="colord6952d svgShape"></path><path fill="#6cb5ff" d="M231.58 410.41a2.46 2.46 0 0 0-2.34 0c-2.36 1.2-4.34 6-5.41 9.8-.85-1.78-2.14-3.41-3.79-3.7-1-.19-2.55.1-4 2.48-1.81 3-.88 4.69-.16 5.42a5.14 5.14 0 0 0 3.72 1.27 10.07 10.07 0 0 0 4.85-1.29c3.27-1.89 8.62-8.11 8.53-11.64a2.59 2.59 0 0 0-1.4-2.34Zm-14.37 12.73c-.76-.77-.18-2.15.43-3.18.46-.76 1.14-1.64 1.91-1.64h.17c1.26.22 2.65 2.58 3.23 4.79-2.09.97-4.78 1.01-5.74.03Zm8.19-1.69c1-3.83 2.94-8.5 4.67-9.38a1 1 0 0 1 .39-.11.61.61 0 0 1 .28.08.77.77 0 0 1 .42.78c.05 2.08-2.98 6.18-5.76 8.63Z" class="colorffea6c svgShape"></path><path style="mix-blend-mode:multiply" fill="url(#W)" d="M164.01 485.95h-23.98l21.81 12.6-21.81 12.6h23.98l21.82-12.6-21.82-12.6z"></path><path fill="#5c55c6" d="m140.03 484.97-21.82-12.59 21.82-12.6 21.81 12.6-21.81 12.59z" class="color5555c6 svgShape"></path><path fill="#f4f6f8" d="m129.81 479.07-1.61-.93 21.82-12.59 1.6.92-21.81 12.6z" class="colorf7d25c svgShape"></path><path fill="#6b1c6b" d="m140.03 511.15 21.81-12.6v-26.17l-21.81 12.59v26.18z" class="color1e1c6b svgShape"></path><path fill="#37318f" d="m140.03 511.15-21.82-12.6v-26.17l21.82 12.59v26.18zM140.03 496.17l21.81-12.6v-11.19l-21.81 12.59v11.2z" class="color34318f svgShape"></path><path fill="#4841aa" d="m140.03 496.17-21.82-12.6v-11.19l21.82 12.59v11.2z" class="color4141aa svgShape"></path><path fill="#429af2" d="m129.81 505.24-1.61-.93v-26.17l1.61.93v26.17z" class="colorf2bd42 svgShape"></path><path fill="#f4f6f8" d="m150.25 479.07 1.61-.93-21.82-12.59-1.6.92 21.81 12.6z" class="colorf7d25c svgShape"></path><path fill="#d62db7" d="m150.25 505.24 1.61-.93-.01-26.17-1.6.93v26.17z" class="colord6952d svgShape"></path><path fill="#6cb5ff" d="M147.72 458.82a2.49 2.49 0 0 0-2.34 0c-2.36 1.2-4.34 6-5.41 9.8-.85-1.78-2.14-3.41-3.79-3.7-1-.19-2.55.1-4 2.48-1.81 3-.88 4.69-.16 5.42a5.14 5.14 0 0 0 3.72 1.27 10.07 10.07 0 0 0 4.85-1.29c3.27-1.89 8.62-8.11 8.53-11.64a2.6 2.6 0 0 0-1.4-2.34Zm-14.37 12.74c-.76-.77-.19-2.15.43-3.18.46-.77 1.15-1.64 1.91-1.64h.17c1.26.23 2.65 2.59 3.23 4.79-2.09.96-4.78 1.01-5.74.03Zm8.19-1.69c1-3.83 2.94-8.5 4.67-9.38a.83.83 0 0 1 .39-.11.61.61 0 0 1 .28.08.77.77 0 0 1 .42.78c.05 2.08-2.98 6.21-5.76 8.63Z" class="colorffea6c svgShape"></path><path style="mix-blend-mode:multiply" fill="url(#e)" d="M500.77 456.61h41.33v7.6h-41.33z"></path><path style="mix-blend-mode:multiply" fill="url(#X)" d="M519.4 445.65h41.33v7.6H519.4z"></path><path fill="#afd2f6" d="M522.51 392.69c-1.14 1.37-2.94 2.7-3.47 3.62a10 10 0 0 0-.95 2.77c-.08.51 0 2.07.73 1.92s.81.54 1.46.52.47-.29.47-.29c.31.18.77.26.93 0 .27.15.35.46.92 0s.72-1.23 1.09-1.64c1.21-1.33 1.54-5.76 1.8-6.18s-2.19-1.67-2.98-.72Z" class="colorf6d3af svgShape"></path><path fill="url(#Y)" d="M521.2 356.77c8.54 8.55 8.82 25.18 4.49 37.75-1.84 1.9-4.85.31-4.15-1.62 3.78-14.52 4.34-28.35-.34-36.13Z"></path><path fill="url(#f)" d="M524 450.9c0-6-3.78-6.14-3.78-6.14a15.65 15.65 0 0 1-5.38-1.38c-3.28-1.36-7.91-.83-5.32 3.94l.08.17a2.32 2.32 0 0 0 .84.74l8.27 4.85c1.29.71 5.29-.95 5.29-2.18Z"></path><path fill="#441244" d="M524 450.37c-.08 1.22-4 2.86-5.27 2.14l-8.27-4.85a8.21 8.21 0 0 1-1.16-.84c.07.16.14.32.24.5l.08.17a2.32 2.32 0 0 0 .84.74l8.27 4.85c1.18.67 4.76-.75 5.24-1.94a1.12 1.12 0 0 0 0-.24 3.13 3.13 0 0 0 .03-.53Z" class="color121244 svgShape"></path><path fill="#ffffff" d="M522.44 444a34.77 34.77 0 0 0-4.4.87 1.85 1.85 0 0 1-.31.89l-.09.11c-.68.47-1.37 1.22.24 2.23a2.23 2.23 0 0 0 2.89-.21 2.61 2.61 0 0 1 .93-1.06 2.28 2.28 0 0 1 .89-.37.78.78 0 0 1 0-.09s.26-2.37-.15-2.37Z" class="colorffffff svgShape"></path><path fill="#6b1c6b" d="m522.5 385.63-16.81.3c1.39 11.23 4.19 21.43 6.06 32.31 2 10.57 4.26 18 6.24 26.8.72 1.63 4 1 4.69-.56.53-8.1 1.13-18-1.27-27.32.4-10.08 1.33-21.36 1.09-31.53Z" class="color1e1c6b svgShape"></path><path fill="url(#Z)" d="M505.14 461.87c0-6-3.78-6.14-3.78-6.14a15.65 15.65 0 0 1-5.38-1.38c-3.28-1.37-7.91-.84-5.32 3.93a.76.76 0 0 0 .09.18 2.31 2.31 0 0 0 .84.73l8.26 4.85c1.26.72 5.26-.94 5.29-2.17Z"></path><path fill="#441244" d="M505.12 461.33c-.07 1.23-4 2.86-5.27 2.15l-8.26-4.85a7.19 7.19 0 0 1-1.17-.85c.08.16.14.32.24.5a.76.76 0 0 0 .09.18 2.31 2.31 0 0 0 .84.73l8.26 4.85c1.18.67 4.77-.74 5.24-1.93a1.29 1.29 0 0 0 0-.25 3.13 3.13 0 0 0 .03-.53Z" class="color121244 svgShape"></path><path fill="#ffffff" d="M503.6 454.94a34.43 34.43 0 0 0-4.4.88 1.88 1.88 0 0 1-.3.88l-.1.12c-.68.47-1.37 1.22.24 2.22a2.23 2.23 0 0 0 2.89-.2 2.56 2.56 0 0 1 .93-1.06 2.41 2.41 0 0 1 .89-.38.54.54 0 0 1 0-.08s.25-2.38-.15-2.38Z" class="colorffffff svgShape"></path><path fill="url(#aa)" d="M510.65 412.34c1-4.83 12.8-5.43 12-24.42-3.7-.54-22.35 8.21-26 7.66-.46 11.31.63 21.83.7 32.87.26 10.75 1.27 18.45 1.78 27.46.45 1.73 3.81 1.66 4.73.21 1.84-7.91 4-17.55 3.2-27.16 1.08-5.33 2.39-10.96 3.59-16.62Z"></path><path fill="url(#g)" d="M514.75 398.68c-8 4.5-16.38 4.51-19.24-1 1.07-10.28-2.24-33.84 0-36.4a16.44 16.44 0 0 1 13.07-6.19c5.59 0 13-1.17 14.83 5 1.87 5.39 2.29 15.52-.64 27.3a15.13 15.13 0 0 1-8.02 11.29Z"></path><path fill="#afd2f6" d="M505.82 355.92c2.37-1.71 2-5.19 1.86-7.55a11.64 11.64 0 0 1-.35-4.08c.49-5.18 4.2-9.35 8.22-8.7 8.09 1.32 6.25 5.47 5.77 10.65-.45 4.8-2.93 7.9-6.62 8.12-.08.79.7.82 1.54 1.1.77 4.22-6.58 3.69-8.12 3s-3.41-1.38-2.3-2.54Z" class="colorf6d3af svgShape"></path><path fill="#37318f" d="M518.86 333.14c-.18-.66-1.41-1.11-5.67.41l-1.1.4c-7.9 3.18-6.24 12.24-5.13 14.66a4.81 4.81 0 0 1 .55 2.85c3.07 0 4 1.7 6 0 1.44-1.19 3.59-2.59 4-3.18a2.47 2.47 0 0 0 .32-1.49c.11-4.31 2-1.63 2-.64.83-.37.82-2.11.81-4.05 6.68-4.75 3.21-8.25-1.78-8.96Z" class="color34318f svgShape"></path><path fill="#afd2f6" d="M473.32 362.42c-.54.74-1.95-.85-2.3-1.5l.28-.39a2.38 2.38 0 0 0-1.85.45c-1 .54-1.21 1.24-1.92 2.9-.92 2.12 2.48 3.05 3.08 4l3.48-2.27a8.37 8.37 0 0 0 .38-2.1c0-.97-.61-1.82-1.15-1.09Z" class="colorf6d3af svgShape"></path><path fill="url(#ab)" d="M496.66 360c-4.22 4.73-9.37 10.9-13.44 14.26a66 66 0 0 1-8.35-8.8c-2.78-1.71-4.94 1.61-4 3.36 1.35 2.51 6.66 11.12 10.38 13.78 3.51 2.52 10.07-.27 14.53-6.15 3.72-6.01 5.55-19.88.88-16.45Z"></path><path style="mix-blend-mode:multiply" fill="url(#h)" d="M116.15 543.4H97.63v7.36h31.28l-12.76-7.36z"></path><path style="mix-blend-mode:multiply" fill="url(#ac)" d="M97.75 532.77H79.2v7.36h31.3l-12.75-7.36z"></path><path fill="#afd2f6" d="M125.49 463.39c-.25-.87-2.11-1.82-4.13-2 .37-.41.9-1.07.69-1.27s-2.69 1-3.54 1.83a5.76 5.76 0 0 1-2 1l-.35 3.74s2.8.21 4-.49 3.1-.24 4.17.28c.67.31 1.43-2.13 1.16-3.09Z" class="colorf6d3af svgShape"></path><path fill="#d62db7" d="M116.85 467s2.29-1.8-.17-4.34c-8-.75-15.56-8.54-17.16-17.24-.62-3.69-9-4.34-8.58 4S103 467.73 116.85 467Z" class="colord6952d svgShape"></path><path fill="url(#i)" d="M75 537.86c0-5.78 3.67-6 3.67-6a15.25 15.25 0 0 0 5.21-1.33c3.18-1.33 7.66-.82 5.16 3.81 0 .05 0 .11-.09.17a2.33 2.33 0 0 1-.81.71l-8 4.7c-1.27.75-5.14-.87-5.14-2.06Z"></path><path fill="#441244" d="M75 537.34c.07 1.19 3.9 2.77 5.11 2.08l8-4.69a8.92 8.92 0 0 0 1.13-.83c-.08.16-.14.31-.23.49s0 .11-.09.17a2.33 2.33 0 0 1-.81.71l-8 4.7c-1.14.65-4.62-.72-5.08-1.88a1.11 1.11 0 0 1 0-.23 4.51 4.51 0 0 1-.03-.52Z" class="color121244 svgShape"></path><path fill="#ffffff" d="M76.45 531.15a33.6 33.6 0 0 1 4.27.85 1.81 1.81 0 0 0 .3.86l.09.11c.65.45 1.32 1.18-.24 2.15a2.15 2.15 0 0 1-2.8-.2 2.5 2.5 0 0 0-.9-1 2.33 2.33 0 0 0-.87-.37.21.21 0 0 0 0-.08s-.24-2.32.15-2.32Z" class="colorffffff svgShape"></path><path fill="url(#ad)" d="M76.39 476.81c3.62.06 12.68-2 16.3-1.92-1.35 10.88-4.06 20.77-5.87 31.31-1.95 10.25-4.14 17.45-6 26-.7 1.59-3.91 1-4.55-.54-.51-7.86-1.09-17.42 1.23-26.48-.44-9.79-1.34-18.51-1.11-28.37Z"></path><path fill="url(#ae)" d="M93.22 548.49c0-5.78 3.67-6 3.67-6a15.15 15.15 0 0 0 5.21-1.34c3.18-1.32 7.66-.81 5.16 3.81l-.09.17a2.25 2.25 0 0 1-.81.72l-8 4.69c-1.23.76-5.11-.86-5.14-2.05Z"></path><path fill="#441244" d="M93.24 548c.07 1.19 3.9 2.77 5.11 2.08l8-4.7a7.82 7.82 0 0 0 1.13-.82c-.08.16-.14.31-.23.48l-.09.17a2.25 2.25 0 0 1-.81.72l-8 4.69c-1.14.66-4.62-.71-5.08-1.87a1.11 1.11 0 0 1 0-.23 3 3 0 0 1-.03-.52Z" class="color121244 svgShape"></path><path fill="#ffffff" d="M94.71 541.78a33.6 33.6 0 0 1 4.27.85 1.89 1.89 0 0 0 .29.86 1.09 1.09 0 0 1 .1.11c.65.45 1.32 1.17-.24 2.15a2.16 2.16 0 0 1-2.8-.2 2.51 2.51 0 0 0-.9-1 2.17 2.17 0 0 0-.87-.37s0-.08 0-.08-.24-2.32.15-2.32Z" class="colorffffff svgShape"></path><path fill="url(#af)" d="M87.88 500.48c-1-4.68-12.39-5.27-11.64-23.67 3.58-.53 21.64 8 25.23 7.43.44 11-.62 21.16-.68 31.86-.25 10.42-1.23 17.88-1.73 26.61-.43 1.68-3.69 1.61-4.58.21-1.78-7.66-3.92-17-3.1-26.33-1.07-5.16-2.38-10.59-3.5-16.11Z"></path><path fill="url(#k)" d="M80.86 485.26c5.84 3.57 16.78 7.09 20.92 2.71 1.75-9.88 3-17.94 7.6-26.58.88-5.24 1.22-6.27 1.22-9 .05-1.06-3.12-4.75-5.18-6.11-2.81-1.88-6.81-4.39-10.34-3.7-7.7 2.16-14 12.42-18.69 32-.68 5.42.96 8.53 4.47 10.68Z"></path><path fill="#afd2f6" d="M97.55 442.55c2.67-1 2.83-2.24 3.13-4.51a11.3 11.3 0 0 1 .4-4c1.39-4.85 5.68-8.15 9.39-6.81 7.47 2.71 5 6.33 3.58 11.18-1.28 4.49-4.21 7-7.76 6.54a2.45 2.45 0 0 0 .6 2.42c-2.92.77-6.72-1-8.17-2s-2.51-2.05-1.17-2.82Z" class="colorf6d3af svgShape"></path><path fill="#6b1c6b" d="M104.69 425.29c1.69-.9 2.89.77 3.78.59l.47-.09c1.19-.31.83-.89 1.92-1.18s1.76.73 2.42.71c1.55 0 2.88.14 3.3.83a4 4 0 0 1 .45 1.17c.25.93 2.21.38 1.61 2.08s-1.33 2-2.3 4.38c0 .14-.1.28-.16.42v.08a4.09 4.09 0 0 1-2.35 2.42c-1 .57-.78-.17-.73-.5.1-.61.08-1.19-.28-1.27s-1.13-.1-1.94 1.36c-.58 1.05.25 1 .09 1.31-2.34 4.29-4 3.46-6 3.45a6.21 6.21 0 0 1-4.46-1.77c0-1.89.14-3 .15-3.86a14.85 14.85 0 0 1 1.44-5c1.07-1.99.9-4.25 2.59-5.13Z" class="color1e1c6b svgShape"></path><path fill="#afd2f6" d="M128.23 476.6c.67.19 1.47-1.37 2.62-1.3s3.58.14 3.4.81-2.15.1-1.93.45c.64 1 2.7.5 3.29-.15s1.27-.58 1.07.15-1.25 4-4.07 4.23a16.49 16.49 0 0 1-5.86-.77Z" class="colorf6d3af svgShape"></path><path fill="url(#l)" d="M127.06 480.4s2.69-1.14 1-4.24c-7.5-2.81-17.89-13.69-17.17-22.5.38-3.72-7.54-6.54-9.33 1.65s11.9 22.19 25.5 25.09Z"></path><path style="mix-blend-mode:multiply" fill="url(#j)" d="M640.18 295.13h35.16v7.36h-35.16z"></path><path style="mix-blend-mode:multiply" fill="url(#ag)" d="M621.75 305.76h37.8v7.36h-37.8z"></path><path fill="#afd2f6" d="M593.89 225.76c.25-.87 2.11-1.82 4.12-2-.36-.41-.89-1.06-.68-1.27s2.69 1 3.54 1.83a5.76 5.76 0 0 0 2 1l.35 3.74s-2.8.21-4-.49-3.1-.23-4.17.28c-.7.31-1.43-2.13-1.16-3.09Z" class="colorf6d3af svgShape"></path><path fill="#d12fb4" d="M602.53 229.34s-2.17-1.46.29-4c8-.75 13.84-5.78 15.44-14.47.62-3.69 4.55-3.65 4.55 1.37 0 8.38-6.39 17.86-20.28 17.1Z" class="colord18f2f svgShape"></path><path fill="url(#ah)" d="M644.42 300.23c0-5.79-3.67-6-3.67-6a13 13 0 0 1-5.3-1c-4.12-1.54-7.57-1.13-5.07 3.5l.09.17a2.24 2.24 0 0 0 .81.71l8 4.7c1.23.69 5.11-.89 5.14-2.08Z"></path><path fill="#441244" d="M644.4 299.71c-.07 1.18-3.9 2.77-5.11 2.07l-8-4.69a7.29 7.29 0 0 1-1.13-.83c.08.16.14.32.23.49l.09.17a2.24 2.24 0 0 0 .81.71l8 4.7c1.14.65 4.62-.72 5.08-1.88a1 1 0 0 0 0-.23 4.34 4.34 0 0 0 .03-.51Z" class="color121244 svgShape"></path><path fill="#afd2f6" d="M642.93 293.51a16.8 16.8 0 0 0-2.51.43c-.78-.2-3.38-.3-5.08-.8-.51-.15-1-.47-1.52-.06-.67.83 1.08 2.85 4.68 4.4a2.16 2.16 0 0 0 2.81-.19 2.6 2.6 0 0 1 .9-1 2.3 2.3 0 0 1 .86-.36.29.29 0 0 1 0-.08s.25-2.34-.14-2.34Z" class="colorf6d3af svgShape"></path><path fill="url(#ai)" d="M641.12 255.5c1.61-4.94 3.06-10.61 1.87-16.33-3.62.06-12.68-2-16.3-1.92 1.35 10.88 4.39 20.45 6.2 31 1.94 10.25 4.25 17.77 6.17 26.3.7 1.59 4.1.87 4.1-.08a83.88 83.88 0 0 0-2.15-26c.16-4.13-.54-8.89.11-12.97Z"></path><path fill="url(#aj)" d="M626.16 310.85c0-5.78-3.66-6-3.66-6a15 15 0 0 1-5.42-1.13c-4.12-1.55-7.46-1-5 3.61l.09.17a2.33 2.33 0 0 0 .81.71l8 4.7c1.27.75 5.15-.91 5.18-2.06Z"></path><path fill="#441244" d="M626.14 310.33c-.07 1.19-3.89 2.77-5.11 2.08l-8-4.7a7.82 7.82 0 0 1-1.13-.82c.08.16.14.31.23.49l.09.17a2.33 2.33 0 0 0 .81.71l8 4.7c1.14.65 4.62-.72 5.08-1.88a1 1 0 0 0 0-.23 3 3 0 0 0 .03-.52Z" class="color121244 svgShape"></path><path fill="#afd2f6" d="M624.67 304.14a15.77 15.77 0 0 0-2.51.43c-.78-.21-3.38-.3-5.08-.8-.51-.15-1-.47-1.52-.06-.67.82 1.08 2.84 4.69 4.4a2.17 2.17 0 0 0 2.8-.19 2.54 2.54 0 0 1 .9-1 2.33 2.33 0 0 1 .87-.37s0-.08 0-.08.24-2.33-.15-2.33Z" class="colorf6d3af svgShape"></path><path fill="url(#ak)" d="M631.5 262.84c3.08-12.39 12.39-5.27 11.64-23.67-3.58-.53-18.73 7.54-22.32 7-2.1 13.34-1.66 21.58-1.59 32.28.24 10.43.92 17.56 1.42 26.28.43 1.68 4.25 1.55 4.25.54 1.78-7.66 3.2-17 2.38-26.33 1.07-5.15 3.05-10.62 4.22-16.1Z"></path><path fill="url(#al)" d="M638.94 258.25c-5.83 3.57-15 5.78-20.93 3.17-.61-3.45 4.73-26.19 1.22-32.18-.77-1.31-3-.41-3.9-1.66-2.06-2.73-5.42-11.41-5.42-12.57 0-2.48 2-5 4.05-6.41 2.81-1.88 6.81-4.39 10.34-3.7 7.7 2.16 18.09 19.2 20.84 45.09a13.87 13.87 0 0 1-6.2 8.26Z"></path><path fill="#afd2f6" d="M621.83 204.91c-2.67-1-2.83-2.24-3.13-4.51a11.08 11.08 0 0 0-.41-4c-1.38-4.84-5.67-8.15-9.38-6.81-7.47 2.71-5 6.33-3.58 11.18 1.28 4.49 4.21 7 7.76 6.55a2.43 2.43 0 0 1-.6 2.41c2.92.77 6.72-1 8.17-2s2.51-2.05 1.17-2.82Z" class="colorf6d3af svgShape"></path><path fill="#5c55c6" d="m597.39 242.39 7.54-8.86-3.91-10.95-7.53 8.86 3.9 10.95z" class="color5555c6 svgShape"></path><path fill="#867ff4" d="m597.39 242.39-11.44-2.1-3.91-10.95 11.45 2.1 3.9 10.95z" class="color7f7ff4 svgShape"></path><path fill="#f4f6f8" d="m593.49 231.44-11.45-2.1 7.54-8.86 11.44 2.1-7.53 8.86z" class="colorf7d25c svgShape"></path><path fill="#afd2f6" d="M592.44 238.18c-.67.19-1.48-1.36-2.62-1.3s-3.59.14-3.41.82 2.15.09 1.93.44c-.63 1-2.69.5-3.29-.15s-1.26-.58-1.06.15 1.24 4 4.06 4.23a16.6 16.6 0 0 0 5.86-.76Z" class="colorf6d3af svgShape"></path><path fill="url(#am)" d="M593 242.07s-2.68-1.14-1-4.24c7.5-2.8 17.44-12.35 17.9-23.18.69-4.32 5.23-3 5.23 2.34.03 8.38-8.52 22.19-22.13 25.08Z"></path><path fill="#6b1c6b" d="M603.55 198c-.56-2.88.56-8.22 5.72-9.11 5-.86 7.92 2.1 9 6.33.86 3.32 6.15 12 13.49 9.63-1.76 6.68-24.28 13.35-28.21-6.85Z" class="color1e1c6b svgShape"></path><path style="mix-blend-mode:multiply" fill="url(#an)" d="M203.96 313.55h-50.43l3.9 8.55h46.53v-8.55z"></path><path style="mix-blend-mode:multiply" fill="url(#ao)" d="M192.53 302.29h-46.98l.45 5.44h46.53v-5.44z"></path><path fill="url(#m)" d="M142.47 294.35c-1.57-1.07-4.05.75-4.67 2.77a7.21 7.21 0 0 0 .62 2.33s2.62 5.83 3.51 6.83 4.51 2.42 6.25.93c1.25-1.62-1.23-2.59-1.69-4.2-.59-2.08-.33-3.75-.91-5.33-.48-1.29-3.11-3.33-3.11-3.33Z"></path><path fill="#441244" d="M138 296.72a7.21 7.21 0 0 0 .62 2.33s2.62 5.84 3.51 6.83 4.51 2.42 6.25.93a1.64 1.64 0 0 0 .17-.26 1.63 1.63 0 0 1-.31.64c-1.74 1.49-5.36.06-6.25-.93s-3.51-6.83-3.51-6.83a7.21 7.21 0 0 1-.62-2.33 3.25 3.25 0 0 1 .14-.38Z" class="color121244 svgShape"></path><path fill="#ffffff" d="M146.77 295.67a32.71 32.71 0 0 0-3.93-1.67 1.79 1.79 0 0 1-.71.53l-.14.05a1.47 1.47 0 0 0-1.32 2.31c1.69 3.05 5.62 2.95 5.18 1.5-.29-.97.52-2.12.92-2.72Z" class="colorffffff svgShape"></path><path fill="url(#ap)" d="M145.93 299.18c.12-.48.26-1.52-1-1.7s-2.75.42-2.63 1.18c.27 1.58 3.51 1.01 3.63.52Z"></path><path fill="url(#aq)" d="M141.1 294.06c1.46-2 12.33-15.06 17.46-17.67-1.73-7.22-6.19-16.61-4.78-24.35h10.91s6.47 22.96 2.31 28.37c-3.14 4.14-17 14.71-22.18 18-1.75.05-4.37-2.82-3.72-4.35Z"></path><path fill="url(#n)" d="M150.35 313.08c-1.87.31-2.41 3.33-1.48 5.23a7.25 7.25 0 0 0 2 1.26s5.92 2.43 7.25 2.53 4.29-.39 4.53-2.66c-.23-1.39-1.39-1.77-2.83-2.62-1.86-1.11-3.46-2.72-5-3.46-1.15-.61-4.47-.28-4.47-.28Z"></path><path fill="#441244" d="M158.13 321.49c-1.37-.1-7.46-2.6-7.46-2.6a8 8 0 0 1-2-1.24 5.26 5.26 0 0 0 .25.66 7.25 7.25 0 0 0 2 1.26s5.92 2.43 7.25 2.53 4.29-.39 4.53-2.66v-.14c-.7 1.87-3.31 2.3-4.57 2.19Z" class="color121244 svgShape"></path><path fill="#ffffff" d="M154.38 311.08a33.46 33.46 0 0 0-4 1.49 1.71 1.71 0 0 1-.15.88.75.75 0 0 1-.07.12c-.56.55-1.15 1.51.57 2.05 3.33 1.05 6.17-1.19 4.86-1.94-.88-.51-1.09-1.89-1.21-2.6Z" class="colorffffff svgShape"></path><path fill="url(#ar)" d="M156.15 314.13c-.24-.33-.82-1.21-1.84-.49a2.45 2.45 0 0 0-1.18 2.43c.13.76 2.32.2 2.4.09s.62-2.03.62-2.03Z"></path><path fill="url(#as)" d="M155.12 251.68c0 10.24.11 21.7.11 30.64 0 10.23.78 22.92.67 31.49-1.64 2-5.82 1.53-6.7-.05-1.09-7.78-3.51-19.64-2.91-28.13-2.59-11.19-5.83-24.5-4.78-33.28 2.49.79 11.13-1.46 13.61-.67Z"></path><path fill="url(#at)" d="M157.92 210.38c8.36 2.66 10.36 10.82 10.74 16.45.25 3.7.64 17.23-4.59 14s-6.15-30.45-6.15-30.45Z"></path><path fill="url(#au)" d="M142 216.26c2.17-2.71 7.5-6.5 11-6.76 5.93-.43 10.63 4.47 11.84 8.56 1.14 3.86.51 33 1.79 38.21-.63 2.73-5.72 4.26-7.63 4.73-8.37 1.83-17.92 1.51-18.57-3.8-1.25-9.96-1.54-37.82 1.57-40.94Z"></path><path fill="#f4f6f8" d="M192 249.85c0-9.34-6.56-20.7-14.65-25.37s-14.65-.89-14.65 8.46 6.56 20.7 14.65 25.37 14.65.88 14.65-8.46Z" class="colorf7d25c svgShape"></path><path fill="#69b4ff" d="M157.4 231.32c0 11.92 8.37 26.42 18.7 32.38s18.69 1.13 18.69-10.79-8.37-26.43-18.69-32.39-18.7-1.12-18.7 10.8Zm4 2.34c0-9.35 6.55-13.13 14.65-8.46s14.64 16 14.64 25.37-6.51 13.13-14.59 8.43-14.65-16-14.65-25.34Z" class="colorffe669 svgShape"></path><path fill="url(#o)" d="M166.38 223.85c-2.29 1.66-3.69 4.78-3.69 9.09 0 9.34 6.56 20.7 14.65 25.37 3.73 2.15 7.13 2.5 9.71 1.35-2.68 1.94-6.59 1.89-11-.63-8.1-4.67-14.65-16-14.65-25.37.05-5.04 1.96-8.46 4.98-9.81Z"></path><path fill="url(#av)" d="M169.1 215.63c3.41-2.15 8.2-1.94 13.52 1.13 10.32 6 18.69 20.46 18.69 32.38 0 6.05-2.15 10.27-5.62 12.19l-6 3.42c3.14-2.05 5.06-6.13 5.06-11.84 0-11.92-8.37-26.43-18.69-32.39-5.06-2.91-9.64-3.24-13-1.42l6-3.47Z"></path><path fill="#d62db7" d="M174.84 230.9v-.9a2.69 2.69 0 0 0-1.41.46l-1.21.68a3 3 0 0 1 2.62-.24Z" class="colord6952d svgShape"></path><path fill="url(#aw)" d="M177.35 240a5.69 5.69 0 0 1-2-2.07 5.6 5.6 0 0 1-.82-2.74 2.49 2.49 0 0 1 .3-1.24c-.91 0-1.55.71-1.55 2a6.17 6.17 0 0 0 2.78 4.8 11.71 11.71 0 0 1 5.29 9.16c0 1.79-.67 3-1.73 3.51l1.36-.78a3.63 3.63 0 0 0 1.62-3.43 11.71 11.71 0 0 0-5.25-9.21Z"></path><path fill="#d62db7" d="m177.35 255.64 1.26-.72v-1.26a3.75 3.75 0 0 1-1.26-.14Z" class="colord6952d svgShape"></path><path fill="#429af2" d="m176.09 227.89-1.25.72 2.51 1.45 1.25-.72-2.51-1.45z" class="colorf2bd42 svgShape"></path><path fill="#d62db7" d="m178.6 229.34-1.25.72v2.29l1.25-.72v-2.29z" class="colord6952d svgShape"></path><path fill="url(#ax)" d="m178.6 231.63-1.25.72a11.87 11.87 0 0 1 4 8.26l1.25-.72a11.87 11.87 0 0 0-4-8.26Z"></path><path fill="#429af2" d="m172.06 243.09-1.25.72 2.51 1.46 1.25-.73-2.51-1.45z" class="colorf2bd42 svgShape"></path><path fill="url(#ay)" d="M177.35 249.35a6.14 6.14 0 0 1-2.78-4.81l-1.25.73a6.14 6.14 0 0 0 2.78 4.8c1.09.63 2 .44 2.47-.36a2.38 2.38 0 0 1-1.22-.36Z"></path><path fill="#69b4ff" d="M176.1 240.76a6.17 6.17 0 0 1-2.78-4.8c0-1.77 1.25-2.49 2.78-1.61a6.15 6.15 0 0 1 2.77 4.81l2.52 1.45a11.87 11.87 0 0 0-4-8.26v-2.29l-2.51-1.45v2.29c-2.31-.68-4 .73-4 3.6a11.7 11.7 0 0 0 5.29 9.17 6.12 6.12 0 0 1 2.77 4.8c0 1.77-1.24 2.49-2.77 1.6a6.14 6.14 0 0 1-2.78-4.8l-2.51-1.46a11.89 11.89 0 0 0 4 8.26v2.12l2.51 1.45v-2.12c2.32.68 4-.73 4-3.6a11.71 11.71 0 0 0-5.29-9.16Z" class="colorffe669 svgShape"></path><path fill="#37318f" d="M161.3 244.24c.3.3 1.59 3.89-1.12 5-1.39-.76-1.86-4.41 1.12-5Z" class="color34318f svgShape"></path><path fill="#afd2f6" d="m159.62 244.21 1.72.63a6.05 6.05 0 0 0 4.8-1.57c1.37-1.37 1.65 1.35.05 2.12s-1.62 1.45 1 1.92a6.44 6.44 0 0 1 2.89 1.31c.92.93 1.95 3 .48 4-1.19.81-4.74-.79-5.82-1.22-3-1.21-2.37-1.8-4-2.59a5.7 5.7 0 0 0-2-.75Z" class="colorf6d3af svgShape"></path><path fill="url(#az)" d="M145.87 215c-1.87-.38-4.27-.06-5.9 5.48-1.38 4.67-.27 14.28.56 16.94 2.12 6.84 10.52 9.17 19.65 11.8-1.17-1.33-.39-4.28 1.12-5-6.18-2.7-12-6.6-14-8.67 0-2.34 1.14-11.21 1.28-14.23.14-3.75-.87-5.95-2.71-6.32Z"></path><path fill="#afd2f6" d="M152.25 201.63c-.22-1.92 6.42 2 6.15 4.53-.21 2.07-.82 3.88 1.27 5.17.72.58 3.18 4.59-.6 4.63-5.42.07-6.87-1.42-10.78-4.77 2.33-1.32 4.71-3.33 3.96-9.56Z" class="colorf6d3af svgShape"></path><path fill="#afd2f6" d="m150.68 200.5 2.7-3.8h11.74v7.07c0 3.9-2.63 7.07-5.87 7.07a6.42 6.42 0 0 1-6.22-6.35l-1.43-.49Z" class="colorf6d3af svgShape"></path><path fill="#a3c7eb" d="M159 212.73c-2.81 0-6.28-4.51-5.95-8.24a6.77 6.77 0 0 0 6 6.34 4.19 4.19 0 0 0 .65.5c.06 0 .12.12.2.2-.03.57-.41 1.2-.9 1.2Z" class="colorebc5a3 svgShape"></path><path fill="#6b1c6b" d="M164.44 193.51c1.07-.19 1.17-1.08-3.19-2.59-2.52-1.24-6.11-1.62-8.43-.18-3.14 1.94-4.09 4.8-3.53 8.39a20.11 20.11 0 0 0 2.86 7c.35.35.4-1.3.12-2.53a2.37 2.37 0 0 1-.41-1.05c-.83-3.65 1.4-3.1 1.71-2.8.68.29-.65 3.31 1.37 3 1-.15.84-2.87.84-3.83a4 4 0 0 1 .44.11c1.66.93 7.33 1.6 4.18-.37 2.19 0 5.18 1 6.19-.37 1.19-1.64-.72-3.44-2.15-4.78Z" class="color1e1c6b svgShape"></path><path fill="#f2f4f7" d="m686.5 95.4-75.37 43.51v35.99l7.79-4.5v7.71l6.68-11.57 60.9-35.16V95.4z" class="colorf2f2f7 svgShape"></path><path fill="#f4f6f8" d="M615.5 150.06a12.31 12.31 0 0 1 5.57-9.63c3.07-1.78 5.57-.34 5.57 3.21a12.32 12.32 0 0 1-5.57 9.64c-3.07 1.77-5.57.33-5.57-3.22Z" class="colorf7d25c svgShape"></path><path fill="#d62db7" d="M618.21 148.5a6.35 6.35 0 0 1 2.86-5c1.58-.91 2.86-.17 2.86 1.66a6.35 6.35 0 0 1-2.86 5c-1.58.91-2.86.17-2.86-1.66Z" class="colord6952d svgShape"></path><path fill="#867ff4" d="m650.88 124.86-15.66 9.05v-1.93l15.66-9.04v1.92zM679.03 114.86l-43.81 25.29v-1.93l43.81-25.29v1.93zM661.7 131.11l-22.98 13.26v-1.93l22.98-13.26v1.93zM609.47 137.95l75.36-43.52 1.67.97-75.37 43.51-1.66-.96z" class="color7f7ff4 svgShape"></path><path fill="#5c55c6" d="M609.46 173.93v-35.98l1.67.96v35.99l-1.67-.97zM617.25 177.15v-5.79l1.67-.96v7.71l-1.67-.96z" class="color5555c6 svgShape"></path></g></g></g></svg>