<svg xmlns="http://www.w3.org/2000/svg" xmlns:xlink="http://www.w3.org/1999/xlink" viewBox="0 0 800 700" id="Increaseincompanyfinance"><defs><linearGradient id="r" x1="455.93" x2="585.28" y1="573.13" y2="573.13" gradientUnits="userSpaceOnUse"><stop offset="0" stop-color="#dae7f5" class="stopColordae0f5 svgShape"></stop><stop offset=".33" stop-color="#deeaf6" class="stopColordee3f6 svgShape"></stop><stop offset=".66" stop-color="#eaf1f9" class="stopColoreaeef9 svgShape"></stop><stop offset="1" stop-color="#ffffff" class="stopColorffffff svgShape"></stop><stop offset="1" stop-color="#ffffff" class="stopColorffffff svgShape"></stop></linearGradient><linearGradient id="s" x1="568.47" x2="574.32" y1="532.67" y2="542.37" gradientUnits="userSpaceOnUse"><stop offset="0" stop-color="#6f67e9" class="stopColor6b67e9 svgShape"></stop><stop offset="1" stop-color="#342e93" class="stopColor362e93 svgShape"></stop></linearGradient><linearGradient id="t" x1="462.45" x2="456.96" y1="605.87" y2="596.23" gradientUnits="userSpaceOnUse"><stop offset="0" stop-color="#bbd0e6" class="stopColorbbc0e6 svgShape"></stop><stop offset="1" stop-color="#f6f8fb" class="stopColorf6f6fb svgShape"></stop></linearGradient><linearGradient id="u" x1="453.24" x2="450.93" y1="607.51" y2="604.52" gradientUnits="userSpaceOnUse"><stop offset="0" stop-color="#342e93" class="stopColor362e93 svgShape"></stop><stop offset="1" stop-color="#847cfb" class="stopColor807cfb svgShape"></stop></linearGradient><linearGradient id="v" x1="565.51" x2="559.09" y1="547.33" y2="536.54" gradientUnits="userSpaceOnUse"><stop offset=".07" stop-color="#a3b9d0" class="stopColora3a9d0 svgShape"></stop><stop offset=".14" stop-color="#cee3f8" class="stopColorced3f8 svgShape"></stop><stop offset=".56" stop-color="#cee3f8" class="stopColorced3f8 svgShape"></stop><stop offset=".69" stop-color="#f6f8fb" class="stopColorf6f6fb svgShape"></stop></linearGradient><linearGradient id="a" x1="562.06" x2="554.08" y1="549.78" y2="539.65" gradientUnits="userSpaceOnUse"><stop offset=".56" stop-color="#d1e2f3" class="stopColord1d7f3 svgShape"></stop><stop offset=".69" stop-color="#f1f3f6" class="stopColorf1f1f6 svgShape"></stop></linearGradient><linearGradient id="w" x1="563.62" x2="555.64" y1="548.88" y2="538.75" xlink:href="#a"></linearGradient><linearGradient id="x" x1="565.18" x2="557.2" y1="547.98" y2="537.84" xlink:href="#a"></linearGradient><linearGradient id="y" x1="382.49" x2="492.13" y1="546.32" y2="546.32" gradientTransform="translate(-1.5)" gradientUnits="userSpaceOnUse"><stop offset="0" stop-color="#d1e2f3" class="stopColord1d7f3 svgShape"></stop><stop offset=".28" stop-color="#d7e6f5" class="stopColord7ddf5 svgShape"></stop><stop offset=".66" stop-color="#e9f1f9" class="stopColore9ecf9 svgShape"></stop><stop offset="1" stop-color="#ffffff" class="stopColorffffff svgShape"></stop></linearGradient><linearGradient id="z" x1="696.66" x2="869.69" y1="567.79" y2="567.79" gradientTransform="matrix(-1 0 0 1 1173.5 0)" gradientUnits="userSpaceOnUse"><stop offset=".52" stop-color="#453eaf" class="stopColor423eaf svgShape"></stop><stop offset=".59" stop-color="#5a52cc" class="stopColor5652cc svgShape"></stop></linearGradient><linearGradient id="b" x1="507.09" x2="531.61" y1="568.05" y2="568.05" gradientTransform="translate(-116.04)" gradientUnits="userSpaceOnUse"><stop offset="0" stop-color="#c4d6e9" class="stopColorc4cae9 svgShape"></stop><stop offset=".25" stop-color="#cddcec" class="stopColorcdd2ec svgShape"></stop><stop offset=".66" stop-color="#e6eef6" class="stopColore6e8f6 svgShape"></stop><stop offset="1" stop-color="#ffffff" class="stopColorffffff svgShape"></stop></linearGradient><linearGradient id="c" x1="503.32" x2="527.84" y1="570.42" y2="570.42" gradientTransform="translate(-116.04)" gradientUnits="userSpaceOnUse"><stop offset=".41" stop-color="#cee3f8" class="stopColorced3f8 svgShape"></stop><stop offset=".57" stop-color="#bbd0e6" class="stopColorbbc0e6 svgShape"></stop></linearGradient><linearGradient id="A" x1="488.9" x2="513.41" y1="578.55" y2="578.55" xlink:href="#b"></linearGradient><linearGradient id="B" x1="485.13" x2="509.65" y1="580.92" y2="580.92" xlink:href="#c"></linearGradient><linearGradient id="C" x1="470.17" x2="494.69" y1="567.74" y2="567.74" xlink:href="#b"></linearGradient><linearGradient id="D" x1="466.4" x2="490.92" y1="570.11" y2="570.11" xlink:href="#c"></linearGradient><linearGradient id="E" x1="488.36" x2="512.88" y1="557.24" y2="557.24" xlink:href="#b"></linearGradient><linearGradient id="F" x1="484.59" x2="509.11" y1="559.6" y2="559.6" xlink:href="#c"></linearGradient><linearGradient id="G" x1="506.56" x2="531.07" y1="546.74" y2="546.74" xlink:href="#b"></linearGradient><linearGradient id="H" x1="502.79" x2="527.3" y1="549.1" y2="549.1" xlink:href="#c"></linearGradient><linearGradient id="I" x1="451.44" x2="475.96" y1="556.93" y2="556.93" xlink:href="#b"></linearGradient><linearGradient id="J" x1="447.67" x2="472.19" y1="559.3" y2="559.3" xlink:href="#c"></linearGradient><linearGradient id="K" x1="469.64" x2="494.15" y1="546.43" y2="546.43" xlink:href="#b"></linearGradient><linearGradient id="L" x1="465.87" x2="490.38" y1="548.79" y2="548.79" xlink:href="#c"></linearGradient><linearGradient id="M" x1="487.83" x2="512.34" y1="535.92" y2="535.92" xlink:href="#b"></linearGradient><linearGradient id="N" x1="484.06" x2="508.57" y1="538.29" y2="538.29" xlink:href="#c"></linearGradient><linearGradient id="O" x1="432.72" x2="457.23" y1="546.12" y2="546.12" xlink:href="#b"></linearGradient><linearGradient id="P" x1="428.95" x2="453.46" y1="548.48" y2="548.48" xlink:href="#c"></linearGradient><linearGradient id="Q" x1="450.91" x2="475.42" y1="535.61" y2="535.61" xlink:href="#b"></linearGradient><linearGradient id="R" x1="447.14" x2="471.66" y1="537.98" y2="537.98" xlink:href="#c"></linearGradient><linearGradient id="S" x1="469.1" x2="493.62" y1="525.11" y2="525.11" xlink:href="#b"></linearGradient><linearGradient id="T" x1="465.33" x2="489.85" y1="527.48" y2="527.48" xlink:href="#c"></linearGradient><linearGradient id="U" x1="557.37" x2="581.89" y1="557.55" y2="557.55" gradientTransform="translate(-148.13)" xlink:href="#b"></linearGradient><linearGradient id="V" x1="553.6" x2="578.12" y1="559.91" y2="559.91" gradientTransform="translate(-148.13)" gradientUnits="userSpaceOnUse"><stop offset=".41" stop-color="#fc06cf" class="stopColorfcba06 svgShape"></stop><stop offset=".57" stop-color="#dc00b4" class="stopColordc8b00 svgShape"></stop></linearGradient><linearGradient id="W" x1="331.56" x2="346.51" y1="549.97" y2="549.97" gradientTransform="translate(100.79)" xlink:href="#b"></linearGradient><linearGradient id="d" x1="730.36" x2="750.11" y1="549.57" y2="549.57" gradientTransform="matrix(-1 0 0 1 1173.5 0)" gradientUnits="userSpaceOnUse"><stop offset=".41" stop-color="#bbd0e6" class="stopColorbbc0e6 svgShape"></stop><stop offset=".57" stop-color="#cee3f8" class="stopColorced3f8 svgShape"></stop></linearGradient><linearGradient id="X" x1="312.62" x2="327.57" y1="539.15" y2="539.15" gradientTransform="translate(100.79)" xlink:href="#b"></linearGradient><linearGradient id="Y" x1="749.09" x2="768.84" y1="538.76" y2="538.76" xlink:href="#d"></linearGradient><linearGradient id="Z" x1="293.89" x2="308.84" y1="528.34" y2="528.34" gradientTransform="translate(100.79)" xlink:href="#b"></linearGradient><linearGradient id="aa" x1="767.82" x2="787.57" y1="527.95" y2="527.95" xlink:href="#d"></linearGradient><linearGradient id="ab" x1="275.16" x2="290.11" y1="517.53" y2="517.53" gradientTransform="translate(100.79)" xlink:href="#b"></linearGradient><linearGradient id="ac" x1="786.54" x2="806.3" y1="517.13" y2="517.13" gradientTransform="matrix(-1 0 0 1 1173.5 0)" gradientUnits="userSpaceOnUse"><stop offset=".41" stop-color="#bbd0e6" class="stopColorbbc0e6 svgShape"></stop><stop offset=".57" stop-color="#cee3f8" class="stopColorced3f8 svgShape"></stop></linearGradient><linearGradient id="ad" x1="402.65" x2="753.07" y1="396.17" y2="396.17" gradientUnits="userSpaceOnUse"><stop offset="0" stop-color="#d1e2f3" class="stopColord1d7f3 svgShape"></stop><stop offset="1" stop-color="#ffffff" class="stopColorffffff svgShape"></stop></linearGradient><linearGradient id="ae" x1="1168.6" x2="1204.39" y1="310.96" y2="310.96" gradientTransform="translate(-666.32)" gradientUnits="userSpaceOnUse"><stop offset="0" stop-color="#d1e0f0" class="stopColord1d6f0 svgShape"></stop><stop offset=".98" stop-color="#ffffff" class="stopColorffffff svgShape"></stop></linearGradient><linearGradient id="af" x1="1412.72" x2="1377.03" y1="340.71" y2="305.01" gradientTransform="matrix(-1 0 0 1 1986.61 0)" gradientUnits="userSpaceOnUse"><stop offset="0" stop-color="#6f196f" class="stopColor20196f svgShape"></stop><stop offset="1" stop-color="#342e94" class="stopColor362e94 svgShape"></stop></linearGradient><linearGradient id="ag" x1="355.87" x2="391.9" y1="461.99" y2="461.99" gradientUnits="userSpaceOnUse"><stop offset=".45" stop-color="#c4d4e4" class="stopColorc4c9e4 svgShape"></stop><stop offset="1" stop-color="#ffffff" class="stopColorffffff svgShape"></stop></linearGradient><linearGradient id="e" x1="347.61" x2="382.9" y1="464.8" y2="464.8" gradientUnits="userSpaceOnUse"><stop offset="0" stop-color="#fc06cf" class="stopColorfcba06 svgShape"></stop><stop offset="1" stop-color="#dc00b4" class="stopColordc8b00 svgShape"></stop></linearGradient><linearGradient id="ah" x1="359.81" x2="367.56" y1="460.78" y2="460.78" xlink:href="#e"></linearGradient><linearGradient id="ai" x1="373.35" x2="383.19" y1="454.77" y2="459.54" gradientUnits="userSpaceOnUse"><stop offset="0" stop-color="#c4d4e4" class="stopColorc4c9e4 svgShape"></stop><stop offset="1" stop-color="#ffffff" class="stopColorffffff svgShape"></stop></linearGradient><linearGradient id="aj" x1="345.91" x2="381.2" y1="456.14" y2="456.14" xlink:href="#e"></linearGradient><linearGradient id="ak" x1="358.11" x2="365.85" y1="452.12" y2="452.12" xlink:href="#e"></linearGradient><linearGradient id="al" x1="353.87" x2="389.16" y1="446.72" y2="446.72" xlink:href="#e"></linearGradient><linearGradient id="am" x1="366.07" x2="373.82" y1="442.69" y2="442.69" xlink:href="#e"></linearGradient><linearGradient id="f" x1="1499.09" x2="1529.64" y1="492.39" y2="492.39" gradientTransform="matrix(-1 0 0 1 1836.3 0)" gradientUnits="userSpaceOnUse"><stop offset=".01" stop-color="#ffffff" class="stopColorffffff svgShape"></stop><stop offset=".25" stop-color="#fafbfd" class="stopColorfafbfd svgShape"></stop><stop offset=".53" stop-color="#ecf2f8" class="stopColoreceef8 svgShape"></stop><stop offset=".83" stop-color="#d4e1ef" class="stopColord4d8ef svgShape"></stop><stop offset="1" stop-color="#c4d6e9" class="stopColorc4cae9 svgShape"></stop></linearGradient><linearGradient id="an" x1="1509.46" x2="1542.31" y1="501.62" y2="501.62" gradientTransform="matrix(-1 0 0 1 1864.99 0)" xlink:href="#f"></linearGradient><linearGradient id="g" x1="48.58" x2="61.52" y1="491.22" y2="491.22" gradientTransform="matrix(-1 0 0 1 364.5 0)" gradientUnits="userSpaceOnUse"><stop offset="0" stop-color="#6f196f" class="stopColor20196f svgShape"></stop><stop offset=".11" stop-color="#241e77" class="stopColor241e77 svgShape"></stop><stop offset=".7" stop-color="#3c35a0" class="stopColor3a35a0 svgShape"></stop><stop offset="1" stop-color="#453eaf" class="stopColor423eaf svgShape"></stop></linearGradient><linearGradient id="ao" x1="1179.2" x2="1193.74" y1="464.19" y2="464.19" gradientTransform="translate(-875.35)" gradientUnits="userSpaceOnUse"><stop offset="0" stop-color="#6f196f" class="stopColor20196f svgShape"></stop><stop offset=".61" stop-color="#2e2889" class="stopColor2f2889 svgShape"></stop><stop offset="1" stop-color="#342e94" class="stopColor362e94 svgShape"></stop></linearGradient><linearGradient id="ap" x1="32.7" x2="45.65" y1="500.42" y2="500.42" xlink:href="#g"></linearGradient><linearGradient id="aq" x1="39.55" x2="60.44" y1="469.59" y2="469.59" gradientTransform="matrix(-1 0 0 1 364.5 0)" gradientUnits="userSpaceOnUse"><stop offset="0" stop-color="#453eaf" class="stopColor423eaf svgShape"></stop><stop offset=".25" stop-color="#3f38a4" class="stopColor3c38a4 svgShape"></stop><stop offset=".7" stop-color="#2d2787" class="stopColor2d2787 svgShape"></stop><stop offset="1" stop-color="#6f196f" class="stopColor20196f svgShape"></stop></linearGradient><linearGradient id="ar" x1="97.88" x2="124.71" y1="208.98" y2="208.98" gradientTransform="matrix(-.96 -.28 -.28 .96 483.45 265.18)" gradientUnits="userSpaceOnUse"><stop offset="0" stop-color="#5a52cc" class="stopColor5652cc svgShape"></stop><stop offset=".37" stop-color="#7169e5" class="stopColor6c69e5 svgShape"></stop><stop offset=".73" stop-color="#8078f5" class="stopColor7b78f5 svgShape"></stop><stop offset="1" stop-color="#857dfb" class="stopColor807dfb svgShape"></stop></linearGradient><linearGradient id="as" x1="669.44" x2="700.5" y1="-263.54" y2="-263.54" gradientTransform="rotate(61.18 -75.955 -210.115)" gradientUnits="userSpaceOnUse"><stop offset="0" stop-color="#857dfb" class="stopColor807dfb svgShape"></stop><stop offset=".37" stop-color="#6e66e2" class="stopColor6a66e2 svgShape"></stop><stop offset=".73" stop-color="#5046e4" class="stopColor5b57d2 svgShape"></stop><stop offset="1" stop-color="#5a52cc" class="stopColor5652cc svgShape"></stop></linearGradient><linearGradient id="at" x1="477.88" x2="599.78" y1="494.08" y2="494.08" gradientTransform="translate(32.4)" gradientUnits="userSpaceOnUse"><stop offset="0" stop-color="#d1e2f3" class="stopColord1d7f3 svgShape"></stop><stop offset=".31" stop-color="#dbe8f6" class="stopColordbdff6 svgShape"></stop><stop offset=".82" stop-color="#f4f8fc" class="stopColorf4f6fc svgShape"></stop><stop offset="1" stop-color="#ffffff" class="stopColorffffff svgShape"></stop></linearGradient><linearGradient id="au" x1="647.08" x2="762.08" y1="447.08" y2="447.08" gradientUnits="userSpaceOnUse"><stop offset=".42" stop-color="#c6d6e7" class="stopColorc6cbe7 svgShape"></stop><stop offset=".59" stop-color="#d2dfec" class="stopColord2d6ec svgShape"></stop><stop offset=".9" stop-color="#f4f6f8" class="stopColorf3f4fa svgShape"></stop><stop offset="1" stop-color="#ffffff" class="stopColorffffff svgShape"></stop></linearGradient><linearGradient id="av" x1="636.64" x2="746.56" y1="459.24" y2="459.24" gradientUnits="userSpaceOnUse"><stop offset="0" stop-color="#cee3f8" class="stopColorced3f8 svgShape"></stop><stop offset="1" stop-color="#bbd0e6" class="stopColorbbc0e6 svgShape"></stop></linearGradient><linearGradient id="aw" x1="691.61" x2="744.4" y1="431.1" y2="431.1" gradientUnits="userSpaceOnUse"><stop offset="0" stop-color="#c4d6e9" class="stopColorc4cae9 svgShape"></stop><stop offset=".56" stop-color="#d4e3f2" class="stopColord4daf2 svgShape"></stop><stop offset="1" stop-color="#dae7f5" class="stopColordae0f5 svgShape"></stop></linearGradient><linearGradient id="ax" x1="691.61" x2="738.07" y1="416.02" y2="416.02" gradientUnits="userSpaceOnUse"><stop offset="0" stop-color="#c4d6e9" class="stopColorc4cae9 svgShape"></stop><stop offset=".36" stop-color="#dbe6f1" class="stopColordbdef1 svgShape"></stop><stop offset="1" stop-color="#ffffff" class="stopColorffffff svgShape"></stop></linearGradient><linearGradient id="i" x1="747.59" x2="775.3" y1="593.53" y2="593.53" gradientTransform="translate(-100.64)" gradientUnits="userSpaceOnUse"><stop offset="0" stop-color="#c4d6e9" class="stopColorc4cae9 svgShape"></stop><stop offset=".09" stop-color="#cedded" class="stopColorced3ed svgShape"></stop><stop offset=".41" stop-color="#e9f0f7" class="stopColore9ebf7 svgShape"></stop><stop offset=".69" stop-color="#f9fbfd" class="stopColorf9fafd svgShape"></stop><stop offset=".9" stop-color="#ffffff" class="stopColorffffff svgShape"></stop></linearGradient><linearGradient id="ay" x1="1027.03" x2="1035.69" y1="711.58" y2="706.95" gradientTransform="matrix(-.96 -.29 -.29 .96 1839.35 213.67)" gradientUnits="userSpaceOnUse"><stop offset="0" stop-color="#342e94" class="stopColor362e94 svgShape"></stop><stop offset="1" stop-color="#6f67e9" class="stopColor6b67e9 svgShape"></stop></linearGradient><linearGradient id="j" x1="562.05" x2="577.67" y1="537.71" y2="589.55" gradientTransform="matrix(-1 0 0 1 1221.13 0)" gradientUnits="userSpaceOnUse"><stop offset="0" stop-color="#6f196f" class="stopColor20196f svgShape"></stop><stop offset=".22" stop-color="#751c75" class="stopColor231c75 svgShape"></stop><stop offset=".52" stop-color="#2c2685" class="stopColor2c2685 svgShape"></stop><stop offset=".85" stop-color="#3c35a0" class="stopColor3a35a0 svgShape"></stop><stop offset="1" stop-color="#453eaf" class="stopColor423eaf svgShape"></stop></linearGradient><linearGradient id="az" x1="290.15" x2="296.08" y1="575.37" y2="575.37" gradientTransform="translate(394.89)" gradientUnits="userSpaceOnUse"><stop offset="0" stop-color="#6f67e9" class="stopColor6b67e9 svgShape"></stop><stop offset="1" stop-color="#342e94" class="stopColor362e94 svgShape"></stop></linearGradient><linearGradient id="l" x1="262.51" x2="293.62" y1="553.06" y2="553.06" gradientTransform="translate(394.89)" gradientUnits="userSpaceOnUse"><stop offset="0" stop-color="#342e94" class="stopColor362e94 svgShape"></stop><stop offset=".39" stop-color="#39329a" class="stopColor39329a svgShape"></stop><stop offset=".9" stop-color="#433cab" class="stopColor403cab svgShape"></stop><stop offset="1" stop-color="#453eaf" class="stopColor423eaf svgShape"></stop></linearGradient><linearGradient id="h" x1="644.89" x2="656.28" y1="505.77" y2="505.77" gradientUnits="userSpaceOnUse"><stop offset=".25" stop-color="#f6f8fb" class="stopColorf6f6fb svgShape"></stop><stop offset=".68" stop-color="#e1edf9" class="stopColore1e4f9 svgShape"></stop><stop offset="1" stop-color="#cee3f8" class="stopColorced3f8 svgShape"></stop></linearGradient><linearGradient id="aA" x1="649.85" x2="673.71" y1="519.96" y2="519.96" xlink:href="#h"></linearGradient><linearGradient id="aB" x1="665.29" x2="675.04" y1="510.76" y2="510.76" xlink:href="#h"></linearGradient><linearGradient id="aC" x1="605.35" x2="647.05" y1="590.11" y2="590.11" xlink:href="#i"></linearGradient><linearGradient id="k" x1="1114.67" x2="1127.45" y1="585.68" y2="585.68" gradientTransform="matrix(-1 0 0 1 1728.99 0)" gradientUnits="userSpaceOnUse"><stop offset="0" stop-color="#e100b8" class="stopColore19100 svgShape"></stop><stop offset=".1" stop-color="#e407bc" class="stopColore49807 svgShape"></stop><stop offset=".69" stop-color="#2f93f8" class="stopColorf8c12f svgShape"></stop><stop offset="1" stop-color="#3e9eff" class="stopColorffd03e svgShape"></stop></linearGradient><linearGradient id="aD" x1="609.12" x2="610.7" y1="534.53" y2="587.39" xlink:href="#j"></linearGradient><linearGradient id="aE" x1="1104.6" x2="1117.37" y1="591.5" y2="591.5" xlink:href="#k"></linearGradient><linearGradient id="aF" x1="615.92" x2="617.49" y1="534.33" y2="587.12" xlink:href="#l"></linearGradient><linearGradient id="aG" x1="602.09" x2="658.73" y1="509.6" y2="509.6" gradientUnits="userSpaceOnUse"><stop offset="0" stop-color="#3e9eff" class="stopColorffd03e svgShape"></stop><stop offset=".05" stop-color="#3a9bfd" class="stopColorfdcc3a svgShape"></stop><stop offset=".68" stop-color="#e910c2" class="stopColore9a110 svgShape"></stop><stop offset="1" stop-color="#e100b8" class="stopColore19100 svgShape"></stop></linearGradient><linearGradient id="aH" x1="620.64" x2="620.64" y1="538.48" y2="492.32" gradientUnits="userSpaceOnUse"><stop offset="0" stop-color="#ffffff" class="stopColorffffff svgShape"></stop><stop offset=".57" stop-color="#e2ecf7" class="stopColore2e6f7 svgShape"></stop><stop offset="1" stop-color="#d1e2f3" class="stopColord1d7f3 svgShape"></stop></linearGradient><linearGradient id="o" x1="415.29" x2="464.57" y1="402.33" y2="402.33" gradientUnits="userSpaceOnUse"><stop offset=".03" stop-color="#c4d4e4" class="stopColorc4c9e4 svgShape"></stop><stop offset="1" stop-color="#ffffff" class="stopColorffffff svgShape"></stop></linearGradient><linearGradient id="aJ" x1="407.06" x2="442.24" y1="380.06" y2="380.06" xlink:href="#e"></linearGradient><linearGradient id="m" x1="407.06" x2="442.24" y1="385.08" y2="385.08" gradientUnits="userSpaceOnUse"><stop offset="0" stop-color="#3e9eff" class="stopColorffd03e svgShape"></stop><stop offset="1" stop-color="#e100b8" class="stopColore19100 svgShape"></stop></linearGradient><linearGradient id="aK" x1="407.06" x2="442.24" y1="390.09" y2="390.09" xlink:href="#e"></linearGradient><linearGradient id="aL" x1="407.06" x2="442.24" y1="395.11" y2="395.11" xlink:href="#m"></linearGradient><linearGradient id="aM" x1="407.06" x2="442.24" y1="400.12" y2="400.12" xlink:href="#e"></linearGradient><linearGradient id="aN" x1="407.06" x2="442.24" y1="405.14" y2="405.14" xlink:href="#m"></linearGradient><linearGradient id="n" x1="410.36" x2="438.94" y1="368.6" y2="368.6" gradientUnits="userSpaceOnUse"><stop offset="0" stop-color="#fc06cf" class="stopColorfcba06 svgShape"></stop><stop offset="1" stop-color="#e100b8" class="stopColore19100 svgShape"></stop></linearGradient><linearGradient id="aO" x1="419.22" x2="426.94" y1="376.05" y2="376.05" xlink:href="#n"></linearGradient><linearGradient id="aP" x1="448.44" x2="497.73" y1="414.17" y2="414.17" xlink:href="#o"></linearGradient><linearGradient id="aQ" x1="440.21" x2="475.4" y1="401.94" y2="401.94" xlink:href="#e"></linearGradient><linearGradient id="aR" x1="440.21" x2="475.4" y1="406.96" y2="406.96" xlink:href="#m"></linearGradient><linearGradient id="aS" x1="440.21" x2="475.4" y1="411.97" y2="411.97" xlink:href="#e"></linearGradient><linearGradient id="aT" x1="440.21" x2="475.4" y1="416.98" y2="416.98" xlink:href="#m"></linearGradient><linearGradient id="aU" x1="443.52" x2="472.09" y1="390.48" y2="390.48" xlink:href="#n"></linearGradient><linearGradient id="aV" x1="452.38" x2="460.1" y1="397.93" y2="397.93" xlink:href="#n"></linearGradient><linearGradient id="p" x1="132.82" x2="312.17" y1="402.67" y2="402.67" gradientUnits="userSpaceOnUse"><stop offset="0" stop-color="#dae7f5" class="stopColordae0f5 svgShape"></stop><stop offset=".32" stop-color="#e0ebf7" class="stopColore0e5f7 svgShape"></stop><stop offset=".77" stop-color="#f3f7fc" class="stopColorf3f5fc svgShape"></stop><stop offset="1" stop-color="#ffffff" class="stopColorffffff svgShape"></stop></linearGradient><linearGradient id="aW" x1="317.14" x2="496.47" y1="417.48" y2="417.48" gradientTransform="translate(-198.79)" gradientUnits="userSpaceOnUse"><stop offset=".24" stop-color="#453eac" class="stopColor423eac svgShape"></stop><stop offset=".3" stop-color="#4740ae" class="stopColor4440ae svgShape"></stop><stop offset=".34" stop-color="#4c45b6" class="stopColor4945b6 svgShape"></stop><stop offset=".36" stop-color="#554ec4" class="stopColor524ec4 svgShape"></stop><stop offset=".38" stop-color="#635bd7" class="stopColor605bd7 svgShape"></stop><stop offset=".4" stop-color="#6e66e7" class="stopColor6b66e7 svgShape"></stop></linearGradient><linearGradient id="aX" x1="184.41" x2="297.7" y1="392.67" y2="392.67" xlink:href="#p"></linearGradient><linearGradient id="aY" x1="494.01" x2="270.65" y1=".44" y2="387.32" gradientTransform="translate(-198.79)" gradientUnits="userSpaceOnUse"><stop offset=".63" stop-color="#6f67e9" class="stopColor6b67e9 svgShape"></stop><stop offset=".7" stop-color="#453eaf" class="stopColor423eaf svgShape"></stop></linearGradient><linearGradient id="q" x1="121.27" x2="165.87" y1="539.84" y2="539.84" gradientUnits="userSpaceOnUse"><stop offset="0" stop-color="#c4d6e9" class="stopColorc4cae9 svgShape"></stop><stop offset="1" stop-color="#ffffff" class="stopColorffffff svgShape"></stop></linearGradient><linearGradient id="aZ" x1="58.89" x2="83.28" y1="516.9" y2="516.9" xlink:href="#q"></linearGradient><linearGradient id="ba" x1="83.36" x2="114.09" y1="502.98" y2="502.98" xlink:href="#q"></linearGradient><linearGradient id="bb" x1="83.24" x2="121.25" y1="532.7" y2="532.7" xlink:href="#q"></linearGradient><linearGradient id="bc" x1="121.17" x2="137.2" y1="557.66" y2="557.66" xlink:href="#q"></linearGradient><linearGradient id="bd" x1="90.43" x2="133.58" y1="552.77" y2="552.77" xlink:href="#e"></linearGradient><linearGradient id="be" x1="58.9" x2="90.43" y1="506.48" y2="506.48" gradientUnits="userSpaceOnUse"><stop offset="0" stop-color="#dc00b4" class="stopColordc8b00 svgShape"></stop><stop offset="1" stop-color="#fc06cf" class="stopColorfcba06 svgShape"></stop></linearGradient><linearGradient id="bf" x1="42.2" x2="133.79" y1="524.04" y2="524.04" gradientUnits="userSpaceOnUse"><stop offset="0" stop-color="#fc06cf" class="stopColorfcba06 svgShape"></stop><stop offset=".65" stop-color="#dc00b4" class="stopColordc8b00 svgShape"></stop><stop offset="1" stop-color="#fc06cf" class="stopColorfcba06 svgShape"></stop></linearGradient><clipPath id="aI"><path fill="none" d="m457.73 442.86-64.06-37v-66.91l64.06 37v66.91z"></path></clipPath></defs><g style="isolation:isolate" fill="#010001" class="color000000 svgShape"><g fill="#010001" class="color000000 svgShape"><g data-name="Dollar symbol" fill="#010001" class="color000000 svgShape"><path fill="#f4f6f8" d="m198.36 630.36-108.4-62.59 144.88-83.65 108.4 62.59-144.88 83.65z" class="colorf6f6fb svgShape"></path><path fill="#cee3f8" d="m198.36 631.07-108.4-62.59v-.71l108.4 62.59v.71z" class="colorced3f8 svgShape"></path><path fill="#bbd0e6" d="m198.36 631.07 144.88-83.65v-.71l-144.88 83.65v.71z" class="colorbbc0e6 svgShape"></path><path fill="#3e9eff" d="M218.19 515.18a14.3 14.3 0 0 1 12.93 0c3.57 2.06 3.57 5.41 0 7.47a14.3 14.3 0 0 1-12.93 0c-3.57-2.06-3.57-5.41 0-7.47Z" class="colorffd03e svgShape"></path><path fill="#dae7f5" d="m243.86 523.67 49.39 28.51-3.66 2.11-49.39-28.51 3.66-2.11zM236.7 527.81l29.42 16.98-3.66 2.11-29.42-16.98 3.66-2.11z" class="colordae0f5 svgShape"></path><path fill="#3e9eff" d="M193.92 529.2a14.24 14.24 0 0 1 12.93 0c3.58 2.06 3.58 5.4 0 7.46a14.27 14.27 0 0 1-12.93 0c-3.57-2.06-3.57-5.4 0-7.46Z" class="colorffd03e svgShape"></path><path fill="#dae7f5" d="m219.59 537.68 49.39 28.52-3.66 2.11-49.39-28.52 3.66-2.11zM212.43 541.82l29.42 16.98-3.66 2.12-29.42-16.99 3.66-2.11zM163.72 537.67l77.33 44.65-3.65 2.11-77.34-44.64 3.66-2.12zM156.4 541.9l77.33 44.65-3.65 2.11-77.34-44.65 3.66-2.11zM149.08 546.13l77.34 44.64-3.66 2.12-77.33-44.65 3.65-2.11zM141.77 550.35 219.1 595l-3.66 2.12-77.33-44.65 3.66-2.12zM134.45 554.58l53.62 30.96-3.66 2.11-53.62-30.96 3.66-2.11zM127.13 558.81l53.62 30.96-3.65 2.11-53.63-30.96 3.66-2.11zM119.81 563.03 173.44 594l-3.66 2.11-53.63-30.96 3.66-2.12zM264.79 509.91l33.77 19.49-6.83 3.95-33.77-19.5 6.83-3.94z" class="colordae0f5 svgShape"></path><path d="M580 533.9a5 5 0 0 0-2.62.66l-3 1.71-.56-.32a.9.9 0 0 0-.87 0l-10.4 6a1 1 0 0 0-.35.29l-.49.7-97.31 59.83-6.18 9.58 16.17-5.06 92.3-53.29a1 1 0 0 0 .89 0l10.4-6a1.26 1.26 0 0 0 .33-.28l.75-1.07 3.87-2.23a5.74 5.74 0 0 0 2.69-4.83 5.67 5.67 0 0 0-5.62-5.69Z" style="mix-blend-mode:multiply" fill="url(#r)"></path><path fill="url(#s)" d="M570.8 531.94a5 5 0 0 0-2.62.66l-3.71 2.13a4.75 4.75 0 0 1 1 .45 10.11 10.11 0 0 1 4.57 7.93 4.25 4.25 0 0 1-.3 1.64l4-2.32a5.73 5.73 0 0 0 2.69-4.83 5.66 5.66 0 0 0-5.63-5.66Z"></path><path fill="url(#t)" d="M454 603.24a3.28 3.28 0 0 1 1.48 2.57c0 .57-.25.93-.62 1l10.33-1.51 2.21-3.14-2.21-5.69-4.41-2.55-7.94 9.3a1 1 0 0 1 1.16.02Z"></path><path fill="url(#u)" d="M454 603.24a1 1 0 0 0-1.16 0l-.13.14-3.68 4.31 5.72-.84h.11c.37-.09.62-.45.62-1a3.28 3.28 0 0 0-1.48-2.61Z"></path><path fill="#cee3f8" d="M553.94 549.94a2.73 2.73 0 0 1-1-1.17l-1.79-4.62a1.69 1.69 0 0 1 .18-1.42l1.72-2.46a.93.93 0 0 1 1.18-.26l3.6 2.08a2.65 2.65 0 0 1 1 1.17l1.79 4.62a1.68 1.68 0 0 1-.17 1.43l-1.72 2.45a.91.91 0 0 1-1.18.26Z" class="colorced3f8 svgShape"></path><path fill="#fc06cf" d="m560.3 548.57-92.87 53.61-2.21-5.69 92.87-53.61 2.21 5.69z" class="colorfcba06 svgShape"></path><path fill="#a50b89" d="m558.09 551.71-92.87 53.61 2.21-3.14 92.87-53.61-2.21 3.14z" class="colordc8b00 svgShape"></path><path fill="#3e9eff" d="m558.09 542.88-92.87 53.61-4.41-2.55 92.86-53.62 4.42 2.56z" class="colorffd03e svgShape"></path><path fill="url(#v)" d="m571.06 541.85-1.79-4.62a2.73 2.73 0 0 0-1-1.17l-3.6-2.06a.92.92 0 0 0-.88 0c-.07 0-10.4 6-10.4 6a1 1 0 0 1 .83 0l3.6 2.08a2.65 2.65 0 0 1 1 1.17l1.79 4.62a1.68 1.68 0 0 1-.17 1.43l-1.72 2.45a1 1 0 0 1-.24.23l10.35-6a.88.88 0 0 0 .33-.28l1.73-2.45a1.75 1.75 0 0 0 .17-1.4Z"></path><path d="M560 551.12a1 1 0 0 0 .24-.23l1.72-2.45a1.68 1.68 0 0 0 .17-1.43l-1.79-4.62a2.65 2.65 0 0 0-1-1.17l-3.6-2.08a.91.91 0 0 0-.82 0s-.75.41-.75.41a.93.93 0 0 1 .83 0l3.6 2.08a2.65 2.65 0 0 1 1 1.17l1.79 4.62a1.71 1.71 0 0 1-.17 1.43l-1.72 2.45a1 1 0 0 1-.24.23Z" style="mix-blend-mode:multiply" fill="url(#a)"></path><path d="M561.55 550.21a.83.83 0 0 0 .24-.22l1.72-2.45a1.68 1.68 0 0 0 .17-1.43l-1.79-4.62a2.65 2.65 0 0 0-1-1.17l-3.6-2.08a.91.91 0 0 0-.82 0s-.75.42-.75.42a.93.93 0 0 1 .83 0l3.6 2.07a2.73 2.73 0 0 1 1 1.18l1.79 4.61a1.7 1.7 0 0 1-.17 1.44l-1.72 2.45a1 1 0 0 1-.24.22Z" style="mix-blend-mode:multiply" fill="url(#w)"></path><path d="M563.11 549.31a.83.83 0 0 0 .24-.22l1.72-2.45a1.73 1.73 0 0 0 .18-1.44l-1.8-4.61a2.65 2.65 0 0 0-1-1.17l-3.6-2.08a.88.88 0 0 0-.82 0s-.75.42-.75.42a.93.93 0 0 1 .83 0l3.6 2.08a2.68 2.68 0 0 1 1 1.16l1.79 4.63a1.66 1.66 0 0 1-.17 1.42l-1.72 2.46a1 1 0 0 1-.24.22Z" style="mix-blend-mode:multiply" fill="url(#x)"></path><path d="m488.65 542.17-83.18-48c-2.93-1.69-8.07-1.48-11.46.48l-1.22.7 81.13 46.84c2.94 1.7 2.57 4.66-.82 6.62L387.61 598a13.27 13.27 0 0 1-6.62 1.6h14.74a13.3 13.3 0 0 0 6.6-1.6l85.49-49.22c3.4-1.95 3.76-4.91.83-6.61Z" style="mix-blend-mode:multiply" fill="url(#y)"></path><path fill="#857dfb" d="m306.61 549.51 68.95 39.81c3.39 1.95 8.52 2.17 11.46.47l87.84-50.71c2.94-1.7 2.57-4.66-.83-6.62l-68.94-39.8c-3.39-2-8.53-2.18-11.46-.48l-87.84 50.71c-2.94 1.7-2.57 4.66.82 6.62Z" class="color807dfb svgShape"></path><path fill="#f4f6f8" d="m372.94 504.12 81.24 46.9 18.54-10.71-81.23-46.9-18.55 10.71z" class="colorf6f6fb svgShape"></path><path fill="url(#z)" d="m306.61 549.51 68.95 39.81c3.39 1.95 8.52 2.17 11.46.47l87.84-50.71a3.31 3.31 0 0 0 2-3.13v8.8a3.36 3.36 0 0 1-2 3L387 598.49c-2.94 1.7-8.07 1.48-11.46-.48l-68.95-39.8c-1.95-1.13-2.89-2.58-2.79-3.94v-8.35c.09 1.25 1.03 2.56 2.81 3.59Z"></path><path fill="#cee3f8" d="M454.18 551.02v3.02l18.54-10.71v-3.02l-18.54 10.71z" class="colorced3f8 svgShape"></path><path d="m414.9 567.12-10-5.76a3.56 3.56 0 0 0-3.24 0l-10 5.76a1 1 0 0 0 0 1.87l7.61 4.39v1.75h3.82a3.36 3.36 0 0 0 1.78-.37l10-5.75a1 1 0 0 0 .03-1.89Z" style="mix-blend-mode:multiply" fill="url(#b)"></path><path fill="#e8eff7" d="m388 566.64 10 5.76a3.62 3.62 0 0 0 3.24 0l10-5.76a1 1 0 0 0 0-1.87l-10-5.75a3.56 3.56 0 0 0-3.24 0l-10 5.75a1 1 0 0 0 0 1.87Z" class="colore8ecf7 svgShape"></path><path fill="url(#c)" d="m411.13 566.64-10 5.76a3.62 3.62 0 0 1-3.24 0l-10-5.76a1.16 1.16 0 0 1-.67-.93v2.34a1.16 1.16 0 0 0 .67.94l10 5.75a3.56 3.56 0 0 0 3.24 0l10-5.75a1.16 1.16 0 0 0 .67-.94v-2.34a1.16 1.16 0 0 1-.67.93Z"></path><path d="m396.7 577.62-10-5.76a3.62 3.62 0 0 0-3.24 0l-10 5.76a1 1 0 0 0 0 1.87l7.6 4.39v1.75H385a3.27 3.27 0 0 0 1.78-.37l10-5.75a1 1 0 0 0-.08-1.89Z" style="mix-blend-mode:multiply" fill="url(#A)"></path><path fill="#e8eff7" d="m369.76 577.14 10 5.76a3.56 3.56 0 0 0 3.24 0l10-5.76a1 1 0 0 0 0-1.87l-10-5.75a3.56 3.56 0 0 0-3.24 0l-10 5.75a1 1 0 0 0 0 1.87Z" class="colore8ecf7 svgShape"></path><path fill="url(#B)" d="m392.94 577.14-10 5.76a3.56 3.56 0 0 1-3.24 0l-10-5.76a1.11 1.11 0 0 1-.67-.93v2.34a1.14 1.14 0 0 0 .67.94l10 5.75a3.56 3.56 0 0 0 3.24 0l10-5.75a1.16 1.16 0 0 0 .67-.94v-2.34a1.13 1.13 0 0 1-.67.93Z"></path><path d="m378 566.81-10-5.76a3.62 3.62 0 0 0-3.24 0l-10 5.76a1 1 0 0 0 0 1.87l7.61 4.39v1.75h3.82a3.36 3.36 0 0 0 1.78-.37l10-5.75a1 1 0 0 0 .03-1.89Z" style="mix-blend-mode:multiply" fill="url(#C)"></path><path fill="#e8eff7" d="m351 566.33 10 5.76a3.62 3.62 0 0 0 3.24 0l10-5.76a1 1 0 0 0 0-1.87l-10-5.75a3.56 3.56 0 0 0-3.24 0l-10 5.75a1 1 0 0 0 0 1.87Z" class="colore8ecf7 svgShape"></path><path fill="url(#D)" d="m374.21 566.33-10 5.76a3.62 3.62 0 0 1-3.24 0l-10-5.76a1.16 1.16 0 0 1-.67-.93v2.34a1.16 1.16 0 0 0 .67.94l10 5.75a3.56 3.56 0 0 0 3.24 0l10-5.75a1.14 1.14 0 0 0 .67-.94v-2.34a1.14 1.14 0 0 1-.67.93Z"></path><path d="m396.17 556.3-10-5.75a3.56 3.56 0 0 0-3.24 0l-10 5.75a1 1 0 0 0 0 1.87l7.6 4.39v1.76h3.82a3.45 3.45 0 0 0 1.78-.37l10-5.76a1 1 0 0 0 .04-1.89Z" style="mix-blend-mode:multiply" fill="url(#E)"></path><path fill="#e8eff7" d="m369.23 555.83 10 5.75a3.56 3.56 0 0 0 3.24 0l10-5.75a1 1 0 0 0 0-1.87l-10-5.76a3.62 3.62 0 0 0-3.24 0l-10 5.76a1 1 0 0 0 0 1.87Z" class="colore8ecf7 svgShape"></path><path fill="url(#F)" d="m392.4 555.83-10 5.75a3.56 3.56 0 0 1-3.24 0l-10-5.75a1.14 1.14 0 0 1-.67-.94v2.35a1.11 1.11 0 0 0 .67.93l10 5.76a3.62 3.62 0 0 0 3.24 0l10-5.76a1.11 1.11 0 0 0 .67-.93v-2.35a1.14 1.14 0 0 1-.67.94Z"></path><path d="m414.36 545.8-10-5.75a3.56 3.56 0 0 0-3.24 0l-10 5.75a1 1 0 0 0 0 1.87l7.6 4.39v1.75h3.82a3.25 3.25 0 0 0 1.78-.37l10-5.75a1 1 0 0 0 .04-1.89Z" style="mix-blend-mode:multiply" fill="url(#G)"></path><path fill="#e8eff7" d="m387.42 545.33 10 5.75a3.56 3.56 0 0 0 3.24 0l10-5.75a1 1 0 0 0 0-1.88l-10-5.75a3.56 3.56 0 0 0-3.24 0l-10 5.75a1 1 0 0 0 0 1.88Z" class="colore8ecf7 svgShape"></path><path fill="url(#H)" d="m410.59 545.33-10 5.75a3.56 3.56 0 0 1-3.24 0l-10-5.75a1.14 1.14 0 0 1-.67-.94v2.35a1.14 1.14 0 0 0 .67.93l10 5.75a3.56 3.56 0 0 0 3.24 0l10-5.75a1.14 1.14 0 0 0 .67-.93v-2.35a1.14 1.14 0 0 1-.67.94Z"></path><path d="m359.25 556-10-5.75a3.56 3.56 0 0 0-3.24 0l-10 5.75a1 1 0 0 0 0 1.87l7.6 4.39V564h3.82a3.45 3.45 0 0 0 1.78-.37l10-5.76a1 1 0 0 0 .04-1.87Z" style="mix-blend-mode:multiply" fill="url(#I)"></path><path fill="#e8eff7" d="m332.31 555.52 10 5.75a3.56 3.56 0 0 0 3.24 0l10-5.75a1 1 0 0 0 0-1.87l-10-5.76a3.62 3.62 0 0 0-3.24 0l-10 5.76a1 1 0 0 0 0 1.87Z" class="colore8ecf7 svgShape"></path><path fill="url(#J)" d="m355.48 555.52-10 5.75a3.56 3.56 0 0 1-3.24 0l-10-5.75a1.14 1.14 0 0 1-.67-.94v2.35a1.11 1.11 0 0 0 .67.93l10 5.76a3.56 3.56 0 0 0 3.24 0l10-5.76a1.11 1.11 0 0 0 .67-.93v-2.35a1.14 1.14 0 0 1-.67.94Z"></path><path d="m377.44 545.49-10-5.75a3.56 3.56 0 0 0-3.24 0l-10 5.75a1 1 0 0 0 0 1.87l7.6 4.39v1.75h3.82a3.43 3.43 0 0 0 1.78-.37l10-5.76a1 1 0 0 0 .04-1.88Z" style="mix-blend-mode:multiply" fill="url(#K)"></path><path fill="#e8eff7" d="m350.5 545 10 5.75a3.56 3.56 0 0 0 3.24 0l10-5.75a1 1 0 0 0 0-1.87l-10-5.76a3.62 3.62 0 0 0-3.24 0l-10 5.76a1 1 0 0 0 0 1.87Z" class="colore8ecf7 svgShape"></path><path fill="url(#L)" d="m373.67 545-10 5.75a3.56 3.56 0 0 1-3.24 0l-10-5.75a1.14 1.14 0 0 1-.67-.94v2.35a1.14 1.14 0 0 0 .67.93l10 5.76a3.62 3.62 0 0 0 3.24 0l10-5.76a1.14 1.14 0 0 0 .67-.93v-2.35a1.14 1.14 0 0 1-.67.94Z"></path><path d="m395.63 535-10-5.76a3.62 3.62 0 0 0-3.24 0l-10 5.76a1 1 0 0 0 0 1.87l7.6 4.39V543h3.83a3.36 3.36 0 0 0 1.78-.37l10-5.75a1 1 0 0 0 .03-1.88Z" style="mix-blend-mode:multiply" fill="url(#M)"></path><path fill="#e8eff7" d="m368.69 534.51 10 5.76a3.62 3.62 0 0 0 3.24 0l10-5.76a1 1 0 0 0 0-1.87l-10-5.75a3.56 3.56 0 0 0-3.24 0l-10 5.75a1 1 0 0 0 0 1.87Z" class="colore8ecf7 svgShape"></path><path fill="url(#N)" d="m391.86 534.51-10 5.76a3.62 3.62 0 0 1-3.24 0l-10-5.76a1.11 1.11 0 0 1-.67-.93v2.34a1.14 1.14 0 0 0 .67.94l10 5.75a3.56 3.56 0 0 0 3.24 0l10-5.75a1.15 1.15 0 0 0 .68-.94v-2.34a1.13 1.13 0 0 1-.68.93Z"></path><path d="m340.52 545.18-10-5.75a3.56 3.56 0 0 0-3.24 0l-10 5.75a1 1 0 0 0 0 1.87l7.6 4.39v1.75h3.83a3.42 3.42 0 0 0 1.77-.37l10-5.76a1 1 0 0 0 .04-1.88Z" style="mix-blend-mode:multiply" fill="url(#O)"></path><path fill="#e8eff7" d="m313.58 544.71 10 5.75a3.56 3.56 0 0 0 3.24 0l10-5.75a1 1 0 0 0 0-1.87l-10-5.76a3.62 3.62 0 0 0-3.24 0l-10 5.76a1 1 0 0 0 0 1.87Z" class="colore8ecf7 svgShape"></path><path fill="url(#P)" d="m336.75 544.71-10 5.75a3.56 3.56 0 0 1-3.24 0l-10-5.75a1.14 1.14 0 0 1-.67-.94v2.35a1.13 1.13 0 0 0 .67.93l10 5.76a3.62 3.62 0 0 0 3.24 0l10-5.76a1.13 1.13 0 0 0 .67-.93v-2.35a1.14 1.14 0 0 1-.67.94Z"></path><path d="m358.71 534.68-10-5.76a3.62 3.62 0 0 0-3.24 0l-10 5.76a1 1 0 0 0 0 1.87l7.6 4.39v1.75H347a3.27 3.27 0 0 0 1.78-.37l10-5.75a1 1 0 0 0-.07-1.89Z" style="mix-blend-mode:multiply" fill="url(#Q)"></path><path fill="#e8eff7" d="m331.77 534.2 10 5.76a3.56 3.56 0 0 0 3.24 0l10-5.76a1 1 0 0 0 0-1.87l-10-5.75a3.56 3.56 0 0 0-3.24 0l-10 5.75a1 1 0 0 0 0 1.87Z" class="colore8ecf7 svgShape"></path><path fill="url(#R)" d="M354.94 534.2 345 540a3.56 3.56 0 0 1-3.24 0l-10-5.76a1.11 1.11 0 0 1-.67-.93v2.34a1.14 1.14 0 0 0 .67.94l10 5.75a3.56 3.56 0 0 0 3.24 0l10-5.75a1.15 1.15 0 0 0 .68-.94v-2.34a1.13 1.13 0 0 1-.74.89Z"></path><path d="m376.91 524.18-10-5.76a3.56 3.56 0 0 0-3.24 0l-10 5.76a1 1 0 0 0 0 1.87l7.61 4.39v1.75h3.82a3.36 3.36 0 0 0 1.78-.37l10-5.75a1 1 0 0 0 .03-1.89Z" style="mix-blend-mode:multiply" fill="url(#S)"></path><path fill="#e8eff7" d="m350 523.7 10 5.76a3.62 3.62 0 0 0 3.24 0l10-5.76a1 1 0 0 0 0-1.87l-10-5.75a3.56 3.56 0 0 0-3.24 0l-10 5.75a1 1 0 0 0 0 1.87Z" class="colore8ecf7 svgShape"></path><path fill="url(#T)" d="m373.14 523.7-10 5.76a3.62 3.62 0 0 1-3.24 0l-10-5.76a1.16 1.16 0 0 1-.67-.93v2.34a1.16 1.16 0 0 0 .67.94l10 5.75a3.56 3.56 0 0 0 3.24 0l10-5.75a1.16 1.16 0 0 0 .67-.94v-2.34a1.16 1.16 0 0 1-.67.93Z"></path><path d="m433.09 556.61-10-5.75a3.56 3.56 0 0 0-3.24 0l-10 5.75a1 1 0 0 0 0 1.87l7.61 4.39v1.75h3.82a3.45 3.45 0 0 0 1.78-.37l10-5.76a1 1 0 0 0 .03-1.88Z" style="mix-blend-mode:multiply" fill="url(#U)"></path><path fill="#3e9eff" d="m406.15 556.14 10 5.75a3.56 3.56 0 0 0 3.24 0l10-5.75a1 1 0 0 0 0-1.87l-10-5.76a3.62 3.62 0 0 0-3.24 0l-10 5.76a1 1 0 0 0 0 1.87Z" class="colorffd03e svgShape"></path><path fill="url(#V)" d="m429.32 556.14-10 5.75a3.56 3.56 0 0 1-3.24 0l-10-5.75a1.15 1.15 0 0 1-.68-.94v2.35a1.14 1.14 0 0 0 .68.93l10 5.76a3.62 3.62 0 0 0 3.24 0l10-5.76a1.13 1.13 0 0 0 .67-.93v-2.35a1.14 1.14 0 0 1-.67.94Z"></path><path d="m446.63 549-5.21-3a3.56 3.56 0 0 0-3.24 0l-5.18 3a1 1 0 0 0 0 1.87l2.84 1.64v1.75h3.82a3.33 3.33 0 0 0 1.78-.36l5.17-3a1 1 0 0 0 .02-1.9Z" style="mix-blend-mode:multiply" fill="url(#W)"></path><path fill="#e8eff7" d="m424.06 545.8 10 5.75a3.56 3.56 0 0 0 3.24 0l5.2-3a1 1 0 0 0 0-1.88l-10-5.75a3.56 3.56 0 0 0-3.24 0l-5.2 3a1 1 0 0 0 0 1.88Z" class="colore8ecf7 svgShape"></path><path fill="url(#d)" d="m424.06 545.8 10 5.75a3.56 3.56 0 0 0 3.24 0l5.2-3a1.14 1.14 0 0 0 .67-.94V550a1.14 1.14 0 0 1-.67.93l-5.2 3a3.62 3.62 0 0 1-3.24 0l-10-5.76a1.14 1.14 0 0 1-.67-.93v-2.35a1.14 1.14 0 0 0 .67.91Z"></path><path d="m427.69 538.23-5.21-3a3.56 3.56 0 0 0-3.24 0l-5.16 3a1 1 0 0 0 0 1.87l2.84 1.64v1.75h3.82a3.36 3.36 0 0 0 1.78-.37l5.17-3a1 1 0 0 0 0-1.89Z" style="mix-blend-mode:multiply" fill="url(#X)"></path><path fill="#e8eff7" d="m405.33 535 10 5.76a3.62 3.62 0 0 0 3.24 0l5.2-3a1 1 0 0 0 0-1.87l-10-5.75a3.56 3.56 0 0 0-3.24 0l-5.21 3a1 1 0 0 0 .01 1.86Z" class="colore8ecf7 svgShape"></path><path fill="url(#Y)" d="m405.33 535 10 5.76a3.62 3.62 0 0 0 3.24 0l5.2-3a1.13 1.13 0 0 0 .67-.93v2.34a1.14 1.14 0 0 1-.67.94l-5.2 3a3.56 3.56 0 0 1-3.24 0l-10-5.75a1.14 1.14 0 0 1-.67-.94v-2.34a1.11 1.11 0 0 0 .67.92Z"></path><path d="m409 527.42-5.21-3a3.62 3.62 0 0 0-3.24 0l-5.16 3a1 1 0 0 0 0 1.87l2.84 1.64v1.75H402a3.34 3.34 0 0 0 1.78-.37l5.17-3a1 1 0 0 0 .05-1.89Z" style="mix-blend-mode:multiply" fill="url(#Z)"></path><path fill="#e8eff7" d="m386.6 524.17 10 5.76a3.62 3.62 0 0 0 3.24 0l5.2-3a1 1 0 0 0 0-1.87l-10-5.75a3.56 3.56 0 0 0-3.24 0l-5.21 3a1 1 0 0 0 .01 1.86Z" class="colore8ecf7 svgShape"></path><path fill="url(#aa)" d="m386.6 524.17 10 5.76a3.62 3.62 0 0 0 3.24 0l5.2-3a1.15 1.15 0 0 0 .68-.93v2.34a1.15 1.15 0 0 1-.68.94l-5.2 3a3.56 3.56 0 0 1-3.24 0l-10-5.75a1.16 1.16 0 0 1-.67-.94v-2.34a1.16 1.16 0 0 0 .67.92Z"></path><path d="m390.23 516.61-5.2-3a3.56 3.56 0 0 0-3.24 0l-5.17 3a1 1 0 0 0 0 1.87l2.84 1.64v1.76h3.83a3.45 3.45 0 0 0 1.78-.37l5.16-3a1 1 0 0 0 0-1.9Z" style="mix-blend-mode:multiply" fill="url(#ab)"></path><path fill="#e8eff7" d="m367.88 513.36 10 5.75a3.56 3.56 0 0 0 3.24 0l5.21-3a1 1 0 0 0 0-1.87l-10-5.76a3.62 3.62 0 0 0-3.24 0l-5.2 3a1 1 0 0 0-.01 1.88Z" class="colore8ecf7 svgShape"></path><path fill="url(#ac)" d="m367.88 513.36 10 5.75a3.56 3.56 0 0 0 3.24 0l5.21-3a1.14 1.14 0 0 0 .67-.94v2.35a1.11 1.11 0 0 1-.67.93l-5.21 3a3.62 3.62 0 0 1-3.24 0l-10-5.76a1.11 1.11 0 0 1-.67-.93v-2.35a1.14 1.14 0 0 0 .67.95Z"></path><path fill="#cee3f8" d="M440.04 525.22h-1.82l-3.93 2.26v1.05h1.82l3.93-2.27v-1.04zM433.86 521.65v1.05l-3.93 2.26h-1.82v-1.05l3.93-2.26h1.82zM433.86 528.78h-1.82l-3.93 2.27v1.05h1.82l3.93-2.27v-1.05zM440.04 524.94v-1.05l-3.93-2.27h-1.82v1.05l3.93 2.27h1.82zM433.86 528.51v-1.05l-3.93-2.27h-1.82v1.05l3.93 2.27h1.82zM451.62 531.9h-1.82l-3.93 2.27v1.05h1.82l3.93-2.27v-1.05zM445.44 528.33v1.05l-3.93 2.27h-1.82v-1.05l3.93-2.27h1.82zM445.44 535.47h-1.82l-3.93 2.27v1.04h1.82l3.93-2.26v-1.05zM439.26 531.9h-1.82l-3.93 2.27v1.05h1.82l3.93-2.27v-1.05zM451.62 531.62v-1.04l-3.93-2.27h-1.82v1.05l3.93 2.26h1.82zM439.26 538.76h-1.82l-3.93-2.27v-1.05h1.82l3.93 2.27v1.05zM445.44 535.19v-1.05l-3.93-2.26h-1.82v1.04l3.93 2.27h1.82zM461.83 537.89h-1.82l-3.93 2.27v1.05h1.82l3.93-2.27v-1.05zM455.65 541.46h-1.82l-3.93 2.27v1.05h1.82l3.93-2.27v-1.05zM461.83 537.62v-1.05l-3.93-2.27h-1.82v1.05l3.93 2.27h1.82z" class="colorced3f8 svgShape"></path><g style="mix-blend-mode:multiply" fill="#010001" class="color000000 svgShape"><path fill="#dae7f5" d="m366.91 521.39-7.5 4.33-1.06-.61 6.56-3.8-1.69-1 .93-.54ZM380.46 536.85l-.93.54-5.39-3.11.73-.42 6 .06a9.25 9.25 0 0 0 1.68-.1 3.4 3.4 0 0 0 1-.35c.39-.22.56-.48.5-.76s-.34-.58-.86-.88a4.8 4.8 0 0 0-2.73-.63l-.09-.79a6.71 6.71 0 0 1 2 .18 6.79 6.79 0 0 1 1.89.75q1.18.67 1.32 1.41c.09.48-.19.91-.83 1.28a4.73 4.73 0 0 1-1.4.51 11.68 11.68 0 0 1-2.19.14h-4.5ZM401.41 545.69c0 .44-.29.83-.88 1.17a4 4 0 0 1-1.48.49 5.21 5.21 0 0 1-1.79-.08 6.28 6.28 0 0 1-1.86-.72 5 5 0 0 1-1.3-1 2 2 0 0 1-.54-1.09l1.34-.2a1.55 1.55 0 0 0 .4.91 3.73 3.73 0 0 0 1.05.86 3.9 3.9 0 0 0 1.66.54 2.39 2.39 0 0 0 1.44-.29c.41-.24.58-.51.5-.82s-.43-.64-1.05-1l-.6-.35.75-.43 4.2-.25-3.61-2.08.93-.54 4.95 2.86-.73.42-4.38.26c.67.44 1 .89 1 1.34ZM345 536.28l-1.43-.83-1.84 1.07-1-.6 1.84-1.07-4.16-2.4.75-.43 8.74-.62 1.15.67-8.41.61 2.89 1.66 1.62-.94 1 .58-1.63.94 1.43.83ZM364.55 545.14c.1.52-.2 1-.9 1.39a4.21 4.21 0 0 1-1.51.51 5.2 5.2 0 0 1-1.79-.07 6.3 6.3 0 0 1-1.87-.73 5.29 5.29 0 0 1-1.29-1 2 2 0 0 1-.55-1.1l1.34-.2a1.55 1.55 0 0 0 .4.91 3.63 3.63 0 0 0 1 .85 3.87 3.87 0 0 0 1.67.55 2.48 2.48 0 0 0 1.45-.29c.45-.26.62-.56.51-.89s-.58-.74-1.41-1.22l-1.7-1 4.31-2 4.24 2.45-.94.54-3.33-1.93-2.18 1.03.84.49c1.03.57 1.61 1.18 1.71 1.71ZM383.22 555.54a1 1 0 0 1 .12 1 1.8 1.8 0 0 1-.86.88 4.32 4.32 0 0 1-1.59.52 5.68 5.68 0 0 1-1.79-.07 5.37 5.37 0 0 1-1.65-.62c-1-.58-1.46-1.21-1.35-1.9s.75-1.38 1.94-2.07a8.12 8.12 0 0 1 2.59-1 7.48 7.48 0 0 1 2.58-.06 7.06 7.06 0 0 1 2.31.81 5.32 5.32 0 0 1 .92.66 2 2 0 0 1 .5.67l-1.24.25a2.24 2.24 0 0 0-1.08-1 4.7 4.7 0 0 0-2.55-.64 5.76 5.76 0 0 0-2.77.83l-.26.16a4.93 4.93 0 0 1 1.62.09 5.37 5.37 0 0 1 1.52.58 2.92 2.92 0 0 1 1.04.91Zm-3.34 1.64a2.75 2.75 0 0 0 1.52-.34c.44-.26.63-.55.59-.88s-.34-.65-.86-1a3.48 3.48 0 0 0-1.09-.4 3.34 3.34 0 0 0-1.13-.05 2.36 2.36 0 0 0-1 .3 1.1 1.1 0 0 0-.52.53.73.73 0 0 0 .09.66 2.06 2.06 0 0 0 .76.67 3.41 3.41 0 0 0 1.64.51ZM332 543.23l-.73.42-9.8 2.16-1.13-.65 9.53-2.08-3.43-2-1.34.77-1-.59 2.27-1.31ZM346.23 556.4a1.46 1.46 0 0 1-.76.84 3.65 3.65 0 0 1-1.54.46 5.36 5.36 0 0 1-1.8-.15 7.16 7.16 0 0 1-1.85-.76 4.08 4.08 0 0 1-1.3-1.07 1.17 1.17 0 0 1-.27-1 1.55 1.55 0 0 1 .81-.89 3.33 3.33 0 0 1 1.44-.44 4.92 4.92 0 0 1 1.68.15.92.92 0 0 1-.12-.82 1.46 1.46 0 0 1 .69-.72 3.47 3.47 0 0 1 1.42-.43 5.31 5.31 0 0 1 1.66.14 6.39 6.39 0 0 1 1.66.68 3.75 3.75 0 0 1 1.18 1 1.08 1.08 0 0 1 .25.95 1.42 1.42 0 0 1-.75.82 3.08 3.08 0 0 1-1.23.4 4.5 4.5 0 0 1-1.45-.08 1.12 1.12 0 0 1 .28.92Zm-3.31.48a2.47 2.47 0 0 0 1.51-.28c.42-.24.57-.53.47-.86a2.05 2.05 0 0 0-1-1 4.4 4.4 0 0 0-1.75-.6 2.46 2.46 0 0 0-1.48.28c-.42.24-.59.53-.5.87s.43.67 1 1a4.23 4.23 0 0 0 1.75.59Zm2.63-4.53a2.26 2.26 0 0 0-1.32.26c-.37.22-.52.47-.45.76s.38.58.89.88a3.85 3.85 0 0 0 1.55.52 2.12 2.12 0 0 0 1.32-.25c.37-.21.51-.47.43-.77a1.75 1.75 0 0 0-.89-.89 3.85 3.85 0 0 0-1.53-.51ZM367.79 564.94q-.15 1-2 2.07a8 8 0 0 1-2.58 1 7.48 7.48 0 0 1-2.58.06 6.56 6.56 0 0 1-2.31-.81 5 5 0 0 1-.92-.66 2.09 2.09 0 0 1-.51-.67l1.24-.25a2.32 2.32 0 0 0 1.1 1 4.79 4.79 0 0 0 2.55.64 5.77 5.77 0 0 0 2.76-.84l.27-.15a4.92 4.92 0 0 1-1.62-.09 5.34 5.34 0 0 1-1.53-.59 2.83 2.83 0 0 1-1-.93 1 1 0 0 1-.12-1 1.88 1.88 0 0 1 .87-.88 4.32 4.32 0 0 1 1.59-.52 5.62 5.62 0 0 1 1.78.07 5.29 5.29 0 0 1 1.64.61c1.02.61 1.47 1.25 1.37 1.94Zm-3.94.73a3.4 3.4 0 0 0 1.14.05 2.36 2.36 0 0 0 1-.3 1.1 1.1 0 0 0 .52-.53.76.76 0 0 0-.09-.66 2 2 0 0 0-.77-.67 3.3 3.3 0 0 0-1.59-.46 2.66 2.66 0 0 0-1.52.35c-.44.25-.64.54-.59.87s.33.64.85.94a3.5 3.5 0 0 0 1.05.41ZM376.62 577.24a1.54 1.54 0 0 1 .24-1.39 4.74 4.74 0 0 1 1.66-1.41 8.32 8.32 0 0 1 2.45-1 7.39 7.39 0 0 1 2.41-.14 5.27 5.27 0 0 1 2 .65 2.33 2.33 0 0 1 1.11 1.17 1.53 1.53 0 0 1-.23 1.39 4.84 4.84 0 0 1-1.66 1.42 8.38 8.38 0 0 1-2.46 1 7.35 7.35 0 0 1-2.41.13 5.16 5.16 0 0 1-2-.64 2.35 2.35 0 0 1-1.11-1.18Zm4.26 1a6.45 6.45 0 0 0 2.68-.92c.94-.54 1.47-1.06 1.61-1.55s-.11-.91-.71-1.26a3.59 3.59 0 0 0-2.19-.41 6.67 6.67 0 0 0-2.68.93c-.93.54-1.47 1.05-1.6 1.54s.1.92.71 1.27a3.58 3.58 0 0 0 2.18.43ZM379 515.35l-1.78-1-1.75 1-.81-.48 1.74-1-1.78-1 .78-.45 1.77 1 1.76-1 .82.48-1.76 1 1.78 1ZM414.08 537.28v-1.45h-2.47v-.67h2.47v-1.45h1.1v1.45h2.48v.67h-2.48v1.45ZM394.74 523.4l3.39 2-1.05.61-3.39-2Z" class="colordae0f5 svgShape"></path><path fill="#c4d6e9" d="m417.13 552.42 5.64 3.26-1 .57-5.63-3.25Zm-3 1.72 5.64 3.26-1 .57-5.64-3.25Z" class="colorc4cae9 svgShape"></path><path fill="#dae7f5" d="m431.39 544.56-1.05.6 5 2.89 1.05-.61Zm3.26 1a1.57 1.57 0 0 0 1.43 0 .43.43 0 0 0 0-.82 1.57 1.57 0 0 0-1.43 0 .43.43 0 0 0 0 .82Zm-2.65 1.51a1.57 1.57 0 0 0-1.43 0c-.39.23-.4.6 0 .82a1.57 1.57 0 0 0 1.43 0 .43.43 0 0 0 0-.82ZM399.15 567a12.27 12.27 0 0 1-3.19-.21l.24-.39a8.92 8.92 0 0 0 2.82.1 4.85 4.85 0 0 0 1.6-.44c.11-.07.14-.12.11-.18a.5.5 0 0 0-.17-.15l-.84-.39a1.06 1.06 0 0 1-.56-.69c-.06-.27.11-.52.5-.74a2.68 2.68 0 0 1 1.21-.32 2.55 2.55 0 0 1 1.51.37 1.23 1.23 0 0 1 .72 1.06q0 .64-1 1.23a6.54 6.54 0 0 1-2.95.75Z" class="colordae0f5 svgShape"></path></g><path d="m684.87 340.48-55-11.84h-61.5l-17.28 10-148.43 85.7 68.21 39.38h137l145.2-83.83Z" style="mix-blend-mode:multiply" fill="url(#ad)"></path><path fill="#342e94" d="m583.05 359.13 20.42 11.78v-9.32l-20.42-11.79v9.33zM494.62 410.18l20.42 11.78v-9.32l-20.42-11.78v9.32z" class="color362e94 svgShape"></path><path fill="#6f196f" d="M489 450.89c-2.49-1.44-4-4.52-4-8.91 0-8.79 6.17-19.46 13.78-23.86 3.8-2.19 7.24-2.4 9.73-1s4 4.52 4 8.91c0 8.79-6.16 19.46-13.76 23.86-3.87 2.23-7.31 2.44-9.75 1Z" class="color20196f svgShape"></path><path fill="#bbd0e6" d="M491.1 438.4a16.77 16.77 0 0 1 7.59-13.13c4.19-2.42 7.58-.46 7.58 4.37a16.76 16.76 0 0 1-7.58 13.14c-4.19 2.42-7.59.46-7.59-4.38Z" class="colorbbc0e6 svgShape"></path><path fill="#471147" d="M484.91 442c0-8.79 6.17-19.46 13.78-23.86 3.8-2.19 7.24-2.4 9.73-1l-10.54-6.09c-2.49-1.44-5.93-1.23-9.74 1-7.6 4.39-13.76 15.06-13.76 23.85 0 4.39 1.53 7.48 4 8.91l10.53 6.09c-2.46-1.45-4-4.53-4-8.9Z" class="color131147 svgShape"></path><path fill="#6f196f" d="M577.37 399.84c-2.49-1.44-4-4.53-4-8.92 0-8.78 6.17-19.46 13.77-23.85 3.8-2.2 7.24-2.4 9.74-1s4 4.53 4 8.92c0 8.79-6.16 19.46-13.77 23.85-3.8 2.23-7.24 2.44-9.74 1Z" class="color20196f svgShape"></path><path fill="#bbd0e6" d="M579.53 387.35a16.76 16.76 0 0 1 7.58-13.14c4.19-2.41 7.59-.45 7.59 4.38a16.77 16.77 0 0 1-7.59 13.14c-4.19 2.42-7.58.45-7.58-4.38Z" class="colorbbc0e6 svgShape"></path><path fill="#471147" d="M573.34 390.92c0-8.78 6.17-19.46 13.77-23.85 3.8-2.2 7.24-2.4 9.74-1L586.31 360c-2.49-1.44-5.94-1.23-9.74 1-7.6 4.4-13.77 15.07-13.77 23.86 0 4.38 1.54 7.47 4 8.91l10.54 6.09c-2.46-1.46-4-4.55-4-8.94Z" class="color131147 svgShape"></path><path fill="#857dfb" d="m604.27 291.35-145.21 83.83-66.72-38.53 145.2-83.83 66.73 38.53z" class="color807dfb svgShape"></path><path style="mix-blend-mode:multiply" fill="url(#ae)" d="M508.46 293.87h-6.18l29.62 17.09-29.62 17.1h6.18l29.62-17.1-29.62-17.09z"></path><path fill="#453eaf" d="m502.28 328.06 29.69-17.13v-3.49l-29.69 17.14v3.48z" class="color423eaf svgShape"></path><path fill="#5a52cc" d="m472.61 310.93 29.67 17.13v-3.48l-29.67-17.14v3.49z" class="color5652cc svgShape"></path><path fill="#9992ff" d="m531.97 307.44-29.69 17.14-29.67-17.14 29.67-17.13 29.69 17.13z" class="color9292ff svgShape"></path><path fill="#453eaf" d="m604.27 291.35 20.51 31.76v35.49l-21.31 12.31c-.51-3.93-2.18-6.75-4.67-8.18-3-1.73-7.13-1.48-11.68 1.16-8.36 4.82-15.25 16-16.36 25.9L515 422c-.5-3.94-2.18-6.75-4.66-8.19-3-1.73-7.13-1.47-11.69 1.16-8.35 4.83-15.25 16-16.36 25.91l-23.27 13.44v-79.14Z" class="color423eaf svgShape"></path><path fill="#bbd0e6" d="m612.82 357.65 17.4-10.04v10.83l-17.4 10.04v-10.83z" class="colorbbc0e6 svgShape"></path><path fill="url(#af)" d="m579.67 309.66 19.89-11.48c1.46-.84 2.8-.7 3.5.38l14.05 21.75c.66 1-.23 3.25-1.61 4.05L579.67 345c-1 .58-1.81.11-1.81-1v-31.21a4 4 0 0 1 1.81-3.13Z"></path><path fill="#342e94" d="m586.48 348.45-8.62 4.98v-2.99l8.62-4.97v2.98zM565.25 313.87l2.18-1.26v79.1l-2.18 1.27v-79.11z" class="color362e94 svgShape"></path><path fill="#5a52cc" d="m565.25 313.87 2.18-1.26-66.72-38.53-2.19 1.27 66.73 38.52z" class="color5652cc svgShape"></path><path fill="#f4f6f8" d="m461.63 445.11-2.86 1.65-72.15-41.66 2.86-1.65 72.15 41.66z" class="colorf6f6fb svgShape"></path><path fill="#bbd0e6" d="m476.16 436.72-17.39 10.04v10.83l17.39-10.04v-10.83z" class="colorbbc0e6 svgShape"></path><path fill="#cee3f8" d="m458.77 446.76-72.15-41.66v10.83l72.15 41.66v-10.83z" class="colorced3f8 svgShape"></path><path fill="#f4f6f8" d="m473.59 435.23-14.53 8.39 2.57 1.49 14.53-8.39-2.57-1.49z" class="colorf6f6fb svgShape"></path><path fill="#f3f9ff" d="m392.34 401.8-2.86 1.65 2.86 1.65v-3.3z" class="colorf3faff svgShape"></path><path fill="#ffffff" d="M624.78 347.77v-3.3l5.44 3.14-17.4 10.04-2.57-1.49 14.53-8.39z" class="colorffffff svgShape"></path><path fill="#cee3f8" d="M610.25 356.16V367l2.57 1.48v-10.83l-2.57-1.49z" class="colorced3f8 svgShape"></path><path fill="#342e94" d="m392.34 405.1-45.52-6.16V330.5l45.52 6.15v68.45z" class="color362e94 svgShape"></path><path fill="#5a52cc" d="m459.06 443.62 10.67 26.28v-68.44l-10.67-26.28v68.44z" class="color5652cc svgShape"></path><path fill="#342e94" d="M457.73 375.95v66.91l-64.06-37 57.94-33.45 6.12 3.54z" class="color362e94 svgShape"></path><path fill="#6f196f" d="m451.61 372.41-57.94 33.45v-66.91l57.94 33.46z" class="color20196f svgShape"></path><path fill="#453eaf" d="m393.67 337.42 64.06 36.99 1.33.77v68.44l-1.33-.76v-66.91l-64.06-37v66.91l-1.33-.76v-68.45l1.33.77z" class="color423eaf svgShape"></path><path fill="#5a52cc" d="m541.92 372.19-40.48 23.38v-28.29l40.48-23.38v28.29z" class="color5652cc svgShape"></path><path fill="#453eaf" d="m513.94 366.87-9.11 5.26v-2.61l9.11-5.26v2.61zM509.39 373.43l-4.56 2.63v-2.61l4.56-2.63v2.61zM539.03 369.74l-9.23 5.44v-2.61l9.23-5.44v2.61z" class="color423eaf svgShape"></path><path d="M386.58 454.6a26.54 26.54 0 0 0-13.69-3h-7.71v1.27a20.33 20.33 0 0 0-4.08 1.76c-7 4.08-7 10.69.08 14.76a20.29 20.29 0 0 0 4 1.73v1.32h9.24a25.59 25.59 0 0 0 12.24-3.05c7.02-4.1 6.98-10.71-.08-14.79Z" style="mix-blend-mode:multiply" fill="url(#ag)"></path><path fill="#4ca5ff" d="M347.61 457.2c0-2.61 1.73-5.22 5.17-7.21a27.6 27.6 0 0 1 25 0c3.45 2 5.17 4.6 5.17 7.21s-1.72 5.21-5.17 7.2a27.6 27.6 0 0 1-25 0c-3.44-1.99-5.17-4.6-5.17-7.2Z" class="colorffe54c svgShape"></path><path fill="url(#e)" d="M377.73 464.4a27.6 27.6 0 0 1-25 0c-3.44-2-5.17-4.6-5.17-7.2v5c0 2.61 1.73 5.22 5.17 7.21a27.6 27.6 0 0 0 25 0c3.45-2 5.17-4.6 5.17-7.21v-5c0 2.6-1.72 5.21-5.17 7.2Z"></path><path fill="#3e9eff" d="M355.13 463.05a22.41 22.41 0 0 0 20.26 0c2.58-1.49 4-3.41 4.17-5.36-.2-1.95-1.59-3.87-4.17-5.36a22.35 22.35 0 0 0-20.27 0c-2.58 1.49-4 3.41-4.16 5.36.2 1.95 1.58 3.87 4.17 5.36Z" class="colorffd03e svgShape"></path><path fill="#e100b8" d="M355.12 452.33a22.35 22.35 0 0 1 20.27 0c2.58 1.49 4 3.41 4.17 5.36a4.15 4.15 0 0 0 0-.49c0-2.12-1.4-4.24-4.2-5.85a22.35 22.35 0 0 0-20.27 0c-2.79 1.61-4.19 3.73-4.19 5.85a4.15 4.15 0 0 0 0 .49c.26-1.95 1.64-3.87 4.22-5.36Z" class="colore19100 svgShape"></path><path fill="#e100b8" d="m372.32 455.09 1.35-.78v-.98l-1.35.78v.98z" class="colore19100 svgShape"></path><path fill="#4ca5ff" d="M366.07 456.73a1.15 1.15 0 0 1 0-2.18 4.16 4.16 0 0 1 3.78 0 1.16 1.16 0 0 1 0 2.19l1.72 1c1.69-1 1.94-2.48.75-3.61l1.35-.78-1.71-1-1.36.78a8.12 8.12 0 0 0-6.25.43 2.2 2.2 0 0 0 0 4.17 1.16 1.16 0 0 1 0 2.19 4.22 4.22 0 0 1-3.79 0 1.16 1.16 0 0 1 0-2.19l-1.71-1c-1.7 1-1.94 2.48-.76 3.61l-1.25.72 1.72 1 1.25-.72a8.1 8.1 0 0 0 6.26-.43c1.99-1.16 1.99-3.03 0-4.18Z" class="colorffe54c svgShape"></path><path fill="#fc06cf" d="m356.85 462.04 1.71.99v-.98l-1.71-.99v.98z" class="colorfcba06 svgShape"></path><path fill="#e100b8" d="m358.56 463.03 1.25-.72v-.98l-1.25.72v.98z" class="colore19100 svgShape"></path><path fill="#fc06cf" d="m369.85 457.71 1.72.99v-.98l-1.72-.99v.98z" class="colorfcba06 svgShape"></path><path fill="#e100b8" d="M360.56 458.7v-1c-.74.43-.95 1-.64 1.58a1.78 1.78 0 0 1 .64-.58Z" class="colore19100 svgShape"></path><path fill="#fc06cf" d="M357.36 458.76v1.11a2 2 0 0 0 .21.77l.52-.3a2.13 2.13 0 0 1-.73-1.57ZM364.35 458.7a1.78 1.78 0 0 1 .64.6c.31-.53.1-1.15-.64-1.58a2.54 2.54 0 0 1-1.5-2.08v1a2.51 2.51 0 0 0 1.5 2.06Z" class="colorfcba06 svgShape"></path><path fill="#fb05ce" d="M367.56 458.81Z" class="colorfbba05 svgShape"></path><path fill="#e100b8" d="M373.05 455.64a2.5 2.5 0 0 1-1.48 2.08v1a2.47 2.47 0 0 0 1.48-2.14v-.92Z" class="colore19100 svgShape"></path><path fill="url(#ah)" d="M366.07 460.9a8.1 8.1 0 0 1-6.26.43v1a8.1 8.1 0 0 0 6.26-.43 2.56 2.56 0 0 0 1.49-2.07v-1a2.55 2.55 0 0 1-1.49 2.07Z"></path><path fill="#e100b8" d="M369.85 454.54a4.16 4.16 0 0 0-3.78 0 1.31 1.31 0 0 0-.79 1.09 1 1 0 0 0 .14.49 1.66 1.66 0 0 1 .65-.6 4.13 4.13 0 0 1 3.78 0 1.63 1.63 0 0 1 .64.6c.31-.53.1-1.12-.64-1.58Z" class="colore19100 svgShape"></path><path d="M384.15 445.94a26.61 26.61 0 0 0-13.69-3h-7.71v1.27a20.83 20.83 0 0 0-4.08 1.76c-7 4.08-7 10.69.09 14.76a20 20 0 0 0 4 1.73v1.32H372a25.65 25.65 0 0 0 12.24-3.05c7.01-4.1 6.97-10.73-.09-14.79Z" style="mix-blend-mode:multiply" fill="url(#ai)"></path><path fill="#4ca5ff" d="M345.91 448.54c0-2.61 1.72-5.22 5.17-7.21a27.6 27.6 0 0 1 24.95 0c3.45 2 5.17 4.6 5.17 7.21s-1.72 5.21-5.17 7.2a27.6 27.6 0 0 1-24.95 0c-3.45-1.99-5.17-4.6-5.17-7.2Z" class="colorffe54c svgShape"></path><path fill="url(#aj)" d="M376 455.74a27.6 27.6 0 0 1-24.95 0c-3.45-2-5.17-4.6-5.17-7.2v5c0 2.61 1.72 5.22 5.17 7.21a27.6 27.6 0 0 0 24.95 0c3.45-2 5.17-4.6 5.17-7.21v-5c.03 2.6-1.69 5.21-5.17 7.2Z"></path><path fill="#3e9eff" d="M353.42 454.39a22.43 22.43 0 0 0 20.27 0c2.58-1.49 4-3.41 4.16-5.36-.19-1.95-1.58-3.87-4.16-5.36a22.35 22.35 0 0 0-20.27 0c-2.58 1.49-4 3.41-4.17 5.36.2 1.97 1.59 3.87 4.17 5.36Z" class="colorffd03e svgShape"></path><path fill="#e100b8" d="M353.42 443.67a22.35 22.35 0 0 1 20.27 0c2.58 1.49 4 3.41 4.16 5.36a4.15 4.15 0 0 0 0-.49c0-2.12-1.4-4.24-4.19-5.85a22.35 22.35 0 0 0-20.27 0c-2.8 1.61-4.2 3.73-4.2 5.85a4.15 4.15 0 0 0 0 .49c.26-1.95 1.65-3.87 4.23-5.36Z" class="colore19100 svgShape"></path><path fill="#e100b8" d="m370.61 446.43 1.36-.78v-.98l-1.36.78v.98z" class="colore19100 svgShape"></path><path fill="#4ca5ff" d="M364.36 448.07a1.15 1.15 0 0 1 0-2.18 4.18 4.18 0 0 1 3.79 0 1.16 1.16 0 0 1 0 2.19l1.71 1c1.7-1 1.94-2.48.75-3.61l1.36-.78-1.72-1-1.35.78a8.15 8.15 0 0 0-6.26.43 2.2 2.2 0 0 0 0 4.17 1.16 1.16 0 0 1 0 2.19 4.19 4.19 0 0 1-3.78 0 1.16 1.16 0 0 1 0-2.19l-1.72-1c-1.69 1-1.94 2.48-.75 3.61l-1.25.72 1.72 1 1.25-.72a8.08 8.08 0 0 0 6.25-.43c1.99-1.16 1.99-3.03 0-4.18Z" class="colorffe54c svgShape"></path><path fill="#fc06cf" d="m355.14 453.38 1.72.99v-.98l-1.72-.99v.98z" class="colorfcba06 svgShape"></path><path fill="#e100b8" d="m356.86 454.37 1.25-.72v-.98l-1.25.72v.98z" class="colore19100 svgShape"></path><path fill="#fc06cf" d="m368.15 449.05 1.71.99v-.98l-1.71-.99v.98z" class="colorfcba06 svgShape"></path><path fill="#e100b8" d="M358.86 450v-1c-.74.43-.95 1.05-.64 1.58a1.7 1.7 0 0 1 .64-.58Z" class="colore19100 svgShape"></path><path fill="#fc06cf" d="M355.65 450.1v1.11a1.81 1.81 0 0 0 .21.77l.52-.3a2.14 2.14 0 0 1-.74-1.57ZM362.64 450a1.74 1.74 0 0 1 .65.6c.31-.53.09-1.15-.65-1.58a2.53 2.53 0 0 1-1.49-2.08v1a2.52 2.52 0 0 0 1.49 2.06Z" class="colorfcba06 svgShape"></path><path fill="#fb05ce" d="M365.85 450.15Z" class="colorfbba05 svgShape"></path><path fill="#e100b8" d="M371.35 447a2.52 2.52 0 0 1-1.49 2.08v1a2.5 2.5 0 0 0 1.49-2.14V447Z" class="colore19100 svgShape"></path><path fill="url(#ak)" d="M364.36 452.24a8.08 8.08 0 0 1-6.25.43v1a8.08 8.08 0 0 0 6.25-.43 2.52 2.52 0 0 0 1.49-2.07v-1a2.54 2.54 0 0 1-1.49 2.07Z"></path><path fill="#e100b8" d="M368.15 445.88a4.18 4.18 0 0 0-3.79 0 1.31 1.31 0 0 0-.78 1.09 1 1 0 0 0 .14.49 1.63 1.63 0 0 1 .64-.6 4.15 4.15 0 0 1 3.79 0 1.7 1.7 0 0 1 .64.6c.31-.53.1-1.15-.64-1.58Z" class="colore19100 svgShape"></path><path fill="#4ca5ff" d="M353.87 439.11c0-2.61 1.72-5.21 5.17-7.2a27.52 27.52 0 0 1 24.95 0c3.45 2 5.17 4.59 5.17 7.2s-1.72 5.22-5.17 7.2a27.52 27.52 0 0 1-24.95 0c-3.45-1.98-5.17-4.59-5.17-7.2Z" class="colorffe54c svgShape"></path><path fill="url(#al)" d="M384 446.31a27.52 27.52 0 0 1-24.95 0c-3.45-2-5.17-4.59-5.17-7.2v5c0 2.61 1.72 5.21 5.17 7.2a27.52 27.52 0 0 0 24.95 0c3.45-2 5.17-4.59 5.17-7.2v-5c-.01 2.61-1.73 5.22-5.17 7.2Z"></path><path fill="#3e9eff" d="M361.38 445a22.43 22.43 0 0 0 20.27 0c2.58-1.49 4-3.41 4.17-5.36-.2-2-1.59-3.87-4.17-5.36a22.43 22.43 0 0 0-20.27 0c-2.58 1.49-4 3.41-4.17 5.36.2 1.91 1.59 3.83 4.17 5.36Z" class="colorffd03e svgShape"></path><path fill="#e100b8" d="M361.38 434.24a22.43 22.43 0 0 1 20.27 0c2.58 1.49 4 3.41 4.17 5.36v-.49c0-2.12-1.4-4.23-4.2-5.85a22.43 22.43 0 0 0-20.27 0c-2.8 1.62-4.2 3.73-4.2 5.85v.49c.26-1.95 1.65-3.87 4.23-5.36Z" class="colore19100 svgShape"></path><path fill="#e100b8" d="m378.57 437.01 1.36-.78v-.99l-1.36.79v.98z" class="colore19100 svgShape"></path><path fill="#4ca5ff" d="M372.32 438.64a1.15 1.15 0 0 1 0-2.18 4.22 4.22 0 0 1 3.79 0 1.16 1.16 0 0 1 0 2.19l1.72 1c1.69-1 1.94-2.48.74-3.61l1.36-.79-1.72-1-1.35.78a8.12 8.12 0 0 0-6.25.44 2.2 2.2 0 0 0 0 4.17 1.15 1.15 0 0 1 0 2.18 4.22 4.22 0 0 1-3.79 0 1.15 1.15 0 0 1 0-2.18l-1.71-1c-1.7 1-1.95 2.47-.76 3.61l-1.25.72 1.72 1 1.25-.73a8.08 8.08 0 0 0 6.25-.43c1.99-1.15 1.99-3.02 0-4.17Z" class="colorffe54c svgShape"></path><path fill="#fc06cf" d="m363.1 443.96 1.72.99v-.98l-1.72-.99v.98z" class="colorfcba06 svgShape"></path><path fill="#e100b8" d="m364.82 444.95 1.25-.72v-.98l-1.25.72v.98z" class="colore19100 svgShape"></path><path fill="#fc06cf" d="m376.11 439.63 1.71.99v-.98l-1.71-.99v.98z" class="colorfcba06 svgShape"></path><path fill="#e100b8" d="M366.82 440.62v-1c-.74.43-.95 1-.64 1.58a1.7 1.7 0 0 1 .64-.58Z" class="colore19100 svgShape"></path><path fill="#fc06cf" d="M363.61 440.68v1.1a1.81 1.81 0 0 0 .21.77l.52-.29a2.11 2.11 0 0 1-.73-1.58ZM370.61 440.62a1.7 1.7 0 0 1 .64.6c.31-.54.1-1.16-.64-1.58a2.54 2.54 0 0 1-1.5-2.09v1a2.54 2.54 0 0 0 1.5 2.07Z" class="colorfcba06 svgShape"></path><path fill="#fb05ce" d="M373.82 440.72Z" class="colorfbba05 svgShape"></path><path fill="#e100b8" d="M379.31 437.55a2.54 2.54 0 0 1-1.48 2.09v1a2.48 2.48 0 0 0 1.48-2.14v-.93Z" class="colore19100 svgShape"></path><path fill="url(#am)" d="M372.32 442.81a8.08 8.08 0 0 1-6.25.43v1a8.12 8.12 0 0 0 6.25-.44 2.51 2.51 0 0 0 1.49-2.06v-1a2.54 2.54 0 0 1-1.49 2.07Z"></path><path fill="#e100b8" d="M376.11 436.46a4.22 4.22 0 0 0-3.79 0 1.33 1.33 0 0 0-.78 1.09 1 1 0 0 0 .14.49 1.78 1.78 0 0 1 .64-.6 4.22 4.22 0 0 1 3.79 0 1.7 1.7 0 0 1 .64.6c.31-.54.1-1.15-.64-1.58Z" class="colore19100 svgShape"></path><path style="mix-blend-mode:multiply" fill="url(#f)" d="M306.66 489.19h30.55v6.4h-30.55z"></path><path style="mix-blend-mode:multiply" fill="url(#an)" d="M322.68 498.42h32.85v6.4h-32.85z"></path><path fill="#a9d2fc" d="M346.89 428.9c-.22-.75-1.83-1.58-3.58-1.73.31-.36.77-.93.59-1.1s-2.34.85-3.08 1.59a5.2 5.2 0 0 1-1.7.87l-.3 3.25a8.26 8.26 0 0 0 3.5-.42 4.31 4.31 0 0 1 3.62.24c.55.26 1.19-1.86.95-2.7Z" class="colorfcd1a9 svgShape"></path><path fill="#453eaf" d="M339.38 432s1.88-1.26-.25-3.48c-6.93-.65-12-5-13.42-12.57-.53-3.21-3.95-3.18-3.95 1.19 0 7.3 5.55 15.53 17.62 14.86Z" class="color423eaf svgShape"></path><path fill="url(#g)" d="M303 493.61c0-5 3.19-5.17 3.19-5.17a11.29 11.29 0 0 0 4.61-.88c3.58-1.35 6.58-1 4.4 3a1.09 1.09 0 0 1-.08.15 2 2 0 0 1-.7.62l-7 4.08c-1.04.64-4.42-.76-4.42-1.8Z"></path><path fill="#471147" d="M303 493.16c.06 1 3.38 2.41 4.44 1.81l7-4.08a7.13 7.13 0 0 0 1-.72c-.07.14-.12.27-.2.42a1.09 1.09 0 0 1-.08.15 2 2 0 0 1-.7.62l-7 4.08c-1 .57-4-.62-4.41-1.63a.75.75 0 0 1 0-.2 3.38 3.38 0 0 1-.05-.45Z" class="color131147 svgShape"></path><path fill="#a9d2fc" d="M304.28 487.78a14.58 14.58 0 0 1 2.17.37c.69-.18 2.95-.26 4.42-.69.44-.13.86-.41 1.32-.06.59.72-.93 2.48-4.07 3.83a1.87 1.87 0 0 1-2.43-.17 2.24 2.24 0 0 0-.79-.89 2 2 0 0 0-.75-.32.56.56 0 0 0 0-.07s-.21-2 .13-2Z" class="colorfcd1a9 svgShape"></path><path fill="url(#ao)" d="M305.85 454.75c-1.4-4.29-2.66-9.22-1.62-14.19 3.14.05 11-1.73 14.15-1.67-1.17 9.46-3.8 17.77-5.38 26.93-1.69 8.9-3.69 15.44-5.36 22.85-.61 1.38-3.57.76-3.57-.07A72.89 72.89 0 0 1 306 466c-.19-3.57.42-7.71-.15-11.25Z"></path><path fill="url(#ap)" d="M318.85 502.85c0-5 3.18-5.17 3.18-5.17a13.17 13.17 0 0 0 4.71-1c3.58-1.34 6.48-.88 4.31 3.14a1 1 0 0 0-.08.15 1.84 1.84 0 0 1-.71.61l-7 4.08c-1.02.62-4.39-.78-4.41-1.81Z"></path><path fill="#471147" d="M318.87 502.4c.06 1 3.38 2.4 4.43 1.8l7-4.08a6.91 6.91 0 0 0 1-.71c-.07.13-.13.27-.2.42a1 1 0 0 0-.08.15 1.84 1.84 0 0 1-.71.61l-7 4.08c-1 .57-4-.62-4.41-1.62a2.11 2.11 0 0 1 0-.21 3.23 3.23 0 0 1-.03-.44Z" class="color131147 svgShape"></path><path fill="#a9d2fc" d="M320.14 497a13.63 13.63 0 0 1 2.18.37c.68-.18 2.94-.26 4.42-.7.44-.13.85-.4 1.32-.05.58.72-.94 2.47-4.07 3.82a1.87 1.87 0 0 1-2.44-.17 2.25 2.25 0 0 0-1.53-1.21.35.35 0 0 0 0-.06s-.22-2 .12-2Z" class="colorfcd1a9 svgShape"></path><path fill="url(#aq)" d="M314.21 461.13c-2.68-10.77-10.77-4.58-10.12-20.57 3.12-.46 16.28 6.55 19.4 6.09 1.82 11.6 1.44 18.75 1.38 28.05-.21 9.06-.8 15.26-1.23 22.84-.37 1.46-3.69 1.35-3.69.47a74.25 74.25 0 0 1-2.08-22.88c-.87-4.49-2.65-9.24-3.66-14Z"></path><path fill="url(#ar)" d="M307.74 457.14c5.07 3.1 13.05 5 18.19 2.75.53-3-4.11-22.76-1.06-28 .67-1.13 2.57-.35 3.39-1.44 1.79-2.38 4.71-9.91 4.71-10.93 0-2.15-1.73-4.38-3.52-5.57-2.44-1.63-5.92-3.81-9-3.21-6.69 1.88-15.72 16.69-18.11 39.18a12 12 0 0 0 5.4 7.22Z"></path><path fill="#a9d2fc" d="M322.61 410.79c2.32-.85 2.46-2 2.72-3.92a9.72 9.72 0 0 1 .35-3.43c1.21-4.21 4.93-7.09 8.16-5.92 6.49 2.35 4.32 5.5 3.11 9.71-1.12 3.91-3.66 6.09-6.74 5.69a2.1 2.1 0 0 0 .52 2.1c-2.54.67-5.84-.84-7.1-1.76s-2.19-1.8-1.02-2.47ZM348.15 439.7c.58.16 1.28-1.19 2.28-1.13s3.11.12 3 .71-1.87.08-1.68.38c.55.87 2.34.44 2.86-.12s1.1-.51.92.12-1.08 3.46-3.53 3.68a14.57 14.57 0 0 1-5.09-.66Z" class="colorfcd1a9 svgShape"></path><path fill="url(#as)" d="M347.66 443.08s2.33-1 .85-3.68C342 437 333.35 428.66 333 419.25c-.6-3.75-4.55-2.6-4.55 2-.05 7.32 7.39 19.32 19.21 21.83Z"></path><path fill="#6f196f" d="M338.5 404.76c.49-2.49-.49-7.14-5-7.91-4.33-.75-6.89 1.83-7.84 5.5-.75 2.89-5.35 10.44-11.73 8.36 1.55 5.83 21.15 11.63 24.57-5.95Z" class="color20196f svgShape"></path><path style="mix-blend-mode:multiply" fill="url(#at)" d="M510.27 529.33h30.11l91.8-53-30.11-17.5-91.8 70.5z"></path><path fill="#f4f6f8" d="m602.07 458.83-91.8 53-41.93-24.21 91.8-53 41.93 24.21z" class="colorf6f6fb svgShape"></path><path fill="#857dfb" d="m468.34 487.62 41.93 24.21 91.8-53-41.93-24.21Zm84-47a17.29 17.29 0 0 0 15.66 0l23.7 13.69c-4.32 2.5-4.32 6.54 0 9l-73.6 42.52a17.27 17.27 0 0 0-15.65 0l-23.71-13.69c4.32-2.5 4.32-6.54 0-9Z" class="color807dfb svgShape"></path><path fill="#857dfb" d="M519.44 482.33c-8.71-5-8.71-13.18 0-18.21s22.83-5 31.53 0 8.71 13.18 0 18.21-22.82 5.02-31.53 0Z" class="color807dfb svgShape"></path><path fill="#f4f6f8" d="M537.65 471.94a2.55 2.55 0 0 0-1.37-2.7l-1.28-.74a8.93 8.93 0 0 0-8.07-.08c-2.19 1.27-2.13 3.36.14 4.67l1.27.73a9 9 0 0 0 4.68.79c-1.39.93-4.7 5.06 1.36 7.2l15.71-9.07c-4.09-3.43-10.85-1.6-12.44-.8Z" class="colorf6f6fb svgShape"></path><path fill="#857dfb" d="M500.13 486c-3.59 2.06-3.59 5.42 0 7.49a14.32 14.32 0 0 0 13 0c3.59-2.07 3.59-5.43 0-7.49a14.32 14.32 0 0 0-13 0Zm10.15 5.86a8.09 8.09 0 0 1-7.33 0c-2-1.17-2-3.07 0-4.24a8.15 8.15 0 0 1 7.33 0c2.03 1.16 2.03 3.06 0 4.23Z" class="color807dfb svgShape"></path><path fill="#3e9eff" d="M570.29 453a14.34 14.34 0 0 0-13 0c-3.59 2.07-3.59 5.42 0 7.49a14.34 14.34 0 0 0 13 0c3.58-2.1 3.58-5.49 0-7.49Z" class="colorffd03e svgShape"></path><path fill="#cee3f8" d="m505.98 499.26 17.15-9.9 1.71.99-17.15 9.9-1.71-.99z" class="colorced3f8 svgShape"></path><path fill="#857dfb" d="m484.74 485.34 14.27-8.24.67.39-14.27 8.24-.67-.39zM486.12 486.14l14.28-8.24.67.39-14.28 8.24-.67-.39zM480.93 483.15l71.46-41.26 1.71.99-71.46 41.25-1.71-.98zM545.6 456.11l17.15-9.9 1.71.99-17.14 9.9-1.72-.99z" class="color807dfb svgShape"></path><path fill="#dae7f5" d="m493.64 489.73-5.42 3.13-3.14-1.81 5.43-3.13 3.13 1.81zM586.28 457.51l-2.71 1.56-3.14-1.8 2.71-1.57 3.14 1.81z" class="colordae0f5 svgShape"></path><path fill="#6f67e9" d="m468.34 488.59 41.93 24.21v-.97l-41.93-24.21v.97z" class="color6b67e9 svgShape"></path><path fill="#5a52cc" d="m510.27 512.8 91.8-53v-.97l-91.8 53v.97z" class="color5652cc svgShape"></path><path fill="#5a52cc" d="m468.34 489.56 41.93 24.21v-.97l-41.93-24.21v.97z" class="color5652cc svgShape"></path><path fill="#453eaf" d="m510.27 513.77 91.8-53v-.97l-91.8 53v.97z" class="color423eaf svgShape"></path><path fill="#6f67e9" d="m468.34 490.54 41.93 24.21v-.98l-41.93-24.21v.98z" class="color6b67e9 svgShape"></path><path fill="#5a52cc" d="m510.27 514.75 91.8-53v-.98l-91.8 53v.98z" class="color5652cc svgShape"></path><path fill="#5a52cc" d="m468.34 491.51 41.93 24.21v-.97l-41.93-24.21v.97z" class="color5652cc svgShape"></path><path fill="#453eaf" d="m510.27 515.72 91.8-53v-.97l-91.8 53v.97z" class="color423eaf svgShape"></path><path fill="#6f67e9" d="m468.34 492.48 41.93 24.21v-.97l-41.93-24.21v.97z" class="color6b67e9 svgShape"></path><path fill="#5a52cc" d="m510.27 516.69 91.8-53v-.97l-91.8 53v.97z" class="color5652cc svgShape"></path><path fill="#5a52cc" d="m468.34 493.45 41.93 24.21v-.97l-41.93-24.21v.97z" class="color5652cc svgShape"></path><path fill="#453eaf" d="m510.27 517.66 91.8-53v-.97l-91.8 53v.97z" class="color423eaf svgShape"></path><path fill="#6f67e9" d="m468.34 494.43 41.93 24.2v-.97l-41.93-24.21v.98z" class="color6b67e9 svgShape"></path><path fill="#5a52cc" d="m510.27 518.63 91.8-53v-.97l-91.8 53v.97z" class="color5652cc svgShape"></path><path fill="#5a52cc" d="m468.34 495.4 41.93 24.21v-.98l-41.93-24.2v.97z" class="color5652cc svgShape"></path><path fill="#453eaf" d="m510.27 519.61 91.8-53v-.98l-91.8 53v.98z" class="color423eaf svgShape"></path><path fill="#6f67e9" d="m468.34 496.37 41.93 24.21v-.97l-41.93-24.21v.97z" class="color6b67e9 svgShape"></path><path fill="#5a52cc" d="m510.27 520.58 91.8-53v-.97l-91.8 53v.97z" class="color5652cc svgShape"></path><path fill="#5a52cc" d="m468.34 497.34 41.93 24.21v-.97l-41.93-24.21v.97z" class="color5652cc svgShape"></path><path fill="#453eaf" d="m510.27 521.55 91.8-53v-.97l-91.8 53v.97z" class="color423eaf svgShape"></path><path fill="#6f67e9" d="m468.34 498.31 41.93 24.21v-.97l-41.93-24.21v.97z" class="color6b67e9 svgShape"></path><path fill="#5a52cc" d="m510.27 522.52 91.8-53v-.97l-91.8 53v.97z" class="color5652cc svgShape"></path><path fill="#5a52cc" d="m468.34 499.29 41.93 24.2v-.97l-41.93-24.21v.98z" class="color5652cc svgShape"></path><path fill="#453eaf" d="m510.27 523.49 91.8-53v-.97l-91.8 53v.97z" class="color423eaf svgShape"></path><path fill="#6f67e9" d="m468.34 500.26 41.93 24.21v-.97l-41.93-24.21v.97z" class="color6b67e9 svgShape"></path><path fill="#5a52cc" d="m510.27 524.47 91.8-53v-.97l-91.8 53v.97z" class="color5652cc svgShape"></path><path fill="#5a52cc" d="m468.34 501.23 41.93 24.21v-.97l-41.93-24.21v.97z" class="color5652cc svgShape"></path><path fill="#453eaf" d="m510.27 525.44 91.8-53v-.97l-91.8 53v.97z" class="color423eaf svgShape"></path><path fill="#6f67e9" d="m468.34 502.21 41.93 24.2v-.97l-41.93-24.21v.98z" class="color6b67e9 svgShape"></path><path fill="#5a52cc" d="m510.27 526.41 91.8-53v-.97l-91.8 53v.97z" class="color5652cc svgShape"></path><path fill="#5a52cc" d="m468.34 503.18 41.93 24.21v-.98l-41.93-24.2v.97z" class="color5652cc svgShape"></path><path fill="#453eaf" d="m510.27 527.39 91.8-53v-.98l-91.8 53v.98z" class="color423eaf svgShape"></path><path fill="#6f67e9" d="m468.34 504.15 41.93 24.21v-.97l-41.93-24.21v.97z" class="color6b67e9 svgShape"></path><path fill="#5a52cc" d="m510.27 528.36 91.8-53v-.97l-91.8 53v.97z" class="color5652cc svgShape"></path><path fill="#5a52cc" d="m468.34 505.12 41.93 24.21v-.97l-41.93-24.21v.97z" class="color5652cc svgShape"></path><path fill="#453eaf" d="m510.27 529.33 91.8-53v-.97l-91.8 53v.97z" class="color423eaf svgShape"></path><path d="M762.08 434a37.32 37.32 0 0 0-12-10.4c-19.14-11.05-48.86-12.24-70.29-3.6l-9.17 2.17a58.16 58.16 0 0 0-7.44 3.6c-10.73 6.19-16.1 14.31-16.1 22.43s5.37 16.25 16.1 22.45c21.46 12.39 56.27 12.39 77.74 0 10.09-5.83 15.43-13.36 16-21a20.39 20.39 0 0 0-4-13.5Z" style="mix-blend-mode:multiply" fill="url(#au)"></path><path fill="#857dfb" d="m660.19 391.32 31.42 26 38.87-22.44c-19.13-11.01-48.86-12.2-70.29-3.56Z" class="color807dfb svgShape"></path><path fill="#3e9eff" d="m730.48 404.8-38.87 22.44 50.87-12a37.32 37.32 0 0 0-12-10.44Z" class="colorffd03e svgShape"></path><path fill="#ffffff" d="m691.61 437.12-31.42-26a59 59 0 0 0-7.45 3.6c-10.73 6.2-16.1 14.32-16.1 22.44s5.37 16.24 16.1 22.44c21.47 12.4 56.27 12.4 77.74 0 10.09-5.83 15.44-13.35 16-21a20.37 20.37 0 0 0-4-13.49Z" class="colorffffff svgShape"></path><path fill="url(#av)" d="M746.52 438.57c-.6 7.64-5.95 15.16-16 21-21.47 12.4-56.27 12.4-77.74 0-10.09-5.83-15.44-13.35-16-21h-.06v9.6c0 8.12 5.37 16.24 16.1 22.44 21.47 12.39 56.27 12.39 77.74 0 10.09-5.83 15.44-13.36 16-21a19.09 19.09 0 0 0 0-2.62Z"></path><path fill="#e100b8" d="m742.48 425.08-50.87 12.04v-9.88l50.87-12.04v9.88z" class="colore19100 svgShape"></path><path fill="#342e94" d="m730.48 404.8-38.87 22.44v-9.88l38.87-22.44v9.88z" class="color362e94 svgShape"></path><path fill="#5a52cc" d="m691.61 437.12-31.42-26.04v-19.76l31.42 26.04v19.76z" class="color5652cc svgShape"></path><path d="M744.4 428.27a24.1 24.1 0 0 0-1.92-3.19l-50.87 12h15.61Z" style="mix-blend-mode:multiply" fill="url(#aw)"></path><path d="M738.07 410.29a43.24 43.24 0 0 0-7.59-5.49l-38.87 22.44 29-6.87Z" style="mix-blend-mode:multiply" fill="url(#ax)"></path><path style="mix-blend-mode:multiply" fill="url(#i)" d="M674.65 590.57H651.4l-4.45 5.93h27.7v-5.93z"></path><path fill="url(#ay)" d="M651.85 590.56c1.68.5 1.81 3.33.72 5a6.77 6.77 0 0 1-2 .9s-5.71 1.51-6.94 1.44-3.88-.87-3.83-3c.38-1.24 1.55-1.85 3-2.46 1.85-.78 3.45-1.66 4.92-2.15 1.14-.44 4.13.27 4.13.27Z"></path><path fill="#471147" d="M643.71 597.31c1.27.07 7.15-1.48 7.15-1.48a7.08 7.08 0 0 0 2-.89 3.56 3.56 0 0 1-.31.58 6.77 6.77 0 0 1-2 .9s-5.71 1.51-6.94 1.44-3.88-.87-3.83-3a.43.43 0 0 0 .05-.12c.34 1.8 2.72 2.51 3.88 2.57Z" class="color131147 svgShape"></path><path fill="#abd5ff" d="M648.4 588.23a30.76 30.76 0 0 1 3.48 1.85 1.63 1.63 0 0 0 0 .82s0 .09.05.13c.44.56.87 1.52-.77 1.8-3.18.56-5.5-1.84-4.21-2.37.9-.35 1.26-1.6 1.45-2.23Z" class="colorffd3ab svgShape"></path><path fill="#453eaf" d="M646.46 590.72a1.06 1.06 0 0 1 1.7-.13A2.27 2.27 0 0 1 649 593c-.21.67-2.15-.11-2.21-.22s-.33-2.06-.33-2.06Z" class="color423eaf svgShape"></path><path fill="#ffffff" d="M645.38 591.55a4.1 4.1 0 0 1 1.58 2 .57.57 0 0 0 .7.36.56.56 0 0 0 .36-.7 5.21 5.21 0 0 0-2.08-2.62.55.55 0 0 0-.76.19.56.56 0 0 0 .2.77ZM643.54 592.41a4.06 4.06 0 0 1 1.58 2 .57.57 0 0 0 .7.36.56.56 0 0 0 .36-.7 5.29 5.29 0 0 0-2.07-2.63.58.58 0 0 0-.77.2.57.57 0 0 0 .2.77Z" class="colorffffff svgShape"></path><path fill="url(#j)" d="M651.16 532.84c-3.45 19.69-2.55 41.2-3.52 56-.21 1.83 4.09 2.53 5 1.28 2.67-9.89 4.28-19.54 4.28-27.32 3.46-10.62 4.84-18.32 6.77-29.34-2.25.73-10.24-1.34-12.53-.62Z"></path><path fill="url(#az)" d="M685.15 574.82c-.3 2.46-.1 7.48 1.78 7.43 2.61-.07 3.5-2.12 3.77-5.69s.79-7.51-1.32-7.95a5.77 5.77 0 0 0-3.84.59s-.09 3.15-.39 5.62Z"></path><path fill="#471147" d="m690 568.71-.44-.06c2 .58 1.46 4.43 1.19 7.91s-1.11 5.42-3.47 5.65a.92.92 0 0 0 .29 0c2.59-.07 3.48-2.11 3.75-5.64s.73-7.42-1.32-7.86Z" class="color131147 svgShape"></path><path fill="#ffffff" d="M685.13 575.22c1 .06 3.15.12 3.24.12a.53.53 0 0 0 0-1.05s-2.23-.06-3.2-.12a.53.53 0 0 0-.56.49.53.53 0 0 0 .52.56ZM684.94 577.48a13.68 13.68 0 0 0 3.46.15.53.53 0 0 0 .51-.55.53.53 0 0 0-.55-.5 12.77 12.77 0 0 1-3.24-.13.52.52 0 0 0-.18 1Z" class="colorffffff svgShape"></path><path fill="#abd5ff" d="M687.51 569.36a1.72 1.72 0 0 1 1.37 2.26c-.29 1.14-1.26 2.3-2.73 1.67-2.08-.91 1.36-3.93 1.36-3.93Z" class="colorffd3ab svgShape"></path><path fill="url(#l)" d="M687.74 568.53c-1.78-1.41-11.46-6.19-11.46-6.19s-1.51-13.12-2.59-17.91c0-4.31 0-8.63-1.83-11.74l-10 1.71-4.44 1.72s7.43 22.7 9.82 28.56a11.45 11.45 0 0 0 4.46 5.6s9.69 3 14.18 3.14c2.57.32 3.38-3.37 1.86-4.89Z"></path><path fill="#abd5ff" d="M648.9 499.14a18.67 18.67 0 0 1-4.31-3.69c-1.42-1.7-3.86-12.54-4.52-16.42a4.47 4.47 0 0 0-3 1.21c.94 5-1.16 13.95 3 20.82.53.86 3.13 2.61 5.49 4.68.17-3.57 1.38-5.55 3.34-6.6Z" class="colorffd3ab svgShape"></path><path fill="url(#h)" d="M656.28 502.58c-1.51-.8-4.67-2.4-7.38-4a8.63 8.63 0 0 0-4 7.3 69.07 69.07 0 0 0 9.36 7.1s2.15-9.34 2.02-10.4Z"></path><path fill="url(#aA)" d="M670 506.12c-1.91-1.07-4.52-1.92-9.44-3.38-6.17-1.84-8.43-.2-9.35 3.64-2.33 9.7-.94 21.65-.94 25.94 0 2 1.33 3.33 4.39 4.47 4.61 1.71 11.06 1.44 15.67-.28 2.08-.78 3.43-1.92 3.39-2.28-.54-4.95-1.78-27.03-3.72-28.11Z"></path><path fill="url(#aB)" d="M668.63 516.57c1.57-.73 6.41-4.07 6.41-4.07-.83-1.71-1.81-6-7.63-7.55-4.81 3.79-.1 10.76 1.22 11.62Z"></path><path fill="#abd5ff" d="M664.68 495.58c.57-1.6-5.86.43-6.13 2.65-.22 1.8.38 3.82-2.1 4.16-.73.35-3.62 3.28-.4 4.07 4.61 1.12 6.13.13 10.13-2-1.64-.95-3.32-3.71-1.5-8.88Z" class="colorffd3ab svgShape"></path><path fill="#6f196f" d="M654.65 505.53s.85-.82 1.48-.64.61 1.25.36 1.71a1.29 1.29 0 0 1-1.84-1.07Z" class="color20196f svgShape"></path><path fill="#6f196f" d="M654.8 505.78c-2.93 7.94-2.6 19.44 2.51 29.62l2 .76.82-2.65c-4.29-6.72-6.48-18.93-4.29-27.1-.32-.21-1.04-.63-1.04-.63Z" class="color20196f svgShape"></path><path fill="#abd5ff" d="m666.24 494.91-1.55-3.76-10-2.31-1.39 6c-.77 3.33.85 6.54 3.61 7.18a5.63 5.63 0 0 0 6.56-4.19l1.31-.14Z" class="colorffd3ab svgShape"></path><path fill="#9fc9f4" d="M657.27 503.83c2.74.27 5.73-2.73 6.19-6a5.64 5.64 0 0 1-6.06 4.25 2.81 2.81 0 0 1-.95.28 1.35 1.35 0 0 0-.21.13c-.11.51.59 1.3 1.03 1.34Z" class="colorf4c59f svgShape"></path><path fill="#6f196f" d="M655.89 486.25c-.88-.37-.79-1.15 3.22-1.58 2.4-.56 5.53-.18 7.23 1.5 2.29 2.28 2.54 4.91 1.35 7.86a17.18 17.18 0 0 1-3.28 5.08c-.37.23-.62-.86-.14-1.85a2 2 0 0 0 .56-.82c1.43-2.94-.58-2.92-.9-2.72-.65.11-.1 2.95-1.77 2.29-.8-.31-.15-2.61 0-3.43a2.82 2.82 0 0 0-.4 0c-1.6.46-6.56-.08-3.49-1.14-1.87-.43-4.61-.15-5.2-1.54-.65-1.62 1.34-2.78 2.82-3.65Z" class="color20196f svgShape"></path><path fill="#cee3f8" d="M656.13 504.89a3.19 3.19 0 0 1 0 2.14c1.41.39 6.5 1 10.08-2.53.07-.32-1.31-1.53-1.31-1.53a10 10 0 0 1-8.77 1.92Z" class="colorced3f8 svgShape"></path><path fill="#cee3f8" d="M656.13 504.89a2.73 2.73 0 0 0-1.65.85 3.22 3.22 0 0 1 1.58-3.28 2.33 2.33 0 0 1 1.15-.27 2.81 2.81 0 0 0-1.08 2.7Z" class="colorced3f8 svgShape"></path><path fill="#9fc9f4" d="M636 472.52a2.1 2.1 0 0 1 2.09-2.28c.72 0 1.86 1.35 1.9 2a21.68 21.68 0 0 1 0 2.3c.38-.21 1-.42 1-.21a15.53 15.53 0 0 0-.84 1.93c0 .56.1 2.71-.23 3.21s-.84.64-1.88.45a3 3 0 0 1-2.09-2.85c-.03-1.42.05-4.55.05-4.55Z" class="colorf4c59f svgShape"></path><path fill="#abd5ff" d="M679.68 524.78a66.05 66.05 0 0 0-4.82-12.15c-1 .7-4.25 2.88-5.8 3.72 2.5 4.9 4.3 7.36 5.62 10.46a84.21 84.21 0 0 1-5.26 11.19c-.87.95 1.65 3.24 3 1.58 3.44-4.1 4.5-5.42 6-8.18 1.58-3.06 1.58-4.74 1.26-6.62Z" class="colorffd3ab svgShape"></path><path fill="#abd5ff" d="M669.42 538c-.57.57-1.86.43-2.66.61s-2.25.9-2.09 1.08 1.9-.37 2.13 0-3.33 3.4-3 4.1a2.79 2.79 0 0 0 3.7 1.53c2.22-.87 4.22-4.28 4.94-5.74a9.39 9.39 0 0 0-3.02-1.58Z" class="colorffd3ab svgShape"></path><path style="mix-blend-mode:multiply" fill="url(#aC)" d="M647.05 595.91V584.3h-39.77l-1.93 5.79h11.99l-1.91 5.82h31.62z"></path><path fill="url(#k)" d="M601.55 588.12c0-5 3.17-5.14 3.17-5.14a13.06 13.06 0 0 0 4.5-1.16c2.76-1.14 6.63-.7 4.47 3.3l-.08.14a1.89 1.89 0 0 1-.7.62l-6.91 4.06c-1.08.61-4.43-.79-4.45-1.82Z"></path><path fill="#471147" d="M601.56 587.67c.06 1 3.37 2.4 4.42 1.8l6.93-4.06a7.17 7.17 0 0 0 1-.71c-.06.13-.11.26-.19.42l-.08.14a1.89 1.89 0 0 1-.7.62l-6.94 4.06c-1 .57-4-.62-4.39-1.62a.81.81 0 0 1 0-.2c-.06-.12-.05-.3-.05-.45Z" class="color131147 svgShape"></path><path fill="#a7d0fa" d="M603.63 581.88a18.65 18.65 0 0 1 3.36.8 1.74 1.74 0 0 0 .28.81.44.44 0 0 1 .08.11c.62.43 1.25 1.11-.22 2a2 2 0 0 1-2.64-.19 2.48 2.48 0 0 0-.86-1 2 2 0 0 0-.82-.34.2.2 0 0 0 0-.08s.44-2.11.82-2.11Z" class="colorfacfa7 svgShape"></path><path fill="url(#aD)" d="M603.43 529.8c3.42.06 9.54.72 13 .78-1.28 10.29-1.93 17.76-3.64 27.72-1.84 9.68-3.91 16.49-5.72 24.55-.66 1.5-3.25 1.09-3.86-.35.68-9.38-.86-16.63 1.34-25.18-.19-4.86.56-10.77-.22-13a26.62 26.62 0 0 1-.9-14.52Z"></path><path fill="url(#aE)" d="M611.62 593.94c0-5 3.17-5.15 3.17-5.15a13.08 13.08 0 0 0 4.51-1.16c2.75-1.14 6.63-.7 4.46 3.31l-.07.14a1.89 1.89 0 0 1-.7.62l-6.93 4.06c-1.06.6-4.41-.76-4.44-1.82Z"></path><path fill="#471147" d="M611.64 593.49c.06 1 3.37 2.4 4.42 1.8l6.93-4.06a7.86 7.86 0 0 0 1-.71l-.2.42-.07.14a1.89 1.89 0 0 1-.7.62l-6.93 4.06c-1 .56-4-.62-4.39-1.62a.88.88 0 0 1 0-.2 2.26 2.26 0 0 1-.06-.45Z" class="color131147 svgShape"></path><path fill="#a7d0fa" d="M613.41 587.69a23.44 23.44 0 0 1 3.65.8 1.76 1.76 0 0 0 .28.82.48.48 0 0 1 .09.11c.62.43 1.25 1.11-.22 2a2.06 2.06 0 0 1-2.65-.19 2.38 2.38 0 0 0-.85-1 2.1 2.1 0 0 0-.82-.34v-.08s.11-2.12.52-2.12Z" class="colorfacfa7 svgShape"></path><path fill="url(#aF)" d="M608 534.84c3.43.06 11.51.87 14.93.93 2.17 12.11 1.58 18.39-.14 28.35-1.83 9.68-3.9 16.49-5.71 24.55-.66 1.5-3.48.93-4.09-.51.45-8.36-.63-16.47 1.57-25-.4-5-1.16-12.58-1.79-14.28-1.17-3.27-5.36-7.1-4.77-14.04Z"></path><path fill="#a7d0fa" d="M635.77 479.69A10.68 10.68 0 0 1 635 477c-.1-1.66-.78-2.6-.6-2.78s.88.15.88.15c0-.33-.25-2.35.18-2.83.29-.31 1-1.08 1.73-.9a3.05 3.05 0 0 1 2 1.73c.18 1 .32 6.83 0 7.21a7.32 7.32 0 0 0-.71 1.78l-2.72-.39a2 2 0 0 0 .01-1.28Z" class="colorfacfa7 svgShape"></path><path fill="#a50b89" d="M604.63 499.62c-2 1.9-4.44 7.74-5.07 14.06-.49 4.93.13 10.15 3 14 3.69-4.84 2.07-28.06 2.07-28.06Z" class="colordc8b00 svgShape"></path><path fill="url(#aG)" d="M635.63 480.07c-.6 1.14-4.32 11.7-5.25 12.72-2 2.26-5.66 6.18-10.7 7.12a8.69 8.69 0 0 1-1.9.12 9.16 9.16 0 0 1-2.12-1.26c-2.53-2-3.9-3.12-5.11-3.37-10-2-8.73 15.62-7.9 34.67.78 5.07 1.86 5.6 3.71 6.69 4.48 2.39 14.58 4.47 17.2-.59A52.17 52.17 0 0 1 620 520c-.08-3.13 2.1-5.63 2.84-9.13a11.78 11.78 0 0 0-.5-2.26c7.36-4.1 12-10.85 12.81-12.77a87.69 87.69 0 0 0 3.59-14.36 2.45 2.45 0 0 0-3.11-1.41Z"></path><path fill="#6f196f" d="M619.81 487.69c-.81-3-3.85-7.92-9.32-6.75-5.28 1.14-6.53 4.56-6.41 9.89.07 3.39-1.37 3-2 5.39-.37 1.44.72 3.4-.4 5.44a5.33 5.33 0 0 1-2.87 2.54c-4 1.67-1.38 3.62 1 4.14 5.72 1.26 3.36-1.44 5.82-1.94 1.44-.29 4.08 1.08 5.43.39 2.65-1.36 1.69-2.83 2.93-4.2s2.77-1.13 4.56-3.3a5.26 5.26 0 0 0 .83-6c-.72-1.61 1.05-3.29.43-5.6Z" class="color20196f svgShape"></path><path d="M618.27 521.82c1.38 2.68 2.87 13.09 2.73 16.66a5.11 5.11 0 0 0 2.56-2.31A52.17 52.17 0 0 1 620 520c-.08-3.13 2.1-5.63 2.84-9.13a11.78 11.78 0 0 0-.5-2.26c-1.57 1.57-2.94 3-3.41 4.33s-2.04 6.19-.66 8.88Z" style="mix-blend-mode:multiply" fill="url(#aH)"></path><g clip-path="url(#aI)" fill="#010001" class="color000000 svgShape"><path d="M459.27 395a26.49 26.49 0 0 0-13.65-3h-21.05v1.26a19.94 19.94 0 0 0-4.07 1.74c-7 4.06-6.95 10.65.09 14.71a20.45 20.45 0 0 0 4 1.73v1.31h22.58a25.57 25.57 0 0 0 12.2-3c6.97-4.13 6.94-10.75-.1-14.75Z" style="mix-blend-mode:multiply" fill="url(#o)"></path><path fill="#50a7ff" d="M407.06 372.48c0-2.6 1.71-5.2 5.15-7.18a27.46 27.46 0 0 1 24.88 0c3.43 2 5.15 4.58 5.15 7.18s-1.72 5.2-5.15 7.18a27.46 27.46 0 0 1-24.88 0c-3.44-1.98-5.15-4.58-5.15-7.18Z" class="colorffe950 svgShape"></path><path fill="url(#aJ)" d="M437.09 379.66a27.46 27.46 0 0 1-24.88 0c-3.44-2-5.15-4.58-5.15-7.18v5c0 2.6 1.71 5.2 5.15 7.19a27.54 27.54 0 0 0 24.88 0c3.43-2 5.15-4.59 5.15-7.19v-5c0 2.6-1.72 5.2-5.15 7.18Z"></path><path fill="url(#m)" d="M437.09 384.68a27.54 27.54 0 0 1-24.88 0c-3.44-2-5.15-4.59-5.15-7.19v5c0 2.6 1.71 5.2 5.15 7.18a27.54 27.54 0 0 0 24.88 0c3.43-2 5.15-4.58 5.15-7.18v-5c0 2.6-1.72 5.2-5.15 7.19Z"></path><path fill="url(#aK)" d="M437.09 389.69a27.54 27.54 0 0 1-24.88 0c-3.44-2-5.15-4.58-5.15-7.18v5c0 2.6 1.71 5.2 5.15 7.18a27.46 27.46 0 0 0 24.88 0c3.43-2 5.15-4.58 5.15-7.18v-5c0 2.6-1.72 5.2-5.15 7.18Z"></path><path fill="url(#aL)" d="M437.09 394.7a27.46 27.46 0 0 1-24.88 0c-3.44-2-5.15-4.58-5.15-7.18v5c0 2.6 1.71 5.19 5.15 7.18a27.54 27.54 0 0 0 24.88 0c3.43-2 5.15-4.58 5.15-7.18v-5c0 2.6-1.72 5.2-5.15 7.18Z"></path><path fill="url(#aM)" d="M437.09 399.72a27.54 27.54 0 0 1-24.88 0c-3.44-2-5.15-4.58-5.15-7.18v5c0 2.6 1.71 5.2 5.15 7.18a27.46 27.46 0 0 0 24.88 0c3.43-2 5.15-4.58 5.15-7.18v-5c0 2.6-1.72 5.2-5.15 7.18Z"></path><path fill="url(#aN)" d="M437.09 404.73a27.46 27.46 0 0 1-24.88 0c-3.44-2-5.15-4.58-5.15-7.18v5c0 2.59 1.71 5.19 5.15 7.18a27.54 27.54 0 0 0 24.88 0c3.43-2 5.15-4.59 5.15-7.19v-5c0 2.61-1.72 5.21-5.15 7.19Z"></path><path fill="#3e9eff" d="M414.55 378.31a22.29 22.29 0 0 0 20.2 0c2.58-1.48 4-3.4 4.16-5.34-.2-2-1.58-3.86-4.16-5.35a22.39 22.39 0 0 0-20.21 0c-2.57 1.49-4 3.4-4.15 5.35.2 1.94 1.61 3.86 4.16 5.34Z" class="colorffd03e svgShape"></path><path fill="url(#n)" d="M414.54 367.62a22.39 22.39 0 0 1 20.21 0c2.58 1.49 4 3.4 4.16 5.35v-.49c0-2.11-1.4-4.22-4.19-5.83a22.31 22.31 0 0 0-20.21 0c-2.79 1.61-4.18 3.72-4.18 5.83a4.15 4.15 0 0 0 0 .49c.26-1.97 1.67-3.86 4.21-5.35Z"></path><path fill="#e100b8" d="m431.69 370.38 1.35-.78v-.97l-1.35.77v.98z" class="colore19100 svgShape"></path><path fill="#50a7ff" d="M425.45 372a1.14 1.14 0 0 1 0-2.17 4.19 4.19 0 0 1 3.78 0 1.14 1.14 0 0 1 0 2.17l1.71 1c1.69-1 1.93-2.47.75-3.6l1.35-.78-1.71-1-1.36.79a8 8 0 0 0-6.23.43 2.19 2.19 0 0 0 0 4.15 1.15 1.15 0 0 1 0 2.18 4.17 4.17 0 0 1-3.77 0 1.15 1.15 0 0 1 0-2.18l-1.71-1c-1.69 1-1.94 2.47-.75 3.6l-1.25.72 1.71 1 1.25-.72a8 8 0 0 0 6.23-.43c1.99-1.16 1.99-3 0-4.16Z" class="colorffe950 svgShape"></path><path fill="#fc06cf" d="m416.26 377.31 1.71.99v-.98l-1.71-.99v.98z" class="colorfcba06 svgShape"></path><path fill="#e100b8" d="m417.97 378.3 1.25-.72v-.98l-1.25.72v.98z" class="colore19100 svgShape"></path><path fill="#fc06cf" d="m429.23 372.99 1.71.99V373l-1.71-.99v.98z" class="colorfcba06 svgShape"></path><path fill="#e100b8" d="M420 374v-1c-.74.43-1 1.05-.64 1.58a1.63 1.63 0 0 1 .64-.58Z" class="colore19100 svgShape"></path><path fill="#fc06cf" d="M416.77 374v1.1a1.81 1.81 0 0 0 .21.77l.52-.3a2.09 2.09 0 0 1-.74-1.56ZM423.74 374a1.63 1.63 0 0 1 .64.6c.31-.53.1-1.15-.64-1.58a2.52 2.52 0 0 1-1.49-2.08v1a2.52 2.52 0 0 0 1.49 2.06Z" class="colorfcba06 svgShape"></path><path fill="#fb05ce" d="M426.94 374.09Z" class="colorfbba05 svgShape"></path><path fill="#e100b8" d="M432.42 370.92a2.51 2.51 0 0 1-1.48 2.08v1a2.47 2.47 0 0 0 1.48-2.13v-.93Z" class="colore19100 svgShape"></path><path fill="url(#aO)" d="M425.45 376.17a8 8 0 0 1-6.23.43v1a8.12 8.12 0 0 0 6.23-.43 2.54 2.54 0 0 0 1.49-2.06v-1a2.52 2.52 0 0 1-1.49 2.06Z"></path><path fill="#e100b8" d="M429.23 369.84a4.19 4.19 0 0 0-3.78 0 1.32 1.32 0 0 0-.78 1.08 1 1 0 0 0 .14.49 1.76 1.76 0 0 1 .64-.59 4.16 4.16 0 0 1 3.78 0 1.78 1.78 0 0 1 .64.6c.31-.54.13-1.16-.64-1.58Z" class="colore19100 svgShape"></path><path d="M492.43 406.81a26.58 26.58 0 0 0-13.65-3h-21v1.26a20.49 20.49 0 0 0-4.07 1.76c-7 4.07-7 10.66.09 14.72a19.84 19.84 0 0 0 4 1.72v1.32h22.58a25.69 25.69 0 0 0 12.2-3c6.92-4.12 6.89-10.71-.15-14.78Z" style="mix-blend-mode:multiply" fill="url(#aP)"></path><path fill="#50a7ff" d="M440.21 394.36c0-2.6 1.72-5.2 5.16-7.19a27.54 27.54 0 0 1 24.88 0c3.43 2 5.15 4.59 5.15 7.19s-1.72 5.19-5.15 7.18a27.54 27.54 0 0 1-24.88 0c-3.44-1.99-5.16-4.54-5.16-7.18Z" class="colorffe950 svgShape"></path><path fill="url(#aQ)" d="M470.25 401.54a27.54 27.54 0 0 1-24.88 0c-3.44-2-5.16-4.59-5.16-7.18v5c0 2.6 1.72 5.2 5.16 7.18a27.46 27.46 0 0 0 24.88 0c3.43-2 5.15-4.58 5.15-7.18v-5c0 2.64-1.72 5.19-5.15 7.18Z"></path><path fill="url(#aR)" d="M470.25 406.55a27.46 27.46 0 0 1-24.88 0c-3.44-2-5.16-4.58-5.16-7.18v5c0 2.6 1.72 5.2 5.16 7.19a27.54 27.54 0 0 0 24.88 0c3.43-2 5.15-4.59 5.15-7.19v-5c0 2.63-1.72 5.2-5.15 7.18Z"></path><path fill="url(#aS)" d="M470.25 411.57a27.54 27.54 0 0 1-24.88 0c-3.44-2-5.16-4.59-5.16-7.18v5c0 2.6 1.72 5.2 5.16 7.18a27.46 27.46 0 0 0 24.88 0c3.43-2 5.15-4.58 5.15-7.18v-5c0 2.61-1.72 5.19-5.15 7.18Z"></path><path fill="url(#aT)" d="M470.25 416.58a27.46 27.46 0 0 1-24.88 0c-3.44-2-5.16-4.58-5.16-7.18v5c0 2.6 1.72 5.2 5.16 7.19a27.54 27.54 0 0 0 24.88 0c3.43-2 5.15-4.59 5.15-7.19v-5c0 2.6-1.72 5.2-5.15 7.18Z"></path><path fill="#3e9eff" d="M447.7 400.19a22.31 22.31 0 0 0 20.21 0c2.57-1.49 4-3.4 4.15-5.35-.19-1.94-1.58-3.85-4.15-5.34a22.39 22.39 0 0 0-20.21 0c-2.57 1.49-3.95 3.4-4.15 5.34.2 1.95 1.58 3.86 4.15 5.35Z" class="colorffd03e svgShape"></path><path fill="url(#aU)" d="M447.7 389.5a22.39 22.39 0 0 1 20.21 0c2.57 1.49 4 3.4 4.15 5.34a3.87 3.87 0 0 0 0-.48c0-2.12-1.39-4.23-4.18-5.84a22.39 22.39 0 0 0-20.21 0c-2.79 1.61-4.18 3.72-4.18 5.84a3.87 3.87 0 0 0 0 .48c.26-1.94 1.64-3.84 4.21-5.34Z"></path><path fill="#e100b8" d="m464.85 392.26 1.35-.78v-.98l-1.35.78v.98z" class="colore19100 svgShape"></path><path fill="#50a7ff" d="M458.61 393.89a1.15 1.15 0 0 1 0-2.18 4.17 4.17 0 0 1 3.77 0 1.15 1.15 0 0 1 0 2.18l1.72 1c1.69-1 1.93-2.47.74-3.6l1.36-.78-1.72-1-1.35.78a8.08 8.08 0 0 0-6.23.44 2.19 2.19 0 0 0 0 4.15 1.15 1.15 0 0 1 0 2.18 4.17 4.17 0 0 1-3.77 0 1.15 1.15 0 0 1 0-2.18l-1.72-1c-1.69 1-1.93 2.47-.75 3.6l-1.24.72 1.71 1 1.25-.72a8.12 8.12 0 0 0 6.23-.43c1.99-1.15 1.99-3.05 0-4.16Z" class="colorffe950 svgShape"></path><path fill="#fc06cf" d="m449.42 399.19 1.71.99v-.98l-1.71-.99v.98z" class="colorfcba06 svgShape"></path><path fill="#e100b8" d="m451.13 400.18 1.25-.72v-.98l-1.25.72v.98z" class="colore19100 svgShape"></path><path fill="#fc06cf" d="m462.38 394.87 1.72.99v-.98l-1.72-.99v.98z" class="colorfcba06 svgShape"></path><path fill="#e100b8" d="M453.13 395.86v-1c-.74.43-.95 1-.64 1.58a1.56 1.56 0 0 1 .64-.58Z" class="colore19100 svgShape"></path><path fill="#fc06cf" d="M449.93 395.92V397a2 2 0 0 0 .22.77l.51-.3a2.12 2.12 0 0 1-.73-1.57ZM456.9 395.86a1.7 1.7 0 0 1 .64.6c.31-.54.1-1.15-.64-1.58a2.52 2.52 0 0 1-1.49-2.08v1a2.55 2.55 0 0 0 1.49 2.06Z" class="colorfcba06 svgShape"></path><path fill="#fb05ce" d="M460.1 396Z" class="colorfbba05 svgShape"></path><path fill="#e100b8" d="M465.58 392.8a2.52 2.52 0 0 1-1.48 2.08v1a2.48 2.48 0 0 0 1.48-2.14v-.93Z" class="colore19100 svgShape"></path><path fill="url(#aV)" d="M458.61 398.05a8.12 8.12 0 0 1-6.23.43v1a8.08 8.08 0 0 0 6.23-.44 2.52 2.52 0 0 0 1.49-2v-1a2.54 2.54 0 0 1-1.49 2.01Z"></path><path fill="#e100b8" d="M462.38 391.71a4.17 4.17 0 0 0-3.77 0 1.33 1.33 0 0 0-.78 1.09 1 1 0 0 0 .14.49 1.7 1.7 0 0 1 .64-.6 4.17 4.17 0 0 1 3.77 0 1.66 1.66 0 0 1 .65.6c.31-.54.09-1.15-.65-1.58Z" class="colore19100 svgShape"></path></g><path fill="#453eaf" d="M521.5 371.58a1.21 1.21 0 0 1 2 1.15 4.39 4.39 0 0 1-2 3.45c-1.1.64-2 .12-2-1.15l-1.81 1.05c0 2.06 1.23 3.08 2.9 2.59v1.64l1.82-1v-1.65a8.54 8.54 0 0 0 2.89-5.94 2.31 2.31 0 0 0-3.8-2.19c-1.1.63-2 .12-2-1.15a4.43 4.43 0 0 1 2-3.46c1.1-.63 2-.12 2 1.16l1.8-1.08c0-2.06-1.23-3.08-2.89-2.59v-1.52l-1.82 1.05v1.52a8.52 8.52 0 0 0-2.91 5.93c.02 2.42 1.72 3.4 3.82 2.19Z" class="color423eaf svgShape"></path><path d="M308.45 383.29 256.06 353c-4.95-2.86-13.06-2.86-18 0l-101.5 58.61c-5 2.87-5 7.54 0 10.4l47.1 27.21v5.18h14.79a18.17 18.17 0 0 0 8.51-2.13l101.51-58.61c4.94-2.83 4.94-7.5-.02-10.37Z" style="mix-blend-mode:multiply" fill="url(#p)"></path><path fill="#f4f6f8" d="M241.59 344.83c-5-2.86-13.06-2.86-18 0l-101.5 58.6c-5 2.87-5 7.55 0 10.41l52.38 30.25c5 2.85 13.06 2.85 18 0L294 385.48c5-2.86 5-7.54 0-10.41Z" class="colorf6f6fb svgShape"></path><path fill="url(#aW)" d="m294 385.48-101.53 58.61c-5 2.85-13.06 2.85-18 0l-52.38-30.25c-2.39-1.37-3.61-3.17-3.7-5v8c0 1.88 1.23 3.77 3.72 5.2l52.38 30.25c5 2.87 13.06 2.87 18 0L294 393.7c2.58-1.49 3.8-3.47 3.7-5.43v-7.77c-.11 1.81-1.34 3.61-3.7 4.98Z"></path><path d="M184.41 367.44v51.19h52.15L294 385.48c5-2.86 5-7.54 0-10.41l-14.48-8.36h-93.85Z" style="mix-blend-mode:multiply" fill="url(#aX)"></path><path fill="#bbd0e6" d="M242.65 365a86.74 86.74 0 0 1-4.08-27.54l-7.21-4.16c0 1.84 0 4.65.25 8.18l-58.53 33.79c0 6.18 0 24.71 11.33 43.41l65.49-37.8Z" class="colorbbc0e6 svgShape"></path><path fill="#b4bdc6" d="m238.57 337.41-65.49 37.81-7.21-4.16 65.49-37.81 7.21 4.16z" class="colorc6b4bb svgShape"></path><path fill="#cee3f8" d="M184.41 418.63c-11.32-18.7-11.33-37.23-11.33-43.41l-7.21-4.15a96.73 96.73 0 0 0 8.91 42Z" class="colorced3f8 svgShape"></path><path d="M176.69 401.27 169 396.8a95.76 95.76 0 0 1-2.51-13.93l7.28 4.21a83.21 83.21 0 0 0 2.92 14.19Z" style="mix-blend-mode:multiply" fill="#d8e5f3" class="colord8def3 svgShape"></path><path fill="#6f196f" d="M347 81c0-5.72-4.05-8.06-9-5.2L95.2 216c-5 2.86-9 9.88-9 15.6v162.7L347 243.73Z" class="color20196f svgShape"></path><path fill="url(#aY)" d="M328.22 70.15 85.43 210.32c-5 2.86-9 9.88-9 15.61v162.73l9.77 5.64V231.56c0-5.72 4-12.74 9-15.6L338 75.79a7 7 0 0 1 5.4-1l-7.82-4.45c-1.64-1.74-4.33-1.94-7.36-.19Z"></path><path fill="#c8daed" d="M86.2 394.3v32.9c0 5.72 4 8.06 9 5.2L338 292.23c5-2.86 9-9.88 9-15.6v-32.9Z" class="colorc8cded svgShape"></path><path fill="#dfe9f4" d="M86.2 427.2v-32.9l-9.77-5.64v32.9c0 2.88 1 4.9 2.67 5.83l9.37 5.37c-1.41-1.02-2.27-2.93-2.27-5.56Z" class="colordfe4f4 svgShape"></path><path fill="#ffffff" d="M337.99 248.93 95.2 389.1V226.36L337.99 86.19v162.74z" class="colorffffff svgShape"></path><path fill="#cee3f8" d="m174.51 323.61-11.45 6.61v-16.04l11.45-6.61v16.04z" class="colorced3f8 svgShape"></path><path fill="#857dfb" d="m190.44 314.41-11.45 6.61v-25.47l11.45-6.61v25.47z" class="color807dfb svgShape"></path><path fill="#cee3f8" d="m206.37 305.22-11.45 6.61v-37.02l11.45-6.61v37.02z" class="colorced3f8 svgShape"></path><path fill="#857dfb" d="m222.3 296.02-11.45 6.61v-53.78l11.45-6.61v53.78z" class="color807dfb svgShape"></path><path fill="#cee3f8" d="m238.23 286.82-11.45 6.62v-62.73l11.45-6.62v62.73z" class="colorced3f8 svgShape"></path><path fill="#857dfb" d="m254.16 277.63-11.45 6.61v-80.19l11.45-6.61v80.19z" class="color807dfb svgShape"></path><path fill="#cee3f8" d="m270.08 268.43-11.45 6.61v-95.28l11.45-6.61v95.28z" class="colorced3f8 svgShape"></path><path fill="#5a52cc" d="m266.96 155.46-11.04 11.03 1.6 1.46-89.33 131.53 1.19 1.08 89.32-131.53 1.6 1.46 6.66-15.03zM140.44 262.23c-1.27 4.64-4.52 9.3-8.34 11.51-4.93 2.84-8.92.54-8.92-5.15s4-12.59 8.92-15.43V248c-7.39 4.27-13.38 14.64-13.38 23.17s6 12 13.38 7.72c5.73-3.31 10.61-10.31 12.51-17.26Z" class="color5652cc svgShape"></path><path fill="#fc06cf" d="M142.68 247.91c1.74 1.61 2.79 4.26 2.79 7.82 0 8.53-6 18.9-13.37 23.16s-13.38.81-13.38-7.72c0-6.33 3.31-13.68 8-18.79l-1.72-3.69c-6.3 6.81-10.71 16.61-10.71 25.05 0 11.37 8 16 17.83 10.29s17.82-19.51 17.82-30.87c0-4.74-1.39-8.29-3.71-10.43Z" class="colorfcba06 svgShape"></path><path fill="#5a52cc" d="M123.4 322a13.87 13.87 0 0 1 .8-7.46c2.28-6.35 7.67-11.41 12-11.29l2.07-5.76c-6.54-.18-14.63 7.41-18.05 16.94a20.85 20.85 0 0 0-1.21 11.2Z" class="color5652cc svgShape"></path><path fill="#fc06cf" d="M143.85 315.28c-2.26 6.12-6.68 11.94-11.75 14.87-7.39 4.27-13.38.81-13.38-7.72s6-18.9 13.38-23.17v-5.14c-9.85 5.69-17.83 19.51-17.83 30.88s8 16 17.83 10.29c6.76-3.91 12.65-11.66 15.66-19.81Z" class="colorfcba06 svgShape"></path><path fill="#5a52cc" d="m312.76 145.24-1.93 5.76c3-.06 5 2.27 5 6.35 0 5.68-4 12.59-8.91 15.43s-8.92.54-8.92-5.14 4-12.64 9-15.44v-5.15c-7.39 4.26-13.38 14.63-13.38 23.17s6 12 13.38 7.72 13.37-14.64 13.37-23.17c-.04-6.12-3.13-9.61-7.61-9.53Z" class="color5652cc svgShape"></path><path fill="#fc06cf" d="m292.74 183.12 3.55-5.15c-2.85-2.71-3.61-8.24-1.53-14.77l-4.06.23c-2.77 8.7-1.76 16.07 2.04 19.69Z" class="colorfcba06 svgShape"></path><path fill="#5a52cc" d="M314.89 204.48a8 8 0 0 1 1 4.12c0 5.69-4 12.6-8.91 15.44s-8.92.54-8.92-5.14 4-12.6 8.92-15.44v-5.16c-7.39 4.27-13.38 14.64-13.38 23.17s6 12 13.38 7.72 13.37-14.63 13.37-23.16a11.94 11.94 0 0 0-1.48-6.18Z" class="color5652cc svgShape"></path><path fill="#fc06cf" d="M307 229.19c7.38-4.26 13.37-14.63 13.37-23.16 0-3.95-1.29-6.79-3.4-8.3l3.33-5.35c2.81 2 4.52 5.82 4.52 11.08 0 11.37-8 25.19-17.82 30.87s-17.83 1.08-17.83-10.29l4.45-2.57c-.04 8.53 5.95 11.99 13.38 7.72Z" class="colorfcba06 svgShape"></path><g style="mix-blend-mode:multiply" fill="#010001" class="color000000 svgShape"><path fill="url(#q)" d="M157.22 549.35c8.24-7.82 6.53-18.16-5.16-24.91-8.36-4.83-19.92-6.7-30.79-5.64a47.66 47.66 0 0 1 19 5.63c11.69 6.76 13.4 17.1 5.16 24.91l8.65 5-11.84 6.83H154l11.85-6.84Z"></path><path fill="url(#aZ)" d="M76.13 524.44c-7.22-4.16-7.22-10.93 0-15.08a23.37 23.37 0 0 1 7.17-2.55c-6.45-1.26-13.87-.42-19 2.54-7.21 4.16-7.21 10.93 0 15.08a26.5 26.5 0 0 0 13.06 3.13 30.59 30.59 0 0 0 5.9-.57 22.89 22.89 0 0 1-7.13-2.55Z"></path><path fill="url(#ba)" d="m102.26 502.51-11.82 6.84h11.81l11.84-6.84c-8.35-4.83-19.88-6.69-30.73-5.64a47.49 47.49 0 0 1 18.9 5.64Z"></path><path fill="url(#bb)" d="M121.25 528.73c-6.44-1.26-13.85-.41-19 2.54a47.47 47.47 0 0 1-19 5.66c2 .19 3.93.31 5.94.31 9.41 0 18.27-2.12 24.91-6a23.14 23.14 0 0 1 7.15-2.51Z"></path><path fill="url(#bc)" d="M133.58 556.19a53.55 53.55 0 0 1-12.41 2.64 60.52 60.52 0 0 0 16-.54Z"></path></g><path fill="url(#bd)" d="m97 549.39-6.56-3v6.76c11.68 6.76 29.6 7.74 43.15 3v-6.76a58.25 58.25 0 0 1-36.59 0Z"></path><path fill="#fc06cf" d="m37.92 500.96 9.35 5.41v-6.77l-9.35-5.4v6.76zM133.58 556.18l8.64 4.99v-6.77l-8.64-4.98v6.76z" class="colorfcba06 svgShape"></path><path fill="#a50b89" d="m90.43 509.36 11.84-6.85v-6.77l-11.84 6.84v6.78zM142.22 561.17l11.83-6.85v-6.76l-11.83 6.84v6.77z" class="colordc8b00 svgShape"></path><path fill="#3e9eff" d="M90.42 517.66a26.48 26.48 0 0 1-13.06 3.13 26.5 26.5 0 0 1-13.06-3.13c-7.22-4.15-7.22-10.92 0-15.07s18.92-4.16 26.14 0l11.83-6.85c-11.68-6.75-29.6-7.73-43.14-3l-9.35-5.4-11.86 6.86 9.35 5.4c-8.21 7.81-6.49 18.15 5.19 24.9 6.66 3.85 15.48 6 24.9 6s18.27-2.11 24.91-6c7.2-4.15 18.92-4.16 26.12 0s7.21 10.93 0 15.09-18.92 4.15-26.12 0l-11.84 6.84c11.68 6.76 29.6 7.74 43.15 3l8.62 5 11.85-6.84-8.65-5c8.24-7.81 6.53-18.15-5.16-24.91-13.72-7.94-36.09-7.94-49.82-.02Z" class="colorffd03e svgShape"></path><path fill="url(#be)" d="M64.29 502.59c-5.11 2.94-6.58 7.2-4.43 10.91a11.63 11.63 0 0 1 4.43-4.15c7.18-4.16 18.92-4.16 26.14 0v-6.76c-7.22-4.16-18.96-4.16-26.14 0Z"></path><path fill="url(#bf)" d="M128.39 531.27a11.76 11.76 0 0 1 4.44 4.16l.27-.49c1.74-3.6.18-7.62-4.71-10.44-7.2-4.16-18.92-4.15-26.12 0-6.64 3.85-15.5 6-24.91 6s-18.24-2.11-24.9-6-10-8.68-10.26-13.64v6.33c.11 5.11 3.51 10.2 10.25 14.09s15.48 6 24.9 6 18.27-2.12 24.91-6c7.21-4.17 18.93-4.17 26.13-.01Z"></path><path fill="#fc06cf" d="M133.58 549.42v6.76l8.61 4.98v-6.76l-8.61-4.98z" class="colorfcba06 svgShape"></path><path fill="#a50b89" d="M150.49 538.83v-7.14c.11 3.77-1.58 7.56-5.09 10.88l3.61 2.08a12.48 12.48 0 0 0 1.48-5.82Z" class="colordc8b00 svgShape"></path><path style="mix-blend-mode:multiply" fill="#f1f3f6" d="m137.2 558.28-3.62-8.86v6.77l3.62 2.09z" class="colorf1f1f6 svgShape"></path></g></g></g></svg>