<svg xmlns="http://www.w3.org/2000/svg" viewBox="0 0 2000 2000" id="IsometricELibrary"><path fill="#f4f6f8" d="m882.479 556.862 1.035 364.985 5.552 3.226-1.035-364.984z" class="color7cdf82 svgShape"></path><path fill="#7b75d1" d="m888.031 560.089 1.035 364.984 224.4-129.558-1.035-364.984z" class="color75d178 svgShape"></path><path fill="#acd2f9" d="m882.479 556.862 5.552 3.227 224.4-129.558-5.551-3.226z" class="coloracf9ac svgShape"></path><path fill="#7b75d1" d="m871.654 569.544 1.035 364.984 10.932-6.312-1.034-364.984z" class="color75d178 svgShape"></path><path fill="#f4f6f8" d="m875.86 577.449 48.96 28.452 228.955-132.187-48.96-28.452z" class="colore7f1f7 svgShape"></path><path fill="#7b75d1" d="m918.873 603.458 1.034 364.984 16.521-9.538-1.035-364.984z" class="color75d178 svgShape"></path><path fill="#f4f6f8" d="m860.515 569.544 1.034 364.984 58.358 33.914-1.034-364.984z" class="color7cdf82 svgShape"></path><path fill="#acd2f9" d="m860.515 569.544 58.358 33.914 16.52-9.538-5.537-3.218-10.933 6.311-47.269-27.469 10.933-6.312-5.552-3.226z" class="coloracf9ac svgShape"></path><path fill="#f4f6f8" d="m935.3 587.558 1.034 364.985 5.538 3.218-1.035-364.985z" class="color7cdf82 svgShape"></path><path fill="#7b75d1" d="m940.837 590.776 1.035 364.985 224.4-129.558-1.034-364.984z" class="color75d178 svgShape"></path><path fill="#acd2f9" d="m935.3 587.558 5.537 3.218 224.401-129.557-5.538-3.218z" class="coloracf9ac svgShape"></path><path fill="#fd54de" d="m1170.139 483.195 1.035 364.984 5.552 3.226-1.035-364.984z" class="colorfd546b svgShape"></path><path fill="#ea3dcb" d="m1175.691 486.421 1.035 364.984 10.918-6.303-1.035-364.985z" class="colorea3d5b svgShape"></path><path fill="#fd54de" d="m1186.609 480.117 1.035 364.985 47.268 27.469-1.034-364.984zM940.28 615.904l1.035 364.984 5.552 3.226-1.035-364.984z" class="colorfd546b svgShape"></path><path fill="#ea3dcb" d="m945.832 619.13 1.035 364.984 224.415-129.566-1.035-364.984z" class="colorea3d5b svgShape"></path><path fill="#cfdbe8" d="m953.337 623.326 1.035 346.985 42.464 24.678-1.034-346.985z" class="colorcfdee8 svgShape"></path><path fill="#f4f6f8" d="m953.337 623.345 48.96 28.453 233.272-134.68-48.96-28.452z" class="colore7f1f7 svgShape"></path><path fill="#ff6ce4" d="m940.28 615.904 5.552 3.226 224.415-129.566-5.552-3.226z" class="colorff6c85 svgShape"></path><path fill="#fd54de" d="m1222.96 513.891 1.035 364.984 5.537 3.218-1.035-364.984z" class="colorfd546b svgShape"></path><path fill="#ea3dcb" d="m1228.497 517.109 1.035 364.984 16.506-9.53-1.035-364.984z" class="colorea3d5b svgShape"></path><path fill="#fd54de" d="m993.101 646.6 1.034 364.984 5.538 3.218-1.035-364.984z" class="colorfd546b svgShape"></path><path fill="#ea3dcb" d="m998.638 649.818 1.035 364.984 224.415-129.566-1.035-364.984z" class="colorea3d5b svgShape"></path><path fill="#ff6ce4" d="m993.101 646.6 5.537 3.218 224.415-129.566-5.537-3.218zM1170.139 483.195l5.552 3.226 10.918-6.304 47.269 27.47-10.918 6.304 5.537 3.218 16.506-9.53-58.358-33.914z" class="colorff6c85 svgShape"></path><path fill="#4037c7" d="m1038.799 647.706 1.035 364.984 5.551 3.226-1.034-364.984z" class="color3765c7 svgShape"></path><path fill="#2e25b8" d="m1044.351 650.932 1.034 364.984 224.401-129.558-1.035-364.984z" class="color255bb8 svgShape"></path><path fill="#5046e4" d="m1038.799 647.706 5.552 3.226 224.4-129.558-5.552-3.226z" class="color5576db svgShape"></path><path fill="#2e25b8" d="m1027.974 660.387 1.035 364.984 10.932-6.312-1.035-364.984z" class="color255bb8 svgShape"></path><path fill="#f4f6f8" d="m1031.181 669.539 48.959 28.453 228.955-132.188-48.96-28.452z" class="colore7f1f7 svgShape"></path><path fill="#4037c7" d="m1016.834 660.387 1.035 364.984 58.358 33.914-1.035-364.984z" class="color3765c7 svgShape"></path><path fill="#5046e4" d="m1016.834 660.387 58.358 33.914 16.521-9.538-5.538-3.218-10.932 6.311-47.269-27.469 10.932-6.312-5.551-3.226zM1091.619 678.401l5.538 3.219 224.4-129.558-5.537-3.218z" class="color5576db svgShape"></path><path fill="#4037c7" d="m1091.619 678.401 1.035 364.985 5.538 3.218-1.035-364.984z" class="color3765c7 svgShape"></path><path fill="#2e25b8" d="m1075.192 694.301 1.035 364.984 16.52-9.538-1.034-364.984zM1097.157 681.62l1.035 364.984 224.4-129.558-1.035-364.984z" class="color255bb8 svgShape"></path><path fill="#5046e4" d="m1138.63 702.259 140.978-81.929v66.732l-140.978 81.931z" class="color5576db svgShape"></path><path fill="#2e25b8" d="m1068.58 976.429-44.099-25.627v46.828l44.099 25.628z" class="color255bb8 svgShape"></path><path fill="#7b75d1" d="m912.26 905.471-44.098-25.627v46.828l44.098 25.629z" class="color75d178 svgShape"></path><path fill="#88c3ff" d="m1101.734 1072.768 206.985 119.498c1.447.84 2.77.918 3.719.358l286.272-166.354c-.965.56-2.288.483-3.735-.358L1387.99 906.415l-286.256 166.353z" class="colorffe088 svgShape"></path><path fill="#f4f6f8" d="m1127.753 1015.531 177.867 102.695c5.945 3.423 10.753 11.765 10.737 18.596l-.109 41.565c-.031 6.832-4.871 9.586-10.816 6.163l-194.299-112.182v-56.836h16.62z" class="colore7f1f7 svgShape"></path><path fill="#fd54de" d="M1273.106 1166.011c5.155-10.296 13.024-19.525 21.856-24.624l-11.649-6.769c-8.967 5.176-16.931 14.612-22.079 25.097 3.951 2.111 7.914 4.199 11.872 6.296z" class="colorfd546b svgShape"></path><path fill="#69b4ff" d="m1308.884 1132.289 286.259-166.356-206.978-119.499-286.259 166.356z" class="colorffd469 svgShape"></path><path fill="#399cff" d="m1605.86 984.548-.132 41.539c0 3.429-1.187 5.802-3.099 6.922l-286.297 166.361c1.978-1.124 3.165-3.496 3.165-6.925l.132-41.539c0-6.858-4.813-15.167-10.748-18.596l286.231-166.358c6.001 3.428 10.814 11.738 10.748 18.596z" class="colorffb839 svgShape"></path><path fill="#50a7ff" d="m1101.906 1012.79-.018 6.336 206.978 119.499c2.891 1.669 5.238 5.746 5.229 9.068l-.118 41.568c-.009 3.322-2.372 4.668-5.263 2.999l-206.978-119.499-.018 6.348 206.978 119.499c5.942 3.43 10.786.67 10.805-6.157l.118-41.568c.019-6.827-4.793-15.163-10.735-18.594l-206.978-119.499z" class="colorffc950 svgShape"></path><path fill="#ea3dcb" d="M834.033 985.565c0 2.559.788 4.137 2.167 4.926l21.677 12.614c-1.38-.789-2.365-2.569-2.365-4.926 0-4.926 3.35-10.642 7.684-13.211 1.971-1.183 3.941-1.376 5.321-.587l-21.479-12.412c-1.378-.789-3.35-.789-5.517.385-4.138 2.57-7.488 8.478-7.488 13.211z" class="colorea3d5b svgShape"></path><path fill="#f4f6f8" d="M847.293 994.935c0 2.914.897 4.711 2.468 5.609l24.681 14.363c-1.571-.898-2.692-2.925-2.692-5.609 0-5.609 3.814-12.117 8.749-15.042 2.244-1.347 4.488-1.567 6.058-.668L862.1 979.455c-1.569-.898-3.814-.898-6.282.438-4.711 2.925-8.525 9.652-8.525 15.042z" class="colore7f1f7 svgShape"></path><path fill="#cfdbe8" d="M863.011 1004.065c0 2.914.897 4.711 2.468 5.609l2.896 1.774c-1.571-.898-2.692-2.925-2.692-5.609 0-5.609 3.814-12.117 8.749-15.042 2.244-1.348 4.488-1.567 6.058-.668l-2.671-1.544c-1.569-.898-3.814-.898-6.282.438-4.712 2.925-8.526 9.652-8.526 15.042z" class="colorcfdee8 svgShape"></path><path fill="#cfdbe8" d="M856.853 1000.42c0 2.914.897 4.711 2.468 5.609l2.896 1.774c-1.571-.898-2.692-2.925-2.692-5.609 0-5.609 3.814-12.117 8.749-15.042 2.245-1.348 4.488-1.567 6.058-.668l-2.671-1.543c-1.569-.898-3.814-.898-6.282.438-4.712 2.925-8.526 9.651-8.526 15.041z" class="colorcfdee8 svgShape"></path><path fill="#353535" d="M871.75 1009.298c0 5.609 4.039 7.844 8.749 4.93 4.937-2.695 8.751-9.422 8.751-15.031 0-2.914-1.122-4.941-2.692-5.609-1.571-.898-3.814-.679-6.058.668-4.936 2.925-8.75 9.433-8.75 15.042z" class="color353535 svgShape"></path><path fill="#564753" d="M870.093 1008.945c.227 2.72 1.359 4.534 2.944 5.208l166.016 97.145-4.756-6.348-155.825-91.25-8.379-4.755z" class="color474756 svgShape"></path><path fill="#564753" d="M870.093 1008.492v.453l8.379 4.755 155.825 91.25 4.53-11.777L886.4 1004.19l-11.777-7.022c-2.718 3.174-4.53 7.476-4.53 11.324z" class="color474756 svgShape"></path><path fill="#564753" d="m874.623 997.168 11.777 7.022 152.427 88.984h.227l8.833-5.208L886.4 993.541c-.453-.442-1.134-.896-1.812-1.128-1.586-.675-3.624-.453-5.662.907-1.586.907-3.171 2.267-4.303 3.848z" class="color474756 svgShape"></path><path fill="#737280" d="m1038.905 1093.219-4.522 11.672 4.573 6.421 9.085-5.245 4.522-11.673-4.573-6.42z" class="color727480 svgShape"></path><path fill="#c5e2ff" d="m1034.382 1104.902 4.577 6.467 28.569 6.473 17.203 3.946-12.941-11.838-23.834-21.941-8.997 5.21z" class="colorffdcc5 svgShape"></path><path fill="#564753" d="m1067.528 1117.842 17.204 3.946-12.942-11.838c-2.052 2.212-3.631 4.894-4.262 7.892z" class="color474756 svgShape"></path><path fill="#c5d1dd" d="m1266.922 1229.664-.12 25.727-220.238 127.988.121-25.727z" class="colorc5d4dd svgShape"></path><path fill="#cfdbe8" d="m1046.685 1357.652-.121 25.727-163.102-94.166.121-25.728z" class="colorcfdee8 svgShape"></path><path fill="#f4f6f8" d="m1266.922 1229.664-220.237 127.988-163.102-94.167 220.237-127.988z" class="colore7f1f7 svgShape"></path><g fill="#4037c7" class="color3765c7 svgShape"><path d="m1231.511 1230.965-9.693 5.634-22.171-12.801 9.693-5.633zM1203.677 1214.895l-9.694 5.633-104.559-60.367 9.694-5.633z" fill="#010001" class="color000000 svgShape"></path></g><path fill="#94c0ed" d="M1087.566 1177.495c1.175.679 1.178 1.775.014 2.452l-15.296 8.889c-1.164.676-3.058.679-4.233 0l-15.396-8.889c-1.172-.676-1.178-1.775-.014-2.452l15.295-8.889c1.164-.676 3.062-.676 4.233 0l15.397 8.889z" class="color94ed96 svgShape"></path><path fill="#c5d1dd" d="m1205.558 1247.587-2.217 1.288-111.568-64.414 2.217-1.288zM1198.609 1251.625l-2.217 1.289-111.568-64.414 2.217-1.288zM1122.39 1215.671l-2.217 1.288-42.298-24.421 2.217-1.288z" class="colorc5d4dd svgShape"></path><path fill="#fd54de" d="M1054.453 1196.607c1.175.679 1.178 1.776.014 2.452l-15.295 8.889c-1.164.676-3.058.679-4.233 0l-15.396-8.889c-1.172-.676-1.178-1.776-.014-2.452l15.296-8.889c1.164-.676 3.061-.676 4.233 0l15.395 8.889z" class="colorfd546b svgShape"></path><path fill="#c5d1dd" d="m1172.444 1266.699-2.216 1.289-111.568-64.414 2.216-1.289zM1165.495 1270.738l-2.216 1.288-111.568-64.414 2.216-1.288zM1089.276 1234.783l-2.216 1.288-42.298-24.421 2.216-1.288z" class="colorc5d4dd svgShape"></path><path fill="#8dc6ff" d="M1021.34 1215.72c1.175.679 1.178 1.776.014 2.452l-15.295 8.889c-1.164.676-3.058.679-4.233 0l-15.396-8.889c-1.172-.677-1.178-1.776-.014-2.452l15.295-8.889c1.164-.677 3.061-.677 4.233 0l15.396 8.889z" class="colorff8dc4 svgShape"></path><path fill="#c5d1dd" d="m1139.331 1285.812-2.216 1.288-111.569-64.414 2.217-1.288zM1132.382 1289.85l-2.216 1.288-111.569-64.414 2.217-1.288zM1056.163 1253.895l-2.216 1.288-42.299-24.421 2.217-1.288z" class="colorc5d4dd svgShape"></path><path fill="#5046e4" d="M988.226 1234.832c1.175.679 1.178 1.776.014 2.452l-15.295 8.889c-1.164.676-3.058.679-4.233 0l-15.396-8.889c-1.172-.676-1.178-1.776-.014-2.452l15.296-8.889c1.164-.677 3.061-.677 4.233 0l15.395 8.889z" class="color5576db svgShape"></path><path fill="#c5d1dd" d="m1106.218 1304.924-2.217 1.288-111.568-64.414 2.217-1.288zM1099.269 1308.962l-2.217 1.288-111.568-64.414 2.217-1.288zM1023.05 1273.007l-2.217 1.289-42.298-24.421 2.217-1.288z" class="colorc5d4dd svgShape"></path><path fill="#50a7ff" d="M955.113 1253.944c1.175.679 1.178 1.775.014 2.452l-15.295 8.889c-1.164.676-3.057.679-4.233 0l-15.396-8.889c-1.172-.676-1.178-1.776-.014-2.452l15.295-8.889c1.164-.676 3.062-.676 4.233 0l15.396 8.889z" class="colorffc950 svgShape"></path><path fill="#c5d1dd" d="m1073.105 1324.036-2.217 1.288-111.568-64.414 2.217-1.288zM1066.156 1328.074l-2.217 1.289-111.568-64.414 2.217-1.289zM989.937 1292.12l-2.217 1.288-42.298-24.421 2.217-1.288z" class="colorc5d4dd svgShape"></path><path fill="#736170" d="m538.164 583.109 1.467 524.696c.092 20.438 14.572 28.685 32.077 18.514l204.929-118.321c17.78-10.266 32.261-35.192 32.169-55.63l-1.466-524.696c-.092-20.254-14.573-28.412-32.353-18.146l-204.928 118.32c-17.597 10.172-31.986 35.008-31.895 55.263zm10.448-6.051c0-13.747 9.623-30.426 21.446-37.21l29.878-17.319c2.291-1.284 4.033-.277 4.583 2.014 1.924 7.697 8.89 10.266 17.138 5.5l102.098-58.932c8.249-4.766 15.122-15.305 17.047-25.204.458-2.931 2.199-5.956 4.491-7.241l29.878-17.229c11.914-6.874 21.629-1.374 21.629 12.28l1.558 524.696c0 13.747-9.807 30.704-21.537 37.488l-204.838 118.227c-12.006 6.963-21.813 1.374-21.904-12.374l-1.467-524.696z" class="color616173 svgShape"></path><path fill="#736170" d="m538.14 583.099 1.467 524.696c.091 20.442 14.572 28.69 32.077 18.513l204.929-118.317c17.78-10.266 32.261-35.197 32.169-55.634l-1.467-524.696c-.092-20.254-14.572-28.408-32.352-18.146l-204.93 118.321c-17.596 10.172-31.985 35.008-31.893 55.263zm10.448-6.046c0-13.747 9.623-30.431 21.446-37.21l29.878-17.323c2.291-1.284 4.033-.273 4.582 2.018 1.925 7.697 8.89 10.266 17.138 5.495l102.098-58.928c8.249-4.766 15.122-15.305 17.047-25.204.459-2.936 2.2-5.956 4.491-7.241l29.877-17.229c11.915-6.874 21.63-1.378 21.63 12.28l1.558 524.696c0 13.747-9.807 30.704-21.537 37.483l-204.838 118.232c-12.006 6.963-21.813 1.374-21.904-12.374l-1.466-524.695z" class="color616173 svgShape"></path><path fill="#b0d7ff" d="m548.588 577.053 1.466 524.696c.092 13.747 9.898 19.337 21.904 12.374L776.796 995.89c11.731-6.78 21.537-23.736 21.537-37.483l-1.558-524.696c0-13.658-9.715-19.153-21.63-12.28l-29.877 17.229c-2.291 1.284-4.033 4.305-4.491 7.241-1.924 9.899-8.798 20.438-17.047 25.204l-102.098 58.928c-8.248 4.77-15.214 2.202-17.138-5.495-.55-2.291-2.291-3.303-4.582-2.018l-29.878 17.323c-11.823 6.779-21.446 23.462-21.446 37.21z" class="colorb0e3ff svgShape"></path><path fill="#85c1fd" d="M627.479 1042.681c-5.47 0-9.456-4.321-9.472-10.274l-.093-32.811c-.016-5.661 3.542-11.832 8.461-14.672l97.878-56.51c1.832-1.058 3.722-1.594 5.618-1.594 5.473 0 9.456 4.309 9.472 10.245l.09 32.812c.016 5.679-3.542 11.861-8.458 14.701l-97.881 56.51c-1.832 1.058-3.719 1.593-5.615 1.593z" class="color85cdfd svgShape"></path><path fill="#5e4c5b" d="M651.18 492.72c-2.048 1.182-3.74 4.044-3.733 6.467.003 1.211.416 2.051 1.121 2.452.646.435 1.642.331 2.637-.243l42.892-24.763c2.107-1.216 3.74-4.11 3.733-6.533-.003-1.211-.416-2.051-1.062-2.416-.704-.404-1.642-.335-2.695.274L651.18 492.72zm-12.522 7.229c-2.048 1.182-3.74 4.114-3.733 6.467.007 2.422 1.71 3.39 3.758 2.208 2.106-1.216 3.798-4.144 3.791-6.566-.007-2.353-1.709-3.325-3.816-2.109zM627.072 506.639c-2.106 1.216-3.798 4.147-3.791 6.5.007 2.422 1.709 3.391 3.816 2.174 2.048-1.182 3.74-4.11 3.733-6.533-.007-2.352-1.71-3.324-3.758-2.141z" class="color4c4c5e svgShape"></path><path fill="#5e4c5b" d="m499.397 560.563 1.467 524.696c0 10.172 3.666 17.323 9.44 20.711l38.768 22.546c-5.774-3.388-9.44-10.539-9.44-20.711l-1.467-524.696c-.091-20.254 14.297-45.091 31.895-55.263l204.929-118.321c8.982-5.133 17.138-5.683 23.004-2.202l-38.768-22.546c-5.866-3.392-14.023-2.931-23.004 2.202l-204.93 118.317c-17.597 10.176-31.986 35.013-31.894 55.267z" class="color4c4c5e svgShape"></path><path fill="#85c1fd" d="m564.316 622.105.993 350.294L777.8 849.718l-.993-350.294z" class="color85cdfd svgShape"></path><path fill="#ffffff" d="m578.512 627.387.993 350.295L791.996 855l-.993-350.294z" class="colorffffff svgShape"></path><path fill="#c5d1dd" d="M594.58 640.482v6.094l181.348-104.703v-6.092zM594.58 727.725l88.952-51.358-.018-6.066-88.934 51.349zM594.58 707.445l55.807-32.221-.018-6.082-55.789 32.212zM594.58 666.856l46.507-26.854-.017-6.066-46.49 26.842zM715.158 631.738l.017 6.081-59.043 34.088-.017-6.081zM594.58 687.149l151.785-87.633-.016-6.082-151.769 87.624zM775.928 576.357l-24.754 14.291.018 6.082 24.736-14.282zM775.928 596.653l-54.105 31.236.018 6.082 54.087-31.227zM750.437 570.793l.018 6.067-102.476 59.164-.017-6.066zM740.265 637.537l.017 6.066-42.273 24.406-.017-6.066z" class="colorc5d4dd svgShape"></path><g fill="#c5d1dd" class="colorc5d4dd svgShape"><path d="M594.58 753.731v6.095l181.348-104.703v-6.092zM594.58 840.975l88.952-51.358-.018-6.066L594.58 834.9zM594.58 820.695l55.807-32.221-.018-6.082-55.789 32.212zM594.58 780.106l46.507-26.854-.017-6.066-46.49 26.842zM715.158 744.987l.017 6.082-59.043 34.088-.017-6.081zM594.58 800.399l151.785-87.633-.016-6.082-151.769 87.623zM775.928 689.607l-24.754 14.291.018 6.082 24.736-14.282zM775.928 709.903l-54.105 31.236.018 6.082 54.087-31.227zM750.437 684.043l.018 6.067-102.476 59.164-.017-6.066zM740.265 750.787l.017 6.066-42.273 24.406-.017-6.066z" fill="#010001" class="color000000 svgShape"></path></g><g fill="#c5d1dd" class="colorc5d4dd svgShape"><path d="M594.58 866.981v6.095l181.348-104.703v-6.092zM594.58 954.225l88.952-51.358-.018-6.066-88.934 51.349zM594.58 933.945l55.807-32.221-.018-6.082-55.789 32.212zM594.58 893.356l46.507-26.854-.017-6.066-46.49 26.841zM715.158 858.237l.017 6.082-59.043 34.088-.017-6.081zM594.58 913.649l151.785-87.633-.016-6.082-151.769 87.623zM775.928 802.857l-24.754 14.291.018 6.082 24.736-14.282zM775.928 823.153l-54.105 31.236.018 6.082 54.087-31.227zM750.437 797.293l.018 6.067-102.476 59.164-.017-6.066zM740.265 864.037l.017 6.066-42.273 24.406-.017-6.066z" fill="#010001" class="color000000 svgShape"></path></g><path fill="#a50b89" d="M745.436 942.698c-.959-.56-2.278-.48-3.717.359l-97.875 56.511c-2.838 1.639-5.156 5.675-5.156 8.951l.08 32.811c0 1.639.6 2.798 1.519 3.317l-14.068-8.153c-.919-.558-1.519-1.717-1.519-3.356l-.08-32.811c-.04-3.276 2.278-7.314 5.156-8.953l97.875-56.509c1.439-.839 2.758-.919 3.677-.359l14.108 8.192z" class="colore22951 svgShape"></path><path fill="#fd54de" d="M741.735 943.055c2.858-1.65 5.188-.323 5.197 2.96l.093 32.81c.009 3.313-2.305 7.322-5.163 8.972l-97.881 56.512c-2.858 1.65-5.187.323-5.197-2.991l-.093-32.81c-.009-3.283 2.305-7.291 5.163-8.941l97.881-56.512z" class="colorfd546b svgShape"></path><path fill="#ffffff" d="M674.523 995.229c.722.861 1.096 2.148 1.101 3.874.005 1.7-.361 3.415-1.076 5.105-.693 1.678-1.713 3.244-3.039 4.711-1.326 1.442-2.892 2.673-4.698 3.716l-4.092 2.363.018 6.452-4.702 2.714-.066-23.36 8.794-5.077c1.807-1.043 3.375-1.598 4.704-1.664 1.33-.092 2.356.293 3.056 1.166zm-4.767 10.243c.738-1.127 1.105-2.341 1.102-3.617-.004-1.326-.377-2.112-1.119-2.385-.72-.286-1.81-.007-3.224.81l-3.831 2.212.023 8.104 3.831-2.212c1.414-.817 2.502-1.796 3.218-2.912m18.57-17.034.014 4.802c-.501.239-.849.414-1.023.515a8.315 8.315 0 0 0-3.044 3.01c-.738 1.252-1.104 2.717-1.099 4.393l.024 8.478-4.527 2.614-.051-17.958 4.332-2.501.007 2.376a12.095 12.095 0 0 1 2.193-3.245c.911-.977 1.977-1.793 3.174-2.484zm4.957-5.116c-.827.477-1.524.604-2.048.355-.502-.26-.765-.81-.768-1.635-.002-.826.257-1.652.756-2.492a5.642 5.642 0 0 1 2.044-2.031c.827-.478 1.503-.593 2.027-.37.524.249.787.749.789 1.549.003.875-.257 1.752-.777 2.603a5.56 5.56 0 0 1-2.023 2.021zM691.077 1005.087l-.051-17.957 4.528-2.614.05 17.958zM709.244 976.362c1.937-1.118 3.506-1.373 4.685-.702 1.201.635 1.794 2.271 1.801 4.898l.029 10.279-4.527 2.614-.027-9.48c-.004-1.425-.268-2.324-.814-2.71-.546-.387-1.331-.285-2.354.306-1.132.653-2.045 1.582-2.717 2.772-.672 1.215-1.017 2.617-1.013 4.218l.025 8.878-4.527 2.614-.051-17.958 4.331-2.501.006 2.101c.586-1.09 1.346-2.105 2.215-3.032a13.474 13.474 0 0 1 2.938-2.297zm15.639-12.738.012 4.352 3.875-2.237.011 4.002-3.874 2.237.021 7.303c.002.75.178 1.25.506 1.461.349.225.829.148 1.438-.204a5.547 5.547 0 0 0 1.826-1.73l1.229 2.972c-.434.626-.978 1.216-1.63 1.793a14.013 14.013 0 0 1-2.045 1.455c-1.872 1.081-3.31 1.361-4.314.863-1.026-.51-1.531-1.821-1.537-3.923l-.021-7.378-2.416 1.395-.011-4.002 2.416-1.395-.012-4.352 4.526-2.612z" class="colorffffff svgShape"></path><path fill="#399cff" d="M379.67 743.297s-27.271 2.735-20.594 84.541c5.089 62.339 29.097 103.119 40.589 85.811 11.492-17.308 33.776-85.811 33.776-85.811l-53.771-84.541z" class="colorffb839 svgShape"></path><path fill="#564753" d="M414.467 1157.392c8.696 1.568 25.463-1.827 34.239-2.856 2.928-.343 6.235-.729 8.51 1.145 1.518 1.25 2.21 3.306 2.162 5.272-.048 1.966-.754 3.859-1.63 5.619-2.908 5.844-7.847 10.652-13.767 13.402-5.919 2.75-12.78 3.424-19.121 1.878-2.541-.62-5.194-1.585-7.695-.82-1.708.523-3.071 1.784-4.569 2.756-3.828 2.485-8.827 3.073-13.128 1.544-3.472-1.234-5.034-5.597-5.666-9.227-.632-3.63.252-7.5 2.399-10.495 3.328-4.643 9.073-6.763 14.471-8.631 3.438-1.19.214-.233 3.795.413z" class="color474756 svgShape"></path><path fill="#1d13ab" d="M417.203 1172.18c-1.738 7.18-24.891 3.884-23.152-3.297-5.708-44.247-13.771-80.288-7.518-110.676 2.074-10.082 1.547-20.546-1.197-30.466-21.151-76.458-19.154-122.555 2.853-126.806l43.756 9.929c16.152 29.375 6.974 94.809 0 144.867-3.96 28.414-14.115 104.183-14.742 116.449z" class="color1352ab svgShape"></path><path fill="#564753" d="M461.654 1170.282a90.02 90.02 0 0 0 26.145 3.752c2.948-.015 6.277-.03 8.329 2.086 1.369 1.411 1.827 3.532 1.561 5.48-.267 1.948-1.179 3.751-2.246 5.403-3.541 5.483-8.986 9.711-15.175 11.785-6.189 2.073-13.082 1.979-19.211-.265-2.456-.899-4.985-2.154-7.556-1.672-1.756.329-3.25 1.43-4.848 2.23-4.082 2.043-9.114 2.07-13.218.072-3.313-1.614-4.379-6.123-4.603-9.801-.224-3.678 1.086-7.426 3.553-10.163 3.824-4.243 9.77-5.709 15.342-6.965 3.551-.801 8.44-2.983 11.927-1.942z" class="color474756 svgShape"></path><path fill="#2e25b8" d="M456.79 1179.551c0 9.146-26.419 11.842-26.419 2.696-6.395-41.232-10.917-85.486-5.295-109.085 2.796-11.735 2.953-23.993-.82-35.451-26.951-81.858-20.94-123.042 5.365-122.499l43.756 9.927c22.352 26.66 10.503 94.85 0 144.868-4.736 22.56-19.17 63.697-16.587 109.544z" class="color255bb8 svgShape"></path><path fill="#50a7ff" d="M370.934 922.658c4.478 25.532 95.232 62.32 113.621 29.057 0 0-6.27-34.5-6.007-70.034.234-31.621 7.55-77.216-2.54-94.324-15.294-25.932-82.351-54.267-98.585-42.9-21.066 14.75-9.952 73.738-4.047 119.013 3.781 28.985-2.442 59.188-2.442 59.188z" class="colorffc950 svgShape"></path><path fill="#c5e2ff" d="m611.301 766.386 10.05 10.198s13.645-1.293 17.924-10.901-10.82-16.791-10.82-16.791 13.242-16.555 8.72-23.58c-4.441-6.781-17.031 22.473-18.323 25.138.081-1.049 2.523-14.544-2.776-13.914-7.19 1.262-4.775 29.85-4.775 29.85z" class="colorffdcc5 svgShape"></path><path fill="#50a7ff" d="M470.696 787.358c-9.314 4.266-10.473 31.988-4.194 40.083 7.079 9.126 76.979 15.961 92.619 13.265 16.004-2.759 66.674-64.121 66.674-64.121l-14.329-14.54-56.346 41.271s-77.406-19.172-84.424-15.958z" class="colorffc950 svgShape"></path><path fill="#b5d9fe" d="m440.261 761.206.85-12.515v-.309s.772.23 2.086.539c5.95 1.238 23.181 3.4 28.281-10.662 6.259-17.152 14.295-67.458-19.009-68.461-33.304-1.083-37.631 19.627-38.868 29.362-.927 6.569-1.545 28.667-1.854 42.114-.154 6.41-.232 10.893-.232 10.893-2.626 6.647 26.119 15.687 28.746 9.039z" class="colorfed0b5 svgShape"></path><path fill="#564753" d="M411.325 741.161s15.003 7.126 18.766 4.139c7.66-6.083.445-38.906 10.586-37.665s7.45 15.521 7.45 15.521h4.967v-14.28s8.692-5.795 4.76-11.175c-3.932-5.381 38.631 2 39.183-24.765.552-26.766-78.09-23.731-87.196-5.795-23.731 5.519 1.484 74.02 1.484 74.02z" class="color474756 svgShape"></path><path fill="#dce6f1" d="m1380.476 1053.999-170.59-99.135-.024-8.497 170.59 99.136z" class="colordce8f1 svgShape"></path><path fill="#ffffff" d="m1380.452 1045.503-170.59-99.136 181.219-104.626 170.589 99.135z" class="colorffffff svgShape"></path><path fill="#dce6f1" d="m1370.815 1068.056-170.59-99.136-.024-8.465 170.59 99.136z" class="colordce8f1 svgShape"></path><path fill="#ffffff" d="m1370.791 1059.591-170.59-99.136 9.685-5.591 170.59 99.135zM1361.116 1073.656l-170.589-99.136 9.698-5.6 170.59 99.136z" class="colorffffff svgShape"></path><path fill="#dce6f1" d="m1361.14 1082.152-170.589-99.136-.024-8.496 170.589 99.136z" class="colordce8f1 svgShape"></path><path fill="#cfdbe8" d="m1561.67 940.876.073 25.458-200.603 115.818-.024-8.496 9.699-5.6-.024-8.465 9.685-5.592-.024-8.496z" class="colorcfdee8 svgShape"></path><path fill="#dce6f1" d="m1448.815 1006.037-170.589-99.136-.451-120.48 170.59 99.136z" class="colordce8f1 svgShape"></path><path fill="#ffffff" d="m1343.062 867.283 32.015 18.484-.219 77.041-32.015-18.484.219-77.041zm28.999 90.671.2-70.583-26.402-15.243-.2 70.583 26.402 15.243" class="colorffffff svgShape"></path><path fill="#ffffff" d="m1311.038 848.795 32.023 18.489-.218 77.041-32.023-18.489.218-77.041zm29 90.671.2-70.583-26.402-15.243-.2 70.583 26.402 15.243" class="colorffffff svgShape"></path><path fill="#4037c7" d="m1340.238 868.883-.2 70.583-26.403-15.244.2-70.582zM1372.261 887.372l-.2 70.582-26.403-15.243.201-70.583z" class="color3765c7 svgShape"></path><path fill="#aab4be" d="m1448.365 885.557-170.59-99.136 112.855-65.157 170.59 99.136z" class="coloraab6be svgShape"></path><path fill="#cfdbe8" d="m1561.22 820.4.45 120.48-112.855 65.157-.45-120.48z" class="colorcfdee8 svgShape"></path><path fill="#564753" d="m1267.966 931.306-.009 3.228-12.534 7.284.009-3.228z" class="color474756 svgShape"></path><path fill="#5e4c5b" d="m1255.432 938.59-.009 3.228-12.615-7.284.009-3.227z" class="color4c4c5e svgShape"></path><path fill="#736170" d="m1267.966 931.306-12.534 7.284-12.615-7.283 12.533-7.284z" class="color616173 svgShape"></path><path fill="#9b9ab2" d="m1251.173 825.841-.007 108.425-3.037-3.679.006-108.425zM1258.191 826.165l-.007 108.425-7.018-.324.007-108.425z" class="color9aaab2 svgShape"></path><path fill="#9b9ab2" d="m1262.153 822.81-.007 108.425-3.962 3.355.007-108.425z" class="color9aaab2 svgShape"></path><path fill="#f4f6f8" d="m1259.115 819.131 3.038 3.679-3.962 3.355-7.018-.324-3.038-3.679 3.972-3.349z" class="colore7f1f7 svgShape"></path><path fill="#564753" d="m1296.48 947.833-.009 3.228-12.534 7.284.009-3.228z" class="color474756 svgShape"></path><path fill="#5e4c5b" d="m1283.946 955.117-.009 3.228-12.615-7.284.009-3.228z" class="color4c4c5e svgShape"></path><path fill="#736170" d="m1296.48 947.833-12.534 7.284-12.615-7.284 12.533-7.283z" class="color616173 svgShape"></path><path fill="#9b9ab2" d="m1279.687 842.368-.007 108.425-3.038-3.679.007-108.425zM1286.705 842.692l-.007 108.425-7.018-.324.007-108.425z" class="color9aaab2 svgShape"></path><path fill="#9b9ab2" d="m1290.667 839.337-.007 108.425-3.962 3.355.007-108.425z" class="color9aaab2 svgShape"></path><path fill="#f4f6f8" d="m1287.629 835.658 3.038 3.679-3.962 3.355-7.018-.324-3.038-3.679 3.971-3.349z" class="colore7f1f7 svgShape"></path><path fill="#564753" d="m1382.022 997.414-.01 3.228-12.533 7.283.009-3.228z" class="color474756 svgShape"></path><path fill="#5e4c5b" d="m1369.488 1004.697-.009 3.228-12.616-7.283.009-3.228z" class="color4c4c5e svgShape"></path><path fill="#736170" d="m1382.022 997.414-12.534 7.283-12.616-7.283 12.534-7.284z" class="color616173 svgShape"></path><g fill="#9b9ab2" class="color9aaab2 svgShape"><path d="m1365.228 891.949-.007 108.425-3.037-3.679.007-108.425zM1372.246 892.272l-.006 108.425-7.019-.323.007-108.425z" fill="#010001" class="color000000 svgShape"></path><path d="m1376.208 888.917-.007 108.425-3.961 3.355.006-108.425z" fill="#010001" class="color000000 svgShape"></path><path d="m1373.17 885.238 3.038 3.679-3.962 3.355-7.018-.323-3.037-3.679 3.971-3.35z" fill="#010001" class="color000000 svgShape"></path></g><path fill="#564753" d="m1410.535 1013.94-.009 3.228-12.533 7.284.009-3.228z" class="color474756 svgShape"></path><path fill="#5e4c5b" d="m1398.002 1021.224-.009 3.228-12.616-7.283.009-3.228z" class="color4c4c5e svgShape"></path><path fill="#736170" d="m1410.535 1013.94-12.533 7.284-12.616-7.283 12.534-7.284z" class="color616173 svgShape"></path><g fill="#9b9ab2" class="color9aaab2 svgShape"><path d="m1393.742 908.476-.007 108.424-3.037-3.679.007-108.424zM1400.76 908.799l-.007 108.425-7.018-.324.007-108.424z" fill="#010001" class="color000000 svgShape"></path><path d="m1404.722 905.444-.007 108.425-3.962 3.355.007-108.425z" fill="#010001" class="color000000 svgShape"></path><path d="m1401.684 901.765 3.038 3.679-3.962 3.355-7.018-.323-3.037-3.679 3.971-3.35z" fill="#010001" class="color000000 svgShape"></path></g><path fill="#b2b8bf" d="m1238.756 807.207 161.285-93.728-.003.809-161.284 93.728z" class="colorb2babf svgShape"></path><path fill="#c7ced5" d="m1238.756 807.207 161.285-93.728 161.284 95.641-159.106 92.463z" class="colorc7d0d5 svgShape"></path><path fill="#fd54de" d="m1229.289 802.552 159.106-92.462 91.345-4.015-159.105 92.462z" class="colorfd546b svgShape"></path><path fill="#98bde2" d="m1402.217 902.392 159.106-92.462-.034 12.003-159.106 92.462z" class="colore2af98 svgShape"></path><path fill="#b2b8bf" d="m1402.219 901.583 159.106-92.463-.002.81-159.106 92.462z" class="colorb2babf svgShape"></path><path fill="#ea3dcb" d="m1320.635 798.537 159.105-92.462 91.036 109.313-159.106 92.462z" class="colorea3d5b svgShape"></path><path fill="#a50b89" d="M1402.219 902.385v-.792l-4.444-2.567-157.201-90.765-1.816-1.043v.792l-9.473-5.467 91.35-4.006 91.037 109.315z" class="colore22951 svgShape"></path><path fill="#c5e2ff" d="M1402.219 901.593v.792l-.041 12.019-163.461-94.375.041-12.019v-.792l1.816 1.043 78.747-3.444 78.454 94.209z" class="colorffdcc5 svgShape"></path><path fill="#ffffff" d="m1362.09 864.58-.072 22.724-85.369-49.288.073-22.724z" class="colorffffff svgShape"></path><g fill="#1d13ab" class="color1352ab svgShape"><path d="m1286.308 826.277-.03 10.451 5.616 3.242-.007 2.426-8.207-4.738.037-12.877zM1295.967 831.853l-.037 12.878-2.591-1.497.036-12.877zM1308.328 846.35c.359.746.536 1.526.534 2.325-.003 1.13-.378 1.784-1.147 1.947-.77.15-1.874-.17-3.338-1.015l-5.795-3.346.036-12.877 5.471 3.159c1.368.79 2.423 1.703 3.141 2.725.73 1.015 1.1 2.044 1.097 3.077-.002.621-.135 1.109-.401 1.44-.266.344-.626.522-1.095.528a6.766 6.766 0 0 1 1.497 2.037zm-2.588 1.406c.349-.061.518-.364.519-.901.003-1.062-.679-1.994-2.059-2.791l-3.024-1.746-.009 3.184 3.024 1.746c.684.396 1.2.569 1.549.508m-4.548-10.635-.009 3.033 2.58 1.489c.636.367 1.116.52 1.453.452.337-.069.494-.35.495-.86a2.282 2.282 0 0 0-.489-1.415c-.335-.441-.815-.843-1.451-1.21l-2.579-1.489m17.055 16.351 2.496 5.584-2.784-1.607-2.149-4.832-.132-.076-2.256-1.302-.01 3.585-2.592-1.496.036-12.877 4.847 2.799a10.896 10.896 0 0 1 2.59 2.062c.731.808 1.293 1.672 1.675 2.597.394.932.596 1.877.593 2.828-.003.951-.209 1.66-.607 2.121-.409.452-.975.664-1.707.614zm-.929-2.953c.409-.165.615-.598.617-1.301a3.59 3.59 0 0 0-.607-2.022c-.395-.615-.994-1.154-1.774-1.604l-2.112-1.219-.013 4.495 2.112 1.219c.779.45 1.38.59 1.777.432m11.38.232 4.967 15.766-2.712-1.566-.988-3.333-5.195-3-1.004 2.183-2.652-1.531 5.028-9.996 2.556 1.477zm-3.094 6.085 3.552 2.051-1.762-5.961-1.79 3.91m16.651 10.497 2.496 5.584-2.784-1.607-2.15-4.832-.12-.069-2.255-1.302-.01 3.585-2.592-1.496.036-12.877 4.847 2.799a10.87 10.87 0 0 1 2.578 2.055 9.224 9.224 0 0 1 1.687 2.604c.394.932.584 1.87.581 2.821-.003.951-.209 1.66-.607 2.121-.397.46-.974.664-1.707.614zm-.917-2.945c.397-.172.603-.605.605-1.308.002-.731-.2-1.4-.595-2.015-.407-.622-.994-1.154-1.774-1.604l-2.112-1.219-.013 4.495 2.112 1.219c.779.449 1.368.582 1.777.432M1356.198 866.628l-4.379 5.799-.013 4.563-2.592-1.496.013-4.605-4.308-10.773 2.748 1.586 2.983 7.454 3.004-3.997z" fill="#010001" class="color000000 svgShape"></path></g><path fill="#564753" d="M1592.047 874.603s6.809-1.962 9.926-3.462c3.116-1.5 8.887-1.154 12.926 1.731 0 0 10.272.346 14.311 13.503 4.04 13.157.808 21.813-2.539 31.854-3.347 10.041-7.617 37.048-4.386 42.357 3.232 5.309-19.967-4.501-19.967-4.501l-13.965-11.888-.693-33.124 4.387-36.47z" class="color474756 svgShape"></path><path fill="#5e4c5b" d="M1589.375 1264.014c.324 1.152.65 2.315.722 3.509.145 2.409-.761 4.783-2.07 6.81-1.309 2.027-3.01 3.765-4.652 5.533a132.444 132.444 0 0 0-12.478 15.669c-.811 1.193-1.619 2.419-2.731 3.339-4.283 3.542-17.531 3.4-20.132 2.167-4.262-2.021-8.053-7.113-4.094-12.166 2.773-3.539 3.019-1.94 9.186-10.918l10.909-15.88c1.058-1.54 2.146-3.111 3.654-4.214 2.153-1.573 4.912-2.016 7.566-2.271a74.803 74.803 0 0 1 6.134-.336c1.391-.019 3.166-.24 4.493.309 1.056.437 1.469 1.391 1.796 2.42.633 1.984 1.133 4.022 1.697 6.029z" class="color4c4c5e svgShape"></path><path fill="#2e25b8" d="M1555.511 1066.584s4.103 37.107 10.636 52.061c6.533 14.954 56.101 100.799 62.194 101.076 6.092.277 16.892-13.569 15.23-17.446-1.661-3.877-18.277-48.461-33.784-52.338 0 0-2.492-73.556-16.338-82.054-13.846-8.498-40.394-19.173-37.938-1.299z" class="color255bb8 svgShape"></path><path fill="#4037c7" d="M1628.341 1060.02s-4.431 38.411-13.015 58.903c-8.585 20.492-19.938 48.738-15.508 60.645s3.323 27.969-2.492 46.522c-5.815 18.554-9.182 33.436-8.966 34.213.216.777-17.618 6.771-18.726-1.813-1.108-8.584 6.369-37.661 5.815-56.214-.554-18.554-3.323-52.615-1.108-67.845 2.215-15.231 4.431-47.076 6.923-61.753 2.493-14.678 47.077-24.485 47.077-12.658z" class="color3765c7 svgShape"></path><path fill="#5e4c5b" d="M1651.863 1206.629c1.08.675 2.132 1.411 3.028 2.317 3.293 3.333 4 8.579 2.929 13.141-2.155 9.181-10.201 15.827-12.981 24.783-1.218 3.923-2.415 13.179-4.045 15.855-2.759 4.529-24.77 13.424-25.95 2.195-.969-9.231 8.917-13.339 10.575-16.172 2.102-3.591-.416-7.144 1.551-26.574.037-.363.081-.743.287-1.044.164-.24.414-.404.656-.564a37.261 37.261 0 0 0 9.273-8.838 37.373 37.373 0 0 0 3.393-5.521c.452-.903.74-2.148 1.334-2.95.676-.913 1.284-.611 2.292-.269a36.7 36.7 0 0 1 7.658 3.641z" class="color4c4c5e svgShape"></path><path fill="#a7ccf2" d="M1641.305 1227.596c-.608.948-1.307 1.886-2.289 2.437-1.7.953-3.928.498-5.483-.678-1.555-1.176-2.547-2.944-3.318-4.734-.363-.842-2.98-4.685-3.131-5.59-.542-3.232 3.479-3.422 5.451-6.039a42.12 42.12 0 0 1 5.552-6.037c1.111-.994 4.803-4.952 6.013-3.034 1.215 1.926 1.343 5.419 1.441 7.629a28.173 28.173 0 0 1-.782 7.944 26.88 26.88 0 0 1-3.454 8.102z" class="colorf2c0a7 svgShape"></path><path fill="#b5d9fe" d="m1535.66 973.365-15.408 53.145c-.897 3.094-1.795 6.191-2.47 9.34-.835 3.895-3.168 7.891-3.31 11.872-.157 4.389.162 8.973 2.321 12.797.294.521.675 1.064 1.255 1.209 1.381.344 3.906-1.64 3.946-3.063l.324-11.428c1.446 1.978-.692-1.832.755.146.796 1.089 1.782 2.283 3.13 2.326 1.817.058 3.638-11.096 3.469-17.856-.146-5.848 2.78-11.288 5.761-16.321 4.785-8.08 9.955-15.993 13.539-24.672 3.397-8.225 5.32-17.021 9.034-25.108 1.585-3.45 3.495-6.771 4.633-10.394 1.556-4.953 1.597-10.235 1.625-15.426.018-3.28.964-10.568-2.767-12.279-3.396-1.558-6.644 1.745-8.415 4.182-5.68 7.817-9.505 16.822-12.613 25.92-1.759 5.155-3.293 10.381-4.809 15.61z" class="colorfed0b5 svgShape"></path><path fill="#7b75d1" d="M1558.521 922.48c-6.219.077-22.072 32.718-19.109 38.177 2.728 5.027 13.338 26.786 17.63 24.419 4.29-2.369 6.51-58.157 1.479-62.596z" class="color75d178 svgShape"></path><path fill="#f4f6f8" d="M1622.876 1023.757c4.123 11.713 8.116 23.364 7.723 31.609-.851 17.999-18.849 18.59-38.68 22.188-19.831 3.602-37.895-10.342-38.026-14.921-.197-4.583 3.861-26.64 5.236-29.452 1.244-2.684 8.639-16.624.196-31.156-.523-.85-1.047-1.767-1.701-2.617-.851-1.243-1.702-2.355-2.422-3.404-8.967-12.304-10.407-14.202-10.407-20.552 0-6.935 3.665-45.616 13.09-52.947 3.927-3.01 8.966-3.86 14.988-3.141 8.574 1.112 19.308 5.302 32.005 10.735 1.244.588 2.487 1.176 3.731 1.831 19.438 10.341 31.874 32.268 31.874 32.268s-8.901 5.564-17.279 15.774c-5.629.262-5.563-1.572-7.526 3.992 0 .131-.065.195-.065.326-.393.917-.785 2.093-1.244 3.471-.327 1.7-.327 3.531-.131 5.628.588 8.311 4.711 19.371 8.638 30.368z" class="color7cdf82 svgShape"></path><path fill="#7b75d1" d="m1622.876 1023.757-5.89 3.142c-6.218-8.443-21.664-18.13-33.838-21.207-6.872-1.767-16.624-2.947-23.824-3.666-.523-.85-1.047-1.767-1.701-2.617-.851-1.243-1.702-2.355-2.422-3.404a70.936 70.936 0 0 1 3.665-.981c6.217-1.636 29.321 5.04 43.655 7.657 7.069 1.31 10.276-3.992 11.715-9.293.59 8.312 4.713 19.372 8.64 30.369z" class="color75d178 svgShape"></path><path fill="#a50b89" d="M1637.547 1057.859c-.096-.145-.192-.288-.384-.337-.528-.335-1.392-.143-1.919.384l-32.966 36.119-22.123-44.947 32.97-36.131c.528-.527 1.391-.719 1.919-.382a.753.753 0 0 1 .384.382l22.119 44.912z" class="colore22951 svgShape"></path><path fill="#ea3dcb" d="m1580.155 1049.118 22.123 44.907-1.233-.672-22.123-44.945zM1583.382 1050.983l22.131 44.94-1.238-.705-22.123-44.945z" class="colorea3d5b svgShape"></path><path fill="#a50b89" d="m1638.484 1059.837-32.971 36.086-22.111-44.963 32.963-36.082c.768-.862.96-1.872.576-2.638l22.119 44.909c.384.816.192 1.824-.576 2.688z" class="colore22951 svgShape"></path><path fill="#fd54de" d="M1616.149 1011.391c1.229.71 1.32 2.283.203 3.506l-32.97 36.086-1.229-.71 32.97-36.086c.506-.554.458-1.255-.091-1.573-.55-.317-1.403-.137-1.909.417l-32.967 36.086-1.233-.71 32.971-36.086c1.116-1.222 3.026-1.639 4.255-.93z" class="colorfd546b svgShape"></path><path fill="#b5d9fe" d="M1639.514 963.034s-19.093 8.423-18.718 17.221c.374 8.798 20.59 30.511 18.718 35.565-1.872 5.054-27.516 36.313-27.516 36.313s-26.767-4.118-27.703-2.059c-.936 2.059 7.862 4.305 10.669 6.177 2.808 1.872-4.492 6.364-8.798 4.867s-9.546 1.872-.187 9.546c9.359 7.675 15.911 7.862 21.339 2.246 5.428-5.615 8.61-7.862 12.167-9.734 3.557-1.872 41.555-35.939 40.057-48.855-1.497-12.914-17.033-50.351-20.028-51.287z" class="colorfed0b5 svgShape"></path><path fill="#f4f6f8" d="M1650.433 985.254c.03.01.081.08.114.096-4.582-11.572-12.586-26.91-14.135-27.395 0 0-20.436 8.326-20.061 17.124.198 4.669 10.429 18.149 15.539 25.675 1.876-8.143 18.543-15.5 18.543-15.5z" class="color7cdf82 svgShape"></path><path fill="#a7ccf2" d="M1602.28 929.384c.104 2.78-2.779 4.864-7.086 10.214-4.307 5.383-18.271 7.954-21.327 7.468-3.057-.451-3.057-3.821-3.439-8.302-.382-4.515 1.806-8.718 1.806-8.718l.104-7.469s21.605-21.048 21.605-9.552c.001 11.462 8.233 13.581 8.337 16.359z" class="colorf2c0a7 svgShape"></path><path fill="#b5d9fe" d="M1608.477 912.123c-4.481 12.332-27.093 17.298-34.631 17.473-7.537.173-6.599-6.426-7.399-15.875-.799-9.447 2.744-33.346 2.744-33.346l-.313-.797c.035-3.545 16.013-10.456 19.625-10.907 3.612-.487 15.318 2.881 18.201 7.19 2.884 4.341 6.254 23.896 1.773 36.262z" class="colorfed0b5 svgShape"></path><path fill="#665463" d="M1567.134 885.991s.224-19.362 22.72-19.362 27.309 15.893 27.868 18.691-.224 17.572-3.469 23.056c-3.246 5.484-13.411 12.872-15.102 14.104 0 0-.79-5.486.888-6.94 1.679-1.455 6.156-6.715 6.379-10.409.224-3.693-4.589-5.26-6.044-4.813-1.455.448-5.372 6.379-5.372 6.379s-4.477-4.701-4.029-9.849c.448-5.148-4.253-9.513-8.618-11.416-4.365-1.903-13.094-2.575-15.221.559z" class="color545466 svgShape"></path></svg>