<svg xmlns="http://www.w3.org/2000/svg" enable-background="new 0 0 299.56 293.71" viewBox="0 0 299.56 293.71" id="Onlinecertificationcourse"><g fill="#010001" class="color000000 svgShape"><g fill="#010001" class="color000000 svgShape"><g fill="#010001" class="color000000 svgShape"><g fill="#010001" class="color000000 svgShape"><g fill="#010001" class="color000000 svgShape"><path fill="#f4f6f8" d="M194.935,152.909v4.915c0,1.189-0.786,2.378-2.357,3.284l-72.906,42.365
						c-3.143,1.834-8.239,1.834-11.422,0l-40.271-23.248c-1.592-0.907-2.377-2.115-2.377-3.324l0.02-4.915
						c0,1.188,0.786,2.397,2.377,3.324l40.271,23.248c3.163,1.834,8.26,1.834,11.423,0l72.906-42.386
						C194.15,155.266,194.935,154.098,194.935,152.909z" class="color2d3a74 svgShape"></path><path fill="#443f8c" d="M192.56,149.573c3.164,1.827,3.181,4.782,0.037,6.609l-72.915,42.373
						c-3.143,1.827-8.246,1.827-11.41,0l-40.271-23.251c-3.164-1.827-3.181-4.782-0.037-6.609l72.915-42.373
						c3.143-1.827,8.246-1.827,11.41,0L192.56,149.573z" class="color3f528c svgShape"></path><g fill="#010001" class="color000000 svgShape"><g fill="#010001" class="color000000 svgShape"><polygon fill="#ffffff" points="193.002 154.037 122.13 195.214 73.72 167.253 144.572 126.075 158.513 134.133 156.075 135.544 172.03 144.77 174.468 143.34" class="colorffffff svgShape"></polygon></g><g fill="#010001" class="color000000 svgShape"><path fill="#f4f6f8" d="M172.11,142.325c0.296,0.171,0.297,0.453,0.004,0.624c-0.307,0.178-0.794,0.178-1.09,0.008
								l-9.714-5.608c-0.309-0.178-0.31-0.46-0.003-0.639c0.293-0.171,0.781-0.171,1.09,0.007L172.11,142.325z" class="color2d3a74 svgShape"></path></g><g fill="#010001" class="color000000 svgShape"><path fill="#f4f6f8" d="M160.083,135.382c0.296,0.171,0.297,0.453,0.004,0.624c-0.307,0.178-0.794,0.178-1.09,0.008
								c-0.309-0.178-0.31-0.46-0.003-0.639C159.287,135.204,159.775,135.204,160.083,135.382z" class="color2d3a74 svgShape"></path></g><g fill="#010001" class="color000000 svgShape"><path fill="#f4f6f8" d="M95.683,182.552c1.466,0.846,1.474,2.228,0.018,3.074c-1.47,0.854-3.854,0.854-5.321,0.007
								c-1.479-0.854-1.487-2.235-0.017-3.089C91.819,181.698,94.204,181.698,95.683,182.552z" class="color2d3a74 svgShape"></path></g></g></g></g><g fill="#010001" class="color000000 svgShape"><g fill="#010001" class="color000000 svgShape"><g fill="#010001" class="color000000 svgShape"><path fill="#443f8c" d="M189.713,159.66c0.502,0.29,0.504,0.765,0.006,1.055l-7.297,4.24
							c-0.498,0.289-1.318,0.289-1.82,0L189.713,159.66z" class="color3f528c svgShape"></path></g></g><g fill="#010001" class="color000000 svgShape"><g fill="#010001" class="color000000 svgShape"><path fill="#632363" d="M179.462 166.37v1.705c0 .182-.121.384-.363.524l-7.313 4.231c-.484.302-1.309.302-1.813 0v-1.706c.504.282 1.33.282 1.833 0l7.293-4.231C179.341 166.733 179.462 166.551 179.462 166.37zM190.099 160.186l-.02 1.725c0 .181-.121.362-.363.523l-7.293 4.231c-.504.282-1.33.282-1.833 0l.02-1.706c.483.282 1.309.282 1.813 0l7.293-4.251C189.958 160.568 190.099 160.387 190.099 160.186z" class="color233163 svgShape"></path></g><g fill="#010001" class="color000000 svgShape"><path fill="#443f8c" d="M179.094,165.831c0.502,0.29,0.504,0.765,0.006,1.055l-7.297,4.24
							c-0.498,0.289-1.318,0.289-1.82,0L179.094,165.831z" class="color3f528c svgShape"></path></g></g></g></g><g fill="#010001" class="color000000 svgShape"><polygon fill="#abc4dd" points="52.992 152.408 48.56 149.833 48.405 95.078 52.836 97.654" class="colorddacab svgShape"></polygon><polygon fill="#b5cee7" points="52.836 97.654 48.405 95.078 116.886 55.541 121.317 58.116" class="colore7b8b5 svgShape"></polygon><polygon fill="#c494bb" points="121.317 58.116 121.473 112.871 52.992 152.408 52.836 97.654" class="colorc49494 svgShape"></polygon><g fill="#010001" class="color000000 svgShape"><polygon fill="#ffffff" points="118.841 62.409 118.98 111.446 55.468 148.115 55.329 99.078" class="colorffffff svgShape"></polygon></g><g fill="#010001" class="color000000 svgShape"><g fill="#010001" class="color000000 svgShape"><path fill="#c3d8ed" d="M109.532,100.84c3.116-1.799,6.233-3.151,9.352-3.872l0.041,14.483L55.42,148.115l-0.036-12.559
						c3.54-0.687,7.265-2.168,11.361-4.533c6.804-3.928,13.726-8.594,20.413-14.259c3.097-2.625,6.246-5.293,9.411-7.791
						c-3.143,2.512-6.284,5.203-9.425,7.894c-6.919,5.926-13.839,11.854-20.764,15.852c-3.662,2.115-7.325,3.689-10.991,4.439
						l0.01,3.669c3.123-0.719,6.245-2.073,9.366-3.875c7.462-4.308,14.919-11.176,22.377-18.049
						C94.602,112.027,102.064,105.151,109.532,100.84z" class="coloredc3d2 svgShape"></path></g><g fill="#010001" class="color000000 svgShape"><path fill="#c494bb" d="M58.24,100.738l57.708-33.318l0.12,42.367l-57.708,33.318L58.24,100.738z M115.238,109.313
						l-0.115-40.464l-56.052,32.361l0.115,40.464L115.238,109.313" class="colorc49494 svgShape"></path></g><g fill="#010001" class="color000000 svgShape"><path fill="#8982ed" d="M107.913,101.009c3.657-2.111,7.316-3.686,10.978-4.438l0.001,0.394
						c-3.126,0.722-6.244,2.074-9.359,3.873c-7.468,4.312-14.929,11.188-22.39,18.064c-7.458,6.873-14.914,13.741-22.377,18.049
						c-3.12,1.802-6.243,3.156-9.366,3.875l-0.01-3.669c3.666-0.75,7.328-2.324,10.991-4.439
						c6.924-3.998,13.845-9.926,20.764-15.852c3.141-2.691,6.282-5.382,9.425-7.894C100.348,105.953,104.13,103.194,107.913,101.009
						z" class="color8294ed svgShape"></path></g><g fill="#010001" class="color000000 svgShape"><polygon fill="#a50b89" points="111.741 104.004 110.524 105.019 111.183 105.856 109.94 106.541 110.295 107.707 109.103 107.986 109.154 109.38 108.089 109.229 107.81 110.801 106.947 110.243 106.364 111.841 105.781 110.928 104.944 112.449 104.639 111.233 103.599 112.603 103.625 111.131 102.433 112.247 102.788 110.674 101.545 111.435 102.204 109.837 100.987 110.217 101.9 108.697 100.784 108.671 101.875 107.352 100.962 106.896 102.179 105.881 101.52 105.043 102.763 104.36 102.407 103.192 103.599 102.938 103.549 101.519 104.614 101.67 104.893 100.098 105.755 100.656 106.339 99.058 106.922 99.971 107.784 98.45 108.063 99.667 109.129 98.298 109.078 99.768 110.27 98.653 109.915 100.251 111.158 99.489 110.524 101.062 111.716 100.682 110.828 102.204 111.919 102.228 110.828 103.547" class="colord363a1 svgShape"></polygon></g><g fill="#010001" class="color000000 svgShape"><g fill="#010001" class="color000000 svgShape"><path fill="#93c8fd" d="M106.34,101.819c1.753-1.012,3.175-0.202,3.181,1.804c0.006,2.007-1.407,4.454-3.16,5.466
							c-1.746,1.008-3.168,0.198-3.174-1.809C103.181,105.274,104.594,102.827,106.34,101.819z" class="colorfd93bf svgShape"></path></g></g></g><g fill="#010001" class="color000000 svgShape"><g fill="#010001" class="color000000 svgShape"><g fill="#010001" class="color000000 svgShape"><polygon fill="#d0d6dd" points="97.656 92.16 97.659 93.318 76.642 105.451 76.639 104.294" class="colord0d5dd svgShape"></polygon></g><g fill="#010001" class="color000000 svgShape"><path fill="#443f8c" d="M77.585,92.542c0.366-0.211,0.679-0.238,0.926-0.071l0.022,0.021l-0.297,0.541l-0.022-0.013
							c-0.112-0.055-0.209-0.077-0.307-0.072c-0.09,0.009-0.202,0.048-0.328,0.121c-0.224,0.129-0.41,0.322-0.566,0.576
							c-0.149,0.249-0.223,0.507-0.222,0.764c0.001,0.257,0.076,0.429,0.226,0.514c0.15,0.085,0.329,0.068,0.538-0.053
							c0.127-0.073,0.239-0.155,0.328-0.258c0.097-0.107,0.194-0.24,0.298-0.412l0.022-0.047l0.307,0.184l-0.022,0.047
							c-0.253,0.464-0.558,0.804-0.924,1.015c-0.358,0.207-0.657,0.242-0.896,0.114c-0.239-0.128-0.36-0.402-0.361-0.805
							c-0.001-0.403,0.125-0.819,0.363-1.231C76.906,93.071,77.219,92.754,77.585,92.542z" class="color3f528c svgShape"></path></g><g fill="#010001" class="color000000 svgShape"><path fill="#443f8c" d="M82.499,91.525l0.622,0.629l-0.589,0.34l-0.015-0.009l-0.54-0.564l-0.455,0.263l0.003,0.892
							l-0.47,0.271l-0.008-2.743l0.903-0.521c0.358-0.207,0.619-0.281,0.784-0.238c0.157,0.056,0.24,0.239,0.241,0.557
							C82.975,90.838,82.812,91.216,82.499,91.525z M81.968,91.428c0.209-0.121,0.351-0.237,0.425-0.348
							c0.067-0.108,0.104-0.249,0.103-0.404c0-0.163-0.038-0.244-0.105-0.265c-0.075-0.017-0.217,0.039-0.418,0.156l-0.455,0.263
							l0.002,0.857L81.968,91.428" class="color3f528c svgShape"></path></g><g fill="#010001" class="color000000 svgShape"><polygon fill="#443f8c" points="85.075 88.278 85.077 88.775 84.375 89.18 84.382 91.426 83.919 91.693 83.913 89.447 83.204 89.856 83.203 89.359" class="color3f528c svgShape"></polygon></g><g fill="#010001" class="color000000 svgShape"><polygon fill="#443f8c" points="85.888 87.808 85.896 90.551 85.434 90.818 85.426 88.075" class="color3f528c svgShape"></polygon></g><g fill="#010001" class="color000000 svgShape"><polygon fill="#443f8c" points="88.074 86.546 88.068 87.056 86.919 87.719 86.921 88.362 87.951 87.768 87.952 88.265 86.923 88.859 86.926 89.957 86.463 90.224 86.455 87.481" class="color3f528c svgShape"></polygon></g><g fill="#010001" class="color000000 svgShape"><polygon fill="#443f8c" points="88.917 86.06 88.925 88.803 88.455 89.074 88.447 86.331" class="color3f528c svgShape"></polygon></g><g fill="#010001" class="color000000 svgShape"><path fill="#443f8c" d="M90.618,85.017c0.366-0.211,0.672-0.234,0.926-0.071l0.022,0.021l-0.297,0.541L91.24,85.5
							c-0.105-0.06-0.21-0.077-0.299-0.077c-0.097,0.013-0.209,0.052-0.336,0.125c-0.216,0.125-0.41,0.323-0.559,0.571
							c-0.149,0.249-0.223,0.506-0.222,0.764c0.001,0.257,0.076,0.429,0.226,0.514c0.15,0.094,0.329,0.068,0.531-0.049
							c0.134-0.077,0.246-0.159,0.336-0.263c0.089-0.103,0.186-0.236,0.29-0.408l0.03-0.052l0.299,0.188l-0.022,0.047
							c-0.253,0.464-0.558,0.803-0.916,1.01c-0.358,0.207-0.657,0.242-0.896,0.114c-0.24-0.128-0.36-0.402-0.361-0.805
							c-0.001-0.403,0.117-0.814,0.363-1.231C89.94,85.546,90.245,85.233,90.618,85.017z" class="color3f528c svgShape"></path></g><g fill="#010001" class="color000000 svgShape"><g fill="#010001" class="color000000 svgShape"><polygon fill="#d0d6dd" points="82.248 116.22 82.251 117.378 61.234 129.512 61.231 128.354" class="colord0d5dd svgShape"></polygon></g><g fill="#010001" class="color000000 svgShape"><polygon fill="#d0d6dd" points="72.392 119.111 72.395 120.269 61.226 126.717 61.223 125.559" class="colord0d5dd svgShape"></polygon></g><g fill="#010001" class="color000000 svgShape"><polygon fill="#443f8c" points="80.584 90.871 80.585 91.376 79.354 92.087 79.356 92.704 80.46 92.067 80.462 92.556 79.358 93.193 79.359 93.819 80.635 93.082 80.636 93.588 78.898 94.592 78.89 91.849" class="color3f528c svgShape"></polygon></g><g fill="#010001" class="color000000 svgShape"><polygon fill="#d0d6dd" points="113.128 90.783 113.131 91.941 61.213 121.916 61.209 120.758" class="colord0d5dd svgShape"></polygon></g><g fill="#010001" class="color000000 svgShape"><polygon fill="#d0d6dd" points="113.122 88.563 113.125 89.721 61.206 119.696 61.203 118.539" class="colord0d5dd svgShape"></polygon></g></g><g fill="#010001" class="color000000 svgShape"><path fill="#443f8c" d="M93.103,83.669l1.052,2.115l-0.5,0.289l-0.008-0.022l-0.225-0.445l-1.112,0.642l-0.23,0.733
							l-0.5,0.289l0.03-0.077l1.014-3.273l0.47-0.271L93.103,83.669z M92.503,85.629l0.724-0.418l-0.361-0.736L92.503,85.629" class="color3f528c svgShape"></path></g><g fill="#010001" class="color000000 svgShape"><polygon fill="#443f8c" points="95.841 82.062 95.842 82.559 95.141 82.964 95.147 85.21 94.677 85.482 94.671 83.236 93.97 83.641 93.968 83.143" class="color3f528c svgShape"></polygon></g><g fill="#010001" class="color000000 svgShape"><polygon fill="#443f8c" points="97.885 80.882 97.887 81.388 96.656 82.098 96.657 82.715 97.762 82.078 97.763 82.567 96.659 83.204 96.661 83.83 97.936 83.093 97.938 83.599 96.192 84.607 96.184 81.864" class="color3f528c svgShape"></polygon></g><g fill="#010001" class="color000000 svgShape"><polygon fill="#d0d6dd" points="113.1 81.028 113.104 82.185 61.185 112.16 61.182 111.003" class="colord0d5dd svgShape"></polygon></g><g fill="#010001" class="color000000 svgShape"><polygon fill="#d0d6dd" points="113.094 78.807 113.097 79.965 61.179 109.94 61.175 108.783" class="colord0d5dd svgShape"></polygon></g></g></g></g><g fill="#010001" class="color000000 svgShape"><g fill="#010001" class="color000000 svgShape"><path fill="#632363" d="M133.756,168.105l3.182-2.444c0,0,2.406,1.475,5.548,0.116c3.143-1.358,2.677,2.522,2.677,2.522
					c-0.388,0.892-1.746,2.289-4.423,2.832c-1.083,0.22-1.83-0.365-2.237-0.181c-0.393,0.178-0.642,0.573-0.651,1.005
					c-0.007,0.324-0.272,0.583-0.596,0.583h-2.737c-0.248,0-0.467-0.153-0.56-0.382
					C133.222,170.342,133.756,168.105,133.756,168.105z" class="color233163 svgShape"></path><g fill="#010001" class="color000000 svgShape"><g fill="#010001" class="color000000 svgShape"><g fill="#010001" class="color000000 svgShape"><g fill="#010001" class="color000000 svgShape"><g fill="#010001" class="color000000 svgShape"><g fill="#010001" class="color000000 svgShape"><g fill="#010001" class="color000000 svgShape"><g fill="#010001" class="color000000 svgShape"><g fill="#010001" class="color000000 svgShape"><g fill="#010001" class="color000000 svgShape"><g fill="#010001" class="color000000 svgShape"><g fill="#010001" class="color000000 svgShape"><path fill="#632363" d="M129.115,143.788c0.226-0.131,0.432-0.143,0.58-0.057l2.11,1.233
																	c-0.148-0.086-0.612,2.003-0.839,2.134c-0.45,0.26-0.814,0.891-0.813,1.408c0.001,0.257,0.092,0.438,0.238,0.523
																	l-2.11-1.233c-0.146-0.085-0.237-0.266-0.238-0.523C128.042,146.756,128.665,144.048,129.115,143.788z" class="color233163 svgShape"></path></g></g></g></g></g><g fill="#010001" class="color000000 svgShape"><g fill="#010001" class="color000000 svgShape"><g fill="#010001" class="color000000 svgShape"><g fill="#010001" class="color000000 svgShape"><path fill="#f4f6f8" d="M131.521,145.099c0.914-0.528,1.657-0.104,1.66,0.946
																c0.003,1.05-0.736,2.329-1.65,2.857c-0.914,0.528-1.657,0.104-1.66-0.946
																C129.869,146.905,130.607,145.626,131.521,145.099z" class="color2d3a74 svgShape"></path></g><g fill="#010001" class="color000000 svgShape"><path fill="#f4f6f8" d="M131.523,145.769c0.592-0.342,1.073-0.068,1.075,0.613
																c0.002,0.68-0.476,1.508-1.068,1.85c-0.592,0.342-1.073,0.067-1.075-0.612
																C130.453,146.939,130.931,146.111,131.523,145.769z" class="coloreaeffa svgShape"></path></g><g fill="#010001" class="color000000 svgShape"><path fill="#f4f6f8" d="M131.525,146.489c0.245-0.142,0.445-0.028,0.446,0.254
																c0.001,0.282-0.198,0.626-0.443,0.767c-0.245,0.142-0.445,0.028-0.446-0.254
																C131.081,146.975,131.279,146.631,131.525,146.489z" class="color2d3a74 svgShape"></path></g></g></g></g></g></g></g></g></g><g fill="#010001" class="color000000 svgShape"><g fill="#010001" class="color000000 svgShape"><g fill="#010001" class="color000000 svgShape"><g fill="#010001" class="color000000 svgShape"><g fill="#010001" class="color000000 svgShape"><g fill="#010001" class="color000000 svgShape"><g fill="#010001" class="color000000 svgShape"><g fill="#010001" class="color000000 svgShape"><g fill="#010001" class="color000000 svgShape"><g fill="#010001" class="color000000 svgShape"><path fill="#632363" d="M114.938,151.976c0.226-0.131,0.432-0.143,0.58-0.057l2.11,1.233
																	c-0.148-0.086-0.612,2.003-0.839,2.134c-0.45,0.26-0.814,0.891-0.813,1.408c0.001,0.257,0.092,0.438,0.238,0.523
																	l-2.11-1.233c-0.146-0.085-0.237-0.266-0.238-0.523C113.865,154.944,114.488,152.236,114.938,151.976z" class="color233163 svgShape"></path></g></g></g></g></g><g fill="#010001" class="color000000 svgShape"><g fill="#010001" class="color000000 svgShape"><g fill="#010001" class="color000000 svgShape"><g fill="#010001" class="color000000 svgShape"><path fill="#f4f6f8" d="M117.344,153.287c0.914-0.528,1.657-0.104,1.66,0.946
																c0.003,1.05-0.736,2.329-1.65,2.857c-0.914,0.528-1.657,0.104-1.66-0.946
																C115.692,155.093,116.43,153.814,117.344,153.287z" class="color2d3a74 svgShape"></path></g><g fill="#010001" class="color000000 svgShape"><path fill="#f4f6f8" d="M117.346,153.957c0.592-0.342,1.073-0.068,1.075,0.613
																c0.002,0.68-0.476,1.508-1.068,1.85c-0.592,0.342-1.073,0.067-1.075-0.613
																C116.276,155.127,116.754,154.299,117.346,153.957z" class="coloreaeffa svgShape"></path></g><g fill="#010001" class="color000000 svgShape"><path fill="#f4f6f8" d="M117.348,154.677c0.245-0.142,0.445-0.028,0.446,0.254
																c0.001,0.282-0.198,0.626-0.443,0.768c-0.246,0.142-0.445,0.028-0.446-0.254
																C116.904,155.163,117.103,154.819,117.348,154.677z" class="color2d3a74 svgShape"></path></g></g></g></g></g></g></g></g></g></g><g fill="#010001" class="color000000 svgShape"><g fill="#010001" class="color000000 svgShape"><g fill="#010001" class="color000000 svgShape"><polygon fill="#938cf7" points="109.935 154.757 109.938 155.786 112.74 157.415 112.738 156.386" class="color8ca8f7 svgShape"></polygon></g><g fill="#010001" class="color000000 svgShape"><polygon fill="#8982ed" points="112.738 156.386 112.74 157.415 134.665 144.757 134.662 143.728" class="color8294ed svgShape"></polygon></g><g fill="#010001" class="color000000 svgShape"><polygon fill="#c494bb" points="118.105 142.805 135.34 132.79 135.196 152.839 117.961 162.855" class="colorc49494 svgShape"></polygon></g></g></g></g><g fill="#010001" class="color000000 svgShape"><g fill="#010001" class="color000000 svgShape"><g fill="#010001" class="color000000 svgShape"><polygon fill="#b7dbff" points="116.592 131.284 126.985 125.245 128.091 125.883 117.698 131.923" class="colorb7ceff svgShape"></polygon></g></g></g><g fill="#010001" class="color000000 svgShape"><path fill="#f4f6f8" d="M120.522,148.719c-8.604,4.773-10.11,5.818-10.934,5.968v7.921
						c4.1-2.413,6.366-5.755,9.778-6.202c0,0-0.142,2.976,0.756,4.991c0.387,0.87,0.727,1.758,0.928,2.688
						c0.174,0.803,0.455,1.76,0.901,2.524c0,0,3.401,1.633,5.238-1.7C127.188,164.908,130.453,143.209,120.522,148.719z" class="color2d3a74 svgShape"></path><path fill="#632363" d="M128.714,163.145c-3.339,1.491-6.052,0.52-6.052,0.52s0.634,3.243,0.395,5.139
						c-0.045,0.356,0.134,0.7,0.437,0.894c0.566,0.363,1.559,0.78,2.813,0.415c0.268-0.078,0.488-0.297,0.576-0.562
						c0.152-0.454,0.519-1.168,1.354-1.367c1.252-0.298,3.339-1.074,3.548-3.577C131.785,164.606,132.053,161.654,128.714,163.145z" class="color233163 svgShape"></path></g><g fill="#010001" class="color000000 svgShape"><g fill="#010001" class="color000000 svgShape"><g fill="#010001" class="color000000 svgShape"><g fill="#010001" class="color000000 svgShape"><path fill="#443f8c" d="M120.377,182.913c0.167-0.1,0.395-0.083,0.651,0.061c0.512,0.295,0.923,1.006,0.923,1.59
									c0,0.289-0.106,0.495-0.272,0.595l0.784-0.456c0.167-0.1,0.267-0.3,0.272-0.595c0-0.584-0.411-1.29-0.923-1.591
									c-0.256-0.144-0.484-0.161-0.656-0.061L120.377,182.913z" class="color3f528c svgShape"></path></g><g fill="#010001" class="color000000 svgShape"><path fill="#632363" d="M121.029,182.976c-0.508-0.293-0.921-0.058-0.923,0.526
									c-0.002,0.583,0.409,1.299,0.917,1.592c0.511,0.295,0.924,0.055,0.926-0.528
									C121.951,183.982,121.54,183.271,121.029,182.976z" class="color233163 svgShape"></path></g><g fill="#010001" class="color000000 svgShape"><g fill="#010001" class="color000000 svgShape"><path fill="#f4f6f8" d="M121.678,184.41c-0.001,0.413-0.293,0.579-0.653,0.372c-0.359-0.207-0.65-0.71-0.648-1.123
										c0.001-0.413,0.293-0.579,0.653-0.372C121.389,183.495,121.679,183.997,121.678,184.41z" class="coloreaeffa svgShape"></path></g><g fill="#010001" class="color000000 svgShape"><path fill="#f4f6f8" d="M121.297,184.191c-0.001,0.171-0.122,0.24-0.271,0.154c-0.149-0.086-0.27-0.295-0.269-0.466
										s0.122-0.24,0.271-0.154C121.177,183.811,121.298,184.019,121.297,184.191z" class="color2d3a74 svgShape"></path></g></g></g><g fill="#010001" class="color000000 svgShape"><g fill="#010001" class="color000000 svgShape"><path fill="#443f8c" d="M109.508,182.943c-0.167-0.1-0.395-0.083-0.651,0.061c-0.512,0.295-0.923,1.006-0.923,1.59
									c0,0.289,0.106,0.495,0.272,0.595l-0.784-0.456c-0.167-0.1-0.267-0.3-0.272-0.595c0-0.584,0.411-1.29,0.923-1.591
									c0.256-0.145,0.484-0.161,0.656-0.061L109.508,182.943z" class="color3f528c svgShape"></path></g><g fill="#010001" class="color000000 svgShape"><path fill="#632363" d="M108.856,183.006c0.508-0.293,0.921-0.058,0.923,0.526c0.002,0.583-0.409,1.298-0.917,1.592
									c-0.511,0.295-0.924,0.055-0.926-0.528C107.934,184.012,108.345,183.301,108.856,183.006z" class="color233163 svgShape"></path></g><g fill="#010001" class="color000000 svgShape"><g fill="#010001" class="color000000 svgShape"><path fill="#f4f6f8" d="M108.855,183.318c0.359-0.207,0.651-0.041,0.653,0.372c0.001,0.413-0.289,0.916-0.648,1.123
										c-0.359,0.207-0.652,0.041-0.653-0.372C108.206,184.028,108.496,183.525,108.855,183.318z" class="coloreaeffa svgShape"></path></g><g fill="#010001" class="color000000 svgShape"><path fill="#f4f6f8" d="M108.857,183.755c0.149-0.086,0.27-0.017,0.271,0.154c0.001,0.171-0.12,0.38-0.269,0.466
										c-0.149,0.086-0.27,0.017-0.271-0.154C108.587,184.05,108.708,183.841,108.857,183.755z" class="color2d3a74 svgShape"></path></g></g></g><g fill="#010001" class="color000000 svgShape"><g fill="#010001" class="color000000 svgShape"><path fill="#443f8c" d="M123.098,174.411c-0.167-0.1-0.395-0.083-0.651,0.061c-0.512,0.295-0.923,1.006-0.923,1.59
									c0,0.289,0.106,0.495,0.272,0.595l-0.784-0.456c-0.167-0.1-0.267-0.3-0.272-0.595c0-0.584,0.411-1.29,0.923-1.591
									c0.256-0.145,0.484-0.161,0.656-0.061L123.098,174.411z" class="color3f528c svgShape"></path></g><g fill="#010001" class="color000000 svgShape"><path fill="#632363" d="M122.446,174.475c0.508-0.293,0.921-0.058,0.923,0.526c0.002,0.583-0.409,1.298-0.917,1.592
									c-0.511,0.295-0.925,0.056-0.926-0.528C121.524,175.481,121.935,174.77,122.446,174.475z" class="color233163 svgShape"></path></g><g fill="#010001" class="color000000 svgShape"><g fill="#010001" class="color000000 svgShape"><path fill="#f4f6f8" d="M122.445,174.786c0.359-0.207,0.652-0.041,0.653,0.372c0.001,0.413-0.289,0.916-0.648,1.123
										c-0.359,0.207-0.651,0.041-0.653-0.372C121.796,175.496,122.086,174.993,122.445,174.786z" class="coloreaeffa svgShape"></path></g><g fill="#010001" class="color000000 svgShape"><path fill="#f4f6f8" d="M122.446,175.223c0.149-0.086,0.27-0.017,0.271,0.154c0,0.171-0.12,0.38-0.269,0.466
										c-0.149,0.086-0.27,0.017-0.271-0.154C122.177,175.518,122.297,175.309,122.446,175.223z" class="color2d3a74 svgShape"></path></g></g></g><g fill="#010001" class="color000000 svgShape"><g fill="#010001" class="color000000 svgShape"><path fill="#443f8c" d="M107.315,174.535c0.167-0.1,0.395-0.083,0.651,0.061c0.512,0.295,0.923,1.006,0.923,1.59
									c0,0.289-0.106,0.495-0.272,0.595l0.784-0.456c0.167-0.1,0.267-0.3,0.272-0.595c0-0.584-0.411-1.29-0.923-1.591
									c-0.256-0.145-0.484-0.161-0.656-0.061L107.315,174.535z" class="color3f528c svgShape"></path></g><g fill="#010001" class="color000000 svgShape"><path fill="#632363" d="M107.966,174.598c-0.508-0.293-0.921-0.058-0.923,0.526
									c-0.002,0.583,0.409,1.299,0.917,1.592c0.511,0.295,0.925,0.056,0.926-0.528
									C108.888,175.605,108.478,174.894,107.966,174.598z" class="color233163 svgShape"></path></g><g fill="#010001" class="color000000 svgShape"><g fill="#010001" class="color000000 svgShape"><path fill="#f4f6f8" d="M108.616,176.033c-0.001,0.413-0.293,0.579-0.653,0.372c-0.359-0.208-0.65-0.71-0.648-1.123
										c0.001-0.413,0.293-0.579,0.653-0.372C108.327,175.117,108.617,175.62,108.616,176.033z" class="coloreaeffa svgShape"></path></g><g fill="#010001" class="color000000 svgShape"><path fill="#f4f6f8" d="M108.235,175.813c-0.001,0.171-0.122,0.24-0.271,0.154c-0.149-0.086-0.27-0.295-0.269-0.466
										c0.001-0.171,0.122-0.24,0.271-0.154C108.115,175.433,108.236,175.642,108.235,175.813z" class="color2d3a74 svgShape"></path></g></g></g><g fill="#010001" class="color000000 svgShape"><g fill="#010001" class="color000000 svgShape"><g fill="#010001" class="color000000 svgShape"><polygon fill="#a5aeb7" points="123.517 173.787 123.514 174.889 117.394 178.404 117.397 177.303" class="colora5acb7 svgShape"></polygon></g><g fill="#010001" class="color000000 svgShape"><polygon fill="#d0d6dd" points="113.062 177.301 113.059 178.402 106.902 174.887 106.905 173.786" class="colord0d5dd svgShape"></polygon></g><g fill="#010001" class="color000000 svgShape"><polygon fill="#d0d6dd" points="120.924 183.191 120.921 184.292 115.235 179.658 115.238 178.557" class="colord0d5dd svgShape"></polygon></g><g fill="#010001" class="color000000 svgShape"><polygon fill="#a5aeb7" points="123.083 181.936 123.08 183.037 120.921 184.292 120.924 183.191" class="colora5acb7 svgShape"></polygon></g><g fill="#010001" class="color000000 svgShape"><polygon fill="#d0d6dd" points="109.589 183.191 109.586 184.292 107.409 183.036 107.413 181.934" class="colord0d5dd svgShape"></polygon></g><g fill="#010001" class="color000000 svgShape"><polygon fill="#a5aeb7" points="115.238 178.557 115.235 179.658 109.586 184.292 109.589 183.191" class="colora5acb7 svgShape"></polygon></g><g fill="#010001" class="color000000 svgShape"><polygon fill="#f4f6f8" points="123.517 173.787 117.397 177.303 123.083 181.936 120.924 183.191 115.238 178.557 109.589 183.191 107.413 181.934 113.062 177.301 106.905 173.786 109.064 172.531 115.221 176.046 121.341 172.531" class="coloreaeffa svgShape"></polygon></g></g></g></g><g fill="#010001" class="color000000 svgShape"><g fill="#010001" class="color000000 svgShape"><g fill="#010001" class="color000000 svgShape"><path fill="#a5aeb7" d="M116.941,160.968v16.108c-0.001,0.251-0.166,0.501-0.495,0.693
									c-0.663,0.385-1.741,0.385-2.408,0c-0.336-0.194-0.503-0.448-0.503-0.702v-16.108c-0.001,0.254,0.167,0.508,0.503,0.702
									c0.667,0.385,1.746,0.385,2.408,0C116.775,161.47,116.94,161.219,116.941,160.968z" class="colora5acb7 svgShape"></path></g></g></g><g fill="#010001" class="color000000 svgShape"><g fill="#010001" class="color000000 svgShape"><g fill="#010001" class="color000000 svgShape"><path fill="#443f8c" d="M110.545,168.461l-0.926,0.535c-0.247,0.14-0.469,0.156-0.625,0.057l-2.902-1.677
									c0.164,0.09,0.386,0.074,0.625-0.066l0.935-0.534L110.545,168.461z" class="color3f528c svgShape"></path></g><g fill="#010001" class="color000000 svgShape"><path fill="#e576d1" d="M128.799,160.841l-0.006,2.524c0,0.366-0.242,0.731-0.719,1.011l-10.572,6.145
									c-0.967,0.558-2.536,0.558-3.51,0l-10.647-6.145c-0.484-0.285-0.732-0.651-0.726-1.023l0.006-2.518
									c0,0.366,0.248,0.738,0.726,1.011l10.647,6.145c0.974,0.564,2.542,0.564,3.51,0l10.572-6.145
									C128.557,161.567,128.799,161.201,128.799,160.841z" class="colore576ad svgShape"></path></g><g fill="#010001" class="color000000 svgShape"><path fill="#93c8fd" d="M128.069,159.817c0.97,0.56,0.975,1.47,0.011,2.03l-10.572,6.144
									c-0.967,0.562-2.538,0.562-3.508,0.002l-10.646-6.146c-0.97-0.56-0.975-1.47-0.007-2.032l10.572-6.144
									c0.964-0.56,2.534-0.56,3.504,0L128.069,159.817z" class="colorfd93bf svgShape"></path></g></g></g></g><path fill="#443f8c" d="M133.569,168.794c0,0,3.114,0.93,4.95-2.403c0,0,3.265-21.699-6.666-16.189
					c-9.931,5.51-13.867,4.437-14.751,4.369c-0.884-0.068-7.561,4.678-6.268,8.079c1.292,3.401,1.02,5.065,7.142,2.839
					c6.122-2.227,8.571-7.056,12.72-7.6c0,0-0.068,2.039,0.83,4.054c0.387,0.87,0.87,1.421,1.072,2.352
					C132.771,165.097,133.123,168.031,133.569,168.794z" class="color3f528c svgShape"></path><g fill="#010001" class="color000000 svgShape"><g fill="#010001" class="color000000 svgShape"><g fill="#010001" class="color000000 svgShape"><g fill="#010001" class="color000000 svgShape"><g fill="#010001" class="color000000 svgShape"><g fill="#010001" class="color000000 svgShape"><polygon fill="#8982ed" points="144.525 147.513 154.917 141.473 154.831 162.208 144.438 168.247" class="color8294ed svgShape"></polygon></g><g fill="#010001" class="color000000 svgShape"><polygon fill="#b7dbff" points="143.418 146.874 153.811 140.835 154.917 141.473 144.525 147.513" class="colorb7ceff svgShape"></polygon></g><g fill="#010001" class="color000000 svgShape"><polygon fill="#938cf7" points="144.525 147.513 144.438 168.247 143.332 167.608 143.418 146.874" class="color8ca8f7 svgShape"></polygon></g></g></g><g fill="#010001" class="color000000 svgShape"><g fill="#010001" class="color000000 svgShape"><g fill="#010001" class="color000000 svgShape"><polygon fill="#c494bb" points="143.207 154.824 160.442 144.808 160.298 164.858 143.064 174.874" class="colorc49494 svgShape"></polygon></g><g fill="#010001" class="color000000 svgShape"><polygon fill="#b7dbff" points="143.418 146.874 153.811 140.835 154.917 141.473 144.525 147.513" class="colorb7ceff svgShape"></polygon></g><g fill="#010001" class="color000000 svgShape"><polygon fill="#9fb8d1" points="143.207 154.824 143.064 174.874 141.229 173.814 141.373 153.764" class="colord19f9f svgShape"></polygon></g></g></g></g><g fill="#010001" class="color000000 svgShape"><g fill="#010001" class="color000000 svgShape"><g fill="#010001" class="color000000 svgShape"><path fill="#abc4dd" d="M165.096,147.831l-0.007,1.114c0,0.301-0.198,0.601-0.595,0.834l-17.677,10.275
										c-0.8,0.464-2.098,0.464-2.905,0l-37.889-21.877c-0.403-0.232-0.601-0.54-0.601-0.841v-1.114
										c0,0.301,0.198,0.608,0.601,0.841l37.896,21.877c0.8,0.465,2.105,0.465,2.898,0l17.684-10.275
										C164.898,148.433,165.096,148.132,165.096,147.831z" class="colorddacab svgShape"></path></g><g fill="#010001" class="color000000 svgShape"><path fill="#b5cee7" d="M164.49,146.988c0.803,0.464,0.807,1.214,0.009,1.678L146.82,158.94
										c-0.798,0.464-2.098,0.466-2.901,0.003l-37.892-21.877c-0.803-0.464-0.803-1.217-0.005-1.68l17.679-10.274
										c0.798-0.464,2.094-0.464,2.897,0L164.49,146.988z" class="colore7b8b5 svgShape"></path></g></g></g></g></g><g fill="#010001" class="color000000 svgShape"><g fill="#010001" class="color000000 svgShape"><path fill="#443f8c" d="M131.822,131.748l-0.245,0.143l-5.312-3.067c-0.432-0.25-1.127-0.25-1.552-0.003
							c-0.43,0.25-0.432,0.655,0.001,0.904l7.858,4.537c0.565,0.326,0.568,0.856,0.007,1.182l-3.625,2.107l-0.247-0.143l3.625-2.107
							c0.429-0.249,0.427-0.652-0.001-0.899l-7.858-4.537c-0.569-0.329-0.572-0.858-0.011-1.184c0.565-0.329,1.48-0.329,2.049,0
							L131.822,131.748z" class="color3f528c svgShape"></path></g><g fill="#010001" class="color000000 svgShape"><g fill="#010001" class="color000000 svgShape"><path fill="#443f8c" d="M154.522,142.803l-9.225-5.326h-0.682l9.737,5.621c0.117,0.068,0.185,0.151,0.185,0.229
								c0.001,0.077-0.066,0.158-0.181,0.226l-7.895,4.588l0.172,0.295l7.895-4.588c0.227-0.132,0.351-0.317,0.35-0.521
								C154.877,143.121,154.751,142.935,154.522,142.803z" class="color3f528c svgShape"></path></g><g fill="#010001" class="color000000 svgShape"><g fill="#010001" class="color000000 svgShape"><g fill="#010001" class="color000000 svgShape"><g fill="#010001" class="color000000 svgShape"><path fill="#8982ed" d="M146.54,138.618l-0.003,0.57c0,0.101-0.066,0.202-0.203,0.283l-3.986,2.316
											c-0.269,0.157-0.716,0.157-0.985,0l-6.917-3.993c-0.136-0.08-0.206-0.182-0.206-0.286l0.003-0.569
											c0,0.105,0.066,0.206,0.206,0.286l6.913,3.993c0.272,0.157,0.716,0.157,0.989,0l3.986-2.316
											C146.471,138.82,146.54,138.719,146.54,138.618z" class="color8294ed svgShape"></path></g><g fill="#010001" class="color000000 svgShape"><path fill="#b7dbff" d="M146.334,138.328c0.272,0.157,0.276,0.413,0.003,0.572l-3.986,2.317
											c-0.27,0.157-0.715,0.157-0.987,0l-6.914-3.992c-0.274-0.158-0.274-0.415-0.003-0.572l3.986-2.317
											c0.273-0.158,0.713-0.158,0.987,0L146.334,138.328z" class="colorb7ceff svgShape"></path></g></g></g><g fill="#010001" class="color000000 svgShape"><g fill="#010001" class="color000000 svgShape"><g fill="#010001" class="color000000 svgShape"><g fill="#010001" class="color000000 svgShape"><path fill="#b7dbff" d="M152.104,129.285l-0.035,13.22c0,0.25-0.095,0.431-0.233,0.508l-0.873,0.507
												c0.138-0.077,0.233-0.258,0.233-0.508l0.034-13.229c0-0.5-0.353-1.119-0.792-1.369l-18.672-10.783
												c-0.224-0.129-0.431-0.146-0.568-0.06l0.873-0.508c0.138-0.086,0.344-0.069,0.568,0.061l18.671,10.783
												C151.751,128.157,152.104,128.777,152.104,129.285z" class="colorb7ceff svgShape"></path></g><g fill="#010001" class="color000000 svgShape"><path fill="#8982ed" d="M150.438,128.411c0.44,0.254,0.796,0.871,0.795,1.377l-0.038,13.224
												c-0.001,0.505-0.36,0.71-0.8,0.456l-18.674-10.781c-0.445-0.257-0.796-0.871-0.795-1.376l0.037-13.224
												c0.001-0.506,0.355-0.713,0.8-0.456L150.438,128.411z" class="color8294ed svgShape"></path></g></g></g></g></g><g fill="#010001" class="color000000 svgShape"><g fill="#010001" class="color000000 svgShape"><g fill="#010001" class="color000000 svgShape"><path fill="#8982ed" d="M142.429,145.345v0.804c-0.003,0.102-0.069,0.2-0.2,0.279l-4.757,2.762
										c-0.266,0.154-0.702,0.154-0.974,0l-17.794-10.275c-0.134-0.079-0.203-0.181-0.203-0.282l0.003-0.804
										c0,0.102,0.066,0.207,0.2,0.282l17.798,10.275c0.269,0.158,0.709,0.158,0.974,0.003l4.754-2.766
										C142.364,145.548,142.429,145.446,142.429,145.345z" class="color8294ed svgShape"></path></g><g fill="#010001" class="color000000 svgShape"><path fill="#b7dbff" d="M142.226,145.06c0.27,0.156,0.274,0.409,0.005,0.565l-4.755,2.763
										c-0.266,0.155-0.705,0.155-0.975-0.001l-17.795-10.274c-0.268-0.155-0.269-0.409-0.003-0.564l4.755-2.763
										c0.268-0.156,0.705-0.155,0.973,0L142.226,145.06z" class="colorb7ceff svgShape"></path></g><polygon fill="#8982ed" points="125.022 135.712 124.177 135.224 123.837 135.421 124.683 135.909" class="color8294ed svgShape"></polygon><polygon fill="#8982ed" points="125.372 135.915 125.034 136.112 125.879 136.6 126.218 136.403" class="color8294ed svgShape"></polygon><polygon fill="#8982ed" points="126.566 136.604 126.228 136.801 127.073 137.289 127.412 137.092" class="color8294ed svgShape"></polygon><polygon fill="#8982ed" points="128.608 137.783 127.763 137.295 127.424 137.492 128.269 137.98" class="color8294ed svgShape"></polygon><polygon fill="#8982ed" points="129.463 138.669 129.802 138.472 128.957 137.983 128.617 138.181" class="color8294ed svgShape"></polygon><polygon fill="#8982ed" points="130.658 139.36 130.998 139.163 130.151 138.673 129.811 138.871" class="color8294ed svgShape"></polygon><polygon fill="#8982ed" points="131.346 139.363 131.008 139.561 131.853 140.049 132.192 139.852" class="color8294ed svgShape"></polygon><polygon fill="#8982ed" points="133.049 140.739 133.387 140.543 132.54 140.053 132.202 140.251" class="color8294ed svgShape"></polygon><polygon fill="#8982ed" points="134.243 141.429 134.582 141.232 133.737 140.743 133.397 140.941" class="color8294ed svgShape"></polygon><polygon fill="#8982ed" points="135.438 142.119 135.778 141.921 134.931 141.433 134.591 141.631" class="color8294ed svgShape"></polygon><polygon fill="#8982ed" points="137.834 143.109 136.989 142.621 136.649 142.818 137.495 143.307" class="color8294ed svgShape"></polygon><polygon fill="#8982ed" points="138.184 143.312 137.846 143.509 138.69 143.998 139.03 143.8" class="color8294ed svgShape"></polygon><polygon fill="#8982ed" points="140.223 144.489 139.378 144.001 139.04 144.198 139.885 144.686" class="color8294ed svgShape"></polygon><polygon fill="#8982ed" points="141.081 145.378 141.419 145.18 140.572 144.69 140.233 144.887" class="color8294ed svgShape"></polygon><polygon fill="#8982ed" points="137.248 143.45 136.402 142.962 135.664 143.391 136.51 143.879" class="color8294ed svgShape"></polygon><polygon fill="#8982ed" points="138.443 144.14 137.598 143.652 136.86 144.08 137.706 144.569" class="color8294ed svgShape"></polygon><polygon fill="#8982ed" points="138.792 144.342 138.055 144.77 138.9 145.259 139.637 144.83" class="color8294ed svgShape"></polygon><polygon fill="#8982ed" points="140.096 145.949 140.834 145.52 139.986 145.031 139.249 145.46" class="color8294ed svgShape"></polygon><polygon fill="#8982ed" points="135.527 144.45 136.265 144.021 135.42 143.533 134.682 143.962" class="color8294ed svgShape"></polygon><polygon fill="#8982ed" points="135.878 144.652 136.724 145.14 137.461 144.711 136.615 144.223" class="color8294ed svgShape"></polygon><polygon fill="#8982ed" points="137.809 144.913 137.072 145.341 137.917 145.83 138.655 145.401" class="color8294ed svgShape"></polygon><polygon fill="#8982ed" points="138.266 146.031 139.113 146.52 139.851 146.091 139.004 145.602" class="color8294ed svgShape"></polygon><polygon fill="#8982ed" points="134.437 144.104 133.699 144.533 134.544 145.021 135.282 144.592" class="color8294ed svgShape"></polygon><polygon fill="#8982ed" points="136.478 145.282 135.633 144.794 134.896 145.223 135.741 145.711" class="color8294ed svgShape"></polygon><polygon fill="#8982ed" points="137.673 145.972 136.827 145.484 136.089 145.913 136.935 146.401" class="color8294ed svgShape"></polygon><polygon fill="#8982ed" points="132.717 145.104 133.561 145.592 134.299 145.163 133.454 144.675" class="color8294ed svgShape"></polygon><polygon fill="#8982ed" points="134.758 146.282 135.495 145.853 134.651 145.365 133.913 145.794" class="color8294ed svgShape"></polygon><polygon fill="#8982ed" points="135.952 146.972 136.69 146.543 135.845 146.055 135.107 146.484" class="color8294ed svgShape"></polygon><polygon fill="#8982ed" points="136.3 147.173 137.148 147.662 138.868 146.662 138.021 146.174" class="color8294ed svgShape"></polygon><polygon fill="#8982ed" points="124.883 136.311 123.591 135.565 122.854 135.994 124.145 136.739" class="color8294ed svgShape"></polygon><polygon fill="#8982ed" points="124.493 136.941 125.338 137.429 126.076 137.001 125.231 136.512" class="color8294ed svgShape"></polygon><polygon fill="#8982ed" points="126.533 138.118 127.27 137.689 126.425 137.201 125.688 137.631" class="color8294ed svgShape"></polygon><polygon fill="#8982ed" points="127.729 138.809 128.466 138.38 127.622 137.892 126.884 138.321" class="color8294ed svgShape"></polygon><polygon fill="#8982ed" points="128.077 139.01 128.923 139.498 129.661 139.069 128.815 138.581" class="color8294ed svgShape"></polygon><polygon fill="#8982ed" points="129.273 139.701 130.118 140.189 130.856 139.76 130.011 139.272" class="color8294ed svgShape"></polygon><polygon fill="#8982ed" points="131.312 140.878 132.05 140.449 131.205 139.961 130.467 140.39" class="color8294ed svgShape"></polygon><polygon fill="#8982ed" points="132.509 141.569 133.246 141.14 132.401 140.652 131.664 141.081" class="color8294ed svgShape"></polygon><polygon fill="#8982ed" points="124.65 137.315 122.608 136.137 121.871 136.565 123.912 137.744" class="color8294ed svgShape"></polygon><polygon fill="#8982ed" points="125.844 138.005 124.998 137.516 124.26 137.945 125.106 138.434" class="color8294ed svgShape"></polygon><polygon fill="#8982ed" points="125.456 138.635 126.301 139.123 127.039 138.695 126.194 138.206" class="color8294ed svgShape"></polygon><polygon fill="#8982ed" points="127.388 138.896 126.65 139.325 127.495 139.813 128.233 139.383" class="color8294ed svgShape"></polygon><polygon fill="#8982ed" points="129.429 140.074 128.582 139.584 127.844 140.014 128.692 140.503" class="color8294ed svgShape"></polygon><polygon fill="#8982ed" points="121.625 136.708 120.888 137.136 121.733 137.625 122.47 137.196" class="color8294ed svgShape"></polygon><polygon fill="#8982ed" points="122.929 138.315 123.667 137.886 122.822 137.398 122.084 137.826" class="color8294ed svgShape"></polygon><polygon fill="#8982ed" points="124.861 138.576 124.016 138.087 123.278 138.516 124.123 139.005" class="color8294ed svgShape"></polygon><polygon fill="#8982ed" points="126.057 139.266 125.211 138.777 124.473 139.206 125.319 139.695" class="color8294ed svgShape"></polygon><polygon fill="#8982ed" points="126.405 139.467 125.667 139.896 126.512 140.385 127.25 139.955" class="color8294ed svgShape"></polygon><polygon fill="#8982ed" points="127.599 140.155 126.862 140.585 127.709 141.074 128.446 140.646" class="color8294ed svgShape"></polygon><polygon fill="#8982ed" points="130.623 140.763 129.777 140.275 129.04 140.705 129.886 141.193" class="color8294ed svgShape"></polygon><polygon fill="#8982ed" points="130.972 140.964 130.234 141.394 131.081 141.883 131.82 141.454" class="color8294ed svgShape"></polygon><polygon fill="#8982ed" points="129.64 141.335 128.796 140.846 128.058 141.276 128.903 141.764" class="color8294ed svgShape"></polygon><polygon fill="#8982ed" points="132.857 141.77 134.454 142.692 135.192 142.263 133.594 141.341" class="color8294ed svgShape"></polygon><polygon fill="#8982ed" points="134.209 142.834 132.168 141.655 131.43 142.085 133.471 143.263" class="color8294ed svgShape"></polygon><polygon fill="#8982ed" points="131.185 142.226 130.447 142.656 131.292 143.144 132.03 142.714" class="color8294ed svgShape"></polygon><polygon fill="#8982ed" points="119.905 137.708 121.946 138.886 122.684 138.457 120.643 137.279" class="color8294ed svgShape"></polygon><polygon fill="#8982ed" points="126.778 141.675 127.515 141.246 123.033 138.658 122.295 139.087" class="color8294ed svgShape"></polygon><polygon fill="#8982ed" points="127.92 142.335 128.658 141.906 127.813 141.417 127.075 141.847" class="color8294ed svgShape"></polygon><polygon fill="#8982ed" points="129.116 143.025 129.854 142.596 129.007 142.106 128.269 142.536" class="color8294ed svgShape"></polygon><polygon fill="#8982ed" points="129.464 143.227 130.31 143.715 131.048 143.285 130.202 142.797" class="color8294ed svgShape"></polygon><polygon fill="#8982ed" points="130.658 143.915 131.505 144.405 132.243 143.976 131.396 143.486" class="color8294ed svgShape"></polygon></g></g><g fill="#010001" class="color000000 svgShape"><g fill="#010001" class="color000000 svgShape"><g fill="#010001" class="color000000 svgShape"><path fill="#b7dbff" d="M148.783,148.037l-1.245-0.717c-0.654-0.377-1.267-0.661-2.011-0.391
										c-0.219,0.08-0.45,0.103-0.683,0.086c-0.462-0.033-1.965,0.787-2.251,1.17l-0.236,0.32c-0.179,0.243-0.4,0.448-0.631,0.642
										c-0.755,0.635-0.641,1.511,0.337,2.074c0.711,0.411,1.703,0.557,2.612,0.437c0.755-0.1,1.423-0.539,1.834-1.18
										c0.244-0.38,1.319-0.978,1.747-0.978c0.066,0,0.133,0.005,0.199,0.016c0.352,0.056,0.727-0.111,0.852-0.444
										C149.442,148.711,149.267,148.318,148.783,148.037z" class="colorb7ceff svgShape"></path><g fill="#010001" class="color000000 svgShape"><path fill="#8982ed" d="M149.348,148.84c-0.001,0.078-0.012,0.155-0.041,0.232c-0.125,0.334-0.5,0.5-0.852,0.444
											c-0.067-0.011-0.133-0.016-0.199-0.016c-0.428,0-1.503,0.598-1.747,0.978c-0.411,0.641-1.079,1.08-1.834,1.18
											c-0.909,0.12-1.901-0.025-2.612-0.437c-0.553-0.319-0.829-0.737-0.829-1.156c0-0.001-0.001-0.001-0.001-0.001
											l-0.003,0.668c0,0.418,0.277,0.836,0.83,1.158c1.1,0.634,2.876,0.634,3.969,0l2.761-1.605
											c0.373-0.215,0.557-0.499,0.56-0.782l0.003-0.669C149.352,148.836,149.348,148.839,149.348,148.84z" class="color8294ed svgShape"></path></g></g></g><g fill="#010001" class="color000000 svgShape"><g fill="#010001" class="color000000 svgShape"><polygon fill="#632363" points="145.082 148.766 145.764 149.163 147.815 147.979 147.133 147.582" class="color233163 svgShape"></polygon></g><g fill="#010001" class="color000000 svgShape"><g fill="#010001" class="color000000 svgShape"><path fill="#938cf7" d="M146.819,147.201c-0.156-0.091-0.375-0.078-0.616,0.059c-0.478,0.278-0.866,0.95-0.866,1.5
											l0.445,0.244c-0.003-0.55,0.384-1.222,0.866-1.5c0.241-0.138,0.456-0.15,0.616-0.059L146.819,147.201z" class="color8ca8f7 svgShape"></path><path fill="#8982ed" d="M146.647,147.505c-0.479,0.277-0.867,0.948-0.865,1.499l1.734-1.001
											C147.514,147.452,147.126,147.228,146.647,147.505z" class="color8294ed svgShape"></path></g></g></g></g></g></g><g fill="#010001" class="color000000 svgShape"><path fill="#d7e7f7" d="M115.983,133.34c0,0-0.22,0.676-1.945,0.237c-0.034,0-0.051,0-0.085-0.017h-0.017
						c-0.102,0.829-0.186,1.709-0.135,2.216c0.085,1.184-5.327-1.438-5.327-1.438s0.355-4.11-0.017-6.122
						c-0.186-1.032,3.01-2.03,3.01-2.03l5.26-0.271C116.727,125.915,118.25,126.912,115.983,133.34z" class="colorf7d7e1 svgShape"></path><path fill="#7873bc" d="M107.792,132.735c0,0-5.344-2.449-6.124,3.038c0,0-2.342,9.57,0,11.851
						c2.342,2.282,5.824-0.54,8.226,2.822C112.295,153.809,107.792,132.735,107.792,132.735z" class="color73bc9c svgShape"></path><path fill="#7873bc" d="M111.365,136.662h2.894c-0.213-0.694-0.374-1.452-0.407-2.357
						c-2.378-0.422-5.323-1.883-5.243-2.69l-0.817,1.121C107.653,133.407,109.286,134.975,111.365,136.662z" class="color73bc9c svgShape"></path><path fill="#8cadcf" d="M120.479,160.261c-0.572-2.207,0.211-8.336-0.235-10.956c-0.446-2.62-0.044-8.548-3.12-11.266
						c-3.075-2.719-7.436-3.566-9.333-5.304c0,0-4.129-1.302-5.206,3.59c-1.077,4.892,3.68,13.285,3.68,13.285
						s-0.041,4.664-1.51,8.426c-0.785,2.011-0.015,4.287,1.899,5.283l6.658,3.189c1.271,0.608,2.792,0.352,3.774-0.658
						C118.706,164.183,120.841,161.657,120.479,160.261z" class="color8ccfb1 svgShape"></path><path fill="#d7e7f7" d="M130.923,144.01c0,0,0.418-0.152,0.392,0.276c0,0,0.529-1.381,1.529-1.113
						c0,0,0.234,0.072,0.083,0.336c0,0,1.154-0.174,1.01,0.433c0,0-0.852,0.049-0.881,0.653c0,0,0.757-0.816,1.598-0.335
						c0.842,0.481-1.116,0.177-0.978,1.024c0,0,1.152-0.856,1.622-0.46c0.088,0.142,0.038,0.332-0.113,0.406
						c-0.071,0.035-0.154,0.071-0.243,0.1c-0.292,0.095-0.252,0.72-0.361,1.034c-0.109,0.314-1.928,2.031-3.134,1.699l-2.182-1.41
						C129.267,146.653,129.758,144.865,130.923,144.01z" class="colorf7d7e1 svgShape"></path><path fill="#7873bc" d="M129.364,146.203c0,0-5.333,3.719-5.971,4.111c-0.638,0.393-1.865-1.846-2.012-3.27
						c-0.147-1.424-0.559-4.938-2.376-6.559c0,0-2.811-4.268-6.122-1.96c-4.005,2.792,0.337,6.123,2.279,9.232
						c2.4,3.842,3.682,8.565,7.906,7.387c4.223-1.179,8.805-6.833,8.805-6.833S131.202,146.179,129.364,146.203z" class="color73bc9c svgShape"></path></g><g fill="#010001" class="color000000 svgShape"><path fill="#e576d1" d="M114.805,152.338c-2.975-0.972-5.695-2.17-8.093-3.554c-2.04-1.178-3.847-2.491-5.381-3.917
						c-0.49-0.455-1.282-0.122-1.285,0.547l-0.042,9.599c-0.002,0.335,0.122,0.66,0.354,0.901c1.712,1.776,3.837,3.397,6.301,4.819
						c2.373,1.37,5.061,2.557,8,3.523c0.49,0.161,0.998-0.21,1-0.726l0.044-9.965C115.705,153.005,115.338,152.512,114.805,152.338z
						" class="colore576ad svgShape"></path><g fill="#010001" class="color000000 svgShape"><path fill="#93c8fd" d="M117.16,151.66l0.023-0.023h-0.038c-0.152-0.206-0.374-0.374-0.64-0.458
							c-2.974-0.968-5.696-2.173-8.09-3.553c-2.043-1.182-3.85-2.493-5.383-3.919c-0.313-0.29-0.747-0.26-1.022-0.023l-0.046,0.038
							l-1.616,1.089c0.276-0.204,0.684-0.222,0.982,0.055c1.533,1.425,3.341,2.739,5.381,3.917c2.398,1.384,5.118,2.582,8.093,3.554
							c0.534,0.174,0.9,0.667,0.897,1.228l-0.044,9.965c-0.001,0.219-0.096,0.407-0.239,0.545l1.596-1.069l0.084-0.069
							c0.16-0.13,0.259-0.335,0.259-0.564l0.046-9.966C117.404,152.133,117.32,151.874,117.16,151.66z" class="colorfd93bf svgShape"></path></g></g><g fill="#010001" class="color000000 svgShape"><g fill="#010001" class="color000000 svgShape"><g fill="#010001" class="color000000 svgShape"><path fill="#f4f6f8" d="M108.575,169.768l-2.893-1.685c-0.263-0.148-0.419-0.477-0.419-0.929l-0.033-13.949
								l2.893,1.685l0.033,13.948C108.155,169.292,108.32,169.613,108.575,169.768z" class="color2d3a74 svgShape"></path></g><g fill="#010001" class="color000000 svgShape"><polygon fill="#443f8c" points="108.126 154.888 105.23 153.204 105.812 152.868 108.709 154.551" class="color3f528c svgShape"></polygon></g><g fill="#010001" class="color000000 svgShape"><path fill="#632363" d="M109.617,168.995c-0.483,0.279-0.878,0.06-0.879-0.495l-0.029-13.949l-0.583,0.336
								l0.029,13.949c0.003,0.923,0.656,1.295,1.464,0.828l1.444-0.834l-0.581-0.335L109.617,168.995z" class="color233163 svgShape"></path></g></g></g></g><path fill="#443f8c" d="M113.226,130.777h0.481c0.382-1.031,0.34-1.488,0.868-1.689c2.383-0.909,6.336-3.941-1.263-6.163
				c-4.839-1.415-5.087,3.412-5.223,4.083c-0.136,0.672,0.25,1.804,0.172,3.097c-0.078,1.293,0.701,1.509,0.701,1.509
				c1.955,0.818,2.174-1.789,3.467-2.235C113.467,129.02,113.324,130.265,113.226,130.777z" class="color3f528c svgShape"></path></g><g fill="#010001" class="color000000 svgShape"><g fill="#010001" class="color000000 svgShape"><polygon fill="#ffffff" points="150.546 129.263 150.51 141.711 131.617 130.803 131.652 118.355" class="colorffffff svgShape"></polygon></g></g><g fill="#010001" class="color000000 svgShape"><polygon fill="#d0d6dd" points="136.828 130.718 133.677 128.898 133.677 129.423 136.827 131.241" class="colord0d5dd svgShape"></polygon><polygon fill="#d0d6dd" points="133.677 130.695 141.283 135.087 141.284 134.562 133.677 130.17" class="colord0d5dd svgShape"></polygon><polygon fill="#d0d6dd" points="138.787 126.253 138.785 126.777 145.828 130.844 145.828 130.318" class="colord0d5dd svgShape"></polygon><polygon fill="#d0d6dd" points="133.677 127.249 149.626 136.458 149.626 135.933 133.677 126.724" class="colord0d5dd svgShape"></polygon><polygon fill="#d0d6dd" points="133.677 126.243 149.626 135.451 149.626 134.926 133.677 125.717" class="colord0d5dd svgShape"></polygon><polygon fill="#d0d6dd" points="133.677 122.821 149.626 132.028 149.626 131.503 133.677 122.295" class="colord0d5dd svgShape"></polygon><polygon fill="#d0d6dd" points="133.677 121.289 133.677 121.812 149.626 131.021 149.626 130.496" class="colord0d5dd svgShape"></polygon></g><g fill="#010001" class="color000000 svgShape"><g fill="#010001" class="color000000 svgShape"><g fill="#010001" class="color000000 svgShape"><g fill="#010001" class="color000000 svgShape"><g fill="#010001" class="color000000 svgShape"><path fill="#443f8c" d="M166.816,72.356c0.718,0.42,1.678,0.975,2.396,1.394c0.563,0.325,1.345,0.28,2.203-0.215
								c0.858-0.495,1.632-1.341,2.192-2.309c0.559-0.967,0.903-2.059,0.899-3.042c-0.004-0.975-0.348-1.662-0.903-1.987
								l-2.396-1.391c0.555,0.321,0.899,1.009,0.903,1.984c0.004,0.982-0.34,2.075-0.899,3.042
								c-0.559,0.967-1.334,1.814-2.192,2.309C168.157,72.639,167.379,72.685,166.816,72.356z" class="color3f528c svgShape"></path></g><g fill="#010001" class="color000000 svgShape"><path fill="#938cf7" d="M170.738,65.817c1.713-0.989,3.105-0.196,3.11,1.77c0.006,1.966-1.377,4.36-3.09,5.349
								c-1.71,0.987-3.102,0.194-3.108-1.771C167.645,69.2,169.028,66.805,170.738,65.817z" class="color8ca8f7 svgShape"></path></g><g fill="#010001" class="color000000 svgShape"><path fill="#8982ed" d="M170.744,67.69c0.812-0.469,1.471-0.093,1.474,0.839c0.003,0.932-0.653,2.067-1.464,2.535
								c-0.811,0.468-1.47,0.092-1.473-0.839C169.278,69.293,169.934,68.158,170.744,67.69z" class="color8294ed svgShape"></path></g><g fill="#010001" class="color000000 svgShape"><g fill="#010001" class="color000000 svgShape"><g fill="#010001" class="color000000 svgShape"><path fill="#f4f6f8" d="M164.867,69.556c0,0.949,0.336,1.618,0.876,1.932l1.244,0.72
										c-0.543-0.314-0.876-0.98-0.88-1.932c-0.006-1.913,1.338-4.241,3.003-5.199c0.836-0.484,1.596-0.531,2.145-0.21
										l-1.244-0.723c-0.547-0.317-1.307-0.273-2.145,0.21C166.205,65.315,164.861,67.643,164.867,69.556z" class="color2d3a74 svgShape"></path></g></g></g><g fill="#010001" class="color000000 svgShape"><path fill="#443f8c" d="M165.618,70.808c0,1.141,0.404,1.946,1.054,2.324l2.169,1.257
								c-0.654-0.378-1.054-1.179-1.058-2.324c-0.008-2.301,1.61-5.101,3.612-6.253c1.005-0.582,1.92-0.639,2.581-0.253l-2.169-1.26
								c-0.657-0.382-1.572-0.329-2.581,0.253C167.227,65.707,165.61,68.507,165.618,70.808z" class="color3f528c svgShape"></path></g><g fill="#010001" class="color000000 svgShape"><path fill="#632363" d="M171.394,65.811c2.002-1.156,3.631-0.231,3.638,2.07c0.007,2.301-1.612,5.101-3.614,6.257
								c-2,1.155-3.629,0.229-3.635-2.072C167.776,69.766,169.394,66.965,171.394,65.811z M171.416,73.534
								c1.713-0.989,3.096-3.384,3.09-5.349c-0.006-1.965-1.397-2.758-3.11-1.77c-1.71,0.987-3.093,3.382-3.088,5.348
								C168.314,73.728,169.706,74.521,171.416,73.534" class="color233163 svgShape"></path></g></g></g><g fill="#010001" class="color000000 svgShape"><g fill="#010001" class="color000000 svgShape"><g fill="#010001" class="color000000 svgShape"><path fill="#443f8c" d="M181.159,79.853c0,1.141,0.404,1.946,1.054,2.324l2.169,1.257
								c-0.654-0.378-1.054-1.179-1.058-2.324c-0.007-2.301,1.61-5.101,3.612-6.253c1.005-0.582,1.92-0.639,2.581-0.253l-2.169-1.26
								c-0.658-0.382-1.572-0.329-2.581,0.253C182.769,74.752,181.152,77.552,181.159,79.853z" class="color3f528c svgShape"></path></g></g></g><g fill="#010001" class="color000000 svgShape"><path fill="#632363" d="M186.936,74.855c2.002-1.156,3.631-0.231,3.638,2.07c0.007,2.301-1.612,5.101-3.614,6.257
						c-2,1.155-3.629,0.229-3.635-2.072C183.317,78.81,184.936,76.01,186.936,74.855z" class="color233163 svgShape"></path></g><g fill="#010001" class="color000000 svgShape"><g fill="#010001" class="color000000 svgShape"><g fill="#010001" class="color000000 svgShape"><path fill="#443f8c" d="M184.341,80.726c0,0.876,0.31,1.493,0.809,1.783l1.148,0.664
								c-0.501-0.29-0.809-0.904-0.812-1.783c-0.006-1.765,1.235-3.913,2.771-4.798c0.771-0.446,1.473-0.49,1.98-0.194l-1.148-0.667
								c-0.504-0.293-1.206-0.252-1.98,0.194C185.576,76.812,184.336,78.96,184.341,80.726z" class="color3f528c svgShape"></path></g></g></g><g fill="#010001" class="color000000 svgShape"><path fill="#632363" d="M188.257,76.592c1.536-0.887,2.786-0.177,2.791,1.588c0.005,1.765-1.236,3.913-2.773,4.8
						c-1.534,0.886-2.784,0.176-2.789-1.589C185.481,79.626,186.723,77.478,188.257,76.592z" class="color233163 svgShape"></path></g></g><g fill="#010001" class="color000000 svgShape"><g fill="#010001" class="color000000 svgShape"><g fill="#010001" class="color000000 svgShape"><path fill="#f4f6f8" d="M169.98,66.028l1.806-1.05l0.022-4.277c0.011-2.307,0.832-3.936,2.151-4.702l-1.805,1.05
							c-1.32,0.765-2.14,2.395-2.151,4.702L169.98,66.028z" class="color2d3a74 svgShape"></path></g><g fill="#010001" class="color000000 svgShape"><path fill="#f4f6f8" d="M171.588,56.085c1.475-0.854,3.526-0.732,5.777,0.565c4.48,2.595,8.117,8.882,8.106,14.027
							l-0.033,4.277l1.805-1.05l0.033-4.277c0.011-5.145-3.626-11.432-8.106-14.028c-2.251-1.297-4.302-1.419-5.777-0.554
							L171.588,56.085z" class="color2d3a74 svgShape"></path></g><g fill="#010001" class="color000000 svgShape"><path fill="#443f8c" d="M177.368,56.653c4.482,2.588,8.116,8.874,8.101,14.024l-0.026,4.274l-0.786-0.454l0.026-4.274
							c0.013-4.645-3.268-10.329-7.318-12.667c-4.043-2.334-7.346-0.452-7.359,4.193l-0.026,4.274l-0.786-0.454l0.026-4.274
							C169.235,56.146,172.886,54.066,177.368,56.653z" class="color3f528c svgShape"></path></g></g></g></g><g fill="#010001" class="color000000 svgShape"><g fill="#010001" class="color000000 svgShape"><g fill="#010001" class="color000000 svgShape"><g fill="#010001" class="color000000 svgShape"><g fill="#010001" class="color000000 svgShape"><g fill="#010001" class="color000000 svgShape"><path fill="#93c8fd" d="M199.493,112.964c0,0.063-0.021,0.105-0.056,0.126l-27.155,15.784
									c0.035-0.021,0.056-0.063,0.056-0.126c0-0.091-0.063-0.218-0.14-0.301c-0.238-0.231-0.455-0.511-0.715-0.932l-19.084-11.013
									c-1.808,0.133-2.081-2.935-2.081-3.972l27.617-14.902c-0.007,1.037,0.504,2.445,1.618,3.09l19.084,11.02
									c0.259,0.413,0.483,0.701,0.715,0.932C199.43,112.747,199.493,112.873,199.493,112.964z" class="colorfd93bf svgShape"></path></g><g fill="#010001" class="color000000 svgShape"><path fill="#f4f6f8" d="M172.113,122.466c-0.441,0.282-0.705,0.885-0.707,1.736
									c-0.002,0.857,0.257,1.757,0.699,2.543l-18.441-10.647c-1.109-0.64-1.612-2.038-1.609-3.068
									c0.003-1.03,0.512-1.849,1.621-1.208L172.113,122.466z" class="coloreaeffa svgShape"></path></g><g fill="#010001" class="color000000 svgShape"><path fill="#d9e0e8" d="M172.113,122.466l25.642-14.902c-0.441,0.282-0.704,0.885-0.707,1.736
									c-0.002,0.856,0.257,1.757,0.699,2.543l-25.642,14.902c-0.442-0.786-0.702-1.687-0.699-2.543
									C171.409,123.351,171.672,122.747,172.113,122.466z" class="colord9dfe8 svgShape"></path></g><g fill="#010001" class="color000000 svgShape"><path fill="#f4f6f8" d="M151.319,112.059l27.157-15.782c0.263-0.153,0.625-0.14,1.093,0.13l-27.157,15.782
									C151.944,111.919,151.582,111.906,151.319,112.059z" class="coloreaeffa svgShape"></path></g><g fill="#010001" class="color000000 svgShape"><polygon fill="#f4f6f8" points="153.247 111.703 152.412 112.189 171.001 122.922 171.837 122.436" class="coloreaeffa svgShape"></polygon></g><g fill="#010001" class="color000000 svgShape"><path fill="#93c8fd" d="M199.514,107.191c0,0.049-0.021,0.091-0.056,0.112l-27.155,15.784
									c0.028-0.021,0.049-0.063,0.049-0.119c0-0.133-0.084-0.287-0.203-0.35l-19.742-11.399c-0.673-0.385-1.254-0.434-1.688-0.182
									l27.155-15.784c0.434-0.252,1.023-0.203,1.695,0.182l19.736,11.398C199.423,106.904,199.514,107.058,199.514,107.191z" class="colorfd93bf svgShape"></path></g></g></g><g fill="#010001" class="color000000 svgShape"><path fill="#e576d1" d="M172.149,122.616c0.116,0.067,0.205,0.222,0.205,0.355c0,0.093-0.063,0.154-0.157,0.115
							c-0.233-0.037-0.452-0.004-0.672,0.101l-0.523-0.266l-18.59-10.733c-1.118-0.646-1.631,0.18-1.634,1.219
							c-0.003,1.038,0.504,2.448,1.622,3.094l19.082,11.017c0.259,0.417,0.482,0.701,0.714,0.933
							c0.081,0.077,0.143,0.206,0.143,0.298c0,0.129-0.09,0.174-0.206,0.107l-19.739-11.396c-1.427-0.824-2.456-2.731-2.451-4.535
							c0.005-1.809,1.042-2.529,2.469-1.705L172.149,122.616z" class="colore576ad svgShape"></path></g></g><g fill="#010001" class="color000000 svgShape"><polygon fill="#443f8c" points="156.916 117.062 157.484 121.984 155.546 119.656 153.601 119.742 154.507 115.671" class="color3f528c svgShape"></polygon></g><g fill="#010001" class="color000000 svgShape"><g fill="#010001" class="color000000 svgShape"><path fill="#d9e0e8" d="M161.783,119.663c-3.236-1.868-6.472-3.664-8.941-4.945c2.468,1.566,5.704,3.506,8.94,5.374
							c3.236,1.868,6.472,3.666,8.941,4.949C168.255,123.473,165.019,121.532,161.783,119.663z" class="colord9dfe8 svgShape"></path></g><g fill="#010001" class="color000000 svgShape"><path fill="#d9e0e8" d="M161.783,118.243c-3.236-1.868-6.472-3.664-8.941-4.944c2.468,1.566,5.704,3.506,8.94,5.374
							c3.236,1.868,6.472,3.666,8.941,4.949C168.255,122.052,165.019,120.111,161.783,118.243z" class="colord9dfe8 svgShape"></path></g></g></g><g fill="#010001" class="color000000 svgShape"><g fill="#010001" class="color000000 svgShape"><g fill="#010001" class="color000000 svgShape"><g fill="#010001" class="color000000 svgShape"><g fill="#010001" class="color000000 svgShape"><path fill="#938cf7" d="M185.25,112.185c0.046-0.027,0.068-0.06,0.068-0.094l0.031-23.688
									c0,0.034-0.022,0.067-0.068,0.094c-0.066,0.039-0.185,0.046-0.278,0.025c-0.269-0.076-0.564-0.116-0.98-0.127l-14.133-8.13
									c-0.666-1.372-3.015-0.276-3.769,0.161l0.807,23.652c0.752-0.443,1.993-0.665,2.932-0.126l14.138,8.127
									c0.41,0.014,0.714,0.056,0.98,0.127C185.065,112.231,185.183,112.224,185.25,112.185z" class="color8ca8f7 svgShape"></path></g><g fill="#010001" class="color000000 svgShape"><path fill="#f4f6f8" d="M180.613,90.984c0.019-0.44,0.347-0.886,0.965-1.247c0.622-0.363,1.387-0.554,2.146-0.564
									l-13.595-7.817c-0.934-0.537-2.164-0.313-2.912,0.124c-0.748,0.437-1.13,1.153-0.196,1.69L180.613,90.984z" class="coloreaeffa svgShape"></path></g><g fill="#010001" class="color000000 svgShape"><path fill="#d9e0e8" d="M180.613,90.984l-0.027,22.215c0.019-0.439,0.347-0.886,0.965-1.247
									c0.622-0.363,1.387-0.554,2.146-0.564l0.027-22.215c-0.759,0.01-1.524,0.201-2.146,0.564
									C180.96,90.098,180.632,90.545,180.613,90.984z" class="colord9dfe8 svgShape"></path></g><g fill="#010001" class="color000000 svgShape"><path fill="#f4f6f8" d="M166.2,81.353l-0.028,23.689c0,0.256,0.161,0.514,0.555,0.741l0.028-23.689
									C166.362,81.867,166.2,81.609,166.2,81.353z" class="coloreaeffa svgShape"></path></g><g fill="#010001" class="color000000 svgShape"><polygon fill="#f4f6f8" points="166.755 82.907 166.756 82.094 180.476 89.983 180.475 90.796" class="coloreaeffa svgShape"></polygon></g><g fill="#010001" class="color000000 svgShape"><path fill="#938cf7" d="M181.057,114.636c0.036-0.021,0.058-0.054,0.058-0.088l0.031-23.688
									c-0.004,0.029-0.025,0.062-0.066,0.086c-0.097,0.056-0.245,0.06-0.341,0l-14.691-8.447c-0.564-0.327-0.845-0.73-0.845-1.152
									l-0.031,23.688c0,0.423,0.284,0.83,0.848,1.157l14.688,8.442C180.809,114.691,180.96,114.692,181.057,114.636z" class="color8ca8f7 svgShape"></path></g><g fill="#010001" class="color000000 svgShape"><polygon fill="#8982ed" points="177.951 98.837 177.957 93.329 169.21 88.299 169.204 93.807" class="color8294ed svgShape"></polygon></g></g></g><g fill="#010001" class="color000000 svgShape"><path fill="#b7dbff" d="M180.738,90.947c0.098,0.056,0.248,0.056,0.345-0.001c0.067-0.039,0.085-0.111,0.018-0.163
							c-0.125-0.154-0.194-0.328-0.21-0.532l-0.415-0.269l-13.72-7.889c-0.942-0.542-0.557-1.264,0.197-1.704
							c0.754-0.44,1.994-0.666,2.936-0.125l14.134,8.127c0.413,0.012,0.713,0.055,0.98,0.126c0.09,0.026,0.21,0.017,0.277-0.022
							c0.093-0.055,0.089-0.139-0.009-0.196l-14.688-8.445c-1.202-0.691-3.024-0.636-4.335,0.129
							c-1.315,0.767-1.401,1.825-0.199,2.516L180.738,90.947z" class="colorb7ceff svgShape"></path></g></g><g fill="#010001" class="color000000 svgShape"><path fill="#d9e0e8" d="M177.81,86.653c-3.063-1.761-6.067-3.557-8.285-4.969c2.452,1.276,5.573,3.003,8.636,4.765
						c3.063,1.761,1.716,1.054,3.937,2.465C179.643,87.639,180.873,88.414,177.81,86.653z" class="colord9dfe8 svgShape"></path></g><g fill="#010001" class="color000000 svgShape"><g fill="#010001" class="color000000 svgShape"><path fill="#d9e0e8" d="M176.648,87.327c-3.063-1.761-6.067-3.557-8.285-4.969c2.452,1.276,5.573,3.003,8.636,4.765
							c3.063,1.761,1.716,1.054,3.937,2.465C178.481,88.313,179.711,89.088,176.648,87.327z" class="colord9dfe8 svgShape"></path></g></g></g></g><g fill="#010001" class="color000000 svgShape"><g fill="#010001" class="color000000 svgShape"><g fill="#010001" class="color000000 svgShape"><g fill="#010001" class="color000000 svgShape"><polygon fill="#bcc4cc" points="230.653 180.432 231.715 179.815 231.585 225.524 230.523 226.142" class="colorbcc2cc svgShape"></polygon></g><g fill="#010001" class="color000000 svgShape"><polygon fill="#d0d6dd" points="199.503 162.448 200.565 161.831 231.715 179.815 230.653 180.432" class="colord0d5dd svgShape"></polygon></g><g fill="#010001" class="color000000 svgShape"><polygon fill="#f4f6f8" points="230.653 180.432 230.523 226.142 199.374 208.157 199.503 162.448" class="coloreaeffa svgShape"></polygon></g><g fill="#010001" class="color000000 svgShape"><g fill="#010001" class="color000000 svgShape"><polygon fill="#a5bcd3" points="154.123 224.698 154.128 226.566 188.734 206.586 188.729 204.718" class="colord3a5bb svgShape"></polygon></g><g fill="#010001" class="color000000 svgShape"><polygon fill="#d7e7f7" points="133.42 212.662 154.13 224.712 188.722 204.736 168.058 192.686" class="colorf7d7e1 svgShape"></polygon></g><g fill="#010001" class="color000000 svgShape"><polygon fill="#b3cae2" points="136.811 212.187 154.733 210.942 154.973 222.742 157.294 210.764 163.899 210.319 164.663 206.509 185.349 205.204 165.004 205.012 167.187 194.65 161.246 208.777" class="colore2b3c7 svgShape"></polygon></g><g fill="#010001" class="color000000 svgShape"><polygon fill="#b3cae2" points="133.431 212.673 133.436 214.541 154.128 226.566 154.123 224.698" class="colore2b3c7 svgShape"></polygon></g></g></g></g><g fill="#010001" class="color000000 svgShape"><g fill="#010001" class="color000000 svgShape"><polygon fill="#443f8c" points="214.12 175.55 214.118 176.342 211.813 175.011 211.809 176.325 213.88 177.521 213.878 178.266 211.807 177.071 211.803 178.405 214.183 179.779 214.181 180.566 211.068 178.769 211.082 173.796" class="color3f528c svgShape"></polygon></g><g fill="#010001" class="color000000 svgShape"><path fill="#443f8c" d="M216.47,176.785c0.274,0.158,0.552,0.374,0.821,0.631c0.273,0.265,0.507,0.547,0.705,0.85
						l-0.39,0.41c-0.128-0.206-0.299-0.417-0.52-0.631c-0.221-0.209-0.432-0.377-0.649-0.502c-0.212-0.122-0.384-0.171-0.521-0.149
						c-0.137,0.017-0.204,0.131-0.204,0.335c-0.001,0.198,0.065,0.393,0.202,0.579c0.137,0.186,0.423,0.463,0.869,0.847
						c0.441,0.377,0.776,0.743,1.001,1.096c0.224,0.353,0.334,0.747,0.333,1.178c-0.001,0.436-0.144,0.705-0.427,0.811
						c-0.288,0.108-0.659,0.026-1.123-0.242c-0.676-0.39-1.275-1-1.799-1.842l0.461-0.369c0.436,0.689,0.89,1.17,1.358,1.44
						c0.238,0.138,0.424,0.189,0.561,0.151c0.137-0.038,0.208-0.154,0.209-0.342c0.001-0.193-0.065-0.383-0.193-0.564
						c-0.128-0.181-0.353-0.407-0.67-0.677c-0.318-0.27-0.56-0.491-0.723-0.662c-0.168-0.168-0.313-0.348-0.441-0.544
						c-0.256-0.371-0.383-0.785-0.381-1.242c0.001-0.462,0.148-0.733,0.44-0.813C215.679,176.455,216.041,176.537,216.47,176.785z" class="color3f528c svgShape"></path></g><g fill="#010001" class="color000000 svgShape"><g fill="#010001" class="color000000 svgShape"><polygon fill="#d9e0e8" points="218.293 212.263 218.288 214.115 202.723 205.129 202.728 203.277" class="colord9dfe8 svgShape"></polygon></g><g fill="#010001" class="color000000 svgShape"><polygon fill="#d9e0e8" points="226.007 211.843 226.002 213.695 202.737 200.263 202.742 198.411" class="colord9dfe8 svgShape"></polygon></g><g fill="#010001" class="color000000 svgShape"><polygon fill="#d9e0e8" points="226.021 206.972 226.016 208.829 202.751 195.397 202.756 193.54" class="colord9dfe8 svgShape"></polygon></g><g fill="#010001" class="color000000 svgShape"><polygon fill="#d9e0e8" points="226.035 202.107 226.03 203.964 202.764 190.532 202.77 188.675" class="colord9dfe8 svgShape"></polygon></g><g fill="#010001" class="color000000 svgShape"><polygon fill="#d9e0e8" points="226.049 197.241 226.043 199.098 202.778 185.666 202.784 183.809" class="colord9dfe8 svgShape"></polygon></g><g fill="#010001" class="color000000 svgShape"><polygon fill="#d9e0e8" points="226.062 192.375 226.057 194.232 202.792 180.8 202.797 178.943" class="colord9dfe8 svgShape"></polygon></g><g fill="#010001" class="color000000 svgShape"><polygon fill="#443f8c" points="221.98 180.088 221.978 180.859 220.662 180.1 220.65 184.301 219.921 183.88 219.933 179.679 218.622 178.922 218.624 178.15" class="color3f528c svgShape"></polygon></g></g><g fill="#010001" class="color000000 svgShape"><polygon fill="#443f8c" points="210.292 173.34 210.29 174.111 208.974 173.352 208.962 177.553 208.234 177.132 208.245 172.931 206.934 172.174 206.936 171.402" class="color3f528c svgShape"></polygon></g></g></g><g fill="#010001" class="color000000 svgShape"><g fill="#010001" class="color000000 svgShape"><g fill="#010001" class="color000000 svgShape"><ellipse cx="229.256" cy="140.268" fill="#b7dbff" rx="21.949" ry="21.871" transform="translate(-.162 .264)" class="colorb7ceff svgShape"></ellipse></g><g fill="#010001" class="color000000 svgShape"><path fill="#6560ad" d="M244.752 124.772c-3.639-3.64-8.241-5.725-12.986-6.269-.021.073-.043.143-.06.225-.838-.218-1.487-.066-1.549.978-.005.084-.093.172-.158.243-.425.459-.982.836-.896 1.596.01.089-.172.275-.284.291-.591.086-.725.572-.982.988-.22.355-.571.628-.846.953-.207.245-.602.584-.544.76.369 1.121-.127 2.125-.316 3.166-.191 1.052-.03 1.991.714 2.802.194.212.41.463.467.728.311 1.426 1.465 2.006 2.581 2.596 1.31.693 2.64.32 3.963-.035.562-.151 1.264-.378 1.614.226.275.476.594.454.998.526.239.044.629.271.632.423.011.549.053 1.209-.222 1.625-.467.706-.275 1.201.003 1.888.002.004.004.009.005.014.827 2.28 3.103 3.688 5.456 3.097l7.261-1.824c.13-.805.587-1.354 1.442-1.804C250.54 133.147 248.444 128.464 244.752 124.772zM209.37 133.895c.285.222.549.339.697-.109.141-.428.377-.394.699-.225.176.092 4.341-2.501 4.568-3.576.182-.862.708-1.311 1.561-1.34.443-.015.587-.217.545-.601-.069-.64.249-.894.842-.906.183-.004.365-.007.548-.013.309-.011.475-.126.465-.483-.03-1.052.525-1.739 1.431-2.192.738-.369 1.468-.752 2.206-1.121.196-.098.408-.164.612-.246-1.269-.91-2.065-1.924-2.516-3.13-2.644 1.07-5.122 2.676-7.265 4.82-2.567 2.567-4.358 5.614-5.385 8.851C208.709 133.581 209.061 133.656 209.37 133.895zM217.206 157.219c.944-.503 1.355-1.289 1.345-2.34-.002-.176.082-.454.207-.513.586-.276.873-1.048 1.664-.994.126.008.265-.17.396-.265.679-.495.707-1.279.905-1.996.182-.658.209-1.429 1.094-1.658.158-.041.265-.331.368-.521.172-.318.295-.663.484-.968.382-.619.39-1.403-.06-1.863-.85-.868-1.671-1.78-2.814-2.283-.212-.093-.466-.166-.689-.141-1.042.12-1.564-.31-1.628-1.388-.047-.797-.972-1.498-1.737-1.286-.548.152-.766-.052-.883-.582-.28-1.264-1.381-2.05-2.613-2.037-.354.004-.756-.231-1.055-.461-.458-.352-1.026-.45-1.484-.113-.474.348-.954.692-1.392 1.082-.153.136-.318.465-.255.604.426.929-.108 1.518-.583 2.23-.432.646-.753 1.114-.928 1.538.1.731.235 1.459.41 2.179.037.059.061.11.101.173.183.284.236.687.238 1.061.263.862.581 1.71.953 2.54.167.15.349.285.555.39.572.294.897.839.824 1.485-.023.202-.047.404-.07.606.886 1.446 1.949 2.814 3.2 4.065.866.866 1.789 1.641 2.753 2.331.095-.118.189-.26.288-.442C216.895 157.484 217.04 157.307 217.206 157.219z" class="color60ad88 svgShape"></path><g fill="#010001" class="color000000 svgShape"><path fill="#6560ad" d="M249.559,148.528c-0.083-0.082-0.16-0.176-0.217-0.301c-0.052-0.114-0.275-0.152-0.421-0.221
							c-0.757-0.359-1.461-0.013-2.186,0.154c-0.666,0.153-1.357,0.495-1.978-0.172c-0.111-0.119-0.417-0.075-0.633-0.075
							c-0.361,0-0.723,0.055-1.082,0.035c-0.725-0.041-1.42,0.324-1.611,0.936c-0.362,1.156-0.776,2.307-0.677,3.546
							c0.019,0.229,0.074,0.487,0.202,0.67c0.599,0.856,0.468,1.517-0.451,2.084c-0.679,0.419-0.859,1.562-0.309,2.131
							c0.393,0.407,0.317,0.695-0.094,1.049c-0.447,0.385-0.717,0.875-0.831,1.393c1.973-1.015,3.828-2.34,5.481-3.993
							C246.888,153.628,248.49,151.161,249.559,148.528z" class="color60ad88 svgShape"></path></g></g><path fill="#cae3fc" d="M246.562,140.268c0-3.615-0.695-7.02-1.901-10.037l0.001-0.001
					c-0.055-0.139-0.101-0.284-0.159-0.422l-0.002,0.001c-2.923-6.945-8.659-11.679-15.245-11.679
					c-9.543,0-17.307,9.931-17.307,22.137c0,12.207,7.764,22.138,17.307,22.139c7.198,0,13.378-5.653,15.983-13.667
					c0.002-0.002,0.004-0.004,0.006-0.004c0.075-0.231,0.134-0.472,0.203-0.707c-0.002,0.002-0.004,0.003-0.006,0.004
					C246.154,145.611,246.562,143.002,246.562,140.268z M246.143,140.268c0,2.887-0.452,5.636-1.253,8.155
					c-0.337,0.248-0.662,0.501-1.036,0.734c-1.907,1.18-4.105,2.069-6.449,2.686c0.902-3.369,1.429-7.327,1.429-11.575
					c0-2.496-0.184-4.891-0.515-7.13c2.077-0.613,4.029-1.435,5.744-2.497c0.087-0.054,0.164-0.111,0.245-0.168
					C245.476,133.417,246.143,136.741,246.143,140.268z M229.047,152.857c-2.552-0.023-5.1-0.33-7.501-0.935
					c-0.913-3.368-1.447-7.363-1.447-11.656c0-2.474,0.185-4.841,0.509-7.057c2.676,0.76,5.551,1.16,8.439,1.185V152.857z
					 M229.466,134.4c2.89-0.011,5.767-0.399,8.446-1.146c0.32,2.203,0.502,4.556,0.502,7.014c0,4.309-0.538,8.319-1.457,11.696
					c-2.399,0.59-4.942,0.888-7.491,0.898V134.4z M244.132,130.063c-0.092,0.064-0.18,0.13-0.279,0.191
					c-1.674,1.036-3.577,1.841-5.601,2.443c-1.085-6.846-3.592-12.114-6.693-13.893C237.01,119.766,241.628,124.08,244.132,130.063z
					 M237.845,132.814c-2.656,0.746-5.511,1.134-8.379,1.145v-15.355C233.317,118.811,236.58,124.675,237.845,132.814z
					 M229.047,133.954c-2.866-0.025-5.719-0.425-8.372-1.185c1.27-8.115,4.529-13.958,8.372-14.166V133.954z M226.954,118.804
					c-3.094,1.775-5.597,7.026-6.685,13.85c-1.986-0.602-3.854-1.4-5.504-2.419c-0.126-0.077-0.239-0.16-0.355-0.242
					C216.921,124.047,221.524,119.762,226.954,118.804z M214.234,130.404c0.106,0.074,0.208,0.149,0.322,0.219
					c1.691,1.044,3.608,1.859,5.645,2.471c-0.335,2.251-0.521,4.662-0.521,7.174c0,4.228,0.523,8.168,1.416,11.527
					c-2.296-0.619-4.454-1.496-6.331-2.655c-0.431-0.265-0.803-0.556-1.185-0.842c-0.776-2.485-1.211-5.191-1.211-8.03
					C212.369,136.712,213.048,133.365,214.234,130.404z M213.832,149.035c0.239,0.165,0.468,0.334,0.724,0.492
					c1.974,1.218,4.248,2.135,6.672,2.765c1.306,4.631,3.34,8.072,5.726,9.441C221.076,160.695,216.164,155.76,213.832,149.035z
					 M221.678,152.406c2.366,0.575,4.864,0.871,7.369,0.893v8.634C225.984,161.768,223.29,158.024,221.678,152.406z
					 M229.466,153.304c2.501-0.009,4.994-0.299,7.357-0.859c-1.613,5.597-4.302,9.324-7.357,9.489V153.304z M231.56,161.732
					c2.378-1.364,4.406-4.785,5.713-9.391c2.473-0.627,4.788-1.557,6.79-2.796c0.205-0.127,0.387-0.264,0.579-0.396
					C242.295,155.816,237.405,160.701,231.56,161.732z" class="colorcadbfc svgShape"></path></g><g fill="#010001" class="color000000 svgShape"><g fill="#010001" class="color000000 svgShape"><g fill="#010001" class="color000000 svgShape"><g fill="#010001" class="color000000 svgShape"><g fill="#010001" class="color000000 svgShape"><path fill="#632363" d="M242.955,109.229l-0.011,12.666c-0.006,2.019-1.333,4.035-3.985,5.576
									c-5.329,3.097-14.003,3.1-19.372,0c-2.701-1.56-4.049-3.606-4.043-5.649l0.011-12.666c-0.006,2.043,1.342,4.09,4.044,5.649
									c5.369,3.1,14.042,3.097,19.372,0C241.622,113.264,242.949,111.248,242.955,109.229z" class="color233163 svgShape"></path></g></g><g fill="#010001" class="color000000 svgShape"><g fill="#010001" class="color000000 svgShape"><path fill="#f4f6f8" d="M249.076,109.596l-0.015,1.834c0,0.256-0.165,0.526-0.511,0.722l-17.985,10.452
									c-0.376,0.211-0.857,0.301-1.338,0.286c-0.421-0.015-0.842-0.105-1.158-0.286l-18.121-10.452
									c-0.346-0.21-0.511-0.465-0.511-0.736v-1.82c0,0.256,0.165,0.526,0.526,0.722l18.106,10.466
									c0.331,0.181,0.737,0.27,1.158,0.286c0.481,0.015,0.962-0.075,1.338-0.286l18-10.466
									C248.895,110.123,249.076,109.867,249.076,109.596z" class="color2d3a74 svgShape"></path></g><g fill="#010001" class="color000000 svgShape"><path fill="#443f8c" d="M248.547,108.879c0.69,0.398,0.694,1.047,0.008,1.445l-17.995,10.458
									c-0.686,0.398-1.799,0.395-2.489-0.003l-18.113-10.457c-0.69-0.398-0.694-1.04-0.008-1.438l17.995-10.458
									c0.686-0.398,1.799-0.402,2.489-0.003L248.547,108.879z" class="color3f528c svgShape"></path></g></g><path fill="#d7e7f7" d="M240.394,114.887l-9.219-5.372l-1.736,1.073l9.202,5.317c0.151,0.085,0.273,0.292,0.273,0.471
							l-0.009,6.717c0,0-0.01,0.095,0.255,0.223c0.349,0.198,0.905,0.198,1.245,0c0.17-0.094,0.255-0.201,0.255-0.324l0.009-7.635
							C240.667,115.179,240.545,114.971,240.394,114.887z" class="colorf7d7e1 svgShape"></path><path fill="#b3cae2" d="M241.24,123.247c0.476,1.305-0.734,2.516-2.039,2.039c-0.399-0.146-0.727-0.474-0.873-0.873
							c-0.476-1.306,0.734-2.516,2.039-2.04C240.766,122.52,241.094,122.848,241.24,123.247z" class="colore2b3c7 svgShape"></path><g fill="#010001" class="color000000 svgShape"><path fill="#632363" d="M232.331,109.104v0.756c0,0.427-0.278,0.853-0.839,1.178
								c-1.127,0.654-2.958,0.654-4.094-0.005c-0.57-0.329-0.853-0.76-0.853-1.192l0.005-0.747c0,0.427,0.288,0.858,0.853,1.182
								c1.131,0.658,2.968,0.658,4.09,0.005C232.053,109.957,232.331,109.53,232.331,109.104z" class="color233163 svgShape"></path></g><g fill="#010001" class="color000000 svgShape"><path fill="#5046e4" d="M231.477,107.91c1.134,0.655,1.143,1.716,0.016,2.371c-1.126,0.655-2.959,0.653-4.093-0.002
								c-1.134-0.655-1.14-1.714-0.013-2.369C228.514,107.255,230.344,107.255,231.477,107.91z" class="color49619e svgShape"></path></g></g></g></g></g></g><g fill="#010001" class="color000000 svgShape"><path fill="#83baf2" d="M206.577,77.678c-0.386,2.037,1.367,3.789,3.403,3.403c1.131-0.214,2.057-1.14,2.271-2.271
			c0.386-2.037-1.367-3.789-3.403-3.403C207.717,75.621,206.791,76.547,206.577,77.678z" class="colorf283b5 svgShape"></path><path fill="#c3d8ed" d="M228.734,71.896c-0.386,2.037,1.366,3.789,3.403,3.403c1.131-0.215,2.057-1.14,2.271-2.271
			c0.386-2.037-1.366-3.789-3.403-3.403C229.874,69.839,228.948,70.765,228.734,71.896z" class="coloredc3d2 svgShape"></path><path fill="#938cf7" d="M195.189,38.09c-0.459,2.998,2.086,5.542,5.083,5.083c1.868-0.286,3.395-1.813,3.681-3.681
			c0.459-2.998-2.086-5.542-5.083-5.083C197.002,34.695,195.475,36.222,195.189,38.09z" class="color8ca8f7 svgShape"></path><path fill="#83baf2" d="M75.381,47.774c-0.459,2.998,2.086,5.542,5.083,5.083c1.868-0.286,3.395-1.813,3.681-3.681
			c0.459-2.998-2.086-5.542-5.083-5.083C77.194,44.379,75.668,45.906,75.381,47.774z" class="colorf283b5 svgShape"></path><path fill="#c3d8ed" d="M64.1,60.473c-0.369,1.945,1.305,3.618,3.249,3.249c1.08-0.205,1.964-1.089,2.169-2.169
			c0.369-1.945-1.305-3.618-3.249-3.249C65.188,58.509,64.305,59.393,64.1,60.473z" class="coloredc3d2 svgShape"></path><path fill="#938cf7" d="M155.141,254.218c-0.459,2.997,2.086,5.542,5.083,5.083c1.868-0.286,3.395-1.813,3.681-3.681
			c0.459-2.998-2.086-5.542-5.083-5.083C156.954,250.823,155.427,252.35,155.141,254.218z" class="color8ca8f7 svgShape"></path><path fill="#83baf2" d="M247.359,187.232c0.439-2.317-1.554-4.31-3.871-3.871c-1.287,0.244-2.34,1.297-2.584,2.584
			c-0.439,2.317,1.554,4.31,3.871,3.871C246.063,189.571,247.116,188.518,247.359,187.232z" class="colorf283b5 svgShape"></path></g></g></svg>