<svg xmlns="http://www.w3.org/2000/svg" viewBox="0 0 2000 2000" id="OnlineEducation"><path fill="#f4f6f8" d="m1485.872 627.449-1.105 403.829c-.062 2.702-.983 4.606-2.518 5.527l-8.66 5.038c1.535-.924 2.457-2.828 2.518-5.53l1.106-403.829c0-5.404-3.809-12.038-8.538-14.74L947.843 317.038c-2.334-1.353-4.545-1.535-6.08-.615l8.66-5.035c1.536-.861 3.746-.738 6.08.615l520.831 300.706c4.73 2.702 8.538 9.335 8.538 14.74z" class="colorcfdee8 svgShape"></path><path fill="#564753" d="M1468.705 617.737c4.706 2.717 8.536 9.353 8.521 14.76l-1.145 403.823c-.015 5.408-3.832 7.627-8.537 4.91L946.666 740.502c-4.706-2.717-8.536-9.351-8.521-14.758l1.145-403.87c.015-5.408 3.871-7.56 8.576-4.843l520.839 300.706z" class="color474756 svgShape"></path><path fill="#b0d7ff" d="m950.419 711.239 1.121-377.9 513.412 296.413-1.122 377.905z" class="colorb0e3ff svgShape"></path><path fill="#c5d1dd" d="m1469.641 1035.669-.061 25.059c0 1.781-1.167 3.503-3.501 4.852l-349.166 202.928c-4.668 2.702-12.222 2.702-16.952 0L579.13 967.802c-2.395-1.412-3.624-3.194-3.624-4.975l.122-25.056c0 1.778 1.167 3.623 3.563 4.972l520.832 300.706c4.729 2.765 12.345 2.765 17.013.063l349.104-202.928c2.335-1.352 3.501-3.134 3.501-4.915z" class="colorc5d4dd svgShape"></path><path fill="#665463" d="m1416.742 1076.84.029 10.193 24.128-13.93-.029-10.193zM1384.647 1095.371l.029 10.192 24.128-13.93-.029-10.193z" class="color545466 svgShape"></path><path fill="#f4f6f8" d="M1466.108 1030.706c4.706 2.717 4.77 7.132.054 9.872l-349.149 202.903c-4.676 2.717-12.259 2.717-17.004-.022L579.172 942.753c-4.706-2.717-4.77-7.132-.094-9.849l349.189-202.927c4.675-2.717 12.298-2.694 17.003.022l520.838 300.707z" class="colore7f1f7 svgShape"></path><g fill="#c5d1dd" class="colorc5d4dd svgShape"><path d="M1414.241 1028.237 949.055 759.656c-3.623-2.027-9.397-2.027-12.959 0L743.487 871.619c-3.563 2.09-3.563 5.407 0 7.494l192.609-111.906c3.562-2.087 9.336-2.087 12.959 0l465.186 268.525c3.563-2.087 3.563-5.404 0-7.495z" fill="#010001" class="color000000 svgShape"></path><path d="M936.096 767.207 743.487 879.114l465.186 268.584c3.624 2.027 9.397 2.027 12.959 0l192.609-111.966-465.186-268.525c-3.623-2.087-9.397-2.087-12.959 0zm-94.072 194.462-95.961 55.753c-1.147.667-1.145 2.324.004 2.987l133.753 77.238c1.854 1.037 4.808 1.037 6.63 0l95.961-55.784c1.147-.667 1.144-2.324-.004-2.988l-133.753-77.208c-1.854-1.066-4.807-1.066-6.63.002z" fill="#010001" class="color000000 svgShape"></path></g><path fill="#665463" d="M944.647 801.531c1.908 1.101 1.918 2.85.051 3.935L925.022 816.9c-1.867 1.085-4.859 1.069-6.767-.032l-19.776-11.418c-1.879-1.085-1.945-2.834-.078-3.919l19.675-11.434c1.867-1.085 4.914-1.069 6.794.017l19.777 11.417zm-17.131 26.56c1.908 1.101 1.891 2.866.023 3.951l-19.648 11.418c-1.867 1.085-4.886 1.085-6.794-.017l-34.11-19.693c-1.879-1.085-1.918-2.85-.051-3.935l19.648-11.418c1.867-1.085 4.942-1.085 6.821.001l34.111 19.693zm-24.589 22.253c1.88 1.085 1.833 2.834-.034 3.919l-19.648 11.418c-1.895 1.101-4.858 1.101-6.738.016l-40.983-23.661c-1.88-1.085-1.945-2.834-.051-3.935l19.648-11.418c1.867-1.085 4.943-1.085 6.823 0l40.983 23.661zm-18.448 25.831c1.88 1.085 1.888 2.835.021 3.92l-19.675 11.434c-1.867 1.085-4.886 1.085-6.766 0l-52.904-30.544c-1.879-1.085-1.89-2.834-.022-3.919l19.675-11.434c1.867-1.085 4.888-1.086 6.767-.001l52.904 30.544zm81.988-87.325c1.908 1.101 1.918 2.85.051 3.935l-9.196 5.344c-1.896 1.102-4.915 1.102-6.823 0l-19.776-11.418c-1.88-1.085-1.918-2.85-.022-3.952l9.196-5.344c1.867-1.085 4.915-1.069 6.794.016l19.776 11.419zm32.68 18.867c1.879 1.085 1.918 2.85.051 3.935l-9.196 5.344c-1.896 1.102-4.943 1.085-6.823 0l-19.804-11.434c-1.879-1.085-1.89-2.834.006-3.936l9.196-5.344c1.867-1.085 4.887-1.085 6.766 0l19.804 11.435zm163.341 94.305c1.879 1.085 1.917 2.85.05 3.935l-9.196 5.344c-1.896 1.102-4.943 1.085-6.822 0l-19.776-11.418c-1.879-1.085-1.89-2.834.006-3.936l9.196-5.344c1.867-1.085 4.887-1.085 6.766 0l19.776 11.419zm130.689 75.454c1.879 1.085 1.89 2.834.022 3.919l-9.196 5.344c-1.896 1.102-4.915 1.102-6.795.016l-19.804-11.434c-1.851-1.069-1.89-2.834.006-3.936l9.196-5.344c1.867-1.085 4.915-1.069 6.766 0l19.805 11.435zm-65.331-37.719c1.88 1.085 1.89 2.834.022 3.919l-9.196 5.344c-1.896 1.102-4.915 1.102-6.794.016l-19.804-11.434c-1.88-1.085-1.89-2.834.006-3.936l9.196-5.344c1.867-1.085 4.886-1.085 6.766 0l19.804 11.435zm13.561 69.559c1.879 1.085 1.863 2.85-.005 3.935l-19.648 11.418c-1.867 1.085-4.887 1.085-6.766 0l-19.776-11.418c-1.88-1.085-1.918-2.85-.051-3.935l19.648-11.418c1.867-1.085 4.942-1.084 6.821.001l19.777 11.417zm117.129 5.895c1.88 1.085 1.89 2.834.022 3.919l-9.196 5.344c-1.896 1.102-4.915 1.102-6.795.017l-19.804-11.434c-1.879-1.085-1.918-2.85-.022-3.952l9.196-5.344c1.867-1.085 4.915-1.069 6.794.016l19.805 11.434zm-32.68-18.868c1.879 1.085 1.89 2.834.022 3.919l-9.196 5.344c-1.896 1.102-4.915 1.102-6.794.017l-19.804-11.434c-1.88-1.085-1.89-2.834.006-3.936l9.196-5.344c1.867-1.085 4.886-1.085 6.766 0l19.804 11.434zm-34.864 5.15c1.879 1.085 1.89 2.834.022 3.919l-19.675 11.434c-1.867 1.085-4.859 1.069-6.739-.016l-19.776-11.418c-1.879-1.085-1.945-2.834-.078-3.919l19.675-11.434c1.867-1.085 4.914-1.069 6.794.016l19.777 11.418zm-125.416-72.409c1.879 1.085 1.89 2.834.022 3.919l-19.675 11.434c-1.867 1.085-4.859 1.069-6.739-.016l-19.776-11.418c-1.88-1.085-1.945-2.834-.078-3.919l19.675-11.434c1.867-1.085 4.914-1.069 6.794.016l19.777 11.418zm31.361 18.107c1.88 1.085 1.89 2.834.022 3.919l-19.675 11.434c-1.867 1.085-4.859 1.069-6.739-.016l-19.804-11.434c-1.88-1.085-1.917-2.818-.05-3.903l19.675-11.434c1.867-1.085 4.886-1.085 6.766 0l19.805 11.434zm63.561 11.418c1.879 1.085 1.918 2.85.05 3.935l-9.196 5.344c-1.896 1.102-4.943 1.085-6.823 0l-19.776-11.418c-1.88-1.085-1.89-2.834.006-3.936l9.196-5.344c1.867-1.085 4.886-1.085 6.766 0l19.777 11.419zm-113.146-3.595c1.879 1.085 1.891 2.866.023 3.951l-19.648 11.418c-1.867 1.085-4.915 1.069-6.794-.016l-19.804-11.434c-1.88-1.085-1.89-2.834-.022-3.919l19.648-11.418c1.867-1.085 4.913-1.101 6.793-.016l19.804 11.434zm80.918 10.267c1.88 1.085 1.918 2.85.051 3.935l-19.675 11.434c-1.867 1.085-4.887 1.053-6.767-.032l-19.776-11.418c-1.879-1.085-1.917-2.818-.05-3.903l19.675-11.434c1.867-1.085 4.886-1.085 6.766 0l19.776 11.418zm-49.557 7.839c1.879 1.085 1.862 2.85-.005 3.935l-19.648 11.418c-1.867 1.085-4.887 1.085-6.766 0l-19.804-11.434c-1.88-1.085-1.89-2.834-.022-3.919l19.648-11.418c1.867-1.085 4.913-1.101 6.793-.016l19.804 11.434zm80.918 10.267c1.88 1.085 1.918 2.85.051 3.935l-19.675 11.434c-1.867 1.085-4.887 1.053-6.767-.032l-19.776-11.418c-1.907-1.101-1.945-2.834-.078-3.919l19.675-11.434c1.867-1.085 4.886-1.085 6.794.016l19.776 11.418zm-49.557 7.839c1.88 1.085 1.863 2.85-.005 3.935l-19.648 11.418c-1.867 1.085-4.886 1.085-6.766 0l-19.804-11.434c-1.879-1.085-1.918-2.85-.05-3.935l19.648-11.418c1.867-1.085 4.942-1.085 6.821 0l19.804 11.434zm-178.248-164.641c1.879 1.085 1.89 2.834.022 3.919l-9.196 5.344c-1.896 1.102-4.916 1.101-6.795.016l-19.804-11.434c-1.88-1.085-1.89-2.834.006-3.936l9.196-5.344c1.867-1.085 4.886-1.085 6.766 0l19.805 11.435zm-54.388-6.122c1.88 1.085 1.918 2.85.051 3.935l-19.675 11.434c-1.867 1.085-4.887 1.053-6.767-.032l-19.776-11.418c-1.879-1.085-1.917-2.818-.05-3.903l19.675-11.434c1.867-1.085 4.886-1.085 6.766 0l19.776 11.418zm31.361 18.106c1.88 1.085 1.918 2.85.051 3.935l-19.675 11.434c-1.867 1.085-4.887 1.053-6.767-.032l-19.804-11.434c-1.879-1.085-1.917-2.818-.05-3.903l19.675-11.434c1.867-1.085 4.887-1.085 6.766 0l19.804 11.434zm55.707 6.883c1.851 1.069 1.89 2.834.022 3.919l-9.196 5.344c-1.896 1.102-4.943 1.085-6.794.016l-19.804-11.434c-1.88-1.085-1.89-2.834.006-3.936l9.196-5.344c1.867-1.085 4.886-1.085 6.766 0l19.804 11.435zm-104.703 1.28c1.88 1.085 1.862 2.85-.005 3.935l-19.648 11.418c-1.867 1.085-4.886 1.085-6.766 0l-19.776-11.418c-1.88-1.085-1.918-2.85-.051-3.935l19.648-11.418c1.867-1.085 4.942-1.085 6.821.001l19.777 11.417zm80.357 9.944c1.879 1.085 1.89 2.834.022 3.919l-19.675 11.434c-1.867 1.085-4.859 1.069-6.739-.016l-19.776-11.418c-1.908-1.101-1.945-2.834-.078-3.919l19.675-11.434c1.867-1.085 4.886-1.085 6.794.016l19.777 11.418zm56.997 7.628c1.879 1.085 1.89 2.834.022 3.919l-9.196 5.344c-1.896 1.102-4.915 1.102-6.795.017l-19.776-11.418c-1.88-1.085-1.918-2.85-.022-3.952l9.196-5.344c1.867-1.085 4.914-1.069 6.794.016l19.777 11.418zm-106.582.194c1.879 1.085 1.862 2.85-.005 3.935l-19.648 11.418c-1.867 1.085-4.886 1.085-6.766 0l-19.776-11.418c-1.88-1.085-1.918-2.85-.051-3.935l19.648-11.418c1.867-1.085 4.942-1.084 6.821.001l19.777 11.417zm-55.165 4.6c1.88 1.085 1.889 2.867.022 3.952l-19.648 11.418c-1.895 1.101-4.914 1.069-6.794-.016l-19.776-11.418c-1.879-1.085-1.917-2.818-.023-3.919l19.648-11.418c1.867-1.085 4.915-1.101 6.795-.016l19.776 11.417zm136.111 5.684c1.88 1.085 1.89 2.834.022 3.919l-19.675 11.434c-1.867 1.085-4.859 1.069-6.739-.016l-19.804-11.434c-1.879-1.085-1.917-2.818-.05-3.903l19.675-11.434c1.867-1.085 4.886-1.085 6.766 0l19.805 11.434zm58.315 8.389c1.88 1.085 1.89 2.834.022 3.919l-9.196 5.344c-1.896 1.102-4.915 1.102-6.795.016l-19.804-11.434c-1.88-1.085-1.89-2.834.006-3.936l9.196-5.344c1.867-1.085 4.886-1.085 6.766 0l19.805 11.435zm-107.9-.566c1.879 1.085 1.862 2.85-.005 3.935l-19.648 11.418c-1.867 1.085-4.886 1.085-6.766 0l-19.804-11.434c-1.88-1.085-1.89-2.834-.022-3.919l19.648-11.418c1.867-1.085 4.914-1.101 6.793-.016l19.804 11.434zm-55.755 4.259c1.88 1.085 1.889 2.867.022 3.952l-19.648 11.418c-1.894 1.101-4.914 1.069-6.794-.016L919.985 890.8c-1.88-1.085-1.917-2.818-.023-3.919l19.648-11.418c1.867-1.085 4.915-1.102 6.794-.017l19.777 11.418zm136.673 6.008c1.88 1.085 1.918 2.85.051 3.935l-19.675 11.434c-1.867 1.085-4.887 1.053-6.767-.032l-19.776-11.418c-1.879-1.085-1.917-2.818-.05-3.903l19.675-11.434c1.867-1.085 4.886-1.085 6.766 0l19.776 11.418zm-181.215 3.726c1.879 1.085 1.863 2.85-.005 3.935l-19.675 11.434c-1.84 1.069-4.859 1.069-6.739-.016l-19.804-11.434c-1.879-1.085-1.89-2.834-.05-3.903l19.675-11.434c1.867-1.085 4.914-1.101 6.793-.016l19.805 11.434zm131.63 4.097c1.908 1.101 1.891 2.866.023 3.951l-19.648 11.418c-1.867 1.085-4.886 1.085-6.794-.016l-19.776-11.417c-1.879-1.085-1.89-2.834-.022-3.919l19.648-11.418c1.867-1.085 4.914-1.101 6.793-.016l19.776 11.417zm-55.727 4.275c1.879 1.085 1.889 2.867.022 3.952l-19.648 11.418c-1.895 1.101-4.914 1.069-6.794-.016l-19.776-11.417c-1.879-1.085-1.945-2.834-.051-3.935l19.648-11.418c1.867-1.085 4.943-1.085 6.823 0l19.776 11.416zm136.673 6.008c1.88 1.085 1.918 2.85.051 3.935l-19.675 11.434c-1.867 1.085-4.887 1.053-6.767-.032l-19.804-11.434c-1.88-1.085-1.917-2.818-.05-3.903l19.675-11.434c1.867-1.085 4.886-1.085 6.766 0l19.804 11.434zM953 914.704c1.88 1.085 1.863 2.85-.004 3.935l-19.675 11.434c-1.84 1.069-4.859 1.069-6.739-.016l-19.804-11.434c-1.88-1.085-1.89-2.834-.05-3.903l19.675-11.434c1.867-1.085 4.914-1.101 6.793-.015L953 914.704zm131.658 4.113c1.879 1.085 1.862 2.85-.005 3.935l-19.648 11.418c-1.867 1.085-4.887 1.085-6.766 0l-19.804-11.434c-1.879-1.085-1.918-2.85-.051-3.935l19.648-11.418c1.867-1.085 4.942-1.084 6.821.001l19.805 11.433zm-55.755 4.259c1.88 1.085 1.861 2.851-.006 3.936l-19.648 11.418c-1.895 1.101-4.886 1.085-6.766 0l-19.776-11.417c-1.88-1.085-1.945-2.834-.051-3.935l19.648-11.418c1.867-1.085 4.943-1.085 6.823 0l19.776 11.416zm-44.57 9.718c1.879 1.085 1.89 2.866.023 3.951l-19.675 11.434c-1.84 1.069-4.887 1.053-6.766-.032l-19.776-11.418c-1.879-1.085-1.89-2.834-.05-3.903l19.675-11.434c1.867-1.085 4.914-1.101 6.793-.016l19.776 11.418zm131.658 4.113c1.88 1.085 1.863 2.85-.005 3.935l-19.648 11.418c-1.867 1.085-4.886 1.085-6.766 0l-19.776-11.418c-1.88-1.085-1.918-2.85-.051-3.935l19.648-11.418c1.867-1.085 4.942-1.085 6.821.001l19.777 11.417zm-193.657-1.457c1.879 1.085 1.89 2.834.022 3.919l-22.128 12.859c-1.867 1.085-4.888 1.086-6.767.001l-26.059-15.045c-1.88-1.085-1.888-2.835-.021-3.92l22.128-12.859c1.867-1.085 4.886-1.085 6.766 0l26.059 15.045zm137.93 5.732c1.88 1.085 1.861 2.851-.006 3.936l-19.648 11.418c-1.895 1.101-4.886 1.085-6.766 0l-19.804-11.434c-1.88-1.085-1.917-2.818-.022-3.919l19.648-11.418c1.867-1.085 4.915-1.102 6.795-.016l19.803 11.433zm-44.57 9.719c1.879 1.085 1.89 2.866.023 3.951l-19.675 11.434c-1.84 1.069-4.887 1.053-6.766-.032l-19.804-11.434c-1.88-1.085-1.862-2.818-.022-3.887l19.675-11.434c1.867-1.085 4.886-1.117 6.765-.032l19.804 11.434zm75.903 8.372c1.88 1.085 1.889 2.867.022 3.952l-19.648 11.418c-1.894 1.101-4.914 1.069-6.794-.016l-19.776-11.418c-1.88-1.085-1.917-2.818-.023-3.919l19.648-11.418c1.867-1.085 4.915-1.102 6.794-.016l19.777 11.417zm-44.542 9.734c1.879 1.085 1.863 2.85-.004 3.935l-19.675 11.434c-1.84 1.069-4.859 1.069-6.739-.016l-19.776-11.417c-1.907-1.101-1.918-2.85-.078-3.919l19.675-11.434c1.867-1.085 4.914-1.101 6.821.001l19.776 11.416zm62.694 36.196c1.879 1.085 1.89 2.866.023 3.951l-19.675 11.434c-1.84 1.069-4.887 1.053-6.766-.032l-19.776-11.418c-1.879-1.085-1.89-2.834-.05-3.903l19.675-11.434c1.867-1.085 4.914-1.101 6.793-.016l19.776 11.418zm-38.464 16.244c1.879 1.085 1.917 2.85.05 3.935l-22.128 12.859c-1.867 1.085-4.916 1.07-6.795-.015L907.683 960.44c-1.88-1.085-1.888-2.835-.021-3.92l22.128-12.859c1.867-1.085 4.886-1.085 6.766 0l134.729 77.786zM818.097 875.269c1.879 1.085 1.918 2.85.051 3.935l-22.128 12.859c-1.867 1.085-4.916 1.07-6.795-.016l-19.776-11.418c-1.879-1.085-1.889-2.835-.021-3.92l22.128-12.859c1.867-1.085 4.887-1.085 6.766 0l19.775 11.419zM851.814 894.735c1.88 1.085 1.89 2.834.022 3.919l-22.128 12.859c-1.867 1.085-4.888 1.086-6.767.001l-19.804-11.434c-1.879-1.085-1.888-2.835-.021-3.92l22.128-12.859c1.867-1.085 4.886-1.085 6.766 0l19.804 11.434zM885.503 914.186c1.88 1.085 1.89 2.834.023 3.919l-22.128 12.859c-1.867 1.085-4.888 1.086-6.767.001l-19.776-11.418c-1.88-1.085-1.916-2.851-.049-3.936l22.128-12.859c1.867-1.085 4.914-1.069 6.794.016l19.775 11.418zM1113.978 1046.096c1.88 1.085 1.89 2.834.023 3.919l-22.128 12.859c-1.867 1.085-4.888 1.086-6.767.001l-26.031-15.029c-1.88-1.085-1.888-2.835-.021-3.92l22.128-12.859c1.867-1.085 4.886-1.085 6.766 0l26.03 15.029zm32.82 18.948c1.879 1.085 1.918 2.85.05 3.935l-22.128 12.859c-1.867 1.085-4.916 1.07-6.795-.016l-20.309-11.725c-1.88-1.085-1.916-2.851-.049-3.936l22.128-12.859c1.867-1.085 4.914-1.069 6.794.016l20.309 11.726zM1231.006 1128.319c1.88 1.085 1.916 2.851.049 3.936l-9.474 5.506c-1.867 1.085-4.916 1.07-6.796-.016l-20.337-11.741c-1.879-1.085-1.888-2.835-.021-3.92l9.474-5.506c1.867-1.085 4.888-1.086 6.767-.001l20.338 11.742zM1154.319 995.485c1.88 1.085 1.861 2.851-.006 3.936l-19.648 11.418c-1.895 1.101-4.886 1.085-6.766 0l-19.776-11.417c-1.88-1.085-1.945-2.834-.051-3.935l19.648-11.418c1.867-1.085 4.943-1.085 6.823 0l19.776 11.416zM1185.68 1013.591c1.879 1.085 1.861 2.851-.006 3.936l-19.648 11.418c-1.895 1.101-4.887 1.085-6.766 0l-19.804-11.434c-1.88-1.085-1.917-2.818-.022-3.919l19.648-11.418c1.867-1.085 4.915-1.102 6.795-.016l19.803 11.433zM1174.883 1042.808c1.879 1.085 1.891 2.866.023 3.951l-19.675 11.434c-1.84 1.069-4.887 1.053-6.766-.032l-19.776-11.418c-1.879-1.085-1.89-2.834-.05-3.903l19.675-11.434c1.867-1.085 4.914-1.101 6.793-.016l19.776 11.418zM1219.454 1033.09c1.88 1.085 1.861 2.851-.006 3.936l-19.648 11.418c-1.895 1.101-4.886 1.085-6.766 0l-19.776-11.418c-1.879-1.085-1.945-2.834-.05-3.935l19.648-11.418c1.867-1.085 4.943-1.085 6.823 0l19.775 11.417zm33.801 19.516c1.88 1.085 1.861 2.851-.006 3.936l-19.648 11.418c-1.895 1.101-4.886 1.085-6.766 0l-19.804-11.434c-1.879-1.085-1.917-2.818-.022-3.919l19.648-11.418c1.867-1.085 4.915-1.102 6.795-.017l19.803 11.434zm-44.598 9.701c1.879 1.085 1.891 2.866.023 3.951l-19.675 11.434c-1.84 1.069-4.887 1.053-6.767-.032l-19.776-11.418c-1.879-1.085-1.89-2.834-.05-3.903l19.675-11.434c1.867-1.085 4.914-1.101 6.793-.016l19.777 11.418zm-40.71 29.605c1.88 1.085 1.916 2.851.049 3.936l-9.474 5.506c-1.867 1.085-4.916 1.069-6.796-.016l-20.337-11.741c-1.88-1.085-1.916-2.851-.049-3.936l9.474-5.506c1.867-1.085 4.916-1.07 6.796.016l20.337 11.741zm106.58 9.458c1.88 1.085 1.888 2.835.021 3.92l-19.675 11.434c-1.867 1.085-4.886 1.085-6.766 0l-55.176-31.856c-1.879-1.085-1.918-2.85-.05-3.935l19.675-11.434c1.867-1.085 4.916-1.07 6.795.015l55.176 31.856zm-62.567 1.296c1.88 1.085 1.89 2.834.022 3.919l-22.128 12.859c-1.867 1.085-4.888 1.086-6.767.001l-20.337-11.742c-1.88-1.085-1.917-2.851-.049-3.936l22.128-12.859c1.867-1.085 4.915-1.069 6.794.016l20.337 11.742zM1324.204 1020.669c1.879 1.085 1.89 2.834.022 3.919l-19.675 11.434c-1.867 1.085-4.859 1.069-6.739-.016l-19.804-11.434c-1.88-1.085-1.917-2.818-.05-3.903l19.675-11.434c1.867-1.085 4.886-1.085 6.766 0l19.805 11.434zm-48.996 8.163c1.879 1.085 1.863 2.85-.005 3.935l-19.648 11.418c-1.867 1.085-4.887 1.085-6.766 0l-19.804-11.434c-1.88-1.085-1.89-2.834-.022-3.919l19.648-11.418c1.867-1.085 4.913-1.101 6.793-.016l19.804 11.434zm31.333 18.09c1.879 1.085 1.891 2.866.023 3.951l-19.648 11.418c-1.867 1.085-4.915 1.069-6.794-.016l-19.776-11.418c-1.88-1.085-1.89-2.834-.022-3.919l19.648-11.418c1.867-1.085 4.913-1.101 6.793-.016l19.776 11.418zM1195.167 920.89c1.88 1.085 1.89 2.834.022 3.919l-9.196 5.344c-1.896 1.102-4.915 1.102-6.795.017l-19.776-11.418c-1.88-1.085-1.918-2.85-.022-3.952l9.196-5.344c1.867-1.085 4.915-1.069 6.794.016l19.777 11.418zM1369.366 1046.743c1.88 1.085 1.918 2.85.051 3.935l-19.675 11.434c-1.867 1.085-4.887 1.053-6.767-.032l-34.138-19.71c-1.88-1.085-1.917-2.818-.05-3.903l19.675-11.434c1.867-1.085 4.886-1.085 6.766 0l34.138 19.71zM1337.902 1065.028c1.88 1.085 1.891 2.866.023 3.951l-19.648 11.418c-1.867 1.085-4.914 1.069-6.794-.016l-19.776-11.417c-1.907-1.101-1.918-2.85-.051-3.935l19.648-11.418c1.867-1.085 4.914-1.101 6.821.001l19.777 11.416zM1306.019 1083.069c1.88 1.085 1.861 2.851-.006 3.936l-19.648 11.418c-1.895 1.101-4.886 1.085-6.766 0l-40.982-23.661c-1.88-1.085-1.917-2.818-.022-3.919l19.648-11.418c1.867-1.085 4.915-1.102 6.795-.016l40.981 23.66zM1391.187 1034.062c1.88 1.085 1.918 2.85.051 3.935l-9.196 5.344c-1.896 1.102-4.943 1.085-6.823 0l-19.776-11.418c-1.908-1.101-1.918-2.85-.022-3.952l9.196-5.344c1.867-1.085 4.886-1.085 6.794.016l19.776 11.419zM1122.958 977.379c1.879 1.085 1.889 2.867.022 3.952l-19.648 11.418c-1.895 1.101-4.915 1.069-6.794-.017l-19.776-11.417c-1.88-1.085-1.945-2.834-.051-3.935l19.648-11.418c1.867-1.085 4.943-1.085 6.823 0l19.776 11.417zM1078.416 987.113c1.88 1.085 1.862 2.85-.005 3.935l-19.675 11.434c-1.84 1.069-4.859 1.069-6.739-.016l-19.804-11.434c-1.879-1.085-1.89-2.834-.05-3.903l19.675-11.434c1.867-1.085 4.914-1.101 6.793-.016l19.805 11.434zM1141.11 1023.309c1.879 1.085 1.89 2.866.023 3.951l-19.675 11.434c-1.84 1.069-4.887 1.053-6.767-.032l-19.804-11.434c-1.879-1.085-1.861-2.818-.021-3.887l19.675-11.434c1.867-1.085 4.886-1.117 6.765-.032l19.804 11.434z" class="color545466 svgShape"></path><path fill="#2e25b8" d="m1432.059 629.873-1.07 361.95-8.752 5.086 1.07-361.95z" class="color255bb8 svgShape"></path><path fill="#4037c7" d="m1423.307 634.959-1.07 361.95-439.072-253.498 1.07-361.95z" class="color3765c7 svgShape"></path><path fill="#5046e4" d="m1432.059 629.873-8.752 5.086-439.072-253.498 8.752-5.086z" class="color5576db svgShape"></path><path fill="#f4f6f8" d="M1204.363 525.62c-34.38 9.183-108.093-11.104-134.269-26.216L950.195 430.18l44.285-25.736 209.883 121.176z" class="colore7f1f7 svgShape"></path><path fill="#f4f6f8" d="m1414.304 646.83-.945 333.443-44.285 25.736.945-333.444z" class="colorcfdee8 svgShape"></path><path fill="#f4f6f8" d="m1414.304 646.83-44.285 25.736-119.958-69.258c-26.176-15.113-61.439-57.744-45.698-77.687l209.941 121.209z" class="colore7f1f7 svgShape"></path><path fill="#ffffff" d="m1370.03 672.525-.931 333.471-120.019-69.262c-21.662-12.551-49.645-43.973-49.552-65.73l.929-333.376c0 21.757 27.89 53.179 49.644 65.635l119.929 69.262z" class="colorffffff svgShape"></path><path fill="#ffffff" d="m1204.364 525.635-.931 333.471c-34.397 9.11-108.119-11.153-134.243-26.215L949.265 763.63l.928-333.471 119.928 69.262c26.123 15.061 99.845 35.42 134.243 26.214z" class="colorffffff svgShape"></path><g fill="#dce6f1" class="colordce8f1 svgShape"><path d="m1007.002 498.483-45.585-26.325v4.931l45.585 26.325zM1042.596 519.041l-25.487-14.719v4.931l25.487 14.718zM1068.585 534.051l-11.048-6.382v4.933l14.08 8.13c12.721 7.335 39.225 16.77 66.761 22.621h.455v.093c15.17 3.2 30.626 5.317 44.254 5.353v-5.824c-36.39-.08-91.357-15.579-114.502-28.924zm201.203 116.099-21.213-12.251c-12.767-7.311-28.541-21.635-39.178-37.133 8.982 16.731 26.667 37.364 42.115 46.313l18.277 10.547v-7.476zM1278.576 655.224v7.474l79.521 45.893v-7.438zM1068.585 561.432l-11.927-6.889v4.93l14.959 8.64c11.566 6.67 34.536 15.073 59.306 20.945v-5.728c-24.921-5.761-48.953-14.179-62.338-21.898zM1050.067 550.737l-88.65-51.198v4.93l88.65 51.198zM1138.834 585.06v5.767c15.17 3.2 30.626 5.32 44.254 5.353v-5.824c-13.123-.026-28.663-2.081-44.254-5.296zm219.263 143.475-109.522-63.254c-12.767-7.312-28.541-21.635-39.178-37.133 8.982 16.731 26.667 37.364 42.115 46.313l106.586 61.512v-7.438zM1003.486 551.22l-42.069-24.298v4.931l42.069 24.297zM1068.585 588.815l-57.189-33.028v4.93l60.221 34.779c19.796 11.414 72.959 27.968 111.471 28.067v-5.824c-36.391-.08-91.358-15.578-114.503-28.924zm184.943 106.709-4.954-2.861c-12.767-7.312-28.541-21.635-39.178-37.133 8.982 16.731 26.667 37.364 42.115 46.313l2.018 1.164v-7.483zM1313.731 730.294l-51.854-29.947v7.479l51.854 29.924zM1325.596 737.147v7.452l32.501 18.756v-7.438zM1054.462 608.042l-93.045-53.736v4.93l93.045 53.733zM1073.796 618.964v5.083c21.233 11.342 72.062 26.805 109.292 26.901v-5.824c-33.901-.078-83.893-13.532-109.292-26.16zm174.778 101.083c-9.976-5.713-21.757-15.73-31.521-27.219v2.321c6.871 9.759 15.59 19.547 24.347 26.841h1.141v.975c3.019 2.435 6.032 4.561 8.968 6.262l83.754 48.334v-7.45l-86.689-50.064zM1011.397 610.552l-49.98-28.865v4.93l49.98 28.865zM1068.585 643.579l-47.522-27.444v4.93l50.554 29.195c5.67 3.272 14.134 6.958 24.151 10.565v-5.458c-10.92-3.823-20.429-7.892-27.183-11.788zm39.488 15.802v5.566c23.337 7.281 51.815 13.321 75.016 13.381v-5.824c-21.945-.048-50.614-5.716-75.016-13.123zm123.482 75.553c-8.054-7.069-15.977-15.631-22.159-24.64 5.182 9.654 13.287 20.546 22.159 29.804v-5.164zm17.019 12.493c-1.946-1.113-3.975-2.438-6.032-3.86v6.685c3.019 2.435 6.035 4.657 8.968 6.355l106.586 61.512v-7.437l-109.522-63.255zM989.424 625.247l-28.007-16.177V614l28.007 16.177zM1047.431 658.745l-50.536-29.186v4.93l50.536 29.186zM1148.063 696.346c-30.509-5.353-63.026-15.898-79.477-25.383l-11.048-6.382v4.93l14.08 8.133c14.211 8.193 45.61 19.004 76.445 24.508v-5.806zM1268.03 786.048v7.477l90.067 51.978v-7.438zM1262.317 782.746l-13.743-7.935c-12.767-7.311-28.541-21.634-39.178-37.133 8.982 16.731 26.667 37.364 42.115 46.313l10.807 6.235v-7.48zM1006.562 662.524l-45.145-26.07v4.93l45.145 26.073zM1068.585 698.346l-53.235-30.745v4.93l56.267 32.497c19.796 11.414 72.959 27.968 111.471 28.067v-5.824c-36.391-.081-91.358-15.579-114.503-28.925zm217.022 125.234-37.033-21.386c-12.767-7.311-28.541-21.635-39.178-37.133 8.982 16.731 26.667 37.364 42.115 46.313l34.097 19.676v-7.47zM1293.517 828.151v7.464l64.58 37.271v-7.437zM1052.264 716.301l-90.847-52.467v4.931l90.847 52.467zM1068.585 725.727l-9.291-5.365v4.93l12.323 7.117c14.075 8.115 45.015 18.801 75.566 24.352v-5.8c-30.251-5.399-62.304-15.838-78.598-25.234zm184.503 106.457-4.514-2.609c-12.767-7.312-28.541-21.635-39.178-37.133 8.982 16.731 26.667 37.364 42.115 46.313l1.578.912v-7.483zM1261.877 837.258v7.48l96.22 55.529v-7.438zM997.774 712.214l-36.357-20.996v4.93l36.357 20.999zM1057.098 746.477l-53.173-30.71v4.931l53.173 30.709zM1068.585 753.11l-6.214-3.59v4.93l9.246 5.341c6.798 3.92 17.58 8.439 30.303 12.698v-5.515c-13.508-4.399-25.341-9.254-33.335-13.864zm38.609 15.535v5.56c23.495 7.404 52.404 13.594 75.894 13.654v-5.824c-22.206-.051-51.305-5.85-75.894-13.39zm197.748 120.868-56.368-32.554c-12.767-7.311-28.541-21.634-39.178-37.133 8.982 16.731 26.667 37.364 42.115 46.313l53.432 30.835v-7.461zM1311.534 893.321v7.459l46.563 26.87v-7.437zM1092.253 791.032c-9.442-3.455-17.646-7.068-23.668-10.538l-107.169-61.893v4.93l110.201 63.644c5.002 2.882 12.147 6.097 20.636 9.288v-5.431zm51.415 14.033c-15.089-2.876-30.448-6.919-43.944-11.426v5.497c13.09 4.492 28.481 8.706 43.944 11.711v-5.782zm121.725 88.991-16.818-9.714c-12.767-7.311-28.541-21.635-39.178-37.133 8.982 16.731 26.667 37.364 42.115 46.313l13.882 8.01v-7.476zM1271.545 897.607v7.476l86.552 49.951v-7.438zM1019.306 779.414l-57.889-33.432v4.93l57.889 33.433zM1068.585 807.875l-36.536-21.101v4.93l39.568 22.852c14.413 8.31 46.508 19.319 77.763 24.745v-5.815c-30.885-5.275-64.105-15.988-80.795-25.611zm169.123 96.455c-10.065-7.791-20.553-18.435-28.312-29.741 6.362 11.852 17.104 25.59 28.312 35.817v-6.076zm10.866 7.393a84.364 84.364 0 0 1-4.714-2.936v6.817c2.577 2 5.145 3.848 7.65 5.299l46.401 26.781v-7.464l-49.337-28.497zM1306.261 945.041v7.459l51.836 29.914v-7.437z" fill="#010001" class="color000000 svgShape"></path></g><path fill="#5046e4" d="m394.576 789.203 196.03 113.173c1.37.796 2.623.87 3.523.339l271.12-157.549c-.914.53-2.167.457-3.537-.339l-196.03-113.173-271.106 157.549z" class="color5576db svgShape"></path><path fill="#f4f6f8" d="m419.217 734.995 168.453 97.259c5.63 3.242 10.184 11.142 10.169 17.611l-.103 39.365c-.03 6.47-4.613 9.079-10.243 5.837L403.478 788.823v-53.828h15.739z" class="colore7f1f7 svgShape"></path><path fill="#5046e4" d="m590.762 845.573 271.108-157.55-196.023-113.174-271.108 157.55z" class="color5576db svgShape"></path><path fill="#4037c7" d="m872.016 705.646-.094 39.358c0 3.221-1.122 5.463-2.989 6.537L597.858 909.068c1.821-1.026 2.942-3.315 2.942-6.536l.14-39.358c0-6.444-4.53-14.334-10.179-17.602l271.122-157.528c5.603 3.221 10.178 11.111 10.133 17.602z" class="color3765c7 svgShape"></path><path fill="#2e25b8" d="m394.739 732.399-.017 6.001 196.023 113.174c2.738 1.581 4.961 5.442 4.952 8.588l-.112 39.368c-.009 3.147-2.246 4.421-4.984 2.841L394.578 789.197l-.017 6.012 196.023 113.174c5.627 3.249 10.215.635 10.233-5.832l.112-39.368c.018-6.466-4.54-14.361-10.167-17.609L394.739 732.399z" class="color255bb8 svgShape"></path><path fill="#69b4ff" d="m455.745 709.441 145.799 84.173c1.019.592 1.951.647 2.62.252l201.648-117.178c-.68.394-1.612.34-2.631-.252l-145.799-84.173-201.637 117.178z" class="colorffd469 svgShape"></path><path fill="#f4f6f8" d="M474.072 669.123 599.36 741.46c4.188 2.411 7.575 8.287 7.563 13.099l-.077 29.278c-.022 4.812-3.431 6.753-7.618 4.341l-136.863-79.02v-40.035h11.707z" class="colore7f1f7 svgShape"></path><path fill="#69b4ff" d="m601.659 751.366 201.639-117.179-145.794-84.174-201.638 117.179z" class="colorffd469 svgShape"></path><path fill="#50a7ff" d="m810.844 647.294-.07 29.273c0 2.396-.834 4.063-2.223 4.862L606.937 798.591c1.355-.763 2.188-2.465 2.188-4.861l.104-29.273c0-4.792-3.369-10.661-7.571-13.091l201.649-117.162c4.167 2.394 7.571 8.263 7.537 13.09z" class="colorffc950 svgShape"></path><path fill="#399cff" d="m455.866 667.192-.013 4.463 145.793 84.174c2.036 1.176 3.69 4.047 3.683 6.387l-.083 29.281c-.007 2.34-1.671 3.288-3.707 2.113l-145.793-84.174-.013 4.471 145.793 84.174c4.185 2.416 7.597.472 7.611-4.337l.083-29.28c.014-4.809-3.376-10.681-7.562-13.097l-145.792-84.175z" class="colorffb839 svgShape"></path><path fill="#ff6ce4" d="m506.49 644.982 104.127 60.115c.728.423 1.393.462 1.871.18l144.013-83.687c-.485.282-1.151.243-1.879-.18l-104.127-60.115-144.005 83.687z" class="colorff6c85 svgShape"></path><path fill="#f4f6f8" d="m519.579 616.188 89.478 51.662c2.991 1.722 5.41 5.918 5.402 9.355l-.055 20.91c-.016 3.437-2.45 4.822-5.441 3.1l-97.745-56.435v-28.592h8.361z" class="colore7f1f7 svgShape"></path><path fill="#ff6ce4" d="m610.699 674.924 144.007-83.687-104.123-60.115-144.007 83.687z" class="colorff6c85 svgShape"></path><path fill="#fd54de" d="M710.965 590.799c1.799 1.039 1.808 2.727.043 3.752l-15.394 8.946c-1.765 1.026-4.679 1.026-6.478-.013l-60.764-35.082c-1.799-1.039-1.785-2.714-.02-3.739l15.393-8.946c1.765-1.026 4.657-1.039 6.456 0l60.764 35.082zm49.13 9.799-.05 20.906c0 1.711-.596 2.902-1.587 3.472l-143.989 83.675c.967-.545 1.563-1.761 1.563-3.472l.075-20.906c0-3.423-2.406-7.614-5.407-9.35l144.014-83.675c2.975 1.711 5.405 5.902 5.381 9.35z" class="colorfd546b svgShape"></path><path fill="#ea3dcb" d="m506.576 614.809-.009 3.188 104.123 60.115c1.454.84 2.635 2.891 2.63 4.562l-.059 20.912c-.005 1.671-1.193 2.349-2.648 1.509L506.49 644.979l-.009 3.193 104.123 60.115c2.989 1.726 5.426.337 5.436-3.098l.059-20.912c.01-3.434-2.411-7.628-5.4-9.354l-104.123-60.114z" class="colorea3d5b svgShape"></path><path fill="#b5d9fe" d="M688.662 359.53c.816 1.079-.824 9.913 4.616 6.127 6.203-4.316 6.807-11.326 9.228-7.811 2.541 3.688 4.398 13.787-3.572 17.707-3.745 1.842-9.252 4.988-11.614.418-.698-1.35-.738-3.213-.907-4.692-.65-5.715.775-13.699 2.249-11.749z" class="colorfed0b5 svgShape"></path><path fill="#7b75d1" d="M623.621 390.314c12.565 8.236 24.818 15.917 33.164 16.728 10.515-3.774 23.718-15.96 37.173-28.936-2.321-3.343-3.511-5.917-7.676-7.386l-30.226 18.217s-27.697-27.779-32.435-23.224c-4.737 4.557 0 24.601 0 24.601z" class="color75d178 svgShape"></path><path fill="#564753" d="M581.199 609.31s.827 25.971 8.188 29.279c7.361 3.308 14.888 2.068 15.301-2.068.414-4.135-6.369-21.918-10.008-27.79-3.639-5.873-15.383-5.128-13.481.579zm28.185-41.73s.842 14.836 1.906 16.612c1.063 1.775 9.943 4.234 10.329 2.635.385-1.599 16.389 6.512 20.97 4.862 4.581-1.65 8.31-4.116 5.341-8.913-2.969-4.797-14.683-8.624-22.421-15.497-7.739-6.873-15.812-2.357-16.125.301z" class="color474756 svgShape"></path><path fill="#2e25b8" d="M627.123 521.535a22.473 22.473 0 0 0-.57 8.247c1.281 10.827-.421 40.51-1.997 41.559-1.793 1.197-12.934 7.452-14.262 2.005-1.394-5.379-3.415-27.969-3.149-40.786.199-12.882.133-59.568 4.249-61.89 0 0 23.168-14.511 23.5-18.694 3.043 25.393-.097 39.712-7.771 69.559z" class="color255bb8 svgShape"></path><path fill="#4037c7" d="M588.175 464.101s-5.162.184-4.713 16.342c.449 16.158 1.122 50.495-2.469 57.676-3.591 7.182-4.807 69.946.579 73.537 5.386 3.591 14.233-1.852 14.233-1.852s6.059-60.689 8.304-69.217c2.244-8.528 18.851-24.197 15.261-66.164 0 .001-29.757-14.82-31.195-10.322z" class="color3765c7 svgShape"></path><path fill="#7caddf" d="M573.01 387.291c-1.817-.023 1.621 25.478 5.365 31.299 12.826 17.48 4.167 37.313 4.838 54.08.671 16.767 51.053 5.255 51.5-13.077.447-18.332 1.789-75.431 0-83.926s-6.93-12.072-14.531-12.072c-7.602-.001-43.819 14.083-47.172 23.696z" class="color7cdf82 svgShape"></path><path fill="#b5d9fe" d="M535.326 400.141c-.009-.028-.028-.046-.037-.075 0-.019 0-.037-.009-.056l.046.131zm-22.068-19.762c-.916 1.211.673 7.411-2.731 6.979-4.279-.543-8.468-9.952-10.184-9.463-2.495.711-5.572 12.881.515 17.306 3.913 2.844 11.429 6.095 13.742 1.62.982-1.899 1.247-8.24 1.084-10.41-.147-1.955-1.244-7.595-2.426-6.032z" class="colorfed0b5 svgShape"></path><path fill="#7b75d1" d="M576.763 382.518c-19.116 9.045-30.494 28.659-30.494 28.659s-23.034-14.776-30.267-18.44c-1.719-.195-6.717 2.49-8.458 5.59 8.508 14.734 36.384 28.563 37.762 28.719 1.443.159 29.272-16.373 32.057-18.918 6.381-5.827 6.323-24.776-.6-25.61z" class="color75d178 svgShape"></path><path fill="#a7ccf2" d="M593.816 357.137s.281 14.471.773 15.384c.492.913 21.988 17.843 22.058 10.678.07-7.165-1.405-13.066-1.967-17.351-.562-4.285-20.302-9.765-20.372-8.711" class="colorf2c0a7 svgShape"></path><path fill="#b5d9fe" d="M615.061 333.216c1.078.484 6.602 26.314 2.452 35.934-4.15 9.62-33.482-6.225-33.198-14.43.283-8.206-.095-35.368 30.746-21.504z" class="colorfed0b5 svgShape"></path><path fill="#77a5d3" d="m1612.054 1073.146-22.851 107.086c-1.129 3.996-5.387 7.776-12.294 10.47-12.946 5.082-32.495 5.082-45.528 0-7.081-2.736-11.382-6.561-12.512-10.6l-22.547-107.13c1.781 7.038 7.342 13.815 16.682 19.201 22.894 13.207 59.908 13.207 82.671 0 9.211-5.385 14.685-12.075 16.379-19.027z" class="colord3ae77 svgShape"></path><path fill="#665463" d="M1595.434 1044.245c-22.919-13.232-59.962-13.232-82.733 0-22.748 13.22-22.628 34.678.291 47.91 22.897 13.219 59.941 13.219 82.689 0 22.771-13.234 22.65-34.691-.247-47.91zm-1.934 44.153c-10.352 6.014-24.241 9.327-39.111 9.327-14.87 0-28.802-3.316-39.226-9.333-9.724-5.615-15.086-12.821-15.099-20.292-.008-7.401 5.256-14.539 14.823-20.099 10.356-6.022 24.254-9.338 39.124-9.338 14.874 0 28.815 3.32 39.251 9.344 9.711 5.606 15.065 12.806 15.078 20.27.009 7.409-5.26 14.553-14.84 20.121z" class="color545466 svgShape"></path><path fill="#564753" d="M1593.262 1048.008c-10.436-6.024-24.377-9.344-39.251-9.344-14.87 0-28.768 3.315-39.124 9.338-9.567 5.56-14.832 12.698-14.823 20.099.013 7.471 5.375 14.677 15.099 20.292 10.424 6.018 24.356 9.333 39.226 9.333 14.87 0 28.76-3.313 39.111-9.327 9.579-5.568 14.849-12.713 14.84-20.12-.012-7.465-5.366-14.665-15.078-20.271z" class="color474756 svgShape"></path><path fill="#7b75d1" d="m1612.944 994.656-60.12 139.45-5.08 2.311 60.119-139.45z" class="color75d178 svgShape"></path><path fill="#7b75d1" d="m1607.863 996.967-60.119 139.45-7.454-2.993 60.119-139.45z" class="color75d178 svgShape"></path><path fill="#7b75d1" d="m1600.409 993.974-60.119 139.45-2.391-5.328 60.119-139.45z" class="color75d178 svgShape"></path><path fill="#6d4165" d="m1610.525 989.332 2.419 5.324-5.081 2.311-7.454-2.993-2.391-5.328 5.036-2.331z" class="color6d5a41 svgShape"></path><path fill="#c5e2ff" d="m1612.945 994.664-5.113 2.297-7.444-2.984-2.355-5.344 11.132-12.003 5.476-5.912-.549 8.024z" class="colorffdcc5 svgShape"></path><path fill="#7b75d1" d="M1614.092 978.742c-.916-.03-1.8-.255-2.672-.629-.872-.374-1.601-.84-2.255-1.483l5.476-5.912-.549 8.024z" class="color75d178 svgShape"></path><path fill="#ea3dcb" d="m1511.199 972.442 35.269 147.705-2.688 4.892-35.269-147.706z" class="colorea3d5b svgShape"></path><path fill="#ea3dcb" d="m1508.511 977.333 35.269 147.706-7.763 2.061-35.269-147.706zM1500.748 979.394l35.269 147.706-5.104-2.838-35.269-147.705z" class="colorea3d5b svgShape"></path><path fill="#6d4165" d="m1506.076 969.623 5.123 2.819-2.688 4.891-7.763 2.061-5.104-2.837 2.641-4.881z" class="color6d5a41 svgShape"></path><path fill="#c5e2ff" d="m1511.205 972.447-2.722 4.9-7.75 2.063-5.084-2.873 1.737-16.278.85-8.013 4.362 6.757z" class="colorffdcc5 svgShape"></path><path fill="#ea3dcb" d="M1502.598 959.003c-.752.524-1.595.873-2.518 1.095s-1.786.285-2.694.161l.85-8.013 4.362 6.757z" class="colorea3d5b svgShape"></path><path fill="#4037c7" d="m1558.136 985.262-23.142 150.084-4.337 3.514 23.142-150.084z" class="color3765c7 svgShape"></path><path fill="#4037c7" d="m1553.799 988.776-23.142 150.084-7.966-1.025 23.141-150.083z" class="color3765c7 svgShape"></path><path fill="#4037c7" d="m1545.832 987.752-23.141 150.083-3.654-4.555 23.142-150.084z" class="color3765c7 svgShape"></path><path fill="#6d4165" d="m1554.456 980.717 3.68 4.545-4.337 3.514-7.967-1.024-3.653-4.556 4.289-3.522z" class="color6d5a41 svgShape"></path><path fill="#c5e2ff" d="m1558.139 985.269-4.372 3.509-7.955-1.018-3.622-4.58 7.758-14.416 3.814-7.098 1.486 7.904z" class="colorffdcc5 svgShape"></path><path fill="#4037c7" d="M1555.248 969.57c-.894.202-1.807.206-2.745.063-.938-.143-1.761-.411-2.555-.869l3.814-7.098 1.486 7.904z" class="color3765c7 svgShape"></path><path fill="#98bde2" d="m1592.005 972.183-42.169 145.885-4.751 2.93 42.169-145.885zM1587.254 975.113l-42.169 145.885-7.77-2.036 42.169-145.885z" class="colore2af98 svgShape"></path><path fill="#98bde2" d="m1579.484 973.077-42.169 145.885-3.04-4.986 42.169-145.885z" class="colore2af98 svgShape"></path><path fill="#6d4165" d="m1588.938 967.204 3.067 4.979-4.751 2.93-7.77-2.036-3.04-4.986 4.705-2.943z" class="color6d5a41 svgShape"></path><path fill="#c5e2ff" d="m1592.007 972.191-4.785 2.92-7.759-2.028-3.006-5.007 9.54-13.303 4.692-6.552.461 8.029z" class="colorffdcc5 svgShape"></path><path fill="#98bde2" d="M1591.15 956.25c-.913.085-1.818-.027-2.73-.289-.912-.262-1.694-.633-2.423-1.189l4.692-6.551.461 8.029z" class="colore2af98 svgShape"></path><path fill="#399cff" d="m1642.886 1004.71-78.902 129.75-5.352 1.583 78.902-129.75z" class="colorffb839 svgShape"></path><path fill="#399cff" d="m1637.534 1006.293-78.902 129.75-6.965-3.999 78.901-129.751zM1630.568 1002.293l-78.901 129.751-1.629-5.608 78.902-129.751z" class="colorffb839 svgShape"></path><path fill="#6d4165" d="m1641.231 999.101 1.655 5.609-5.352 1.583-6.966-4-1.628-5.608 5.311-1.609z" class="color6d5a41 svgShape"></path><path fill="#c5e2ff" d="m1642.887 1004.718-5.383 1.564-6.957-3.988-1.59-5.619 12.691-10.341 6.243-5.094-1.657 7.869z" class="colorffdcc5 svgShape"></path><path fill="#399cff" d="M1646.234 989.109c-.903-.157-1.747-.503-2.559-.994s-1.469-1.054-2.027-1.782l6.244-5.094-1.658 7.87z" class="colorffb839 svgShape"></path><path fill="#685fec" d="m1487.78 1029.045 93.073 119.991-.43 5.566-93.073-119.992z" class="coloraf5fec svgShape"></path><path fill="#685fec" d="m1487.35 1034.61 93.073 119.992-6.221 5.08-93.073-119.991zM1481.129 1039.691l93.073 119.991-5.82-.479-93.073-119.992z" class="coloraf5fec svgShape"></path><path fill="#6d4165" d="m1481.95 1028.591 5.83.454-.43 5.565-6.221 5.081-5.82-.48.391-5.535z" class="color6d5a41 svgShape"></path><path fill="#c5e2ff" d="m1487.788 1029.047-.459 5.587-6.208 5.077-5.816-.519-5.134-15.545-2.532-7.65 6.761 4.356z" class="colorffdcc5 svgShape"></path><path fill="#685fec" d="M1474.4 1020.353c-.469.788-1.093 1.453-1.841 2.036-.749.583-1.509.996-2.387 1.258l-2.532-7.65 6.76 4.356z" class="coloraf5fec svgShape"></path><path fill="#665463" d="M1608.16 1070.339c-.877 6.662-5.973 13.011-14.659 18.06-10.352 6.013-24.241 9.325-39.111 9.325-14.87 0-28.802-3.316-39.226-9.333-8.747-5.052-13.926-11.391-14.895-18.053h-4.357c.911 7.945 6.567 15.748 17.082 21.815 22.897 13.222 59.941 13.222 82.689 0 10.445-6.071 16.013-13.874 16.836-21.815h-4.359z" class="color545466 svgShape"></path><path fill="#564753" d="m1612.054 1073.146-22.851 107.086c-1.129 3.996-5.387 7.776-12.294 10.47-12.946 5.082-32.495 5.082-45.528 0-7.081-2.736-11.382-6.561-12.512-10.6l-22.547-107.13c1.781 7.038 7.342 13.815 16.682 19.201 22.894 13.207 59.908 13.207 82.671 0 9.211-5.385 14.685-12.075 16.379-19.027z" class="color474756 svgShape"></path><path fill="#f4f6f8" d="M1148.285 1013.369V685.601c17.353-23.599 34.062-67.655 50.192-130.045V857.47l-50.192 155.899z" class="colore7f1f7 svgShape"></path><path fill="#7b75d1" d="M514.605 1273.53c0 3.546 2.332 7.089 6.996 9.749l261.451 150.964.14-60.816-261.404-150.964c-4.617-2.657-6.996-6.203-6.996-9.701l-.187 60.768z" class="color75d178 svgShape"></path><path fill="#7caddf" d="m911.494 1298.855-.14 60.816-75.693 43.98-4.804 2.796-47.803 27.796.14-60.816z" class="color7cdf82 svgShape"></path><path fill="#94c0ed" d="m911.513 1298.855-128.301 74.56-261.438-150.942c-9.29-5.364-9.341-14.096-.08-19.478l94.753-55.065c9.29-5.399 24.337-5.381 33.627-.017l261.439 150.942z" class="color94ed96 svgShape"></path><path fill="#7caddf" d="M568.751 1226.427c.746 1.444 2.145 2.844 4.104 3.962l181.654 104.844 84.274-48.924 4.897-2.844-181.654-104.889c-6.483-3.73-16.93-3.73-23.366 0l-65.852 38.244c-4.477 2.612-5.829 6.342-4.057 9.607z" class="color7cdf82 svgShape"></path><path fill="#7b75d1" d="M568.751 1226.427c.746 1.444 2.145 2.844 4.104 3.962l181.654 104.844 84.274-48.924-176.757-102.043c-6.483-3.685-16.93-3.732-23.366.046l-65.852 38.244c-1.958 1.118-3.311 2.471-4.057 3.871z" class="color75d178 svgShape"></path><path fill="#c5d1dd" d="m964.868 1376.786-78.407-45.566.09 31.872 78.408 45.566z" class="colorc5d4dd svgShape"></path><path fill="#f4f6f8" d="m964.959 1408.658-78.408-45.566-74.616 43.08 78.408 45.565z" class="colore7f1f7 svgShape"></path><path fill="#afbac6" d="m888.275 1418.739-78.408-45.566.104 36.401 78.407 45.566z" class="colorafbec6 svgShape"></path><path fill="#dce6f1" d="m966.833 1373.278-78.408-45.566-78.558 45.356 78.408 45.565z" class="colordce8f1 svgShape"></path><path fill="#c5d1dd" d="m966.936 1409.785-78.558 45.355-.103-36.402 78.558-45.355.103 36.402zm-76.593 41.952 74.615-43.079-.09-31.872-74.616 43.079.091 31.872" class="colorc5d4dd svgShape"></path><path fill="#736170" d="m962.409 1391.389-11.38-6.613-60.776 35.089-.045 13.21z" class="color616173 svgShape"></path><path fill="#665463" d="m890.208 1433.075.045 15.807 72.201-41.686-.045-15.807z" class="color545466 svgShape"></path><g fill="#50a7ff" class="colorffc950 svgShape"><path d="m961.257 1392.232-11.371-6.617-4.38 2.529 11.37 6.617zM952.225 1397.417l-11.37-6.616-4.38 2.529 11.37 6.617zM943.194 1402.603l-11.37-6.617-4.381 2.529 11.371 6.617zM934.163 1407.789l-11.37-6.617-4.381 2.529 11.37 6.617zM925.132 1412.974l-11.371-6.616-4.38 2.529 11.37 6.617zM916.101 1418.16l-11.371-6.617-4.38 2.529 11.37 6.617zM907.069 1423.346l-11.37-6.617-4.38 2.529 11.37 6.617z" fill="#010001" class="color000000 svgShape"></path></g><g fill="#afbac6" class="colorafbec6 svgShape"><path d="m907.75 1369.3 23.739 13.796 13.487-7.787-23.74-13.795zM865.411 1393.752l23.74 13.795 13.486-7.786-23.739-13.796z" fill="#010001" class="color000000 svgShape"></path></g><g fill="#afbac6" class="colorafbec6 svgShape"><path d="m879.012 1346.189 4.813 2.797 4.45-2.569-4.813-2.797zM836.809 1370.553l4.813 2.797 4.45-2.57-4.812-2.797z" fill="#010001" class="color000000 svgShape"></path></g><path fill="#2e25b8" d="M660.927 1266.623s9.53-15.46 11.224-25.414c1.694-9.954 20.754-54.004 23.508-53.369 2.753.635 8.895 32.614 4.024 40.45-4.871 7.836-23.084 48.62-23.084 48.62l-15.672-10.287z" class="color255bb8 svgShape"></path><path fill="#564753" d="M682.201 1418.549c-.823.607-1.773 1.126-2.795 1.142-.599.016-1.262-.136-1.765.192-.256.16-.423.415-.591.671a219.407 219.407 0 0 1-2.947 4.384c-1.174 1.677-2.412 3.394-4.168 4.448-2.316 1.381-12.108 7.565-20.722 1.086-1.389-1.045-1.222-3.21-1.254-4.951-.016-.695-.024-1.405.192-2.068.232-.727.719-1.334 1.198-1.932 5.198-6.46 13.482-11.556 19.272-17.505.79-.815 1.605-1.629 2.188-2.603.343-.559.607-1.182 1.094-1.621.703-.647 1.749-.79 2.707-.703 1.653.16 3.194.894 4.687 1.621 2.388 1.166 1.69.952 4.069 2.11.687.335 1.389.671 1.948 1.19 1.142 1.038 1.589 2.643 1.693 4.184.249 3.951-1.628 7.983-4.806 10.355zm-23.833-17.156c-.823.607-1.773 1.126-2.795 1.142-.599.016-1.262-.136-1.765.192-.255.16-.423.415-.591.671a216.557 216.557 0 0 1-2.947 4.384c-1.174 1.677-2.412 3.394-4.169 4.448-2.316 1.382-12.108 7.565-20.722 1.086-1.389-1.045-1.222-3.21-1.254-4.951-.016-.695-.024-1.405.192-2.068.232-.727.719-1.333 1.198-1.932 5.198-6.46 13.483-11.556 19.272-17.505.791-.814 1.605-1.629 2.188-2.603.343-.559.607-1.182 1.094-1.621.703-.647 1.749-.791 2.707-.703 1.653.16 3.194.894 4.687 1.621 2.388 1.166 1.69.952 4.069 2.11.687.335 1.389.671 1.948 1.19 1.142 1.038 1.589 2.643 1.693 4.184.25 3.95-1.627 7.983-4.805 10.355z" class="color474756 svgShape"></path><path fill="#399cff" d="M685.113 1266.879c13.256-9.293 26.023-10.992 38.211-3.674 1.524 9.951.717 20.136-4.679 30.794-15.061 12.263-30.969 22.642-48.042 30.418l-8.861 62.707c-5.666 5.46-13.097 3.152-16.096-.016-.61-26.465.249-51.792 3.351-75.388 9.533-16.165 21.431-31.178 36.116-44.841z" class="colorffb839 svgShape"></path><path fill="#50a7ff" d="M710.391 1280.943c13.256-9.293 26.023-10.992 38.211-3.674l.045.299c2.305 15.538-4.722 31.112-17.485 40.268-11.233 8.058-22.953 15.03-35.281 20.645l-9.703 66.653c-9.526 4.229-12.255-.794-15.254-3.962-.609-26.465.249-51.792 3.351-75.388 9.533-16.165 21.43-31.177 36.116-44.841z" class="colorffc950 svgShape"></path><path fill="#4037c7" d="M687.511 1282.351s62.197 9.51 66.191 0c3.994-9.51 12.934-61.436 8.559-69.425-4.375-7.989-22.634-27.77-32.335-30.433-9.7-2.663-36.139 3.424-36.329 7.038-.19 3.614 5.135 40.894 6.277 50.404 1.142 9.511-12.743 40.324-12.363 42.416z" class="color3765c7 svgShape"></path><ellipse cx="725.259" cy="1196.073" fill="#a7ccf2" rx="14.95" ry="11.317" transform="rotate(-45.624 725.236 1196.023)" class="colorf2c0a7 svgShape"></ellipse><path fill="#b5d9fe" d="M730.071 1158.73c-4.905-.772-9.877-2.039-14.667-.756-.255.068-.507.146-.759.223a49.38 49.38 0 0 0-7.868 5.256c-1.271 1.036-2.502 2.176-3.429 3.538-.933 1.371-1.19 2.781-1.561 4.339-.914 3.841.532 7.61 2.113 11.074 1.617 3.545 3.416 7.275 2.965 11.144-.1.861-.312 1.734-.134 2.582.178.848.914 1.668 1.775 1.563.305-.037.592-.185.899-.189.823-.01 1.276.926 1.547 1.703.542 1.556 1.301 3.239 2.822 3.873.252.105.514.175.783.221 3.04.511 6.139-.528 8.513-2.495l6.327-5.244c1.679-1.391 2.901-3.269 3.433-5.383l.008-.033c1.226-4.872 2.283-9.908 2.7-14.919.225-2.695.308-5.397.391-8.099-1.291-3.335-3.196-6.453-5.858-8.398z" class="colorfed0b5 svgShape"></path><path fill="#ea3dcb" d="m641.989 1237.278 34.331 31.002 14.577 27.701-34.332-31.002z" class="colorea3d5b svgShape"></path><path fill="#f4f6f8" d="m644.455 1238.922 34.331 31.002 14.577 27.701-34.332-31.001z" class="colorcfdee8 svgShape"></path><path fill="#f4f6f8" d="m644.958 1238.698 34.332 31.002 14.576 27.702-34.331-31.002z" class="colore7f1f7 svgShape"></path><path fill="#f4f6f8" d="m645.462 1238.474 34.331 31.003 14.577 27.701-34.331-31.002z" class="colorcfdee8 svgShape"></path><path fill="#f4f6f8" d="m645.965 1238.251 34.332 31.002 14.576 27.701-34.331-31.002z" class="colore7f1f7 svgShape"></path><path fill="#f4f6f8" d="m646.469 1238.027 34.331 31.002 14.577 27.701-34.331-31.002z" class="colorcfdee8 svgShape"></path><path fill="#f4f6f8" d="m646.972 1237.803 34.332 31.002 14.576 27.701-34.331-31.001z" class="colore7f1f7 svgShape"></path><path fill="#a50b89" d="m689.683 1265.956 34.332 31.002-33.813.052-34.331-31.002z" class="colore22951 svgShape"></path><path fill="#ea3dcb" d="m689.881 1264.929 34.331 31.002-.197 1.027-34.332-31.002z" class="colorea3d5b svgShape"></path><path fill="#ff6ce4" d="m689.881 1264.929-.198 1.027-33.812.052-14.794-28.115.912-.615 14.576 27.701z" class="colorff6c85 svgShape"></path><path fill="#c5e2ff" d="M672.744 1281.434c-1.039.506-2.304.281-3.339-.234-1.65-.822-3.267-2.117-4.765-3.192-1.119-.804-2.644-1.949-2.151-3.503 1.27-4.001 5.271.199 6.636 1.691a23.315 23.315 0 0 1 3.619 5.238z" class="colorffdcc5 svgShape"></path><path fill="#b5d9fe" d="M716.119 1285.506c-1.279-.793-2.847-1.289-4.294-.877.15 1.644 2.112 2.654 2.321 4.292-2.958-.149-6.05-.274-8.741.963-.254.117-.52.263-.638.516-.186.4.076.857.335 1.214a31.606 31.606 0 0 0 5.658 5.981c.677.55 1.385 1.077 2.183 1.428 2.293 1.009 4.938.439 7.375-.147l3.013-.724c1.414-.34 2.574-.876 2.755-2.464.138-1.211-.204-2.698-.841-3.747-.986-1.623-3.152-2.093-4.678-3.051-1.583-.994-2.858-2.398-4.448-3.384z" class="colorfed0b5 svgShape"></path><path fill="#5046e4" d="M744.604 1246.689c-1.195-4.627-2.191-9.369-1.986-14.143.206-4.774 1.721-9.633 4.993-13.115 1.695-1.804 3.797-3.18 5.973-4.362 2.412-1.309 5.019-2.42 7.761-2.514.34-.012.717.006.964.24.209.197.273.5.326.782 2.288 12.271 3.625 24.696 4.958 37.106.672 6.252 1.342 12.587.393 18.803-.087.57-.193 1.153-.5 1.641-.295.47-.751.812-1.197 1.143l-9.465 7.027c-10.571 7.849-21.715 12.973-33.495 18.854-.52-3.615-1.28-4.355-3.187-7.47-.421-.688-.893-1.455-.72-2.242.139-.635.667-1.105 1.193-1.487 2.225-1.619 4.881-2.508 7.401-3.613 5.624-2.465 10.71-6.131 14.869-10.646 1.948-2.115 4.018-4.514 5.378-7.065 1.234-2.317.716-4.341-.049-6.746-1.284-4.041-2.548-8.082-3.61-12.193z" class="color5576db svgShape"></path><path fill="#b25ea3" d="m381.47 1016.175 126.716-73.639-32.134-9.166-126.716 73.64z" class="colorb27f5e svgShape"></path><path fill="#a05292" d="m413.55 1044.084 126.716-73.639-32.08-27.909-126.716 73.639zM349.336 1007.01l126.716-73.64 32.402-85.548-126.716 73.639z" class="colora06e52 svgShape"></path><path fill="#f4f6f8" d="m416.523 1048.934 126.715-73.639-34.765-134.009-126.716 73.639z" class="colore7f1f7 svgShape"></path><path fill="#fd54de" d="m386.296 932.423 126.716-73.639-4.539-17.498-126.716 73.639z" class="colorfd546b svgShape"></path><path fill="#c5d1dd" d="m416.523 1048.934-35.059-30.515-35.134-10.011 35.428-93.483 34.765 134.009zm-2.973-4.85-31.812-122.622-32.402 85.548 32.134 9.166 32.08 27.908" class="colorc5d4dd svgShape"></path><path fill="#a50b89" d="M496.514 852.572c0 .232.039.465.116.695.193.542.542 1.122 1.044 1.549.541.54 1.238.967 1.896 1.082 1.238.27 1.895-.502 1.547-1.664-.155-.425-.387-.888-.735-1.275a4.665 4.665 0 0 0-1.973-1.317c-.077 0-.155-.038-.232-.038-.967-.192-1.624.233-1.663.968z" class="colore22951 svgShape"></path><path fill="#564753" d="M488.971 844.913c0 2.127.928 4.486 2.321 6.42l2.128-1.237c-1.199-1.547-2.012-3.443-2.012-5.183.039-.929.271-1.664.697-2.204.658-.117 1.431.038 2.321.54 2.282 1.315 4.178 4.565 4.139 7.234 0 .425-.039.812-.155 1.16-.116.427-.31.774-.503 1.045-.426.077-.89.04-1.393-.115 0 .232.039.465.116.695.193.542.542 1.122 1.044 1.549.193-.04.348-.117.541-.195l1.199-.695c.387-.232.735-.542.967-.967.387-.62.619-1.471.619-2.476 0-3.443-2.398-7.621-5.377-9.323-1.509-.89-2.863-.967-3.83-.385l-1.238.695c-.965.54-1.546 1.778-1.584 3.442z" class="color474756 svgShape"></path><path fill="#a50b89" d="M492.197 855.044c0 .232.039.465.116.695.193.542.542 1.122 1.044 1.549.541.54 1.238.967 1.896 1.082 1.238.27 1.895-.503 1.547-1.664-.155-.425-.387-.888-.735-1.275a4.665 4.665 0 0 0-1.973-1.317c-.077 0-.155-.038-.232-.038-.967-.192-1.624.233-1.663.968z" class="colore22951 svgShape"></path><path fill="#564753" d="M484.654 847.385c0 2.127.928 4.486 2.321 6.42l2.128-1.237c-1.199-1.547-2.012-3.443-2.012-5.183.039-.929.271-1.664.696-2.204.658-.117 1.431.038 2.321.54 2.282 1.315 4.178 4.565 4.139 7.234 0 .425-.039.812-.155 1.16-.116.427-.31.774-.503 1.044-.426.078-.89.04-1.393-.115 0 .232.039.465.116.695.193.542.542 1.122 1.044 1.549.193-.04.348-.117.541-.195l1.199-.695c.387-.232.735-.542.967-.967.387-.62.619-1.471.619-2.476 0-3.443-2.398-7.622-5.377-9.323-1.509-.89-2.863-.967-3.83-.385l-1.238.695c-.964.541-1.544 1.778-1.583 3.443z" class="color474756 svgShape"></path><path fill="#a50b89" d="M472.974 866.246c0 .232.039.465.116.695.193.542.542 1.122 1.045 1.549.541.54 1.238.967 1.895 1.082 1.238.27 1.896-.503 1.547-1.664-.155-.425-.387-.888-.735-1.275a4.665 4.665 0 0 0-1.973-1.317c-.077 0-.155-.038-.232-.038-.966-.192-1.624.233-1.663.968z" class="colore22951 svgShape"></path><path fill="#564753" d="M465.431 858.587c0 2.127.928 4.486 2.321 6.42l2.128-1.237c-1.199-1.547-2.012-3.443-2.012-5.183.039-.929.271-1.664.696-2.204.658-.117 1.431.038 2.321.54 2.283 1.315 4.178 4.565 4.139 7.234 0 .425-.039.812-.155 1.16-.116.427-.31.774-.503 1.045-.426.077-.89.04-1.393-.115 0 .232.039.465.116.695.193.542.542 1.122 1.045 1.549.193-.04.348-.117.541-.195l1.199-.695c.387-.232.735-.542.967-.967.387-.62.619-1.471.619-2.476 0-3.443-2.398-7.621-5.377-9.323-1.509-.89-2.862-.967-3.83-.385l-1.238.695c-.965.54-1.545 1.778-1.584 3.442z" class="color474756 svgShape"></path><path fill="#a50b89" d="M468.658 868.718c0 .232.039.465.116.695.193.542.542 1.122 1.044 1.549.541.54 1.238.967 1.896 1.082 1.238.27 1.895-.502 1.547-1.664-.155-.425-.387-.888-.735-1.275a4.665 4.665 0 0 0-1.973-1.317c-.077 0-.155-.038-.232-.038-.967-.192-1.625.233-1.663.968z" class="colore22951 svgShape"></path><path fill="#564753" d="M461.114 861.059c0 2.127.928 4.486 2.321 6.42l2.128-1.237c-1.199-1.547-2.012-3.443-2.012-5.183.039-.929.271-1.664.697-2.204.658-.117 1.431.038 2.321.54 2.282 1.315 4.178 4.565 4.139 7.234 0 .425-.039.812-.155 1.16-.116.427-.31.774-.503 1.045-.426.077-.89.04-1.393-.115 0 .232.039.465.116.695.193.542.542 1.122 1.044 1.549.193-.04.348-.117.541-.195l1.199-.695c.387-.232.735-.542.967-.967.387-.62.619-1.471.619-2.476 0-3.443-2.398-7.621-5.377-9.323-1.509-.89-2.863-.967-3.83-.385l-1.238.695c-.965.54-1.545 1.777-1.584 3.442z" class="color474756 svgShape"></path><path fill="#a50b89" d="M449.435 879.92c0 .232.039.465.116.695.193.542.542 1.122 1.045 1.549.541.54 1.238.967 1.895 1.082 1.238.27 1.896-.502 1.547-1.664-.155-.425-.387-.888-.735-1.275a4.665 4.665 0 0 0-1.973-1.317c-.077 0-.155-.038-.232-.038-.967-.192-1.625.233-1.663.968z" class="colore22951 svgShape"></path><path fill="#564753" d="M441.891 872.261c0 2.127.928 4.486 2.321 6.42l2.128-1.237c-1.199-1.547-2.012-3.443-2.012-5.183.039-.929.271-1.664.697-2.204.658-.117 1.431.038 2.321.54 2.283 1.315 4.178 4.565 4.139 7.234 0 .425-.039.812-.155 1.16-.116.427-.31.775-.503 1.045-.426.077-.89.04-1.393-.115 0 .232.039.465.116.695.193.542.542 1.122 1.045 1.549.193-.04.348-.117.541-.195l1.199-.695c.387-.232.735-.542.967-.967.387-.62.619-1.471.619-2.476 0-3.443-2.398-7.622-5.377-9.323-1.509-.89-2.863-.967-3.83-.385l-1.238.695c-.966.541-1.546 1.778-1.585 3.442z" class="color474756 svgShape"></path><path fill="#a50b89" d="M445.118 882.392c0 .232.039.465.116.695.193.542.542 1.122 1.044 1.549.541.54 1.238.967 1.895 1.082 1.238.27 1.896-.503 1.547-1.664-.155-.425-.387-.888-.735-1.275a4.665 4.665 0 0 0-1.973-1.317c-.077 0-.155-.038-.232-.038-.966-.192-1.624.233-1.662.968z" class="colore22951 svgShape"></path><path fill="#564753" d="M437.575 874.733c0 2.127.928 4.486 2.321 6.42l2.128-1.237c-1.199-1.547-2.012-3.443-2.012-5.183.039-.929.271-1.664.697-2.204.658-.117 1.431.038 2.321.54 2.282 1.315 4.178 4.565 4.139 7.234 0 .425-.039.812-.155 1.16-.116.427-.31.774-.503 1.044-.426.078-.89.04-1.393-.115 0 .232.039.465.116.695.193.542.542 1.122 1.044 1.549.193-.04.348-.117.541-.195l1.199-.695c.387-.232.735-.542.967-.967.387-.62.619-1.471.619-2.476 0-3.443-2.398-7.622-5.377-9.323-1.509-.89-2.862-.967-3.83-.385l-1.238.695c-.966.541-1.546 1.778-1.584 3.443z" class="color474756 svgShape"></path><path fill="#a50b89" d="M425.895 893.594c0 .232.039.465.116.695.193.542.542 1.122 1.045 1.549.541.54 1.238.967 1.895 1.082 1.238.27 1.896-.502 1.547-1.664-.155-.425-.387-.888-.735-1.275a4.654 4.654 0 0 0-1.973-1.316c-.077 0-.155-.038-.232-.038-.967-.193-1.624.232-1.663.967z" class="colore22951 svgShape"></path><path fill="#564753" d="M418.352 885.935c0 2.127.928 4.486 2.321 6.42l2.128-1.237c-1.199-1.547-2.012-3.443-2.012-5.183.039-.929.271-1.664.697-2.204.658-.117 1.431.038 2.321.54 2.283 1.315 4.178 4.565 4.139 7.234 0 .425-.039.812-.155 1.16-.116.427-.31.774-.503 1.044-.426.078-.89.04-1.393-.115 0 .232.039.465.116.695.193.542.542 1.122 1.045 1.549.193-.04.348-.117.541-.195l1.199-.695c.387-.232.735-.542.967-.967.387-.62.619-1.471.619-2.476 0-3.443-2.398-7.622-5.377-9.323-1.509-.89-2.863-.967-3.83-.385l-1.238.695c-.966.542-1.547 1.779-1.585 3.443z" class="color474756 svgShape"></path><path fill="#a50b89" d="M421.578 896.066c0 .232.039.465.116.695.193.542.542 1.122 1.045 1.549.541.54 1.238.967 1.895 1.082 1.238.27 1.896-.502 1.547-1.664-.155-.425-.387-.888-.735-1.275a4.665 4.665 0 0 0-1.973-1.317c-.077 0-.155-.038-.232-.038-.967-.192-1.624.233-1.663.968z" class="colore22951 svgShape"></path><path fill="#564753" d="M414.035 888.407c0 2.127.928 4.486 2.321 6.42l2.128-1.237c-1.199-1.547-2.012-3.443-2.012-5.183.039-.929.271-1.664.697-2.204.658-.117 1.431.038 2.321.54 2.283 1.315 4.178 4.565 4.139 7.234 0 .425-.039.812-.155 1.16-.116.427-.31.774-.503 1.045-.426.077-.89.04-1.393-.115 0 .232.039.465.116.695.193.542.542 1.122 1.045 1.549.193-.04.348-.117.541-.194l1.199-.695c.387-.232.735-.542.967-.967.387-.62.619-1.471.619-2.476 0-3.443-2.398-7.622-5.377-9.323-1.509-.89-2.862-.967-3.83-.385l-1.238.695c-.966.539-1.547 1.777-1.585 3.441z" class="color474756 svgShape"></path><path fill="#a50b89" d="M402.355 907.268c0 .232.039.465.116.695.193.542.542 1.122 1.044 1.549.541.54 1.238.967 1.895 1.082 1.238.27 1.895-.502 1.547-1.664-.155-.425-.387-.888-.735-1.275a4.665 4.665 0 0 0-1.973-1.317c-.077 0-.155-.038-.232-.038-.966-.191-1.623.234-1.662.968z" class="colore22951 svgShape"></path><path fill="#564753" d="M394.812 899.609c0 2.127.928 4.486 2.321 6.42l2.128-1.237c-1.199-1.547-2.012-3.443-2.012-5.183.039-.929.271-1.664.697-2.204.658-.117 1.431.038 2.321.54 2.282 1.315 4.178 4.565 4.139 7.234 0 .425-.039.812-.155 1.16-.116.427-.31.774-.503 1.045-.426.077-.89.04-1.393-.115 0 .232.039.465.116.695.193.542.542 1.122 1.044 1.549.193-.04.348-.117.541-.195l1.199-.695c.387-.232.735-.542.967-.967.387-.62.619-1.471.619-2.476 0-3.443-2.398-7.622-5.377-9.323-1.509-.89-2.863-.967-3.83-.385l-1.238.695c-.965.541-1.545 1.778-1.584 3.442z" class="color474756 svgShape"></path><path fill="#a50b89" d="M398.038 909.74c0 .232.039.465.116.695.193.542.542 1.122 1.045 1.549.541.54 1.238.967 1.895 1.082 1.238.27 1.896-.503 1.547-1.664-.155-.425-.387-.888-.735-1.275a4.654 4.654 0 0 0-1.973-1.316c-.077 0-.155-.038-.232-.038-.966-.193-1.624.232-1.663.967z" class="colore22951 svgShape"></path><path fill="#564753" d="M390.495 902.081c0 2.127.928 4.486 2.321 6.42l2.128-1.237c-1.199-1.547-2.012-3.443-2.012-5.183.039-.929.271-1.664.697-2.204.658-.117 1.431.038 2.321.54 2.283 1.315 4.178 4.565 4.139 7.234 0 .425-.039.812-.155 1.16-.116.427-.31.774-.503 1.044-.426.077-.89.04-1.393-.115 0 .232.039.465.116.695.193.542.542 1.122 1.045 1.549.193-.04.348-.117.541-.195l1.199-.695c.387-.232.735-.542.967-.967.387-.62.619-1.471.619-2.476 0-3.443-2.398-7.621-5.377-9.323-1.509-.89-2.863-.967-3.83-.385l-1.238.695c-.966.542-1.546 1.779-1.585 3.443z" class="color474756 svgShape"></path><path fill="#1d13ab" d="M457.593 923.283c2.797 3.4 5.039 8.076 6.717 14.055s2.319 11.58 1.944 16.81c-.375 5.23-1.652 9.792-3.831 13.685-2.179 3.892-5.056 6.893-8.657 8.971-3.587 2.071-7.125 2.774-10.562 2.124-3.451-.643-6.575-2.664-9.372-6.062-2.811-3.391-5.039-8.076-6.717-14.055s-2.334-11.571-1.944-16.81c.38-5.212 1.652-9.792 3.831-13.685 2.164-3.885 5.061-6.874 8.648-8.944 3.601-2.079 7.119-2.794 10.57-2.151 3.452.642 6.581 2.681 9.373 6.062zm-1.871 34.694c.699-3.782.194-8.717-1.515-14.806-1.709-6.089-3.723-10.132-6.053-12.164-2.321-2.06-4.813-2.3-7.456-.774-2.601 1.501-4.253 4.134-4.932 7.927-.699 3.781-.199 8.698 1.509 14.787 1.709 6.089 3.728 10.15 6.058 12.183 2.316 2.04 4.779 2.298 7.38.796 2.644-1.527 4.324-4.176 5.009-7.949m35.821-68.615 2.894 10.313-18.104 10.452 2.289 10.938 3.529-2.038c6.116-3.531 11.067-4.583 14.859-3.139 3.787 1.425 6.419 4.771 7.887 10.001.949 3.382 1.145 6.86.61 10.398-.554 3.528-1.943 6.922-4.177 10.145-2.248 3.232-5.341 5.995-9.313 8.289-3.058 1.765-6.207 2.967-9.452 3.651-3.245.684-6.176.655-8.767-.059l1.212-12.131c2.09.642 4.334.771 6.738.403 2.389-.361 4.728-1.2 6.999-2.512 2.515-1.452 4.321-3.238 5.405-5.352 1.104-2.102 1.32-4.289.684-6.556-.667-2.377-1.932-3.75-3.771-4.09-1.858-.351-4.643.555-8.358 2.7l-11.102 6.41-6.525-32.544 26.463-15.279z" class="color1352ab svgShape"></path><g fill="#564753" class="color474756 svgShape"><path d="M458.996 984.352c1.186-.685 2.291-1.034 3.317-1.049 1.027-.015 1.916.284 2.662.899.748.622 1.293 1.541 1.636 2.764a9.917 9.917 0 0 1 .331 3.439c-.091 1.177-.488 2.694-1.19 4.543l-2.42 6.55 6.857-3.959 1.078 3.843-12.049 6.957-.858-3.057 4.063-10.98c.427-1.175.676-2.115.746-2.82.064-.708.021-1.339-.138-1.904-.23-.819-.621-1.32-1.179-1.505-.553-.188-1.25-.043-2.085.439a5.495 5.495 0 0 0-1.747 1.602c-.466.667-.795 1.451-.982 2.347l-3.31-.665a11.017 11.017 0 0 1 1.792-4.267 10.659 10.659 0 0 1 3.476-3.177zm43.764-22.231c1.748 1.013 3.08 3.148 3.996 6.414.648 2.311.863 4.49.655 6.531-.214 2.044-.818 3.845-1.806 5.414a11.136 11.136 0 0 1-3.9 3.735c-.851.491-1.698.84-2.538 1.044-.845.207-1.603.246-2.275.111l.392-4.255c.967.23 2.056 0 3.274-.703 1.349-.779 2.277-1.908 2.778-3.384.506-1.479.519-3.196.037-5.15-.612 1.774-1.759 3.147-3.444 4.12-1.019.588-2.021.862-3.003.82-.982-.042-1.853-.406-2.605-1.088-.758-.679-1.312-1.655-1.667-2.918a8.908 8.908 0 0 1-.207-4.042 8.943 8.943 0 0 1 1.506-3.633 8.874 8.874 0 0 1 2.832-2.603c2.234-1.289 4.222-1.422 5.975-.413zM501.487 970a3.98 3.98 0 0 0 .145-2.636c-.251-.893-.703-1.483-1.355-1.763-.652-.279-1.408-.17-2.275.33a3.897 3.897 0 0 0-1.697 1.932c-.341.829-.38 1.71-.118 2.644.26.927.716 1.531 1.364 1.796.65.273 1.389.166 2.208-.307a3.94 3.94 0 0 0 1.728-1.996M488.501 967.723l5.725 20.405-3.691 2.13-4.662-16.615-3.187 1.84-1.063-3.789zM481.084 977.275c1.028 1.249 1.852 2.968 2.468 5.164.616 2.197.852 4.254.714 6.176-.138 1.922-.607 3.598-1.408 5.029-.801 1.43-1.86 2.526-3.177 3.286-1.323.764-2.616 1.026-3.884.791-1.268-.236-2.416-.979-3.444-2.228s-1.851-2.967-2.468-5.164c-.617-2.197-.852-4.255-.714-6.177.138-1.922.607-3.598 1.408-5.028.801-1.43 1.858-2.533 3.181-3.297 1.318-.761 2.613-1.017 3.881-.78 1.267.236 2.415.979 3.443 2.228zm-.689 12.741c.257-1.39.073-3.196-.555-5.433-.628-2.237-1.37-3.729-2.226-4.476-.851-.75-1.761-.841-2.733-.281-.961.555-1.568 1.522-1.819 2.909-.257 1.39-.071 3.203.557 5.44.628 2.237 1.368 3.722 2.224 4.469.853.757 1.758.851 2.719.296.971-.561 1.583-1.531 1.833-2.924" fill="#010001" class="color000000 svgShape"></path></g><path fill="#a50b89" d="m1282.032 1258.76.067 23.737c-.026-9.07 5.949-18.153 17.909-25.057 23.763-13.719 62.296-13.726 85.916 0 11.725 6.814 17.593 15.749 17.618 24.699l-.067-23.737c-.025-8.949-5.893-17.885-17.618-24.699-23.62-13.726-62.153-13.72-85.916 0-11.96 6.905-17.935 15.988-17.909 25.057z" class="colore22951 svgShape"></path><path fill="#4037c7" d="M1299.954 1245.425c23.757-13.724 62.276-13.724 85.894 0 23.618 13.724 23.48 36.027-.277 49.751-23.757 13.724-62.298 13.724-85.917 0-23.618-13.723-23.48-36.027.3-49.751z" opacity=".5" class="color3765c7 svgShape"></path><path fill="#a50b89" d="m1271.227 1258.782.057 20.124c.03 10.548 6.947 21.081 20.766 29.112 27.806 16.159 73.21 16.159 101.198 0 14.088-8.133 21.122-18.832 21.091-29.513l-.057-20.124c.03 10.681-7.004 21.38-21.092 29.513-27.988 16.159-73.392 16.158-101.198 0-13.818-8.031-20.735-18.564-20.765-29.112z" class="colore22951 svgShape"></path><path fill="#fd54de" d="M1393.521 1229.277c27.806 16.159 27.667 42.453-.33 58.618-27.988 16.159-73.392 16.158-101.198 0-27.816-16.165-27.667-42.465.32-58.623 27.998-16.166 73.393-16.16 101.208.005zm-7.957 54.185c23.762-13.719 23.9-36.039.292-49.759-23.62-13.726-62.153-13.72-85.916 0-23.763 13.719-23.9 36.039-.28 49.766 23.608 13.719 62.142 13.713 85.904-.007" class="colorfd546b svgShape"></path><path fill="#f4f6f8" d="M1264.514 1298.137c.912-.534 2.168-.456 3.558.345 2.746 1.59 4.97 5.426 4.959 8.595-.011 1.568-.556 2.669-1.457 3.191l16.457-9.563c.901-.523 1.445-1.623 1.457-3.191.011-3.169-2.213-7.005-4.959-8.595-1.39-.801-2.646-.878-3.558-.345l-16.457 9.563z" class="colore7f1f7 svgShape"></path><path fill="#c5d1dd" d="M1268.069 1298.485c-2.754-1.59-4.991-.324-5 2.841-.009 3.157 2.213 7.005 4.968 8.596 2.748 1.586 4.984.312 4.993-2.845.008-3.165-2.214-7.005-4.961-8.592z" class="colorc5d4dd svgShape"></path><path fill="#736170" d="M1182.578 1338.86c1.604-.939 3.813-.802 6.257.606 4.83 2.796 8.741 9.543 8.721 15.116-.02 2.757-.978 4.693-2.562 5.612l79.445-45.727c1.584-.919 2.542-2.855 2.562-5.612.02-5.573-3.891-12.319-8.721-15.116-2.444-1.408-4.654-1.545-6.257-.606l-79.445 45.727z" class="color616173 svgShape"></path><path fill="#665463" d="M1188.829 1339.474c-4.844-2.797-8.777-.57-8.793 4.996-.016 5.552 3.892 12.32 8.736 15.117 4.832 2.79 8.765.548 8.781-5.004.015-5.566-3.892-12.32-8.724-15.109z" class="color545466 svgShape"></path><path fill="#564753" d="M695.309 1172.767s9.938-4.947 12.794-12.268c2.855-7.321 19.653-7.913 24.82-.901 5.168 7.012 2.295 10.151 3.534 12.765 1.665 3.512-2.121 23.177-2.624 24.059l-2.311-4.28s1.795-5.34 1.169-8.931c-.627-3.592-3.804-2.814-4.347-.344-.543 2.47-2.243 5.383-2.243 5.383s-.78-7.142-3.941-9.966c-3.161-2.824-4.91-2.202-6.65-1.859-1.742.343-18.264 3.042-20.201-3.658zm-74.954-835.426c.597 7.902-6.176 9.03-9.098 8.897-2.855-.133-12.152-1.793-12.484-1.527-.265.266-.93 3.054.996 5.71 1.926 2.656-1.128 7.571-.465 9.695l-2.855 1.462s.133-2.656-1.394-3.852c-1.594-1.128-3.453-2.325-4.25-1.329-.73.999-1.594 3.586-.863 6.443-2.793-1.931-7.637-6.774-6.973-15.405.731-9.831 4.516-15.674 7.969-17.399 3.52-1.66 8.633-5.645 22.18-2.591-.001-.001 6.64 1.994 7.237 9.896z" class="color474756 svgShape"></path></svg>