<svg xmlns="http://www.w3.org/2000/svg" xmlns:xlink="http://www.w3.org/1999/xlink" viewBox="0 0 1800 1500" id="BusinessStrategy"><defs><linearGradient id="s" x1="1000.54" x2="1549.06" y1="892.14" y2="892.14" gradientUnits="userSpaceOnUse"><stop offset="0" stop-color="#c4d6e9" class="stopColorc4cae9 svgShape"></stop><stop offset=".4" stop-color="#e2ebf4" class="stopColore2e5f4 svgShape"></stop><stop offset=".76" stop-color="#f7f9fc" class="stopColorf7f8fc svgShape"></stop><stop offset="1" stop-color="#ffffff" class="stopColorffffff svgShape"></stop></linearGradient><linearGradient id="t" x1="1121.66" x2="1510.95" y1="928.51" y2="928.51" gradientTransform="matrix(-1 0 0 1 2369.34 0)" gradientUnits="userSpaceOnUse"><stop offset=".3" stop-color="#342e94" class="stopColor362e94 svgShape"></stop><stop offset=".33" stop-color="#4740af" class="stopColor4740af svgShape"></stop><stop offset=".42" stop-color="#6f67e9" class="stopColor6b67e9 svgShape"></stop></linearGradient><linearGradient id="u" x1="996.68" x2="1242.5" y1="883.95" y2="883.95" gradientUnits="userSpaceOnUse"><stop offset="0" stop-color="#c4d6e9" class="stopColorc4cae9 svgShape"></stop><stop offset=".24" stop-color="#cadaeb" class="stopColorcad0eb svgShape"></stop><stop offset=".56" stop-color="#dde7f2" class="stopColordde0f2 svgShape"></stop><stop offset=".95" stop-color="#fafbfd" class="stopColorfafbfd svgShape"></stop><stop offset="1" stop-color="#ffffff" class="stopColorffffff svgShape"></stop></linearGradient><linearGradient id="v" x1="1505.6" x2="1020.73" y1="23.23" y2="863.05" gradientTransform="matrix(-1 0 0 1 2369.34 0)" gradientUnits="userSpaceOnUse"><stop offset=".63" stop-color="#6f67e9" class="stopColor6b67e9 svgShape"></stop><stop offset=".7" stop-color="#6f196f" class="stopColor20196f svgShape"></stop></linearGradient><linearGradient id="w" x1="1070.31" x2="1413.17" y1="274.73" y2="274.73" gradientTransform="matrix(.5 .87 .87 -.5 200.87 -348.42)" gradientUnits="userSpaceOnUse"><stop offset=".46" stop-color="#dae7f5" class="stopColordae0f5 svgShape"></stop><stop offset=".63" stop-color="#deeaf6" class="stopColordee4f6 svgShape"></stop><stop offset=".82" stop-color="#ebf2fa" class="stopColorebeefa svgShape"></stop><stop offset="1" stop-color="#ffffff" class="stopColorffffff svgShape"></stop></linearGradient><linearGradient id="a" x1="1019.82" x2="1362.69" y1="306.97" y2="306.97" gradientTransform="matrix(.5 .87 .87 -.5 200.87 -348.42)" gradientUnits="userSpaceOnUse"><stop offset=".09" stop-color="#5c55c6" class="stopColor5555c6 svgShape"></stop><stop offset=".17" stop-color="#564fbd" class="stopColor4f4fbd svgShape"></stop><stop offset=".73" stop-color="#302a82" class="stopColor2c2a82 svgShape"></stop><stop offset="1" stop-color="#6b1c6b" class="stopColor1e1c6b svgShape"></stop></linearGradient><linearGradient id="x" x1="1165.79" x2="1233.16" y1="249.21" y2="249.21" gradientTransform="matrix(.5 .87 .87 -.5 200.87 -348.42)" gradientUnits="userSpaceOnUse"><stop offset=".56" stop-color="#dae7f5" class="stopColordae0f5 svgShape"></stop><stop offset=".71" stop-color="#dde9f6" class="stopColordde3f6 svgShape"></stop><stop offset=".85" stop-color="#e7f0f9" class="stopColore7ebf9 svgShape"></stop><stop offset=".97" stop-color="#f9fbfd" class="stopColorf9fafd svgShape"></stop><stop offset="1" stop-color="#ffffff" class="stopColorffffff svgShape"></stop></linearGradient><linearGradient id="y" x1="1157.57" x2="1224.94" y1="256.11" y2="256.11" xlink:href="#a"></linearGradient><linearGradient id="b" x1="600.38" x2="716.39" y1="722.98" y2="722.98" gradientTransform="translate(42.41)" gradientUnits="userSpaceOnUse"><stop offset="0" stop-color="#c4d4e5" class="stopColorc4c9e5 svgShape"></stop><stop offset=".24" stop-color="#dde6f0" class="stopColordde0f0 svgShape"></stop><stop offset=".54" stop-color="#f6f8fb" class="stopColorf6f7fb svgShape"></stop><stop offset=".72" stop-color="#ffffff" class="stopColorffffff svgShape"></stop></linearGradient><linearGradient id="z" x1="661.48" x2="777.49" y1="758.25" y2="758.25" xlink:href="#b"></linearGradient><linearGradient id="A" x1="722.59" x2="813.16" y1="793.53" y2="793.53" xlink:href="#b"></linearGradient><linearGradient id="e" x1="1381.69" x2="1586.91" y1="1079.62" y2="1079.62" gradientUnits="userSpaceOnUse"><stop offset="0" stop-color="#c4d6e9" class="stopColorc4cae9 svgShape"></stop><stop offset="1" stop-color="#ffffff" class="stopColorffffff svgShape"></stop></linearGradient><linearGradient id="f" x1="1355.78" x2="1503.4" y1="1083.78" y2="1083.78" gradientUnits="userSpaceOnUse"><stop offset=".01" stop-color="#5a52cc" class="stopColor5652cc svgShape"></stop><stop offset=".28" stop-color="#524bc1" class="stopColor504bc1 svgShape"></stop><stop offset=".76" stop-color="#4039a5" class="stopColor4039a5 svgShape"></stop><stop offset="1" stop-color="#342e94" class="stopColor362e94 svgShape"></stop></linearGradient><linearGradient id="c" x1="1359.79" x2="1499.4" y1="1087.71" y2="1087.71" gradientUnits="userSpaceOnUse"><stop offset=".01" stop-color="#453eaf" class="stopColor423eaf svgShape"></stop><stop offset=".25" stop-color="#3f38a4" class="stopColor3c38a4 svgShape"></stop><stop offset=".68" stop-color="#2d2788" class="stopColor2d2788 svgShape"></stop><stop offset="1" stop-color="#6f196f" class="stopColor20196f svgShape"></stop></linearGradient><linearGradient id="g" x1="1436.51" x2="1499.4" y1="1065.98" y2="1065.98" gradientUnits="userSpaceOnUse"><stop offset="0" stop-color="#a5b8cc" class="stopColora5abcc svgShape"></stop><stop offset=".63" stop-color="#e1e7ee" class="stopColore1e3ee svgShape"></stop><stop offset="1" stop-color="#ffffff" class="stopColorffffff svgShape"></stop></linearGradient><linearGradient id="d" x1="1379.83" x2="1479.35" y1="998.82" y2="998.82" gradientUnits="userSpaceOnUse"><stop offset=".01" stop-color="#453eaf" class="stopColor423eaf svgShape"></stop><stop offset=".23" stop-color="#3b359b" class="stopColor39359b svgShape"></stop><stop offset=".69" stop-color="#661e66" class="stopColor211e66 svgShape"></stop><stop offset="1" stop-color="#3f0d3f" class="stopColor0f0d3f svgShape"></stop></linearGradient><linearGradient id="B" x1="1393" x2="1466.18" y1="899.26" y2="899.26" xlink:href="#c"></linearGradient><linearGradient id="C" x1="1397.62" x2="1461.56" y1="889.7" y2="889.7" xlink:href="#c"></linearGradient><linearGradient id="D" x1="1396.84" x2="1462.34" y1="861.94" y2="861.94" xlink:href="#d"></linearGradient><linearGradient id="E" x1="1065.48" x2="1076.71" y1="818.32" y2="818.32" gradientTransform="matrix(2.1 0 0 1 -809.72 0)" gradientUnits="userSpaceOnUse"><stop offset="0" stop-color="#a5b8cc" class="stopColora5abcc svgShape"></stop><stop offset=".74" stop-color="#e7ecf1" class="stopColore7e9f1 svgShape"></stop><stop offset="1" stop-color="#ffffff" class="stopColorffffff svgShape"></stop></linearGradient><linearGradient id="G" x1="427.33" x2="632.54" y1="864.9" y2="864.9" xlink:href="#e"></linearGradient><linearGradient id="H" x1="401.41" x2="549.03" y1="869.06" y2="869.06" xlink:href="#f"></linearGradient><linearGradient id="I" x1="405.42" x2="545.03" y1="872.98" y2="872.98" xlink:href="#c"></linearGradient><linearGradient id="J" x1="482.15" x2="545.03" y1="851.25" y2="851.25" xlink:href="#g"></linearGradient><linearGradient id="K" x1="425.47" x2="524.98" y1="788.79" y2="788.79" xlink:href="#d"></linearGradient><linearGradient id="L" x1="433.71" x2="516.73" y1="704.65" y2="704.65" xlink:href="#c"></linearGradient><linearGradient id="h" x1="426.11" x2="524.34" y1="710.56" y2="710.56" gradientUnits="userSpaceOnUse"><stop offset="0" stop-color="#5a52cc" class="stopColor5652cc svgShape"></stop><stop offset="1" stop-color="#342e94" class="stopColor362e94 svgShape"></stop></linearGradient><linearGradient id="M" x1="436.68" x2="486.13" y1="687.67" y2="687.67" xlink:href="#e"></linearGradient><linearGradient id="N" x1="426.12" x2="524.33" y1="690.28" y2="690.28" xlink:href="#h"></linearGradient><linearGradient id="O" x1="524.32" x2="426" y1="665.75" y2="665.75" xlink:href="#h"></linearGradient><linearGradient id="P" x1="524.32" x2="426" y1="668.9" y2="668.9" xlink:href="#h"></linearGradient><linearGradient id="Q" x1="426.08" x2="524.32" y1="683.2" y2="683.2" xlink:href="#h"></linearGradient><linearGradient id="R" x1="426.12" x2="524.32" y1="700.82" y2="700.82" xlink:href="#h"></linearGradient><linearGradient id="S" x1="470.81" x2="485.65" y1="661.08" y2="661.08" gradientUnits="userSpaceOnUse"><stop offset="0" stop-color="#ffffff" class="stopColorffffff svgShape"></stop><stop offset="1" stop-color="#dae7f5" class="stopColordae0f5 svgShape"></stop></linearGradient><linearGradient id="T" x1="600.71" x2="679.28" y1="1054.45" y2="1054.45" gradientTransform="translate(50.3)" gradientUnits="userSpaceOnUse"><stop offset="0" stop-color="#c4d6e9" class="stopColorc4cae9 svgShape"></stop><stop offset=".09" stop-color="#cedded" class="stopColorced3ed svgShape"></stop><stop offset=".41" stop-color="#e9f0f7" class="stopColore9ebf7 svgShape"></stop><stop offset=".69" stop-color="#f9fbfd" class="stopColorf9fafd svgShape"></stop><stop offset=".9" stop-color="#ffffff" class="stopColorffffff svgShape"></stop></linearGradient><linearGradient id="i" x1="1319.88" x2="1336.57" y1="1131.44" y2="1122.5" gradientTransform="matrix(.99 -.16 .16 .99 -826.45 151.9)" gradientUnits="userSpaceOnUse"><stop offset="0" stop-color="#453eaf" class="stopColor423eaf svgShape"></stop><stop offset=".49" stop-color="#312b8e" class="stopColor302b8e svgShape"></stop><stop offset="1" stop-color="#6f196f" class="stopColor20196f svgShape"></stop></linearGradient><linearGradient id="U" x1="1304.77" x2="1321.45" y1="1137.14" y2="1128.2" xlink:href="#i"></linearGradient><linearGradient id="V" x1="944.86" x2="998.52" y1="929.84" y2="929.84" gradientTransform="matrix(-1 0 0 1 1623.37 0)" gradientUnits="userSpaceOnUse"><stop offset="0" stop-color="#342e94" class="stopColor362e94 svgShape"></stop><stop offset="1" stop-color="#6f67e9" class="stopColor6b67e9 svgShape"></stop></linearGradient><linearGradient id="j" x1="1083.38" x2="1157.29" y1="1149.09" y2="1149.09" gradientTransform="translate(-228.07)" gradientUnits="userSpaceOnUse"><stop offset="0" stop-color="#c4d6e8" class="stopColorc4cae8 svgShape"></stop><stop offset=".09" stop-color="#ceddec" class="stopColorced3ec svgShape"></stop><stop offset=".41" stop-color="#e9eff6" class="stopColore9ebf6 svgShape"></stop><stop offset=".69" stop-color="#f9fbfd" class="stopColorf9fafd svgShape"></stop><stop offset=".9" stop-color="#ffffff" class="stopColorffffff svgShape"></stop></linearGradient><linearGradient id="W" x1="1007.64" x2="1081.54" y1="1129.49" y2="1129.49" gradientTransform="translate(-186.01)" xlink:href="#j"></linearGradient><linearGradient id="k" x1="-484.62" x2="-457.37" y1="1126.88" y2="1126.88" gradientTransform="matrix(-1 0 0 1 356.45 0)" gradientUnits="userSpaceOnUse"><stop offset="0" stop-color="#453eaf" class="stopColor423eaf svgShape"></stop><stop offset=".3" stop-color="#3c35a0" class="stopColor3a35a0 svgShape"></stop><stop offset=".89" stop-color="#241e77" class="stopColor241e77 svgShape"></stop><stop offset="1" stop-color="#6f196f" class="stopColor1f196f svgShape"></stop></linearGradient><linearGradient id="X" x1="-518.3" x2="-491.06" y1="1146.49" y2="1146.49" xlink:href="#k"></linearGradient><linearGradient id="l" x1="-506.47" x2="-459.64" y1="1081.4" y2="1081.4" gradientTransform="matrix(-1 0 0 1 356.45 0)" gradientUnits="userSpaceOnUse"><stop offset="0" stop-color="#453eaf" class="stopColor423eaf svgShape"></stop><stop offset=".3" stop-color="#373097" class="stopColor353097 svgShape"></stop><stop offset=".75" stop-color="#251f7a" class="stopColor251f7a svgShape"></stop><stop offset="1" stop-color="#6f196f" class="stopColor1f196f svgShape"></stop></linearGradient><linearGradient id="Y" x1="-508.28" x2="-459.36" y1="997.35" y2="997.35" gradientTransform="matrix(-1 0 0 1 356.45 0)" gradientUnits="userSpaceOnUse"><stop offset="0" stop-color="#e539c6" class="stopColore57139 svgShape"></stop><stop offset=".25" stop-color="#e942cb" class="stopColore97b42 svgShape"></stop><stop offset=".68" stop-color="#f559d9" class="stopColorf59759 svgShape"></stop><stop offset="1" stop-color="#6db6ff" class="stopColorffaf6d svgShape"></stop></linearGradient><linearGradient id="Z" x1="2769.35" x2="2725.91" y1="1014.68" y2="999.4" gradientTransform="translate(-1883.4)" gradientUnits="userSpaceOnUse"><stop offset="0" stop-color="#6db6ff" class="stopColorffaf6d svgShape"></stop><stop offset="1" stop-color="#fb4bdb" class="stopColorfb944b svgShape"></stop></linearGradient><linearGradient id="aa" x1="968.19" x2="1042.1" y1="1123.91" y2="1123.91" xlink:href="#j"></linearGradient><linearGradient id="ab" x1="892.78" x2="966.68" y1="1112.03" y2="1112.03" gradientTransform="translate(-186.01)" xlink:href="#j"></linearGradient><linearGradient id="ac" x1="-369.76" x2="-342.51" y1="1109.42" y2="1109.42" xlink:href="#k"></linearGradient><linearGradient id="ad" x1="-403.11" x2="-375.87" y1="1121.31" y2="1121.31" xlink:href="#k"></linearGradient><linearGradient id="ae" x1="-391.28" x2="-344.44" y1="1056.22" y2="1056.22" xlink:href="#l"></linearGradient><linearGradient id="m" x1="690.79" x2="714.39" y1="964.21" y2="964.21" gradientUnits="userSpaceOnUse"><stop offset="0" stop-color="#cee3f8" class="stopColorced3f8 svgShape"></stop><stop offset="1" stop-color="#bbd0e6" class="stopColorbbc0e6 svgShape"></stop></linearGradient><linearGradient id="af" x1="700.31" x2="792.43" y1="965.97" y2="965.97" gradientUnits="userSpaceOnUse"><stop offset="0" stop-color="#f6f8fb" class="stopColorf6f6fb svgShape"></stop><stop offset=".29" stop-color="#e1eaf3" class="stopColore1e3f3 svgShape"></stop><stop offset=".74" stop-color="#c5d7ea" class="stopColorc5c9ea svgShape"></stop><stop offset="1" stop-color="#bbd0e6" class="stopColorbbc0e6 svgShape"></stop></linearGradient><linearGradient id="ag" x1="715.17" x2="736.28" y1="933.95" y2="933.95" xlink:href="#m"></linearGradient><linearGradient id="ah" x1="331.59" x2="440.32" y1="1062.13" y2="1062.13" gradientUnits="userSpaceOnUse"><stop offset="0" stop-color="#c2d2e2" class="stopColorc2c7e2 svgShape"></stop><stop offset="1" stop-color="#ffffff" class="stopColorffffff svgShape"></stop></linearGradient><linearGradient id="n" x1="309.84" x2="408.53" y1="1052.79" y2="1052.79" gradientUnits="userSpaceOnUse"><stop offset="0" stop-color="#d6e2ee" class="stopColord6dcee svgShape"></stop><stop offset=".55" stop-color="#c4d4e5" class="stopColorc4cae5 svgShape"></stop><stop offset="1" stop-color="#bbcee1" class="stopColorbbc1e1 svgShape"></stop></linearGradient><linearGradient id="ai" x1="309.84" x2="408.53" y1="1062.21" y2="1062.21" gradientUnits="userSpaceOnUse"><stop offset="0" stop-color="#ff5ae1" class="stopColorff5a72 svgShape"></stop><stop offset=".39" stop-color="#de46c2" class="stopColorde4663 svgShape"></stop><stop offset=".77" stop-color="#c537ab" class="stopColorc53757 svgShape"></stop><stop offset="1" stop-color="#a50b89" class="stopColorbc3153 svgShape"></stop></linearGradient><linearGradient id="aj" x1="309.84" x2="408.53" y1="1071.63" y2="1071.63" xlink:href="#n"></linearGradient><linearGradient id="ak" x1="1110.5" x2="1220.41" y1="1179.4" y2="1179.4" gradientUnits="userSpaceOnUse"><stop offset=".45" stop-color="#c4d4e4" class="stopColorc4c9e4 svgShape"></stop><stop offset="1" stop-color="#ffffff" class="stopColorffffff svgShape"></stop></linearGradient><linearGradient id="o" x1="1085.32" x2="1192.97" y1="1188" y2="1188" gradientUnits="userSpaceOnUse"><stop offset="0" stop-color="#fc06cf" class="stopColorfcba06 svgShape"></stop><stop offset="1" stop-color="#dc00b4" class="stopColordc8b00 svgShape"></stop></linearGradient><linearGradient id="al" x1="1122.54" x2="1146.16" y1="1175.73" y2="1175.73" xlink:href="#o"></linearGradient><linearGradient id="am" x1="1163.82" x2="1193.85" y1="1157.4" y2="1171.94" gradientUnits="userSpaceOnUse"><stop offset="0" stop-color="#c4d4e4" class="stopColorc4c9e4 svgShape"></stop><stop offset="1" stop-color="#ffffff" class="stopColorffffff svgShape"></stop></linearGradient><linearGradient id="an" x1="1080.12" x2="1187.77" y1="1161.59" y2="1161.59" xlink:href="#o"></linearGradient><linearGradient id="ao" x1="1117.34" x2="1140.97" y1="1149.31" y2="1149.31" xlink:href="#o"></linearGradient><linearGradient id="ap" x1="1104.41" x2="1212.06" y1="1132.84" y2="1132.84" xlink:href="#o"></linearGradient><linearGradient id="aq" x1="1141.63" x2="1165.25" y1="1120.56" y2="1120.56" xlink:href="#o"></linearGradient><linearGradient id="p" x1="573.03" x2="692.87" y1="1180.47" y2="1180.47" gradientUnits="userSpaceOnUse"><stop offset="0" stop-color="#c6d6e7" class="stopColorc6cbe7 svgShape"></stop><stop offset=".26" stop-color="#cfddeb" class="stopColorcfd3eb svgShape"></stop><stop offset=".68" stop-color="#e8eef5" class="stopColore8eaf5 svgShape"></stop><stop offset="1" stop-color="#ffffff" class="stopColorffffff svgShape"></stop></linearGradient><linearGradient id="ar" x1="459.82" x2="579.65" y1="1180.47" y2="1180.47" xlink:href="#p"></linearGradient><linearGradient id="as" x1="458.56" x2="672.78" y1="1199.73" y2="1199.73" gradientUnits="userSpaceOnUse"><stop offset="0" stop-color="#5a52cc" class="stopColor5652cc svgShape"></stop><stop offset=".28" stop-color="#4e47b7" class="stopColor4a47b7 svgShape"></stop><stop offset=".74" stop-color="#3d379a" class="stopColor3a379a svgShape"></stop><stop offset="1" stop-color="#37318f" class="stopColor34318f svgShape"></stop></linearGradient><linearGradient id="q" x1="696.02" x2="716.65" y1="1267.57" y2="1231.85" gradientUnits="userSpaceOnUse"><stop offset="0" stop-color="#4841aa" class="stopColor4141aa svgShape"></stop><stop offset=".21" stop-color="#5049b3" class="stopColor4949b3 svgShape"></stop><stop offset=".56" stop-color="#655ecc" class="stopColor5e5ecc svgShape"></stop><stop offset="1" stop-color="#867ff4" class="stopColor7f7ff4 svgShape"></stop></linearGradient><linearGradient id="at" x1="655.21" x2="675.84" y1="1243.99" y2="1208.26" xlink:href="#p"></linearGradient><linearGradient id="au" x1="748.1" x2="782.26" y1="1294.4" y2="1274.68" xlink:href="#q"></linearGradient><linearGradient id="av" x1="1205.1" x2="1365.38" y1="1032.11" y2="1032.11" gradientUnits="userSpaceOnUse"><stop offset="0" stop-color="#c4d6e9" class="stopColorc4cae9 svgShape"></stop><stop offset=".35" stop-color="#dfe9f3" class="stopColordfe2f3 svgShape"></stop><stop offset=".75" stop-color="#f6f9fc" class="stopColorf6f7fc svgShape"></stop><stop offset="1" stop-color="#ffffff" class="stopColorffffff svgShape"></stop></linearGradient><linearGradient id="aw" x1="-1473.95" x2="-1382.41" y1="1029.75" y2="1188.3" gradientTransform="translate(2671.43 -170.05)" gradientUnits="userSpaceOnUse"><stop offset="0" stop-color="#e33cc5" class="stopColore33c5c svgShape"></stop><stop offset=".99" stop-color="#a50b89" class="stopColorbc3153 svgShape"></stop></linearGradient><linearGradient id="ax" x1="955.95" x2="1092.56" y1="1060.26" y2="1060.26" gradientUnits="userSpaceOnUse"><stop offset="0" stop-color="#c4d4e4" class="stopColorc4c9e4 svgShape"></stop><stop offset=".25" stop-color="#cedbe8" class="stopColorced2e8 svgShape"></stop><stop offset=".68" stop-color="#e7edf4" class="stopColore7e9f4 svgShape"></stop><stop offset="1" stop-color="#ffffff" class="stopColorffffff svgShape"></stop></linearGradient><linearGradient id="ay" x1="676.27" x2="744.57" y1="951.79" y2="833.5" gradientTransform="rotate(-120 910.861 898.22)" gradientUnits="userSpaceOnUse"><stop offset=".41" stop-color="#bbd0e6" class="stopColorbbc0e6 svgShape"></stop><stop offset=".41" stop-color="#bcd1e7" class="stopColorbcc1e7 svgShape"></stop><stop offset=".57" stop-color="#cee3f8" class="stopColorced3f8 svgShape"></stop></linearGradient><linearGradient id="r" x1="236.74" x2="297.65" y1="1147.93" y2="1147.93" gradientUnits="userSpaceOnUse"><stop offset="0" stop-color="#c4d4e4" class="stopColorc4c9e4 svgShape"></stop><stop offset=".19" stop-color="#d7e2ed" class="stopColord7daed svgShape"></stop><stop offset=".48" stop-color="#edf2f7" class="stopColoredeef7 svgShape"></stop><stop offset=".75" stop-color="#fafbfd" class="stopColorfafbfd svgShape"></stop><stop offset="1" stop-color="#ffffff" class="stopColorffffff svgShape"></stop></linearGradient><linearGradient id="az" x1="1326.62" x2="1435.39" y1="1287.23" y2="1287.23" xlink:href="#r"></linearGradient><radialGradient id="F" cx="1423.28" cy="807.42" r="18.05" gradientUnits="userSpaceOnUse"><stop offset="0" stop-color="#ffffff" class="stopColorffffff svgShape"></stop><stop offset=".1" stop-color="#f4f8fd" class="stopColorf4f5fd svgShape"></stop><stop offset=".41" stop-color="#d8e8f9" class="stopColord8dcf9 svgShape"></stop><stop offset=".58" stop-color="#cee3f8" class="stopColorced3f8 svgShape"></stop><stop offset=".92" stop-color="#a3b9d0" class="stopColora3a9d0 svgShape"></stop><stop offset=".94" stop-color="#a9bed4" class="stopColora9afd4 svgShape"></stop><stop offset=".96" stop-color="#bacde0" class="stopColorbac0e0 svgShape"></stop><stop offset="1" stop-color="#d6e4f3" class="stopColord6dcf3 svgShape"></stop><stop offset="1" stop-color="#dae7f5" class="stopColordae0f5 svgShape"></stop></radialGradient></defs><g style="isolation:isolate" fill="#010001" class="color000000 svgShape"><g fill="#010001" class="color000000 svgShape"><g fill="#010001" class="color000000 svgShape"><path d="M1252.89 948.87h296.17L1248.78 775.5l-240.17 137.93c-10.76 6.21-10.76 16.37 0 22.58 0 0 114.73 66.21 115.26 66.47l-17.52 6.3h28.13a53.48 53.48 0 0 0 27-7.11Z" style="mix-blend-mode:multiply" fill="url(#s)"></path><path fill="#f4f6f8" d="M980.16 770.82c10.76-6.21 28.35-6.21 39.11 0L1239.62 898c10.76 6.21 10.76 16.37 0 22.59l-113.71 65.66c-10.76 6.19-28.36 6.19-39.12 0L866.43 859.06c-10.76-6.21-10.76-16.37 0-22.58Z" class="colorf6f6fb svgShape"></path><path fill="url(#t)" d="m866.43 859.06 220.36 127.23c10.76 6.19 28.36 6.19 39.12 0l113.71-65.66c5.17-3 7.83-6.89 8-10.81v17.32c0 4.11-2.67 8.2-8.06 11.32l-113.71 65.66c-10.76 6.21-28.36 6.21-39.12 0l-220.3-127.23c-5.59-3.23-8.24-7.52-8-11.76v-16.88c.18 3.93 2.84 7.82 8 10.81Z"></path><path d="M1100.34 836.89H996.68c.46 3.7 3.1 7.31 8 10.13l121.41 70.09-.87 1.88-20.93 12.01h117.31l20.9-12Z" style="mix-blend-mode:multiply" fill="url(#u)"></path><path fill="#f4f6f8" d="M977.86 814.5a187.9 187.9 0 0 0 8.86-59.78l15.65-9c0 4 0 10.09-.53 17.77l127 73.34c0 13.41 0 53.63-24.59 94.24L962.12 849Z" class="colorced3f8 svgShape"></path><path fill="#b7bfc8" d="m986.72 754.71 142.16 82.08 15.64-9.03-142.15-82.08-15.65 9.03z" class="colorc8b7bd svgShape"></path><path fill="#bbd0e6" d="M1104.29 931c24.57-40.61 24.59-80.83 24.59-94.24l15.64-9c0 13.35 0 49.88-19.33 91.21Z" class="colorbbc0e6 svgShape"></path><path d="m1121 893.34 16.81-9.7a208.67 208.67 0 0 0 5.45-30.25l-15.81 9.13a181 181 0 0 1-6.45 30.82Z" style="mix-blend-mode:multiply" fill="#dae7f5" class="colordae0f5 svgShape"></path><path fill="#e1f0ff" d="M1317.48 878.2v73.47c0 12.43-8.81 17.5-19.56 11.29l-527-304.28c-10.75-6.2-19.55-21.45-19.55-33.87v-73.46Z" class="colore1e6ff svgShape"></path><path fill="#bbd0e6" d="M1317.49 951.67V878.2l21.2-12.2v73.46c0 6.25-2.23 10.64-5.81 12.66l-20.33 11.66c3.06-2.26 4.94-6.39 4.94-12.11Z" class="colorbbc0e6 svgShape"></path><path fill="#ffffff" d="m770.9 562.64 527.03 304.28V513.65L770.89 209.37l.01 353.27z" class="colorffffff svgShape"></path><path d="m1187.15 899 110.78 64a18.61 18.61 0 0 0 7.39 2.57c-10.27-31.53-32.71-62.26-58.75-77.3-26.57-15.4-49.48-10.04-59.42 10.73Z" style="mix-blend-mode:multiply" fill="#f1f3f6" class="colorf1f1f6 svgShape"></path><path fill="#453eaf" d="m1297.93 491.07-527-304.28c-10.75-6.21-19.54-1.13-19.55 11.29v353.27l19.55 11.29V209.37l527 304.28v353.26l19.55 11.29V525c0-12.48-8.8-27.72-19.55-33.93Z" class="color423eaf svgShape"></path><path fill="url(#v)" d="m792.1 174.55 527 304.28c10.75 6.21 19.55 21.45 19.55 33.87V866l-21.21 12.23V525c0-12.43-8.81-27.67-19.56-33.88l-527-304.28c-4.38-2.53-8.42-3.16-11.71-2.2l17-9.65c3.53-3.79 9.36-4.24 15.93-.44Z"></path><path fill="#fc06cf" d="m885.26 389.24 13.55 26.9 7.77-12.95-21.32-13.95zM885.26 514.84l13.55-11.26 7.77 21.92-21.32-10.66zM1183.56 561.46l-13.55 11.26-7.77-21.93 21.32 10.67zM1183.56 687.06l-13.55-26.9-7.77 12.95 21.32 13.95z" class="colorfcba06 svgShape"></path><path fill="#f4f6f8" d="M877.24 374.25 819 340.63v-3.29l58.24 33.62v3.29zM877.24 381.75l-62.98-36.37v-3.28l62.98 36.36v3.29zM877.24 389.24l-62.98-36.36v-3.29l62.98 36.36v3.29zM868.37 391.61l-54.11-31.24v-3.29l54.11 31.24v3.29zM833.43 336.12c0-1 .72-1.46 1.62-.94a3.6 3.6 0 0 1 1.63 2.82c0 1-.73 1.46-1.63.94a3.59 3.59 0 0 1-1.62-2.82ZM840.55 340.23c0-1 .73-1.46 1.63-.94a3.6 3.6 0 0 1 1.63 2.82c0 1-.73 1.46-1.63.94a3.6 3.6 0 0 1-1.63-2.82ZM847.68 344.35c0-1 .73-1.46 1.63-.94a3.6 3.6 0 0 1 1.63 2.82c0 1-.73 1.46-1.63.94a3.61 3.61 0 0 1-1.63-2.82ZM854.81 348.46c0-1 .73-1.46 1.63-.94a3.59 3.59 0 0 1 1.62 2.82c0 1-.72 1.46-1.62.94a3.6 3.6 0 0 1-1.63-2.82ZM877.24 505.98 819 472.36v-3.29l58.24 33.62v3.29zM877.24 513.47l-62.98-36.36v-3.29l62.98 36.36v3.29zM877.24 520.96l-62.98-36.36v-3.29l62.98 36.36v3.29zM868.37 523.34l-54.11-31.25v-3.29l54.11 31.25v3.29zM833.43 467.84c0-1 .72-1.46 1.62-.94a3.6 3.6 0 0 1 1.63 2.82c0 1-.73 1.46-1.63.94a3.59 3.59 0 0 1-1.62-2.82ZM840.55 472c0-1 .73-1.46 1.63-.94a3.6 3.6 0 0 1 1.63 2.82c0 1-.73 1.46-1.63.94a3.61 3.61 0 0 1-1.63-2.82ZM847.68 476.07c0-1 .73-1.46 1.63-.94a3.6 3.6 0 0 1 1.63 2.82c0 1-.73 1.46-1.63.94a3.6 3.6 0 0 1-1.63-2.82ZM854.81 480.19c0-1 .73-1.46 1.63-.94a3.59 3.59 0 0 1 1.62 2.82c0 1-.72 1.46-1.62.94a3.61 3.61 0 0 1-1.63-2.82ZM1254.57 592.11l-58.23-33.62v-3.29l58.23 33.62v3.29zM1254.57 599.6l-62.98-36.36v-3.29l62.98 36.36v3.29zM1254.57 607.09l-62.98-36.36v-3.29l62.98 36.36v3.29zM1245.71 609.47l-54.12-31.25v-3.29l54.12 31.25v3.29zM1210.76 554c0-1 .73-1.46 1.63-.94a3.6 3.6 0 0 1 1.63 2.82c0 1-.73 1.46-1.63.94a3.6 3.6 0 0 1-1.63-2.82ZM1217.89 558.09c0-1 .73-1.46 1.63-.94a3.6 3.6 0 0 1 1.62 2.82c0 1-.73 1.46-1.62.94a3.61 3.61 0 0 1-1.63-2.82ZM1225 562.2c0-1 .73-1.46 1.63-.94a3.6 3.6 0 0 1 1.63 2.82c0 1-.73 1.46-1.63.94a3.6 3.6 0 0 1-1.63-2.82ZM1232.14 566.32c0-1 .73-1.46 1.63-.94a3.58 3.58 0 0 1 1.63 2.82c0 1-.73 1.46-1.63.94a3.61 3.61 0 0 1-1.63-2.82ZM1254.57 723.83l-58.23-33.62v-3.29l58.23 33.62v3.29zM1254.57 731.32l-62.98-36.36v-3.29l62.98 36.36v3.29zM1254.57 738.82l-62.98-36.37v-3.29l62.98 36.37v3.29zM1245.71 741.19l-54.12-31.24v-3.29l54.12 31.24v3.29zM1210.76 685.7c0-1 .73-1.46 1.63-1a3.62 3.62 0 0 1 1.63 2.83c0 1-.73 1.46-1.63.94a3.61 3.61 0 0 1-1.63-2.77ZM1217.89 689.81c0-1 .73-1.46 1.63-.94a3.61 3.61 0 0 1 1.62 2.82c0 1-.73 1.46-1.62.94a3.6 3.6 0 0 1-1.63-2.82ZM1225 693.93c0-1 .73-1.46 1.63-.95a3.62 3.62 0 0 1 1.63 2.83c0 1-.73 1.45-1.63.94a3.61 3.61 0 0 1-1.63-2.82ZM1232.14 698c0-1 .73-1.46 1.63-.94a3.6 3.6 0 0 1 1.63 2.82c0 1-.73 1.46-1.63.94a3.6 3.6 0 0 1-1.63-2.82Z" class="colorced3f8 svgShape"></path><path d="M1059.65 729.53c-66.94-38.65-121.21-132.65-121.21-209.95s54.27-108.64 121.21-70c19.16 11.06 37.26 26.66 53.36 45.09l4.6-2.66 28.73 49.75c21.35 37.58 34.53 79.7 34.53 117.78 0 77.31-54.27 108.64-121.22 69.99Z" style="mix-blend-mode:multiply" fill="url(#w)"></path><path fill="#ffffff" d="M906.81 497.69c0 67.28 47.23 149.09 105.5 182.73s105.5 6.37 105.5-60.91-47.23-149.09-105.5-182.73-105.5-6.37-105.5 60.91Z" class="colorffffff svgShape"></path><path fill="#c6d6e7" d="M1104.53 611.84c0-58.71-41.37-130.37-92.22-159.72s-92.22-5.48-92.22 53.24 41.37 130.37 92.22 159.73 92.22 5.47 92.22-53.25Zm-7.78-5.86v2.74l5.37 3.11a96.65 96.65 0 0 1-2.73 22.58l-5.21-4.63-.62 2.29 5.2 4.61a61.68 61.68 0 0 1-8.09 17.82l-4.64-5.77-1.19 1.69 4.65 5.77a45.11 45.11 0 0 1-12.86 11.88l-3.77-6.53-1.68 1L1075 669a45 45 0 0 1-16.71 5.19l-2.68-6.9-2.06.18 2.68 6.91a62.16 62.16 0 0 1-19.48-1.91l-1.39-6.8-2.29-.62 1.4 6.83a96.56 96.56 0 0 1-20.93-8.93v-6.2l-2.37-1.37v6.2a143.55 143.55 0 0 1-20.92-15.23l1.4-5.21-2.29-2-1.39 5.19a187.21 187.21 0 0 1-19.49-20.58l2.69-3.82-2.06-2.55-2.68 3.81a215.7 215.7 0 0 1-16.71-24.5l3.77-2.17-1.68-2.91-3.81 2.19a215.61 215.61 0 0 1-12.86-26.73l4.64-.41-1.18-3.06-4.65.42a186.67 186.67 0 0 1-8.08-27.17l5.19 1.39-.61-3-5.22-1.39a144 144 0 0 1-2.73-25.74l5.38 3.11v-2.74l-5.38-3.11a97.66 97.66 0 0 1 2.73-22.58l5.22 4.63.61-2.29-5.2-4.61A61.81 61.81 0 0 1 934 462.7l4.64 5.77 1.18-1.69-4.69-5.78A45.11 45.11 0 0 1 948 449.13l3.77 6.54 1.68-1-3.77-6.54a45.13 45.13 0 0 1 16.7-5.13l2.68 6.9 2.06-.18-2.69-6.9a61.88 61.88 0 0 1 19.49 1.9l1.39 6.8 2.29.62-1.4-6.83a97 97 0 0 1 20.92 8.93v6.2l2.38 1.37v-6.2a142.93 142.93 0 0 1 20.91 15.23L1033 476l2.29 2 1.39-5.19a187.14 187.14 0 0 1 19.48 20.58l-2.68 3.82 2.06 2.56 2.68-3.82A217 217 0 0 1 1075 520.5l-3.77 2.17 1.68 2.91 3.77-2.18a217.61 217.61 0 0 1 12.86 26.72l-4.65.42 1.19 3.06 4.64-.42a186.72 186.72 0 0 1 8.09 27.17l-5.19-1.39.61 3 5.22 1.39a143 143 0 0 1 2.72 25.73Z" class="colorc6cbe7 svgShape"></path><path fill="#37318f" d="m1015.09 652.69-9.17-18.6v9.22a6.71 6.71 0 0 0 .48 2.89 5.13 5.13 0 0 0 2.21 2.16v.64l-6.14-3.55v-.59a4.13 4.13 0 0 0 1.59.47.8.8 0 0 0 .63-.54 5.72 5.72 0 0 0 .23-2v-17.93l.46.27 12.57 25.12v-13.64a4.87 4.87 0 0 0-2.41-4.54l-.44-.25v-.59l6.59 3.8v.59c-1-.58-1.73-.75-2.14-.51s-.6.94-.6 2.08v15.15l.4.79a8.58 8.58 0 0 0 1 1.73 5.47 5.47 0 0 0 1.3 1v.59ZM1006.56 484.52l-.15-7.24.57.32a13.78 13.78 0 0 0 1.95 5.46 10.18 10.18 0 0 0 3.36 3.58 2.39 2.39 0 0 0 2.21.41 1.5 1.5 0 0 0 .82-1.51 3.66 3.66 0 0 0-.29-1.43 11.18 11.18 0 0 0-1.27-2.21q-.64-.9-3-3.57a31.37 31.37 0 0 1-4.4-6 10.14 10.14 0 0 1-1.12-4.41c0-1.8.61-3 1.82-3.58s2.75-.35 4.61.72a11.22 11.22 0 0 1 1.66 1.16 27 27 0 0 1 2 1.91 5.18 5.18 0 0 0 1.08.94 1 1 0 0 0 .75.12 1 1 0 0 0 .65-.59l.51.29V477l-.51-.29a17.74 17.74 0 0 0-2.32-6.55 11.1 11.1 0 0 0-3.71-3.94 2.7 2.7 0 0 0-2.45-.45 1.72 1.72 0 0 0-.91 1.72 4.86 4.86 0 0 0 .35 1.68 10.1 10.1 0 0 0 1.06 2c.48.7 1.32 1.74 2.52 3.13a49.37 49.37 0 0 1 3.65 4.56 15.35 15.35 0 0 1 1.7 3.24 8.78 8.78 0 0 1 .6 3.1c0 1.71-.54 2.85-1.63 3.43s-2.46.38-4.11-.57a10.78 10.78 0 0 1-1.75-1.27 16.37 16.37 0 0 1-1.57-1.61 7 7 0 0 0-1.3-1.26c-.24-.14-.42-.16-.56-.07s-.27.42-.38 1Z" class="color34318f svgShape"></path><path fill="url(#a)" d="M1125.76 633.07c0-77.3-54.28-171.3-121.22-210-33.48-19.33-63.78-21.16-85.72-8.49l29.88-17.25c21.93-12.66 52.24-10.84 85.71 8.49 66.95 38.65 121.22 132.65 121.22 210 0 38.48-13.46 65.57-35.23 78.3l-30.15 17.42c21.94-12.66 35.5-39.82 35.51-78.47Z"></path><path fill="#857dfb" d="M1125.76 633.07c0-77.3-54.28-171.3-121.22-210s-121.22-7.32-121.22 70 54.27 171.3 121.22 209.95 121.22 7.36 121.22-69.95Zm-121.22 51.84C946.27 651.27 899 569.46 899 502.18s47.23-94.56 105.5-60.92S1110 556.72 1110 624s-47.19 94.55-105.46 60.91Z" class="color807dfb svgShape"></path><path fill="#5c55c6" d="M934 431.76c-17 11.83-27.2 34.47-27.2 65.93 0 67.28 47.23 149.09 105.5 182.73 26.22 15.14 50.23 17.92 70.61 9.46-.66.46-1.32.9-1.56 1-19.24 12.49-46.54 11.46-76.82-6C946.27 651.27 899 569.46 899 502.18c0-35 12.76-59.13 33.2-69.55Z" class="color5555c6 svgShape"></path><path d="M992.6 552c0 15.19 10.66 33.66 23.82 41.26s23.82 1.44 23.82-13.76-10.66-33.66-23.82-41.26-23.82-1.46-23.82 13.76Z" style="mix-blend-mode:multiply" fill="url(#x)"></path><path fill="#ff6ae4" d="m1008.97 589.31-5.54-7.06 8.88 44.36-3.34-37.3z" class="colorff826a svgShape"></path><path fill="#e33cc5" d="m1008.97 589.31 12.99.24-9.65 37.06-3.34-37.3z" class="colore33c5c svgShape"></path><path fill="url(#y)" d="M1031.24 575.18c0-15.19-10.67-33.67-23.82-41.26-6.58-3.8-12.54-4.16-16.85-1.67l4.89-2.82c4.32-2.49 10.27-2.13 16.85 1.66 13.16 7.6 23.82 26.07 23.82 41.26 0 7.6-2.67 12.94-7 15.43l-4.89 2.82c4.33-2.49 7-7.83 7-15.42Z"></path><path fill="#857dfb" d="M983.6 547.67c0 15.19 10.66 33.67 23.82 41.26s23.82 1.44 23.82-13.75-10.67-33.67-23.82-41.26-23.82-1.44-23.82 13.75Z" class="color807dfb svgShape"></path><path fill="#ff6ae4" d="m1007.45 533.81-4.85-5.94 9.71-37.28-4.86 43.22z" class="colorff826a svgShape"></path><path fill="#e33cc5" d="m1007.45 533.81 14.57 5.28-9.71-48.5-4.86 43.22z" class="colore33c5c svgShape"></path><path style="mix-blend-mode:multiply" fill="url(#b)" d="M729.33 705.96h-86.54l29.47 17.02-29.47 17.01h86.54l29.47-17.01-29.47-17.02z"></path><path fill="#5046e4" d="m613.32 644.14 29.47 17.01v78.84l-29.47-17.01v-78.84z" class="color5652cc svgShape"></path><path fill="#453eaf" d="m672.26 644.14-29.47 17.01v78.84l29.47-17.01v-78.84z" class="color423eaf svgShape"></path><path fill="#857dfb" d="m642.79 627.12-29.47 17.02 29.47 17.01 29.47-17.01-29.47-17.02z" class="color807dfb svgShape"></path><path style="mix-blend-mode:multiply" fill="url(#z)" d="M790.43 741.24h-86.54l29.47 17.01-29.47 17.02h86.54l29.47-17.02-29.47-17.01z"></path><path fill="#fc06cf" d="m674.42 696.43 29.47 17.01v61.83l-29.47-17.02v-61.82z" class="colorfcba06 svgShape"></path><path fill="#dc00b4" d="m733.36 696.43-29.47 17.01v61.83l29.47-17.02v-61.82z" class="colordc8b00 svgShape"></path><path fill="#3e9eff" d="m703.89 679.42-29.47 17.01 29.47 17.01 29.47-17.01-29.47-17.01z" class="colorffd03e svgShape"></path><path style="mix-blend-mode:multiply" fill="url(#A)" d="M826.1 776.52H765l29.47 17.01L765 810.55h61.1l29.47-17.02-29.47-17.01z"></path><path fill="#f4f6f8" d="M735.52 743.52 765 760.53v50.02l-29.48-17.02v-50.01z" class="colorced3f8 svgShape"></path><path fill="#bbd0e6" d="M794.47 743.52 765 760.53v50.02l29.47-17.02v-50.01z" class="colorbbc0e6 svgShape"></path><path fill="#f4f6f8" d="m765 726.5-29.48 17.02L765 760.53l29.47-17.01L765 726.5z" class="colorf6f6fb svgShape"></path><path d="m1578.55 1064.78-66.15-5.58a52.9 52.9 0 0 0-11.55-8.8c-13.63-7.88-31.49-11.81-49.35-11.81s-35.74 3.93-49.36 11.81-20.45 18.18-20.45 28.49 6.82 20.63 20.45 28.5 31.5 11.8 49.36 11.8a119.39 119.39 0 0 0 17.68-1.32l-2.53 2.78 20.15-7 .44-.15 1-.36a78.21 78.21 0 0 0 12.59-5.76c.45-.26.87-.53 1.3-.79 16.55-.08 41.11-.53 64.12-1 13.74-7.23 20.64-15.91 20.64-24.6.02-5.54-2.79-11.06-8.34-16.21Z" style="mix-blend-mode:multiply" fill="url(#e)"></path><path fill="url(#f)" d="M1503.4 1083.79c0-10.91-7.2-21.82-21.62-30.14s-33.3-12.48-52.19-12.48-37.78 4.16-52.19 12.48-21.62 19.23-21.62 30.13 7.21 21.82 21.62 30.14 33.3 12.48 52.19 12.48 37.78-4.16 52.19-12.48 21.62-19.23 21.62-30.13Z"></path><path fill="url(#c)" d="M1479 1092.61c-13.63 7.87-31.5 11.8-49.36 11.8s-35.72-3.93-49.36-11.8-20.44-18.18-20.44-28.5v6.89c0 10.32 6.81 20.63 20.44 28.5s31.5 11.8 49.36 11.8 35.73-3.93 49.36-11.8 20.45-18.18 20.45-28.5v-6.89c-.05 10.32-6.88 20.63-20.45 28.5Z"></path><path fill="#5046e4" d="M1499.4 1064.11c0-10.31-6.83-20.62-20.45-28.49s-31.5-11.81-49.36-11.81-35.73 3.93-49.36 11.81-20.44 18.18-20.44 28.49 6.81 20.63 20.44 28.5 31.5 11.8 49.36 11.8 35.73-3.93 49.36-11.8 20.45-18.18 20.45-28.5Z" class="color5652cc svgShape"></path><path d="M1436.51 1089.76c11.53 0 30.61-.5 48.35-1 9.68-7.23 14.54-15.91 14.54-24.6a26.7 26.7 0 0 0-5.89-16.19l-47.89-5.73Z" style="mix-blend-mode:multiply" fill="url(#g)"></path><path fill="url(#d)" d="M1476.27 1051.36c-7.6-13-21.42-113-21.42-143.76-14.13 0-25.26 9.41-25.26 9.41s-11.13-9.41-25.26-9.41c0 30.71-13.82 130.71-21.42 143.76a18.47 18.47 0 0 0-3.08 10c0 7.35 4.87 14.7 14.58 20.31s22.45 8.41 35.18 8.41 25.46-2.8 35.18-8.41 14.58-13 14.58-20.31a18.47 18.47 0 0 0-3.08-10Z"></path><path fill="url(#B)" d="M1462.3 888.05a23.73 23.73 0 0 0-7.84-6.9c-6.87-4-15.87-5.94-24.87-5.94s-18 2-24.86 5.94a23.67 23.67 0 0 0-7.85 6.9c-3.82 5.47-5.8 11.45-1.26 20.22 1.55 3.34 4.58 6.49 9.11 9.1 6.86 4 15.86 5.95 24.86 5.95s18-2 24.87-5.95c4.53-2.61 7.55-5.76 9.09-9.1 4.55-8.77 2.58-14.75-1.25-20.22Z"></path><path fill="#5046e4" d="M1464.76 895.52c0-5.19-3.44-10.39-10.3-14.36s-15.87-5.94-24.87-5.94-18 2-24.86 5.94-10.31 9.16-10.31 14.36 3.43 10.39 10.31 14.35 15.86 6 24.86 6 18-2 24.87-6 10.3-9.15 10.3-14.35Z" class="color5652cc svgShape"></path><path d="M1454.46 881.16c-6.69-3.86-15.4-5.82-24.16-5.93l-2.3 35.46c6.26.5 17.19 1.76 28.29-2 5.64-3.79 8.47-8.49 8.47-13.2 0-5.16-3.44-10.36-10.3-14.33Z" style="mix-blend-mode:multiply" fill="#c4d6e9" class="colorc4cae9 svgShape"></path><path fill="url(#C)" d="M1458.18 879.9a20.78 20.78 0 0 0-6.85-6c-6-3.46-13.87-5.19-21.73-5.19s-15.73 1.73-21.73 5.19a20.56 20.56 0 0 0-6.85 6c-3.35 4.78-5.07 10-1.11 17.67 1.35 2.92 4 5.67 7.95 8 6 3.46 13.87 5.2 21.73 5.2s15.73-1.74 21.73-5.2c4-2.29 6.6-5 8-8 3.92-7.66 2.2-12.89-1.14-17.67Z"></path><path fill="#5046e4" d="M1460.32 886.43c0-4.54-3-9.08-9-12.55s-13.87-5.19-21.73-5.19-15.73 1.73-21.73 5.19-9 8-9 12.55 3 9.08 9 12.54 13.87 5.2 21.73 5.2 15.73-1.74 21.73-5.2 9-7.97 9-12.54Z" class="color5652cc svgShape"></path><path d="m1432 883.44-3.7 16.45c5.15 1.06 9.74 1.8 14.67 2.5a36.18 36.18 0 0 0 8.38-3.42c6-3.46 9-8 9-12.54s-3-9.08-9-12.55a35.38 35.38 0 0 0-6.68-2.91l-3.87 1Z" style="mix-blend-mode:multiply" fill="#c4d6e9" class="colorc4cae9 svgShape"></path><path fill="#5046e4" d="M1462.63 821.6c0-4.89-3.23-9.76-9.68-13.49s-14.91-5.59-23.36-5.59-16.91 1.86-23.36 5.59-9.68 8.6-9.68 13.48 3.23 9.77 9.68 13.49 14.91 5.59 23.36 5.59 16.91-1.86 23.36-5.59 9.68-8.6 9.68-13.48Z" class="color5652cc svgShape"></path><path fill="url(#D)" d="M1453 835.08c-6.45 3.73-14.91 5.59-23.36 5.59s-16.91-1.86-23.36-5.59c-5.4-3.11-8.51-7-9.39-11.1l7.61 62.45c.43 3.36 2.85 6.64 7.3 9.21 4.92 2.84 11.37 4.26 17.82 4.26s12.9-1.42 17.82-4.26c4.45-2.57 6.87-5.85 7.3-9.21l7.61-62.46c-.89 4.03-4 8.03-9.35 11.11Z"></path><path d="M1423.63 818.32c0-3.1 5.26-5.61 11.76-5.61s11.77 2.51 11.77 5.61-5.27 5.61-11.77 5.61-11.76-2.51-11.76-5.61Z" style="mix-blend-mode:multiply" fill="url(#E)"></path><path fill="url(#F)" d="M1419.35 811.35a10.25 10.25 0 1 1 10.24 10.24 10.24 10.24 0 0 1-10.24-10.24Z"></path><path d="M624.18 850.05 558 844.48a52.55 52.55 0 0 0-11.54-8.81c-13.63-7.87-31.5-11.81-49.36-11.81s-35.73 3.94-49.36 11.81-20.44 18.18-20.44 28.5 6.81 20.62 20.45 28.49 31.49 11.81 49.35 11.81a119.29 119.29 0 0 0 17.68-1.32l-2.52 2.78 20.15-7 .44-.15 1-.36a77 77 0 0 0 12.6-5.76c.44-.25.86-.52 1.29-.79 16.55-.07 41.12-.52 64.13-1 13.73-7.22 20.63-15.9 20.63-24.59.04-5.56-2.76-11.07-8.32-16.23Z" style="mix-blend-mode:multiply" fill="url(#G)"></path><path fill="url(#H)" d="M549 869.06c0-10.9-7.2-21.81-21.62-30.13s-33.3-12.49-52.19-12.49-37.75 4.16-52.19 12.49-21.62 19.23-21.62 30.13 7.21 21.82 21.62 30.14 33.31 12.48 52.19 12.48 37.78-4.16 52.19-12.48S549 880 549 869.06Z"></path><path fill="url(#I)" d="M524.58 877.88c-13.63 7.87-31.5 11.81-49.36 11.81s-35.72-3.94-49.36-11.81-20.44-18.17-20.44-28.5v6.9c0 10.31 6.82 20.63 20.44 28.5s31.5 11.8 49.36 11.8 35.73-3.93 49.36-11.8S545 866.59 545 856.28v-6.89c0 10.32-6.79 20.61-20.42 28.49Z"></path><path fill="#5046e4" d="M545 849.39c0-10.32-6.82-20.62-20.45-28.5s-31.5-11.8-49.36-11.8-35.73 3.93-49.36 11.8-20.44 18.18-20.44 28.49 6.82 20.64 20.44 28.5 31.5 11.81 49.36 11.81 35.73-3.94 49.36-11.81S545 859.71 545 849.39Z" class="color5652cc svgShape"></path><path d="M482.15 875c11.52 0 30.6-.49 48.34-1 9.68-7.23 14.54-15.91 14.54-24.6a26.7 26.7 0 0 0-5.89-16.19l-47.88-5.73Z" style="mix-blend-mode:multiply" fill="url(#J)"></path><path fill="url(#K)" d="M521.9 836.64c-7.6-13-16.06-103.66-16.06-134.37H444.6c0 30.71-8.46 121.32-16.06 134.37a18.33 18.33 0 0 0-3.08 9.94c0 7.36 4.86 14.71 14.57 20.32s22.45 8.41 35.18 8.41 25.47-2.81 35.18-8.41 14.58-13 14.58-20.31a18.42 18.42 0 0 0-3.07-9.95Z"></path><path fill="url(#L)" d="M512.33 691.93a26.81 26.81 0 0 0-8.9-7.83c-7.79-4.49-18-6.74-28.21-6.74s-20.42 2.25-28.21 6.74a26.8 26.8 0 0 0-8.9 7.83c-4.34 6.21-6.58 13-1.43 22.93 1.75 3.78 5.18 7.36 10.32 10.32 7.79 4.5 18 6.75 28.21 6.75s20.42-2.25 28.21-6.75c5.14-3 8.58-6.54 10.33-10.32 5.16-9.94 2.92-16.72-1.42-22.93Z"></path><path fill="#5046e4" d="M515.12 700.4c0-5.89-3.9-11.78-11.69-16.29s-18-6.74-28.21-6.74-20.42 2.25-28.21 6.74-11.68 10.4-11.68 16.29 3.89 11.79 11.68 16.29 18 6.74 28.21 6.74 20.42-2.25 28.21-6.74 11.69-10.39 11.69-16.29Z" class="color5652cc svgShape"></path><path d="m478.31 696.52-4.79 21.36c6.68 1.37 12.63 2.33 19 3.25a47.36 47.36 0 0 0 10.88-4.44c7.79-4.5 11.69-10.39 11.69-16.29s-3.9-11.78-11.69-16.29a45.23 45.23 0 0 0-8.67-3.77l-5 1.25Z" style="mix-blend-mode:multiply" fill="#c4d6e9" class="colorc4cae9 svgShape"></path><path fill="#6f67e9" d="M440.49 672c19.18-11.08 50.28-11.08 69.46 0s19.18 29 0 40.1-50.28 11.07-69.46 0-19.18-29.02 0-40.1Z" class="color6b67e9 svgShape"></path><path fill="url(#h)" d="M524.32 692.37c-.13 7.15-4.91 14.28-14.37 19.74-19.18 11.07-50.28 11.07-69.46 0-9.45-5.46-14.24-12.59-14.37-19.74v8.06c0 7.24 4.8 14.49 14.38 20 19.19 11.07 50.28 11.07 69.46 0 9.58-5.53 14.38-12.78 14.39-20v-8.06Z"></path><path d="M474.1 676.16a46.9 46.9 0 0 1 12-4.71l-2.66-5.74h-26.39l-17.44 11.82-2.93-.29v32.39h26.41l7.29-4.21c-11.31-8.8-10.1-21.28 3.72-29.26Z" style="mix-blend-mode:multiply" fill="url(#M)"></path><path fill="#857dfb" d="M447.69 654.84a47.05 47.05 0 0 1 12-4.71l-2.66-5.74a60.24 60.24 0 0 0-16.56 6.3c-17.8 10.28-19.07 26.49-3.81 37.62l7.34-4.21c-11.35-8.8-10.14-21.28 3.69-29.26Z" class="color807dfb svgShape"></path><path fill="url(#N)" d="M426.15 670.94v21.32c.08 6.15 3.56 12.29 10.53 17.37v-21.32c-6.97-5.08-10.45-11.22-10.53-17.37Z"></path><path fill="#453eaf" d="m436.68 709.63 7.28-4.21V684.1l-7.28 4.21v21.32z" class="color423eaf svgShape"></path><path fill="url(#O)" d="M447.69 654.84c-12.45 7.19-14.64 18-6.71 26.52a28.82 28.82 0 0 1 6.71-5.2 46.69 46.69 0 0 1 12-4.71v-21.32a47.05 47.05 0 0 0-12 4.71Z"></path><path fill="#5046e4" d="M513.89 673.29v21.32l9.94 1.54v-21.32l-9.94-1.54z" class="color5652cc svgShape"></path><path fill="#857dfb" d="m513.89 673.29 9.94 1.54c2.14-8.55-2.48-17.56-13.88-24.14s-27-9.25-41.81-8l2.67 5.74c11.38-.75 23.22 1.38 31.95 6.42s12.42 11.87 11.13 18.44Z" class="color807dfb svgShape"></path><path fill="#5046e4" d="M468.14 642.68V664l2.67 5.74v-21.32l-2.67-5.74z" class="color5652cc svgShape"></path><path style="mix-blend-mode:multiply" fill="#d1e2f3" d="M468.94 647.71v18l1.87 4.03v-18.01l-1.87-4.02z" class="colord1d7f3 svgShape"></path><path fill="url(#P)" d="M502.76 654.84c-8.73-5-20.57-7.17-31.95-6.42v21.32c11.38-.75 23.22 1.38 31.95 6.42 6.48 3.75 10.18 8.48 11.13 13.36v-16.23c1.29-6.57-2.4-13.41-11.13-18.45Z"></path><path fill="url(#Q)" d="M524.32 670.26a16.9 16.9 0 0 1-.49 4.57v21.32a17 17 0 0 0 .49-4.53v-21.35Z"></path><path fill="url(#R)" d="M510 690.79c-17.81 10.28-45.88 11-65.15 2.2v21.32c19.27 8.81 47.34 8.08 65.15-2.2a33.14 33.14 0 0 0 10.91-9.56v-21.32a33.14 33.14 0 0 1-10.91 9.56Z"></path><path fill="#857dfb" d="m520.86 681.23-9.94-1.54a27 27 0 0 1-8.16 6.95c-13.83 8-35.44 8.68-50.68 2.15L444.8 693c19.27 8.81 47.34 8.08 65.15-2.2a33.14 33.14 0 0 0 10.91-9.57Z" class="color807dfb svgShape"></path><path d="m485.63 670.43-14.84-18.67v18a66.67 66.67 0 0 1 14.84.67Z" style="mix-blend-mode:multiply" fill="url(#S)"></path><path style="mix-blend-mode:multiply" fill="url(#T)" d="m729.58 1042.75-69.48.04-9.09 15.32h11.13l-4.78 8.05 72.22-.04v-23.37z"></path><path fill="#a9d2fc" d="M666.43 906.13c0 1.44 4.94 19.69 6 21.51 1.52 2.63 4.17 5.38 4.81 7.08a26.78 26.78 0 0 1 1.28 5.94c0 .88-1.14 4-2.24 3.52s.5-2 0-2.58c-.22.5-1.48 1.76-2.58 1.54s-.7-.62-.7-.62c-.59.22-1.37.22-1.58-.23-.5.17-1.32.59-1.53-.66s-.36-3.33-.88-4.13c-1.65-2.57-1.46-8.72-1.79-9.49s-6.39-16-6.91-19.16-.45-19.32 2.38-19.45 3.74 12.13 3.74 16.73Z" class="colorfcd1a9 svgShape"></path><path fill="url(#i)" d="M657.35 1042c-3.36.55-4.33 6-2.65 9.36a13.15 13.15 0 0 0 3.67 2.26s10.61 4.35 13 4.54 7.69-.7 8.12-4.78c-.41-2.48-2.5-3.16-5.07-4.69-3.34-2-6.21-4.87-8.91-6.19-2.22-1.14-8.16-.5-8.16-.5Z"></path><path fill="#a9d2fc" d="M663.79 1038.5c-1.64.27-6.9 1.57-6.9 1.57s-1.95 5.46 1.13 6.43c6 1.87 11.06-2.14 8.71-3.48-1.58-.9-3.13-1.92-2.94-4.52Z" class="colorfcd1a9 svgShape"></path><path fill="#471147" d="M671.29 1057c-2.46-.2-13.37-4.67-13.37-4.67a14.31 14.31 0 0 1-3.67-2.22 7.57 7.57 0 0 0 .45 1.18 13.15 13.15 0 0 0 3.67 2.26s10.61 4.35 13 4.54 7.69-.7 8.12-4.78a1.68 1.68 0 0 1-.06-.24c-1.14 3.38-5.89 4.13-8.14 3.93Z" class="color131147 svgShape"></path><path fill="#342e94" d="M667.74 1043.82c-.44-.59-1.47-2.16-3.3-.86a4.37 4.37 0 0 0-2.11 4.35c.22 1.35 4.15.35 4.3.14s1.11-3.63 1.11-3.63Z" class="color362e94 svgShape"></path><path fill="#ffffff" d="M669.55 1045.52A7.92 7.92 0 0 0 666 1049a1.08 1.08 0 0 1-2-.92 10.12 10.12 0 0 1 4.67-4.52 1.08 1.08 0 0 1 .84 2ZM672.86 1047.63a8 8 0 0 0-3.56 3.47 1.08 1.08 0 0 1-1.94-.93 10.06 10.06 0 0 1 4.66-4.52 1.08 1.08 0 0 1 .84 2Z" class="colorffffff svgShape"></path><path fill="#a9d2fc" d="M662.87 931.38c1.61 20 4.28 39 4.28 55 0 18.33-3.18 37.65-3.37 53 .17 4.71-5.18 8.4-7.44 4.24-.1-1.36.54-3.1.31-5.11-1.37-11.7-5.38-29.68-2-44.81-4.65-20.05-17.42-44.84-15.53-60.58 5.8-2.87 19.3-3.12 23.75-1.74ZM660.3 868.17c5.24 2.57 7.15 6.5 7.15 14.3-3.58-2.19-7.15-14.3-7.15-14.3Z" class="colorfcd1a9 svgShape"></path><path fill="#453eaf" d="M657.5 938.99v3.36l-2.91-1.68 2.91-1.68z" class="color423eaf svgShape"></path><path fill="url(#U)" d="M643.35 1050c-3.36.55-4.33 6-2.65 9.36a12.9 12.9 0 0 0 3.68 2.26s10.6 4.35 13 4.54 7.69-.7 8.12-4.77c-.41-2.49-2.5-3.17-5.07-4.7-3.34-2-6.21-4.87-8.91-6.19-2.23-1.09-8.17-.5-8.17-.5Z"></path><path fill="#a9d2fc" d="M649.79 1046.55c-1.63.27-6.9 1.57-6.9 1.57s-1.95 5.46 1.13 6.43c6 1.87 11.06-2.14 8.71-3.48-1.58-.9-3.13-1.92-2.94-4.52Z" class="colorfcd1a9 svgShape"></path><path fill="#471147" d="M657.29 1065.07c-2.45-.19-13.37-4.67-13.37-4.67a14.31 14.31 0 0 1-3.67-2.22 8.73 8.73 0 0 0 .45 1.18 12.9 12.9 0 0 0 3.68 2.26s10.6 4.35 13 4.54 7.69-.7 8.12-4.77a2.27 2.27 0 0 1-.06-.25c-1.15 3.36-5.9 4.12-8.15 3.93Z" class="color131147 svgShape"></path><path fill="#342e94" d="M653.74 1051.87c-.44-.59-1.47-2.16-3.3-.86a4.37 4.37 0 0 0-2.11 4.35c.22 1.35 4.15.35 4.3.15s1.11-3.64 1.11-3.64Z" class="color362e94 svgShape"></path><path fill="#ffffff" d="M655.55 1053.57A8 8 0 0 0 652 1057a1.08 1.08 0 0 1-2-.92 10.17 10.17 0 0 1 4.67-4.52 1.08 1.08 0 1 1 .84 2ZM658.86 1055.68a8 8 0 0 0-3.56 3.47 1.08 1.08 0 0 1-1.43.51 1.07 1.07 0 0 1-.51-1.43 10.13 10.13 0 0 1 4.66-4.53 1.08 1.08 0 0 1 .84 2Z" class="colorffffff svgShape"></path><path fill="#a9d2fc" d="M651.89 940c0 18.36.2 38.89.2 54.91 0 18.34-2.12 37.2-2.31 52.56.17 4.71-5.18 8.41-7.44 4.25-.1-1.37.54-3.11.31-5.12-1.37-11.7-5.37-29.68-2-44.81-4.64-20-11.8-41.19-7.54-61.64 5.8-2.91 14.34-1.58 18.78-.15Z" class="colorfcd1a9 svgShape"></path><path fill="url(#V)" d="M638.09 916.38c1.52-13.83-5-26.88-6.21-35.52-.75-5.46-1.3-11.84 3.64-13.38 5.1-1.58 7.16-2.32 11.59-2.21 10.65.26 15.64 2.45 17.81 9.78 2 6.91 3.49 9 5.17 15.78.75 3-7.6 9.63-6.63 22.73 7.4 11.19 12.71 36.47 15 56.34.86 6-5.23 13.67-16 19.06-13.58 6.79-29.4 7.34-35.35 1.21a7.6 7.6 0 0 1-2.24-5.12c-.03-7.05 3.97-57.19 13.22-68.67Z"></path><path fill="#a9d2fc" d="M643.32 852.3c.19-3.28 11.4 3.24 11.15 7.56-.2 3.52-.66 7.06.66 7.52 1.53 1.1 6.08 12.78 3.35 15.51-9.53-3.9-14.49-12.15-23-15.41 3.52-.71 7.24-4.57 7.84-15.18Z" class="colorfcd1a9 svgShape"></path><path fill="#a9d2fc" d="m640.62 847.76 3.37-8.44h21.39v12.87c0 7.11-4.79 12.87-10.69 12.87-5.73 0-10.37-5.43-10.64-12.24h-1.49Z" class="colorfcd1a9 svgShape"></path><path fill="#9dc7f2" d="M645.89 859.41a10.38 10.38 0 0 0 8.36 5.62 3.41 3.41 0 0 0 .54 2.12 8.16 8.16 0 0 1-1.7-.16c-3.57-.87-6.15-3.82-7.2-7.58Z" class="colorf2c39d svgShape"></path><path fill="#6f196f" d="M653.28 830.35h.2c11.67.29 12.54 9 11.9 10.45-3.7 1.32-6-1.18-8.36-1-1.12.09-5.67.71-7.55 3.12-2 2.59-1.38 6.74-3.29 6.64-.83 0-1.08-2.82-2.32-2.89a2.08 2.08 0 0 0-2 2.5c.16 2.14 2.18 3.44 1.89 4.48-.5 1.7-4.77-1.36-4.69-7.44s4.16-16.27 14.22-15.86Z" class="color20196f svgShape"></path><path fill="#a9d2fc" d="m632.61 923-2.29 5.72c-8-4.17-12.68-15.06-13.14-23.84-.62-11.83 11.64-31.83 12.28-32.78 3.1-4.62 10.47-.52 8 5.4-.53 1.2-13.08 21.84-11.74 28.82.96 4.77 2.54 13.61 6.89 16.68Z" class="colorfcd1a9 svgShape"></path><path fill="#6f196f" d="M651.81 830.37c-12.4.89-13.88 13.11-18.81 16.41-3 2-9.51-1.75-13.36 4.91-4.42 7.66 2.73 10.44-1.95 13.68s-8.29 13.13-.48 19.21 17.59.73 16.49-8.16c-.8-6.4 1.1-9.71 6.48-7.64 4 1.55 5.57-1.63 3.76-5.72 8.95.89-.44-16.19 13.08-23.25-.51-3.48-5.21-9.44-5.21-9.44Z" class="color20196f svgShape"></path><path fill="#a9d2fc" d="M632.61 923c.94.61 6.08-.61 7.29-.61a25.63 25.63 0 0 1 7.36.91c2.8.9 4.71 1.93 2.8 2.37 1 .22 3.46 1.21 1.54 1.77-.18.66-.88 1.54-3 1.47-.7.55-5.59 1.58-7.1 1.32-1.58.48-9.91.31-11.2-1.51a10 10 0 0 1 2.31-5.72Z" class="colorfcd1a9 svgShape"></path><path style="mix-blend-mode:multiply" fill="url(#j)" d="M855.31 1142.3h73.91v13.59h-73.91z"></path><path style="mix-blend-mode:multiply" fill="url(#W)" d="M821.63 1122.7h73.9v13.58h-73.9z"></path><path fill="url(#k)" d="M813.83 1132.09c0-10.67 6.76-11 6.76-11s3.66 0 9.61-2.47 14.15-1.49 9.52 7a1.84 1.84 0 0 1-.16.31 4.21 4.21 0 0 1-1.49 1.32l-14.78 8.75c-2.29 1.26-9.41-1.71-9.46-3.91Z"></path><path fill="#471047" d="M813.87 1131.14c.13 2.19 7.18 5.1 9.42 3.83l14.78-8.67a14.57 14.57 0 0 0 2.08-1.51c-.14.29-.26.57-.43.89a1.84 1.84 0 0 1-.16.31 4.21 4.21 0 0 1-1.49 1.32l-14.78 8.69c-2.11 1.2-8.52-1.33-9.37-3.47a2.72 2.72 0 0 1-.07-.43 7.3 7.3 0 0 1 .02-.96Z" class="color121047 svgShape"></path><path fill="#ffffff" d="M816.58 1119.71c1.74 0 7.87 1.56 7.87 1.56a3.4 3.4 0 0 0 .55 1.59 1.93 1.93 0 0 1 .17.21c1.21.84 2.44 2.16-.43 4a4 4 0 0 1-5.17-.37 4.65 4.65 0 0 0-1.67-1.89 4.19 4.19 0 0 0-1.59-.68 1.13 1.13 0 0 0 0-.14s-.46-4.28.27-4.28Z" class="colorffffff svgShape"></path><path fill="#471147" d="m816.47 1015.37 30.06.54c-2.53 20.09-7.53 38.32-10.83 57.77-3.59 18.91-7.63 32.19-11.16 47.92-1.29 2.93-7.2 1.82-8.4-1-.93-14.48-2-32.13 2.29-48.85-.72-18.02-2.38-38.19-1.96-56.38Z" class="color131147 svgShape"></path><path fill="url(#X)" d="M847.52 1151.7c0-10.67 6.76-11 6.76-11s3.66 0 9.61-2.47 14.14-1.5 9.52 7c0 .11-.1.21-.16.32a4.24 4.24 0 0 1-1.5 1.31l-14.75 8.72c-2.28 1.29-9.43-1.68-9.48-3.88Z"></path><path fill="#471047" d="M847.55 1150.74c.13 2.19 7.19 5.11 9.42 3.83l14.78-8.66a13.51 13.51 0 0 0 2.08-1.52c-.14.29-.25.58-.42.89 0 .11-.1.21-.16.32a4.24 4.24 0 0 1-1.5 1.31l-14.75 8.67c-2.1 1.21-8.52-1.33-9.36-3.45a2.08 2.08 0 0 1-.07-.44c-.05-.33-.03-.62-.02-.95Z" class="color121047 svgShape"></path><path fill="#ffffff" d="M850.26 1139.31c1.74 0 7.88 1.56 7.88 1.56a3.46 3.46 0 0 0 .54 1.59l.17.21c1.21.84 2.45 2.17-.43 4a4 4 0 0 1-5.16-.36 4.82 4.82 0 0 0-1.67-1.9 4.14 4.14 0 0 0-1.6-.67s0-.14 0-.14-.46-4.29.27-4.29Z" class="colorffffff svgShape"></path><path fill="url(#l)" d="M837.67 1063.12c-1.83-8.63-22.9-9.7-21.51-43.65 6.61-1 40 14.67 46.56 13.7.83 20.21-1.12 39-1.25 58.76-.45 19.24-2.27 33-3.18 49.1-.79 3.11-6.8 3-8.45.39-3.28-14.14-7.23-31.38-5.72-48.57-1.97-9.52-4.31-19.61-6.45-29.73Z"></path><path fill="#e539c6" d="M831.4 953.55c-23.52 15.72-26.33 46.94-13.61 66.75 0 0-2.73-43.9 13.61-66.75Z" class="colore57139 svgShape"></path><path fill="url(#Y)" d="M830.33 1038.72c14.32 8 29.3 8 34.41-1.83-1.92-18.39-3.71-33.36 0-51-1.08-9.73-1.85-11.2-.61-16.88-.44-1.9-6.3-6-10.56-9.86-4.61-4.21-7.73-8.21-10.1-8.7-19.58-4-29.09 30.89-27.45 68.09 1.49 9.91 7.26 16.22 14.31 20.18Z"></path><path fill="#a9d2fc" d="M832.59 952.69c4.25-3.08 3.91-9.42 3.55-13.63a20.65 20.65 0 0 1-.79-7.28c.62-9.28 7.08-16.91 14.29-15.92 14.53 2 11.41 9.5 10.79 18.78-.59 8.6-4.89 14.25-11.47 14.81-.1 1.41.48 5.71 2.26 7.49-4.78 2.86-11.76 1.52-14.52.27-2.93-1.33-6.1-2.46-4.11-4.52Z" class="colorfcd1a9 svgShape"></path><path fill="#6f196f" d="M855.44 911.33c-.34-1.16-2.56-1.92-10.11 1l-2 .76c-14 6-10.6 22.16-8.51 26.44a8.65 8.65 0 0 1 1.1 5.07c5.49-.23 7.23 2.86 10.75-.22 2.52-2.2 6.3-4.79 6.93-5.87a4.3 4.3 0 0 0 .51-2.66c0-7.72 3.58-3 3.47-1.23 1.46-.72 1.36-3.82 1.27-7.27 11.91-8.86 5.54-14.96-3.41-16.02Z" class="color20196f svgShape"></path><path fill="#a9d2fc" d="M863 1043.69a4.83 4.83 0 0 1-7.09.24c-2.31-2.44-1-5.15-2.25-6-3.47-2.22-4.27-4.32-3.68-6.42 2.77 1.76 5.63 4.59 8 2.87s5.58-4.08 5.75-6.52c3.6.82 3.79 8.64 1.91 11.77a32.36 32.36 0 0 1-2.64 4.06Z" class="colorfcd1a9 svgShape"></path><path fill="url(#Z)" d="M858.16 1037.55c-1.79 4.37-.53 7 3.85 7.54 10.93-5.59 17.29-21.29 17.47-29.91.31-14.38-6.67-32.43-15.54-46.59-2.06-3-8.71-1.89-12 2.43-4.43 5.84-2.53 14.34 0 17.8 6.43 10.26 13.59 17.91 14.29 26.13.63 7.62-2.47 17.65-8.07 22.6Z"></path><path style="mix-blend-mode:multiply" fill="url(#aa)" d="M740.12 1117.12h73.91v13.59h-73.91z"></path><path style="mix-blend-mode:multiply" fill="url(#ab)" d="M706.77 1105.24h73.9v13.58h-73.9z"></path><path fill="url(#ac)" d="M699 1114.63c0-10.67 6.76-11 6.76-11s3.66 0 9.61-2.47 14.15-1.49 9.52 7a1.59 1.59 0 0 1-.16.32 4.12 4.12 0 0 1-1.49 1.32l-14.78 8.66c-2.29 1.34-9.46-1.63-9.46-3.83Z"></path><path fill="#471047" d="M699 1113.67c.13 2.19 7.19 5.11 9.42 3.83l14.78-8.66a14 14 0 0 0 2.08-1.52c-.14.29-.26.58-.43.89a1.59 1.59 0 0 1-.16.32 4.12 4.12 0 0 1-1.49 1.32l-14.78 8.66c-2.11 1.21-8.52-1.32-9.37-3.46a2.59 2.59 0 0 1-.06-.43 6 6 0 0 1 .01-.95Z" class="color121047 svgShape"></path><path fill="#ffffff" d="M701.72 1102.25c1.74 0 7.87 1.56 7.87 1.56a3.35 3.35 0 0 0 .55 1.58l.17.21c1.21.84 2.44 2.17-.43 4a4 4 0 0 1-5.17-.36 4.79 4.79 0 0 0-1.66-1.9 4.38 4.38 0 0 0-1.6-.67v-.15s-.45-4.27.27-4.27Z" class="colorffffff svgShape"></path><path fill="#471147" d="m701.61 997.9 30.06.54c-2.49 20.09-7.49 38.33-10.83 57.78-3.59 18.9-7.63 32.19-11.16 47.92-1.29 2.93-7.2 1.82-8.4-1-.93-14.49-2-32.14 2.29-48.85-.72-18.02-2.38-38.19-1.96-56.39Z" class="color131147 svgShape"></path><path fill="url(#ad)" d="M732.32 1126.52c0-10.67 6.76-11 6.76-11s3.66 0 9.62-2.47 14.14-1.49 9.51 7a2.39 2.39 0 0 1-.16.32 4.07 4.07 0 0 1-1.5 1.31l-14.77 8.67c-2.26 1.34-9.41-1.63-9.46-3.83Z"></path><path fill="#471047" d="M732.36 1125.56c.13 2.19 7.19 5.11 9.42 3.83l14.77-8.66a14 14 0 0 0 2.09-1.52c-.14.29-.25.58-.43.89a2.39 2.39 0 0 1-.16.32 4.07 4.07 0 0 1-1.5 1.31l-14.77 8.67c-2.11 1.21-8.52-1.33-9.37-3.45a2 2 0 0 1-.06-.44 6 6 0 0 1 .01-.95Z" class="color121047 svgShape"></path><path fill="#ffffff" d="M735.07 1114.13c1.74 0 7.87 1.56 7.87 1.56a3.4 3.4 0 0 0 .55 1.59l.17.21c1.21.84 2.44 2.17-.43 4a4 4 0 0 1-5.17-.36 4.79 4.79 0 0 0-1.66-1.9 4.2 4.2 0 0 0-1.6-.67 1.13 1.13 0 0 0 0-.14s-.46-4.29.27-4.29Z" class="colorffffff svgShape"></path><path fill="url(#ae)" d="M722.47 1038c-1.82-8.64-22.89-9.71-21.51-43.66 6.61-1 40 14.67 46.57 13.7.82 20.22-1.13 39-1.25 58.77-.45 19.23-2.27 33-3.18 49.09-.8 3.11-6.81 3-8.45.39-3.29-14.14-7.23-31.38-5.72-48.57-1.93-9.57-4.32-19.66-6.46-29.72Z"></path><path fill="url(#m)" d="M714.39 931.75c-15.34 10.6-22.65 24.25-23.39 30.78-1.21 10.37 3.56 17.31 10.71 34.15 0 0 .26-11.16.34-15.34-.77-2.57-3-10.52-2.4-14.63.55-3.61 11.16-11.56 12.49-15.45 3.23-9.53-2.76-12.5 2.25-19.51Z"></path><path fill="#a9d2fc" d="M789.94 913c1.14-2.28 2.28-3.37 3.35-3.32l1.41-1.37c2.73-2.61 7.66-3.56 8-2.42.23.68-2.28 1.18-4 2.21a6.05 6.05 0 0 0-2 2s4.06 2.53 2.29 6.08c-1.44 2.88-2.43 1-2.14.39-2.56 2.37-3 0-4.7 2.12l-3.59-4.35s.55-.55 1.38-1.34Z" class="colorfcd1a9 svgShape"></path><path fill="url(#af)" d="M788 914.36c-1.44.7-16.32 14-21.77 17.93-5.64 1.78-13.87 4.47-18.15 5.53-3.2.28-5 .25-10.76-2.83s-12-4-14.36-4.44c-19.58-4-24 32.4-22.37 69.6 2.76 9.15 7 10.86 15.28 14.15 7 2.75 28.15 6.9 33.64-2.59-1.89-18.2-5.41-38.45-1.91-56 8.37-4.22 18.57-6.41 26-12.56 11.28-9.4 16.53-20.74 18.63-23.74.77-1.12-.85-5.51-4.23-5.05Z"></path><path fill="#bbd0e6" d="M773.59 943.19c-1.89 1.44-20.07 7.79-27.72 9.23s-3.9 3.42-3.26 7.7c.86 5.85 1.79 30.29 5.73 41-1.78-15.22-3.54-31.17-.71-45.33 8.37-4.26 18.57-6.45 25.96-12.6Z" class="colorbbc0e6 svgShape"></path><path fill="#a9d2fc" d="M716.05 931.08c4.38-3.17 3.73-5.24 3.08-9.55a21.32 21.32 0 0 1-1.32-7.43c0-9.6 6.1-17.89 13.59-17.37 15.1 1 12.41 9 12.41 18.57 0 8.88-4 15-10.77 16 0 1.46 1.4 2.36 3.24 3.12-4.93 2.95-12.32 3.43-15.61 2.15-3.1-1.18-6.67-3.37-4.62-5.49Z" class="colorfcd1a9 svgShape"></path><path fill="#471147" d="M719.79 896.1c2.63-2.53 5.69-.1 7.22-.89l.82-.4c2-1.19 1-2.07 2.89-3.17s3.6.42 4.79 0c2.81-.88 5.36-1.24 6.47-.21a7.72 7.72 0 0 1 1.44 1.9c1 1.59 4.23-.45 4 3-.19 3.22-1.39 4.3-1.9 9.22 0 .28 0 .57-.07.85a1 1 0 0 0 0 .16c-.39 3.19-1.41 4-3 5.66s-1.52.08-1.6-.54c-.15-1.17-.48-2.22-1.18-2.17s-2.11.4-2.84 3.49c-.52 2.23 1 1.74.85 2.35-2 9.08-5.41 8.4-9.26 9.49a11.77 11.77 0 0 1-9.09-.91c-.93-3.48-1.29-5.52-1.74-7.15a28.14 28.14 0 0 1 0-9.86c1.07-4.27-.37-8.34 2.2-10.82Z" class="color131147 svgShape"></path><path fill="url(#ag)" d="M736.28 934.45a1.84 1.84 0 0 0-2.52-1.5c-5 2.26-11.26 2.23-15.25 0a2.44 2.44 0 0 1-1.53-2.63 1.56 1.56 0 0 0-1.67 1.2c-.16.48-.55 2.06 1.53 3.54s9.32 5.09 19.44-.61Z"></path><path d="M425.76 1041.91c-10.31-6-24-8.69-37.47-8.29h-31.21v3.46a56 56 0 0 0-11.17 4.83c-19.19 11.16-19.08 29.25.23 40.41a56.19 56.19 0 0 0 10.94 4.74v3.61h35.41c12.17-.2 24.24-3 33.5-8.34 19.19-11.17 19.1-29.26-.23-40.42Z" style="mix-blend-mode:multiply" fill="url(#ah)"></path><path fill="url(#n)" d="M324.4 1063.49c-9.72-5.61-14.58-13-14.56-20.34l.05-9.43c0 7.37 4.83 14.74 14.56 20.35 19.32 11.15 50.54 11.15 69.74 0 9.54-5.55 14.31-12.8 14.34-20.07v9.42c0 7.27-4.79 14.52-14.33 20.07-19.2 11.16-50.47 11.16-69.8 0Z"></path><path fill="url(#ai)" d="M324.4 1072.91c-9.72-5.61-14.58-13-14.56-20.34l.05-9.43c0 7.37 4.83 14.74 14.56 20.35 19.32 11.16 50.54 11.16 69.74 0 9.54-5.55 14.31-12.8 14.34-20.07v9.42c0 7.27-4.79 14.52-14.33 20.06-19.2 11.17-50.47 11.17-69.8.01Z"></path><path fill="url(#aj)" d="M324.4 1082.33c-9.72-5.62-14.58-13-14.56-20.34l.05-9.43c0 7.37 4.83 14.74 14.56 20.35 19.32 11.16 50.54 11.16 69.74 0 9.54-5.55 14.31-12.8 14.34-20.07v9.42c0 7.27-4.79 14.52-14.33 20.07-19.2 11.17-50.47 11.17-69.8 0Z"></path><path fill="#f1f3f6" d="M324.45 1054.07c-19.33-11.15-19.43-29.25-.24-40.4s50.44-11.16 69.75 0 19.42 29.25.23 40.41-50.42 11.14-69.74-.01Z" class="colorf1f1f6 svgShape"></path><path fill="#d1e2f3" d="m352.13 1039-15.43-2.77 13.19-5.39-.21-9.32 12.95 5.57 15.3-2.99-5.19 8.83 9.66 7.48-16.15-.12-9.33 7.61-4.79-8.9z" class="colord1d7f3 svgShape"></path><path d="M1204.18 1156.88c-11.49-6.63-26.76-9.69-41.76-9.24h-23.52v3.86a62.61 62.61 0 0 0-12.44 5.38c-21.39 12.44-21.26 32.59.26 45a63.71 63.71 0 0 0 12.18 5.28v4h28.21c13.56-.22 27-3.3 37.33-9.3 21.39-12.39 21.28-32.54-.26-44.98Z" style="mix-blend-mode:multiply" fill="url(#ak)"></path><path fill="#4ca5ff" d="M1085.32 1164.8c0-8 5.26-15.91 15.76-22s24.29-9.1 38.07-9.1 27.54 3 38 9.1 15.77 14 15.77 22-5.25 15.9-15.77 22-24.27 9.1-38 9.1-27.55-3-38.06-9.1-15.77-14.05-15.77-22Z" class="colorffe54c svgShape"></path><path fill="url(#o)" d="M1177.2 1186.77c-10.5 6.07-24.27 9.1-38 9.1s-27.55-3-38.06-9.1-15.77-14-15.77-22v15.33c0 8 5.26 15.91 15.77 22s24.29 9.1 38.06 9.1 27.55-3 38-9.09 15.78-14 15.77-22v-15.31c.03 7.95-5.25 15.9-15.77 21.97Z"></path><path fill="#3e9eff" d="M1108.24 1182.64c8.53 4.93 19.73 7.39 30.91 7.39s22.37-2.46 30.91-7.38c7.87-4.55 12.11-10.41 12.71-16.36-.6-6-4.84-11.8-12.71-16.34-8.54-4.93-19.73-7.4-30.91-7.4s-22.38 2.47-30.92 7.4c-7.87 4.54-12.1 10.39-12.71 16.34.61 5.95 4.84 11.81 12.72 16.35Z" class="colorffd03e svgShape"></path><path fill="#e100b8" d="M1108.23 1150c8.54-4.93 19.73-7.4 30.92-7.4s22.37 2.47 30.91 7.4c7.87 4.54 12.11 10.39 12.71 16.34a14.71 14.71 0 0 0 .09-1.49c0-6.46-4.27-12.92-12.8-17.85s-19.73-7.39-30.91-7.39-22.38 2.46-30.92 7.39-12.8 11.39-12.8 17.85a14.89 14.89 0 0 0 .09 1.49c.61-6 4.84-11.85 12.71-16.34Z" class="colore19100 svgShape"></path><path fill="#e100b8" d="m1160.68 1158.37 4.14-2.38V1153l-4.14 2.39v2.98z" class="colore19100 svgShape"></path><path fill="#4ca5ff" d="M1141.61 1163.37a4 4 0 0 1-2.39-3.33c0-1.26.85-2.44 2.39-3.33a12.77 12.77 0 0 1 11.55 0c3.18 1.83 3.18 4.83 0 6.67l5.24 3c5.16-3 5.92-7.56 2.28-11l4.14-2.39-5.24-3-4.13 2.38c-6-2.09-13.91-1.66-19.08 1.33-2.94 1.7-4.56 4-4.56 6.35s1.62 4.66 4.56 6.36c3.19 1.84 3.19 4.83 0 6.67a12.81 12.81 0 0 1-11.54 0c-3.19-1.84-3.19-4.83 0-6.67l-5.24-3c-5.17 3-5.92 7.55-2.29 11l-3.82 2.2 5.24 3 3.82-2.2c6 2.1 13.9 1.66 19.07-1.32 6.07-3.5 6.07-9.21 0-12.72Z" class="colorffe54c svgShape"></path><path fill="#fc06cf" d="m1113.48 1179.58 5.24 3.03v-3l-5.24-3.02v2.99z" class="colorfcba06 svgShape"></path><path fill="#e100b8" d="m1118.72 1182.61 3.82-2.21v-2.99l-3.82 2.2v3z" class="colore19100 svgShape"></path><path fill="#fc06cf" d="m1153.16 1166.37 5.24 3.02v-2.99l-5.24-3.02v2.99z" class="colorfcba06 svgShape"></path><path fill="#e100b8" d="M1124.83 1169.39v-3c-2.26 1.31-2.91 3.19-2 4.83a5.16 5.16 0 0 1 2-1.83Z" class="colore19100 svgShape"></path><path fill="#fc06cf" d="M1115.05 1169.58v3.42a5.84 5.84 0 0 0 .65 2.35l1.59-.91a6.41 6.41 0 0 1-2.24-4.8ZM1136.37 1169.39a5.16 5.16 0 0 1 2 1.84c1-1.64.3-3.53-2-4.83-2.94-1.7-4.56-4-4.56-6.36v3c0 2.4 1.62 4.65 4.56 6.35Z" class="colorfcba06 svgShape"></path><path fill="#fb05ce" d="M1146.16 1169.72v-.06Z" class="colorfbba05 svgShape"></path><path fill="#e100b8" d="M1162.93 1160c0 2.3-1.5 4.61-4.53 6.36v3c3.11-1.8 4.61-4.17 4.52-6.53V1160Z" class="colore19100 svgShape"></path><path fill="url(#al)" d="M1141.61 1176.09c-5.17 3-13.09 3.42-19.07 1.32v3c6 2.09 13.9 1.65 19.07-1.33 3-1.74 4.53-4 4.55-6.3v-3c0 2.22-1.52 4.56-4.55 6.31Z"></path><path fill="#e100b8" d="M1153.16 1156.71a12.77 12.77 0 0 0-11.55 0c-1.54.89-2.39 2.07-2.39 3.33a3 3 0 0 0 .42 1.5 5.35 5.35 0 0 1 2-1.84 12.84 12.84 0 0 1 11.55 0 5.16 5.16 0 0 1 2 1.84c.87-1.64.22-3.54-2.03-4.83Z" class="colore19100 svgShape"></path><path d="M1196.78 1130.47c-11.49-6.63-26.76-9.69-41.76-9.24h-23.52v3.85a63.22 63.22 0 0 0-12.44 5.39c-21.38 12.44-21.26 32.59.26 45a63.09 63.09 0 0 0 12.18 5.28v4h28.21c13.56-.23 27-3.31 37.33-9.31 21.39-12.38 21.28-32.53-.26-44.97Z" style="mix-blend-mode:multiply" fill="url(#am)"></path><path fill="#4ca5ff" d="M1080.12 1138.38c0-8 5.26-15.91 15.76-22s24.29-9.11 38.07-9.11 27.54 3 38 9.11 15.77 14 15.77 22-5.25 15.9-15.77 22-24.27 9.11-38 9.11-27.55-3-38.06-9.11-15.76-14.05-15.77-22Z" class="colorffe54c svgShape"></path><path fill="url(#an)" d="M1172 1160.35c-10.5 6.07-24.27 9.11-38 9.11s-27.55-3-38.06-9.11-15.76-14-15.77-22v15.34c0 8 5.26 15.9 15.77 22s24.29 9.11 38.06 9.11 27.55-3 38-9.1 15.78-14 15.77-22v-15.34c.01 7.97-5.25 15.92-15.77 21.99Z"></path><path fill="#3e9eff" d="M1103 1156.23c8.54 4.92 19.73 7.39 30.91 7.39s22.37-2.47 30.91-7.39c7.87-4.55 12.11-10.4 12.71-16.35-.6-6-4.84-11.81-12.71-16.35-8.54-4.93-19.72-7.4-30.91-7.39s-22.37 2.46-30.91 7.39c-7.88 4.54-12.11 10.39-12.72 16.34.65 5.96 4.88 11.81 12.72 16.36Z" class="colorffd03e svgShape"></path><path fill="#e100b8" d="M1103 1123.53c8.54-4.93 19.72-7.4 30.91-7.39s22.37 2.46 30.91 7.39c7.87 4.54 12.11 10.39 12.71 16.35a12.58 12.58 0 0 0 .09-1.5c0-6.46-4.27-12.92-12.8-17.84s-19.72-7.4-30.91-7.4-22.37 2.47-30.91 7.4-12.8 11.38-12.8 17.84a14.72 14.72 0 0 0 .08 1.49c.65-5.95 4.88-11.8 12.72-16.34Z" class="colore19100 svgShape"></path><path fill="#e100b8" d="m1155.48 1131.96 4.14-2.38v-3l-4.14 2.39v2.99z" class="colore19100 svgShape"></path><path fill="#4ca5ff" d="M1136.41 1137c-1.54-.89-2.39-2.08-2.39-3.33a4.07 4.07 0 0 1 2.39-3.34 12.77 12.77 0 0 1 11.55 0c3.18 1.84 3.18 4.83 0 6.67l5.23 3c5.17-3 5.93-7.55 2.29-11l4.14-2.39-5.24-3-4.13 2.39c-6-2.1-13.91-1.66-19.08 1.32-2.94 1.7-4.56 4-4.56 6.36s1.62 4.65 4.56 6.35c3.19 1.84 3.19 4.83 0 6.67a12.75 12.75 0 0 1-11.54 0c-3.19-1.84-3.19-4.83 0-6.67l-5.24-3c-5.17 3-5.92 7.56-2.29 11l-3.81 2.2 5.23 3 3.82-2.21c6 2.1 13.9 1.67 19.07-1.32 6.07-3.53 6.07-9.23 0-12.7Z" class="colorffe54c svgShape"></path><path fill="#fc06cf" d="m1108.29 1153.16 5.24 3.03v-2.99l-5.24-3.03v2.99z" class="colorfcba06 svgShape"></path><path fill="#e100b8" d="m1113.53 1156.19 3.81-2.2v-3l-3.81 2.21v2.99z" class="colore19100 svgShape"></path><path fill="#fc06cf" d="m1147.96 1139.95 5.23 3.03v-3l-5.23-3.02v2.99z" class="colorfcba06 svgShape"></path><path fill="#e100b8" d="M1119.63 1143v-3c-2.26 1.31-2.91 3.19-2 4.83a5.14 5.14 0 0 1 2-1.83Z" class="colore19100 svgShape"></path><path fill="#fc06cf" d="M1109.85 1143.16v3.37a5.85 5.85 0 0 0 .65 2.36l1.59-.92a6.43 6.43 0 0 1-2.24-4.8ZM1131.17 1143a5.16 5.16 0 0 1 2 1.84c.95-1.64.3-3.52-2-4.83-2.94-1.7-4.56-4-4.56-6.35v3c0 2.34 1.62 4.62 4.56 6.34Z" class="colorfcba06 svgShape"></path><path fill="#fb05ce" d="M1141 1143.3v-.06.06Z" class="colorfbba05 svgShape"></path><path fill="#e100b8" d="M1157.73 1133.62c0 2.3-1.5 4.61-4.54 6.36v3c3.12-1.81 4.62-4.18 4.53-6.54v-2.82Z" class="colore19100 svgShape"></path><path fill="url(#ao)" d="M1136.41 1149.67c-5.17 3-13.09 3.42-19.07 1.32v3c6 2.09 13.9 1.66 19.07-1.32 3-1.74 4.53-4 4.55-6.31v-3c.04 2.27-1.52 4.57-4.55 6.31Z"></path><path fill="#e100b8" d="M1148 1130.29a12.77 12.77 0 0 0-11.55 0 4.07 4.07 0 0 0-2.39 3.34 3 3 0 0 0 .42 1.49 5.25 5.25 0 0 1 2-1.83 12.77 12.77 0 0 1 11.55 0 5.22 5.22 0 0 1 2 1.83c.83-1.64.19-3.52-2.03-4.83Z" class="colore19100 svgShape"></path><path fill="#4ca5ff" d="M1104.41 1109.63c0-8 5.25-15.91 15.76-22s24.29-9.1 38.06-9.1 27.55 3 38.06 9.1 15.77 14 15.77 22-5.25 15.91-15.77 22-24.27 9.1-38 9.1-27.55-3-38.06-9.1-15.82-14.05-15.82-22Z" class="colorffe54c svgShape"></path><path fill="url(#ap)" d="M1196.29 1131.6c-10.51 6.07-24.27 9.1-38 9.1s-27.55-3-38.06-9.1-15.77-14-15.77-22v15.4c0 8 5.26 15.9 15.77 22s24.29 9.1 38.06 9.1 27.54-3 38-9.09 15.78-14 15.77-22v-15.34c.01 7.91-5.25 15.87-15.77 21.93Z"></path><path fill="#3e9eff" d="M1127.33 1127.47c8.53 4.93 19.72 7.4 30.91 7.4s22.37-2.47 30.91-7.39c7.87-4.55 12.1-10.4 12.71-16.35-.61-6-4.84-11.81-12.71-16.35-8.54-4.93-19.73-7.4-30.92-7.4s-22.37 2.47-30.91 7.4c-7.87 4.54-12.1 10.39-12.71 16.34.61 5.95 4.84 11.81 12.72 16.35Z" class="colorffd03e svgShape"></path><path fill="#e100b8" d="M1127.32 1094.78c8.54-4.93 19.73-7.4 30.91-7.4s22.38 2.47 30.92 7.4c7.87 4.54 12.1 10.39 12.71 16.35.05-.5.09-1 .09-1.5 0-6.46-4.27-12.92-12.8-17.85s-19.73-7.39-30.92-7.39-22.37 2.46-30.91 7.39-12.8 11.39-12.8 17.85a14.89 14.89 0 0 0 .09 1.49c.61-5.95 4.84-11.8 12.71-16.34Z" class="colore19100 svgShape"></path><path fill="#e100b8" d="m1179.77 1103.21 4.13-2.38v-3l-4.13 2.39v2.99z" class="colore19100 svgShape"></path><path fill="#4ca5ff" d="M1160.7 1108.21a4.07 4.07 0 0 1-2.39-3.34c0-1.25.85-2.44 2.39-3.33a12.75 12.75 0 0 1 11.54 0c3.19 1.83 3.19 4.83 0 6.67l5.24 3c5.17-3 5.93-7.55 2.29-11l4.13-2.39-5.23-3-4.14 2.39c-6-2.1-13.9-1.66-19.07 1.32-3 1.7-4.56 4-4.56 6.35s1.62 4.67 4.56 6.36c3.18 1.84 3.19 4.83 0 6.67a12.75 12.75 0 0 1-11.54 0c-3.19-1.84-3.19-4.83 0-6.67l-5.24-3c-5.17 3-5.92 7.55-2.29 11l-3.82 2.2 5.24 3 3.82-2.21c6 2.1 13.9 1.67 19.07-1.32 6.07-3.49 6.07-9.2 0-12.7Z" class="colorffe54c svgShape"></path><path fill="#fc06cf" d="m1132.57 1124.41 5.24 3.03v-2.99l-5.24-3.03v2.99z" class="colorfcba06 svgShape"></path><path fill="#e100b8" d="m1137.81 1127.44 3.82-2.2v-3l-3.82 2.21v2.99z" class="colore19100 svgShape"></path><path fill="#fc06cf" d="m1172.24 1111.2 5.24 3.03v-3l-5.24-3.02v2.99z" class="colorfcba06 svgShape"></path><path fill="#e100b8" d="M1143.92 1114.23v-3c-2.26 1.31-2.91 3.19-2 4.83a5.07 5.07 0 0 1 2-1.83Z" class="colore19100 svgShape"></path><path fill="#fc06cf" d="M1134.14 1114.41v3.37a5.5 5.5 0 0 0 .65 2.35l1.59-.91a6.41 6.41 0 0 1-2.24-4.8ZM1155.46 1114.22a5.32 5.32 0 0 1 2 1.84c.95-1.64.3-3.52-2-4.83-2.94-1.69-4.56-4-4.56-6.36v3c0 2.4 1.62 4.66 4.56 6.35Z" class="colorfcba06 svgShape"></path><path fill="#fb05ce" d="M1165.25 1114.55v-.06Z" class="colorfbba05 svgShape"></path><path fill="#e100b8" d="M1182 1104.87c0 2.3-1.49 4.61-4.53 6.36v3c3.12-1.81 4.62-4.18 4.53-6.54v-2.83Z" class="colore19100 svgShape"></path><path fill="url(#aq)" d="M1160.7 1120.92c-5.17 3-13.09 3.42-19.07 1.32v3c6 2.09 13.9 1.66 19.07-1.33 3-1.74 4.53-4 4.55-6.3v-3c-.01 2.27-1.52 4.56-4.55 6.31Z"></path><path fill="#e100b8" d="M1172.24 1101.54a12.75 12.75 0 0 0-11.54 0c-1.54.89-2.39 2.08-2.39 3.33a3 3 0 0 0 .42 1.5 5.35 5.35 0 0 1 2-1.84 12.81 12.81 0 0 1 11.54 0 5.09 5.09 0 0 1 2 1.84c.88-1.64.23-3.52-2.03-4.83Z" class="colore19100 svgShape"></path><path d="M661.65 1137c-24.19-14-57.1-19.8-88.61-17.54 22.72 1.63 44.71 7.47 62.16 17.54 41.63 24 41.63 63 0 87-17.45 10.07-39.44 15.91-62.17 17.54 31.51 2.26 64.43-3.58 88.62-17.54 41.63-24 41.63-63 0-87Z" style="mix-blend-mode:multiply" fill="url(#p)"></path><path d="M517.5 1137c17.44-10.07 39.43-15.91 62.15-17.54-31.5-2.26-64.42 3.57-88.6 17.54-41.64 24-41.64 63 0 87 24.18 14 57.1 19.8 88.6 17.54-22.72-1.63-44.71-7.47-62.15-17.54-41.64-24-41.64-63 0-87Z" style="mix-blend-mode:multiply" fill="url(#ar)"></path><path fill="#9c9ba5" d="M641.43 1137.06c-41.84-24.16-109.68-24.16-151.51 0s-41.84 63.32 0 87.47 109.67 24.16 151.5 0 41.85-63.31.01-87.47Zm-12.5 80.25c-34.94 20.18-91.58 20.18-126.51 0s-34.94-52.87 0-73 91.57-20.17 126.51 0 34.93 52.84 0 73Z" class="colora59ba5 svgShape"></path><path fill="#37318f" d="M502.42 1119.67c34.93-20.17 91.57-20.17 126.51 0 22.93 13.24 30.81 31.87 23.63 48.82-3.75-8.87-11.63-17.28-23.63-24.21-34.94-20.17-91.58-20.17-126.51 0-12 6.93-19.89 15.34-23.64 24.21-7.17-16.95.71-35.58 23.64-48.82Z" class="color34318f svgShape"></path><path d="M629.11 1127.34c-34.92-20.17-91.56-20.17-126.49 0s-34.92 52.86 0 73 91.57 20.17 126.49 0 34.94-52.83 0-73Z" style="mix-blend-mode:screen" fill="#6d686c" class="color686a6d svgShape"></path><path d="M511.61 1131c7.61-4.85 20.27-5.4 28.27-1.22s8.32 11.47.71 16.32-20.27 5.39-28.27 1.22-8.32-11.53-.71-16.32ZM550 1122.07a13 13 0 0 1 11.7-.51c3.31 1.73 3.44 4.75.3 6.76a13 13 0 0 1-11.71.51c-3.29-1.73-3.47-4.75-.29-6.76Z" style="mix-blend-mode:screen" fill="#9c9ba5" class="colora59ba5 svgShape"></path><path fill="#f7f9fc" d="M629.11 1131c-34.92-20.17-91.56-20.17-126.49 0-16.66 9.61-25.35 22.08-26.12 34.68-.84-13.82 7.85-27.79 26.12-38.34 34.93-20.17 91.57-20.17 126.49 0 18.28 10.55 27 24.52 26.13 38.34-.77-12.6-9.46-25.07-26.13-34.68Z" class="colorf7f7fc svgShape"></path><path fill="#857dfb" d="M641.43 1112.45c-41.84-24.15-109.68-24.15-151.51 0s-41.84 63.32 0 87.47 109.67 24.16 151.5 0 41.85-63.31.01-87.47Zm-12.5 80.26c-34.94 20.17-91.58 20.17-126.51 0s-34.94-52.87 0-73 91.57-20.17 126.51 0 34.93 52.83 0 73Z" class="color807dfb svgShape"></path><path fill="url(#as)" d="M489.92 1199.92c41.84 24.16 109.67 24.16 151.5 0 20.65-11.92 31.09-27.49 31.36-43.12v23.39c.27 16-10.17 32.11-31.36 44.35-41.83 24.15-109.66 24.15-151.5 0-21.19-12.23-31.63-28.31-31.35-44.34v-23.28c.31 15.58 10.75 31.08 31.35 43Z"></path><path fill="#f7f9fc" d="M641.42 1203.21q4-2.28 7.42-4.73l18 10.4-15.62 9-18-10.4q4.24-1.98 8.2-4.27Z" class="colorf7f7fc svgShape"></path><path fill="#d0e3f6" d="m651.24 1235.92-18.02-10.4v-18.03l18.02 10.4v18.03z" class="colord0d4f6 svgShape"></path><path fill="url(#q)" d="M644.46 1230.83c0-9.31 6.53-20.63 14.59-25.28 4.19-2.42 8-2.54 10.61-.81l103.87 60-19.86 36-103.86-60c-3.26-1.16-5.35-4.65-5.35-9.91Z"></path><path d="m657.85 1245.4 5.08 2.93c-2.2-1.67-3.55-4.72-3.55-8.92 0-9.31 6.53-20.62 14.59-25.28 4.19-2.41 8-2.54 10.62-.81l-6.88-4c-2.66-1.73-6.43-1.6-10.62.81-8.06 4.66-14.59 16-14.59 25.28-.01 5.3 2.08 8.79 5.35 9.99Z" style="mix-blend-mode:multiply" fill="url(#at)"></path><path fill="url(#au)" d="M751.28 1299.36a20.59 20.59 0 1 0 21.53-35c-2.6-1.28-6.07-1-9.89 1.21-8.06 4.66-14.6 16-14.6 25.28 0 4 1.24 7 3.3 8.76Z"></path><path d="M753.68 1300.75Z" fill="#010001" class="color000000 svgShape"></path><path d="M1365.38 1001.85a587.84 587.84 0 0 0-80.24-5.94c-71.49 0-100.48 16.74-64.73 37.37 27.8 16 86.58 29.74 145 35Z" style="mix-blend-mode:multiply" fill="url(#av)"></path><path fill="#ff5ae1" d="M1149.88 918.14c0-41.28 29-58 64.73-37.37s64.73 70.83 64.72 112.1-29 58-64.72 37.38-64.72-70.84-64.73-112.11Z" class="colorff5a72 svgShape"></path><path fill="url(#aw)" d="M1290.94 986.17c0-41.27-29-91.47-64.73-112.11-17.86-10.31-34-11.29-45.74-4.54l-11.57 6.68c11.72-6.74 27.89-5.76 45.75 4.55 35.75 20.63 64.73 70.83 64.72 112.1 0 20.61-7.22 35.1-18.9 41.88l11.45-6.62c11.73-6.72 19.01-21.25 19.02-41.94Zm-30.66 48.66Z"></path><path fill="#ffffff" d="M1163.59 926.05c0-32.54 22.84-45.72 51-29.45s51 55.83 51 88.36-22.84 45.73-51 29.46-51-55.83-51-88.37Z" class="colorffffff svgShape"></path><path fill="#ff5ae1" d="M1176.4 933.44c0-24.36 17.11-34.24 38.21-22.05s38.21 41.81 38.21 66.17-17.11 34.25-38.21 22.07-38.21-41.82-38.21-66.19Z" class="colorff5a72 svgShape"></path><path fill="#ffffff" d="M1190.19 941.41c0-15.58 10.94-21.89 24.42-14.1S1239 954 1239 969.6s-10.93 21.89-24.42 14.11-24.39-26.71-24.39-42.3Z" class="colorffffff svgShape"></path><path fill="#ff5ae1" d="M1204.39 949.61c0-6.52 4.58-9.16 10.22-5.9s10.22 11.18 10.22 17.7-4.57 9.16-10.22 5.9-10.22-11.19-10.22-17.7Z" class="colorff5a72 svgShape"></path><path d="m1089 1055.61-56.72-32.76c-4.69-2.7-12.35-2.7-17 0l-55.82 32.23c-4.69 2.71-4.69 7.13 0 9.83l46.77 27v7.76h18a17.58 17.58 0 0 0 9-2l55.83-32.23c4.67-2.7 4.67-7.13-.06-9.83Z" style="mix-blend-mode:multiply" fill="url(#ax)"></path><path fill="#f1f3f6" d="M1015.2 1087.13c-4.68 2.7-12.34 2.7-17 0l-56.73-32.75c-4.68-2.71-4.68-7.13 0-9.84l55.82-32.22c4.68-2.71 12.34-2.71 17 0l56.73 32.76c4.68 2.7 4.68 7.13 0 9.83Z" class="colorf1f1f6 svgShape"></path><path fill="url(#ay)" d="M937.94 1059.81c-.08 1.85 1.07 3.71 3.5 5.11l56.73 32.75c4.68 2.7 12.34 2.7 17 0l55.82-32.23c2.45-1.41 3.6-3.3 3.49-5.16v-10c-.1 1.7-1.26 3.38-3.49 4.67l-55.83 32.23c-4.68 2.7-12.34 2.7-17 0l-56.73-32.75c-2.31-1.34-3.47-3.1-3.5-4.86Z"></path><path fill="#f4f6f8" d="m1032.76 1048.53-38.56 1.96 1.2-8.67h-10.66l-2.89 15.8 50.91-2.94v-6.15z" class="colorced3f8 svgShape"></path><path style="mix-blend-mode:multiply" fill="url(#r)" d="M274 1134.27h-37.26l23.65 13.65-23.65 13.66H274l23.65-13.66-23.65-13.65z"></path><path fill="#bbd0e6" d="m236.74 1161.58 23.65-13.66v-27.3l-23.65 13.65v27.31z" class="colorbbc0e6 svgShape"></path><path fill="#f4f6f8" d="m236.74 1161.58-23.65-13.66v-27.3l23.65 13.65v27.31z" class="colorced3f8 svgShape"></path><path fill="#f4f6f8" d="m236.74 1134.27-23.65-13.65 23.65-13.66 23.65 13.66-23.65 13.65z" class="colorf6f6fb svgShape"></path><path style="mix-blend-mode:multiply" fill="url(#az)" d="M1393.16 1262.84h-66.54l42.24 24.38-42.24 24.39h66.54l42.23-24.39-42.23-24.38z"></path><path fill="#bbd0e6" d="m1326.62 1311.61 42.24-24.39v-48.76l-42.24 24.38v48.77z" class="colorbbc0e6 svgShape"></path><path fill="#f4f6f8" d="m1326.62 1311.61-42.23-24.39v-48.76l42.23 24.38v48.77z" class="colorced3f8 svgShape"></path><path fill="#f4f6f8" d="m1326.62 1262.84-42.23-24.38 42.23-24.38 42.24 24.38-42.24 24.38z" class="colorf6f6fb svgShape"></path></g></g></g></svg>