<svg xmlns="http://www.w3.org/2000/svg" xmlns:xlink="http://www.w3.org/1999/xlink" viewBox="0 0 1800 1500" id="ProjectdevelopmentStrategy"><defs><linearGradient id="A" x1="486.61" x2="644.34" y1="557.37" y2="830.55" gradientTransform="translate(994.68 -170.05)" gradientUnits="userSpaceOnUse"><stop offset="0" stop-color="#e33cc5" class="stopColore33c5c svgShape"></stop><stop offset=".99" stop-color="#a50b89" class="stopColorbc3153 svgShape"></stop></linearGradient><linearGradient id="z" x1="1399.28" x2="1537.33" y1="584.8" y2="584.8" gradientUnits="userSpaceOnUse"><stop offset="0" stop-color="#ffffff" class="stopColorffffff svgShape"></stop><stop offset="1" stop-color="#dae7f5" class="stopColordae0f5 svgShape"></stop></linearGradient><linearGradient id="a" x1="691.83" x2="691.83" y1="782.3" y2="272.38" gradientUnits="userSpaceOnUse"><stop offset=".25" stop-color="#ffffff" class="stopColorffffff svgShape"></stop><stop offset=".52" stop-color="#f8fafd" class="stopColorf8f9fd svgShape"></stop><stop offset=".9" stop-color="#e5edf6" class="stopColore5e9f6 svgShape"></stop><stop offset="1" stop-color="#dfe9f4" class="stopColordfe4f4 svgShape"></stop></linearGradient><linearGradient id="b" x1="518.76" x2="518.76" y1="782.3" y2="272.38" gradientUnits="userSpaceOnUse"><stop offset=".25" stop-color="#ffffff" class="stopColorffffff svgShape"></stop><stop offset=".64" stop-color="#f6f9fc" class="stopColorf6f7fc svgShape"></stop><stop offset="1" stop-color="#e9f0f7" class="stopColore9edf7 svgShape"></stop></linearGradient><linearGradient id="B" x1="1341.64" x2="1341.64" y1="531.73" y2="180.82" xlink:href="#a"></linearGradient><linearGradient id="C" x1="1233.91" x2="1233.91" y1="531.73" y2="180.82" xlink:href="#b"></linearGradient><linearGradient id="D" x1="1023.71" x2="1770.01" y1="1088.03" y2="1088.03" gradientUnits="userSpaceOnUse"><stop offset="0" stop-color="#c4d6e9" class="stopColorc4cae9 svgShape"></stop><stop offset=".4" stop-color="#e2ebf4" class="stopColore2e5f4 svgShape"></stop><stop offset=".76" stop-color="#f7f9fc" class="stopColorf7f8fc svgShape"></stop><stop offset="1" stop-color="#ffffff" class="stopColorffffff svgShape"></stop></linearGradient><linearGradient id="E" x1="1009.39" x2="1539.04" y1="1137.52" y2="1137.52" gradientTransform="matrix(-1 0 0 1 2369.34 0)" gradientUnits="userSpaceOnUse"><stop offset=".3" stop-color="#342e94" class="stopColor362e94 svgShape"></stop><stop offset=".33" stop-color="#4740af" class="stopColor4740af svgShape"></stop><stop offset=".42" stop-color="#6f67e9" class="stopColor6b67e9 svgShape"></stop></linearGradient><linearGradient id="F" x1="1018.45" x2="1352.9" y1="1076.89" y2="1076.89" gradientUnits="userSpaceOnUse"><stop offset="0" stop-color="#c4d6e9" class="stopColorc4cae9 svgShape"></stop><stop offset=".24" stop-color="#cadaeb" class="stopColorcad0eb svgShape"></stop><stop offset=".56" stop-color="#dde7f2" class="stopColordde0f2 svgShape"></stop><stop offset=".95" stop-color="#fafbfd" class="stopColorfafbfd svgShape"></stop><stop offset="1" stop-color="#ffffff" class="stopColorffffff svgShape"></stop></linearGradient><linearGradient id="G" x1="1531.76" x2="872.06" y1="-94.19" y2="1048.45" gradientTransform="matrix(-1 0 0 1 2369.34 0)" gradientUnits="userSpaceOnUse"><stop offset=".63" stop-color="#6f67e9" class="stopColor6b67e9 svgShape"></stop><stop offset=".7" stop-color="#6f196f" class="stopColor20196f svgShape"></stop></linearGradient><linearGradient id="H" x1="965.72" x2="1173.85" y1="786.64" y2="426.15" gradientUnits="userSpaceOnUse"><stop offset="0" stop-color="#ffffff" class="stopColorffffff svgShape"></stop><stop offset=".27" stop-color="#fafcfe" class="stopColorfafafe svgShape"></stop><stop offset=".6" stop-color="#eaf3fc" class="stopColoreaecfc svgShape"></stop><stop offset=".96" stop-color="#d1e4f8" class="stopColord1d6f8 svgShape"></stop><stop offset="1" stop-color="#cee3f8" class="stopColorced3f8 svgShape"></stop></linearGradient><linearGradient id="c" x1="807.77" x2="1000.8" y1="584" y2="584" gradientUnits="userSpaceOnUse"><stop offset="0" stop-color="#ffffff" class="stopColorffffff svgShape"></stop><stop offset="1" stop-color="#f1f3f6" class="stopColorf1f1f6 svgShape"></stop></linearGradient><linearGradient id="J" x1="1386.85" x2="1579.87" y1="584.01" y2="584.01" gradientUnits="userSpaceOnUse"><stop offset="0" stop-color="#f1f3f6" class="stopColorf1f1f6 svgShape"></stop><stop offset="1" stop-color="#ffffff" class="stopColorffffff svgShape"></stop></linearGradient><linearGradient id="K" x1="1483.36" x2="1483.36" y1="1085.5" y2="974.05" xlink:href="#c"></linearGradient><linearGradient id="L" x1="711.26" x2="1274.32" y1="519.56" y2="519.56" gradientUnits="userSpaceOnUse"><stop offset="0" stop-color="#dae7f5" class="stopColordae0f5 svgShape"></stop><stop offset=".37" stop-color="#e4eef8" class="stopColore4e8f8 svgShape"></stop><stop offset="1" stop-color="#ffffff" class="stopColorffffff svgShape"></stop></linearGradient><linearGradient id="d" x1="793.51" x2="783.76" y1="737.12" y2="700.12" gradientUnits="userSpaceOnUse"><stop offset=".14" stop-color="#ffffff" class="stopColorffffff svgShape"></stop><stop offset=".35" stop-color="#fafbfd" class="stopColorfafafd svgShape"></stop><stop offset=".6" stop-color="#ebf1f8" class="stopColorebedf8 svgShape"></stop><stop offset=".86" stop-color="#d4e1ef" class="stopColord4d8ef svgShape"></stop><stop offset="1" stop-color="#c4d6e9" class="stopColorc4cae9 svgShape"></stop></linearGradient><linearGradient id="M" x1="816.4" x2="806.65" y1="770.44" y2="733.44" xlink:href="#d"></linearGradient><linearGradient id="N" x1="839.3" x2="829.55" y1="803.76" y2="766.76" xlink:href="#d"></linearGradient><linearGradient id="O" x1="862.19" x2="852.44" y1="837.09" y2="800.09" xlink:href="#d"></linearGradient><linearGradient id="P" x1="885.09" x2="875.34" y1="870.41" y2="833.41" xlink:href="#d"></linearGradient><linearGradient id="Q" x1="907.98" x2="898.23" y1="903.73" y2="866.73" xlink:href="#d"></linearGradient><linearGradient id="R" x1="688.35" x2="825.08" y1="1189.08" y2="1189.08" gradientUnits="userSpaceOnUse"><stop offset="0" stop-color="#e9f0f7" class="stopColore9edf7 svgShape"></stop><stop offset=".44" stop-color="#ecf2f8" class="stopColorecf0f8 svgShape"></stop><stop offset=".82" stop-color="#f7f9fc" class="stopColorf7f8fc svgShape"></stop><stop offset="1" stop-color="#ffffff" class="stopColorffffff svgShape"></stop></linearGradient><linearGradient id="S" x1="688.36" x2="802.18" y1="1202.3" y2="1202.3" gradientUnits="userSpaceOnUse"><stop offset=".47" stop-color="#c4d6e9" class="stopColorc4cae9 svgShape"></stop><stop offset=".78" stop-color="#e9f0f7" class="stopColore9ecf7 svgShape"></stop><stop offset="1" stop-color="#ffffff" class="stopColorffffff svgShape"></stop></linearGradient><linearGradient id="e" x1="763.82" x2="772.52" y1="740.8" y2="755.88" gradientUnits="userSpaceOnUse"><stop offset="0" stop-color="#dae7f5" class="stopColordae0f5 svgShape"></stop><stop offset=".26" stop-color="#e8f0f9" class="stopColore8ecf9 svgShape"></stop><stop offset=".68" stop-color="#f9fbfd" class="stopColorf9fafd svgShape"></stop><stop offset="1" stop-color="#ffffff" class="stopColorffffff svgShape"></stop></linearGradient><linearGradient id="T" x1="786.71" x2="795.41" y1="774.12" y2="789.2" xlink:href="#e"></linearGradient><linearGradient id="U" x1="809.6" x2="818.31" y1="807.44" y2="822.52" xlink:href="#e"></linearGradient><linearGradient id="V" x1="832.49" x2="841.2" y1="840.76" y2="855.84" xlink:href="#e"></linearGradient><linearGradient id="W" x1="855.39" x2="864.09" y1="874.08" y2="889.16" xlink:href="#e"></linearGradient><linearGradient id="X" x1="878.28" x2="886.98" y1="907.4" y2="922.48" xlink:href="#e"></linearGradient><linearGradient id="f" x1="747.48" x2="790.56" y1="1118.48" y2="1118.48" gradientUnits="userSpaceOnUse"><stop offset="0" stop-color="#c4d6e9" class="stopColorc4cae9 svgShape"></stop><stop offset=".09" stop-color="#cedded" class="stopColorced3ed svgShape"></stop><stop offset=".41" stop-color="#e9f0f7" class="stopColore9ebf7 svgShape"></stop><stop offset=".69" stop-color="#f9fbfd" class="stopColorf9fafd svgShape"></stop><stop offset=".9" stop-color="#ffffff" class="stopColorffffff svgShape"></stop></linearGradient><linearGradient id="Y" x1="800.13" x2="839.57" y1="1100.27" y2="1100.27" xlink:href="#f"></linearGradient><linearGradient id="Z" x1="1323.2" x2="1335.01" y1="998.19" y2="998.03" gradientTransform="matrix(-1 0 0 1 2067.48 0)" gradientUnits="userSpaceOnUse"><stop offset="0" stop-color="#5a52cc" class="stopColor5652cc svgShape"></stop><stop offset="1" stop-color="#6f67e9" class="stopColor6b67e9 svgShape"></stop></linearGradient><linearGradient id="g" x1="1965.23" x2="1988.41" y1="1115.73" y2="1115.73" gradientTransform="matrix(-1 0 0 1 2728.99 0)" gradientUnits="userSpaceOnUse"><stop offset="0" stop-color="#453eaf" class="stopColor423eaf svgShape"></stop><stop offset=".11" stop-color="#4039a7" class="stopColor3e39a7 svgShape"></stop><stop offset=".7" stop-color="#28227e" class="stopColor28227e svgShape"></stop><stop offset="1" stop-color="#6f196f" class="stopColor20196f svgShape"></stop></linearGradient><linearGradient id="aa" x1="1912.64" x2="1935.83" y1="1097.53" y2="1097.53" xlink:href="#g"></linearGradient><linearGradient id="ab" x1="742.52" x2="806.93" y1="1059.57" y2="1059.57" gradientUnits="userSpaceOnUse"><stop offset="0" stop-color="#453eaf" class="stopColor423eaf svgShape"></stop><stop offset=".56" stop-color="#2e2888" class="stopColor2d2888 svgShape"></stop><stop offset="1" stop-color="#6f196f" class="stopColor20196f svgShape"></stop></linearGradient><linearGradient id="ac" x1="1945.09" x2="1986.73" y1="1005.47" y2="1005.47" gradientTransform="matrix(-1 0 0 1 2728.99 0)" gradientUnits="userSpaceOnUse"><stop offset="0" stop-color="#453eaf" class="stopColor423eaf svgShape"></stop><stop offset=".19" stop-color="#534cc0" class="stopColor504cc0 svgShape"></stop><stop offset=".73" stop-color="#776feb" class="stopColor736feb svgShape"></stop><stop offset="1" stop-color="#857dfb" class="stopColor807dfb svgShape"></stop></linearGradient><linearGradient id="ad" x1="1266.8" x2="1311.75" y1="1006.53" y2="1006.53" gradientTransform="matrix(-1 0 0 1 2067.48 0)" gradientUnits="userSpaceOnUse"><stop offset="0" stop-color="#453eaf" class="stopColor423eaf svgShape"></stop><stop offset=".41" stop-color="#665ed5" class="stopColor615ed5 svgShape"></stop><stop offset=".78" stop-color="#7c74f1" class="stopColor7874f1 svgShape"></stop><stop offset="1" stop-color="#857dfb" class="stopColor807dfb svgShape"></stop></linearGradient><linearGradient id="ae" x1="789.14" x2="839.74" y1="363.23" y2="275.59" gradientUnits="userSpaceOnUse"><stop offset=".01" stop-color="#fc06cf" class="stopColorfcba06 svgShape"></stop><stop offset="1" stop-color="#3e9eff" class="stopColorffd03e svgShape"></stop></linearGradient><linearGradient id="af" x1="810.41" x2="858.74" y1="329.64" y2="329.64" gradientUnits="userSpaceOnUse"><stop offset="0" stop-color="#3e9eff" class="stopColorffd03e svgShape"></stop><stop offset="1" stop-color="#fc06cf" class="stopColorfcba06 svgShape"></stop></linearGradient><linearGradient id="ag" x1="842.92" x2="821.59" y1="341.09" y2="307.58" gradientUnits="userSpaceOnUse"><stop offset=".01" stop-color="#342e94" class="stopColor362e94 svgShape"></stop><stop offset="1" stop-color="#6f67e9" class="stopColor6b67e9 svgShape"></stop></linearGradient><linearGradient id="ah" x1="1671.29" x2="1671.29" y1="1699.8" y2="1118.63" xlink:href="#a"></linearGradient><linearGradient id="ai" x1="1513.19" x2="1513.19" y1="1699.8" y2="1118.63" xlink:href="#b"></linearGradient><linearGradient id="aj" x1="204.83" x2="204.83" y1="1559.11" y2="1179.46" xlink:href="#a"></linearGradient><linearGradient id="ak" x1="88.27" x2="88.27" y1="1559.11" y2="1179.46" xlink:href="#b"></linearGradient><linearGradient id="w" x1="1063.51" x2="1210.33" y1="803.8" y2="803.8" gradientUnits="userSpaceOnUse"><stop offset="0" stop-color="#c4d6e9" class="stopColorc4cae9 svgShape"></stop><stop offset="1" stop-color="#ffffff" class="stopColorffffff svgShape"></stop></linearGradient><linearGradient id="m" x1="1044.97" x2="1150.58" y1="806.78" y2="806.78" gradientUnits="userSpaceOnUse"><stop offset=".01" stop-color="#5a52cc" class="stopColor5652cc svgShape"></stop><stop offset=".28" stop-color="#524bc1" class="stopColor504bc1 svgShape"></stop><stop offset=".76" stop-color="#4039a5" class="stopColor4039a5 svgShape"></stop><stop offset="1" stop-color="#342e94" class="stopColor362e94 svgShape"></stop></linearGradient><linearGradient id="h" x1="1047.83" x2="1147.72" y1="809.59" y2="809.59" gradientUnits="userSpaceOnUse"><stop offset=".01" stop-color="#453eaf" class="stopColor423eaf svgShape"></stop><stop offset=".25" stop-color="#3f38a4" class="stopColor3c38a4 svgShape"></stop><stop offset=".68" stop-color="#2d2788" class="stopColor2d2788 svgShape"></stop><stop offset="1" stop-color="#6f196f" class="stopColor20196f svgShape"></stop></linearGradient><linearGradient id="x" x1="1102.73" x2="1147.72" y1="794.04" y2="794.04" gradientUnits="userSpaceOnUse"><stop offset="0" stop-color="#a5b8cc" class="stopColora5abcc svgShape"></stop><stop offset=".63" stop-color="#e1e7ee" class="stopColore1e3ee svgShape"></stop><stop offset="1" stop-color="#ffffff" class="stopColorffffff svgShape"></stop></linearGradient><linearGradient id="i" x1="1062.18" x2="1133.37" y1="745.99" y2="745.99" gradientUnits="userSpaceOnUse"><stop offset=".01" stop-color="#453eaf" class="stopColor423eaf svgShape"></stop><stop offset=".23" stop-color="#3b359b" class="stopColor39359b svgShape"></stop><stop offset=".69" stop-color="#661e66" class="stopColor211e66 svgShape"></stop><stop offset="1" stop-color="#3f0d3f" class="stopColor0f0d3f svgShape"></stop></linearGradient><linearGradient id="al" x1="1071.6" x2="1123.95" y1="674.76" y2="674.76" xlink:href="#h"></linearGradient><linearGradient id="am" x1="1074.9" x2="1120.65" y1="667.92" y2="667.92" xlink:href="#h"></linearGradient><linearGradient id="an" x1="1074.35" x2="1121.2" y1="648.06" y2="648.06" xlink:href="#i"></linearGradient><linearGradient id="ao" x1="907.99" x2="916.02" y1="616.86" y2="616.86" gradientTransform="matrix(2.1 0 0 1 -809.72 0)" gradientUnits="userSpaceOnUse"><stop offset="0" stop-color="#a5b8cc" class="stopColora5abcc svgShape"></stop><stop offset=".74" stop-color="#e7ecf1" class="stopColore7e9f1 svgShape"></stop><stop offset="1" stop-color="#ffffff" class="stopColorffffff svgShape"></stop></linearGradient><linearGradient id="l" x1="976.17" x2="1054.1" y1="749.72" y2="749.72" gradientUnits="userSpaceOnUse"><stop offset=".38" stop-color="#c4d6e9" class="stopColorc4cae9 svgShape"></stop><stop offset="1" stop-color="#ffffff" class="stopColorffffff svgShape"></stop></linearGradient><linearGradient id="j" x1="957.03" x2="1044.57" y1="751.04" y2="751.04" gradientUnits="userSpaceOnUse"><stop offset=".01" stop-color="#e8eff7" class="stopColore8ecf7 svgShape"></stop><stop offset=".5" stop-color="#ddeaf7" class="stopColordde2f7 svgShape"></stop><stop offset="1" stop-color="#cee3f8" class="stopColorced3f8 svgShape"></stop></linearGradient><linearGradient id="p" x1="959.4" x2="1042.2" y1="753.37" y2="753.37" gradientUnits="userSpaceOnUse"><stop offset=".01" stop-color="#cee3f8" class="stopColorced3f8 svgShape"></stop><stop offset=".64" stop-color="#c3d8ee" class="stopColorc3c8ee svgShape"></stop><stop offset="1" stop-color="#bbd0e6" class="stopColorbbc0e6 svgShape"></stop></linearGradient><linearGradient id="n" x1="1002.28" x2="1042.2" y1="737.73" y2="737.73" gradientUnits="userSpaceOnUse"><stop offset=".02" stop-color="#dfe9f4" class="stopColordfe4f4 svgShape"></stop><stop offset=".61" stop-color="#f1f5fa" class="stopColorf1f3fa svgShape"></stop><stop offset="1" stop-color="#ffffff" class="stopColorffffff svgShape"></stop></linearGradient><linearGradient id="ap" x1="974.17" x2="1027.43" y1="713.64" y2="713.64" gradientUnits="userSpaceOnUse"><stop offset=".01" stop-color="#e8eff7" class="stopColore8ecf7 svgShape"></stop><stop offset="1" stop-color="#bbd0e6" class="stopColorbbc0e6 svgShape"></stop></linearGradient><linearGradient id="aq" x1="979.55" x2="1022.05" y1="669.44" y2="669.44" xlink:href="#j"></linearGradient><linearGradient id="o" x1="991.08" x2="1021.23" y1="664.1" y2="664.1" gradientUnits="userSpaceOnUse"><stop offset="0" stop-color="#d1e2f3" class="stopColord1d7f3 svgShape"></stop><stop offset=".39" stop-color="#dee8f3" class="stopColordee1f3 svgShape"></stop><stop offset="1" stop-color="#eff1f3" class="stopColorefeff3 svgShape"></stop></linearGradient><linearGradient id="as" x1="1265.71" x2="1343.64" y1="916.34" y2="916.34" xlink:href="#l"></linearGradient><linearGradient id="at" x1="1246.56" x2="1334.11" y1="917.66" y2="917.66" xlink:href="#m"></linearGradient><linearGradient id="au" x1="1248.94" x2="1331.73" y1="919.99" y2="919.99" xlink:href="#h"></linearGradient><linearGradient id="av" x1="1291.81" x2="1331.73" y1="904.35" y2="904.35" xlink:href="#n"></linearGradient><linearGradient id="aw" x1="1263.71" x2="1316.96" y1="880.26" y2="880.26" xlink:href="#i"></linearGradient><linearGradient id="ax" x1="1269.08" x2="1311.59" y1="836.06" y2="836.06" xlink:href="#h"></linearGradient><linearGradient id="ay" x1="1280.61" x2="1310.76" y1="830.72" y2="830.72" xlink:href="#o"></linearGradient><linearGradient id="aA" x1="1250.33" x2="1366.93" y1="689.66" y2="689.66" xlink:href="#l"></linearGradient><linearGradient id="aB" x1="1228.68" x2="1351.98" y1="693.14" y2="693.14" xlink:href="#j"></linearGradient><linearGradient id="aC" x1="1232.03" x2="1348.63" y1="696.42" y2="696.42" xlink:href="#p"></linearGradient><linearGradient id="aD" x1="1281.32" x2="1349.21" y1="674.82" y2="674.82" gradientUnits="userSpaceOnUse"><stop offset="0" stop-color="#dae7f5" class="stopColordae0f5 svgShape"></stop><stop offset=".18" stop-color="#e1ecf7" class="stopColore1e6f7 svgShape"></stop><stop offset="1" stop-color="#ffffff" class="stopColorffffff svgShape"></stop></linearGradient><linearGradient id="q" x1="1256.68" x2="1298.85" y1="652.09" y2="580" gradientUnits="userSpaceOnUse"><stop offset="0" stop-color="#cee3f8" class="stopColorced3f8 svgShape"></stop><stop offset=".52" stop-color="#e5effa" class="stopColore5e7fa svgShape"></stop><stop offset="1" stop-color="#f6f8fb" class="stopColorf6f6fb svgShape"></stop></linearGradient><linearGradient id="aE" x1="1261.88" x2="1295.14" y1="693.71" y2="617.45" gradientUnits="userSpaceOnUse"><stop offset="0" stop-color="#cee3f8" class="stopColorced3f8 svgShape"></stop><stop offset="1" stop-color="#bbd0e6" class="stopColorbbc0e6 svgShape"></stop></linearGradient><linearGradient id="aF" x1="1284.25" x2="1312.82" y1="694.88" y2="580.34" xlink:href="#q"></linearGradient><linearGradient id="r" x1="1318.08" x2="1318.08" y1="690.39" y2="588.78" gradientUnits="userSpaceOnUse"><stop offset="0" stop-color="#eff1f3" class="stopColorefeff3 svgShape"></stop><stop offset="1" stop-color="#ffffff" class="stopColorffffff svgShape"></stop></linearGradient><linearGradient id="aG" x1="1284.71" x2="1300.14" y1="633.38" y2="633.38" xlink:href="#r"></linearGradient><linearGradient id="s" x1="1291.24" x2="1298.46" y1="596.08" y2="596.08" gradientUnits="userSpaceOnUse"><stop offset="0" stop-color="#e8eff7" class="stopColore8ecf7 svgShape"></stop><stop offset="1" stop-color="#ffffff" class="stopColorffffff svgShape"></stop></linearGradient><linearGradient id="aH" x1="1278.01" x2="1287.07" y1="588.14" y2="588.14" xlink:href="#s"></linearGradient><linearGradient id="aI" x1="1324.14" x2="1379.02" y1="779.54" y2="779.54" gradientUnits="userSpaceOnUse"><stop offset=".43" stop-color="#c2d4e6" class="stopColorc2c8e6 svgShape"></stop><stop offset=".59" stop-color="#d7e3ef" class="stopColord7dbef svgShape"></stop><stop offset=".85" stop-color="#f4f7fb" class="stopColorf4f5fb svgShape"></stop><stop offset="1" stop-color="#ffffff" class="stopColorffffff svgShape"></stop></linearGradient><linearGradient id="aJ" x1="1312.05" x2="1366.95" y1="782.79" y2="782.79" gradientUnits="userSpaceOnUse"><stop offset="0" stop-color="#6f67e9" class="stopColor6b67e9 svgShape"></stop><stop offset="1" stop-color="#342e94" class="stopColor362e94 svgShape"></stop></linearGradient><linearGradient id="aK" x1="1170.63" x2="1259.59" y1="580.01" y2="580.01" gradientUnits="userSpaceOnUse"><stop offset=".36" stop-color="#c4d4e4" class="stopColorc4c9e4 svgShape"></stop><stop offset="1" stop-color="#ffffff" class="stopColorffffff svgShape"></stop></linearGradient><linearGradient id="t" x1="1150.25" x2="1237.39" y1="586.97" y2="586.97" gradientUnits="userSpaceOnUse"><stop offset="0" stop-color="#fc06cf" class="stopColorfcba06 svgShape"></stop><stop offset="1" stop-color="#e100b8" class="stopColore19100 svgShape"></stop></linearGradient><linearGradient id="aL" x1="1180.37" x2="1199.5" y1="577.04" y2="577.04" xlink:href="#t"></linearGradient><linearGradient id="aM" x1="866.4" x2="921.29" y1="1269.77" y2="1269.77" gradientUnits="userSpaceOnUse"><stop offset=".43" stop-color="#c4d4e4" class="stopColorc4c9e4 svgShape"></stop><stop offset=".58" stop-color="#d7e2ed" class="stopColord7daed svgShape"></stop><stop offset=".85" stop-color="#f4f6f8" class="stopColorf4f5fa svgShape"></stop><stop offset="1" stop-color="#ffffff" class="stopColorffffff svgShape"></stop></linearGradient><linearGradient id="aN" x1="854.3" x2="909.22" y1="1273.02" y2="1273.02" gradientUnits="userSpaceOnUse"><stop offset="0" stop-color="#fc06cf" class="stopColorfcba06 svgShape"></stop><stop offset=".21" stop-color="#f304c8" class="stopColorf3ad04 svgShape"></stop><stop offset=".7" stop-color="#e201b9" class="stopColore29401 svgShape"></stop><stop offset="1" stop-color="#dc00b4" class="stopColordc8b00 svgShape"></stop></linearGradient><linearGradient id="aO" x1="421.66" x2="514.23" y1="1185.69" y2="1185.69" gradientUnits="userSpaceOnUse"><stop offset="0" stop-color="#dae7f5" class="stopColordae0f5 svgShape"></stop><stop offset=".33" stop-color="#deeaf6" class="stopColordee3f6 svgShape"></stop><stop offset=".66" stop-color="#eaf1f9" class="stopColoreaeef9 svgShape"></stop><stop offset="1" stop-color="#ffffff" class="stopColorffffff svgShape"></stop><stop offset="1" stop-color="#ffffff" class="stopColorffffff svgShape"></stop></linearGradient><linearGradient id="aP" x1="431.9" x2="468.18" y1="1171.91" y2="1171.91" gradientUnits="userSpaceOnUse"><stop offset="0" stop-color="#a3b9d0" class="stopColora3a9d0 svgShape"></stop><stop offset="1" stop-color="#deebf9" class="stopColordee2f9 svgShape"></stop></linearGradient><linearGradient id="aQ" x1="421.66" x2="444.8" y1="1198.65" y2="1198.65" gradientUnits="userSpaceOnUse"><stop offset="0" stop-color="#a3b9d0" class="stopColora3a9d0 svgShape"></stop><stop offset="1" stop-color="#d0e3f6" class="stopColord0d4f6 svgShape"></stop></linearGradient><linearGradient id="aR" x1="1572.64" x2="1584.05" y1="1442.18" y2="1461.26" gradientTransform="rotate(120 1095.186 1004.06)" gradientUnits="userSpaceOnUse"><stop offset="0" stop-color="#d0e3f6" class="stopColord0d4f6 svgShape"></stop><stop offset=".57" stop-color="#b8cde2" class="stopColorb8bde2 svgShape"></stop><stop offset="1" stop-color="#a3b9d0" class="stopColora3a9d0 svgShape"></stop></linearGradient><linearGradient id="aS" x1="479.31" x2="495.09" y1="1180.64" y2="1180.64" gradientUnits="userSpaceOnUse"><stop offset=".4" stop-color="#a3b9d0" class="stopColora3a9d0 svgShape"></stop><stop offset=".69" stop-color="#b6cbe0" class="stopColorb6bbe0 svgShape"></stop><stop offset="1" stop-color="#d0e3f6" class="stopColord0d4f6 svgShape"></stop></linearGradient><linearGradient id="aT" x1="351.32" x2="839.31" y1="957.19" y2="957.19" gradientUnits="userSpaceOnUse"><stop offset="0" stop-color="#d1e2f3" class="stopColord1d7f3 svgShape"></stop><stop offset=".31" stop-color="#e8f0f9" class="stopColore8ebf9 svgShape"></stop><stop offset=".63" stop-color="#f9fbfd" class="stopColorf9fafd svgShape"></stop><stop offset=".87" stop-color="#ffffff" class="stopColorffffff svgShape"></stop></linearGradient><linearGradient id="u" x1="339.99" x2="359.17" y1="833.85" y2="822.19" gradientUnits="userSpaceOnUse"><stop offset="0" stop-color="#d1e2f3" class="stopColord1d7f3 svgShape"></stop><stop offset="1" stop-color="#ffffff" class="stopColorffffff svgShape"></stop></linearGradient><linearGradient id="aU" x1="377.99" x2="397.17" y1="811.94" y2="800.28" xlink:href="#u"></linearGradient><linearGradient id="aV" x1="416" x2="435.18" y1="790.03" y2="778.37" xlink:href="#u"></linearGradient><linearGradient id="aW" x1="454.01" x2="473.19" y1="768.12" y2="756.46" xlink:href="#u"></linearGradient><linearGradient id="aX" x1="492.02" x2="511.2" y1="746.21" y2="734.55" xlink:href="#u"></linearGradient><linearGradient id="v" x1="1564.69" x2="1588.22" y1="843.26" y2="802.5" gradientTransform="matrix(-1 0 0 1 1929.04 0)" gradientUnits="userSpaceOnUse"><stop offset="0" stop-color="#bbd0e6" class="stopColorbbc0e6 svgShape"></stop><stop offset="1" stop-color="#ffffff" class="stopColorffffff svgShape"></stop></linearGradient><linearGradient id="aY" x1="1527.03" x2="1550.57" y1="821.55" y2="780.79" xlink:href="#v"></linearGradient><linearGradient id="aZ" x1="1489.38" x2="1512.91" y1="799.84" y2="759.09" xlink:href="#v"></linearGradient><linearGradient id="ba" x1="1451.73" x2="1475.26" y1="778.14" y2="737.38" xlink:href="#v"></linearGradient><linearGradient id="bb" x1="1414.07" x2="1437.61" y1="756.43" y2="715.68" xlink:href="#v"></linearGradient><linearGradient id="bc" x1="542.34" x2="686.45" y1="1034.23" y2="1034.23" xlink:href="#w"></linearGradient><linearGradient id="bd" x1="524.14" x2="627.8" y1="1037.16" y2="1037.16" xlink:href="#m"></linearGradient><linearGradient id="be" x1="526.95" x2="624.99" y1="1039.91" y2="1039.91" xlink:href="#h"></linearGradient><linearGradient id="bf" x1="580.83" x2="624.99" y1="1024.65" y2="1024.65" xlink:href="#x"></linearGradient><linearGradient id="bg" x1="541.03" x2="610.91" y1="980.79" y2="980.79" xlink:href="#i"></linearGradient><linearGradient id="bh" x1="546.82" x2="605.12" y1="921.7" y2="921.7" xlink:href="#h"></linearGradient><linearGradient id="y" x1="541.48" x2="610.46" y1="925.85" y2="925.85" gradientUnits="userSpaceOnUse"><stop offset="0" stop-color="#5a52cc" class="stopColor5652cc svgShape"></stop><stop offset="1" stop-color="#342e94" class="stopColor362e94 svgShape"></stop></linearGradient><linearGradient id="bi" x1="548.9" x2="583.63" y1="909.78" y2="909.78" xlink:href="#w"></linearGradient><linearGradient id="bj" x1="541.49" x2="610.46" y1="911.61" y2="911.61" xlink:href="#y"></linearGradient><linearGradient id="bk" x1="610.45" x2="541.41" y1="894.38" y2="894.38" xlink:href="#y"></linearGradient><linearGradient id="bl" x1="610.45" x2="541.41" y1="896.6" y2="896.6" xlink:href="#y"></linearGradient><linearGradient id="bm" x1="541.46" x2="610.45" y1="906.64" y2="906.64" xlink:href="#y"></linearGradient><linearGradient id="bn" x1="541.49" x2="610.45" y1="919.01" y2="919.01" xlink:href="#y"></linearGradient><linearGradient id="bo" x1="572.87" x2="583.29" y1="891.11" y2="891.11" xlink:href="#z"></linearGradient><radialGradient id="k" cx="1093.26" cy="609.06" r="12.91" gradientUnits="userSpaceOnUse"><stop offset="0" stop-color="#ffffff" class="stopColorffffff svgShape"></stop><stop offset=".1" stop-color="#f4f8fd" class="stopColorf4f5fd svgShape"></stop><stop offset=".41" stop-color="#d8e8f9" class="stopColord8dcf9 svgShape"></stop><stop offset=".58" stop-color="#cee3f8" class="stopColorced3f8 svgShape"></stop><stop offset=".92" stop-color="#a3b9d0" class="stopColora3a9d0 svgShape"></stop><stop offset=".94" stop-color="#a9bed4" class="stopColora9afd4 svgShape"></stop><stop offset=".96" stop-color="#bacde0" class="stopColorbac0e0 svgShape"></stop><stop offset="1" stop-color="#d6e4f3" class="stopColord6dcf3 svgShape"></stop><stop offset="1" stop-color="#dae7f5" class="stopColordae0f5 svgShape"></stop></radialGradient><radialGradient id="ar" cx="988.33" cy="640.94" r="35.66" xlink:href="#k"></radialGradient><radialGradient id="az" cx="1277.86" cy="807.56" r="35.66" gradientUnits="userSpaceOnUse"><stop offset="0" stop-color="#857dfb" class="stopColor807dfb svgShape"></stop><stop offset=".06" stop-color="#7d75f2" class="stopColor7875f2 svgShape"></stop><stop offset=".29" stop-color="#645cd6" class="stopColor5f5cd6 svgShape"></stop><stop offset=".42" stop-color="#5a52cc" class="stopColor5652cc svgShape"></stop><stop offset=".92" stop-color="#6f196f" class="stopColor20196f svgShape"></stop><stop offset=".93" stop-color="#751d75" class="stopColor241d75 svgShape"></stop><stop offset=".95" stop-color="#2e2886" class="stopColor2e2886 svgShape"></stop><stop offset=".96" stop-color="#413aa3" class="stopColor403aa3 svgShape"></stop><stop offset=".99" stop-color="#5b53ca" class="stopColor5853ca svgShape"></stop><stop offset="1" stop-color="#6f67e9" class="stopColor6b67e9 svgShape"></stop></radialGradient><clipPath id="I"><polygon fill="none" points="1127.5 399.4 711.26 639.72 1428.32 1053.71 1428.32 573.07 1127.5 399.4"></polygon></clipPath></defs><g style="isolation:isolate" fill="#010001" class="color000000 svgShape"><g fill="#010001" class="color000000 svgShape"><g fill="#010001" class="color000000 svgShape"><path fill="#f4f6f8" d="M1399.28,488c0-71.12,49.94-99.95,111.53-64.39s111.53,122,111.52,193.17-49.93,100-111.52,64.4S1399.29,559.13,1399.28,488Z" class="colorff5a72 svgShape"></path><path fill="url(#A)" d="M1642.32,605.24c0-71.12-49.93-157.61-111.52-193.17-30.78-17.77-58.64-19.46-78.82-7.83h0l0,0L1432,415.79c20.19-11.63,48-9.94,78.83,7.83,61.59,35.56,111.53,122,111.52,193.17,0,35.51-12.45,60.47-32.58,72.15l19.74-11.41h0C1629.77,665.92,1642.32,640.9,1642.32,605.24Zm-52.82,83.85.08-.05-.08,0Z"></path><path fill="#ffffff" d="M1422.9,501.64c0-56.06,39.36-78.78,87.91-50.75s87.92,96.2,87.91,152.27-39.36,78.79-87.91,50.75S1422.9,557.71,1422.9,501.64Z" class="colorffffff svgShape"></path><path fill="#f4f6f8" d="M1445,514.39c0-42,29.48-59,65.84-38s65.84,72,65.84,114-29.48,59-65.84,38S1445,556.37,1445,514.39Z" class="colorff5a72 svgShape"></path><path fill="#ffffff" d="M1468.73,528.1c0-26.83,18.85-37.7,42.08-24.29s42.08,46.05,42.08,72.88-18.84,37.72-42.08,24.3S1468.73,555,1468.73,528.1Z" class="colorffffff svgShape"></path><path fill="#f4f6f8" d="M1493.2,542.23c0-11.22,7.89-15.77,17.61-10.16s17.61,19.27,17.61,30.5-7.88,15.78-17.61,10.17S1493.2,553.47,1493.2,542.23Z" class="colorff5a72 svgShape"></path><path d="M1537.33,587c0-16.91-12-37.64-26.61-46.09l-111-64.08c-.3,3.62-.47,7.35-.47,11.22,0,71.12,49.94,157.62,111.53,193.18a122.68,122.68,0,0,0,26.52,11.61Z" style="mix-blend-mode:multiply" fill="url(#z)"></path><g style="mix-blend-mode:multiply" fill="#010001" class="color000000 svgShape"><polygon fill="url(#a)" points="605.29 782.3 778.36 682.38 778.36 272.38 605.29 372.29 605.29 782.3"></polygon><polygon fill="url(#b)" points="605.29 782.3 432.23 682.38 432.23 272.38 605.29 372.29 605.29 782.3"></polygon><polygon fill="#f1f5f9" points="605.29 372.29 432.23 272.38 605.29 172.46 778.36 272.38 605.29 372.29" class="colorf1f3f9 svgShape"></polygon></g><g style="mix-blend-mode:multiply" fill="#010001" class="color000000 svgShape"><polygon fill="url(#B)" points="1287.77 531.73 1395.51 469.53 1395.51 180.82 1287.77 243.02 1287.77 531.73"></polygon><polygon fill="url(#C)" points="1287.77 531.73 1180.04 469.53 1180.04 180.82 1287.77 243.02 1287.77 531.73"></polygon><polygon fill="#f1f5f9" points="1287.77 243.02 1180.04 180.82 1287.77 118.63 1395.51 180.82 1287.77 243.02" class="colorf1f3f9 svgShape"></polygon></g><path d="M1367.05,1165.21h403L1361.46,929.34,1034.68,1117c-14.63,8.45-14.63,22.28,0,30.73,0,0,156.1,90.07,156.81,90.43l-23.83,8.57h38.27a72.74,72.74,0,0,0,36.69-9.67Z" style="mix-blend-mode:multiply" fill="url(#D)"></path><path fill="#f6f8fb" d="M996,923c14.64-8.45,38.58-8.45,53.22,0l299.8,173.1c14.64,8.45,14.64,22.27,0,30.73l-154.72,89.33c-14.64,8.44-38.59,8.44-53.22,0L841.24,1043c-14.64-8.45-14.64-22.27,0-30.73Z" class="colorf6f6fb svgShape"></path><path fill="url(#E)" d="M841.24,1043l299.81,173.1c14.63,8.44,38.58,8.44,53.22,0L1349,1126.79c7-4.06,10.65-9.37,10.92-14.71,0,0,0,23.57,0,23.57,0,5.59-3.64,11.16-11,15.4l-154.72,89.33c-14.64,8.46-38.59,8.46-53.22,0l-299.81-173.1c-7.61-4.39-11.22-10.22-10.92-16v-23C830.59,1033.66,834.22,1039,841.24,1043Z"></path><path d="M1159.49,1012.86l-2.62,0H1018.45c.63,5,4.22,9.95,10.84,13.78L1194.48,1122l-1.18,2.56-28.44,16.41h159.61l28.43-16.41Z" style="mix-blend-mode:multiply" fill="url(#F)"></path><path fill="#cee3f8" d="M992.84,982.4c12-36.94,12.06-68.37,12.06-81.34l21.29-12.29c0,5.43,0,13.72-.72,24.17l172.84,99.79c0,18.23,0,73-33.45,128.21L971.43,1029.28Z" class="colorced3f8 svgShape"></path><polygon fill="#b7bfc8" points="1004.9 901.05 1198.31 1012.73 1219.6 1000.43 1026.19 888.77 1004.9 901.05" class="colorc8b7bd svgShape"></polygon><path fill="#bbd0e6" d="M1164.86,1140.94c33.43-55.25,33.45-110,33.45-128.21l21.29-12.29c0,18.16,0,67.86-26.3,124.09Z" class="colorbbc0e6 svgShape"></path><path d="M1187.65,1089.67l22.87-13.2a285.35,285.35,0,0,0,7.42-41.16l-21.52,12.42A244.84,244.84,0,0,1,1187.65,1089.67Z" style="mix-blend-mode:multiply" fill="#dae7f5" class="colordae0f5 svgShape"></path><path fill="#453eaf" d="M684.65,143.72c0-16.9,12-23.82,26.6-15.36l717.07,414c14.63,8.45,26.6,29.18,26.61,46.09v480.63L684.66,624.36Z" class="color423eaf svgShape"></path><path fill="url(#G)" d="M740.11,111.7l717.06,414c14.64,8.45,26.61,29.18,26.61,46.08v480.64l-28.86,16.65V588.44c0-16.91-12-37.64-26.61-46.09l-717.07-414c-6-3.45-11.46-4.3-15.93-3l23.08-13.14C723.23,107.14,731.17,106.54,740.11,111.7Z"></path><path fill="#e1f0ff" d="M1454.92,1069.07v100c0,16.91-12,23.8-26.61,15.36l-717.07-414c-14.62-8.45-26.6-29.2-26.6-46.09V624.36Z" class="colore1e6ff svgShape"></path><path fill="#bbd0e6" d="M1454.93,1169v-100l28.86-16.65v99.95c0,8.5-3,14.48-7.91,17.23l-27.66,15.86C1452.37,1182.43,1454.93,1176.8,1454.93,1169Z" class="colorbbc0e6 svgShape"></path><polygon fill="url(#H)" points="711.26 639.72 1428.32 1053.71 1428.32 573.07 711.25 159.08 711.26 639.72"></polygon><g clip-path="url(#I)" fill="#010001" class="color000000 svgShape"><polygon fill="#ffffff" points="1000.8 695.44 1097.31 751.16 1000.8 806.88 904.29 751.16 1000.8 695.44" class="colorffffff svgShape"></polygon><polygon fill="#f1f3f6" points="1097.31 751.16 1193.82 806.89 1097.31 862.61 1000.8 806.88 1097.31 751.16" class="colorf1f1f6 svgShape"></polygon><polygon fill="#f1f3f6" points="904.28 639.72 1000.8 695.44 904.28 751.16 807.77 695.44 904.28 639.72" class="colorf1f1f6 svgShape"></polygon><polygon fill="#f1f3f6" points="1097.31 639.72 1193.82 695.45 1097.31 751.16 1000.8 695.44 1097.31 639.72" class="colorf1f1f6 svgShape"></polygon><polygon fill="#ffffff" points="1193.82 695.45 1290.34 751.17 1193.82 806.89 1097.31 751.16 1193.82 695.45" class="colorffffff svgShape"></polygon><polygon fill="url(#c)" points="904.28 528.28 1000.8 584 904.28 639.72 807.77 584 904.28 528.28"></polygon><polygon fill="#ffffff" points="1000.79 584 1097.31 639.72 1000.8 695.44 904.28 639.72 1000.79 584" class="colorffffff svgShape"></polygon><polygon fill="#ffffff" points="1193.82 584 1290.34 639.73 1193.82 695.45 1097.31 639.72 1193.82 584" class="colorffffff svgShape"></polygon><polygon fill="#f1f3f6" points="1290.34 639.73 1386.85 695.45 1290.34 751.17 1193.82 695.45 1290.34 639.73" class="colorf1f1f6 svgShape"></polygon><polygon fill="#ffffff" points="1000.79 472.56 1097.31 528.28 1000.8 584 904.28 528.28 1000.79 472.56" class="colorffffff svgShape"></polygon><polygon fill="#ffffff" points="807.77 584 904.28 639.72 807.77 695.44 711.26 639.72 807.77 584" class="colorffffff svgShape"></polygon><polygon fill="#f1f3f6" points="1097.31 528.28 1193.82 584 1097.31 639.72 1000.8 584 1097.31 528.28" class="colorf1f1f6 svgShape"></polygon><polygon fill="#f1f3f6" points="1290.34 528.29 1386.85 584.01 1290.34 639.73 1193.82 584 1290.34 528.29" class="colorf1f1f6 svgShape"></polygon><polygon fill="#ffffff" points="1386.85 584.01 1483.36 639.73 1386.85 695.45 1290.34 639.73 1386.85 584.01" class="colorffffff svgShape"></polygon><polygon fill="#f1f3f6" points="1097.31 416.84 1193.82 472.56 1097.31 528.28 1000.8 472.56 1097.31 416.84" class="colorf1f1f6 svgShape"></polygon><polygon fill="#ffffff" points="1193.82 472.56 1290.34 528.29 1193.82 584 1097.31 528.28 1193.82 472.56" class="colorffffff svgShape"></polygon><polygon fill="#ffffff" points="1386.85 472.57 1483.36 528.29 1386.85 584.01 1290.34 528.29 1386.85 472.57" class="colorffffff svgShape"></polygon><polygon fill="url(#J)" points="1483.36 528.29 1579.88 584.01 1483.36 639.73 1386.85 584.01 1483.36 528.29"></polygon><polygon fill="#ffffff" points="1193.82 806.89 1290.34 862.61 1193.82 918.33 1097.31 862.61 1193.82 806.89" class="colorffffff svgShape"></polygon><polygon fill="#f1f3f6" points="1290.33 862.61 1386.85 918.33 1290.34 974.05 1193.82 918.33 1290.33 862.61" class="colorf1f1f6 svgShape"></polygon><polygon fill="#f1f3f6" points="1290.33 751.17 1386.85 806.89 1290.34 862.61 1193.82 806.89 1290.33 751.17" class="colorf1f1f6 svgShape"></polygon><polygon fill="#ffffff" points="1386.85 806.89 1483.36 862.61 1386.85 918.33 1290.34 862.61 1386.85 806.89" class="colorffffff svgShape"></polygon><polygon fill="#ffffff" points="1386.85 695.45 1483.36 751.17 1386.85 806.89 1290.34 751.17 1386.85 695.45" class="colorffffff svgShape"></polygon><polygon fill="#f1f3f6" points="1483.36 751.17 1579.87 806.89 1483.36 862.61 1386.85 806.89 1483.36 751.17" class="colorf1f1f6 svgShape"></polygon><polygon fill="#f1f3f6" points="1483.36 639.73 1579.87 695.45 1483.36 751.17 1386.85 695.45 1483.36 639.73" class="colorf1f1f6 svgShape"></polygon><polygon fill="#ffffff" points="1386.85 918.33 1483.36 974.05 1386.85 1029.77 1290.34 974.05 1386.85 918.33" class="colorffffff svgShape"></polygon><polygon fill="url(#K)" points="1483.36 974.05 1579.87 1029.78 1483.36 1085.5 1386.85 1029.77 1483.36 974.05"></polygon><polygon fill="#f1f3f6" points="1483.36 862.61 1579.87 918.34 1483.36 974.05 1386.85 918.33 1483.36 862.61" class="colorf1f1f6 svgShape"></polygon><polygon fill="#ffffff" points="1193.82 361.12 1290.34 416.84 1193.82 472.56 1097.31 416.84 1193.82 361.12" class="colorffffff svgShape"></polygon><polygon fill="#f1f3f6" points="1290.33 416.84 1386.85 472.57 1290.34 528.29 1193.82 472.56 1290.33 416.84" class="colorf1f1f6 svgShape"></polygon></g><polygon points="1127.51 399.4 711.26 639.72 1022.96 639.72 1274.33 484.17 1127.51 399.4" style="mix-blend-mode:multiply" fill="url(#L)"></polygon><polygon fill="#e9eff6" points="1127.5 399.4 711.26 639.72 711.26 159.08 1127.5 399.4" class="colore9edf6 svgShape"></polygon><polygon points="825.08 715.48 807.67 695.38 807.67 695.38 807.67 705.43 755.77 735.39 773.19 755.49 825.08 725.53 825.08 715.48" style="mix-blend-mode:multiply" fill="url(#d)"></polygon><polygon points="847.98 748.8 830.56 728.71 830.56 728.71 830.57 738.75 778.67 768.71 796.09 788.81 847.98 758.85 847.98 748.8" style="mix-blend-mode:multiply" fill="url(#M)"></polygon><polygon points="870.87 782.13 853.46 762.03 853.46 762.03 853.46 772.07 801.56 802.04 818.98 822.14 870.87 792.18 870.87 782.13" style="mix-blend-mode:multiply" fill="url(#N)"></polygon><polygon points="893.77 815.45 876.35 795.35 876.35 795.35 876.35 805.4 824.46 835.36 841.88 855.46 893.77 825.5 893.77 815.45" style="mix-blend-mode:multiply" fill="url(#O)"></polygon><polygon points="916.66 848.77 899.25 828.68 899.25 828.68 899.25 838.72 847.35 868.68 864.77 888.78 916.66 858.82 916.66 848.77" style="mix-blend-mode:multiply" fill="url(#P)"></polygon><polygon points="939.55 882.1 922.14 862 922.14 862 922.14 872.04 870.25 902.01 887.66 922.11 939.55 892.15 939.55 882.1" style="mix-blend-mode:multiply" fill="url(#Q)"></polygon><polygon points="1035.96 957.86 1018.55 937.76 1018.55 937.76 1018.55 947.8 1035.96 957.86" style="mix-blend-mode:multiply" fill="#dae7f5" class="colordae0f5 svgShape"></polygon><polygon points="825.08 1210.31 825.07 1210.3 825.07 1210.3 825.07 1210.3 728.66 1154.64 711.26 1154.64 688.35 1167.86 784.77 1223.52 802.17 1223.52 825.06 1210.31 825.08 1210.31" style="mix-blend-mode:multiply" fill="url(#R)"></polygon><polygon fill="#cee3f8" points="734.15 794.42 711.26 781.2 711.26 771.15 734.15 784.37 734.15 794.42" class="colorced3f8 svgShape"></polygon><polygon fill="#bbd0e6" points="734.15 794.42 830.56 738.75 830.56 728.7 734.15 784.37 734.15 794.42" class="colorbbc0e6 svgShape"></polygon><polygon fill="#f6f8fb" points="734.15 784.37 711.26 771.15 807.67 715.49 830.56 728.71 734.15 784.37" class="colorf6f6fb svgShape"></polygon><polygon fill="#cee3f8" points="757.05 827.74 734.15 814.52 734.15 804.47 757.05 817.68 757.05 827.74" class="colorced3f8 svgShape"></polygon><polygon fill="#bbd0e6" points="757.05 827.74 853.46 772.08 853.46 762.02 757.05 817.68 757.05 827.74" class="colorbbc0e6 svgShape"></polygon><polygon fill="#f6f8fb" points="757.05 817.68 734.15 804.47 830.56 748.81 853.46 762.02 757.05 817.68" class="colorf6f6fb svgShape"></polygon><polygon fill="#cee3f8" points="779.94 861.06 757.04 847.85 757.04 837.79 779.94 851.01 779.94 861.06" class="colorced3f8 svgShape"></polygon><polygon fill="#bbd0e6" points="779.94 861.06 876.35 805.4 876.35 795.35 779.94 851.01 779.94 861.06" class="colorbbc0e6 svgShape"></polygon><polygon fill="#f6f8fb" points="779.94 851.01 757.04 837.79 853.46 782.13 876.35 795.35 779.94 851.01" class="colorf6f6fb svgShape"></polygon><polygon fill="#cee3f8" points="802.84 894.39 779.94 881.17 779.94 871.12 802.84 884.33 802.84 894.39" class="colorced3f8 svgShape"></polygon><polygon fill="#bbd0e6" points="802.83 894.39 899.25 838.72 899.25 828.67 802.83 884.33 802.83 894.39" class="colorbbc0e6 svgShape"></polygon><polygon fill="#f6f8fb" points="802.83 884.33 779.94 871.12 876.35 815.46 899.25 828.67 802.83 884.33" class="colorf6f6fb svgShape"></polygon><polygon fill="#cee3f8" points="825.73 927.71 802.83 914.49 802.83 904.44 825.73 917.66 825.73 927.71" class="colorced3f8 svgShape"></polygon><polygon fill="#bbd0e6" points="825.73 927.71 922.14 872.05 922.14 861.99 825.73 917.66 825.73 927.71" class="colorbbc0e6 svgShape"></polygon><polygon fill="#f6f8fb" points="825.73 917.66 802.83 904.44 899.24 848.78 922.14 862 825.73 917.66" class="colorf6f6fb svgShape"></polygon><polygon fill="#bbd0e6" points="899.24 1036.8 922.14 1023.58 922.14 1013.53 899.24 1026.75 899.24 1036.8" class="colorbbc0e6 svgShape"></polygon><polygon fill="#cee3f8" points="899.25 1036.8 802.83 981.14 802.83 971.08 899.25 1026.75 899.25 1036.8" class="colorced3f8 svgShape"></polygon><polygon fill="#f6f8fb" points="899.25 1026.75 922.14 1013.53 825.73 957.87 802.83 971.09 899.25 1026.75" class="colorf6f6fb svgShape"></polygon><polygon fill="#bbd0e6" points="876.35 1070.12 899.25 1056.9 899.25 1046.85 876.35 1060.07 876.35 1070.12" class="colorbbc0e6 svgShape"></polygon><polygon fill="#cee3f8" points="876.35 1070.12 779.94 1014.46 779.94 1004.41 876.35 1060.07 876.35 1070.12" class="colorced3f8 svgShape"></polygon><polygon fill="#f6f8fb" points="876.35 1060.07 899.25 1046.85 802.83 991.19 779.94 1004.41 876.35 1060.07" class="colorf6f6fb svgShape"></polygon><polygon fill="#bbd0e6" points="853.45 1103.45 876.35 1090.23 876.35 1080.18 853.45 1093.4 853.45 1103.45" class="colorbbc0e6 svgShape"></polygon><polygon fill="#cee3f8" points="853.45 1103.45 757.04 1047.78 757.04 1037.73 853.45 1093.4 853.45 1103.45" class="colorced3f8 svgShape"></polygon><polygon fill="#f6f8fb" points="853.45 1093.4 876.35 1080.18 779.94 1024.52 757.04 1037.73 853.45 1093.4" class="colorf6f6fb svgShape"></polygon><polygon fill="#bbd0e6" points="830.55 1136.77 853.45 1123.55 853.45 1113.5 830.55 1126.72 830.55 1136.77" class="colorbbc0e6 svgShape"></polygon><polygon fill="#cee3f8" points="830.56 1136.77 734.15 1081.11 734.15 1071.06 830.56 1126.72 830.56 1136.77" class="colorced3f8 svgShape"></polygon><polygon fill="#f6f8fb" points="830.56 1126.72 853.45 1113.5 757.04 1057.84 734.15 1071.06 830.56 1126.72" class="colorf6f6fb svgShape"></polygon><polygon fill="#bbd0e6" points="807.66 1170.1 830.56 1156.88 830.56 1146.82 807.66 1160.04 807.66 1170.1" class="colorbbc0e6 svgShape"></polygon><polygon fill="#cee3f8" points="807.66 1170.1 711.25 1114.43 711.25 1104.38 807.66 1160.04 807.66 1170.1" class="colorced3f8 svgShape"></polygon><polygon fill="#f6f8fb" points="807.66 1160.04 830.56 1146.82 734.15 1091.16 711.25 1104.38 807.66 1160.04" class="colorf6f6fb svgShape"></polygon><polygon fill="#bbd0e6" points="784.76 1203.42 807.66 1190.2 807.66 1180.15 784.76 1193.37 784.76 1203.42" class="colorbbc0e6 svgShape"></polygon><polygon fill="#cee3f8" points="784.77 1203.42 688.36 1147.76 688.36 1137.7 784.77 1193.37 784.77 1203.42" class="colorced3f8 svgShape"></polygon><polygon fill="#f6f8fb" points="784.77 1193.37 807.66 1180.15 711.25 1124.49 688.36 1137.7 784.77 1193.37" class="colorf6f6fb svgShape"></polygon><polygon points="802.18 1223.53 802.17 1223.52 802.17 1223.52 802.17 1223.52 705.77 1167.86 688.36 1167.86 784.76 1223.52 761.87 1236.74 779.28 1236.74 802.16 1223.53 802.18 1223.53" style="mix-blend-mode:multiply" fill="url(#S)"></polygon><polygon fill="#bbd0e6" points="761.87 1236.74 784.77 1223.53 784.77 1213.47 761.87 1226.69 761.87 1236.74" class="colorbbc0e6 svgShape"></polygon><polygon fill="#cee3f8" points="761.87 1236.74 665.46 1181.08 665.46 1171.03 761.87 1226.69 761.87 1236.74" class="colorced3f8 svgShape"></polygon><polygon fill="#f6f8fb" points="761.87 1226.69 784.77 1213.47 688.36 1157.81 665.46 1171.03 761.87 1226.69" class="colorf6f6fb svgShape"></polygon><polygon fill="#cee3f8" points="711.26 761.1 614.85 705.43 614.85 695.38 711.26 751.04 711.26 761.1" class="colorced3f8 svgShape"></polygon><polygon fill="#bbd0e6" points="711.26 761.1 807.67 705.43 807.67 695.38 711.26 751.04 711.26 761.1" class="colorbbc0e6 svgShape"></polygon><polygon fill="#f6f8fb" points="711.26 751.04 614.85 695.38 711.26 639.72 807.67 695.38 711.26 751.04" class="colorf6f6fb svgShape"></polygon><polygon fill="#cee3f8" points="922.14 1003.48 825.73 947.81 825.73 937.76 922.14 993.42 922.14 1003.48" class="colorced3f8 svgShape"></polygon><polygon fill="#bbd0e6" points="922.14 1003.48 1018.55 947.81 1018.55 937.76 922.14 993.42 922.14 1003.48" class="colorbbc0e6 svgShape"></polygon><polygon fill="#f6f8fb" points="922.14 993.42 825.73 937.76 922.14 882.1 1018.55 937.76 922.14 993.42" class="colorf6f6fb svgShape"></polygon><polygon points="728.67 781.19 825.07 725.53 807.67 715.49 711.26 771.14 728.67 781.19" style="mix-blend-mode:multiply" fill="url(#e)"></polygon><polygon points="751.57 814.51 847.97 758.86 830.56 748.81 734.16 804.46 751.57 814.51" style="mix-blend-mode:multiply" fill="url(#T)"></polygon><polygon points="774.46 847.83 870.86 792.18 853.45 782.13 757.05 837.78 774.46 847.83" style="mix-blend-mode:multiply" fill="url(#U)"></polygon><polygon points="797.35 881.15 893.75 825.5 876.35 815.45 779.94 871.1 797.35 881.15" style="mix-blend-mode:multiply" fill="url(#V)"></polygon><polygon points="820.24 914.47 916.64 858.82 899.24 848.77 802.83 904.42 820.24 914.47" style="mix-blend-mode:multiply" fill="url(#W)"></polygon><polygon points="843.13 947.79 939.54 892.13 922.13 882.09 825.73 937.74 843.13 947.79" style="mix-blend-mode:multiply" fill="url(#X)"></polygon><polygon points="772.37 1113.23 751 1113.23 747.49 1123.73 790.56 1123.73 772.37 1113.23" style="mix-blend-mode:multiply" fill="url(#f)"></polygon><polygon points="821.45 1095.02 803.64 1095.02 800.13 1105.52 839.57 1105.48 821.45 1095.02" style="mix-blend-mode:multiply" fill="url(#Y)"></polygon><path fill="#a9d2fc" d="M742.14,1024.43c1.4,2.4,3.82,4.91,4.4,6.46a14.93,14.93,0,0,1,.75,4.5c0,.81-.62,3.18-1.62,2.78s-1.38.62-2.39.42-.64-.57-.64-.57c-.54.2-1.25.2-1.44-.21-.46.15-.66.62-1.41-.27-.61-.73-.79-2.08-1.25-2.81-1.51-2.35-.88-9.26-1.18-10S741.18,1022.76,742.14,1024.43Z" class="colorfcd1a9 svgShape"></path><path fill="url(#Z)" d="M755.54,968.2c-19.88,12.7-22.18,37.74-18.76,58.21,2.34,3.4,7.37,1.73,6.79-1.42C741.53,1001.67,745.23,979.73,755.54,968.2Z"></path><path fill="url(#g)" d="M740.58,1120.16c0-9.08,5.75-9.34,5.75-9.34a23.75,23.75,0,0,0,8.19-2.11c5-2.07,12-1.27,8.1,6a1.74,1.74,0,0,1-.14.27,3.49,3.49,0,0,1-1.27,1.12l-12.58,7.37C746.71,1124.56,740.62,1122,740.58,1120.16Z"></path><path fill="#471147" d="M740.61,1119.35c.11,1.86,6.12,4.34,8,3.26l12.58-7.38a12,12,0,0,0,1.77-1.29c-.11.25-.22.49-.36.76a1.74,1.74,0,0,1-.14.27,3.49,3.49,0,0,1-1.27,1.12l-12.58,7.37c-1.79,1-7.25-1.13-8-2.94a2,2,0,0,1-.06-.37A7.09,7.09,0,0,1,740.61,1119.35Z" class="color131147 svgShape"></path><path fill="#ffffff" d="M742.92,1109.62a52.66,52.66,0,0,1,6.7,1.33,2.88,2.88,0,0,0,.46,1.35,1.3,1.3,0,0,1,.15.18c1,.71,2.08,1.85-.36,3.38a3.4,3.4,0,0,1-4.4-.32,4,4,0,0,0-1.42-1.6,3.55,3.55,0,0,0-1.36-.58s0-.12,0-.12S742.3,1109.62,742.92,1109.62Z" class="colorffffff svgShape"></path><path fill="#6f196f" d="M742.83,1020.81l25.58.46c-2.11,17.1-6.37,32.62-9.22,49.18-3.05,16.08-6.49,27.39-9.49,40.78-1.1,2.5-6.13,1.55-7.15-.85-.8-12.33-1.71-27.35,1.94-41.58C743.88,1053.46,742.47,1036.3,742.83,1020.81Z" class="color20196f svgShape"></path><path fill="url(#aa)" d="M793.17,1102c0-9.08,5.76-9.34,5.76-9.34a23.82,23.82,0,0,0,8.18-2.1c5-2.07,12-1.28,8.1,6a1.74,1.74,0,0,1-.14.27,3.45,3.45,0,0,1-1.28,1.12l-12.57,7.38C799.3,1106.36,793.21,1103.83,793.17,1102Z"></path><path fill="#471147" d="M793.2,1101.15c.11,1.87,6.12,4.35,8,3.26l12.57-7.38a11.31,11.31,0,0,0,1.78-1.29c-.12.25-.22.5-.36.76a1.74,1.74,0,0,1-.14.27,3.45,3.45,0,0,1-1.28,1.12l-12.57,7.38c-1.79,1-7.25-1.13-8-2.94a2,2,0,0,1-.06-.37A7.27,7.27,0,0,1,793.2,1101.15Z" class="color131147 svgShape"></path><path fill="#ffffff" d="M795.51,1091.43a53.39,53.39,0,0,1,6.7,1.32,2.88,2.88,0,0,0,.46,1.35c.06.06.1.12.15.18,1,.71,2.08,1.85-.37,3.38a3.37,3.37,0,0,1-4.39-.31,4.12,4.12,0,0,0-1.42-1.61,3.72,3.72,0,0,0-1.36-.58.71.71,0,0,0,0-.12S794.89,1091.43,795.51,1091.43Z" class="colorffffff svgShape"></path><path fill="url(#ab)" d="M782.2,1036c-5.63.83-34-12.48-39.64-11.65-1.17,33,25.85,31.64,49.27,29.76l.2,0a135.52,135.52,0,0,0,3.12,39.19c1.4,2.2,6.52,2.31,7.19-.33.78-13.71,4.21-25.42,4.59-41.79C807,1034.3,795.15,1036.35,782.2,1036Z"></path><path fill="url(#ac)" d="M754.62,1040.69c12.19,6.84,24.94,6.85,29.29-1.56-1.63-15.65-3.15-28.4,0-43.4-.93-8.28-1.59-9.53-.52-14.36-.38-1.62-5.36-5.08-9-8.4-3.93-3.58-6.58-7-8.6-7.4-16.67-3.4-24.76,26.29-23.37,57.95C743.71,1032,748.62,1037.32,754.62,1040.69Z"></path><path fill="#a9d2fc" d="M756.55,967.46c3.61-2.61,5.14-9.05,5.68-12.61a17.41,17.41,0,0,1,.79-6.18c2.35-7.56,9.2-12.59,15-10.34,11.63,4.52,7.56,10.11,5.21,17.67-2.18,7-6.86,10.84-12.43,10a5.92,5.92,0,0,0,1.62,5.09c-4.07,2.44-10,1.29-12.35.23S754.85,969.21,756.55,967.46Z" class="colorfcd1a9 svgShape"></path><path fill="#342e94" d="M783.7,935.72c-.06-1-1.74-2.1-8.57-1.19l-1.76.25C760.61,937,760.21,951,761.09,955a7.36,7.36,0,0,1-.09,4.42c4.59.9,5.41,3.8,8.94,2,2.52-1.33,6.16-2.72,6.9-3.49a3.64,3.64,0,0,0,.95-2.11c1.54-6.39,3.56-1.77,3.11-.33,1.35-.3,1.89-2.89,2.49-5.76h0C795,944.68,790.9,938.36,783.7,935.72Z" class="color362e94 svgShape"></path><path fill="#a9d2fc" d="M798.58,1027.28c2.82,1.69,4.49,0,6.09.8s.9,1.84,1.7,2.21a3.69,3.69,0,0,1,2.54,3.26c.68,3.67-2.44,5.64-4.12,6.06-1.53.39-2.11,1.29-5.68-1.76-1.46-1.24-.56-2.74-3.71-4.71C796.14,1032.78,798.58,1027.28,798.58,1027.28Z" class="colorfcd1a9 svgShape"></path><path fill="url(#ad)" d="M776.74,978.64c4-.8,6,.7,6.64,2.73.46,3.91,3.1,28.66,3.19,30.36,3.49,4.31,7.08,9.21,12.89,15.36,3.29,3.49-.73,9.1-4.15,7.15-1.5-.86-14.81-11.21-17.76-15.64-5.34-6.23-7.33-23.74-7.68-28C769,984.47,772.74,979.45,776.74,978.64Z"></path><path fill="#dc00b4" d="M795.11,349.59c0-22.82,16-50.57,35.79-62s35.79-2.16,35.79,20.67-16,50.58-35.79,62S795.11,372.42,795.11,349.59Z" class="colordc8b00 svgShape"></path><path fill="url(#ae)" d="M847.89,280.31c-6.49-3.84-15.49-3.35-25.45,2.41-19.77,11.41-35.8,39.16-35.8,62,0,11.9,4.39,20.07,11.37,23.58l0,0,7.25,4.19c-6.26-3.82-10.13-11.73-10.13-22.93,0-22.82,16-50.57,35.79-62,9.87-5.7,18.81-6.24,25.29-2.52l-8.29-4.78Zm8.34,4.8.13.09h0Zm-49.78,88.11,0,0c-.17-.08-.34-.14-.5-.23Z"></path><path fill="#ffffff" d="M857.05,311.88c0-8.38-2.8-14.36-7.35-17.46-5-2.39-11.54-1.82-18.8,2.37-15.37,8.87-27.84,30.46-27.84,48.21,0,8.38,2.8,14.37,7.35,17.46,5,2.4,11.54,1.83,18.8-2.36C844.58,351.22,857.05,329.63,857.05,311.88Z" class="colorffffff svgShape"></path><path fill="url(#af)" d="M849.7,294.42c4.55,3.1,7.35,9.08,7.35,17.46,0,17.75-12.47,39.34-27.84,48.22-7.26,4.19-13.85,4.76-18.8,2.36,5.09,3.47,12.37,3.3,20.49-1.39,15.38-8.87,27.84-30.46,27.84-48.21C858.74,303.49,855.24,297.1,849.7,294.42Z"></path><path fill="url(#ag)" d="M845.8,335.21l-15.62-9V306.73c0-1.23-.87-1.73-1.93-1.12a4.29,4.29,0,0,0-1.94,3.35v20.39a2,2,0,0,0,.15.77,1,1,0,0,0,.42.48L843.07,340c.75.44,2-.27,2.73-1.58S846.56,335.65,845.8,335.21Z"></path><polygon fill="url(#ah)" points="1602.39 1221.64 1602.39 1391.89 1740.18 1391.89 1740.18 1142.1 1602.39 1221.64"></polygon><polygon fill="url(#ai)" points="1602.39 1221.64 1423.97 1118.63 1423.97 1391.89 1602.39 1391.89 1602.39 1221.64"></polygon><polygon fill="#f1f5f9" points="1602.39 1015.62 1423.97 1118.63 1602.39 1221.64 1740.18 1142.1 1740.18 1095.17 1602.39 1015.62" class="colorf1f3f9 svgShape"></polygon><polygon fill="url(#aj)" points="263.11 1179.46 146.55 1246.76 146.55 1391.89 263.11 1391.89 263.11 1179.46"></polygon><polygon fill="#f1f5f9" points="146.55 1246.76 29.99 1179.46 146.55 1112.17 263.11 1179.46 146.55 1246.76" class="colorf1f3f9 svgShape"></polygon><polygon fill="url(#ak)" points="146.55 1246.76 29.99 1179.46 29.99 1391.89 146.55 1391.89 146.55 1246.76"></polygon><path d="M1204.35,793.18l-47.33-4a37.8,37.8,0,0,0-8.26-6.3c-9.75-5.63-22.53-8.45-35.31-8.45s-25.57,2.82-35.31,8.45-14.63,13-14.63,20.39,4.88,14.76,14.63,20.39,22.53,8.44,35.31,8.44a85.84,85.84,0,0,0,12.65-.94l-1.81,2,14.42-5,.31-.11.74-.26h0a56.13,56.13,0,0,0,9-4.12l.93-.57c11.84-.05,29.41-.37,45.88-.73,9.82-5.17,14.76-11.38,14.76-17.6C1210.33,800.82,1208.32,796.87,1204.35,793.18Z" style="mix-blend-mode:multiply" fill="url(#w)"></path><path fill="url(#m)" d="M1150.58,806.78c0-7.8-5.15-15.6-15.46-21.56s-23.83-8.93-37.34-8.93-27,3-37.35,8.93S1045,799,1045,806.78s5.15,15.61,15.47,21.56,23.82,8.93,37.34,8.93,27-3,37.34-8.93S1150.58,814.58,1150.58,806.78Z"></path><path fill="url(#h)" d="M1133.09,813.09c-9.75,5.63-22.54,8.45-35.31,8.45s-25.56-2.82-35.32-8.45-14.63-13-14.63-20.39v4.94c0,7.38,4.88,14.75,14.63,20.38s22.54,8.45,35.32,8.45,25.56-2.81,35.31-8.45,14.63-13,14.63-20.38v-4.93C1147.72,800.09,1142.84,807.47,1133.09,813.09Z"></path><path fill="#5046e4" d="M1147.72,792.71c0-7.38-4.88-14.76-14.63-20.39s-22.54-8.45-35.31-8.45-25.57,2.82-35.32,8.45-14.63,13-14.63,20.38,4.88,14.76,14.63,20.39,22.54,8.45,35.32,8.45,25.56-2.82,35.31-8.45S1147.72,800.09,1147.72,792.71Z" class="color5652cc svgShape"></path><path d="M1102.73,811.05c8.24,0,21.89-.35,34.59-.75,6.92-5.16,10.4-11.38,10.4-17.59a19.13,19.13,0,0,0-4.21-11.59l-34.26-4.1Z" style="mix-blend-mode:multiply" fill="url(#x)"></path><path fill="url(#i)" d="M1131.17,783.58h0c-5.43-9.33-15.32-80.88-15.32-102.85-10.11,0-18.07,6.73-18.07,6.73s-8-6.73-18.07-6.73c0,22-9.9,93.52-15.33,102.85h0a13.22,13.22,0,0,0-2.2,7.12c0,5.26,3.48,10.52,10.43,14.53s16.06,6,25.17,6,18.21-2,25.17-6,10.42-9.27,10.42-14.53A13.22,13.22,0,0,0,1131.17,783.58Z"></path><path fill="url(#al)" d="M1121.18,666.74h0a16.79,16.79,0,0,0-5.61-4.93c-4.92-2.84-11.36-4.26-17.79-4.26S1084.9,659,1080,661.82a16.74,16.74,0,0,0-5.62,4.93h0c-2.73,3.92-4.14,8.19-.9,14.47h0a15.32,15.32,0,0,0,6.51,6.52c4.91,2.83,11.35,4.25,17.79,4.25s12.87-1.42,17.79-4.25a15.38,15.38,0,0,0,6.51-6.52h0C1125.33,674.93,1123.92,670.66,1121.18,666.74Z"></path><path fill="#5046e4" d="M1122.94,672.09c0-3.72-2.46-7.44-7.37-10.27s-11.36-4.26-17.79-4.26S1084.9,659,1080,661.82s-7.38,6.55-7.38,10.26,2.46,7.44,7.38,10.28,11.35,4.25,17.79,4.25,12.87-1.42,17.79-4.25S1122.94,675.8,1122.94,672.09Z" class="color5652cc svgShape"></path><path d="M1115.57,661.82c-4.79-2.77-11-4.17-17.28-4.25l-1.65,25.37c4.48.36,12.3,1.26,20.24-1.41,4-2.71,6.06-6.08,6.06-9.44C1122.94,668.37,1120.48,664.65,1115.57,661.82Z" style="mix-blend-mode:multiply" fill="#c4d6e9" class="colorc4cae9 svgShape"></path><path fill="url(#am)" d="M1118.23,660.91h0a14.86,14.86,0,0,0-4.91-4.31,34.34,34.34,0,0,0-31.09,0,14.6,14.6,0,0,0-4.9,4.31h0c-2.39,3.42-3.62,7.16-.78,12.64h0a13.41,13.41,0,0,0,5.69,5.69,34.34,34.34,0,0,0,31.09,0,13.41,13.41,0,0,0,5.69-5.69h0C1121.85,668.07,1120.62,664.33,1118.23,660.91Z"></path><path fill="#5046e4" d="M1119.76,665.58c0-3.25-2.14-6.49-6.44-9a34.34,34.34,0,0,0-31.09,0c-4.29,2.47-6.44,5.72-6.44,9s2.15,6.5,6.44,9a34.42,34.42,0,0,0,31.09,0C1117.62,672.08,1119.76,668.83,1119.76,665.58Z" class="color5652cc svgShape"></path><path d="M1099.48,663.44l-2.65,11.77c3.69.76,7,1.29,10.5,1.79a26,26,0,0,0,6-2.44c4.3-2.48,6.44-5.73,6.44-9s-2.14-6.49-6.44-9a24.59,24.59,0,0,0-4.78-2.09l-2.76.7Z" style="mix-blend-mode:multiply" fill="#c4d6e9" class="colorc4cae9 svgShape"></path><path fill="#5046e4" d="M1121.41,619.2c0-3.5-2.31-7-6.92-9.65s-10.67-4-16.71-4-12.1,1.33-16.72,4-6.92,6.15-6.92,9.65,2.31,7,6.92,9.65a36.92,36.92,0,0,0,33.43,0C1119.1,626.18,1121.41,622.69,1121.41,619.2Z" class="color5652cc svgShape"></path><path fill="url(#an)" d="M1114.49,628.85a36.92,36.92,0,0,1-33.43,0c-3.86-2.23-6.08-5-6.71-7.94l5.44,44.67h0c.3,2.4,2,4.75,5.22,6.59a28.17,28.17,0,0,0,25.5,0c3.18-1.84,4.91-4.19,5.22-6.59h0l5.44-44.68C1120.58,623.8,1118.35,626.62,1114.49,628.85Z"></path><path d="M1093.51,616.86c0-2.22,3.77-4,8.42-4s8.42,1.8,8.42,4-3.77,4-8.42,4S1093.51,619.07,1093.51,616.86Z" style="mix-blend-mode:multiply" fill="url(#ao)"></path><path fill="url(#k)" d="M1090.45,611.87a7.33,7.33,0,1,1,7.33,7.33A7.33,7.33,0,0,1,1090.45,611.87Z"></path><path d="M1042.69,733.4c-7.61-4.39-17.58-6.59-27.55-6.59s-19.95,2.2-27.55,6.59-11.42,10.15-11.42,15.91,3.81,11.51,11.42,15.91,17.58,6.59,27.55,6.59a66.11,66.11,0,0,0,9.87-.74l-1.41,1.55,12.06-4.19a42.93,42.93,0,0,0,7-3.21c7.61-4.39,11.41-10.15,11.41-15.91S1050.3,737.8,1042.69,733.4Z" style="mix-blend-mode:multiply" fill="url(#l)"></path><path fill="url(#j)" d="M1044.57,751c0-6.46-4.27-12.93-12.82-17.87s-19.75-7.4-31-7.4-22.41,2.47-30.95,7.4S957,744.58,957,751s4.27,12.94,12.82,17.87,19.75,7.4,30.95,7.4,22.4-2.46,31-7.4S1044.57,757.51,1044.57,751Z"></path><path fill="url(#p)" d="M1030.07,756.28c-8.08,4.66-18.68,7-29.27,7s-21.19-2.34-29.27-7-12.13-10.78-12.13-16.9v4.08c0,6.12,4.05,12.24,12.13,16.9s18.67,7,29.27,7,21.19-2.33,29.27-7,12.13-10.78,12.13-16.9v-4.08C1042.2,745.5,1038.15,751.61,1030.07,756.28Z"></path><path fill="#f6f8fb" d="M1042.2,739.38c0-6.12-4-12.24-12.13-16.9s-18.68-7-29.27-7-21.19,2.33-29.27,7-12.13,10.78-12.13,16.9,4.05,12.23,12.13,16.9,18.67,7,29.27,7,21.19-2.34,29.27-7S1042.2,745.5,1042.2,739.38Z" class="colorf6f6fb svgShape"></path><path d="M1031.66,723.45l-22.87-2.73-6.51,34c7.49,0,19.45-.29,31.1-.64,5.87-4.31,8.82-9.52,8.82-14.73C1042.2,733.68,1038.68,728,1031.66,723.45Z" style="mix-blend-mode:multiply" fill="url(#n)"></path><path fill="url(#ap)" d="M1025.78,734.05h0c-4.07-7-12.16-45.08-12.16-61.51a20.22,20.22,0,0,0-12.82,5,20.26,20.26,0,0,0-12.82-5c0,16.43-8.1,54.53-12.16,61.51h0a9.91,9.91,0,0,0-1.65,5.33c0,3.93,2.6,7.86,7.8,10.87s12,4.5,18.83,4.5,13.62-1.5,18.83-4.5,7.8-6.94,7.8-10.87A9.91,9.91,0,0,0,1025.78,734.05Z"></path><path fill="url(#aq)" d="M1019.8,662.93h0a13.57,13.57,0,0,0-4.56-4,31.88,31.88,0,0,0-28.89,0,13.63,13.63,0,0,0-4.55,4h0c-2.22,3.17-3.37,6.65-.73,11.74h0a12.46,12.46,0,0,0,5.28,5.28,31.88,31.88,0,0,0,28.89,0,12.49,12.49,0,0,0,5.29-5.28h0C1023.17,669.58,1022,666.1,1019.8,662.93Z"></path><path fill="#ffffff" d="M1021.23,667.27c0-3-2-6-6-8.34a31.88,31.88,0,0,0-28.89,0c-4,2.3-6,5.32-6,8.33s2,6,6,8.34a31.88,31.88,0,0,0,28.89,0C1019.23,673.3,1021.23,670.28,1021.23,667.27Z" class="colorffffff svgShape"></path><path d="M1015.24,658.93a25.73,25.73,0,0,0-8.12-2.87c-9.28,1-16,4.15-16,7.87,0,4.54,10.1,8.22,22.57,8.22,2.07,0,4.06-.11,6-.3a7.72,7.72,0,0,0,1.61-4.58C1021.23,664.25,1019.23,661.23,1015.24,658.93Z" style="mix-blend-mode:multiply" fill="url(#o)"></path><path fill="url(#ar)" d="M980.56,648.7A20.24,20.24,0,1,1,1000.8,669,20.24,20.24,0,0,1,980.56,648.7Z"></path><path d="M1332.23,900c-7.61-4.39-17.59-6.59-27.56-6.59s-19.94,2.2-27.55,6.59-11.41,10.15-11.41,15.91,3.81,11.51,11.41,15.91,17.58,6.58,27.55,6.58a66,66,0,0,0,9.87-.73l-1.41,1.55,12.06-4.19a43,43,0,0,0,7-3.21c7.6-4.4,11.41-10.16,11.41-15.91S1339.83,904.41,1332.23,900Z" style="mix-blend-mode:multiply" fill="url(#as)"></path><path fill="url(#at)" d="M1334.11,917.66c0-6.47-4.28-12.93-12.82-17.87s-19.75-7.4-31-7.4-22.41,2.46-31,7.4-12.82,11.4-12.82,17.87,4.28,12.94,12.83,17.87,19.74,7.4,30.95,7.4,22.4-2.47,31-7.4S1334.11,924.13,1334.11,917.66Z"></path><path fill="url(#au)" d="M1319.6,922.89c-8.08,4.67-18.67,7-29.26,7s-21.19-2.33-29.27-7-12.13-10.78-12.13-16.9v4.09c0,6.12,4,12.23,12.13,16.9s18.67,7,29.27,7,21.18-2.33,29.26-7,12.13-10.78,12.13-16.9V906C1331.73,912.11,1327.69,918.23,1319.6,922.89Z"></path><path fill="#5046e4" d="M1331.73,906c0-6.11-4-12.23-12.13-16.9s-18.67-7-29.26-7-21.2,2.33-29.27,7-12.13,10.79-12.13,16.9,4,12.23,12.13,16.9,18.67,7,29.27,7,21.18-2.33,29.26-7S1331.73,912.11,1331.73,906Z" class="color5652cc svgShape"></path><path d="M1321.2,890.07l-22.87-2.73-6.52,34c7.5,0,19.46-.28,31.11-.63,5.86-4.32,8.81-9.52,8.81-14.74C1331.73,900.3,1328.21,894.6,1321.2,890.07Z" style="mix-blend-mode:multiply" fill="url(#av)"></path><path fill="url(#aw)" d="M1315.31,900.67h0c-4.07-7-12.16-45.08-12.16-61.52a20.2,20.2,0,0,0-12.82,5,20.25,20.25,0,0,0-12.83-5c0,16.44-8.09,54.54-12.15,61.52h0a9.82,9.82,0,0,0-1.65,5.32c0,3.94,2.6,7.87,7.8,10.87s12,4.5,18.83,4.5,13.62-1.5,18.82-4.5,7.8-6.93,7.8-10.87A9.82,9.82,0,0,0,1315.31,900.67Z"></path><path fill="url(#ax)" d="M1309.34,829.54h0a13.65,13.65,0,0,0-4.55-4,32,32,0,0,0-28.89,0,13.65,13.65,0,0,0-4.55,4h0c-2.23,3.18-3.37,6.65-.74,11.75h0a12.37,12.37,0,0,0,5.28,5.29,32,32,0,0,0,28.89,0,12.46,12.46,0,0,0,5.29-5.29h0C1312.7,836.19,1311.56,832.72,1309.34,829.54Z"></path><path fill="#5046e4" d="M1310.76,833.88c0-3-2-6-6-8.34a32,32,0,0,0-28.89,0c-4,2.3-6,5.32-6,8.34s2,6,6,8.34a32,32,0,0,0,28.89,0C1308.77,839.92,1310.76,836.9,1310.76,833.88Z" class="color5652cc svgShape"></path><path d="M1304.78,825.54a25.72,25.72,0,0,0-8.12-2.86c-9.28,1-16.05,4.15-16.05,7.86,0,4.54,10.11,8.22,22.58,8.22,2.06,0,4.06-.1,6-.29a7.72,7.72,0,0,0,1.61-4.59C1310.76,830.86,1308.77,827.85,1304.78,825.54Z" style="mix-blend-mode:multiply" fill="url(#ay)"></path><path fill="url(#az)" d="M1270.09,815.32a20.25,20.25,0,1,1,20.25,20.24A20.24,20.24,0,0,1,1270.09,815.32Z"></path><path d="M1349.85,665.25c-11.38-6.57-26.3-9.86-41.22-9.86s-29.84,3.29-41.22,9.86-17.08,15.19-17.08,23.8,5.69,17.23,17.08,23.8,26.3,9.86,41.22,9.86a99.27,99.27,0,0,0,14.77-1.1l-2.11,2.32,16.83-5.83.36-.13.87-.3h0a63.11,63.11,0,0,0,10.52-4.81c11.38-6.57,17.08-15.18,17.08-23.8S1361.23,671.83,1349.85,665.25Z" style="mix-blend-mode:multiply" fill="url(#aA)"></path><path fill="url(#aB)" d="M1352,693.14c0-9.11-6-18.21-18.06-25.17s-27.82-10.42-43.59-10.42S1258.78,661,1246.74,668s-18.06,16.06-18.06,25.17,6,18.22,18.06,25.17,27.82,10.42,43.59,10.42,31.55-3.47,43.59-10.42S1352,702.25,1352,693.14Z"></path><path fill="url(#aC)" d="M1331.55,700.51c-11.38,6.57-26.3,9.86-41.22,9.86s-29.83-3.29-41.22-9.86S1232,685.33,1232,676.71v5.76c0,8.61,5.7,17.23,17.08,23.8s26.3,9.85,41.22,9.85,29.84-3.28,41.22-9.85,17.08-15.19,17.08-23.8v-5.76C1348.63,685.33,1342.94,693.94,1331.55,700.51Z"></path><path fill="#f6f8fb" d="M1348.63,676.71c0-8.61-5.69-17.22-17.08-23.8s-26.3-9.86-41.22-9.86-29.84,3.29-41.22,9.86S1232,668.09,1232,676.71s5.7,17.23,17.08,23.8,26.3,9.86,41.22,9.86,29.84-3.29,41.22-9.86S1348.63,685.33,1348.63,676.71Z" class="colorf6f6fb svgShape"></path><path d="M1277.91,698.6c13.25,0,38.73,1.34,63.11-5.26,5.06-5.14,7.61-10.88,7.61-16.63,0-8.61-5.69-17.22-17.08-23.8-1.18-.68-2.4-1.32-3.65-1.93l-6.35-.05Z" style="mix-blend-mode:multiply" fill="url(#aD)"></path><path fill="url(#q)" d="M1316.77,583.34c-12.88-7.83-33.08-10.49-53.06,22.76-7.37,12.25-11.07,32.19-12.41,41.82l6.44,3.72c1.33-6.93,7.73-28,14.88-40.39,2.37-4.11,5.29-9.5,16.72-20.92C1296.38,583.28,1316.77,583.34,1316.77,583.34Z"></path><path fill="url(#aE)" d="M1291.18,617.12a7.55,7.55,0,0,1-.58,1.19,40.76,40.76,0,0,1-4.79,7.34c-1.84,19.86-32.37,36.62-31.7,61.84,1.3,4.84,8.47,9,19.57,10.86h0a6.61,6.61,0,0,1-2-.72c-2.85-1.64-.67-13.81,7.12-26C1293.48,652.14,1310.66,628.55,1291.18,617.12Z"></path><path fill="url(#aF)" d="M1278.79,671.61c14.69-19.47,31.87-43.06,12.39-54.49a7.55,7.55,0,0,1-.58,1.19c-7,13.52-13.8,12.11-23.76,32.69,0,0-5.77.51-9.1.64,1.33-6.93,7.73-28,14.88-40.39,2.37-4.11,5.29-9.5,16.72-20.92s22.46-13.31,32.4-2.82c17.49,18.44,11.13,64.61,7.44,76.91,0,0-2.23,12.64-12.57,20s-37.56,17.48-44.94,13.22C1268.82,696,1271,683.81,1278.79,671.61Z"></path><path fill="url(#aF)" d="M1278.79,671.61c14.69-19.47,31.87-43.06,12.39-54.49a7.55,7.55,0,0,1-.58,1.19c-7,13.52-13.8,12.11-23.76,32.69,0,0-5.77.51-9.1.64,1.33-6.93,7.73-28,14.88-40.39,2.37-4.11,5.29-9.5,16.72-20.92s22.46-13.31,32.4-2.82c17.49,18.44,11.13,64.61,7.44,76.91,0,0-2.23,12.64-12.57,20s-37.56,17.48-44.94,13.22C1268.82,696,1271,683.81,1278.79,671.61Z"></path><path d="M1322.15,590.61c-3.9,2.78,7.17,13.9,5.51,37.13-1.32,18.57-7.65,40.88-24.9,64a78.3,78.3,0,0,0,13.85-7.32c10.34-7.34,12.57-20,12.57-20,3.3-11,8.73-49.17-2.72-70.27C1324.66,591.17,1323.39,589.73,1322.15,590.61Z" style="mix-blend-mode:multiply" fill="url(#r)"></path><path d="M1291.18,617.12a7.55,7.55,0,0,1-.58,1.19,40.76,40.76,0,0,1-4.79,7.34,23.12,23.12,0,0,1-1.3,5.71v0c0,4.51,1.35,13.73,9.33,18.27C1301.11,636.67,1303.62,624.42,1291.18,617.12Z" style="mix-blend-mode:multiply" fill="url(#aG)"></path><path d="M1277.18,619.1a4.3,4.3,0,0,1,1.5-3.47c1-.74,1.84-.41,2,.76a4.23,4.23,0,0,1-1.49,3.46C1278.21,620.6,1277.32,620.26,1277.18,619.1Z" style="mix-blend-mode:multiply" fill="#5046e4" class="color5652cc svgShape"></path><path d="M1291.24,599.24c3.52.56,7.22,2.41,7.22,1.21s-5.27-8.36-6.53-9.13C1291.33,593,1291.24,599.24,1291.24,599.24Z" style="mix-blend-mode:multiply" fill="url(#s)"></path><path fill="#cee3f8" d="M1284.35,593.43c.41-2.29,2.74-4.24,2.74-4.24l4.15,10A66.61,66.61,0,0,0,1284.35,593.43Z" class="colorced3f8 svgShape"></path><path fill="#bbd0e6" d="M1287.09,589.19a14.26,14.26,0,0,1,4.84,2.13c0,1.6-.14,6.74-.69,7.92A91.54,91.54,0,0,1,1287.09,589.19Z" class="colorbbc0e6 svgShape"></path><path d="M1278,590.56c2.17-.67,9.06-2.91,9.06-3.78s-6.4-1.06-6.4-1.06Z" style="mix-blend-mode:multiply" fill="url(#aH)"></path><path fill="#bbd0e6" d="M1278,590.56c1.09-1.09,2.66-3.69,2.66-4.84a21,21,0,0,0-6.85-2.58l2.37,4.2Z" class="colorbbc0e6 svgShape"></path><path fill="#cee3f8" d="M1275.13,590.76c0-3.1-.94-5.38-1.31-7.62a14.52,14.52,0,0,1,4.19,7.42S1275.84,590,1275.13,590.76Z" class="colorced3f8 svgShape"></path><polygon fill="#cee1f4" points="976.28 410.74 1006.36 428.1 1006.36 531.16 976.28 513.8 976.28 410.74" class="colorced2f4 svgShape"></polygon><polygon fill="#bbcee2" points="1036.43 410.74 1006.36 428.1 1006.36 531.16 1036.43 513.8 1036.43 410.74" class="colorbbbfe2 svgShape"></polygon><polygon fill="#f5f7fa" points="1006.36 393.37 976.28 410.74 1006.36 428.1 1036.43 410.74 1006.36 393.37" class="colorf5f5fa svgShape"></polygon><polygon fill="#342e94" points="922.28 465.36 952.36 482.73 952.36 562.24 922.28 544.87 922.28 465.36" class="color362e94 svgShape"></polygon><polygon fill="#6f196f" points="982.44 465.36 952.36 482.73 952.36 562.24 982.44 544.87 982.44 465.36" class="color20196f svgShape"></polygon><polygon fill="#5046e4" points="952.36 448 922.28 465.36 952.36 482.73 982.44 465.36 952.36 448" class="color5652cc svgShape"></polygon><polygon fill="#5046e4" points="868.29 513.8 898.36 531.16 898.36 593.3 868.29 575.93 868.29 513.8" class="color5652cc svgShape"></polygon><polygon fill="#453eaf" points="928.44 513.8 898.36 531.16 898.36 593.3 928.44 575.93 928.44 513.8" class="color423eaf svgShape"></polygon><polygon fill="#857dfb" points="898.36 496.44 868.29 513.8 898.36 531.16 928.44 513.8 898.36 496.44" class="color807dfb svgShape"></polygon><polygon fill="#fc06cf" points="814.29 564.84 844.37 582.2 844.37 624.37 814.29 607 814.29 564.84" class="colorfcba06 svgShape"></polygon><polygon fill="#e100b8" points="874.45 564.84 844.37 582.2 844.37 624.37 874.45 607 874.45 564.84" class="colore19100 svgShape"></polygon><polygon fill="#3e9eff" points="844.37 547.47 814.29 564.84 844.37 582.2 874.45 564.84 844.37 547.47" class="colorffd03e svgShape"></polygon><path d="M1370.92,768.29c-5.74-3.31-13.36-4.83-20.85-4.61h-11.74v1.92a31.47,31.47,0,0,0-6.22,2.69c-10.67,6.21-10.61,16.27.13,22.48a31.28,31.28,0,0,0,6.09,2.64v2h14.08c6.77-.11,13.48-1.65,18.64-4.64C1381.73,784.56,1381.67,774.5,1370.92,768.29Z" style="mix-blend-mode:multiply" fill="url(#aI)"></path><path fill="url(#aJ)" d="M1320.15,790.78c-5.41-3.12-8.12-7.22-8.1-11.31l0-9.34c0,4.1,2.69,8.2,8.1,11.32,10.75,6.21,28.13,6.21,38.8,0,5.31-3.09,8-7.12,8-11.17l0,9.33c0,4-2.67,8.08-8,11.17C1348.27,797,1330.9,797,1320.15,790.78Z"></path><path fill="#eff2f5" d="M1320.17,781.45c-10.75-6.2-10.81-16.27-.13-22.47s28.06-6.21,38.81,0,10.8,16.27.12,22.48S1330.92,787.66,1320.17,781.45Z" class="coloreff1f5 svgShape"></path><polygon fill="#b9d0e8" points="1351.29 763.12 1345.85 769.28 1354.32 774.18 1342.48 773.09 1337.04 779.26 1335.17 772.42 1323.33 771.34 1334.01 768.2 1332.13 761.37 1340.61 766.26 1351.29 763.12" class="colorb9bfe8 svgShape"></polygon><path d="M1246.46,561.79c-9.3-5.37-21.66-7.85-33.8-7.48h-19v3.11a50.87,50.87,0,0,0-10.07,4.37c-17.31,10.06-17.21,26.37.21,36.44a51,51,0,0,0,9.86,4.27v3.26h22.83c11-.18,21.86-2.68,30.22-7.53C1264,588.16,1263.89,571.85,1246.46,561.79Z" style="mix-blend-mode:multiply" fill="url(#aK)"></path><path fill="#4ca5ff" d="M1150.25,568.19c0-6.44,4.26-12.87,12.76-17.79s19.66-7.36,30.81-7.36,22.3,2.45,30.8,7.36,12.76,11.35,12.77,17.79-4.26,12.88-12.77,17.79-19.65,7.36-30.8,7.36-22.3-2.45-30.81-7.36S1150.25,574.63,1150.25,568.19Z" class="colorffe54c svgShape"></path><path fill="url(#t)" d="M1224.62,586c-8.5,4.91-19.65,7.36-30.8,7.36s-22.3-2.45-30.81-7.36-12.76-11.35-12.76-17.79v12.42c0,6.43,4.26,12.87,12.76,17.78s19.66,7.37,30.81,7.37,22.3-2.45,30.8-7.37,12.77-11.35,12.77-17.78V568.19C1237.39,574.63,1233.13,581.07,1224.62,586Z"></path><path fill="#3e9eff" d="M1168.8,582.63c6.91,4,16,6,25,6s18.11-2,25-6c6.37-3.68,9.8-8.41,10.29-13.23-.49-4.81-3.92-9.55-10.29-13.23-6.91-4-16-6-25-6s-18.11,2-25,6c-6.37,3.68-9.8,8.41-10.29,13.23C1159,574.22,1162.43,579,1168.8,582.63Z" class="colorffd03e svgShape"></path><path fill="#e100b8" d="M1168.8,556.17c6.91-4,16-6,25-6s18.11,2,25,6c6.37,3.68,9.8,8.42,10.29,13.23,0-.4.07-.81.07-1.21,0-5.23-3.45-10.46-10.36-14.44s-16-6-25-6-18.11,2-25,6-10.37,9.21-10.36,14.44c0,.4,0,.81.07,1.21C1159,564.58,1162.43,559.85,1168.8,556.17Z" class="colore19100 svgShape"></path><polygon fill="#e100b8" points="1211.25 563 1214.6 561.06 1214.6 558.64 1211.25 560.58 1211.25 563" class="colore19100 svgShape"></polygon><path fill="#4ca5ff" d="M1195.81,567a2.84,2.84,0,0,1,0-5.39,10.34,10.34,0,0,1,9.35,0c2.57,1.48,2.57,3.9,0,5.39l4.24,2.45c4.18-2.42,4.79-6.12,1.85-8.91l3.35-1.94-4.24-2.45-3.35,1.94c-4.84-1.7-11.25-1.35-15.44,1.07-2.38,1.37-3.69,3.2-3.69,5.14s1.31,3.77,3.69,5.15c2.58,1.48,2.58,3.9,0,5.4a10.38,10.38,0,0,1-9.34,0c-2.58-1.5-2.58-3.91,0-5.4L1178,567c-4.18,2.42-4.79,6.11-1.86,8.91l-3.08,1.78,4.24,2.46,3.08-1.79c4.85,1.7,11.26,1.35,15.44-1.07C1200.73,574.5,1200.73,569.88,1195.81,567Z" class="colorffe54c svgShape"></path><polygon fill="#fc06cf" points="1173.05 580.16 1177.29 582.61 1177.29 580.18 1173.05 577.73 1173.05 580.16" class="colorfcba06 svgShape"></polygon><polygon fill="#e100b8" points="1177.29 582.61 1180.37 580.82 1180.37 578.4 1177.29 580.18 1177.29 582.61" class="colore19100 svgShape"></polygon><polygon fill="#fc06cf" points="1205.16 569.46 1209.4 571.91 1209.4 569.49 1205.16 567.04 1205.16 569.46" class="colorfcba06 svgShape"></polygon><path fill="#e100b8" d="M1182.23,571.91v-2.42c-1.83,1-2.35,2.58-1.59,3.9A4.26,4.26,0,0,1,1182.23,571.91Z" class="colore19100 svgShape"></path><path fill="#fc06cf" d="M1174.31 572.06v2.73h0a4.61 4.61 0 00.53 1.9l1.28-.74a5.21 5.21 0 01-1.81-3.88zM1191.57 571.91a4.18 4.18 0 011.59 1.48c.76-1.32.24-2.85-1.59-3.9-2.38-1.38-3.69-3.2-3.69-5.15v2.42C1187.88 568.71 1189.19 570.53 1191.57 571.91zM1199.5 572.17v0h0z" class="colorfcba06 svgShape"></path><path fill="#e100b8" d="M1213.07,564.34c0,1.86-1.22,3.73-3.67,5.15v2.42c2.52-1.46,3.73-3.38,3.66-5.29h0v-2.29Z" class="colore19100 svgShape"></path><path fill="url(#aL)" d="M1195.81,577.33c-4.18,2.42-10.59,2.77-15.44,1.07v2.42c4.85,1.7,11.26,1.35,15.44-1.07,2.44-1.41,3.67-3.25,3.68-5.1h0V572.2C1199.49,574.06,1198.26,575.92,1195.81,577.33Z"></path><path fill="#e100b8" d="M1205.16,561.65a10.34,10.34,0,0,0-9.35,0,3.29,3.29,0,0,0-1.94,2.69,2.42,2.42,0,0,0,.35,1.21,4.25,4.25,0,0,1,1.59-1.48,10.37,10.37,0,0,1,9.35,0,4.18,4.18,0,0,1,1.58,1.5C1207.51,564.22,1207,562.7,1205.16,561.65Z" class="colore19100 svgShape"></path><path d="M913.18,1258.53c-5.73-3.32-13.36-4.85-20.85-4.62H880.58v1.92a31.07,31.07,0,0,0-6.21,2.7c-10.68,6.21-10.61,16.27.13,22.48a30.82,30.82,0,0,0,6.08,2.63v2h14.09c6.78-.11,13.49-1.65,18.64-4.64C924,1274.8,923.94,1264.74,913.18,1258.53Z" style="mix-blend-mode:multiply" fill="url(#aM)"></path><path fill="url(#aN)" d="M862.4,1281c-5.4-3.13-8.11-7.23-8.1-11.32l0-9.34c0,4.1,2.69,8.2,8.1,11.33,10.75,6.2,28.13,6.2,38.81,0,5.31-3.09,8-7.12,8-11.16l0,9.33c0,4-2.67,8.07-8,11.16C890.54,1287.23,873.16,1287.23,862.4,1281Z"></path><path fill="#f6f8fb" d="M862.43,1271.69c-10.75-6.21-10.81-16.28-.13-22.48s28.06-6.21,38.81,0,10.81,16.27.13,22.48S873.18,1277.89,862.43,1271.69Z" class="colorf6f6fb svgShape"></path><polygon fill="#bbd0e6" points="895.85 1259.17 875.54 1260.2 876.17 1255.63 870.56 1255.63 869.04 1263.96 895.85 1262.41 895.85 1259.17" class="colorbbc0e6 svgShape"></polygon><path fill="url(#aO)" d="M500.84,1191.86a2.83,2.83,0,0,1,1.23-1.19c2.82-1.63,9.26-2,12.13-2l0-5.92c-3.73.14-12.15-.56-13.32-3.21a16.35,16.35,0,0,0-1.75-2.46c-2.38-2.36,3.1-6.31,5.57-7.74l-7.2-4.18H482.64V1168c-.9-.23-1.8-.48-2.72-.66-4.57-.69-5.51-5.72-5.5-7.73H464.2c0,1.66-.68,5.39-3.51,7a5.82,5.82,0,0,1-2.07.71c-1.44.28-2.87.62-4.25,1-4.71,1-10.87-1.78-13.33-3.2l-7.25,4.18c2.45,1.43,7.88,5.38,5.48,7.74a16.51,16.51,0,0,0-1.77,2.46,2.83,2.83,0,0,1-1.23,1.19c-2.82,1.63-9.26,2-12.15,2l0,5.93c3.48,0,12.16.55,13.33,3.2.08.14.18.27.26.41h-16v14h19.15c1.91-1.1,6.42-3.23,10.24-3.5v9h23.07c.16-1.75.75-5.42,3.53-7a4.31,4.31,0,0,1,.49-.22v1.7H497.3l7.25-4.18c-2.46-1.43-7.89-5.38-5.49-7.74A16.6,16.6,0,0,0,500.84,1191.86Zm-44.52,1.26c-7.06-4.11-7-10.75.08-14.84s21.74,14,21.74,14v2.52C471.21,1197.09,462.22,1196.54,456.32,1193.12Z"></path><path fill="#f7f9fc" d="M420.72,1158.51c0-2.3-4.06-5.19-6.09-6.37l.05,17.27c2,1.18,6.08,4.07,6.09,6.37Z" class="colorf7f7fc svgShape"></path><path fill="#bdd0e4" d="M485.63,1169.41l-.05-17.27c-2.05,1.18-6.16,4.1-6.16,6.4l.05,17.28C479.47,1173.51,483.58,1170.6,485.63,1169.41Z" class="colorbdc1e4 svgShape"></path><path fill="url(#aP)" d="M437.3,1178.36c7.1-4.1,18.56-4.1,25.62,0,3.5,2,5.25,4.7,5.26,7.37l-.05-17.28c0-2.67-1.76-5.33-5.26-7.37-7.06-4.1-18.52-4.1-25.62,0-3.57,2.06-5.36,4.77-5.35,7.47l.05,17.27C431.94,1183.12,433.73,1180.42,437.3,1178.36Z"></path><polygon fill="#d0e3f6" points="421.65 1189.05 414.45 1184.86 414.5 1202.13 421.71 1206.32 421.65 1189.05" class="colord0d4f6 svgShape"></polygon><polygon fill="#a3b9d0" points="485.45 1202.13 485.4 1184.86 478.14 1189.05 478.19 1206.32 485.45 1202.13" class="colora3a9d0 svgShape"></polygon><path fill="url(#aQ)" d="M435.07,1203.12c1.38.39,2.8.73,4.25,1,4.5.67,5.47,5.58,5.48,7.65l-.05-17.27c0-2.07-1-7-5.48-7.66-1.45-.28-2.87-.62-4.24-1-4.07-1.38-10.9,1.78-13.37,3.21l0,17.27C424.18,1204.89,431,1201.73,435.07,1203.12Z"></path><path fill="url(#aR)" d="M458.55,1204.84a5.69,5.69,0,0,1,2.06-.7c1.45-.29,2.85-.62,4.24-1,4.09-1.39,10.89,1.77,13.34,3.2l-.05-17.27c-2.45-1.43-9.25-4.59-13.34-3.2-1.38.39-2.79.73-4.24,1a6,6,0,0,0-2.06.7c-2.78,1.61-3.37,5.29-3.53,7l0,17.27C455.18,1210.12,455.77,1206.44,458.55,1204.84Z"></path><path fill="#eaf1f9" d="M420,1177.13c2.38,2.35-3.1,6.3-5.57,7.73l7.21,4.19c2.47-1.43,9.3-4.59,13.37-3.21,1.37.4,2.79.74,4.24,1,4.56.69,5.5,5.72,5.48,7.74H455c.16-1.75.75-5.43,3.53-7a6,6,0,0,1,2.06-.7c1.45-.28,2.86-.62,4.24-1,4.09-1.39,10.89,1.77,13.34,3.2l7.26-4.19c-2.46-1.43-7.89-5.38-5.49-7.73a17.21,17.21,0,0,0,1.78-2.47,2.83,2.83,0,0,1,1.23-1.19c2.81-1.63,9.25-2,12.13-2l0-5.92c-3.73.15-12.16-.56-13.33-3.21a16.78,16.78,0,0,0-1.74-2.46c-2.38-2.36,3.1-6.3,5.57-7.73l-7.21-4.19c-2.47,1.43-9.31,4.59-13.36,3.2-1.39-.39-2.8-.73-4.25-1-4.56-.68-5.5-5.71-5.49-7.72H445c0,1.67-.68,5.4-3.5,7a5.69,5.69,0,0,1-2.07.7c-1.45.29-2.87.63-4.25,1-4.71,1-10.88-1.77-13.33-3.2l-7.26,4.19c2.46,1.43,7.89,5.38,5.49,7.73a16.6,16.6,0,0,0-1.78,2.46,2.8,2.8,0,0,1-1.23,1.2c-2.82,1.63-9.25,2-12.14,2l0,5.92c3.48,0,12.16.56,13.32,3.2A16.94,16.94,0,0,0,420,1177.13Zm17.23-16.05c7.1-4.1,18.56-4.1,25.62,0s7,10.74-.09,14.84-18.56,4.1-25.61,0S430.15,1165.18,437.25,1161.08Z" class="coloreaeef9 svgShape"></path><path fill="#cee3f8" d="M414.45,1184.86c2.47-1.43,7.95-5.38,5.57-7.73a16.94,16.94,0,0,1-1.75-2.47c-1.16-2.64-9.84-3.2-13.32-3.2l.05,17.27a43.42,43.42,0,0,1,9.46,1Z" class="colorced3f8 svgShape"></path><polygon fill="#bdd0e4" points="455.02 1211.87 454.97 1194.6 444.75 1194.6 444.8 1211.87 455.02 1211.87" class="colorbdc1e4 svgShape"></polygon><path fill="url(#aS)" d="M495.09,1188.73l0-17.27c-2.88,0-9.32.38-12.13,2a2.83,2.83,0,0,0-1.23,1.19,17.21,17.21,0,0,1-1.78,2.47c-2.4,2.35,3,6.3,5.49,7.73v5A42.7,42.7,0,0,1,495.09,1188.73Z"></path><polygon points="492.9 862.55 586.03 916.32 351.32 1051.82 653.86 995.46 839.32 891.55 831.98 887.32 492.9 862.55" style="mix-blend-mode:multiply" fill="url(#aT)"></polygon><path fill="#cee3f8" d="M258.2,998.06l93.12,53.76L308.43,856.06l-7.34-4.24Zm9.28-2.46,37.28-127.06L342,1038.65Z" class="colorced3f8 svgShape"></path><polygon fill="#342e94" points="267.48 995.6 325.29 962.23 304.76 868.54 267.48 995.6" class="color362e94 svgShape"></polygon><polygon fill="#5046e4" points="267.48 995.6 342.03 1038.65 325.29 962.23 267.48 995.6" class="color5652cc svgShape"></polygon><polygon fill="#f7f9fc" points="301.09 851.82 535.81 716.31 543.14 720.55 308.43 856.06 301.09 851.82" class="colorf7f7fc svgShape"></polygon><path fill="#f6f8fb" d="M308.43,856.06q117.36-67.74,234.71-135.51Q564.56,818.44,586,916.32l-234.71,135.5Q329.86,953.95,308.43,856.06Z" class="colorf6f6fb svgShape"></path><path fill="#fc06cf" d="M313.87,880.87Q431.31,813.49,548.74,746.1c-2.43-11.06-3.57-16.27-5.6-25.55Q425.8,788.31,308.43,856.06C310.38,865,311.5,870.05,313.87,880.87Z" class="colorfcba06 svgShape"></path><path fill="#6b1c6b" d="M432.74 790.63l-11.16 6.42c1.07 4.85 1.62 7.42 2.79 12.75l11.16-6.42C434.37 798.06 433.8 795.49 432.74 790.63zM395.08 812.33l-11.15 6.42 2.78 12.68L397.86 825C396.7 819.71 396.14 817.16 395.08 812.33zM357.43 834l-11.15 6.43 2.77 12.62 11.14-6.42C359 841.38 358.49 838.84 357.43 834zM459.24 775.35l11.14-6.43c1.08 4.89 1.65 7.47 2.82 12.83L462 788.15C460.87 782.8 460.31 780.23 459.24 775.35zM496.89 753.65L508 747.22c1.08 4.92 1.65 7.51 2.82 12.89l-11.15 6.4C498.53 761.14 498 758.55 496.89 753.65z" class="color1e1c6b svgShape"></path><polygon points="360.8 825.82 346.14 825.82 335.61 831.89 350.27 831.89 360.8 825.82" style="mix-blend-mode:multiply" fill="url(#u)"></polygon><polygon points="398.81 803.91 384.14 803.91 373.62 809.99 388.28 809.99 398.81 803.91" style="mix-blend-mode:multiply" fill="url(#aU)"></polygon><polygon points="436.81 782 422.15 782 411.63 788.08 426.29 788.08 436.81 782" style="mix-blend-mode:multiply" fill="url(#aV)"></polygon><polygon points="474.82 760.09 460.16 760.09 449.64 766.16 464.3 766.16 474.82 760.09" style="mix-blend-mode:multiply" fill="url(#aW)"></polygon><polygon points="512.83 738.18 498.17 738.18 487.64 744.25 502.3 744.25 512.83 738.18" style="mix-blend-mode:multiply" fill="url(#aX)"></polygon><path fill="#a7bace" d="M349.56,842.47l4.31-2.68C353.59,841.64,351.39,842.31,349.56,842.47Z" class="colora7adce svgShape"></path><path fill="#cee3f8" d="M343.92,814.81c-6.27-3.61-11.35-.69-11.36,6.55a22.86,22.86,0,0,0,3.05,10.54l-3.78,2.18a33.61,33.61,0,0,1-4.6-15.8c0-10.64,7.47-14.95,16.68-9.62s16.68,18.24,16.68,28.88c0,7.67-3.9,12-9.52,11.83l-1.51-6.9c3.39-.3,5.7-3.15,5.7-8C355.26,827.22,350.18,818.43,343.92,814.81Z" class="colorced3f8 svgShape"></path><path fill="#a7bace" d="M339.73,813.34a10.13,10.13,0,0,0-1,4.46,22.72,22.72,0,0,0,3,10.53l-6.16,3.57a22.86,22.86,0,0,1-3.05-10.54C332.57,815.84,335.54,812.85,339.73,813.34Z" class="colora7adce svgShape"></path><path fill="url(#v)" d="M337.83,804.29c3.05-2.07,7.38-2,12.24.81,9.22,5.31,16.68,18.24,16.68,28.88,0,5.67-2.14,9.48-5.52,11v0l-6.15,3.56v0c3.37-1.55,5.51-5.37,5.51-11,0-10.64-7.46-23.57-16.68-28.88-4.49-2.6-8.55-2.87-11.55-1.27l5.41-3.13Z"></path><path fill="#a7bace" d="M387.21,820.77l4.31-2.69C391.24,819.93,389,820.6,387.21,820.77Z" class="colora7adce svgShape"></path><path fill="#cee3f8" d="M381.57,793.11c-6.27-3.62-11.35-.69-11.35,6.54a22.67,22.67,0,0,0,3,10.54l-3.79,2.18a33.44,33.44,0,0,1-4.59-15.79c0-10.64,7.46-15,16.68-9.63s16.68,18.25,16.67,28.89c0,7.66-3.9,12-9.52,11.83l-1.51-6.9c3.39-.31,5.71-3.16,5.7-8C392.91,805.52,387.84,796.73,381.57,793.11Z" class="colorced3f8 svgShape"></path><path fill="#a7bace" d="M377.39,791.64a9.91,9.91,0,0,0-1,4.45,22.67,22.67,0,0,0,3.05,10.54l-6.16,3.56a22.67,22.67,0,0,1-3-10.54C370.22,794.13,373.19,791.14,377.39,791.64Z" class="colora7adce svgShape"></path><path fill="url(#aY)" d="M375.48,782.59c3-2.07,7.39-2,12.25.8,9.21,5.32,16.67,18.25,16.67,28.89,0,5.66-2.13,9.47-5.51,11h0l-6.16,3.56h0c3.37-1.56,5.52-5.37,5.51-11,0-10.64-7.46-23.57-16.67-28.89-4.5-2.6-8.56-2.87-11.55-1.26l5.4-3.13Z"></path><path fill="#a7bace" d="M424.87,799.06l4.3-2.68C428.89,798.23,426.69,798.89,424.87,799.06Z" class="colora7adce svgShape"></path><path fill="#cee3f8" d="M419.22,771.4c-6.26-3.62-11.35-.69-11.35,6.55a22.66,22.66,0,0,0,3.05,10.53l-3.79,2.19a33.74,33.74,0,0,1-4.59-15.8c0-10.64,7.46-15,16.68-9.63s16.68,18.25,16.68,28.89c0,7.67-3.91,12-9.52,11.83l-1.51-6.9c3.39-.3,5.7-3.16,5.7-8C430.57,783.81,425.49,775,419.22,771.4Z" class="colorced3f8 svgShape"></path><path fill="#a7bace" d="M415,769.93a10,10,0,0,0-1,4.46,22.63,22.63,0,0,0,3.05,10.53l-6.16,3.56A22.66,22.66,0,0,1,407.87,778C407.87,772.42,410.85,769.44,415,769.93Z" class="colora7adce svgShape"></path><path fill="url(#aZ)" d="M413.14,760.88c3.05-2.07,7.38-2,12.24.8,9.22,5.32,16.68,18.25,16.67,28.89,0,5.66-2.13,9.48-5.51,11v0l-6.16,3.56v0c3.38-1.55,5.52-5.37,5.52-11,0-10.64-7.47-23.57-16.68-28.89-4.5-2.59-8.55-2.86-11.55-1.26l5.41-3.13Z"></path><path fill="#a7bace" d="M462.52,777.36l4.31-2.69C466.55,776.52,464.35,777.19,462.52,777.36Z" class="colora7adce svgShape"></path><path fill="#cee3f8" d="M456.88,749.69c-6.27-3.61-11.35-.69-11.36,6.55a22.72,22.72,0,0,0,3.06,10.54L444.79,769a33.6,33.6,0,0,1-4.6-15.79c0-10.64,7.47-14.95,16.68-9.63s16.68,18.25,16.68,28.88c0,7.67-3.9,12-9.52,11.83l-1.51-6.89c3.39-.31,5.7-3.16,5.7-8C468.22,762.11,463.14,753.31,456.88,749.69Z" class="colorced3f8 svgShape"></path><path fill="#a7bace" d="M452.69,748.22a10,10,0,0,0-1,4.46,22.79,22.79,0,0,0,3.05,10.54l-6.15,3.56a22.72,22.72,0,0,1-3.06-10.54C445.53,750.72,448.5,747.73,452.69,748.22Z" class="colora7adce svgShape"></path><path fill="url(#ba)" d="M450.79,739.18c3-2.07,7.38-2,12.24.8,9.22,5.31,16.68,18.25,16.68,28.88,0,5.67-2.14,9.48-5.52,11h0L468,783.47h0c3.37-1.56,5.51-5.38,5.51-11,0-10.63-7.46-23.56-16.68-28.88-4.5-2.6-8.55-2.87-11.55-1.27l5.41-3.12Z"></path><path fill="#a7bace" d="M500.18,755.65l4.3-2.69C504.2,754.81,502,755.48,500.18,755.65Z" class="colora7adce svgShape"></path><path fill="#cee3f8" d="M494.53,728c-6.27-3.62-11.35-.69-11.35,6.55a22.55,22.55,0,0,0,3.05,10.53l-3.79,2.19a33.51,33.51,0,0,1-4.59-15.8c0-10.64,7.46-15,16.68-9.63s16.68,18.25,16.67,28.89c0,7.66-3.9,12-9.52,11.83l-1.5-6.9c3.38-.3,5.7-3.16,5.69-8C505.87,740.4,500.8,731.61,494.53,728Z" class="colorced3f8 svgShape"></path><path fill="#a7bace" d="M490.35,726.52a10,10,0,0,0-1,4.46,22.65,22.65,0,0,0,3,10.53l-6.15,3.56a22.55,22.55,0,0,1-3.05-10.53C483.18,729,486.15,726,490.35,726.52Z" class="colora7adce svgShape"></path><path fill="url(#bb)" d="M488.44,717.47c3.05-2.07,7.39-2,12.25.8,9.21,5.32,16.67,18.25,16.67,28.89,0,5.66-2.13,9.48-5.51,11h0l-6.16,3.56h0c3.37-1.55,5.52-5.37,5.51-11,0-10.64-7.46-23.57-16.67-28.89C490,719.23,486,719,483,720.57l5.4-3.13Z"></path><polygon points="267.48 995.6 332.37 995.6 325.29 962.23 267.48 995.6" style="mix-blend-mode:multiply" fill="#d1e2f3" class="colord1d7f3 svgShape"></polygon><polygon fill="#6f67e9" points="481.72 866.33 423.63 899.87 430.12 924.57 488.21 891.03 481.72 866.33 481.72 866.33" class="color6b67e9 svgShape"></polygon><polygon fill="#453eaf" points="458.28 916.16 431.91 931.39 434.26 940.34 460.63 925.11 458.28 916.16 458.28 916.16" class="color423eaf svgShape"></polygon><path fill="#fc06cf" d="M437.1 823.75c-5.87 3.39-9 12.21-7.07 19.7s8.32 10.8 14.18 7.41 9-12.2 7.06-19.68-8.31-10.81-14.17-7.43zM507.94 849.81c-5.87 3.39-9 12.2-7.06 19.68s8.31 10.82 14.18 7.43 9-12.21 7.07-19.69-8.32-10.8-14.19-7.42zM467.63 940c-5.87 3.39-9 12.21-7.06 19.7s8.31 10.8 14.18 7.41 9-12.2 7.06-19.68-8.31-10.81-14.18-7.43zM396.78 914c-5.87 3.39-9 12.19-7.06 19.68s8.31 10.82 14.18 7.43 9-12.2 7.06-19.69-8.31-10.81-14.18-7.42z" class="colorfcba06 svgShape"></path><path fill="#cee3f8" d="M512.84,883.91a2.44,2.44,0,0,0-1.08,1.91c-1.34,16.91-8.78,34.43-20.19,48.09l1.71-5.82a2.11,2.11,0,0,0-.88-2.6,1.22,1.22,0,0,0-1.1.1,2.23,2.23,0,0,0-1,1.33l-3.8,13a2.6,2.6,0,0,0,.19,2,1.3,1.3,0,0,0,1.4.67l10.13-2.36a1.32,1.32,0,0,0,.39-.15,2.53,2.53,0,0,0,1.08-2.28c-.07-1.14-.83-1.91-1.71-1.71l-4.63,1.08c12.3-14.55,20.07-32.89,21.53-51.28.1-1.17-.54-2.11-1.41-2.11a1.22,1.22,0,0,0-.66.18ZM408.73,944a1.85,1.85,0,0,0-.63.62,2.77,2.77,0,0,0-.41,2l2.47,12.68c.22,1.1,1.07,1.66,1.92,1.27l.13-.07a2.53,2.53,0,0,0,1-2.62L412.08,952c10.48,10.22,25,14.18,40.83,10.87a1.29,1.29,0,0,0,.41-.16,2.5,2.5,0,0,0,1.08-2.25c0-1.15-.8-1.92-1.67-1.75-14.54,3.06-28.4-.61-38.2-9.82l4.3.64a1.26,1.26,0,0,0,.84-.18,2.32,2.32,0,0,0,1-1.67,1.88,1.88,0,0,0-1.21-2.33l-9.94-1.49a1.25,1.25,0,0,0-.83.18Zm49.8-115.82a2.5,2.5,0,0,0-1.08,2.26c0,1.15.79,1.93,1.67,1.74,14.53-3,28.38.62,38.19,9.83l-4.3-.64a1.31,1.31,0,0,0-.84.17,2.41,2.41,0,0,0-1.05,1.69c-.18,1.15.36,2.2,1.23,2.32l9.93,1.49a1.34,1.34,0,0,0,.84-.18,1.92,1.92,0,0,0,.63-.61,2.79,2.79,0,0,0,.4-2l-2.47-12.7c-.21-1.09-1.07-1.65-1.93-1.26l-.11.06a2.59,2.59,0,0,0-1,2.63l1.16,5.94c-10.48-10.23-25-14.19-40.82-10.89a1.59,1.59,0,0,0-.41.16ZM413.2,850.87a2.5,2.5,0,0,0-1.07,2.28c.06,1.15.82,1.91,1.69,1.71l4.64-1.08a92,92,0,0,0-21.53,51.28c-.09,1.16.53,2.12,1.4,2.12A1.37,1.37,0,0,0,399,907a2.43,2.43,0,0,0,1.07-1.91c1.35-16.9,8.79-34.43,20.19-48.08l-1.7,5.81a2.13,2.13,0,0,0,.87,2.61,1.26,1.26,0,0,0,1.1-.11,2.28,2.28,0,0,0,1-1.32l3.79-13a2.53,2.53,0,0,0-.17-2,1.28,1.28,0,0,0-1.4-.67l-10.14,2.35a1.32,1.32,0,0,0-.39.15Z" class="colorced3f8 svgShape"></path><path d="M680.58,1023.81l-46.46-3.91a36.78,36.78,0,0,0-8.1-6.19c-9.58-5.52-22.12-8.29-34.66-8.29s-25.1,2.77-34.66,8.29-14.36,12.77-14.36,20,4.78,14.49,14.36,20,22.11,8.29,34.66,8.29a84,84,0,0,0,12.41-.92l-1.77,2,14.15-4.91.31-.11.72-.25h0a54.56,54.56,0,0,0,8.85-4l.9-.55c11.63,0,28.88-.37,45-.72,9.64-5.08,14.49-11.17,14.49-17.28C686.45,1031.31,684.48,1027.43,680.58,1023.81Z" style="mix-blend-mode:multiply" fill="url(#bc)"></path><path fill="url(#bd)" d="M627.8,1037.16c0-7.66-5.06-15.32-15.18-21.16s-23.38-8.77-36.65-8.77-26.53,2.92-36.65,8.77-15.18,13.5-15.18,21.16,5.06,15.32,15.18,21.16,23.39,8.77,36.65,8.77,26.53-2.93,36.65-8.77S627.8,1044.82,627.8,1037.16Z"></path><path fill="url(#be)" d="M610.63,1043.36c-9.57,5.52-22.12,8.29-34.66,8.29s-25.09-2.77-34.66-8.29-14.36-12.77-14.36-20v4.84c0,7.25,4.79,14.49,14.36,20s22.12,8.28,34.66,8.28,25.09-2.76,34.66-8.28,14.36-12.77,14.36-20v-4.84C625,1030.59,620.2,1037.83,610.63,1043.36Z"></path><path fill="#5046e4" d="M625,1023.34c0-7.24-4.79-14.48-14.36-20S588.51,995,576,995s-25.09,2.76-34.66,8.29-14.36,12.77-14.36,20,4.79,14.49,14.36,20,22.12,8.29,34.66,8.29,25.09-2.77,34.66-8.29S625,1030.59,625,1023.34Z" class="color5652cc svgShape"></path><path d="M580.83,1041.35c8.09,0,21.49-.34,33.95-.73,6.8-5.08,10.21-11.17,10.21-17.28a18.8,18.8,0,0,0-4.13-11.37l-33.63-4Z" style="mix-blend-mode:multiply" fill="url(#bf)"></path><path fill="url(#bg)" d="M608.75,1014.39h0c-5.33-9.16-11.28-72.79-11.28-94.36h-43c0,21.57-5.94,85.2-11.28,94.36h0a13,13,0,0,0-2.16,7c0,5.16,3.41,10.32,10.24,14.26s15.76,5.91,24.7,5.91,17.88-2,24.71-5.91,10.23-9.1,10.23-14.26A12.9,12.9,0,0,0,608.75,1014.39Z"></path><path fill="url(#bh)" d="M602,912.77h0a18.91,18.91,0,0,0-6.25-5.5c-5.47-3.16-12.64-4.73-19.81-4.73s-14.34,1.57-19.81,4.73a18.8,18.8,0,0,0-6.25,5.5h0c-3,4.36-4.62,9.12-1,16.11h0a17,17,0,0,0,7.25,7.25c5.47,3.16,12.64,4.74,19.81,4.74s14.34-1.58,19.81-4.74a17,17,0,0,0,7.25-7.25h0C606.65,921.89,605.08,917.13,602,912.77Z"></path><path fill="#5046e4" d="M604,918.72c0-4.14-2.74-8.28-8.21-11.44s-12.64-4.73-19.81-4.73-14.34,1.57-19.81,4.73-8.21,7.3-8.21,11.44,2.74,8.28,8.21,11.44,12.64,4.73,19.81,4.73,14.34-1.58,19.81-4.73S604,922.86,604,918.72Z" class="color5652cc svgShape"></path><path d="M578.14,916l-3.37,15c4.69,1,8.87,1.64,13.37,2.28a33.15,33.15,0,0,0,7.64-3.11c5.47-3.16,8.21-7.3,8.21-11.44s-2.74-8.28-8.21-11.44a31.92,31.92,0,0,0-6.09-2.65l-3.52.88Z" style="mix-blend-mode:multiply" fill="#c4d6e9" class="colorc4cae9 svgShape"></path><path fill="#6f67e9" d="M551.58,898.78c13.47-7.78,35.31-7.78,48.78,0s13.47,20.39,0,28.16-35.31,7.78-48.78,0S538.11,906.56,551.58,898.78Z" class="color6b67e9 svgShape"></path><path fill="url(#y)" d="M610.45,913.08c-.09,5-3.45,10-10.09,13.86-13.47,7.78-35.31,7.78-48.78,0-6.64-3.83-10-8.84-10.09-13.86h0v5.66c0,5.09,3.38,10.17,10.1,14.06,13.47,7.78,35.31,7.78,48.78,0,6.73-3.89,10.09-9,10.1-14.06h0v-5.66Z"></path><path d="M575.18,901.7a33.07,33.07,0,0,1,8.45-3.31l-1.87-4H563.21L551,902.65l-2.06-.19V925.2h18.55l5.12-3C564.63,916.06,565.48,907.3,575.18,901.7Z" style="mix-blend-mode:multiply" fill="url(#bi)"></path><path fill="#857dfb" d="M556.63,886.73a33.07,33.07,0,0,1,8.45-3.31l-1.87-4a42.21,42.21,0,0,0-11.63,4.42c-12.5,7.22-13.39,18.6-2.68,26.42l5.12-3C546.07,901.09,546.93,892.33,556.63,886.73Z" class="color807dfb svgShape"></path><path fill="url(#bj)" d="M541.51,898l0,0v15l0,0c.06,4.32,2.5,8.63,7.39,12.2v-15C544,906.66,541.57,902.35,541.51,898Z"></path><polygon fill="#453eaf" points="548.9 925.2 554.02 922.25 554.02 907.27 548.9 910.23 548.9 925.2" class="color423eaf svgShape"></polygon><path fill="url(#bk)" d="M556.63,886.73c-8.74,5-10.27,12.64-4.7,18.62a20.36,20.36,0,0,1,4.7-3.65,33.07,33.07,0,0,1,8.45-3.31v-15A33.07,33.07,0,0,0,556.63,886.73Z"></path><polygon fill="#5046e4" points="603.12 899.68 603.12 911.08 603.12 914.65 610.1 915.73 610.1 900.76 603.12 899.68" class="color5652cc svgShape"></polygon><path fill="#857dfb" d="M603.12,899.68l7,1.08c1.51-6-1.74-12.33-9.74-17s-19-6.5-29.36-5.63l1.87,4c8-.52,16.31,1,22.44,4.52S604,895.07,603.12,899.68Z" class="color807dfb svgShape"></path><polygon fill="#5046e4" points="571 878.18 571 893.16 572.87 897.18 572.87 882.21 571 878.18" class="color5652cc svgShape"></polygon><polygon points="571.56 881.72 571.56 894.36 572.87 897.18 572.87 884.54 571.56 881.72" style="mix-blend-mode:multiply" fill="#d1e2f3" class="colord1d7f3 svgShape"></polygon><path fill="url(#bl)" d="M595.31,886.73c-6.13-3.54-14.45-5-22.44-4.52v15c8-.53,16.31,1,22.44,4.51,4.55,2.63,7.15,5.95,7.81,9.38v-11.4C604,895.07,601.44,890.27,595.31,886.73Z"></path><path fill="url(#bm)" d="M610.45,897.55a11.67,11.67,0,0,1-.35,3.21v15a11.41,11.41,0,0,0,.35-3.18h0v-15Z"></path><path fill="url(#bn)" d="M600.36,912c-12.51,7.22-32.22,7.73-45.76,1.55v15c13.54,6.18,33.25,5.67,45.76-1.55a23.32,23.32,0,0,0,7.66-6.71v-15A23.32,23.32,0,0,1,600.36,912Z"></path><path fill="#857dfb" d="M608,905.26l-7-1.08a18.78,18.78,0,0,1-5.73,4.87c-9.71,5.61-24.89,6.1-35.59,1.52l-5.12,2.95c13.54,6.18,33.25,5.67,45.76-1.55A23.32,23.32,0,0,0,608,905.26Z" class="color807dfb svgShape"></path><path d="M583.28,897.68v0l-10.42-13.11v12.65A46.39,46.39,0,0,1,583.28,897.68Z" style="mix-blend-mode:multiply" fill="url(#bo)"></path></g></g></g></svg>