<svg xmlns="http://www.w3.org/2000/svg" xmlns:xlink="http://www.w3.org/1999/xlink" viewBox="0 0 1600 1200" id="CareerAdvancement"><defs><linearGradient id="d" x1="1230.28" x2="1300.87" y1="583.41" y2="583.41" gradientUnits="userSpaceOnUse"><stop offset="0" stop-color="#cee3f8" class="stopColorced3f8 svgShape"></stop><stop offset=".36" stop-color="#d8e9fb" class="stopColord8ddfb svgShape"></stop><stop offset=".75" stop-color="#e7f3ff" class="stopColore7eeff svgShape"></stop></linearGradient><linearGradient id="a" x1="940.03" x2="1093.7" y1="309.17" y2="336.26" gradientTransform="scale(-1 1) rotate(15 71.993 -5112.635)" gradientUnits="userSpaceOnUse"><stop offset="0" stop-color="#6f196f" class="stopColor20196f svgShape"></stop><stop offset="1" stop-color="#5a52cc" class="stopColor5652cc svgShape"></stop></linearGradient><linearGradient id="e" x1="1024.23" x2="1171.86" y1="434.99" y2="461.01" gradientTransform="scale(-1 1) rotate(-12.7 8.11 7287.126)" xlink:href="#a"></linearGradient><linearGradient id="f" x1="488.87" x2="399.28" y1="331.79" y2="402.39" gradientTransform="rotate(12.79 751.648 537.18)" gradientUnits="userSpaceOnUse"><stop offset=".15" stop-color="#fc06cf" class="stopColorfcba06 svgShape"></stop><stop offset=".43" stop-color="#ef03c4" class="stopColorefa603 svgShape"></stop><stop offset=".75" stop-color="#e501bc" class="stopColore59701 svgShape"></stop><stop offset="1" stop-color="#e100b8" class="stopColore19100 svgShape"></stop></linearGradient><linearGradient id="b" x1="938.28" x2="1081.95" y1="302.14" y2="414.43" gradientTransform="matrix(-.98 .22 .22 .98 1344.5 -155.61)" gradientUnits="userSpaceOnUse"><stop offset="0" stop-color="#342e94" class="stopColor362e94 svgShape"></stop><stop offset="1" stop-color="#6f67e9" class="stopColor6b67e9 svgShape"></stop></linearGradient><linearGradient id="g" x1="1009.23" x2="1147.52" y1="424.74" y2="532.82" gradientTransform="scale(-1 1) rotate(-12.7 8.11 7287.126)" xlink:href="#b"></linearGradient><linearGradient id="h" x1="463.86" x2="617.03" y1="353.26" y2="353.26" gradientTransform="rotate(8.62 727.932 541.147)" gradientUnits="userSpaceOnUse"><stop offset=".15" stop-color="#3e9eff" class="stopColorffd03e svgShape"></stop><stop offset=".36" stop-color="#379bff" class="stopColorffcd37 svgShape"></stop><stop offset=".66" stop-color="#2390fe" class="stopColorfec523 svgShape"></stop><stop offset="1" stop-color="#fc06cf" class="stopColorfcba06 svgShape"></stop></linearGradient><linearGradient id="i" x1="521.43" x2="591.06" y1="342.62" y2="342.62" gradientUnits="userSpaceOnUse"><stop offset="0" stop-color="#3e9eff" class="stopColorffd03e svgShape"></stop><stop offset=".04" stop-color="#389bff" class="stopColorffce38 svgShape"></stop><stop offset=".23" stop-color="#228ffd" class="stopColorfdc522 svgShape"></stop><stop offset=".44" stop-color="#fd12d2" class="stopColorfdbf12 svgShape"></stop><stop offset=".67" stop-color="#fc09d0" class="stopColorfcbb09 svgShape"></stop><stop offset="1" stop-color="#fc06cf" class="stopColorfcba06 svgShape"></stop></linearGradient><linearGradient id="c" x1="468.08" x2="437.92" y1="389.12" y2="368.09" gradientTransform="rotate(-37.23 407.377 317.443)" gradientUnits="userSpaceOnUse"><stop offset="0" stop-color="#453eaf" class="stopColor423eaf svgShape"></stop><stop offset=".33" stop-color="#5750c4" class="stopColor5450c4 svgShape"></stop><stop offset="1" stop-color="#847cfb" class="stopColor807cfb svgShape"></stop></linearGradient><linearGradient id="j" x1="516.48" x2="486.32" y1="319.69" y2="298.66" gradientTransform="rotate(8.62 727.932 541.147)" xlink:href="#c"></linearGradient></defs><g style="isolation:isolate" fill="#010001" class="color000000 svgShape"><g fill="#010001" class="color000000 svgShape"><g data-name="Speech bubble with !" fill="#010001" class="color000000 svgShape"><path fill="#f4f6f8" d="M356.34 1068.12c0-6.12-36.92-11.08-82.46-11.08s-82.45 5-82.45 11.08 36.91 11.09 82.45 11.09S356.34 1074.25 356.34 1068.12zM1421.25 1032.82c0-6.13-42.91-11.09-95.83-11.09s-95.84 5-95.84 11.09 42.91 11.08 95.84 11.08S1421.25 1038.94 1421.25 1032.82z" class="colore9efff svgShape"></path><rect width="32.28" height="66.32" x="872.21" y="151.44" fill="#6f67e9" class="color6b67e9 svgShape"></rect><rect width="32.28" height="9.35" x="872.21" y="142.09" fill="#5046e4" class="color5652cc svgShape"></rect><rect width="32.28" height="42.11" x="825.57" y="175.66" fill="#6f67e9" class="color6b67e9 svgShape"></rect><rect width="32.28" height="9.35" x="825.57" y="166.3" fill="#5046e4" class="color5652cc svgShape"></rect><rect width="32.28" height="87.63" x="778.94" y="130.14" fill="#6f67e9" class="color6b67e9 svgShape"></rect><rect width="32.28" height="33.38" x="778.94" y="120.79" fill="#5046e4" class="color5652cc svgShape"></rect><rect width="32.28" height="53.41" x="732.31" y="164.35" fill="#6f67e9" class="color6b67e9 svgShape"></rect><rect width="32.28" height="9.35" x="732.31" y="155" fill="#5046e4" class="color5652cc svgShape"></rect><path fill="#ffffff" d="M550.6,217.77h530.77a13.49,13.49,0,0,1,13.49,13.49V616.63a13.49,13.49,0,0,1-13.49,13.49H550.61a13.5,13.5,0,0,1-13.5-13.5V231.26A13.49,13.49,0,0,1,550.6,217.77Z" class="colorffffff svgShape"></path><path fill="#857dfb" d="M928.71,351.3a134.11,134.11,0,1,0-40.08,185.37A134.11,134.11,0,0,0,928.71,351.3ZM734.12,476.7a97.39,97.39,0,1,1,134.62,29.11A97.38,97.38,0,0,1,734.12,476.7Z" class="color807dfb svgShape"></path><path fill="#a50b89" d="M816,344.14v28.35a51.46,51.46,0,1,1-36.38,87.84l-20,20A79.8,79.8,0,1,0,816,344.14Z" class="colore19100 svgShape"></path><path fill="#fc06cf" d="M816,372.49V344.14a79.66,79.66,0,0,0-79.1,90.2l28.1-3.7a50.94,50.94,0,0,1-.45-6.7A51.46,51.46,0,0,1,816,372.49Z" class="colorfcba06 svgShape"></path><path fill="#3e9eff" d="M759.56,480.37l20-20A51.31,51.31,0,0,1,765,430.64l-28.1,3.7A79.48,79.48,0,0,0,759.56,480.37Z" class="colorffd03e svgShape"></path><path fill="#342e94" d="M894,373.67a92.33,92.33,0,0,1,14.78,49.76l71.79-.4A164.63,164.63,0,0,0,816,259.35v71.8A92.71,92.71,0,0,1,894,373.67Z" class="color362e94 svgShape"></path><path fill="#cee3f8" d="M1029.76 270.84h-38a1.7 1.7 0 010-3.4h38a1.7 1.7 0 110 3.4zM1064.21 281.26h-61.14a1.7 1.7 0 010-3.4h61.14a1.7 1.7 0 010 3.4zM1064.21 291.69h-53.47a1.7 1.7 0 010-3.4h53.47a1.7 1.7 0 010 3.4zM1064.21 302.11h-61.46a1.7 1.7 0 010-3.4h61.46a1.7 1.7 0 010 3.4zM1064.21 270.84h-18.3a1.7 1.7 0 010-3.4h18.3a1.7 1.7 0 010 3.4zM690.14 577.57H570.43a1.7 1.7 0 110-3.4H690.14a1.7 1.7 0 010 3.4zM690.14 556.52H570.43a1.7 1.7 0 010-3.4H690.14a1.7 1.7 0 110 3.4zM690.14 535.47H570.43a1.7 1.7 0 110-3.4H690.14a1.7 1.7 0 110 3.4z" class="colorced3f8 svgShape"></path><path fill="#6f67e9" d="M603.54,533.77a4.75,4.75,0,1,1,4.74,4.75A4.74,4.74,0,0,1,603.54,533.77Z" class="color6b67e9 svgShape"></path><circle cx="582.51" cy="554.82" r="4.75" fill="#6f67e9" transform="rotate(-84.81 582.565 554.822)" class="color6b67e9 svgShape"></circle><path fill="#6f67e9" d="M669,575.87a4.75,4.75,0,1,1,4.75,4.75A4.75,4.75,0,0,1,669,575.87Z" class="color6b67e9 svgShape"></path><path fill="#ffffff" d="M839.07,401.76h553.84a13.49,13.49,0,0,1,13.49,13.49v374.2A13.49,13.49,0,0,1,1392.91,803H839.07a13.5,13.5,0,0,1-13.5-13.5V415.26A13.49,13.49,0,0,1,839.07,401.76Z" class="colorffffff svgShape"></path><rect width="13.82" height="92.26" x="856.53" y="501.94" fill="#bbd0e6" class="colorbbc0e6 svgShape"></rect><rect width="13.82" height="45.25" x="856.53" y="456.68" fill="#857dfb" class="color807dfb svgShape"></rect><rect width="13.82" height="84.99" x="899.19" y="509.21" fill="#bbd0e6" class="colorbbc0e6 svgShape"></rect><rect width="13.82" height="23.25" x="899.19" y="485.95" fill="#857dfb" class="color807dfb svgShape"></rect><rect width="13.82" height="75.33" x="941.85" y="518.86" fill="#bbd0e6" class="colorbbc0e6 svgShape"></rect><rect width="13.82" height="21.95" x="941.85" y="496.91" fill="#857dfb" class="color807dfb svgShape"></rect><rect width="13.82" height="62.34" x="984.51" y="531.85" fill="#bbd0e6" class="colorbbc0e6 svgShape"></rect><rect width="13.82" height="21.37" x="984.51" y="510.49" fill="#857dfb" class="color807dfb svgShape"></rect><rect width="13.82" height="52.07" x="1027.17" y="542.13" fill="#bbd0e6" class="colorbbc0e6 svgShape"></rect><rect width="13.82" height="17.45" x="1027.17" y="524.68" fill="#857dfb" class="color807dfb svgShape"></rect><rect width="13.82" height="47.86" x="1069.83" y="546.34" fill="#bbd0e6" class="colorbbc0e6 svgShape"></rect><rect width="13.82" height="11.73" x="1069.83" y="534.61" fill="#857dfb" class="color807dfb svgShape"></rect><rect width="13.82" height="49.13" x="1112.49" y="545.06" fill="#bbd0e6" class="colorbbc0e6 svgShape"></rect><rect width="13.82" height="20.9" x="1112.49" y="524.16" fill="#857dfb" class="color807dfb svgShape"></rect><rect width="13.82" height="55.17" x="1155.15" y="539.03" fill="#bbd0e6" class="colorbbc0e6 svgShape"></rect><rect width="13.82" height="23.06" x="1155.15" y="515.97" fill="#857dfb" class="color807dfb svgShape"></rect><rect width="13.82" height="59.53" x="1197.81" y="534.67" fill="#bbd0e6" class="colorbbc0e6 svgShape"></rect><rect width="13.82" height="29.82" x="1197.81" y="504.85" fill="#857dfb" class="color807dfb svgShape"></rect><rect width="13.82" height="78.23" x="1240.47" y="515.97" fill="#bbd0e6" class="colorbbc0e6 svgShape"></rect><rect width="13.82" height="62.68" x="1240.47" y="453.28" fill="#857dfb" class="color807dfb svgShape"></rect><rect width="13.82" height="86.33" x="1283.13" y="507.87" fill="#bbd0e6" class="colorbbc0e6 svgShape"></rect><rect width="13.82" height="21.92" x="1283.13" y="485.95" fill="#857dfb" class="color807dfb svgShape"></rect><rect width="13.82" height="92.93" x="1325.79" y="501.27" fill="#bbd0e6" class="colorbbc0e6 svgShape"></rect><rect width="13.82" height="23.35" x="1325.79" y="477.92" fill="#857dfb" class="color807dfb svgShape"></rect><rect width="13.82" height="79.69" x="1368.45" y="514.51" fill="#bbd0e6" class="colorbbc0e6 svgShape"></rect><rect width="13.82" height="19.31" x="1368.45" y="495.2" fill="#857dfb" class="color807dfb svgShape"></rect><path fill="#ddeaf8" d="M1382.27,607.75H856.53a.85.85,0,0,1,0-1.7h525.74a.85.85,0,1,1,0,1.7Z" class="colordde2f8 svgShape"></path><rect width="13.82" height="6.04" x="1197.81" y="528.63" fill="#fc06cf" class="colorfcba06 svgShape"></rect><rect width="13.82" height="4.72" x="1240.47" y="511.25" fill="#fc06cf" class="colorfcba06 svgShape"></rect><rect width="13.82" height="4.72" x="1283.13" y="503.15" fill="#fc06cf" class="colorfcba06 svgShape"></rect><rect width="13.82" height="2.36" x="1325.79" y="498.91" fill="#fc06cf" class="colorfcba06 svgShape"></rect><rect width="13.82" height="2.36" x="1155.15" y="536.67" fill="#fc06cf" class="colorfcba06 svgShape"></rect><polygon fill="#857dfb" points="849.71 696.09 879 679.93 888.35 689.57 911.29 678.56 956.64 729.53 1000.06 685.52 1030.71 702.3 1102.37 628.5 1184.17 704.38 1211.19 684.18 1234.39 702.3 1298.15 651.56 1347.97 679.93 1382.27 664.34 1382.27 777.97 849.71 777.97 849.71 696.09" class="color807dfb svgShape"></polygon><polygon fill="#fc06cf" points="1382.27 705.4 1357.53 722.99 1327.67 702.3 1264.41 733.77 1232.99 722.99 1167.85 767.19 1100.38 689.57 1032.26 736.07 1013.99 718.48 962.3 741.68 899.56 702.3 849.71 722.99 849.71 777.97 1382.27 777.97 1382.27 705.4" class="colorfcba06 svgShape"></polygon><rect width="390.11" height="291.5" x="350.38" y="593.68" fill="#ffffff" rx="14.3" class="colorffffff svgShape"></rect><rect width="1.7" height="243.11" x="405.26" y="617.87" fill="#e7f3ff" class="colore7eeff svgShape"></rect><rect width="1.7" height="243.11" x="433.12" y="617.87" fill="#e7f3ff" class="colore7eeff svgShape"></rect><rect width="1.7" height="243.11" x="460.99" y="617.87" fill="#e7f3ff" class="colore7eeff svgShape"></rect><rect width="1.7" height="243.11" x="488.85" y="617.87" fill="#e7f3ff" class="colore7eeff svgShape"></rect><rect width="1.7" height="243.11" x="516.71" y="617.87" fill="#e7f3ff" class="colore7eeff svgShape"></rect><rect width="1.7" height="243.11" x="544.58" y="617.87" fill="#e7f3ff" class="colore7eeff svgShape"></rect><rect width="1.7" height="243.11" x="572.44" y="617.87" fill="#e7f3ff" class="colore7eeff svgShape"></rect><rect width="1.7" height="243.11" x="600.31" y="617.87" fill="#e7f3ff" class="colore7eeff svgShape"></rect><rect width="1.7" height="243.11" x="628.17" y="617.87" fill="#e7f3ff" class="colore7eeff svgShape"></rect><rect width="1.7" height="243.11" x="656.04" y="617.87" fill="#e7f3ff" class="colore7eeff svgShape"></rect><rect width="1.7" height="243.11" x="683.9" y="617.87" fill="#e7f3ff" class="colore7eeff svgShape"></rect><rect width="334.38" height="1.7" x="378.24" y="639.12" fill="#e7f3ff" class="colore7eeff svgShape"></rect><rect width="334.38" height="1.7" x="378.24" y="661.23" fill="#e7f3ff" class="colore7eeff svgShape"></rect><rect width="334.38" height="1.7" x="378.24" y="683.33" fill="#e7f3ff" class="colore7eeff svgShape"></rect><rect width="334.38" height="1.7" x="378.24" y="705.43" fill="#e7f3ff" class="colore7eeff svgShape"></rect><rect width="334.38" height="1.7" x="378.24" y="727.53" fill="#e7f3ff" class="colore7eeff svgShape"></rect><rect width="334.38" height="1.7" x="378.24" y="749.63" fill="#e7f3ff" class="colore7eeff svgShape"></rect><rect width="334.38" height="1.7" x="378.24" y="771.73" fill="#e7f3ff" class="colore7eeff svgShape"></rect><rect width="334.38" height="1.7" x="378.24" y="793.83" fill="#e7f3ff" class="colore7eeff svgShape"></rect><rect width="334.38" height="1.7" x="378.24" y="815.93" fill="#e7f3ff" class="colore7eeff svgShape"></rect><rect width="334.38" height="1.7" x="378.24" y="838.04" fill="#e7f3ff" class="colore7eeff svgShape"></rect><rect width="334.38" height="243.11" x="378.24" y="617.87" fill="none" stroke="#e7f3ff" stroke-miterlimit="10" stroke-width="2" class="colorStrokee7eeff svgStroke"></rect><path fill="#857dfb" d="M372.85 815.39a5.39 5.39 0 115.39 5.39A5.39 5.39 0 01372.85 815.39zM400.71 794.68a5.4 5.4 0 115.4 5.39A5.4 5.4 0 01400.71 794.68zM428.58 794.68a5.39 5.39 0 115.39 5.39A5.39 5.39 0 01428.58 794.68zM456.44 772.58a5.39 5.39 0 115.39 5.39A5.39 5.39 0 01456.44 772.58zM484.31 772.58A5.39 5.39 0 11489.7 778 5.39 5.39 0 01484.31 772.58zM512.17 728.38a5.39 5.39 0 115.39 5.39A5.39 5.39 0 01512.17 728.38zM539.63 750.48a5.39 5.39 0 115.39 5.39A5.39 5.39 0 01539.63 750.48zM567.9 684.18a5.39 5.39 0 115.39 5.39A5.39 5.39 0 01567.9 684.18zM595.77 728.38a5.39 5.39 0 115.39 5.39A5.39 5.39 0 01595.77 728.38zM623.63 728.38a5.39 5.39 0 115.39 5.39A5.39 5.39 0 01623.63 728.38zM651.5 728.38a5.39 5.39 0 115.39 5.39A5.39 5.39 0 01651.5 728.38zM679.36 712.55a5.39 5.39 0 115.39 5.39A5.39 5.39 0 01679.36 712.55zM707.23 684.18a5.39 5.39 0 115.39 5.39A5.39 5.39 0 01707.23 684.18z" class="color807dfb svgShape"></path><polygon fill="#857dfb" points="379.25 816.76 377.23 814.03 405.54 792.98 433.38 792.98 461.24 770.88 488.76 770.88 517.14 725.86 544.34 747.75 573 680.53 602.1 726.68 656.44 726.68 683.71 711.19 711.4 682.99 713.83 685.37 685.59 714.03 657.34 730.08 600.22 730.08 573.58 687.83 545.7 753.21 517.98 730.9 490.64 774.28 462.43 774.28 434.56 796.38 406.67 796.38 379.25 816.76" class="color807dfb svgShape"></polygon><rect width="47.61" height="36.76" x="375.02" y="615.38" fill="#5046e4" class="color5652cc svgShape"></rect><path fill="#ffffff" d="M396.49,633.73a4.24,4.24,0,1,1,4.66,0c4.37,1.08,4.64,4.22,4.64,7.84H391.86C391.86,638,392.29,634.81,396.49,633.73Z" class="colorffffff svgShape"></path><polygon fill="#342e94" points="395.62 771.7 395.62 781.83 403.15 781.83 406.11 784.78 409.06 781.83 416.6 781.83 416.6 771.7 395.62 771.7" class="color362e94 svgShape"></polygon><polygon fill="#342e94" points="507.07 705.4 507.07 715.52 514.61 715.52 517.56 718.48 520.52 715.52 528.05 715.52 528.05 705.4 507.07 705.4" class="color362e94 svgShape"></polygon><polygon fill="#342e94" points="618.53 705.4 618.53 715.52 626.07 715.52 629.02 718.48 631.98 715.52 639.51 715.52 639.51 705.4 618.53 705.4" class="color362e94 svgShape"></polygon><polygon fill="#fc06cf" points="555.92 773.97 555.92 763.84 548.38 763.84 545.43 760.89 542.47 763.84 534.94 763.84 534.94 773.97 555.92 773.97" class="colorfcba06 svgShape"></polygon><polygon fill="#fc06cf" points="695.24 736.07 695.24 725.95 687.71 725.95 684.75 722.99 681.79 725.95 674.26 725.95 674.26 736.07 695.24 736.07" class="colorfcba06 svgShape"></polygon><polygon fill="#6f196f" points="1382.27 1030.16 1375.26 1030.16 1310.47 731.86 1317.48 731.86 1382.27 1030.16" class="color20196f svgShape"></polygon><rect width="79.29" height="4.53" x="1240.91" y="744.39" fill="#6f196f" class="color1f196f svgShape"></rect><rect width="79.29" height="4.53" x="1248.38" y="778.76" fill="#6f196f" class="color1f196f svgShape"></rect><rect width="79.29" height="4.53" x="1255.84" y="813.13" fill="#6f196f" class="color1f196f svgShape"></rect><rect width="79.29" height="4.53" x="1263.31" y="847.5" fill="#6f196f" class="color1f196f svgShape"></rect><rect width="79.29" height="4.53" x="1270.77" y="881.87" fill="#6f196f" class="color1f196f svgShape"></rect><rect width="79.29" height="4.53" x="1278.24" y="916.24" fill="#6f196f" class="color1f196f svgShape"></rect><rect width="79.29" height="4.53" x="1285.7" y="950.61" fill="#6f196f" class="color1f196f svgShape"></rect><rect width="79.29" height="4.53" x="1293.17" y="984.98" fill="#6f196f" class="color1f196f svgShape"></rect><rect width="4.17" height="4.86" x="1272.37" y="527.42" fill="#6f196f" transform="rotate(90 1274.455 529.845)" class="color1f196f svgShape"></rect><path fill="#342e93" d="M1269.8,562.93v-31h4.66v35.66A4.66,4.66,0,0,1,1269.8,562.93Z" class="color362e93 svgShape"></path><path fill="#6f196f" d="M1279.11,531.93v31a4.66,4.66,0,0,1-4.66,4.66V531.93Z" class="color1f196f svgShape"></path><path fill="#342e93" d="M1254.25,520.26a28.58,28.58,0,1,0,0-40.41A28.58,28.58,0,0,0,1254.25,520.26Zm-5.81-20.35a26,26,0,1,1,25.87,26.16A26,26,0,0,1,1248.44,499.91Z" class="color362e93 svgShape"></path><path d="M1258,479.86a26,26,0,0,0,36.42,36.84A26,26,0,1,1,1258,479.86Z" style="mix-blend-mode:multiply" fill="#f4f6f8" class="colore9edf7 svgShape"></path><path fill="#ddeaf8" d="M1340.69,664.88c3.81-4.47,8.25-12.51,8.25-15.46-1.2-3.58-8.2-7.28-11.59-16.71-5.25-14.63-5.09-41-5.09-41,10.37,5.34,25.65,25.46,34.17,55.63,1.81,6.38-10.25,21.84-24.11,37.18C1342.11,681.06,1341.17,670,1340.69,664.88Z" class="colordde2f8 svgShape"></path><path fill="#342e94" d="M1342.18,689.38c-.57,46.34-8.59,53.78-11.37,98.68-2.26,36.61,10.33,64.58,11.91,76.94h-8.42c-6.19-16.4-45.64-76.3-34-175.62Z" class="color362e94 svgShape"></path><path fill="#c0d8f0" d="M1344.68,868.08a34.06,34.06,0,0,1-2-3.08h-8.42c.82,2.38,1.32,4.41,1,5.6C1337.49,871.44,1340.68,869.27,1344.68,868.08Z" class="colorf0ccc0 svgShape"></path><path fill="#342e94" d="M1344.68,868.08c-4,1.19-7.19,3.36-9.38,2.52-1.16.84-18.23,7-20,8.17s-1.51,3.1.37,3.1c2.75,0,25.41-1,25.41-1,.46.5.83,1,.83,1h5.18C1348.67,879.19,1348.25,871.16,1344.68,868.08Z" class="color362e94 svgShape"></path><path fill="#453eaf" d="M1342.18,689.38c0,42.23-27.56,44.14-46.09,85.13-12.71,28.14-15.24,83-15.81,90.49h-8.41c-4.58-20-17.92-96.45,8.41-175.62Z" class="color423eaf svgShape"></path><path fill="#c0d8f0" d="M1280.26,868.08c0-1.4,0-3.08,0-3.08h-8.41c.31,2.38-.67,4.41-1,5.6C1273.06,871.44,1276.27,869.27,1280.26,868.08Z" class="colorf0ccc0 svgShape"></path><path fill="#342e94" d="M1280.26,868.08c-4,1.19-7.2,3.36-9.38,2.52-1.16.84-18.23,7-20,8.17s-1.51,3.1.37,3.1c2.75,0,25.41-1,25.41-1,.46.5.83,1,.83,1h5.18C1284.25,879.19,1283.83,871.16,1280.26,868.08Z" class="color362e94 svgShape"></path><path fill="#e7f3ff" d="M1322.69,586.18c12.1,4.3,14.8,9.78,18,32s1.5,71.16,1.5,71.16h-61.9c-2.2-13.44-.5-54.91,4-75.78,2.42-11.21,3-26.7,15.72-27.7C1309,585.19,1322.69,586.18,1322.69,586.18Z" class="colore7eeff svgShape"></path><path fill="#c9e0f7" d="M1306,549.08c-1.69,4.92-8.29,19.14-6.43,25.15,1.52,4.94,6.37,6.71,15,5.63s12-15.66,13.89-19.67C1331.45,553.84,1309.51,538.71,1306,549.08Z" class="colorf7d3c9 svgShape"></path><path fill="#c9e0f7" d="M1306.92,579.18c-.46,2.63-1.61,6.48-1.61,6.48,1.13,1.54,17.88,3.48,16.24.75-.58-4.82-.19-16-.19-16Z" class="colorf7d3c9 svgShape"></path><path fill="#342e94" d="M1328.44,548.08c-7.55-5.45-16.78-15.7-18.19-14.91-.26.15.16.83-.15,1-.49.29-3.13-6.28-7-4.67s-4.1,13,2.81,19.58-1.58,10.22,1.4,13.69.69,13.31,6.58,14.61,8.59,5.64,9.17,1.89,5.46-10.42,6.4-16.79S1332.63,551.11,1328.44,548.08Z" class="color362e94 svgShape"></path><path fill="#c9e0f7" d="M1309.67 561.18c.37-1.47-.09-2.86-1-3.1s-2 .76-2.39 2.23.09 2.86 1 3.1S1309.29 562.65 1309.67 561.18zM1275.71 557.8c2.78-1.25 5.07-4.1 4.57-9s1.82-8.8-1.17-8.06-8.54-1.71-9.31-2.48c-3.34 0-3.14 8.51-2.22 10.91S1275.71 557.8 1275.71 557.8z" class="colorf7d3c9 svgShape"></path><path fill="url(#d)" d="M1300.87,585.9c-16.82,1.63-44.69-2.06-44.69-7.51,3.56-3.56,20-20,20-20-3.88-5.13-7.05-9.41-7.05-9.41-18.34,12.57-44.78,28.07-37.59,38.73,9.71,14.39,57.92,30.2,57.92,30.2Z"></path><polygon fill="#453eaf" points="1304.78 1030.16 1297.77 1030.16 1232.99 731.86 1240 731.86 1304.78 1030.16" class="color423eaf svgShape"></polygon><path fill="#342e94" d="M340.76 458.3c.3-2.25-.4-4.15.8-5.4 2.18-2.26 6.76-1.93 14-2.26a46.5 46.5 0 002 13.78c-2.27.71-3.87 1.56-4.62 2.61-7 9.71-7.64 20.56-12.26 20.37C338.63 487.32 339.51 467.7 340.76 458.3zM329.4 381c1.71-3.41.65-4.71 3.57-6.81 2.47-1.78 7.5.59 15.16 3.29-1.44 4-3.15 10-3.9 13-2.61-.29-4.63-.12-5.91.65-10.23 6.21-15.61 16.82-19.24 14C317.36 403.79 324.64 390.5 329.4 381z" class="color362e94 svgShape"></path><path fill="url(#a)" d="M352.93,377.67c-1.55-.49-3.1-1.08-4.48-1.56-1.45,4-3.47,11.41-4.22,14.42,18.32,2,65.49,26.62,85.85,23.28l-5.51-24.9C394.58,379.7,380,386.16,352.93,377.67Z"></path><path fill="url(#e)" d="M492,335.66c-37.83,15-28.88,38.33-67.41,53.25l2.27,24.27c22.39,7.39,80.68-38.45,92-49C518.85,364.18,498.49,342.41,492,335.66Z"></path><path fill="#cfe3f8" d="M437.93 320.64s-13.37 2.85-15.13 8.51 0 6.81.8 7.39c1.87 1.38 10.86-6.62 12.59-4.74s-4.41 4.56-3.86 5.19 8.63-3 10.45-8c.89-2.44 8.63-7.63 17.36-12.65l-4.68-8.2C446.24 314.65 437.93 320.64 437.93 320.64zM629.2 300.16s12.29-1.09 14.28-6.67 5.58-9 4.81-9.62c-1.81-1.46-15.24 7.16-16.89 5.21-.11-.95 6-3.39 5.9-6.27-5.15.86-10.57 3.89-12.61 8.8-1 2.4-6 5.87-13.26 16.61l3.7 7.13A43.81 43.81 0 00629.2 300.16z" class="colorf8d8cf svgShape"></path><path fill="url(#f)" d="M482.5,290.24c-1.51.34-31.41,20.58-42.19,28.19l4.57,8.51c10.05-4.57,37.88-21,42.5-22.44,8.85-2.73,37.23-1.82,37.23-1.82l15.49-28.44C530.72,275.9,491.25,288.28,482.5,290.24Z"></path><path fill="url(#b)" d="M361.07,449.05c-2.05.2-3.86.46-5.6.54a53.93,53.93,0,0,0,2.11,14.83c18.68-5.8,82.2-3.81,100.76-12.65l-14.81-20.95C414.56,433,389.31,446.29,361.07,449.05Z"></path><path fill="url(#g)" d="M524.45,369.7s-25.05-26.58-32.47-34c-30.27,25.39-11.23,56.63-48.45,95.16l14.81,20.95C483.9,442,518.68,384.07,524.45,369.7Z"></path><path fill="url(#h)" d="M620.35,295.19c-5.06,7.15-22.91,29-25.27,30.5-7.23-11.54-18.44-37.29-23.11-39.55-2.65-1.28-8.1-2.57-10.89-5-12.51-10.86-28.46-8.9-36.25,2.69-5.27,7.84-16.44,31.93-32.85,51.83l32.47,34c11.35-10.1,24.44-20.28,34.57-37.79,2.29-4,7.24-10.74,9-8.67,9.22,10.58,21.6,25.81,31.66,23.11,5.67-2.92,26.17-37.31,29.14-44.63Z"></path><path fill="url(#i)" d="M559,331.91c2.29-4,7.24-10.74,9-8.67,3.79,4.35,8.11,9.48,12.58,13.82h0c-2.94-4.43-8-17.88-12.58-20.43-4-2.23-5.93-2-11.6,9.91s-17.54,29-35,40c2.18,2.2,3,3.16,3,3.16C535.8,359.6,548.89,349.42,559,331.91Z"></path><path fill="#cfe3f8" d="M562.16,276c0,2.37-.21,5.79-.21,5.79-3.71,2-15.75-4-15.1-6.89,2.58-4,6.24-12.85,6.24-12.85Z" class="colorf8d8cf svgShape"></path><path fill="#cfe3f8" d="M580.53,254.1c-1.32,5-4.91,20-9.95,23.55-4.13,3-9,1.45-15.1-4.53s0-19.4.84-23.69C557.72,242.64,582.46,246.92,580.53,254.1Z" class="colorf8d8cf svgShape"></path><path fill="#342e94" d="M558,240.2c12.12-7,10-2.14,8.3-.85,10.39-2.83,23.81-1.79,26.14.92s1.77,9.56-6.08,12.66-8.23.33-11.62-.16-3.57,6-3.94,7.4a.66.66,0,0,1-1,.21c-1.27-1.2-2-1.44-2.82-.5s-1.39,3.24-.43,4.26a2.72,2.72,0,0,0,1.74.82c-7,9-15.23,1.29-16.66.34C549.48,263.87,545.86,247.16,558,240.2Z" class="color362e94 svgShape"></path><path fill="#e7f3ff" d="M301.37,589.29c10.23,2.29,20.66-5.15,19.81-17.71-1-15.15-14.61-20.49-25.08-18.33l185.84-204.4-6.1-6.28-5.3-5.45L270.36,508.9c6.23-17.13-6.94-26.48-19.53-25.95-15.51.66-22.67,19.91-21.51,31.89-5.82-14-27.67-19.34-36.3-4.49-7.71,13.27,1.56,26.28,16.36,29.87-10.86,3.89-29,21.86-21.83,37.5s30,25.08,46.75,12.84c-11.48,22.45,23.52,53,32.32,5.88,3.74,21.66,26.2,32.46,36.82,22.15C313.44,608.87,309.79,595.53,301.37,589.29Z" opacity=".8" class="colore7eeff svgShape"></path><rect width="32.09" height="11.18" x="463.74" y="333.02" fill="url(#c)" transform="rotate(45.85 479.773 338.58)"></rect><path fill="url(#j)" d="M549.35,271.07c-6.63-.5-16.05,2-26.83,6.73l19.32,19.9C546.92,287.06,549.65,277.71,549.35,271.07Z"></path><path fill="#ddeaf8" d="M522.52,277.8c-17.33,7.65-38.19,21.28-56.78,38.31l18.06,18.61s12.59,13,18.07,18.6c17.57-18.07,31.81-38.53,40-55.62Z" class="colordde2f8 svgShape"></path><path fill="#453eaf" d="M479.62,316.23a2.31,2.31,0,1,1-.05,3.26A2.3,2.3,0,0,1,479.62,316.23Z" class="color423eaf svgShape"></path><path fill="#847cfb" d="M488.07 308a2.3 2.3 0 11-.05 3.26A2.31 2.31 0 01488.07 308zM496.52 299.82a2.31 2.31 0 110 3.26A2.31 2.31 0 01496.52 299.82z" class="color807cfb svgShape"></path><path d="M549.35,271.07c-11.68,29.42-50.93,62.65-59,70.44l11.47,11.81c17.57-18.07,31.81-38.53,40-55.62C546.92,287.06,549.65,277.71,549.35,271.07Z" style="mix-blend-mode:multiply" fill="#ddeaf8" class="colordde2f8 svgShape"></path><path fill="#342e93" d="M251.21,1066.2a3.48,3.48,0,0,0-3,2.82H246a12.38,12.38,0,0,1-1-8.54c.73-3,1.51-2.29,2.3-1.51,1.79,1.46,9.1,1.94,9.67-.52,1.89.29,21.31,5.87,21.31,7.67,0,2.91-2.29,2.9-3.84,2.9C256,1069,258.45,1067.89,251.21,1066.2Z" class="color362e93 svgShape"></path><path fill="#c9e0f7" d="M254.93,1055.37c-.63-2.77-8.63-4.85-8.22,0a6.46,6.46,0,0,1-.42,3.08h0c1.61,2.31,18.51,6.63,21.27,3C265.65,1060.46,254.93,1058.3,254.93,1055.37Z" class="colorf7d3c9 svgShape"></path><path fill="#453eaf" d="M283.35,845.05c-1.35,26-11.94,61.79-13.93,94.83s-14.25,115.49-14.25,115.49c-3.67,0-8.59-.19-8.59-.19-2-9.15-13.37-80.79-2-105.78-4.4-17.19-16.19-75.73-1.46-104.35Z" class="color423eaf svgShape"></path><path fill="#342e93" d="M289.18,1066.2a3.5,3.5,0,0,0-3,2.82H284a12.31,12.31,0,0,1-1-8.54c.73-3,1.51-2.29,2.3-1.51,1.79,1.46,9.09,1.94,9.67-.52,1.88.29,21.3,5.87,21.3,7.67,0,2.91-2.28,2.9-3.83,2.9C294,1069,296.42,1067.89,289.18,1066.2Z" class="color362e93 svgShape"></path><path fill="#c9e0f7" d="M292.9,1055.37c-.63-2.77-8.63-4.85-8.22,0a6.46,6.46,0,0,1-.42,3.08h0c1.6,2.31,18.51,6.63,21.27,3C303.61,1060.46,292.9,1058.3,292.9,1055.37Z" class="colorf7d3c9 svgShape"></path><path fill="#5046e4" d="M295.69,845.05c4.91,15.09,9.62,61.79,7.63,94.83s-10.18,115.49-10.18,115.49c-3.67,0-8.59-.19-8.59-.19-2-9.15-14.86-84.65-7.32-105.78-6-11.94-33.31-69.32-21.74-104.35Z" class="color5652cc svgShape"></path><path fill="#c0d8f0" d="M312.74,802.06c2.8-1.29,1.82-11.8-4.4-24.67-5.4-11.17-16.19-23.58-21.4-32.59-1.18-2,0-7.64-1-9-8.74-11.87-12.12-2.26-11.54.56.65,3.16,6.91,17.64,9.26,20.63S302.27,806.84,312.74,802.06Z" class="colorf0c9c0 svgShape"></path><path fill="#d0e4f8" d="M278,703.71c.72,5.6,4.63,22.15,1.34,28.13-2.69,4.91-8.23,5.73-17.16,2.7s-9.28-19.24-10.46-23.92C249.84,703.21,276.45,691.92,278,703.71Z" class="colorf8d8d0 svgShape"></path><path fill="#d0e4f8" d="M270.17 734.24c.49 2.84 2.16 8.46 2.16 8.46-1.23 1.66-9.24 4.35-18-.63.63-5.23.21-17.36.21-17.36zM232.09 813.69c0 8.06 12.4 10.09 12.4 10.09l3.62-41.12c-6.26-.54-10.32-3.9-14.17-6.08C232.66 783.51 232.09 804.7 232.09 813.69z" class="colorf8d8d0 svgShape"></path><path fill="#ed00c2" d="M233.94,776.58c3.85,2.18,7.91,5.54,14.17,6.08l3.49-39.5C242.45,748.56,237.63,756.62,233.94,776.58Z" class="colored9f00 svgShape"></path><path fill="#857dfb" d="M254.3,742.07c-5.25,1.14-18.57,9.62-16.63,32,2.35,27,5.48,71,5.48,71h52.54c-14-36.63,1.42-54.79-3.08-75.62-2.42-11.18-8-21.64-17.55-25.78C266.84,740.08,254.3,742.07,254.3,742.07Z" class="color807dfb svgShape"></path><path fill="#d0e4f8" d="M280.05,778.78c3.65,4.9,18.55,24.94,24.74,26,4.67.81,9-1.31,8.48-5.74s-14.87-26.21-16.85-30C292.61,769.43,280.05,778.78,280.05,778.78Z" class="colorf8d8d0 svgShape"></path><path fill="#aed6ff" d="M296.42,769.05c-2.73-4.94-5.3-9.76-8.19-14.11-3.32-5-7.66-10-13.88-10-5.37,0-8.16,3.61-5,14.49,1.39,4.8,5.22,11.75,11,19.75C289.36,776.83,292.73,772.86,296.42,769.05Z" class="coloraeaeff svgShape"></path><path fill="#342e94" d="M278.48 708.37c5.77-2 8.64-19.42-6.17-15s-28.88 9.87-24.93 19.74-4.27 11.28-5.59 21.11c-1.13 8.43 4 12.68-3.91 18.45-6 4.32-.91 11.21-3.17 14.53-5.25 7.71-5.13 18.12 8 22.43 18.76 6.17 40.16 4.87 32.5-7.07-6.17-9.63-5-9.71-.9-15s-9.05-12.42-3.81-17.67c2.95-2.95-3.89-12.08-2.69-17.5.93-4.24 6.83-3.13 6.83-10.37C274.62 713.33 272.12 710.54 278.48 708.37zM797.82 629.2a1.28 1.28 0 00.15.25l7.77 10.5a1.35 1.35 0 01-.15-.26l-1.27-2.75a1.35 1.35 0 00-.15-.26q-3.88-5.23-7.76-10.49l.15.26zM775 662.51l2.83 1.37a1.42 1.42 0 01.56.46l-7.77-10.5a1.45 1.45 0 00-.55-.45L767.19 652a1.49 1.49 0 01-.56-.46l7.76 10.5A1.61 1.61 0 00775 662.51zm52.35-25.74a1.69 1.69 0 01-.26-1.31l.67-3.4a1.65 1.65 0 00-.26-1.33l-7.76-10.49a1.65 1.65 0 01.26 1.33l-.67 3.39a1.67 1.67 0 00.25 1.32zM768.09 684l3.66-.37a1.77 1.77 0 011.68.63l-7.76-10.5a1.79 1.79 0 00-1.69-.62l-3.66.37a1.8 1.8 0 01-1.7-.63l7.77 10.49A1.8 1.8 0 00768.09 684zm76.49-40.1a2 2 0 01.27-2.45l2.41-3.13a2.05 2.05 0 00.28-2.46l-7.77-10.49a2.06 2.06 0 01-.27 2.46L837.09 631a2 2 0 00-.27 2.45zm-47.42 41.63c-3.54-4.77-2.94-12.18 2.13-18.76 6.57-8.52 18.19-12.42 26-8.68a11.4 11.4 0 014.28 3.48l-7.77-10.49a11.44 11.44 0 00-4.27-3.48c-7.77-3.74-19.39.15-26 8.68-5.06 6.58-5.66 14-2.13 18.76zm63.12-21.8l-5.82-7.86L857.7 654a3.64 3.64 0 001-.9 2.28 2.28 0 00.5-2 28.58 28.58 0 00-2.9-6.36l-.08-.11-7.77-10.49a.44.44 0 01.08.11 28.51 28.51 0 012.9 6.35 2.27 2.27 0 01-.5 2 3.54 3.54 0 01-1 .91l-3.5 2a3.66 3.66 0 00-1 .89 2.45 2.45 0 00-.55 1.81 31.18 31.18 0 01.32 3.24 1.52 1.52 0 00.29.88l6.19 8.36c-.12.49-.25 1-.39 1.48a2.85 2.85 0 01-.48.91 3.44 3.44 0 01-2.29 1.33l-3.66.37a3.45 3.45 0 00-2.28 1.32 3 3 0 00-.39.67c-.49 1.15-1 2.3-1.62 3.44a1.9 1.9 0 000 2l3.59 4.86q-1.12 1.7-2.4 3.36-1.41 1.83-2.94 3.54a2.92 2.92 0 01-3.24 1l-2.85-1.37a2.88 2.88 0 00-3 .75c-1 .95-2 1.85-3.13 2.72a3.82 3.82 0 00-.56.58 2.23 2.23 0 00-.45 2.21l1.27 2.75a2.23 2.23 0 01-.44 2.21 3.69 3.69 0 01-.81.76 70.79 70.79 0 01-8.11 4.67 2.92 2.92 0 01-1.4.29l-2.88-3.9a2.09 2.09 0 00-2.44-.44c-1.26.48-2.53.9-3.79 1.27a3.51 3.51 0 00-1.78 1.23 2.65 2.65 0 00-.54 1.12l-.66 3.38a2.76 2.76 0 01-.54 1.15 3.45 3.45 0 01-2 1.27c-1.67.31-3.34.53-5 .68l-4.81-6.48a1.62 1.62 0 00-1.2-.64 30.9 30.9 0 01-3.42-.53 3.22 3.22 0 00-3 1.28l-2.18 2.83q-3.74-5-7.46-10.07a1.1 1.1 0 00-.21-.22 22.11 22.11 0 01-2.16-2.17 2.3 2.3 0 00-2.88-.13l-3.51 2a2.24 2.24 0 01-2.92-.2q3.89 5.25 7.76 10.49a2.09 2.09 0 002.52.37l5.82 7.86.39.53a1.35 1.35 0 00.39.36 33 33 0 003.16 1.75c1.11.53 2.25 1 3.41 1.42a3.11 3.11 0 003.23-1.23l2.4-3.12a3.43 3.43 0 012.14-1.28l5.34 7.21a1.72 1.72 0 001.47.64 50.54 50.54 0 008.48-.88 3.41 3.41 0 002-1.27 2.78 2.78 0 00.54-1.14l.66-3.39a2.81 2.81 0 01.53-1.12A3.58 3.58 0 01814.7 708c1.26-.37 2.53-.79 3.78-1.27a3 3 0 011.15-.16l2.87 3.88a2.15 2.15 0 002.7.33 70.07 70.07 0 008.12-4.67 3.69 3.69 0 00.81-.76 2.22 2.22 0 00.43-2.21l-1.26-2.75a2.25 2.25 0 01.44-2.21 3.89 3.89 0 01.57-.58c1.07-.86 2.11-1.77 3.13-2.71a2.87 2.87 0 013-.76l2.84 1.37a2.93 2.93 0 003.25-1q1.53-1.71 2.94-3.54c.94-1.21 1.81-2.45 2.62-3.69a1.94 1.94 0 00.14-2.25l-3.65-4.93c.48-.94.92-1.88 1.31-2.82a3.83 3.83 0 01.4-.67 3.45 3.45 0 012.27-1.32l3.67-.37a3.45 3.45 0 002.29-1.32 2.8 2.8 0 00.48-.92 43.64 43.64 0 001.52-7.85A1.5 1.5 0 00860.28 663.72zM781.55 703a3.12 3.12 0 01-3.23 1.23 35.08 35.08 0 01-3.41-1.43c-.33-.16-.66-.34-1-.51l2.91-1.68a2.3 2.3 0 012.88.14 22.53 22.53 0 002 2z" class="color362e94 svgShape"></path><path fill="#5046e4" d="M832.81,621.83a34.11,34.11,0,0,1,3.42,1.41,29.78,29.78,0,0,1,3.15,1.76c.87.54.92,1.77.12,2.82L837.09,631a1.93,1.93,0,0,0-.06,2.68,24.57,24.57,0,0,1,2.16,2.17,2.31,2.31,0,0,0,2.87.14l3.51-2c1.17-.67,2.48-.55,3,.31a28.51,28.51,0,0,1,2.9,6.35,2.27,2.27,0,0,1-.5,2,3.54,3.54,0,0,1-1,.91l-3.5,2a3.66,3.66,0,0,0-1,.89,2.45,2.45,0,0,0-.55,1.81,31.18,31.18,0,0,1,.32,3.24,1.63,1.63,0,0,0,2,1.51l3.66-.37a1.62,1.62,0,0,1,2,1.73,43.84,43.84,0,0,1-1.53,7.85,2.85,2.85,0,0,1-.48.91,3.44,3.44,0,0,1-2.29,1.33l-3.66.37a3.45,3.45,0,0,0-2.28,1.32,3,3,0,0,0-.39.67c-.49,1.15-1,2.3-1.62,3.44a1.7,1.7,0,0,0,.55,2.48l2.84,1.37c.95.46,1.14,1.63.43,2.71q-1.22,1.86-2.63,3.69T838.8,684a2.92,2.92,0,0,1-3.24,1l-2.85-1.37a2.88,2.88,0,0,0-3,.75c-1,.95-2,1.85-3.13,2.72a3.82,3.82,0,0,0-.56.58,2.23,2.23,0,0,0-.45,2.21l1.27,2.75a2.23,2.23,0,0,1-.44,2.21,3.69,3.69,0,0,1-.81.76,70.79,70.79,0,0,1-8.11,4.67c-1.2.58-2.44.32-2.86-.6l-1.27-2.74a1.94,1.94,0,0,0-2.59-.71c-1.26.48-2.53.9-3.79,1.27a3.51,3.51,0,0,0-1.78,1.23,2.65,2.65,0,0,0-.54,1.12l-.66,3.38a2.76,2.76,0,0,1-.54,1.15,3.45,3.45,0,0,1-2,1.27,50.54,50.54,0,0,1-8.48.88,1.59,1.59,0,0,1-1.72-2l.66-3.39a1.57,1.57,0,0,0-1.46-2,30.9,30.9,0,0,1-3.42-.53,3.22,3.22,0,0,0-3,1.28L781.55,703a3.12,3.12,0,0,1-3.23,1.23,35.08,35.08,0,0,1-3.41-1.43,30.7,30.7,0,0,1-3.15-1.74c-.88-.55-.92-1.78-.11-2.83l2.4-3.12a1.94,1.94,0,0,0,.06-2.69,22.11,22.11,0,0,1-2.16-2.17,2.3,2.3,0,0,0-2.88-.13l-3.51,2c-1.17.68-2.48.54-3-.31a28.18,28.18,0,0,1-2.9-6.36,2.3,2.3,0,0,1,.49-2,3.6,3.6,0,0,1,1-.9l3.51-2a3.75,3.75,0,0,0,1-.9,2.45,2.45,0,0,0,.55-1.81,26.53,26.53,0,0,1-.31-3.24,1.63,1.63,0,0,0-2-1.5l-3.66.37a1.62,1.62,0,0,1-2-1.74,42.88,42.88,0,0,1,1.53-7.84,2.62,2.62,0,0,1,.48-.92,3.41,3.41,0,0,1,2.28-1.32l3.66-.38a3.37,3.37,0,0,0,2.27-1.31,3.3,3.3,0,0,0,.4-.67c.48-1.15,1-2.3,1.63-3.44a1.72,1.72,0,0,0-.56-2.49L767.19,652c-1-.45-1.14-1.63-.42-2.72s1.7-2.47,2.63-3.68,1.92-2.4,2.93-3.55a3,3,0,0,1,3.25-.94l2.84,1.37a2.92,2.92,0,0,0,3.05-.75c1-.94,2-1.85,3.11-2.72a3.23,3.23,0,0,0,.58-.59,2.16,2.16,0,0,0,.43-2.2l-1.25-2.74a2.19,2.19,0,0,1,.43-2.21,3.53,3.53,0,0,1,.82-.76,70,70,0,0,1,8.11-4.67c1.2-.59,2.44-.33,2.86.59l1.26,2.75a2,2,0,0,0,2.61.69c1.25-.46,2.51-.89,3.78-1.26a3.49,3.49,0,0,0,1.77-1.21,2.64,2.64,0,0,0,.53-1.14l.67-3.38a2.76,2.76,0,0,1,.53-1.14,3.47,3.47,0,0,1,2-1.28,51.49,51.49,0,0,1,8.47-.88,1.59,1.59,0,0,1,1.73,2l-.67,3.39a1.58,1.58,0,0,0,1.47,2,32.58,32.58,0,0,1,3.43.51,3.17,3.17,0,0,0,3-1.27l2.41-3.13A3.1,3.1,0,0,1,832.81,621.83Zm-13.19,48c6.58-8.53,5.62-18.48-2.14-22.22s-19.39.15-26,8.68-5.62,18.5,2.14,22.24,19.39-.16,26-8.7Z" class="color5652cc svgShape"></path><path fill="#e7f3ff" d="M557.25,1018.45c-27.53-7.65-72.76-8.35-101-1.56s-28.86,18.48-1.34,26.13c14.76,4.1,34.61,6.2,54.2,6.22,16.95,0,33.71-1.51,46.82-4.66C584.17,1037.79,584.77,1026.09,557.25,1018.45Z" class="colore7eeff svgShape"></path><path fill="#342e94" d="M556.25,1009.08c0,3.29,0,15.76,0,19.05,0,4.79-6.37,9.6-19.16,13.25-11.71,3.35-26.75,5.14-42,5.39l-.05-19.06c15.23-.25,30.26-2,42-5.38C549.87,1018.67,556.27,1013.87,556.25,1009.08Z" class="color362e94 svgShape"></path><path fill="#5046e4" d="M537.79,996.17c24.88,7.22,24.56,18.93-.7,26.16-11.72,3.34-26.75,5.13-42,5.38,0,0-2.8-16.81-3.07-18.46Z" class="color5652cc svgShape"></path><path fill="#fc06cf" d="M427.88,1028.48l-.05-19.05c0,4.67,6.16,9.33,18.45,12.9,13.34,3.87,31.22,5.66,48.83,5.38l.05,19.06c-17.61.28-35.49-1.51-48.82-5.38C434.05,1037.82,427.9,1033.16,427.88,1028.48Z" class="colorfcba06 svgShape"></path><path fill="#3e9eff" d="M537.79 996.17L492 1009.25c.64 3.86 3.07 18.46 3.07 18.46-17.61.28-35.49-1.51-48.83-5.38-24.88-7.22-24.56-18.93.7-26.15S512.91 989 537.79 996.17zM1333.47 287.13c27.84-30.51 80.44-27.61 117.48 6.46l-50.41 55.23z" class="colorffd03e svgShape"></path><polygon fill="#a50b89" points="1400.54 348.82 1391.86 358 1324.79 296.31 1333.47 287.13 1400.54 348.82" class="colore19100 svgShape"></polygon><path fill="#471147" d="M1469.57,424.13l-8.67,9.19c-27.84,30.49-80.44,27.59-117.49-6.48s-44.52-86.43-16.68-116.93l8.68-9.18c-27.84,30.5-20.38,82.84,16.67,116.92S1441.73,454.63,1469.57,424.13Z" class="color131147 svgShape"></path><path fill="#342e94" d="M1402.49,362.43l-67.08-61.7c-27.84,30.5-20.38,82.84,16.67,116.92s89.65,37,117.49,6.48c16.63-18.22,20.65-44.24,13.3-69.5Z" class="color362e94 svgShape"></path><path fill="#5046e4" d="M1452.89,307.21l-50.4,55.22,80.38-7.8A104.87,104.87,0,0,0,1452.89,307.21Z" class="color5652cc svgShape"></path><path fill="#fc06cf" d="M113.93,677.27c3.24-22.42,30.45-37,60.76-32.64s52.25,26.12,49,48.54a31.43,31.43,0,0,1-5.15,13.15c3.36,6.52,9.22,14.81,15.4,23.62-12.37-1.37-24.53-6.82-30.07-10.64-11.05,6.07-25.59,8.72-40.94,6.5C132.62,721.41,110.68,699.68,113.93,677.27Z" class="colorfcba06 svgShape"></path><path fill="#ffffff" d="M167.75,681.89l-.59-9.19q-.54-8.76,0-11.83a6.68,6.68,0,0,1,8-5.59,6.59,6.59,0,0,1,4.51,2.76,6.9,6.9,0,0,1,1,5.33q-.6,3.43-3.9,11L173,682.82a68.56,68.56,0,0,0-3.82,10.82l-1.77-.31A73.61,73.61,0,0,0,167.75,681.89ZM171.56,702a6.5,6.5,0,0,1,1.07,5,6.63,6.63,0,1,1-5.37-7.76A6.32,6.32,0,0,1,171.56,702Z" class="colorffffff svgShape"></path></g></g></g></svg>