<svg xmlns="http://www.w3.org/2000/svg" height="48" width="48" viewBox="0 0 48 48"><title>calculator</title><g fill="#5046e4" class="nc-icon-wrapper"><path fill="#5046e4" d="M40,1H8C5.794,1,4,2.794,4,5v38c0,2.206,1.794,4,4,4h32c2.206,0,4-1.794,4-4V5C44,2.794,42.206,1,40,1z M16,40c0,0.552-0.447,1-1,1h-4c-0.553,0-1-0.448-1-1v-2c0-0.552,0.447-1,1-1h4c0.553,0,1,0.448,1,1V40z M16,32c0,0.552-0.447,1-1,1 h-4c-0.553,0-1-0.448-1-1v-2c0-0.552,0.447-1,1-1h4c0.553,0,1,0.448,1,1V32z M16,24c0,0.552-0.447,1-1,1h-4c-0.553,0-1-0.448-1-1v-2 c0-0.552,0.447-1,1-1h4c0.553,0,1,0.448,1,1V24z M27,40c0,0.552-0.447,1-1,1h-4c-0.553,0-1-0.448-1-1v-2c0-0.552,0.447-1,1-1h4 c0.553,0,1,0.448,1,1V40z M27,32c0,0.552-0.447,1-1,1h-4c-0.553,0-1-0.448-1-1v-2c0-0.552,0.447-1,1-1h4c0.553,0,1,0.448,1,1V32z M27,24c0,0.552-0.447,1-1,1h-4c-0.553,0-1-0.448-1-1v-2c0-0.552,0.447-1,1-1h4c0.553,0,1,0.448,1,1V24z M38,40c0,0.552-0.447,1-1,1 h-4c-0.553,0-1-0.448-1-1V30c0-0.552,0.447-1,1-1h4c0.553,0,1,0.448,1,1V40z M38,24c0,0.552-0.447,1-1,1h-4c-0.553,0-1-0.448-1-1v-2 c0-0.552,0.447-1,1-1h4c0.553,0,1,0.448,1,1V24z M38,16c0,0.552-0.447,1-1,1H11c-0.553,0-1-0.448-1-1V8c0-0.552,0.447-1,1-1h26 c0.553,0,1,0.448,1,1V16z"></path></g></svg>