<svg xmlns="http://www.w3.org/2000/svg" height="64" width="64" viewBox="0 0 64 64"><title>event create</title><g fill="#5046e4" class="nc-icon-wrapper"><path data-color="color-2" d="M32,12c-.552,0-1-.448-1-1V2c0-.552,.448-1,1-1s1,.448,1,1V11c0,.552-.448,1-1,1Z"></path><path data-color="color-2" d="M15,12c-.552,0-1-.448-1-1V2c0-.552,.448-1,1-1s1,.448,1,1V11c0,.552-.448,1-1,1Z"></path><path data-color="color-2" d="M49,12c-.552,0-1-.448-1-1V2c0-.552,.448-1,1-1s1,.448,1,1V11c0,.552-.448,1-1,1Z"></path><path d="M34.558,55H5V20H59v19.851c.737,.661,1.406,1.393,2,2.187V8c0-.552-.448-1-1-1h-8v3.83c0,1.624-1.216,3.081-2.839,3.165-1.73,.091-3.161-1.285-3.161-2.996V7h-11v3.83c0,1.624-1.216,3.081-2.839,3.165-1.73,.091-3.161-1.285-3.161-2.996V7h-11v3.83c0,1.624-1.216,3.081-2.839,3.165-1.73,.091-3.161-1.285-3.161-2.996V7H4c-.552,0-1,.448-1,1V56c0,.552,.448,1,1,1h31.261c-.282-.644-.513-1.313-.703-2Z" fill="#5046e4"></path><path data-color="color-2" d="M49,39c-6.627,0-12,5.373-12,12s5.373,12,12,12,12-5.373,12-12-5.373-12-12-12Zm6,13h-5v5c0,.552-.448,1-1,1s-1-.448-1-1v-5h-5c-.552,0-1-.448-1-1s.448-1,1-1h5v-5c0-.552,.448-1,1-1s1,.448,1,1v5h5c.552,0,1,.448,1,1s-.448,1-1,1Z"></path></g></svg>