<svg xmlns="http://www.w3.org/2000/svg" height="50" width="50" viewBox="0 0 64 64"><title>love car</title><g fill="#5046e4" class="nc-icon-wrapper"><path d="M36.73,2.036A7.426,7.426,0,0,0,32,4.4a7.4,7.4,0,0,0-10.8-.112,7.96,7.96,0,0,0,0,10.97L31.28,25.7a1,1,0,0,0,1.438,0L42.8,15.259a7.96,7.96,0,0,0,0-10.97A7.392,7.392,0,0,0,36.73,2.036Z" data-color="color-2"></path><path d="M0,54v1a1,1,0,0,0,1,1H7a7.96,7.96,0,0,1,.587-3H1A1,1,0,0,0,0,54Z" fill="#5046e4"></path><path d="M15,62a6,6,0,1,1,6-6A6.006,6.006,0,0,1,15,62Zm0-10a4,4,0,1,0,4,4A4,4,0,0,0,15,52Z" fill="#5046e4"></path><path d="M51,62a6,6,0,1,1,6-6A6.006,6.006,0,0,1,51,62Zm0-10a4,4,0,1,0,4,4A4,4,0,0,0,51,52Z" fill="#5046e4"></path><path d="M63,53H58.413A7.96,7.96,0,0,1,59,56h4a1,1,0,0,0,1-1V54A1,1,0,0,0,63,53Z" fill="#5046e4"></path><path d="M61.419,45.857a5.018,5.018,0,0,0-4.29-4.249L46.7,40.217l-5.84-9.732a1,1,0,0,0-1.714,1.03L44.234,40H26a4,4,0,0,1-4-4V34.5a2.5,2.5,0,0,0-5,0v3.52a.969.969,0,0,0-.142-.01L6.293,39.52A5,5,0,0,0,2,44.47v6.953H8.444A8,8,0,0,1,23,56H43a8,8,0,0,1,14.24-5h4.507Z" fill="#5046e4"></path></g></svg>