<svg xmlns="http://www.w3.org/2000/svg" height="50" width="50" viewBox="0 0 64 64"><title>car parking</title><g fill="#5046e4" class="nc-icon-wrapper"><path d="M62.423,16.094l-30-14a1,1,0,0,0-.846,0l-30,14a1,1,0,0,0,.846,1.813L32,4.1l29.577,13.8a1,1,0,1,0,.846-1.812Z" data-color="color-2"></path> <path d="M55.9,36.488,52.349,22.271A3,3,0,0,0,49.438,20H14.562a3,3,0,0,0-2.91,2.272L8.1,36.488,4.879,39.707A2.982,2.982,0,0,0,4,41.828V55a1,1,0,0,0,1,1H59a1,1,0,0,0,1-1V41.828a2.982,2.982,0,0,0-.879-2.121ZM13.591,22.758A1,1,0,0,1,14.562,22H49.438a1,1,0,0,1,.971.757L53.72,36H10.28ZM13,49a3,3,0,1,1,3-3A3,3,0,0,1,13,49Zm24-2H27a1,1,0,0,1,0-2H37a1,1,0,0,1,0,2Zm14,2a3,3,0,1,1,3-3A3,3,0,0,1,51,49Z" fill="#5046e4"></path> <path d="M6,61a1,1,0,0,0,1,1H18a1,1,0,0,0,1-1V58H6Z" fill="#5046e4"></path> <path d="M45,61a1,1,0,0,0,1,1H57a1,1,0,0,0,1-1V58H45Z" fill="#5046e4"></path></g></svg>