<svg xmlns="http://www.w3.org/2000/svg" height="64" width="64" viewBox="0 0 64 64"><title>comment add</title><g fill="#5046e4" class="nc-icon-wrapper"><path d="M57,9H27.125c.959,2.699,1.212,5.728,.345,8.912-1.203,4.42-4.459,8.051-8.667,9.861-3.5,1.505-6.821,1.497-9.803,.669v31.558c0,.552,.448,1,1,1,.23,0,.453-.079,.631-.224l15.724-12.776h30.645c3.314,0,6-2.686,6-6V15c0-3.314-2.686-6-6-6Z" fill="#5046e4"></path><path data-color="color-2" d="M13,2C6.373,2,1,7.373,1,14s5.373,12,12,12,12-5.373,12-12S19.627,2,13,2Zm6,13h-5v5c0,.552-.448,1-1,1s-1-.448-1-1v-5H7c-.552,0-1-.448-1-1s.448-1,1-1h5v-5c0-.552,.448-1,1-1s1,.448,1,1v5h5c.552,0,1,.448,1,1s-.448,1-1,1Z"></path></g></svg>