<svg xmlns="http://www.w3.org/2000/svg" height="48" width="48" viewBox="0 0 48 48"><title>bank statement</title><g fill="#5046e4" class="nc-icon-wrapper"><path d="M40,1H8A3,3,0,0,0,5,4V44a3,3,0,0,0,3,3H40a3,3,0,0,0,3-3V4A3,3,0,0,0,40,1ZM23,41H12a1,1,0,0,1,0-2H23a1,1,0,0,1,0,2Zm13-6H12a1,1,0,0,1,0-2H36a1,1,0,0,1,0,2Zm0-6H12a1,1,0,0,1,0-2H36a1,1,0,0,1,0,2Zm0-6H20a1,1,0,0,1,0-2h1V15h2v6h2V15h2v6h2V15h2v6h2V15h2v6h1a1,1,0,0,1,0,2Zm1-11a1,1,0,0,1-1,1H20a1,1,0,0,1-1-1V11a1,1,0,0,1,.553-.895l8-4a1,1,0,0,1,.894,0l8,4A1,1,0,0,1,37,11Z" fill="#5046e4"></path></g></svg>