<svg xmlns="http://www.w3.org/2000/svg" height="64" width="64" viewBox="0 0 64 64"><title>delivery fast</title><g fill="#5046e4" class="nc-icon-wrapper"><circle data-color="color-2" cx="43" cy="47" r="8"></circle> <path fill="#5046e4" d="M63.447,29.105l-7.649-3.824L49.937,9.648C49.79,9.259,49.417,9,49,9H1c-0.552,0-1,0.447-1,1s0.448,1,1,1h31 c0.552,0,1,0.447,1,1s-0.448,1-1,1h-5v5H8c-0.552,0-1,0.447-1,1s0.448,1,1,1h24c0.552,0,1,0.447,1,1s-0.448,1-1,1h-5v5H15 c-0.552,0-1,0.447-1,1s0.448,1,1,1h17c0.552,0,1,0.447,1,1s-0.448,1-1,1h-5v15c0,0.553,0.448,1,1,1h5c0-5.514,4.486-10,10-10 s10,4.486,10,10h10c0.552,0,1-0.447,1-1V30C64,29.621,63.786,29.275,63.447,29.105z"></path></g></svg>