<svg xmlns="http://www.w3.org/2000/svg" height="64" width="64" viewBox="0 0 64 64"><title>users meeting</title><g fill="#5046e4" class="nc-icon-wrapper"><path data-color="color-2" d="M62,1H28c-0.553,0-1,0.448-1,1v28c0,0.384,0.221,0.735,0.566,0.901 C27.705,30.967,27.853,31,28,31c0.223,0,0.444-0.075,0.625-0.219L38.351,23H62c0.553,0,1-0.448,1-1V2C63,1.448,62.553,1,62,1z"></path> <circle fill="#5046e4" cx="50" cy="36" r="7"></circle> <circle fill="#5046e4" cx="14" cy="36" r="7"></circle> <path fill="#5046e4" d="M24.543,49.726C22.442,48.482,18.907,47,14,47c-4.972,0-8.489,1.478-10.564,2.717 C1.934,50.613,1,52.26,1,54.014V60c0,0.553,0.447,1,1,1h24c0.553,0,1-0.447,1-1v-5.965C27,52.272,26.059,50.621,24.543,49.726z"></path> <path fill="#5046e4" d="M60.543,49.726C58.442,48.482,54.907,47,50,47c-4.972,0-8.489,1.478-10.564,2.717 C37.934,50.613,37,52.26,37,54.014V60c0,0.553,0.447,1,1,1h24c0.553,0,1-0.447,1-1v-5.965C63,52.272,62.059,50.621,60.543,49.726z"></path></g></svg>