<svg xmlns="http://www.w3.org/2000/svg" height="64" width="64" viewBox="0 0 64 64"><title>exchange</title><g fill="#5046e4" class="nc-icon-wrapper"><path data-color="color-2" d="M33.293,12.707l8,8C41.488,20.902,41.744,21,42,21s0.512-0.098,0.707-0.293 c0.391-0.391,0.391-1.023,0-1.414L36.414,13H46c3.86,0,7,3.14,7,7v6c0,0.552,0.448,1,1,1s1-0.448,1-1v-6c0-4.962-4.038-9-9-9h-9.586 l6.293-6.293c0.391-0.391,0.391-1.023,0-1.414s-1.023-0.391-1.414,0l-8,8c-0.092,0.092-0.165,0.203-0.216,0.325 c-0.101,0.245-0.101,0.52,0,0.764C33.128,12.505,33.201,12.615,33.293,12.707z"></path> <path data-color="color-2" d="M30.923,51.618c-0.051-0.122-0.124-0.233-0.216-0.325l-8-8c-0.391-0.391-1.023-0.391-1.414,0 s-0.391,1.023,0,1.414L27.586,51H18c-3.86,0-7-3.14-7-7v-6c0-0.552-0.448-1-1-1s-1,0.448-1,1v6c0,4.962,4.038,9,9,9h9.586 l-6.293,6.293c-0.391,0.391-0.391,1.023,0,1.414C21.488,60.902,21.744,61,22,61s0.512-0.098,0.707-0.293l8-8 c0.092-0.092,0.165-0.203,0.216-0.325C31.024,52.138,31.024,51.862,30.923,51.618z"></path> <path fill="#5046e4" d="M27,28v-1.965c0-1.762-0.942-3.413-2.458-4.31C22.441,20.482,18.906,19,14,19 c-4.972,0-8.489,1.478-10.564,2.717C1.933,22.613,1,24.26,1,26.014V28c0,0.552,0.448,1,1,1h24C26.552,29,27,28.552,27,28z"></path> <circle fill="#5046e4" cx="14" cy="8" r="7"></circle> <path fill="#5046e4" d="M60.542,55.725C58.441,54.482,54.906,53,50,53c-4.972,0-8.489,1.478-10.564,2.717 C37.933,56.613,37,58.26,37,60.014V62c0,0.552,0.448,1,1,1h24c0.552,0,1-0.448,1-1v-1.965C63,58.273,62.058,56.622,60.542,55.725z"></path> <circle fill="#5046e4" cx="50" cy="42" r="7"></circle></g></svg>