<svg xmlns="http://www.w3.org/2000/svg" height="64" width="64" viewBox="0 0 64 64"><title>receipt list 43</title><g fill="#5046e4" class="nc-icon-wrapper"><path fill="#5046e4" d="M55,1H9C7.895,1,7,1.895,7,3v59c0,0.379,0.214,0.725,0.553,0.895C7.891,63.063,8.296,63.026,8.6,62.8 l7.4-5.55l7.4,5.55c0.356,0.267,0.845,0.267,1.2,0l7.4-5.55L39.4,62.8c0.356,0.267,0.845,0.267,1.2,0l7.4-5.55l7.4,5.55 c0.177,0.132,0.388,0.2,0.6,0.2c0.152,0,0.306-0.035,0.447-0.105C56.786,62.725,57,62.379,57,62V3C57,1.895,56.105,1,55,1z M34,42 H18c-0.552,0-1-0.448-1-1s0.448-1,1-1h16c0.552,0,1,0.448,1,1S34.552,42,34,42z M34,30H18c-0.552,0-1-0.448-1-1s0.448-1,1-1h16 c0.552,0,1,0.448,1,1S34.552,30,34,30z M34,18H18c-0.552,0-1-0.448-1-1s0.448-1,1-1h16c0.552,0,1,0.448,1,1S34.552,18,34,18z M46,42 h-4c-0.552,0-1-0.448-1-1s0.448-1,1-1h4c0.552,0,1,0.448,1,1S46.552,42,46,42z M46,30h-4c-0.552,0-1-0.448-1-1s0.448-1,1-1h4 c0.552,0,1,0.448,1,1S46.552,30,46,30z M46,18h-4c-0.552,0-1-0.448-1-1s0.448-1,1-1h4c0.552,0,1,0.448,1,1S46.552,18,46,18z"></path></g></svg>