<svg xmlns="http://www.w3.org/2000/svg" height="64" width="64" viewBox="0 0 64 64"><title>currency exchange 2</title><g fill="#5046e4" class="nc-icon-wrapper"><path d="M6,32A26,26,0,0,1,47.969,11.486L43.32,15.8a1,1,0,0,0,.455,1.707l15,3.467A.948.948,0,0,0,59,21a1,1,0,0,0,1-1,.964.964,0,0,0-.014-.169l-2.571-15a1,1,0,0,0-1.666-.564L50.931,8.738A29.99,29.99,0,0,0,2,32a2,2,0,0,0,4,0Z" fill="#5046e4"></path><path d="M60,30a2,2,0,0,0-2,2A26,26,0,0,1,16.031,52.514L20.68,48.2a1,1,0,0,0-.455-1.707l-15-3.467a1,1,0,0,0-1.211,1.143l2.571,15a1,1,0,0,0,1.666.564l4.818-4.471A29.99,29.99,0,0,0,62,32,2,2,0,0,0,60,30Z" fill="#5046e4"></path><path data-color="color-2" d="M42.247,37.691a6.578,6.578,0,0,1-2.282,5.146,11.621,11.621,0,0,1-6.587,2.5v4.672H30.515V45.463a22.2,22.2,0,0,1-8.762-1.636V39.285A21.745,21.745,0,0,0,26.08,40.8a19.431,19.431,0,0,0,4.435.635V33.392l-1.809-.668a12.728,12.728,0,0,1-5.155-3.239,6.881,6.881,0,0,1-1.626-4.661,6.066,6.066,0,0,1,2.315-4.887,11.458,11.458,0,0,1,6.275-2.324V13.991h2.863v3.552a23.763,23.763,0,0,1,8.288,1.765l-1.572,3.94a23.119,23.119,0,0,0-6.716-1.593v7.836l1.636.625a14.965,14.965,0,0,1,5.661,3.315A6.14,6.14,0,0,1,42.247,37.691ZM26.984,24.776a2.876,2.876,0,0,0,.764,2.045,7.818,7.818,0,0,0,2.767,1.615V21.741A5.047,5.047,0,0,0,27.888,22.8,2.535,2.535,0,0,0,26.984,24.776ZM37.166,38.015a2.678,2.678,0,0,0-.871-2.056,8.977,8.977,0,0,0-2.917-1.56v6.867Q37.165,40.684,37.166,38.015Z"></path></g></svg>