<svg xmlns="http://www.w3.org/2000/svg" height="48" width="48" viewBox="0 0 48 48"><title>todo</title><g fill="#5046e4" class="nc-icon-wrapper"><path fill="#5046e4" d="M42,6h-6v4h3c0.552,0,1,0.448,1,1v31c0,0.552-0.448,1-1,1H9c-0.552,0-1-0.448-1-1V11c0-0.552,0.448-1,1-1h3 V6H6C4.895,6,4,6.895,4,8v37c0,1.105,0.895,2,2,2h36c1.105,0,2-0.895,2-2V8C44,6.895,43.105,6,42,6z"></path> <path data-color="color-2" d="M33,6h-4c0-2.761-2.239-5-5-5s-5,2.239-5,5h-4c-0.552,0-1,0.448-1,1v5c0,0.552,0.448,1,1,1 h18c0.552,0,1-0.448,1-1V7C34,6.448,33.552,6,33,6z M24,8c-1.105,0-2-0.895-2-2c0-1.105,0.895-2,2-2s2,0.895,2,2 C26,7.105,25.105,8,24,8z"></path> <path data-color="color-2" d="M22,33c-0.256,0-0.512-0.098-0.707-0.293l-5-5c-0.391-0.391-0.391-1.023,0-1.414 s1.023-0.391,1.414,0L22,30.586l8.293-8.293c0.391-0.391,1.023-0.391,1.414,0s0.391,1.023,0,1.414l-9,9 C22.512,32.902,22.256,33,22,33z"></path></g></svg>