<svg xmlns="http://www.w3.org/2000/svg" height="64" width="64" viewBox="0 0 64 64"><title>list</title><g fill="#5046e4" class="nc-icon-wrapper"><path fill="#5046e4" d="M55,1H9C7.895,1,7,1.895,7,3v58c0,1.105,0.895,2,2,2h46c1.105,0,2-0.895,2-2V3C57,1.895,56.105,1,55,1z M19,49c-1.657,0-3-1.343-3-3s1.343-3,3-3s3,1.343,3,3S20.657,49,19,49z M24.707,28.707l-6,6C18.512,34.902,18.256,35,18,35 s-0.512-0.098-0.707-0.293l-2-2c-0.391-0.391-0.391-1.023,0-1.414s1.023-0.391,1.414,0L18,32.586l5.293-5.293 c0.391-0.391,1.023-0.391,1.414,0S25.098,28.316,24.707,28.707z M24.707,14.707l-6,6C18.512,20.902,18.256,21,18,21 s-0.512-0.098-0.707-0.293l-2-2c-0.391-0.391-0.391-1.023,0-1.414s1.023-0.391,1.414,0L18,18.586l5.293-5.293 c0.391-0.391,1.023-0.391,1.414,0S25.098,14.316,24.707,14.707z M47,47H31c-0.552,0-1-0.448-1-1s0.448-1,1-1h16c0.552,0,1,0.448,1,1 S47.552,47,47,47z M47,33H31c-0.552,0-1-0.448-1-1s0.448-1,1-1h16c0.552,0,1,0.448,1,1S47.552,33,47,33z M47,19H31 c-0.552,0-1-0.448-1-1s0.448-1,1-1h16c0.552,0,1,0.448,1,1S47.552,19,47,19z"></path></g></svg>