<svg xmlns="http://www.w3.org/2000/svg" height="64" width="64" viewBox="0 0 64 64"><title>shipping container</title><g fill="#5046e4" class="nc-icon-wrapper"><path d="M61,25h-1c-.459,0-.858,.312-.97,.757l-.811,3.243H5.78l-.811-3.243c-.111-.445-.511-.757-.97-.757h-1c-.552,0-1,.448-1,1V61c0,1.105,.895,2,2,2H60c1.105,0,2-.895,2-2V26c0-.552-.448-1-1-1ZM9,58c0,.553-.447,1-1,1s-1-.447-1-1v-24c0-.553,.447-1,1-1s1,.447,1,1v24Zm8,0c0,.553-.447,1-1,1s-1-.447-1-1v-24c0-.553,.447-1,1-1s1,.447,1,1v24Zm8,0c0,.553-.447,1-1,1s-1-.447-1-1v-24c0-.553,.447-1,1-1s1,.447,1,1v24Zm8,0c0,.553-.447,1-1,1s-1-.447-1-1v-24c0-.553,.447-1,1-1s1,.447,1,1v24Zm8,0c0,.553-.447,1-1,1s-1-.447-1-1v-24c0-.553,.447-1,1-1s1,.447,1,1v24Zm8,0c0,.553-.447,1-1,1s-1-.447-1-1v-24c0-.553,.447-1,1-1s1,.447,1,1v24Zm8,0c0,.553-.447,1-1,1s-1-.447-1-1v-24c0-.553,.447-1,1-1s1,.447,1,1v24Z" fill="#5046e4"></path><path d="M32,1c-2.757,0-5,2.243-5,5,0,.81,.212,1.565,.556,2.242L7.379,24.215c-.433,.343-.506,.972-.163,1.405,.197,.249,.489,.379,.785,.379,.217,0,.436-.07,.62-.216L28.8,9.809c.87,.732,1.977,1.191,3.2,1.191,2.757,0,5-2.243,5-5s-2.243-5-5-5Zm0,8c-.585,0-1.127-.175-1.589-.466l2.211-1.75c.433-.343,.506-.972,.163-1.405-.344-.433-.97-.507-1.405-.163l-2.206,1.747c-.104-.304-.173-.624-.173-.962,0-1.654,1.346-3,3-3s3,1.346,3,3-1.346,3-3,3Z" data-color="color-2"></path><path d="M56.621,24.216l-18.575-14.705c-.339,.581-.757,1.108-1.243,1.568l18.576,14.706c.185,.146,.403,.216,.62,.216,.295,0,.588-.13,.785-.379,.343-.434,.27-1.062-.163-1.405Z" data-color="color-2"></path></g></svg>