<svg xmlns="http://www.w3.org/2000/svg" height="48" width="48" viewBox="0 0 48 48"><title>dumbbell</title><g fill="#5046e4" class="nc-icon-wrapper"><path data-color="color-2" d="M5,13a2,2,0,0,0-2,2v8H1a1,1,0,0,0,0,2H3v8a2,2,0,0,0,4,0V15A2,2,0,0,0,5,13Z"></path> <path d="M35,6a4,4,0,0,0-4,4V21H17V10a4,4,0,0,0-8,0V38a4,4,0,0,0,8,0V27H31V38a4,4,0,0,0,8,0V10A4,4,0,0,0,35,6Z" fill="#5046e4"></path> <path data-color="color-2" d="M47,23H45V15a2,2,0,0,0-4,0V33a2,2,0,0,0,4,0V25h2a1,1,0,0,0,0-2Z"></path></g></svg>