<svg xmlns="http://www.w3.org/2000/svg" height="48" width="48" viewBox="0 0 48 48"><title>people network</title><g fill="#5046e4" class="nc-icon-wrapper"><circle data-color="color-2" cx="24" cy="6" r="5"></circle> <circle data-color="color-2" cx="42" cy="16" r="5"></circle> <circle data-color="color-2" cx="6" cy="16" r="5"></circle> <path fill="#5046e4" d="M35.968,38.041l-4.822-2.059C29.329,37.841,26.799,39,24,39c-2.804,0-5.337-1.163-7.155-3.028l-4.815,2.07 C10.189,38.831,9,40.635,9,42.638V46c0,0.552,0.448,1,1,1h28c0.552,0,1-0.448,1-1v-3.362C39,40.635,37.811,38.831,35.968,38.041z"></path> <path fill="#5046e4" d="M24,37L24,37c-4.418,0-8-3.582-8-8v-2c0-4.418,3.582-8,8-8h0c4.418,0,8,3.582,8,8v2 C32,33.418,28.418,37,24,37z"></path></g></svg>