<svg xmlns="http://www.w3.org/2000/svg" height="64" width="64" viewBox="0 0 64 64"><title>patch 34</title><g fill="#5046e4" class="nc-icon-wrapper"><path fill="#5046e4" d="M32.707,52.293l19.586-19.586l-21-21L11.707,31.293L32.707,52.293z M40,30c1.105,0,2,0.895,2,2 c0,1.105-0.895,2-2,2s-2-0.895-2-2C38,30.895,38.895,30,40,30z M32,22c1.105,0,2,0.895,2,2c0,1.105-0.895,2-2,2s-2-0.895-2-2 C30,22.895,30.895,22,32,22z M32,38c1.105,0,2,0.895,2,2c0,1.105-0.895,2-2,2s-2-0.895-2-2C30,38.895,30.895,38,32,38z M24,30 c1.105,0,2,0.895,2,2c0,1.105-0.895,2-2,2s-2-0.895-2-2C22,30.895,22.895,30,24,30z"></path> <path data-color="color-2" d="M10.293,32.707l-6.757,6.757c-1.953,1.953-1.953,5.118,0,7.071l13.929,13.929 c1.953,1.953,5.118,1.953,7.071,0l6.757-6.757L10.293,32.707z"></path> <path data-color="color-2" d="M60.464,17.464L46.536,3.536c-1.953-1.953-5.118-1.953-7.071,0l-6.757,6.757l21,21 l6.757-6.757C62.417,22.583,62.417,19.417,60.464,17.464z"></path></g></svg>