<svg xmlns="http://www.w3.org/2000/svg" height="64" width="64" viewBox="0 0 64 64"><title>security</title><g fill="#5046e4" class="nc-icon-wrapper"><path fill="#5046e4" d="M60,13c-8.171,0-19.951-4.213-27.4-9.8c-0.355-0.267-0.845-0.267-1.2,0C23.951,8.787,12.171,13,4,13 c-0.552,0-1,0.448-1,1c0,21.055,11.229,39.472,28.606,46.919C31.732,60.973,31.866,61,32,61s0.268-0.027,0.394-0.081 C49.771,53.472,61,35.055,61,14C61,13.448,60.552,13,60,13z M32,58.909V32H8.01c-1.853-5.299-2.899-11.04-3.002-17.02 c8.263-0.313,19.524-4.368,26.992-9.74V32h23.99C51.744,44.142,43.242,53.95,32,58.909z"></path></g></svg>