<svg xmlns="http://www.w3.org/2000/svg" height="64" width="64" viewBox="0 0 64 64"><title>receipt</title><g fill="#5046e4" class="nc-icon-wrapper"><path fill="#5046e4" d="M27.257,27.912c0,0.909,0.269,1.638,0.807,2.188s1.609,1.07,2.936,1.56v-6.94 c-1.183,0.191-2.219,0.565-2.828,1.121C27.562,26.397,27.257,27.087,27.257,27.912z"></path> <path fill="#5046e4" d="M33,35.372v6.976c2.594-0.359,4.066-1.458,4.066-3.299c0-0.861-0.266-1.557-0.798-2.089 S34.53,35.898,33,35.372z"></path> <path fill="#5046e4" d="M56.447,1.105C56.107,0.936,55.703,0.973,55.4,1.2L48,6.75L40.6,1.2c-0.356-0.267-0.845-0.267-1.2,0L32,6.75 L24.6,1.2c-0.356-0.267-0.845-0.267-1.2,0L16,6.75L8.6,1.2C8.296,0.973,7.891,0.936,7.553,1.105C7.214,1.275,7,1.621,7,2v59 c0,1.105,0.895,2,2,2h46c1.105,0,2-0.895,2-2V2C57,1.621,56.786,1.275,56.447,1.105z M38.285,42.84 c-1.219,1.058-3.097,1.724-5.285,1.999V49h-2v-3.999c-1.339,0-2.775-0.105-4.03-0.314c-1.255-0.209-2.283-0.499-3.084-0.87V41.02 c0.992,0.442,2.137,0.804,3.434,1.085c1.297,0.281,2.616,0.421,3.68,0.421v-7.89c-2.451-0.777-4.308-1.68-5.294-2.708 c-0.986-1.028-1.479-2.355-1.479-3.981c0-1.566,0.607-2.851,1.82-3.855c1.213-1.004,2.957-1.614,4.953-1.829V19h2v3.228 c2.2,0.06,4.496,0.502,6.54,1.327l-0.932,2.349c-1.781-0.705-3.767-1.124-5.608-1.255v7.782c1.877,0.598,3.456,1.18,4.389,1.748 c0.932,0.568,1.62,1.219,2.062,1.955c0.442,0.735,0.664,1.629,0.664,2.681C40.114,40.44,39.505,41.782,38.285,42.84z"></path></g></svg>