<svg xmlns="http://www.w3.org/2000/svg" height="48" width="48" viewBox="0 0 48 48"><title>apple 2</title><g fill="#5046e4" class="nc-icon-wrapper"><path d="M39.692,14.311c-3.835-3.083-7.987-2.393-11.655-1.786-1.081.18-2.117.352-3.1.425-.438-3.967-3.274-8.6-7.646-9.908a1,1,0,1,0-.574,1.916C20.206,6.006,22.5,9.7,22.922,12.936c-.944-.078-1.93-.24-2.959-.411-3.667-.607-7.82-1.3-11.655,1.786C3.231,18.4,1.924,29.9,8.164,39.874c5.1,8.158,10.42,7.352,13.94,6.819a13.564,13.564,0,0,1,1.9-.208,13.564,13.564,0,0,1,1.9.208,21.1,21.1,0,0,0,3.226.31c3.167,0,7-1.187,10.714-7.129C46.076,29.9,44.769,18.4,39.692,14.311Z" fill="#5046e4"></path> <path data-color="color-2" d="M34,3V1a7,7,0,0,0-7,7v2A7,7,0,0,0,34,3Z"></path></g></svg>