<svg xmlns="http://www.w3.org/2000/svg" height="50" width="50" viewBox="0 0 48 48"><title>books 46</title><g fill="#5046e4" class="nc-icon-wrapper"><path fill="#5046e4" d="M29,4H2C1.447,4,1,4.448,1,5v10c0,0.552,0.447,1,1,1h27V4z M17,11H7c-0.553,0-1-0.448-1-1s0.447-1,1-1h10 c0.553,0,1,0.448,1,1S17.553,11,17,11z"></path> <path data-color="color-2" d="M40,4h-9v12h9c0.553,0,1-0.448,1-1V5C41,4.448,40.553,4,40,4z"></path> <path fill="#5046e4" d="M35,18H8c-0.553,0-1,0.448-1,1v10c0,0.552,0.447,1,1,1h27V18z M23,25H13c-0.553,0-1-0.448-1-1s0.447-1,1-1 h10c0.553,0,1,0.448,1,1S23.553,25,23,25z"></path> <path data-color="color-2" d="M46,18h-9v12h9c0.553,0,1-0.448,1-1V19C47,18.448,46.553,18,46,18z"></path> <path fill="#5046e4" d="M29,32H2c-0.553,0-1,0.448-1,1v10c0,0.552,0.447,1,1,1h27V32z M17,39H7c-0.553,0-1-0.448-1-1s0.447-1,1-1h10 c0.553,0,1,0.448,1,1S17.553,39,17,39z"></path> <path data-color="color-2" d="M40,32h-9v12h9c0.553,0,1-0.448,1-1V33C41,32.448,40.553,32,40,32z"></path></g></svg>