<svg xmlns="http://www.w3.org/2000/svg" height="64" width="64" viewBox="0 0 64 64"><title>loan</title><g fill="#5046e4" class="nc-icon-wrapper"><path d="M62.485,40.917A4.413,4.413,0,0,0,56.316,39.2l-10.807,6.33a6.286,6.286,0,0,1-5.18,3.865L25.1,51a.924.924,0,0,1-.105.006,1,1,0,0,1-.1-1.994L25,49h0l15.032-1.582A4.433,4.433,0,0,0,44,43.01h0A4.431,4.431,0,0,0,40.009,38.6L25.246,37.125a10.024,10.024,0,0,1-2.423-.553L15.062,33.75a10,10,0,0,0-4.248-.568l-8.9.742a1,1,0,0,0-.917,1V52a1,1,0,0,0,1,1H5.5a10,10,0,0,1,4.679,1.162L21.6,60.207a10,10,0,0,0,7.1.864l19.06-4.766a6,6,0,0,0,2.218-1.076l11.154-8.635A4.553,4.553,0,0,0,62.485,40.917Z" fill="#5046e4"></path><path d="M39,3A13,13,0,1,0,52,16,13.015,13.015,0,0,0,39,3Zm4.707,13.707-4,4a1,1,0,0,1-1.414,0l-4-4a1,1,0,0,1,0-1.414l4-4a1,1,0,0,1,1.414,0l4,4A1,1,0,0,1,43.707,16.707Z" data-color="color-2"></path></g></svg>