<svg xmlns="http://www.w3.org/2000/svg" height="64" width="64" viewBox="0 0 64 64"><title>cash register</title><g fill="#5046e4" class="nc-icon-wrapper"><path data-color="color-2" d="M62,49H2c-0.552,0-1,0.447-1,1v12c0,0.553,0.448,1,1,1h60c0.552,0,1-0.447,1-1V50 C63,49.447,62.552,49,62,49z"></path> <path fill="#5046e4" d="M56.832,37.445L49,25.697V18c0-0.552-0.448-1-1-1h-7v-6h7c0.552,0,1-0.448,1-1V2c0-0.552-0.448-1-1-1H32 c-0.552,0-1,0.448-1,1v8c0,0.552,0.448,1,1,1h7v6H16c-0.552,0-1,0.448-1,1v7.697L7.168,37.445C7.058,37.61,7,37.803,7,38v9h50v-9 C57,37.803,56.942,37.61,56.832,37.445z M40,33H24c-0.552,0-1-0.447-1-1v-6c0-0.553,0.448-1,1-1h16c0.552,0,1,0.447,1,1v6 C41,32.553,40.552,33,40,33z"></path></g></svg>