<svg xmlns="http://www.w3.org/2000/svg" height="48" width="48" viewBox="0 0 48 48"><title>board 2</title><g fill="#5046e4" class="nc-icon-wrapper"><path d="M40,3H8c-2.761,0-5,2.239-5,5V40c0,2.761,2.239,5,5,5H40c2.761,0,5-2.239,5-5V8c0-2.761-2.239-5-5-5ZM21,39H10c-.552,0-1-.448-1-1v-9c0-.552,.448-1,1-1h11c.552,0,1,.448,1,1v9c0,.552-.448,1-1,1Zm0-15H10c-.552,0-1-.448-1-1V10c0-.552,.448-1,1-1h11c.552,0,1,.448,1,1v13c0,.552-.448,1-1,1Zm17,15h-11c-.552,0-1-.448-1-1V10c0-.552,.448-1,1-1h11c.552,0,1,.448,1,1v28c0,.552-.448,1-1,1Z" fill="#5046e4"></path></g></svg>