<svg xmlns="http://www.w3.org/2000/svg" height="48" width="48" viewBox="0 0 48 48"><title>office</title><g fill="#5046e4" class="nc-icon-wrapper"><path fill="#5046e4" d="M46,21H30c-0.553,0-1,0.447-1,1v24c0,0.553,0.447,1,1,1h16c0.553,0,1-0.447,1-1V22 C47,21.447,46.553,21,46,21z M41,41h-6c-0.553,0-1-0.447-1-1s0.447-1,1-1h6c0.553,0,1,0.447,1,1S41.553,41,41,41z M41,35h-6 c-0.553,0-1-0.447-1-1s0.447-1,1-1h6c0.553,0,1,0.447,1,1S41.553,35,41,35z M41,29h-6c-0.553,0-1-0.447-1-1s0.447-1,1-1h6 c0.553,0,1,0.447,1,1S41.553,29,41,29z"></path> <path data-color="color-2" d="M36,5H25V2c0-0.553-0.447-1-1-1s-1,0.447-1,1v3H12c-0.552,0-1,0.448-1,1v19h8 c1.105,0,2,0.895,2,2v20h6V21c0-1.105,0.895-2,2-2h8V6C37,5.448,36.552,5,36,5z M28,15h-8c-0.553,0-1-0.447-1-1s0.447-1,1-1h8 c0.553,0,1,0.447,1,1S28.553,15,28,15z"></path> <path fill="#5046e4" d="M18,27H2c-0.553,0-1,0.447-1,1v18c0,0.553,0.447,1,1,1h16c0.553,0,1-0.447,1-1V28C19,27.447,18.553,27,18,27 z M13,41H7c-0.553,0-1-0.447-1-1s0.447-1,1-1h6c0.553,0,1,0.447,1,1S13.553,41,13,41z M13,35H7c-0.553,0-1-0.447-1-1s0.447-1,1-1h6 c0.553,0,1,0.447,1,1S13.553,35,13,35z"></path></g></svg>