<svg xmlns="http://www.w3.org/2000/svg" height="48" width="48" viewBox="0 0 48 48"><title>stamp</title><g fill="#5046e4" class="nc-icon-wrapper"><path fill="#5046e4" d="M43.581,30.14L28,25V13l6.316-2.053C34.725,10.812,35,10.43,35,9.999V5c0-1.105-0.895-2-2-2H15 c-1.105,0-2,0.895-2,2v4.999c0,0.431,0.275,0.812,0.684,0.948L20,13v12L4.419,30.14C2.374,30.821,1,32.728,1,34.883V38 c0,0.552,0.448,1,1,1h44c0.552,0,1-0.448,1-1v-3.117C47,32.728,45.626,30.821,43.581,30.14z"></path> <path data-color="color-2" d="M43,41H5v3c0,0.552,0.448,1,1,1h36c0.552,0,1-0.448,1-1V41z"></path></g></svg>