<svg xmlns="http://www.w3.org/2000/svg" height="32" width="32" viewBox="0 0 32 32"><title>user create</title><g fill="#5046e4" class="nc-icon-wrapper"><circle cx="13.475" cy="8" r="7" fill="#5046e4"></circle><path d="M16,25c0-2.7,1.201-5.12,3.09-6.771-1.711-.782-3.608-1.229-5.615-1.229C6.208,17,.289,22.692,0,29.96c-.011,.272,.089,.537,.278,.733,.189,.195,.449,.307,.721,.307H18.311c-1.431-1.594-2.311-3.694-2.311-6Z" fill="#5046e4"></path><path d="M25,18c-3.866,0-7,3.134-7,7s3.134,7,7,7,7-3.134,7-7-3.134-7-7-7Zm4.5,8h-3.5v3.5c0,.276-.224,.5-.5,.5h-1c-.276,0-.5-.224-.5-.5v-3.5h-3.5c-.276,0-.5-.224-.5-.5v-1c0-.276,.224-.5,.5-.5h3.5v-3.5c0-.276,.224-.5,.5-.5h1c.276,0,.5,.224,.5,.5v3.5h3.5c.276,0,.5,.224,.5,.5v1c0,.276-.224,.5-.5,.5Z" data-color="color-2"></path></g></svg>