<svg xmlns="http://www.w3.org/2000/svg" height="64" width="64" viewBox="0 0 64 64"><title>storage unit</title><g fill="#5046e4" class="nc-icon-wrapper"><path d="M62,18a.992.992,0,0,1-.422-.094L32,4.1,2.423,17.906a1,1,0,0,1-.846-1.812l30-14a1,1,0,0,1,.846,0l30,14A1,1,0,0,1,62,18Z" data-color="color-2"></path><path d="M43,17H35v9H29V17H21a1,1,0,0,0-1,1V37a1,1,0,0,0,1,1H43a1,1,0,0,0,1-1V18A1,1,0,0,0,43,17Z" fill="#5046e4"></path><path d="M56,40H48v9H42V40H34a1,1,0,0,0-1,1V60a1,1,0,0,0,1,1H56a1,1,0,0,0,1-1V41A1,1,0,0,0,56,40Z" fill="#5046e4"></path><path d="M30,40H22v9H16V40H8a1,1,0,0,0-1,1V60a1,1,0,0,0,1,1H30a1,1,0,0,0,1-1V41A1,1,0,0,0,30,40Z" fill="#5046e4"></path></g></svg>