<svg xmlns="http://www.w3.org/2000/svg" height="48" width="48" viewBox="0 0 48 48"><title>headset</title><g fill="#5046e4" class="nc-icon-wrapper"><path fill="#5046e4" d="M24,1C12.42,1,3,10.42,3,22v12c0,2.757,2.243,5,5,5h6c0.552,0,1-0.448,1-1V24c0-0.552-0.448-1-1-1H5v-1 C5,11.523,13.523,3,24,3s19,8.523,19,19v1h-9c-0.552,0-1,0.448-1,1v14c0,0.552,0.448,1,1,1h6c1.13,0,2.162-0.391,3-1.026V39 c0,2.757-2.243,5-5,5h-3v-1c0-0.552-0.448-1-1-1H24c-0.552,0-1,0.448-1,1v3c0,0.552,0.448,1,1,1h10c0.552,0,1-0.448,1-1h3 c3.86,0,7-3.14,7-7V22C45,10.42,35.58,1,24,1z"></path></g></svg>