<svg xmlns="http://www.w3.org/2000/svg" height="48" width="48" viewBox="0 0 48 48"><title>white house</title><g fill="#5046e4" class="nc-icon-wrapper"><rect data-color="color-2" x="32" y="26" width="2" height="16"></rect><rect data-color="color-2" x="26" y="26" width="2" height="16"></rect><rect data-color="color-2" x="14" y="26" width="2" height="16"></rect><rect data-color="color-2" x="20" y="26" width="2" height="16"></rect><path data-color="color-2" d="M28,7h5a1,1,0,0,0,1-1V3a1,1,0,0,0-1-1H28a1,1,0,0,0-1,1V6a1,1,0,0,0,1,1Z"></path><path d="M46,26H38V44H10V26H2a1,1,0,0,0-1,1V45a1,1,0,0,0,1,1H46a1,1,0,0,0,1-1V27A1,1,0,0,0,46,26Z" fill="#5046e4"></path><path d="M6,24H42a1,1,0,0,0,1-1V18a1,1,0,0,0-.638-.933L25,10.316V2a1,1,0,0,0-2,0v8.316L5.638,17.066A1,1,0,0,0,5,18v5A1,1,0,0,0,6,24Z" fill="#5046e4"></path></g></svg>