<svg xmlns="http://www.w3.org/2000/svg" height="64" width="64" viewBox="0 0 64 64"><title>airplane</title><g fill="#5046e4" class="nc-icon-wrapper"><path d="M59.047,4.976C56.86,2.789,48.765,4.66,45.836,7.589L21.847,31.579a32,32,0,0,0-4.539,5.715L7.256,53.441A2.487,2.487,0,0,0,9.513,57a4.456,4.456,0,0,0,1.063-.239L26.723,46.716a32.011,32.011,0,0,0,5.724-4.544L56.433,18.186C59.362,15.257,61.233,7.162,59.047,4.976Z" fill="#5046e4"></path><path data-color="color-2" d="M35.357,15.24,12.42,7.886A5.976,5.976,0,0,0,6.346,9.357L3.293,12.409a1,1,0,0,0,.19,1.563L24.146,26.451Z"></path><path data-color="color-2" d="M48.76,28.643,56.114,51.58a5.976,5.976,0,0,1-1.471,6.074l-3.052,3.053a1,1,0,0,1-1.563-.19L37.549,39.854Z"></path><path data-color="color-2" d="M22.958,51.413l-6.7,4.17,6.012,6.1h0A1,1,0,0,0,24,61a1.073,1.073,0,0,0-.011-.151Z"></path><path data-color="color-2" d="M12.6,41.065,3.151,40.011A1.073,1.073,0,0,0,3,40a1,1,0,0,0-.68,1.733h0l6.12,6.022Z"></path></g></svg>