<svg xmlns="http://www.w3.org/2000/svg" height="50" width="50" viewBox="0 0 64 64"><title>globe</title><g fill="#5046e4" class="nc-icon-wrapper"><path d="M32,2A30,30,0,1,0,62,32,30.034,30.034,0,0,0,32,2ZM6.025,33h8.99A42.615,42.615,0,0,0,16.95,45H9.5A25.81,25.81,0,0,1,6.025,33ZM33,17V6.064C37.637,6.6,41.7,10.794,44.241,17Zm11.982,2a40.869,40.869,0,0,1,2,12H33V19ZM31,6.064V17H19.759C22.3,10.794,26.363,6.6,31,6.064ZM31,19V31H17.015a40.869,40.869,0,0,1,2-12ZM15.015,31H6.025A25.81,25.81,0,0,1,9.5,19H16.95A42.615,42.615,0,0,0,15.015,31Zm2,2H31V45H19.018A40.869,40.869,0,0,1,17.015,33ZM31,47V57.936C26.363,57.4,22.3,53.206,19.759,47Zm2,10.936V47H44.241C41.7,53.206,37.637,57.4,33,57.936ZM33,45V33H46.985a40.869,40.869,0,0,1-2,12ZM48.985,33h8.99A25.81,25.81,0,0,1,54.5,45H47.05A42.615,42.615,0,0,0,48.985,33Zm0-2A42.615,42.615,0,0,0,47.05,19H54.5a25.81,25.81,0,0,1,3.473,12Zm4.232-14H46.344a24.708,24.708,0,0,0-6.419-9.761A26.1,26.1,0,0,1,53.217,17ZM24.075,7.239A24.708,24.708,0,0,0,17.656,17H10.783A26.1,26.1,0,0,1,24.075,7.239ZM10.783,47h6.873a24.708,24.708,0,0,0,6.419,9.761A26.1,26.1,0,0,1,10.783,47Zm29.142,9.761A24.708,24.708,0,0,0,46.344,47h6.873A26.1,26.1,0,0,1,39.925,56.761Z" fill="#5046e4"></path></g></svg>