<svg xmlns="http://www.w3.org/2000/svg" height="64" width="64" viewBox="0 0 64 64"><title>webpage</title><g fill="#5046e4" class="nc-icon-wrapper"><rect data-color="color-2" x="8" y="35" width="9" height="17" rx="1" ry="1"></rect><rect data-color="color-2" x="20" y="35" width="36" height="17" rx="1" ry="1"></rect><rect data-color="color-2" x="8" y="24" width="48" height="8" rx="1" ry="1"></rect><path d="M56,6H8c-3.309,0-6,2.691-6,6V52c0,3.309,2.691,6,6,6H56c3.309,0,6-2.691,6-6V12c0-3.309-2.691-6-6-6ZM18,11c1.105,0,2,.895,2,2s-.895,2-2,2-2-.895-2-2,.895-2,2-2Zm-8,0c1.105,0,2,.895,2,2s-.895,2-2,2-2-.895-2-2,.895-2,2-2ZM60,52c0,2.206-1.794,4-4,4H8c-2.206,0-4-1.794-4-4V20H60V52Z" fill="#5046e4"></path></g></svg>