<svg xmlns="http://www.w3.org/2000/svg" height="64" width="64" viewBox="0 0 64 64"><title>logo wikipedia</title><g fill="#5046e4" class="nc-icon-wrapper"><path fill="#5046e4" d="M64,12.417c0,0.231-0.073,0.439-0.214,0.63c-0.146,0.186-0.298,0.281-0.473,0.281 c-1.402,0.135-2.555,0.585-3.445,1.357c-0.895,0.766-1.812,2.235-2.764,4.396L42.582,51.808c-0.096,0.304-0.36,0.456-0.799,0.456 c-0.343,0-0.608-0.152-0.799-0.456l-8.145-17.033l-9.366,17.033c-0.191,0.304-0.456,0.456-0.799,0.456 c-0.417,0-0.692-0.152-0.827-0.456L7.576,19.082c-0.889-2.032-1.829-3.45-2.82-4.255c-0.985-0.805-2.364-1.306-4.126-1.497 c-0.152,0-0.298-0.079-0.428-0.242C0.068,12.929,0,12.744,0,12.535c0-0.535,0.152-0.799,0.456-0.799 c1.272,0,2.601,0.056,3.991,0.169c1.289,0.118,2.505,0.174,3.642,0.174c1.16,0,2.527-0.056,4.103-0.174 c1.649-0.113,3.113-0.169,4.385-0.169c0.304,0,0.456,0.265,0.456,0.799c0,0.529-0.096,0.794-0.281,0.794 c-1.272,0.096-2.274,0.422-3.006,0.968c-0.732,0.552-1.098,1.272-1.098,2.167c0,0.456,0.152,1.024,0.456,1.706L24.896,44.8 l6.693-12.642l-6.237-13.076c-1.12-2.33-2.043-3.839-2.764-4.514c-0.72-0.67-1.812-1.086-3.276-1.238 c-0.135,0-0.259-0.079-0.383-0.242c-0.124-0.158-0.186-0.343-0.186-0.552c0-0.535,0.129-0.799,0.4-0.799 c1.272,0,2.437,0.056,3.501,0.169c1.024,0.118,2.116,0.174,3.276,0.174c1.137,0,2.342-0.056,3.614-0.174 c1.312-0.113,2.601-0.169,3.873-0.169c0.304,0,0.456,0.265,0.456,0.799c0,0.529-0.09,0.794-0.281,0.794 c-2.544,0.174-3.816,0.895-3.816,2.167c0,0.569,0.293,1.452,0.884,2.646l4.126,8.376l4.103-7.661 c0.569-1.081,0.856-1.993,0.856-2.736c0-1.745-1.272-2.674-3.816-2.792c-0.231,0-0.343-0.265-0.343-0.794 c0-0.191,0.056-0.372,0.169-0.54c0.118-0.174,0.231-0.259,0.343-0.259c0.912,0,2.032,0.056,3.36,0.169 c1.272,0.118,2.319,0.174,3.135,0.174c0.585,0,1.452-0.051,2.589-0.146c1.441-0.129,2.651-0.197,3.619-0.197 c0.225,0,0.338,0.225,0.338,0.681c0,0.608-0.208,0.912-0.625,0.912c-1.48,0.152-2.674,0.563-3.574,1.227 c-0.901,0.664-2.026,2.173-3.372,4.526l-5.471,10.115l7.408,15.091l10.937-25.431c0.377-0.929,0.569-1.784,0.569-2.561 c0-1.863-1.272-2.848-3.816-2.966c-0.231,0-0.343-0.265-0.343-0.794c0-0.535,0.169-0.799,0.512-0.799 c0.929,0,2.032,0.056,3.304,0.169c1.176,0.118,2.167,0.174,2.961,0.174c0.839,0,1.807-0.056,2.904-0.174 c1.143-0.113,2.167-0.169,3.079-0.169C63.865,11.736,64,11.961,64,12.417z"></path> </g></svg>