<svg xmlns="http://www.w3.org/2000/svg" xmlns:xlink="http://www.w3.org/1999/xlink" viewBox="0 0 1552.441 1044.07" id="Mathematics"><defs><linearGradient id="a" x1="695.99" x2="811.99" y1="312.589" y2="312.589" gradientUnits="userSpaceOnUse"><stop offset="0" stop-color="#d1e2f3" class="stopColord1d7f3 svgShape"></stop><stop offset=".343" stop-color="#e7f0f9" class="stopColore7eaf9 svgShape"></stop><stop offset=".724" stop-color="#f9fbfd" class="stopColorf9f9fd svgShape"></stop><stop offset="1" stop-color="#ffffff" class="stopColorffffff svgShape"></stop></linearGradient><linearGradient id="p" x1="595.173" x2="695.993" y1="385.286" y2="385.286" xlink:href="#a"></linearGradient><linearGradient id="q" x1="598.299" x2="884.594" y1="406.609" y2="406.609" gradientUnits="userSpaceOnUse"><stop offset="0" stop-color="#d1e2f3" class="stopColord1d7f3 svgShape"></stop><stop offset=".284" stop-color="#d5e4f4" class="stopColord5dbf4 svgShape"></stop><stop offset=".597" stop-color="#e3edf8" class="stopColore3e6f8 svgShape"></stop><stop offset=".922" stop-color="#f9fbfd" class="stopColorf9f9fd svgShape"></stop><stop offset="1" stop-color="#ffffff" class="stopColorffffff svgShape"></stop></linearGradient><linearGradient id="r" x1="695.992" x2="704.262" y1="387.154" y2="387.154" xlink:href="#a"></linearGradient><linearGradient id="b" x1="595.189" x2="760.859" y1="362.186" y2="362.186" gradientUnits="userSpaceOnUse"><stop offset="0" stop-color="#dc00b4" class="stopColordc8b00 svgShape"></stop><stop offset="1" stop-color="#fc06cf" class="stopColorfcba06 svgShape"></stop></linearGradient><linearGradient id="s" x1="687.758" x2="696.705" y1="389.11" y2="389.11" xlink:href="#b"></linearGradient><linearGradient id="g" x1="318.046" x2="658.938" y1="946.564" y2="946.564" gradientUnits="userSpaceOnUse"><stop offset="0" stop-color="#c4d6e9" class="stopColorc4cae9 svgShape"></stop><stop offset=".308" stop-color="#d2e0ee" class="stopColord2d7ee svgShape"></stop><stop offset=".891" stop-color="#f7f9fc" class="stopColorf7f8fc svgShape"></stop><stop offset="1" stop-color="#ffffff" class="stopColorffffff svgShape"></stop></linearGradient><linearGradient id="c" x1="269.919" x2="363.064" y1="1007.843" y2="1007.843" gradientUnits="userSpaceOnUse"><stop offset="0" stop-color="#c4d6e9" class="stopColorc4cae9 svgShape"></stop><stop offset=".009" stop-color="#c6d8ea" class="stopColorc6ccea svgShape"></stop><stop offset=".147" stop-color="#dfe9f3" class="stopColordfe2f3 svgShape"></stop><stop offset=".292" stop-color="#f1f5fa" class="stopColorf1f2fa svgShape"></stop><stop offset=".444" stop-color="#fcfdfe" class="stopColorfcfcfe svgShape"></stop><stop offset=".619" stop-color="#ffffff" class="stopColorffffff svgShape"></stop></linearGradient><linearGradient id="t" x1="246.628" x2="339.772" y1="994.395" y2="994.395" xlink:href="#c"></linearGradient><linearGradient id="u" x1="223.336" x2="316.481" y1="980.948" y2="980.948" xlink:href="#c"></linearGradient><linearGradient id="v" x1="200.045" x2="293.19" y1="967.5" y2="967.5" xlink:href="#c"></linearGradient><linearGradient id="w" x1="176.754" x2="269.899" y1="954.053" y2="954.053" xlink:href="#c"></linearGradient><linearGradient id="x" x1="153.463" x2="246.607" y1="940.605" y2="940.605" xlink:href="#c"></linearGradient><linearGradient id="y" x1="130.171" x2="223.316" y1="927.158" y2="927.158" xlink:href="#c"></linearGradient><linearGradient id="z" x1="106.88" x2="200.025" y1="913.71" y2="913.71" xlink:href="#c"></linearGradient><linearGradient id="A" x1="83.589" x2="176.733" y1="900.263" y2="900.263" xlink:href="#c"></linearGradient><linearGradient id="B" x1="60.298" x2="153.442" y1="886.815" y2="886.815" xlink:href="#c"></linearGradient><linearGradient id="C" x1="37.006" x2="130.151" y1="873.368" y2="873.368" xlink:href="#c"></linearGradient><linearGradient id="D" x1="13.715" x2="106.86" y1="859.92" y2="859.92" xlink:href="#c"></linearGradient><linearGradient id="E" x1="293.21" x2="386.355" y1="1021.29" y2="1021.29" xlink:href="#c"></linearGradient><linearGradient id="F" x1="336.932" x2="615.318" y1="947.706" y2="947.706" gradientUnits="userSpaceOnUse"><stop offset="0" stop-color="#d1e2f3" class="stopColord1d7f3 svgShape"></stop><stop offset=".204" stop-color="#d4e4f4" class="stopColord4daf4 svgShape"></stop><stop offset="1" stop-color="#dae7f5" class="stopColordae0f5 svgShape"></stop></linearGradient><linearGradient id="d" x1="277.615" x2="287.356" y1="886.335" y2="886.335" gradientTransform="matrix(.866 .5 -1 .5774 672.892 157.297)" gradientUnits="userSpaceOnUse"><stop offset="0" stop-color="#bc31a3" class="stopColorbc3153 svgShape"></stop><stop offset="1" stop-color="#e33cc5" class="stopColore33c5c svgShape"></stop></linearGradient><linearGradient id="e" x1="36.495" x2="21.41" y1="810.621" y2="812.553" gradientUnits="userSpaceOnUse"><stop offset="0" stop-color="#453eaf" class="stopColor423eaf svgShape"></stop><stop offset=".608" stop-color="#6f67e0" class="stopColor6a67e0 svgShape"></stop><stop offset="1" stop-color="#857dfb" class="stopColor807dfb svgShape"></stop></linearGradient><linearGradient id="f" x1="13.156" x2="13.156" y1="862.682" y2="811.768" gradientUnits="userSpaceOnUse"><stop offset="0" stop-color="#453eaf" class="stopColor423eaf svgShape"></stop><stop offset=".851" stop-color="#857dfb" class="stopColor807dfb svgShape"></stop></linearGradient><linearGradient id="G" x1="304.51" x2="314.251" y1="886.335" y2="886.335" xlink:href="#d"></linearGradient><linearGradient id="H" x1="59.787" x2="44.701" y1="824.068" y2="826.001" xlink:href="#e"></linearGradient><linearGradient id="I" x1="36.447" x2="36.447" y1="876.129" y2="825.215" xlink:href="#f"></linearGradient><linearGradient id="J" x1="331.405" x2="341.146" y1="886.334" y2="886.334" xlink:href="#d"></linearGradient><linearGradient id="K" x1="83.078" x2="67.992" y1="837.516" y2="839.448" xlink:href="#e"></linearGradient><linearGradient id="L" x1="59.739" x2="59.739" y1="889.577" y2="838.663" xlink:href="#f"></linearGradient><linearGradient id="M" x1="358.3" x2="368.041" y1="886.334" y2="886.334" xlink:href="#d"></linearGradient><linearGradient id="N" x1="106.369" x2="91.284" y1="850.963" y2="852.896" xlink:href="#e"></linearGradient><linearGradient id="O" x1="83.03" x2="83.03" y1="903.024" y2="852.11" xlink:href="#f"></linearGradient><linearGradient id="P" x1="385.195" x2="394.936" y1="886.334" y2="886.334" xlink:href="#d"></linearGradient><linearGradient id="Q" x1="129.66" x2="114.575" y1="864.411" y2="866.343" xlink:href="#e"></linearGradient><linearGradient id="R" x1="106.321" x2="106.321" y1="916.472" y2="865.558" xlink:href="#f"></linearGradient><linearGradient id="S" x1="412.091" x2="421.832" y1="886.334" y2="886.334" xlink:href="#d"></linearGradient><linearGradient id="T" x1="152.952" x2="137.866" y1="877.858" y2="879.791" xlink:href="#e"></linearGradient><linearGradient id="U" x1="129.613" x2="129.613" y1="929.919" y2="879.005" xlink:href="#f"></linearGradient><linearGradient id="V" x1="438.986" x2="448.727" y1="886.334" y2="886.334" xlink:href="#d"></linearGradient><linearGradient id="W" x1="176.243" x2="161.157" y1="891.306" y2="893.238" xlink:href="#e"></linearGradient><linearGradient id="X" x1="152.904" x2="152.904" y1="943.367" y2="892.453" xlink:href="#f"></linearGradient><linearGradient id="Y" x1="465.881" x2="475.622" y1="886.334" y2="886.334" xlink:href="#d"></linearGradient><linearGradient id="Z" x1="199.534" x2="184.449" y1="904.753" y2="906.686" xlink:href="#e"></linearGradient><linearGradient id="aa" x1="176.195" x2="176.195" y1="956.814" y2="905.9" xlink:href="#f"></linearGradient><linearGradient id="ab" x1="492.776" x2="502.517" y1="886.334" y2="886.334" xlink:href="#d"></linearGradient><linearGradient id="ac" x1="222.825" x2="207.74" y1="918.201" y2="920.133" xlink:href="#e"></linearGradient><linearGradient id="ad" x1="199.486" x2="199.486" y1="970.262" y2="919.348" xlink:href="#f"></linearGradient><linearGradient id="ae" x1="519.671" x2="529.412" y1="886.334" y2="886.334" xlink:href="#d"></linearGradient><linearGradient id="af" x1="246.117" x2="231.031" y1="931.648" y2="933.581" xlink:href="#e"></linearGradient><linearGradient id="ag" x1="222.778" x2="222.778" y1="983.709" y2="932.795" xlink:href="#f"></linearGradient><linearGradient id="ah" x1="546.566" x2="556.307" y1="886.334" y2="886.334" xlink:href="#d"></linearGradient><linearGradient id="ai" x1="269.408" x2="254.322" y1="945.096" y2="947.029" xlink:href="#e"></linearGradient><linearGradient id="aj" x1="246.069" x2="246.069" y1="997.157" y2="946.243" xlink:href="#f"></linearGradient><linearGradient id="ak" x1="573.461" x2="583.202" y1="886.334" y2="886.334" xlink:href="#d"></linearGradient><linearGradient id="al" x1="292.699" x2="277.614" y1="958.543" y2="960.476" xlink:href="#e"></linearGradient><linearGradient id="am" x1="269.36" x2="269.36" y1="1010.604" y2="959.69" xlink:href="#f"></linearGradient><linearGradient id="an" x1="600.357" x2="610.097" y1="886.334" y2="886.334" xlink:href="#d"></linearGradient><linearGradient id="ao" x1="315.99" x2="300.905" y1="971.991" y2="973.924" xlink:href="#e"></linearGradient><linearGradient id="ap" x1="292.651" x2="292.651" y1="1024.052" y2="973.138" xlink:href="#f"></linearGradient><linearGradient id="aq" x1="627.251" x2="636.992" y1="886.334" y2="886.334" xlink:href="#d"></linearGradient><linearGradient id="ar" x1="339.282" x2="324.196" y1="985.438" y2="987.371" xlink:href="#e"></linearGradient><linearGradient id="as" x1="315.943" x2="315.943" y1="1037.5" y2="986.585" xlink:href="#f"></linearGradient><linearGradient id="at" x1="766.88" x2="1000.821" y1="738.226" y2="738.226" xlink:href="#a"></linearGradient><linearGradient id="au" x1="925.471" x2="1377.06" y1="628.017" y2="628.017" xlink:href="#g"></linearGradient><linearGradient id="av" x1="926.581" x2="1278.643" y1="573.931" y2="573.931" gradientUnits="userSpaceOnUse"><stop offset="0" stop-color="#d1e2f3" class="stopColord1d7f3 svgShape"></stop><stop offset=".51" stop-color="#dfe9f4" class="stopColordfe2f4 svgShape"></stop><stop offset="1" stop-color="#f1f3f6" class="stopColorf1f1f6 svgShape"></stop></linearGradient><linearGradient id="aw" x1="418.043" x2="485.667" y1="661.847" y2="661.847" gradientTransform="matrix(.5 .866 .866 -.5 303.868 467.304)" gradientUnits="userSpaceOnUse"><stop offset="0" stop-color="#6f67e9" class="stopColor6b67e9 svgShape"></stop><stop offset=".227" stop-color="#5951c8" class="stopColor5751c8 svgShape"></stop><stop offset=".527" stop-color="#3f38a2" class="stopColor3f38a2 svgShape"></stop><stop offset=".685" stop-color="#342e94" class="stopColor362e94 svgShape"></stop></linearGradient><linearGradient id="ax" x1="875.811" x2="1227.275" y1="321.753" y2="321.753" gradientUnits="userSpaceOnUse"><stop offset="0" stop-color="#c4d6e9" class="stopColorc4cae9 svgShape"></stop><stop offset="1" stop-color="#ffffff" class="stopColorffffff svgShape"></stop></linearGradient><linearGradient id="h" x1="632.777" x2="697.509" y1="768.142" y2="768.142" gradientUnits="userSpaceOnUse"><stop offset="0" stop-color="#c4d6e9" class="stopColorc4cae9 svgShape"></stop><stop offset=".095" stop-color="#cedded" class="stopColorced3ed svgShape"></stop><stop offset=".409" stop-color="#e9f0f7" class="stopColore9ebf7 svgShape"></stop><stop offset=".687" stop-color="#f9fbfd" class="stopColorf9fafd svgShape"></stop><stop offset=".899" stop-color="#ffffff" class="stopColorffffff svgShape"></stop></linearGradient><linearGradient id="ay" x1="711.901" x2="771.173" y1="740.78" y2="740.78" xlink:href="#h"></linearGradient><linearGradient id="az" x1="376.515" x2="394.257" y1="587.372" y2="587.125" gradientTransform="matrix(-1 0 0 1 1004.472 0)" xlink:href="#b"></linearGradient><linearGradient id="i" x1="1008.739" x2="1043.587" y1="764.005" y2="764.005" gradientTransform="matrix(-1 0 0 1 1665.987 0)" gradientUnits="userSpaceOnUse"><stop offset="0" stop-color="#453eaf" class="stopColor423eaf svgShape"></stop><stop offset=".109" stop-color="#4039a7" class="stopColor3e39a7 svgShape"></stop><stop offset=".696" stop-color="#28227e" class="stopColor28227e svgShape"></stop><stop offset="1" stop-color="#6f196f" class="stopColor20196f svgShape"></stop></linearGradient><linearGradient id="aA" x1="929.707" x2="964.557" y1="736.659" y2="736.659" xlink:href="#i"></linearGradient><linearGradient id="aB" x1="625.321" x2="722.122" y1="679.611" y2="679.611" gradientUnits="userSpaceOnUse"><stop offset="0" stop-color="#453eaf" class="stopColor423eaf svgShape"></stop><stop offset=".564" stop-color="#2e2888" class="stopColor2d2888 svgShape"></stop><stop offset="1" stop-color="#6f196f" class="stopColor20196f svgShape"></stop></linearGradient><linearGradient id="j" x1="978.47" x2="1041.05" y1="598.309" y2="598.309" gradientTransform="matrix(-1 0 0 1 1665.987 0)" gradientUnits="userSpaceOnUse"><stop offset="0" stop-color="#dc00b4" class="stopColordc8b00 svgShape"></stop><stop offset=".123" stop-color="#e109ba" class="stopColore19509 svgShape"></stop><stop offset=".704" stop-color="#2f93f7" class="stopColorf7c02f svgShape"></stop><stop offset="1" stop-color="#3e9eff" class="stopColorffd03e svgShape"></stop></linearGradient><linearGradient id="aC" x1="291.75" x2="359.305" y1="599.9" y2="599.9" gradientTransform="matrix(-1 0 0 1 1004.472 0)" xlink:href="#j"></linearGradient><linearGradient id="l" x1="925.111" x2="1202.154" y1="777.97" y2="777.97" gradientUnits="userSpaceOnUse"><stop offset="0" stop-color="#dae7f5" class="stopColordae0f5 svgShape"></stop><stop offset=".327" stop-color="#deeaf6" class="stopColordee3f6 svgShape"></stop><stop offset=".66" stop-color="#eaf1f9" class="stopColoreaeef9 svgShape"></stop><stop offset=".996" stop-color="#ffffff" class="stopColorffffff svgShape"></stop><stop offset="1" stop-color="#ffffff" class="stopColorffffff svgShape"></stop></linearGradient><linearGradient id="aD" x1="1169.1" x2="1180.623" y1="691.947" y2="711.077" gradientUnits="userSpaceOnUse"><stop offset="0" stop-color="#6f67e9" class="stopColor6b67e9 svgShape"></stop><stop offset="1" stop-color="#342e93" class="stopColor362e93 svgShape"></stop></linearGradient><linearGradient id="aE" x1="938.364" x2="927.535" y1="848.79" y2="829.792" gradientUnits="userSpaceOnUse"><stop offset="0" stop-color="#bbd0e6" class="stopColorbbc0e6 svgShape"></stop><stop offset="1" stop-color="#f6f8fb" class="stopColorf6f6fb svgShape"></stop></linearGradient><linearGradient id="aF" x1="920.219" x2="915.659" y1="852.021" y2="846.131" gradientUnits="userSpaceOnUse"><stop offset="0" stop-color="#342e93" class="stopColor362e93 svgShape"></stop><stop offset="1" stop-color="#847cfb" class="stopColor807cfb svgShape"></stop></linearGradient><linearGradient id="aG" x1="1163.255" x2="1150.611" y1="720.845" y2="699.585" gradientUnits="userSpaceOnUse"><stop offset=".074" stop-color="#a3b9d0" class="stopColora3a9d0 svgShape"></stop><stop offset=".137" stop-color="#cee3f8" class="stopColorced3f8 svgShape"></stop><stop offset=".559" stop-color="#cee3f8" class="stopColorced3f8 svgShape"></stop><stop offset=".69" stop-color="#f6f8fb" class="stopColorf6f6fb svgShape"></stop></linearGradient><linearGradient id="k" x1="1156.462" x2="1140.744" y1="725.672" y2="705.703" gradientUnits="userSpaceOnUse"><stop offset=".559" stop-color="#d1e2f3" class="stopColord1d7f3 svgShape"></stop><stop offset=".69" stop-color="#f1f3f6" class="stopColorf1f1f6 svgShape"></stop></linearGradient><linearGradient id="aH" x1="1159.535" x2="1143.817" y1="723.896" y2="703.927" xlink:href="#k"></linearGradient><linearGradient id="aI" x1="1162.614" x2="1146.895" y1="722.121" y2="702.15" xlink:href="#k"></linearGradient><linearGradient id="aJ" x1="940.44" x2="1283.877" y1="808.318" y2="808.318" xlink:href="#l"></linearGradient><linearGradient id="m" x1="1228.731" x2="1240.621" y1="709.622" y2="730.216" gradientUnits="userSpaceOnUse"><stop offset="0" stop-color="#5a52cc" class="stopColor5652cc svgShape"></stop><stop offset=".331" stop-color="#453eac" class="stopColor433eac svgShape"></stop><stop offset="1" stop-color="#6f196f" class="stopColor20196f svgShape"></stop></linearGradient><linearGradient id="aK" x1="1123.922" x2="1135.812" y1="770.134" y2="790.728" gradientUnits="userSpaceOnUse"><stop offset="0" stop-color="#f6f8fb" class="stopColorf6f6fb svgShape"></stop><stop offset="1" stop-color="#cee3f8" class="stopColorced3f8 svgShape"></stop></linearGradient><linearGradient id="aL" x1="1038.006" x2="1226.425" y1="788.861" y2="788.861" gradientUnits="userSpaceOnUse"><stop offset="0" stop-color="#f1f3f6" class="stopColorf1f1f6 svgShape"></stop><stop offset="1" stop-color="#ffffff" class="stopColorffffff svgShape"></stop></linearGradient><linearGradient id="aM" x1="1126.016" x2="1129.529" y1="778.598" y2="784.682" gradientUnits="userSpaceOnUse"><stop offset="0" stop-color="#dae7f5" class="stopColordae0f5 svgShape"></stop><stop offset="1" stop-color="#cee3f8" class="stopColorced3f8 svgShape"></stop></linearGradient><linearGradient id="aN" x1="1079.827" x2="1083.34" y1="805.265" y2="811.35" gradientUnits="userSpaceOnUse"><stop offset="0" stop-color="#857dfb" class="stopColor807dfb svgShape"></stop><stop offset="1" stop-color="#5a52cc" class="stopColor5652cc svgShape"></stop></linearGradient><linearGradient id="aO" x1="985.832" x2="1001.337" y1="845.56" y2="872.414" xlink:href="#m"></linearGradient><linearGradient id="aP" x1="1059.164" x2="1064.042" y1="802.014" y2="810.464" xlink:href="#m"></linearGradient><linearGradient id="n" x1="766.16" x2="702.827" y1="366.99" y2="262.599" gradientTransform="scale(1 -1) rotate(60 1408.73 522.82)" gradientUnits="userSpaceOnUse"><stop offset="0" stop-color="#cee3f8" class="stopColorced3f8 svgShape"></stop><stop offset="1" stop-color="#bbd0e6" class="stopColorbbc0e6 svgShape"></stop></linearGradient><linearGradient id="aQ" x1="686.362" x2="804.728" y1="937.749" y2="937.749" gradientUnits="userSpaceOnUse"><stop offset="0" stop-color="#c4d6e9" class="stopColorc4cae9 svgShape"></stop><stop offset=".502" stop-color="#e4ecf5" class="stopColore4e6f5 svgShape"></stop><stop offset="1" stop-color="#ffffff" class="stopColorffffff svgShape"></stop></linearGradient><linearGradient id="aR" x1="1022.061" x2="958.728" y1="431.088" y2="326.698" gradientTransform="rotate(120.001 694.914 586.223)" xlink:href="#n"></linearGradient><linearGradient id="aS" x1="919.484" x2="1034.951" y1="967.997" y2="967.997" gradientUnits="userSpaceOnUse"><stop offset="0" stop-color="#d1e2f3" class="stopColord1d7f3 svgShape"></stop><stop offset=".487" stop-color="#e9f1f9" class="stopColore9ecf9 svgShape"></stop><stop offset="1" stop-color="#ffffff" class="stopColorffffff svgShape"></stop></linearGradient><linearGradient id="aT" x1="930.806" x2="994.345" y1="988.034" y2="951.368" gradientUnits="userSpaceOnUse"><stop offset="0" stop-color="#857dfb" class="stopColor807dfb svgShape"></stop><stop offset=".033" stop-color="#837bf9" class="stopColor7e7bf9 svgShape"></stop><stop offset=".615" stop-color="#655dd8" class="stopColor615dd8 svgShape"></stop><stop offset=".935" stop-color="#5a52cc" class="stopColor5652cc svgShape"></stop></linearGradient><linearGradient id="aU" x1="345.826" x2="578.803" y1="588.132" y2="588.132" gradientUnits="userSpaceOnUse"><stop offset="0" stop-color="#c4d6e8" class="stopColorc4cae8 svgShape"></stop><stop offset=".238" stop-color="#c9d9ea" class="stopColorc9cfea svgShape"></stop><stop offset=".534" stop-color="#d9e4f0" class="stopColord9ddf0 svgShape"></stop><stop offset=".86" stop-color="#f2f6fa" class="stopColorf2f3fa svgShape"></stop><stop offset="1" stop-color="#ffffff" class="stopColorffffff svgShape"></stop></linearGradient><linearGradient id="aV" x1="418.965" x2="552.686" y1="572.593" y2="572.593" gradientUnits="userSpaceOnUse"><stop offset="0" stop-color="#d1e2f3" class="stopColord1d7f3 svgShape"></stop><stop offset="1" stop-color="#ffffff" class="stopColorffffff svgShape"></stop></linearGradient><linearGradient id="aW" x1="319.713" x2="552.686" y1="614.219" y2="614.219" gradientUnits="userSpaceOnUse"><stop offset="0" stop-color="#6f67e9" class="stopColor6b67e9 svgShape"></stop><stop offset=".388" stop-color="#544dc2" class="stopColor534dc2 svgShape"></stop><stop offset=".785" stop-color="#3e37a0" class="stopColor3e37a0 svgShape"></stop><stop offset="1" stop-color="#342e93" class="stopColor362e93 svgShape"></stop></linearGradient><linearGradient id="o" x1="453.926" x2="430.324" y1="579.201" y2="538.322" gradientUnits="userSpaceOnUse"><stop offset=".301" stop-color="#bbd0e6" class="stopColorbbc0e6 svgShape"></stop><stop offset=".544" stop-color="#ccdcec" class="stopColorccd0ec svgShape"></stop><stop offset="1" stop-color="#f6f8fb" class="stopColorf6f6fb svgShape"></stop></linearGradient><linearGradient id="aX" x1="356.179" x2="332.575" y1="231.793" y2="190.91" xlink:href="#o"></linearGradient><linearGradient id="aY" x1="555.566" x2="531.963" y1="157.21" y2="116.33" xlink:href="#o"></linearGradient><linearGradient id="aZ" x1="532.772" x2="655.367" y1="185.964" y2="127.941" gradientUnits="userSpaceOnUse"><stop offset="0" stop-color="#342e94" class="stopColor362e94 svgShape"></stop><stop offset="1" stop-color="#857dfb" class="stopColor807dfb svgShape"></stop></linearGradient><linearGradient id="ba" x1="509.455" x2="579.399" y1="54.255" y2="54.255" gradientUnits="userSpaceOnUse"><stop offset="0" stop-color="#5a52cc" class="stopColor5652cc svgShape"></stop><stop offset=".359" stop-color="#4e47bb" class="stopColor4c47bb svgShape"></stop><stop offset="1" stop-color="#342e93" class="stopColor362e93 svgShape"></stop></linearGradient><linearGradient id="bb" x1="317.241" x2="542.081" y1="829.648" y2="829.648" gradientUnits="userSpaceOnUse"><stop offset="0" stop-color="#c6d6e7" class="stopColorc6cbe7 svgShape"></stop><stop offset=".028" stop-color="#c9d8e8" class="stopColorc9cee8 svgShape"></stop><stop offset=".331" stop-color="#e7eef5" class="stopColore7e9f5 svgShape"></stop><stop offset=".591" stop-color="#f9fafc" class="stopColorf9f9fc svgShape"></stop><stop offset=".778" stop-color="#ffffff" class="stopColorffffff svgShape"></stop></linearGradient><linearGradient id="bc" x1="211.888" x2="407.745" y1="816.709" y2="816.709" gradientUnits="userSpaceOnUse"><stop offset="0" stop-color="#5c55c6" class="stopColor5555c6 svgShape"></stop><stop offset=".414" stop-color="#3f399a" class="stopColor3a399a svgShape"></stop><stop offset=".794" stop-color="#292478" class="stopColor262478 svgShape"></stop><stop offset="1" stop-color="#6b1c6b" class="stopColor1e1c6b svgShape"></stop></linearGradient><linearGradient id="bd" x1="1282.174" x2="1561.068" y1="640.056" y2="640.056" gradientUnits="userSpaceOnUse"><stop offset="0" stop-color="#c6d6e7" class="stopColorc6cbe7 svgShape"></stop><stop offset=".133" stop-color="#d2dfec" class="stopColord2d6ec svgShape"></stop><stop offset=".458" stop-color="#ebf1f7" class="stopColorebedf7 svgShape"></stop><stop offset=".756" stop-color="#fafbfd" class="stopColorfafafd svgShape"></stop><stop offset="1" stop-color="#ffffff" class="stopColorffffff svgShape"></stop></linearGradient><linearGradient id="be" x1="1419.474" x2="1217.259" y1="633.981" y2="487.972" gradientUnits="userSpaceOnUse"><stop offset="0" stop-color="#e33cc5" class="stopColore33c5c svgShape"></stop><stop offset="1" stop-color="#ff6ae4" class="stopColorff826a svgShape"></stop></linearGradient><linearGradient id="bf" x1="1416.932" x2="1226.059" y1="637.79" y2="499.971" gradientUnits="userSpaceOnUse"><stop offset="0" stop-color="#bc31a3" class="stopColorbc3153 svgShape"></stop><stop offset=".39" stop-color="#e33cc5" class="stopColore33c5c svgShape"></stop><stop offset=".469" stop-color="#e849cb" class="stopColore8495f svgShape"></stop><stop offset=".687" stop-color="#f565db" class="stopColorf56865 svgShape"></stop><stop offset=".872" stop-color="#fc69e1" class="stopColorfc7b69 svgShape"></stop><stop offset="1" stop-color="#ff6ae4" class="stopColorff826a svgShape"></stop></linearGradient><linearGradient id="bg" x1="1477.716" x2="1273.181" y1="626.15" y2="441.674" gradientUnits="userSpaceOnUse"><stop offset="0" stop-color="#bc31a3" class="stopColorbc3153 svgShape"></stop><stop offset=".617" stop-color="#e33cc5" class="stopColore33c5c svgShape"></stop><stop offset=".835" stop-color="#f262d8" class="stopColorf26264 svgShape"></stop><stop offset="1" stop-color="#ff6ae4" class="stopColorff826a svgShape"></stop></linearGradient><linearGradient id="bh" x1="1399.717" x2="1342.062" y1="497.661" y2="456.032" gradientUnits="userSpaceOnUse"><stop offset="0" stop-color="#ffffff" class="stopColorffffff svgShape"></stop><stop offset="1" stop-color="#dae7f5" class="stopColordae0f5 svgShape"></stop></linearGradient><linearGradient id="bi" x1="1333.586" x2="1382.549" y1="496.479" y2="397.141" gradientUnits="userSpaceOnUse"><stop offset="0" stop-color="#5a52cc" class="stopColor5652cc svgShape"></stop><stop offset=".275" stop-color="#655ddb" class="stopColor615ddb svgShape"></stop><stop offset=".612" stop-color="#6d65e6" class="stopColor6965e6 svgShape"></stop><stop offset="1" stop-color="#6f67e9" class="stopColor6b67e9 svgShape"></stop></linearGradient><linearGradient id="bj" x1="1340.404" x2="1389.16" y1="499.335" y2="400.416" gradientUnits="userSpaceOnUse"><stop offset="0" stop-color="#6f67e9" class="stopColor6b67e9 svgShape"></stop><stop offset=".18" stop-color="#776fef" class="stopColor736fef svgShape"></stop><stop offset=".562" stop-color="#827af8" class="stopColor7d7af8 svgShape"></stop><stop offset="1" stop-color="#857dfb" class="stopColor807dfb svgShape"></stop></linearGradient><linearGradient id="bk" x1="1209.273" x2="1277.068" y1="609.449" y2="446.834" gradientUnits="userSpaceOnUse"><stop offset="0"></stop><stop offset=".192" stop-color="#1f081f" class="stopColor1f080e svgShape"></stop><stop offset=".608" stop-color="#6d1c5e" class="stopColor6d1c30 svgShape"></stop><stop offset="1" stop-color="#bc31a3" class="stopColorbc3153 svgShape"></stop></linearGradient></defs><g style="isolation:isolate" fill="#010001" class="color000000 svgShape"><g fill="#010001" class="color000000 svgShape"><g fill="#010001" class="color000000 svgShape"><g style="mix-blend-mode:multiply" fill="#010001" class="color000000 svgShape"><path fill="url(#a)" d="m808.324 326.456 3.666-2.116c-32.516-17.611-74.39-26.141-116-25.594 40.755.536 81.232 9.755 112.334 27.71Z"></path><path fill="url(#p)" d="m623.6 433.112 3.867-2.234c-34.2-22.001-32.985-55.86 3.655-77.014 17.995-10.39 41.3-15.837 64.87-16.361-26.077-.58-52.483 4.867-72.392 16.36-37.903 21.884-37.903 57.365 0 79.249Z"></path><path fill="url(#q)" d="m839.135 313.01-3.761 2.171 41.698 24.075-278.773 160.953h7.522l278.773-160.953-45.459-26.246z"></path><path fill="url(#r)" d="M704.262 386.539a21.878 21.878 0 0 0-8.27-.128 16.49 16.49 0 0 1 5.344 1.818Z"></path></g><path fill="#f4f6f8" d="m598.299 500.209-45.458-26.243v-4.381l45.458 26.245v4.379z" class="colorfcba06 svgShape"></path><path fill="#dc00b4" d="M877.068 339.266 598.299 500.209v-4.379l278.769-160.953v4.389z" class="colordc8b00 svgShape"></path><path fill="url(#b)" d="M623.6 349.485c-19.916 11.5-29.35 26.752-28.337 41.814.915-13.603 10.35-27.05 28.337-37.435 36.63-21.148 95.249-21.855 133.358-2.128l3.9-2.253c-37.904-21.881-99.355-21.88-137.258.002Z"></path><path fill="#f4f6f8" d="M679.353 393.42h.005a4.764 4.764 0 0 0 .81 2.652l2.954-1.706c-2.513-1.452-3.77-3.354-3.77-5.256ZM576.134 456.139c-31.095-17.953-47.109-41.316-48.044-64.84-.956 24.023 13.823 48.214 44.32 66.99Z" class="colorfcba06 svgShape"></path><path fill="#3e9eff" d="M808.324 322.078c-64.12-37.016-168.073-37.016-232.19.002-64.12 37.02-64.12 97.04 0 134.059l-23.29 13.447 45.455 26.244 278.773-160.953-45.459-26.245Zm-125.2 61.774c-5.028 2.903-5.029 7.61-.002 10.514L623.6 428.733c-37.902-21.884-37.902-57.364.001-79.248 37.903-21.883 99.354-21.883 137.259-.002l-59.523 34.367c-5.03-2.902-13.183-2.901-18.211.002Z" class="colorffd03e svgShape"></path><path fill="#ff6ae4" d="m677.871 419.502 7.177 4.143 66.997-38.682-7.183-4.141-66.991 38.68z" class="colorff826a svgShape"></path><path fill="#f4f6f8" d="m861.979 334.276 8.074 4.657 1.124-.647-8.078-4.665Zm-16.23 18.686 1.124-.644-8.073-4.668-1.118.65Zm-24.299 14.032 1.123-.65-8.071-4.664-1.123.647Zm-24.295 14.025 1.118-.644-8.074-4.667-1.118.653Zm-32.383 9.367 8.082 4.667 1.125-.651-8.08-4.658Zm-16.22 18.693 1.124-.643-8.08-4.672-1.118.654Zm-32.374 9.368 8.076 4.66 1.127-.64-8.082-4.663Zm-24.299 14.03 8.081 4.664 1.12-.65-8.083-4.662Zm-16.217 18.692 1.117-.648-8.076-4.664-1.127.648Zm-32.384 9.367 8.075 4.662 1.121-.651-8.072-4.658Zm-24.3 14.029 8.078 4.663 1.125-.646-8.08-4.665Zm-16.225 18.694 1.124-.649-8.073-4.665-1.122.648Zm263.84-152.328 1.122-.648-4.044-2.338-1.12.655Zm-3.483 2.011 1.122-.648-4.044-2.338-1.12.655Zm-3.483 2.011 1.122-.648-4.044-2.338-1.12.655Zm-3.483 2.01 1.122-.647-4.044-2.338-1.12.655Zm-3.483 2.012 1.122-.648-4.044-2.338-1.12.655Zm-3.483 2.01 1.122-.647-4.043-2.338-1.12.655Zm-6.89 3.978 1.123-.648-4.044-2.338-1.12.655Zm-3.482 2.011 1.122-.648-4.044-2.338-1.12.655Zm-3.483 2.011 1.122-.648-4.044-2.338-1.12.655Zm-3.483 2.011 1.122-.648-4.044-2.338-1.12.655Zm-3.483 2.011 1.122-.648-4.044-2.338-1.12.655Zm-3.483 2.01 1.122-.647-4.043-2.338-1.12.655Zm-6.89 3.979 1.123-.648-4.044-2.338-1.12.655Zm-3.482 2.01 1.122-.648-4.044-2.337-1.12.655Zm-3.483 2.011 1.122-.648-4.044-2.337-1.12.654Zm-3.483 2.011 1.122-.648-4.044-2.338-1.12.655Zm-3.483 2.011 1.122-.648-4.044-2.338-1.12.655Zm-3.483 2.011 1.122-.648-4.044-2.338-1.12.655Zm-6.89 3.978 1.123-.648-4.044-2.338-1.12.655Zm-3.483 2.01 1.123-.647-4.044-2.338-1.12.655Zm-3.483 2.012 1.123-.648-4.044-2.338-1.12.655Zm-3.483 2.01 1.123-.648-4.044-2.337-1.12.654Zm-3.482 2.011 1.122-.648-4.044-2.338-1.12.655Zm-3.483 2.011 1.122-.648-4.044-2.338-1.12.655Zm-6.89 3.978 1.123-.648-4.044-2.338-1.12.655Zm-3.483 2.011 1.123-.648-4.044-2.338-1.12.655Zm-3.483 2.01 1.123-.647-4.044-2.338-1.12.655Zm-3.483 2.012 1.123-.648-4.044-2.338-1.12.655Zm-3.483 2.01 1.123-.647-4.044-2.338-1.12.655Zm-3.482 2.011 1.122-.648-4.044-2.337-1.12.654Zm-6.89 3.978 1.123-.648-4.044-2.338-1.12.655Zm-3.483 2.011 1.123-.648-4.044-2.338-1.12.655Zm-3.483 2.011 1.123-.648-4.044-2.338-1.12.655Zm-3.483 2.011 1.123-.648-4.044-2.338-1.12.655Zm-3.483 2.01 1.123-.647-4.044-2.338-1.12.655Zm-3.483 2.012 1.123-.648-4.044-2.338-1.12.655Zm-6.889 3.977 1.122-.648-4.044-2.337-1.12.655Zm-3.483 2.011 1.123-.648-4.045-2.338-1.12.655Zm-3.483 2.011 1.122-.648-4.043-2.338-1.12.655Zm-3.483 2.011 1.123-.648-4.044-2.338-1.12.655Zm-3.483 2.011 1.123-.648-4.044-2.338-1.12.655Zm-3.483 2.01 1.123-.647-4.044-2.338-1.12.655Zm-6.89 3.979 1.123-.648-4.044-2.338-1.12.655Zm-3.482 2.01 1.122-.648-4.044-2.337-1.12.655Zm-3.483 2.011 1.122-.648-4.044-2.337-1.12.654Zm-3.483 2.011 1.122-.648-4.043-2.338-1.12.655Zm-3.483 2.011 1.122-.648-4.043-2.338-1.12.655Zm-3.483 2.011 1.122-.648-4.043-2.338-1.12.655Zm-6.89 3.978 1.123-.648-4.044-2.338-1.12.655Zm-3.482 2.01 1.122-.647-4.044-2.338-1.12.655Zm-3.483 2.012 1.122-.648-4.044-2.338-1.12.655Zm-3.483 2.01 1.122-.647-4.044-2.338-1.12.655Zm-3.483 2.011 1.122-.648-4.043-2.337-1.12.654Zm-3.483 2.011 1.122-.648-4.043-2.338-1.12.655Zm-6.89 3.978 1.123-.648-4.044-2.338-1.12.655Zm-3.482 2.011 1.122-.648-4.044-2.338-1.12.655Zm-3.483 2.011 1.122-.648-4.044-2.338-1.12.655Zm-3.483 2.01 1.122-.647-4.044-2.338-1.12.655Zm-3.483 2.012 1.122-.648-4.044-2.338-1.12.655Zm-3.483 2.01 1.122-.648-4.044-2.337-1.12.655Zm-6.89 3.978 1.123-.648-4.044-2.338-1.12.655Zm-3.483 2.011 1.123-.648-4.044-2.338-1.12.655Zm-3.482 2.011 1.122-.648-4.044-2.338-1.12.655Zm-3.483 2.011 1.122-.648-4.044-2.338-1.12.655Zm-3.483 2.01 1.122-.647-4.044-2.338-1.12.655Zm-3.483 2.012 1.122-.648-4.044-2.338-1.12.655Z" class="colorf6f6fb svgShape"></path><path fill="url(#s)" d="M689.069 390.936c-1.747-1.008-1.747-2.644 0-3.652a6.992 6.992 0 0 1 6.326 0c1.747 1.008 1.747 2.644 0 3.652a6.992 6.992 0 0 1-6.326 0Z"></path><path fill="#f4f6f8" d="m691.434 294.327-.005 6.584h1.587l.007-6.584q-.795-.002-1.589 0Zm-26.52 8.005 1.563-.16-1.97-6.475c-.523.052-1.046.099-1.568.153ZM543.09 349.465l10.35 2.79.67-.83-10.348-2.791Zm135.027-48.178 1.582-.08-.986-6.549c-.528.025-1.057.038-1.585.066Zm-51.174 8.083 1.438-.388-4.82-5.977-1.44.387Zm-17.496-2.124 5.707 5.713 1.374-.459-5.704-5.712-.079.026Zm-5.495 9.881 1.3-.526-6.532-5.392c-.435.174-.87.347-1.303.524Zm31.377-16.933 3.9 6.195 1.49-.315-3.899-6.197-.993.208c-.167.035-.332.073-.498.109Zm16.589 3.842 1.533-.238-2.945-6.36c-.512.078-1.023.159-1.534.24Zm108.98-1.033-4.833 5.976 1.44.387 4.832-5.975Zm36.244 13.206-7.33 5.039 1.217.589 7.319-5.03c-.404-.198-.8-.403-1.206-.598Zm-203.72 5.634 1.215-.59-7.32-5.042c-.406.195-.803.4-1.206.598Zm112.322-27.185-.998 6.548 1.582.08 1.001-6.562c-.528-.028-1.057-.041-1.585-.066Zm79.994 16.55-6.542 5.388 1.301.525 6.544-5.389c-.432-.177-.868-.35-1.303-.524Zm-11.983-4.382-.121-.039-5.715 5.709 1.375.458 5.717-5.709Zm-53.804-11.13-1.983 6.475 1.564.158 1.986-6.48c-.522-.054-1.045-.1-1.567-.152Zm28.667 4.386-.98-.206-3.912 6.196 1.492.313 3.91-6.192-.51-.111Zm-14.667-2.644-2.957 6.359 1.534.236 2.957-6.356c-.51-.08-1.022-.162-1.534-.24ZM549.69 436.153l.751.752 9.895-3.295-.794-.793-9.894 3.293.042.043Zm-20.939-38.324 11.369-.57-.14-.914-11.342.57c.043.304.065.61.113.914Zm15.014 31.76 10.356-2.785-.672-.83-10.355 2.783Zm-9.898-15.504 11.014-1.7-.412-.885-11.016 1.7c.134.295.275.59.414.885Zm-3.165-8.064 11.227-1.14-.277-.902-11.214 1.138c.089.301.17.603.264.904Zm7.336 15.654c.061.096.127.191.188.287l10.73-2.251-.544-.861-10.735 2.251Zm37.551 34.133c.185.107.354.22.54.327l.57.33 8.081-4.662-1.123-.647Zm232.164-134.044-8.067 4.652 1.123.648 8.081-4.66-.565-.326c-.187-.108-.384-.207-.572-.314ZM567.003 450.378l8.72-4.22-1.02-.702-8.735 4.226c.338.235.692.463 1.035.696Zm-8.79-6.527 9.342-3.773-.911-.75-9.34 3.77c.302.251.602.503.909.753Zm-.913-108.728 9.334 3.778.91-.752-9.335-3.778c-.307.25-.607.501-.909.752Zm18.825-13.038c-.186.108-.356.221-.541.329l8.059 4.658 1.122-.65-8.058-4.657c-.185.106-.38.204-.565.31Zm-26.42 19.965-.061.062 9.888 3.3.793-.794-9.888-3.301Zm16.259-13.51 8.727 4.232 1.02-.703-8.712-4.226c-.343.233-.698.462-1.035.696Zm-27.923 27.997-.368.584 10.732 2.258.542-.861-10.724-2.258c-.06.093-.123.184-.182.277Zm-9.996 32.566v.012c0 .152.017.303.018.455l11.404.003-.001-.916-11.403-.005c-.001.15-.018.3-.018.451Zm.591-7.795 11.343.576.137-.913-11.366-.578c-.049.305-.07.61-.114.915Zm1.8-8.202 11.213 1.144.274-.902L530.7 372.2c-.094.301-.176.603-.265.905Zm3.014-8.084 11.015 1.708.41-.886-11.01-1.707c-.14.295-.28.59-.415.885Z" class="colorf6f6fb svgShape"></path><path fill="#bbd0e6" d="m602.753 497.637 1.124-.648v-4.379l-1.124.649Zm3.384-1.95 1.123-.65v-4.378l-1.123.649Zm3.481-2.011 1.124-.65v-4.377l-1.124.648Zm3.483-2.011 1.124-.649v-4.378l-1.124.648Zm3.483-2.011 1.124-.649v-4.378l-1.124.649Zm3.483-2.01 1.124-.65v-4.378l-1.124.649Zm3.483-2.012 1.124-.649v-4.378l-1.124.649Zm3.507-2.024 1.124-.648v-4.378l-1.124.648Zm3.382-1.954 1.124-.649v-4.378l-1.124.649Zm3.483-2.01 1.124-.65v-4.377l-1.124.648Zm3.483-2.011 1.124-.65v-4.377l-1.124.648Zm3.483-2.011 1.124-.649v-4.378l-1.124.648Zm3.483-2.011 1.124-.649v-4.378l-1.124.649Zm3.483-2.01 1.124-.65v-4.378l-1.124.649Zm3.496-2.027 1.124-.649v-4.378l-1.124.648Zm3.393-1.952 1.124-.649v-4.378l-1.124.649Zm3.484-2.01 1.123-.65v-4.378l-1.123.649Zm3.482-2.012 1.124-.648v-4.378l-1.124.648Zm3.483-2.01 1.124-.65v-4.377l-1.124.648Zm3.483-2.011 1.124-.65v-4.377l-1.124.648Zm3.483-2.011 1.124-.649v-4.378l-1.124.648Zm3.497-2.02 1.124-.65v-4.377l-1.124.648Zm3.393-1.958 1.123-.649v-4.378l-1.123.649Zm3.483-2.011 1.123-.649v-4.378l-1.123.649Zm3.482-2.01 1.124-.65v-4.378l-1.124.649Zm3.485-2.012 1.124-.649v-4.378l-1.124.648Zm3.483-2.011 1.124-.649v-4.378l-1.124.649Zm3.483-2.011 1.124-.649v-4.378l-1.124.649Zm3.496-2.015 1.124-.649v-4.378l-1.124.648Zm3.393-1.963 1.124-.649v-4.378l-1.124.649Zm3.483-2.01 1.124-.65v-4.377l-1.124.648Zm3.483-2.011 1.124-.65v-4.377l-1.124.648Zm3.483-2.011 1.124-.65v-4.377l-1.124.648Zm3.483-2.011 1.124-.649v-4.378l-1.124.648Zm3.483-2.011 1.124-.649v-4.378l-1.124.648Zm3.486-2.018 1.124-.649v-4.378l-1.124.649Zm3.403-1.96 1.124-.649v-4.378l-1.124.649Zm3.483-2.01 1.124-.65v-4.378l-1.124.649Zm3.483-2.012 1.124-.648v-4.378l-1.124.648Zm3.483-2.01 1.124-.65v-4.377l-1.124.648Zm3.483-2.011 1.124-.65v-4.377l-1.124.648Zm3.483-2.011 1.124-.65v-4.377l-1.124.648Zm3.48-2.013 1.124-.649v-4.378l-1.124.648Zm3.41-1.965 1.124-.649v-4.378l-1.124.648Zm3.482-2.011 1.124-.649v-4.378l-1.124.649Zm3.482-2.01 1.124-.65v-4.377l-1.124.648Zm3.484-2.012 1.124-.649v-4.378l-1.124.649Zm3.483-2.01 1.124-.65v-4.377l-1.124.648Zm3.483-2.012 1.124-.649v-4.378l-1.124.649Zm3.478-2.006 1.124-.649v-4.378l-1.124.648Zm3.412-1.971 1.123-.65v-4.377l-1.123.648Zm3.481-2.01 1.124-.65v-4.378l-1.124.649Zm3.483-2.012 1.124-.648v-4.379l-1.124.649Zm3.483-2.01 1.124-.65v-4.377l-1.124.648Zm3.483-2.012 1.124-.648v-4.378l-1.124.648Zm3.483-2.01 1.124-.65v-4.377l-1.124.648Zm3.47-2.005 1.124-.649v-4.378l-1.123.649Zm3.42-1.973 1.123-.649v-4.378l-1.124.648Zm3.482-2.011 1.124-.649v-4.378l-1.124.649Zm3.483-2.01 1.124-.65v-4.378l-1.124.649Zm3.483-2.012 1.124-.648v-4.379l-1.124.649Zm3.483-2.01 1.124-.65v-4.378l-1.124.649Zm3.483-2.012 1.124-.648v-4.378l-1.124.648Zm3.466-2.003 1.124-.65v-4.377l-1.124.648Zm3.425-1.975 1.124-.649v-4.378l-1.124.649Zm3.483-2.01 1.123-.65v-4.378l-1.123.649Zm3.483-2.012 1.124-.648v-4.378l-1.124.648Zm3.483-2.01 1.123-.65v-4.377l-1.123.648Zm3.483-2.011 1.123-.65v-4.377l-1.123.648Zm3.483-2.011 1.123-.649v-4.378l-1.123.648Zm3.46-2.001 1.124-.65v-4.377l-1.124.648Zm3.429-1.977 1.124-.649v-4.378l-1.124.649Zm3.483-2.011 1.124-.649v-4.378l-1.124.649Zm3.483-2.01 1.124-.65v-4.378l-1.124.649Zm3.483-2.012 1.124-.648v-4.378l-1.124.648Zm3.483-2.01 1.124-.65v-4.378l-1.124.649Zm3.483-2.011 1.124-.65v-4.377l-1.124.648Zm3.46-6.377v4.379l1.124-.65v-4.377Z" class="colorbbc0e6 svgShape"></path></g><g fill="#010001" class="color000000 svgShape"><path d="m658.938 881.249-46.182-32.191-10.667 6.159L347.6 1034.336l-7.021 4.054h9.577l7.019-4.053h36.238c-12.12 4.334-31.582 7.494-48.086 7.494-9.075 0-15.74-.962-18.766-2.709-3.028-1.749-2.195-4.153 2.344-6.773.806-.465 1.735-.92 2.716-1.37l-3.64-2.1a40.887 40.887 0 0 0-4.894 2.351c-3.348 1.934-5.04 3.821-5.04 5.546 0 1.256.895 2.425 2.695 3.466 4.277 2.468 13.008 3.828 24.585 3.828 22.384 0 49.708-5.258 60.905-11.72 3.056-1.767 4.676-3.51 4.926-5.121a2.977 2.977 0 0 0-.815-2.454ZM400.414 1031.23a41.387 41.387 0 0 1-5.922 2.697l9.248-5.34a11.444 11.444 0 0 1-3.326 2.643Z" style="mix-blend-mode:multiply" fill="url(#g)"></path><path d="M359.26 997.163a8.085 8.085 0 0 0-3.107 1.06 3.02 3.02 0 0 0-1.055 1.003 2.304 2.304 0 0 1 1.122 2.795c-.41 1.134-1.698 2.371-3.934 3.662-10.127 5.845-34.837 10.6-55.086 10.6-9.075 0-15.74-.961-18.767-2.708-3.027-1.749-2.194-4.153 2.345-6.773.806-.465 1.734-.92 2.715-1.37l-3.639-2.1a40.887 40.887 0 0 0-4.894 2.35c-3.349 1.935-5.041 3.822-5.041 5.547 0 1.256.895 2.425 2.696 3.465 4.277 2.469 13.007 3.829 24.585 3.829 22.384 0 49.708-5.258 60.905-11.721 3.056-1.767 4.675-3.51 4.926-5.12.243-1.57-.844-3.13-3.77-4.519Z" style="mix-blend-mode:multiply" fill="url(#c)"></path><path d="M335.97 983.716a8.084 8.084 0 0 0-3.108 1.059 3.02 3.02 0 0 0-1.055 1.004 2.304 2.304 0 0 1 1.122 2.794c-.41 1.134-1.699 2.372-3.934 3.662-10.128 5.846-34.837 10.601-55.087 10.601-9.075 0-15.739-.962-18.766-2.709-3.027-1.748-2.194-4.152 2.345-6.772.806-.466 1.734-.92 2.715-1.37l-3.639-2.101a40.902 40.902 0 0 0-4.894 2.351c-3.349 1.935-5.041 3.821-5.041 5.547 0 1.255.895 2.424 2.696 3.465 4.276 2.468 13.007 3.828 24.584 3.828 22.385 0 49.708-5.258 60.905-11.72 3.057-1.767 4.676-3.51 4.926-5.121.244-1.569-.844-3.13-3.77-4.518Z" style="mix-blend-mode:multiply" fill="url(#t)"></path><path d="M312.678 970.268a8.087 8.087 0 0 0-3.107 1.06 3.02 3.02 0 0 0-1.055 1.003 2.304 2.304 0 0 1 1.121 2.794c-.409 1.135-1.698 2.372-3.933 3.663-10.128 5.845-34.838 10.6-55.087 10.6-9.075 0-15.74-.961-18.766-2.708-3.028-1.749-2.195-4.153 2.345-6.773.805-.465 1.734-.92 2.715-1.37l-3.639-2.1a40.828 40.828 0 0 0-4.895 2.35c-3.348 1.935-5.04 3.822-5.04 5.547 0 1.256.895 2.425 2.695 3.465 4.277 2.469 13.008 3.829 24.585 3.829 22.384 0 49.708-5.258 60.905-11.721 3.057-1.767 4.676-3.51 4.926-5.12.244-1.57-.844-3.13-3.77-4.519Z" style="mix-blend-mode:multiply" fill="url(#u)"></path><path d="M289.387 956.82a8.082 8.082 0 0 0-3.108 1.06 3.018 3.018 0 0 0-1.054 1.004 2.304 2.304 0 0 1 1.121 2.794c-.41 1.134-1.698 2.372-3.933 3.662-10.128 5.846-34.838 10.601-55.087 10.601-9.075 0-15.74-.962-18.767-2.709-3.027-1.748-2.194-4.152 2.345-6.772.806-.466 1.735-.92 2.716-1.37l-3.64-2.101a40.877 40.877 0 0 0-4.894 2.351c-3.349 1.935-5.041 3.821-5.041 5.547 0 1.255.895 2.424 2.696 3.465 4.277 2.468 13.007 3.828 24.585 3.828 22.384 0 49.708-5.258 60.905-11.72 3.056-1.767 4.676-3.51 4.926-5.121.244-1.569-.844-3.13-3.77-4.518Z" style="mix-blend-mode:multiply" fill="url(#v)"></path><path d="M266.096 943.373a8.084 8.084 0 0 0-3.108 1.06 3.02 3.02 0 0 0-1.055 1.003 2.304 2.304 0 0 1 1.122 2.794c-.41 1.135-1.698 2.372-3.934 3.662-10.128 5.846-34.837 10.602-55.086 10.602-9.075 0-15.74-.962-18.767-2.71-3.027-1.748-2.194-4.152 2.345-6.772.806-.465 1.734-.92 2.715-1.37l-3.639-2.1a40.918 40.918 0 0 0-4.894 2.35c-3.349 1.935-5.041 3.822-5.041 5.547 0 1.256.895 2.425 2.696 3.465 4.277 2.469 13.007 3.829 24.585 3.829 22.384 0 49.708-5.258 60.905-11.721 3.056-1.767 4.675-3.51 4.925-5.12.244-1.57-.843-3.13-3.77-4.519Z" style="mix-blend-mode:multiply" fill="url(#w)"></path><path d="M242.804 929.926a8.084 8.084 0 0 0-3.107 1.059 3.02 3.02 0 0 0-1.055 1.004 2.304 2.304 0 0 1 1.122 2.794c-.41 1.134-1.699 2.372-3.934 3.662-10.128 5.846-34.837 10.601-55.087 10.601-9.075 0-15.739-.962-18.766-2.709-3.027-1.748-2.194-4.152 2.345-6.772.806-.466 1.734-.92 2.715-1.37l-3.639-2.101a40.872 40.872 0 0 0-4.894 2.351c-3.349 1.934-5.041 3.821-5.041 5.547 0 1.255.895 2.424 2.696 3.465 4.276 2.468 13.007 3.828 24.584 3.828 22.385 0 49.708-5.258 60.905-11.72 3.057-1.767 4.676-3.51 4.926-5.121.244-1.569-.844-3.13-3.77-4.518Z" style="mix-blend-mode:multiply" fill="url(#x)"></path><path d="M219.513 916.478a8.083 8.083 0 0 0-3.107 1.06 3.02 3.02 0 0 0-1.055 1.003 2.304 2.304 0 0 1 1.121 2.794c-.409 1.135-1.698 2.372-3.933 3.662-10.128 5.846-34.838 10.602-55.087 10.602-9.075 0-15.74-.962-18.766-2.71-3.028-1.748-2.195-4.152 2.345-6.772.805-.465 1.734-.92 2.715-1.37l-3.639-2.1a40.888 40.888 0 0 0-4.895 2.35c-3.348 1.935-5.04 3.822-5.04 5.547 0 1.256.895 2.425 2.695 3.465 4.277 2.469 13.008 3.829 24.585 3.829 22.384 0 49.708-5.258 60.905-11.721 3.057-1.767 4.676-3.51 4.926-5.12.244-1.57-.844-3.13-3.77-4.519Z" style="mix-blend-mode:multiply" fill="url(#y)"></path><path d="M196.222 903.03a8.086 8.086 0 0 0-3.108 1.06 3.019 3.019 0 0 0-1.055 1.004 2.304 2.304 0 0 1 1.122 2.794c-.41 1.134-1.698 2.372-3.933 3.662-10.128 5.846-34.838 10.601-55.087 10.601-9.075 0-15.74-.962-18.767-2.709-3.027-1.748-2.194-4.152 2.345-6.772.806-.466 1.735-.92 2.716-1.37l-3.64-2.101a40.887 40.887 0 0 0-4.894 2.351c-3.349 1.934-5.041 3.821-5.041 5.547 0 1.255.895 2.424 2.696 3.465 4.277 2.468 13.007 3.828 24.585 3.828 22.384 0 49.708-5.258 60.905-11.72 3.056-1.767 4.676-3.51 4.926-5.121.244-1.569-.844-3.13-3.77-4.519Z" style="mix-blend-mode:multiply" fill="url(#z)"></path><path d="M172.93 889.583a8.084 8.084 0 0 0-3.107 1.06 3.02 3.02 0 0 0-1.055 1.003 2.304 2.304 0 0 1 1.122 2.794c-.41 1.135-1.698 2.372-3.934 3.662-10.128 5.846-34.837 10.602-55.086 10.602-9.075 0-15.74-.962-18.767-2.71-3.027-1.748-2.194-4.152 2.345-6.772.806-.465 1.734-.92 2.715-1.37l-3.639-2.1a40.903 40.903 0 0 0-4.894 2.35c-3.349 1.935-5.041 3.822-5.041 5.547 0 1.256.895 2.425 2.696 3.465 4.277 2.469 13.007 3.829 24.585 3.829 22.384 0 49.708-5.258 60.904-11.721 3.057-1.767 4.676-3.51 4.926-5.12.244-1.57-.843-3.13-3.77-4.519Z" style="mix-blend-mode:multiply" fill="url(#A)"></path><path d="M149.64 876.135a8.087 8.087 0 0 0-3.108 1.06 3.02 3.02 0 0 0-1.055 1.004 2.304 2.304 0 0 1 1.122 2.794c-.41 1.134-1.699 2.372-3.934 3.662-10.128 5.846-34.837 10.601-55.087 10.601-9.075 0-15.739-.962-18.766-2.709-3.027-1.749-2.194-4.152 2.345-6.772.806-.466 1.734-.92 2.715-1.37l-3.639-2.101a40.858 40.858 0 0 0-4.894 2.351c-3.349 1.934-5.041 3.821-5.041 5.547 0 1.255.895 2.424 2.695 3.465 4.277 2.468 13.008 3.828 24.585 3.828 22.385 0 49.708-5.258 60.905-11.72 3.057-1.767 4.676-3.51 4.926-5.121.244-1.569-.844-3.13-3.77-4.519Z" style="mix-blend-mode:multiply" fill="url(#B)"></path><path d="M126.348 862.688a8.082 8.082 0 0 0-3.107 1.06 3.017 3.017 0 0 0-1.055 1.003 2.304 2.304 0 0 1 1.121 2.794c-.409 1.135-1.698 2.372-3.933 3.662-10.128 5.846-34.838 10.602-55.087 10.602-9.075 0-15.74-.962-18.766-2.71-3.028-1.748-2.195-4.152 2.344-6.772.806-.465 1.735-.92 2.716-1.37l-3.639-2.1a40.907 40.907 0 0 0-4.895 2.35c-3.348 1.935-5.04 3.822-5.04 5.547 0 1.256.895 2.425 2.695 3.465 4.277 2.469 13.008 3.829 24.585 3.829 22.384 0 49.708-5.258 60.905-11.721 3.057-1.767 4.676-3.51 4.926-5.12.244-1.57-.844-3.13-3.77-4.519Z" style="mix-blend-mode:multiply" fill="url(#C)"></path><path d="M103.057 849.24a8.088 8.088 0 0 0-3.108 1.06 3.02 3.02 0 0 0-1.055 1.004 2.304 2.304 0 0 1 1.122 2.794c-.41 1.134-1.698 2.372-3.933 3.662-10.128 5.846-34.838 10.601-55.087 10.601-9.075 0-15.74-.962-18.767-2.709-3.027-1.749-2.194-4.153 2.345-6.772.806-.466 1.734-.92 2.715-1.37l-3.638-2.101a40.887 40.887 0 0 0-4.895 2.351c-3.349 1.934-5.041 3.821-5.041 5.547 0 1.255.895 2.424 2.696 3.465 4.277 2.468 13.007 3.828 24.585 3.828 22.384 0 49.708-5.258 60.905-11.72 3.056-1.767 4.676-3.51 4.926-5.121.243-1.569-.844-3.13-3.77-4.519Z" style="mix-blend-mode:multiply" fill="url(#D)"></path><path d="M382.552 1010.61a8.083 8.083 0 0 0-3.108 1.06 3.019 3.019 0 0 0-1.054 1.004 2.304 2.304 0 0 1 1.121 2.794c-.41 1.134-1.698 2.372-3.933 3.662-10.128 5.846-34.838 10.601-55.087 10.601-9.075 0-15.74-.962-18.767-2.709-3.027-1.748-2.194-4.152 2.345-6.772.806-.466 1.735-.92 2.716-1.37l-3.64-2.101a40.889 40.889 0 0 0-4.894 2.351c-3.349 1.935-5.04 3.821-5.04 5.547 0 1.255.895 2.424 2.695 3.465 4.277 2.468 13.008 3.828 24.585 3.828 22.384 0 49.708-5.258 60.905-11.72 3.056-1.767 4.676-3.51 4.926-5.121.244-1.569-.844-3.13-3.77-4.518Z" style="mix-blend-mode:multiply" fill="url(#E)"></path><path fill="#ff6ae4" d="M279.332 680.259 615.318 874.24l-274.736 158.621L4.595 838.878l274.737-158.619z" class="colorff826a svgShape"></path><path fill="#cee3f8" d="M336.932 1002.145v26.663l265.157-153.089v-26.663l-265.157 153.089z" class="colorced3f8 svgShape"></path><path fill="#f1f3f6" d="M11.613 814.323v26.663l325.319 187.822v-26.663L11.613 814.323z" class="colorf1f1f6 svgShape"></path><path fill="#ff6ae4" d="m279.332 648.068 335.986 193.98-274.736 158.621L4.595 806.686l274.737-158.618z" class="colorff826a svgShape"></path><path fill="#a50b89" d="M615.318 847.579v-5.531l-274.739 158.621v5.529l274.739-158.619zM340.579 1032.861v5.529l274.736-158.615v-.003l.003-.003v-5.527l-274.739 158.619z" class="colorbc3153 svgShape"></path><path fill="#ff5ae1" d="M340.579 1000.669 4.595 806.686v5.529l335.984 193.983v-5.529zM340.579 1032.861 4.595 838.878v5.529l335.984 193.983v-5.529zM315.722 702.561l205.211 118.477-216.742 125.138L98.98 827.696l216.742-125.135z" class="colorff5a72 svgShape"></path><path style="mix-blend-mode:multiply" fill="url(#F)" d="M336.932 1028.808h10.666l267.72-154.566-13.229-7.639v9.116l-265.157 153.089z"></path><path fill="url(#d)" d="M34.71 813.074a6.429 6.429 0 0 0 .698-.33 2.57 2.57 0 0 0 0-4.87 8.623 8.623 0 0 0-4.218-1.009 8.622 8.622 0 0 0-4.218 1.009 2.57 2.57 0 0 0 0 4.87 6.405 6.405 0 0 0 .699.33 9.458 9.458 0 0 1 7.038 0Z"></path><path fill="#a3b9d0" d="M34.71 813.074a9.458 9.458 0 0 0-7.039 0 9.458 9.458 0 0 0 7.038 0Z" class="colora3a9d0 svgShape"></path><path fill="url(#e)" d="M28.583 812.856a8.85 8.85 0 0 1 4.84.648 6.093 6.093 0 0 0 1.738-.61 3.893 3.893 0 0 0 1.835-1.794 12.253 12.253 0 0 0-7.826-2.176 20.007 20.007 0 0 0-8.87 2.844l1.94 3.359a16.875 16.875 0 0 1 6.343-2.271Z"></path><path fill="url(#f)" d="M22.674 854.845a27.135 27.135 0 0 1-2.373 1.567c-4.538 2.621-8.702 3.102-11.73 1.354-3.027-1.748-4.693-5.595-4.693-10.835 0-11.69 8.237-25.957 18.362-31.804l-1.94-3.36C9.108 818.233 0 834.008 0 846.932c0 6.685 2.356 11.725 6.631 14.194a11.855 11.855 0 0 0 6.002 1.557 19.487 19.487 0 0 0 9.607-2.91 31.183 31.183 0 0 0 4.072-2.826Z"></path><path fill="url(#G)" d="M58 826.521a6.481 6.481 0 0 0 .7-.33 2.57 2.57 0 0 0 0-4.87 9.322 9.322 0 0 0-8.436 0 2.57 2.57 0 0 0 0 4.87 6.428 6.428 0 0 0 .698.33 9.458 9.458 0 0 1 7.039 0Z"></path><path fill="#a3b9d0" d="M58 826.521a9.458 9.458 0 0 0-7.038 0 9.458 9.458 0 0 0 7.039 0Z" class="colora3a9d0 svgShape"></path><path fill="url(#H)" d="M51.874 826.303a8.852 8.852 0 0 1 4.84.648 6.087 6.087 0 0 0 1.738-.609 3.893 3.893 0 0 0 1.835-1.794 12.252 12.252 0 0 0-7.826-2.177 20.005 20.005 0 0 0-8.869 2.844l1.94 3.36a16.877 16.877 0 0 1 6.342-2.272Z"></path><path fill="url(#I)" d="M45.965 868.292a27.16 27.16 0 0 1-2.373 1.568c-4.538 2.62-8.702 3.101-11.73 1.354-3.026-1.748-4.693-5.596-4.693-10.835 0-11.691 8.237-25.957 18.362-31.804l-1.939-3.36c-11.194 6.465-20.3 22.24-20.3 35.164 0 6.684 2.355 11.725 6.63 14.194a11.856 11.856 0 0 0 6.002 1.556 19.488 19.488 0 0 0 9.607-2.91 31.25 31.25 0 0 0 4.073-2.826Z"></path><path fill="url(#J)" d="M81.292 839.969a6.447 6.447 0 0 0 .699-.33 2.57 2.57 0 0 0 0-4.87 9.324 9.324 0 0 0-8.436 0 2.57 2.57 0 0 0 0 4.87 6.408 6.408 0 0 0 .699.33 9.458 9.458 0 0 1 7.038 0Z"></path><path fill="#a3b9d0" d="M81.292 839.969a9.458 9.458 0 0 0-7.038 0 9.458 9.458 0 0 0 7.038 0Z" class="colora3a9d0 svgShape"></path><path fill="url(#K)" d="M75.165 839.751a8.852 8.852 0 0 1 4.84.648 6.087 6.087 0 0 0 1.739-.61 3.892 3.892 0 0 0 1.835-1.794 12.252 12.252 0 0 0-7.827-2.176 20.007 20.007 0 0 0-8.869 2.844l1.94 3.359a16.873 16.873 0 0 1 6.342-2.271Z"></path><path fill="url(#L)" d="M69.256 881.74a27.13 27.13 0 0 1-2.373 1.567c-4.538 2.621-8.701 3.102-11.73 1.354-3.026-1.748-4.692-5.595-4.692-10.835 0-11.69 8.237-25.957 18.361-31.804l-1.939-3.36c-11.193 6.465-20.3 22.24-20.3 35.164 0 6.685 2.355 11.725 6.63 14.194a11.854 11.854 0 0 0 6.002 1.557 19.49 19.49 0 0 0 9.607-2.91 31.232 31.232 0 0 0 4.073-2.826Z"></path><path fill="url(#M)" d="M104.583 853.416a6.467 6.467 0 0 0 .699-.33 2.57 2.57 0 0 0 0-4.87 9.322 9.322 0 0 0-8.436 0 2.57 2.57 0 0 0 0 4.87 6.446 6.446 0 0 0 .699.33 9.458 9.458 0 0 1 7.038 0Z"></path><path fill="#a3b9d0" d="M104.583 853.416a9.458 9.458 0 0 0-7.038 0 9.458 9.458 0 0 0 7.038 0Z" class="colora3a9d0 svgShape"></path><path fill="url(#N)" d="M98.457 853.198a8.851 8.851 0 0 1 4.84.648 6.087 6.087 0 0 0 1.738-.609 3.893 3.893 0 0 0 1.835-1.794 12.252 12.252 0 0 0-7.826-2.177 20.005 20.005 0 0 0-8.87 2.844l1.94 3.36a16.879 16.879 0 0 1 6.343-2.272Z"></path><path fill="url(#O)" d="M92.548 895.187a27.162 27.162 0 0 1-2.373 1.568c-4.538 2.62-8.702 3.101-11.731 1.354-3.026-1.748-4.692-5.596-4.692-10.835 0-11.691 8.237-25.957 18.362-31.804l-1.94-3.36c-11.193 6.465-20.3 22.24-20.3 35.164 0 6.684 2.355 11.725 6.631 14.194a11.857 11.857 0 0 0 6.002 1.556 19.487 19.487 0 0 0 9.607-2.91 31.216 31.216 0 0 0 4.072-2.826Z"></path><path fill="url(#P)" d="M127.874 866.864a6.444 6.444 0 0 0 .699-.33 2.57 2.57 0 0 0 0-4.87 9.323 9.323 0 0 0-8.436 0 2.57 2.57 0 0 0 0 4.87 6.444 6.444 0 0 0 .699.33 9.457 9.457 0 0 1 7.038 0Z"></path><ellipse cx="124.355" cy="866.864" fill="#a3b9d0" rx="3.519" ry=".679" class="colora3a9d0 svgShape"></ellipse><path fill="url(#Q)" d="M121.748 866.646a8.851 8.851 0 0 1 4.84.648 6.087 6.087 0 0 0 1.738-.61 3.893 3.893 0 0 0 1.835-1.794 12.253 12.253 0 0 0-7.826-2.176 20.006 20.006 0 0 0-8.869 2.844l1.939 3.359a16.876 16.876 0 0 1 6.343-2.271Z"></path><path fill="url(#R)" d="M115.839 908.635a27.16 27.16 0 0 1-2.373 1.567c-4.538 2.621-8.702 3.102-11.73 1.354-3.027-1.748-4.693-5.595-4.693-10.835 0-11.69 8.237-25.957 18.362-31.804l-1.939-3.36c-11.194 6.466-20.301 22.24-20.301 35.164 0 6.685 2.356 11.725 6.631 14.194a11.855 11.855 0 0 0 6.002 1.557 19.49 19.49 0 0 0 9.607-2.91 31.216 31.216 0 0 0 4.072-2.826Z"></path><path fill="url(#S)" d="M151.166 880.311a6.465 6.465 0 0 0 .698-.33 2.57 2.57 0 0 0 0-4.87 9.324 9.324 0 0 0-8.435 0 2.57 2.57 0 0 0 0 4.87 6.39 6.39 0 0 0 .698.33 9.458 9.458 0 0 1 7.039 0Z"></path><path fill="#a3b9d0" d="M151.166 880.311a9.458 9.458 0 0 0-7.039 0 9.458 9.458 0 0 0 7.039 0Z" class="colora3a9d0 svgShape"></path><path fill="url(#T)" d="M145.04 880.093a8.852 8.852 0 0 1 4.839.648 6.087 6.087 0 0 0 1.738-.609 3.892 3.892 0 0 0 1.835-1.794 12.252 12.252 0 0 0-7.826-2.177 20.007 20.007 0 0 0-8.869 2.844l1.94 3.36a16.878 16.878 0 0 1 6.342-2.272Z"></path><path fill="url(#U)" d="M139.13 922.082a27.13 27.13 0 0 1-2.373 1.568c-4.538 2.62-8.702 3.102-11.73 1.354-3.026-1.748-4.693-5.596-4.693-10.835 0-11.691 8.237-25.957 18.362-31.804l-1.939-3.36c-11.194 6.465-20.3 22.24-20.3 35.164 0 6.684 2.355 11.725 6.63 14.194a11.856 11.856 0 0 0 6.002 1.556 19.488 19.488 0 0 0 9.607-2.91 31.21 31.21 0 0 0 4.073-2.826Z"></path><path fill="url(#V)" d="M174.457 893.759a6.41 6.41 0 0 0 .699-.33 2.57 2.57 0 0 0 0-4.87 9.324 9.324 0 0 0-8.436 0 2.57 2.57 0 0 0 0 4.87 6.41 6.41 0 0 0 .699.33 9.456 9.456 0 0 1 7.038 0Z"></path><path fill="#a3b9d0" d="M174.457 893.759a9.456 9.456 0 0 0-7.038 0 9.456 9.456 0 0 0 7.038 0Z" class="colora3a9d0 svgShape"></path><path fill="url(#W)" d="M168.33 893.541a8.851 8.851 0 0 1 4.84.648 6.087 6.087 0 0 0 1.739-.61 3.892 3.892 0 0 0 1.835-1.794 12.252 12.252 0 0 0-7.827-2.176 20.005 20.005 0 0 0-8.869 2.844l1.94 3.359a16.878 16.878 0 0 1 6.342-2.271Z"></path><path fill="url(#X)" d="M162.421 935.53a27.13 27.13 0 0 1-2.373 1.567c-4.537 2.621-8.701 3.102-11.73 1.354-3.026-1.747-4.692-5.595-4.692-10.835 0-11.69 8.237-25.957 18.361-31.804l-1.939-3.359c-11.193 6.465-20.3 22.24-20.3 35.163 0 6.685 2.355 11.725 6.63 14.194a11.854 11.854 0 0 0 6.002 1.557 19.49 19.49 0 0 0 9.607-2.91 31.218 31.218 0 0 0 4.073-2.826Z"></path><path fill="url(#Y)" d="M197.748 907.206a6.43 6.43 0 0 0 .699-.33 2.57 2.57 0 0 0 0-4.87 9.323 9.323 0 0 0-8.436 0 2.57 2.57 0 0 0 0 4.87 6.405 6.405 0 0 0 .699.33 9.458 9.458 0 0 1 7.038 0Z"></path><path fill="#a3b9d0" d="M197.748 907.206a9.458 9.458 0 0 0-7.038 0 9.458 9.458 0 0 0 7.038 0Z" class="colora3a9d0 svgShape"></path><path fill="url(#Z)" d="M191.622 906.988a8.853 8.853 0 0 1 4.84.648 6.086 6.086 0 0 0 1.738-.609 3.893 3.893 0 0 0 1.835-1.794 12.251 12.251 0 0 0-7.826-2.177 20.007 20.007 0 0 0-8.87 2.844l1.94 3.36a16.879 16.879 0 0 1 6.343-2.272Z"></path><path fill="url(#aa)" d="M185.713 948.977a27.132 27.132 0 0 1-2.373 1.568c-4.538 2.62-8.702 3.102-11.731 1.354-3.026-1.748-4.692-5.596-4.692-10.835 0-11.691 8.237-25.957 18.362-31.804l-1.94-3.36c-11.193 6.465-20.3 22.24-20.3 35.164 0 6.684 2.355 11.725 6.631 14.194a11.855 11.855 0 0 0 6.002 1.556 19.487 19.487 0 0 0 9.607-2.91 31.183 31.183 0 0 0 4.072-2.826Z"></path><path fill="url(#ab)" d="M221.04 920.654a6.404 6.404 0 0 0 .698-.33 2.57 2.57 0 0 0 0-4.87 9.322 9.322 0 0 0-8.436 0 2.57 2.57 0 0 0 0 4.87 6.392 6.392 0 0 0 .7.33 9.456 9.456 0 0 1 7.037 0Z"></path><path fill="#a3b9d0" d="M221.04 920.654a9.456 9.456 0 0 0-7.039 0 9.456 9.456 0 0 0 7.038 0Z" class="colora3a9d0 svgShape"></path><path fill="url(#ac)" d="M214.913 920.436a8.852 8.852 0 0 1 4.84.648 6.087 6.087 0 0 0 1.738-.61 3.893 3.893 0 0 0 1.835-1.794 12.252 12.252 0 0 0-7.826-2.176 20.002 20.002 0 0 0-8.869 2.844l1.939 3.359a16.88 16.88 0 0 1 6.343-2.271Z"></path><path fill="url(#ad)" d="M209.004 962.425a27.16 27.16 0 0 1-2.373 1.567c-4.538 2.621-8.702 3.102-11.73 1.354-3.027-1.747-4.693-5.595-4.693-10.835 0-11.69 8.237-25.957 18.362-31.804l-1.939-3.359c-11.194 6.465-20.301 22.24-20.301 35.163 0 6.685 2.356 11.725 6.631 14.194a11.854 11.854 0 0 0 6.002 1.557 19.49 19.49 0 0 0 9.607-2.91 31.232 31.232 0 0 0 4.073-2.826Z"></path><path fill="url(#ae)" d="M244.33 934.101a6.448 6.448 0 0 0 .7-.33 2.57 2.57 0 0 0 0-4.87 9.324 9.324 0 0 0-8.436 0 2.57 2.57 0 0 0 0 4.87 6.407 6.407 0 0 0 .698.33 9.458 9.458 0 0 1 7.039 0Z"></path><path fill="#a3b9d0" d="M244.33 934.101a9.458 9.458 0 0 0-7.038 0 9.458 9.458 0 0 0 7.039 0Z" class="colora3a9d0 svgShape"></path><path fill="url(#af)" d="M238.204 933.884a8.85 8.85 0 0 1 4.84.647 6.091 6.091 0 0 0 1.738-.609 3.892 3.892 0 0 0 1.835-1.794 12.252 12.252 0 0 0-7.826-2.177 20.007 20.007 0 0 0-8.869 2.844l1.94 3.36a16.873 16.873 0 0 1 6.342-2.271Z"></path><path fill="url(#ag)" d="M232.295 975.872a27.13 27.13 0 0 1-2.373 1.568c-4.538 2.62-8.702 3.102-11.73 1.354-3.026-1.748-4.693-5.596-4.693-10.835 0-11.691 8.237-25.957 18.362-31.804l-1.939-3.36c-11.194 6.465-20.3 22.24-20.3 35.164 0 6.684 2.355 11.725 6.63 14.194a11.854 11.854 0 0 0 6.002 1.556 19.488 19.488 0 0 0 9.607-2.91 31.209 31.209 0 0 0 4.073-2.826Z"></path><path fill="url(#ah)" d="M267.622 947.549a6.393 6.393 0 0 0 .699-.33 2.57 2.57 0 0 0 0-4.87 9.322 9.322 0 0 0-8.436 0 2.57 2.57 0 0 0 0 4.87 6.405 6.405 0 0 0 .699.33 9.456 9.456 0 0 1 7.038 0Z"></path><path fill="#a3b9d0" d="M267.622 947.549a9.456 9.456 0 0 0-7.038 0 9.456 9.456 0 0 0 7.038 0Z" class="colora3a9d0 svgShape"></path><path fill="url(#ai)" d="M261.495 947.331a8.851 8.851 0 0 1 4.84.648 6.086 6.086 0 0 0 1.739-.61 3.893 3.893 0 0 0 1.835-1.794 12.252 12.252 0 0 0-7.827-2.176 20.005 20.005 0 0 0-8.869 2.844l1.94 3.36a16.879 16.879 0 0 1 6.342-2.272Z"></path><path fill="url(#aj)" d="M255.586 989.32a27.16 27.16 0 0 1-2.373 1.567c-4.537 2.621-8.701 3.102-11.73 1.354-3.026-1.747-4.692-5.595-4.692-10.835 0-11.69 8.237-25.957 18.361-31.804l-1.939-3.359c-11.193 6.465-20.3 22.24-20.3 35.163 0 6.685 2.355 11.725 6.63 14.194a11.855 11.855 0 0 0 6.002 1.557 19.487 19.487 0 0 0 9.607-2.91 31.218 31.218 0 0 0 4.073-2.826Z"></path><path fill="url(#ak)" d="M290.913 960.996a6.444 6.444 0 0 0 .699-.33 2.57 2.57 0 0 0 0-4.87 9.323 9.323 0 0 0-8.436 0 2.57 2.57 0 0 0 0 4.87 6.407 6.407 0 0 0 .699.33 9.458 9.458 0 0 1 7.038 0Z"></path><path fill="#a3b9d0" d="M290.913 960.996a9.458 9.458 0 0 0-7.038 0 9.458 9.458 0 0 0 7.038 0Z" class="colora3a9d0 svgShape"></path><path fill="url(#al)" d="M284.787 960.779a8.85 8.85 0 0 1 4.84.647 6.092 6.092 0 0 0 1.738-.609 3.894 3.894 0 0 0 1.835-1.794 12.253 12.253 0 0 0-7.826-2.177 20.007 20.007 0 0 0-8.87 2.844l1.94 3.36a16.873 16.873 0 0 1 6.343-2.271Z"></path><path fill="url(#am)" d="M278.878 1002.767a27.208 27.208 0 0 1-2.373 1.568c-4.538 2.62-8.702 3.102-11.73 1.354-3.027-1.748-4.693-5.596-4.693-10.835 0-11.691 8.237-25.957 18.362-31.804l-1.94-3.36c-11.193 6.465-20.3 22.24-20.3 35.164 0 6.684 2.355 11.725 6.631 14.194a11.855 11.855 0 0 0 6.002 1.556 19.488 19.488 0 0 0 9.607-2.91 31.195 31.195 0 0 0 4.072-2.826Z"></path><path fill="url(#an)" d="M314.204 974.444a6.408 6.408 0 0 0 .7-.33 2.57 2.57 0 0 0 0-4.87 9.322 9.322 0 0 0-8.437 0 2.57 2.57 0 0 0 0 4.87 6.392 6.392 0 0 0 .7.33 9.456 9.456 0 0 1 7.037 0Z"></path><path fill="#a3b9d0" d="M314.204 974.444a9.456 9.456 0 0 0-7.038 0 9.456 9.456 0 0 0 7.038 0Z" class="colora3a9d0 svgShape"></path><path fill="url(#ao)" d="M308.078 974.226a8.852 8.852 0 0 1 4.84.648 6.087 6.087 0 0 0 1.738-.61 3.892 3.892 0 0 0 1.835-1.794 12.252 12.252 0 0 0-7.826-2.176 20.005 20.005 0 0 0-8.869 2.844l1.939 3.36a16.878 16.878 0 0 1 6.343-2.272Z"></path><path fill="url(#ap)" d="M302.169 1016.215a27.13 27.13 0 0 1-2.373 1.567c-4.538 2.621-8.702 3.102-11.73 1.354-3.027-1.747-4.693-5.595-4.693-10.835 0-11.69 8.237-25.957 18.362-31.804l-1.939-3.359c-11.194 6.465-20.3 22.24-20.3 35.163 0 6.685 2.355 11.725 6.63 14.194a11.854 11.854 0 0 0 6.002 1.557 19.488 19.488 0 0 0 9.607-2.91 31.232 31.232 0 0 0 4.073-2.826Z"></path><path fill="url(#aq)" d="M337.496 987.891a6.448 6.448 0 0 0 .698-.33 2.57 2.57 0 0 0 0-4.87 9.324 9.324 0 0 0-8.435 0 2.57 2.57 0 0 0 0 4.87 6.407 6.407 0 0 0 .698.33 9.458 9.458 0 0 1 7.039 0Z"></path><path fill="#a3b9d0" d="M337.496 987.891a9.458 9.458 0 0 0-7.039 0 9.458 9.458 0 0 0 7.039 0Z" class="colora3a9d0 svgShape"></path><path fill="url(#ar)" d="M331.37 987.674a8.85 8.85 0 0 1 4.839.647 6.093 6.093 0 0 0 1.739-.609 3.893 3.893 0 0 0 1.835-1.794 12.253 12.253 0 0 0-7.827-2.177 20.007 20.007 0 0 0-8.869 2.844l1.94 3.36a16.875 16.875 0 0 1 6.342-2.271Z"></path><path fill="url(#as)" d="M325.46 1029.662a27.087 27.087 0 0 1-2.373 1.568c-4.538 2.62-8.702 3.102-11.73 1.354-3.026-1.748-4.693-5.596-4.693-10.835 0-11.691 8.237-25.957 18.362-31.804l-1.939-3.36c-11.194 6.465-20.3 22.24-20.3 35.164 0 6.684 2.355 11.725 6.63 14.194a11.855 11.855 0 0 0 6.002 1.557 19.488 19.488 0 0 0 9.607-2.911 31.196 31.196 0 0 0 4.073-2.826Z"></path></g><path style="mix-blend-mode:multiply" fill="url(#at)" d="m844.336 790.854 52.424.003 25.813-14.902 52.43.004 25.818-14.905-156.512-90.363-77.429 135.066 51.644.005 25.812-14.908z" data-name="Shadow under ladder"></path><g data-name="Back book" fill="#010001" class="color000000 svgShape"><path fill="#6f196f" d="m832.274 133.571 3.3 350.015 225.968-130.454-3.3-350.026-225.968 130.465z" class="color20196f svgShape"></path><path fill="#f4f6f8" d="m1084.35 49.269-40.234-23.229-211.842 122.304 40.237 23.231L1084.35 49.269z" class="colorf6f6fb svgShape"></path><path style="mix-blend-mode:multiply" fill="#dfe9f4" d="m1061.542 36.101-17.426-10.061-211.842 122.304 17.429 10.064 211.839-122.307z" class="colordfe4f4 svgShape"></path><path fill="#6f196f" d="m875.811 164.93-.004 348.116 231.357-133.58-.007-348.104L875.811 164.93z" class="color20196f svgShape"></path><path fill="#453eaf" d="M821.497 133.571 1052.846 0l5.396 3.106-225.968 130.465 43.537 25.135 225.965-130.459 5.381 3.115L875.811 164.93l-54.314-31.359z" class="color423eaf svgShape"></path><path fill="#342e94" d="M821.507 133.571v348.111l54.3 31.362.004-348.114-54.304-31.359z" class="color362e94 svgShape"></path><path fill="#857dfb" d="M839.195 240.678v147.324l18.927 10.932.002-147.325-18.929-10.931z" class="color807dfb svgShape"></path><path fill="#5046e4" d="M821.507 407.771v34.381l54.3 31.362v-34.377l-54.3-31.366zM821.507 172.623v34.38l54.3 31.366v-34.381l-54.3-31.365z" class="color5652cc svgShape"></path><path fill="#342e94" d="M885.239 433.692v34.382l-9.432 5.44v-34.377l9.432-5.445zM885.239 198.544v34.382l-9.432 5.443v-34.381l9.432-5.444z" class="color362e94 svgShape"></path><path fill="#c4d6e9" d="M1072.991 245.185 903.415 343.09v-62.969l169.576-97.905v62.969zM1026.6 307.026l-123.185 71.12v-18.223l123.185-71.12v18.223z" class="colorc4cae9 svgShape"></path></g><g data-name="Book 2" fill="#010001" class="color000000 svgShape"><path style="mix-blend-mode:multiply" fill="url(#au)" d="m925.471 758.38 353.173-260.726 98.416 56.822-353.164 203.903-98.425.001z"></path><path fill="#3e9eff" d="m920.277 749.383 353.16-203.897-218.025-125.885-353.169 203.902 218.034 125.88z" class="colorffd03e svgShape"></path><path fill="#dfe9f4" d="m728.221 579.416.001 44.826 204.399 118.014.001-44.83-204.401-118.01z" class="colordfe4f4 svgShape"></path><path fill="#3e9eff" d="m925.472 701.554 353.172-203.9-223.237-128.88L702.25 572.677l223.222 128.877z" class="colorffd03e svgShape"></path><path fill="#f4f6f8" d="M925.476 758.389 702.25 629.51l-.007-6.007 218.034 125.88-.005-44.827-218.029-125.88.007-5.999 223.222 128.877.004 56.835z" class="colorfcba06 svgShape"></path><path fill="#dc00b4" d="m925.471 758.38 353.166-203.901.006-56.824-353.171 203.899-.001 56.826z" class="colordc8b00 svgShape"></path><path fill="#f4f6f8" d="m990.448 447.418-71.832 41.472 151.98 87.745 71.831-41.472-151.979-87.745z" class="colorfcba06 svgShape"></path><path fill="#9accff" d="M1026.384 559.902c-4.808-2.776-12.604-2.776-17.412 0s-4.808 7.277 0 10.053c4.808 2.776 12.604 2.776 17.412 0s4.808-7.277 0-10.053ZM1000.123 544.74c-4.809-2.776-12.604-2.776-17.413 0-4.808 2.776-4.808 7.277 0 10.053 4.808 2.776 12.604 2.776 17.413 0 4.808-2.776 4.808-7.277 0-10.053ZM973.86 529.578c-4.807-2.776-12.603-2.776-17.411 0-4.809 2.776-4.809 7.277 0 10.053 4.808 2.776 12.604 2.776 17.412 0 4.808-2.777 4.808-7.277 0-10.053ZM947.599 514.416c-4.808-2.776-12.604-2.776-17.412 0s-4.808 7.276 0 10.052 12.604 2.776 17.412 0 4.808-7.276 0-10.052Z" class="colorffef9a svgShape"></path><path fill="#f4f6f8" d="M967.202 705.876c0-6.444 4.524-14.28 10.105-17.502 5.58-3.222 10.104-.61 10.104 5.834s-4.524 14.28-10.104 17.502c-5.581 3.222-10.105.61-10.105-5.834ZM1216.702 561.827c0-6.444 4.524-14.28 10.105-17.502 5.58-3.222 10.105-.61 10.105 5.834s-4.524 14.28-10.105 17.502c-5.58 3.222-10.105.61-10.105-5.834ZM1091.952 633.851c0-6.444 4.524-14.28 10.105-17.502s10.105-.61 10.105 5.834-4.524 14.28-10.105 17.502-10.105.61-10.105-5.834ZM996.55 682.934l86.263-49.804v11.995l-86.263 49.804v-11.995zM1207.564 561.105 1121.3 610.91v11.995l86.264-49.805v-11.995z" class="colorfcba06 svgShape"></path><path d="m1278.643 497.655-26.961-15.567-1.065-.615-324.036 184.43c11.164 0 39.05 3.11 71.751-6.414l280.309-161.833Z" style="mix-blend-mode:multiply" fill="url(#av)"></path></g><g data-name="Book 1" fill="#010001" class="color000000 svgShape"><path fill="#6f67e9" d="m913.569 655.518 13.058 7.479 14.805-8.548a29.626 29.626 0 0 0 1.17-8.543c-.002-17.856-12.541-39.579-28.006-48.507l.002.003 300.265-173.37-163.327-94.297-351.121 202.72Z" class="color6b67e9 svgShape"></path><path fill="#f1f3f6" d="M926.862 649.026s-191.636-110.643-201.473-116.32c-.005-8.838 0-43.917-.001-52.749 9.84 5.684 201.474 116.315 201.474 116.315 12.593 7.278 22.842 25.03 22.843 39.565-.006 14.54-10.25 20.458-22.843 13.189Z" class="colorf1f1f6 svgShape"></path><path fill="#6f67e9" d="M1265.713 394.673 914.587 597.395 700.419 473.744l351.121-202.72 214.173 123.649z" class="color6b67e9 svgShape"></path><path fill="#6f67e9" d="M1265.713 394.673 914.587 597.395 700.419 473.744l351.121-202.72 214.173 123.649z" class="color6b67e9 svgShape"></path><path fill="#5046e4" d="M942.601 645.906c-.002 17.862-12.54 25.106-28.006 16.17L700.414 538.418v-5.964L914.593 656.11c12.593 7.269 22.839 1.35 22.84-13.187.004-14.538-10.245-32.29-22.843-39.565l-214.172-123.65.002-5.964 214.177 123.655c15.465 8.928 28.004 30.65 28.005 48.507Z" class="color5652cc svgShape"></path><path fill="url(#aw)" d="M942.601 645.906c0-17.856-12.54-39.579-28.005-48.507l.002.003 351.115-202.73.004.007c15.46 8.931 28.005 30.659 28.007 48.51.001 8.929-3.138 15.207-8.205 18.133l-351.12 202.72c5.069-2.927 8.2-9.206 8.202-18.136Z"></path><path fill="#5046e4" d="m904.982 405.125 128.461 74.167 27.707-15.997-128.461-74.167-27.707 15.997z" class="color5652cc svgShape"></path><path fill="#f4f6f8" d="M977.723 431.125a11.81 11.81 0 0 1 10.686 0c2.951 1.704 2.951 4.466 0 6.17a11.81 11.81 0 0 1-10.686 0c-2.951-1.704-2.951-4.466 0-6.17ZM999.133 443.486a11.81 11.81 0 0 1 10.686 0c2.951 1.704 2.951 4.466 0 6.17a11.81 11.81 0 0 1-10.686 0c-2.951-1.704-2.951-4.466 0-6.17ZM967 424.933c2.95-1.703 2.95-4.466 0-6.17a11.81 11.81 0 0 0-10.687 0c-2.951 1.704-2.951 4.467 0 6.17a11.81 11.81 0 0 0 10.686 0Z" class="colorf6f6fb svgShape"></path><path fill="none" stroke="#5a52cc" stroke-width="2" d="m1206.986 378.655.003-.001-127.701-73.726c-15.312 8.84-40.136 8.84-55.448 0L759.19 457.725c15.31 8.84 15.31 23.172 0 32.012h-.001l127.698 73.728.001-.001c15.31-8.84 40.135-8.84 55.446 0l264.652-152.797c-15.311-8.84-15.311-23.172 0-32.012Z" class="colorStroke5652cc svgStroke"></path><path style="mix-blend-mode:multiply" fill="url(#ax)" d="M875.811 372.481h351.464L1051.54 271.024 875.811 372.481z"></path></g><g fill="#010001" class="color000000 svgShape"><path fill="#cee3f8" d="m792.693 761.038-133.386-77.009-.008-30.267 133.39 77.009.004 30.267z" class="colorced3f8 svgShape"></path><path fill="#f4f6f8" d="m792.689 730.771-133.39-77.009 25.812-14.906 133.394 77.009-25.816 14.906z" class="colorf6f6fb svgShape"></path><path fill="#cee3f8" d="m818.497 715.865-133.386-77.009-.008-30.268 133.39 77.01.004 30.267z" class="colorced3f8 svgShape"></path><path fill="#f4f6f8" d="m818.493 685.598-133.39-77.01 25.812-14.906 133.394 77.009-25.816 14.907z" class="colorf6f6fb svgShape"></path><path fill="#cee3f8" d="m766.88 805.757-133.389-77.013-.004-29.809 133.386 77.006.007 29.816z" class="colorced3f8 svgShape"></path><path fill="#f4f6f8" d="m766.873 775.941-133.386-77.006 25.82-14.906 133.386 77.009-25.82 14.903z" class="colorf6f6fb svgShape"></path><path fill="#bbd0e6" d="m792.693 761.038-.004-30.267 25.811-14.903-.007-30.27 25.816-14.907.02 90.343-77.449 44.723-.007-29.816 25.82-14.903z" class="colorbbc0e6 svgShape"></path></g><g fill="#010001" class="color000000 svgShape"><path style="mix-blend-mode:multiply" fill="url(#h)" d="M670.175 760.252h-32.123l-5.275 15.781h64.732l-27.334-15.781z"></path><path style="mix-blend-mode:multiply" fill="url(#ay)" d="M743.939 732.89h-26.764l-5.274 15.78 59.272-.056-27.234-15.724z"></path><path fill="#a9d2fc" d="M624.752 626.794c2.093 3.61 5.735 7.382 6.61 9.715a22.72 22.72 0 0 1 1.115 6.766c0 1.213-.921 4.773-2.433 4.168-1.512-.604-2.075.937-3.587.635-1.511-.303-.966-.849-.966-.849-.8.29-1.875.297-2.166-.32-.68.23-.989.928-2.107-.408-.916-1.092-1.186-3.129-1.89-4.227-2.27-3.53-1.318-13.916-1.77-14.978-.456-1.06 5.738-3.01 7.194-.502Z" class="colorfcd1a9 svgShape"></path><path fill="url(#az)" d="M644.879 542.296c-29.866 19.079-33.324 56.718-28.19 87.474 3.513 5.116 11.075 2.612 10.212-2.13-3.077-35.043 2.48-68.018 17.978-85.344Z"></path><path fill="url(#i)" d="M622.4 770.673c0-13.655 8.648-14.043 8.648-14.043s4.688 0 12.296-3.164c7.508-3.111 18.093-1.914 12.178 9.005a3.882 3.882 0 0 1-.202.4 5.346 5.346 0 0 1-1.92 1.679l-18.903 11.086c-2.883 1.647-12.035-2.154-12.096-4.963Z"></path><path fill="#471147" d="M622.45 769.446c.165 2.806 9.191 6.534 12.047 4.902l18.903-11.084a17.67 17.67 0 0 0 2.663-1.937c-.17.37-.323.725-.54 1.144a3.882 3.882 0 0 1-.203.4 5.346 5.346 0 0 1-1.92 1.679l-18.903 11.086c-2.695 1.535-10.899-1.702-11.979-4.423a2.982 2.982 0 0 1-.085-.552 9.34 9.34 0 0 1 .018-1.215Z" class="color131147 svgShape"></path><path fill="#ffffff" d="M625.917 754.828c2.228 0 10.071 1.996 10.071 1.996a4.37 4.37 0 0 0 .696 2.031 2.235 2.235 0 0 1 .22.276c1.55 1.069 3.12 2.777-.549 5.072a5.101 5.101 0 0 1-6.61-.47 6.035 6.035 0 0 0-2.131-2.418 5.418 5.418 0 0 0-2.046-.863 1.484 1.484 0 0 0-.015-.188s-.57-5.436.364-5.436Z" class="colorffffff svgShape"></path><path fill="#6f196f" d="M625.776 621.366c8.55.156 29.91.535 38.456.69-3.185 25.693-9.584 49.02-13.86 73.899-4.589 24.175-9.755 41.17-14.27 61.297-1.652 3.752-9.207 2.328-10.74-1.273-1.2-18.534-2.574-41.115 2.921-62.493-.919-23.05-3.047-48.852-2.507-72.12Z" class="color20196f svgShape"></path><path fill="url(#aA)" d="M701.43 743.319c0-13.644 8.656-14.037 8.656-14.037s4.68 0 12.294-3.158c7.505-3.117 18.087-1.92 12.175 8.994a2.69 2.69 0 0 1-.211.405 5.26 5.26 0 0 1-1.914 1.685l-18.898 11.083c-2.882 1.644-12.031-2.16-12.101-4.972Z"></path><path fill="#471147" d="M701.483 742.098c.162 2.806 9.19 6.534 12.05 4.902l18.897-11.084a17.215 17.215 0 0 0 2.665-1.949c-.176.381-.323.751-.54 1.15a2.69 2.69 0 0 1-.211.406 5.26 5.26 0 0 1-1.914 1.685l-18.898 11.083c-2.694 1.538-10.898-1.697-11.978-4.42a2.808 2.808 0 0 1-.085-.558 8.395 8.395 0 0 1 .014-1.215Z" class="color131147 svgShape"></path><path fill="#ffffff" d="M704.947 727.486c2.222 0 10.071 1.99 10.071 1.99a4.435 4.435 0 0 0 .698 2.031c.08.088.144.176.218.264 1.55 1.075 3.126 2.783-.546 5.084a5.094 5.094 0 0 1-6.61-.47 6.074 6.074 0 0 0-2.132-2.418 5.436 5.436 0 0 0-2.045-.863.733.733 0 0 0-.018-.182s-.564-5.436.364-5.436Z" class="colorffffff svgShape"></path><path fill="url(#aB)" d="M684.943 644.135c-8.457 1.239-51.11-18.762-59.566-17.518-1.767 49.64 38.843 47.555 74.049 44.729l.296-.056a204.022 204.022 0 0 0 4.69 58.89c2.108 3.306 9.793 3.47 10.806-.493 1.168-20.6 6.33-38.205 6.903-62.81.162-25.246-17.708-22.16-37.178-22.742Z"></path><path fill="url(#j)" d="M643.505 651.233c18.31 10.276 37.478 10.3 44.012-2.337-2.445-23.529-4.734-42.679-.017-65.222-1.392-12.457-2.378-14.333-.778-21.589-.564-2.439-8.055-7.637-13.514-12.619-5.9-5.383-9.884-10.505-12.919-11.127-25.05-5.11-37.213 39.52-35.12 87.098 1.937 12.658 9.316 20.736 18.336 25.796Z"></path><path fill="#a9d2fc" d="M646.4 541.18c5.43-3.925 7.725-13.599 8.538-18.944a26.431 26.431 0 0 1 1.18-9.29c3.54-11.366 13.837-18.924 22.514-15.546 17.483 6.795 11.374 15.202 7.834 26.562-3.281 10.526-10.311 16.282-18.677 15.017-.537 1.729.159 5.374 2.434 7.646-6.112 3.669-15.035 1.94-18.56.35-3.755-1.697-7.814-3.156-5.263-5.795Z" class="colorfcd1a9 svgShape"></path><path fill="#342e94" d="M687.203 493.479c-.091-1.544-2.618-3.15-12.88-1.779-.065.015-2.492.346-2.647.376-19.18 3.358-19.773 24.407-18.449 30.356a11.032 11.032 0 0 1-.144 6.634c6.904 1.356 8.143 5.715 13.435 2.93 3.792-1.99 9.258-4.086 10.37-5.243a5.475 5.475 0 0 0 1.433-3.164c2.319-9.604 5.354-2.671 4.676-.505 2.028-.446 2.835-4.338 3.736-8.66 17.39-7.484 11.287-16.968.47-20.945Z" class="color362e94 svgShape"></path><path fill="#a9d2fc" d="M709.561 631.08c4.242 2.547 6.748-.045 9.161 1.208 2.275 1.177 1.353 2.763 2.545 3.323 1.189.56 3.144 1.127 3.83 4.89 1.01 5.525-3.68 8.48-6.199 9.118-2.292.575-3.164 1.928-8.538-2.654-2.184-1.858-.846-4.118-5.578-7.071 1.122-.537 4.779-8.815 4.779-8.815Z" class="colorfcd1a9 svgShape"></path><path fill="url(#aC)" d="M676.748 557.988c6.011-1.21 9.06 1.045 9.974 4.097.692 5.885 4.661 43.078 4.796 45.623 5.24 6.481 10.646 13.84 19.364 23.087 4.949 5.248-1.098 13.678-6.231 10.746-2.255-1.286-22.253-16.84-26.694-23.506-8.022-9.358-11.007-35.673-11.542-42.075-1.253-9.213 4.321-16.76 10.333-17.972Z"></path></g><g fill="#010001" class="color000000 svgShape"><path d="M1191.717 694.377a9.935 9.935 0 0 0-5.175 1.305c-.832.483-3.46 1.993-5.833 3.361l-1.086-.63a1.789 1.789 0 0 0-1.73.009c-.138.067-20.486 11.82-20.486 11.82a2.059 2.059 0 0 0-.688.564l-.965 1.376-213.57 130.513-12.178 18.869 31.847-9.975 203.741-117.633a1.806 1.806 0 0 0 1.739-.018c.103-.049 20.491-11.825 20.491-11.825a2.15 2.15 0 0 0 .662-.55l1.47-2.096 7.634-4.406a11.304 11.304 0 0 0 5.3-9.52 11.167 11.167 0 0 0-11.173-11.164Z" style="mix-blend-mode:multiply" fill="url(#l)"></path><path fill="url(#aD)" d="M1173.693 690.507a10.012 10.012 0 0 0-5.176 1.3c-1.014.586-4.665 2.696-7.298 4.215a9.533 9.533 0 0 1 2.016.876c4.983 2.883 9.019 9.872 9.019 15.624a8.671 8.671 0 0 1-.59 3.227l7.897-4.559a11.283 11.283 0 0 0 5.3-9.52 11.168 11.168 0 0 0-11.168-11.163Z"></path><path fill="url(#aE)" d="M921.765 843.616a6.456 6.456 0 0 1 2.918 5.059c0 1.126-.492 1.841-1.225 2.02l20.362-2.977 4.357-6.194-4.357-11.217-8.697-5.024-15.651 18.324a1.89 1.89 0 0 1 2.293.009Z"></path><path fill="url(#aF)" d="M921.765 843.616a1.89 1.89 0 0 0-2.293-.01l-.242.278-7.248 8.491 11.266-1.654.21-.026c.733-.179 1.225-.894 1.225-2.02a6.456 6.456 0 0 0-2.918-5.06Z"></path><path fill="#cee3f8" d="M1140.464 725.988a5.354 5.354 0 0 1-1.98-2.302l-3.53-9.104a3.349 3.349 0 0 1 .349-2.81l3.391-4.836a1.807 1.807 0 0 1 2.32-.519l7.097 4.094a5.323 5.323 0 0 1 1.971 2.31l3.531 9.1a3.354 3.354 0 0 1-.344 2.82l-3.388 4.831a1.806 1.806 0 0 1-2.32.514Z" class="colorced3f8 svgShape"></path><path fill="#f4f6f8" d="M1152.991 723.275 948.177 841.524l-4.357-11.217 204.819-118.245 4.352 11.213z" class="colorfcba06 svgShape"></path><path fill="#dc00b4" d="M1148.639 729.469 943.82 847.718l4.357-6.194 204.814-118.249-4.352 6.194z" class="colordc8b00 svgShape"></path><path fill="#3e9eff" d="M1148.639 712.062 943.82 830.307l-8.697-5.024 204.814-118.249 8.702 5.028z" class="colorffd03e svgShape"></path><path fill="url(#aG)" d="m1174.193 710.037-3.526-9.095a5.34 5.34 0 0 0-1.98-2.31l-7.088-4.094a1.801 1.801 0 0 0-1.73.018c-.138.063-20.486 11.816-20.486 11.816a1.88 1.88 0 0 1 1.631.045l7.097 4.094a5.323 5.323 0 0 1 1.971 2.31l3.531 9.1a3.354 3.354 0 0 1-.344 2.82l-3.388 4.831a1.862 1.862 0 0 1-.47.447l20.394-11.772a2.043 2.043 0 0 0 .652-.559l3.396-4.826a3.396 3.396 0 0 0 .34-2.825Z"></path><path d="M1152.388 728.298a1.64 1.64 0 0 0 .465-.447l3.392-4.826a3.352 3.352 0 0 0 .34-2.82l-3.526-9.095a5.284 5.284 0 0 0-1.976-2.31l-7.093-4.09a1.75 1.75 0 0 0-1.608-.036c-.032-.018-1.484.822-1.484.822a1.866 1.866 0 0 1 1.631.054l7.097 4.09a5.364 5.364 0 0 1 1.975 2.31l3.527 9.1a3.372 3.372 0 0 1-.34 2.815l-3.397 4.835a1.77 1.77 0 0 1-.464.447Z" style="mix-blend-mode:multiply" fill="url(#k)"></path><path d="M1155.458 726.52a1.602 1.602 0 0 0 .474-.448l3.383-4.826a3.327 3.327 0 0 0 .345-2.816l-3.527-9.104a5.382 5.382 0 0 0-1.975-2.306l-7.093-4.089a1.77 1.77 0 0 0-1.613-.035c-.022-.018-1.484.826-1.484.826a1.864 1.864 0 0 1 1.632.05l7.097 4.093a5.358 5.358 0 0 1 1.98 2.306l3.53 9.1a3.367 3.367 0 0 1-.349 2.824l-3.392 4.827a1.596 1.596 0 0 1-.469.446Z" style="mix-blend-mode:multiply" fill="url(#aH)"></path><path d="M1158.533 724.75a1.648 1.648 0 0 0 .47-.447l3.396-4.827a3.398 3.398 0 0 0 .344-2.825l-3.53-9.099a5.416 5.416 0 0 0-1.98-2.306l-7.093-4.094a1.762 1.762 0 0 0-1.609-.035c-.022-.013-1.488.83-1.488.83a1.884 1.884 0 0 1 1.64.05l7.088 4.098a5.287 5.287 0 0 1 1.98 2.297l3.53 9.109a3.36 3.36 0 0 1-.343 2.815l-3.392 4.832a1.703 1.703 0 0 1-.47.442Z" style="mix-blend-mode:multiply" fill="url(#aI)"></path></g><g fill="#010001" class="color000000 svgShape"><path d="M1282.245 720.759a31.487 31.487 0 0 0-8.925-2.818 64.674 64.674 0 0 0-11.785-1.168c-3.812 0-6.491.446-7.74 1.168l-10.955 5.177-199.81 115.227c-5.784.09-9.889.813-11.86 1.952a2.647 2.647 0 0 0-1.21 1.231l-.025-.004c-17.383 6.387-88.843 52.761-88.843 52.761-1.024.591-.876 1.408.687 2.31a25.825 25.825 0 0 0 7.317 2.311 53.042 53.042 0 0 0 9.663.957c3.126 0 5.322-.365 6.347-.957 13.756-3.247 96.298-38.712 115.5-49.095 2.108-1.217 1.804-2.898-1.41-4.754l175.534-101.345 28.749-20.415c.781-.69.436-1.574-1.234-2.538Z" style="mix-blend-mode:multiply" fill="url(#aJ)"></path><path fill="url(#m)" d="M1251.335 710.301a13.437 13.437 0 0 0-4.648-4.907c-1.815-1.048-3.459-1.147-4.648-.46l-29.967 14.306 11.89 20.594 27.373-18.798c1.19-.687 1.926-2.16 1.926-4.256a13.44 13.44 0 0 0-1.926-6.479Z"></path><path fill="url(#aK)" d="M1223.962 726.105a17.185 17.185 0 0 0-5.945-6.276c-2.321-1.34-4.423-1.467-5.945-.589l-182.245 105.22 11.89 20.594 182.245-105.22c1.522-.878 2.463-2.762 2.463-5.442a17.184 17.184 0 0 0-2.463-8.287Z"></path><path d="m1038.006 838.627 3.71 6.427 182.246-105.22c1.522-.878 2.463-2.762 2.463-5.442a12.887 12.887 0 0 0-.144-1.725l-183.25 105.678c-1.86.029-3.527.13-5.025.282Z" style="mix-blend-mode:multiply" fill="url(#aL)"></path><path fill="#f4f6f8" d="M1027.364 829.903c0-2.681.941-4.565 2.463-5.443 1.521-.879 3.623-.752 5.945.589a18.584 18.584 0 0 1 8.407 14.562c0 2.68-.941 4.565-2.462 5.443s-3.624.752-5.945-.589a18.583 18.583 0 0 1-8.408-14.562Z" class="colorf6f6fb svgShape"></path><path fill="#a1d0ff" d="M1209.61 724.683c0-2.68.94-4.564 2.462-5.443s3.624-.751 5.945.59a18.584 18.584 0 0 1 8.408 14.561c0 2.681-.941 4.565-2.463 5.443-1.521.879-3.623.752-5.945-.588a18.584 18.584 0 0 1-8.407-14.563Z" class="colora1a1ff svgShape"></path><path fill="url(#aM)" d="M1219.774 728.523a5.077 5.077 0 0 0-1.757-1.854 1.746 1.746 0 0 0-1.756-.174l-182.246 105.22 3.513 6.084 182.246-105.22a1.746 1.746 0 0 0 .727-1.607 5.078 5.078 0 0 0-.727-2.449Z"></path><path fill="url(#aM)" d="M1219.774 728.523a5.077 5.077 0 0 0-1.757-1.854 1.746 1.746 0 0 0-1.756-.174l-182.246 105.22 3.513 6.084 182.246-105.22a1.746 1.746 0 0 0 .727-1.607 5.078 5.078 0 0 0-.727-2.449Z"></path><path fill="url(#aN)" d="M1127.395 781.858a5.077 5.077 0 0 0-1.756-1.854 1.746 1.746 0 0 0-1.757-.174l-89.867 51.885 3.513 6.084 89.867-51.885a1.745 1.745 0 0 0 .728-1.608 5.077 5.077 0 0 0-.728-2.448Z"></path><path fill="url(#aO)" d="M1046.775 828.277a22.367 22.367 0 0 0-7.736-8.167c-3.022-1.745-5.757-1.91-7.737-.767-19.07 10.521-82.524 51.798-94.892 63.454l4.373 6.675 3.594 7.124c16.278-4.883 83.752-39.198 102.398-50.452 1.98-1.143 3.205-3.594 3.205-7.083a22.365 22.365 0 0 0-3.205-10.784Z"></path><path fill="#5046e4" d="M935.123 886.204a3.45 3.45 0 0 1 5.66-3.268 12.51 12.51 0 0 1 5.66 9.803 3.45 3.45 0 0 1-5.66 3.268 12.512 12.512 0 0 1-5.66-9.803Z" class="color5652cc svgShape"></path><path fill="url(#aP)" d="M1042.588 822.85c13.261-7.656 65.231-40.983 65.231-40.983 0-2.202-1.748-4.777-4.172-4.292-5.92 3.417-62.898 35.397-70.795 39.668-7.918 4.282-19.014 12.062-17.895 13.897 1.141 1.871 20.933-4.422 27.631-8.29Z"></path></g><g fill="#010001" class="color000000 svgShape"><path fill="url(#n)" d="M1285.624 191.326c0 13.473-4.746 22.943-12.407 27.338l-14.824 8.502c7.66-4.395 12.407-13.864 12.407-27.337 0-26.778-18.737-59.231-41.843-72.484-11.483-6.586-21.887-7.196-29.448-2.86l14.824-8.502c7.562-4.337 17.964-3.727 29.447 2.859 23.107 13.253 41.845 45.707 41.844 72.484Z"></path><path fill="#f4f6f8" d="M1270.8 199.829c0 26.769-18.737 37.737-41.844 24.484-23.115-13.258-41.852-45.722-41.852-72.489 0-26.778 18.738-37.737 41.853-24.48 23.106 13.254 41.843 45.707 41.843 72.485Z" class="colorf6f6fb svgShape"></path><path fill="#6f67e9" d="M1228.927 141.812a16.717 16.717 0 0 1 7.563 13.04c.013 4.799-3.352 6.739-7.514 4.336a16.706 16.706 0 0 1-7.561-13.04c-.013-4.796 3.35-6.739 7.512-4.336ZM1218.984 169.411v-7.115l19.937 11.511v7.115l-4.264-2.462v27.185l4.264 2.462v7.116l-19.937-11.511v-7.115l4.262 2.459v-27.185l-4.262-2.46z" class="color6b67e9 svgShape"></path><path d="M787.539 913.522c-23.04-13.39-60.522-13.384-83.703 0-23.191 13.389-23.313 35.096-.274 48.485a71.444 71.444 0 0 0 19.233 7.448v2.55h21.133c.947.013 1.892.013 2.84 0h1.395v-.038c14.197-.39 28.217-3.685 39.094-9.965 23.182-13.385 23.313-35.095.282-48.48Z" style="mix-blend-mode:multiply" fill="url(#aQ)"></path><path fill="url(#aR)" d="M766.406 962.002c11.668-6.736 17.496-15.581 17.47-24.413l-.047-17.09c.023 8.832-5.804 17.677-17.472 24.414-23.19 13.39-60.664 13.39-83.695.005-11.445-6.652-17.175-15.356-17.2-24.073l.048 17.089c.026 8.717 5.755 17.421 17.2 24.073 23.032 13.384 60.506 13.385 83.696-.005Z"></path><path fill="#f4f6f8" d="M766.357 944.913c23.183-13.385 23.313-35.096.282-48.48-23.04-13.39-60.522-13.384-83.703 0-23.19 13.389-23.313 35.096-.274 48.485 23.031 13.384 60.505 13.384 83.695-.005Z" class="colorf6f6fb svgShape"></path><path fill="#857dfb" d="m728.128 907.938-24.642 14.231 36.052 6.586-11.41-20.817z" class="color807dfb svgShape"></path></g><g fill="#010001" class="color000000 svgShape"><path d="M1026.223 936.235c-11.01-6.357-28.08-6.09-39.702.623l-49.046 28.315a2.733 2.733 0 0 0 2.733 4.732l49.046-28.314c9.898-5.715 24.936-5.99 34.236-.623 3.866 2.232 5.996 4.974 5.996 7.72 0 3.056-2.578 6.297-7.073 8.893l-65.162 37.62c-8.07 4.657-19.78 4.927-27.24.622-.147-.085-.276-.176-.417-.263-2.99-1.839-4.644-4.071-4.644-6.333 0-2.368 1.799-4.71 5.065-6.597l43.662-25.21c5.78-3.335 15.54-3.334 21.317 0 2.297 1.327 3.615 2.994 3.615 4.576s-1.318 3.25-3.615 4.577l-27.548 15.904a2.732 2.732 0 1 0 2.733 4.733l27.548-15.904c4.094-2.364 6.348-5.67 6.348-9.311 0-3.64-2.256-6.944-6.348-9.307-7.509-4.338-19.275-4.338-26.783 0l-43.662 25.21c-5.028 2.902-7.798 6.926-7.798 11.33 0 3.66 1.938 7.047 5.47 9.756a21.37 21.37 0 0 0 2.325 1.572 31.116 31.116 0 0 0 15.415 3.798 35.023 35.023 0 0 0 17.29-4.421l65.162-37.62c6.323-3.65 9.805-8.49 9.805-13.626 0-4.78-3.1-9.203-8.728-12.452Z" style="mix-blend-mode:multiply" fill="url(#aS)"></path><path fill="url(#aT)" d="M921.534 986.343c0-2.368 1.798-4.712 5.065-6.598l43.662-25.209c5.78-3.336 15.54-3.335 21.317 0 2.297 1.326 3.615 2.993 3.615 4.575 0 1.582-1.318 3.25-3.615 4.577l-27.548 15.905a2.732 2.732 0 1 0 2.733 4.732l27.548-15.904c4.094-2.364 6.348-5.67 6.348-9.31 0-3.64-2.256-6.945-6.348-9.308-7.509-4.338-19.275-4.338-26.783 0l-43.662 25.21c-5.028 2.903-7.798 6.926-7.798 11.33 0 3.66 1.938 7.047 5.47 9.756l4.64-3.424c-2.99-1.838-4.644-4.071-4.644-6.332Z"></path><path fill="#857dfb" d="M1022.806 933.35c-11.01-6.356-28.08-6.09-39.7.623l-49.047 28.315a2.733 2.733 0 1 0 2.733 4.733l49.046-28.315c9.898-5.715 24.936-5.99 34.236-.623 3.866 2.232 5.996 4.974 5.996 7.72 0 3.056-2.578 6.297-7.073 8.893l-65.162 37.62c-8.07 4.658-19.78 4.927-27.24.622-.147-.085-.276-.176-.418-.263l-4.638 3.424a21.275 21.275 0 0 0 2.324 1.572 31.116 31.116 0 0 0 15.415 3.799 35.027 35.027 0 0 0 17.29-4.422l65.162-37.62c6.323-3.65 9.805-8.49 9.805-13.626 0-4.78-3.1-9.202-8.729-12.451Z" class="color807dfb svgShape"></path></g><g fill="#010001" class="color000000 svgShape"><path d="M379.942 540.576c45.492-26.267 119.253-26.267 164.746 0 22.745 13.13 34.115 30.34 34.115 47.547.006 17.217-11.37 34.434-34.115 47.566-45.493 26.264-119.254 26.268-164.746 0-45.488-26.264-45.488-68.85 0-95.113Z" style="mix-blend-mode:multiply" fill="url(#aU)"></path><path fill="#f4f6f8" d="M353.828 525.495c45.491-26.26 119.253-26.26 164.746 0 22.742 13.133 34.112 30.344 34.112 47.555.006 17.213-11.37 34.432-34.112 47.56-45.493 26.268-119.255 26.268-164.746 0-45.486-26.258-45.486-68.85 0-95.115Z" class="colorf6f6fb svgShape"></path><path d="M496.897 546.848h-20.68a30.31 30.31 0 0 1 2.012 10.347c0 5.378-1.921 9.128-4.994 10.848.005.007-50.482 29.161-50.482 29.161a8.52 8.52 0 0 1-3.788 1.135h65.767l27.09-15.638h39.67a39.635 39.635 0 0 0 1.194-9.65 41.312 41.312 0 0 0-4.067-17.59h-36.796Z" style="mix-blend-mode:multiply" fill="url(#aV)"></path><path fill="url(#aW)" d="M518.574 620.61c-45.493 26.268-119.255 26.268-164.746 0-22.722-13.115-34.094-30.31-34.115-47.504v15.064c.021 17.203 11.387 34.398 34.115 47.519 45.491 26.268 119.253 26.264 164.746 0 22.724-13.121 34.092-30.316 34.112-47.519v-15.12c.006 17.213-11.37 34.432-34.112 47.56Z"></path><path fill="#cee3f8" d="M394.165 567.172c0-10.647 7.474-14.962 16.695-9.633 9.217 5.324 16.691 18.265 16.691 28.911 0 10.649-7.474 14.964-16.69 9.64-9.228-5.323-16.696-18.269-16.696-28.918Z" class="colorced3f8 svgShape"></path><path fill="url(#o)" d="M478.229 557.195c0-10.649-7.475-23.589-16.694-28.914-4.793-2.773-9.085-2.887-12.125-.907-.02-.031-50.3 28.969-50.3 28.969 3.017-1.711 7.168-1.452 11.75 1.196 9.217 5.324 16.691 18.265 16.691 28.911 0 5.269-1.838 8.976-4.81 10.743.012.011 50.499-29.143 50.499-29.143 3.068-1.727 4.989-5.477 4.989-10.855Z"></path><path fill="#342e93" d="M420.664 551.88c6.59 3.806 12.237 11.51 14.953 19.48l-94.38-335.606-21.991-2.833 89.508 317.869c3.029-1.815 7.239-1.613 11.91 1.09Z" class="color362e93 svgShape"></path><path fill="#6f196f" d="m435.617 571.36 23.586-13.619-94.377-335.607-23.589 13.62 94.38 335.606z" class="color1f196f svgShape"></path><path fill="#cee3f8" d="M296.416 219.762c0-10.649 7.472-14.965 16.69-9.637 9.22 5.325 16.695 18.269 16.695 28.917 0 10.65-7.474 14.96-16.696 9.635-9.222-5.324-16.69-18.268-16.69-28.915Z" class="colorced3f8 svgShape"></path><path fill="url(#aX)" d="M380.48 209.786c0-10.651-7.472-23.593-16.697-28.917-4.792-2.769-9.084-2.884-12.127-.905-.016-.034-50.295 28.968-50.295 28.968 3.015-1.709 7.166-1.454 11.744 1.193 9.222 5.325 16.696 18.269 16.696 28.917 0 5.271-1.842 8.97-4.809 10.736.011.015 50.498-29.135 50.498-29.135 3.07-1.734 4.99-5.478 4.99-10.857Z"></path><path fill="#342e93" d="M343.343 231.224c0 .672-.11 1.246-.165 1.865l190.94-70.487-14.954-29.703-190.941 70.497c8.475 5.82 15.12 17.8 15.12 27.828Z" class="color362e93 svgShape"></path><path fill="#5046e4" d="m328.223 203.396 23.586-13.621 190.943-70.495-23.588 13.619-190.941 70.497z" class="color5652cc svgShape"></path><path fill="#cee3f8" d="M495.803 145.18c0-10.65 7.473-14.965 16.69-9.636 9.221 5.326 16.696 18.265 16.696 28.916 0 10.646-7.475 14.959-16.696 9.634-9.224-5.323-16.69-18.265-16.69-28.914Z" class="colorced3f8 svgShape"></path><path fill="url(#aY)" d="M579.868 135.2c0-10.647-7.475-23.59-16.699-28.913-4.79-2.771-9.085-2.886-12.125-.906-.02-.032-50.294 28.97-50.294 28.97 3.015-1.712 7.164-1.455 11.743 1.193 9.221 5.326 16.696 18.265 16.696 28.916 0 5.268-1.845 8.974-4.808 10.74.008.011 50.498-29.14 50.498-29.14 3.07-1.731 4.989-5.479 4.989-10.86Z"></path><path fill="url(#aZ)" d="M720.117 201.852c-.083-.158-122.72-163.653-122.72-163.653l-98.64 47.213 48.87 197.827c.08 2.66 6.272 2.487 19.075-1.22 29.932-8.67 84.322-33.2 121.469-54.786 22.94-13.335 33.913-22.41 31.946-25.381Z"></path><path fill="#847cfb" d="M586.677 39.445c17.15-4.966 13.789 1.04-7.513 13.422-21.285 12.37-52.46 26.427-69.61 31.393-17.141 4.966-13.78-1.044 7.506-13.414 21.299-12.38 52.472-26.44 69.617-31.401Z" class="color807cfb svgShape"></path><path fill="url(#ba)" d="m579.242 46.889-7.35-15.5-62.437 29.612 7.453 15.724c.424.679 2.664.505 6.823-.7 10.847-3.142 30.556-12.029 44.017-19.851 8.56-4.973 12.513-8.314 11.494-9.285Z"></path><path fill="#6f67e9" d="M565.005 31.894c10.84-3.142 8.717.658-4.744 8.484-13.462 7.824-33.174 16.71-44.019 19.85-10.84 3.142-8.707-.662 4.748-8.48 13.468-7.826 33.179-16.717 44.015-19.854Z" class="color6b67e9 svgShape"></path></g><g data-name="Student&amp;#39;s hat" fill="#010001" class="color000000 svgShape"><path d="M513.298 789.535c-19.177-11.073-44.305-16.612-69.436-16.618l.002-.002h-36.119v56.66h-.004c.196 14.619-9.35 29.272-28.666 40.425-17.234 9.95-39.296 15.4-61.834 16.382h127.636l.014-.008c24.79-.157 49.496-5.684 68.407-16.603 38.378-22.159 38.376-58.08 0-80.236Z" style="mix-blend-mode:multiply" fill="url(#bb)"></path><path fill="url(#bc)" d="M379.075 786.844c-38.241 22.08-100.255 22.079-138.501-.002-19.124-11.041-28.686-25.513-28.686-39.983v82.716l.018-5.66c-.196 14.616 9.35 34.93 28.668 46.083 38.246 22.08 100.26 22.082 138.501.002 19.316-11.153 28.862-25.806 28.666-40.425h.004v-82.404c-.136 14.369-9.684 28.71-28.67 39.673Z"></path><path fill="#37318f" d="m309.959 835.995 160.383-92.597-.002 3.389-160.383 92.598.002-3.39z" class="color34318f svgShape"></path><path fill="#5c55c6" d="m309.955 835.995-160.384-92.597.002 3.389 160.384 92.598-.002-3.39z" class="color5555c6 svgShape"></path><path fill="#726ae2" d="M149.577 743.396 309.959 650.8l160.383 92.598-160.381 92.595-160.384-92.597z" class="color6a6ae2 svgShape"></path><path fill="#3e9eff" d="m396.252 853.273-6.101-3.522-6.1 3.522 6.1 3.524 6.101-3.524z" class="colorffd03e svgShape"></path><path fill="#f4f6f8" d="m377.969 870.235 12.18 7.031.002-20.469-6.1-3.524-6.082 16.962z" class="colorfcba06 svgShape"></path><path fill="#dc00b4" d="m396.252 853.273-6.101 3.524-.002 20.469 12.18-7.031-6.077-16.962zM387.102 791.459l-.002 63.576 6.103-3.522-.003-63.575-6.098 3.521z" class="colordc8b00 svgShape"></path><path fill="#3e9eff" d="m313.009 741.636 80.191 46.302-6.098 3.521-80.191-46.302 6.098-3.521z" class="colorffd03e svgShape"></path><path fill="#3e9eff" d="M317.334 747.654c4.074-2.35 4.076-6.165 0-8.514a16.293 16.293 0 0 0-14.753 0c-4.072 2.35-4.072 6.164 0 8.516a16.298 16.298 0 0 0 14.753-.002Z" class="colorffd03e svgShape"></path></g><g fill="#010001" class="color000000 svgShape"><path d="M1287.463 685.001c57.595 23.622 165.163 28.319 264.978 28.319V630.46c0-15.408.036-40.992-3.582-63.669-8.339.986-113.754 7.764-122.176 9.127-2.203 1.456-3.532 2.412-4.887 3.363-33.251 5.767-68.259 13.077-92.244 26.2-63.959 34.997-42.089 79.52-42.089 79.52Z" style="mix-blend-mode:multiply" fill="url(#bd)"></path><path fill="url(#be)" d="M1438.936 524.051c-9.578-49.677-61.503-87.368-113.417-59.274-51.915-28.094-103.84 9.597-113.418 59.274-9.577 49.677 16.88 113.378 34.223 135.413h.001c4.174 5.92 10.418 11.467 18.737 16.27 33.39 19.277 87.524 19.277 120.913 0 8.32-4.803 14.564-10.35 18.737-16.27 17.345-22.035 43.802-85.736 34.224-135.413Z"></path><path fill="url(#bf)" d="M1375.973 504.551c-29.69 20.93-23.966 119.102-79.254 112.892-52.331-5.878-74.383-34.188-65.208-8.37 8.546 24.046 22.845 52.497 55.952 75.928 31.991 9.188 71.853 6.125 98.512-9.267 8.32-4.803 14.564-10.35 18.737-16.27 17.34-22.029 43.786-85.7 34.23-135.37-5.358-23.488-34.554-39.573-62.969-19.543Z"></path><path fill="url(#bg)" d="M1346.773 492.908c5.542-3.77-2.831-13.726-9.75-17.892-2.775 1.136-8.723 3.498-11.504 5.003-4.401-2.381-4.528-5.084-6.996-6.553-6.843 2.826-17.877 9.115-16.495 16.43 2.58 13.66 30.495 12.704 44.745 3.012Z"></path><path d="M1414.773 478.274c-15.202-15.324-35.798-24.509-58.095-22.876l-27.639 22.881c35.994 16.384 45.772-14.698 85.734-.005Z" style="mix-blend-mode:multiply" fill="url(#bh)"></path><path fill="url(#bi)" d="M1329.473 493.707c38.237-10.73 67.56-27.06 43.705-97.366-14.516 33.27-63.603 42.952-43.705 97.366Z"></path><path fill="url(#bj)" d="m1330.018 493.127.097.395c37.92-10.734 66.782-27.272 43.063-97.18-1.02 14.986 1.047 32.153-15.928 48.61-16.734 16.222-27.232 29.385-27.232 48.175Z"></path><path fill="#342e94" d="M1304.608 468.543c10.499 1.413 17.938 12.68 21.399 19.843 3.462 7.163 4.349 7.026 3.906 0-.444-7.026-6.913-21.961-22.332-29.495-.87 3.087-2.973 9.652-2.973 9.652Z" class="color362e94 svgShape"></path><path fill="#5c55c6" d="M1302.949 462.748c.82-2.665 2.894-4.392 4.632-3.857 1.737.535 2.48 3.13 1.66 5.795-.822 2.665-2.896 4.392-4.633 3.857-1.737-.536-2.48-3.13-1.659-5.795Z" class="color5555c6 svgShape"></path><path d="M1299.071 459.055c-33.288-5.658-75.316 23.824-83.255 64.996-5.806 30.117 1.03 65.375 11.653 93.392-16.535-78.29.721-96.138 21.716-121.967 25.917-31.885 64.024-33.349 49.886-36.421Z" style="mix-blend-mode:screen" fill="url(#bk)"></path></g></g></g></svg>