<svg xmlns="http://www.w3.org/2000/svg" xmlns:xlink="http://www.w3.org/1999/xlink" viewBox="0 0 1481.78 985.378" id="Moderncity"><defs><linearGradient id="l" x1="82.096" x2="142.568" y1="553.538" y2="658.278" gradientUnits="userSpaceOnUse"><stop offset="0" stop-color="#ffffff" class="stopColorffffff svgShape"></stop><stop offset=".908" stop-color="#857dfb" class="stopColor807dfb svgShape"></stop></linearGradient><linearGradient id="m" x1="50.076" x2="170.726" y1="604.793" y2="604.793" gradientUnits="userSpaceOnUse"><stop offset="0" stop-color="#ffffff" class="stopColorffffff svgShape"></stop><stop offset="1" stop-color="#cee3f8" class="stopColorced3f8 svgShape"></stop></linearGradient><linearGradient id="a" x1="1060.858" x2="1117.435" y1="900.275" y2="900.275" gradientTransform="translate(21.586)" gradientUnits="userSpaceOnUse"><stop offset="0" stop-color="#c2d2e2" class="stopColorc2c7e2 svgShape"></stop><stop offset=".202" stop-color="#d7e1ec" class="stopColord7daec svgShape"></stop><stop offset=".487" stop-color="#edf1f6" class="stopColoredeef6 svgShape"></stop><stop offset=".758" stop-color="#fafbfd" class="stopColorfafbfd svgShape"></stop><stop offset="1" stop-color="#ffffff" class="stopColorffffff svgShape"></stop></linearGradient><linearGradient id="n" x1="1026.097" x2="1082.674" y1="920.343" y2="920.343" xlink:href="#a"></linearGradient><linearGradient id="o" x1="991.336" x2="1047.913" y1="940.412" y2="940.412" xlink:href="#a"></linearGradient><linearGradient id="c" x1="371.877" x2="591.236" y1="598.36" y2="598.36" gradientUnits="userSpaceOnUse"><stop offset="0" stop-color="#d1e2f3" class="stopColord1d7f3 svgShape"></stop><stop offset=".113" stop-color="#d7e6f4" class="stopColord7dcf4 svgShape"></stop><stop offset="1" stop-color="#ffffff" class="stopColorffffff svgShape"></stop></linearGradient><linearGradient id="b" x1="371.876" x2="474.796" y1="569.333" y2="569.333" gradientUnits="userSpaceOnUse"><stop offset="0" stop-color="#d1e2f3" class="stopColord1d7f3 svgShape"></stop><stop offset=".108" stop-color="#d7e6f4" class="stopColord7dcf4 svgShape"></stop><stop offset=".953" stop-color="#ffffff" class="stopColorffffff svgShape"></stop></linearGradient><linearGradient id="p" x1="332.271" x2="435.191" y1="546.466" y2="546.466" xlink:href="#b"></linearGradient><linearGradient id="q" x1="292.665" x2="395.585" y1="523.599" y2="523.599" xlink:href="#b"></linearGradient><linearGradient id="r" x1="253.06" x2="355.98" y1="500.732" y2="500.732" xlink:href="#b"></linearGradient><linearGradient id="s" x1="480.448" x2="748.304" y1="442.322" y2="442.322" xlink:href="#c"></linearGradient><linearGradient id="t" x1="438.538" x2="522.335" y1="356.273" y2="356.273" gradientUnits="userSpaceOnUse"><stop offset=".13" stop-color="#cee3f8" class="stopColorced3f8 svgShape"></stop><stop offset="1" stop-color="#a5b8cc" class="stopColora5abcc svgShape"></stop></linearGradient><linearGradient id="u" x1="463.639" x2="497.263" y1="238.808" y2="238.808" gradientUnits="userSpaceOnUse"><stop offset="0" stop-color="#a5b8cc" class="stopColora5abcc svgShape"></stop><stop offset="1" stop-color="#cee3f8" class="stopColorced3f8 svgShape"></stop></linearGradient><linearGradient id="v" x1="658.125" x2="811.277" y1="428.719" y2="428.719" xlink:href="#c"></linearGradient><linearGradient id="w" x1="595.113" x2="662.953" y1="412.769" y2="412.769" gradientUnits="userSpaceOnUse"><stop offset="0" stop-color="#e8eff7" class="stopColore8ecf7 svgShape"></stop><stop offset=".101" stop-color="#ebf1f8" class="stopColorebeef8 svgShape"></stop><stop offset="1" stop-color="#ffffff" class="stopColorffffff svgShape"></stop></linearGradient><linearGradient id="x" x1="595.113" x2="640.732" y1="443.655" y2="443.655" gradientUnits="userSpaceOnUse"><stop offset="0" stop-color="#e8eff7" class="stopColore8ecf7 svgShape"></stop><stop offset="1" stop-color="#e8eff7" class="stopColore8ecf7 svgShape"></stop></linearGradient><linearGradient id="y" x1="664.981" x2="755.71" y1="403.16" y2="403.16" gradientUnits="userSpaceOnUse"><stop offset="0" stop-color="#d1e2f3" class="stopColord1d7f3 svgShape"></stop><stop offset=".28" stop-color="#d8e6f5" class="stopColord8ddf5 svgShape"></stop><stop offset=".684" stop-color="#ebf2fa" class="stopColorebeefa svgShape"></stop><stop offset="1" stop-color="#ffffff" class="stopColorffffff svgShape"></stop></linearGradient><linearGradient id="f" x1="968.753" x2="1282.471" y1="474.81" y2="474.81" gradientUnits="userSpaceOnUse"><stop offset="0" stop-color="#d1e2f3" class="stopColord1d7f3 svgShape"></stop><stop offset=".692" stop-color="#fefeff" class="stopColorfefeff svgShape"></stop></linearGradient><linearGradient id="z" x1="559.775" x2="689.984" y1="763.909" y2="763.909" xlink:href="#c"></linearGradient><linearGradient id="A" x1="1265.959" x2="1377.412" y1="427.315" y2="427.315" xlink:href="#c"></linearGradient><linearGradient id="B" x1="968.755" x2="1154.503" y1="416.59" y2="416.59" xlink:href="#c"></linearGradient><linearGradient id="C" x1="1117.356" x2="1154.503" y1="362.969" y2="362.969" xlink:href="#c"></linearGradient><linearGradient id="D" x1="348.095" x2="459.549" y1="408.932" y2="408.932" xlink:href="#c"></linearGradient><linearGradient id="E" x1="236.646" x2="459.547" y1="269.514" y2="269.514" xlink:href="#c"></linearGradient><linearGradient id="F" x1="700.661" x2="878.597" y1="269.629" y2="269.629" xlink:href="#c"></linearGradient><linearGradient id="G" x1="525.915" x2="698.534" y1="174.312" y2="174.312" xlink:href="#c"></linearGradient><linearGradient id="H" x1="477.078" x2="574.753" y1="128.474" y2="128.474" gradientUnits="userSpaceOnUse"><stop offset="0" stop-color="#ffffff" class="stopColorffffff svgShape"></stop><stop offset="1" stop-color="#c7d2dd" class="stopColorc7d3dd svgShape"></stop></linearGradient><linearGradient id="I" x1="525.915" x2="535.125" y1="102.937" y2="102.937" gradientUnits="userSpaceOnUse"><stop offset="0" stop-color="#d1e2f3" class="stopColord1d7f3 svgShape"></stop><stop offset="1" stop-color="#e8eff7" class="stopColore8ecf7 svgShape"></stop></linearGradient><linearGradient id="J" x1="785.988" x2="889.275" y1="239.554" y2="239.554" xlink:href="#c"></linearGradient><linearGradient id="d" x1="748.304" x2="816.998" y1="224.79" y2="224.79" gradientUnits="userSpaceOnUse"><stop offset="0" stop-color="#dae7f5" class="stopColordae0f5 svgShape"></stop><stop offset="1" stop-color="#a5b8cc" class="stopColora5abcc svgShape"></stop></linearGradient><linearGradient id="K" x1="644.524" x2="756.798" y1="235.598" y2="235.598" xlink:href="#d"></linearGradient><linearGradient id="L" x1="693.352" x2="749.505" y1="156.863" y2="156.863" xlink:href="#c"></linearGradient><linearGradient id="M" x1="672.598" x2="728.755" y1="156.867" y2="156.867" xlink:href="#d"></linearGradient><linearGradient id="N" x1="919.078" x2="962.78" y1="355.249" y2="355.249" xlink:href="#c"></linearGradient><linearGradient id="O" x1="863.284" x2="906.985" y1="323.689" y2="323.689" xlink:href="#c"></linearGradient><linearGradient id="e" x1="893.985" x2="944.17" y1="352.468" y2="352.468" gradientUnits="userSpaceOnUse"><stop offset=".217" stop-color="#857dfb" class="stopColor807dfb svgShape"></stop><stop offset=".396" stop-color="#7b73ef" class="stopColor7673ef svgShape"></stop><stop offset=".718" stop-color="#6159d0" class="stopColor5d59d0 svgShape"></stop><stop offset="1" stop-color="#453eaf" class="stopColor423eaf svgShape"></stop></linearGradient><linearGradient id="P" x1="839.085" x2="889.27" y1="320.771" y2="320.771" xlink:href="#e"></linearGradient><linearGradient id="Q" x1="888.418" x2="1108.705" y1="601.799" y2="601.799" xlink:href="#c"></linearGradient><linearGradient id="R" x1="858.441" x2="900.604" y1="453.248" y2="453.248" xlink:href="#c"></linearGradient><linearGradient id="S" x1="874.358" x2="916.525" y1="472.376" y2="472.376" xlink:href="#c"></linearGradient><linearGradient id="T" x1="1014.602" x2="1266.648" y1="225.682" y2="225.682" xlink:href="#f"></linearGradient><linearGradient id="U" x1="1132.021" x2="1322.866" y1="525.129" y2="525.129" xlink:href="#c"></linearGradient><linearGradient id="V" x1="1060.453" x2="1248.714" y1="471.22" y2="471.22" gradientUnits="userSpaceOnUse"><stop offset="0" stop-color="#e8eff7" class="stopColore8ecf7 svgShape"></stop><stop offset=".284" stop-color="#f3f7fb" class="stopColorf3f5fb svgShape"></stop><stop offset=".692" stop-color="#fefeff" class="stopColorfefeff svgShape"></stop></linearGradient><linearGradient id="W" x1="762.43" x2="1115.239" y1="738.933" y2="738.933" gradientUnits="userSpaceOnUse"><stop offset="0" stop-color="#d1e2f3" class="stopColord1d7f3 svgShape"></stop><stop offset=".191" stop-color="#dfebf7" class="stopColordfe3f7 svgShape"></stop><stop offset=".583" stop-color="#f6f9fd" class="stopColorf6f7fd svgShape"></stop><stop offset=".828" stop-color="#ffffff" class="stopColorffffff svgShape"></stop></linearGradient><linearGradient id="X" x1="674.889" x2="779.943" y1="711.912" y2="529.953" gradientUnits="userSpaceOnUse"><stop offset="0" stop-color="#dae7f5" class="stopColordae0f5 svgShape"></stop><stop offset="1" stop-color="#f6f8fb" class="stopColorf6f6fb svgShape"></stop></linearGradient><linearGradient id="Y" x1="624.879" x2="657.435" y1="754.511" y2="754.511" gradientUnits="userSpaceOnUse"><stop offset="0" stop-color="#dae7f5" class="stopColordae0f5 svgShape"></stop><stop offset="1" stop-color="#ffffff" class="stopColorffffff svgShape"></stop></linearGradient><linearGradient id="Z" x1="1146.389" x2="1272.414" y1="234.483" y2="234.483" xlink:href="#f"></linearGradient><linearGradient id="g" x1="69.14" x2="89.53" y1="642.733" y2="642.733" gradientUnits="userSpaceOnUse"><stop offset="0" stop-color="#c2d2e3" class="stopColorc2c7e3 svgShape"></stop><stop offset=".267" stop-color="#d7e2ed" class="stopColord7daed svgShape"></stop><stop offset=".703" stop-color="#f4f6f8" class="stopColorf4f5fa svgShape"></stop><stop offset=".953" stop-color="#ffffff" class="stopColorffffff svgShape"></stop></linearGradient><linearGradient id="aa" x1="245.842" x2="301.312" y1="880.588" y2="880.588" xlink:href="#g"></linearGradient><linearGradient id="ab" x1="214.618" x2="266.127" y1="855.374" y2="825.635" gradientUnits="userSpaceOnUse"><stop offset="0" stop-color="#716ade" class="stopColor6b6ade svgShape"></stop><stop offset=".355" stop-color="#514bb0" class="stopColor4c4bb0 svgShape"></stop><stop offset=".787" stop-color="#2e297e" class="stopColor2b297e svgShape"></stop><stop offset="1" stop-color="#6b1c6b" class="stopColor1e1c6b svgShape"></stop></linearGradient><linearGradient id="ac" x1="218.483" x2="263.623" y1="835.78" y2="809.719" gradientUnits="userSpaceOnUse"><stop offset="0" stop-color="#716ade" class="stopColor6b6ade svgShape"></stop><stop offset=".666" stop-color="#3a348e" class="stopColor36348e svgShape"></stop><stop offset="1" stop-color="#6b1c6b" class="stopColor1e1c6b svgShape"></stop></linearGradient><linearGradient id="ad" x1="221.467" x2="270.216" y1="802.147" y2="802.147" gradientUnits="userSpaceOnUse"><stop offset="0" stop-color="#857eef" class="stopColor7e7eef svgShape"></stop><stop offset=".329" stop-color="#6b64cd" class="stopColor6564cd svgShape"></stop><stop offset="1" stop-color="#37318b" class="stopColor34318b svgShape"></stop></linearGradient><linearGradient id="ae" x1="342.616" x2="409.61" y1="149.261" y2="149.261" gradientUnits="userSpaceOnUse"><stop offset="0" stop-color="#c2d2e3" class="stopColorc2c7e3 svgShape"></stop><stop offset=".101" stop-color="#c9d7e6" class="stopColorc9cee6 svgShape"></stop><stop offset=".691" stop-color="#f0f4f8" class="stopColorf0f1f8 svgShape"></stop><stop offset="1" stop-color="#ffffff" class="stopColorffffff svgShape"></stop></linearGradient><linearGradient id="ag" x1="378.022" x2="406.915" y1="682.681" y2="732.725" gradientTransform="matrix(-1 0 0 1 714.064 0)" gradientUnits="userSpaceOnUse"><stop offset=".313" stop-color="#f6f8fb" class="stopColorf6f6fb svgShape"></stop><stop offset=".366" stop-color="#edf3fa" class="stopColoredeefa svgShape"></stop><stop offset=".518" stop-color="#d6e7f9" class="stopColord6daf9 svgShape"></stop><stop offset=".614" stop-color="#cee3f8" class="stopColorced3f8 svgShape"></stop></linearGradient><linearGradient id="h" x1="434.044" x2="442.868" y1="753.159" y2="737.875" gradientTransform="matrix(1 0 0 -1 -107.869 1438.017)" gradientUnits="userSpaceOnUse"><stop offset="0" stop-color="#f6f8fb" class="stopColorf6f6fb svgShape"></stop><stop offset="1" stop-color="#ffffff" class="stopColorffffff svgShape"></stop></linearGradient><linearGradient id="ah" x1="404.457" x2="411.719" y1="708.294" y2="705.65" gradientTransform="matrix(-1 0 0 1 714.064 0)" gradientUnits="userSpaceOnUse"><stop offset="0" stop-color="#6f196f" class="stopColor20196f svgShape"></stop><stop offset=".217" stop-color="#731b73" class="stopColor221b73 svgShape"></stop><stop offset=".421" stop-color="#28227e" class="stopColor29227e svgShape"></stop><stop offset=".621" stop-color="#342e91" class="stopColor342e91 svgShape"></stop><stop offset=".817" stop-color="#453eac" class="stopColor433eac svgShape"></stop><stop offset="1" stop-color="#5a52cc" class="stopColor5652cc svgShape"></stop></linearGradient><linearGradient id="ai" x1="394.338" x2="415.993" y1="722.771" y2="722.771" gradientTransform="matrix(-1 0 0 1 714.064 0)" gradientUnits="userSpaceOnUse"><stop offset="0" stop-color="#cee3f8" class="stopColorced3f8 svgShape"></stop><stop offset=".703" stop-color="#c2d7ec" class="stopColorc2c7ec svgShape"></stop><stop offset="1" stop-color="#bbd0e6" class="stopColorbbc0e6 svgShape"></stop></linearGradient><linearGradient id="j" x1="372.942" x2="393.02" y1="706.163" y2="706.163" gradientUnits="userSpaceOnUse"><stop offset="0" stop-color="#d1e0f0" class="stopColord1d6f0 svgShape"></stop><stop offset=".98" stop-color="#ffffff" class="stopColorffffff svgShape"></stop></linearGradient><linearGradient id="ak" x1="1083.209" x2="1137.019" y1="753.963" y2="753.963" gradientUnits="userSpaceOnUse"><stop offset=".449" stop-color="#f6f8fb" class="stopColorf6f6fb svgShape"></stop><stop offset=".512" stop-color="#f0f4f9" class="stopColorf0f1f9 svgShape"></stop><stop offset=".725" stop-color="#dfe9f4" class="stopColordfe4f4 svgShape"></stop></linearGradient><linearGradient id="al" x1="1108.243" x2="1117.424" y1="747.064" y2="731.162" xlink:href="#h"></linearGradient><linearGradient id="am" x1="1076.041" x2="1131.529" y1="782.583" y2="782.583" gradientUnits="userSpaceOnUse"><stop offset=".449" stop-color="#cee3f8" class="stopColorced3f8 svgShape"></stop><stop offset=".488" stop-color="#c6dbf0" class="stopColorc6ccf0 svgShape"></stop><stop offset=".549" stop-color="#b2c5d9" class="stopColorb2b7d9 svgShape"></stop><stop offset=".579" stop-color="#a5b8cc" class="stopColora5abcc svgShape"></stop><stop offset="1" stop-color="#bbd0e6" class="stopColorbbc0e6 svgShape"></stop></linearGradient><linearGradient id="i" x1="1120.424" x2="1074.454" y1="769.188" y2="752.456" gradientUnits="userSpaceOnUse"><stop offset="0" stop-color="#6f196f" class="stopColor20196f svgShape"></stop><stop offset=".275" stop-color="#5a52cc" class="stopColor5652cc svgShape"></stop><stop offset=".994" stop-color="#5a52cc" class="stopColor5652cc svgShape"></stop></linearGradient><linearGradient id="an" x1="1109.01" x2="1075.004" y1="786.092" y2="773.715" xlink:href="#i"></linearGradient><linearGradient id="ao" x1="1076.308" x2="1105.161" y1="778.898" y2="778.898" gradientUnits="userSpaceOnUse"><stop offset="0" stop-color="#3e9eff" class="stopColorffd03e svgShape"></stop><stop offset=".27" stop-color="#3194f8" class="stopColorf8c231 svgShape"></stop><stop offset=".779" stop-color="#e510be" class="stopColore59d10 svgShape"></stop><stop offset="1" stop-color="#dc00b4" class="stopColordc8b00 svgShape"></stop></linearGradient><linearGradient id="ap" x1="1157.437" x2="1177.515" y1="701.283" y2="701.283" xlink:href="#j"></linearGradient><linearGradient id="aq" x1="32.96" x2="141.439" y1="565.889" y2="565.889" gradientUnits="userSpaceOnUse"><stop offset="0" stop-color="#c4d6e9" class="stopColorc4cae9 svgShape"></stop><stop offset=".158" stop-color="#d5e2f0" class="stopColord5daf0 svgShape"></stop><stop offset=".476" stop-color="#f4f7fb" class="stopColorf4f5fb svgShape"></stop><stop offset=".655" stop-color="#ffffff" class="stopColorffffff svgShape"></stop></linearGradient><linearGradient id="ar" x1="36.161" x2="51.937" y1="498.653" y2="525.977" gradientUnits="userSpaceOnUse"><stop offset="0" stop-color="#fb4bdb" class="stopColorfb944b svgShape"></stop><stop offset=".012" stop-color="#fb4cdb" class="stopColorfb954c svgShape"></stop><stop offset=".415" stop-color="#64b1fe" class="stopColorfea864 svgShape"></stop><stop offset=".663" stop-color="#6db6ff" class="stopColorffaf6d svgShape"></stop></linearGradient><linearGradient id="as" x1="1049.905" x2="1098.983" y1="459.6" y2="544.606" gradientTransform="matrix(-1 0 0 1 1101.4 0)" gradientUnits="userSpaceOnUse"><stop offset=".337" stop-color="#6db6ff" class="stopColorffaf6d svgShape"></stop><stop offset=".585" stop-color="#64b1fe" class="stopColorfea864 svgShape"></stop><stop offset=".988" stop-color="#fb4cdb" class="stopColorfb954c svgShape"></stop><stop offset="1" stop-color="#fb4bdb" class="stopColorfb944b svgShape"></stop></linearGradient><linearGradient id="at" x1="544.03" x2="454.937" y1="665.6" y2="546.128" gradientTransform="matrix(-1 0 0 1 1359.687 0)" gradientUnits="userSpaceOnUse"><stop offset="0" stop-color="#5a52cc" class="stopColor5652cc svgShape"></stop><stop offset="1" stop-color="#857dfb" class="stopColor807dfb svgShape"></stop></linearGradient><linearGradient id="au" x1="82.223" x2="175.61" y1="395.658" y2="395.658" gradientTransform="matrix(-1 0 0 1 364.123 0)" gradientUnits="userSpaceOnUse"><stop offset="0" stop-color="#6bb5ff" class="stopColorffc16b svgShape"></stop><stop offset="1" stop-color="#fb4bdb" class="stopColorfb944b svgShape"></stop></linearGradient><linearGradient id="k" x1="648.07" x2="558.978" y1="142.045" y2="22.573" gradientTransform="translate(95.39)" gradientUnits="userSpaceOnUse"><stop offset="0" stop-color="#857dfb" class="stopColor807dfb svgShape"></stop><stop offset="1" stop-color="#5a52cc" class="stopColor5652cc svgShape"></stop></linearGradient><linearGradient id="av" x1="750.532" x2="730.232" y1="-15.63" y2="-42.851" gradientTransform="matrix(.866 .5 0 1.1547 58.343 -249.067)" xlink:href="#k"></linearGradient><linearGradient id="aw" x1="216.995" x2="310.382" y1="281.253" y2="281.253" gradientTransform="matrix(-1 0 0 1 1182.767 0)" gradientUnits="userSpaceOnUse"><stop offset="0" stop-color="#fb4bdb" class="stopColorfb944b svgShape"></stop><stop offset="1" stop-color="#6bb5ff" class="stopColorffc16b svgShape"></stop></linearGradient><radialGradient id="af" cx="326.001" cy="79.333" r="51.036" gradientUnits="userSpaceOnUse"><stop offset="0" stop-color="#857eef" class="stopColor7e7eef svgShape"></stop><stop offset="1" stop-color="#37318b" class="stopColor34318b svgShape"></stop></radialGradient><clipPath id="aj"><path fill="none" d="M1137.019 748.995a12.527 12.527 0 0 0-5.648-9.78l-19.715-11.383a3.957 3.957 0 0 0-3.995-.383l-15.854 9.154c-10.192 6.116-15.01 23.946-15.736 38.82-.065 1.34-.274 3.83 2.597 5.49 6.482 3.75 21.314 12.302 23.478 13.552a9.37 9.37 0 0 0 9.655.017l5.695-3.288v-.004a15.907 15.907 0 0 1 7.202-12.467c1.987-1.15 3.786-1.258 5.089-.505 1.302.751 2.11 2.364 2.11 4.662l2.176-1.256 2.946-6.78.001-3.651Z"></path></clipPath></defs><g style="isolation:isolate" fill="#010001" class="color000000 svgShape"><g style="mix-blend-mode:multiply" fill="#010001" class="color000000 svgShape"><path fill="#f4f6f8" d="m1340.328 704.754 141.452-81.667V507.659L1240.365 647.04l99.963 57.714z" class="color807dfb svgShape"></path><path fill="#cee3f8" d="m1468.423 570.432-26.374 15.227 4.594 2.653 26.374-15.228-4.594-2.652zM1404.896 607.109l26.375-15.227 4.594 2.652-26.375 15.228-4.594-2.653z" class="colorced3f8 svgShape"></path></g><g fill="#010001" class="color000000 svgShape"><g fill="#010001" class="color000000 svgShape"><path fill="#f4f6f8" d="m819.889 909.66-21.34 12.32c-19.773 11.416-51.831 11.416-71.605 0l-21.34-12.321-67.16 38.775 21.34 12.32c56.865 32.832 149.06 32.832 205.925.001l21.34-12.32Z" class="color807dfb svgShape"></path><path fill="#cee3f8" d="m851.392 932.028-17.72 10.231-3.086-1.782 17.719-10.231 3.087 1.782zM677.188 930.246l17.719 10.23-3.086 1.782-17.72-10.23 3.087-1.782zM757.27 956.596a159.688 159.688 0 0 1-26.121-2.98l-1.67 2.328a166.884 166.884 0 0 0 27.79 3.171ZM794.345 953.616a159.647 159.647 0 0 1-26.121 2.98v2.52a166.873 166.873 0 0 0 27.791-3.172ZM721.032 951.189a119.582 119.582 0 0 1-19.05-7.015l-3.094 1.787a124.899 124.899 0 0 0 20.475 7.554ZM804.462 951.189l1.668 2.326a124.875 124.875 0 0 0 20.475-7.554l-3.094-1.787a119.573 119.573 0 0 1-19.05 7.015Z" class="colorced3f8 svgShape"></path><path fill="#f4f6f8" d="m638.443 948.434-249.61-144.113 67.161-38.775 249.61 144.113-67.161 38.775z" class="color807dfb svgShape"></path><path fill="#cee3f8" d="m552.382 858.19 17.72 10.23-3.086 1.782-17.72-10.231 3.086-1.781zM527.421 843.778l17.72 10.231-3.086 1.782-17.72-10.231 3.086-1.782zM502.46 829.367l17.72 10.231-3.086 1.781-17.72-10.23 3.086-1.782zM477.499 814.956l17.72 10.23-3.086 1.782-17.72-10.23 3.086-1.782zM452.538 800.545l17.72 10.23-3.086 1.782-17.72-10.231 3.086-1.781zM427.577 786.133l17.72 10.231-3.086 1.782-17.72-10.231 3.086-1.782zM595.063 882.831l-17.72-10.23-3.086 1.782 17.72 10.23 3.086-1.782zM620.024 897.243l-17.72-10.231-3.086 1.782 17.72 10.23 3.086-1.781zM644.985 911.654l-17.72-10.231-3.086 1.782 17.72 10.231 3.086-1.782zM669.946 926.065l-17.72-10.23-3.086 1.781 17.72 10.231 3.086-1.782z" class="colorced3f8 svgShape"></path><path fill="#f4f6f8" d="m388.833 804.321-249.61-144.112 67.161-38.775 249.61 144.112-67.161 38.775z" class="color807dfb svgShape"></path><path fill="#cee3f8" d="m302.772 714.077 17.72 10.231-3.086 1.781-17.72-10.23 3.086-1.782zM277.811 699.666l17.72 10.23-3.086 1.782-17.72-10.23 3.086-1.782zM252.85 685.255l17.72 10.23-3.086 1.782-17.72-10.231 3.086-1.781zM227.889 670.843l17.72 10.231-3.086 1.782-17.72-10.231 3.086-1.782zM202.928 656.432l17.72 10.231-3.086 1.781-17.72-10.23 3.086-1.782zM177.967 642.021l17.72 10.23-3.086 1.782-17.72-10.23 3.086-1.782zM345.453 738.719l-17.72-10.231-3.086 1.782 17.72 10.231 3.086-1.782zM370.414 753.13l-17.72-10.23-3.086 1.781 17.72 10.231 3.086-1.782zM395.375 767.541l-17.72-10.23-3.086 1.782 17.72 10.23 3.086-1.782zM420.336 781.953l-17.72-10.231-3.086 1.782 17.72 10.23 3.086-1.781z" class="colorced3f8 svgShape"></path><path fill="#f4f6f8" d="m887.049 948.434 249.61-144.112-67.16-38.775-249.61 144.112 67.16 38.775z" class="color807dfb svgShape"></path><path fill="#cee3f8" d="m973.11 858.19-17.72 10.23 3.087 1.782 17.719-10.23-3.086-1.782zM998.071 843.779l-17.72 10.23 3.087 1.782 17.719-10.23-3.086-1.782zM1023.032 829.367l-17.72 10.231 3.087 1.782 17.72-10.231-3.087-1.782zM1047.993 814.956l-17.719 10.231 3.086 1.782 17.72-10.231-3.087-1.782zM1072.954 800.545l-17.719 10.23 3.086 1.782 17.72-10.23-3.087-1.782zM1097.915 786.134l-17.719 10.23 3.086 1.782 17.72-10.23-3.087-1.782zM930.429 882.832l17.72-10.231 3.086 1.782-17.719 10.231-3.087-1.782zM905.468 897.243l17.72-10.231 3.086 1.782-17.719 10.231-3.087-1.782zM880.507 911.654l17.72-10.23 3.086 1.782-17.719 10.23-3.087-1.782zM855.546 926.065l17.72-10.23 3.086 1.782-17.719 10.23-3.087-1.782z" class="colorced3f8 svgShape"></path><path fill="#f4f6f8" d="m1136.659 804.322 249.61-144.113-67.16-38.775-249.61 144.113 67.16 38.775z" class="color807dfb svgShape"></path><path fill="#cee3f8" d="m1222.72 714.077-17.719 10.231 3.086 1.782 17.72-10.231-3.087-1.782zM1247.681 699.666l-17.719 10.231 3.086 1.782 17.72-10.231-3.087-1.782zM1272.642 685.255l-17.719 10.23 3.086 1.782 17.72-10.23-3.087-1.782zM1297.603 670.844l-17.719 10.23 3.086 1.782 17.72-10.23-3.087-1.782zM1322.564 656.432l-17.719 10.231 3.086 1.782 17.72-10.231-3.087-1.782zM1347.525 642.021l-17.719 10.231 3.086 1.782 17.72-10.231-3.087-1.782zM1180.04 738.719l17.719-10.23 3.087 1.782-17.72 10.23-3.086-1.782zM1155.079 753.13l17.719-10.23 3.087 1.782-17.72 10.23-3.086-1.782zM1130.118 767.542l17.719-10.231 3.087 1.782-17.72 10.231-3.086-1.782zM1105.157 781.953l17.719-10.231 3.087 1.782-17.72 10.231-3.086-1.782z" class="colorced3f8 svgShape"></path><path fill="#f4f6f8" d="m1386.269 660.209 15.511-8.954v-77.551l-82.671 47.73 67.16 38.775z" class="color807dfb svgShape"></path><path fill="#cee3f8" d="m1379.728 623.429 17.719-10.23 3.087 1.782-17.72 10.23-3.086-1.782zM1354.767 637.84l17.719-10.23 3.087 1.782-17.72 10.23-3.086-1.782z" class="colorced3f8 svgShape"></path><path fill="url(#l)" d="M139.223 660.209 18.279 590.382l67.161-38.775 120.944 69.827-67.161 38.775z"></path><path fill="url(#m)" d="m50.076 571.746 17.72 10.23 3.086-1.78-17.72-10.231Zm24.96 14.412 17.72 10.23 3.087-1.782-17.72-10.23Zm24.962 14.41 17.72 10.231 3.086-1.781-17.72-10.23Zm24.96 14.412 17.72 10.23 3.087-1.781-17.72-10.23Zm28.048 12.63-3.086 1.781 17.72 10.23 3.086-1.781Z"></path><path fill="#f4f6f8" d="m262.14 653.625 34.166-19.726-67.16-38.775-34.166 19.726 67.16 38.775z" class="color807dfb svgShape"></path></g><g fill="#010001" class="color000000 svgShape"><g data-name="Little blocks" fill="#010001" class="color000000 svgShape"><path style="mix-blend-mode:multiply" fill="url(#a)" d="M1115.677 886.796h-33.233l23.341 13.48-23.341 13.478h33.233l23.344-13.478-23.344-13.48z"></path><path style="mix-blend-mode:multiply" fill="url(#n)" d="M1080.917 906.865h-33.234l23.342 13.48-23.342 13.477h33.234l23.343-13.477-23.343-13.48z"></path><path style="mix-blend-mode:multiply" fill="url(#o)" d="M1046.156 926.933h-33.234l23.342 13.48-23.342 13.478h33.234l23.343-13.478-23.343-13.48z"></path><path fill="#cee3f8" d="m1082.444 913.754-23.132-13.355v-26.71l23.132 13.355v26.71z" class="colorced3f8 svgShape"></path><path fill="#bbd0e6" d="m1105.576 900.399-23.132 13.355v-26.71l23.132-13.355v26.71z" class="colorbbc0e6 svgShape"></path><path fill="#f6f8fb" d="m1082.444 887.044-23.132-13.355 23.132-13.357 23.132 13.357-23.132 13.355z" class="colorf6f6fb svgShape"></path><path fill="#cee3f8" d="m1047.683 933.822-23.132-13.355v-26.71l23.132 13.355v26.71z" class="colorced3f8 svgShape"></path><path fill="#bbd0e6" d="m1070.815 920.467-23.132 13.355v-26.71l23.132-13.355v26.71z" class="colorbbc0e6 svgShape"></path><path fill="#f6f8fb" d="m1047.683 907.112-23.132-13.355 23.132-13.357 23.132 13.357-23.132 13.355z" class="colorf6f6fb svgShape"></path><path fill="#cee3f8" d="m1012.922 953.891-23.132-13.355v-26.71l23.132 13.355v26.71z" class="colorced3f8 svgShape"></path><path fill="#bbd0e6" d="m1036.054 940.536-23.132 13.355v-26.71l23.132-13.355v26.71z" class="colorbbc0e6 svgShape"></path><path fill="#f6f8fb" d="m1012.922 927.181-23.132-13.355 23.132-13.357 23.132 13.357-23.132 13.355z" class="colorf6f6fb svgShape"></path></g><g data-name="11" fill="#010001" class="color000000 svgShape"><path style="mix-blend-mode:multiply" fill="url(#c)" d="m591.236 598.36-146.242-84.429-73.117.001 146.236 84.429-146.236 84.428 73.117.001 146.242-84.43z"></path><path fill="#f6f8fb" d="m298.758 429.498-146.237 84.43 219.355 126.648 146.235-84.436Z" class="colorf6f6fb svgShape"></path><path fill="#cee3f8" d="m371.877 682.789-36.121-20.855v-5.258l-142.558-82.307-4.554 2.629-36.122-20.856v-42.213l219.355 126.647v42.213z" class="colorced3f8 svgShape"></path><path fill="#c4d6e9" d="M193.198 546.571v27.798l142.558 82.307v-27.798l-142.558-82.307z" class="colorc4cae9 svgShape"></path><path fill="#bbd0e6" d="m518.113 598.36-146.236 84.429-.001-42.213 146.236-84.434.001 42.218zM193.198 546.571l-4.554-2.629v33.056l4.554-2.629v-27.798z" class="colorbbc0e6 svgShape"></path><path style="mix-blend-mode:multiply" fill="url(#b)" d="M447.377 540.311h-29.799l27.418 15.831-73.12 42.214h29.8l73.117-42.214h.003l-27.419-15.831z"></path><path style="mix-blend-mode:multiply" fill="url(#p)" d="m407.771 517.443-29.798.001 27.417 15.83-73.119 42.215h29.8l73.116-42.215h.004l-27.42-15.831z"></path><path style="mix-blend-mode:multiply" fill="url(#q)" d="m368.166 494.576-29.799.001 27.418 15.83-73.12 42.215h29.8l73.117-42.215h.003l-27.419-15.831z"></path><path style="mix-blend-mode:multiply" fill="url(#r)" d="M328.56 471.709h-29.798l27.417 15.831-73.119 42.214h29.8l73.116-42.214h.004l-27.42-15.831z"></path><path fill="#f4f6f8" d="m253.06 529.755-27.42-15.832-.001-17.205 27.421 15.831v17.206z" class="color807dfb svgShape"></path><path fill="#5046e4" d="m326.177 487.539-73.117 42.216v-17.206l73.117-42.213v17.203z" class="color5652cc svgShape"></path><path fill="#ffffff" d="m326.176 470.337-27.42-15.835-73.117 42.215 27.421 15.833 73.116-42.213z" class="colorffffff svgShape"></path><path fill="#f4f6f8" d="m292.665 552.622-27.42-15.832v-17.205l27.42 15.832v17.205z" class="color807dfb svgShape"></path><path fill="#5046e4" d="m365.783 510.406-73.118 42.216v-17.205l73.118-42.214v17.203z" class="color5652cc svgShape"></path><path fill="#ffffff" d="m365.782 493.204-27.421-15.835-73.116 42.215 27.42 15.833 73.117-42.213z" class="colorffffff svgShape"></path><path fill="#f4f6f8" d="m332.271 575.489-27.42-15.832-.001-17.205 27.421 15.832v17.205z" class="color807dfb svgShape"></path><path fill="#5046e4" d="m405.388 533.273-73.117 42.216v-17.205l73.117-42.214v17.203z" class="color5652cc svgShape"></path><path fill="#ffffff" d="m405.387 516.071-27.42-15.834-73.117 42.213 27.421 15.836 73.116-42.215z" class="colorffffff svgShape"></path><path fill="#f4f6f8" d="m371.876 598.356-27.419-15.831-.001-17.206 27.42 15.832v17.205z" class="color807dfb svgShape"></path><path fill="#5046e4" d="m444.994 556.14-73.118 42.216v-17.205l73.118-42.214v17.203z" class="color5652cc svgShape"></path><path fill="#ffffff" d="m444.993 538.937-27.42-15.833-73.117 42.215 27.42 15.832 73.117-42.214z" class="colorffffff svgShape"></path><g style="mix-blend-mode:multiply" fill="#010001" class="color000000 svgShape"><path fill="#dae7f5" d="m413.209 633.67 7.284-4.205v8.41l-7.284 4.205v-8.41zM441.353 617.363l7.283-4.205v8.41l-7.283 4.206v-8.411zM469.496 601.057l7.284-4.205v8.41l-7.284 4.205v-8.41z" class="colordae0f5 svgShape"></path></g></g><g fill="#010001" class="color000000 svgShape"><path style="mix-blend-mode:multiply" fill="url(#s)" d="m748.304 418.906-267.856-8v62.832l267.856-8v-46.832z"></path><path fill="url(#t)" d="M522.331 449.239 508.25 238.808h-55.596L438.538 449.54c0 6.194 4.093 12.386 12.275 17.11 16.367 9.45 42.903 9.45 59.268 0 8.318-4.8 12.386-11.119 12.25-17.412Z"></path><path fill="#f6f8fb" d="M500.106 227.46c-10.853-6.268-28.457-6.268-39.312 0-10.855 6.267-10.855 16.43 0 22.697 10.855 6.267 28.459 6.267 39.314 0 10.854-6.267 10.854-16.43-.002-22.698Z" class="colorf6f6fb svgShape"></path><path fill="url(#u)" d="M492.339 231.945c-6.565-3.79-17.21-3.79-23.776 0-6.565 3.79-6.565 9.936 0 13.727 6.565 3.79 17.211 3.79 23.776 0 6.565-3.791 6.565-9.937 0-13.727Z"></path></g><g data-name="10" fill="#010001" class="color000000 svgShape"><path style="mix-blend-mode:multiply" fill="url(#v)" d="M748.263 378.445h-42.009l63.014 36.381-111.143 64.167h42.009l111.143-64.167-63.014-36.381z"></path><path fill="#cee3f8" d="m658.125 478.993-63.012-36.38V418.36l63.012 36.379v24.254z" class="colorced3f8 svgShape"></path><path fill="#bbd0e6" d="m769.266 414.825-111.141 64.168v-24.254l111.141-64.168v24.254z" class="colorbbc0e6 svgShape"></path><path fill="#f6f8fb" d="m706.254 354.191 63.012 36.381-111.141 64.167-63.012-36.379 111.141-64.169z" class="colorf6f6fb svgShape"></path><path style="mix-blend-mode:multiply" fill="url(#w)" d="m654.282 386.762-4.222-.126-54.947 31.724 35.582 20.543 32.258-.964-43.029-24.843v-6.497l34.358-19.837z"></path><path style="mix-blend-mode:multiply" fill="url(#x)" d="m630.695 438.903 10.037 30.048-45.619-26.338V418.36l35.582 20.543z"></path><path style="mix-blend-mode:multiply" fill="url(#y)" d="M710.651 367.211h-11.253l45.057 26.014-79.474 45.884h11.254l79.475-45.884-45.059-26.014z"></path><path fill="#ffffff" d="m699.397 360.713 45.057 26.015-79.473 45.884-45.057-26.013 79.473-45.886z" class="colorffffff svgShape"></path><path fill="#e539c6" d="M744.456 386.727v6.498l-79.475 45.884v-6.497l79.475-45.885z" class="colore57139 svgShape"></path><path fill="#fb4bdb" d="M664.981 432.612v6.498l-45.057-26.014v-6.497l45.057 26.013z" class="colorfb944b svgShape"></path><g style="mix-blend-mode:multiply" fill="#010001" class="color000000 svgShape"><path fill="#dae7f5" d="m710.054 432.679 7.283-4.205v8.41l-7.283 4.205v-8.41zM724.621 424.269l7.283-4.205v8.41l-7.283 4.205v-8.41zM739.187 415.859l7.284-4.205v8.41l-7.284 4.205v-8.41zM695.487 441.09l7.283-4.206v8.411l-7.283 4.205v-8.41zM680.92 449.5l7.283-4.205v8.41l-7.283 4.205v-8.41zM616.278 438.5l-7.283-4.205v8.41l7.283 4.205v-8.41zM630.845 446.91l-7.284-4.205v8.41l7.284 4.206v-8.411zM645.412 455.321l-7.284-4.206v8.411l7.284 4.205v-8.41z" class="colordae0f5 svgShape"></path></g></g><path style="mix-blend-mode:multiply" fill="url(#f)" d="m1062.87 384.248-94.117 72.448 94.116 54.339-94.116 54.338h219.6l94.118-54.338-219.601-126.787z" data-name="Shadow from 7"></path><path style="mix-blend-mode:multiply" fill="url(#z)" d="M624.879 726.32h-65.104l65.108 37.589-65.108 37.589h65.104l65.105-37.589-65.105-37.589z" data-name="Shadow from 3"></path><g data-name="9" fill="#010001" class="color000000 svgShape"><path style="mix-blend-mode:multiply" fill="url(#A)" d="m1303.11 395.143-37.151 21.446 37.152 21.45-37.152 21.449h74.301l37.152-21.449-74.302-42.896z"></path><path fill="#cee3f8" d="m1117.357 330.796 148.602 85.796v42.896l-148.602-85.794v-42.898zM931.603 395.143l37.152 21.448v42.897l-37.152-21.448v-42.897z" class="colorced3f8 svgShape"></path><path fill="#bbd0e6" d="m968.753 416.592 148.604-85.796v42.898l-148.604 85.794v-42.896zM1265.959 416.592l37.151-21.449v42.897l-37.151 21.45v-42.898z" class="colorbbc0e6 svgShape"></path><path fill="#f6f8fb" d="m1303.11 395.143-185.753-107.245-185.754 107.245 37.152 21.448 148.602-85.795 148.602 85.796 37.151-21.449z" class="colorf6f6fb svgShape"></path><path d="m1044.721 329.834-113.118 65.309 37.152 21.448 113.117-65.308-37.151-21.449z" style="mix-blend-mode:multiply" fill="#e8eff7" class="colore8ecf7 svgShape"></path><path style="mix-blend-mode:multiply" fill="url(#B)" d="m1043.053 459.488 111.45-64.345-37.147-21.451-148.601 85.796h74.298z"></path><path style="mix-blend-mode:multiply" fill="url(#C)" d="m1154.503 395.143-37.146-64.347-.001 42.896 37.147 21.451z"></path><g style="mix-blend-mode:multiply" fill="#010001" class="color000000 svgShape"><path fill="#f4f6f8" d="m985.377 420.796 4.701-2.714v8.411l-4.701 2.714v-8.411zM999.209 412.81l4.701-2.714v8.41l-4.701 2.714v-8.41zM1013.041 404.824l4.701-2.714v8.41l-4.701 2.714v-8.41zM1026.873 396.837l4.701-2.714v8.41l-4.701 2.714v-8.41zM1040.705 388.851l4.7-2.714v8.41l-4.7 2.714v-8.41zM1054.537 380.864l4.7-2.714v8.411l-4.7 2.713v-8.41zM1068.369 372.878l4.7-2.714v8.41l-4.7 2.714v-8.41zM1082.201 364.891l4.7-2.713v8.41l-4.7 2.714v-8.411zM1096.033 356.905l4.7-2.714v8.41l-4.7 2.714v-8.41z" class="color807dfb svgShape"></path></g><g style="mix-blend-mode:multiply" fill="#010001" class="color000000 svgShape"><path fill="#f4f6f8" d="m1249.336 420.796-4.701-2.714v8.411l4.701 2.714v-8.411zM1235.504 412.81l-4.701-2.714v8.41l4.701 2.714v-8.41zM1221.672 404.824l-4.701-2.714v8.41l4.701 2.714v-8.41zM1207.84 396.837l-4.701-2.714v8.41l4.701 2.714v-8.41zM1194.008 388.851l-4.701-2.714v8.41l4.701 2.714v-8.41zM1180.176 380.864l-4.701-2.714v8.411l4.701 2.713v-8.41zM1166.344 372.878l-4.701-2.714v8.41l4.701 2.714v-8.41zM1152.512 364.891l-4.701-2.713v8.41l4.701 2.714v-8.411zM1138.68 356.905l-4.701-2.714v8.41l4.701 2.714v-8.41z" class="color807dfb svgShape"></path></g></g><g data-name="8" fill="#010001" class="color000000 svgShape"><path style="mix-blend-mode:multiply" fill="url(#D)" d="m385.247 376.759-37.152 21.446 37.153 21.45-37.153 21.45h74.301l37.153-21.45-74.302-42.896z"></path><path style="mix-blend-mode:multiply" fill="url(#E)" d="M385.246 205.168h-74.297l74.297 42.897-148.6 85.796h74.298l148.603-85.796-74.301-42.897z"></path><path fill="#cee3f8" d="m162.343 290.962 185.752 107.245v42.896L162.343 333.859v-42.897z" class="colorced3f8 svgShape"></path><path fill="#bbd0e6" d="m236.643 290.964 148.603-85.797v42.898l-148.603 85.794v-42.895zM348.095 398.207l37.152-21.45v42.898l-37.152 21.45v-42.898z" class="colorbbc0e6 svgShape"></path><path fill="#f6f8fb" d="m236.646 290.962 148.598-85.795-37.151-21.448-148.602 85.795h.001l-37.149 21.448 37.151 21.449 148.601 85.796 37.152-21.45-148.601-85.795z" class="colorf6f6fb svgShape"></path><g style="mix-blend-mode:multiply" fill="#010001" class="color000000 svgShape"><path fill="#dae7f5" d="m253.267 298.611 4.7-2.714v7.375l-4.7-2.714v-1.947zM267.098 290.625l4.701-2.714v8.41l-4.701 2.714v-8.41z" class="colordae0f5 svgShape"></path><path fill="#f4f6f8" d="m280.93 282.638 4.701-2.714v8.41l-4.701 2.714v-8.41z" class="color807dfb svgShape"></path><path fill="#dae7f5" d="m294.762 274.652 4.701-2.714v8.41l-4.701 2.714v-8.41zM308.594 266.665l4.701-2.714v8.411l-4.701 2.713v-8.41zM322.426 258.679l4.701-2.714v8.41l-4.701 2.714v-8.41z" class="colordae0f5 svgShape"></path><path fill="#f4f6f8" d="m336.258 250.692 4.701-2.713v8.41l-4.701 2.714v-8.411z" class="color807dfb svgShape"></path><path fill="#dae7f5" d="m350.09 242.706 4.701-2.714v8.41l-4.701 2.714v-8.41zM363.922 234.72l4.701-2.714v8.41l-4.701 2.714v-8.41z" class="colordae0f5 svgShape"></path></g><g style="mix-blend-mode:multiply" fill="#010001" class="color000000 svgShape"><path fill="#dae7f5" d="m228.446 346.37-54.495-31.463v8.41l54.495 31.463v-8.41zM320.405 399.462l-7.782-4.492v8.41l7.782 4.492v-8.41zM295.467 393.475l7.781 4.492v-8.41l-7.781-4.492v8.41zM329.78 404.875v8.41l6.707 3.873v-8.41l-6.707-3.873zM286.092 379.652l-35.979-20.773v8.41l35.979 20.773v-8.41z" class="colordae0f5 svgShape"></path></g></g><path style="mix-blend-mode:multiply" fill="url(#F)" d="M700.661 225.682h177.936v87.893H700.661z" data-name="Shadow from tank"></path><g data-name="1" fill="#010001" class="color000000 svgShape"><path style="mix-blend-mode:multiply" fill="url(#G)" d="M614.519 125.805h-88.604l84.015 48.507-84.015 48.506h88.604l84.015-48.506-84.015-48.507z"></path><path fill="#cee3f8" d="m525.915 222.818-84.016-48.506v-51.155l84.016 48.506v51.155z" class="colorced3f8 svgShape"></path><path fill="#f6f8fb" d="m525.915 171.663-84.016-48.506 84.016-48.507 84.016 48.507-84.016 48.506z" class="colorf6f6fb svgShape"></path><path fill="url(#H)" d="m565.542 128.475-39.627-22.879-39.627 22.879 39.627 22.877 39.627-22.877z"></path><path fill="#bbd0e6" d="m609.931 174.312-84.016 48.506v-51.155l84.016-48.506v51.155z" class="colorbbc0e6 svgShape"></path><path fill="#e8eff7" d="m565.542 128.475-39.627-22.879-39.627 22.879 39.627 22.877 39.627-22.877z" class="colore8ecf7 svgShape"></path><path fill="#bbd0e6" d="m477.078 123.157 9.21 5.318 39.627-22.879V94.961l-48.837 28.196z" class="colorbbc0e6 svgShape"></path><path fill="#cee3f8" d="M525.915 94.961v10.635l39.627 22.879 9.211-5.318-48.838-28.196z" class="colorced3f8 svgShape"></path><path d="m495.499 133.792-9.211-5.318 39.627-22.878 9.21 5.318-39.626 22.878z" style="mix-blend-mode:multiply" fill="#e8eff7" class="colore8ecf7 svgShape"></path><path style="mix-blend-mode:multiply" fill="url(#I)" d="m535.125 110.914-9.21-15.953v10.635l9.21 5.318z"></path><g style="mix-blend-mode:multiply" fill="#010001" class="color000000 svgShape"><path fill="#f4f6f8" d="m457.43 183.279-7.066-4.08v-39.592l7.066 4.08v39.592zM472.435 191.942l-7.066-4.08V148.27l7.066 4.08v39.592zM487.44 200.605l-7.066-4.08v-39.592l7.066 4.08v39.592zM502.445 209.268l-7.066-4.08v-39.592l7.066 4.08v39.592zM517.45 217.931l-7.066-4.08v-39.592l7.066 4.08v39.592zM594.399 183.279l7.067-4.08v-39.592l-7.067 4.08v39.592zM579.395 191.942l7.066-4.08V148.27l-7.066 4.08v39.592zM564.39 200.605l7.066-4.08v-39.592l-7.066 4.08v39.592zM549.385 209.268l7.066-4.08v-39.592l-7.066 4.08v39.592zM534.38 217.931l7.066-4.08v-39.592l-7.066 4.08v39.592z" class="color807dfb svgShape"></path></g></g><g data-name="Little tank" fill="#010001" class="color000000 svgShape"><path style="mix-blend-mode:multiply" fill="url(#J)" d="M785.988 217.58h103.287v43.947H785.988z"></path><path fill="url(#d)" d="M816.995 241.534V187.96h-68.691v53.824c-.004 5.077 3.353 10.153 10.06 14.027 13.419 7.747 35.173 7.747 48.591 0 6.819-3.937 10.153-9.116 10.04-14.276Z"></path><path fill="#f6f8fb" d="M806.955 173.467c-13.418-7.746-35.172-7.746-48.59 0-13.418 7.745-13.418 20.307 0 28.053 13.418 7.747 35.172 7.747 48.59 0 13.416-7.746 13.416-20.308 0-28.053Z" class="colorf6f6fb svgShape"></path></g><g fill="#010001" class="color000000 svgShape"><path fill="url(#K)" d="M756.793 280.747V157.621H644.524v123.532c-.002 8.299 5.481 16.596 16.445 22.927 21.93 12.66 57.485 12.66 79.415 0 11.143-6.434 16.592-14.899 16.41-23.333Z"></path><path fill="#f6f8fb" d="M740.382 133.935c-21.928-12.66-57.485-12.66-79.413 0-21.928 12.66-21.928 33.189 0 45.848 21.928 12.662 57.485 12.662 79.415 0 21.926-12.66 21.926-33.189-.002-45.848Zm-59.56 34.387c-10.963-6.332-10.965-16.593 0-22.924 10.968-6.333 28.741-6.333 39.707 0 10.966 6.33 10.968 16.592 0 22.924-10.968 6.331-28.74 6.331-39.707 0Z" class="colorf6f6fb svgShape"></path><path d="M741.28 145.398c-10.382-5.994-26.857-6.304-37.89-.949h-5.444v3.52c-6.126 5.382-6.125 12.402 0 17.782v7.32h24.334v-.024c6.897-.12 13.733-1.684 19-4.725 10.967-6.33 10.966-16.593 0-22.924Z" style="mix-blend-mode:multiply" fill="url(#L)"></path><path fill="url(#M)" d="M715.5 143.106a46.187 46.187 0 0 0-29.648 0h-13.254v13.753c0 4.15 2.742 8.297 8.224 11.463 10.966 6.331 28.74 6.333 39.707 0 5.485-3.166 8.226-7.313 8.226-11.463v-13.753Z"></path><path fill="#ffffff" d="M680.822 131.645c10.966-6.331 28.741-6.331 39.707 0 10.966 6.33 10.968 16.593 0 22.924-10.968 6.333-28.74 6.33-39.707 0-10.963-6.33-10.965-16.592 0-22.924Z" class="colorffffff svgShape"></path></g><g data-name="7" fill="#010001" class="color000000 svgShape"><path fill="#cee3f8" d="M968.753 565.373 780.521 456.697V329.908l188.232 108.677v126.788z" class="colorced3f8 svgShape"></path><path fill="#bbd0e6" d="m1062.87 511.035-94.117 54.338V438.587l94.117-54.339v126.787z" class="colorbbc0e6 svgShape"></path><path d="m1036.177 526.446-40.73 23.515v-40.62l40.73-23.516v40.621z" style="mix-blend-mode:multiply" fill="#dae7f5" class="colordae0f5 svgShape"></path><path fill="#f6f8fb" d="m874.636 275.572-94.115 54.338 188.232 108.677 94.115-54.34Zm-28.205 58.545c-9.802-5.66-9.802-14.833 0-20.493 9.802-5.658 25.693-5.656 35.495.002 9.8 5.658 9.8 14.831-.002 20.49-9.8 5.66-25.693 5.659-35.493 0Zm54.902 31.696c-9.802-5.658-9.802-14.831 0-20.491 9.8-5.659 25.692-5.657 35.492.002s9.8 14.83-.001 20.489c-9.8 5.66-25.691 5.66-35.49 0Z" class="colorf6f6fb svgShape"></path><path style="mix-blend-mode:multiply" fill="url(#N)" d="m962.78 348.699-43.702-7.62 7.368 28.341 36.334-6.451v-14.27z"></path><path style="mix-blend-mode:multiply" fill="url(#O)" d="m906.985 317.139-43.701-7.62 7.368 28.341 36.333-6.451v-14.27z"></path><path fill="url(#e)" d="M942.385 350.195h.007l-9.851-15.317h-26.929l-9.851 15.32h.007c-3.6 5.215-1.75 11.393 5.563 15.615 9.8 5.66 25.693 5.66 35.493 0 7.315-4.223 9.163-10.402 5.56-15.618Z"></path><path fill="#ffffff" d="M908.883 331.973c5.63-3.25 14.76-3.25 20.39 0 5.632 3.251 5.632 8.523 0 11.774-5.63 3.251-14.76 3.251-20.39 0-5.632-3.251-5.632-8.523 0-11.774Z" class="colorffffff svgShape"></path><path fill="url(#P)" d="M887.485 318.497h.007l-9.853-15.317h-26.927l-9.851 15.32h.007c-3.6 5.217-1.75 11.394 5.563 15.617 9.8 5.658 25.693 5.66 35.493 0 7.313-4.224 9.163-10.403 5.56-15.62Z"></path><path fill="#ffffff" d="M853.981 300.276c5.632-3.251 14.761-3.251 20.393 0 5.631 3.25 5.631 8.522 0 11.774-5.632 3.25-14.761 3.25-20.393 0-5.63-3.252-5.63-8.523 0-11.774Z" class="colorffffff svgShape"></path><g style="mix-blend-mode:multiply" fill="#010001" class="color000000 svgShape"><path fill="#dae7f5" d="m856.769 385.827-9.448-5.455v11.933l9.448 5.455v-11.933zM887.097 403.337l-9.448-5.455v11.933l9.448 5.455v-11.933zM871.933 394.582l-9.448-5.455v11.933l9.448 5.455v-11.933zM801.829 366.04l9.448 5.455v-11.933l-9.448-5.455v11.933zM841.605 377.072l-9.448-5.455v11.933l9.448 5.455v-11.933zM826.441 368.317l-9.448-5.455v11.933l9.448 5.455v-11.933zM902.261 412.092l-9.448-5.455v11.933l9.448 5.455v-11.933zM947.754 438.357l-9.449-5.455v11.933l9.449 5.455v-11.933zM932.59 429.602l-9.449-5.455v11.933l9.449 5.455v-11.933zM917.425 420.847l-9.448-5.455v11.933l9.448 5.455v-11.933z" class="colordae0f5 svgShape"></path></g><g style="mix-blend-mode:multiply" fill="#010001" class="color000000 svgShape"><path fill="#dae7f5" d="m1034.324 412.624 9.448-5.455v11.933l-9.448 5.455v-11.933zM988.832 438.889l9.448-5.455v11.933l-9.448 5.455v-11.933zM1003.996 430.134l9.448-5.455v11.933l-9.448 5.455v-11.933zM1019.16 421.379l9.448-5.455v11.933l-9.448 5.455v-11.933z" class="colordae0f5 svgShape"></path></g></g><g data-name="6" fill="#010001" class="color000000 svgShape"><path style="mix-blend-mode:multiply" fill="url(#Q)" d="M1085.779 565.373H968.753l22.925 13.235-103.26 59.617h117.027l103.26-59.616-22.926-13.236z"></path><path fill="#cee3f8" d="m888.418 638.225-137.679-79.49v-67.563l137.679 79.49v67.563z" class="colorced3f8 svgShape"></path><path fill="#bbd0e6" d="m991.678 578.61-103.26 59.617v-67.565l103.258-59.618.002 67.566z" class="colorbbc0e6 svgShape"></path><path fill="#f6f8fb" d="m907.919 462.687-33.561 19.377-31.836-18.383 33.559-19.375-22.085-12.751-103.257 59.617 137.679 79.49 103.258-59.618-83.757-48.357z" class="colorf6f6fb svgShape"></path><path fill="#ffffff" d="m874.358 472.127-31.836-18.381 33.555-19.377 31.838 18.383-33.557 19.375z" class="colorffffff svgShape"></path><path fill="#bbd0e6" d="m907.919 462.687-33.561 19.377v-9.937l33.561-19.375v9.935z" class="colorbbc0e6 svgShape"></path><path fill="#ffffff" d="m858.441 453.001-15.919-9.19 33.555-19.377 15.921 9.192-33.557 19.375z" class="colorffffff svgShape"></path><path fill="#cee3f8" d="m858.441 462.936.002-9.935-15.921-9.19v19.87l31.836 18.383.002-9.937-15.919-9.191z" class="colorced3f8 svgShape"></path><path fill="#bbd0e6" d="m892.002 443.561-33.561 19.377v-9.937l33.561-19.375v9.935z" class="colorbbc0e6 svgShape"></path><path style="mix-blend-mode:multiply" fill="url(#R)" d="m892.003 443.56-33.562 19.376h17.212l24.951-14.406-8.601-4.97z"></path><path style="mix-blend-mode:multiply" fill="url(#S)" d="m907.92 462.688-33.562 19.376h17.212l24.955-14.409-8.605-4.967z"></path><g style="mix-blend-mode:multiply" fill="#010001" class="color000000 svgShape"><path fill="#dae7f5" d="m768.872 569.205-5.525-3.19v-53.376l5.525 3.19v53.376zM782.19 576.894l-5.525-3.19v-53.376l5.525 3.19v53.376zM795.508 584.583l-5.525-3.19v-53.375l5.525 3.189v53.376zM808.826 592.272l-5.525-3.19v-53.375l5.525 3.189v53.376zM822.144 599.961l-5.525-3.189v-53.376l5.525 3.19v53.375zM835.462 607.65l-5.525-3.189v-53.376l5.525 3.19v53.375zM848.78 615.34l-5.525-3.19v-53.376l5.525 3.19v53.376zM862.098 623.029l-5.525-3.19v-53.376l5.525 3.19v53.376zM875.415 630.718l-5.524-3.19v-53.376l5.524 3.19v53.376z" class="colordae0f5 svgShape"></path></g><path d="m960.413 596.661-40.73 23.515v-40.62l40.73-23.516v40.621z" style="mix-blend-mode:multiply" fill="#dae7f5" class="colordae0f5 svgShape"></path></g><g data-name="5" fill="#010001" class="color000000 svgShape"><path style="mix-blend-mode:multiply" fill="url(#T)" d="M1182.633 177.176h-168.031l84.015 48.506-84.015 48.507h168.031l84.015-48.507-84.015-48.506z"></path><path fill="#cee3f8" d="m1014.602 274.189-84.016-48.506V128.67l84.016 48.506v97.013z" class="colorced3f8 svgShape"></path><path fill="#f6f8fb" d="m1014.602 177.176-84.016-48.506 84.016-48.506 84.016 48.506-84.016 48.506z" class="colorf6f6fb svgShape"></path><path fill="#bbd0e6" d="m1098.618 225.683-84.016 48.506v-97.013l84.016-48.506v97.013z" class="colorbbc0e6 svgShape"></path><g style="mix-blend-mode:multiply" fill="#010001" class="color000000 svgShape"><path fill="#e8eff7" d="m1014.602 198.103-84.016-48.506v-8.824l84.016 48.507v8.823zM1014.602 216.154l-84.016-48.506v-8.824l84.016 48.506v8.824zM1014.602 234.205l-84.016-48.507v-8.823l84.016 48.506v8.824zM1014.602 252.255l-84.016-48.506v-8.823l84.016 48.506v8.823zM1014.602 198.103l84.016-48.506v-8.824l-84.016 48.507v8.823zM1014.602 216.154l84.016-48.506v-8.824l-84.016 48.506v8.824zM1014.602 234.205l84.016-48.507v-8.823l-84.016 48.506v8.824zM1014.602 252.255l84.016-48.506v-8.823l-84.016 48.506v8.823z" class="colore8ecf7 svgShape"></path></g></g><g data-name="4" fill="#010001" class="color000000 svgShape"><path style="mix-blend-mode:multiply" fill="url(#U)" d="M1251.301 470.037h-71.566l71.566 41.318-119.28 68.866h71.565l119.28-68.866-71.565-41.318z"></path><path fill="#cee3f8" d="m1132.021 580.221-71.568-41.32v-41.318l71.568 41.32v41.318z" class="colorced3f8 svgShape"></path><path fill="#bbd0e6" d="m1251.3 511.355-119.279 68.866v-41.318l119.279-68.866v41.318z" class="colorbbc0e6 svgShape"></path><path fill="#f6f8fb" d="m1251.298 470.037-119.277 68.866-71.568-41.32 119.278-68.866 71.567 41.32z" class="colorf6f6fb svgShape"></path><path d="m1106.303 565.373-17.893-51.649-27.957-16.141v41.318l45.85 26.472z" style="mix-blend-mode:multiply" fill="#e8eff7" class="colore8ecf7 svgShape"></path><path style="mix-blend-mode:multiply" fill="url(#V)" d="m1248.714 468.544-68.983-39.827-119.278 68.866 27.957 16.141h82.05l78.254-45.18z"></path><path style="mix-blend-mode:multiply" fill="#f4f6f8" d="m1141.363 546.439 100.595-58.079v9.602l-100.595 58.078v-9.601z" class="color807dfb svgShape"></path></g><g fill="#010001" class="color000000 svgShape"><path d="m1112.6 722.018.002-.002h-.006L961.09 634.544l-71.32 41.177 81.476 47.04-208.816 120.56h140.065l-.002.001c60.696-14.827 132.482-40.097 168.083-60.653 35.601-20.554 51.357-45.824 42.023-60.651Z" style="mix-blend-mode:multiply" fill="url(#W)"></path><path fill="url(#X)" d="M692.398 479.412s-4.342 2.505.002-.002c-25.68-5.39-69.451 3.707-105.052 24.262-35.603 20.554-79.374 62-105.053 97.043.252-.145.612-.353 1.057-.612l-1.057.612 280.135 161.74L972.535 641.15ZM485.021 599.139l-.46.267c.148-.084.302-.173.46-.267Z"></path><path fill="#cee3f8" d="M762.43 843.321 482.293 681.584l.002-80.869L762.43 762.452v80.869z" class="colorced3f8 svgShape"></path><path fill="#bbd0e6" d="M972.534 641.15c-25.681-5.388-69.45 3.709-105.051 24.263-35.603 20.554-79.373 62-105.054 97.043l.001-.001v80.866l17.51-10.109v-60.651l175.085-101.086v60.652l17.512-10.111v-80.867Z" class="colorbbc0e6 svgShape"></path><path fill="#cee3f8" d="m779.94 833.212 8.754 5.055.002-60.652-8.756-5.054v60.651z" class="colorced3f8 svgShape"></path><path fill="#dae7f5" d="M963.777 676.531 788.694 777.617l-8.756-5.054 175.085-101.086 8.754 5.054z" class="colordae0f5 svgShape"></path><path fill="#bbd0e6" d="M963.779 737.181 788.694 838.267v-60.65l175.085-101.086v60.65z" class="colorbbc0e6 svgShape"></path><path style="mix-blend-mode:multiply" fill="url(#Y)" d="m657.435 782.702-32.549-18.792-.007-37.59 32.556 56.382z"></path><path d="m957.076 741.051-161.678 93.346v-53.229l161.678-93.346v53.229z" style="mix-blend-mode:multiply" fill="#dae7f5" class="colordae0f5 svgShape"></path></g><g data-name="3" fill="#010001" class="color000000 svgShape"><path fill="#cee3f8" d="m559.775 763.908-65.106-37.588v37.588l65.106 37.59v-37.59z" class="colorced3f8 svgShape"></path><path fill="#bbd0e6" d="m624.88 726.322-65.105 37.588v37.588l65.105-37.59v-37.586z" class="colorbbc0e6 svgShape"></path><path fill="#f6f8fb" d="m624.88 726.322-65.105-37.588-65.106 37.588 65.106 37.588 65.105-37.588z" class="colorf6f6fb svgShape"></path><g style="mix-blend-mode:multiply" fill="#010001" class="color000000 svgShape"><path fill="#f4f6f8" d="m576.55 764.353 7.283-4.205v8.411l-7.283 4.205v-8.411zM588.686 757.347l7.283-4.205v8.41l-7.283 4.205v-8.41zM600.822 750.34l7.283-4.205v8.41l-7.283 4.205v-8.41zM543 764.353l-7.284-4.205v8.411l7.284 4.205v-8.411zM530.864 757.347l-7.284-4.205v8.41l7.284 4.205v-8.41zM518.728 750.34l-7.284-4.205v8.41l7.284 4.205v-8.41z" class="color807dfb svgShape"></path></g></g><g data-name="2" fill="#010001" class="color000000 svgShape"><path style="mix-blend-mode:multiply" fill="url(#Z)" d="M1230.405 198.103h-42.008l42.009 24.254-84.017 48.507h42.008l84.017-48.507-42.009-24.254z"></path><path fill="#cee3f8" d="m1146.389 270.864-63.012-36.381V210.23l63.012 36.38v24.254z" class="colorced3f8 svgShape"></path><path fill="#bbd0e6" d="m1230.405 222.356-84.016 48.508V246.61l84.016-48.507v24.253z" class="colorbbc0e6 svgShape"></path><path fill="#f6f8fb" d="m1167.391 161.724 63.012 36.38-84.014 48.506-63.012-36.38 84.014-48.506z" class="colorf6f6fb svgShape"></path></g></g><g fill="#010001" class="color000000 svgShape"><path style="mix-blend-mode:multiply" fill="url(#g)" d="M69.14 638.699h20.39v8.068H69.14z"></path><path fill="#bbd0e6" d="m137.474 595.279-64.529 37.257v-3.249l64.529-37.256v3.248z" class="colorbbc0e6 svgShape"></path><path fill="#ffffff" d="m72.945 629.287 64.529-37.256-1.406-.812-64.529 37.257 1.406.811z" class="colorffffff svgShape"></path><path fill="#cee3f8" d="m69.14 646.767-6.618-3.82v-13.755l6.618 3.82v13.755z" class="colorced3f8 svgShape"></path><path fill="#bbd0e6" d="m75.757 642.947-6.617 3.82v-13.755l6.617-3.82v13.755z" class="colorbbc0e6 svgShape"></path><path fill="#f6f8fb" d="m62.522 629.192 6.618-3.822 6.617 3.822-6.617 3.82-6.618-3.82z" class="colorf6f6fb svgShape"></path></g><g fill="#010001" class="color000000 svgShape"><path style="mix-blend-mode:multiply" fill="url(#aa)" d="M245.842 878.864h55.471v3.447h-55.471z"></path><path fill="#37318b" d="m245.842 882.311-2.73-1.577V849.97l2.73 1.573v30.768z" class="color34318b svgShape"></path><path fill="#6b1c6b" d="m245.842 882.311 2.73-1.577V849.97l-2.73 1.573v30.768z" class="color1e1c6b svgShape"></path><path fill="url(#ab)" d="m275.874 842.684-30.032-44.549s-30.495 45.204-30.694 45.53a11.948 11.948 0 0 0-1.882 6.305c0 4.814 3.184 9.622 9.544 13.292 12.718 7.347 33.343 7.347 46.063 0 6.363-3.67 9.54-8.478 9.54-13.292a12.351 12.351 0 0 0-2.54-7.286Z"></path><path fill="url(#ac)" d="m272.167 824.663-26.325-39.042-26.317 39.042a10.783 10.783 0 0 0-2.227 6.38c0 4.219 2.79 8.433 8.355 11.653 11.156 6.44 29.225 6.44 40.372 0 5.573-3.22 8.366-7.434 8.366-11.654a10.873 10.873 0 0 0-2.224-6.38Z"></path><path fill="url(#ad)" d="M268.81 809.792c-.145-.248-22.968-34.075-22.968-34.075s-22.824 33.827-22.974 34.075a8.994 8.994 0 0 0-1.401 4.712c0 3.603 2.375 7.204 7.135 9.952 9.522 5.495 24.957 5.495 34.474 0 4.763-2.748 7.14-6.35 7.14-9.952a8.95 8.95 0 0 0-1.406-4.712Z"></path><path style="mix-blend-mode:multiply" fill="url(#ae)" d="M342.616 147.004h66.993v4.514h-66.993z"></path><path fill="#37318b" d="m339.331 109.85 3.285 1.898v39.77l-3.281-1.895-.004-39.773z" class="color34318b svgShape"></path><path fill="#6b1c6b" d="m345.892 109.85-3.276 1.898v39.77l3.278-1.895-.002-39.773z" class="color1e1c6b svgShape"></path><path fill="url(#af)" d="M311.27 91.339a31.343 31.343 0 1 1 31.346 31.343 31.346 31.346 0 0 1-31.345-31.343Z"></path></g><g data-name="Truck back" fill="#010001" class="color000000 svgShape"><g fill="#010001" class="color000000 svgShape"><path fill="#700e70" d="M435.016 783.151c1.088-.629 1.76-1.974 1.76-3.89a13.279 13.279 0 0 0-6.01-10.408c-1.659-.958-3.159-1.048-4.249-.422-1.086.627-1.76 1.975-1.76 3.892a13.28 13.28 0 0 0 6.009 10.408c1.66.958 3.161 1.048 4.25.42Z" class="color0e1c70 svgShape"></path><path fill="#c6cace" d="M434.076 777.702a7.31 7.31 0 0 0-3.31-5.731c-1.826-1.055-3.309-.2-3.309 1.91a7.317 7.317 0 0 0 3.309 5.73c1.829 1.057 3.31.201 3.31-1.91Z" class="colorc6cece svgShape"></path><path fill="#600d60" d="M436.776 779.261a13.279 13.279 0 0 0-6.01-10.408c-1.659-.958-3.159-1.048-4.249-.422l4.6-2.655c1.087-.628 2.59-.536 4.249.42a13.288 13.288 0 0 1 6.01 10.41c0 1.914-.675 3.263-1.762 3.89l-4.598 2.655c1.088-.629 1.76-1.974 1.76-3.89Z" class="color110d60 svgShape"></path><path fill="#330b33" d="m311.116 723.361-5.854 3.379.001 4.897 5.853-3.379v-4.897z" class="color0b0b33 svgShape"></path><path fill="#700e70" d="M316.435 742.99c1.085-.63 1.76-1.975 1.76-3.892a13.277 13.277 0 0 0-6.011-10.406c-1.659-.96-3.16-1.05-4.248-.423-1.087.628-1.76 1.974-1.76 3.892a13.283 13.283 0 0 0 6.008 10.406c1.659.957 3.161 1.05 4.251.423Z" class="color0e1c70 svgShape"></path><path fill="#cee3f8" d="M315.494 737.539a7.313 7.313 0 0 0-3.31-5.732c-1.826-1.054-3.309-.199-3.309 1.91a7.316 7.316 0 0 0 3.309 5.731c1.829 1.056 3.31.2 3.31-1.91Z" class="colorced3f8 svgShape"></path><path fill="#600d60" d="M318.195 739.098a13.277 13.277 0 0 0-6.011-10.406c-1.659-.96-3.16-1.05-4.248-.423l4.6-2.657c1.086-.626 2.588-.535 4.248.423a13.28 13.28 0 0 1 6.01 10.408c0 1.916-.675 3.263-1.762 3.89l-4.597 2.657c1.085-.63 1.76-1.975 1.76-3.892Z" class="color110d60 svgShape"></path><path fill="#700e70" d="M397.414 789.748c1.088-.63 1.762-1.975 1.762-3.89a13.28 13.28 0 0 0-6.01-10.408c-1.657-.958-3.159-1.051-4.248-.422-1.088.627-1.759 1.974-1.759 3.89a13.28 13.28 0 0 0 6.007 10.408c1.66.958 3.16 1.049 4.248.422Z" class="color0e1c70 svgShape"></path><path fill="#cee3f8" d="M396.475 784.299a7.318 7.318 0 0 0-3.309-5.733c-1.827-1.054-3.307-.199-3.307 1.91a7.317 7.317 0 0 0 3.307 5.733c1.827 1.054 3.309.2 3.309-1.91Z" class="colorced3f8 svgShape"></path><path fill="#600d60" d="M399.176 785.858a13.277 13.277 0 0 0-6.01-10.408c-1.657-.96-3.159-1.051-4.248-.422l4.599-2.655c1.088-.628 2.59-.537 4.25.42a13.278 13.278 0 0 1 6.008 10.41c0 1.915-.672 3.261-1.76 3.889l-4.598 2.656c1.087-.63 1.759-1.975 1.759-3.89Z" class="color110d60 svgShape"></path><path fill="#700e70" d="M410.502 797.302c1.088-.629 1.76-1.974 1.76-3.89a13.279 13.279 0 0 0-6.01-10.408c-1.659-.958-3.158-1.048-4.248-.422-1.087.627-1.76 1.975-1.76 3.892a13.28 13.28 0 0 0 6.008 10.408c1.66.958 3.162 1.048 4.25.42Z" class="color0e1c70 svgShape"></path><path fill="#cee3f8" d="M409.562 791.853a7.31 7.31 0 0 0-3.31-5.731c-1.826-1.055-3.308-.2-3.308 1.91a7.316 7.316 0 0 0 3.308 5.73c1.83 1.057 3.31.201 3.31-1.91Z" class="colorced3f8 svgShape"></path><path fill="#600d60" d="M412.262 793.412a13.279 13.279 0 0 0-6.01-10.408c-1.659-.958-3.158-1.048-4.248-.422l4.6-2.655c1.087-.628 2.59-.536 4.249.42a13.288 13.288 0 0 1 6.01 10.41c0 1.915-.676 3.263-1.762 3.89l-4.599 2.655c1.088-.629 1.76-1.974 1.76-3.89Z" class="color110d60 svgShape"></path><path fill="#700e70" d="M347.514 760.935c1.088-.629 1.76-1.974 1.76-3.89a13.279 13.279 0 0 0-6.01-10.408c-1.659-.958-3.159-1.048-4.248-.422-1.087.627-1.76 1.975-1.76 3.891a13.28 13.28 0 0 0 6.008 10.408c1.66.958 3.162 1.049 4.25.421Z" class="color0e1c70 svgShape"></path><path fill="#cee3f8" d="M346.574 755.486a7.31 7.31 0 0 0-3.31-5.732c-1.826-1.054-3.309-.198-3.309 1.912a7.316 7.316 0 0 0 3.309 5.73c1.829 1.055 3.31.2 3.31-1.91Z" class="colorced3f8 svgShape"></path><path fill="#600d60" d="M349.274 757.045a13.279 13.279 0 0 0-6.01-10.408c-1.659-.958-3.159-1.048-4.248-.422l4.6-2.656c1.087-.627 2.59-.535 4.248.421a13.287 13.287 0 0 1 6.01 10.41c0 1.914-.675 3.263-1.761 3.89l-4.6 2.655c1.089-.629 1.76-1.974 1.76-3.89Z" class="color110d60 svgShape"></path><path fill="#a5b8cc" d="m329.455 703.343 18.95-10.94a3.804 3.804 0 0 1 3.84-.368v29.262l-28.218 16.291v-24.844a12.04 12.04 0 0 1 5.428-9.4Z" class="colora5abcc svgShape"></path><path fill="url(#ag)" d="M298.072 726.05c0-.018 0-.037.002-.056.065-4.446 4.212-28.492 12.228-33.708 8.081-5.259 17.074-10.309 18.65-11.114 1.576-.805 3.394-.624 5.409.539l17.883 10.324a3.804 3.804 0 0 0-3.84.368l-18.949 10.94a12.04 12.04 0 0 0-5.428 9.401v24.844l-2.83 3.248-2.093-1.209a15.293 15.293 0 0 0-6.919-11.985c-3.822-2.209-6.922-.422-6.922 3.99v.005l-4.971-2.87-.01-.007c-1.507-.87-2.196-1.77-2.2-2.652h-.011l.001-.057Z"></path><path d="m327.787 683.927-13.677 7.897a1.545 1.545 0 0 0 0 2.677l15.345 8.842 18.95-10.94-14.712-8.478a5.91 5.91 0 0 0-5.906.002Z" style="mix-blend-mode:multiply" fill="url(#h)"></path><path fill="#8b89af" d="m321.196 740.836 28.217-16.292 2.831-3.247-28.217 16.291-2.831 3.248z" class="color8990af svgShape"></path><path fill="#f4f6f8" d="m310.437 720.839 2.035 1.175v-.881l-2.035-1.175v.881z" class="color807dfb svgShape"></path><path style="mix-blend-mode:multiply" fill="#f1f3f6" d="m312.332 717.315 11.696 6.756-.017-11.191-11.696-6.754.017 11.189z" class="colorf1f1f6 svgShape"></path><path fill="url(#ah)" d="m305.445 702.243 5.259 3.036c-1.678 3.145-6.18 7.532-7.894 6.542l-.692-.4a1.699 1.699 0 0 1-.998-1.68 63.253 63.253 0 0 1 3.301-9.352c-.378 1.252.298 1.435 1.024 1.854Z"></path><path fill="url(#ai)" d="M298.081 726.108h-.01l.001-.057c0-.02 0-.038.002-.057a61.056 61.056 0 0 1 1.59-10.363c-.307 1.234 1.182 1.922 1.182 1.922l18.88 10.9v1.458c-3.53-1.991-16.422-11.186-19.445-1.15-1.506-.87-2.195-1.77-2.2-2.653Z"></path><path fill="#6e6c93" d="m325.523 730.432 92.181 53.221 29.112-16.809-92.184-53.22-29.109 16.808z" class="color6d6c93 svgShape"></path><path fill="#342e94" d="m325.523 735.61 92.181 53.22.001-5.177-92.182-53.221v5.178z" class="color362e94 svgShape"></path><path fill="#6f196f" d="m417.704 788.83 29.112-16.806v-5.18l-29.112 16.809v5.177z" class="color20196f svgShape"></path><path fill="#6db6ff" d="m325.523 695.917 92.181 53.22 29.114-16.811-92.182-53.22-29.113 16.811z" class="colorffaf6d svgShape"></path><path fill="#fb4bdb" d="m325.523 730.432 92.181 53.221v-34.516l-92.181-53.221v34.516z" class="colorfb944b svgShape"></path><path fill="#e539c6" d="m417.704 783.653 29.112-16.809v-34.518l-29.112 16.811v34.516z" class="colore57139 svgShape"></path><path fill="#a50b89" d="m428.867 767.874 1.357-.783v-4.4l-1.357.784v4.399zM434.296 764.74l1.357-.783v-4.4l-1.357.783v4.4z" class="colorc85a2b svgShape"></path><path fill="#bbd0e6" d="M304.589 700.023a1.5 1.5 0 0 0 .954 1.918l18.501 10.6c-.001.067-.017.137-.017.203v.24l-18.68-10.703c-.28-.162-1.345-.561-1.016-1.692.128-.294.125-.28.258-.566Z" class="colorbbc0e6 svgShape"></path><path style="mix-blend-mode:multiply" fill="url(#j)" d="M380.095 698.701h-7.153l12.924 7.461-12.924 7.462h7.153l12.925-7.462-12.925-7.461z"></path><path fill="#fb4bdb" d="m372.942 713.624-12.952-7.477v-4.124l12.952 7.477v4.124z" class="colorfb944b svgShape"></path><path fill="#e539c6" d="m385.891 706.147-12.949 7.477v-4.126l12.949-7.477v4.126z" class="colore57139 svgShape"></path><path fill="#6bb5ff" d="m359.99 702.021 12.952 7.477 12.949-7.477-12.949-7.477-12.952 7.477z" class="colorffc16b svgShape"></path></g></g><g data-name="Truck front" fill="#010001" class="color000000 svgShape"><g data-name="Truck" fill="#010001" class="color000000 svgShape"><path fill="#471147" d="m1125.808 774.269 6.09 3.516-.001 5.095-6.089-3.516v-5.095z" class="color131147 svgShape"></path><path fill="#6f196f" d="M1120.275 794.693c-1.13-.655-1.831-2.054-1.831-4.05a13.815 13.815 0 0 1 6.254-10.827c1.726-.998 3.288-1.092 4.42-.44 1.13.654 1.831 2.055 1.831 4.05a13.82 13.82 0 0 1-6.25 10.827c-1.727.995-3.29 1.092-4.424.44Z" class="color20196f svgShape"></path><path fill="#bbd0e6" d="M1121.254 789.02a7.609 7.609 0 0 1 3.444-5.962c1.9-1.097 3.442-.207 3.442 1.987a7.613 7.613 0 0 1-3.442 5.963c-1.903 1.099-3.444.209-3.444-1.987Z" class="colorbbc0e6 svgShape"></path><path fill="#471147" d="M1118.444 790.643a13.815 13.815 0 0 1 6.254-10.827c1.726-.998 3.288-1.092 4.42-.44l-4.786-2.763c-1.13-.651-2.693-.558-4.42.44a13.818 13.818 0 0 0-6.253 10.828c0 1.993.702 3.395 1.833 4.047l4.783 2.765c-1.13-.655-1.831-2.054-1.831-4.05Z" class="color131147 svgShape"></path><path fill="#6f196f" d="M1221.59 736.203c-1.132-.656-1.832-2.055-1.832-4.047a13.818 13.818 0 0 1 6.252-10.829c1.724-.996 3.287-1.094 4.42-.44 1.132.654 1.83 2.055 1.83 4.048a13.817 13.817 0 0 1-6.25 10.829c-1.727.997-3.288 1.09-4.42.44Z" class="color20196f svgShape"></path><path fill="#bbd0e6" d="M1222.568 730.533a7.613 7.613 0 0 1 3.442-5.964c1.901-1.097 3.441-.207 3.441 1.987a7.612 7.612 0 0 1-3.44 5.965c-1.902 1.097-3.443.208-3.443-1.988Z" class="colorbbc0e6 svgShape"></path><path fill="#471147" d="M1219.758 732.156a13.814 13.814 0 0 1 6.252-10.829c1.724-.998 3.287-1.094 4.42-.44l-4.784-2.762c-1.132-.653-2.696-.559-4.422.438a13.814 13.814 0 0 0-6.251 10.83c0 1.992.699 3.393 1.83 4.046l4.784 2.764c-1.13-.656-1.83-2.055-1.83-4.047Z" class="color131147 svgShape"></path><path fill="#6f196f" d="M1207.973 744.063c-1.132-.655-1.83-2.054-1.83-4.048a13.816 13.816 0 0 1 6.252-10.829c1.726-.996 3.286-1.09 4.42-.44 1.13.654 1.831 2.056 1.831 4.05a13.816 13.816 0 0 1-6.25 10.829c-1.728.997-3.29 1.09-4.423.438Z" class="color20196f svgShape"></path><path fill="#bbd0e6" d="M1208.951 738.393a7.605 7.605 0 0 1 3.444-5.963c1.9-1.097 3.442-.207 3.442 1.988a7.612 7.612 0 0 1-3.442 5.962c-1.903 1.099-3.444.209-3.444-1.987Z" class="colorbbc0e6 svgShape"></path><path fill="#471147" d="M1206.142 740.015a13.816 13.816 0 0 1 6.253-10.829c1.726-.996 3.286-1.09 4.42-.44l-4.786-2.761c-1.13-.653-2.694-.558-4.42.437a13.825 13.825 0 0 0-6.253 10.83c0 1.993.702 3.395 1.833 4.048l4.784 2.763c-1.132-.655-1.83-2.054-1.83-4.048Z" class="color131147 svgShape"></path><path fill="#6f196f" d="M1152.613 776.024c-1.132-.655-1.83-2.054-1.83-4.048a13.815 13.815 0 0 1 6.252-10.829c1.726-.996 3.286-1.09 4.42-.44 1.13.654 1.83 2.056 1.83 4.05a13.816 13.816 0 0 1-6.25 10.829c-1.728.997-3.29 1.09-4.422.438Z" class="color20196f svgShape"></path><path fill="#bbd0e6" d="M1153.59 770.354a7.606 7.606 0 0 1 3.445-5.963c1.9-1.097 3.442-.207 3.442 1.989a7.612 7.612 0 0 1-3.442 5.96c-1.903 1.1-3.444.21-3.444-1.986Z" class="colorbbc0e6 svgShape"></path><path fill="#471147" d="M1150.782 771.976a13.815 13.815 0 0 1 6.253-10.829c1.726-.996 3.286-1.09 4.42-.44l-4.787-2.762c-1.13-.652-2.694-.557-4.42.438a13.825 13.825 0 0 0-6.252 10.83c0 1.993.702 3.395 1.832 4.048l4.785 2.763c-1.132-.655-1.83-2.054-1.83-4.048Z" class="color131147 svgShape"></path><path fill="#6e6c93" d="m1234.483 710.228-95.909 55.373-31.321-18.086 95.912-55.372 31.318 18.085z" class="color6d6c93 svgShape"></path><path fill="#6f196f" d="m1234.483 715.616-95.909 55.371-.001-5.386 95.91-55.373v5.388z" class="color20196f svgShape"></path><path fill="#342e94" d="m1138.574 770.987-31.321-18.083v-5.389l31.321 18.086v5.386z" class="color362e94 svgShape"></path><path fill="#6db6ff" d="m1234.483 674.318-95.909 55.372-30.29-17.491 95.908-55.372 30.291 17.491z" class="colorffaf6d svgShape"></path><path fill="#e539c6" d="m1234.483 710.228-95.909 55.373V729.69l95.909-55.373v35.911z" class="colore57139 svgShape"></path><path fill="#fb4bdb" d="m1138.574 765.601-30.289-17.489v-35.913l30.289 17.491v35.911z" class="colorfb944b svgShape"></path><path d="M1137.019 748.995c0-.073-.016-.15-.02-.224l-20.302 11.722a9.144 9.144 0 0 1-8.267 0l-25.028-14.45c-.065.118-.13.24-.193.36l25.017 14.444a9.603 9.603 0 0 0 8.675 0l20.118-11.616Z" style="mix-blend-mode:multiply" fill="url(#ak)"></path><path d="m1109.92 748.033-14.23-8.217a1.607 1.607 0 0 1 .001-2.784l15.965-9.2 19.715 11.382-15.306 8.82a6.148 6.148 0 0 1-6.145-.001Z" style="mix-blend-mode:multiply" fill="url(#al)"></path><path d="m1137.001 760.872-12.169 7.03.017-11.645 12.17-7.026-.018 11.641z" style="mix-blend-mode:multiply" fill="#e8eff7" class="colore8ecf7 svgShape"></path><path fill="url(#am)" d="m1101.283 783.623-24.696-14.258a87.164 87.164 0 0 0-.516 6.058c-.065 1.34-.274 3.83 2.597 5.49 6.482 3.75 21.314 12.302 23.478 13.552a9.343 9.343 0 0 0 9.152.266c3.144-14.072 16.557-19.994 20.23-22.164v-1.516l-21.775 12.572a9.393 9.393 0 0 1-8.47 0Z"></path><path fill="url(#i)" d="M1116.9 760.847a9.603 9.603 0 0 1-8.674 0l-25.01-14.44a57.403 57.403 0 0 0-5.13 14.26l25.294 14.605a9.394 9.394 0 0 0 8.47 0 16.052 16.052 0 0 0 2.306-1.331c3.084-2.291 7.72-12.472 8.407-16.363Z"></path><path fill="url(#an)" d="M1108.42 787.6a18.906 18.906 0 0 1 .225-2.125c.083-.498-.401-1.22-1.412-.997a9.303 9.303 0 0 1-5.95-.855l-24.696-14.258a90.163 90.163 0 0 0-.412 4.519l23.565 13.604a12.349 12.349 0 0 0 7.076 1.501 1.656 1.656 0 0 0 1.605-1.388Z"></path><path fill="#342e94" d="m1125.556 772.212-2.117 1.223v-.917l2.117-1.223v.917z" class="color362e94 svgShape"></path><path d="M1103.813 785.488a7.459 7.459 0 0 1-2.53-.846l-5.181-2.991-.567 1.077-16.757-9.674-.014-1.41-2.266-1.31c-.073.698-.132 1.39-.19 2.082l24.045 13.88a8.06 8.06 0 0 0 3.353 1.147c.489.05 1.455.053 1.455-.84s-.907-1.045-1.348-1.115Z" style="mix-blend-mode:screen" fill="url(#ao)"></path><path style="mix-blend-mode:multiply" fill="url(#ap)" d="M1164.591 693.821h-7.154l12.925 7.461-12.925 7.462h7.154l12.924-7.462-12.924-7.461z"></path><path fill="#fb4bdb" d="m1157.437 708.744-12.951-7.477v-4.124l12.951 7.477v4.124z" class="colorfb944b svgShape"></path><path fill="#e539c6" d="m1170.387 701.267-12.95 7.477v-4.126l12.95-7.477v4.126z" class="colore57139 svgShape"></path><path fill="#6bb5ff" d="m1144.486 697.141 12.951 7.477 12.95-7.477-12.95-7.477-12.951 7.477z" class="colorffc16b svgShape"></path></g></g><path fill="#e8f0f9" d="m933.847 5.586-9.305 5.37c-5.432 3.138-12.914-13.99-18.996-10.48L889.24 9.89c-12.158 7.017-7.77-13.419-25.955-2.919-21.369 12.34-19.62 37.106-31.778 44.126l-16.307 9.413c-6.077 3.511-7.739 18.044-13.173 21.181l-9.306 5.37c-2.022 1.17-5.892 4.403-5.894 8.637l76.458-44.142s73.69-42.549 76.458-44.144c0-4.234-3.87-2.997-5.895-1.826Z" class="colore8edf9 svgShape"></path><g data-name="Location marker" fill="#010001" class="color000000 svgShape"><path d="M141.439 569.145a153.014 153.014 0 0 1-26.708 2.542 86.104 86.104 0 0 1-8.967-.422 10.019 10.019 0 0 1 3.383-2.798c6.34-3.658 19.04-6.825 32.292-8.396v-16.79a335.4 335.4 0 0 0-34.864 4.788L32.96 562.236l24.534 14.169 10.787 6.23c10.785 6.228 40.837 7.49 73.158 3.803Z" style="mix-blend-mode:multiply" fill="url(#aq)"></path><path fill="url(#ar)" d="M51.07 497.124a15.778 15.778 0 0 0-1.196-6.388c6.005-.661 10.243 3.672 10.243 11.613 0 10.439-7.33 23.135-16.372 28.358-6.876 3.966-12.748 2.462-15.172-3.066a15.92 15.92 0 0 0 6.132-2.157c9.04-5.22 16.366-17.918 16.366-28.36Z"></path><path fill="url(#as)" d="M10.165 492.408c13.55-23.466 35.52-36.166 49.079-28.334l9.041 5.22c-13.555-7.829-35.53 4.87-49.08 28.338-13.537 23.455-13.545 48.806-.025 56.648l-9.015-5.2c-13.557-7.824-13.55-33.195 0-56.672Z"></path><path fill="#e539c6" d="m19.205 554.301 24.542 14.165 24.538-42.502c13.556-23.474 13.556-48.85 0-56.67-13.555-7.829-35.53 4.87-49.08 28.338-13.545 23.476-13.55 48.848 0 56.67Zm8.172-33.046c0-10.446 7.326-23.143 16.368-28.364 9.041-5.217 16.372-.989 16.372 9.458 0 10.439-7.33 23.135-16.372 28.358-9.042 5.217-16.368.984-16.368-9.452Z" class="colore57139 svgShape"></path></g><g data-name="Speech bubbles" fill="#010001" class="color000000 svgShape"><path d="m892.992 551.438-69.102 39.896c-6.678 3.856-12.143 13.32-12.143 21.031v45.641c0 7.712 5.465 10.867 12.143 7.01l21.438-12.377 13.113 7.57 13.112-22.71 21.44-12.379c6.677-3.855 12.142-13.32 12.142-21.031v-45.641c0-7.712-5.465-10.866-12.143-7.01Z" style="mix-blend-mode:multiply" fill="url(#at)"></path><path fill="#ffffff" d="m856.234 625.807 4.413-2.548v5.095l-4.413 2.548v-5.095zM845.244 632.152l4.413-2.548v5.095l-4.413 2.548v-5.095zM871.637 616.914l-4.413 2.547v5.096l4.413-2.548v-5.095z" class="colorffffff svgShape"></path><path d="m850.985 613.118 7.456 4.304 7.455-12.914c4.119-7.132 4.119-14.841 0-17.217-4.118-2.379-10.794 1.479-14.91 8.61-4.116 7.132-4.118 14.84 0 17.217Zm2.483-10.04a10.995 10.995 0 0 1 4.972-8.618c2.747-1.585 4.975-.3 4.975 2.873a11.001 11.001 0 0 1-4.975 8.617c-2.747 1.585-4.972.298-4.972-2.873Z" style="mix-blend-mode:screen" fill="#f4f6f8" class="color807dfb svgShape"></path><path d="m269.757 338.868-69.102 39.897c-6.679 3.856-12.143 13.32-12.143 21.031v45.641c0 7.712 5.464 10.867 12.143 7.01l21.439-12.377 13.112 7.57 13.113-22.71 21.438-12.378c6.679-3.856 12.143-13.32 12.143-21.032v-45.641c0-7.712-5.464-10.866-12.143-7.01Z" style="mix-blend-mode:multiply" fill="url(#au)"></path><path d="M246.6 406.777v-24.954l9.15-5.283c1.15-.664 2.083-.126 2.083 1.203v8.173l6.092-3.518c2.236-1.29 4.048-.244 4.048 2.337v9.703l-6.258 3.613c0 .023.006.04.006.064a11.483 11.483 0 0 1-5.195 8.998c-2.869 1.656-5.195.314-5.195-3 0-.023.006-.047.006-.07ZM208.772 397.156l36.225-20.915v31.462l-13.274 7.664c0 .023.006.04.006.064a11.483 11.483 0 0 1-5.195 8.998c-2.869 1.656-5.195.314-5.195-3 0-.022.006-.047.006-.07l-12.573 7.259Z" style="mix-blend-mode:screen" fill="#fb4bdb" class="colorfb944b svgShape"></path><path d="m666.125 27.882 69.103 39.897c6.678 3.855 12.142 13.32 12.142 21.031v45.64c0 7.713-5.464 10.868-12.142 7.012l-21.44-12.378-13.112 7.57-13.112-22.711-21.439-12.378c-6.678-3.855-12.142-13.32-12.142-21.031V34.893c0-7.712 5.464-10.866 12.142-7.01Z" style="mix-blend-mode:multiply" fill="url(#k)"></path><path d="M689.048 85.782c0-7.736 12.13-21.783 12.13-21.783s12.13 28.054 12.13 35.789-5.43 10.87-12.13 7.003c-6.699-3.868-12.13-13.274-12.13-21.01Z" style="mix-blend-mode:screen" fill="url(#av)"></path><path d="m884.527 224.464 69.102 39.896c6.679 3.856 12.143 13.32 12.143 21.032v45.64c0 7.712-5.464 10.867-12.143 7.01l-21.438-12.377-13.113 7.57-13.112-22.71-21.44-12.378c-6.677-3.856-12.142-13.32-12.142-21.032v-45.64c0-7.712 5.465-10.867 12.143-7.011Z" style="mix-blend-mode:multiply" fill="url(#aw)"></path><path d="M896.377 271.493v-5.944c1.754 1.01 6.128 2.974 6.727.661v.003a11.575 11.575 0 0 1 .887-1.962l-.001.003c1.204-1.675-1.544-7.23-2.785-9.379l3.64-2.103c1.243 2.15 4.68 7.308 6.73 7.102h0a11.619 11.619 0 0 1 2.14.213l-.002-.001c2.303.637 2.79-4.132 2.79-6.158l5.15 2.973c0 2.026.486 7.357 2.79 9.38l-.002-.002c.737.71 1.451 1.466 2.14 2.257h0c2.05 2.576 5.487 1.387 6.728.67l3.641 6.307c-1.242.715-3.99 3.097-2.784 6.163h0q.513 1.487.884 2.98v-.001c.6 3.004 4.973 6.093 6.728 7.106v5.944c-1.755-1.013-6.129-2.975-6.728-.663h0a11.529 11.529 0 0 1-.885 1.959h.001c-1.206 1.67 1.542 7.228 2.783 9.376l-3.64 2.104c-1.24-2.15-4.677-7.307-6.73-7.101l.001-.001a11.497 11.497 0 0 1-2.14-.213l.001.002c-2.302-.64-2.788 4.132-2.788 6.158l-5.15-2.973c0-2.028-.487-7.357-2.79-9.38l.002.002a34.828 34.828 0 0 1-2.141-2.26l.002.003c-2.052-2.577-5.488-1.387-6.73-.67l-3.64-6.308c1.24-.716 3.988-3.1 2.784-6.163v.002q-.514-1.49-.886-2.985v.004c-.6-3.005-4.973-6.092-6.727-7.105Z" style="mix-blend-mode:screen" fill="none" stroke="#fb4bdb" stroke-linecap="round" stroke-linejoin="round" stroke-width="2" class="colorStrokefb944b svgStroke"></path><path d="M927.931 286.739c0-5.646-3.963-12.512-8.853-15.335-4.89-2.823-8.854-.535-8.854 5.111s3.964 12.512 8.854 15.335c4.89 2.823 8.853.535 8.853-5.111Z" style="mix-blend-mode:screen" fill="none" stroke="#fb4bdb" stroke-linecap="round" stroke-linejoin="round" stroke-width="2" class="colorStrokefb944b svgStroke"></path></g></g></g></svg>