<svg xmlns="http://www.w3.org/2000/svg" xmlns:xlink="http://www.w3.org/1999/xlink" viewBox="0 0 800 600" id="Manstandinginfrontofgiantsmartphoneandreceivinghisinternetorderfromrobot"><defs><linearGradient id="a" x1="343.95" x2="448.76" y1="346.32" y2="346.32" gradientUnits="userSpaceOnUse"><stop offset="0" stop-color="#c6d6e7" class="stopColorc6cbe7 svgShape"></stop><stop offset=".37" stop-color="#e1e9f2" class="stopColore1e4f2 svgShape"></stop><stop offset=".75" stop-color="#f7f9fc" class="stopColorf7f8fc svgShape"></stop><stop offset="1" stop-color="#ffffff" class="stopColorffffff svgShape"></stop></linearGradient><linearGradient id="i" x1="280.19" x2="385.01" y1="309.51" y2="309.51" xlink:href="#a"></linearGradient><linearGradient id="j" x1="517.03" x2="621.85" y1="246.39" y2="246.39" xlink:href="#a"></linearGradient><linearGradient id="k" x1="453.28" x2="558.1" y1="209.58" y2="209.58" xlink:href="#a"></linearGradient><linearGradient id="b" x1="280.19" x2="330.02" y1="261.45" y2="261.45" gradientUnits="userSpaceOnUse"><stop offset="0" stop-color="#d3e2f2" class="stopColord3d8f2 svgShape"></stop><stop offset=".02" stop-color="#d4e3f2" class="stopColord4d9f2 svgShape"></stop><stop offset=".38" stop-color="#ecf2f9" class="stopColoreceef9 svgShape"></stop><stop offset=".71" stop-color="#fafcfe" class="stopColorfafbfe svgShape"></stop><stop offset="1" stop-color="#ffffff" class="stopColorffffff svgShape"></stop></linearGradient><linearGradient id="c" x1="404.04" x2="459.13" y1="227.47" y2="227.47" gradientUnits="userSpaceOnUse"><stop offset="0" stop-color="#c6d5e4" class="stopColorc6cae4 svgShape"></stop><stop offset=".63" stop-color="#edf2f7" class="stopColoredeff7 svgShape"></stop><stop offset="1" stop-color="#ffffff" class="stopColorffffff svgShape"></stop></linearGradient><linearGradient id="l" x1="453.28" x2="467.81" y1="163.62" y2="163.62" xlink:href="#b"></linearGradient><linearGradient id="m" x1="444.03" x2="510.43" y1="206.53" y2="206.53" xlink:href="#c"></linearGradient><linearGradient id="n" x1="355.01" x2="422.66" y1="254.49" y2="254.49" xlink:href="#c"></linearGradient><linearGradient id="o" x1="280.19" x2="330.02" y1="183.26" y2="183.26" xlink:href="#b"></linearGradient><linearGradient id="p" x1="393.49" x2="452.45" y1="161.76" y2="161.76" xlink:href="#c"></linearGradient><linearGradient id="q" x1="447.88" x2="506.84" y1="130.24" y2="130.24" xlink:href="#c"></linearGradient><linearGradient id="r" x1="339.61" x2="396.51" y1="186.06" y2="186.06" xlink:href="#c"></linearGradient><linearGradient id="s" x1="453.28" x2="467.81" y1="85.43" y2="85.43" xlink:href="#b"></linearGradient><linearGradient id="f" x1="164.07" x2="540.59" y1="427.29" y2="427.29" gradientUnits="userSpaceOnUse"><stop offset="0" stop-color="#c6d5e4" class="stopColorc6cae4 svgShape"></stop><stop offset=".02" stop-color="#c8d6e5" class="stopColorc8cce5 svgShape"></stop><stop offset=".42" stop-color="#e6ecf3" class="stopColore6e8f3 svgShape"></stop><stop offset=".76" stop-color="#f8fafc" class="stopColorf8f9fc svgShape"></stop><stop offset="1" stop-color="#ffffff" class="stopColorffffff svgShape"></stop></linearGradient><linearGradient id="t" x1="167.1" x2="392.05" y1="36.63" y2="426.25" gradientUnits="userSpaceOnUse"><stop offset=".3" stop-color="#716ada" class="stopColor6a6cda svgShape"></stop><stop offset=".35" stop-color="#554fb3" class="stopColor4f51b3 svgShape"></stop><stop offset=".41" stop-color="#383389" class="stopColor333389 svgShape"></stop></linearGradient><linearGradient id="u" x1="242.15" x2="217.36" y1="320.66" y2="70.29" gradientUnits="userSpaceOnUse"><stop offset="0" stop-color="#d0e3f6" class="stopColord0d4f6 svgShape"></stop><stop offset=".28" stop-color="#cde1f6" class="stopColorcdd1f6 svgShape"></stop><stop offset=".48" stop-color="#c4ddf6" class="stopColorc4c8f6 svgShape"></stop><stop offset=".66" stop-color="#b5d5f5" class="stopColorb5b8f5 svgShape"></stop><stop offset=".82" stop-color="#a0caf5" class="stopColora0a1f5 svgShape"></stop><stop offset=".97" stop-color="#8b84f4" class="stopColor8485f4 svgShape"></stop><stop offset="1" stop-color="#867ff4" class="stopColor7f7ff4 svgShape"></stop></linearGradient><linearGradient id="v" x1="246.86" x2="232.59" y1="429.32" y2="285.17" gradientUnits="userSpaceOnUse"><stop offset="0" stop-color="#867ff4" class="stopColor7f7ff4 svgShape"></stop><stop offset=".33" stop-color="#7c75e9" class="stopColor7575e9 svgShape"></stop><stop offset=".92" stop-color="#5046e4" class="stopColor5959ca svgShape"></stop><stop offset="1" stop-color="#5c55c6" class="stopColor5555c6 svgShape"></stop></linearGradient><linearGradient id="w" x1="129.4" x2="200.8" y1="505.98" y2="505.98" gradientUnits="userSpaceOnUse"><stop offset="0" stop-color="#c6d6e7" class="stopColorc6cbe7 svgShape"></stop><stop offset=".15" stop-color="#d4e0ed" class="stopColord4d8ed svgShape"></stop><stop offset=".46" stop-color="#ecf1f7" class="stopColoreceef7 svgShape"></stop><stop offset=".75" stop-color="#fafbfd" class="stopColorfafbfd svgShape"></stop><stop offset="1" stop-color="#ffffff" class="stopColorffffff svgShape"></stop></linearGradient><linearGradient id="x" x1="97.68" x2="169.14" y1="487.7" y2="487.7" gradientUnits="userSpaceOnUse"><stop offset="0" stop-color="#c6d6e7" class="stopColorc6cbe7 svgShape"></stop><stop offset=".41" stop-color="#e5ecf4" class="stopColore5e7f4 svgShape"></stop><stop offset=".76" stop-color="#f8fafc" class="stopColorf8f9fc svgShape"></stop><stop offset="1" stop-color="#ffffff" class="stopColorffffff svgShape"></stop></linearGradient><linearGradient id="d" x1="1124.06" x2="1149.46" y1="485.27" y2="485.27" gradientTransform="matrix(-1 0 0 1 1239.85 0)" gradientUnits="userSpaceOnUse"><stop offset="0" stop-color="#6b1c6b" class="stopColor1e1c6b svgShape"></stop><stop offset=".1" stop-color="#722072" class="stopColor222072 svgShape"></stop><stop offset=".69" stop-color="#3e389b" class="stopColor38389b svgShape"></stop><stop offset="1" stop-color="#4841aa" class="stopColor4141aa svgShape"></stop></linearGradient><linearGradient id="y" x1="91.76" x2="120.89" y1="431.87" y2="431.87" gradientUnits="userSpaceOnUse"><stop offset="0" stop-color="#37318f" class="stopColor34318f svgShape"></stop><stop offset=".1" stop-color="#342e8a" class="stopColor312e8a svgShape"></stop><stop offset=".65" stop-color="#732173" class="stopColor232173 svgShape"></stop><stop offset="1" stop-color="#6b1c6b" class="stopColor1e1c6b svgShape"></stop></linearGradient><linearGradient id="z" x1="1092.65" x2="1118.05" y1="503.55" y2="503.55" xlink:href="#d"></linearGradient><linearGradient id="A" x1="1103.68" x2="1147.32" y1="442.84" y2="442.84" gradientTransform="matrix(-1 0 0 1 1239.85 0)" gradientUnits="userSpaceOnUse"><stop offset="0" stop-color="#6b1c6b" class="stopColor1e1c6b svgShape"></stop><stop offset=".29" stop-color="#2f2982" class="stopColor2b2982 svgShape"></stop><stop offset=".74" stop-color="#413b9f" class="stopColor3b3b9f svgShape"></stop><stop offset="1" stop-color="#4841aa" class="stopColor4141aa svgShape"></stop></linearGradient><linearGradient id="B" x1="1123.11" x2="1179.61" y1="436.8" y2="436.8" gradientTransform="scale(-1 1) rotate(-16.3 248.85 4839.3)" gradientUnits="userSpaceOnUse"><stop offset="0" stop-color="#d647bc" class="stopColord67747 svgShape"></stop><stop offset=".14" stop-color="#dc52c3" class="stopColordc8452 svgShape"></stop><stop offset=".47" stop-color="#e967d1" class="stopColore99e67 svgShape"></stop><stop offset=".77" stop-color="#74b2f0" class="stopColorf0ae74 svgShape"></stop><stop offset="1" stop-color="#78b5f3" class="stopColorf3b378 svgShape"></stop></linearGradient><linearGradient id="C" x1="74.08" x2="133.41" y1="551.88" y2="551.88" gradientTransform="rotate(43.1 365.188 500.955)" gradientUnits="userSpaceOnUse"><stop offset="0" stop-color="#ed5ad2" class="stopColored995a svgShape"></stop><stop offset=".16" stop-color="#df51c5" class="stopColordf8a51 svgShape"></stop><stop offset=".47" stop-color="#cb43b2" class="stopColorcb7343 svgShape"></stop><stop offset=".75" stop-color="#be3ba6" class="stopColorbe653b svgShape"></stop><stop offset="1" stop-color="#ba38a2" class="stopColorba6038 svgShape"></stop></linearGradient><linearGradient id="D" x1="90.95" x2="113.88" y1="151.18" y2="111.47" gradientUnits="userSpaceOnUse"><stop offset="0" stop-color="#d647bc" class="stopColord67747 svgShape"></stop><stop offset=".27" stop-color="#e057c7" class="stopColore08b57 svgShape"></stop><stop offset=".73" stop-color="#6faeee" class="stopColoreea86f svgShape"></stop><stop offset="1" stop-color="#78b5f3" class="stopColorf3b378 svgShape"></stop></linearGradient><linearGradient id="E" x1="293.95" x2="375.25" y1="541.64" y2="541.64" gradientUnits="userSpaceOnUse"><stop offset=".45" stop-color="#c6d4e3" class="stopColorc6cae3 svgShape"></stop><stop offset="1" stop-color="#ffffff" class="stopColorffffff svgShape"></stop></linearGradient><linearGradient id="e" x1="275.33" x2="354.96" y1="548" y2="548" gradientUnits="userSpaceOnUse"><stop offset="0" stop-color="#ed5ad2" class="stopColored995a svgShape"></stop><stop offset="1" stop-color="#d647bc" class="stopColord67747 svgShape"></stop></linearGradient><linearGradient id="F" x1="282.81" x2="347.47" y1="522.06" y2="522.06" xlink:href="#e"></linearGradient><linearGradient id="G" x1="302.85" x2="320.33" y1="538.92" y2="538.92" xlink:href="#e"></linearGradient><linearGradient id="H" x1="61.45" x2="191.24" y1="206.15" y2="206.15" gradientUnits="userSpaceOnUse"><stop offset="0" stop-color="#867ff4" class="stopColor7f7ff4 svgShape"></stop><stop offset=".22" stop-color="#9490cb" class="stopColora690cb svgShape"></stop><stop offset=".44" stop-color="#9fb3c7" class="stopColorc79fa7 svgShape"></stop><stop offset=".66" stop-color="#8db6df" class="stopColordfaa8d svgShape"></stop><stop offset=".85" stop-color="#7db5ee" class="stopColoreeb17d svgShape"></stop><stop offset="1" stop-color="#78b5f3" class="stopColorf3b378 svgShape"></stop></linearGradient><linearGradient id="I" x1="206.1" x2="387.44" y1="382.67" y2="382.67" xlink:href="#f"></linearGradient><linearGradient id="g" x1="214.57" x2="241.56" y1="366.61" y2="319.86" gradientUnits="userSpaceOnUse"><stop offset="0" stop-color="#f7f9fc" class="stopColorf7f7fc svgShape"></stop><stop offset="1" stop-color="#d0e3f6" class="stopColord0d4f6 svgShape"></stop></linearGradient><linearGradient id="h" x1="190.24" x2="225.33" y1="361.91" y2="301.14" gradientUnits="userSpaceOnUse"><stop offset="0" stop-color="#37318f" class="stopColor34318f svgShape"></stop><stop offset="1" stop-color="#5c55c6" class="stopColor5555c6 svgShape"></stop></linearGradient><linearGradient id="K" x1="199.74" x2="181.18" y1="278.99" y2="272.18" gradientUnits="userSpaceOnUse"><stop offset="0" stop-color="#6b1c6b" class="stopColor1e1c6b svgShape"></stop><stop offset=".12" stop-color="#282377" class="stopColor252377 svgShape"></stop><stop offset=".71" stop-color="#4e47b0" class="stopColor4847b0 svgShape"></stop><stop offset="1" stop-color="#5c55c6" class="stopColor5555c6 svgShape"></stop></linearGradient><linearGradient id="L" x1="208.58" x2="293.95" y1="350.91" y2="350.91" gradientUnits="userSpaceOnUse"><stop offset=".41" stop-color="#d0e3f6" class="stopColord0d4f6 svgShape"></stop><stop offset=".53" stop-color="#bcd0e4" class="stopColorbcc1e4 svgShape"></stop><stop offset=".68" stop-color="#a9bed3" class="stopColora9afd3 svgShape"></stop></linearGradient><linearGradient id="M" x1="231.55" x2="272.28" y1="372.8" y2="302.25" gradientUnits="userSpaceOnUse"><stop offset="0" stop-color="#a9bed3" class="stopColora9afd3 svgShape"></stop><stop offset=".01" stop-color="#aec2d6" class="stopColoraeb4d6 svgShape"></stop><stop offset=".07" stop-color="#d1dce8" class="stopColord1d4e8 svgShape"></stop><stop offset=".12" stop-color="#eaeff4" class="stopColoreaecf4 svgShape"></stop><stop offset=".18" stop-color="#fafbfc" class="stopColorfafafc svgShape"></stop><stop offset=".22" stop-color="#ffffff" class="stopColorffffff svgShape"></stop></linearGradient><linearGradient id="N" x1="282.09" x2="309.08" y1="405.65" y2="358.9" xlink:href="#g"></linearGradient><linearGradient id="O" x1="257.76" x2="292.85" y1="400.95" y2="340.18" xlink:href="#h"></linearGradient><linearGradient id="P" x1="199.76" x2="302.78" y1="293.29" y2="293.29" gradientUnits="userSpaceOnUse"><stop offset=".51" stop-color="#d0e3f6" class="stopColord0d4f6 svgShape"></stop><stop offset=".68" stop-color="#bdd0e4" class="stopColorbdc1e4 svgShape"></stop></linearGradient><linearGradient id="Q" x1="249.46" x2="299.46" y1="254.76" y2="254.76" gradientUnits="userSpaceOnUse"><stop offset="0" stop-color="#d3e2f2" class="stopColord3d8f2 svgShape"></stop><stop offset=".55" stop-color="#eef4fa" class="stopColoreef0fa svgShape"></stop><stop offset="1" stop-color="#ffffff" class="stopColorffffff svgShape"></stop></linearGradient><linearGradient id="R" x1="217.94" x2="243.36" y1="228.18" y2="272.21" gradientUnits="userSpaceOnUse"><stop offset=".23" stop-color="#a5b9ce" class="stopColora5aace svgShape"></stop><stop offset=".28" stop-color="#b8c8d9" class="stopColorb8bcd9 svgShape"></stop><stop offset=".38" stop-color="#eaeff5" class="stopColoreaebf5 svgShape"></stop><stop offset=".4" stop-color="#f7f9fc" class="stopColorf7f7fc svgShape"></stop></linearGradient><linearGradient id="S" x1="251.83" x2="217.09" y1="263.93" y2="225.11" gradientUnits="userSpaceOnUse"><stop offset="0" stop-color="#6b1c6b" class="stopColor1e1c6b svgShape"></stop><stop offset=".26" stop-color="#2d287e" class="stopColor2a287e svgShape"></stop><stop offset=".79" stop-color="#4e47b0" class="stopColor4847b0 svgShape"></stop><stop offset="1" stop-color="#5c55c6" class="stopColor5555c6 svgShape"></stop></linearGradient><linearGradient id="T" x1="229.89" x2="229.89" y1="247.32" y2="223.19" gradientUnits="userSpaceOnUse"><stop offset=".07" stop-color="#f7f9fc" class="stopColorf7f7fc svgShape"></stop><stop offset=".53" stop-color="#dde7f1" class="stopColordddff1 svgShape"></stop><stop offset="1" stop-color="#c6d6e7" class="stopColorc6cbe7 svgShape"></stop></linearGradient><linearGradient id="U" x1="240.12" x2="269.21" y1="211.13" y2="261.51" gradientUnits="userSpaceOnUse"><stop offset="0" stop-color="#f7f9fc" class="stopColorf7f7fc svgShape"></stop><stop offset=".33" stop-color="#e1eaf3" class="stopColore1e2f3 svgShape"></stop><stop offset=".78" stop-color="#bdd0e4" class="stopColorbdc1e4 svgShape"></stop></linearGradient><linearGradient id="V" x1="311.88" x2="334.61" y1="474.76" y2="474.76" gradientTransform="rotate(38.1 575.362 336.232)" gradientUnits="userSpaceOnUse"><stop offset="0" stop-color="#d3e2f2" class="stopColord3d8f2 svgShape"></stop><stop offset=".5" stop-color="#eef4fa" class="stopColoreef0fa svgShape"></stop><stop offset=".89" stop-color="#ffffff" class="stopColorffffff svgShape"></stop></linearGradient><linearGradient id="W" x1="296.17" x2="246.87" y1="283.27" y2="339.84" gradientUnits="userSpaceOnUse"><stop offset="0" stop-color="#5c55c6" class="stopColor5555c6 svgShape"></stop><stop offset=".29" stop-color="#4e47b0" class="stopColor4847b0 svgShape"></stop><stop offset=".88" stop-color="#282377" class="stopColor252377 svgShape"></stop><stop offset="1" stop-color="#6b1c6b" class="stopColor1e1c6b svgShape"></stop></linearGradient><linearGradient id="X" x1="505.27" x2="610.09" y1="439.47" y2="439.47" xlink:href="#a"></linearGradient><linearGradient id="Y" x1="441.52" x2="546.33" y1="402.66" y2="402.66" xlink:href="#a"></linearGradient><linearGradient id="Z" x1="678.35" x2="738.55" y1="339.53" y2="339.53" xlink:href="#a"></linearGradient><linearGradient id="aa" x1="614.6" x2="719.42" y1="302.73" y2="302.73" xlink:href="#a"></linearGradient><linearGradient id="ab" x1="441.52" x2="491.34" y1="354.6" y2="354.6" xlink:href="#b"></linearGradient><linearGradient id="ac" x1="565.36" x2="620.46" y1="320.62" y2="320.62" xlink:href="#c"></linearGradient><linearGradient id="ad" x1="614.6" x2="629.14" y1="256.77" y2="256.77" xlink:href="#b"></linearGradient><linearGradient id="ae" x1="605.35" x2="671.76" y1="299.67" y2="299.67" xlink:href="#c"></linearGradient><linearGradient id="af" x1="516.33" x2="583.98" y1="347.63" y2="347.63" xlink:href="#c"></linearGradient><linearGradient id="ag" x1="441.52" x2="491.34" y1="276.41" y2="276.41" xlink:href="#b"></linearGradient><linearGradient id="ah" x1="551.63" x2="610.59" y1="256.74" y2="256.74" xlink:href="#c"></linearGradient><linearGradient id="ai" x1="609.2" x2="668.17" y1="223.38" y2="223.38" xlink:href="#c"></linearGradient><linearGradient id="aj" x1="498.49" x2="546.75" y1="276.47" y2="276.47" xlink:href="#c"></linearGradient><linearGradient id="ak" x1="614.6" x2="629.14" y1="178.57" y2="178.57" xlink:href="#b"></linearGradient><clipPath id="J"><path fill="none" d="M162.59 62.55v291.5l145.33 83.9V147.94L162.59 62.55z"></path></clipPath></defs><g style="isolation:isolate" fill="#010001" class="color000000 svgShape"><g fill="#010001" class="color000000 svgShape"><g data-name="Boxcase" fill="#010001" class="color000000 svgShape"><path style="mix-blend-mode:multiply" fill="url(#a)" d="M448.76 342.13H343.95l7.26 4.19-7.26 4.2h104.81v-8.39z"></path><path style="mix-blend-mode:multiply" fill="url(#i)" d="M385.01 305.32H280.19l7.27 4.19-7.27 4.2h104.82v-8.39z"></path><path style="mix-blend-mode:multiply" fill="url(#j)" d="M621.85 242.19H517.03l7.27 4.2-7.27 4.19h104.82v-8.39z"></path><path style="mix-blend-mode:multiply" fill="url(#k)" d="M558.1 205.39H453.28l7.27 4.19-7.27 4.2H558.1v-8.39z"></path><path fill="#f4f6f8" d="m280.19 147.41 7.27-4.19v166.29l-7.27 4.2v-166.3z" class="colorbdc1e4 svgShape"></path><path fill="#d0e3f6" d="m280.19 147.41-7.26-4.19v166.29l7.26 4.2v-166.3z" class="colord0d4f6 svgShape"></path><path fill="#f4f6f8" d="m280.19 139.02-7.26 4.2 7.26 4.19 7.27-4.19-7.27-4.2z" class="colorf7f7fc svgShape"></path><path fill="#f4f6f8" d="m453.28 47.48 7.27-4.2v166.3l-7.27 4.2V47.48z" class="colorbdc1e4 svgShape"></path><path fill="#d0e3f6" d="m453.28 47.48-7.27-4.2v166.3l7.27 4.2V47.48z" class="colord0d4f6 svgShape"></path><path fill="#f4f6f8" d="m453.28 39.09-7.27 4.19 7.27 4.2 7.27-4.2-7.27-4.19z" class="colorf7f7fc svgShape"></path><path fill="#f4f6f8" d="m517.03 84.29 7.27-4.2v166.3l-7.27 4.19V84.29z" class="colorbdc1e4 svgShape"></path><path fill="#d0e3f6" d="m517.03 84.29-7.27-4.2v166.3l7.27 4.19V84.29z" class="colord0d4f6 svgShape"></path><path fill="#f4f6f8" d="m517.03 75.89-7.27 4.2 7.27 4.2 7.27-4.2-7.27-4.2zM460.55 161.52l-7.27 4.2-7.26-4.2-158.56 91.55v8.38l-7.27 4.2 56.49 32.61 7.27-4.19 7.26 4.19 165.82-95.73-7.26-4.2-.01-8.39-49.21-28.42z" class="colorf7f7fc svgShape"></path><path fill="#867ff4" d="m280.19 265.65 56.49 32.61v5.34l-56.49-32.61v-5.34z" class="color7f7ff4 svgShape"></path><path fill="#5c55c6" d="m517.03 202.53-165.82 95.73v5.34l165.83-95.73-.01-5.34z" class="color5555c6 svgShape"></path><path style="mix-blend-mode:multiply" fill="url(#b)" d="M330.02 257.26h-42.56v4.19l-7.27 4.2h49.83v-8.39z"></path><path style="mix-blend-mode:multiply" fill="url(#c)" d="M430.41 213.22h-26.37l28.72 16.59-20.63 11.91h26.36l20.64-11.91-28.72-16.59z"></path><path style="mix-blend-mode:multiply" fill="url(#l)" d="M453.28 165.72h14.53l-7.26-4.2-7.27 4.2z"></path><path style="mix-blend-mode:multiply" fill="url(#m)" d="m510.43 206.34-29.39-16.2h-37.01l28.73 16.58.67-.38-28.73 16.58h37.01l28.72-16.58-.67.38.67-.38z"></path><path fill="#ed5ad2" d="m444.7 201.55-28.73-16.58v21.37l28.73 16.58v-21.37z" class="colored995a svgShape"></path><path fill="#7ab3ec" d="m444.03 168.77-28.06 16.2 28.73 16.58 28.06-16.2-28.73-16.58z" class="colorecab7a svgShape"></path><path fill="#d647bc" d="m472.76 185.35-28.06 16.2v21.37l28.06-16.2v-21.37z" class="colord67747 svgShape"></path><path fill="#5c55c6" d="m452.75 209.81 11.95-6.9v-4.44l-11.95 6.9v4.44z" class="color5555c6 svgShape"></path><path fill="#726ae2" d="m404.04 198-20.64 11.92 28.73 16.58 20.63-11.91L404.04 198z" class="color6a6ae2 svgShape"></path><path fill="#37318f" d="m432.76 214.59-20.63 11.91v15.22l20.63-11.91v-15.22zM412.13 226.5l-28.73-16.58v15.22l28.73 16.58V226.5z" class="color34318f svgShape"></path><path fill="#5c55c6" d="m389.03 206.67-5.63 3.25 28.73 16.58 5.62-3.25-28.72-16.58z" class="color5555c6 svgShape"></path><path fill="#6b1c6b" d="m417.75 238.48-5.62 3.24V226.5l5.62-3.25v15.23z" class="color1e1c6b svgShape"></path><path style="mix-blend-mode:multiply" fill="url(#n)" d="M393.94 234.28h-26.37l28.72 16.58-41.28 23.84h26.37l41.28-23.84-28.72-16.58z"></path><path fill="#78b5f3" d="m367.57 219.06-41.28 23.83 28.72 16.59 41.28-23.84-28.72-16.58z" class="colorf3b378 svgShape"></path><path fill="#d647bc" d="m396.29 235.64-41.28 23.84v15.22l41.28-23.84v-15.22z" class="colord67747 svgShape"></path><path fill="#ed5ad2" d="m355.01 259.48-28.72-16.59v15.22l28.72 16.59v-15.22z" class="colored995a svgShape"></path><path fill="#f4f6f8" d="m460.55 83.33-7.27 4.2-7.26-4.2-158.56 91.54v8.39l-7.27 4.2 56.49 32.61 7.27-4.19 7.26 4.19 165.82-95.74-7.26-4.19-.01-8.39-49.21-28.42z" class="colorf7f7fc svgShape"></path><path fill="#867ff4" d="m280.19 187.46 56.49 32.61v5.34l-56.49-32.61v-5.34z" class="color7f7ff4 svgShape"></path><path fill="#5c55c6" d="m517.04 124.33-165.83 95.74v5.34l165.82-95.73.01-5.35z" class="color5555c6 svgShape"></path><path style="mix-blend-mode:multiply" fill="url(#o)" d="M330.02 179.07h-42.56v4.19l-7.27 4.2h49.83v-8.39z"></path><path style="mix-blend-mode:multiply" fill="url(#p)" d="M423.46 142.94h-22.77l29 16.74-36.2 20.9h22.76l36.2-20.9-28.99-16.74z"></path><path fill="#78b5f3" d="m386.7 119.71-36.2 20.9 42.99 24.83 36.2-20.9-42.99-24.83z" class="colorf3b378 svgShape"></path><path fill="#79b8f7" d="m386.13 126.27-24.27 14.02 14.87 8.58L401 134.86l-14.87-8.59z" class="colorf7c479 svgShape"></path><path fill="#d647bc" d="m429.69 144.54-36.2 20.9v15.14l36.2-20.9v-15.14z" class="colord67747 svgShape"></path><path fill="#ed5ad2" d="m393.49 165.44-42.99-24.83v15.15l42.99 24.82v-15.14z" class="colored995a svgShape"></path><path fill="#ffffff" d="m378.31 141.23 10.25-5.91-3.31-1.91-10.24 5.91 3.3 1.91z" class="colorffffff svgShape"></path><path style="mix-blend-mode:multiply" fill="url(#q)" d="M477.85 111.42h-22.77l29 16.73-36.2 20.9h22.76l36.2-20.9-28.99-16.73z"></path><path fill="#726ae2" d="m444.17 89.96-36.21 20.9 39.92 23.05 36.2-20.9-39.91-23.05z" class="color6a6ae2 svgShape"></path><path fill="#37318f" d="m484.08 113.01-36.2 20.9v15.14l36.2-20.9v-15.14z" class="color34318f svgShape"></path><path fill="#4841aa" d="m447.88 133.91-39.92-23.05v15.15l39.92 23.04v-15.14z" class="color4141aa svgShape"></path><path fill="#5c55c6" d="M473.89 126.65a8.27 8.27 0 0 1 3.74-6.47c2.06-1.2 3.74-.23 3.74 2.15a8.27 8.27 0 0 1-3.74 6.48c-2.06 1.19-3.74.19-3.74-2.16Z" class="color5555c6 svgShape"></path><path fill="#6b1c6b" d="m471.82 124.53-11.27 6.51v-1.57l11.27-6.51v1.57z" class="color1e1c6b svgShape"></path><path style="mix-blend-mode:multiply" fill="url(#r)" d="M362.33 169.1h-22.72l34.19 19.74-24.56 14.18h22.71l24.56-14.18-34.18-19.74z"></path><path fill="#726ae2" d="m339.62 156-24.56 14.17 34.18 19.74 24.55-14.18L339.62 156z" class="color6a6ae2 svgShape"></path><path fill="#37318f" d="m373.79 175.73-24.55 14.18v13.11l24.55-14.18v-13.11z" class="color34318f svgShape"></path><path fill="#4841aa" d="m349.24 189.91-34.18-19.74v13.12l34.18 19.73v-13.11z" class="color4141aa svgShape"></path><path fill="#f4f6f8" d="m343.95 184.22 7.26-4.2v166.3l-7.26 4.2v-166.3z" class="colorbdc1e4 svgShape"></path><path fill="#d0e3f6" d="m343.95 184.22-7.27-4.2v166.3l7.27 4.2v-166.3z" class="colord0d4f6 svgShape"></path><path fill="#f4f6f8" d="m343.95 175.82-7.27 4.2 7.27 4.2 7.26-4.2-7.26-4.2z" class="colorf7f7fc svgShape"></path><path style="mix-blend-mode:multiply" fill="url(#s)" d="M453.28 87.53h14.53l-7.26-4.2-7.27 4.2z"></path><path d="M540.59 379.84H175.85c-16.69 0-13.12 10-4.76 14.8L304 471.72c4.58 2.57 19.58 3 36.27 3h200.32Z" style="mix-blend-mode:multiply" fill="url(#f)"></path><path fill="#eaf0f7" d="M153.06 367.17c0 9.64 6.83 21.47 15.18 26.3l134 77.38c8.35 4.82 15.18.88 15.18-8.77v-314.4c0-9.64-6.83-21.47-15.18-26.29L168.24 44c-8.35-4.82-15.18-.88-15.18 8.76Z" class="coloreaedf7 svgShape"></path><path fill="url(#t)" d="M157.19 43.17c2.78-1.81 6.7-1.69 11.05.82l134 77.38c8.35 4.82 15.18 16.65 15.18 26.29v314.4c0 4.77-1.67 8.13-4.36 9.74l10.77-7c2.79-1.57 4.52-5 4.52-9.83V140.55c0-9.64-6.84-21.47-15.19-26.29l-134-77.38c-4.36-2.52-8.29-2.63-11.07-.81ZM313 471.9Z"></path><path fill="#ffffff" d="M162.59 62.55v291.5l145.33 83.9V147.94L162.59 62.55z" class="colorffffff svgShape"></path><path fill="#f4f6f8" d="M235.25 401.43c-6-3.47-10.87-.66-10.87 6.28s4.87 15.37 10.87 18.83 10.88.66 10.88-6.28-4.87-15.36-10.88-18.83Zm0 21.44a17 17 0 0 1-7.69-13.32c0-4.91 3.45-6.9 7.69-4.44a17 17 0 0 1 7.69 13.32c0 4.9-3.44 6.89-7.69 4.44Z" class="colorbdc1e4 svgShape"></path><path fill="url(#u)" d="M162.59 62.55v291.5l145.33-83.91v-122.2L162.59 62.55z"></path><path fill="#f4f6f8" d="m258.85 107.53-38.28-22.1v2.53l38.28 22.09v-2.52z" class="colorbdc1e4 svgShape"></path><g style="mix-blend-mode:multiply" fill="#010001" class="color000000 svgShape"><path fill="#e1eaf4" d="m188.87 257.73-12.77 7.37v-56.46l12.77-7.37v56.46zM208.27 246.53l-6.63 3.82v-44.57l6.63-3.83v44.58zM221.54 238.86l-6.63 3.83v-44.57l6.63-3.84v44.58zM234.81 231.2l-6.64 3.83v-44.57l6.64-3.83v44.57zM261.34 215.88l-6.63 3.83v-30.75l6.63-3.83v30.75zM274.61 208.22l-6.63 3.83V181.3l6.63-3.83v30.75zM287.88 200.56l-6.63 3.83v-30.75l6.63-3.83v30.75z" class="colore1e5f4 svgShape"></path></g><path fill="url(#v)" d="M307.92 270.14v167.81l-145.33-83.9 145.33-83.91z"></path><path style="mix-blend-mode:multiply" fill="url(#w)" d="M129.4 499.65h71.4v12.66h-71.4z"></path><path style="mix-blend-mode:multiply" fill="url(#x)" d="M97.68 481.37h71.46v12.66H97.68z"></path><path fill="#afd2f6" d="M149 351.11c-.87-1.29-4.41-1.85-7.81-1.05.38-.87.89-2.22.45-2.44-.65-.33-3.88 3-4.82 4.89a10.31 10.31 0 0 1-2.65 2.69l1.44 6.29s4.68-1.14 6.32-2.95 4.95-2.05 7-1.78c1.16.15 1.07-4.23.07-5.65Z" class="colorf6d3af svgShape"></path><path fill="#a50b89" d="M136.82 361.59s2.78-4.17-2.6-7c-13.44 3.06-20.75-12.31-28-25.67-2.21-6.46-14.4 1-11.32 14.34 5.1 13.46 19.63 27.01 41.92 18.33Z" class="colorba6038 svgShape"></path><path fill="url(#d)" d="M90.4 490.12c0-9.94 6.3-10.23 6.3-10.23s3.41 0 9-2.3 13.19-1.4 8.88 6.55a2.1 2.1 0 0 1-.15.3 4 4 0 0 1-1.4 1.23l-13.78 8.08c-2.13 1.25-8.8-1.58-8.85-3.63Z"></path><path fill="#441244" d="M90.43 489.23c.12 2 6.7 4.76 8.78 3.58l13.79-8.08a13.29 13.29 0 0 0 2-1.42c-.13.27-.24.54-.4.83a2.1 2.1 0 0 1-.15.3 4 4 0 0 1-1.4 1.23l-13.78 8.08c-2 1.12-7.94-1.24-8.73-3.23a2.29 2.29 0 0 1-.06-.4 8.77 8.77 0 0 1-.05-.89Z" class="color121244 svgShape"></path><path fill="#ffffff" d="M93 478.58a58 58 0 0 1 7.3 1.42 3.22 3.22 0 0 0 .51 1.48l.16.2c1.13.78 2.27 2-.4 3.7a3.72 3.72 0 0 1-4.82-.34 4.4 4.4 0 0 0-1.56-1.77 3.88 3.88 0 0 0-1.49-.62.45.45 0 0 0 0-.14s-.42-3.93.3-3.93Z" class="colorffffff svgShape"></path><path fill="url(#y)" d="M92.86 385.09c6.23.12 21.8-3.41 28-3.3-2.32 18.73-7 35.74-10.1 53.87-3.35 17.63-7.11 30-10.41 44.68-1.2 2.74-6.71 1.7-7.83-.92-.87-13.52-1.87-30 2.13-45.56-.65-16.8-2.19-31.8-1.79-48.77Z"></path><path fill="url(#z)" d="M121.8 508.41c0-10 6.31-10.24 6.31-10.24s3.41 0 9-2.3 13.19-1.4 8.88 6.56a2.7 2.7 0 0 1-.15.29 4 4 0 0 1-1.4 1.23L130.62 512c-2.1 1.23-8.77-1.55-8.82-3.59Z"></path><path fill="#441244" d="M121.84 507.51c.12 2.05 6.7 4.77 8.78 3.58L144.4 503a12.58 12.58 0 0 0 1.95-1.42c-.13.28-.24.54-.4.84a2.7 2.7 0 0 1-.15.29 4 4 0 0 1-1.4 1.23L130.62 512c-2 1.12-7.94-1.24-8.73-3.23a2.29 2.29 0 0 1-.06-.4 6.59 6.59 0 0 1 .01-.86Z" class="color121244 svgShape"></path><path fill="#ffffff" d="M124.37 496.86a57.64 57.64 0 0 1 7.34 1.46 3.26 3.26 0 0 0 .51 1.48l.16.19c1.13.78 2.27 2-.4 3.7a3.71 3.71 0 0 1-4.82-.34 4.38 4.38 0 0 0-1.56-1.76 3.9 3.9 0 0 0-1.49-.63.49.49 0 0 0 0-.14s-.42-3.96.26-3.96Z" class="colorffffff svgShape"></path><path fill="url(#A)" d="M112.63 425.82c-1.71-8.05-21.33-9.07-20-40.73 6.17-.9 37.23 13.7 43.4 12.79.77 18.86-1.05 36.4-1.17 54.8-.42 17.94-2.11 30.77-3 45.78-.73 2.89-6.34 2.77-7.87.37-3.07-13.19-6.74-29.27-5.34-45.29-1.84-8.89-4.03-18.3-6.02-27.72Z"></path><path fill="url(#B)" d="M100.54 399.64c10 6.14 28.88 12.19 36 4.65 1.4-17-1.85-46-1.76-54.69s-.64-12.8-2-15.43c-1.13-2.12-7.64-6.08-11.74-7.22-5.6-1.56-13.48-3.52-18.88-.5-5.86 3.6-10 33-10.08 55.34-.08 9.47 2.42 14.21 8.46 17.85Z"></path><path fill="#afd2f6" d="M106.16 325.14c3.85-3 3.43-5.17 2.7-9a19.42 19.42 0 0 1-1.46-6.68c-.32-8.67 4.91-16.37 11.69-16.16 13.67.42 11.52 7.69 11.85 16.36.31 8-3.12 13.69-9.18 14.85a4.18 4.18 0 0 0 2.27 3.62c-4.35 2.84-11.5 2-14.43 1.07s-5.22-2.07-3.44-4.06Z" class="colorf6d3af svgShape"></path><path fill="#6b1c6b" d="M108.58 293.1c2.29-2.38 5.13-.29 6.49-1.06l.73-.39c1.76-1.15.86-1.91 2.5-3s3.27.25 4.33-.14c2.51-.89 4.79-1.31 5.83-.42a7.23 7.23 0 0 1 1.38 1.67c.9 1.4 3.8-.56 3.73 2.55-.06 2.92-1.11 3.93-1.4 8.39v.92c-.24 2.89-1.13 3.69-2.55 5.21s-1.36.13-1.46-.43c-.17-1.05-.51-2-1.14-1.92s-1.89.44-2.44 3.26c-.39 2 .95 1.53.85 2.09-1.52 8.27-4.6 7.77-8 8.88a10.66 10.66 0 0 1-8.24-.5c-.95-3.11-1.36-4.94-1.82-6.4a25.5 25.5 0 0 1-.31-8.91c.72-3.85-.71-7.47 1.52-9.8Z" class="color1e1c6b svgShape"></path><path fill="#afd2f6" d="M160.51 373.93c1.19-.06 1.67-3 3.58-3.53s5.94-1.7 6-.5c.06 1-3.47 1.32-2.92 1.76 1.57 1.29 4.67-.62 5.29-2s1.77-1.63 1.83-.33.09 7.17-4.38 9.1a28.79 28.79 0 0 1-10 1.88Z" class="colorf6d3af svgShape"></path><path fill="url(#C)" d="M160.64 380.76s3.77-3.31-.68-7.46c-6.42-.26-10.72-2.63-18.2-7-8.57-5.05-6.06-21.27-7.95-29.17-1.38-6.27-15.84-6.65-14.37 7.71.85 8.36 1.47 26.18 14.8 31.53 9.55 3.8 16.47 5.46 26.4 4.39Z"></path><path fill="url(#D)" d="M105.22 114.28c4.52-2.61 8.61-2.85 11.57-1.13l5.72 3.32c-3-1.72-7.05-1.47-11.57 1.14-9 5.18-16.23 17.75-16.21 28.06 0 5.13 1.83 8.74 4.75 10.43l-5.72-3.32c-2.92-1.7-4.73-5.31-4.75-10.43-.01-10.35 7.23-22.89 16.21-28.07Z"></path><path fill="#f4f6f8" d="M110.94 117.61c9-5.19 16.29-1 16.31 9.29s-7.25 22.89-16.2 28.1-16.29 1-16.32-9.3 7.27-22.91 16.21-28.09Z" class="colorf7f7fc svgShape"></path><path fill="#f4f6f8" d="m118.49 131.27-5.55 3.2v-6.41l-2.58 1.48v6.42l-5.55 3.21v2.96l5.55-3.2v6.41l2.58-1.48v-6.42l5.55-3.2v-2.97z" class="colorbdc1e4 svgShape"></path><path d="M363.25 525c-8.5-4.9-19.8-7.16-30.9-6.83H315V521a46 46 0 0 0-9.2 4c-15.82 9.2-15.73 24.11.19 33.31a46.32 46.32 0 0 0 9 3.9v3h20.86c10-.17 20-2.44 27.62-6.88 15.79-9.24 15.71-24.15-.22-33.33Z" style="mix-blend-mode:multiply" fill="url(#E)"></path><path fill="#79b8f7" d="M275.33 530.84c0-5.89 3.88-11.77 11.66-16.26s18-6.73 28.15-6.73 20.38 2.24 28.15 6.73S355 525 355 530.84s-3.89 11.76-11.67 16.25-18 6.73-28.15 6.73-20.38-2.24-28.15-6.73-11.7-10.37-11.7-16.25Z" class="colorf7c479 svgShape"></path><path fill="url(#e)" d="M343.29 547.09c-7.77 4.49-18 6.73-28.15 6.73s-20.38-2.24-28.15-6.73-11.66-10.37-11.66-16.25v11.34c0 5.89 3.88 11.77 11.66 16.26s18 6.73 28.15 6.73 20.38-2.24 28.15-6.73S355 548.07 355 542.18v-11.34c0 5.88-3.93 11.76-11.71 16.25Z"></path><path fill="#78b5f3" d="M292.28 544c6.31 3.64 14.59 5.47 22.86 5.47s16.55-1.79 22.86-5.47c5.83-3.37 9-7.69 9.41-12.1-.45-4.4-3.58-8.73-9.41-12.09-6.31-3.65-14.58-5.47-22.86-5.47s-16.55 1.82-22.87 5.47c-5.82 3.36-8.95 7.69-9.4 12.09.45 4.44 3.58 8.77 9.41 12.1Z" class="colorf3b378 svgShape"></path><path fill="url(#F)" d="M292.27 519.85c6.32-3.65 14.59-5.47 22.87-5.47s16.55 1.82 22.86 5.47c5.83 3.36 9 7.69 9.41 12.09a10.14 10.14 0 0 0 .06-1.1c0-4.78-3.15-9.56-9.47-13.2s-14.58-5.47-22.86-5.47-16.55 1.82-22.87 5.47-9.47 8.42-9.46 13.2a10.14 10.14 0 0 0 .06 1.1c.45-4.4 3.58-8.73 9.4-12.09Z"></path><path fill="#d647bc" d="m331.07 526.09 3.06-1.77v-2.21l-3.06 1.77v2.21z" class="colord67747 svgShape"></path><path fill="#79b8f7" d="M317 529.79a2.6 2.6 0 0 1 0-4.93 9.42 9.42 0 0 1 8.54 0c2.36 1.36 2.36 3.58 0 4.94l3.88 2.23c3.82-2.21 4.38-5.59 1.69-8.14l3.06-1.77-3.88-2.24-3.06 1.77c-4.42-1.55-10.28-1.23-14.1 1-2.18 1.25-3.38 2.92-3.38 4.7s1.2 3.45 3.38 4.7c2.35 1.36 2.35 3.57 0 4.93a9.45 9.45 0 0 1-8.54 0c-2.36-1.36-2.36-3.57 0-4.93l-3.87-2.23c-3.83 2.2-4.39 5.59-1.7 8.14l-2.82 1.63 3.8 2.21 2.82-1.63c4.43 1.55 10.29 1.23 14.11-1 4.52-2.57 4.52-6.79.07-9.38Z" class="colorf7c479 svgShape"></path><path fill="#ed5ad2" d="m296.16 541.77 3.87 2.24v-2.21l-3.87-2.24v2.21z" class="colored995a svgShape"></path><path fill="#d647bc" d="m300.03 544.01 2.82-1.63v-2.21l-2.82 1.63v2.21z" class="colord67747 svgShape"></path><path fill="#ed5ad2" d="m325.5 532 3.88 2.24v-2.22l-3.88-2.23V532z" class="colored995a svgShape"></path><path fill="#d647bc" d="M304.55 534.24V532c-1.67 1-2.15 2.36-1.45 3.57a3.75 3.75 0 0 1 1.45-1.33Z" class="colord67747 svgShape"></path><path fill="#ed5ad2" d="M297.31 534.38v2.49a4.33 4.33 0 0 0 .48 1.75l1.18-.68a4.75 4.75 0 0 1-1.66-3.55ZM313.09 534.23a3.92 3.92 0 0 1 1.45 1.36c.7-1.21.22-2.6-1.45-3.57-2.18-1.25-3.38-2.92-3.38-4.7v2.21c0 1.78 1.2 3.47 3.38 4.7Z" class="colored995a svgShape"></path><path fill="#429af2" d="M320.33 534.48v-.05Z" class="colorf2bd42 svgShape"></path><path fill="#d647bc" d="M332.73 527.32c0 1.7-1.11 3.41-3.35 4.7v2.22c2.3-1.34 3.41-3.09 3.35-4.84v-2.09Z" class="colord67747 svgShape"></path><path fill="url(#G)" d="M317 539.19c-3.82 2.21-9.68 2.53-14.11 1v2.21c4.43 1.55 10.29 1.23 14.11-1 2.23-1.28 3.35-3 3.37-4.66v-2.24c-.05 1.7-1.17 3.4-3.37 4.69Z"></path><path fill="#d647bc" d="M325.5 524.85a9.42 9.42 0 0 0-8.54 0 3 3 0 0 0-1.77 2.46 2.18 2.18 0 0 0 .32 1.11 3.84 3.84 0 0 1 1.45-1.36 9.45 9.45 0 0 1 8.54 0 3.77 3.77 0 0 1 1.45 1.36c.7-1.21.22-2.6-1.45-3.57Z" class="colord67747 svgShape"></path><path d="M179.65 162.7v-10.46c0-6.31-4.47-8.89-9.93-5.74l-98.34 56.78c-5.46 3.15-9.93 10.89-9.93 17.2v39.59c0 6.31 4.47 8.89 9.93 5.73l98.34-56.8c5.46-3.15 9.93-10.89 9.93-17.2v-10.44l11.59-16Z" style="mix-blend-mode:multiply" fill="url(#H)"></path><path fill="#f4f6f8" d="m119.39 181.94 3.97-2.29v4.59l-3.97 2.29v-4.59zM74.65 219.25l93.45-53.96v3.27l-93.45 53.95v-3.26zM74.65 227.24l93.45-53.95v3.27l-93.45 53.95v-3.27zM74.65 235.24l40.93-23.63v3.27l-40.93 23.63v-3.27zM128.66 176.59l3.97-2.29v4.59l-3.97 2.29v-4.59zM114.09 185l-3.97 2.3v4.58l3.97-2.29V185z" class="colorf7f7fc svgShape"></path><path style="mix-blend-mode:multiply" fill="#d0e3f6" d="m108.13 225.34 26.49-15.3v11.59l-26.49 15.3v-11.59z" class="colord0d4f6 svgShape"></path><path d="M356.76 388.42c-4.88 0-9.94.2-15 .58a7.21 7.21 0 0 0-1.94-1.6l-33.1-19.11-3.5-2a55.45 55.45 0 0 0 8.05-3.69c13.7-7.91 2.59-14.33-24.82-14.33s-60.74 6.42-74.44 14.33-2.81 14.2 24 14.32c-.95 1.95-.1 4.14 2.54 5.67l21.71 12.53 18.15 10.48c-6.78 6.55 4.72 11.48 28.75 11.48 27.42 0 60.75-6.41 74.45-14.33s2.56-14.33-24.85-14.33Z" style="mix-blend-mode:multiply" fill="url(#I)" clip-path="url(#J)"></path><path fill="#f4f6f8" d="M226.4 316.33c-12.41 7.17-22.46 24.58-22.46 38.91s10.05 20.13 22.46 13 22.46-24.58 22.46-38.91-10.06-20.16-22.46-13Zm0 48c-10.54 6.08-19.09 1.15-19.09-11s8.55-27 19.09-33.06 19.08-1.15 19.08 11-8.54 26.95-19.08 33.04Z" class="colorbdc1e4 svgShape"></path><path fill="url(#g)" d="M226.4 364.31c10.54-6.09 19.08-20.89 19.08-33.06s-8.54-17.1-19.08-11c-.43.25-.84.53-1.25.8-.65 11.36-8.25 24.5-17.77 30.71 0 .52-.07 1-.07 1.55 0 12.15 8.55 17.08 19.09 11Z"></path><path fill="#6b1c6b" d="M226.4 313.62c-13.71 7.91-24.82 27.15-24.82 43s11.11 22.24 24.82 14.33 24.81-27.16 24.81-43-11.11-22.25-24.81-14.33Zm0 54.59c-12.41 7.16-22.46 1.35-22.46-13S214 323.5 226.4 316.33s22.46-1.35 22.46 13-10.06 31.72-22.46 38.88Z" class="color1e1c6b svgShape"></path><path fill="#6a2d5f" d="M209.06 372.78Z" class="color342d6a svgShape"></path><path fill="url(#h)" d="M224.25 300.54c-4.54-3-11-2.81-18.18 1.34-13.71 7.91-24.82 27.15-24.82 43 0 8 2.87 13.64 7.48 16.18l20 11.52c-4.39-2.64-7.1-8.15-7.1-16 0-15.83 11.11-35.07 24.82-43 7.18-4.15 13.65-4.36 18.18-1.34Z"></path><path fill="url(#K)" d="M203.12 251.23c-6.73 1.59-12.79 7.28-17.07 16-4.79 9.77-7.5 24.3-2.76 34.73l11.16-5.07c-2.55-5.61-1.43-16 2.61-24.26 2.55-5.22 5.88-8.76 8.89-9.47Z"></path><path fill="#c4d3e2" d="M291.05 318.6c3.89-2.25 3.89-5.93 0-8.17L258 291.32a15.7 15.7 0 0 0-14.16 0L211.5 310c-3.89 2.25-3.89 5.93 0 8.18l33.1 19.11a15.74 15.74 0 0 0 14.15 0Z" class="colorc4c8e2 svgShape"></path><path fill="#f4f6f8" d="M291.05 318.6c3.89-2.25 3.89-5.93 0-8.17L258 291.32a15.7 15.7 0 0 0-14.16 0L211.5 310c-3.89 2.25-3.89 5.93 0 8.18l33.1 19.11a15.74 15.74 0 0 0 14.15 0Z" class="colorf7f7fc svgShape"></path><path fill="url(#L)" d="M294 314.76c-.1 1.4-1.06 2.78-2.9 3.84l-32.3 18.65a15.72 15.72 0 0 1-14.14 0l-33.1-19.11c-1.94-1.12-2.91-2.59-2.92-4.07v33.2c0 4.64 3.89 14.84 10.53 18.34l36.61 21.13.22.13.12.07c2.54 1.33 6 1.08 9.77-1.11L284 375.35c10.35-6 10-17.14 10-22.11Z"></path><path d="M294 314.76c-.1 1.4-1.06 2.78-2.9 3.84l-32.3 18.65a15.72 15.72 0 0 1-14.14 0l-33.1-19.11c-1.94-1.12-2.91-2.59-2.92-4.07v33.2c0 4.64 3.89 14.84 10.53 18.34l36.61 21.13.22.13.12.07c2.54 1.33 6 1.08 9.77-1.11L284 375.35c10.35-6 10-17.14 10-22.11Z" style="mix-blend-mode:multiply" fill="url(#M)"></path><g clip-path="url(#J)" fill="#010001" class="color000000 svgShape"><path fill="#f4f6f8" d="M293.92 355.38c-12.41 7.16-22.46 24.58-22.46 38.9s10.05 20.13 22.46 13 22.46-24.58 22.46-38.9-10.05-20.16-22.46-13Zm0 48c-10.54 6.09-19.08 1.15-19.08-11s8.54-27 19.08-33.05 19.08-1.16 19.08 11-8.54 26.94-19.08 33.02Z" class="colorbdc1e4 svgShape"></path><path fill="url(#N)" d="M293.92 403.35c10.54-6.08 19.08-20.88 19.08-33.05s-8.54-17.11-19.08-11c-.42.24-.84.52-1.25.79-.65 11.36-8.25 24.5-17.77 30.71 0 .52-.06 1-.06 1.55 0 12.15 8.54 17.09 19.08 11Z"></path><path fill="#6b1c6b" d="M293.92 352.66c-13.71 7.91-24.82 27.16-24.82 43s11.11 22.24 24.82 14.33 24.82-27.16 24.81-43-11.11-22.24-24.81-14.33Zm0 54.59c-12.4 7.16-22.46 1.36-22.46-13s10.05-31.74 22.46-38.9 22.46-1.36 22.46 13-10.06 31.74-22.46 38.9Z" class="color1e1c6b svgShape"></path><path fill="#6a2d5f" d="M276.58 411.82Z" class="color342d6a svgShape"></path><path fill="url(#O)" d="M291.77 339.58c-4.53-3-11-2.81-18.18 1.34-13.71 7.91-24.82 27.16-24.82 43 0 8 2.87 13.64 7.48 16.18l20 11.52c-4.4-2.63-7.11-8.15-7.11-16 0-15.82 11.11-35.07 24.82-43 7.18-4.15 13.65-4.35 18.18-1.34Z"></path></g><path d="M302.78 256.56v.12Z" fill="#010001" class="color000000 svgShape"></path><path fill="url(#P)" d="M302.78 256.87c0 1.45-1 2.89-2.91 4l-32.3 18.64a15.7 15.7 0 0 1-14.16 0l-50.73-29.29c-1.94-1.12-2.92-2.6-2.92-4.08v59.25c0 1.48 1 3 2.92 4.09l50.73 29.29a15.7 15.7 0 0 0 14.16 0l32.3-18.65c2-1.17 3-2.75 2.9-4.3Z"></path><path fill="#f4f6f8" d="M299.87 260.86c3.89-2.25 3.89-5.93 0-8.18l-50.73-29.29a15.73 15.73 0 0 0-14.16 0L202.68 242c-3.89 2.25-3.89 5.92 0 8.17l50.73 29.29a15.7 15.7 0 0 0 14.16 0Z" class="colorf7f7fc svgShape"></path><path d="M290.89 247.79c-11.44-6.61-30-12-41.43-12l18.36 17.8-8.08 4.66a20.23 20.23 0 0 0-9.5 12.43 24.66 24.66 0 0 0 10.34 3h6c3.56 0 6-.52 7.35-1.43l23.24-13.41c4.47-1.77 2.37-6.05-6.28-11.05Z" style="mix-blend-mode:multiply" fill="url(#Q)"></path><path fill="#d0e3f6" d="M234 224.56c-11.44-6.61-20.71-1.25-20.71 11.95v7a11.42 11.42 0 0 0 5.16 9l31.1 17.95c2.85 1.65 5.17.32 5.17-3v-7c.02-13.24-9.26-29.3-20.72-35.9Z" class="colord0d4f6 svgShape"></path><path fill="url(#R)" d="M218.51 243.46v-7c0-5 1.53-8.72 4.08-10.86-4.09 1.49-6.7 5.83-6.7 12.37v7a5.71 5.71 0 0 0 2.59 4.48l31.09 17.95c1.42.82 2.58.15 2.58-1.5l-31.05-17.96a5.74 5.74 0 0 1-2.59-4.48Z"></path><path fill="url(#S)" d="M234 227.54c-4.33-2.5-8.31-3-11.43-1.9-2.55 2.14-4.08 5.85-4.08 10.86v7a5.74 5.74 0 0 0 2.59 4.48l31.05 17.93v-6.93c.02-11.58-8.13-25.67-18.13-31.44Z"></path><path d="M220.6 245.55v-7c0-5 1.53-8.71 4.07-10.85 3.13-1.13 7.11-.6 11.44 1.9a29.7 29.7 0 0 1 5.16 3.85 31.57 31.57 0 0 0-7.25-5.94c-4.33-2.5-8.31-3-11.43-1.9-2.55 2.14-4.08 5.85-4.08 10.86v7a5.74 5.74 0 0 0 2.59 4.48l.25.14a5.27 5.27 0 0 1-.75-2.54Z" style="mix-blend-mode:multiply" fill="url(#T)"></path><path fill="#ffffff" d="M232.14 244.1a.77.77 0 0 1-.7-.44l-1.44-3.15c-.47-1-1.06-1.51-1.45-1.58a.29.29 0 0 0-.29.09l-1.48 1.45a.76.76 0 0 1-1.06-1.09l1.48-1.45a1.8 1.8 0 0 1 1.62-.5 4 4 0 0 1 2.56 2.43l1.47 3.16a.76.76 0 0 1-.36 1 .77.77 0 0 1-.35.08ZM247.06 252.72a.76.76 0 0 1-.69-.44l-1.48-3.15c-.46-1-1.06-1.51-1.44-1.58a.29.29 0 0 0-.29.09l-1.48 1.45a.76.76 0 0 1-1.07-1.09l1.48-1.45a1.82 1.82 0 0 1 1.63-.5 4 4 0 0 1 2.55 2.43l1.48 3.15a.76.76 0 0 1-.37 1 .71.71 0 0 1-.32.09Z" class="colorffffff svgShape"></path><path fill="url(#U)" d="M260.86 209.06c-5.74-3.3-10.93-3.61-14.68-1.43l-26.79 15.47c3.75-2.16 8.92-1.84 14.63 1.46 11.44 6.6 20.72 22.66 20.72 35.87v7a3.67 3.67 0 0 1-1.48 3.32L280 255.3c1-.51 1.62-1.69 1.62-3.39v-7c-.05-13.18-9.32-29.24-20.76-35.85Z"></path><path fill="#441244" d="M233.38 334.34a15.91 15.91 0 0 1-2.81-.23 3.06 3.06 0 0 1 1.1-6 19.57 19.57 0 0 0 7.39-.67 3.06 3.06 0 1 1 1.81 5.85 28 28 0 0 1-7.49 1.05Z" class="color121244 svgShape"></path><path fill="#78b5f3" d="m206.72 280.39-36.45 21.04 43.29 25L250 305.38l-43.28-24.99z" class="colorf3b378 svgShape"></path><path fill="#79b8f7" d="m206.15 286.99-24.44 14.11 14.97 8.65 24.44-14.11-14.97-8.65z" class="colorf7c479 svgShape"></path><path fill="#d647bc" d="m250 305.38-36.44 21.05v15.24L250 320.63v-15.25z" class="colord67747 svgShape"></path><path fill="#ed5ad2" d="m213.56 326.43-43.29-25v15.25l43.29 24.99v-15.24z" class="colored995a svgShape"></path><path fill="#ffffff" d="m198.28 302.05 10.31-5.95-3.33-1.92-10.31 5.95 3.33 1.92z" class="colorffffff svgShape"></path><path style="mix-blend-mode:multiply" fill="url(#V)" d="m299.03 299.66-18-13.88 6.84-8.73 18 13.88-6.84 8.73z"></path><path fill="#441244" d="M241.25 329.62a3.07 3.07 0 0 1-2.92-2.15 19.74 19.74 0 0 0-4-6.22 3.07 3.07 0 0 1 4.34-4.33 25.55 25.55 0 0 1 5.55 8.71 3.08 3.08 0 0 1-2 3.85 3.21 3.21 0 0 1-.97.14Z" class="color121244 svgShape"></path><path fill="#6b1c6b" d="M279.56 287.74a14 14 0 0 1 6.35-11c3.51-2 6.35-.39 6.35 3.66a14 14 0 0 1-6.35 11c-3.51 2.03-6.35.39-6.35-3.66Z" class="color1e1c6b svgShape"></path><path fill="url(#W)" d="M291.35 280.55a45 45 0 0 0-4.1-4.41 6.83 6.83 0 0 0-1.34.61 14.25 14.25 0 0 0-6.11 8.88 10.11 10.11 0 0 0 1.53 2.52c5.13 5.75 1.87 14.89-2.47 21-7 9.82-19.85 17.33-34.15 12.16-7.27.76-9.45 7.87-4.75 11.3 19.65 8.27 39.11-2.67 48.87-16.33 9.17-12.88 9.68-27.57 2.52-35.73Z"></path><path style="mix-blend-mode:multiply" fill="url(#X)" d="M610.09 435.27H505.27l7.27 4.19-7.27 4.2h104.82v-8.39z"></path><path style="mix-blend-mode:multiply" fill="url(#Y)" d="M546.33 398.46H441.51l7.27 4.2-7.27 4.2h104.82v-8.4z"></path><path style="mix-blend-mode:multiply" fill="url(#Z)" d="M738.55 335.34h-60.2l7.27 4.19-7.27 4.2h60.2v-8.39z"></path><path style="mix-blend-mode:multiply" fill="url(#aa)" d="M719.42 298.53H614.6l7.27 4.2-7.27 4.19h104.82v-8.39z"></path><path fill="#f4f6f8" d="m441.51 240.55 7.27-4.19v166.3l-7.27 4.2V240.55z" class="colorbdc1e4 svgShape"></path><path fill="#f4f6f8" d="m441.51 232.16-7.26 4.2 7.26 4.19 7.27-4.19-7.27-4.2z" class="colorf7f7fc svgShape"></path><path fill="#d0e3f6" d="m441.51 240.55-7.26-4.19v166.3l7.26 4.2V240.55z" class="colord0d4f6 svgShape"></path><path fill="#f4f6f8" d="m614.6 140.62 7.27-4.19v166.3l-7.27 4.19v-166.3z" class="colorbdc1e4 svgShape"></path><path fill="#d0e3f6" d="m614.6 140.62-7.26-4.19v166.3l7.26 4.19v-166.3z" class="colord0d4f6 svgShape"></path><path fill="#f4f6f8" d="m614.6 132.23-7.26 4.2 7.26 4.19 7.27-4.19-7.27-4.2z" class="colorf7f7fc svgShape"></path><path fill="#f4f6f8" d="m678.35 177.43 7.27-4.2v166.3l-7.27 4.2v-166.3z" class="colorbdc1e4 svgShape"></path><path fill="#d0e3f6" d="m678.35 177.43-7.26-4.2v166.3l7.26 4.2v-166.3z" class="colord0d4f6 svgShape"></path><path fill="#f4f6f8" d="m678.35 169.04-7.26 4.19 7.26 4.2 7.27-4.2-7.27-4.19zM621.87 254.67l-7.27 4.19-7.26-4.19-158.56 91.54v8.39l-7.26 4.2L498 391.41l7.27-4.2 7.27 4.2 165.82-95.74-7.27-4.19v-8.4l-49.22-28.41z" class="colorf7f7fc svgShape"></path><path fill="#867ff4" d="M441.52 358.8 498 391.41v5.34l-56.49-32.62.01-5.33z" class="color7f7ff4 svgShape"></path><path fill="#5c55c6" d="m678.36 295.67-165.82 95.74v5.34l165.82-95.74v-5.34z" class="color5555c6 svgShape"></path><path style="mix-blend-mode:multiply" fill="url(#ab)" d="M491.34 350.4h-42.56v4.2l-7.26 4.2h49.82v-8.4z"></path><path style="mix-blend-mode:multiply" fill="url(#ac)" d="M591.73 306.37h-26.37l28.73 16.58-20.64 11.92h26.37l20.64-11.92-28.73-16.58z"></path><path style="mix-blend-mode:multiply" fill="url(#ad)" d="M614.6 258.86h14.54l-7.27-4.19-7.27 4.19z"></path><path style="mix-blend-mode:multiply" fill="url(#ae)" d="m671.76 299.48-29.4-16.2h-37.01l28.73 16.59.67-.39-28.73 16.58h37.01l28.73-16.58-.67.39.67-.39z"></path><path fill="#4841aa" d="m606.02 294.69-28.73-16.58.01 21.37 28.72 16.58v-21.37z" class="color4141aa svgShape"></path><path fill="#f4f6f8" d="m605.35 261.91-28.06 16.2 28.73 16.58 28.06-16.19-28.73-16.59z" class="colorbdc1e4 svgShape"></path><path fill="#37318f" d="m634.08 278.5-28.06 16.19v21.37l28.06-16.19V278.5z" class="color34318f svgShape"></path><path fill="#b0c4d8" d="m614.08 302.95 11.94-6.9v-4.44l-11.94 6.9v4.44z" class="colorb0b5d8 svgShape"></path><path fill="#726ae2" d="m565.36 291.14-20.64 11.92 28.73 16.59 20.64-11.92-28.73-16.59z" class="color6a6ae2 svgShape"></path><path fill="#37318f" d="m594.09 307.73-20.64 11.92v15.22l20.64-11.92v-15.22z" class="color34318f svgShape"></path><path fill="#4841aa" d="m573.45 319.65-28.73-16.59v15.22l28.73 16.59v-15.22z" class="color4141aa svgShape"></path><path style="mix-blend-mode:multiply" fill="url(#af)" d="M555.26 327.42h-26.37l28.72 16.59-41.28 23.83h26.37l41.28-23.83-28.72-16.59z"></path><path fill="#78b5f3" d="m528.89 312.2-41.28 23.83 28.72 16.59 41.28-23.83-28.72-16.59z" class="colorf3b378 svgShape"></path><path fill="#d647bc" d="m557.61 328.79-41.28 23.83v15.22l41.28-23.83v-15.22z" class="colord67747 svgShape"></path><path fill="#ed5ad2" d="m516.33 352.62-28.72-16.59v15.23l28.72 16.58v-15.22z" class="colored995a svgShape"></path><path fill="#ffffff" d="m550.48 329.83-15.2-8.77 1.82-1.05 15.19 8.78-1.81 1.04zM546.84 331.93l-10.07-5.81 1.82-1.05 10.07 5.81-1.82 1.05zM543.2 334.03l-5.07-2.92 1.82-1.06 5.07 2.93-1.82 1.05z" class="colorffffff svgShape"></path><path fill="#f4f6f8" d="m621.87 176.47-7.27 4.2-7.26-4.2-158.56 91.55v8.39l-7.26 4.19L498 313.21l7.27-4.19 7.27 4.19 165.82-95.73-7.27-4.2v-8.39l-49.22-28.42z" class="colorf7f7fc svgShape"></path><path fill="#867ff4" d="M441.51 280.6 498 313.21v5.35l-56.48-32.62-.01-5.34z" class="color7f7ff4 svgShape"></path><path fill="#5c55c6" d="m678.36 217.48-165.82 95.73v5.35l165.82-95.74v-5.34z" class="color5555c6 svgShape"></path><path style="mix-blend-mode:multiply" fill="url(#ag)" d="M491.34 272.21h-42.56v4.2l-7.27 4.19h49.83v-8.39z"></path><path style="mix-blend-mode:multiply" fill="url(#ah)" d="M581.6 237.92h-22.76l28.99 16.74-36.2 20.9h22.76l36.21-20.9-29-16.74z"></path><path fill="#78b5f3" d="m544.84 214.69-36.2 20.9 42.99 24.83 36.2-20.91-42.99-24.82z" class="colorf3b378 svgShape"></path><path fill="#d647bc" d="m587.83 239.51-36.2 20.91v15.14l36.2-20.9v-15.15z" class="colord67747 svgShape"></path><path fill="#ed5ad2" d="m551.63 260.42-42.99-24.83v15.15l42.99 24.82v-15.14z" class="colored995a svgShape"></path><path fill="#f1f4f7" d="m537.07 247.64 28.64-16.53-5.2-3-28.64 16.53 5.2 3z" class="colorf1f1f7 svgShape"></path><path style="mix-blend-mode:multiply" fill="url(#ai)" d="M639.17 204.56h-22.76l28.99 16.74-36.2 20.9h22.76l36.2-20.9-28.99-16.74z"></path><path fill="#ffffff" d="m605.49 183.11-36.2 20.9 39.91 23.04 36.2-20.9-39.91-23.04z" class="colorffffff svgShape"></path><path fill="#f4f6f8" d="m645.4 206.15-36.2 20.9v15.15l36.2-20.9v-15.15z" class="colorbdc1e4 svgShape"></path><path fill="#d0e3f6" d="m609.2 227.05-39.91-23.04v15.14l39.91 23.05v-15.15z" class="colord0d4f6 svgShape"></path><path fill="#867ff4" d="M613.29 200.38a14.19 14.19 0 0 0-12.88 0c-3.56 2.05-3.56 5.38 0 7.44a14.26 14.26 0 0 0 12.88 0c3.55-2.06 3.55-5.39 0-7.44Z" class="color7f7ff4 svgShape"></path><path style="mix-blend-mode:multiply" fill="url(#aj)" d="M517.76 262.09h-19.27l29 16.74-20.83 12.03h19.26l20.83-12.03-28.99-16.74z"></path><path fill="#726ae2" d="M498.5 250.97 477.67 263l28.99 16.74 20.83-12.03-28.99-16.74z" class="color6a6ae2 svgShape"></path><path fill="#37318f" d="m527.49 267.71-20.83 12.03v11.12l20.83-12.03v-11.12z" class="color34318f svgShape"></path><path fill="#4841aa" d="M506.66 279.74 477.67 263v11.12l28.99 16.74v-11.12z" class="color4141aa svgShape"></path><path fill="#f4f6f8" d="m505.27 277.36 7.27-4.2v166.3l-7.27 4.2v-166.3z" class="colorbdc1e4 svgShape"></path><path fill="#d0e3f6" d="m505.27 277.36-7.27-4.2v166.3l7.27 4.2v-166.3z" class="colord0d4f6 svgShape"></path><path fill="#f4f6f8" d="m505.27 268.97-7.27 4.19 7.27 4.2 7.27-4.2-7.27-4.19z" class="colorf7f7fc svgShape"></path><path style="mix-blend-mode:multiply" fill="url(#ak)" d="M614.6 180.67h14.54l-7.27-4.2-7.27 4.2z"></path><path fill="#37318f" d="m561.1 327.74-4.34-2.5v-15.23l4.34 2.51v15.22z" class="color34318f svgShape"></path><path fill="#5c55c6" d="m561.1 312.52-4.34-2.51 20.64-11.92 4.34 2.51-20.64 11.92z" class="color5555c6 svgShape"></path></g></g></g></svg>